%
M48
M72
T01C0.02400
T02C0.03200
T03C0.04000
T04C0.05200
T05C0.11900
T06C0.12598
%
T01
X73244Y72850
X106709Y92043
X116059Y92535
X133283Y102378
X143126Y111728
X143618Y116650
X144110Y121571
X147555Y126984
X147063Y131906
X159071Y131512
X102772Y121571
X90961Y136335
X90961Y141748
X111827Y79937
X224425Y146079
X264583Y145291
X264583Y135843
X265370Y125606
X264976Y115764
X264976Y105134
X264976Y94504
X287417Y80724
X298047Y73244
X307004Y89091
X291354Y96079
X291748Y119701
X287024Y135055
T02
X159425Y88205
X189425Y88205
X180764Y103165
X150764Y103165
X152693Y124543
X162693Y124543
X172693Y124543
X193244Y121197
X193244Y131197
X191079Y144819
X191079Y154819
X172693Y154543
X162693Y154543
X152693Y154543
X58441Y122969
X58441Y112969
X26630Y117890
X16630Y117890
X287024Y58795
X287024Y68795
X294780Y16157
X284780Y16157
T03
X20094Y93756
X20094Y83756
X20094Y73756
X20094Y63756
X254740Y80803
X254740Y90803
X254740Y100803
X254740Y110803
X254740Y120803
X254740Y130803
X254740Y140803
X254740Y150803
X276394Y150409
X276394Y140409
X276394Y130409
X276394Y120409
X276394Y110409
X276394Y100409
X276394Y90409
X276394Y80409
X313126Y85134
X323126Y85134
X323126Y95134
X313126Y95134
X313126Y105134
X323126Y105134
X323126Y115134
X313126Y115134
X313126Y125134
X323126Y125134
T04
X99878Y45921
X114878Y45921
X129878Y45921
X144878Y45921
X159878Y45921
X174878Y45921
X189878Y45921
X204878Y45921
X219878Y45921
X234878Y45921
X242378Y65921
X227378Y65921
X212378Y65921
X197378Y65921
X182378Y65921
X167378Y65921
X152378Y65921
X137378Y65921
X122378Y65921
X107378Y65921
X92378Y65921
T05
X63378Y32921
X63378Y46921
X271378Y32921
X271378Y46921
T06
X17260Y158598
X16079Y24346
X325055Y26984
X327142Y156236
M30
