G75*
%MOIN*%
%OFA0B0*%
%FSLAX25Y25*%
%IPPOS*%
%LPD*%
%AMOC8*
5,1,8,0,0,1.08239X$1,22.5*
%
%ADD10C,0.00000*%
%ADD11OC8,0.05200*%
%ADD12C,0.05200*%
%ADD13C,0.00009*%
%ADD14C,0.07800*%
%ADD15C,0.07400*%
%ADD16C,0.06000*%
%ADD17C,0.01969*%
%ADD18C,0.04000*%
%ADD19C,0.01600*%
D10*
X0002378Y0001591D02*
X0001984Y0171394D01*
X0343008Y0171394D01*
X0342614Y0001984D01*
X0002378Y0001591D01*
X0009780Y0024346D02*
X0009782Y0024504D01*
X0009788Y0024662D01*
X0009798Y0024820D01*
X0009812Y0024978D01*
X0009830Y0025135D01*
X0009851Y0025292D01*
X0009877Y0025448D01*
X0009907Y0025604D01*
X0009940Y0025759D01*
X0009978Y0025912D01*
X0010019Y0026065D01*
X0010064Y0026217D01*
X0010113Y0026368D01*
X0010166Y0026517D01*
X0010222Y0026665D01*
X0010282Y0026811D01*
X0010346Y0026956D01*
X0010414Y0027099D01*
X0010485Y0027241D01*
X0010559Y0027381D01*
X0010637Y0027518D01*
X0010719Y0027654D01*
X0010803Y0027788D01*
X0010892Y0027919D01*
X0010983Y0028048D01*
X0011078Y0028175D01*
X0011175Y0028300D01*
X0011276Y0028422D01*
X0011380Y0028541D01*
X0011487Y0028658D01*
X0011597Y0028772D01*
X0011710Y0028883D01*
X0011825Y0028992D01*
X0011943Y0029097D01*
X0012064Y0029199D01*
X0012187Y0029299D01*
X0012313Y0029395D01*
X0012441Y0029488D01*
X0012571Y0029578D01*
X0012704Y0029664D01*
X0012839Y0029748D01*
X0012975Y0029827D01*
X0013114Y0029904D01*
X0013255Y0029976D01*
X0013397Y0030046D01*
X0013541Y0030111D01*
X0013687Y0030173D01*
X0013834Y0030231D01*
X0013983Y0030286D01*
X0014133Y0030337D01*
X0014284Y0030384D01*
X0014436Y0030427D01*
X0014589Y0030466D01*
X0014744Y0030502D01*
X0014899Y0030533D01*
X0015055Y0030561D01*
X0015211Y0030585D01*
X0015368Y0030605D01*
X0015526Y0030621D01*
X0015683Y0030633D01*
X0015842Y0030641D01*
X0016000Y0030645D01*
X0016158Y0030645D01*
X0016316Y0030641D01*
X0016475Y0030633D01*
X0016632Y0030621D01*
X0016790Y0030605D01*
X0016947Y0030585D01*
X0017103Y0030561D01*
X0017259Y0030533D01*
X0017414Y0030502D01*
X0017569Y0030466D01*
X0017722Y0030427D01*
X0017874Y0030384D01*
X0018025Y0030337D01*
X0018175Y0030286D01*
X0018324Y0030231D01*
X0018471Y0030173D01*
X0018617Y0030111D01*
X0018761Y0030046D01*
X0018903Y0029976D01*
X0019044Y0029904D01*
X0019183Y0029827D01*
X0019319Y0029748D01*
X0019454Y0029664D01*
X0019587Y0029578D01*
X0019717Y0029488D01*
X0019845Y0029395D01*
X0019971Y0029299D01*
X0020094Y0029199D01*
X0020215Y0029097D01*
X0020333Y0028992D01*
X0020448Y0028883D01*
X0020561Y0028772D01*
X0020671Y0028658D01*
X0020778Y0028541D01*
X0020882Y0028422D01*
X0020983Y0028300D01*
X0021080Y0028175D01*
X0021175Y0028048D01*
X0021266Y0027919D01*
X0021355Y0027788D01*
X0021439Y0027654D01*
X0021521Y0027518D01*
X0021599Y0027381D01*
X0021673Y0027241D01*
X0021744Y0027099D01*
X0021812Y0026956D01*
X0021876Y0026811D01*
X0021936Y0026665D01*
X0021992Y0026517D01*
X0022045Y0026368D01*
X0022094Y0026217D01*
X0022139Y0026065D01*
X0022180Y0025912D01*
X0022218Y0025759D01*
X0022251Y0025604D01*
X0022281Y0025448D01*
X0022307Y0025292D01*
X0022328Y0025135D01*
X0022346Y0024978D01*
X0022360Y0024820D01*
X0022370Y0024662D01*
X0022376Y0024504D01*
X0022378Y0024346D01*
X0022376Y0024188D01*
X0022370Y0024030D01*
X0022360Y0023872D01*
X0022346Y0023714D01*
X0022328Y0023557D01*
X0022307Y0023400D01*
X0022281Y0023244D01*
X0022251Y0023088D01*
X0022218Y0022933D01*
X0022180Y0022780D01*
X0022139Y0022627D01*
X0022094Y0022475D01*
X0022045Y0022324D01*
X0021992Y0022175D01*
X0021936Y0022027D01*
X0021876Y0021881D01*
X0021812Y0021736D01*
X0021744Y0021593D01*
X0021673Y0021451D01*
X0021599Y0021311D01*
X0021521Y0021174D01*
X0021439Y0021038D01*
X0021355Y0020904D01*
X0021266Y0020773D01*
X0021175Y0020644D01*
X0021080Y0020517D01*
X0020983Y0020392D01*
X0020882Y0020270D01*
X0020778Y0020151D01*
X0020671Y0020034D01*
X0020561Y0019920D01*
X0020448Y0019809D01*
X0020333Y0019700D01*
X0020215Y0019595D01*
X0020094Y0019493D01*
X0019971Y0019393D01*
X0019845Y0019297D01*
X0019717Y0019204D01*
X0019587Y0019114D01*
X0019454Y0019028D01*
X0019319Y0018944D01*
X0019183Y0018865D01*
X0019044Y0018788D01*
X0018903Y0018716D01*
X0018761Y0018646D01*
X0018617Y0018581D01*
X0018471Y0018519D01*
X0018324Y0018461D01*
X0018175Y0018406D01*
X0018025Y0018355D01*
X0017874Y0018308D01*
X0017722Y0018265D01*
X0017569Y0018226D01*
X0017414Y0018190D01*
X0017259Y0018159D01*
X0017103Y0018131D01*
X0016947Y0018107D01*
X0016790Y0018087D01*
X0016632Y0018071D01*
X0016475Y0018059D01*
X0016316Y0018051D01*
X0016158Y0018047D01*
X0016000Y0018047D01*
X0015842Y0018051D01*
X0015683Y0018059D01*
X0015526Y0018071D01*
X0015368Y0018087D01*
X0015211Y0018107D01*
X0015055Y0018131D01*
X0014899Y0018159D01*
X0014744Y0018190D01*
X0014589Y0018226D01*
X0014436Y0018265D01*
X0014284Y0018308D01*
X0014133Y0018355D01*
X0013983Y0018406D01*
X0013834Y0018461D01*
X0013687Y0018519D01*
X0013541Y0018581D01*
X0013397Y0018646D01*
X0013255Y0018716D01*
X0013114Y0018788D01*
X0012975Y0018865D01*
X0012839Y0018944D01*
X0012704Y0019028D01*
X0012571Y0019114D01*
X0012441Y0019204D01*
X0012313Y0019297D01*
X0012187Y0019393D01*
X0012064Y0019493D01*
X0011943Y0019595D01*
X0011825Y0019700D01*
X0011710Y0019809D01*
X0011597Y0019920D01*
X0011487Y0020034D01*
X0011380Y0020151D01*
X0011276Y0020270D01*
X0011175Y0020392D01*
X0011078Y0020517D01*
X0010983Y0020644D01*
X0010892Y0020773D01*
X0010803Y0020904D01*
X0010719Y0021038D01*
X0010637Y0021174D01*
X0010559Y0021311D01*
X0010485Y0021451D01*
X0010414Y0021593D01*
X0010346Y0021736D01*
X0010282Y0021881D01*
X0010222Y0022027D01*
X0010166Y0022175D01*
X0010113Y0022324D01*
X0010064Y0022475D01*
X0010019Y0022627D01*
X0009978Y0022780D01*
X0009940Y0022933D01*
X0009907Y0023088D01*
X0009877Y0023244D01*
X0009851Y0023400D01*
X0009830Y0023557D01*
X0009812Y0023714D01*
X0009798Y0023872D01*
X0009788Y0024030D01*
X0009782Y0024188D01*
X0009780Y0024346D01*
X0057428Y0032921D02*
X0057430Y0033075D01*
X0057436Y0033229D01*
X0057446Y0033382D01*
X0057460Y0033535D01*
X0057478Y0033688D01*
X0057499Y0033840D01*
X0057525Y0033992D01*
X0057555Y0034143D01*
X0057588Y0034293D01*
X0057626Y0034442D01*
X0057667Y0034591D01*
X0057712Y0034738D01*
X0057761Y0034884D01*
X0057814Y0035028D01*
X0057870Y0035171D01*
X0057930Y0035313D01*
X0057994Y0035453D01*
X0058061Y0035591D01*
X0058132Y0035728D01*
X0058206Y0035863D01*
X0058284Y0035995D01*
X0058365Y0036126D01*
X0058450Y0036255D01*
X0058537Y0036381D01*
X0058628Y0036505D01*
X0058723Y0036626D01*
X0058820Y0036746D01*
X0058920Y0036862D01*
X0059024Y0036976D01*
X0059130Y0037087D01*
X0059239Y0037196D01*
X0059351Y0037301D01*
X0059466Y0037404D01*
X0059583Y0037504D01*
X0059703Y0037600D01*
X0059825Y0037694D01*
X0059949Y0037784D01*
X0060076Y0037871D01*
X0060205Y0037955D01*
X0060337Y0038035D01*
X0060470Y0038112D01*
X0060605Y0038185D01*
X0060742Y0038255D01*
X0060881Y0038322D01*
X0061021Y0038384D01*
X0061163Y0038443D01*
X0061307Y0038499D01*
X0061452Y0038551D01*
X0061598Y0038598D01*
X0061745Y0038643D01*
X0061894Y0038683D01*
X0062043Y0038719D01*
X0062194Y0038752D01*
X0062345Y0038781D01*
X0062497Y0038805D01*
X0062649Y0038826D01*
X0062802Y0038843D01*
X0062955Y0038856D01*
X0063109Y0038865D01*
X0063263Y0038870D01*
X0063416Y0038871D01*
X0063570Y0038868D01*
X0063724Y0038861D01*
X0063877Y0038850D01*
X0064031Y0038835D01*
X0064183Y0038816D01*
X0064335Y0038793D01*
X0064487Y0038767D01*
X0064638Y0038736D01*
X0064788Y0038702D01*
X0064937Y0038663D01*
X0065084Y0038621D01*
X0065231Y0038575D01*
X0065377Y0038525D01*
X0065521Y0038472D01*
X0065664Y0038414D01*
X0065805Y0038353D01*
X0065945Y0038289D01*
X0066083Y0038221D01*
X0066219Y0038149D01*
X0066353Y0038074D01*
X0066485Y0037995D01*
X0066615Y0037913D01*
X0066743Y0037828D01*
X0066869Y0037739D01*
X0066992Y0037647D01*
X0067113Y0037552D01*
X0067232Y0037454D01*
X0067348Y0037353D01*
X0067461Y0037249D01*
X0067572Y0037142D01*
X0067679Y0037032D01*
X0067784Y0036919D01*
X0067886Y0036804D01*
X0067985Y0036686D01*
X0068081Y0036566D01*
X0068174Y0036443D01*
X0068263Y0036318D01*
X0068349Y0036191D01*
X0068432Y0036061D01*
X0068512Y0035929D01*
X0068588Y0035796D01*
X0068660Y0035660D01*
X0068729Y0035522D01*
X0068795Y0035383D01*
X0068857Y0035242D01*
X0068915Y0035100D01*
X0068969Y0034956D01*
X0069020Y0034811D01*
X0069067Y0034664D01*
X0069110Y0034517D01*
X0069149Y0034368D01*
X0069185Y0034218D01*
X0069216Y0034068D01*
X0069244Y0033916D01*
X0069268Y0033764D01*
X0069288Y0033612D01*
X0069304Y0033459D01*
X0069316Y0033305D01*
X0069324Y0033152D01*
X0069328Y0032998D01*
X0069328Y0032844D01*
X0069324Y0032690D01*
X0069316Y0032537D01*
X0069304Y0032383D01*
X0069288Y0032230D01*
X0069268Y0032078D01*
X0069244Y0031926D01*
X0069216Y0031774D01*
X0069185Y0031624D01*
X0069149Y0031474D01*
X0069110Y0031325D01*
X0069067Y0031178D01*
X0069020Y0031031D01*
X0068969Y0030886D01*
X0068915Y0030742D01*
X0068857Y0030600D01*
X0068795Y0030459D01*
X0068729Y0030320D01*
X0068660Y0030182D01*
X0068588Y0030046D01*
X0068512Y0029913D01*
X0068432Y0029781D01*
X0068349Y0029651D01*
X0068263Y0029524D01*
X0068174Y0029399D01*
X0068081Y0029276D01*
X0067985Y0029156D01*
X0067886Y0029038D01*
X0067784Y0028923D01*
X0067679Y0028810D01*
X0067572Y0028700D01*
X0067461Y0028593D01*
X0067348Y0028489D01*
X0067232Y0028388D01*
X0067113Y0028290D01*
X0066992Y0028195D01*
X0066869Y0028103D01*
X0066743Y0028014D01*
X0066615Y0027929D01*
X0066485Y0027847D01*
X0066353Y0027768D01*
X0066219Y0027693D01*
X0066083Y0027621D01*
X0065945Y0027553D01*
X0065805Y0027489D01*
X0065664Y0027428D01*
X0065521Y0027370D01*
X0065377Y0027317D01*
X0065231Y0027267D01*
X0065084Y0027221D01*
X0064937Y0027179D01*
X0064788Y0027140D01*
X0064638Y0027106D01*
X0064487Y0027075D01*
X0064335Y0027049D01*
X0064183Y0027026D01*
X0064031Y0027007D01*
X0063877Y0026992D01*
X0063724Y0026981D01*
X0063570Y0026974D01*
X0063416Y0026971D01*
X0063263Y0026972D01*
X0063109Y0026977D01*
X0062955Y0026986D01*
X0062802Y0026999D01*
X0062649Y0027016D01*
X0062497Y0027037D01*
X0062345Y0027061D01*
X0062194Y0027090D01*
X0062043Y0027123D01*
X0061894Y0027159D01*
X0061745Y0027199D01*
X0061598Y0027244D01*
X0061452Y0027291D01*
X0061307Y0027343D01*
X0061163Y0027399D01*
X0061021Y0027458D01*
X0060881Y0027520D01*
X0060742Y0027587D01*
X0060605Y0027657D01*
X0060470Y0027730D01*
X0060337Y0027807D01*
X0060205Y0027887D01*
X0060076Y0027971D01*
X0059949Y0028058D01*
X0059825Y0028148D01*
X0059703Y0028242D01*
X0059583Y0028338D01*
X0059466Y0028438D01*
X0059351Y0028541D01*
X0059239Y0028646D01*
X0059130Y0028755D01*
X0059024Y0028866D01*
X0058920Y0028980D01*
X0058820Y0029096D01*
X0058723Y0029216D01*
X0058628Y0029337D01*
X0058537Y0029461D01*
X0058450Y0029587D01*
X0058365Y0029716D01*
X0058284Y0029847D01*
X0058206Y0029979D01*
X0058132Y0030114D01*
X0058061Y0030251D01*
X0057994Y0030389D01*
X0057930Y0030529D01*
X0057870Y0030671D01*
X0057814Y0030814D01*
X0057761Y0030958D01*
X0057712Y0031104D01*
X0057667Y0031251D01*
X0057626Y0031400D01*
X0057588Y0031549D01*
X0057555Y0031699D01*
X0057525Y0031850D01*
X0057499Y0032002D01*
X0057478Y0032154D01*
X0057460Y0032307D01*
X0057446Y0032460D01*
X0057436Y0032613D01*
X0057430Y0032767D01*
X0057428Y0032921D01*
X0057378Y0032921D02*
X0057380Y0032768D01*
X0057386Y0032615D01*
X0057396Y0032462D01*
X0057409Y0032309D01*
X0057427Y0032157D01*
X0057448Y0032005D01*
X0057474Y0031854D01*
X0057503Y0031704D01*
X0057536Y0031554D01*
X0057573Y0031405D01*
X0057613Y0031257D01*
X0057658Y0031111D01*
X0057706Y0030965D01*
X0057758Y0030821D01*
X0057813Y0030678D01*
X0057872Y0030537D01*
X0057935Y0030397D01*
X0058001Y0030259D01*
X0058071Y0030122D01*
X0058144Y0029988D01*
X0058221Y0029855D01*
X0058301Y0029724D01*
X0058384Y0029596D01*
X0058470Y0029469D01*
X0058560Y0029345D01*
X0058653Y0029223D01*
X0058749Y0029104D01*
X0058848Y0028987D01*
X0058950Y0028872D01*
X0059055Y0028760D01*
X0059163Y0028651D01*
X0059273Y0028545D01*
X0059386Y0028442D01*
X0059502Y0028341D01*
X0059620Y0028244D01*
X0059741Y0028149D01*
X0059864Y0028058D01*
X0059989Y0027970D01*
X0060117Y0027885D01*
X0060246Y0027803D01*
X0060378Y0027725D01*
X0060512Y0027650D01*
X0060647Y0027578D01*
X0060785Y0027510D01*
X0060924Y0027446D01*
X0061064Y0027385D01*
X0061206Y0027328D01*
X0061350Y0027274D01*
X0061495Y0027224D01*
X0061641Y0027178D01*
X0061788Y0027135D01*
X0061936Y0027097D01*
X0062086Y0027062D01*
X0062236Y0027031D01*
X0062386Y0027003D01*
X0062538Y0026980D01*
X0062690Y0026961D01*
X0062842Y0026945D01*
X0062995Y0026933D01*
X0063148Y0026925D01*
X0063301Y0026921D01*
X0063455Y0026921D01*
X0063608Y0026925D01*
X0063761Y0026933D01*
X0063914Y0026945D01*
X0064066Y0026961D01*
X0064218Y0026980D01*
X0064370Y0027003D01*
X0064520Y0027031D01*
X0064670Y0027062D01*
X0064820Y0027097D01*
X0064968Y0027135D01*
X0065115Y0027178D01*
X0065261Y0027224D01*
X0065406Y0027274D01*
X0065550Y0027328D01*
X0065692Y0027385D01*
X0065832Y0027446D01*
X0065971Y0027510D01*
X0066109Y0027578D01*
X0066244Y0027650D01*
X0066378Y0027725D01*
X0066510Y0027803D01*
X0066639Y0027885D01*
X0066767Y0027970D01*
X0066892Y0028058D01*
X0067015Y0028149D01*
X0067136Y0028244D01*
X0067254Y0028341D01*
X0067370Y0028442D01*
X0067483Y0028545D01*
X0067593Y0028651D01*
X0067701Y0028760D01*
X0067806Y0028872D01*
X0067908Y0028987D01*
X0068007Y0029104D01*
X0068103Y0029223D01*
X0068196Y0029345D01*
X0068286Y0029469D01*
X0068372Y0029596D01*
X0068455Y0029724D01*
X0068535Y0029855D01*
X0068612Y0029988D01*
X0068685Y0030122D01*
X0068755Y0030259D01*
X0068821Y0030397D01*
X0068884Y0030537D01*
X0068943Y0030678D01*
X0068998Y0030821D01*
X0069050Y0030965D01*
X0069098Y0031111D01*
X0069143Y0031257D01*
X0069183Y0031405D01*
X0069220Y0031554D01*
X0069253Y0031704D01*
X0069282Y0031854D01*
X0069308Y0032005D01*
X0069329Y0032157D01*
X0069347Y0032309D01*
X0069360Y0032462D01*
X0069370Y0032615D01*
X0069376Y0032768D01*
X0069378Y0032921D01*
X0057428Y0046921D02*
X0057430Y0047075D01*
X0057436Y0047229D01*
X0057446Y0047382D01*
X0057460Y0047535D01*
X0057478Y0047688D01*
X0057499Y0047840D01*
X0057525Y0047992D01*
X0057555Y0048143D01*
X0057588Y0048293D01*
X0057626Y0048442D01*
X0057667Y0048591D01*
X0057712Y0048738D01*
X0057761Y0048884D01*
X0057814Y0049028D01*
X0057870Y0049171D01*
X0057930Y0049313D01*
X0057994Y0049453D01*
X0058061Y0049591D01*
X0058132Y0049728D01*
X0058206Y0049863D01*
X0058284Y0049995D01*
X0058365Y0050126D01*
X0058450Y0050255D01*
X0058537Y0050381D01*
X0058628Y0050505D01*
X0058723Y0050626D01*
X0058820Y0050746D01*
X0058920Y0050862D01*
X0059024Y0050976D01*
X0059130Y0051087D01*
X0059239Y0051196D01*
X0059351Y0051301D01*
X0059466Y0051404D01*
X0059583Y0051504D01*
X0059703Y0051600D01*
X0059825Y0051694D01*
X0059949Y0051784D01*
X0060076Y0051871D01*
X0060205Y0051955D01*
X0060337Y0052035D01*
X0060470Y0052112D01*
X0060605Y0052185D01*
X0060742Y0052255D01*
X0060881Y0052322D01*
X0061021Y0052384D01*
X0061163Y0052443D01*
X0061307Y0052499D01*
X0061452Y0052551D01*
X0061598Y0052598D01*
X0061745Y0052643D01*
X0061894Y0052683D01*
X0062043Y0052719D01*
X0062194Y0052752D01*
X0062345Y0052781D01*
X0062497Y0052805D01*
X0062649Y0052826D01*
X0062802Y0052843D01*
X0062955Y0052856D01*
X0063109Y0052865D01*
X0063263Y0052870D01*
X0063416Y0052871D01*
X0063570Y0052868D01*
X0063724Y0052861D01*
X0063877Y0052850D01*
X0064031Y0052835D01*
X0064183Y0052816D01*
X0064335Y0052793D01*
X0064487Y0052767D01*
X0064638Y0052736D01*
X0064788Y0052702D01*
X0064937Y0052663D01*
X0065084Y0052621D01*
X0065231Y0052575D01*
X0065377Y0052525D01*
X0065521Y0052472D01*
X0065664Y0052414D01*
X0065805Y0052353D01*
X0065945Y0052289D01*
X0066083Y0052221D01*
X0066219Y0052149D01*
X0066353Y0052074D01*
X0066485Y0051995D01*
X0066615Y0051913D01*
X0066743Y0051828D01*
X0066869Y0051739D01*
X0066992Y0051647D01*
X0067113Y0051552D01*
X0067232Y0051454D01*
X0067348Y0051353D01*
X0067461Y0051249D01*
X0067572Y0051142D01*
X0067679Y0051032D01*
X0067784Y0050919D01*
X0067886Y0050804D01*
X0067985Y0050686D01*
X0068081Y0050566D01*
X0068174Y0050443D01*
X0068263Y0050318D01*
X0068349Y0050191D01*
X0068432Y0050061D01*
X0068512Y0049929D01*
X0068588Y0049796D01*
X0068660Y0049660D01*
X0068729Y0049522D01*
X0068795Y0049383D01*
X0068857Y0049242D01*
X0068915Y0049100D01*
X0068969Y0048956D01*
X0069020Y0048811D01*
X0069067Y0048664D01*
X0069110Y0048517D01*
X0069149Y0048368D01*
X0069185Y0048218D01*
X0069216Y0048068D01*
X0069244Y0047916D01*
X0069268Y0047764D01*
X0069288Y0047612D01*
X0069304Y0047459D01*
X0069316Y0047305D01*
X0069324Y0047152D01*
X0069328Y0046998D01*
X0069328Y0046844D01*
X0069324Y0046690D01*
X0069316Y0046537D01*
X0069304Y0046383D01*
X0069288Y0046230D01*
X0069268Y0046078D01*
X0069244Y0045926D01*
X0069216Y0045774D01*
X0069185Y0045624D01*
X0069149Y0045474D01*
X0069110Y0045325D01*
X0069067Y0045178D01*
X0069020Y0045031D01*
X0068969Y0044886D01*
X0068915Y0044742D01*
X0068857Y0044600D01*
X0068795Y0044459D01*
X0068729Y0044320D01*
X0068660Y0044182D01*
X0068588Y0044046D01*
X0068512Y0043913D01*
X0068432Y0043781D01*
X0068349Y0043651D01*
X0068263Y0043524D01*
X0068174Y0043399D01*
X0068081Y0043276D01*
X0067985Y0043156D01*
X0067886Y0043038D01*
X0067784Y0042923D01*
X0067679Y0042810D01*
X0067572Y0042700D01*
X0067461Y0042593D01*
X0067348Y0042489D01*
X0067232Y0042388D01*
X0067113Y0042290D01*
X0066992Y0042195D01*
X0066869Y0042103D01*
X0066743Y0042014D01*
X0066615Y0041929D01*
X0066485Y0041847D01*
X0066353Y0041768D01*
X0066219Y0041693D01*
X0066083Y0041621D01*
X0065945Y0041553D01*
X0065805Y0041489D01*
X0065664Y0041428D01*
X0065521Y0041370D01*
X0065377Y0041317D01*
X0065231Y0041267D01*
X0065084Y0041221D01*
X0064937Y0041179D01*
X0064788Y0041140D01*
X0064638Y0041106D01*
X0064487Y0041075D01*
X0064335Y0041049D01*
X0064183Y0041026D01*
X0064031Y0041007D01*
X0063877Y0040992D01*
X0063724Y0040981D01*
X0063570Y0040974D01*
X0063416Y0040971D01*
X0063263Y0040972D01*
X0063109Y0040977D01*
X0062955Y0040986D01*
X0062802Y0040999D01*
X0062649Y0041016D01*
X0062497Y0041037D01*
X0062345Y0041061D01*
X0062194Y0041090D01*
X0062043Y0041123D01*
X0061894Y0041159D01*
X0061745Y0041199D01*
X0061598Y0041244D01*
X0061452Y0041291D01*
X0061307Y0041343D01*
X0061163Y0041399D01*
X0061021Y0041458D01*
X0060881Y0041520D01*
X0060742Y0041587D01*
X0060605Y0041657D01*
X0060470Y0041730D01*
X0060337Y0041807D01*
X0060205Y0041887D01*
X0060076Y0041971D01*
X0059949Y0042058D01*
X0059825Y0042148D01*
X0059703Y0042242D01*
X0059583Y0042338D01*
X0059466Y0042438D01*
X0059351Y0042541D01*
X0059239Y0042646D01*
X0059130Y0042755D01*
X0059024Y0042866D01*
X0058920Y0042980D01*
X0058820Y0043096D01*
X0058723Y0043216D01*
X0058628Y0043337D01*
X0058537Y0043461D01*
X0058450Y0043587D01*
X0058365Y0043716D01*
X0058284Y0043847D01*
X0058206Y0043979D01*
X0058132Y0044114D01*
X0058061Y0044251D01*
X0057994Y0044389D01*
X0057930Y0044529D01*
X0057870Y0044671D01*
X0057814Y0044814D01*
X0057761Y0044958D01*
X0057712Y0045104D01*
X0057667Y0045251D01*
X0057626Y0045400D01*
X0057588Y0045549D01*
X0057555Y0045699D01*
X0057525Y0045850D01*
X0057499Y0046002D01*
X0057478Y0046154D01*
X0057460Y0046307D01*
X0057446Y0046460D01*
X0057436Y0046613D01*
X0057430Y0046767D01*
X0057428Y0046921D01*
X0057378Y0046921D02*
X0057380Y0047074D01*
X0057386Y0047227D01*
X0057396Y0047380D01*
X0057409Y0047533D01*
X0057427Y0047685D01*
X0057448Y0047837D01*
X0057474Y0047988D01*
X0057503Y0048138D01*
X0057536Y0048288D01*
X0057573Y0048437D01*
X0057613Y0048585D01*
X0057658Y0048731D01*
X0057706Y0048877D01*
X0057758Y0049021D01*
X0057813Y0049164D01*
X0057872Y0049305D01*
X0057935Y0049445D01*
X0058001Y0049583D01*
X0058071Y0049720D01*
X0058144Y0049854D01*
X0058221Y0049987D01*
X0058301Y0050118D01*
X0058384Y0050246D01*
X0058470Y0050373D01*
X0058560Y0050497D01*
X0058653Y0050619D01*
X0058749Y0050738D01*
X0058848Y0050855D01*
X0058950Y0050970D01*
X0059055Y0051082D01*
X0059163Y0051191D01*
X0059273Y0051297D01*
X0059386Y0051400D01*
X0059502Y0051501D01*
X0059620Y0051598D01*
X0059741Y0051693D01*
X0059864Y0051784D01*
X0059989Y0051872D01*
X0060117Y0051957D01*
X0060246Y0052039D01*
X0060378Y0052117D01*
X0060512Y0052192D01*
X0060647Y0052264D01*
X0060785Y0052332D01*
X0060924Y0052396D01*
X0061064Y0052457D01*
X0061206Y0052514D01*
X0061350Y0052568D01*
X0061495Y0052618D01*
X0061641Y0052664D01*
X0061788Y0052707D01*
X0061936Y0052745D01*
X0062086Y0052780D01*
X0062236Y0052811D01*
X0062386Y0052839D01*
X0062538Y0052862D01*
X0062690Y0052881D01*
X0062842Y0052897D01*
X0062995Y0052909D01*
X0063148Y0052917D01*
X0063301Y0052921D01*
X0063455Y0052921D01*
X0063608Y0052917D01*
X0063761Y0052909D01*
X0063914Y0052897D01*
X0064066Y0052881D01*
X0064218Y0052862D01*
X0064370Y0052839D01*
X0064520Y0052811D01*
X0064670Y0052780D01*
X0064820Y0052745D01*
X0064968Y0052707D01*
X0065115Y0052664D01*
X0065261Y0052618D01*
X0065406Y0052568D01*
X0065550Y0052514D01*
X0065692Y0052457D01*
X0065832Y0052396D01*
X0065971Y0052332D01*
X0066109Y0052264D01*
X0066244Y0052192D01*
X0066378Y0052117D01*
X0066510Y0052039D01*
X0066639Y0051957D01*
X0066767Y0051872D01*
X0066892Y0051784D01*
X0067015Y0051693D01*
X0067136Y0051598D01*
X0067254Y0051501D01*
X0067370Y0051400D01*
X0067483Y0051297D01*
X0067593Y0051191D01*
X0067701Y0051082D01*
X0067806Y0050970D01*
X0067908Y0050855D01*
X0068007Y0050738D01*
X0068103Y0050619D01*
X0068196Y0050497D01*
X0068286Y0050373D01*
X0068372Y0050246D01*
X0068455Y0050118D01*
X0068535Y0049987D01*
X0068612Y0049854D01*
X0068685Y0049720D01*
X0068755Y0049583D01*
X0068821Y0049445D01*
X0068884Y0049305D01*
X0068943Y0049164D01*
X0068998Y0049021D01*
X0069050Y0048877D01*
X0069098Y0048731D01*
X0069143Y0048585D01*
X0069183Y0048437D01*
X0069220Y0048288D01*
X0069253Y0048138D01*
X0069282Y0047988D01*
X0069308Y0047837D01*
X0069329Y0047685D01*
X0069347Y0047533D01*
X0069360Y0047380D01*
X0069370Y0047227D01*
X0069376Y0047074D01*
X0069378Y0046921D01*
X0265428Y0046921D02*
X0265430Y0047075D01*
X0265436Y0047229D01*
X0265446Y0047382D01*
X0265460Y0047535D01*
X0265478Y0047688D01*
X0265499Y0047840D01*
X0265525Y0047992D01*
X0265555Y0048143D01*
X0265588Y0048293D01*
X0265626Y0048442D01*
X0265667Y0048591D01*
X0265712Y0048738D01*
X0265761Y0048884D01*
X0265814Y0049028D01*
X0265870Y0049171D01*
X0265930Y0049313D01*
X0265994Y0049453D01*
X0266061Y0049591D01*
X0266132Y0049728D01*
X0266206Y0049863D01*
X0266284Y0049995D01*
X0266365Y0050126D01*
X0266450Y0050255D01*
X0266537Y0050381D01*
X0266628Y0050505D01*
X0266723Y0050626D01*
X0266820Y0050746D01*
X0266920Y0050862D01*
X0267024Y0050976D01*
X0267130Y0051087D01*
X0267239Y0051196D01*
X0267351Y0051301D01*
X0267466Y0051404D01*
X0267583Y0051504D01*
X0267703Y0051600D01*
X0267825Y0051694D01*
X0267949Y0051784D01*
X0268076Y0051871D01*
X0268205Y0051955D01*
X0268337Y0052035D01*
X0268470Y0052112D01*
X0268605Y0052185D01*
X0268742Y0052255D01*
X0268881Y0052322D01*
X0269021Y0052384D01*
X0269163Y0052443D01*
X0269307Y0052499D01*
X0269452Y0052551D01*
X0269598Y0052598D01*
X0269745Y0052643D01*
X0269894Y0052683D01*
X0270043Y0052719D01*
X0270194Y0052752D01*
X0270345Y0052781D01*
X0270497Y0052805D01*
X0270649Y0052826D01*
X0270802Y0052843D01*
X0270955Y0052856D01*
X0271109Y0052865D01*
X0271263Y0052870D01*
X0271416Y0052871D01*
X0271570Y0052868D01*
X0271724Y0052861D01*
X0271877Y0052850D01*
X0272031Y0052835D01*
X0272183Y0052816D01*
X0272335Y0052793D01*
X0272487Y0052767D01*
X0272638Y0052736D01*
X0272788Y0052702D01*
X0272937Y0052663D01*
X0273084Y0052621D01*
X0273231Y0052575D01*
X0273377Y0052525D01*
X0273521Y0052472D01*
X0273664Y0052414D01*
X0273805Y0052353D01*
X0273945Y0052289D01*
X0274083Y0052221D01*
X0274219Y0052149D01*
X0274353Y0052074D01*
X0274485Y0051995D01*
X0274615Y0051913D01*
X0274743Y0051828D01*
X0274869Y0051739D01*
X0274992Y0051647D01*
X0275113Y0051552D01*
X0275232Y0051454D01*
X0275348Y0051353D01*
X0275461Y0051249D01*
X0275572Y0051142D01*
X0275679Y0051032D01*
X0275784Y0050919D01*
X0275886Y0050804D01*
X0275985Y0050686D01*
X0276081Y0050566D01*
X0276174Y0050443D01*
X0276263Y0050318D01*
X0276349Y0050191D01*
X0276432Y0050061D01*
X0276512Y0049929D01*
X0276588Y0049796D01*
X0276660Y0049660D01*
X0276729Y0049522D01*
X0276795Y0049383D01*
X0276857Y0049242D01*
X0276915Y0049100D01*
X0276969Y0048956D01*
X0277020Y0048811D01*
X0277067Y0048664D01*
X0277110Y0048517D01*
X0277149Y0048368D01*
X0277185Y0048218D01*
X0277216Y0048068D01*
X0277244Y0047916D01*
X0277268Y0047764D01*
X0277288Y0047612D01*
X0277304Y0047459D01*
X0277316Y0047305D01*
X0277324Y0047152D01*
X0277328Y0046998D01*
X0277328Y0046844D01*
X0277324Y0046690D01*
X0277316Y0046537D01*
X0277304Y0046383D01*
X0277288Y0046230D01*
X0277268Y0046078D01*
X0277244Y0045926D01*
X0277216Y0045774D01*
X0277185Y0045624D01*
X0277149Y0045474D01*
X0277110Y0045325D01*
X0277067Y0045178D01*
X0277020Y0045031D01*
X0276969Y0044886D01*
X0276915Y0044742D01*
X0276857Y0044600D01*
X0276795Y0044459D01*
X0276729Y0044320D01*
X0276660Y0044182D01*
X0276588Y0044046D01*
X0276512Y0043913D01*
X0276432Y0043781D01*
X0276349Y0043651D01*
X0276263Y0043524D01*
X0276174Y0043399D01*
X0276081Y0043276D01*
X0275985Y0043156D01*
X0275886Y0043038D01*
X0275784Y0042923D01*
X0275679Y0042810D01*
X0275572Y0042700D01*
X0275461Y0042593D01*
X0275348Y0042489D01*
X0275232Y0042388D01*
X0275113Y0042290D01*
X0274992Y0042195D01*
X0274869Y0042103D01*
X0274743Y0042014D01*
X0274615Y0041929D01*
X0274485Y0041847D01*
X0274353Y0041768D01*
X0274219Y0041693D01*
X0274083Y0041621D01*
X0273945Y0041553D01*
X0273805Y0041489D01*
X0273664Y0041428D01*
X0273521Y0041370D01*
X0273377Y0041317D01*
X0273231Y0041267D01*
X0273084Y0041221D01*
X0272937Y0041179D01*
X0272788Y0041140D01*
X0272638Y0041106D01*
X0272487Y0041075D01*
X0272335Y0041049D01*
X0272183Y0041026D01*
X0272031Y0041007D01*
X0271877Y0040992D01*
X0271724Y0040981D01*
X0271570Y0040974D01*
X0271416Y0040971D01*
X0271263Y0040972D01*
X0271109Y0040977D01*
X0270955Y0040986D01*
X0270802Y0040999D01*
X0270649Y0041016D01*
X0270497Y0041037D01*
X0270345Y0041061D01*
X0270194Y0041090D01*
X0270043Y0041123D01*
X0269894Y0041159D01*
X0269745Y0041199D01*
X0269598Y0041244D01*
X0269452Y0041291D01*
X0269307Y0041343D01*
X0269163Y0041399D01*
X0269021Y0041458D01*
X0268881Y0041520D01*
X0268742Y0041587D01*
X0268605Y0041657D01*
X0268470Y0041730D01*
X0268337Y0041807D01*
X0268205Y0041887D01*
X0268076Y0041971D01*
X0267949Y0042058D01*
X0267825Y0042148D01*
X0267703Y0042242D01*
X0267583Y0042338D01*
X0267466Y0042438D01*
X0267351Y0042541D01*
X0267239Y0042646D01*
X0267130Y0042755D01*
X0267024Y0042866D01*
X0266920Y0042980D01*
X0266820Y0043096D01*
X0266723Y0043216D01*
X0266628Y0043337D01*
X0266537Y0043461D01*
X0266450Y0043587D01*
X0266365Y0043716D01*
X0266284Y0043847D01*
X0266206Y0043979D01*
X0266132Y0044114D01*
X0266061Y0044251D01*
X0265994Y0044389D01*
X0265930Y0044529D01*
X0265870Y0044671D01*
X0265814Y0044814D01*
X0265761Y0044958D01*
X0265712Y0045104D01*
X0265667Y0045251D01*
X0265626Y0045400D01*
X0265588Y0045549D01*
X0265555Y0045699D01*
X0265525Y0045850D01*
X0265499Y0046002D01*
X0265478Y0046154D01*
X0265460Y0046307D01*
X0265446Y0046460D01*
X0265436Y0046613D01*
X0265430Y0046767D01*
X0265428Y0046921D01*
X0265378Y0046921D02*
X0265380Y0047074D01*
X0265386Y0047227D01*
X0265396Y0047380D01*
X0265409Y0047533D01*
X0265427Y0047685D01*
X0265448Y0047837D01*
X0265474Y0047988D01*
X0265503Y0048138D01*
X0265536Y0048288D01*
X0265573Y0048437D01*
X0265613Y0048585D01*
X0265658Y0048731D01*
X0265706Y0048877D01*
X0265758Y0049021D01*
X0265813Y0049164D01*
X0265872Y0049305D01*
X0265935Y0049445D01*
X0266001Y0049583D01*
X0266071Y0049720D01*
X0266144Y0049854D01*
X0266221Y0049987D01*
X0266301Y0050118D01*
X0266384Y0050246D01*
X0266470Y0050373D01*
X0266560Y0050497D01*
X0266653Y0050619D01*
X0266749Y0050738D01*
X0266848Y0050855D01*
X0266950Y0050970D01*
X0267055Y0051082D01*
X0267163Y0051191D01*
X0267273Y0051297D01*
X0267386Y0051400D01*
X0267502Y0051501D01*
X0267620Y0051598D01*
X0267741Y0051693D01*
X0267864Y0051784D01*
X0267989Y0051872D01*
X0268117Y0051957D01*
X0268246Y0052039D01*
X0268378Y0052117D01*
X0268512Y0052192D01*
X0268647Y0052264D01*
X0268785Y0052332D01*
X0268924Y0052396D01*
X0269064Y0052457D01*
X0269206Y0052514D01*
X0269350Y0052568D01*
X0269495Y0052618D01*
X0269641Y0052664D01*
X0269788Y0052707D01*
X0269936Y0052745D01*
X0270086Y0052780D01*
X0270236Y0052811D01*
X0270386Y0052839D01*
X0270538Y0052862D01*
X0270690Y0052881D01*
X0270842Y0052897D01*
X0270995Y0052909D01*
X0271148Y0052917D01*
X0271301Y0052921D01*
X0271455Y0052921D01*
X0271608Y0052917D01*
X0271761Y0052909D01*
X0271914Y0052897D01*
X0272066Y0052881D01*
X0272218Y0052862D01*
X0272370Y0052839D01*
X0272520Y0052811D01*
X0272670Y0052780D01*
X0272820Y0052745D01*
X0272968Y0052707D01*
X0273115Y0052664D01*
X0273261Y0052618D01*
X0273406Y0052568D01*
X0273550Y0052514D01*
X0273692Y0052457D01*
X0273832Y0052396D01*
X0273971Y0052332D01*
X0274109Y0052264D01*
X0274244Y0052192D01*
X0274378Y0052117D01*
X0274510Y0052039D01*
X0274639Y0051957D01*
X0274767Y0051872D01*
X0274892Y0051784D01*
X0275015Y0051693D01*
X0275136Y0051598D01*
X0275254Y0051501D01*
X0275370Y0051400D01*
X0275483Y0051297D01*
X0275593Y0051191D01*
X0275701Y0051082D01*
X0275806Y0050970D01*
X0275908Y0050855D01*
X0276007Y0050738D01*
X0276103Y0050619D01*
X0276196Y0050497D01*
X0276286Y0050373D01*
X0276372Y0050246D01*
X0276455Y0050118D01*
X0276535Y0049987D01*
X0276612Y0049854D01*
X0276685Y0049720D01*
X0276755Y0049583D01*
X0276821Y0049445D01*
X0276884Y0049305D01*
X0276943Y0049164D01*
X0276998Y0049021D01*
X0277050Y0048877D01*
X0277098Y0048731D01*
X0277143Y0048585D01*
X0277183Y0048437D01*
X0277220Y0048288D01*
X0277253Y0048138D01*
X0277282Y0047988D01*
X0277308Y0047837D01*
X0277329Y0047685D01*
X0277347Y0047533D01*
X0277360Y0047380D01*
X0277370Y0047227D01*
X0277376Y0047074D01*
X0277378Y0046921D01*
X0265428Y0032921D02*
X0265430Y0033075D01*
X0265436Y0033229D01*
X0265446Y0033382D01*
X0265460Y0033535D01*
X0265478Y0033688D01*
X0265499Y0033840D01*
X0265525Y0033992D01*
X0265555Y0034143D01*
X0265588Y0034293D01*
X0265626Y0034442D01*
X0265667Y0034591D01*
X0265712Y0034738D01*
X0265761Y0034884D01*
X0265814Y0035028D01*
X0265870Y0035171D01*
X0265930Y0035313D01*
X0265994Y0035453D01*
X0266061Y0035591D01*
X0266132Y0035728D01*
X0266206Y0035863D01*
X0266284Y0035995D01*
X0266365Y0036126D01*
X0266450Y0036255D01*
X0266537Y0036381D01*
X0266628Y0036505D01*
X0266723Y0036626D01*
X0266820Y0036746D01*
X0266920Y0036862D01*
X0267024Y0036976D01*
X0267130Y0037087D01*
X0267239Y0037196D01*
X0267351Y0037301D01*
X0267466Y0037404D01*
X0267583Y0037504D01*
X0267703Y0037600D01*
X0267825Y0037694D01*
X0267949Y0037784D01*
X0268076Y0037871D01*
X0268205Y0037955D01*
X0268337Y0038035D01*
X0268470Y0038112D01*
X0268605Y0038185D01*
X0268742Y0038255D01*
X0268881Y0038322D01*
X0269021Y0038384D01*
X0269163Y0038443D01*
X0269307Y0038499D01*
X0269452Y0038551D01*
X0269598Y0038598D01*
X0269745Y0038643D01*
X0269894Y0038683D01*
X0270043Y0038719D01*
X0270194Y0038752D01*
X0270345Y0038781D01*
X0270497Y0038805D01*
X0270649Y0038826D01*
X0270802Y0038843D01*
X0270955Y0038856D01*
X0271109Y0038865D01*
X0271263Y0038870D01*
X0271416Y0038871D01*
X0271570Y0038868D01*
X0271724Y0038861D01*
X0271877Y0038850D01*
X0272031Y0038835D01*
X0272183Y0038816D01*
X0272335Y0038793D01*
X0272487Y0038767D01*
X0272638Y0038736D01*
X0272788Y0038702D01*
X0272937Y0038663D01*
X0273084Y0038621D01*
X0273231Y0038575D01*
X0273377Y0038525D01*
X0273521Y0038472D01*
X0273664Y0038414D01*
X0273805Y0038353D01*
X0273945Y0038289D01*
X0274083Y0038221D01*
X0274219Y0038149D01*
X0274353Y0038074D01*
X0274485Y0037995D01*
X0274615Y0037913D01*
X0274743Y0037828D01*
X0274869Y0037739D01*
X0274992Y0037647D01*
X0275113Y0037552D01*
X0275232Y0037454D01*
X0275348Y0037353D01*
X0275461Y0037249D01*
X0275572Y0037142D01*
X0275679Y0037032D01*
X0275784Y0036919D01*
X0275886Y0036804D01*
X0275985Y0036686D01*
X0276081Y0036566D01*
X0276174Y0036443D01*
X0276263Y0036318D01*
X0276349Y0036191D01*
X0276432Y0036061D01*
X0276512Y0035929D01*
X0276588Y0035796D01*
X0276660Y0035660D01*
X0276729Y0035522D01*
X0276795Y0035383D01*
X0276857Y0035242D01*
X0276915Y0035100D01*
X0276969Y0034956D01*
X0277020Y0034811D01*
X0277067Y0034664D01*
X0277110Y0034517D01*
X0277149Y0034368D01*
X0277185Y0034218D01*
X0277216Y0034068D01*
X0277244Y0033916D01*
X0277268Y0033764D01*
X0277288Y0033612D01*
X0277304Y0033459D01*
X0277316Y0033305D01*
X0277324Y0033152D01*
X0277328Y0032998D01*
X0277328Y0032844D01*
X0277324Y0032690D01*
X0277316Y0032537D01*
X0277304Y0032383D01*
X0277288Y0032230D01*
X0277268Y0032078D01*
X0277244Y0031926D01*
X0277216Y0031774D01*
X0277185Y0031624D01*
X0277149Y0031474D01*
X0277110Y0031325D01*
X0277067Y0031178D01*
X0277020Y0031031D01*
X0276969Y0030886D01*
X0276915Y0030742D01*
X0276857Y0030600D01*
X0276795Y0030459D01*
X0276729Y0030320D01*
X0276660Y0030182D01*
X0276588Y0030046D01*
X0276512Y0029913D01*
X0276432Y0029781D01*
X0276349Y0029651D01*
X0276263Y0029524D01*
X0276174Y0029399D01*
X0276081Y0029276D01*
X0275985Y0029156D01*
X0275886Y0029038D01*
X0275784Y0028923D01*
X0275679Y0028810D01*
X0275572Y0028700D01*
X0275461Y0028593D01*
X0275348Y0028489D01*
X0275232Y0028388D01*
X0275113Y0028290D01*
X0274992Y0028195D01*
X0274869Y0028103D01*
X0274743Y0028014D01*
X0274615Y0027929D01*
X0274485Y0027847D01*
X0274353Y0027768D01*
X0274219Y0027693D01*
X0274083Y0027621D01*
X0273945Y0027553D01*
X0273805Y0027489D01*
X0273664Y0027428D01*
X0273521Y0027370D01*
X0273377Y0027317D01*
X0273231Y0027267D01*
X0273084Y0027221D01*
X0272937Y0027179D01*
X0272788Y0027140D01*
X0272638Y0027106D01*
X0272487Y0027075D01*
X0272335Y0027049D01*
X0272183Y0027026D01*
X0272031Y0027007D01*
X0271877Y0026992D01*
X0271724Y0026981D01*
X0271570Y0026974D01*
X0271416Y0026971D01*
X0271263Y0026972D01*
X0271109Y0026977D01*
X0270955Y0026986D01*
X0270802Y0026999D01*
X0270649Y0027016D01*
X0270497Y0027037D01*
X0270345Y0027061D01*
X0270194Y0027090D01*
X0270043Y0027123D01*
X0269894Y0027159D01*
X0269745Y0027199D01*
X0269598Y0027244D01*
X0269452Y0027291D01*
X0269307Y0027343D01*
X0269163Y0027399D01*
X0269021Y0027458D01*
X0268881Y0027520D01*
X0268742Y0027587D01*
X0268605Y0027657D01*
X0268470Y0027730D01*
X0268337Y0027807D01*
X0268205Y0027887D01*
X0268076Y0027971D01*
X0267949Y0028058D01*
X0267825Y0028148D01*
X0267703Y0028242D01*
X0267583Y0028338D01*
X0267466Y0028438D01*
X0267351Y0028541D01*
X0267239Y0028646D01*
X0267130Y0028755D01*
X0267024Y0028866D01*
X0266920Y0028980D01*
X0266820Y0029096D01*
X0266723Y0029216D01*
X0266628Y0029337D01*
X0266537Y0029461D01*
X0266450Y0029587D01*
X0266365Y0029716D01*
X0266284Y0029847D01*
X0266206Y0029979D01*
X0266132Y0030114D01*
X0266061Y0030251D01*
X0265994Y0030389D01*
X0265930Y0030529D01*
X0265870Y0030671D01*
X0265814Y0030814D01*
X0265761Y0030958D01*
X0265712Y0031104D01*
X0265667Y0031251D01*
X0265626Y0031400D01*
X0265588Y0031549D01*
X0265555Y0031699D01*
X0265525Y0031850D01*
X0265499Y0032002D01*
X0265478Y0032154D01*
X0265460Y0032307D01*
X0265446Y0032460D01*
X0265436Y0032613D01*
X0265430Y0032767D01*
X0265428Y0032921D01*
X0265378Y0032921D02*
X0265380Y0032768D01*
X0265386Y0032615D01*
X0265396Y0032462D01*
X0265409Y0032309D01*
X0265427Y0032157D01*
X0265448Y0032005D01*
X0265474Y0031854D01*
X0265503Y0031704D01*
X0265536Y0031554D01*
X0265573Y0031405D01*
X0265613Y0031257D01*
X0265658Y0031111D01*
X0265706Y0030965D01*
X0265758Y0030821D01*
X0265813Y0030678D01*
X0265872Y0030537D01*
X0265935Y0030397D01*
X0266001Y0030259D01*
X0266071Y0030122D01*
X0266144Y0029988D01*
X0266221Y0029855D01*
X0266301Y0029724D01*
X0266384Y0029596D01*
X0266470Y0029469D01*
X0266560Y0029345D01*
X0266653Y0029223D01*
X0266749Y0029104D01*
X0266848Y0028987D01*
X0266950Y0028872D01*
X0267055Y0028760D01*
X0267163Y0028651D01*
X0267273Y0028545D01*
X0267386Y0028442D01*
X0267502Y0028341D01*
X0267620Y0028244D01*
X0267741Y0028149D01*
X0267864Y0028058D01*
X0267989Y0027970D01*
X0268117Y0027885D01*
X0268246Y0027803D01*
X0268378Y0027725D01*
X0268512Y0027650D01*
X0268647Y0027578D01*
X0268785Y0027510D01*
X0268924Y0027446D01*
X0269064Y0027385D01*
X0269206Y0027328D01*
X0269350Y0027274D01*
X0269495Y0027224D01*
X0269641Y0027178D01*
X0269788Y0027135D01*
X0269936Y0027097D01*
X0270086Y0027062D01*
X0270236Y0027031D01*
X0270386Y0027003D01*
X0270538Y0026980D01*
X0270690Y0026961D01*
X0270842Y0026945D01*
X0270995Y0026933D01*
X0271148Y0026925D01*
X0271301Y0026921D01*
X0271455Y0026921D01*
X0271608Y0026925D01*
X0271761Y0026933D01*
X0271914Y0026945D01*
X0272066Y0026961D01*
X0272218Y0026980D01*
X0272370Y0027003D01*
X0272520Y0027031D01*
X0272670Y0027062D01*
X0272820Y0027097D01*
X0272968Y0027135D01*
X0273115Y0027178D01*
X0273261Y0027224D01*
X0273406Y0027274D01*
X0273550Y0027328D01*
X0273692Y0027385D01*
X0273832Y0027446D01*
X0273971Y0027510D01*
X0274109Y0027578D01*
X0274244Y0027650D01*
X0274378Y0027725D01*
X0274510Y0027803D01*
X0274639Y0027885D01*
X0274767Y0027970D01*
X0274892Y0028058D01*
X0275015Y0028149D01*
X0275136Y0028244D01*
X0275254Y0028341D01*
X0275370Y0028442D01*
X0275483Y0028545D01*
X0275593Y0028651D01*
X0275701Y0028760D01*
X0275806Y0028872D01*
X0275908Y0028987D01*
X0276007Y0029104D01*
X0276103Y0029223D01*
X0276196Y0029345D01*
X0276286Y0029469D01*
X0276372Y0029596D01*
X0276455Y0029724D01*
X0276535Y0029855D01*
X0276612Y0029988D01*
X0276685Y0030122D01*
X0276755Y0030259D01*
X0276821Y0030397D01*
X0276884Y0030537D01*
X0276943Y0030678D01*
X0276998Y0030821D01*
X0277050Y0030965D01*
X0277098Y0031111D01*
X0277143Y0031257D01*
X0277183Y0031405D01*
X0277220Y0031554D01*
X0277253Y0031704D01*
X0277282Y0031854D01*
X0277308Y0032005D01*
X0277329Y0032157D01*
X0277347Y0032309D01*
X0277360Y0032462D01*
X0277370Y0032615D01*
X0277376Y0032768D01*
X0277378Y0032921D01*
X0318756Y0026984D02*
X0318758Y0027142D01*
X0318764Y0027300D01*
X0318774Y0027458D01*
X0318788Y0027616D01*
X0318806Y0027773D01*
X0318827Y0027930D01*
X0318853Y0028086D01*
X0318883Y0028242D01*
X0318916Y0028397D01*
X0318954Y0028550D01*
X0318995Y0028703D01*
X0319040Y0028855D01*
X0319089Y0029006D01*
X0319142Y0029155D01*
X0319198Y0029303D01*
X0319258Y0029449D01*
X0319322Y0029594D01*
X0319390Y0029737D01*
X0319461Y0029879D01*
X0319535Y0030019D01*
X0319613Y0030156D01*
X0319695Y0030292D01*
X0319779Y0030426D01*
X0319868Y0030557D01*
X0319959Y0030686D01*
X0320054Y0030813D01*
X0320151Y0030938D01*
X0320252Y0031060D01*
X0320356Y0031179D01*
X0320463Y0031296D01*
X0320573Y0031410D01*
X0320686Y0031521D01*
X0320801Y0031630D01*
X0320919Y0031735D01*
X0321040Y0031837D01*
X0321163Y0031937D01*
X0321289Y0032033D01*
X0321417Y0032126D01*
X0321547Y0032216D01*
X0321680Y0032302D01*
X0321815Y0032386D01*
X0321951Y0032465D01*
X0322090Y0032542D01*
X0322231Y0032614D01*
X0322373Y0032684D01*
X0322517Y0032749D01*
X0322663Y0032811D01*
X0322810Y0032869D01*
X0322959Y0032924D01*
X0323109Y0032975D01*
X0323260Y0033022D01*
X0323412Y0033065D01*
X0323565Y0033104D01*
X0323720Y0033140D01*
X0323875Y0033171D01*
X0324031Y0033199D01*
X0324187Y0033223D01*
X0324344Y0033243D01*
X0324502Y0033259D01*
X0324659Y0033271D01*
X0324818Y0033279D01*
X0324976Y0033283D01*
X0325134Y0033283D01*
X0325292Y0033279D01*
X0325451Y0033271D01*
X0325608Y0033259D01*
X0325766Y0033243D01*
X0325923Y0033223D01*
X0326079Y0033199D01*
X0326235Y0033171D01*
X0326390Y0033140D01*
X0326545Y0033104D01*
X0326698Y0033065D01*
X0326850Y0033022D01*
X0327001Y0032975D01*
X0327151Y0032924D01*
X0327300Y0032869D01*
X0327447Y0032811D01*
X0327593Y0032749D01*
X0327737Y0032684D01*
X0327879Y0032614D01*
X0328020Y0032542D01*
X0328159Y0032465D01*
X0328295Y0032386D01*
X0328430Y0032302D01*
X0328563Y0032216D01*
X0328693Y0032126D01*
X0328821Y0032033D01*
X0328947Y0031937D01*
X0329070Y0031837D01*
X0329191Y0031735D01*
X0329309Y0031630D01*
X0329424Y0031521D01*
X0329537Y0031410D01*
X0329647Y0031296D01*
X0329754Y0031179D01*
X0329858Y0031060D01*
X0329959Y0030938D01*
X0330056Y0030813D01*
X0330151Y0030686D01*
X0330242Y0030557D01*
X0330331Y0030426D01*
X0330415Y0030292D01*
X0330497Y0030156D01*
X0330575Y0030019D01*
X0330649Y0029879D01*
X0330720Y0029737D01*
X0330788Y0029594D01*
X0330852Y0029449D01*
X0330912Y0029303D01*
X0330968Y0029155D01*
X0331021Y0029006D01*
X0331070Y0028855D01*
X0331115Y0028703D01*
X0331156Y0028550D01*
X0331194Y0028397D01*
X0331227Y0028242D01*
X0331257Y0028086D01*
X0331283Y0027930D01*
X0331304Y0027773D01*
X0331322Y0027616D01*
X0331336Y0027458D01*
X0331346Y0027300D01*
X0331352Y0027142D01*
X0331354Y0026984D01*
X0331352Y0026826D01*
X0331346Y0026668D01*
X0331336Y0026510D01*
X0331322Y0026352D01*
X0331304Y0026195D01*
X0331283Y0026038D01*
X0331257Y0025882D01*
X0331227Y0025726D01*
X0331194Y0025571D01*
X0331156Y0025418D01*
X0331115Y0025265D01*
X0331070Y0025113D01*
X0331021Y0024962D01*
X0330968Y0024813D01*
X0330912Y0024665D01*
X0330852Y0024519D01*
X0330788Y0024374D01*
X0330720Y0024231D01*
X0330649Y0024089D01*
X0330575Y0023949D01*
X0330497Y0023812D01*
X0330415Y0023676D01*
X0330331Y0023542D01*
X0330242Y0023411D01*
X0330151Y0023282D01*
X0330056Y0023155D01*
X0329959Y0023030D01*
X0329858Y0022908D01*
X0329754Y0022789D01*
X0329647Y0022672D01*
X0329537Y0022558D01*
X0329424Y0022447D01*
X0329309Y0022338D01*
X0329191Y0022233D01*
X0329070Y0022131D01*
X0328947Y0022031D01*
X0328821Y0021935D01*
X0328693Y0021842D01*
X0328563Y0021752D01*
X0328430Y0021666D01*
X0328295Y0021582D01*
X0328159Y0021503D01*
X0328020Y0021426D01*
X0327879Y0021354D01*
X0327737Y0021284D01*
X0327593Y0021219D01*
X0327447Y0021157D01*
X0327300Y0021099D01*
X0327151Y0021044D01*
X0327001Y0020993D01*
X0326850Y0020946D01*
X0326698Y0020903D01*
X0326545Y0020864D01*
X0326390Y0020828D01*
X0326235Y0020797D01*
X0326079Y0020769D01*
X0325923Y0020745D01*
X0325766Y0020725D01*
X0325608Y0020709D01*
X0325451Y0020697D01*
X0325292Y0020689D01*
X0325134Y0020685D01*
X0324976Y0020685D01*
X0324818Y0020689D01*
X0324659Y0020697D01*
X0324502Y0020709D01*
X0324344Y0020725D01*
X0324187Y0020745D01*
X0324031Y0020769D01*
X0323875Y0020797D01*
X0323720Y0020828D01*
X0323565Y0020864D01*
X0323412Y0020903D01*
X0323260Y0020946D01*
X0323109Y0020993D01*
X0322959Y0021044D01*
X0322810Y0021099D01*
X0322663Y0021157D01*
X0322517Y0021219D01*
X0322373Y0021284D01*
X0322231Y0021354D01*
X0322090Y0021426D01*
X0321951Y0021503D01*
X0321815Y0021582D01*
X0321680Y0021666D01*
X0321547Y0021752D01*
X0321417Y0021842D01*
X0321289Y0021935D01*
X0321163Y0022031D01*
X0321040Y0022131D01*
X0320919Y0022233D01*
X0320801Y0022338D01*
X0320686Y0022447D01*
X0320573Y0022558D01*
X0320463Y0022672D01*
X0320356Y0022789D01*
X0320252Y0022908D01*
X0320151Y0023030D01*
X0320054Y0023155D01*
X0319959Y0023282D01*
X0319868Y0023411D01*
X0319779Y0023542D01*
X0319695Y0023676D01*
X0319613Y0023812D01*
X0319535Y0023949D01*
X0319461Y0024089D01*
X0319390Y0024231D01*
X0319322Y0024374D01*
X0319258Y0024519D01*
X0319198Y0024665D01*
X0319142Y0024813D01*
X0319089Y0024962D01*
X0319040Y0025113D01*
X0318995Y0025265D01*
X0318954Y0025418D01*
X0318916Y0025571D01*
X0318883Y0025726D01*
X0318853Y0025882D01*
X0318827Y0026038D01*
X0318806Y0026195D01*
X0318788Y0026352D01*
X0318774Y0026510D01*
X0318764Y0026668D01*
X0318758Y0026826D01*
X0318756Y0026984D01*
X0320843Y0156236D02*
X0320845Y0156394D01*
X0320851Y0156552D01*
X0320861Y0156710D01*
X0320875Y0156868D01*
X0320893Y0157025D01*
X0320914Y0157182D01*
X0320940Y0157338D01*
X0320970Y0157494D01*
X0321003Y0157649D01*
X0321041Y0157802D01*
X0321082Y0157955D01*
X0321127Y0158107D01*
X0321176Y0158258D01*
X0321229Y0158407D01*
X0321285Y0158555D01*
X0321345Y0158701D01*
X0321409Y0158846D01*
X0321477Y0158989D01*
X0321548Y0159131D01*
X0321622Y0159271D01*
X0321700Y0159408D01*
X0321782Y0159544D01*
X0321866Y0159678D01*
X0321955Y0159809D01*
X0322046Y0159938D01*
X0322141Y0160065D01*
X0322238Y0160190D01*
X0322339Y0160312D01*
X0322443Y0160431D01*
X0322550Y0160548D01*
X0322660Y0160662D01*
X0322773Y0160773D01*
X0322888Y0160882D01*
X0323006Y0160987D01*
X0323127Y0161089D01*
X0323250Y0161189D01*
X0323376Y0161285D01*
X0323504Y0161378D01*
X0323634Y0161468D01*
X0323767Y0161554D01*
X0323902Y0161638D01*
X0324038Y0161717D01*
X0324177Y0161794D01*
X0324318Y0161866D01*
X0324460Y0161936D01*
X0324604Y0162001D01*
X0324750Y0162063D01*
X0324897Y0162121D01*
X0325046Y0162176D01*
X0325196Y0162227D01*
X0325347Y0162274D01*
X0325499Y0162317D01*
X0325652Y0162356D01*
X0325807Y0162392D01*
X0325962Y0162423D01*
X0326118Y0162451D01*
X0326274Y0162475D01*
X0326431Y0162495D01*
X0326589Y0162511D01*
X0326746Y0162523D01*
X0326905Y0162531D01*
X0327063Y0162535D01*
X0327221Y0162535D01*
X0327379Y0162531D01*
X0327538Y0162523D01*
X0327695Y0162511D01*
X0327853Y0162495D01*
X0328010Y0162475D01*
X0328166Y0162451D01*
X0328322Y0162423D01*
X0328477Y0162392D01*
X0328632Y0162356D01*
X0328785Y0162317D01*
X0328937Y0162274D01*
X0329088Y0162227D01*
X0329238Y0162176D01*
X0329387Y0162121D01*
X0329534Y0162063D01*
X0329680Y0162001D01*
X0329824Y0161936D01*
X0329966Y0161866D01*
X0330107Y0161794D01*
X0330246Y0161717D01*
X0330382Y0161638D01*
X0330517Y0161554D01*
X0330650Y0161468D01*
X0330780Y0161378D01*
X0330908Y0161285D01*
X0331034Y0161189D01*
X0331157Y0161089D01*
X0331278Y0160987D01*
X0331396Y0160882D01*
X0331511Y0160773D01*
X0331624Y0160662D01*
X0331734Y0160548D01*
X0331841Y0160431D01*
X0331945Y0160312D01*
X0332046Y0160190D01*
X0332143Y0160065D01*
X0332238Y0159938D01*
X0332329Y0159809D01*
X0332418Y0159678D01*
X0332502Y0159544D01*
X0332584Y0159408D01*
X0332662Y0159271D01*
X0332736Y0159131D01*
X0332807Y0158989D01*
X0332875Y0158846D01*
X0332939Y0158701D01*
X0332999Y0158555D01*
X0333055Y0158407D01*
X0333108Y0158258D01*
X0333157Y0158107D01*
X0333202Y0157955D01*
X0333243Y0157802D01*
X0333281Y0157649D01*
X0333314Y0157494D01*
X0333344Y0157338D01*
X0333370Y0157182D01*
X0333391Y0157025D01*
X0333409Y0156868D01*
X0333423Y0156710D01*
X0333433Y0156552D01*
X0333439Y0156394D01*
X0333441Y0156236D01*
X0333439Y0156078D01*
X0333433Y0155920D01*
X0333423Y0155762D01*
X0333409Y0155604D01*
X0333391Y0155447D01*
X0333370Y0155290D01*
X0333344Y0155134D01*
X0333314Y0154978D01*
X0333281Y0154823D01*
X0333243Y0154670D01*
X0333202Y0154517D01*
X0333157Y0154365D01*
X0333108Y0154214D01*
X0333055Y0154065D01*
X0332999Y0153917D01*
X0332939Y0153771D01*
X0332875Y0153626D01*
X0332807Y0153483D01*
X0332736Y0153341D01*
X0332662Y0153201D01*
X0332584Y0153064D01*
X0332502Y0152928D01*
X0332418Y0152794D01*
X0332329Y0152663D01*
X0332238Y0152534D01*
X0332143Y0152407D01*
X0332046Y0152282D01*
X0331945Y0152160D01*
X0331841Y0152041D01*
X0331734Y0151924D01*
X0331624Y0151810D01*
X0331511Y0151699D01*
X0331396Y0151590D01*
X0331278Y0151485D01*
X0331157Y0151383D01*
X0331034Y0151283D01*
X0330908Y0151187D01*
X0330780Y0151094D01*
X0330650Y0151004D01*
X0330517Y0150918D01*
X0330382Y0150834D01*
X0330246Y0150755D01*
X0330107Y0150678D01*
X0329966Y0150606D01*
X0329824Y0150536D01*
X0329680Y0150471D01*
X0329534Y0150409D01*
X0329387Y0150351D01*
X0329238Y0150296D01*
X0329088Y0150245D01*
X0328937Y0150198D01*
X0328785Y0150155D01*
X0328632Y0150116D01*
X0328477Y0150080D01*
X0328322Y0150049D01*
X0328166Y0150021D01*
X0328010Y0149997D01*
X0327853Y0149977D01*
X0327695Y0149961D01*
X0327538Y0149949D01*
X0327379Y0149941D01*
X0327221Y0149937D01*
X0327063Y0149937D01*
X0326905Y0149941D01*
X0326746Y0149949D01*
X0326589Y0149961D01*
X0326431Y0149977D01*
X0326274Y0149997D01*
X0326118Y0150021D01*
X0325962Y0150049D01*
X0325807Y0150080D01*
X0325652Y0150116D01*
X0325499Y0150155D01*
X0325347Y0150198D01*
X0325196Y0150245D01*
X0325046Y0150296D01*
X0324897Y0150351D01*
X0324750Y0150409D01*
X0324604Y0150471D01*
X0324460Y0150536D01*
X0324318Y0150606D01*
X0324177Y0150678D01*
X0324038Y0150755D01*
X0323902Y0150834D01*
X0323767Y0150918D01*
X0323634Y0151004D01*
X0323504Y0151094D01*
X0323376Y0151187D01*
X0323250Y0151283D01*
X0323127Y0151383D01*
X0323006Y0151485D01*
X0322888Y0151590D01*
X0322773Y0151699D01*
X0322660Y0151810D01*
X0322550Y0151924D01*
X0322443Y0152041D01*
X0322339Y0152160D01*
X0322238Y0152282D01*
X0322141Y0152407D01*
X0322046Y0152534D01*
X0321955Y0152663D01*
X0321866Y0152794D01*
X0321782Y0152928D01*
X0321700Y0153064D01*
X0321622Y0153201D01*
X0321548Y0153341D01*
X0321477Y0153483D01*
X0321409Y0153626D01*
X0321345Y0153771D01*
X0321285Y0153917D01*
X0321229Y0154065D01*
X0321176Y0154214D01*
X0321127Y0154365D01*
X0321082Y0154517D01*
X0321041Y0154670D01*
X0321003Y0154823D01*
X0320970Y0154978D01*
X0320940Y0155134D01*
X0320914Y0155290D01*
X0320893Y0155447D01*
X0320875Y0155604D01*
X0320861Y0155762D01*
X0320851Y0155920D01*
X0320845Y0156078D01*
X0320843Y0156236D01*
X0010961Y0158598D02*
X0010963Y0158756D01*
X0010969Y0158914D01*
X0010979Y0159072D01*
X0010993Y0159230D01*
X0011011Y0159387D01*
X0011032Y0159544D01*
X0011058Y0159700D01*
X0011088Y0159856D01*
X0011121Y0160011D01*
X0011159Y0160164D01*
X0011200Y0160317D01*
X0011245Y0160469D01*
X0011294Y0160620D01*
X0011347Y0160769D01*
X0011403Y0160917D01*
X0011463Y0161063D01*
X0011527Y0161208D01*
X0011595Y0161351D01*
X0011666Y0161493D01*
X0011740Y0161633D01*
X0011818Y0161770D01*
X0011900Y0161906D01*
X0011984Y0162040D01*
X0012073Y0162171D01*
X0012164Y0162300D01*
X0012259Y0162427D01*
X0012356Y0162552D01*
X0012457Y0162674D01*
X0012561Y0162793D01*
X0012668Y0162910D01*
X0012778Y0163024D01*
X0012891Y0163135D01*
X0013006Y0163244D01*
X0013124Y0163349D01*
X0013245Y0163451D01*
X0013368Y0163551D01*
X0013494Y0163647D01*
X0013622Y0163740D01*
X0013752Y0163830D01*
X0013885Y0163916D01*
X0014020Y0164000D01*
X0014156Y0164079D01*
X0014295Y0164156D01*
X0014436Y0164228D01*
X0014578Y0164298D01*
X0014722Y0164363D01*
X0014868Y0164425D01*
X0015015Y0164483D01*
X0015164Y0164538D01*
X0015314Y0164589D01*
X0015465Y0164636D01*
X0015617Y0164679D01*
X0015770Y0164718D01*
X0015925Y0164754D01*
X0016080Y0164785D01*
X0016236Y0164813D01*
X0016392Y0164837D01*
X0016549Y0164857D01*
X0016707Y0164873D01*
X0016864Y0164885D01*
X0017023Y0164893D01*
X0017181Y0164897D01*
X0017339Y0164897D01*
X0017497Y0164893D01*
X0017656Y0164885D01*
X0017813Y0164873D01*
X0017971Y0164857D01*
X0018128Y0164837D01*
X0018284Y0164813D01*
X0018440Y0164785D01*
X0018595Y0164754D01*
X0018750Y0164718D01*
X0018903Y0164679D01*
X0019055Y0164636D01*
X0019206Y0164589D01*
X0019356Y0164538D01*
X0019505Y0164483D01*
X0019652Y0164425D01*
X0019798Y0164363D01*
X0019942Y0164298D01*
X0020084Y0164228D01*
X0020225Y0164156D01*
X0020364Y0164079D01*
X0020500Y0164000D01*
X0020635Y0163916D01*
X0020768Y0163830D01*
X0020898Y0163740D01*
X0021026Y0163647D01*
X0021152Y0163551D01*
X0021275Y0163451D01*
X0021396Y0163349D01*
X0021514Y0163244D01*
X0021629Y0163135D01*
X0021742Y0163024D01*
X0021852Y0162910D01*
X0021959Y0162793D01*
X0022063Y0162674D01*
X0022164Y0162552D01*
X0022261Y0162427D01*
X0022356Y0162300D01*
X0022447Y0162171D01*
X0022536Y0162040D01*
X0022620Y0161906D01*
X0022702Y0161770D01*
X0022780Y0161633D01*
X0022854Y0161493D01*
X0022925Y0161351D01*
X0022993Y0161208D01*
X0023057Y0161063D01*
X0023117Y0160917D01*
X0023173Y0160769D01*
X0023226Y0160620D01*
X0023275Y0160469D01*
X0023320Y0160317D01*
X0023361Y0160164D01*
X0023399Y0160011D01*
X0023432Y0159856D01*
X0023462Y0159700D01*
X0023488Y0159544D01*
X0023509Y0159387D01*
X0023527Y0159230D01*
X0023541Y0159072D01*
X0023551Y0158914D01*
X0023557Y0158756D01*
X0023559Y0158598D01*
X0023557Y0158440D01*
X0023551Y0158282D01*
X0023541Y0158124D01*
X0023527Y0157966D01*
X0023509Y0157809D01*
X0023488Y0157652D01*
X0023462Y0157496D01*
X0023432Y0157340D01*
X0023399Y0157185D01*
X0023361Y0157032D01*
X0023320Y0156879D01*
X0023275Y0156727D01*
X0023226Y0156576D01*
X0023173Y0156427D01*
X0023117Y0156279D01*
X0023057Y0156133D01*
X0022993Y0155988D01*
X0022925Y0155845D01*
X0022854Y0155703D01*
X0022780Y0155563D01*
X0022702Y0155426D01*
X0022620Y0155290D01*
X0022536Y0155156D01*
X0022447Y0155025D01*
X0022356Y0154896D01*
X0022261Y0154769D01*
X0022164Y0154644D01*
X0022063Y0154522D01*
X0021959Y0154403D01*
X0021852Y0154286D01*
X0021742Y0154172D01*
X0021629Y0154061D01*
X0021514Y0153952D01*
X0021396Y0153847D01*
X0021275Y0153745D01*
X0021152Y0153645D01*
X0021026Y0153549D01*
X0020898Y0153456D01*
X0020768Y0153366D01*
X0020635Y0153280D01*
X0020500Y0153196D01*
X0020364Y0153117D01*
X0020225Y0153040D01*
X0020084Y0152968D01*
X0019942Y0152898D01*
X0019798Y0152833D01*
X0019652Y0152771D01*
X0019505Y0152713D01*
X0019356Y0152658D01*
X0019206Y0152607D01*
X0019055Y0152560D01*
X0018903Y0152517D01*
X0018750Y0152478D01*
X0018595Y0152442D01*
X0018440Y0152411D01*
X0018284Y0152383D01*
X0018128Y0152359D01*
X0017971Y0152339D01*
X0017813Y0152323D01*
X0017656Y0152311D01*
X0017497Y0152303D01*
X0017339Y0152299D01*
X0017181Y0152299D01*
X0017023Y0152303D01*
X0016864Y0152311D01*
X0016707Y0152323D01*
X0016549Y0152339D01*
X0016392Y0152359D01*
X0016236Y0152383D01*
X0016080Y0152411D01*
X0015925Y0152442D01*
X0015770Y0152478D01*
X0015617Y0152517D01*
X0015465Y0152560D01*
X0015314Y0152607D01*
X0015164Y0152658D01*
X0015015Y0152713D01*
X0014868Y0152771D01*
X0014722Y0152833D01*
X0014578Y0152898D01*
X0014436Y0152968D01*
X0014295Y0153040D01*
X0014156Y0153117D01*
X0014020Y0153196D01*
X0013885Y0153280D01*
X0013752Y0153366D01*
X0013622Y0153456D01*
X0013494Y0153549D01*
X0013368Y0153645D01*
X0013245Y0153745D01*
X0013124Y0153847D01*
X0013006Y0153952D01*
X0012891Y0154061D01*
X0012778Y0154172D01*
X0012668Y0154286D01*
X0012561Y0154403D01*
X0012457Y0154522D01*
X0012356Y0154644D01*
X0012259Y0154769D01*
X0012164Y0154896D01*
X0012073Y0155025D01*
X0011984Y0155156D01*
X0011900Y0155290D01*
X0011818Y0155426D01*
X0011740Y0155563D01*
X0011666Y0155703D01*
X0011595Y0155845D01*
X0011527Y0155988D01*
X0011463Y0156133D01*
X0011403Y0156279D01*
X0011347Y0156427D01*
X0011294Y0156576D01*
X0011245Y0156727D01*
X0011200Y0156879D01*
X0011159Y0157032D01*
X0011121Y0157185D01*
X0011088Y0157340D01*
X0011058Y0157496D01*
X0011032Y0157652D01*
X0011011Y0157809D01*
X0010993Y0157966D01*
X0010979Y0158124D01*
X0010969Y0158282D01*
X0010963Y0158440D01*
X0010961Y0158598D01*
D11*
X0058441Y0122969D03*
X0058441Y0112969D03*
X0026630Y0117890D03*
X0016630Y0117890D03*
X0159425Y0088205D03*
X0189425Y0088205D03*
X0193244Y0121197D03*
X0193244Y0131197D03*
X0191079Y0144819D03*
X0191079Y0154819D03*
X0287024Y0068795D03*
X0287024Y0058795D03*
X0284780Y0016157D03*
X0294780Y0016157D03*
D12*
X0183364Y0103165D02*
X0178164Y0103165D01*
X0153364Y0103165D02*
X0148164Y0103165D01*
X0152693Y0119343D02*
X0152693Y0124543D01*
X0162693Y0124543D02*
X0162693Y0119343D01*
X0172693Y0119343D02*
X0172693Y0124543D01*
X0172693Y0154543D02*
X0172693Y0159743D01*
X0162693Y0159743D02*
X0162693Y0154543D01*
X0152693Y0154543D02*
X0152693Y0159743D01*
D13*
X0069378Y0046921D02*
X0069378Y0032921D01*
X0057378Y0032921D02*
X0057378Y0046921D01*
X0265378Y0046921D02*
X0265378Y0032921D01*
X0277378Y0032921D02*
X0277378Y0046921D01*
D14*
X0242378Y0062021D02*
X0242378Y0069821D01*
X0227378Y0069821D02*
X0227378Y0062021D01*
X0212378Y0062021D02*
X0212378Y0069821D01*
X0197378Y0069821D02*
X0197378Y0062021D01*
X0182378Y0062021D02*
X0182378Y0069821D01*
X0167378Y0069821D02*
X0167378Y0062021D01*
X0152378Y0062021D02*
X0152378Y0069821D01*
X0137378Y0069821D02*
X0137378Y0062021D01*
X0122378Y0062021D02*
X0122378Y0069821D01*
X0107378Y0069821D02*
X0107378Y0062021D01*
X0092378Y0062021D02*
X0092378Y0069821D01*
X0099878Y0049821D02*
X0099878Y0042021D01*
X0114878Y0042021D02*
X0114878Y0049821D01*
X0129878Y0049821D02*
X0129878Y0042021D01*
X0144878Y0042021D02*
X0144878Y0049821D01*
X0159878Y0049821D02*
X0159878Y0042021D01*
X0174878Y0042021D02*
X0174878Y0049821D01*
X0189878Y0049821D02*
X0189878Y0042021D01*
X0204878Y0042021D02*
X0204878Y0049821D01*
X0219878Y0049821D02*
X0219878Y0042021D01*
X0234878Y0042021D02*
X0234878Y0049821D01*
D15*
X0254740Y0080803D03*
X0254740Y0090803D03*
X0254740Y0100803D03*
X0254740Y0110803D03*
X0254740Y0120803D03*
X0254740Y0130803D03*
X0254740Y0140803D03*
X0254740Y0150803D03*
X0276394Y0150409D03*
X0276394Y0140409D03*
X0276394Y0130409D03*
X0276394Y0120409D03*
X0276394Y0110409D03*
X0276394Y0100409D03*
X0276394Y0090409D03*
X0276394Y0080409D03*
X0313126Y0085134D03*
X0323126Y0085134D03*
X0323126Y0095134D03*
X0313126Y0095134D03*
X0313126Y0105134D03*
X0323126Y0105134D03*
X0323126Y0115134D03*
X0313126Y0115134D03*
X0313126Y0125134D03*
X0323126Y0125134D03*
D16*
X0023094Y0093756D02*
X0017094Y0093756D01*
X0017094Y0083756D02*
X0023094Y0083756D01*
X0023094Y0073756D02*
X0017094Y0073756D01*
X0017094Y0063756D02*
X0023094Y0063756D01*
D17*
X0027099Y0060995D02*
X0081185Y0060995D01*
X0083152Y0059028D02*
X0024181Y0059028D01*
X0024046Y0058972D02*
X0025805Y0059700D01*
X0027150Y0061046D01*
X0027879Y0062804D01*
X0027879Y0064708D01*
X0027150Y0066466D01*
X0025805Y0067812D01*
X0024046Y0068540D01*
X0016143Y0068540D01*
X0014384Y0067812D01*
X0013039Y0066466D01*
X0012310Y0064708D01*
X0012310Y0062804D01*
X0013039Y0061046D01*
X0014384Y0059700D01*
X0016143Y0058972D01*
X0024046Y0058972D01*
X0027879Y0062962D02*
X0079218Y0062962D01*
X0077250Y0064929D02*
X0027787Y0064929D01*
X0026721Y0066896D02*
X0075283Y0066896D01*
X0073316Y0068863D02*
X0007206Y0068863D01*
X0007202Y0070830D02*
X0013255Y0070830D01*
X0013039Y0071046D02*
X0014384Y0069700D01*
X0016143Y0068972D01*
X0024046Y0068972D01*
X0025805Y0069700D01*
X0027150Y0071046D01*
X0027879Y0072804D01*
X0027879Y0074708D01*
X0027150Y0076466D01*
X0025805Y0077812D01*
X0024046Y0078540D01*
X0016143Y0078540D01*
X0014805Y0077986D01*
X0014805Y0079526D01*
X0016143Y0078972D01*
X0024046Y0078972D01*
X0025805Y0079700D01*
X0027150Y0081046D01*
X0027879Y0082804D01*
X0027879Y0084708D01*
X0027150Y0086466D01*
X0025805Y0087812D01*
X0024046Y0088540D01*
X0016143Y0088540D01*
X0014805Y0087986D01*
X0014805Y0089329D01*
X0015181Y0089137D01*
X0015927Y0088894D01*
X0016702Y0088772D01*
X0020079Y0088772D01*
X0020079Y0093740D01*
X0020110Y0093740D01*
X0020110Y0088772D01*
X0023487Y0088772D01*
X0024262Y0088894D01*
X0025008Y0089137D01*
X0025707Y0089493D01*
X0026341Y0089954D01*
X0026896Y0090509D01*
X0027357Y0091144D01*
X0027714Y0091843D01*
X0027956Y0092589D01*
X0028079Y0093364D01*
X0028079Y0093740D01*
X0020110Y0093740D01*
X0020110Y0093772D01*
X0028079Y0093772D01*
X0028079Y0094148D01*
X0027956Y0094923D01*
X0027714Y0095669D01*
X0027618Y0095857D01*
X0053581Y0095857D01*
X0054531Y0096250D01*
X0055258Y0096977D01*
X0090831Y0132550D01*
X0091713Y0132550D01*
X0093104Y0133127D01*
X0094169Y0134191D01*
X0094745Y0135582D01*
X0094745Y0137087D01*
X0094169Y0138478D01*
X0093606Y0139041D01*
X0094169Y0139604D01*
X0094745Y0140995D01*
X0094745Y0141617D01*
X0100474Y0147346D01*
X0186492Y0147346D01*
X0187509Y0147767D01*
X0190177Y0150435D01*
X0191548Y0150435D01*
X0192452Y0149530D01*
X0192779Y0149203D01*
X0189263Y0149203D01*
X0186694Y0146635D01*
X0186694Y0143003D01*
X0186841Y0142856D01*
X0154915Y0142856D01*
X0153965Y0142462D01*
X0153238Y0141736D01*
X0147193Y0135690D01*
X0146310Y0135690D01*
X0144919Y0135114D01*
X0143855Y0134049D01*
X0143279Y0132658D01*
X0143279Y0131153D01*
X0143855Y0129762D01*
X0144418Y0129199D01*
X0144347Y0129128D01*
X0143771Y0127737D01*
X0143771Y0126232D01*
X0144134Y0125355D01*
X0143357Y0125355D01*
X0141967Y0124779D01*
X0140902Y0123714D01*
X0140326Y0122324D01*
X0140326Y0120818D01*
X0140902Y0119427D01*
X0140973Y0119356D01*
X0140410Y0118793D01*
X0139834Y0117402D01*
X0139834Y0115897D01*
X0140410Y0114506D01*
X0140481Y0114435D01*
X0139918Y0113872D01*
X0139342Y0112481D01*
X0139342Y0110976D01*
X0139918Y0109585D01*
X0140982Y0108520D01*
X0142373Y0107944D01*
X0143256Y0107944D01*
X0144857Y0106342D01*
X0144667Y0106152D01*
X0144243Y0105568D01*
X0143915Y0104925D01*
X0143692Y0104239D01*
X0143580Y0103526D01*
X0143580Y0103165D01*
X0143580Y0102805D01*
X0143692Y0102092D01*
X0143915Y0101406D01*
X0144243Y0100763D01*
X0144667Y0100179D01*
X0145177Y0099669D01*
X0145761Y0099245D01*
X0146404Y0098917D01*
X0147090Y0098694D01*
X0147803Y0098581D01*
X0150764Y0098581D01*
X0153725Y0098581D01*
X0154437Y0098694D01*
X0155124Y0098917D01*
X0155766Y0099245D01*
X0156350Y0099669D01*
X0156860Y0100179D01*
X0157285Y0100763D01*
X0157612Y0101406D01*
X0157835Y0102092D01*
X0157948Y0102805D01*
X0157948Y0103165D01*
X0150764Y0103165D01*
X0150764Y0098581D01*
X0150764Y0103165D01*
X0150764Y0103165D01*
X0150764Y0103165D01*
X0157948Y0103165D01*
X0157948Y0103526D01*
X0157835Y0104239D01*
X0157612Y0104925D01*
X0157468Y0105207D01*
X0174264Y0105207D01*
X0173780Y0104037D01*
X0173780Y0102293D01*
X0174447Y0100682D01*
X0175680Y0099449D01*
X0177292Y0098781D01*
X0184236Y0098781D01*
X0185847Y0099449D01*
X0187081Y0100682D01*
X0187748Y0102293D01*
X0187748Y0104037D01*
X0187264Y0105207D01*
X0246386Y0105207D01*
X0249386Y0102208D01*
X0249256Y0101894D01*
X0249256Y0099712D01*
X0250091Y0097697D01*
X0251634Y0096154D01*
X0252480Y0095803D01*
X0251634Y0095452D01*
X0251301Y0095120D01*
X0118827Y0095120D01*
X0118203Y0095744D01*
X0116812Y0096320D01*
X0115306Y0096320D01*
X0113915Y0095744D01*
X0112851Y0094679D01*
X0112275Y0093288D01*
X0112275Y0091783D01*
X0112851Y0090392D01*
X0113915Y0089327D01*
X0115306Y0088751D01*
X0116812Y0088751D01*
X0118203Y0089327D01*
X0118827Y0089951D01*
X0155041Y0089951D01*
X0155041Y0086389D01*
X0157609Y0083820D01*
X0161241Y0083820D01*
X0163809Y0086389D01*
X0163809Y0089951D01*
X0185041Y0089951D01*
X0185041Y0086389D01*
X0187609Y0083820D01*
X0191241Y0083820D01*
X0193809Y0086389D01*
X0193809Y0089951D01*
X0249256Y0089951D01*
X0249256Y0089712D01*
X0250091Y0087697D01*
X0251634Y0086154D01*
X0252233Y0085905D01*
X0251761Y0085665D01*
X0251037Y0085139D01*
X0250404Y0084506D01*
X0249879Y0083782D01*
X0249472Y0082985D01*
X0249196Y0082134D01*
X0249056Y0081251D01*
X0249056Y0080819D01*
X0254724Y0080819D01*
X0254724Y0080787D01*
X0254756Y0080787D01*
X0254756Y0075119D01*
X0255188Y0075119D01*
X0256071Y0075259D01*
X0256922Y0075535D01*
X0257719Y0075942D01*
X0258443Y0076467D01*
X0259076Y0077100D01*
X0259602Y0077824D01*
X0260008Y0078621D01*
X0260284Y0079472D01*
X0260424Y0080356D01*
X0260424Y0080787D01*
X0254756Y0080787D01*
X0254756Y0080819D01*
X0260424Y0080819D01*
X0260424Y0081251D01*
X0260284Y0082134D01*
X0260008Y0082985D01*
X0259602Y0083782D01*
X0259076Y0084506D01*
X0258443Y0085139D01*
X0257719Y0085665D01*
X0257247Y0085905D01*
X0257847Y0086154D01*
X0259389Y0087697D01*
X0259508Y0087983D01*
X0271463Y0087983D01*
X0271744Y0087303D01*
X0273287Y0085760D01*
X0273887Y0085512D01*
X0273414Y0085271D01*
X0272691Y0084745D01*
X0272058Y0084112D01*
X0271532Y0083389D01*
X0271126Y0082591D01*
X0270849Y0081741D01*
X0270709Y0080857D01*
X0270709Y0080425D01*
X0276378Y0080425D01*
X0276378Y0080394D01*
X0270709Y0080394D01*
X0270709Y0079962D01*
X0270849Y0079078D01*
X0271126Y0078227D01*
X0271532Y0077430D01*
X0272058Y0076706D01*
X0272691Y0076074D01*
X0273414Y0075548D01*
X0274212Y0075142D01*
X0275063Y0074865D01*
X0275946Y0074725D01*
X0276378Y0074725D01*
X0276378Y0080394D01*
X0276409Y0080394D01*
X0276409Y0074725D01*
X0276841Y0074725D01*
X0277725Y0074865D01*
X0278576Y0075142D01*
X0279373Y0075548D01*
X0280097Y0076074D01*
X0280729Y0076706D01*
X0281255Y0077430D01*
X0281661Y0078227D01*
X0281938Y0079078D01*
X0282078Y0079962D01*
X0282078Y0080394D01*
X0276410Y0080394D01*
X0276410Y0080425D01*
X0282078Y0080425D01*
X0282078Y0080857D01*
X0281938Y0081741D01*
X0281661Y0082591D01*
X0281255Y0083389D01*
X0280729Y0084112D01*
X0280097Y0084745D01*
X0279373Y0085271D01*
X0278901Y0085512D01*
X0279500Y0085760D01*
X0281043Y0087303D01*
X0281878Y0089319D01*
X0281878Y0091369D01*
X0295698Y0077549D01*
X0296647Y0077156D01*
X0329172Y0077156D01*
X0330121Y0077549D01*
X0330848Y0078276D01*
X0331242Y0079226D01*
X0331242Y0099939D01*
X0330848Y0100889D01*
X0330121Y0101616D01*
X0328342Y0103395D01*
X0328610Y0104043D01*
X0328610Y0106225D01*
X0327775Y0108240D01*
X0326233Y0109783D01*
X0325386Y0110134D01*
X0326233Y0110485D01*
X0327775Y0112027D01*
X0328610Y0114043D01*
X0328610Y0116225D01*
X0327775Y0118240D01*
X0326233Y0119783D01*
X0325633Y0120032D01*
X0326105Y0120272D01*
X0326829Y0120798D01*
X0327462Y0121431D01*
X0327988Y0122155D01*
X0328394Y0122952D01*
X0328670Y0123803D01*
X0328810Y0124686D01*
X0328810Y0125118D01*
X0323142Y0125118D01*
X0323142Y0125150D01*
X0323110Y0125150D01*
X0323110Y0130818D01*
X0322679Y0130818D01*
X0321795Y0130678D01*
X0320944Y0130402D01*
X0320147Y0129995D01*
X0319423Y0129470D01*
X0318790Y0128837D01*
X0318264Y0128113D01*
X0318126Y0127841D01*
X0317988Y0128113D01*
X0317462Y0128837D01*
X0316829Y0129470D01*
X0316105Y0129995D01*
X0315308Y0130402D01*
X0314457Y0130678D01*
X0313573Y0130818D01*
X0313142Y0130818D01*
X0313142Y0125150D01*
X0313110Y0125150D01*
X0313110Y0130818D01*
X0312679Y0130818D01*
X0311795Y0130678D01*
X0310944Y0130402D01*
X0310147Y0129995D01*
X0309423Y0129470D01*
X0308790Y0128837D01*
X0308264Y0128113D01*
X0307858Y0127316D01*
X0307582Y0126465D01*
X0307442Y0125581D01*
X0307442Y0125150D01*
X0313110Y0125150D01*
X0313110Y0125118D01*
X0307442Y0125118D01*
X0307442Y0124686D01*
X0307515Y0124222D01*
X0290002Y0141736D01*
X0289275Y0142462D01*
X0288325Y0142856D01*
X0281316Y0142856D01*
X0281043Y0143516D01*
X0279500Y0145059D01*
X0278654Y0145409D01*
X0279500Y0145760D01*
X0281043Y0147303D01*
X0281878Y0149319D01*
X0281878Y0151500D01*
X0281043Y0153516D01*
X0279500Y0155059D01*
X0277485Y0155894D01*
X0275303Y0155894D01*
X0273287Y0155059D01*
X0271744Y0153516D01*
X0271686Y0153375D01*
X0259611Y0153375D01*
X0259389Y0153910D01*
X0257847Y0155452D01*
X0255831Y0156287D01*
X0253649Y0156287D01*
X0251634Y0155452D01*
X0250091Y0153910D01*
X0250073Y0153867D01*
X0195946Y0153867D01*
X0195463Y0154350D01*
X0195463Y0156635D01*
X0192895Y0159203D01*
X0189263Y0159203D01*
X0186694Y0156635D01*
X0186694Y0154783D01*
X0184794Y0152883D01*
X0176973Y0152883D01*
X0177164Y0153470D01*
X0177277Y0154183D01*
X0177277Y0154543D01*
X0172693Y0154543D01*
X0172693Y0154543D01*
X0168109Y0154543D01*
X0168109Y0154183D01*
X0168222Y0153470D01*
X0168412Y0152883D01*
X0166751Y0152883D01*
X0167077Y0153671D01*
X0167077Y0160615D01*
X0166410Y0162227D01*
X0165176Y0163460D01*
X0163565Y0164128D01*
X0161821Y0164128D01*
X0160209Y0163460D01*
X0158976Y0162227D01*
X0158309Y0160615D01*
X0158309Y0153671D01*
X0158635Y0152883D01*
X0156751Y0152883D01*
X0157077Y0153671D01*
X0157077Y0160615D01*
X0156410Y0162227D01*
X0155176Y0163460D01*
X0153565Y0164128D01*
X0151821Y0164128D01*
X0150209Y0163460D01*
X0148976Y0162227D01*
X0148309Y0160615D01*
X0148309Y0153671D01*
X0148635Y0152883D01*
X0098776Y0152883D01*
X0097759Y0152461D01*
X0096980Y0151682D01*
X0090830Y0145532D01*
X0090208Y0145532D01*
X0088817Y0144956D01*
X0087752Y0143892D01*
X0087176Y0142501D01*
X0087176Y0141879D01*
X0071113Y0125816D01*
X0061794Y0125816D01*
X0060257Y0127353D01*
X0056625Y0127353D01*
X0054057Y0124785D01*
X0054057Y0121152D01*
X0056625Y0118584D01*
X0060257Y0118584D01*
X0061951Y0120279D01*
X0071250Y0120279D01*
X0062825Y0111854D01*
X0062825Y0114785D01*
X0060257Y0117353D01*
X0056625Y0117353D01*
X0055061Y0115789D01*
X0031012Y0115789D01*
X0031214Y0115991D01*
X0031214Y0117890D01*
X0031214Y0119789D01*
X0028529Y0122474D01*
X0026630Y0122474D01*
X0026630Y0117890D01*
X0026630Y0117890D01*
X0026630Y0122474D01*
X0024731Y0122474D01*
X0022046Y0119789D01*
X0022046Y0117890D01*
X0026630Y0117890D01*
X0031214Y0117890D01*
X0026630Y0117890D01*
X0026630Y0117890D01*
X0026630Y0117890D01*
X0022046Y0117890D01*
X0022046Y0115991D01*
X0022248Y0115789D01*
X0022149Y0115789D01*
X0021014Y0116924D01*
X0021014Y0119706D01*
X0018446Y0122274D01*
X0014814Y0122274D01*
X0012246Y0119706D01*
X0012246Y0116074D01*
X0014814Y0113506D01*
X0017123Y0113506D01*
X0018888Y0111741D01*
X0019615Y0111014D01*
X0020565Y0110620D01*
X0054589Y0110620D01*
X0056625Y0108584D01*
X0059556Y0108584D01*
X0051996Y0101025D01*
X0014659Y0101025D01*
X0013709Y0100632D01*
X0010757Y0097679D01*
X0010030Y0096952D01*
X0009636Y0096002D01*
X0009636Y0073321D01*
X0010030Y0072371D01*
X0010757Y0071644D01*
X0011706Y0071250D01*
X0012954Y0071250D01*
X0013039Y0071046D01*
X0009853Y0072797D02*
X0007197Y0072797D01*
X0007193Y0074764D02*
X0009636Y0074764D01*
X0009636Y0076731D02*
X0007188Y0076731D01*
X0007183Y0078698D02*
X0009636Y0078698D01*
X0009636Y0080665D02*
X0007179Y0080665D01*
X0007174Y0082632D02*
X0009636Y0082632D01*
X0009636Y0084599D02*
X0007170Y0084599D01*
X0007165Y0086566D02*
X0009636Y0086566D01*
X0009636Y0088533D02*
X0007161Y0088533D01*
X0007156Y0090500D02*
X0009636Y0090500D01*
X0009636Y0092467D02*
X0007152Y0092467D01*
X0007147Y0094434D02*
X0009636Y0094434D01*
X0009801Y0096401D02*
X0007142Y0096401D01*
X0007138Y0098368D02*
X0011446Y0098368D01*
X0013413Y0100335D02*
X0007133Y0100335D01*
X0007129Y0102302D02*
X0053273Y0102302D01*
X0055240Y0104269D02*
X0007124Y0104269D01*
X0007120Y0106236D02*
X0057207Y0106236D01*
X0059174Y0108203D02*
X0007115Y0108203D01*
X0007110Y0110170D02*
X0055039Y0110170D01*
X0055343Y0116071D02*
X0031214Y0116071D01*
X0031214Y0118038D02*
X0069009Y0118038D01*
X0070976Y0120005D02*
X0061678Y0120005D01*
X0058441Y0122969D02*
X0058480Y0123047D01*
X0072260Y0123047D01*
X0090961Y0141748D01*
X0099327Y0150114D01*
X0185941Y0150114D01*
X0190370Y0154543D01*
X0191079Y0154819D01*
X0194799Y0151098D01*
X0254346Y0151098D01*
X0254740Y0150803D01*
X0255331Y0150606D01*
X0276000Y0150606D01*
X0276394Y0150409D01*
X0281143Y0147543D02*
X0319877Y0147543D01*
X0320214Y0147207D02*
X0322786Y0145722D01*
X0325656Y0144953D01*
X0328627Y0144953D01*
X0331497Y0145722D01*
X0334070Y0147207D01*
X0336171Y0149308D01*
X0337656Y0151881D01*
X0337981Y0153093D01*
X0337641Y0006963D01*
X0007351Y0006581D01*
X0007326Y0017142D01*
X0009151Y0015317D01*
X0011723Y0013832D01*
X0014593Y0013063D01*
X0017564Y0013063D01*
X0020434Y0013832D01*
X0023007Y0015317D01*
X0025108Y0017418D01*
X0026593Y0019991D01*
X0027362Y0022861D01*
X0027362Y0025832D01*
X0026593Y0028702D01*
X0025108Y0031275D01*
X0023007Y0033375D01*
X0020434Y0034861D01*
X0017564Y0035630D01*
X0014593Y0035630D01*
X0011723Y0034861D01*
X0009151Y0033375D01*
X0007293Y0031518D01*
X0007009Y0153786D01*
X0008231Y0151670D01*
X0010332Y0149569D01*
X0012905Y0148084D01*
X0015774Y0147315D01*
X0018745Y0147315D01*
X0021615Y0148084D01*
X0024188Y0149569D01*
X0026289Y0151670D01*
X0027774Y0154243D01*
X0028543Y0157113D01*
X0028543Y0160084D01*
X0027774Y0162954D01*
X0026289Y0165527D01*
X0025406Y0166409D01*
X0322195Y0166409D01*
X0320214Y0165265D01*
X0318113Y0163164D01*
X0316627Y0160591D01*
X0315858Y0157722D01*
X0315858Y0154751D01*
X0316627Y0151881D01*
X0318113Y0149308D01*
X0320214Y0147207D01*
X0323329Y0145576D02*
X0279057Y0145576D01*
X0274134Y0145409D02*
X0273287Y0145059D01*
X0271744Y0143516D01*
X0271675Y0143348D01*
X0259622Y0143348D01*
X0259389Y0143910D01*
X0257847Y0145452D01*
X0257000Y0145803D01*
X0257847Y0146154D01*
X0259389Y0147697D01*
X0259448Y0147838D01*
X0271523Y0147838D01*
X0271744Y0147303D01*
X0273287Y0145760D01*
X0274134Y0145409D01*
X0273731Y0145576D02*
X0257548Y0145576D01*
X0259236Y0147543D02*
X0271645Y0147543D01*
X0271838Y0143609D02*
X0259514Y0143609D01*
X0252480Y0145803D02*
X0251634Y0145452D01*
X0250091Y0143910D01*
X0249654Y0142856D01*
X0195316Y0142856D01*
X0195463Y0143003D01*
X0195463Y0146635D01*
X0193428Y0148670D01*
X0194249Y0148330D01*
X0249828Y0148330D01*
X0250091Y0147697D01*
X0251634Y0146154D01*
X0252480Y0145803D01*
X0251933Y0145576D02*
X0195463Y0145576D01*
X0194555Y0147543D02*
X0250244Y0147543D01*
X0249966Y0143609D02*
X0195463Y0143609D01*
X0186694Y0143609D02*
X0096737Y0143609D01*
X0094770Y0141642D02*
X0153145Y0141642D01*
X0151178Y0139675D02*
X0094198Y0139675D01*
X0094488Y0137708D02*
X0149211Y0137708D01*
X0147244Y0135741D02*
X0094745Y0135741D01*
X0093752Y0133774D02*
X0143741Y0133774D01*
X0143279Y0131807D02*
X0090088Y0131807D01*
X0088121Y0129840D02*
X0143822Y0129840D01*
X0143827Y0127873D02*
X0086154Y0127873D01*
X0084187Y0125906D02*
X0143906Y0125906D01*
X0141127Y0123939D02*
X0105755Y0123939D01*
X0105980Y0123714D02*
X0104915Y0124779D01*
X0103524Y0125355D01*
X0102019Y0125355D01*
X0100628Y0124779D01*
X0099564Y0123714D01*
X0098987Y0122324D01*
X0098987Y0120818D01*
X0099564Y0119427D01*
X0100628Y0118363D01*
X0102019Y0117787D01*
X0102641Y0117787D01*
X0119618Y0100810D01*
X0120396Y0100031D01*
X0121414Y0099609D01*
X0130700Y0099609D01*
X0131140Y0099170D01*
X0132531Y0098594D01*
X0134036Y0098594D01*
X0135427Y0099170D01*
X0136492Y0100234D01*
X0137068Y0101625D01*
X0137068Y0103131D01*
X0136492Y0104522D01*
X0135427Y0105586D01*
X0134036Y0106162D01*
X0132531Y0106162D01*
X0131140Y0105586D01*
X0130700Y0105146D01*
X0123111Y0105146D01*
X0106556Y0121702D01*
X0106556Y0122324D01*
X0105980Y0123714D01*
X0106556Y0121972D02*
X0140326Y0121972D01*
X0140663Y0120005D02*
X0108253Y0120005D01*
X0110220Y0118038D02*
X0140097Y0118038D01*
X0139834Y0116071D02*
X0112187Y0116071D01*
X0114154Y0114104D02*
X0140150Y0114104D01*
X0139342Y0112137D02*
X0116121Y0112137D01*
X0118088Y0110170D02*
X0139675Y0110170D01*
X0141748Y0108203D02*
X0120055Y0108203D01*
X0122022Y0106236D02*
X0144751Y0106236D01*
X0143702Y0104269D02*
X0136596Y0104269D01*
X0137068Y0102302D02*
X0143659Y0102302D01*
X0143580Y0103165D02*
X0150764Y0103165D01*
X0150508Y0102870D01*
X0146079Y0098441D01*
X0107693Y0098441D01*
X0083579Y0074327D01*
X0069307Y0088598D01*
X0025016Y0088598D01*
X0020094Y0093520D01*
X0020094Y0093756D01*
X0020079Y0092467D02*
X0020110Y0092467D01*
X0020079Y0090500D02*
X0020110Y0090500D01*
X0024064Y0088533D02*
X0105295Y0088533D01*
X0105956Y0088259D02*
X0104565Y0088835D01*
X0103501Y0089900D01*
X0102924Y0091291D01*
X0102924Y0092796D01*
X0103501Y0094187D01*
X0104565Y0095251D01*
X0105956Y0095828D01*
X0107461Y0095828D01*
X0108852Y0095251D01*
X0109917Y0094187D01*
X0110493Y0092796D01*
X0110493Y0092174D01*
X0124096Y0078572D01*
X0127929Y0078572D01*
X0128946Y0078150D01*
X0133307Y0073789D01*
X0134158Y0074640D01*
X0136247Y0075505D01*
X0138509Y0075505D01*
X0140598Y0074640D01*
X0142197Y0073041D01*
X0143062Y0070952D01*
X0143062Y0060891D01*
X0142197Y0058801D01*
X0141790Y0058394D01*
X0147740Y0058394D01*
X0147345Y0058937D01*
X0146925Y0059762D01*
X0146639Y0060643D01*
X0146494Y0061558D01*
X0146494Y0065605D01*
X0152062Y0065605D01*
X0152062Y0066237D01*
X0146494Y0066237D01*
X0146494Y0070284D01*
X0146639Y0071199D01*
X0146925Y0072080D01*
X0147345Y0072905D01*
X0147890Y0073655D01*
X0148545Y0074310D01*
X0149294Y0074854D01*
X0150119Y0075274D01*
X0151000Y0075561D01*
X0151915Y0075705D01*
X0152062Y0075705D01*
X0152062Y0066237D01*
X0152694Y0066237D01*
X0158262Y0066237D01*
X0158262Y0070284D01*
X0158117Y0071199D01*
X0157831Y0072080D01*
X0157411Y0072905D01*
X0156866Y0073655D01*
X0156211Y0074310D01*
X0155462Y0074854D01*
X0154637Y0075274D01*
X0153756Y0075561D01*
X0152841Y0075705D01*
X0152694Y0075705D01*
X0152694Y0066237D01*
X0152694Y0065605D01*
X0158262Y0065605D01*
X0158262Y0061558D01*
X0158117Y0060643D01*
X0157831Y0059762D01*
X0157411Y0058937D01*
X0157016Y0058394D01*
X0162966Y0058394D01*
X0162559Y0058801D01*
X0161694Y0060891D01*
X0161694Y0070952D01*
X0162559Y0073041D01*
X0164158Y0074640D01*
X0166247Y0075505D01*
X0168509Y0075505D01*
X0170598Y0074640D01*
X0172197Y0073041D01*
X0173062Y0070952D01*
X0173062Y0060891D01*
X0172197Y0058801D01*
X0171790Y0058394D01*
X0177740Y0058394D01*
X0177345Y0058937D01*
X0176925Y0059762D01*
X0176639Y0060643D01*
X0176494Y0061558D01*
X0176494Y0065605D01*
X0182062Y0065605D01*
X0182062Y0066237D01*
X0176494Y0066237D01*
X0176494Y0070284D01*
X0176639Y0071199D01*
X0176925Y0072080D01*
X0177345Y0072905D01*
X0177890Y0073655D01*
X0178545Y0074310D01*
X0179294Y0074854D01*
X0180119Y0075274D01*
X0181000Y0075561D01*
X0181915Y0075705D01*
X0182062Y0075705D01*
X0182062Y0066237D01*
X0182694Y0066237D01*
X0188262Y0066237D01*
X0188262Y0070284D01*
X0188117Y0071199D01*
X0187831Y0072080D01*
X0187411Y0072905D01*
X0186866Y0073655D01*
X0186211Y0074310D01*
X0185462Y0074854D01*
X0184637Y0075274D01*
X0183756Y0075561D01*
X0182841Y0075705D01*
X0182694Y0075705D01*
X0182694Y0066237D01*
X0182694Y0065605D01*
X0188262Y0065605D01*
X0188262Y0061558D01*
X0188117Y0060643D01*
X0187831Y0059762D01*
X0187411Y0058937D01*
X0187016Y0058394D01*
X0192966Y0058394D01*
X0192559Y0058801D01*
X0191694Y0060891D01*
X0191694Y0070952D01*
X0192559Y0073041D01*
X0194158Y0074640D01*
X0196247Y0075505D01*
X0198509Y0075505D01*
X0200598Y0074640D01*
X0202197Y0073041D01*
X0203062Y0070952D01*
X0203062Y0060891D01*
X0202197Y0058801D01*
X0201790Y0058394D01*
X0207740Y0058394D01*
X0207345Y0058937D01*
X0206925Y0059762D01*
X0206639Y0060643D01*
X0206494Y0061558D01*
X0206494Y0065605D01*
X0212062Y0065605D01*
X0212062Y0066237D01*
X0206494Y0066237D01*
X0206494Y0070284D01*
X0206639Y0071199D01*
X0206925Y0072080D01*
X0207345Y0072905D01*
X0207890Y0073655D01*
X0208545Y0074310D01*
X0209294Y0074854D01*
X0210119Y0075274D01*
X0211000Y0075561D01*
X0211915Y0075705D01*
X0212062Y0075705D01*
X0212062Y0066237D01*
X0212694Y0066237D01*
X0218262Y0066237D01*
X0218262Y0070284D01*
X0218117Y0071199D01*
X0217831Y0072080D01*
X0217411Y0072905D01*
X0216866Y0073655D01*
X0216211Y0074310D01*
X0215462Y0074854D01*
X0214637Y0075274D01*
X0213756Y0075561D01*
X0212841Y0075705D01*
X0212694Y0075705D01*
X0212694Y0066237D01*
X0212694Y0065605D01*
X0218262Y0065605D01*
X0218262Y0061558D01*
X0218117Y0060643D01*
X0217831Y0059762D01*
X0217411Y0058937D01*
X0217016Y0058394D01*
X0222966Y0058394D01*
X0222559Y0058801D01*
X0221694Y0060891D01*
X0221694Y0070952D01*
X0222559Y0073041D01*
X0224158Y0074640D01*
X0226247Y0075505D01*
X0228509Y0075505D01*
X0230598Y0074640D01*
X0232197Y0073041D01*
X0233062Y0070952D01*
X0233062Y0060891D01*
X0232197Y0058801D01*
X0230598Y0057202D01*
X0228513Y0056339D01*
X0230935Y0053917D01*
X0231658Y0054640D01*
X0233747Y0055505D01*
X0236009Y0055505D01*
X0238098Y0054640D01*
X0239697Y0053041D01*
X0240562Y0050952D01*
X0240562Y0040891D01*
X0239697Y0038801D01*
X0238098Y0037202D01*
X0236009Y0036337D01*
X0233747Y0036337D01*
X0231658Y0037202D01*
X0230059Y0038801D01*
X0229194Y0040891D01*
X0229194Y0047828D01*
X0225518Y0051503D01*
X0225617Y0051199D01*
X0225762Y0050284D01*
X0225762Y0046237D01*
X0220194Y0046237D01*
X0220194Y0045605D01*
X0220194Y0036137D01*
X0220341Y0036137D01*
X0221256Y0036282D01*
X0222137Y0036568D01*
X0222962Y0036989D01*
X0223711Y0037533D01*
X0224366Y0038188D01*
X0224911Y0038937D01*
X0225331Y0039762D01*
X0225617Y0040643D01*
X0225762Y0041558D01*
X0225762Y0045605D01*
X0220194Y0045605D01*
X0219562Y0045605D01*
X0219562Y0036137D01*
X0219415Y0036137D01*
X0218500Y0036282D01*
X0217619Y0036568D01*
X0216794Y0036989D01*
X0216045Y0037533D01*
X0215390Y0038188D01*
X0214845Y0038937D01*
X0214425Y0039762D01*
X0214139Y0040643D01*
X0213994Y0041558D01*
X0213994Y0045605D01*
X0219562Y0045605D01*
X0219562Y0046237D01*
X0213994Y0046237D01*
X0213994Y0050284D01*
X0214139Y0051199D01*
X0214425Y0052080D01*
X0214821Y0052857D01*
X0209773Y0052857D01*
X0210562Y0050952D01*
X0210562Y0040891D01*
X0209697Y0038801D01*
X0208098Y0037202D01*
X0206009Y0036337D01*
X0203747Y0036337D01*
X0201658Y0037202D01*
X0200059Y0038801D01*
X0199194Y0040891D01*
X0199194Y0050952D01*
X0199983Y0052857D01*
X0194773Y0052857D01*
X0195562Y0050952D01*
X0195562Y0040891D01*
X0194697Y0038801D01*
X0193098Y0037202D01*
X0191009Y0036337D01*
X0188747Y0036337D01*
X0186658Y0037202D01*
X0185059Y0038801D01*
X0184194Y0040891D01*
X0184194Y0050952D01*
X0184983Y0052857D01*
X0179773Y0052857D01*
X0180562Y0050952D01*
X0180562Y0040891D01*
X0179697Y0038801D01*
X0178098Y0037202D01*
X0176009Y0036337D01*
X0173747Y0036337D01*
X0171658Y0037202D01*
X0170059Y0038801D01*
X0169194Y0040891D01*
X0169194Y0050952D01*
X0169983Y0052857D01*
X0164773Y0052857D01*
X0165562Y0050952D01*
X0165562Y0040891D01*
X0164697Y0038801D01*
X0163098Y0037202D01*
X0161009Y0036337D01*
X0158747Y0036337D01*
X0156658Y0037202D01*
X0155059Y0038801D01*
X0154194Y0040891D01*
X0154194Y0050952D01*
X0154983Y0052857D01*
X0149773Y0052857D01*
X0150562Y0050952D01*
X0150562Y0040891D01*
X0149697Y0038801D01*
X0148098Y0037202D01*
X0146009Y0036337D01*
X0143747Y0036337D01*
X0141658Y0037202D01*
X0140059Y0038801D01*
X0139194Y0040891D01*
X0139194Y0050952D01*
X0139983Y0052857D01*
X0134773Y0052857D01*
X0135562Y0050952D01*
X0135562Y0040891D01*
X0134697Y0038801D01*
X0133098Y0037202D01*
X0131009Y0036337D01*
X0128747Y0036337D01*
X0126658Y0037202D01*
X0125059Y0038801D01*
X0124194Y0040891D01*
X0124194Y0050952D01*
X0124983Y0052857D01*
X0119773Y0052857D01*
X0120562Y0050952D01*
X0120562Y0040891D01*
X0119697Y0038801D01*
X0118098Y0037202D01*
X0116009Y0036337D01*
X0113747Y0036337D01*
X0111658Y0037202D01*
X0110059Y0038801D01*
X0109194Y0040891D01*
X0109194Y0050952D01*
X0109983Y0052857D01*
X0104773Y0052857D01*
X0105562Y0050952D01*
X0105562Y0040891D01*
X0104697Y0038801D01*
X0103098Y0037202D01*
X0101009Y0036337D01*
X0098747Y0036337D01*
X0096658Y0037202D01*
X0095059Y0038801D01*
X0094194Y0040891D01*
X0094194Y0050952D01*
X0094983Y0052857D01*
X0089918Y0052857D01*
X0088900Y0053279D01*
X0088121Y0054058D01*
X0073113Y0069066D01*
X0072491Y0069066D01*
X0071100Y0069642D01*
X0070036Y0070707D01*
X0069460Y0072098D01*
X0069460Y0073603D01*
X0070036Y0074994D01*
X0071100Y0076059D01*
X0072491Y0076635D01*
X0073997Y0076635D01*
X0075388Y0076059D01*
X0076452Y0074994D01*
X0077028Y0073603D01*
X0077028Y0072981D01*
X0086494Y0063516D01*
X0086494Y0065605D01*
X0092062Y0065605D01*
X0092062Y0066237D01*
X0086494Y0066237D01*
X0086494Y0070284D01*
X0086639Y0071199D01*
X0086925Y0072080D01*
X0087345Y0072905D01*
X0087890Y0073655D01*
X0088545Y0074310D01*
X0089294Y0074854D01*
X0090119Y0075274D01*
X0091000Y0075561D01*
X0091915Y0075705D01*
X0092062Y0075705D01*
X0092062Y0066237D01*
X0092694Y0066237D01*
X0098262Y0066237D01*
X0098262Y0070284D01*
X0098117Y0071199D01*
X0097831Y0072080D01*
X0097411Y0072905D01*
X0096866Y0073655D01*
X0096211Y0074310D01*
X0095462Y0074854D01*
X0094637Y0075274D01*
X0093756Y0075561D01*
X0092841Y0075705D01*
X0092694Y0075705D01*
X0092694Y0066237D01*
X0092694Y0065605D01*
X0098262Y0065605D01*
X0098262Y0061558D01*
X0098117Y0060643D01*
X0097831Y0059762D01*
X0097411Y0058937D01*
X0097016Y0058394D01*
X0102966Y0058394D01*
X0102559Y0058801D01*
X0101694Y0060891D01*
X0101694Y0070952D01*
X0102559Y0073041D01*
X0104158Y0074640D01*
X0106247Y0075505D01*
X0108509Y0075505D01*
X0110598Y0074640D01*
X0112197Y0073041D01*
X0113062Y0070952D01*
X0113062Y0060891D01*
X0112197Y0058801D01*
X0111790Y0058394D01*
X0117966Y0058394D01*
X0117559Y0058801D01*
X0116694Y0060891D01*
X0116694Y0070952D01*
X0117559Y0073041D01*
X0119158Y0074640D01*
X0119892Y0074944D01*
X0106578Y0088259D01*
X0105956Y0088259D01*
X0108271Y0086566D02*
X0027050Y0086566D01*
X0027879Y0084599D02*
X0110238Y0084599D01*
X0112205Y0082632D02*
X0027807Y0082632D01*
X0026769Y0080665D02*
X0114172Y0080665D01*
X0116139Y0078698D02*
X0014805Y0078698D01*
X0026885Y0076731D02*
X0118106Y0076731D01*
X0119457Y0074764D02*
X0110299Y0074764D01*
X0112298Y0072797D02*
X0117458Y0072797D01*
X0122949Y0075803D02*
X0127378Y0075803D01*
X0137220Y0065961D01*
X0137378Y0065921D01*
X0143062Y0066896D02*
X0146494Y0066896D01*
X0146494Y0068863D02*
X0143062Y0068863D01*
X0143062Y0070830D02*
X0146580Y0070830D01*
X0147290Y0072797D02*
X0142298Y0072797D01*
X0140299Y0074764D02*
X0149170Y0074764D01*
X0152062Y0074764D02*
X0152694Y0074764D01*
X0152694Y0072797D02*
X0152062Y0072797D01*
X0155586Y0074764D02*
X0164457Y0074764D01*
X0162458Y0072797D02*
X0157466Y0072797D01*
X0158176Y0070830D02*
X0161694Y0070830D01*
X0161694Y0068863D02*
X0158262Y0068863D01*
X0158262Y0066896D02*
X0161694Y0066896D01*
X0161694Y0064929D02*
X0158262Y0064929D01*
X0158262Y0062962D02*
X0161694Y0062962D01*
X0161694Y0060995D02*
X0158173Y0060995D01*
X0157457Y0059028D02*
X0162465Y0059028D01*
X0172291Y0059028D02*
X0177299Y0059028D01*
X0176583Y0060995D02*
X0173062Y0060995D01*
X0173062Y0062962D02*
X0176494Y0062962D01*
X0176494Y0064929D02*
X0173062Y0064929D01*
X0173062Y0066896D02*
X0176494Y0066896D01*
X0176494Y0068863D02*
X0173062Y0068863D01*
X0173062Y0070830D02*
X0176580Y0070830D01*
X0182062Y0070830D02*
X0182694Y0070830D01*
X0182694Y0068863D02*
X0182062Y0068863D01*
X0182062Y0066896D02*
X0182694Y0066896D01*
X0182496Y0065961D02*
X0182378Y0065921D01*
X0182496Y0065961D02*
X0192339Y0075803D01*
X0202181Y0075803D01*
X0202673Y0075311D01*
X0203165Y0075803D01*
X0249425Y0075803D01*
X0254346Y0080724D01*
X0254740Y0080803D01*
X0254724Y0080787D02*
X0254724Y0075119D01*
X0254293Y0075119D01*
X0253409Y0075259D01*
X0252558Y0075535D01*
X0251761Y0075942D01*
X0251037Y0076467D01*
X0250404Y0077100D01*
X0249879Y0077824D01*
X0249472Y0078621D01*
X0249196Y0079472D01*
X0249056Y0080356D01*
X0249056Y0080787D01*
X0254724Y0080787D01*
X0254724Y0080665D02*
X0254756Y0080665D01*
X0254724Y0078698D02*
X0254756Y0078698D01*
X0254724Y0076731D02*
X0254756Y0076731D01*
X0250774Y0076731D02*
X0130366Y0076731D01*
X0132333Y0074764D02*
X0134457Y0074764D01*
X0123969Y0078698D02*
X0249447Y0078698D01*
X0249056Y0080665D02*
X0122002Y0080665D01*
X0120035Y0082632D02*
X0249358Y0082632D01*
X0250497Y0084599D02*
X0192020Y0084599D01*
X0193809Y0086566D02*
X0251221Y0086566D01*
X0249744Y0088533D02*
X0193809Y0088533D01*
X0186831Y0084599D02*
X0162020Y0084599D01*
X0163809Y0086566D02*
X0185041Y0086566D01*
X0185041Y0088533D02*
X0163809Y0088533D01*
X0155041Y0088533D02*
X0114134Y0088533D01*
X0112806Y0090500D02*
X0112167Y0090500D01*
X0112275Y0092467D02*
X0110493Y0092467D01*
X0109670Y0094434D02*
X0112749Y0094434D01*
X0106709Y0092043D02*
X0122949Y0075803D01*
X0116694Y0070830D02*
X0113062Y0070830D01*
X0113062Y0068863D02*
X0116694Y0068863D01*
X0116694Y0066896D02*
X0113062Y0066896D01*
X0113062Y0064929D02*
X0116694Y0064929D01*
X0116694Y0062962D02*
X0113062Y0062962D01*
X0113062Y0060995D02*
X0116694Y0060995D01*
X0117465Y0059028D02*
X0112291Y0059028D01*
X0102465Y0059028D02*
X0097457Y0059028D01*
X0098173Y0060995D02*
X0101694Y0060995D01*
X0101694Y0062962D02*
X0098262Y0062962D01*
X0098262Y0064929D02*
X0101694Y0064929D01*
X0101694Y0066896D02*
X0098262Y0066896D01*
X0098262Y0068863D02*
X0101694Y0068863D01*
X0101694Y0070830D02*
X0098176Y0070830D01*
X0097466Y0072797D02*
X0102458Y0072797D01*
X0104457Y0074764D02*
X0095586Y0074764D01*
X0092694Y0074764D02*
X0092062Y0074764D01*
X0092062Y0072797D02*
X0092694Y0072797D01*
X0089170Y0074764D02*
X0076548Y0074764D01*
X0077213Y0072797D02*
X0087290Y0072797D01*
X0083579Y0074327D02*
X0091945Y0065961D01*
X0092378Y0065921D01*
X0092062Y0066896D02*
X0092694Y0066896D01*
X0092694Y0068863D02*
X0092062Y0068863D01*
X0092062Y0070830D02*
X0092694Y0070830D01*
X0086580Y0070830D02*
X0079180Y0070830D01*
X0081147Y0068863D02*
X0086494Y0068863D01*
X0086494Y0066896D02*
X0083114Y0066896D01*
X0085081Y0064929D02*
X0086494Y0064929D01*
X0085119Y0057061D02*
X0067784Y0057061D01*
X0067193Y0057402D02*
X0067193Y0057402D01*
X0070547Y0055465D01*
X0070547Y0055465D01*
X0070547Y0055465D01*
X0071853Y0053910D01*
X0072128Y0053635D01*
X0072225Y0053466D01*
X0073037Y0052498D01*
X0073037Y0052498D01*
X0073470Y0051311D01*
X0073567Y0051142D01*
X0073668Y0050766D01*
X0074362Y0048858D01*
X0074362Y0047925D01*
X0074367Y0047914D01*
X0074367Y0031929D01*
X0074362Y0031917D01*
X0074362Y0030984D01*
X0073668Y0029076D01*
X0073567Y0028701D01*
X0073470Y0028532D01*
X0073037Y0027344D01*
X0073037Y0027344D01*
X0072225Y0026376D01*
X0072128Y0026207D01*
X0071853Y0025933D01*
X0070547Y0024377D01*
X0070547Y0024377D01*
X0067193Y0022440D01*
X0067193Y0022440D01*
X0065193Y0022088D01*
X0064817Y0021987D01*
X0064623Y0021987D01*
X0063378Y0021768D01*
X0063378Y0021768D01*
X0062133Y0021987D01*
X0061938Y0021987D01*
X0061563Y0022088D01*
X0059563Y0022440D01*
X0059563Y0022440D01*
X0056209Y0024377D01*
X0056208Y0024377D01*
X0056208Y0024377D01*
X0054903Y0025933D01*
X0054628Y0026207D01*
X0054531Y0026376D01*
X0053719Y0027344D01*
X0053719Y0027344D01*
X0053286Y0028532D01*
X0053189Y0028701D01*
X0053088Y0029076D01*
X0052394Y0030984D01*
X0052394Y0031917D01*
X0052389Y0031929D01*
X0052389Y0047914D01*
X0052394Y0047925D01*
X0052394Y0048858D01*
X0053088Y0050766D01*
X0053189Y0051142D01*
X0053286Y0051311D01*
X0053719Y0052498D01*
X0053719Y0052498D01*
X0054531Y0053466D01*
X0054628Y0053635D01*
X0054903Y0053910D01*
X0056208Y0055465D01*
X0056209Y0055465D01*
X0059563Y0057402D01*
X0059563Y0057402D01*
X0061563Y0057755D01*
X0061938Y0057855D01*
X0062133Y0057855D01*
X0063378Y0058075D01*
X0063378Y0058075D01*
X0064623Y0057855D01*
X0064817Y0057855D01*
X0065193Y0057755D01*
X0067193Y0057402D01*
X0070859Y0055094D02*
X0087086Y0055094D01*
X0089268Y0053127D02*
X0072510Y0053127D01*
X0073557Y0051160D02*
X0094280Y0051160D01*
X0094194Y0049193D02*
X0074240Y0049193D01*
X0074367Y0047226D02*
X0094194Y0047226D01*
X0094194Y0045259D02*
X0074367Y0045259D01*
X0074367Y0043292D02*
X0094194Y0043292D01*
X0094194Y0041325D02*
X0074367Y0041325D01*
X0074367Y0039358D02*
X0094829Y0039358D01*
X0096470Y0037391D02*
X0074367Y0037391D01*
X0074367Y0035424D02*
X0260389Y0035424D01*
X0260389Y0037391D02*
X0238286Y0037391D01*
X0239927Y0039358D02*
X0260389Y0039358D01*
X0260389Y0041325D02*
X0240562Y0041325D01*
X0240562Y0043292D02*
X0260389Y0043292D01*
X0260389Y0045259D02*
X0240562Y0045259D01*
X0240562Y0047226D02*
X0260389Y0047226D01*
X0260389Y0047914D02*
X0260389Y0031929D01*
X0260394Y0031917D01*
X0260394Y0030984D01*
X0261088Y0029076D01*
X0261189Y0028701D01*
X0261286Y0028532D01*
X0261719Y0027344D01*
X0262531Y0026376D01*
X0262628Y0026207D01*
X0262903Y0025933D01*
X0264208Y0024377D01*
X0267563Y0022440D01*
X0267563Y0022440D01*
X0269563Y0022088D01*
X0269938Y0021987D01*
X0270133Y0021987D01*
X0271378Y0021768D01*
X0272623Y0021987D01*
X0272817Y0021987D01*
X0273193Y0022088D01*
X0275193Y0022440D01*
X0278547Y0024377D01*
X0278547Y0024377D01*
X0279853Y0025933D01*
X0280128Y0026207D01*
X0280225Y0026376D01*
X0281037Y0027344D01*
X0281037Y0027344D01*
X0281470Y0028532D01*
X0281567Y0028701D01*
X0281668Y0029076D01*
X0282362Y0030984D01*
X0282362Y0031917D01*
X0282367Y0031929D01*
X0282367Y0047914D01*
X0282362Y0047925D01*
X0282362Y0048858D01*
X0281668Y0050767D01*
X0281567Y0051142D01*
X0281470Y0051311D01*
X0281037Y0052498D01*
X0280225Y0053466D01*
X0280128Y0053635D01*
X0279853Y0053910D01*
X0278547Y0055465D01*
X0275193Y0057402D01*
X0275193Y0057402D01*
X0273193Y0057755D01*
X0272817Y0057855D01*
X0272623Y0057855D01*
X0271378Y0058075D01*
X0271378Y0058075D01*
X0270133Y0057855D01*
X0269938Y0057855D01*
X0269563Y0057755D01*
X0267563Y0057402D01*
X0264209Y0055465D01*
X0264208Y0055465D01*
X0262903Y0053910D01*
X0262628Y0053635D01*
X0262531Y0053466D01*
X0261719Y0052498D01*
X0261286Y0051311D01*
X0261189Y0051142D01*
X0261088Y0050767D01*
X0260394Y0048858D01*
X0260394Y0047925D01*
X0260389Y0047914D01*
X0260515Y0049193D02*
X0240562Y0049193D01*
X0240476Y0051160D02*
X0261199Y0051160D01*
X0261719Y0052498D02*
X0261719Y0052498D01*
X0262246Y0053127D02*
X0239611Y0053127D01*
X0237003Y0055094D02*
X0263897Y0055094D01*
X0266971Y0057061D02*
X0245256Y0057061D01*
X0245598Y0057202D02*
X0247197Y0058801D01*
X0248062Y0060891D01*
X0248062Y0070952D01*
X0247197Y0073041D01*
X0245598Y0074640D01*
X0243509Y0075505D01*
X0241247Y0075505D01*
X0239158Y0074640D01*
X0237559Y0073041D01*
X0236694Y0070952D01*
X0236694Y0060891D01*
X0237559Y0058801D01*
X0239158Y0057202D01*
X0241247Y0056337D01*
X0243509Y0056337D01*
X0245598Y0057202D01*
X0247291Y0059028D02*
X0282639Y0059028D01*
X0282639Y0060611D02*
X0282639Y0056979D01*
X0285208Y0054411D01*
X0288840Y0054411D01*
X0291408Y0056979D01*
X0291408Y0060611D01*
X0288840Y0063180D01*
X0285208Y0063180D01*
X0282639Y0060611D01*
X0283023Y0060995D02*
X0248062Y0060995D01*
X0248062Y0062962D02*
X0284990Y0062962D01*
X0285208Y0064411D02*
X0288840Y0064411D01*
X0291408Y0066979D01*
X0291408Y0070611D01*
X0288840Y0073180D01*
X0285208Y0073180D01*
X0282639Y0070611D01*
X0282639Y0066979D01*
X0285208Y0064411D01*
X0284690Y0064929D02*
X0248062Y0064929D01*
X0248062Y0066896D02*
X0282723Y0066896D01*
X0282639Y0068863D02*
X0248062Y0068863D01*
X0248062Y0070830D02*
X0282858Y0070830D01*
X0284825Y0072797D02*
X0247298Y0072797D01*
X0245299Y0074764D02*
X0275702Y0074764D01*
X0276378Y0074764D02*
X0276409Y0074764D01*
X0277085Y0074764D02*
X0337799Y0074764D01*
X0337804Y0076731D02*
X0280747Y0076731D01*
X0279937Y0076787D02*
X0276492Y0080232D01*
X0276394Y0080409D01*
X0276378Y0078698D02*
X0276409Y0078698D01*
X0276378Y0076731D02*
X0276409Y0076731D01*
X0279937Y0076787D02*
X0331610Y0076787D01*
X0331610Y0116650D01*
X0323126Y0125134D01*
X0323142Y0125150D02*
X0323142Y0130818D01*
X0323573Y0130818D01*
X0324457Y0130678D01*
X0325308Y0130402D01*
X0326105Y0129995D01*
X0326829Y0129470D01*
X0327462Y0128837D01*
X0327988Y0128113D01*
X0328394Y0127316D01*
X0328670Y0126465D01*
X0328810Y0125581D01*
X0328810Y0125150D01*
X0323142Y0125150D01*
X0323110Y0125150D02*
X0323110Y0125118D01*
X0313142Y0125118D01*
X0313142Y0125150D01*
X0318810Y0125150D01*
X0323110Y0125150D01*
X0323110Y0125906D02*
X0323142Y0125906D01*
X0323110Y0127873D02*
X0323142Y0127873D01*
X0323110Y0129840D02*
X0323142Y0129840D01*
X0326319Y0129840D02*
X0337927Y0129840D01*
X0337922Y0127873D02*
X0328110Y0127873D01*
X0328759Y0125906D02*
X0337918Y0125906D01*
X0337913Y0123939D02*
X0328692Y0123939D01*
X0327855Y0121972D02*
X0337909Y0121972D01*
X0337904Y0120005D02*
X0325697Y0120005D01*
X0327859Y0118038D02*
X0337900Y0118038D01*
X0337895Y0116071D02*
X0328610Y0116071D01*
X0328610Y0114104D02*
X0337890Y0114104D01*
X0337886Y0112137D02*
X0327821Y0112137D01*
X0325473Y0110170D02*
X0337881Y0110170D01*
X0337877Y0108203D02*
X0327791Y0108203D01*
X0328606Y0106236D02*
X0337872Y0106236D01*
X0337868Y0104269D02*
X0328610Y0104269D01*
X0329435Y0102302D02*
X0337863Y0102302D01*
X0337858Y0100335D02*
X0331078Y0100335D01*
X0331242Y0098368D02*
X0337854Y0098368D01*
X0337849Y0096401D02*
X0331242Y0096401D01*
X0331242Y0094434D02*
X0337845Y0094434D01*
X0337840Y0092467D02*
X0331242Y0092467D01*
X0331242Y0090500D02*
X0337836Y0090500D01*
X0337831Y0088533D02*
X0331242Y0088533D01*
X0331242Y0086566D02*
X0337826Y0086566D01*
X0337822Y0084599D02*
X0331242Y0084599D01*
X0331242Y0082632D02*
X0337817Y0082632D01*
X0337813Y0080665D02*
X0331242Y0080665D01*
X0331023Y0078698D02*
X0337808Y0078698D01*
X0337794Y0072797D02*
X0289222Y0072797D01*
X0291189Y0070830D02*
X0337790Y0070830D01*
X0337785Y0068863D02*
X0291408Y0068863D01*
X0291324Y0066896D02*
X0337781Y0066896D01*
X0337776Y0064929D02*
X0289357Y0064929D01*
X0289057Y0062962D02*
X0337772Y0062962D01*
X0337767Y0060995D02*
X0291024Y0060995D01*
X0291408Y0059028D02*
X0337762Y0059028D01*
X0337758Y0057061D02*
X0291408Y0057061D01*
X0289522Y0055094D02*
X0337753Y0055094D01*
X0337749Y0053127D02*
X0280510Y0053127D01*
X0281037Y0052498D02*
X0281037Y0052498D01*
X0281557Y0051160D02*
X0337744Y0051160D01*
X0337740Y0049193D02*
X0282240Y0049193D01*
X0282362Y0048858D02*
X0282362Y0048858D01*
X0282367Y0047226D02*
X0337735Y0047226D01*
X0337730Y0045259D02*
X0282367Y0045259D01*
X0282367Y0043292D02*
X0337726Y0043292D01*
X0337721Y0041325D02*
X0282367Y0041325D01*
X0282367Y0039358D02*
X0337717Y0039358D01*
X0337712Y0037391D02*
X0329598Y0037391D01*
X0329410Y0037499D02*
X0326541Y0038268D01*
X0323570Y0038268D01*
X0320700Y0037499D01*
X0318127Y0036013D01*
X0316026Y0033912D01*
X0314541Y0031340D01*
X0313772Y0028470D01*
X0313772Y0025499D01*
X0314541Y0022629D01*
X0316026Y0020056D01*
X0318127Y0017955D01*
X0320700Y0016470D01*
X0323570Y0015701D01*
X0326541Y0015701D01*
X0329410Y0016470D01*
X0331983Y0017955D01*
X0334084Y0020056D01*
X0335570Y0022629D01*
X0336339Y0025499D01*
X0336339Y0028470D01*
X0335570Y0031340D01*
X0334084Y0033912D01*
X0331983Y0036013D01*
X0329410Y0037499D01*
X0332573Y0035424D02*
X0337708Y0035424D01*
X0337703Y0033456D02*
X0334347Y0033456D01*
X0335483Y0031489D02*
X0337698Y0031489D01*
X0337694Y0029522D02*
X0336057Y0029522D01*
X0336339Y0027555D02*
X0337689Y0027555D01*
X0337685Y0025588D02*
X0336339Y0025588D01*
X0335836Y0023621D02*
X0337680Y0023621D01*
X0337676Y0021654D02*
X0335007Y0021654D01*
X0333715Y0019687D02*
X0337671Y0019687D01*
X0337666Y0017720D02*
X0331577Y0017720D01*
X0326737Y0015753D02*
X0337662Y0015753D01*
X0337657Y0013786D02*
X0298609Y0013786D01*
X0299164Y0014341D02*
X0296596Y0011773D01*
X0292964Y0011773D01*
X0290395Y0014341D01*
X0290395Y0017973D01*
X0292964Y0020542D01*
X0296596Y0020542D01*
X0299164Y0017973D01*
X0299164Y0014341D01*
X0299164Y0015753D02*
X0323373Y0015753D01*
X0318534Y0017720D02*
X0299164Y0017720D01*
X0297450Y0019687D02*
X0316395Y0019687D01*
X0315103Y0021654D02*
X0027039Y0021654D01*
X0027362Y0023621D02*
X0057517Y0023621D01*
X0055192Y0025588D02*
X0027362Y0025588D01*
X0026900Y0027555D02*
X0053642Y0027555D01*
X0052926Y0029522D02*
X0026119Y0029522D01*
X0024893Y0031489D02*
X0052394Y0031489D01*
X0052389Y0033456D02*
X0022867Y0033456D01*
X0018335Y0035424D02*
X0052389Y0035424D01*
X0052389Y0037391D02*
X0007279Y0037391D01*
X0007275Y0039358D02*
X0052389Y0039358D01*
X0052389Y0041325D02*
X0007270Y0041325D01*
X0007266Y0043292D02*
X0052389Y0043292D01*
X0052389Y0045259D02*
X0007261Y0045259D01*
X0007256Y0047226D02*
X0052389Y0047226D01*
X0052515Y0049193D02*
X0007252Y0049193D01*
X0007247Y0051160D02*
X0053199Y0051160D01*
X0054246Y0053127D02*
X0007243Y0053127D01*
X0007238Y0055094D02*
X0055897Y0055094D01*
X0058971Y0057061D02*
X0007234Y0057061D01*
X0007229Y0059028D02*
X0016008Y0059028D01*
X0013090Y0060995D02*
X0007224Y0060995D01*
X0007220Y0062962D02*
X0012310Y0062962D01*
X0012402Y0064929D02*
X0007215Y0064929D01*
X0007211Y0066896D02*
X0013468Y0066896D01*
X0026934Y0070830D02*
X0069985Y0070830D01*
X0069460Y0072797D02*
X0027876Y0072797D01*
X0027855Y0074764D02*
X0069941Y0074764D01*
X0073244Y0072850D02*
X0090469Y0055626D01*
X0225311Y0055626D01*
X0234661Y0046276D01*
X0234878Y0045921D01*
X0229194Y0045259D02*
X0225762Y0045259D01*
X0225762Y0047226D02*
X0229194Y0047226D01*
X0227829Y0049193D02*
X0225762Y0049193D01*
X0225862Y0051160D02*
X0225624Y0051160D01*
X0229759Y0055094D02*
X0232753Y0055094D01*
X0230256Y0057061D02*
X0239500Y0057061D01*
X0237465Y0059028D02*
X0232291Y0059028D01*
X0233062Y0060995D02*
X0236694Y0060995D01*
X0236694Y0062962D02*
X0233062Y0062962D01*
X0233062Y0064929D02*
X0236694Y0064929D01*
X0236694Y0066896D02*
X0233062Y0066896D01*
X0233062Y0068863D02*
X0236694Y0068863D01*
X0236694Y0070830D02*
X0233062Y0070830D01*
X0232298Y0072797D02*
X0237458Y0072797D01*
X0239457Y0074764D02*
X0230299Y0074764D01*
X0224457Y0074764D02*
X0215586Y0074764D01*
X0217466Y0072797D02*
X0222458Y0072797D01*
X0221694Y0070830D02*
X0218176Y0070830D01*
X0218262Y0068863D02*
X0221694Y0068863D01*
X0221694Y0066896D02*
X0218262Y0066896D01*
X0218262Y0064929D02*
X0221694Y0064929D01*
X0221694Y0062962D02*
X0218262Y0062962D01*
X0218173Y0060995D02*
X0221694Y0060995D01*
X0222465Y0059028D02*
X0217457Y0059028D01*
X0207299Y0059028D02*
X0202291Y0059028D01*
X0203062Y0060995D02*
X0206583Y0060995D01*
X0206494Y0062962D02*
X0203062Y0062962D01*
X0203062Y0064929D02*
X0206494Y0064929D01*
X0206494Y0066896D02*
X0203062Y0066896D01*
X0203062Y0068863D02*
X0206494Y0068863D01*
X0206580Y0070830D02*
X0203062Y0070830D01*
X0202298Y0072797D02*
X0207290Y0072797D01*
X0209170Y0074764D02*
X0200299Y0074764D01*
X0202673Y0075311D02*
X0212024Y0065961D01*
X0212378Y0065921D01*
X0212062Y0066896D02*
X0212694Y0066896D01*
X0212694Y0068863D02*
X0212062Y0068863D01*
X0212062Y0070830D02*
X0212694Y0070830D01*
X0212694Y0072797D02*
X0212062Y0072797D01*
X0212062Y0074764D02*
X0212694Y0074764D01*
X0194457Y0074764D02*
X0185586Y0074764D01*
X0187466Y0072797D02*
X0192458Y0072797D01*
X0191694Y0070830D02*
X0188176Y0070830D01*
X0188262Y0068863D02*
X0191694Y0068863D01*
X0191694Y0066896D02*
X0188262Y0066896D01*
X0188262Y0064929D02*
X0191694Y0064929D01*
X0191694Y0062962D02*
X0188262Y0062962D01*
X0188173Y0060995D02*
X0191694Y0060995D01*
X0192465Y0059028D02*
X0187457Y0059028D01*
X0184280Y0051160D02*
X0180476Y0051160D01*
X0180562Y0049193D02*
X0184194Y0049193D01*
X0184194Y0047226D02*
X0180562Y0047226D01*
X0180562Y0045259D02*
X0184194Y0045259D01*
X0184194Y0043292D02*
X0180562Y0043292D01*
X0180562Y0041325D02*
X0184194Y0041325D01*
X0184829Y0039358D02*
X0179927Y0039358D01*
X0178286Y0037391D02*
X0186470Y0037391D01*
X0193286Y0037391D02*
X0201470Y0037391D01*
X0199829Y0039358D02*
X0194927Y0039358D01*
X0195562Y0041325D02*
X0199194Y0041325D01*
X0199194Y0043292D02*
X0195562Y0043292D01*
X0195562Y0045259D02*
X0199194Y0045259D01*
X0199194Y0047226D02*
X0195562Y0047226D01*
X0195562Y0049193D02*
X0199194Y0049193D01*
X0199280Y0051160D02*
X0195476Y0051160D01*
X0210476Y0051160D02*
X0214132Y0051160D01*
X0213994Y0049193D02*
X0210562Y0049193D01*
X0210562Y0047226D02*
X0213994Y0047226D01*
X0213994Y0045259D02*
X0210562Y0045259D01*
X0210562Y0043292D02*
X0213994Y0043292D01*
X0214031Y0041325D02*
X0210562Y0041325D01*
X0209927Y0039358D02*
X0214631Y0039358D01*
X0216241Y0037391D02*
X0208286Y0037391D01*
X0219562Y0037391D02*
X0220194Y0037391D01*
X0220194Y0039358D02*
X0219562Y0039358D01*
X0219562Y0041325D02*
X0220194Y0041325D01*
X0220194Y0043292D02*
X0219562Y0043292D01*
X0219562Y0045259D02*
X0220194Y0045259D01*
X0225762Y0043292D02*
X0229194Y0043292D01*
X0229194Y0041325D02*
X0225725Y0041325D01*
X0225125Y0039358D02*
X0229829Y0039358D01*
X0231470Y0037391D02*
X0223515Y0037391D01*
X0260389Y0033456D02*
X0074367Y0033456D01*
X0074362Y0031489D02*
X0260394Y0031489D01*
X0260394Y0030984D02*
X0260394Y0030984D01*
X0260926Y0029522D02*
X0073830Y0029522D01*
X0073114Y0027555D02*
X0261642Y0027555D01*
X0263192Y0025588D02*
X0071564Y0025588D01*
X0069239Y0023621D02*
X0265517Y0023621D01*
X0264208Y0024377D02*
X0264208Y0024377D01*
X0271378Y0021768D02*
X0271378Y0021768D01*
X0275193Y0022440D02*
X0275193Y0022440D01*
X0277239Y0023621D02*
X0314275Y0023621D01*
X0313772Y0025588D02*
X0279564Y0025588D01*
X0281114Y0027555D02*
X0313772Y0027555D01*
X0314054Y0029522D02*
X0281830Y0029522D01*
X0282362Y0031489D02*
X0314627Y0031489D01*
X0315763Y0033456D02*
X0282367Y0033456D01*
X0282367Y0035424D02*
X0317537Y0035424D01*
X0320512Y0037391D02*
X0282367Y0037391D01*
X0282964Y0020542D02*
X0280395Y0017973D01*
X0280395Y0014341D01*
X0282964Y0011773D01*
X0286596Y0011773D01*
X0289164Y0014341D01*
X0289164Y0017973D01*
X0286596Y0020542D01*
X0282964Y0020542D01*
X0282109Y0019687D02*
X0026418Y0019687D01*
X0025282Y0017720D02*
X0280395Y0017720D01*
X0280395Y0015753D02*
X0023443Y0015753D01*
X0020264Y0013786D02*
X0280950Y0013786D01*
X0282917Y0011819D02*
X0007338Y0011819D01*
X0007343Y0009852D02*
X0337648Y0009852D01*
X0337644Y0007885D02*
X0007348Y0007885D01*
X0007334Y0013786D02*
X0011894Y0013786D01*
X0008715Y0015753D02*
X0007329Y0015753D01*
X0007288Y0033456D02*
X0009291Y0033456D01*
X0007284Y0035424D02*
X0013823Y0035424D01*
X0103286Y0037391D02*
X0111470Y0037391D01*
X0109829Y0039358D02*
X0104927Y0039358D01*
X0105562Y0041325D02*
X0109194Y0041325D01*
X0109194Y0043292D02*
X0105562Y0043292D01*
X0105562Y0045259D02*
X0109194Y0045259D01*
X0109194Y0047226D02*
X0105562Y0047226D01*
X0105562Y0049193D02*
X0109194Y0049193D01*
X0109280Y0051160D02*
X0105476Y0051160D01*
X0120476Y0051160D02*
X0124280Y0051160D01*
X0124194Y0049193D02*
X0120562Y0049193D01*
X0120562Y0047226D02*
X0124194Y0047226D01*
X0124194Y0045259D02*
X0120562Y0045259D01*
X0120562Y0043292D02*
X0124194Y0043292D01*
X0124194Y0041325D02*
X0120562Y0041325D01*
X0119927Y0039358D02*
X0124829Y0039358D01*
X0126470Y0037391D02*
X0118286Y0037391D01*
X0133286Y0037391D02*
X0141470Y0037391D01*
X0139829Y0039358D02*
X0134927Y0039358D01*
X0135562Y0041325D02*
X0139194Y0041325D01*
X0139194Y0043292D02*
X0135562Y0043292D01*
X0135562Y0045259D02*
X0139194Y0045259D01*
X0139194Y0047226D02*
X0135562Y0047226D01*
X0135562Y0049193D02*
X0139194Y0049193D01*
X0139280Y0051160D02*
X0135476Y0051160D01*
X0150476Y0051160D02*
X0154280Y0051160D01*
X0154194Y0049193D02*
X0150562Y0049193D01*
X0150562Y0047226D02*
X0154194Y0047226D01*
X0154194Y0045259D02*
X0150562Y0045259D01*
X0150562Y0043292D02*
X0154194Y0043292D01*
X0154194Y0041325D02*
X0150562Y0041325D01*
X0149927Y0039358D02*
X0154829Y0039358D01*
X0156470Y0037391D02*
X0148286Y0037391D01*
X0163286Y0037391D02*
X0171470Y0037391D01*
X0169829Y0039358D02*
X0164927Y0039358D01*
X0165562Y0041325D02*
X0169194Y0041325D01*
X0169194Y0043292D02*
X0165562Y0043292D01*
X0165562Y0045259D02*
X0169194Y0045259D01*
X0169194Y0047226D02*
X0165562Y0047226D01*
X0165562Y0049193D02*
X0169194Y0049193D01*
X0169280Y0051160D02*
X0165476Y0051160D01*
X0147299Y0059028D02*
X0142291Y0059028D01*
X0143062Y0060995D02*
X0146583Y0060995D01*
X0146494Y0062962D02*
X0143062Y0062962D01*
X0143062Y0064929D02*
X0146494Y0064929D01*
X0152062Y0066896D02*
X0152694Y0066896D01*
X0152694Y0068863D02*
X0152062Y0068863D01*
X0152062Y0070830D02*
X0152694Y0070830D01*
X0170299Y0074764D02*
X0179170Y0074764D01*
X0177290Y0072797D02*
X0172298Y0072797D01*
X0182062Y0072797D02*
X0182694Y0072797D01*
X0182694Y0074764D02*
X0182062Y0074764D01*
X0156831Y0084599D02*
X0118068Y0084599D01*
X0116101Y0086566D02*
X0155041Y0086566D01*
X0156974Y0100335D02*
X0174794Y0100335D01*
X0173780Y0102302D02*
X0157868Y0102302D01*
X0157825Y0104269D02*
X0173875Y0104269D01*
X0186734Y0100335D02*
X0249256Y0100335D01*
X0249813Y0098368D02*
X0056649Y0098368D01*
X0058616Y0100335D02*
X0120092Y0100335D01*
X0121965Y0102378D02*
X0133283Y0102378D01*
X0136533Y0100335D02*
X0144554Y0100335D01*
X0143580Y0103165D02*
X0150764Y0103165D01*
X0150764Y0103165D01*
X0150764Y0102302D02*
X0150764Y0102302D01*
X0150764Y0100335D02*
X0150764Y0100335D01*
X0121965Y0102378D02*
X0102772Y0121571D01*
X0099324Y0120005D02*
X0078286Y0120005D01*
X0080253Y0121972D02*
X0098987Y0121972D01*
X0099788Y0123939D02*
X0082220Y0123939D01*
X0073171Y0127873D02*
X0007069Y0127873D01*
X0007074Y0125906D02*
X0055178Y0125906D01*
X0054057Y0123939D02*
X0007079Y0123939D01*
X0007083Y0121972D02*
X0014512Y0121972D01*
X0012545Y0120005D02*
X0007088Y0120005D01*
X0007092Y0118038D02*
X0012246Y0118038D01*
X0012248Y0116071D02*
X0007097Y0116071D01*
X0007101Y0114104D02*
X0014215Y0114104D01*
X0018492Y0112137D02*
X0007106Y0112137D01*
X0021014Y0118038D02*
X0022046Y0118038D01*
X0022262Y0120005D02*
X0020715Y0120005D01*
X0018748Y0121972D02*
X0024229Y0121972D01*
X0026630Y0121972D02*
X0026630Y0121972D01*
X0026630Y0120005D02*
X0026630Y0120005D01*
X0026630Y0118038D02*
X0026630Y0118038D01*
X0030998Y0120005D02*
X0055204Y0120005D01*
X0054057Y0121972D02*
X0029031Y0121972D01*
X0022046Y0116071D02*
X0021867Y0116071D01*
X0007065Y0129840D02*
X0075138Y0129840D01*
X0077105Y0131807D02*
X0007060Y0131807D01*
X0007056Y0133774D02*
X0079072Y0133774D01*
X0081039Y0135741D02*
X0007051Y0135741D01*
X0007047Y0137708D02*
X0083006Y0137708D01*
X0084973Y0139675D02*
X0007042Y0139675D01*
X0007037Y0141642D02*
X0086940Y0141642D01*
X0087636Y0143609D02*
X0007033Y0143609D01*
X0007028Y0145576D02*
X0090874Y0145576D01*
X0092841Y0147543D02*
X0019598Y0147543D01*
X0014922Y0147543D02*
X0007024Y0147543D01*
X0007019Y0149510D02*
X0010434Y0149510D01*
X0008424Y0151477D02*
X0007015Y0151477D01*
X0007010Y0153444D02*
X0007206Y0153444D01*
X0024086Y0149510D02*
X0094808Y0149510D01*
X0096775Y0151477D02*
X0026096Y0151477D01*
X0027313Y0153444D02*
X0148403Y0153444D01*
X0148309Y0155411D02*
X0028087Y0155411D01*
X0028543Y0157378D02*
X0148309Y0157378D01*
X0148309Y0159345D02*
X0028543Y0159345D01*
X0028214Y0161312D02*
X0148597Y0161312D01*
X0150029Y0163280D02*
X0027586Y0163280D01*
X0026451Y0165247D02*
X0320195Y0165247D01*
X0318228Y0163280D02*
X0175625Y0163280D01*
X0175679Y0163240D02*
X0175096Y0163664D01*
X0174453Y0163992D01*
X0173766Y0164215D01*
X0173054Y0164328D01*
X0172693Y0164328D01*
X0172693Y0154543D01*
X0172693Y0154543D01*
X0177277Y0154543D01*
X0177277Y0160104D01*
X0177164Y0160817D01*
X0176941Y0161503D01*
X0176614Y0162146D01*
X0176190Y0162730D01*
X0175679Y0163240D01*
X0177003Y0161312D02*
X0317044Y0161312D01*
X0316293Y0159345D02*
X0177277Y0159345D01*
X0177277Y0157378D02*
X0187438Y0157378D01*
X0186694Y0155411D02*
X0177277Y0155411D01*
X0177156Y0153444D02*
X0185356Y0153444D01*
X0189252Y0149510D02*
X0192472Y0149510D01*
X0187603Y0147543D02*
X0186969Y0147543D01*
X0186694Y0145576D02*
X0098704Y0145576D01*
X0071204Y0125906D02*
X0061703Y0125906D01*
X0076319Y0118038D02*
X0101412Y0118038D01*
X0104356Y0116071D02*
X0074352Y0116071D01*
X0072385Y0114104D02*
X0106323Y0114104D01*
X0108290Y0112137D02*
X0070418Y0112137D01*
X0068451Y0110170D02*
X0110257Y0110170D01*
X0112224Y0108203D02*
X0066484Y0108203D01*
X0064517Y0106236D02*
X0114191Y0106236D01*
X0116158Y0104269D02*
X0062550Y0104269D01*
X0060583Y0102302D02*
X0118125Y0102302D01*
X0103748Y0094434D02*
X0028033Y0094434D01*
X0027916Y0092467D02*
X0102924Y0092467D01*
X0103252Y0090500D02*
X0026887Y0090500D01*
X0016125Y0088533D02*
X0014805Y0088533D01*
X0054682Y0096401D02*
X0251386Y0096401D01*
X0257000Y0095803D02*
X0257847Y0096154D01*
X0259389Y0097697D01*
X0259443Y0097825D01*
X0271528Y0097825D01*
X0271744Y0097303D01*
X0273287Y0095760D01*
X0274134Y0095409D01*
X0273287Y0095059D01*
X0271744Y0093516D01*
X0271593Y0093151D01*
X0259704Y0093151D01*
X0259389Y0093910D01*
X0257847Y0095452D01*
X0257000Y0095803D01*
X0258094Y0096401D02*
X0272646Y0096401D01*
X0272662Y0094434D02*
X0258865Y0094434D01*
X0258259Y0086566D02*
X0272481Y0086566D01*
X0272544Y0084599D02*
X0258983Y0084599D01*
X0260123Y0082632D02*
X0271147Y0082632D01*
X0270709Y0080665D02*
X0260424Y0080665D01*
X0260033Y0078698D02*
X0270973Y0078698D01*
X0272040Y0076731D02*
X0258707Y0076731D01*
X0280243Y0084599D02*
X0288648Y0084599D01*
X0286681Y0086566D02*
X0280306Y0086566D01*
X0281553Y0088533D02*
X0284714Y0088533D01*
X0282747Y0090500D02*
X0281878Y0090500D01*
X0286122Y0094434D02*
X0298006Y0094434D01*
X0299973Y0092467D02*
X0288089Y0092467D01*
X0290056Y0090500D02*
X0301940Y0090500D01*
X0303220Y0089220D02*
X0303220Y0088338D01*
X0303796Y0086947D01*
X0304860Y0085882D01*
X0306251Y0085306D01*
X0307642Y0085306D01*
X0307642Y0084043D01*
X0308354Y0082324D01*
X0298232Y0082324D01*
X0281690Y0098866D01*
X0281878Y0099319D01*
X0281878Y0101500D01*
X0281043Y0103516D01*
X0279500Y0105059D01*
X0278654Y0105409D01*
X0279500Y0105760D01*
X0281043Y0107303D01*
X0281878Y0109319D01*
X0281878Y0110562D01*
X0303220Y0089220D01*
X0303220Y0088533D02*
X0292023Y0088533D01*
X0293990Y0086566D02*
X0304177Y0086566D01*
X0307642Y0084599D02*
X0295957Y0084599D01*
X0297924Y0082632D02*
X0308226Y0082632D01*
X0294549Y0078698D02*
X0281814Y0078698D01*
X0282078Y0080665D02*
X0292582Y0080665D01*
X0290615Y0082632D02*
X0281641Y0082632D01*
X0305315Y0094434D02*
X0307642Y0094434D01*
X0307642Y0094043D02*
X0308202Y0092690D01*
X0307757Y0092875D01*
X0306874Y0092875D01*
X0281454Y0118295D01*
X0281878Y0119319D01*
X0281878Y0121500D01*
X0281043Y0123516D01*
X0279500Y0125059D01*
X0278654Y0125409D01*
X0279500Y0125760D01*
X0280909Y0127169D01*
X0287156Y0127169D01*
X0307776Y0106549D01*
X0307642Y0106225D01*
X0307642Y0104043D01*
X0308477Y0102027D01*
X0310019Y0100485D01*
X0310866Y0100134D01*
X0310019Y0099783D01*
X0308477Y0098240D01*
X0307642Y0096225D01*
X0307642Y0094043D01*
X0307715Y0096401D02*
X0303348Y0096401D01*
X0301381Y0098368D02*
X0308604Y0098368D01*
X0310380Y0100335D02*
X0299414Y0100335D01*
X0294072Y0098368D02*
X0282188Y0098368D01*
X0281878Y0100335D02*
X0292105Y0100335D01*
X0290138Y0102302D02*
X0281546Y0102302D01*
X0280290Y0104269D02*
X0288171Y0104269D01*
X0286204Y0106236D02*
X0279976Y0106236D01*
X0281416Y0108203D02*
X0284237Y0108203D01*
X0282270Y0110170D02*
X0281878Y0110170D01*
X0285645Y0114104D02*
X0300221Y0114104D01*
X0302188Y0112137D02*
X0287612Y0112137D01*
X0289579Y0110170D02*
X0304155Y0110170D01*
X0306122Y0108203D02*
X0291546Y0108203D01*
X0293513Y0106236D02*
X0307646Y0106236D01*
X0307642Y0104269D02*
X0295480Y0104269D01*
X0297447Y0102302D02*
X0308363Y0102302D01*
X0312909Y0105331D02*
X0313126Y0105134D01*
X0312909Y0105331D02*
X0288303Y0129937D01*
X0276984Y0129937D01*
X0276394Y0130409D01*
X0276000Y0130429D01*
X0255331Y0130429D01*
X0254740Y0130803D01*
X0254346Y0130921D01*
X0249425Y0135843D01*
X0156413Y0135843D01*
X0147555Y0126984D01*
X0153414Y0128928D02*
X0157560Y0133074D01*
X0167215Y0133074D01*
X0166526Y0132385D01*
X0163068Y0128928D01*
X0161821Y0128928D01*
X0160209Y0128260D01*
X0158976Y0127027D01*
X0158309Y0125415D01*
X0158309Y0118471D01*
X0158808Y0117265D01*
X0156578Y0117265D01*
X0157077Y0118471D01*
X0157077Y0125415D01*
X0156410Y0127027D01*
X0155176Y0128260D01*
X0153565Y0128928D01*
X0153414Y0128928D01*
X0154326Y0129840D02*
X0163981Y0129840D01*
X0159823Y0127873D02*
X0155563Y0127873D01*
X0156874Y0125906D02*
X0158512Y0125906D01*
X0158309Y0123939D02*
X0157077Y0123939D01*
X0157077Y0121972D02*
X0158309Y0121972D01*
X0158309Y0120005D02*
X0157077Y0120005D01*
X0156898Y0118038D02*
X0158488Y0118038D01*
X0176578Y0117265D02*
X0177077Y0118471D01*
X0177077Y0125415D01*
X0176410Y0127027D01*
X0175176Y0128260D01*
X0174991Y0128337D01*
X0189904Y0128337D01*
X0191428Y0126813D01*
X0195060Y0126813D01*
X0197628Y0129381D01*
X0197628Y0133013D01*
X0197567Y0133074D01*
X0248278Y0133074D01*
X0249315Y0132037D01*
X0249256Y0131894D01*
X0249256Y0129712D01*
X0250091Y0127697D01*
X0251634Y0126154D01*
X0252480Y0125803D01*
X0251634Y0125452D01*
X0250091Y0123910D01*
X0249256Y0121894D01*
X0249256Y0119712D01*
X0249420Y0119315D01*
X0247371Y0117265D01*
X0195796Y0117265D01*
X0197828Y0119298D01*
X0197828Y0121197D01*
X0197828Y0123096D01*
X0195143Y0125781D01*
X0193244Y0125781D01*
X0191345Y0125781D01*
X0188660Y0123096D01*
X0188660Y0121197D01*
X0193244Y0121197D01*
X0193244Y0125781D01*
X0193244Y0121197D01*
X0193244Y0121197D01*
X0193244Y0121197D01*
X0188660Y0121197D01*
X0188660Y0119298D01*
X0190693Y0117265D01*
X0176578Y0117265D01*
X0176898Y0118038D02*
X0189920Y0118038D01*
X0188660Y0120005D02*
X0177077Y0120005D01*
X0177077Y0121972D02*
X0188660Y0121972D01*
X0189503Y0123939D02*
X0177077Y0123939D01*
X0176874Y0125906D02*
X0252231Y0125906D01*
X0250120Y0123939D02*
X0196985Y0123939D01*
X0197828Y0121972D02*
X0249288Y0121972D01*
X0249256Y0120005D02*
X0197828Y0120005D01*
X0197828Y0121197D02*
X0193244Y0121197D01*
X0197828Y0121197D01*
X0196568Y0118038D02*
X0248143Y0118038D01*
X0257000Y0115803D02*
X0257847Y0116154D01*
X0259389Y0117697D01*
X0259516Y0118002D01*
X0271455Y0118002D01*
X0271744Y0117303D01*
X0273287Y0115760D01*
X0274134Y0115409D01*
X0273287Y0115059D01*
X0271744Y0113516D01*
X0271667Y0113328D01*
X0259630Y0113328D01*
X0259389Y0113910D01*
X0257847Y0115452D01*
X0257000Y0115803D01*
X0257647Y0116071D02*
X0272976Y0116071D01*
X0272332Y0114104D02*
X0259195Y0114104D01*
X0259581Y0108160D02*
X0271389Y0108160D01*
X0271744Y0107303D01*
X0273287Y0105760D01*
X0274134Y0105409D01*
X0273287Y0105059D01*
X0271744Y0103516D01*
X0271528Y0102994D01*
X0259769Y0102994D01*
X0259389Y0103910D01*
X0257847Y0105452D01*
X0257000Y0105803D01*
X0257847Y0106154D01*
X0259389Y0107697D01*
X0259581Y0108160D01*
X0257929Y0106236D02*
X0272811Y0106236D01*
X0272497Y0104269D02*
X0259030Y0104269D01*
X0249291Y0102302D02*
X0187748Y0102302D01*
X0187652Y0104269D02*
X0247324Y0104269D01*
X0281711Y0118038D02*
X0296287Y0118038D01*
X0294320Y0120005D02*
X0281878Y0120005D01*
X0281683Y0121972D02*
X0292353Y0121972D01*
X0290386Y0123939D02*
X0280620Y0123939D01*
X0279646Y0125906D02*
X0288419Y0125906D01*
X0292315Y0129840D02*
X0294588Y0129840D01*
X0294282Y0127873D02*
X0296555Y0127873D01*
X0296249Y0125906D02*
X0298522Y0125906D01*
X0298216Y0123939D02*
X0300489Y0123939D01*
X0300183Y0121972D02*
X0302456Y0121972D01*
X0302150Y0120005D02*
X0304423Y0120005D01*
X0304117Y0118038D02*
X0306390Y0118038D01*
X0307806Y0116622D02*
X0286741Y0137687D01*
X0281202Y0137687D01*
X0281043Y0137303D01*
X0279500Y0135760D01*
X0278654Y0135409D01*
X0279500Y0135059D01*
X0281043Y0133516D01*
X0281379Y0132705D01*
X0288854Y0132705D01*
X0289871Y0132284D01*
X0290650Y0131505D01*
X0307642Y0114514D01*
X0307642Y0116225D01*
X0307806Y0116622D01*
X0307642Y0116071D02*
X0306084Y0116071D01*
X0298254Y0116071D02*
X0283678Y0116071D01*
X0273287Y0125059D02*
X0271744Y0123516D01*
X0271601Y0123171D01*
X0259696Y0123171D01*
X0259389Y0123910D01*
X0257847Y0125452D01*
X0257000Y0125803D01*
X0257847Y0126154D01*
X0259354Y0127661D01*
X0271596Y0127661D01*
X0271744Y0127303D01*
X0273287Y0125760D01*
X0274134Y0125409D01*
X0273287Y0125059D01*
X0273141Y0125906D02*
X0257249Y0125906D01*
X0259360Y0123939D02*
X0272168Y0123939D01*
X0271613Y0133198D02*
X0259684Y0133198D01*
X0259389Y0133910D01*
X0257847Y0135452D01*
X0257000Y0135803D01*
X0257847Y0136154D01*
X0259389Y0137697D01*
X0259590Y0138180D01*
X0271381Y0138180D01*
X0271744Y0137303D01*
X0273287Y0135760D01*
X0274134Y0135409D01*
X0273287Y0135059D01*
X0271744Y0133516D01*
X0271613Y0133198D01*
X0272003Y0133774D02*
X0259446Y0133774D01*
X0257149Y0135741D02*
X0273333Y0135741D01*
X0271576Y0137708D02*
X0259394Y0137708D01*
X0249256Y0131807D02*
X0197628Y0131807D01*
X0197628Y0129840D02*
X0249256Y0129840D01*
X0250018Y0127873D02*
X0196121Y0127873D01*
X0190367Y0127873D02*
X0175563Y0127873D01*
X0165948Y0131807D02*
X0156293Y0131807D01*
X0193244Y0123939D02*
X0193244Y0123939D01*
X0193244Y0121972D02*
X0193244Y0121972D01*
X0193244Y0121197D02*
X0193244Y0121197D01*
X0168230Y0153444D02*
X0166983Y0153444D01*
X0168109Y0154543D02*
X0172693Y0154543D01*
X0172693Y0154543D01*
X0172693Y0164328D01*
X0172332Y0164328D01*
X0171619Y0164215D01*
X0170933Y0163992D01*
X0170290Y0163664D01*
X0169706Y0163240D01*
X0169196Y0162730D01*
X0168772Y0162146D01*
X0168445Y0161503D01*
X0168222Y0160817D01*
X0168109Y0160104D01*
X0168109Y0154543D01*
X0168109Y0155411D02*
X0167077Y0155411D01*
X0167077Y0157378D02*
X0168109Y0157378D01*
X0168109Y0159345D02*
X0167077Y0159345D01*
X0166788Y0161312D02*
X0168383Y0161312D01*
X0169761Y0163280D02*
X0165357Y0163280D01*
X0160029Y0163280D02*
X0155357Y0163280D01*
X0156788Y0161312D02*
X0158597Y0161312D01*
X0158309Y0159345D02*
X0157077Y0159345D01*
X0157077Y0157378D02*
X0158309Y0157378D01*
X0158309Y0155411D02*
X0157077Y0155411D01*
X0156983Y0153444D02*
X0158403Y0153444D01*
X0172693Y0155411D02*
X0172693Y0155411D01*
X0172693Y0157378D02*
X0172693Y0157378D01*
X0172693Y0159345D02*
X0172693Y0159345D01*
X0172693Y0161312D02*
X0172693Y0161312D01*
X0172693Y0163280D02*
X0172693Y0163280D01*
X0194719Y0157378D02*
X0315858Y0157378D01*
X0315858Y0155411D02*
X0278649Y0155411D01*
X0281073Y0153444D02*
X0316208Y0153444D01*
X0316860Y0151477D02*
X0281878Y0151477D01*
X0281878Y0149510D02*
X0317996Y0149510D01*
X0330955Y0145576D02*
X0337964Y0145576D01*
X0337968Y0147543D02*
X0334406Y0147543D01*
X0336288Y0149510D02*
X0337973Y0149510D01*
X0337977Y0151477D02*
X0337423Y0151477D01*
X0337959Y0143609D02*
X0280950Y0143609D01*
X0290095Y0141642D02*
X0337954Y0141642D01*
X0337950Y0139675D02*
X0292062Y0139675D01*
X0294029Y0137708D02*
X0337945Y0137708D01*
X0337941Y0135741D02*
X0295996Y0135741D01*
X0297963Y0133774D02*
X0337936Y0133774D01*
X0337932Y0131807D02*
X0299930Y0131807D01*
X0301897Y0129840D02*
X0309933Y0129840D01*
X0308142Y0127873D02*
X0303864Y0127873D01*
X0305831Y0125906D02*
X0307493Y0125906D01*
X0313110Y0125906D02*
X0313142Y0125906D01*
X0313110Y0127873D02*
X0313142Y0127873D01*
X0313110Y0129840D02*
X0313142Y0129840D01*
X0316319Y0129840D02*
X0319933Y0129840D01*
X0318142Y0127873D02*
X0318110Y0127873D01*
X0292621Y0131807D02*
X0290348Y0131807D01*
X0290654Y0133774D02*
X0280785Y0133774D01*
X0279455Y0135741D02*
X0288687Y0135741D01*
X0271715Y0153444D02*
X0259582Y0153444D01*
X0257888Y0155411D02*
X0274139Y0155411D01*
X0251593Y0155411D02*
X0195463Y0155411D01*
X0284155Y0096401D02*
X0296039Y0096401D01*
X0267563Y0057402D02*
X0267563Y0057402D01*
X0275784Y0057061D02*
X0282639Y0057061D01*
X0284525Y0055094D02*
X0278859Y0055094D01*
X0278547Y0055465D02*
X0278547Y0055465D01*
X0278547Y0055465D01*
X0287450Y0019687D02*
X0292109Y0019687D01*
X0290395Y0017720D02*
X0289164Y0017720D01*
X0289164Y0015753D02*
X0290395Y0015753D01*
X0290950Y0013786D02*
X0288609Y0013786D01*
X0286642Y0011819D02*
X0292917Y0011819D01*
X0296642Y0011819D02*
X0337653Y0011819D01*
X0067042Y0116071D02*
X0061539Y0116071D01*
X0062825Y0114104D02*
X0065075Y0114104D01*
X0063108Y0112137D02*
X0062825Y0112137D01*
D18*
X0102772Y0121571D03*
X0090961Y0136335D03*
X0090961Y0141748D03*
X0144110Y0121571D03*
X0143618Y0116650D03*
X0143126Y0111728D03*
X0133283Y0102378D03*
X0116059Y0092535D03*
X0106709Y0092043D03*
X0111827Y0079937D03*
X0073244Y0072850D03*
X0147555Y0126984D03*
X0147063Y0131906D03*
X0159071Y0131512D03*
X0224425Y0146079D03*
X0264583Y0145291D03*
X0264583Y0135843D03*
X0265370Y0125606D03*
X0264976Y0115764D03*
X0264976Y0105134D03*
X0264976Y0094504D03*
X0287417Y0080724D03*
X0298047Y0073244D03*
X0307004Y0089091D03*
X0291354Y0096079D03*
X0291748Y0119701D03*
X0287024Y0135055D03*
D19*
X0287811Y0140272D02*
X0276984Y0140272D01*
X0276394Y0140409D01*
X0276000Y0140764D01*
X0255331Y0140764D01*
X0254740Y0140803D01*
X0254346Y0140764D01*
X0253854Y0140272D01*
X0155429Y0140272D01*
X0147063Y0131906D01*
X0162811Y0125016D02*
X0162693Y0124543D01*
X0162811Y0125016D02*
X0168717Y0130921D01*
X0192831Y0130921D01*
X0193244Y0131197D01*
X0151000Y0114681D02*
X0248441Y0114681D01*
X0254346Y0120587D01*
X0254740Y0120803D01*
X0255331Y0120587D01*
X0276000Y0120587D01*
X0276394Y0120409D01*
X0276492Y0119602D01*
X0307004Y0089091D01*
X0297161Y0079740D02*
X0276984Y0099917D01*
X0276394Y0100409D01*
X0255331Y0100409D01*
X0254740Y0100803D01*
X0254346Y0100902D01*
X0247457Y0107791D01*
X0147063Y0107791D01*
X0143126Y0111728D01*
X0143618Y0116650D02*
X0149031Y0111236D01*
X0254346Y0111236D01*
X0254740Y0110803D01*
X0255331Y0110744D01*
X0276000Y0110744D01*
X0276394Y0110409D01*
X0254346Y0091059D02*
X0252870Y0092535D01*
X0116059Y0092535D01*
X0144110Y0121571D02*
X0151000Y0114681D01*
X0090961Y0136335D02*
X0053067Y0098441D01*
X0015173Y0098441D01*
X0012220Y0095488D01*
X0012220Y0073835D01*
X0020094Y0073835D01*
X0020094Y0073756D01*
X0021079Y0113205D02*
X0057988Y0113205D01*
X0058441Y0112969D01*
X0021079Y0113205D02*
X0016650Y0117634D01*
X0016630Y0117890D01*
X0254346Y0091059D02*
X0254740Y0090803D01*
X0255331Y0090567D01*
X0276000Y0090567D01*
X0276394Y0090409D01*
X0297161Y0079740D02*
X0328657Y0079740D01*
X0328657Y0099425D01*
X0323244Y0104839D01*
X0323126Y0105134D01*
X0313126Y0115134D02*
X0312909Y0115173D01*
X0287811Y0140272D01*
M02*
