G75*
%MOIN*%
%OFA0B0*%
%FSLAX25Y25*%
%IPPOS*%
%LPD*%
%AMOC8*
5,1,8,0,0,1.08239X$1,22.5*
%
%ADD10C,0.00000*%
%ADD11C,0.00009*%
D10*
X0002378Y0001591D02*
X0001984Y0171394D01*
X0343008Y0171394D01*
X0342614Y0001984D01*
X0002378Y0001591D01*
X0009780Y0024346D02*
X0009782Y0024504D01*
X0009788Y0024662D01*
X0009798Y0024820D01*
X0009812Y0024978D01*
X0009830Y0025135D01*
X0009851Y0025292D01*
X0009877Y0025448D01*
X0009907Y0025604D01*
X0009940Y0025759D01*
X0009978Y0025912D01*
X0010019Y0026065D01*
X0010064Y0026217D01*
X0010113Y0026368D01*
X0010166Y0026517D01*
X0010222Y0026665D01*
X0010282Y0026811D01*
X0010346Y0026956D01*
X0010414Y0027099D01*
X0010485Y0027241D01*
X0010559Y0027381D01*
X0010637Y0027518D01*
X0010719Y0027654D01*
X0010803Y0027788D01*
X0010892Y0027919D01*
X0010983Y0028048D01*
X0011078Y0028175D01*
X0011175Y0028300D01*
X0011276Y0028422D01*
X0011380Y0028541D01*
X0011487Y0028658D01*
X0011597Y0028772D01*
X0011710Y0028883D01*
X0011825Y0028992D01*
X0011943Y0029097D01*
X0012064Y0029199D01*
X0012187Y0029299D01*
X0012313Y0029395D01*
X0012441Y0029488D01*
X0012571Y0029578D01*
X0012704Y0029664D01*
X0012839Y0029748D01*
X0012975Y0029827D01*
X0013114Y0029904D01*
X0013255Y0029976D01*
X0013397Y0030046D01*
X0013541Y0030111D01*
X0013687Y0030173D01*
X0013834Y0030231D01*
X0013983Y0030286D01*
X0014133Y0030337D01*
X0014284Y0030384D01*
X0014436Y0030427D01*
X0014589Y0030466D01*
X0014744Y0030502D01*
X0014899Y0030533D01*
X0015055Y0030561D01*
X0015211Y0030585D01*
X0015368Y0030605D01*
X0015526Y0030621D01*
X0015683Y0030633D01*
X0015842Y0030641D01*
X0016000Y0030645D01*
X0016158Y0030645D01*
X0016316Y0030641D01*
X0016475Y0030633D01*
X0016632Y0030621D01*
X0016790Y0030605D01*
X0016947Y0030585D01*
X0017103Y0030561D01*
X0017259Y0030533D01*
X0017414Y0030502D01*
X0017569Y0030466D01*
X0017722Y0030427D01*
X0017874Y0030384D01*
X0018025Y0030337D01*
X0018175Y0030286D01*
X0018324Y0030231D01*
X0018471Y0030173D01*
X0018617Y0030111D01*
X0018761Y0030046D01*
X0018903Y0029976D01*
X0019044Y0029904D01*
X0019183Y0029827D01*
X0019319Y0029748D01*
X0019454Y0029664D01*
X0019587Y0029578D01*
X0019717Y0029488D01*
X0019845Y0029395D01*
X0019971Y0029299D01*
X0020094Y0029199D01*
X0020215Y0029097D01*
X0020333Y0028992D01*
X0020448Y0028883D01*
X0020561Y0028772D01*
X0020671Y0028658D01*
X0020778Y0028541D01*
X0020882Y0028422D01*
X0020983Y0028300D01*
X0021080Y0028175D01*
X0021175Y0028048D01*
X0021266Y0027919D01*
X0021355Y0027788D01*
X0021439Y0027654D01*
X0021521Y0027518D01*
X0021599Y0027381D01*
X0021673Y0027241D01*
X0021744Y0027099D01*
X0021812Y0026956D01*
X0021876Y0026811D01*
X0021936Y0026665D01*
X0021992Y0026517D01*
X0022045Y0026368D01*
X0022094Y0026217D01*
X0022139Y0026065D01*
X0022180Y0025912D01*
X0022218Y0025759D01*
X0022251Y0025604D01*
X0022281Y0025448D01*
X0022307Y0025292D01*
X0022328Y0025135D01*
X0022346Y0024978D01*
X0022360Y0024820D01*
X0022370Y0024662D01*
X0022376Y0024504D01*
X0022378Y0024346D01*
X0022376Y0024188D01*
X0022370Y0024030D01*
X0022360Y0023872D01*
X0022346Y0023714D01*
X0022328Y0023557D01*
X0022307Y0023400D01*
X0022281Y0023244D01*
X0022251Y0023088D01*
X0022218Y0022933D01*
X0022180Y0022780D01*
X0022139Y0022627D01*
X0022094Y0022475D01*
X0022045Y0022324D01*
X0021992Y0022175D01*
X0021936Y0022027D01*
X0021876Y0021881D01*
X0021812Y0021736D01*
X0021744Y0021593D01*
X0021673Y0021451D01*
X0021599Y0021311D01*
X0021521Y0021174D01*
X0021439Y0021038D01*
X0021355Y0020904D01*
X0021266Y0020773D01*
X0021175Y0020644D01*
X0021080Y0020517D01*
X0020983Y0020392D01*
X0020882Y0020270D01*
X0020778Y0020151D01*
X0020671Y0020034D01*
X0020561Y0019920D01*
X0020448Y0019809D01*
X0020333Y0019700D01*
X0020215Y0019595D01*
X0020094Y0019493D01*
X0019971Y0019393D01*
X0019845Y0019297D01*
X0019717Y0019204D01*
X0019587Y0019114D01*
X0019454Y0019028D01*
X0019319Y0018944D01*
X0019183Y0018865D01*
X0019044Y0018788D01*
X0018903Y0018716D01*
X0018761Y0018646D01*
X0018617Y0018581D01*
X0018471Y0018519D01*
X0018324Y0018461D01*
X0018175Y0018406D01*
X0018025Y0018355D01*
X0017874Y0018308D01*
X0017722Y0018265D01*
X0017569Y0018226D01*
X0017414Y0018190D01*
X0017259Y0018159D01*
X0017103Y0018131D01*
X0016947Y0018107D01*
X0016790Y0018087D01*
X0016632Y0018071D01*
X0016475Y0018059D01*
X0016316Y0018051D01*
X0016158Y0018047D01*
X0016000Y0018047D01*
X0015842Y0018051D01*
X0015683Y0018059D01*
X0015526Y0018071D01*
X0015368Y0018087D01*
X0015211Y0018107D01*
X0015055Y0018131D01*
X0014899Y0018159D01*
X0014744Y0018190D01*
X0014589Y0018226D01*
X0014436Y0018265D01*
X0014284Y0018308D01*
X0014133Y0018355D01*
X0013983Y0018406D01*
X0013834Y0018461D01*
X0013687Y0018519D01*
X0013541Y0018581D01*
X0013397Y0018646D01*
X0013255Y0018716D01*
X0013114Y0018788D01*
X0012975Y0018865D01*
X0012839Y0018944D01*
X0012704Y0019028D01*
X0012571Y0019114D01*
X0012441Y0019204D01*
X0012313Y0019297D01*
X0012187Y0019393D01*
X0012064Y0019493D01*
X0011943Y0019595D01*
X0011825Y0019700D01*
X0011710Y0019809D01*
X0011597Y0019920D01*
X0011487Y0020034D01*
X0011380Y0020151D01*
X0011276Y0020270D01*
X0011175Y0020392D01*
X0011078Y0020517D01*
X0010983Y0020644D01*
X0010892Y0020773D01*
X0010803Y0020904D01*
X0010719Y0021038D01*
X0010637Y0021174D01*
X0010559Y0021311D01*
X0010485Y0021451D01*
X0010414Y0021593D01*
X0010346Y0021736D01*
X0010282Y0021881D01*
X0010222Y0022027D01*
X0010166Y0022175D01*
X0010113Y0022324D01*
X0010064Y0022475D01*
X0010019Y0022627D01*
X0009978Y0022780D01*
X0009940Y0022933D01*
X0009907Y0023088D01*
X0009877Y0023244D01*
X0009851Y0023400D01*
X0009830Y0023557D01*
X0009812Y0023714D01*
X0009798Y0023872D01*
X0009788Y0024030D01*
X0009782Y0024188D01*
X0009780Y0024346D01*
X0057428Y0032921D02*
X0057430Y0033075D01*
X0057436Y0033229D01*
X0057446Y0033382D01*
X0057460Y0033535D01*
X0057478Y0033688D01*
X0057499Y0033840D01*
X0057525Y0033992D01*
X0057555Y0034143D01*
X0057588Y0034293D01*
X0057626Y0034442D01*
X0057667Y0034591D01*
X0057712Y0034738D01*
X0057761Y0034884D01*
X0057814Y0035028D01*
X0057870Y0035171D01*
X0057930Y0035313D01*
X0057994Y0035453D01*
X0058061Y0035591D01*
X0058132Y0035728D01*
X0058206Y0035863D01*
X0058284Y0035995D01*
X0058365Y0036126D01*
X0058450Y0036255D01*
X0058537Y0036381D01*
X0058628Y0036505D01*
X0058723Y0036626D01*
X0058820Y0036746D01*
X0058920Y0036862D01*
X0059024Y0036976D01*
X0059130Y0037087D01*
X0059239Y0037196D01*
X0059351Y0037301D01*
X0059466Y0037404D01*
X0059583Y0037504D01*
X0059703Y0037600D01*
X0059825Y0037694D01*
X0059949Y0037784D01*
X0060076Y0037871D01*
X0060205Y0037955D01*
X0060337Y0038035D01*
X0060470Y0038112D01*
X0060605Y0038185D01*
X0060742Y0038255D01*
X0060881Y0038322D01*
X0061021Y0038384D01*
X0061163Y0038443D01*
X0061307Y0038499D01*
X0061452Y0038551D01*
X0061598Y0038598D01*
X0061745Y0038643D01*
X0061894Y0038683D01*
X0062043Y0038719D01*
X0062194Y0038752D01*
X0062345Y0038781D01*
X0062497Y0038805D01*
X0062649Y0038826D01*
X0062802Y0038843D01*
X0062955Y0038856D01*
X0063109Y0038865D01*
X0063263Y0038870D01*
X0063416Y0038871D01*
X0063570Y0038868D01*
X0063724Y0038861D01*
X0063877Y0038850D01*
X0064031Y0038835D01*
X0064183Y0038816D01*
X0064335Y0038793D01*
X0064487Y0038767D01*
X0064638Y0038736D01*
X0064788Y0038702D01*
X0064937Y0038663D01*
X0065084Y0038621D01*
X0065231Y0038575D01*
X0065377Y0038525D01*
X0065521Y0038472D01*
X0065664Y0038414D01*
X0065805Y0038353D01*
X0065945Y0038289D01*
X0066083Y0038221D01*
X0066219Y0038149D01*
X0066353Y0038074D01*
X0066485Y0037995D01*
X0066615Y0037913D01*
X0066743Y0037828D01*
X0066869Y0037739D01*
X0066992Y0037647D01*
X0067113Y0037552D01*
X0067232Y0037454D01*
X0067348Y0037353D01*
X0067461Y0037249D01*
X0067572Y0037142D01*
X0067679Y0037032D01*
X0067784Y0036919D01*
X0067886Y0036804D01*
X0067985Y0036686D01*
X0068081Y0036566D01*
X0068174Y0036443D01*
X0068263Y0036318D01*
X0068349Y0036191D01*
X0068432Y0036061D01*
X0068512Y0035929D01*
X0068588Y0035796D01*
X0068660Y0035660D01*
X0068729Y0035522D01*
X0068795Y0035383D01*
X0068857Y0035242D01*
X0068915Y0035100D01*
X0068969Y0034956D01*
X0069020Y0034811D01*
X0069067Y0034664D01*
X0069110Y0034517D01*
X0069149Y0034368D01*
X0069185Y0034218D01*
X0069216Y0034068D01*
X0069244Y0033916D01*
X0069268Y0033764D01*
X0069288Y0033612D01*
X0069304Y0033459D01*
X0069316Y0033305D01*
X0069324Y0033152D01*
X0069328Y0032998D01*
X0069328Y0032844D01*
X0069324Y0032690D01*
X0069316Y0032537D01*
X0069304Y0032383D01*
X0069288Y0032230D01*
X0069268Y0032078D01*
X0069244Y0031926D01*
X0069216Y0031774D01*
X0069185Y0031624D01*
X0069149Y0031474D01*
X0069110Y0031325D01*
X0069067Y0031178D01*
X0069020Y0031031D01*
X0068969Y0030886D01*
X0068915Y0030742D01*
X0068857Y0030600D01*
X0068795Y0030459D01*
X0068729Y0030320D01*
X0068660Y0030182D01*
X0068588Y0030046D01*
X0068512Y0029913D01*
X0068432Y0029781D01*
X0068349Y0029651D01*
X0068263Y0029524D01*
X0068174Y0029399D01*
X0068081Y0029276D01*
X0067985Y0029156D01*
X0067886Y0029038D01*
X0067784Y0028923D01*
X0067679Y0028810D01*
X0067572Y0028700D01*
X0067461Y0028593D01*
X0067348Y0028489D01*
X0067232Y0028388D01*
X0067113Y0028290D01*
X0066992Y0028195D01*
X0066869Y0028103D01*
X0066743Y0028014D01*
X0066615Y0027929D01*
X0066485Y0027847D01*
X0066353Y0027768D01*
X0066219Y0027693D01*
X0066083Y0027621D01*
X0065945Y0027553D01*
X0065805Y0027489D01*
X0065664Y0027428D01*
X0065521Y0027370D01*
X0065377Y0027317D01*
X0065231Y0027267D01*
X0065084Y0027221D01*
X0064937Y0027179D01*
X0064788Y0027140D01*
X0064638Y0027106D01*
X0064487Y0027075D01*
X0064335Y0027049D01*
X0064183Y0027026D01*
X0064031Y0027007D01*
X0063877Y0026992D01*
X0063724Y0026981D01*
X0063570Y0026974D01*
X0063416Y0026971D01*
X0063263Y0026972D01*
X0063109Y0026977D01*
X0062955Y0026986D01*
X0062802Y0026999D01*
X0062649Y0027016D01*
X0062497Y0027037D01*
X0062345Y0027061D01*
X0062194Y0027090D01*
X0062043Y0027123D01*
X0061894Y0027159D01*
X0061745Y0027199D01*
X0061598Y0027244D01*
X0061452Y0027291D01*
X0061307Y0027343D01*
X0061163Y0027399D01*
X0061021Y0027458D01*
X0060881Y0027520D01*
X0060742Y0027587D01*
X0060605Y0027657D01*
X0060470Y0027730D01*
X0060337Y0027807D01*
X0060205Y0027887D01*
X0060076Y0027971D01*
X0059949Y0028058D01*
X0059825Y0028148D01*
X0059703Y0028242D01*
X0059583Y0028338D01*
X0059466Y0028438D01*
X0059351Y0028541D01*
X0059239Y0028646D01*
X0059130Y0028755D01*
X0059024Y0028866D01*
X0058920Y0028980D01*
X0058820Y0029096D01*
X0058723Y0029216D01*
X0058628Y0029337D01*
X0058537Y0029461D01*
X0058450Y0029587D01*
X0058365Y0029716D01*
X0058284Y0029847D01*
X0058206Y0029979D01*
X0058132Y0030114D01*
X0058061Y0030251D01*
X0057994Y0030389D01*
X0057930Y0030529D01*
X0057870Y0030671D01*
X0057814Y0030814D01*
X0057761Y0030958D01*
X0057712Y0031104D01*
X0057667Y0031251D01*
X0057626Y0031400D01*
X0057588Y0031549D01*
X0057555Y0031699D01*
X0057525Y0031850D01*
X0057499Y0032002D01*
X0057478Y0032154D01*
X0057460Y0032307D01*
X0057446Y0032460D01*
X0057436Y0032613D01*
X0057430Y0032767D01*
X0057428Y0032921D01*
X0057378Y0032921D02*
X0057380Y0032768D01*
X0057386Y0032615D01*
X0057396Y0032462D01*
X0057409Y0032309D01*
X0057427Y0032157D01*
X0057448Y0032005D01*
X0057474Y0031854D01*
X0057503Y0031704D01*
X0057536Y0031554D01*
X0057573Y0031405D01*
X0057613Y0031257D01*
X0057658Y0031111D01*
X0057706Y0030965D01*
X0057758Y0030821D01*
X0057813Y0030678D01*
X0057872Y0030537D01*
X0057935Y0030397D01*
X0058001Y0030259D01*
X0058071Y0030122D01*
X0058144Y0029988D01*
X0058221Y0029855D01*
X0058301Y0029724D01*
X0058384Y0029596D01*
X0058470Y0029469D01*
X0058560Y0029345D01*
X0058653Y0029223D01*
X0058749Y0029104D01*
X0058848Y0028987D01*
X0058950Y0028872D01*
X0059055Y0028760D01*
X0059163Y0028651D01*
X0059273Y0028545D01*
X0059386Y0028442D01*
X0059502Y0028341D01*
X0059620Y0028244D01*
X0059741Y0028149D01*
X0059864Y0028058D01*
X0059989Y0027970D01*
X0060117Y0027885D01*
X0060246Y0027803D01*
X0060378Y0027725D01*
X0060512Y0027650D01*
X0060647Y0027578D01*
X0060785Y0027510D01*
X0060924Y0027446D01*
X0061064Y0027385D01*
X0061206Y0027328D01*
X0061350Y0027274D01*
X0061495Y0027224D01*
X0061641Y0027178D01*
X0061788Y0027135D01*
X0061936Y0027097D01*
X0062086Y0027062D01*
X0062236Y0027031D01*
X0062386Y0027003D01*
X0062538Y0026980D01*
X0062690Y0026961D01*
X0062842Y0026945D01*
X0062995Y0026933D01*
X0063148Y0026925D01*
X0063301Y0026921D01*
X0063455Y0026921D01*
X0063608Y0026925D01*
X0063761Y0026933D01*
X0063914Y0026945D01*
X0064066Y0026961D01*
X0064218Y0026980D01*
X0064370Y0027003D01*
X0064520Y0027031D01*
X0064670Y0027062D01*
X0064820Y0027097D01*
X0064968Y0027135D01*
X0065115Y0027178D01*
X0065261Y0027224D01*
X0065406Y0027274D01*
X0065550Y0027328D01*
X0065692Y0027385D01*
X0065832Y0027446D01*
X0065971Y0027510D01*
X0066109Y0027578D01*
X0066244Y0027650D01*
X0066378Y0027725D01*
X0066510Y0027803D01*
X0066639Y0027885D01*
X0066767Y0027970D01*
X0066892Y0028058D01*
X0067015Y0028149D01*
X0067136Y0028244D01*
X0067254Y0028341D01*
X0067370Y0028442D01*
X0067483Y0028545D01*
X0067593Y0028651D01*
X0067701Y0028760D01*
X0067806Y0028872D01*
X0067908Y0028987D01*
X0068007Y0029104D01*
X0068103Y0029223D01*
X0068196Y0029345D01*
X0068286Y0029469D01*
X0068372Y0029596D01*
X0068455Y0029724D01*
X0068535Y0029855D01*
X0068612Y0029988D01*
X0068685Y0030122D01*
X0068755Y0030259D01*
X0068821Y0030397D01*
X0068884Y0030537D01*
X0068943Y0030678D01*
X0068998Y0030821D01*
X0069050Y0030965D01*
X0069098Y0031111D01*
X0069143Y0031257D01*
X0069183Y0031405D01*
X0069220Y0031554D01*
X0069253Y0031704D01*
X0069282Y0031854D01*
X0069308Y0032005D01*
X0069329Y0032157D01*
X0069347Y0032309D01*
X0069360Y0032462D01*
X0069370Y0032615D01*
X0069376Y0032768D01*
X0069378Y0032921D01*
X0057428Y0046921D02*
X0057430Y0047075D01*
X0057436Y0047229D01*
X0057446Y0047382D01*
X0057460Y0047535D01*
X0057478Y0047688D01*
X0057499Y0047840D01*
X0057525Y0047992D01*
X0057555Y0048143D01*
X0057588Y0048293D01*
X0057626Y0048442D01*
X0057667Y0048591D01*
X0057712Y0048738D01*
X0057761Y0048884D01*
X0057814Y0049028D01*
X0057870Y0049171D01*
X0057930Y0049313D01*
X0057994Y0049453D01*
X0058061Y0049591D01*
X0058132Y0049728D01*
X0058206Y0049863D01*
X0058284Y0049995D01*
X0058365Y0050126D01*
X0058450Y0050255D01*
X0058537Y0050381D01*
X0058628Y0050505D01*
X0058723Y0050626D01*
X0058820Y0050746D01*
X0058920Y0050862D01*
X0059024Y0050976D01*
X0059130Y0051087D01*
X0059239Y0051196D01*
X0059351Y0051301D01*
X0059466Y0051404D01*
X0059583Y0051504D01*
X0059703Y0051600D01*
X0059825Y0051694D01*
X0059949Y0051784D01*
X0060076Y0051871D01*
X0060205Y0051955D01*
X0060337Y0052035D01*
X0060470Y0052112D01*
X0060605Y0052185D01*
X0060742Y0052255D01*
X0060881Y0052322D01*
X0061021Y0052384D01*
X0061163Y0052443D01*
X0061307Y0052499D01*
X0061452Y0052551D01*
X0061598Y0052598D01*
X0061745Y0052643D01*
X0061894Y0052683D01*
X0062043Y0052719D01*
X0062194Y0052752D01*
X0062345Y0052781D01*
X0062497Y0052805D01*
X0062649Y0052826D01*
X0062802Y0052843D01*
X0062955Y0052856D01*
X0063109Y0052865D01*
X0063263Y0052870D01*
X0063416Y0052871D01*
X0063570Y0052868D01*
X0063724Y0052861D01*
X0063877Y0052850D01*
X0064031Y0052835D01*
X0064183Y0052816D01*
X0064335Y0052793D01*
X0064487Y0052767D01*
X0064638Y0052736D01*
X0064788Y0052702D01*
X0064937Y0052663D01*
X0065084Y0052621D01*
X0065231Y0052575D01*
X0065377Y0052525D01*
X0065521Y0052472D01*
X0065664Y0052414D01*
X0065805Y0052353D01*
X0065945Y0052289D01*
X0066083Y0052221D01*
X0066219Y0052149D01*
X0066353Y0052074D01*
X0066485Y0051995D01*
X0066615Y0051913D01*
X0066743Y0051828D01*
X0066869Y0051739D01*
X0066992Y0051647D01*
X0067113Y0051552D01*
X0067232Y0051454D01*
X0067348Y0051353D01*
X0067461Y0051249D01*
X0067572Y0051142D01*
X0067679Y0051032D01*
X0067784Y0050919D01*
X0067886Y0050804D01*
X0067985Y0050686D01*
X0068081Y0050566D01*
X0068174Y0050443D01*
X0068263Y0050318D01*
X0068349Y0050191D01*
X0068432Y0050061D01*
X0068512Y0049929D01*
X0068588Y0049796D01*
X0068660Y0049660D01*
X0068729Y0049522D01*
X0068795Y0049383D01*
X0068857Y0049242D01*
X0068915Y0049100D01*
X0068969Y0048956D01*
X0069020Y0048811D01*
X0069067Y0048664D01*
X0069110Y0048517D01*
X0069149Y0048368D01*
X0069185Y0048218D01*
X0069216Y0048068D01*
X0069244Y0047916D01*
X0069268Y0047764D01*
X0069288Y0047612D01*
X0069304Y0047459D01*
X0069316Y0047305D01*
X0069324Y0047152D01*
X0069328Y0046998D01*
X0069328Y0046844D01*
X0069324Y0046690D01*
X0069316Y0046537D01*
X0069304Y0046383D01*
X0069288Y0046230D01*
X0069268Y0046078D01*
X0069244Y0045926D01*
X0069216Y0045774D01*
X0069185Y0045624D01*
X0069149Y0045474D01*
X0069110Y0045325D01*
X0069067Y0045178D01*
X0069020Y0045031D01*
X0068969Y0044886D01*
X0068915Y0044742D01*
X0068857Y0044600D01*
X0068795Y0044459D01*
X0068729Y0044320D01*
X0068660Y0044182D01*
X0068588Y0044046D01*
X0068512Y0043913D01*
X0068432Y0043781D01*
X0068349Y0043651D01*
X0068263Y0043524D01*
X0068174Y0043399D01*
X0068081Y0043276D01*
X0067985Y0043156D01*
X0067886Y0043038D01*
X0067784Y0042923D01*
X0067679Y0042810D01*
X0067572Y0042700D01*
X0067461Y0042593D01*
X0067348Y0042489D01*
X0067232Y0042388D01*
X0067113Y0042290D01*
X0066992Y0042195D01*
X0066869Y0042103D01*
X0066743Y0042014D01*
X0066615Y0041929D01*
X0066485Y0041847D01*
X0066353Y0041768D01*
X0066219Y0041693D01*
X0066083Y0041621D01*
X0065945Y0041553D01*
X0065805Y0041489D01*
X0065664Y0041428D01*
X0065521Y0041370D01*
X0065377Y0041317D01*
X0065231Y0041267D01*
X0065084Y0041221D01*
X0064937Y0041179D01*
X0064788Y0041140D01*
X0064638Y0041106D01*
X0064487Y0041075D01*
X0064335Y0041049D01*
X0064183Y0041026D01*
X0064031Y0041007D01*
X0063877Y0040992D01*
X0063724Y0040981D01*
X0063570Y0040974D01*
X0063416Y0040971D01*
X0063263Y0040972D01*
X0063109Y0040977D01*
X0062955Y0040986D01*
X0062802Y0040999D01*
X0062649Y0041016D01*
X0062497Y0041037D01*
X0062345Y0041061D01*
X0062194Y0041090D01*
X0062043Y0041123D01*
X0061894Y0041159D01*
X0061745Y0041199D01*
X0061598Y0041244D01*
X0061452Y0041291D01*
X0061307Y0041343D01*
X0061163Y0041399D01*
X0061021Y0041458D01*
X0060881Y0041520D01*
X0060742Y0041587D01*
X0060605Y0041657D01*
X0060470Y0041730D01*
X0060337Y0041807D01*
X0060205Y0041887D01*
X0060076Y0041971D01*
X0059949Y0042058D01*
X0059825Y0042148D01*
X0059703Y0042242D01*
X0059583Y0042338D01*
X0059466Y0042438D01*
X0059351Y0042541D01*
X0059239Y0042646D01*
X0059130Y0042755D01*
X0059024Y0042866D01*
X0058920Y0042980D01*
X0058820Y0043096D01*
X0058723Y0043216D01*
X0058628Y0043337D01*
X0058537Y0043461D01*
X0058450Y0043587D01*
X0058365Y0043716D01*
X0058284Y0043847D01*
X0058206Y0043979D01*
X0058132Y0044114D01*
X0058061Y0044251D01*
X0057994Y0044389D01*
X0057930Y0044529D01*
X0057870Y0044671D01*
X0057814Y0044814D01*
X0057761Y0044958D01*
X0057712Y0045104D01*
X0057667Y0045251D01*
X0057626Y0045400D01*
X0057588Y0045549D01*
X0057555Y0045699D01*
X0057525Y0045850D01*
X0057499Y0046002D01*
X0057478Y0046154D01*
X0057460Y0046307D01*
X0057446Y0046460D01*
X0057436Y0046613D01*
X0057430Y0046767D01*
X0057428Y0046921D01*
X0057378Y0046921D02*
X0057380Y0047074D01*
X0057386Y0047227D01*
X0057396Y0047380D01*
X0057409Y0047533D01*
X0057427Y0047685D01*
X0057448Y0047837D01*
X0057474Y0047988D01*
X0057503Y0048138D01*
X0057536Y0048288D01*
X0057573Y0048437D01*
X0057613Y0048585D01*
X0057658Y0048731D01*
X0057706Y0048877D01*
X0057758Y0049021D01*
X0057813Y0049164D01*
X0057872Y0049305D01*
X0057935Y0049445D01*
X0058001Y0049583D01*
X0058071Y0049720D01*
X0058144Y0049854D01*
X0058221Y0049987D01*
X0058301Y0050118D01*
X0058384Y0050246D01*
X0058470Y0050373D01*
X0058560Y0050497D01*
X0058653Y0050619D01*
X0058749Y0050738D01*
X0058848Y0050855D01*
X0058950Y0050970D01*
X0059055Y0051082D01*
X0059163Y0051191D01*
X0059273Y0051297D01*
X0059386Y0051400D01*
X0059502Y0051501D01*
X0059620Y0051598D01*
X0059741Y0051693D01*
X0059864Y0051784D01*
X0059989Y0051872D01*
X0060117Y0051957D01*
X0060246Y0052039D01*
X0060378Y0052117D01*
X0060512Y0052192D01*
X0060647Y0052264D01*
X0060785Y0052332D01*
X0060924Y0052396D01*
X0061064Y0052457D01*
X0061206Y0052514D01*
X0061350Y0052568D01*
X0061495Y0052618D01*
X0061641Y0052664D01*
X0061788Y0052707D01*
X0061936Y0052745D01*
X0062086Y0052780D01*
X0062236Y0052811D01*
X0062386Y0052839D01*
X0062538Y0052862D01*
X0062690Y0052881D01*
X0062842Y0052897D01*
X0062995Y0052909D01*
X0063148Y0052917D01*
X0063301Y0052921D01*
X0063455Y0052921D01*
X0063608Y0052917D01*
X0063761Y0052909D01*
X0063914Y0052897D01*
X0064066Y0052881D01*
X0064218Y0052862D01*
X0064370Y0052839D01*
X0064520Y0052811D01*
X0064670Y0052780D01*
X0064820Y0052745D01*
X0064968Y0052707D01*
X0065115Y0052664D01*
X0065261Y0052618D01*
X0065406Y0052568D01*
X0065550Y0052514D01*
X0065692Y0052457D01*
X0065832Y0052396D01*
X0065971Y0052332D01*
X0066109Y0052264D01*
X0066244Y0052192D01*
X0066378Y0052117D01*
X0066510Y0052039D01*
X0066639Y0051957D01*
X0066767Y0051872D01*
X0066892Y0051784D01*
X0067015Y0051693D01*
X0067136Y0051598D01*
X0067254Y0051501D01*
X0067370Y0051400D01*
X0067483Y0051297D01*
X0067593Y0051191D01*
X0067701Y0051082D01*
X0067806Y0050970D01*
X0067908Y0050855D01*
X0068007Y0050738D01*
X0068103Y0050619D01*
X0068196Y0050497D01*
X0068286Y0050373D01*
X0068372Y0050246D01*
X0068455Y0050118D01*
X0068535Y0049987D01*
X0068612Y0049854D01*
X0068685Y0049720D01*
X0068755Y0049583D01*
X0068821Y0049445D01*
X0068884Y0049305D01*
X0068943Y0049164D01*
X0068998Y0049021D01*
X0069050Y0048877D01*
X0069098Y0048731D01*
X0069143Y0048585D01*
X0069183Y0048437D01*
X0069220Y0048288D01*
X0069253Y0048138D01*
X0069282Y0047988D01*
X0069308Y0047837D01*
X0069329Y0047685D01*
X0069347Y0047533D01*
X0069360Y0047380D01*
X0069370Y0047227D01*
X0069376Y0047074D01*
X0069378Y0046921D01*
X0265428Y0046921D02*
X0265430Y0047075D01*
X0265436Y0047229D01*
X0265446Y0047382D01*
X0265460Y0047535D01*
X0265478Y0047688D01*
X0265499Y0047840D01*
X0265525Y0047992D01*
X0265555Y0048143D01*
X0265588Y0048293D01*
X0265626Y0048442D01*
X0265667Y0048591D01*
X0265712Y0048738D01*
X0265761Y0048884D01*
X0265814Y0049028D01*
X0265870Y0049171D01*
X0265930Y0049313D01*
X0265994Y0049453D01*
X0266061Y0049591D01*
X0266132Y0049728D01*
X0266206Y0049863D01*
X0266284Y0049995D01*
X0266365Y0050126D01*
X0266450Y0050255D01*
X0266537Y0050381D01*
X0266628Y0050505D01*
X0266723Y0050626D01*
X0266820Y0050746D01*
X0266920Y0050862D01*
X0267024Y0050976D01*
X0267130Y0051087D01*
X0267239Y0051196D01*
X0267351Y0051301D01*
X0267466Y0051404D01*
X0267583Y0051504D01*
X0267703Y0051600D01*
X0267825Y0051694D01*
X0267949Y0051784D01*
X0268076Y0051871D01*
X0268205Y0051955D01*
X0268337Y0052035D01*
X0268470Y0052112D01*
X0268605Y0052185D01*
X0268742Y0052255D01*
X0268881Y0052322D01*
X0269021Y0052384D01*
X0269163Y0052443D01*
X0269307Y0052499D01*
X0269452Y0052551D01*
X0269598Y0052598D01*
X0269745Y0052643D01*
X0269894Y0052683D01*
X0270043Y0052719D01*
X0270194Y0052752D01*
X0270345Y0052781D01*
X0270497Y0052805D01*
X0270649Y0052826D01*
X0270802Y0052843D01*
X0270955Y0052856D01*
X0271109Y0052865D01*
X0271263Y0052870D01*
X0271416Y0052871D01*
X0271570Y0052868D01*
X0271724Y0052861D01*
X0271877Y0052850D01*
X0272031Y0052835D01*
X0272183Y0052816D01*
X0272335Y0052793D01*
X0272487Y0052767D01*
X0272638Y0052736D01*
X0272788Y0052702D01*
X0272937Y0052663D01*
X0273084Y0052621D01*
X0273231Y0052575D01*
X0273377Y0052525D01*
X0273521Y0052472D01*
X0273664Y0052414D01*
X0273805Y0052353D01*
X0273945Y0052289D01*
X0274083Y0052221D01*
X0274219Y0052149D01*
X0274353Y0052074D01*
X0274485Y0051995D01*
X0274615Y0051913D01*
X0274743Y0051828D01*
X0274869Y0051739D01*
X0274992Y0051647D01*
X0275113Y0051552D01*
X0275232Y0051454D01*
X0275348Y0051353D01*
X0275461Y0051249D01*
X0275572Y0051142D01*
X0275679Y0051032D01*
X0275784Y0050919D01*
X0275886Y0050804D01*
X0275985Y0050686D01*
X0276081Y0050566D01*
X0276174Y0050443D01*
X0276263Y0050318D01*
X0276349Y0050191D01*
X0276432Y0050061D01*
X0276512Y0049929D01*
X0276588Y0049796D01*
X0276660Y0049660D01*
X0276729Y0049522D01*
X0276795Y0049383D01*
X0276857Y0049242D01*
X0276915Y0049100D01*
X0276969Y0048956D01*
X0277020Y0048811D01*
X0277067Y0048664D01*
X0277110Y0048517D01*
X0277149Y0048368D01*
X0277185Y0048218D01*
X0277216Y0048068D01*
X0277244Y0047916D01*
X0277268Y0047764D01*
X0277288Y0047612D01*
X0277304Y0047459D01*
X0277316Y0047305D01*
X0277324Y0047152D01*
X0277328Y0046998D01*
X0277328Y0046844D01*
X0277324Y0046690D01*
X0277316Y0046537D01*
X0277304Y0046383D01*
X0277288Y0046230D01*
X0277268Y0046078D01*
X0277244Y0045926D01*
X0277216Y0045774D01*
X0277185Y0045624D01*
X0277149Y0045474D01*
X0277110Y0045325D01*
X0277067Y0045178D01*
X0277020Y0045031D01*
X0276969Y0044886D01*
X0276915Y0044742D01*
X0276857Y0044600D01*
X0276795Y0044459D01*
X0276729Y0044320D01*
X0276660Y0044182D01*
X0276588Y0044046D01*
X0276512Y0043913D01*
X0276432Y0043781D01*
X0276349Y0043651D01*
X0276263Y0043524D01*
X0276174Y0043399D01*
X0276081Y0043276D01*
X0275985Y0043156D01*
X0275886Y0043038D01*
X0275784Y0042923D01*
X0275679Y0042810D01*
X0275572Y0042700D01*
X0275461Y0042593D01*
X0275348Y0042489D01*
X0275232Y0042388D01*
X0275113Y0042290D01*
X0274992Y0042195D01*
X0274869Y0042103D01*
X0274743Y0042014D01*
X0274615Y0041929D01*
X0274485Y0041847D01*
X0274353Y0041768D01*
X0274219Y0041693D01*
X0274083Y0041621D01*
X0273945Y0041553D01*
X0273805Y0041489D01*
X0273664Y0041428D01*
X0273521Y0041370D01*
X0273377Y0041317D01*
X0273231Y0041267D01*
X0273084Y0041221D01*
X0272937Y0041179D01*
X0272788Y0041140D01*
X0272638Y0041106D01*
X0272487Y0041075D01*
X0272335Y0041049D01*
X0272183Y0041026D01*
X0272031Y0041007D01*
X0271877Y0040992D01*
X0271724Y0040981D01*
X0271570Y0040974D01*
X0271416Y0040971D01*
X0271263Y0040972D01*
X0271109Y0040977D01*
X0270955Y0040986D01*
X0270802Y0040999D01*
X0270649Y0041016D01*
X0270497Y0041037D01*
X0270345Y0041061D01*
X0270194Y0041090D01*
X0270043Y0041123D01*
X0269894Y0041159D01*
X0269745Y0041199D01*
X0269598Y0041244D01*
X0269452Y0041291D01*
X0269307Y0041343D01*
X0269163Y0041399D01*
X0269021Y0041458D01*
X0268881Y0041520D01*
X0268742Y0041587D01*
X0268605Y0041657D01*
X0268470Y0041730D01*
X0268337Y0041807D01*
X0268205Y0041887D01*
X0268076Y0041971D01*
X0267949Y0042058D01*
X0267825Y0042148D01*
X0267703Y0042242D01*
X0267583Y0042338D01*
X0267466Y0042438D01*
X0267351Y0042541D01*
X0267239Y0042646D01*
X0267130Y0042755D01*
X0267024Y0042866D01*
X0266920Y0042980D01*
X0266820Y0043096D01*
X0266723Y0043216D01*
X0266628Y0043337D01*
X0266537Y0043461D01*
X0266450Y0043587D01*
X0266365Y0043716D01*
X0266284Y0043847D01*
X0266206Y0043979D01*
X0266132Y0044114D01*
X0266061Y0044251D01*
X0265994Y0044389D01*
X0265930Y0044529D01*
X0265870Y0044671D01*
X0265814Y0044814D01*
X0265761Y0044958D01*
X0265712Y0045104D01*
X0265667Y0045251D01*
X0265626Y0045400D01*
X0265588Y0045549D01*
X0265555Y0045699D01*
X0265525Y0045850D01*
X0265499Y0046002D01*
X0265478Y0046154D01*
X0265460Y0046307D01*
X0265446Y0046460D01*
X0265436Y0046613D01*
X0265430Y0046767D01*
X0265428Y0046921D01*
X0265378Y0046921D02*
X0265380Y0047074D01*
X0265386Y0047227D01*
X0265396Y0047380D01*
X0265409Y0047533D01*
X0265427Y0047685D01*
X0265448Y0047837D01*
X0265474Y0047988D01*
X0265503Y0048138D01*
X0265536Y0048288D01*
X0265573Y0048437D01*
X0265613Y0048585D01*
X0265658Y0048731D01*
X0265706Y0048877D01*
X0265758Y0049021D01*
X0265813Y0049164D01*
X0265872Y0049305D01*
X0265935Y0049445D01*
X0266001Y0049583D01*
X0266071Y0049720D01*
X0266144Y0049854D01*
X0266221Y0049987D01*
X0266301Y0050118D01*
X0266384Y0050246D01*
X0266470Y0050373D01*
X0266560Y0050497D01*
X0266653Y0050619D01*
X0266749Y0050738D01*
X0266848Y0050855D01*
X0266950Y0050970D01*
X0267055Y0051082D01*
X0267163Y0051191D01*
X0267273Y0051297D01*
X0267386Y0051400D01*
X0267502Y0051501D01*
X0267620Y0051598D01*
X0267741Y0051693D01*
X0267864Y0051784D01*
X0267989Y0051872D01*
X0268117Y0051957D01*
X0268246Y0052039D01*
X0268378Y0052117D01*
X0268512Y0052192D01*
X0268647Y0052264D01*
X0268785Y0052332D01*
X0268924Y0052396D01*
X0269064Y0052457D01*
X0269206Y0052514D01*
X0269350Y0052568D01*
X0269495Y0052618D01*
X0269641Y0052664D01*
X0269788Y0052707D01*
X0269936Y0052745D01*
X0270086Y0052780D01*
X0270236Y0052811D01*
X0270386Y0052839D01*
X0270538Y0052862D01*
X0270690Y0052881D01*
X0270842Y0052897D01*
X0270995Y0052909D01*
X0271148Y0052917D01*
X0271301Y0052921D01*
X0271455Y0052921D01*
X0271608Y0052917D01*
X0271761Y0052909D01*
X0271914Y0052897D01*
X0272066Y0052881D01*
X0272218Y0052862D01*
X0272370Y0052839D01*
X0272520Y0052811D01*
X0272670Y0052780D01*
X0272820Y0052745D01*
X0272968Y0052707D01*
X0273115Y0052664D01*
X0273261Y0052618D01*
X0273406Y0052568D01*
X0273550Y0052514D01*
X0273692Y0052457D01*
X0273832Y0052396D01*
X0273971Y0052332D01*
X0274109Y0052264D01*
X0274244Y0052192D01*
X0274378Y0052117D01*
X0274510Y0052039D01*
X0274639Y0051957D01*
X0274767Y0051872D01*
X0274892Y0051784D01*
X0275015Y0051693D01*
X0275136Y0051598D01*
X0275254Y0051501D01*
X0275370Y0051400D01*
X0275483Y0051297D01*
X0275593Y0051191D01*
X0275701Y0051082D01*
X0275806Y0050970D01*
X0275908Y0050855D01*
X0276007Y0050738D01*
X0276103Y0050619D01*
X0276196Y0050497D01*
X0276286Y0050373D01*
X0276372Y0050246D01*
X0276455Y0050118D01*
X0276535Y0049987D01*
X0276612Y0049854D01*
X0276685Y0049720D01*
X0276755Y0049583D01*
X0276821Y0049445D01*
X0276884Y0049305D01*
X0276943Y0049164D01*
X0276998Y0049021D01*
X0277050Y0048877D01*
X0277098Y0048731D01*
X0277143Y0048585D01*
X0277183Y0048437D01*
X0277220Y0048288D01*
X0277253Y0048138D01*
X0277282Y0047988D01*
X0277308Y0047837D01*
X0277329Y0047685D01*
X0277347Y0047533D01*
X0277360Y0047380D01*
X0277370Y0047227D01*
X0277376Y0047074D01*
X0277378Y0046921D01*
X0265428Y0032921D02*
X0265430Y0033075D01*
X0265436Y0033229D01*
X0265446Y0033382D01*
X0265460Y0033535D01*
X0265478Y0033688D01*
X0265499Y0033840D01*
X0265525Y0033992D01*
X0265555Y0034143D01*
X0265588Y0034293D01*
X0265626Y0034442D01*
X0265667Y0034591D01*
X0265712Y0034738D01*
X0265761Y0034884D01*
X0265814Y0035028D01*
X0265870Y0035171D01*
X0265930Y0035313D01*
X0265994Y0035453D01*
X0266061Y0035591D01*
X0266132Y0035728D01*
X0266206Y0035863D01*
X0266284Y0035995D01*
X0266365Y0036126D01*
X0266450Y0036255D01*
X0266537Y0036381D01*
X0266628Y0036505D01*
X0266723Y0036626D01*
X0266820Y0036746D01*
X0266920Y0036862D01*
X0267024Y0036976D01*
X0267130Y0037087D01*
X0267239Y0037196D01*
X0267351Y0037301D01*
X0267466Y0037404D01*
X0267583Y0037504D01*
X0267703Y0037600D01*
X0267825Y0037694D01*
X0267949Y0037784D01*
X0268076Y0037871D01*
X0268205Y0037955D01*
X0268337Y0038035D01*
X0268470Y0038112D01*
X0268605Y0038185D01*
X0268742Y0038255D01*
X0268881Y0038322D01*
X0269021Y0038384D01*
X0269163Y0038443D01*
X0269307Y0038499D01*
X0269452Y0038551D01*
X0269598Y0038598D01*
X0269745Y0038643D01*
X0269894Y0038683D01*
X0270043Y0038719D01*
X0270194Y0038752D01*
X0270345Y0038781D01*
X0270497Y0038805D01*
X0270649Y0038826D01*
X0270802Y0038843D01*
X0270955Y0038856D01*
X0271109Y0038865D01*
X0271263Y0038870D01*
X0271416Y0038871D01*
X0271570Y0038868D01*
X0271724Y0038861D01*
X0271877Y0038850D01*
X0272031Y0038835D01*
X0272183Y0038816D01*
X0272335Y0038793D01*
X0272487Y0038767D01*
X0272638Y0038736D01*
X0272788Y0038702D01*
X0272937Y0038663D01*
X0273084Y0038621D01*
X0273231Y0038575D01*
X0273377Y0038525D01*
X0273521Y0038472D01*
X0273664Y0038414D01*
X0273805Y0038353D01*
X0273945Y0038289D01*
X0274083Y0038221D01*
X0274219Y0038149D01*
X0274353Y0038074D01*
X0274485Y0037995D01*
X0274615Y0037913D01*
X0274743Y0037828D01*
X0274869Y0037739D01*
X0274992Y0037647D01*
X0275113Y0037552D01*
X0275232Y0037454D01*
X0275348Y0037353D01*
X0275461Y0037249D01*
X0275572Y0037142D01*
X0275679Y0037032D01*
X0275784Y0036919D01*
X0275886Y0036804D01*
X0275985Y0036686D01*
X0276081Y0036566D01*
X0276174Y0036443D01*
X0276263Y0036318D01*
X0276349Y0036191D01*
X0276432Y0036061D01*
X0276512Y0035929D01*
X0276588Y0035796D01*
X0276660Y0035660D01*
X0276729Y0035522D01*
X0276795Y0035383D01*
X0276857Y0035242D01*
X0276915Y0035100D01*
X0276969Y0034956D01*
X0277020Y0034811D01*
X0277067Y0034664D01*
X0277110Y0034517D01*
X0277149Y0034368D01*
X0277185Y0034218D01*
X0277216Y0034068D01*
X0277244Y0033916D01*
X0277268Y0033764D01*
X0277288Y0033612D01*
X0277304Y0033459D01*
X0277316Y0033305D01*
X0277324Y0033152D01*
X0277328Y0032998D01*
X0277328Y0032844D01*
X0277324Y0032690D01*
X0277316Y0032537D01*
X0277304Y0032383D01*
X0277288Y0032230D01*
X0277268Y0032078D01*
X0277244Y0031926D01*
X0277216Y0031774D01*
X0277185Y0031624D01*
X0277149Y0031474D01*
X0277110Y0031325D01*
X0277067Y0031178D01*
X0277020Y0031031D01*
X0276969Y0030886D01*
X0276915Y0030742D01*
X0276857Y0030600D01*
X0276795Y0030459D01*
X0276729Y0030320D01*
X0276660Y0030182D01*
X0276588Y0030046D01*
X0276512Y0029913D01*
X0276432Y0029781D01*
X0276349Y0029651D01*
X0276263Y0029524D01*
X0276174Y0029399D01*
X0276081Y0029276D01*
X0275985Y0029156D01*
X0275886Y0029038D01*
X0275784Y0028923D01*
X0275679Y0028810D01*
X0275572Y0028700D01*
X0275461Y0028593D01*
X0275348Y0028489D01*
X0275232Y0028388D01*
X0275113Y0028290D01*
X0274992Y0028195D01*
X0274869Y0028103D01*
X0274743Y0028014D01*
X0274615Y0027929D01*
X0274485Y0027847D01*
X0274353Y0027768D01*
X0274219Y0027693D01*
X0274083Y0027621D01*
X0273945Y0027553D01*
X0273805Y0027489D01*
X0273664Y0027428D01*
X0273521Y0027370D01*
X0273377Y0027317D01*
X0273231Y0027267D01*
X0273084Y0027221D01*
X0272937Y0027179D01*
X0272788Y0027140D01*
X0272638Y0027106D01*
X0272487Y0027075D01*
X0272335Y0027049D01*
X0272183Y0027026D01*
X0272031Y0027007D01*
X0271877Y0026992D01*
X0271724Y0026981D01*
X0271570Y0026974D01*
X0271416Y0026971D01*
X0271263Y0026972D01*
X0271109Y0026977D01*
X0270955Y0026986D01*
X0270802Y0026999D01*
X0270649Y0027016D01*
X0270497Y0027037D01*
X0270345Y0027061D01*
X0270194Y0027090D01*
X0270043Y0027123D01*
X0269894Y0027159D01*
X0269745Y0027199D01*
X0269598Y0027244D01*
X0269452Y0027291D01*
X0269307Y0027343D01*
X0269163Y0027399D01*
X0269021Y0027458D01*
X0268881Y0027520D01*
X0268742Y0027587D01*
X0268605Y0027657D01*
X0268470Y0027730D01*
X0268337Y0027807D01*
X0268205Y0027887D01*
X0268076Y0027971D01*
X0267949Y0028058D01*
X0267825Y0028148D01*
X0267703Y0028242D01*
X0267583Y0028338D01*
X0267466Y0028438D01*
X0267351Y0028541D01*
X0267239Y0028646D01*
X0267130Y0028755D01*
X0267024Y0028866D01*
X0266920Y0028980D01*
X0266820Y0029096D01*
X0266723Y0029216D01*
X0266628Y0029337D01*
X0266537Y0029461D01*
X0266450Y0029587D01*
X0266365Y0029716D01*
X0266284Y0029847D01*
X0266206Y0029979D01*
X0266132Y0030114D01*
X0266061Y0030251D01*
X0265994Y0030389D01*
X0265930Y0030529D01*
X0265870Y0030671D01*
X0265814Y0030814D01*
X0265761Y0030958D01*
X0265712Y0031104D01*
X0265667Y0031251D01*
X0265626Y0031400D01*
X0265588Y0031549D01*
X0265555Y0031699D01*
X0265525Y0031850D01*
X0265499Y0032002D01*
X0265478Y0032154D01*
X0265460Y0032307D01*
X0265446Y0032460D01*
X0265436Y0032613D01*
X0265430Y0032767D01*
X0265428Y0032921D01*
X0265378Y0032921D02*
X0265380Y0032768D01*
X0265386Y0032615D01*
X0265396Y0032462D01*
X0265409Y0032309D01*
X0265427Y0032157D01*
X0265448Y0032005D01*
X0265474Y0031854D01*
X0265503Y0031704D01*
X0265536Y0031554D01*
X0265573Y0031405D01*
X0265613Y0031257D01*
X0265658Y0031111D01*
X0265706Y0030965D01*
X0265758Y0030821D01*
X0265813Y0030678D01*
X0265872Y0030537D01*
X0265935Y0030397D01*
X0266001Y0030259D01*
X0266071Y0030122D01*
X0266144Y0029988D01*
X0266221Y0029855D01*
X0266301Y0029724D01*
X0266384Y0029596D01*
X0266470Y0029469D01*
X0266560Y0029345D01*
X0266653Y0029223D01*
X0266749Y0029104D01*
X0266848Y0028987D01*
X0266950Y0028872D01*
X0267055Y0028760D01*
X0267163Y0028651D01*
X0267273Y0028545D01*
X0267386Y0028442D01*
X0267502Y0028341D01*
X0267620Y0028244D01*
X0267741Y0028149D01*
X0267864Y0028058D01*
X0267989Y0027970D01*
X0268117Y0027885D01*
X0268246Y0027803D01*
X0268378Y0027725D01*
X0268512Y0027650D01*
X0268647Y0027578D01*
X0268785Y0027510D01*
X0268924Y0027446D01*
X0269064Y0027385D01*
X0269206Y0027328D01*
X0269350Y0027274D01*
X0269495Y0027224D01*
X0269641Y0027178D01*
X0269788Y0027135D01*
X0269936Y0027097D01*
X0270086Y0027062D01*
X0270236Y0027031D01*
X0270386Y0027003D01*
X0270538Y0026980D01*
X0270690Y0026961D01*
X0270842Y0026945D01*
X0270995Y0026933D01*
X0271148Y0026925D01*
X0271301Y0026921D01*
X0271455Y0026921D01*
X0271608Y0026925D01*
X0271761Y0026933D01*
X0271914Y0026945D01*
X0272066Y0026961D01*
X0272218Y0026980D01*
X0272370Y0027003D01*
X0272520Y0027031D01*
X0272670Y0027062D01*
X0272820Y0027097D01*
X0272968Y0027135D01*
X0273115Y0027178D01*
X0273261Y0027224D01*
X0273406Y0027274D01*
X0273550Y0027328D01*
X0273692Y0027385D01*
X0273832Y0027446D01*
X0273971Y0027510D01*
X0274109Y0027578D01*
X0274244Y0027650D01*
X0274378Y0027725D01*
X0274510Y0027803D01*
X0274639Y0027885D01*
X0274767Y0027970D01*
X0274892Y0028058D01*
X0275015Y0028149D01*
X0275136Y0028244D01*
X0275254Y0028341D01*
X0275370Y0028442D01*
X0275483Y0028545D01*
X0275593Y0028651D01*
X0275701Y0028760D01*
X0275806Y0028872D01*
X0275908Y0028987D01*
X0276007Y0029104D01*
X0276103Y0029223D01*
X0276196Y0029345D01*
X0276286Y0029469D01*
X0276372Y0029596D01*
X0276455Y0029724D01*
X0276535Y0029855D01*
X0276612Y0029988D01*
X0276685Y0030122D01*
X0276755Y0030259D01*
X0276821Y0030397D01*
X0276884Y0030537D01*
X0276943Y0030678D01*
X0276998Y0030821D01*
X0277050Y0030965D01*
X0277098Y0031111D01*
X0277143Y0031257D01*
X0277183Y0031405D01*
X0277220Y0031554D01*
X0277253Y0031704D01*
X0277282Y0031854D01*
X0277308Y0032005D01*
X0277329Y0032157D01*
X0277347Y0032309D01*
X0277360Y0032462D01*
X0277370Y0032615D01*
X0277376Y0032768D01*
X0277378Y0032921D01*
X0318756Y0026984D02*
X0318758Y0027142D01*
X0318764Y0027300D01*
X0318774Y0027458D01*
X0318788Y0027616D01*
X0318806Y0027773D01*
X0318827Y0027930D01*
X0318853Y0028086D01*
X0318883Y0028242D01*
X0318916Y0028397D01*
X0318954Y0028550D01*
X0318995Y0028703D01*
X0319040Y0028855D01*
X0319089Y0029006D01*
X0319142Y0029155D01*
X0319198Y0029303D01*
X0319258Y0029449D01*
X0319322Y0029594D01*
X0319390Y0029737D01*
X0319461Y0029879D01*
X0319535Y0030019D01*
X0319613Y0030156D01*
X0319695Y0030292D01*
X0319779Y0030426D01*
X0319868Y0030557D01*
X0319959Y0030686D01*
X0320054Y0030813D01*
X0320151Y0030938D01*
X0320252Y0031060D01*
X0320356Y0031179D01*
X0320463Y0031296D01*
X0320573Y0031410D01*
X0320686Y0031521D01*
X0320801Y0031630D01*
X0320919Y0031735D01*
X0321040Y0031837D01*
X0321163Y0031937D01*
X0321289Y0032033D01*
X0321417Y0032126D01*
X0321547Y0032216D01*
X0321680Y0032302D01*
X0321815Y0032386D01*
X0321951Y0032465D01*
X0322090Y0032542D01*
X0322231Y0032614D01*
X0322373Y0032684D01*
X0322517Y0032749D01*
X0322663Y0032811D01*
X0322810Y0032869D01*
X0322959Y0032924D01*
X0323109Y0032975D01*
X0323260Y0033022D01*
X0323412Y0033065D01*
X0323565Y0033104D01*
X0323720Y0033140D01*
X0323875Y0033171D01*
X0324031Y0033199D01*
X0324187Y0033223D01*
X0324344Y0033243D01*
X0324502Y0033259D01*
X0324659Y0033271D01*
X0324818Y0033279D01*
X0324976Y0033283D01*
X0325134Y0033283D01*
X0325292Y0033279D01*
X0325451Y0033271D01*
X0325608Y0033259D01*
X0325766Y0033243D01*
X0325923Y0033223D01*
X0326079Y0033199D01*
X0326235Y0033171D01*
X0326390Y0033140D01*
X0326545Y0033104D01*
X0326698Y0033065D01*
X0326850Y0033022D01*
X0327001Y0032975D01*
X0327151Y0032924D01*
X0327300Y0032869D01*
X0327447Y0032811D01*
X0327593Y0032749D01*
X0327737Y0032684D01*
X0327879Y0032614D01*
X0328020Y0032542D01*
X0328159Y0032465D01*
X0328295Y0032386D01*
X0328430Y0032302D01*
X0328563Y0032216D01*
X0328693Y0032126D01*
X0328821Y0032033D01*
X0328947Y0031937D01*
X0329070Y0031837D01*
X0329191Y0031735D01*
X0329309Y0031630D01*
X0329424Y0031521D01*
X0329537Y0031410D01*
X0329647Y0031296D01*
X0329754Y0031179D01*
X0329858Y0031060D01*
X0329959Y0030938D01*
X0330056Y0030813D01*
X0330151Y0030686D01*
X0330242Y0030557D01*
X0330331Y0030426D01*
X0330415Y0030292D01*
X0330497Y0030156D01*
X0330575Y0030019D01*
X0330649Y0029879D01*
X0330720Y0029737D01*
X0330788Y0029594D01*
X0330852Y0029449D01*
X0330912Y0029303D01*
X0330968Y0029155D01*
X0331021Y0029006D01*
X0331070Y0028855D01*
X0331115Y0028703D01*
X0331156Y0028550D01*
X0331194Y0028397D01*
X0331227Y0028242D01*
X0331257Y0028086D01*
X0331283Y0027930D01*
X0331304Y0027773D01*
X0331322Y0027616D01*
X0331336Y0027458D01*
X0331346Y0027300D01*
X0331352Y0027142D01*
X0331354Y0026984D01*
X0331352Y0026826D01*
X0331346Y0026668D01*
X0331336Y0026510D01*
X0331322Y0026352D01*
X0331304Y0026195D01*
X0331283Y0026038D01*
X0331257Y0025882D01*
X0331227Y0025726D01*
X0331194Y0025571D01*
X0331156Y0025418D01*
X0331115Y0025265D01*
X0331070Y0025113D01*
X0331021Y0024962D01*
X0330968Y0024813D01*
X0330912Y0024665D01*
X0330852Y0024519D01*
X0330788Y0024374D01*
X0330720Y0024231D01*
X0330649Y0024089D01*
X0330575Y0023949D01*
X0330497Y0023812D01*
X0330415Y0023676D01*
X0330331Y0023542D01*
X0330242Y0023411D01*
X0330151Y0023282D01*
X0330056Y0023155D01*
X0329959Y0023030D01*
X0329858Y0022908D01*
X0329754Y0022789D01*
X0329647Y0022672D01*
X0329537Y0022558D01*
X0329424Y0022447D01*
X0329309Y0022338D01*
X0329191Y0022233D01*
X0329070Y0022131D01*
X0328947Y0022031D01*
X0328821Y0021935D01*
X0328693Y0021842D01*
X0328563Y0021752D01*
X0328430Y0021666D01*
X0328295Y0021582D01*
X0328159Y0021503D01*
X0328020Y0021426D01*
X0327879Y0021354D01*
X0327737Y0021284D01*
X0327593Y0021219D01*
X0327447Y0021157D01*
X0327300Y0021099D01*
X0327151Y0021044D01*
X0327001Y0020993D01*
X0326850Y0020946D01*
X0326698Y0020903D01*
X0326545Y0020864D01*
X0326390Y0020828D01*
X0326235Y0020797D01*
X0326079Y0020769D01*
X0325923Y0020745D01*
X0325766Y0020725D01*
X0325608Y0020709D01*
X0325451Y0020697D01*
X0325292Y0020689D01*
X0325134Y0020685D01*
X0324976Y0020685D01*
X0324818Y0020689D01*
X0324659Y0020697D01*
X0324502Y0020709D01*
X0324344Y0020725D01*
X0324187Y0020745D01*
X0324031Y0020769D01*
X0323875Y0020797D01*
X0323720Y0020828D01*
X0323565Y0020864D01*
X0323412Y0020903D01*
X0323260Y0020946D01*
X0323109Y0020993D01*
X0322959Y0021044D01*
X0322810Y0021099D01*
X0322663Y0021157D01*
X0322517Y0021219D01*
X0322373Y0021284D01*
X0322231Y0021354D01*
X0322090Y0021426D01*
X0321951Y0021503D01*
X0321815Y0021582D01*
X0321680Y0021666D01*
X0321547Y0021752D01*
X0321417Y0021842D01*
X0321289Y0021935D01*
X0321163Y0022031D01*
X0321040Y0022131D01*
X0320919Y0022233D01*
X0320801Y0022338D01*
X0320686Y0022447D01*
X0320573Y0022558D01*
X0320463Y0022672D01*
X0320356Y0022789D01*
X0320252Y0022908D01*
X0320151Y0023030D01*
X0320054Y0023155D01*
X0319959Y0023282D01*
X0319868Y0023411D01*
X0319779Y0023542D01*
X0319695Y0023676D01*
X0319613Y0023812D01*
X0319535Y0023949D01*
X0319461Y0024089D01*
X0319390Y0024231D01*
X0319322Y0024374D01*
X0319258Y0024519D01*
X0319198Y0024665D01*
X0319142Y0024813D01*
X0319089Y0024962D01*
X0319040Y0025113D01*
X0318995Y0025265D01*
X0318954Y0025418D01*
X0318916Y0025571D01*
X0318883Y0025726D01*
X0318853Y0025882D01*
X0318827Y0026038D01*
X0318806Y0026195D01*
X0318788Y0026352D01*
X0318774Y0026510D01*
X0318764Y0026668D01*
X0318758Y0026826D01*
X0318756Y0026984D01*
X0320843Y0156236D02*
X0320845Y0156394D01*
X0320851Y0156552D01*
X0320861Y0156710D01*
X0320875Y0156868D01*
X0320893Y0157025D01*
X0320914Y0157182D01*
X0320940Y0157338D01*
X0320970Y0157494D01*
X0321003Y0157649D01*
X0321041Y0157802D01*
X0321082Y0157955D01*
X0321127Y0158107D01*
X0321176Y0158258D01*
X0321229Y0158407D01*
X0321285Y0158555D01*
X0321345Y0158701D01*
X0321409Y0158846D01*
X0321477Y0158989D01*
X0321548Y0159131D01*
X0321622Y0159271D01*
X0321700Y0159408D01*
X0321782Y0159544D01*
X0321866Y0159678D01*
X0321955Y0159809D01*
X0322046Y0159938D01*
X0322141Y0160065D01*
X0322238Y0160190D01*
X0322339Y0160312D01*
X0322443Y0160431D01*
X0322550Y0160548D01*
X0322660Y0160662D01*
X0322773Y0160773D01*
X0322888Y0160882D01*
X0323006Y0160987D01*
X0323127Y0161089D01*
X0323250Y0161189D01*
X0323376Y0161285D01*
X0323504Y0161378D01*
X0323634Y0161468D01*
X0323767Y0161554D01*
X0323902Y0161638D01*
X0324038Y0161717D01*
X0324177Y0161794D01*
X0324318Y0161866D01*
X0324460Y0161936D01*
X0324604Y0162001D01*
X0324750Y0162063D01*
X0324897Y0162121D01*
X0325046Y0162176D01*
X0325196Y0162227D01*
X0325347Y0162274D01*
X0325499Y0162317D01*
X0325652Y0162356D01*
X0325807Y0162392D01*
X0325962Y0162423D01*
X0326118Y0162451D01*
X0326274Y0162475D01*
X0326431Y0162495D01*
X0326589Y0162511D01*
X0326746Y0162523D01*
X0326905Y0162531D01*
X0327063Y0162535D01*
X0327221Y0162535D01*
X0327379Y0162531D01*
X0327538Y0162523D01*
X0327695Y0162511D01*
X0327853Y0162495D01*
X0328010Y0162475D01*
X0328166Y0162451D01*
X0328322Y0162423D01*
X0328477Y0162392D01*
X0328632Y0162356D01*
X0328785Y0162317D01*
X0328937Y0162274D01*
X0329088Y0162227D01*
X0329238Y0162176D01*
X0329387Y0162121D01*
X0329534Y0162063D01*
X0329680Y0162001D01*
X0329824Y0161936D01*
X0329966Y0161866D01*
X0330107Y0161794D01*
X0330246Y0161717D01*
X0330382Y0161638D01*
X0330517Y0161554D01*
X0330650Y0161468D01*
X0330780Y0161378D01*
X0330908Y0161285D01*
X0331034Y0161189D01*
X0331157Y0161089D01*
X0331278Y0160987D01*
X0331396Y0160882D01*
X0331511Y0160773D01*
X0331624Y0160662D01*
X0331734Y0160548D01*
X0331841Y0160431D01*
X0331945Y0160312D01*
X0332046Y0160190D01*
X0332143Y0160065D01*
X0332238Y0159938D01*
X0332329Y0159809D01*
X0332418Y0159678D01*
X0332502Y0159544D01*
X0332584Y0159408D01*
X0332662Y0159271D01*
X0332736Y0159131D01*
X0332807Y0158989D01*
X0332875Y0158846D01*
X0332939Y0158701D01*
X0332999Y0158555D01*
X0333055Y0158407D01*
X0333108Y0158258D01*
X0333157Y0158107D01*
X0333202Y0157955D01*
X0333243Y0157802D01*
X0333281Y0157649D01*
X0333314Y0157494D01*
X0333344Y0157338D01*
X0333370Y0157182D01*
X0333391Y0157025D01*
X0333409Y0156868D01*
X0333423Y0156710D01*
X0333433Y0156552D01*
X0333439Y0156394D01*
X0333441Y0156236D01*
X0333439Y0156078D01*
X0333433Y0155920D01*
X0333423Y0155762D01*
X0333409Y0155604D01*
X0333391Y0155447D01*
X0333370Y0155290D01*
X0333344Y0155134D01*
X0333314Y0154978D01*
X0333281Y0154823D01*
X0333243Y0154670D01*
X0333202Y0154517D01*
X0333157Y0154365D01*
X0333108Y0154214D01*
X0333055Y0154065D01*
X0332999Y0153917D01*
X0332939Y0153771D01*
X0332875Y0153626D01*
X0332807Y0153483D01*
X0332736Y0153341D01*
X0332662Y0153201D01*
X0332584Y0153064D01*
X0332502Y0152928D01*
X0332418Y0152794D01*
X0332329Y0152663D01*
X0332238Y0152534D01*
X0332143Y0152407D01*
X0332046Y0152282D01*
X0331945Y0152160D01*
X0331841Y0152041D01*
X0331734Y0151924D01*
X0331624Y0151810D01*
X0331511Y0151699D01*
X0331396Y0151590D01*
X0331278Y0151485D01*
X0331157Y0151383D01*
X0331034Y0151283D01*
X0330908Y0151187D01*
X0330780Y0151094D01*
X0330650Y0151004D01*
X0330517Y0150918D01*
X0330382Y0150834D01*
X0330246Y0150755D01*
X0330107Y0150678D01*
X0329966Y0150606D01*
X0329824Y0150536D01*
X0329680Y0150471D01*
X0329534Y0150409D01*
X0329387Y0150351D01*
X0329238Y0150296D01*
X0329088Y0150245D01*
X0328937Y0150198D01*
X0328785Y0150155D01*
X0328632Y0150116D01*
X0328477Y0150080D01*
X0328322Y0150049D01*
X0328166Y0150021D01*
X0328010Y0149997D01*
X0327853Y0149977D01*
X0327695Y0149961D01*
X0327538Y0149949D01*
X0327379Y0149941D01*
X0327221Y0149937D01*
X0327063Y0149937D01*
X0326905Y0149941D01*
X0326746Y0149949D01*
X0326589Y0149961D01*
X0326431Y0149977D01*
X0326274Y0149997D01*
X0326118Y0150021D01*
X0325962Y0150049D01*
X0325807Y0150080D01*
X0325652Y0150116D01*
X0325499Y0150155D01*
X0325347Y0150198D01*
X0325196Y0150245D01*
X0325046Y0150296D01*
X0324897Y0150351D01*
X0324750Y0150409D01*
X0324604Y0150471D01*
X0324460Y0150536D01*
X0324318Y0150606D01*
X0324177Y0150678D01*
X0324038Y0150755D01*
X0323902Y0150834D01*
X0323767Y0150918D01*
X0323634Y0151004D01*
X0323504Y0151094D01*
X0323376Y0151187D01*
X0323250Y0151283D01*
X0323127Y0151383D01*
X0323006Y0151485D01*
X0322888Y0151590D01*
X0322773Y0151699D01*
X0322660Y0151810D01*
X0322550Y0151924D01*
X0322443Y0152041D01*
X0322339Y0152160D01*
X0322238Y0152282D01*
X0322141Y0152407D01*
X0322046Y0152534D01*
X0321955Y0152663D01*
X0321866Y0152794D01*
X0321782Y0152928D01*
X0321700Y0153064D01*
X0321622Y0153201D01*
X0321548Y0153341D01*
X0321477Y0153483D01*
X0321409Y0153626D01*
X0321345Y0153771D01*
X0321285Y0153917D01*
X0321229Y0154065D01*
X0321176Y0154214D01*
X0321127Y0154365D01*
X0321082Y0154517D01*
X0321041Y0154670D01*
X0321003Y0154823D01*
X0320970Y0154978D01*
X0320940Y0155134D01*
X0320914Y0155290D01*
X0320893Y0155447D01*
X0320875Y0155604D01*
X0320861Y0155762D01*
X0320851Y0155920D01*
X0320845Y0156078D01*
X0320843Y0156236D01*
X0010961Y0158598D02*
X0010963Y0158756D01*
X0010969Y0158914D01*
X0010979Y0159072D01*
X0010993Y0159230D01*
X0011011Y0159387D01*
X0011032Y0159544D01*
X0011058Y0159700D01*
X0011088Y0159856D01*
X0011121Y0160011D01*
X0011159Y0160164D01*
X0011200Y0160317D01*
X0011245Y0160469D01*
X0011294Y0160620D01*
X0011347Y0160769D01*
X0011403Y0160917D01*
X0011463Y0161063D01*
X0011527Y0161208D01*
X0011595Y0161351D01*
X0011666Y0161493D01*
X0011740Y0161633D01*
X0011818Y0161770D01*
X0011900Y0161906D01*
X0011984Y0162040D01*
X0012073Y0162171D01*
X0012164Y0162300D01*
X0012259Y0162427D01*
X0012356Y0162552D01*
X0012457Y0162674D01*
X0012561Y0162793D01*
X0012668Y0162910D01*
X0012778Y0163024D01*
X0012891Y0163135D01*
X0013006Y0163244D01*
X0013124Y0163349D01*
X0013245Y0163451D01*
X0013368Y0163551D01*
X0013494Y0163647D01*
X0013622Y0163740D01*
X0013752Y0163830D01*
X0013885Y0163916D01*
X0014020Y0164000D01*
X0014156Y0164079D01*
X0014295Y0164156D01*
X0014436Y0164228D01*
X0014578Y0164298D01*
X0014722Y0164363D01*
X0014868Y0164425D01*
X0015015Y0164483D01*
X0015164Y0164538D01*
X0015314Y0164589D01*
X0015465Y0164636D01*
X0015617Y0164679D01*
X0015770Y0164718D01*
X0015925Y0164754D01*
X0016080Y0164785D01*
X0016236Y0164813D01*
X0016392Y0164837D01*
X0016549Y0164857D01*
X0016707Y0164873D01*
X0016864Y0164885D01*
X0017023Y0164893D01*
X0017181Y0164897D01*
X0017339Y0164897D01*
X0017497Y0164893D01*
X0017656Y0164885D01*
X0017813Y0164873D01*
X0017971Y0164857D01*
X0018128Y0164837D01*
X0018284Y0164813D01*
X0018440Y0164785D01*
X0018595Y0164754D01*
X0018750Y0164718D01*
X0018903Y0164679D01*
X0019055Y0164636D01*
X0019206Y0164589D01*
X0019356Y0164538D01*
X0019505Y0164483D01*
X0019652Y0164425D01*
X0019798Y0164363D01*
X0019942Y0164298D01*
X0020084Y0164228D01*
X0020225Y0164156D01*
X0020364Y0164079D01*
X0020500Y0164000D01*
X0020635Y0163916D01*
X0020768Y0163830D01*
X0020898Y0163740D01*
X0021026Y0163647D01*
X0021152Y0163551D01*
X0021275Y0163451D01*
X0021396Y0163349D01*
X0021514Y0163244D01*
X0021629Y0163135D01*
X0021742Y0163024D01*
X0021852Y0162910D01*
X0021959Y0162793D01*
X0022063Y0162674D01*
X0022164Y0162552D01*
X0022261Y0162427D01*
X0022356Y0162300D01*
X0022447Y0162171D01*
X0022536Y0162040D01*
X0022620Y0161906D01*
X0022702Y0161770D01*
X0022780Y0161633D01*
X0022854Y0161493D01*
X0022925Y0161351D01*
X0022993Y0161208D01*
X0023057Y0161063D01*
X0023117Y0160917D01*
X0023173Y0160769D01*
X0023226Y0160620D01*
X0023275Y0160469D01*
X0023320Y0160317D01*
X0023361Y0160164D01*
X0023399Y0160011D01*
X0023432Y0159856D01*
X0023462Y0159700D01*
X0023488Y0159544D01*
X0023509Y0159387D01*
X0023527Y0159230D01*
X0023541Y0159072D01*
X0023551Y0158914D01*
X0023557Y0158756D01*
X0023559Y0158598D01*
X0023557Y0158440D01*
X0023551Y0158282D01*
X0023541Y0158124D01*
X0023527Y0157966D01*
X0023509Y0157809D01*
X0023488Y0157652D01*
X0023462Y0157496D01*
X0023432Y0157340D01*
X0023399Y0157185D01*
X0023361Y0157032D01*
X0023320Y0156879D01*
X0023275Y0156727D01*
X0023226Y0156576D01*
X0023173Y0156427D01*
X0023117Y0156279D01*
X0023057Y0156133D01*
X0022993Y0155988D01*
X0022925Y0155845D01*
X0022854Y0155703D01*
X0022780Y0155563D01*
X0022702Y0155426D01*
X0022620Y0155290D01*
X0022536Y0155156D01*
X0022447Y0155025D01*
X0022356Y0154896D01*
X0022261Y0154769D01*
X0022164Y0154644D01*
X0022063Y0154522D01*
X0021959Y0154403D01*
X0021852Y0154286D01*
X0021742Y0154172D01*
X0021629Y0154061D01*
X0021514Y0153952D01*
X0021396Y0153847D01*
X0021275Y0153745D01*
X0021152Y0153645D01*
X0021026Y0153549D01*
X0020898Y0153456D01*
X0020768Y0153366D01*
X0020635Y0153280D01*
X0020500Y0153196D01*
X0020364Y0153117D01*
X0020225Y0153040D01*
X0020084Y0152968D01*
X0019942Y0152898D01*
X0019798Y0152833D01*
X0019652Y0152771D01*
X0019505Y0152713D01*
X0019356Y0152658D01*
X0019206Y0152607D01*
X0019055Y0152560D01*
X0018903Y0152517D01*
X0018750Y0152478D01*
X0018595Y0152442D01*
X0018440Y0152411D01*
X0018284Y0152383D01*
X0018128Y0152359D01*
X0017971Y0152339D01*
X0017813Y0152323D01*
X0017656Y0152311D01*
X0017497Y0152303D01*
X0017339Y0152299D01*
X0017181Y0152299D01*
X0017023Y0152303D01*
X0016864Y0152311D01*
X0016707Y0152323D01*
X0016549Y0152339D01*
X0016392Y0152359D01*
X0016236Y0152383D01*
X0016080Y0152411D01*
X0015925Y0152442D01*
X0015770Y0152478D01*
X0015617Y0152517D01*
X0015465Y0152560D01*
X0015314Y0152607D01*
X0015164Y0152658D01*
X0015015Y0152713D01*
X0014868Y0152771D01*
X0014722Y0152833D01*
X0014578Y0152898D01*
X0014436Y0152968D01*
X0014295Y0153040D01*
X0014156Y0153117D01*
X0014020Y0153196D01*
X0013885Y0153280D01*
X0013752Y0153366D01*
X0013622Y0153456D01*
X0013494Y0153549D01*
X0013368Y0153645D01*
X0013245Y0153745D01*
X0013124Y0153847D01*
X0013006Y0153952D01*
X0012891Y0154061D01*
X0012778Y0154172D01*
X0012668Y0154286D01*
X0012561Y0154403D01*
X0012457Y0154522D01*
X0012356Y0154644D01*
X0012259Y0154769D01*
X0012164Y0154896D01*
X0012073Y0155025D01*
X0011984Y0155156D01*
X0011900Y0155290D01*
X0011818Y0155426D01*
X0011740Y0155563D01*
X0011666Y0155703D01*
X0011595Y0155845D01*
X0011527Y0155988D01*
X0011463Y0156133D01*
X0011403Y0156279D01*
X0011347Y0156427D01*
X0011294Y0156576D01*
X0011245Y0156727D01*
X0011200Y0156879D01*
X0011159Y0157032D01*
X0011121Y0157185D01*
X0011088Y0157340D01*
X0011058Y0157496D01*
X0011032Y0157652D01*
X0011011Y0157809D01*
X0010993Y0157966D01*
X0010979Y0158124D01*
X0010969Y0158282D01*
X0010963Y0158440D01*
X0010961Y0158598D01*
D11*
X0057378Y0046921D02*
X0057378Y0032921D01*
X0069378Y0032921D02*
X0069378Y0046921D01*
X0265378Y0046921D02*
X0265378Y0032921D01*
X0277378Y0032921D02*
X0277378Y0046921D01*
M02*
