G75*
%MOIN*%
%OFA0B0*%
%FSLAX25Y25*%
%IPPOS*%
%LPD*%
%AMOC8*
5,1,8,0,0,1.08239X$1,22.5*
%
%ADD10C,0.00000*%
%ADD11C,0.00600*%
%ADD12C,0.00400*%
%ADD13C,0.00500*%
%ADD14C,0.00800*%
%ADD15C,0.01000*%
%ADD16R,0.02000X0.01500*%
%ADD17C,0.00200*%
%ADD18C,0.00009*%
%ADD19C,0.00700*%
%ADD20C,0.01600*%
%ADD21R,0.02500X0.10000*%
D10*
X0001984Y0001000D02*
X0001984Y0355331D01*
X0186472Y0355331D01*
X0186472Y0001000D01*
X0001984Y0001000D01*
X0007496Y0011118D02*
X0007498Y0011276D01*
X0007504Y0011434D01*
X0007514Y0011592D01*
X0007528Y0011750D01*
X0007546Y0011907D01*
X0007567Y0012064D01*
X0007593Y0012220D01*
X0007623Y0012376D01*
X0007656Y0012531D01*
X0007694Y0012684D01*
X0007735Y0012837D01*
X0007780Y0012989D01*
X0007829Y0013140D01*
X0007882Y0013289D01*
X0007938Y0013437D01*
X0007998Y0013583D01*
X0008062Y0013728D01*
X0008130Y0013871D01*
X0008201Y0014013D01*
X0008275Y0014153D01*
X0008353Y0014290D01*
X0008435Y0014426D01*
X0008519Y0014560D01*
X0008608Y0014691D01*
X0008699Y0014820D01*
X0008794Y0014947D01*
X0008891Y0015072D01*
X0008992Y0015194D01*
X0009096Y0015313D01*
X0009203Y0015430D01*
X0009313Y0015544D01*
X0009426Y0015655D01*
X0009541Y0015764D01*
X0009659Y0015869D01*
X0009780Y0015971D01*
X0009903Y0016071D01*
X0010029Y0016167D01*
X0010157Y0016260D01*
X0010287Y0016350D01*
X0010420Y0016436D01*
X0010555Y0016520D01*
X0010691Y0016599D01*
X0010830Y0016676D01*
X0010971Y0016748D01*
X0011113Y0016818D01*
X0011257Y0016883D01*
X0011403Y0016945D01*
X0011550Y0017003D01*
X0011699Y0017058D01*
X0011849Y0017109D01*
X0012000Y0017156D01*
X0012152Y0017199D01*
X0012305Y0017238D01*
X0012460Y0017274D01*
X0012615Y0017305D01*
X0012771Y0017333D01*
X0012927Y0017357D01*
X0013084Y0017377D01*
X0013242Y0017393D01*
X0013399Y0017405D01*
X0013558Y0017413D01*
X0013716Y0017417D01*
X0013874Y0017417D01*
X0014032Y0017413D01*
X0014191Y0017405D01*
X0014348Y0017393D01*
X0014506Y0017377D01*
X0014663Y0017357D01*
X0014819Y0017333D01*
X0014975Y0017305D01*
X0015130Y0017274D01*
X0015285Y0017238D01*
X0015438Y0017199D01*
X0015590Y0017156D01*
X0015741Y0017109D01*
X0015891Y0017058D01*
X0016040Y0017003D01*
X0016187Y0016945D01*
X0016333Y0016883D01*
X0016477Y0016818D01*
X0016619Y0016748D01*
X0016760Y0016676D01*
X0016899Y0016599D01*
X0017035Y0016520D01*
X0017170Y0016436D01*
X0017303Y0016350D01*
X0017433Y0016260D01*
X0017561Y0016167D01*
X0017687Y0016071D01*
X0017810Y0015971D01*
X0017931Y0015869D01*
X0018049Y0015764D01*
X0018164Y0015655D01*
X0018277Y0015544D01*
X0018387Y0015430D01*
X0018494Y0015313D01*
X0018598Y0015194D01*
X0018699Y0015072D01*
X0018796Y0014947D01*
X0018891Y0014820D01*
X0018982Y0014691D01*
X0019071Y0014560D01*
X0019155Y0014426D01*
X0019237Y0014290D01*
X0019315Y0014153D01*
X0019389Y0014013D01*
X0019460Y0013871D01*
X0019528Y0013728D01*
X0019592Y0013583D01*
X0019652Y0013437D01*
X0019708Y0013289D01*
X0019761Y0013140D01*
X0019810Y0012989D01*
X0019855Y0012837D01*
X0019896Y0012684D01*
X0019934Y0012531D01*
X0019967Y0012376D01*
X0019997Y0012220D01*
X0020023Y0012064D01*
X0020044Y0011907D01*
X0020062Y0011750D01*
X0020076Y0011592D01*
X0020086Y0011434D01*
X0020092Y0011276D01*
X0020094Y0011118D01*
X0020092Y0010960D01*
X0020086Y0010802D01*
X0020076Y0010644D01*
X0020062Y0010486D01*
X0020044Y0010329D01*
X0020023Y0010172D01*
X0019997Y0010016D01*
X0019967Y0009860D01*
X0019934Y0009705D01*
X0019896Y0009552D01*
X0019855Y0009399D01*
X0019810Y0009247D01*
X0019761Y0009096D01*
X0019708Y0008947D01*
X0019652Y0008799D01*
X0019592Y0008653D01*
X0019528Y0008508D01*
X0019460Y0008365D01*
X0019389Y0008223D01*
X0019315Y0008083D01*
X0019237Y0007946D01*
X0019155Y0007810D01*
X0019071Y0007676D01*
X0018982Y0007545D01*
X0018891Y0007416D01*
X0018796Y0007289D01*
X0018699Y0007164D01*
X0018598Y0007042D01*
X0018494Y0006923D01*
X0018387Y0006806D01*
X0018277Y0006692D01*
X0018164Y0006581D01*
X0018049Y0006472D01*
X0017931Y0006367D01*
X0017810Y0006265D01*
X0017687Y0006165D01*
X0017561Y0006069D01*
X0017433Y0005976D01*
X0017303Y0005886D01*
X0017170Y0005800D01*
X0017035Y0005716D01*
X0016899Y0005637D01*
X0016760Y0005560D01*
X0016619Y0005488D01*
X0016477Y0005418D01*
X0016333Y0005353D01*
X0016187Y0005291D01*
X0016040Y0005233D01*
X0015891Y0005178D01*
X0015741Y0005127D01*
X0015590Y0005080D01*
X0015438Y0005037D01*
X0015285Y0004998D01*
X0015130Y0004962D01*
X0014975Y0004931D01*
X0014819Y0004903D01*
X0014663Y0004879D01*
X0014506Y0004859D01*
X0014348Y0004843D01*
X0014191Y0004831D01*
X0014032Y0004823D01*
X0013874Y0004819D01*
X0013716Y0004819D01*
X0013558Y0004823D01*
X0013399Y0004831D01*
X0013242Y0004843D01*
X0013084Y0004859D01*
X0012927Y0004879D01*
X0012771Y0004903D01*
X0012615Y0004931D01*
X0012460Y0004962D01*
X0012305Y0004998D01*
X0012152Y0005037D01*
X0012000Y0005080D01*
X0011849Y0005127D01*
X0011699Y0005178D01*
X0011550Y0005233D01*
X0011403Y0005291D01*
X0011257Y0005353D01*
X0011113Y0005418D01*
X0010971Y0005488D01*
X0010830Y0005560D01*
X0010691Y0005637D01*
X0010555Y0005716D01*
X0010420Y0005800D01*
X0010287Y0005886D01*
X0010157Y0005976D01*
X0010029Y0006069D01*
X0009903Y0006165D01*
X0009780Y0006265D01*
X0009659Y0006367D01*
X0009541Y0006472D01*
X0009426Y0006581D01*
X0009313Y0006692D01*
X0009203Y0006806D01*
X0009096Y0006923D01*
X0008992Y0007042D01*
X0008891Y0007164D01*
X0008794Y0007289D01*
X0008699Y0007416D01*
X0008608Y0007545D01*
X0008519Y0007676D01*
X0008435Y0007810D01*
X0008353Y0007946D01*
X0008275Y0008083D01*
X0008201Y0008223D01*
X0008130Y0008365D01*
X0008062Y0008508D01*
X0007998Y0008653D01*
X0007938Y0008799D01*
X0007882Y0008947D01*
X0007829Y0009096D01*
X0007780Y0009247D01*
X0007735Y0009399D01*
X0007694Y0009552D01*
X0007656Y0009705D01*
X0007623Y0009860D01*
X0007593Y0010016D01*
X0007567Y0010172D01*
X0007546Y0010329D01*
X0007528Y0010486D01*
X0007514Y0010644D01*
X0007504Y0010802D01*
X0007498Y0010960D01*
X0007496Y0011118D01*
X0135664Y0119874D02*
X0135666Y0120028D01*
X0135672Y0120182D01*
X0135682Y0120335D01*
X0135696Y0120488D01*
X0135714Y0120641D01*
X0135735Y0120793D01*
X0135761Y0120945D01*
X0135791Y0121096D01*
X0135824Y0121246D01*
X0135862Y0121395D01*
X0135903Y0121544D01*
X0135948Y0121691D01*
X0135997Y0121837D01*
X0136050Y0121981D01*
X0136106Y0122124D01*
X0136166Y0122266D01*
X0136230Y0122406D01*
X0136297Y0122544D01*
X0136368Y0122681D01*
X0136442Y0122816D01*
X0136520Y0122948D01*
X0136601Y0123079D01*
X0136686Y0123208D01*
X0136773Y0123334D01*
X0136864Y0123458D01*
X0136959Y0123579D01*
X0137056Y0123699D01*
X0137156Y0123815D01*
X0137260Y0123929D01*
X0137366Y0124040D01*
X0137475Y0124149D01*
X0137587Y0124254D01*
X0137702Y0124357D01*
X0137819Y0124457D01*
X0137939Y0124553D01*
X0138061Y0124647D01*
X0138185Y0124737D01*
X0138312Y0124824D01*
X0138441Y0124908D01*
X0138573Y0124988D01*
X0138706Y0125065D01*
X0138841Y0125138D01*
X0138978Y0125208D01*
X0139117Y0125275D01*
X0139257Y0125337D01*
X0139399Y0125396D01*
X0139543Y0125452D01*
X0139688Y0125504D01*
X0139834Y0125551D01*
X0139981Y0125596D01*
X0140130Y0125636D01*
X0140279Y0125672D01*
X0140430Y0125705D01*
X0140581Y0125734D01*
X0140733Y0125758D01*
X0140885Y0125779D01*
X0141038Y0125796D01*
X0141191Y0125809D01*
X0141345Y0125818D01*
X0141499Y0125823D01*
X0141652Y0125824D01*
X0141806Y0125821D01*
X0141960Y0125814D01*
X0142113Y0125803D01*
X0142267Y0125788D01*
X0142419Y0125769D01*
X0142571Y0125746D01*
X0142723Y0125720D01*
X0142874Y0125689D01*
X0143024Y0125655D01*
X0143173Y0125616D01*
X0143320Y0125574D01*
X0143467Y0125528D01*
X0143613Y0125478D01*
X0143757Y0125425D01*
X0143900Y0125367D01*
X0144041Y0125306D01*
X0144181Y0125242D01*
X0144319Y0125174D01*
X0144455Y0125102D01*
X0144589Y0125027D01*
X0144721Y0124948D01*
X0144851Y0124866D01*
X0144979Y0124781D01*
X0145105Y0124692D01*
X0145228Y0124600D01*
X0145349Y0124505D01*
X0145468Y0124407D01*
X0145584Y0124306D01*
X0145697Y0124202D01*
X0145808Y0124095D01*
X0145915Y0123985D01*
X0146020Y0123872D01*
X0146122Y0123757D01*
X0146221Y0123639D01*
X0146317Y0123519D01*
X0146410Y0123396D01*
X0146499Y0123271D01*
X0146585Y0123144D01*
X0146668Y0123014D01*
X0146748Y0122882D01*
X0146824Y0122749D01*
X0146896Y0122613D01*
X0146965Y0122475D01*
X0147031Y0122336D01*
X0147093Y0122195D01*
X0147151Y0122053D01*
X0147205Y0121909D01*
X0147256Y0121764D01*
X0147303Y0121617D01*
X0147346Y0121470D01*
X0147385Y0121321D01*
X0147421Y0121171D01*
X0147452Y0121021D01*
X0147480Y0120869D01*
X0147504Y0120717D01*
X0147524Y0120565D01*
X0147540Y0120412D01*
X0147552Y0120258D01*
X0147560Y0120105D01*
X0147564Y0119951D01*
X0147564Y0119797D01*
X0147560Y0119643D01*
X0147552Y0119490D01*
X0147540Y0119336D01*
X0147524Y0119183D01*
X0147504Y0119031D01*
X0147480Y0118879D01*
X0147452Y0118727D01*
X0147421Y0118577D01*
X0147385Y0118427D01*
X0147346Y0118278D01*
X0147303Y0118131D01*
X0147256Y0117984D01*
X0147205Y0117839D01*
X0147151Y0117695D01*
X0147093Y0117553D01*
X0147031Y0117412D01*
X0146965Y0117273D01*
X0146896Y0117135D01*
X0146824Y0116999D01*
X0146748Y0116866D01*
X0146668Y0116734D01*
X0146585Y0116604D01*
X0146499Y0116477D01*
X0146410Y0116352D01*
X0146317Y0116229D01*
X0146221Y0116109D01*
X0146122Y0115991D01*
X0146020Y0115876D01*
X0145915Y0115763D01*
X0145808Y0115653D01*
X0145697Y0115546D01*
X0145584Y0115442D01*
X0145468Y0115341D01*
X0145349Y0115243D01*
X0145228Y0115148D01*
X0145105Y0115056D01*
X0144979Y0114967D01*
X0144851Y0114882D01*
X0144721Y0114800D01*
X0144589Y0114721D01*
X0144455Y0114646D01*
X0144319Y0114574D01*
X0144181Y0114506D01*
X0144041Y0114442D01*
X0143900Y0114381D01*
X0143757Y0114323D01*
X0143613Y0114270D01*
X0143467Y0114220D01*
X0143320Y0114174D01*
X0143173Y0114132D01*
X0143024Y0114093D01*
X0142874Y0114059D01*
X0142723Y0114028D01*
X0142571Y0114002D01*
X0142419Y0113979D01*
X0142267Y0113960D01*
X0142113Y0113945D01*
X0141960Y0113934D01*
X0141806Y0113927D01*
X0141652Y0113924D01*
X0141499Y0113925D01*
X0141345Y0113930D01*
X0141191Y0113939D01*
X0141038Y0113952D01*
X0140885Y0113969D01*
X0140733Y0113990D01*
X0140581Y0114014D01*
X0140430Y0114043D01*
X0140279Y0114076D01*
X0140130Y0114112D01*
X0139981Y0114152D01*
X0139834Y0114197D01*
X0139688Y0114244D01*
X0139543Y0114296D01*
X0139399Y0114352D01*
X0139257Y0114411D01*
X0139117Y0114473D01*
X0138978Y0114540D01*
X0138841Y0114610D01*
X0138706Y0114683D01*
X0138573Y0114760D01*
X0138441Y0114840D01*
X0138312Y0114924D01*
X0138185Y0115011D01*
X0138061Y0115101D01*
X0137939Y0115195D01*
X0137819Y0115291D01*
X0137702Y0115391D01*
X0137587Y0115494D01*
X0137475Y0115599D01*
X0137366Y0115708D01*
X0137260Y0115819D01*
X0137156Y0115933D01*
X0137056Y0116049D01*
X0136959Y0116169D01*
X0136864Y0116290D01*
X0136773Y0116414D01*
X0136686Y0116540D01*
X0136601Y0116669D01*
X0136520Y0116800D01*
X0136442Y0116932D01*
X0136368Y0117067D01*
X0136297Y0117204D01*
X0136230Y0117342D01*
X0136166Y0117482D01*
X0136106Y0117624D01*
X0136050Y0117767D01*
X0135997Y0117911D01*
X0135948Y0118057D01*
X0135903Y0118204D01*
X0135862Y0118353D01*
X0135824Y0118502D01*
X0135791Y0118652D01*
X0135761Y0118803D01*
X0135735Y0118955D01*
X0135714Y0119107D01*
X0135696Y0119260D01*
X0135682Y0119413D01*
X0135672Y0119566D01*
X0135666Y0119720D01*
X0135664Y0119874D01*
X0141614Y0125874D02*
X0141461Y0125872D01*
X0141308Y0125866D01*
X0141155Y0125856D01*
X0141002Y0125843D01*
X0140850Y0125825D01*
X0140698Y0125804D01*
X0140547Y0125778D01*
X0140397Y0125749D01*
X0140247Y0125716D01*
X0140098Y0125679D01*
X0139950Y0125639D01*
X0139804Y0125594D01*
X0139658Y0125546D01*
X0139514Y0125494D01*
X0139371Y0125439D01*
X0139230Y0125380D01*
X0139090Y0125317D01*
X0138952Y0125251D01*
X0138815Y0125181D01*
X0138681Y0125108D01*
X0138548Y0125031D01*
X0138417Y0124951D01*
X0138289Y0124868D01*
X0138162Y0124782D01*
X0138038Y0124692D01*
X0137916Y0124599D01*
X0137797Y0124503D01*
X0137680Y0124404D01*
X0137565Y0124302D01*
X0137453Y0124197D01*
X0137344Y0124089D01*
X0137238Y0123979D01*
X0137135Y0123866D01*
X0137034Y0123750D01*
X0136937Y0123632D01*
X0136842Y0123511D01*
X0136751Y0123388D01*
X0136663Y0123263D01*
X0136578Y0123135D01*
X0136496Y0123006D01*
X0136418Y0122874D01*
X0136343Y0122740D01*
X0136271Y0122605D01*
X0136203Y0122467D01*
X0136139Y0122328D01*
X0136078Y0122188D01*
X0136021Y0122046D01*
X0135967Y0121902D01*
X0135917Y0121757D01*
X0135871Y0121611D01*
X0135828Y0121464D01*
X0135790Y0121316D01*
X0135755Y0121166D01*
X0135724Y0121016D01*
X0135696Y0120866D01*
X0135673Y0120714D01*
X0135654Y0120562D01*
X0135638Y0120410D01*
X0135626Y0120257D01*
X0135618Y0120104D01*
X0135614Y0119951D01*
X0135614Y0119797D01*
X0135618Y0119644D01*
X0135626Y0119491D01*
X0135638Y0119338D01*
X0135654Y0119186D01*
X0135673Y0119034D01*
X0135696Y0118882D01*
X0135724Y0118732D01*
X0135755Y0118582D01*
X0135790Y0118432D01*
X0135828Y0118284D01*
X0135871Y0118137D01*
X0135917Y0117991D01*
X0135967Y0117846D01*
X0136021Y0117702D01*
X0136078Y0117560D01*
X0136139Y0117420D01*
X0136203Y0117281D01*
X0136271Y0117143D01*
X0136343Y0117008D01*
X0136418Y0116874D01*
X0136496Y0116742D01*
X0136578Y0116613D01*
X0136663Y0116485D01*
X0136751Y0116360D01*
X0136842Y0116237D01*
X0136937Y0116116D01*
X0137034Y0115998D01*
X0137135Y0115882D01*
X0137238Y0115769D01*
X0137344Y0115659D01*
X0137453Y0115551D01*
X0137565Y0115446D01*
X0137680Y0115344D01*
X0137797Y0115245D01*
X0137916Y0115149D01*
X0138038Y0115056D01*
X0138162Y0114966D01*
X0138289Y0114880D01*
X0138417Y0114797D01*
X0138548Y0114717D01*
X0138681Y0114640D01*
X0138815Y0114567D01*
X0138952Y0114497D01*
X0139090Y0114431D01*
X0139230Y0114368D01*
X0139371Y0114309D01*
X0139514Y0114254D01*
X0139658Y0114202D01*
X0139804Y0114154D01*
X0139950Y0114109D01*
X0140098Y0114069D01*
X0140247Y0114032D01*
X0140397Y0113999D01*
X0140547Y0113970D01*
X0140698Y0113944D01*
X0140850Y0113923D01*
X0141002Y0113905D01*
X0141155Y0113892D01*
X0141308Y0113882D01*
X0141461Y0113876D01*
X0141614Y0113874D01*
X0149664Y0119874D02*
X0149666Y0120028D01*
X0149672Y0120182D01*
X0149682Y0120335D01*
X0149696Y0120488D01*
X0149714Y0120641D01*
X0149735Y0120793D01*
X0149761Y0120945D01*
X0149791Y0121096D01*
X0149824Y0121246D01*
X0149862Y0121395D01*
X0149903Y0121544D01*
X0149948Y0121691D01*
X0149997Y0121837D01*
X0150050Y0121981D01*
X0150106Y0122124D01*
X0150166Y0122266D01*
X0150230Y0122406D01*
X0150297Y0122544D01*
X0150368Y0122681D01*
X0150442Y0122816D01*
X0150520Y0122948D01*
X0150601Y0123079D01*
X0150686Y0123208D01*
X0150773Y0123334D01*
X0150864Y0123458D01*
X0150959Y0123579D01*
X0151056Y0123699D01*
X0151156Y0123815D01*
X0151260Y0123929D01*
X0151366Y0124040D01*
X0151475Y0124149D01*
X0151587Y0124254D01*
X0151702Y0124357D01*
X0151819Y0124457D01*
X0151939Y0124553D01*
X0152061Y0124647D01*
X0152185Y0124737D01*
X0152312Y0124824D01*
X0152441Y0124908D01*
X0152573Y0124988D01*
X0152706Y0125065D01*
X0152841Y0125138D01*
X0152978Y0125208D01*
X0153117Y0125275D01*
X0153257Y0125337D01*
X0153399Y0125396D01*
X0153543Y0125452D01*
X0153688Y0125504D01*
X0153834Y0125551D01*
X0153981Y0125596D01*
X0154130Y0125636D01*
X0154279Y0125672D01*
X0154430Y0125705D01*
X0154581Y0125734D01*
X0154733Y0125758D01*
X0154885Y0125779D01*
X0155038Y0125796D01*
X0155191Y0125809D01*
X0155345Y0125818D01*
X0155499Y0125823D01*
X0155652Y0125824D01*
X0155806Y0125821D01*
X0155960Y0125814D01*
X0156113Y0125803D01*
X0156267Y0125788D01*
X0156419Y0125769D01*
X0156571Y0125746D01*
X0156723Y0125720D01*
X0156874Y0125689D01*
X0157024Y0125655D01*
X0157173Y0125616D01*
X0157320Y0125574D01*
X0157467Y0125528D01*
X0157613Y0125478D01*
X0157757Y0125425D01*
X0157900Y0125367D01*
X0158041Y0125306D01*
X0158181Y0125242D01*
X0158319Y0125174D01*
X0158455Y0125102D01*
X0158589Y0125027D01*
X0158721Y0124948D01*
X0158851Y0124866D01*
X0158979Y0124781D01*
X0159105Y0124692D01*
X0159228Y0124600D01*
X0159349Y0124505D01*
X0159468Y0124407D01*
X0159584Y0124306D01*
X0159697Y0124202D01*
X0159808Y0124095D01*
X0159915Y0123985D01*
X0160020Y0123872D01*
X0160122Y0123757D01*
X0160221Y0123639D01*
X0160317Y0123519D01*
X0160410Y0123396D01*
X0160499Y0123271D01*
X0160585Y0123144D01*
X0160668Y0123014D01*
X0160748Y0122882D01*
X0160824Y0122749D01*
X0160896Y0122613D01*
X0160965Y0122475D01*
X0161031Y0122336D01*
X0161093Y0122195D01*
X0161151Y0122053D01*
X0161205Y0121909D01*
X0161256Y0121764D01*
X0161303Y0121617D01*
X0161346Y0121470D01*
X0161385Y0121321D01*
X0161421Y0121171D01*
X0161452Y0121021D01*
X0161480Y0120869D01*
X0161504Y0120717D01*
X0161524Y0120565D01*
X0161540Y0120412D01*
X0161552Y0120258D01*
X0161560Y0120105D01*
X0161564Y0119951D01*
X0161564Y0119797D01*
X0161560Y0119643D01*
X0161552Y0119490D01*
X0161540Y0119336D01*
X0161524Y0119183D01*
X0161504Y0119031D01*
X0161480Y0118879D01*
X0161452Y0118727D01*
X0161421Y0118577D01*
X0161385Y0118427D01*
X0161346Y0118278D01*
X0161303Y0118131D01*
X0161256Y0117984D01*
X0161205Y0117839D01*
X0161151Y0117695D01*
X0161093Y0117553D01*
X0161031Y0117412D01*
X0160965Y0117273D01*
X0160896Y0117135D01*
X0160824Y0116999D01*
X0160748Y0116866D01*
X0160668Y0116734D01*
X0160585Y0116604D01*
X0160499Y0116477D01*
X0160410Y0116352D01*
X0160317Y0116229D01*
X0160221Y0116109D01*
X0160122Y0115991D01*
X0160020Y0115876D01*
X0159915Y0115763D01*
X0159808Y0115653D01*
X0159697Y0115546D01*
X0159584Y0115442D01*
X0159468Y0115341D01*
X0159349Y0115243D01*
X0159228Y0115148D01*
X0159105Y0115056D01*
X0158979Y0114967D01*
X0158851Y0114882D01*
X0158721Y0114800D01*
X0158589Y0114721D01*
X0158455Y0114646D01*
X0158319Y0114574D01*
X0158181Y0114506D01*
X0158041Y0114442D01*
X0157900Y0114381D01*
X0157757Y0114323D01*
X0157613Y0114270D01*
X0157467Y0114220D01*
X0157320Y0114174D01*
X0157173Y0114132D01*
X0157024Y0114093D01*
X0156874Y0114059D01*
X0156723Y0114028D01*
X0156571Y0114002D01*
X0156419Y0113979D01*
X0156267Y0113960D01*
X0156113Y0113945D01*
X0155960Y0113934D01*
X0155806Y0113927D01*
X0155652Y0113924D01*
X0155499Y0113925D01*
X0155345Y0113930D01*
X0155191Y0113939D01*
X0155038Y0113952D01*
X0154885Y0113969D01*
X0154733Y0113990D01*
X0154581Y0114014D01*
X0154430Y0114043D01*
X0154279Y0114076D01*
X0154130Y0114112D01*
X0153981Y0114152D01*
X0153834Y0114197D01*
X0153688Y0114244D01*
X0153543Y0114296D01*
X0153399Y0114352D01*
X0153257Y0114411D01*
X0153117Y0114473D01*
X0152978Y0114540D01*
X0152841Y0114610D01*
X0152706Y0114683D01*
X0152573Y0114760D01*
X0152441Y0114840D01*
X0152312Y0114924D01*
X0152185Y0115011D01*
X0152061Y0115101D01*
X0151939Y0115195D01*
X0151819Y0115291D01*
X0151702Y0115391D01*
X0151587Y0115494D01*
X0151475Y0115599D01*
X0151366Y0115708D01*
X0151260Y0115819D01*
X0151156Y0115933D01*
X0151056Y0116049D01*
X0150959Y0116169D01*
X0150864Y0116290D01*
X0150773Y0116414D01*
X0150686Y0116540D01*
X0150601Y0116669D01*
X0150520Y0116800D01*
X0150442Y0116932D01*
X0150368Y0117067D01*
X0150297Y0117204D01*
X0150230Y0117342D01*
X0150166Y0117482D01*
X0150106Y0117624D01*
X0150050Y0117767D01*
X0149997Y0117911D01*
X0149948Y0118057D01*
X0149903Y0118204D01*
X0149862Y0118353D01*
X0149824Y0118502D01*
X0149791Y0118652D01*
X0149761Y0118803D01*
X0149735Y0118955D01*
X0149714Y0119107D01*
X0149696Y0119260D01*
X0149682Y0119413D01*
X0149672Y0119566D01*
X0149666Y0119720D01*
X0149664Y0119874D01*
X0155614Y0113874D02*
X0155767Y0113876D01*
X0155920Y0113882D01*
X0156073Y0113892D01*
X0156226Y0113905D01*
X0156378Y0113923D01*
X0156530Y0113944D01*
X0156681Y0113970D01*
X0156831Y0113999D01*
X0156981Y0114032D01*
X0157130Y0114069D01*
X0157278Y0114109D01*
X0157424Y0114154D01*
X0157570Y0114202D01*
X0157714Y0114254D01*
X0157857Y0114309D01*
X0157998Y0114368D01*
X0158138Y0114431D01*
X0158276Y0114497D01*
X0158413Y0114567D01*
X0158547Y0114640D01*
X0158680Y0114717D01*
X0158811Y0114797D01*
X0158939Y0114880D01*
X0159066Y0114966D01*
X0159190Y0115056D01*
X0159312Y0115149D01*
X0159431Y0115245D01*
X0159548Y0115344D01*
X0159663Y0115446D01*
X0159775Y0115551D01*
X0159884Y0115659D01*
X0159990Y0115769D01*
X0160093Y0115882D01*
X0160194Y0115998D01*
X0160291Y0116116D01*
X0160386Y0116237D01*
X0160477Y0116360D01*
X0160565Y0116485D01*
X0160650Y0116613D01*
X0160732Y0116742D01*
X0160810Y0116874D01*
X0160885Y0117008D01*
X0160957Y0117143D01*
X0161025Y0117281D01*
X0161089Y0117420D01*
X0161150Y0117560D01*
X0161207Y0117702D01*
X0161261Y0117846D01*
X0161311Y0117991D01*
X0161357Y0118137D01*
X0161400Y0118284D01*
X0161438Y0118432D01*
X0161473Y0118582D01*
X0161504Y0118732D01*
X0161532Y0118882D01*
X0161555Y0119034D01*
X0161574Y0119186D01*
X0161590Y0119338D01*
X0161602Y0119491D01*
X0161610Y0119644D01*
X0161614Y0119797D01*
X0161614Y0119951D01*
X0161610Y0120104D01*
X0161602Y0120257D01*
X0161590Y0120410D01*
X0161574Y0120562D01*
X0161555Y0120714D01*
X0161532Y0120866D01*
X0161504Y0121016D01*
X0161473Y0121166D01*
X0161438Y0121316D01*
X0161400Y0121464D01*
X0161357Y0121611D01*
X0161311Y0121757D01*
X0161261Y0121902D01*
X0161207Y0122046D01*
X0161150Y0122188D01*
X0161089Y0122328D01*
X0161025Y0122467D01*
X0160957Y0122605D01*
X0160885Y0122740D01*
X0160810Y0122874D01*
X0160732Y0123006D01*
X0160650Y0123135D01*
X0160565Y0123263D01*
X0160477Y0123388D01*
X0160386Y0123511D01*
X0160291Y0123632D01*
X0160194Y0123750D01*
X0160093Y0123866D01*
X0159990Y0123979D01*
X0159884Y0124089D01*
X0159775Y0124197D01*
X0159663Y0124302D01*
X0159548Y0124404D01*
X0159431Y0124503D01*
X0159312Y0124599D01*
X0159190Y0124692D01*
X0159066Y0124782D01*
X0158939Y0124868D01*
X0158811Y0124951D01*
X0158680Y0125031D01*
X0158547Y0125108D01*
X0158413Y0125181D01*
X0158276Y0125251D01*
X0158138Y0125317D01*
X0157998Y0125380D01*
X0157857Y0125439D01*
X0157714Y0125494D01*
X0157570Y0125546D01*
X0157424Y0125594D01*
X0157278Y0125639D01*
X0157130Y0125679D01*
X0156981Y0125716D01*
X0156831Y0125749D01*
X0156681Y0125778D01*
X0156530Y0125804D01*
X0156378Y0125825D01*
X0156226Y0125843D01*
X0156073Y0125856D01*
X0155920Y0125866D01*
X0155767Y0125872D01*
X0155614Y0125874D01*
X0161630Y0085449D02*
X0161632Y0085580D01*
X0161638Y0085712D01*
X0161648Y0085843D01*
X0161662Y0085974D01*
X0161680Y0086104D01*
X0161702Y0086233D01*
X0161727Y0086362D01*
X0161757Y0086490D01*
X0161791Y0086617D01*
X0161828Y0086744D01*
X0161869Y0086868D01*
X0161914Y0086992D01*
X0161963Y0087114D01*
X0162015Y0087235D01*
X0162071Y0087353D01*
X0162131Y0087471D01*
X0162194Y0087586D01*
X0162261Y0087699D01*
X0162331Y0087811D01*
X0162404Y0087920D01*
X0162480Y0088026D01*
X0162560Y0088131D01*
X0162643Y0088233D01*
X0162729Y0088332D01*
X0162818Y0088429D01*
X0162910Y0088523D01*
X0163005Y0088614D01*
X0163102Y0088703D01*
X0163202Y0088788D01*
X0163305Y0088870D01*
X0163410Y0088949D01*
X0163517Y0089025D01*
X0163627Y0089097D01*
X0163739Y0089166D01*
X0163853Y0089232D01*
X0163968Y0089294D01*
X0164086Y0089353D01*
X0164205Y0089408D01*
X0164326Y0089460D01*
X0164449Y0089507D01*
X0164573Y0089551D01*
X0164698Y0089592D01*
X0164824Y0089628D01*
X0164952Y0089661D01*
X0165080Y0089689D01*
X0165209Y0089714D01*
X0165339Y0089735D01*
X0165469Y0089752D01*
X0165600Y0089765D01*
X0165731Y0089774D01*
X0165862Y0089779D01*
X0165994Y0089780D01*
X0166125Y0089777D01*
X0166257Y0089770D01*
X0166388Y0089759D01*
X0166518Y0089744D01*
X0166648Y0089725D01*
X0166778Y0089702D01*
X0166906Y0089676D01*
X0167034Y0089645D01*
X0167161Y0089610D01*
X0167287Y0089572D01*
X0167411Y0089530D01*
X0167535Y0089484D01*
X0167656Y0089434D01*
X0167776Y0089381D01*
X0167895Y0089324D01*
X0168012Y0089264D01*
X0168126Y0089200D01*
X0168239Y0089132D01*
X0168350Y0089061D01*
X0168459Y0088987D01*
X0168565Y0088910D01*
X0168669Y0088829D01*
X0168770Y0088746D01*
X0168869Y0088659D01*
X0168965Y0088569D01*
X0169058Y0088476D01*
X0169149Y0088381D01*
X0169236Y0088283D01*
X0169321Y0088182D01*
X0169402Y0088079D01*
X0169480Y0087973D01*
X0169555Y0087865D01*
X0169627Y0087755D01*
X0169695Y0087643D01*
X0169760Y0087529D01*
X0169821Y0087412D01*
X0169879Y0087294D01*
X0169933Y0087174D01*
X0169984Y0087053D01*
X0170031Y0086930D01*
X0170074Y0086806D01*
X0170113Y0086681D01*
X0170149Y0086554D01*
X0170180Y0086426D01*
X0170208Y0086298D01*
X0170232Y0086169D01*
X0170252Y0086039D01*
X0170268Y0085908D01*
X0170280Y0085777D01*
X0170288Y0085646D01*
X0170292Y0085515D01*
X0170292Y0085383D01*
X0170288Y0085252D01*
X0170280Y0085121D01*
X0170268Y0084990D01*
X0170252Y0084859D01*
X0170232Y0084729D01*
X0170208Y0084600D01*
X0170180Y0084472D01*
X0170149Y0084344D01*
X0170113Y0084217D01*
X0170074Y0084092D01*
X0170031Y0083968D01*
X0169984Y0083845D01*
X0169933Y0083724D01*
X0169879Y0083604D01*
X0169821Y0083486D01*
X0169760Y0083369D01*
X0169695Y0083255D01*
X0169627Y0083143D01*
X0169555Y0083033D01*
X0169480Y0082925D01*
X0169402Y0082819D01*
X0169321Y0082716D01*
X0169236Y0082615D01*
X0169149Y0082517D01*
X0169058Y0082422D01*
X0168965Y0082329D01*
X0168869Y0082239D01*
X0168770Y0082152D01*
X0168669Y0082069D01*
X0168565Y0081988D01*
X0168459Y0081911D01*
X0168350Y0081837D01*
X0168239Y0081766D01*
X0168127Y0081698D01*
X0168012Y0081634D01*
X0167895Y0081574D01*
X0167776Y0081517D01*
X0167656Y0081464D01*
X0167535Y0081414D01*
X0167411Y0081368D01*
X0167287Y0081326D01*
X0167161Y0081288D01*
X0167034Y0081253D01*
X0166906Y0081222D01*
X0166778Y0081196D01*
X0166648Y0081173D01*
X0166518Y0081154D01*
X0166388Y0081139D01*
X0166257Y0081128D01*
X0166125Y0081121D01*
X0165994Y0081118D01*
X0165862Y0081119D01*
X0165731Y0081124D01*
X0165600Y0081133D01*
X0165469Y0081146D01*
X0165339Y0081163D01*
X0165209Y0081184D01*
X0165080Y0081209D01*
X0164952Y0081237D01*
X0164824Y0081270D01*
X0164698Y0081306D01*
X0164573Y0081347D01*
X0164449Y0081391D01*
X0164326Y0081438D01*
X0164205Y0081490D01*
X0164086Y0081545D01*
X0163968Y0081604D01*
X0163853Y0081666D01*
X0163739Y0081732D01*
X0163627Y0081801D01*
X0163517Y0081873D01*
X0163410Y0081949D01*
X0163305Y0082028D01*
X0163202Y0082110D01*
X0163102Y0082195D01*
X0163005Y0082284D01*
X0162910Y0082375D01*
X0162818Y0082469D01*
X0162729Y0082566D01*
X0162643Y0082665D01*
X0162560Y0082767D01*
X0162480Y0082872D01*
X0162404Y0082978D01*
X0162331Y0083087D01*
X0162261Y0083199D01*
X0162194Y0083312D01*
X0162131Y0083427D01*
X0162071Y0083545D01*
X0162015Y0083663D01*
X0161963Y0083784D01*
X0161914Y0083906D01*
X0161869Y0084030D01*
X0161828Y0084154D01*
X0161791Y0084281D01*
X0161757Y0084408D01*
X0161727Y0084536D01*
X0161702Y0084665D01*
X0161680Y0084794D01*
X0161662Y0084924D01*
X0161648Y0085055D01*
X0161638Y0085186D01*
X0161632Y0085318D01*
X0161630Y0085449D01*
X0164779Y0058874D02*
X0164781Y0059005D01*
X0164787Y0059137D01*
X0164797Y0059268D01*
X0164811Y0059399D01*
X0164829Y0059529D01*
X0164851Y0059658D01*
X0164876Y0059787D01*
X0164906Y0059915D01*
X0164940Y0060042D01*
X0164977Y0060169D01*
X0165018Y0060293D01*
X0165063Y0060417D01*
X0165112Y0060539D01*
X0165164Y0060660D01*
X0165220Y0060778D01*
X0165280Y0060896D01*
X0165343Y0061011D01*
X0165410Y0061124D01*
X0165480Y0061236D01*
X0165553Y0061345D01*
X0165629Y0061451D01*
X0165709Y0061556D01*
X0165792Y0061658D01*
X0165878Y0061757D01*
X0165967Y0061854D01*
X0166059Y0061948D01*
X0166154Y0062039D01*
X0166251Y0062128D01*
X0166351Y0062213D01*
X0166454Y0062295D01*
X0166559Y0062374D01*
X0166666Y0062450D01*
X0166776Y0062522D01*
X0166888Y0062591D01*
X0167002Y0062657D01*
X0167117Y0062719D01*
X0167235Y0062778D01*
X0167354Y0062833D01*
X0167475Y0062885D01*
X0167598Y0062932D01*
X0167722Y0062976D01*
X0167847Y0063017D01*
X0167973Y0063053D01*
X0168101Y0063086D01*
X0168229Y0063114D01*
X0168358Y0063139D01*
X0168488Y0063160D01*
X0168618Y0063177D01*
X0168749Y0063190D01*
X0168880Y0063199D01*
X0169011Y0063204D01*
X0169143Y0063205D01*
X0169274Y0063202D01*
X0169406Y0063195D01*
X0169537Y0063184D01*
X0169667Y0063169D01*
X0169797Y0063150D01*
X0169927Y0063127D01*
X0170055Y0063101D01*
X0170183Y0063070D01*
X0170310Y0063035D01*
X0170436Y0062997D01*
X0170560Y0062955D01*
X0170684Y0062909D01*
X0170805Y0062859D01*
X0170925Y0062806D01*
X0171044Y0062749D01*
X0171161Y0062689D01*
X0171275Y0062625D01*
X0171388Y0062557D01*
X0171499Y0062486D01*
X0171608Y0062412D01*
X0171714Y0062335D01*
X0171818Y0062254D01*
X0171919Y0062171D01*
X0172018Y0062084D01*
X0172114Y0061994D01*
X0172207Y0061901D01*
X0172298Y0061806D01*
X0172385Y0061708D01*
X0172470Y0061607D01*
X0172551Y0061504D01*
X0172629Y0061398D01*
X0172704Y0061290D01*
X0172776Y0061180D01*
X0172844Y0061068D01*
X0172909Y0060954D01*
X0172970Y0060837D01*
X0173028Y0060719D01*
X0173082Y0060599D01*
X0173133Y0060478D01*
X0173180Y0060355D01*
X0173223Y0060231D01*
X0173262Y0060106D01*
X0173298Y0059979D01*
X0173329Y0059851D01*
X0173357Y0059723D01*
X0173381Y0059594D01*
X0173401Y0059464D01*
X0173417Y0059333D01*
X0173429Y0059202D01*
X0173437Y0059071D01*
X0173441Y0058940D01*
X0173441Y0058808D01*
X0173437Y0058677D01*
X0173429Y0058546D01*
X0173417Y0058415D01*
X0173401Y0058284D01*
X0173381Y0058154D01*
X0173357Y0058025D01*
X0173329Y0057897D01*
X0173298Y0057769D01*
X0173262Y0057642D01*
X0173223Y0057517D01*
X0173180Y0057393D01*
X0173133Y0057270D01*
X0173082Y0057149D01*
X0173028Y0057029D01*
X0172970Y0056911D01*
X0172909Y0056794D01*
X0172844Y0056680D01*
X0172776Y0056568D01*
X0172704Y0056458D01*
X0172629Y0056350D01*
X0172551Y0056244D01*
X0172470Y0056141D01*
X0172385Y0056040D01*
X0172298Y0055942D01*
X0172207Y0055847D01*
X0172114Y0055754D01*
X0172018Y0055664D01*
X0171919Y0055577D01*
X0171818Y0055494D01*
X0171714Y0055413D01*
X0171608Y0055336D01*
X0171499Y0055262D01*
X0171388Y0055191D01*
X0171276Y0055123D01*
X0171161Y0055059D01*
X0171044Y0054999D01*
X0170925Y0054942D01*
X0170805Y0054889D01*
X0170684Y0054839D01*
X0170560Y0054793D01*
X0170436Y0054751D01*
X0170310Y0054713D01*
X0170183Y0054678D01*
X0170055Y0054647D01*
X0169927Y0054621D01*
X0169797Y0054598D01*
X0169667Y0054579D01*
X0169537Y0054564D01*
X0169406Y0054553D01*
X0169274Y0054546D01*
X0169143Y0054543D01*
X0169011Y0054544D01*
X0168880Y0054549D01*
X0168749Y0054558D01*
X0168618Y0054571D01*
X0168488Y0054588D01*
X0168358Y0054609D01*
X0168229Y0054634D01*
X0168101Y0054662D01*
X0167973Y0054695D01*
X0167847Y0054731D01*
X0167722Y0054772D01*
X0167598Y0054816D01*
X0167475Y0054863D01*
X0167354Y0054915D01*
X0167235Y0054970D01*
X0167117Y0055029D01*
X0167002Y0055091D01*
X0166888Y0055157D01*
X0166776Y0055226D01*
X0166666Y0055298D01*
X0166559Y0055374D01*
X0166454Y0055453D01*
X0166351Y0055535D01*
X0166251Y0055620D01*
X0166154Y0055709D01*
X0166059Y0055800D01*
X0165967Y0055894D01*
X0165878Y0055991D01*
X0165792Y0056090D01*
X0165709Y0056192D01*
X0165629Y0056297D01*
X0165553Y0056403D01*
X0165480Y0056512D01*
X0165410Y0056624D01*
X0165343Y0056737D01*
X0165280Y0056852D01*
X0165220Y0056970D01*
X0165164Y0057088D01*
X0165112Y0057209D01*
X0165063Y0057331D01*
X0165018Y0057455D01*
X0164977Y0057579D01*
X0164940Y0057706D01*
X0164906Y0057833D01*
X0164876Y0057961D01*
X0164851Y0058090D01*
X0164829Y0058219D01*
X0164811Y0058349D01*
X0164797Y0058480D01*
X0164787Y0058611D01*
X0164781Y0058743D01*
X0164779Y0058874D01*
X0161630Y0032299D02*
X0161632Y0032430D01*
X0161638Y0032562D01*
X0161648Y0032693D01*
X0161662Y0032824D01*
X0161680Y0032954D01*
X0161702Y0033083D01*
X0161727Y0033212D01*
X0161757Y0033340D01*
X0161791Y0033467D01*
X0161828Y0033594D01*
X0161869Y0033718D01*
X0161914Y0033842D01*
X0161963Y0033964D01*
X0162015Y0034085D01*
X0162071Y0034203D01*
X0162131Y0034321D01*
X0162194Y0034436D01*
X0162261Y0034549D01*
X0162331Y0034661D01*
X0162404Y0034770D01*
X0162480Y0034876D01*
X0162560Y0034981D01*
X0162643Y0035083D01*
X0162729Y0035182D01*
X0162818Y0035279D01*
X0162910Y0035373D01*
X0163005Y0035464D01*
X0163102Y0035553D01*
X0163202Y0035638D01*
X0163305Y0035720D01*
X0163410Y0035799D01*
X0163517Y0035875D01*
X0163627Y0035947D01*
X0163739Y0036016D01*
X0163853Y0036082D01*
X0163968Y0036144D01*
X0164086Y0036203D01*
X0164205Y0036258D01*
X0164326Y0036310D01*
X0164449Y0036357D01*
X0164573Y0036401D01*
X0164698Y0036442D01*
X0164824Y0036478D01*
X0164952Y0036511D01*
X0165080Y0036539D01*
X0165209Y0036564D01*
X0165339Y0036585D01*
X0165469Y0036602D01*
X0165600Y0036615D01*
X0165731Y0036624D01*
X0165862Y0036629D01*
X0165994Y0036630D01*
X0166125Y0036627D01*
X0166257Y0036620D01*
X0166388Y0036609D01*
X0166518Y0036594D01*
X0166648Y0036575D01*
X0166778Y0036552D01*
X0166906Y0036526D01*
X0167034Y0036495D01*
X0167161Y0036460D01*
X0167287Y0036422D01*
X0167411Y0036380D01*
X0167535Y0036334D01*
X0167656Y0036284D01*
X0167776Y0036231D01*
X0167895Y0036174D01*
X0168012Y0036114D01*
X0168126Y0036050D01*
X0168239Y0035982D01*
X0168350Y0035911D01*
X0168459Y0035837D01*
X0168565Y0035760D01*
X0168669Y0035679D01*
X0168770Y0035596D01*
X0168869Y0035509D01*
X0168965Y0035419D01*
X0169058Y0035326D01*
X0169149Y0035231D01*
X0169236Y0035133D01*
X0169321Y0035032D01*
X0169402Y0034929D01*
X0169480Y0034823D01*
X0169555Y0034715D01*
X0169627Y0034605D01*
X0169695Y0034493D01*
X0169760Y0034379D01*
X0169821Y0034262D01*
X0169879Y0034144D01*
X0169933Y0034024D01*
X0169984Y0033903D01*
X0170031Y0033780D01*
X0170074Y0033656D01*
X0170113Y0033531D01*
X0170149Y0033404D01*
X0170180Y0033276D01*
X0170208Y0033148D01*
X0170232Y0033019D01*
X0170252Y0032889D01*
X0170268Y0032758D01*
X0170280Y0032627D01*
X0170288Y0032496D01*
X0170292Y0032365D01*
X0170292Y0032233D01*
X0170288Y0032102D01*
X0170280Y0031971D01*
X0170268Y0031840D01*
X0170252Y0031709D01*
X0170232Y0031579D01*
X0170208Y0031450D01*
X0170180Y0031322D01*
X0170149Y0031194D01*
X0170113Y0031067D01*
X0170074Y0030942D01*
X0170031Y0030818D01*
X0169984Y0030695D01*
X0169933Y0030574D01*
X0169879Y0030454D01*
X0169821Y0030336D01*
X0169760Y0030219D01*
X0169695Y0030105D01*
X0169627Y0029993D01*
X0169555Y0029883D01*
X0169480Y0029775D01*
X0169402Y0029669D01*
X0169321Y0029566D01*
X0169236Y0029465D01*
X0169149Y0029367D01*
X0169058Y0029272D01*
X0168965Y0029179D01*
X0168869Y0029089D01*
X0168770Y0029002D01*
X0168669Y0028919D01*
X0168565Y0028838D01*
X0168459Y0028761D01*
X0168350Y0028687D01*
X0168239Y0028616D01*
X0168127Y0028548D01*
X0168012Y0028484D01*
X0167895Y0028424D01*
X0167776Y0028367D01*
X0167656Y0028314D01*
X0167535Y0028264D01*
X0167411Y0028218D01*
X0167287Y0028176D01*
X0167161Y0028138D01*
X0167034Y0028103D01*
X0166906Y0028072D01*
X0166778Y0028046D01*
X0166648Y0028023D01*
X0166518Y0028004D01*
X0166388Y0027989D01*
X0166257Y0027978D01*
X0166125Y0027971D01*
X0165994Y0027968D01*
X0165862Y0027969D01*
X0165731Y0027974D01*
X0165600Y0027983D01*
X0165469Y0027996D01*
X0165339Y0028013D01*
X0165209Y0028034D01*
X0165080Y0028059D01*
X0164952Y0028087D01*
X0164824Y0028120D01*
X0164698Y0028156D01*
X0164573Y0028197D01*
X0164449Y0028241D01*
X0164326Y0028288D01*
X0164205Y0028340D01*
X0164086Y0028395D01*
X0163968Y0028454D01*
X0163853Y0028516D01*
X0163739Y0028582D01*
X0163627Y0028651D01*
X0163517Y0028723D01*
X0163410Y0028799D01*
X0163305Y0028878D01*
X0163202Y0028960D01*
X0163102Y0029045D01*
X0163005Y0029134D01*
X0162910Y0029225D01*
X0162818Y0029319D01*
X0162729Y0029416D01*
X0162643Y0029515D01*
X0162560Y0029617D01*
X0162480Y0029722D01*
X0162404Y0029828D01*
X0162331Y0029937D01*
X0162261Y0030049D01*
X0162194Y0030162D01*
X0162131Y0030277D01*
X0162071Y0030395D01*
X0162015Y0030513D01*
X0161963Y0030634D01*
X0161914Y0030756D01*
X0161869Y0030880D01*
X0161828Y0031004D01*
X0161791Y0031131D01*
X0161757Y0031258D01*
X0161727Y0031386D01*
X0161702Y0031515D01*
X0161680Y0031644D01*
X0161662Y0031774D01*
X0161648Y0031905D01*
X0161638Y0032036D01*
X0161632Y0032168D01*
X0161630Y0032299D01*
X0164977Y0011118D02*
X0164979Y0011276D01*
X0164985Y0011434D01*
X0164995Y0011592D01*
X0165009Y0011750D01*
X0165027Y0011907D01*
X0165048Y0012064D01*
X0165074Y0012220D01*
X0165104Y0012376D01*
X0165137Y0012531D01*
X0165175Y0012684D01*
X0165216Y0012837D01*
X0165261Y0012989D01*
X0165310Y0013140D01*
X0165363Y0013289D01*
X0165419Y0013437D01*
X0165479Y0013583D01*
X0165543Y0013728D01*
X0165611Y0013871D01*
X0165682Y0014013D01*
X0165756Y0014153D01*
X0165834Y0014290D01*
X0165916Y0014426D01*
X0166000Y0014560D01*
X0166089Y0014691D01*
X0166180Y0014820D01*
X0166275Y0014947D01*
X0166372Y0015072D01*
X0166473Y0015194D01*
X0166577Y0015313D01*
X0166684Y0015430D01*
X0166794Y0015544D01*
X0166907Y0015655D01*
X0167022Y0015764D01*
X0167140Y0015869D01*
X0167261Y0015971D01*
X0167384Y0016071D01*
X0167510Y0016167D01*
X0167638Y0016260D01*
X0167768Y0016350D01*
X0167901Y0016436D01*
X0168036Y0016520D01*
X0168172Y0016599D01*
X0168311Y0016676D01*
X0168452Y0016748D01*
X0168594Y0016818D01*
X0168738Y0016883D01*
X0168884Y0016945D01*
X0169031Y0017003D01*
X0169180Y0017058D01*
X0169330Y0017109D01*
X0169481Y0017156D01*
X0169633Y0017199D01*
X0169786Y0017238D01*
X0169941Y0017274D01*
X0170096Y0017305D01*
X0170252Y0017333D01*
X0170408Y0017357D01*
X0170565Y0017377D01*
X0170723Y0017393D01*
X0170880Y0017405D01*
X0171039Y0017413D01*
X0171197Y0017417D01*
X0171355Y0017417D01*
X0171513Y0017413D01*
X0171672Y0017405D01*
X0171829Y0017393D01*
X0171987Y0017377D01*
X0172144Y0017357D01*
X0172300Y0017333D01*
X0172456Y0017305D01*
X0172611Y0017274D01*
X0172766Y0017238D01*
X0172919Y0017199D01*
X0173071Y0017156D01*
X0173222Y0017109D01*
X0173372Y0017058D01*
X0173521Y0017003D01*
X0173668Y0016945D01*
X0173814Y0016883D01*
X0173958Y0016818D01*
X0174100Y0016748D01*
X0174241Y0016676D01*
X0174380Y0016599D01*
X0174516Y0016520D01*
X0174651Y0016436D01*
X0174784Y0016350D01*
X0174914Y0016260D01*
X0175042Y0016167D01*
X0175168Y0016071D01*
X0175291Y0015971D01*
X0175412Y0015869D01*
X0175530Y0015764D01*
X0175645Y0015655D01*
X0175758Y0015544D01*
X0175868Y0015430D01*
X0175975Y0015313D01*
X0176079Y0015194D01*
X0176180Y0015072D01*
X0176277Y0014947D01*
X0176372Y0014820D01*
X0176463Y0014691D01*
X0176552Y0014560D01*
X0176636Y0014426D01*
X0176718Y0014290D01*
X0176796Y0014153D01*
X0176870Y0014013D01*
X0176941Y0013871D01*
X0177009Y0013728D01*
X0177073Y0013583D01*
X0177133Y0013437D01*
X0177189Y0013289D01*
X0177242Y0013140D01*
X0177291Y0012989D01*
X0177336Y0012837D01*
X0177377Y0012684D01*
X0177415Y0012531D01*
X0177448Y0012376D01*
X0177478Y0012220D01*
X0177504Y0012064D01*
X0177525Y0011907D01*
X0177543Y0011750D01*
X0177557Y0011592D01*
X0177567Y0011434D01*
X0177573Y0011276D01*
X0177575Y0011118D01*
X0177573Y0010960D01*
X0177567Y0010802D01*
X0177557Y0010644D01*
X0177543Y0010486D01*
X0177525Y0010329D01*
X0177504Y0010172D01*
X0177478Y0010016D01*
X0177448Y0009860D01*
X0177415Y0009705D01*
X0177377Y0009552D01*
X0177336Y0009399D01*
X0177291Y0009247D01*
X0177242Y0009096D01*
X0177189Y0008947D01*
X0177133Y0008799D01*
X0177073Y0008653D01*
X0177009Y0008508D01*
X0176941Y0008365D01*
X0176870Y0008223D01*
X0176796Y0008083D01*
X0176718Y0007946D01*
X0176636Y0007810D01*
X0176552Y0007676D01*
X0176463Y0007545D01*
X0176372Y0007416D01*
X0176277Y0007289D01*
X0176180Y0007164D01*
X0176079Y0007042D01*
X0175975Y0006923D01*
X0175868Y0006806D01*
X0175758Y0006692D01*
X0175645Y0006581D01*
X0175530Y0006472D01*
X0175412Y0006367D01*
X0175291Y0006265D01*
X0175168Y0006165D01*
X0175042Y0006069D01*
X0174914Y0005976D01*
X0174784Y0005886D01*
X0174651Y0005800D01*
X0174516Y0005716D01*
X0174380Y0005637D01*
X0174241Y0005560D01*
X0174100Y0005488D01*
X0173958Y0005418D01*
X0173814Y0005353D01*
X0173668Y0005291D01*
X0173521Y0005233D01*
X0173372Y0005178D01*
X0173222Y0005127D01*
X0173071Y0005080D01*
X0172919Y0005037D01*
X0172766Y0004998D01*
X0172611Y0004962D01*
X0172456Y0004931D01*
X0172300Y0004903D01*
X0172144Y0004879D01*
X0171987Y0004859D01*
X0171829Y0004843D01*
X0171672Y0004831D01*
X0171513Y0004823D01*
X0171355Y0004819D01*
X0171197Y0004819D01*
X0171039Y0004823D01*
X0170880Y0004831D01*
X0170723Y0004843D01*
X0170565Y0004859D01*
X0170408Y0004879D01*
X0170252Y0004903D01*
X0170096Y0004931D01*
X0169941Y0004962D01*
X0169786Y0004998D01*
X0169633Y0005037D01*
X0169481Y0005080D01*
X0169330Y0005127D01*
X0169180Y0005178D01*
X0169031Y0005233D01*
X0168884Y0005291D01*
X0168738Y0005353D01*
X0168594Y0005418D01*
X0168452Y0005488D01*
X0168311Y0005560D01*
X0168172Y0005637D01*
X0168036Y0005716D01*
X0167901Y0005800D01*
X0167768Y0005886D01*
X0167638Y0005976D01*
X0167510Y0006069D01*
X0167384Y0006165D01*
X0167261Y0006265D01*
X0167140Y0006367D01*
X0167022Y0006472D01*
X0166907Y0006581D01*
X0166794Y0006692D01*
X0166684Y0006806D01*
X0166577Y0006923D01*
X0166473Y0007042D01*
X0166372Y0007164D01*
X0166275Y0007289D01*
X0166180Y0007416D01*
X0166089Y0007545D01*
X0166000Y0007676D01*
X0165916Y0007810D01*
X0165834Y0007946D01*
X0165756Y0008083D01*
X0165682Y0008223D01*
X0165611Y0008365D01*
X0165543Y0008508D01*
X0165479Y0008653D01*
X0165419Y0008799D01*
X0165363Y0008947D01*
X0165310Y0009096D01*
X0165261Y0009247D01*
X0165216Y0009399D01*
X0165175Y0009552D01*
X0165137Y0009705D01*
X0165104Y0009860D01*
X0165074Y0010016D01*
X0165048Y0010172D01*
X0165027Y0010329D01*
X0165009Y0010486D01*
X0164995Y0010644D01*
X0164985Y0010802D01*
X0164979Y0010960D01*
X0164977Y0011118D01*
X0149664Y0327874D02*
X0149666Y0328028D01*
X0149672Y0328182D01*
X0149682Y0328335D01*
X0149696Y0328488D01*
X0149714Y0328641D01*
X0149735Y0328793D01*
X0149761Y0328945D01*
X0149791Y0329096D01*
X0149824Y0329246D01*
X0149862Y0329395D01*
X0149903Y0329544D01*
X0149948Y0329691D01*
X0149997Y0329837D01*
X0150050Y0329981D01*
X0150106Y0330124D01*
X0150166Y0330266D01*
X0150230Y0330406D01*
X0150297Y0330544D01*
X0150368Y0330681D01*
X0150442Y0330816D01*
X0150520Y0330948D01*
X0150601Y0331079D01*
X0150686Y0331208D01*
X0150773Y0331334D01*
X0150864Y0331458D01*
X0150959Y0331579D01*
X0151056Y0331699D01*
X0151156Y0331815D01*
X0151260Y0331929D01*
X0151366Y0332040D01*
X0151475Y0332149D01*
X0151587Y0332254D01*
X0151702Y0332357D01*
X0151819Y0332457D01*
X0151939Y0332553D01*
X0152061Y0332647D01*
X0152185Y0332737D01*
X0152312Y0332824D01*
X0152441Y0332908D01*
X0152573Y0332988D01*
X0152706Y0333065D01*
X0152841Y0333138D01*
X0152978Y0333208D01*
X0153117Y0333275D01*
X0153257Y0333337D01*
X0153399Y0333396D01*
X0153543Y0333452D01*
X0153688Y0333504D01*
X0153834Y0333551D01*
X0153981Y0333596D01*
X0154130Y0333636D01*
X0154279Y0333672D01*
X0154430Y0333705D01*
X0154581Y0333734D01*
X0154733Y0333758D01*
X0154885Y0333779D01*
X0155038Y0333796D01*
X0155191Y0333809D01*
X0155345Y0333818D01*
X0155499Y0333823D01*
X0155652Y0333824D01*
X0155806Y0333821D01*
X0155960Y0333814D01*
X0156113Y0333803D01*
X0156267Y0333788D01*
X0156419Y0333769D01*
X0156571Y0333746D01*
X0156723Y0333720D01*
X0156874Y0333689D01*
X0157024Y0333655D01*
X0157173Y0333616D01*
X0157320Y0333574D01*
X0157467Y0333528D01*
X0157613Y0333478D01*
X0157757Y0333425D01*
X0157900Y0333367D01*
X0158041Y0333306D01*
X0158181Y0333242D01*
X0158319Y0333174D01*
X0158455Y0333102D01*
X0158589Y0333027D01*
X0158721Y0332948D01*
X0158851Y0332866D01*
X0158979Y0332781D01*
X0159105Y0332692D01*
X0159228Y0332600D01*
X0159349Y0332505D01*
X0159468Y0332407D01*
X0159584Y0332306D01*
X0159697Y0332202D01*
X0159808Y0332095D01*
X0159915Y0331985D01*
X0160020Y0331872D01*
X0160122Y0331757D01*
X0160221Y0331639D01*
X0160317Y0331519D01*
X0160410Y0331396D01*
X0160499Y0331271D01*
X0160585Y0331144D01*
X0160668Y0331014D01*
X0160748Y0330882D01*
X0160824Y0330749D01*
X0160896Y0330613D01*
X0160965Y0330475D01*
X0161031Y0330336D01*
X0161093Y0330195D01*
X0161151Y0330053D01*
X0161205Y0329909D01*
X0161256Y0329764D01*
X0161303Y0329617D01*
X0161346Y0329470D01*
X0161385Y0329321D01*
X0161421Y0329171D01*
X0161452Y0329021D01*
X0161480Y0328869D01*
X0161504Y0328717D01*
X0161524Y0328565D01*
X0161540Y0328412D01*
X0161552Y0328258D01*
X0161560Y0328105D01*
X0161564Y0327951D01*
X0161564Y0327797D01*
X0161560Y0327643D01*
X0161552Y0327490D01*
X0161540Y0327336D01*
X0161524Y0327183D01*
X0161504Y0327031D01*
X0161480Y0326879D01*
X0161452Y0326727D01*
X0161421Y0326577D01*
X0161385Y0326427D01*
X0161346Y0326278D01*
X0161303Y0326131D01*
X0161256Y0325984D01*
X0161205Y0325839D01*
X0161151Y0325695D01*
X0161093Y0325553D01*
X0161031Y0325412D01*
X0160965Y0325273D01*
X0160896Y0325135D01*
X0160824Y0324999D01*
X0160748Y0324866D01*
X0160668Y0324734D01*
X0160585Y0324604D01*
X0160499Y0324477D01*
X0160410Y0324352D01*
X0160317Y0324229D01*
X0160221Y0324109D01*
X0160122Y0323991D01*
X0160020Y0323876D01*
X0159915Y0323763D01*
X0159808Y0323653D01*
X0159697Y0323546D01*
X0159584Y0323442D01*
X0159468Y0323341D01*
X0159349Y0323243D01*
X0159228Y0323148D01*
X0159105Y0323056D01*
X0158979Y0322967D01*
X0158851Y0322882D01*
X0158721Y0322800D01*
X0158589Y0322721D01*
X0158455Y0322646D01*
X0158319Y0322574D01*
X0158181Y0322506D01*
X0158041Y0322442D01*
X0157900Y0322381D01*
X0157757Y0322323D01*
X0157613Y0322270D01*
X0157467Y0322220D01*
X0157320Y0322174D01*
X0157173Y0322132D01*
X0157024Y0322093D01*
X0156874Y0322059D01*
X0156723Y0322028D01*
X0156571Y0322002D01*
X0156419Y0321979D01*
X0156267Y0321960D01*
X0156113Y0321945D01*
X0155960Y0321934D01*
X0155806Y0321927D01*
X0155652Y0321924D01*
X0155499Y0321925D01*
X0155345Y0321930D01*
X0155191Y0321939D01*
X0155038Y0321952D01*
X0154885Y0321969D01*
X0154733Y0321990D01*
X0154581Y0322014D01*
X0154430Y0322043D01*
X0154279Y0322076D01*
X0154130Y0322112D01*
X0153981Y0322152D01*
X0153834Y0322197D01*
X0153688Y0322244D01*
X0153543Y0322296D01*
X0153399Y0322352D01*
X0153257Y0322411D01*
X0153117Y0322473D01*
X0152978Y0322540D01*
X0152841Y0322610D01*
X0152706Y0322683D01*
X0152573Y0322760D01*
X0152441Y0322840D01*
X0152312Y0322924D01*
X0152185Y0323011D01*
X0152061Y0323101D01*
X0151939Y0323195D01*
X0151819Y0323291D01*
X0151702Y0323391D01*
X0151587Y0323494D01*
X0151475Y0323599D01*
X0151366Y0323708D01*
X0151260Y0323819D01*
X0151156Y0323933D01*
X0151056Y0324049D01*
X0150959Y0324169D01*
X0150864Y0324290D01*
X0150773Y0324414D01*
X0150686Y0324540D01*
X0150601Y0324669D01*
X0150520Y0324800D01*
X0150442Y0324932D01*
X0150368Y0325067D01*
X0150297Y0325204D01*
X0150230Y0325342D01*
X0150166Y0325482D01*
X0150106Y0325624D01*
X0150050Y0325767D01*
X0149997Y0325911D01*
X0149948Y0326057D01*
X0149903Y0326204D01*
X0149862Y0326353D01*
X0149824Y0326502D01*
X0149791Y0326652D01*
X0149761Y0326803D01*
X0149735Y0326955D01*
X0149714Y0327107D01*
X0149696Y0327260D01*
X0149682Y0327413D01*
X0149672Y0327566D01*
X0149666Y0327720D01*
X0149664Y0327874D01*
X0155614Y0321874D02*
X0155767Y0321876D01*
X0155920Y0321882D01*
X0156073Y0321892D01*
X0156226Y0321905D01*
X0156378Y0321923D01*
X0156530Y0321944D01*
X0156681Y0321970D01*
X0156831Y0321999D01*
X0156981Y0322032D01*
X0157130Y0322069D01*
X0157278Y0322109D01*
X0157424Y0322154D01*
X0157570Y0322202D01*
X0157714Y0322254D01*
X0157857Y0322309D01*
X0157998Y0322368D01*
X0158138Y0322431D01*
X0158276Y0322497D01*
X0158413Y0322567D01*
X0158547Y0322640D01*
X0158680Y0322717D01*
X0158811Y0322797D01*
X0158939Y0322880D01*
X0159066Y0322966D01*
X0159190Y0323056D01*
X0159312Y0323149D01*
X0159431Y0323245D01*
X0159548Y0323344D01*
X0159663Y0323446D01*
X0159775Y0323551D01*
X0159884Y0323659D01*
X0159990Y0323769D01*
X0160093Y0323882D01*
X0160194Y0323998D01*
X0160291Y0324116D01*
X0160386Y0324237D01*
X0160477Y0324360D01*
X0160565Y0324485D01*
X0160650Y0324613D01*
X0160732Y0324742D01*
X0160810Y0324874D01*
X0160885Y0325008D01*
X0160957Y0325143D01*
X0161025Y0325281D01*
X0161089Y0325420D01*
X0161150Y0325560D01*
X0161207Y0325702D01*
X0161261Y0325846D01*
X0161311Y0325991D01*
X0161357Y0326137D01*
X0161400Y0326284D01*
X0161438Y0326432D01*
X0161473Y0326582D01*
X0161504Y0326732D01*
X0161532Y0326882D01*
X0161555Y0327034D01*
X0161574Y0327186D01*
X0161590Y0327338D01*
X0161602Y0327491D01*
X0161610Y0327644D01*
X0161614Y0327797D01*
X0161614Y0327951D01*
X0161610Y0328104D01*
X0161602Y0328257D01*
X0161590Y0328410D01*
X0161574Y0328562D01*
X0161555Y0328714D01*
X0161532Y0328866D01*
X0161504Y0329016D01*
X0161473Y0329166D01*
X0161438Y0329316D01*
X0161400Y0329464D01*
X0161357Y0329611D01*
X0161311Y0329757D01*
X0161261Y0329902D01*
X0161207Y0330046D01*
X0161150Y0330188D01*
X0161089Y0330328D01*
X0161025Y0330467D01*
X0160957Y0330605D01*
X0160885Y0330740D01*
X0160810Y0330874D01*
X0160732Y0331006D01*
X0160650Y0331135D01*
X0160565Y0331263D01*
X0160477Y0331388D01*
X0160386Y0331511D01*
X0160291Y0331632D01*
X0160194Y0331750D01*
X0160093Y0331866D01*
X0159990Y0331979D01*
X0159884Y0332089D01*
X0159775Y0332197D01*
X0159663Y0332302D01*
X0159548Y0332404D01*
X0159431Y0332503D01*
X0159312Y0332599D01*
X0159190Y0332692D01*
X0159066Y0332782D01*
X0158939Y0332868D01*
X0158811Y0332951D01*
X0158680Y0333031D01*
X0158547Y0333108D01*
X0158413Y0333181D01*
X0158276Y0333251D01*
X0158138Y0333317D01*
X0157998Y0333380D01*
X0157857Y0333439D01*
X0157714Y0333494D01*
X0157570Y0333546D01*
X0157424Y0333594D01*
X0157278Y0333639D01*
X0157130Y0333679D01*
X0156981Y0333716D01*
X0156831Y0333749D01*
X0156681Y0333778D01*
X0156530Y0333804D01*
X0156378Y0333825D01*
X0156226Y0333843D01*
X0156073Y0333856D01*
X0155920Y0333866D01*
X0155767Y0333872D01*
X0155614Y0333874D01*
X0135664Y0327874D02*
X0135666Y0328028D01*
X0135672Y0328182D01*
X0135682Y0328335D01*
X0135696Y0328488D01*
X0135714Y0328641D01*
X0135735Y0328793D01*
X0135761Y0328945D01*
X0135791Y0329096D01*
X0135824Y0329246D01*
X0135862Y0329395D01*
X0135903Y0329544D01*
X0135948Y0329691D01*
X0135997Y0329837D01*
X0136050Y0329981D01*
X0136106Y0330124D01*
X0136166Y0330266D01*
X0136230Y0330406D01*
X0136297Y0330544D01*
X0136368Y0330681D01*
X0136442Y0330816D01*
X0136520Y0330948D01*
X0136601Y0331079D01*
X0136686Y0331208D01*
X0136773Y0331334D01*
X0136864Y0331458D01*
X0136959Y0331579D01*
X0137056Y0331699D01*
X0137156Y0331815D01*
X0137260Y0331929D01*
X0137366Y0332040D01*
X0137475Y0332149D01*
X0137587Y0332254D01*
X0137702Y0332357D01*
X0137819Y0332457D01*
X0137939Y0332553D01*
X0138061Y0332647D01*
X0138185Y0332737D01*
X0138312Y0332824D01*
X0138441Y0332908D01*
X0138573Y0332988D01*
X0138706Y0333065D01*
X0138841Y0333138D01*
X0138978Y0333208D01*
X0139117Y0333275D01*
X0139257Y0333337D01*
X0139399Y0333396D01*
X0139543Y0333452D01*
X0139688Y0333504D01*
X0139834Y0333551D01*
X0139981Y0333596D01*
X0140130Y0333636D01*
X0140279Y0333672D01*
X0140430Y0333705D01*
X0140581Y0333734D01*
X0140733Y0333758D01*
X0140885Y0333779D01*
X0141038Y0333796D01*
X0141191Y0333809D01*
X0141345Y0333818D01*
X0141499Y0333823D01*
X0141652Y0333824D01*
X0141806Y0333821D01*
X0141960Y0333814D01*
X0142113Y0333803D01*
X0142267Y0333788D01*
X0142419Y0333769D01*
X0142571Y0333746D01*
X0142723Y0333720D01*
X0142874Y0333689D01*
X0143024Y0333655D01*
X0143173Y0333616D01*
X0143320Y0333574D01*
X0143467Y0333528D01*
X0143613Y0333478D01*
X0143757Y0333425D01*
X0143900Y0333367D01*
X0144041Y0333306D01*
X0144181Y0333242D01*
X0144319Y0333174D01*
X0144455Y0333102D01*
X0144589Y0333027D01*
X0144721Y0332948D01*
X0144851Y0332866D01*
X0144979Y0332781D01*
X0145105Y0332692D01*
X0145228Y0332600D01*
X0145349Y0332505D01*
X0145468Y0332407D01*
X0145584Y0332306D01*
X0145697Y0332202D01*
X0145808Y0332095D01*
X0145915Y0331985D01*
X0146020Y0331872D01*
X0146122Y0331757D01*
X0146221Y0331639D01*
X0146317Y0331519D01*
X0146410Y0331396D01*
X0146499Y0331271D01*
X0146585Y0331144D01*
X0146668Y0331014D01*
X0146748Y0330882D01*
X0146824Y0330749D01*
X0146896Y0330613D01*
X0146965Y0330475D01*
X0147031Y0330336D01*
X0147093Y0330195D01*
X0147151Y0330053D01*
X0147205Y0329909D01*
X0147256Y0329764D01*
X0147303Y0329617D01*
X0147346Y0329470D01*
X0147385Y0329321D01*
X0147421Y0329171D01*
X0147452Y0329021D01*
X0147480Y0328869D01*
X0147504Y0328717D01*
X0147524Y0328565D01*
X0147540Y0328412D01*
X0147552Y0328258D01*
X0147560Y0328105D01*
X0147564Y0327951D01*
X0147564Y0327797D01*
X0147560Y0327643D01*
X0147552Y0327490D01*
X0147540Y0327336D01*
X0147524Y0327183D01*
X0147504Y0327031D01*
X0147480Y0326879D01*
X0147452Y0326727D01*
X0147421Y0326577D01*
X0147385Y0326427D01*
X0147346Y0326278D01*
X0147303Y0326131D01*
X0147256Y0325984D01*
X0147205Y0325839D01*
X0147151Y0325695D01*
X0147093Y0325553D01*
X0147031Y0325412D01*
X0146965Y0325273D01*
X0146896Y0325135D01*
X0146824Y0324999D01*
X0146748Y0324866D01*
X0146668Y0324734D01*
X0146585Y0324604D01*
X0146499Y0324477D01*
X0146410Y0324352D01*
X0146317Y0324229D01*
X0146221Y0324109D01*
X0146122Y0323991D01*
X0146020Y0323876D01*
X0145915Y0323763D01*
X0145808Y0323653D01*
X0145697Y0323546D01*
X0145584Y0323442D01*
X0145468Y0323341D01*
X0145349Y0323243D01*
X0145228Y0323148D01*
X0145105Y0323056D01*
X0144979Y0322967D01*
X0144851Y0322882D01*
X0144721Y0322800D01*
X0144589Y0322721D01*
X0144455Y0322646D01*
X0144319Y0322574D01*
X0144181Y0322506D01*
X0144041Y0322442D01*
X0143900Y0322381D01*
X0143757Y0322323D01*
X0143613Y0322270D01*
X0143467Y0322220D01*
X0143320Y0322174D01*
X0143173Y0322132D01*
X0143024Y0322093D01*
X0142874Y0322059D01*
X0142723Y0322028D01*
X0142571Y0322002D01*
X0142419Y0321979D01*
X0142267Y0321960D01*
X0142113Y0321945D01*
X0141960Y0321934D01*
X0141806Y0321927D01*
X0141652Y0321924D01*
X0141499Y0321925D01*
X0141345Y0321930D01*
X0141191Y0321939D01*
X0141038Y0321952D01*
X0140885Y0321969D01*
X0140733Y0321990D01*
X0140581Y0322014D01*
X0140430Y0322043D01*
X0140279Y0322076D01*
X0140130Y0322112D01*
X0139981Y0322152D01*
X0139834Y0322197D01*
X0139688Y0322244D01*
X0139543Y0322296D01*
X0139399Y0322352D01*
X0139257Y0322411D01*
X0139117Y0322473D01*
X0138978Y0322540D01*
X0138841Y0322610D01*
X0138706Y0322683D01*
X0138573Y0322760D01*
X0138441Y0322840D01*
X0138312Y0322924D01*
X0138185Y0323011D01*
X0138061Y0323101D01*
X0137939Y0323195D01*
X0137819Y0323291D01*
X0137702Y0323391D01*
X0137587Y0323494D01*
X0137475Y0323599D01*
X0137366Y0323708D01*
X0137260Y0323819D01*
X0137156Y0323933D01*
X0137056Y0324049D01*
X0136959Y0324169D01*
X0136864Y0324290D01*
X0136773Y0324414D01*
X0136686Y0324540D01*
X0136601Y0324669D01*
X0136520Y0324800D01*
X0136442Y0324932D01*
X0136368Y0325067D01*
X0136297Y0325204D01*
X0136230Y0325342D01*
X0136166Y0325482D01*
X0136106Y0325624D01*
X0136050Y0325767D01*
X0135997Y0325911D01*
X0135948Y0326057D01*
X0135903Y0326204D01*
X0135862Y0326353D01*
X0135824Y0326502D01*
X0135791Y0326652D01*
X0135761Y0326803D01*
X0135735Y0326955D01*
X0135714Y0327107D01*
X0135696Y0327260D01*
X0135682Y0327413D01*
X0135672Y0327566D01*
X0135666Y0327720D01*
X0135664Y0327874D01*
X0141614Y0333874D02*
X0141461Y0333872D01*
X0141308Y0333866D01*
X0141155Y0333856D01*
X0141002Y0333843D01*
X0140850Y0333825D01*
X0140698Y0333804D01*
X0140547Y0333778D01*
X0140397Y0333749D01*
X0140247Y0333716D01*
X0140098Y0333679D01*
X0139950Y0333639D01*
X0139804Y0333594D01*
X0139658Y0333546D01*
X0139514Y0333494D01*
X0139371Y0333439D01*
X0139230Y0333380D01*
X0139090Y0333317D01*
X0138952Y0333251D01*
X0138815Y0333181D01*
X0138681Y0333108D01*
X0138548Y0333031D01*
X0138417Y0332951D01*
X0138289Y0332868D01*
X0138162Y0332782D01*
X0138038Y0332692D01*
X0137916Y0332599D01*
X0137797Y0332503D01*
X0137680Y0332404D01*
X0137565Y0332302D01*
X0137453Y0332197D01*
X0137344Y0332089D01*
X0137238Y0331979D01*
X0137135Y0331866D01*
X0137034Y0331750D01*
X0136937Y0331632D01*
X0136842Y0331511D01*
X0136751Y0331388D01*
X0136663Y0331263D01*
X0136578Y0331135D01*
X0136496Y0331006D01*
X0136418Y0330874D01*
X0136343Y0330740D01*
X0136271Y0330605D01*
X0136203Y0330467D01*
X0136139Y0330328D01*
X0136078Y0330188D01*
X0136021Y0330046D01*
X0135967Y0329902D01*
X0135917Y0329757D01*
X0135871Y0329611D01*
X0135828Y0329464D01*
X0135790Y0329316D01*
X0135755Y0329166D01*
X0135724Y0329016D01*
X0135696Y0328866D01*
X0135673Y0328714D01*
X0135654Y0328562D01*
X0135638Y0328410D01*
X0135626Y0328257D01*
X0135618Y0328104D01*
X0135614Y0327951D01*
X0135614Y0327797D01*
X0135618Y0327644D01*
X0135626Y0327491D01*
X0135638Y0327338D01*
X0135654Y0327186D01*
X0135673Y0327034D01*
X0135696Y0326882D01*
X0135724Y0326732D01*
X0135755Y0326582D01*
X0135790Y0326432D01*
X0135828Y0326284D01*
X0135871Y0326137D01*
X0135917Y0325991D01*
X0135967Y0325846D01*
X0136021Y0325702D01*
X0136078Y0325560D01*
X0136139Y0325420D01*
X0136203Y0325281D01*
X0136271Y0325143D01*
X0136343Y0325008D01*
X0136418Y0324874D01*
X0136496Y0324742D01*
X0136578Y0324613D01*
X0136663Y0324485D01*
X0136751Y0324360D01*
X0136842Y0324237D01*
X0136937Y0324116D01*
X0137034Y0323998D01*
X0137135Y0323882D01*
X0137238Y0323769D01*
X0137344Y0323659D01*
X0137453Y0323551D01*
X0137565Y0323446D01*
X0137680Y0323344D01*
X0137797Y0323245D01*
X0137916Y0323149D01*
X0138038Y0323056D01*
X0138162Y0322966D01*
X0138289Y0322880D01*
X0138417Y0322797D01*
X0138548Y0322717D01*
X0138681Y0322640D01*
X0138815Y0322567D01*
X0138952Y0322497D01*
X0139090Y0322431D01*
X0139230Y0322368D01*
X0139371Y0322309D01*
X0139514Y0322254D01*
X0139658Y0322202D01*
X0139804Y0322154D01*
X0139950Y0322109D01*
X0140098Y0322069D01*
X0140247Y0322032D01*
X0140397Y0321999D01*
X0140547Y0321970D01*
X0140698Y0321944D01*
X0140850Y0321923D01*
X0141002Y0321905D01*
X0141155Y0321892D01*
X0141308Y0321882D01*
X0141461Y0321876D01*
X0141614Y0321874D01*
X0164977Y0345764D02*
X0164979Y0345922D01*
X0164985Y0346080D01*
X0164995Y0346238D01*
X0165009Y0346396D01*
X0165027Y0346553D01*
X0165048Y0346710D01*
X0165074Y0346866D01*
X0165104Y0347022D01*
X0165137Y0347177D01*
X0165175Y0347330D01*
X0165216Y0347483D01*
X0165261Y0347635D01*
X0165310Y0347786D01*
X0165363Y0347935D01*
X0165419Y0348083D01*
X0165479Y0348229D01*
X0165543Y0348374D01*
X0165611Y0348517D01*
X0165682Y0348659D01*
X0165756Y0348799D01*
X0165834Y0348936D01*
X0165916Y0349072D01*
X0166000Y0349206D01*
X0166089Y0349337D01*
X0166180Y0349466D01*
X0166275Y0349593D01*
X0166372Y0349718D01*
X0166473Y0349840D01*
X0166577Y0349959D01*
X0166684Y0350076D01*
X0166794Y0350190D01*
X0166907Y0350301D01*
X0167022Y0350410D01*
X0167140Y0350515D01*
X0167261Y0350617D01*
X0167384Y0350717D01*
X0167510Y0350813D01*
X0167638Y0350906D01*
X0167768Y0350996D01*
X0167901Y0351082D01*
X0168036Y0351166D01*
X0168172Y0351245D01*
X0168311Y0351322D01*
X0168452Y0351394D01*
X0168594Y0351464D01*
X0168738Y0351529D01*
X0168884Y0351591D01*
X0169031Y0351649D01*
X0169180Y0351704D01*
X0169330Y0351755D01*
X0169481Y0351802D01*
X0169633Y0351845D01*
X0169786Y0351884D01*
X0169941Y0351920D01*
X0170096Y0351951D01*
X0170252Y0351979D01*
X0170408Y0352003D01*
X0170565Y0352023D01*
X0170723Y0352039D01*
X0170880Y0352051D01*
X0171039Y0352059D01*
X0171197Y0352063D01*
X0171355Y0352063D01*
X0171513Y0352059D01*
X0171672Y0352051D01*
X0171829Y0352039D01*
X0171987Y0352023D01*
X0172144Y0352003D01*
X0172300Y0351979D01*
X0172456Y0351951D01*
X0172611Y0351920D01*
X0172766Y0351884D01*
X0172919Y0351845D01*
X0173071Y0351802D01*
X0173222Y0351755D01*
X0173372Y0351704D01*
X0173521Y0351649D01*
X0173668Y0351591D01*
X0173814Y0351529D01*
X0173958Y0351464D01*
X0174100Y0351394D01*
X0174241Y0351322D01*
X0174380Y0351245D01*
X0174516Y0351166D01*
X0174651Y0351082D01*
X0174784Y0350996D01*
X0174914Y0350906D01*
X0175042Y0350813D01*
X0175168Y0350717D01*
X0175291Y0350617D01*
X0175412Y0350515D01*
X0175530Y0350410D01*
X0175645Y0350301D01*
X0175758Y0350190D01*
X0175868Y0350076D01*
X0175975Y0349959D01*
X0176079Y0349840D01*
X0176180Y0349718D01*
X0176277Y0349593D01*
X0176372Y0349466D01*
X0176463Y0349337D01*
X0176552Y0349206D01*
X0176636Y0349072D01*
X0176718Y0348936D01*
X0176796Y0348799D01*
X0176870Y0348659D01*
X0176941Y0348517D01*
X0177009Y0348374D01*
X0177073Y0348229D01*
X0177133Y0348083D01*
X0177189Y0347935D01*
X0177242Y0347786D01*
X0177291Y0347635D01*
X0177336Y0347483D01*
X0177377Y0347330D01*
X0177415Y0347177D01*
X0177448Y0347022D01*
X0177478Y0346866D01*
X0177504Y0346710D01*
X0177525Y0346553D01*
X0177543Y0346396D01*
X0177557Y0346238D01*
X0177567Y0346080D01*
X0177573Y0345922D01*
X0177575Y0345764D01*
X0177573Y0345606D01*
X0177567Y0345448D01*
X0177557Y0345290D01*
X0177543Y0345132D01*
X0177525Y0344975D01*
X0177504Y0344818D01*
X0177478Y0344662D01*
X0177448Y0344506D01*
X0177415Y0344351D01*
X0177377Y0344198D01*
X0177336Y0344045D01*
X0177291Y0343893D01*
X0177242Y0343742D01*
X0177189Y0343593D01*
X0177133Y0343445D01*
X0177073Y0343299D01*
X0177009Y0343154D01*
X0176941Y0343011D01*
X0176870Y0342869D01*
X0176796Y0342729D01*
X0176718Y0342592D01*
X0176636Y0342456D01*
X0176552Y0342322D01*
X0176463Y0342191D01*
X0176372Y0342062D01*
X0176277Y0341935D01*
X0176180Y0341810D01*
X0176079Y0341688D01*
X0175975Y0341569D01*
X0175868Y0341452D01*
X0175758Y0341338D01*
X0175645Y0341227D01*
X0175530Y0341118D01*
X0175412Y0341013D01*
X0175291Y0340911D01*
X0175168Y0340811D01*
X0175042Y0340715D01*
X0174914Y0340622D01*
X0174784Y0340532D01*
X0174651Y0340446D01*
X0174516Y0340362D01*
X0174380Y0340283D01*
X0174241Y0340206D01*
X0174100Y0340134D01*
X0173958Y0340064D01*
X0173814Y0339999D01*
X0173668Y0339937D01*
X0173521Y0339879D01*
X0173372Y0339824D01*
X0173222Y0339773D01*
X0173071Y0339726D01*
X0172919Y0339683D01*
X0172766Y0339644D01*
X0172611Y0339608D01*
X0172456Y0339577D01*
X0172300Y0339549D01*
X0172144Y0339525D01*
X0171987Y0339505D01*
X0171829Y0339489D01*
X0171672Y0339477D01*
X0171513Y0339469D01*
X0171355Y0339465D01*
X0171197Y0339465D01*
X0171039Y0339469D01*
X0170880Y0339477D01*
X0170723Y0339489D01*
X0170565Y0339505D01*
X0170408Y0339525D01*
X0170252Y0339549D01*
X0170096Y0339577D01*
X0169941Y0339608D01*
X0169786Y0339644D01*
X0169633Y0339683D01*
X0169481Y0339726D01*
X0169330Y0339773D01*
X0169180Y0339824D01*
X0169031Y0339879D01*
X0168884Y0339937D01*
X0168738Y0339999D01*
X0168594Y0340064D01*
X0168452Y0340134D01*
X0168311Y0340206D01*
X0168172Y0340283D01*
X0168036Y0340362D01*
X0167901Y0340446D01*
X0167768Y0340532D01*
X0167638Y0340622D01*
X0167510Y0340715D01*
X0167384Y0340811D01*
X0167261Y0340911D01*
X0167140Y0341013D01*
X0167022Y0341118D01*
X0166907Y0341227D01*
X0166794Y0341338D01*
X0166684Y0341452D01*
X0166577Y0341569D01*
X0166473Y0341688D01*
X0166372Y0341810D01*
X0166275Y0341935D01*
X0166180Y0342062D01*
X0166089Y0342191D01*
X0166000Y0342322D01*
X0165916Y0342456D01*
X0165834Y0342592D01*
X0165756Y0342729D01*
X0165682Y0342869D01*
X0165611Y0343011D01*
X0165543Y0343154D01*
X0165479Y0343299D01*
X0165419Y0343445D01*
X0165363Y0343593D01*
X0165310Y0343742D01*
X0165261Y0343893D01*
X0165216Y0344045D01*
X0165175Y0344198D01*
X0165137Y0344351D01*
X0165104Y0344506D01*
X0165074Y0344662D01*
X0165048Y0344818D01*
X0165027Y0344975D01*
X0165009Y0345132D01*
X0164995Y0345290D01*
X0164985Y0345448D01*
X0164979Y0345606D01*
X0164977Y0345764D01*
X0007496Y0345764D02*
X0007498Y0345922D01*
X0007504Y0346080D01*
X0007514Y0346238D01*
X0007528Y0346396D01*
X0007546Y0346553D01*
X0007567Y0346710D01*
X0007593Y0346866D01*
X0007623Y0347022D01*
X0007656Y0347177D01*
X0007694Y0347330D01*
X0007735Y0347483D01*
X0007780Y0347635D01*
X0007829Y0347786D01*
X0007882Y0347935D01*
X0007938Y0348083D01*
X0007998Y0348229D01*
X0008062Y0348374D01*
X0008130Y0348517D01*
X0008201Y0348659D01*
X0008275Y0348799D01*
X0008353Y0348936D01*
X0008435Y0349072D01*
X0008519Y0349206D01*
X0008608Y0349337D01*
X0008699Y0349466D01*
X0008794Y0349593D01*
X0008891Y0349718D01*
X0008992Y0349840D01*
X0009096Y0349959D01*
X0009203Y0350076D01*
X0009313Y0350190D01*
X0009426Y0350301D01*
X0009541Y0350410D01*
X0009659Y0350515D01*
X0009780Y0350617D01*
X0009903Y0350717D01*
X0010029Y0350813D01*
X0010157Y0350906D01*
X0010287Y0350996D01*
X0010420Y0351082D01*
X0010555Y0351166D01*
X0010691Y0351245D01*
X0010830Y0351322D01*
X0010971Y0351394D01*
X0011113Y0351464D01*
X0011257Y0351529D01*
X0011403Y0351591D01*
X0011550Y0351649D01*
X0011699Y0351704D01*
X0011849Y0351755D01*
X0012000Y0351802D01*
X0012152Y0351845D01*
X0012305Y0351884D01*
X0012460Y0351920D01*
X0012615Y0351951D01*
X0012771Y0351979D01*
X0012927Y0352003D01*
X0013084Y0352023D01*
X0013242Y0352039D01*
X0013399Y0352051D01*
X0013558Y0352059D01*
X0013716Y0352063D01*
X0013874Y0352063D01*
X0014032Y0352059D01*
X0014191Y0352051D01*
X0014348Y0352039D01*
X0014506Y0352023D01*
X0014663Y0352003D01*
X0014819Y0351979D01*
X0014975Y0351951D01*
X0015130Y0351920D01*
X0015285Y0351884D01*
X0015438Y0351845D01*
X0015590Y0351802D01*
X0015741Y0351755D01*
X0015891Y0351704D01*
X0016040Y0351649D01*
X0016187Y0351591D01*
X0016333Y0351529D01*
X0016477Y0351464D01*
X0016619Y0351394D01*
X0016760Y0351322D01*
X0016899Y0351245D01*
X0017035Y0351166D01*
X0017170Y0351082D01*
X0017303Y0350996D01*
X0017433Y0350906D01*
X0017561Y0350813D01*
X0017687Y0350717D01*
X0017810Y0350617D01*
X0017931Y0350515D01*
X0018049Y0350410D01*
X0018164Y0350301D01*
X0018277Y0350190D01*
X0018387Y0350076D01*
X0018494Y0349959D01*
X0018598Y0349840D01*
X0018699Y0349718D01*
X0018796Y0349593D01*
X0018891Y0349466D01*
X0018982Y0349337D01*
X0019071Y0349206D01*
X0019155Y0349072D01*
X0019237Y0348936D01*
X0019315Y0348799D01*
X0019389Y0348659D01*
X0019460Y0348517D01*
X0019528Y0348374D01*
X0019592Y0348229D01*
X0019652Y0348083D01*
X0019708Y0347935D01*
X0019761Y0347786D01*
X0019810Y0347635D01*
X0019855Y0347483D01*
X0019896Y0347330D01*
X0019934Y0347177D01*
X0019967Y0347022D01*
X0019997Y0346866D01*
X0020023Y0346710D01*
X0020044Y0346553D01*
X0020062Y0346396D01*
X0020076Y0346238D01*
X0020086Y0346080D01*
X0020092Y0345922D01*
X0020094Y0345764D01*
X0020092Y0345606D01*
X0020086Y0345448D01*
X0020076Y0345290D01*
X0020062Y0345132D01*
X0020044Y0344975D01*
X0020023Y0344818D01*
X0019997Y0344662D01*
X0019967Y0344506D01*
X0019934Y0344351D01*
X0019896Y0344198D01*
X0019855Y0344045D01*
X0019810Y0343893D01*
X0019761Y0343742D01*
X0019708Y0343593D01*
X0019652Y0343445D01*
X0019592Y0343299D01*
X0019528Y0343154D01*
X0019460Y0343011D01*
X0019389Y0342869D01*
X0019315Y0342729D01*
X0019237Y0342592D01*
X0019155Y0342456D01*
X0019071Y0342322D01*
X0018982Y0342191D01*
X0018891Y0342062D01*
X0018796Y0341935D01*
X0018699Y0341810D01*
X0018598Y0341688D01*
X0018494Y0341569D01*
X0018387Y0341452D01*
X0018277Y0341338D01*
X0018164Y0341227D01*
X0018049Y0341118D01*
X0017931Y0341013D01*
X0017810Y0340911D01*
X0017687Y0340811D01*
X0017561Y0340715D01*
X0017433Y0340622D01*
X0017303Y0340532D01*
X0017170Y0340446D01*
X0017035Y0340362D01*
X0016899Y0340283D01*
X0016760Y0340206D01*
X0016619Y0340134D01*
X0016477Y0340064D01*
X0016333Y0339999D01*
X0016187Y0339937D01*
X0016040Y0339879D01*
X0015891Y0339824D01*
X0015741Y0339773D01*
X0015590Y0339726D01*
X0015438Y0339683D01*
X0015285Y0339644D01*
X0015130Y0339608D01*
X0014975Y0339577D01*
X0014819Y0339549D01*
X0014663Y0339525D01*
X0014506Y0339505D01*
X0014348Y0339489D01*
X0014191Y0339477D01*
X0014032Y0339469D01*
X0013874Y0339465D01*
X0013716Y0339465D01*
X0013558Y0339469D01*
X0013399Y0339477D01*
X0013242Y0339489D01*
X0013084Y0339505D01*
X0012927Y0339525D01*
X0012771Y0339549D01*
X0012615Y0339577D01*
X0012460Y0339608D01*
X0012305Y0339644D01*
X0012152Y0339683D01*
X0012000Y0339726D01*
X0011849Y0339773D01*
X0011699Y0339824D01*
X0011550Y0339879D01*
X0011403Y0339937D01*
X0011257Y0339999D01*
X0011113Y0340064D01*
X0010971Y0340134D01*
X0010830Y0340206D01*
X0010691Y0340283D01*
X0010555Y0340362D01*
X0010420Y0340446D01*
X0010287Y0340532D01*
X0010157Y0340622D01*
X0010029Y0340715D01*
X0009903Y0340811D01*
X0009780Y0340911D01*
X0009659Y0341013D01*
X0009541Y0341118D01*
X0009426Y0341227D01*
X0009313Y0341338D01*
X0009203Y0341452D01*
X0009096Y0341569D01*
X0008992Y0341688D01*
X0008891Y0341810D01*
X0008794Y0341935D01*
X0008699Y0342062D01*
X0008608Y0342191D01*
X0008519Y0342322D01*
X0008435Y0342456D01*
X0008353Y0342592D01*
X0008275Y0342729D01*
X0008201Y0342869D01*
X0008130Y0343011D01*
X0008062Y0343154D01*
X0007998Y0343299D01*
X0007938Y0343445D01*
X0007882Y0343593D01*
X0007829Y0343742D01*
X0007780Y0343893D01*
X0007735Y0344045D01*
X0007694Y0344198D01*
X0007656Y0344351D01*
X0007623Y0344506D01*
X0007593Y0344662D01*
X0007567Y0344818D01*
X0007546Y0344975D01*
X0007528Y0345132D01*
X0007514Y0345290D01*
X0007504Y0345448D01*
X0007498Y0345606D01*
X0007496Y0345764D01*
D11*
X0014559Y0311591D02*
X0022559Y0311591D01*
X0023559Y0310591D01*
X0023559Y0302591D01*
X0022559Y0301591D01*
X0023559Y0300591D01*
X0023559Y0292591D01*
X0022559Y0291591D01*
X0023559Y0290591D01*
X0023559Y0282591D01*
X0022559Y0281591D01*
X0014559Y0281591D01*
X0013559Y0282591D01*
X0013559Y0290591D01*
X0014559Y0291591D01*
X0013559Y0292591D01*
X0013559Y0300591D01*
X0014559Y0301591D01*
X0013559Y0302591D01*
X0013559Y0310591D01*
X0014559Y0311591D01*
X0031417Y0303142D02*
X0031417Y0341142D01*
X0031419Y0341202D01*
X0031424Y0341263D01*
X0031433Y0341322D01*
X0031446Y0341381D01*
X0031462Y0341440D01*
X0031482Y0341497D01*
X0031505Y0341552D01*
X0031532Y0341607D01*
X0031561Y0341659D01*
X0031594Y0341710D01*
X0031630Y0341759D01*
X0031668Y0341805D01*
X0031710Y0341849D01*
X0031754Y0341891D01*
X0031800Y0341929D01*
X0031849Y0341965D01*
X0031900Y0341998D01*
X0031952Y0342027D01*
X0032007Y0342054D01*
X0032062Y0342077D01*
X0032119Y0342097D01*
X0032178Y0342113D01*
X0032237Y0342126D01*
X0032296Y0342135D01*
X0032357Y0342140D01*
X0032417Y0342142D01*
X0042417Y0342142D01*
X0042477Y0342140D01*
X0042538Y0342135D01*
X0042597Y0342126D01*
X0042656Y0342113D01*
X0042715Y0342097D01*
X0042772Y0342077D01*
X0042827Y0342054D01*
X0042882Y0342027D01*
X0042934Y0341998D01*
X0042985Y0341965D01*
X0043034Y0341929D01*
X0043080Y0341891D01*
X0043124Y0341849D01*
X0043166Y0341805D01*
X0043204Y0341759D01*
X0043240Y0341710D01*
X0043273Y0341659D01*
X0043302Y0341607D01*
X0043329Y0341552D01*
X0043352Y0341497D01*
X0043372Y0341440D01*
X0043388Y0341381D01*
X0043401Y0341322D01*
X0043410Y0341263D01*
X0043415Y0341202D01*
X0043417Y0341142D01*
X0043417Y0303142D01*
X0043415Y0303082D01*
X0043410Y0303021D01*
X0043401Y0302962D01*
X0043388Y0302903D01*
X0043372Y0302844D01*
X0043352Y0302787D01*
X0043329Y0302732D01*
X0043302Y0302677D01*
X0043273Y0302625D01*
X0043240Y0302574D01*
X0043204Y0302525D01*
X0043166Y0302479D01*
X0043124Y0302435D01*
X0043080Y0302393D01*
X0043034Y0302355D01*
X0042985Y0302319D01*
X0042934Y0302286D01*
X0042882Y0302257D01*
X0042827Y0302230D01*
X0042772Y0302207D01*
X0042715Y0302187D01*
X0042656Y0302171D01*
X0042597Y0302158D01*
X0042538Y0302149D01*
X0042477Y0302144D01*
X0042417Y0302142D01*
X0032417Y0302142D01*
X0032357Y0302144D01*
X0032296Y0302149D01*
X0032237Y0302158D01*
X0032178Y0302171D01*
X0032119Y0302187D01*
X0032062Y0302207D01*
X0032007Y0302230D01*
X0031952Y0302257D01*
X0031900Y0302286D01*
X0031849Y0302319D01*
X0031800Y0302355D01*
X0031754Y0302393D01*
X0031710Y0302435D01*
X0031668Y0302479D01*
X0031630Y0302525D01*
X0031594Y0302574D01*
X0031561Y0302625D01*
X0031532Y0302677D01*
X0031505Y0302732D01*
X0031482Y0302787D01*
X0031462Y0302844D01*
X0031446Y0302903D01*
X0031433Y0302962D01*
X0031424Y0303021D01*
X0031419Y0303082D01*
X0031417Y0303142D01*
X0037417Y0312142D02*
X0037417Y0320142D01*
X0037417Y0324142D02*
X0037417Y0332142D01*
X0058224Y0322142D02*
X0063224Y0322142D01*
X0060724Y0319642D02*
X0060724Y0324642D01*
X0076224Y0322142D02*
X0077224Y0322142D01*
X0077224Y0327142D01*
X0079724Y0327142D01*
X0079724Y0317142D01*
X0077224Y0317142D01*
X0077224Y0322142D01*
X0053224Y0322142D02*
X0053232Y0322817D01*
X0053257Y0323491D01*
X0053299Y0324165D01*
X0053356Y0324837D01*
X0053431Y0325508D01*
X0053522Y0326177D01*
X0053629Y0326843D01*
X0053752Y0327507D01*
X0053892Y0328167D01*
X0054048Y0328824D01*
X0054220Y0329477D01*
X0054408Y0330125D01*
X0054612Y0330768D01*
X0054832Y0331406D01*
X0055067Y0332039D01*
X0055317Y0332666D01*
X0055583Y0333286D01*
X0055864Y0333900D01*
X0056160Y0334506D01*
X0056471Y0335105D01*
X0056797Y0335697D01*
X0057136Y0336280D01*
X0057491Y0336854D01*
X0057859Y0337420D01*
X0058240Y0337977D01*
X0058636Y0338524D01*
X0059044Y0339061D01*
X0059466Y0339588D01*
X0059901Y0340104D01*
X0060348Y0340610D01*
X0060807Y0341104D01*
X0061279Y0341587D01*
X0061762Y0342059D01*
X0062256Y0342518D01*
X0062762Y0342965D01*
X0063278Y0343400D01*
X0063805Y0343822D01*
X0064342Y0344230D01*
X0064889Y0344626D01*
X0065446Y0345007D01*
X0066012Y0345375D01*
X0066586Y0345730D01*
X0067169Y0346069D01*
X0067761Y0346395D01*
X0068360Y0346706D01*
X0068966Y0347002D01*
X0069580Y0347283D01*
X0070200Y0347549D01*
X0070827Y0347799D01*
X0071460Y0348034D01*
X0072098Y0348254D01*
X0072741Y0348458D01*
X0073389Y0348646D01*
X0074042Y0348818D01*
X0074699Y0348974D01*
X0075359Y0349114D01*
X0076023Y0349237D01*
X0076689Y0349344D01*
X0077358Y0349435D01*
X0078029Y0349510D01*
X0078701Y0349567D01*
X0079375Y0349609D01*
X0080049Y0349634D01*
X0080724Y0349642D01*
X0081399Y0349634D01*
X0082073Y0349609D01*
X0082747Y0349567D01*
X0083419Y0349510D01*
X0084090Y0349435D01*
X0084759Y0349344D01*
X0085425Y0349237D01*
X0086089Y0349114D01*
X0086749Y0348974D01*
X0087406Y0348818D01*
X0088059Y0348646D01*
X0088707Y0348458D01*
X0089350Y0348254D01*
X0089988Y0348034D01*
X0090621Y0347799D01*
X0091248Y0347549D01*
X0091868Y0347283D01*
X0092482Y0347002D01*
X0093088Y0346706D01*
X0093687Y0346395D01*
X0094279Y0346069D01*
X0094862Y0345730D01*
X0095436Y0345375D01*
X0096002Y0345007D01*
X0096559Y0344626D01*
X0097106Y0344230D01*
X0097643Y0343822D01*
X0098170Y0343400D01*
X0098686Y0342965D01*
X0099192Y0342518D01*
X0099686Y0342059D01*
X0100169Y0341587D01*
X0100641Y0341104D01*
X0101100Y0340610D01*
X0101547Y0340104D01*
X0101982Y0339588D01*
X0102404Y0339061D01*
X0102812Y0338524D01*
X0103208Y0337977D01*
X0103589Y0337420D01*
X0103957Y0336854D01*
X0104312Y0336280D01*
X0104651Y0335697D01*
X0104977Y0335105D01*
X0105288Y0334506D01*
X0105584Y0333900D01*
X0105865Y0333286D01*
X0106131Y0332666D01*
X0106381Y0332039D01*
X0106616Y0331406D01*
X0106836Y0330768D01*
X0107040Y0330125D01*
X0107228Y0329477D01*
X0107400Y0328824D01*
X0107556Y0328167D01*
X0107696Y0327507D01*
X0107819Y0326843D01*
X0107926Y0326177D01*
X0108017Y0325508D01*
X0108092Y0324837D01*
X0108149Y0324165D01*
X0108191Y0323491D01*
X0108216Y0322817D01*
X0108224Y0322142D01*
X0108216Y0321467D01*
X0108191Y0320793D01*
X0108149Y0320119D01*
X0108092Y0319447D01*
X0108017Y0318776D01*
X0107926Y0318107D01*
X0107819Y0317441D01*
X0107696Y0316777D01*
X0107556Y0316117D01*
X0107400Y0315460D01*
X0107228Y0314807D01*
X0107040Y0314159D01*
X0106836Y0313516D01*
X0106616Y0312878D01*
X0106381Y0312245D01*
X0106131Y0311618D01*
X0105865Y0310998D01*
X0105584Y0310384D01*
X0105288Y0309778D01*
X0104977Y0309179D01*
X0104651Y0308587D01*
X0104312Y0308004D01*
X0103957Y0307430D01*
X0103589Y0306864D01*
X0103208Y0306307D01*
X0102812Y0305760D01*
X0102404Y0305223D01*
X0101982Y0304696D01*
X0101547Y0304180D01*
X0101100Y0303674D01*
X0100641Y0303180D01*
X0100169Y0302697D01*
X0099686Y0302225D01*
X0099192Y0301766D01*
X0098686Y0301319D01*
X0098170Y0300884D01*
X0097643Y0300462D01*
X0097106Y0300054D01*
X0096559Y0299658D01*
X0096002Y0299277D01*
X0095436Y0298909D01*
X0094862Y0298554D01*
X0094279Y0298215D01*
X0093687Y0297889D01*
X0093088Y0297578D01*
X0092482Y0297282D01*
X0091868Y0297001D01*
X0091248Y0296735D01*
X0090621Y0296485D01*
X0089988Y0296250D01*
X0089350Y0296030D01*
X0088707Y0295826D01*
X0088059Y0295638D01*
X0087406Y0295466D01*
X0086749Y0295310D01*
X0086089Y0295170D01*
X0085425Y0295047D01*
X0084759Y0294940D01*
X0084090Y0294849D01*
X0083419Y0294774D01*
X0082747Y0294717D01*
X0082073Y0294675D01*
X0081399Y0294650D01*
X0080724Y0294642D01*
X0080049Y0294650D01*
X0079375Y0294675D01*
X0078701Y0294717D01*
X0078029Y0294774D01*
X0077358Y0294849D01*
X0076689Y0294940D01*
X0076023Y0295047D01*
X0075359Y0295170D01*
X0074699Y0295310D01*
X0074042Y0295466D01*
X0073389Y0295638D01*
X0072741Y0295826D01*
X0072098Y0296030D01*
X0071460Y0296250D01*
X0070827Y0296485D01*
X0070200Y0296735D01*
X0069580Y0297001D01*
X0068966Y0297282D01*
X0068360Y0297578D01*
X0067761Y0297889D01*
X0067169Y0298215D01*
X0066586Y0298554D01*
X0066012Y0298909D01*
X0065446Y0299277D01*
X0064889Y0299658D01*
X0064342Y0300054D01*
X0063805Y0300462D01*
X0063278Y0300884D01*
X0062762Y0301319D01*
X0062256Y0301766D01*
X0061762Y0302225D01*
X0061279Y0302697D01*
X0060807Y0303180D01*
X0060348Y0303674D01*
X0059901Y0304180D01*
X0059466Y0304696D01*
X0059044Y0305223D01*
X0058636Y0305760D01*
X0058240Y0306307D01*
X0057859Y0306864D01*
X0057491Y0307430D01*
X0057136Y0308004D01*
X0056797Y0308587D01*
X0056471Y0309179D01*
X0056160Y0309778D01*
X0055864Y0310384D01*
X0055583Y0310998D01*
X0055317Y0311618D01*
X0055067Y0312245D01*
X0054832Y0312878D01*
X0054612Y0313516D01*
X0054408Y0314159D01*
X0054220Y0314807D01*
X0054048Y0315460D01*
X0053892Y0316117D01*
X0053752Y0316777D01*
X0053629Y0317441D01*
X0053522Y0318107D01*
X0053431Y0318776D01*
X0053356Y0319447D01*
X0053299Y0320119D01*
X0053257Y0320793D01*
X0053232Y0321467D01*
X0053224Y0322142D01*
X0073984Y0282811D02*
X0079984Y0282811D01*
X0080044Y0282809D01*
X0080105Y0282804D01*
X0080164Y0282795D01*
X0080223Y0282782D01*
X0080282Y0282766D01*
X0080339Y0282746D01*
X0080394Y0282723D01*
X0080449Y0282696D01*
X0080501Y0282667D01*
X0080552Y0282634D01*
X0080601Y0282598D01*
X0080647Y0282560D01*
X0080691Y0282518D01*
X0080733Y0282474D01*
X0080771Y0282428D01*
X0080807Y0282379D01*
X0080840Y0282328D01*
X0080869Y0282276D01*
X0080896Y0282221D01*
X0080919Y0282166D01*
X0080939Y0282109D01*
X0080955Y0282050D01*
X0080968Y0281991D01*
X0080977Y0281932D01*
X0080982Y0281871D01*
X0080984Y0281811D01*
X0080984Y0280311D01*
X0080484Y0279811D01*
X0080484Y0265811D01*
X0080984Y0265311D01*
X0080984Y0263811D01*
X0080982Y0263751D01*
X0080977Y0263690D01*
X0080968Y0263631D01*
X0080955Y0263572D01*
X0080939Y0263513D01*
X0080919Y0263456D01*
X0080896Y0263401D01*
X0080869Y0263346D01*
X0080840Y0263294D01*
X0080807Y0263243D01*
X0080771Y0263194D01*
X0080733Y0263148D01*
X0080691Y0263104D01*
X0080647Y0263062D01*
X0080601Y0263024D01*
X0080552Y0262988D01*
X0080501Y0262955D01*
X0080449Y0262926D01*
X0080394Y0262899D01*
X0080339Y0262876D01*
X0080282Y0262856D01*
X0080223Y0262840D01*
X0080164Y0262827D01*
X0080105Y0262818D01*
X0080044Y0262813D01*
X0079984Y0262811D01*
X0073984Y0262811D01*
X0073924Y0262813D01*
X0073863Y0262818D01*
X0073804Y0262827D01*
X0073745Y0262840D01*
X0073686Y0262856D01*
X0073629Y0262876D01*
X0073574Y0262899D01*
X0073519Y0262926D01*
X0073467Y0262955D01*
X0073416Y0262988D01*
X0073367Y0263024D01*
X0073321Y0263062D01*
X0073277Y0263104D01*
X0073235Y0263148D01*
X0073197Y0263194D01*
X0073161Y0263243D01*
X0073128Y0263294D01*
X0073099Y0263346D01*
X0073072Y0263401D01*
X0073049Y0263456D01*
X0073029Y0263513D01*
X0073013Y0263572D01*
X0073000Y0263631D01*
X0072991Y0263690D01*
X0072986Y0263751D01*
X0072984Y0263811D01*
X0072984Y0265311D01*
X0073484Y0265811D01*
X0073484Y0279811D01*
X0072984Y0280311D01*
X0072984Y0281811D01*
X0072986Y0281871D01*
X0072991Y0281932D01*
X0073000Y0281991D01*
X0073013Y0282050D01*
X0073029Y0282109D01*
X0073049Y0282166D01*
X0073072Y0282221D01*
X0073099Y0282276D01*
X0073128Y0282328D01*
X0073161Y0282379D01*
X0073197Y0282428D01*
X0073235Y0282474D01*
X0073277Y0282518D01*
X0073321Y0282560D01*
X0073367Y0282598D01*
X0073416Y0282634D01*
X0073467Y0282667D01*
X0073519Y0282696D01*
X0073574Y0282723D01*
X0073629Y0282746D01*
X0073686Y0282766D01*
X0073745Y0282782D01*
X0073804Y0282795D01*
X0073863Y0282804D01*
X0073924Y0282809D01*
X0073984Y0282811D01*
X0083224Y0322142D02*
X0085224Y0322142D01*
X0115114Y0300374D02*
X0115114Y0297374D01*
X0117614Y0294874D01*
X0115114Y0300374D02*
X0117614Y0302874D01*
X0117614Y0287874D02*
X0115114Y0285374D01*
X0115114Y0282374D01*
X0117614Y0279874D01*
X0117614Y0272874D02*
X0115114Y0270374D01*
X0115114Y0267374D01*
X0117614Y0264874D01*
X0117614Y0257874D02*
X0115114Y0255374D01*
X0115114Y0252374D01*
X0117614Y0249874D01*
X0117614Y0242874D02*
X0115114Y0240374D01*
X0115114Y0237374D01*
X0117614Y0234874D01*
X0117614Y0227874D02*
X0115114Y0225374D01*
X0115114Y0222374D01*
X0117614Y0219874D01*
X0117614Y0212874D02*
X0115114Y0210374D01*
X0115114Y0207374D01*
X0117614Y0204874D01*
X0117614Y0197874D02*
X0115114Y0195374D01*
X0115114Y0192374D01*
X0117614Y0189874D01*
X0117614Y0182874D02*
X0115114Y0180374D01*
X0115114Y0177374D01*
X0117614Y0174874D01*
X0117614Y0167874D02*
X0115114Y0165374D01*
X0115114Y0162374D01*
X0117614Y0159874D01*
X0117614Y0152874D02*
X0115114Y0150374D01*
X0115114Y0147374D01*
X0117614Y0144874D01*
X0127614Y0144874D02*
X0142614Y0144874D01*
X0142614Y0131374D01*
X0142614Y0093874D01*
X0154614Y0093874D01*
X0154614Y0131374D01*
X0186114Y0131374D01*
X0186114Y0316374D01*
X0154614Y0316374D01*
X0142614Y0316374D01*
X0142614Y0302874D01*
X0127614Y0302874D01*
X0127614Y0294874D02*
X0132114Y0294874D01*
X0134114Y0292874D01*
X0136614Y0292874D01*
X0136614Y0289874D01*
X0134114Y0289874D01*
X0132114Y0287874D01*
X0127614Y0287874D01*
X0127614Y0279874D02*
X0132114Y0279874D01*
X0134114Y0277874D01*
X0136614Y0277874D01*
X0136614Y0274874D01*
X0134114Y0274874D01*
X0132114Y0272874D01*
X0127614Y0272874D01*
X0127614Y0264874D02*
X0132114Y0264874D01*
X0134114Y0262874D01*
X0136614Y0262874D01*
X0136614Y0259874D01*
X0134114Y0259874D01*
X0132114Y0257874D01*
X0127614Y0257874D01*
X0127614Y0249874D02*
X0132114Y0249874D01*
X0134114Y0247874D01*
X0136614Y0247874D01*
X0136614Y0244874D01*
X0134114Y0244874D01*
X0132114Y0242874D01*
X0127614Y0242874D01*
X0127614Y0234874D02*
X0132114Y0234874D01*
X0134114Y0232874D01*
X0136614Y0232874D01*
X0136614Y0229874D01*
X0134114Y0229874D01*
X0132114Y0227874D01*
X0127614Y0227874D01*
X0127614Y0219874D02*
X0132114Y0219874D01*
X0134114Y0217874D01*
X0136614Y0217874D01*
X0136614Y0214874D01*
X0134114Y0214874D01*
X0132114Y0212874D01*
X0127614Y0212874D01*
X0127614Y0204874D02*
X0132114Y0204874D01*
X0134114Y0202874D01*
X0136614Y0202874D01*
X0136614Y0199874D01*
X0134114Y0199874D01*
X0132114Y0197874D01*
X0127614Y0197874D01*
X0127614Y0189874D02*
X0132114Y0189874D01*
X0134114Y0187874D01*
X0136614Y0187874D01*
X0136614Y0184874D01*
X0134114Y0184874D01*
X0132114Y0182874D01*
X0127614Y0182874D01*
X0127614Y0174874D02*
X0132114Y0174874D01*
X0134114Y0172874D01*
X0136614Y0172874D01*
X0136614Y0169874D01*
X0134114Y0169874D01*
X0132114Y0167874D01*
X0127614Y0167874D01*
X0127614Y0159874D02*
X0132114Y0159874D01*
X0134114Y0157874D01*
X0136614Y0157874D01*
X0136614Y0154874D01*
X0134114Y0154874D01*
X0132114Y0152874D01*
X0127614Y0152874D01*
X0142614Y0150374D02*
X0142614Y0144874D01*
X0142614Y0131374D02*
X0154614Y0131374D01*
X0158614Y0108874D02*
X0138614Y0108874D01*
X0142614Y0162374D02*
X0142614Y0165374D01*
X0142614Y0177374D02*
X0142614Y0180374D01*
X0142614Y0192374D02*
X0142614Y0195374D01*
X0142614Y0207374D02*
X0142614Y0210374D01*
X0142614Y0222374D02*
X0142614Y0225374D01*
X0142614Y0237374D02*
X0142614Y0240374D01*
X0142614Y0252374D02*
X0142614Y0255374D01*
X0142614Y0267374D02*
X0142614Y0270374D01*
X0142614Y0282374D02*
X0142614Y0285374D01*
X0142614Y0297374D02*
X0142614Y0302874D01*
X0142614Y0316374D02*
X0142614Y0353874D01*
X0154614Y0353874D01*
X0154614Y0316374D01*
X0158614Y0338874D02*
X0138614Y0338874D01*
X0041984Y0273874D02*
X0041987Y0274119D01*
X0041996Y0274365D01*
X0042011Y0274610D01*
X0042032Y0274854D01*
X0042059Y0275098D01*
X0042092Y0275341D01*
X0042131Y0275584D01*
X0042176Y0275825D01*
X0042227Y0276065D01*
X0042284Y0276304D01*
X0042346Y0276541D01*
X0042415Y0276777D01*
X0042489Y0277011D01*
X0042569Y0277243D01*
X0042654Y0277473D01*
X0042745Y0277701D01*
X0042842Y0277926D01*
X0042944Y0278150D01*
X0043052Y0278370D01*
X0043165Y0278588D01*
X0043283Y0278803D01*
X0043407Y0279015D01*
X0043535Y0279224D01*
X0043669Y0279430D01*
X0043808Y0279632D01*
X0043952Y0279831D01*
X0044101Y0280026D01*
X0044254Y0280218D01*
X0044412Y0280406D01*
X0044574Y0280590D01*
X0044742Y0280769D01*
X0044913Y0280945D01*
X0045089Y0281116D01*
X0045268Y0281284D01*
X0045452Y0281446D01*
X0045640Y0281604D01*
X0045832Y0281757D01*
X0046027Y0281906D01*
X0046226Y0282050D01*
X0046428Y0282189D01*
X0046634Y0282323D01*
X0046843Y0282451D01*
X0047055Y0282575D01*
X0047270Y0282693D01*
X0047488Y0282806D01*
X0047708Y0282914D01*
X0047932Y0283016D01*
X0048157Y0283113D01*
X0048385Y0283204D01*
X0048615Y0283289D01*
X0048847Y0283369D01*
X0049081Y0283443D01*
X0049317Y0283512D01*
X0049554Y0283574D01*
X0049793Y0283631D01*
X0050033Y0283682D01*
X0050274Y0283727D01*
X0050517Y0283766D01*
X0050760Y0283799D01*
X0051004Y0283826D01*
X0051248Y0283847D01*
X0051493Y0283862D01*
X0051739Y0283871D01*
X0051984Y0283874D01*
X0052229Y0283871D01*
X0052475Y0283862D01*
X0052720Y0283847D01*
X0052964Y0283826D01*
X0053208Y0283799D01*
X0053451Y0283766D01*
X0053694Y0283727D01*
X0053935Y0283682D01*
X0054175Y0283631D01*
X0054414Y0283574D01*
X0054651Y0283512D01*
X0054887Y0283443D01*
X0055121Y0283369D01*
X0055353Y0283289D01*
X0055583Y0283204D01*
X0055811Y0283113D01*
X0056036Y0283016D01*
X0056260Y0282914D01*
X0056480Y0282806D01*
X0056698Y0282693D01*
X0056913Y0282575D01*
X0057125Y0282451D01*
X0057334Y0282323D01*
X0057540Y0282189D01*
X0057742Y0282050D01*
X0057941Y0281906D01*
X0058136Y0281757D01*
X0058328Y0281604D01*
X0058516Y0281446D01*
X0058700Y0281284D01*
X0058879Y0281116D01*
X0059055Y0280945D01*
X0059226Y0280769D01*
X0059394Y0280590D01*
X0059556Y0280406D01*
X0059714Y0280218D01*
X0059867Y0280026D01*
X0060016Y0279831D01*
X0060160Y0279632D01*
X0060299Y0279430D01*
X0060433Y0279224D01*
X0060561Y0279015D01*
X0060685Y0278803D01*
X0060803Y0278588D01*
X0060916Y0278370D01*
X0061024Y0278150D01*
X0061126Y0277926D01*
X0061223Y0277701D01*
X0061314Y0277473D01*
X0061399Y0277243D01*
X0061479Y0277011D01*
X0061553Y0276777D01*
X0061622Y0276541D01*
X0061684Y0276304D01*
X0061741Y0276065D01*
X0061792Y0275825D01*
X0061837Y0275584D01*
X0061876Y0275341D01*
X0061909Y0275098D01*
X0061936Y0274854D01*
X0061957Y0274610D01*
X0061972Y0274365D01*
X0061981Y0274119D01*
X0061984Y0273874D01*
X0061981Y0273629D01*
X0061972Y0273383D01*
X0061957Y0273138D01*
X0061936Y0272894D01*
X0061909Y0272650D01*
X0061876Y0272407D01*
X0061837Y0272164D01*
X0061792Y0271923D01*
X0061741Y0271683D01*
X0061684Y0271444D01*
X0061622Y0271207D01*
X0061553Y0270971D01*
X0061479Y0270737D01*
X0061399Y0270505D01*
X0061314Y0270275D01*
X0061223Y0270047D01*
X0061126Y0269822D01*
X0061024Y0269598D01*
X0060916Y0269378D01*
X0060803Y0269160D01*
X0060685Y0268945D01*
X0060561Y0268733D01*
X0060433Y0268524D01*
X0060299Y0268318D01*
X0060160Y0268116D01*
X0060016Y0267917D01*
X0059867Y0267722D01*
X0059714Y0267530D01*
X0059556Y0267342D01*
X0059394Y0267158D01*
X0059226Y0266979D01*
X0059055Y0266803D01*
X0058879Y0266632D01*
X0058700Y0266464D01*
X0058516Y0266302D01*
X0058328Y0266144D01*
X0058136Y0265991D01*
X0057941Y0265842D01*
X0057742Y0265698D01*
X0057540Y0265559D01*
X0057334Y0265425D01*
X0057125Y0265297D01*
X0056913Y0265173D01*
X0056698Y0265055D01*
X0056480Y0264942D01*
X0056260Y0264834D01*
X0056036Y0264732D01*
X0055811Y0264635D01*
X0055583Y0264544D01*
X0055353Y0264459D01*
X0055121Y0264379D01*
X0054887Y0264305D01*
X0054651Y0264236D01*
X0054414Y0264174D01*
X0054175Y0264117D01*
X0053935Y0264066D01*
X0053694Y0264021D01*
X0053451Y0263982D01*
X0053208Y0263949D01*
X0052964Y0263922D01*
X0052720Y0263901D01*
X0052475Y0263886D01*
X0052229Y0263877D01*
X0051984Y0263874D01*
X0051739Y0263877D01*
X0051493Y0263886D01*
X0051248Y0263901D01*
X0051004Y0263922D01*
X0050760Y0263949D01*
X0050517Y0263982D01*
X0050274Y0264021D01*
X0050033Y0264066D01*
X0049793Y0264117D01*
X0049554Y0264174D01*
X0049317Y0264236D01*
X0049081Y0264305D01*
X0048847Y0264379D01*
X0048615Y0264459D01*
X0048385Y0264544D01*
X0048157Y0264635D01*
X0047932Y0264732D01*
X0047708Y0264834D01*
X0047488Y0264942D01*
X0047270Y0265055D01*
X0047055Y0265173D01*
X0046843Y0265297D01*
X0046634Y0265425D01*
X0046428Y0265559D01*
X0046226Y0265698D01*
X0046027Y0265842D01*
X0045832Y0265991D01*
X0045640Y0266144D01*
X0045452Y0266302D01*
X0045268Y0266464D01*
X0045089Y0266632D01*
X0044913Y0266803D01*
X0044742Y0266979D01*
X0044574Y0267158D01*
X0044412Y0267342D01*
X0044254Y0267530D01*
X0044101Y0267722D01*
X0043952Y0267917D01*
X0043808Y0268116D01*
X0043669Y0268318D01*
X0043535Y0268524D01*
X0043407Y0268733D01*
X0043283Y0268945D01*
X0043165Y0269160D01*
X0043052Y0269378D01*
X0042944Y0269598D01*
X0042842Y0269822D01*
X0042745Y0270047D01*
X0042654Y0270275D01*
X0042569Y0270505D01*
X0042489Y0270737D01*
X0042415Y0270971D01*
X0042346Y0271207D01*
X0042284Y0271444D01*
X0042227Y0271683D01*
X0042176Y0271923D01*
X0042131Y0272164D01*
X0042092Y0272407D01*
X0042059Y0272650D01*
X0042032Y0272894D01*
X0042011Y0273138D01*
X0041996Y0273383D01*
X0041987Y0273629D01*
X0041984Y0273874D01*
X0042012Y0261918D02*
X0039877Y0261918D01*
X0040945Y0261918D02*
X0040945Y0255513D01*
X0042012Y0255513D02*
X0039877Y0255513D01*
X0044174Y0255513D02*
X0044174Y0261918D01*
X0048445Y0255513D01*
X0048445Y0261918D01*
X0031257Y0260850D02*
X0031257Y0259783D01*
X0030189Y0258715D01*
X0026986Y0258715D01*
X0026986Y0255513D02*
X0030189Y0255513D01*
X0031257Y0256580D01*
X0031257Y0257648D01*
X0030189Y0258715D01*
X0031257Y0260850D02*
X0030189Y0261918D01*
X0026986Y0261918D01*
X0026986Y0255513D01*
X0024811Y0256580D02*
X0023744Y0255513D01*
X0021608Y0255513D01*
X0020541Y0256580D01*
X0020541Y0260850D01*
X0021608Y0261918D01*
X0023744Y0261918D01*
X0024811Y0260850D01*
X0024811Y0258715D02*
X0022676Y0258715D01*
X0024811Y0258715D02*
X0024811Y0256580D01*
X0018366Y0255513D02*
X0016230Y0257648D01*
X0017298Y0257648D02*
X0014095Y0257648D01*
X0014095Y0255513D02*
X0014095Y0261918D01*
X0017298Y0261918D01*
X0018366Y0260850D01*
X0018366Y0258715D01*
X0017298Y0257648D01*
X0014047Y0160764D02*
X0013047Y0159764D01*
X0013047Y0151764D01*
X0014047Y0150764D01*
X0013047Y0149764D01*
X0013047Y0141764D01*
X0014047Y0140764D01*
X0013047Y0139764D01*
X0013047Y0131764D01*
X0014047Y0130764D01*
X0013047Y0129764D01*
X0013047Y0121764D01*
X0014047Y0120764D01*
X0022047Y0120764D01*
X0023047Y0121764D01*
X0023047Y0129764D01*
X0022047Y0130764D01*
X0023047Y0131764D01*
X0023047Y0139764D01*
X0022047Y0140764D01*
X0023047Y0141764D01*
X0023047Y0149764D01*
X0022047Y0150764D01*
X0023047Y0151764D01*
X0023047Y0159764D01*
X0022047Y0160764D01*
X0014047Y0160764D01*
X0014047Y0113008D02*
X0013047Y0112008D01*
X0013047Y0104008D01*
X0014047Y0103008D01*
X0013047Y0102008D01*
X0013047Y0094008D01*
X0014047Y0093008D01*
X0013047Y0092008D01*
X0013047Y0084008D01*
X0014047Y0083008D01*
X0022047Y0083008D01*
X0023047Y0084008D01*
X0023047Y0092008D01*
X0022047Y0093008D01*
X0023047Y0094008D01*
X0023047Y0102008D01*
X0022047Y0103008D01*
X0023047Y0104008D01*
X0023047Y0112008D01*
X0022047Y0113008D01*
X0014047Y0113008D01*
X0041039Y0090921D02*
X0041039Y0080921D01*
X0041041Y0080861D01*
X0041046Y0080800D01*
X0041055Y0080741D01*
X0041068Y0080682D01*
X0041084Y0080623D01*
X0041104Y0080566D01*
X0041127Y0080511D01*
X0041154Y0080456D01*
X0041183Y0080404D01*
X0041216Y0080353D01*
X0041252Y0080304D01*
X0041290Y0080258D01*
X0041332Y0080214D01*
X0041376Y0080172D01*
X0041422Y0080134D01*
X0041471Y0080098D01*
X0041522Y0080065D01*
X0041574Y0080036D01*
X0041629Y0080009D01*
X0041684Y0079986D01*
X0041741Y0079966D01*
X0041800Y0079950D01*
X0041859Y0079937D01*
X0041918Y0079928D01*
X0041979Y0079923D01*
X0042039Y0079921D01*
X0080039Y0079921D01*
X0080099Y0079923D01*
X0080160Y0079928D01*
X0080219Y0079937D01*
X0080278Y0079950D01*
X0080337Y0079966D01*
X0080394Y0079986D01*
X0080449Y0080009D01*
X0080504Y0080036D01*
X0080556Y0080065D01*
X0080607Y0080098D01*
X0080656Y0080134D01*
X0080702Y0080172D01*
X0080746Y0080214D01*
X0080788Y0080258D01*
X0080826Y0080304D01*
X0080862Y0080353D01*
X0080895Y0080404D01*
X0080924Y0080456D01*
X0080951Y0080511D01*
X0080974Y0080566D01*
X0080994Y0080623D01*
X0081010Y0080682D01*
X0081023Y0080741D01*
X0081032Y0080800D01*
X0081037Y0080861D01*
X0081039Y0080921D01*
X0081039Y0090921D01*
X0081037Y0090981D01*
X0081032Y0091042D01*
X0081023Y0091101D01*
X0081010Y0091160D01*
X0080994Y0091219D01*
X0080974Y0091276D01*
X0080951Y0091331D01*
X0080924Y0091386D01*
X0080895Y0091438D01*
X0080862Y0091489D01*
X0080826Y0091538D01*
X0080788Y0091584D01*
X0080746Y0091628D01*
X0080702Y0091670D01*
X0080656Y0091708D01*
X0080607Y0091744D01*
X0080556Y0091777D01*
X0080504Y0091806D01*
X0080449Y0091833D01*
X0080394Y0091856D01*
X0080337Y0091876D01*
X0080278Y0091892D01*
X0080219Y0091905D01*
X0080160Y0091914D01*
X0080099Y0091919D01*
X0080039Y0091921D01*
X0042039Y0091921D01*
X0041979Y0091919D01*
X0041918Y0091914D01*
X0041859Y0091905D01*
X0041800Y0091892D01*
X0041741Y0091876D01*
X0041684Y0091856D01*
X0041629Y0091833D01*
X0041574Y0091806D01*
X0041522Y0091777D01*
X0041471Y0091744D01*
X0041422Y0091708D01*
X0041376Y0091670D01*
X0041332Y0091628D01*
X0041290Y0091584D01*
X0041252Y0091538D01*
X0041216Y0091489D01*
X0041183Y0091438D01*
X0041154Y0091386D01*
X0041127Y0091331D01*
X0041104Y0091276D01*
X0041084Y0091219D01*
X0041068Y0091160D01*
X0041055Y0091101D01*
X0041046Y0091042D01*
X0041041Y0090981D01*
X0041039Y0090921D01*
X0051039Y0085921D02*
X0059039Y0085921D01*
X0063039Y0085921D02*
X0071039Y0085921D01*
X0068602Y0074425D02*
X0045602Y0074425D01*
X0045602Y0034425D01*
X0053102Y0034425D01*
X0053104Y0034551D01*
X0053110Y0034676D01*
X0053120Y0034801D01*
X0053134Y0034926D01*
X0053151Y0035051D01*
X0053173Y0035175D01*
X0053198Y0035298D01*
X0053228Y0035420D01*
X0053261Y0035541D01*
X0053298Y0035661D01*
X0053338Y0035780D01*
X0053383Y0035897D01*
X0053431Y0036014D01*
X0053483Y0036128D01*
X0053538Y0036241D01*
X0053597Y0036352D01*
X0053659Y0036461D01*
X0053725Y0036568D01*
X0053794Y0036673D01*
X0053866Y0036776D01*
X0053941Y0036877D01*
X0054020Y0036975D01*
X0054102Y0037070D01*
X0054186Y0037163D01*
X0054274Y0037253D01*
X0054364Y0037341D01*
X0054457Y0037425D01*
X0054552Y0037507D01*
X0054650Y0037586D01*
X0054751Y0037661D01*
X0054854Y0037733D01*
X0054959Y0037802D01*
X0055066Y0037868D01*
X0055175Y0037930D01*
X0055286Y0037989D01*
X0055399Y0038044D01*
X0055513Y0038096D01*
X0055630Y0038144D01*
X0055747Y0038189D01*
X0055866Y0038229D01*
X0055986Y0038266D01*
X0056107Y0038299D01*
X0056229Y0038329D01*
X0056352Y0038354D01*
X0056476Y0038376D01*
X0056601Y0038393D01*
X0056726Y0038407D01*
X0056851Y0038417D01*
X0056976Y0038423D01*
X0057102Y0038425D01*
X0057228Y0038423D01*
X0057353Y0038417D01*
X0057478Y0038407D01*
X0057603Y0038393D01*
X0057728Y0038376D01*
X0057852Y0038354D01*
X0057975Y0038329D01*
X0058097Y0038299D01*
X0058218Y0038266D01*
X0058338Y0038229D01*
X0058457Y0038189D01*
X0058574Y0038144D01*
X0058691Y0038096D01*
X0058805Y0038044D01*
X0058918Y0037989D01*
X0059029Y0037930D01*
X0059138Y0037868D01*
X0059245Y0037802D01*
X0059350Y0037733D01*
X0059453Y0037661D01*
X0059554Y0037586D01*
X0059652Y0037507D01*
X0059747Y0037425D01*
X0059840Y0037341D01*
X0059930Y0037253D01*
X0060018Y0037163D01*
X0060102Y0037070D01*
X0060184Y0036975D01*
X0060263Y0036877D01*
X0060338Y0036776D01*
X0060410Y0036673D01*
X0060479Y0036568D01*
X0060545Y0036461D01*
X0060607Y0036352D01*
X0060666Y0036241D01*
X0060721Y0036128D01*
X0060773Y0036014D01*
X0060821Y0035897D01*
X0060866Y0035780D01*
X0060906Y0035661D01*
X0060943Y0035541D01*
X0060976Y0035420D01*
X0061006Y0035298D01*
X0061031Y0035175D01*
X0061053Y0035051D01*
X0061070Y0034926D01*
X0061084Y0034801D01*
X0061094Y0034676D01*
X0061100Y0034551D01*
X0061102Y0034425D01*
X0068602Y0034425D01*
X0068602Y0074425D01*
X0084598Y0077673D02*
X0084598Y0079173D01*
X0084600Y0079233D01*
X0084605Y0079294D01*
X0084614Y0079353D01*
X0084627Y0079412D01*
X0084643Y0079471D01*
X0084663Y0079528D01*
X0084686Y0079583D01*
X0084713Y0079638D01*
X0084742Y0079690D01*
X0084775Y0079741D01*
X0084811Y0079790D01*
X0084849Y0079836D01*
X0084891Y0079880D01*
X0084935Y0079922D01*
X0084981Y0079960D01*
X0085030Y0079996D01*
X0085081Y0080029D01*
X0085133Y0080058D01*
X0085188Y0080085D01*
X0085243Y0080108D01*
X0085300Y0080128D01*
X0085359Y0080144D01*
X0085418Y0080157D01*
X0085477Y0080166D01*
X0085538Y0080171D01*
X0085598Y0080173D01*
X0091598Y0080173D01*
X0091658Y0080171D01*
X0091719Y0080166D01*
X0091778Y0080157D01*
X0091837Y0080144D01*
X0091896Y0080128D01*
X0091953Y0080108D01*
X0092008Y0080085D01*
X0092063Y0080058D01*
X0092115Y0080029D01*
X0092166Y0079996D01*
X0092215Y0079960D01*
X0092261Y0079922D01*
X0092305Y0079880D01*
X0092347Y0079836D01*
X0092385Y0079790D01*
X0092421Y0079741D01*
X0092454Y0079690D01*
X0092483Y0079638D01*
X0092510Y0079583D01*
X0092533Y0079528D01*
X0092553Y0079471D01*
X0092569Y0079412D01*
X0092582Y0079353D01*
X0092591Y0079294D01*
X0092596Y0079233D01*
X0092598Y0079173D01*
X0092598Y0077673D01*
X0092098Y0077173D01*
X0092098Y0063173D01*
X0092598Y0062673D01*
X0092598Y0061173D01*
X0092596Y0061113D01*
X0092591Y0061052D01*
X0092582Y0060993D01*
X0092569Y0060934D01*
X0092553Y0060875D01*
X0092533Y0060818D01*
X0092510Y0060763D01*
X0092483Y0060708D01*
X0092454Y0060656D01*
X0092421Y0060605D01*
X0092385Y0060556D01*
X0092347Y0060510D01*
X0092305Y0060466D01*
X0092261Y0060424D01*
X0092215Y0060386D01*
X0092166Y0060350D01*
X0092115Y0060317D01*
X0092063Y0060288D01*
X0092008Y0060261D01*
X0091953Y0060238D01*
X0091896Y0060218D01*
X0091837Y0060202D01*
X0091778Y0060189D01*
X0091719Y0060180D01*
X0091658Y0060175D01*
X0091598Y0060173D01*
X0085598Y0060173D01*
X0085538Y0060175D01*
X0085477Y0060180D01*
X0085418Y0060189D01*
X0085359Y0060202D01*
X0085300Y0060218D01*
X0085243Y0060238D01*
X0085188Y0060261D01*
X0085133Y0060288D01*
X0085081Y0060317D01*
X0085030Y0060350D01*
X0084981Y0060386D01*
X0084935Y0060424D01*
X0084891Y0060466D01*
X0084849Y0060510D01*
X0084811Y0060556D01*
X0084775Y0060605D01*
X0084742Y0060656D01*
X0084713Y0060708D01*
X0084686Y0060763D01*
X0084663Y0060818D01*
X0084643Y0060875D01*
X0084627Y0060934D01*
X0084614Y0060993D01*
X0084605Y0061052D01*
X0084600Y0061113D01*
X0084598Y0061173D01*
X0084598Y0062673D01*
X0085098Y0063173D01*
X0085098Y0077173D01*
X0084598Y0077673D01*
X0085598Y0036866D02*
X0091598Y0036866D01*
X0091658Y0036864D01*
X0091719Y0036859D01*
X0091778Y0036850D01*
X0091837Y0036837D01*
X0091896Y0036821D01*
X0091953Y0036801D01*
X0092008Y0036778D01*
X0092063Y0036751D01*
X0092115Y0036722D01*
X0092166Y0036689D01*
X0092215Y0036653D01*
X0092261Y0036615D01*
X0092305Y0036573D01*
X0092347Y0036529D01*
X0092385Y0036483D01*
X0092421Y0036434D01*
X0092454Y0036383D01*
X0092483Y0036331D01*
X0092510Y0036276D01*
X0092533Y0036221D01*
X0092553Y0036164D01*
X0092569Y0036105D01*
X0092582Y0036046D01*
X0092591Y0035987D01*
X0092596Y0035926D01*
X0092598Y0035866D01*
X0092598Y0034366D01*
X0092098Y0033866D01*
X0092098Y0019866D01*
X0092598Y0019366D01*
X0092598Y0017866D01*
X0092596Y0017806D01*
X0092591Y0017745D01*
X0092582Y0017686D01*
X0092569Y0017627D01*
X0092553Y0017568D01*
X0092533Y0017511D01*
X0092510Y0017456D01*
X0092483Y0017401D01*
X0092454Y0017349D01*
X0092421Y0017298D01*
X0092385Y0017249D01*
X0092347Y0017203D01*
X0092305Y0017159D01*
X0092261Y0017117D01*
X0092215Y0017079D01*
X0092166Y0017043D01*
X0092115Y0017010D01*
X0092063Y0016981D01*
X0092008Y0016954D01*
X0091953Y0016931D01*
X0091896Y0016911D01*
X0091837Y0016895D01*
X0091778Y0016882D01*
X0091719Y0016873D01*
X0091658Y0016868D01*
X0091598Y0016866D01*
X0085598Y0016866D01*
X0085538Y0016868D01*
X0085477Y0016873D01*
X0085418Y0016882D01*
X0085359Y0016895D01*
X0085300Y0016911D01*
X0085243Y0016931D01*
X0085188Y0016954D01*
X0085133Y0016981D01*
X0085081Y0017010D01*
X0085030Y0017043D01*
X0084981Y0017079D01*
X0084935Y0017117D01*
X0084891Y0017159D01*
X0084849Y0017203D01*
X0084811Y0017249D01*
X0084775Y0017298D01*
X0084742Y0017349D01*
X0084713Y0017401D01*
X0084686Y0017456D01*
X0084663Y0017511D01*
X0084643Y0017568D01*
X0084627Y0017627D01*
X0084614Y0017686D01*
X0084605Y0017745D01*
X0084600Y0017806D01*
X0084598Y0017866D01*
X0084598Y0019366D01*
X0085098Y0019866D01*
X0085098Y0033866D01*
X0084598Y0034366D01*
X0084598Y0035866D01*
X0084600Y0035926D01*
X0084605Y0035987D01*
X0084614Y0036046D01*
X0084627Y0036105D01*
X0084643Y0036164D01*
X0084663Y0036221D01*
X0084686Y0036276D01*
X0084713Y0036331D01*
X0084742Y0036383D01*
X0084775Y0036434D01*
X0084811Y0036483D01*
X0084849Y0036529D01*
X0084891Y0036573D01*
X0084935Y0036615D01*
X0084981Y0036653D01*
X0085030Y0036689D01*
X0085081Y0036722D01*
X0085133Y0036751D01*
X0085188Y0036778D01*
X0085243Y0036801D01*
X0085300Y0036821D01*
X0085359Y0036837D01*
X0085418Y0036850D01*
X0085477Y0036859D01*
X0085538Y0036864D01*
X0085598Y0036866D01*
X0076102Y0021055D02*
X0038102Y0021055D01*
X0038042Y0021053D01*
X0037981Y0021048D01*
X0037922Y0021039D01*
X0037863Y0021026D01*
X0037804Y0021010D01*
X0037747Y0020990D01*
X0037692Y0020967D01*
X0037637Y0020940D01*
X0037585Y0020911D01*
X0037534Y0020878D01*
X0037485Y0020842D01*
X0037439Y0020804D01*
X0037395Y0020762D01*
X0037353Y0020718D01*
X0037315Y0020672D01*
X0037279Y0020623D01*
X0037246Y0020572D01*
X0037217Y0020520D01*
X0037190Y0020465D01*
X0037167Y0020410D01*
X0037147Y0020353D01*
X0037131Y0020294D01*
X0037118Y0020235D01*
X0037109Y0020176D01*
X0037104Y0020115D01*
X0037102Y0020055D01*
X0037102Y0010055D01*
X0037104Y0009995D01*
X0037109Y0009934D01*
X0037118Y0009875D01*
X0037131Y0009816D01*
X0037147Y0009757D01*
X0037167Y0009700D01*
X0037190Y0009645D01*
X0037217Y0009590D01*
X0037246Y0009538D01*
X0037279Y0009487D01*
X0037315Y0009438D01*
X0037353Y0009392D01*
X0037395Y0009348D01*
X0037439Y0009306D01*
X0037485Y0009268D01*
X0037534Y0009232D01*
X0037585Y0009199D01*
X0037637Y0009170D01*
X0037692Y0009143D01*
X0037747Y0009120D01*
X0037804Y0009100D01*
X0037863Y0009084D01*
X0037922Y0009071D01*
X0037981Y0009062D01*
X0038042Y0009057D01*
X0038102Y0009055D01*
X0076102Y0009055D01*
X0076162Y0009057D01*
X0076223Y0009062D01*
X0076282Y0009071D01*
X0076341Y0009084D01*
X0076400Y0009100D01*
X0076457Y0009120D01*
X0076512Y0009143D01*
X0076567Y0009170D01*
X0076619Y0009199D01*
X0076670Y0009232D01*
X0076719Y0009268D01*
X0076765Y0009306D01*
X0076809Y0009348D01*
X0076851Y0009392D01*
X0076889Y0009438D01*
X0076925Y0009487D01*
X0076958Y0009538D01*
X0076987Y0009590D01*
X0077014Y0009645D01*
X0077037Y0009700D01*
X0077057Y0009757D01*
X0077073Y0009816D01*
X0077086Y0009875D01*
X0077095Y0009934D01*
X0077100Y0009995D01*
X0077102Y0010055D01*
X0077102Y0020055D01*
X0077100Y0020115D01*
X0077095Y0020176D01*
X0077086Y0020235D01*
X0077073Y0020294D01*
X0077057Y0020353D01*
X0077037Y0020410D01*
X0077014Y0020465D01*
X0076987Y0020520D01*
X0076958Y0020572D01*
X0076925Y0020623D01*
X0076889Y0020672D01*
X0076851Y0020718D01*
X0076809Y0020762D01*
X0076765Y0020804D01*
X0076719Y0020842D01*
X0076670Y0020878D01*
X0076619Y0020911D01*
X0076567Y0020940D01*
X0076512Y0020967D01*
X0076457Y0020990D01*
X0076400Y0021010D01*
X0076341Y0021026D01*
X0076282Y0021039D01*
X0076223Y0021048D01*
X0076162Y0021053D01*
X0076102Y0021055D01*
X0067102Y0015055D02*
X0059102Y0015055D01*
X0055102Y0015055D02*
X0047102Y0015055D01*
X0113843Y0027055D02*
X0113843Y0003055D01*
X0157843Y0003055D01*
X0157843Y0027055D01*
X0113843Y0027055D01*
X0120843Y0021055D02*
X0120843Y0020555D01*
X0120843Y0021055D02*
X0122843Y0021055D01*
X0124843Y0021055D01*
X0126843Y0021055D01*
X0128843Y0021055D01*
X0130843Y0021055D01*
X0132843Y0021055D01*
X0150843Y0021055D01*
X0150843Y0020555D01*
X0150843Y0009555D02*
X0150843Y0009055D01*
X0132843Y0009055D01*
X0130843Y0009055D01*
X0128843Y0009055D01*
X0126843Y0009055D01*
X0124843Y0009055D01*
X0122843Y0009055D01*
X0120843Y0009055D01*
X0120843Y0009555D01*
X0122843Y0009555D02*
X0122843Y0009055D01*
X0124843Y0009055D02*
X0124843Y0011055D01*
X0126843Y0009055D02*
X0126843Y0021055D01*
X0128843Y0021055D02*
X0128843Y0009055D01*
X0130843Y0009055D02*
X0130843Y0012055D01*
X0132843Y0010055D02*
X0132843Y0009055D01*
X0130843Y0018055D02*
X0130843Y0021055D01*
X0132843Y0021055D02*
X0132843Y0020055D01*
X0124843Y0021055D02*
X0124843Y0019055D01*
X0122843Y0020555D02*
X0122843Y0021055D01*
D12*
X0112788Y0020325D02*
X0112788Y0017256D01*
X0111253Y0015721D02*
X0112020Y0014954D01*
X0112020Y0013419D01*
X0111253Y0012652D01*
X0109719Y0013419D02*
X0109719Y0014954D01*
X0110486Y0015721D01*
X0111253Y0015721D01*
X0109719Y0013419D02*
X0108951Y0012652D01*
X0108184Y0012652D01*
X0107417Y0013419D01*
X0107417Y0014954D01*
X0108184Y0015721D01*
X0109719Y0011117D02*
X0109719Y0008048D01*
X0111253Y0006513D02*
X0112020Y0005746D01*
X0112020Y0004211D01*
X0111253Y0003444D01*
X0108184Y0003444D01*
X0107417Y0004211D01*
X0107417Y0005746D01*
X0108184Y0006513D01*
X0108184Y0021860D02*
X0107417Y0022627D01*
X0107417Y0024162D01*
X0108184Y0024929D01*
X0109719Y0024162D02*
X0110486Y0024929D01*
X0111253Y0024929D01*
X0112020Y0024162D01*
X0112020Y0022627D01*
X0111253Y0021860D01*
X0109719Y0022627D02*
X0109719Y0024162D01*
X0109719Y0022627D02*
X0108951Y0021860D01*
X0108184Y0021860D01*
X0107417Y0026464D02*
X0112020Y0026464D01*
X0110486Y0027998D01*
X0112020Y0029533D01*
X0107417Y0029533D01*
X0097398Y0029884D02*
X0093895Y0029884D01*
X0093895Y0031635D01*
X0094479Y0032219D01*
X0095647Y0032219D01*
X0096231Y0031635D01*
X0096231Y0029884D01*
X0096231Y0031052D02*
X0097398Y0032219D01*
X0096815Y0033475D02*
X0097398Y0034059D01*
X0097398Y0035227D01*
X0096815Y0035810D01*
X0096231Y0035810D01*
X0095647Y0035227D01*
X0095647Y0034643D01*
X0095647Y0035227D02*
X0095063Y0035810D01*
X0094479Y0035810D01*
X0093895Y0035227D01*
X0093895Y0034059D01*
X0094479Y0033475D01*
X0083298Y0060373D02*
X0079795Y0060373D01*
X0079795Y0062125D01*
X0080379Y0062709D01*
X0081547Y0062709D01*
X0082131Y0062125D01*
X0082131Y0060373D01*
X0082131Y0061541D02*
X0083298Y0062709D01*
X0081547Y0063964D02*
X0081547Y0066300D01*
X0083298Y0065716D02*
X0079795Y0065716D01*
X0081547Y0063964D01*
X0123165Y0063431D02*
X0123165Y0061897D01*
X0123165Y0062664D02*
X0127769Y0062664D01*
X0127769Y0061897D02*
X0127769Y0063431D01*
X0127769Y0064966D02*
X0123165Y0064966D01*
X0127769Y0068035D01*
X0123165Y0068035D01*
X0123165Y0069570D02*
X0123165Y0071105D01*
X0123165Y0070337D02*
X0127769Y0070337D01*
X0127769Y0069570D02*
X0127769Y0071105D01*
X0125467Y0072639D02*
X0125467Y0075709D01*
X0125467Y0077243D02*
X0125467Y0078778D01*
X0127769Y0077243D02*
X0123165Y0077243D01*
X0123165Y0080312D01*
X0123165Y0081847D02*
X0124699Y0083382D01*
X0123165Y0084916D01*
X0127769Y0084916D01*
X0127769Y0081847D02*
X0123165Y0081847D01*
X0123165Y0060362D02*
X0127769Y0060362D01*
X0127769Y0057293D02*
X0123165Y0057293D01*
X0124699Y0058827D01*
X0123165Y0060362D01*
X0123932Y0051154D02*
X0123165Y0050387D01*
X0123165Y0048085D01*
X0127769Y0048085D01*
X0127769Y0050387D01*
X0127001Y0051154D01*
X0126234Y0051154D01*
X0125467Y0050387D01*
X0125467Y0048085D01*
X0125467Y0046550D02*
X0125467Y0045016D01*
X0125467Y0046550D02*
X0127001Y0046550D01*
X0127769Y0045783D01*
X0127769Y0044248D01*
X0127001Y0043481D01*
X0123932Y0043481D01*
X0123165Y0044248D01*
X0123165Y0045783D01*
X0123932Y0046550D01*
X0125467Y0050387D02*
X0124699Y0051154D01*
X0123932Y0051154D01*
X0128536Y0052689D02*
X0128536Y0055758D01*
X0132003Y0046747D02*
X0132770Y0046747D01*
X0133537Y0045980D01*
X0134305Y0046747D01*
X0135072Y0046747D01*
X0135839Y0045980D01*
X0135839Y0044445D01*
X0135072Y0043678D01*
X0135839Y0042143D02*
X0131235Y0039074D01*
X0131235Y0042143D02*
X0135839Y0039074D01*
X0132003Y0043678D02*
X0131235Y0044445D01*
X0131235Y0045980D01*
X0132003Y0046747D01*
X0133537Y0045980D02*
X0133537Y0045213D01*
X0127769Y0041946D02*
X0126234Y0040412D01*
X0126234Y0041179D02*
X0126234Y0038877D01*
X0127769Y0038877D02*
X0123165Y0038877D01*
X0123165Y0041179D01*
X0123932Y0041946D01*
X0125467Y0041946D01*
X0126234Y0041179D01*
X0037217Y0086121D02*
X0034148Y0086121D01*
X0032613Y0087656D01*
X0034148Y0089191D01*
X0037217Y0089191D01*
X0036450Y0090725D02*
X0037217Y0091492D01*
X0037217Y0093027D01*
X0036450Y0093794D01*
X0032613Y0093794D01*
X0032613Y0095329D02*
X0032613Y0097631D01*
X0033381Y0098398D01*
X0036450Y0098398D01*
X0037217Y0097631D01*
X0037217Y0095329D01*
X0032613Y0095329D01*
X0032613Y0090725D02*
X0036450Y0090725D01*
X0034915Y0089191D02*
X0034915Y0086121D01*
X0032613Y0099933D02*
X0032613Y0101468D01*
X0032613Y0100700D02*
X0037217Y0100700D01*
X0037217Y0099933D02*
X0037217Y0101468D01*
X0036450Y0103002D02*
X0037217Y0103770D01*
X0037217Y0105304D01*
X0036450Y0106072D01*
X0033381Y0106072D01*
X0032613Y0105304D01*
X0032613Y0103770D01*
X0033381Y0103002D01*
X0036450Y0103002D01*
X0037985Y0107606D02*
X0037985Y0110676D01*
X0037217Y0112210D02*
X0037217Y0113745D01*
X0037217Y0112977D02*
X0032613Y0112977D01*
X0032613Y0112210D02*
X0032613Y0113745D01*
X0032613Y0115279D02*
X0037217Y0118349D01*
X0032613Y0118349D01*
X0032613Y0115279D02*
X0037217Y0115279D01*
X0037217Y0129428D02*
X0032613Y0129428D01*
X0032613Y0131730D01*
X0033381Y0132498D01*
X0034915Y0132498D01*
X0035683Y0131730D01*
X0035683Y0129428D01*
X0035683Y0130963D02*
X0037217Y0132498D01*
X0036450Y0134032D02*
X0037217Y0134800D01*
X0037217Y0136334D01*
X0036450Y0137102D01*
X0034915Y0137102D01*
X0034915Y0135567D01*
X0033381Y0137102D02*
X0032613Y0136334D01*
X0032613Y0134800D01*
X0033381Y0134032D01*
X0036450Y0134032D01*
X0037217Y0138636D02*
X0037217Y0140938D01*
X0036450Y0141705D01*
X0035683Y0141705D01*
X0034915Y0140938D01*
X0034915Y0138636D01*
X0037217Y0138636D02*
X0032613Y0138636D01*
X0032613Y0140938D01*
X0033381Y0141705D01*
X0034148Y0141705D01*
X0034915Y0140938D01*
X0037985Y0143240D02*
X0037985Y0146309D01*
X0037217Y0147844D02*
X0037217Y0149379D01*
X0037217Y0148611D02*
X0032613Y0148611D01*
X0032613Y0147844D02*
X0032613Y0149379D01*
X0032613Y0150913D02*
X0037217Y0153983D01*
X0032613Y0153983D01*
X0032613Y0150913D02*
X0037217Y0150913D01*
X0082281Y0275829D02*
X0082281Y0277580D01*
X0082865Y0278164D01*
X0084033Y0278164D01*
X0084617Y0277580D01*
X0084617Y0275829D01*
X0085784Y0275829D02*
X0082281Y0275829D01*
X0084617Y0276997D02*
X0085784Y0278164D01*
X0085784Y0279420D02*
X0083449Y0281755D01*
X0082865Y0281755D01*
X0082281Y0281171D01*
X0082281Y0280004D01*
X0082865Y0279420D01*
X0085784Y0279420D02*
X0085784Y0281755D01*
D13*
X0049634Y0286624D02*
X0049634Y0289627D01*
X0049634Y0291228D02*
X0049634Y0294230D01*
X0049634Y0295832D02*
X0049634Y0298084D01*
X0048884Y0298834D01*
X0045881Y0298834D01*
X0045130Y0298084D01*
X0045130Y0295832D01*
X0049634Y0295832D01*
X0047382Y0292729D02*
X0047382Y0291228D01*
X0045130Y0291228D02*
X0045130Y0294230D01*
X0045130Y0291228D02*
X0049634Y0291228D01*
X0049634Y0286624D02*
X0045130Y0286624D01*
X0046632Y0300436D02*
X0045130Y0301937D01*
X0049634Y0301937D01*
X0049634Y0300436D02*
X0049634Y0303438D01*
X0048417Y0328184D02*
X0045414Y0328184D01*
X0044663Y0328935D01*
X0044663Y0330436D01*
X0045414Y0331186D01*
X0045414Y0332788D02*
X0044663Y0333538D01*
X0044663Y0335040D01*
X0045414Y0335790D01*
X0046165Y0335790D01*
X0046915Y0335040D01*
X0047666Y0335790D01*
X0048417Y0335790D01*
X0049167Y0335040D01*
X0049167Y0333538D01*
X0048417Y0332788D01*
X0048417Y0331186D02*
X0049167Y0330436D01*
X0049167Y0328935D01*
X0048417Y0328184D01*
X0046915Y0334289D02*
X0046915Y0335040D01*
X0028242Y0309109D02*
X0028809Y0308542D01*
X0028809Y0307408D01*
X0028242Y0306841D01*
X0027108Y0307975D02*
X0027108Y0308542D01*
X0027675Y0309109D01*
X0028242Y0309109D01*
X0027108Y0308542D02*
X0026540Y0309109D01*
X0025973Y0309109D01*
X0025406Y0308542D01*
X0025406Y0307408D01*
X0025973Y0306841D01*
X0025973Y0299109D02*
X0025406Y0298542D01*
X0025406Y0297408D01*
X0025973Y0296841D01*
X0025973Y0299109D02*
X0026540Y0299109D01*
X0028809Y0296841D01*
X0028809Y0299109D01*
X0028809Y0289109D02*
X0028809Y0286841D01*
X0028809Y0287975D02*
X0025406Y0287975D01*
X0026540Y0286841D01*
X0011809Y0287444D02*
X0007305Y0287444D01*
X0007305Y0289696D01*
X0008056Y0290447D01*
X0009557Y0290447D01*
X0010308Y0289696D01*
X0010308Y0287444D01*
X0011058Y0285092D02*
X0007305Y0285092D01*
X0007305Y0284342D02*
X0007305Y0285843D01*
X0008056Y0292048D02*
X0007305Y0292799D01*
X0007305Y0294300D01*
X0008056Y0295051D01*
X0008806Y0295051D01*
X0009557Y0294300D01*
X0010308Y0295051D01*
X0011058Y0295051D01*
X0011809Y0294300D01*
X0011809Y0292799D01*
X0011058Y0292048D01*
X0009557Y0293550D02*
X0009557Y0294300D01*
X0011058Y0285092D02*
X0011809Y0284342D01*
X0011809Y0283591D01*
X0011058Y0282841D01*
X0042720Y0173126D02*
X0043354Y0173126D01*
X0043037Y0173126D02*
X0043037Y0171541D01*
X0042720Y0171224D01*
X0042403Y0171224D01*
X0042086Y0171541D01*
X0044296Y0171224D02*
X0045564Y0171224D01*
X0044930Y0171224D02*
X0044930Y0173126D01*
X0044296Y0172492D01*
X0028297Y0157715D02*
X0024894Y0157715D01*
X0026596Y0156014D01*
X0026596Y0158282D01*
X0027163Y0148282D02*
X0026596Y0147715D01*
X0026596Y0147148D01*
X0026596Y0147715D02*
X0026029Y0148282D01*
X0025461Y0148282D01*
X0024894Y0147715D01*
X0024894Y0146581D01*
X0025461Y0146014D01*
X0027730Y0146014D02*
X0028297Y0146581D01*
X0028297Y0147715D01*
X0027730Y0148282D01*
X0027163Y0148282D01*
X0028297Y0138282D02*
X0028297Y0136014D01*
X0026029Y0138282D01*
X0025461Y0138282D01*
X0024894Y0137715D01*
X0024894Y0136581D01*
X0025461Y0136014D01*
X0028297Y0128282D02*
X0028297Y0126014D01*
X0028297Y0127148D02*
X0024894Y0127148D01*
X0026029Y0126014D01*
X0026029Y0110526D02*
X0026596Y0109959D01*
X0027163Y0110526D01*
X0027730Y0110526D01*
X0028297Y0109959D01*
X0028297Y0108825D01*
X0027730Y0108258D01*
X0026596Y0109392D02*
X0026596Y0109959D01*
X0026029Y0110526D02*
X0025461Y0110526D01*
X0024894Y0109959D01*
X0024894Y0108825D01*
X0025461Y0108258D01*
X0025461Y0100526D02*
X0024894Y0099959D01*
X0024894Y0098825D01*
X0025461Y0098258D01*
X0025461Y0100526D02*
X0026029Y0100526D01*
X0028297Y0098258D01*
X0028297Y0100526D01*
X0028297Y0090526D02*
X0028297Y0088258D01*
X0028297Y0089392D02*
X0024894Y0089392D01*
X0026029Y0088258D01*
X0011297Y0088862D02*
X0006793Y0088862D01*
X0006793Y0091114D01*
X0007544Y0091864D01*
X0009045Y0091864D01*
X0009796Y0091114D01*
X0009796Y0088862D01*
X0010547Y0086510D02*
X0006793Y0086510D01*
X0006793Y0087260D02*
X0006793Y0085759D01*
X0010547Y0086510D02*
X0011297Y0085759D01*
X0011297Y0085009D01*
X0010547Y0084258D01*
X0011297Y0093466D02*
X0011297Y0096468D01*
X0011297Y0094967D02*
X0006793Y0094967D01*
X0008295Y0093466D01*
X0010547Y0121014D02*
X0011297Y0121764D01*
X0011297Y0122515D01*
X0010547Y0123266D01*
X0006793Y0123266D01*
X0006793Y0124016D02*
X0006793Y0122515D01*
X0006793Y0125618D02*
X0006793Y0127870D01*
X0007544Y0128620D01*
X0009045Y0128620D01*
X0009796Y0127870D01*
X0009796Y0125618D01*
X0011297Y0125618D02*
X0006793Y0125618D01*
X0007544Y0130222D02*
X0006793Y0130972D01*
X0006793Y0132474D01*
X0007544Y0133224D01*
X0008295Y0133224D01*
X0011297Y0130222D01*
X0011297Y0133224D01*
X0047040Y0097675D02*
X0046289Y0096924D01*
X0046289Y0093922D01*
X0047040Y0093171D01*
X0048541Y0093171D01*
X0049292Y0093922D01*
X0050893Y0093171D02*
X0053896Y0096174D01*
X0053896Y0096924D01*
X0053145Y0097675D01*
X0051644Y0097675D01*
X0050893Y0096924D01*
X0049292Y0096924D02*
X0048541Y0097675D01*
X0047040Y0097675D01*
X0050893Y0093171D02*
X0053896Y0093171D01*
X0056575Y0033179D02*
X0058076Y0033179D01*
X0057326Y0033179D02*
X0057326Y0028675D01*
X0058076Y0028675D02*
X0056575Y0028675D01*
X0059644Y0029426D02*
X0059644Y0032428D01*
X0060395Y0033179D01*
X0061896Y0033179D01*
X0062647Y0032428D01*
X0064248Y0031678D02*
X0065750Y0033179D01*
X0065750Y0028675D01*
X0067251Y0028675D02*
X0064248Y0028675D01*
X0062647Y0029426D02*
X0061896Y0028675D01*
X0060395Y0028675D01*
X0059644Y0029426D01*
X0063895Y0007809D02*
X0063145Y0007058D01*
X0063145Y0004056D01*
X0063895Y0003305D01*
X0065396Y0003305D01*
X0066147Y0004056D01*
X0067748Y0003305D02*
X0070751Y0003305D01*
X0069250Y0003305D02*
X0069250Y0007809D01*
X0067748Y0006308D01*
X0066147Y0007058D02*
X0065396Y0007809D01*
X0063895Y0007809D01*
X0115593Y0007308D02*
X0117094Y0008809D01*
X0117094Y0004305D01*
X0115593Y0004305D02*
X0118595Y0004305D01*
X0122717Y0029305D02*
X0121967Y0030056D01*
X0122717Y0029305D02*
X0124218Y0029305D01*
X0124969Y0030056D01*
X0124969Y0030806D01*
X0124218Y0031557D01*
X0122717Y0031557D01*
X0121967Y0032308D01*
X0121967Y0033058D01*
X0122717Y0033809D01*
X0124218Y0033809D01*
X0124969Y0033058D01*
X0126570Y0032308D02*
X0128072Y0033809D01*
X0128072Y0029305D01*
X0129573Y0029305D02*
X0126570Y0029305D01*
X0152593Y0008058D02*
X0153343Y0008809D01*
X0154844Y0008809D01*
X0155595Y0008058D01*
X0155595Y0007308D01*
X0152593Y0004305D01*
X0155595Y0004305D01*
X0151364Y0140124D02*
X0148362Y0143127D01*
X0147611Y0143127D01*
X0146860Y0142376D01*
X0146860Y0140875D01*
X0147611Y0140124D01*
X0148362Y0144728D02*
X0146860Y0146229D01*
X0151364Y0146229D01*
X0151364Y0144728D02*
X0151364Y0147730D01*
X0151364Y0143127D02*
X0151364Y0140124D01*
X0151364Y0302624D02*
X0151364Y0305627D01*
X0151364Y0304125D02*
X0146860Y0304125D01*
X0148362Y0302624D01*
D14*
X0059484Y0283874D02*
X0044484Y0283874D01*
X0039681Y0196374D02*
X0039681Y0191374D01*
X0136827Y0088402D02*
X0136827Y0029346D01*
X0187220Y0029346D01*
X0187220Y0088402D01*
X0136827Y0088402D01*
D15*
X0059484Y0283874D02*
X0059727Y0283687D01*
X0059965Y0283495D01*
X0060198Y0283296D01*
X0060426Y0283092D01*
X0060649Y0282883D01*
X0060867Y0282668D01*
X0061080Y0282448D01*
X0061287Y0282223D01*
X0061489Y0281992D01*
X0061685Y0281757D01*
X0061875Y0281517D01*
X0062059Y0281273D01*
X0062237Y0281024D01*
X0062409Y0280770D01*
X0062575Y0280513D01*
X0062735Y0280252D01*
X0062888Y0279987D01*
X0063034Y0279718D01*
X0063174Y0279445D01*
X0063307Y0279170D01*
X0063433Y0278891D01*
X0063553Y0278609D01*
X0063665Y0278324D01*
X0063770Y0278037D01*
X0063869Y0277747D01*
X0063960Y0277455D01*
X0064044Y0277160D01*
X0064121Y0276864D01*
X0064191Y0276566D01*
X0064253Y0276266D01*
X0064308Y0275965D01*
X0064355Y0275663D01*
X0064395Y0275359D01*
X0064428Y0275055D01*
X0064453Y0274750D01*
X0064471Y0274444D01*
X0064481Y0274138D01*
X0064484Y0273832D01*
X0064479Y0273526D01*
X0064467Y0273220D01*
X0064447Y0272914D01*
X0064420Y0272610D01*
X0064385Y0272305D01*
X0064343Y0272002D01*
X0064294Y0271700D01*
X0064237Y0271399D01*
X0064172Y0271100D01*
X0064101Y0270802D01*
X0064022Y0270507D01*
X0063936Y0270213D01*
X0063843Y0269921D01*
X0063742Y0269632D01*
X0063635Y0269345D01*
X0063520Y0269061D01*
X0063399Y0268780D01*
X0063271Y0268502D01*
X0063136Y0268227D01*
X0062994Y0267956D01*
X0062846Y0267688D01*
X0062691Y0267424D01*
X0062530Y0267164D01*
X0062363Y0266908D01*
X0062189Y0266655D01*
X0062009Y0266408D01*
X0061823Y0266164D01*
X0061632Y0265926D01*
X0061434Y0265692D01*
X0061231Y0265463D01*
X0061022Y0265239D01*
X0060808Y0265020D01*
X0060588Y0264807D01*
X0060364Y0264599D01*
X0060134Y0264396D01*
X0059900Y0264200D01*
X0059660Y0264009D01*
X0059417Y0263824D01*
X0059168Y0263645D01*
X0058916Y0263472D01*
X0058659Y0263305D01*
X0058398Y0263145D01*
X0058133Y0262991D01*
X0057865Y0262844D01*
X0057593Y0262703D01*
X0057318Y0262569D01*
X0057039Y0262442D01*
X0056758Y0262321D01*
X0056473Y0262208D01*
X0056186Y0262102D01*
X0055897Y0262002D01*
X0055605Y0261910D01*
X0055311Y0261825D01*
X0055015Y0261747D01*
X0054717Y0261676D01*
X0054417Y0261613D01*
X0054116Y0261557D01*
X0053814Y0261509D01*
X0053511Y0261468D01*
X0053207Y0261434D01*
X0052902Y0261408D01*
X0052596Y0261389D01*
X0052290Y0261378D01*
X0051984Y0261374D01*
X0051678Y0261378D01*
X0051372Y0261389D01*
X0051066Y0261408D01*
X0050761Y0261434D01*
X0050457Y0261468D01*
X0050154Y0261509D01*
X0049852Y0261557D01*
X0049551Y0261613D01*
X0049251Y0261676D01*
X0048953Y0261747D01*
X0048657Y0261825D01*
X0048363Y0261910D01*
X0048071Y0262002D01*
X0047782Y0262102D01*
X0047495Y0262208D01*
X0047210Y0262321D01*
X0046929Y0262442D01*
X0046650Y0262569D01*
X0046375Y0262703D01*
X0046103Y0262844D01*
X0045835Y0262991D01*
X0045570Y0263145D01*
X0045309Y0263305D01*
X0045052Y0263472D01*
X0044800Y0263645D01*
X0044551Y0263824D01*
X0044308Y0264009D01*
X0044068Y0264200D01*
X0043834Y0264396D01*
X0043604Y0264599D01*
X0043380Y0264807D01*
X0043160Y0265020D01*
X0042946Y0265239D01*
X0042737Y0265463D01*
X0042534Y0265692D01*
X0042336Y0265926D01*
X0042145Y0266164D01*
X0041959Y0266408D01*
X0041779Y0266655D01*
X0041605Y0266908D01*
X0041438Y0267164D01*
X0041277Y0267424D01*
X0041122Y0267688D01*
X0040974Y0267956D01*
X0040832Y0268227D01*
X0040697Y0268502D01*
X0040569Y0268780D01*
X0040448Y0269061D01*
X0040333Y0269345D01*
X0040226Y0269632D01*
X0040125Y0269921D01*
X0040032Y0270213D01*
X0039946Y0270507D01*
X0039867Y0270802D01*
X0039796Y0271100D01*
X0039731Y0271399D01*
X0039674Y0271700D01*
X0039625Y0272002D01*
X0039583Y0272305D01*
X0039548Y0272610D01*
X0039521Y0272914D01*
X0039501Y0273220D01*
X0039489Y0273526D01*
X0039484Y0273832D01*
X0039487Y0274138D01*
X0039497Y0274444D01*
X0039515Y0274750D01*
X0039540Y0275055D01*
X0039573Y0275359D01*
X0039613Y0275663D01*
X0039660Y0275965D01*
X0039715Y0276266D01*
X0039777Y0276566D01*
X0039847Y0276864D01*
X0039924Y0277160D01*
X0040008Y0277455D01*
X0040099Y0277747D01*
X0040198Y0278037D01*
X0040303Y0278324D01*
X0040415Y0278609D01*
X0040535Y0278891D01*
X0040661Y0279170D01*
X0040794Y0279445D01*
X0040934Y0279718D01*
X0041080Y0279987D01*
X0041233Y0280252D01*
X0041393Y0280513D01*
X0041559Y0280770D01*
X0041731Y0281024D01*
X0041909Y0281273D01*
X0042093Y0281517D01*
X0042283Y0281757D01*
X0042479Y0281992D01*
X0042681Y0282223D01*
X0042888Y0282448D01*
X0043101Y0282668D01*
X0043319Y0282883D01*
X0043542Y0283092D01*
X0043770Y0283296D01*
X0044003Y0283495D01*
X0044241Y0283687D01*
X0044484Y0283874D01*
D16*
X0076984Y0283561D03*
X0076984Y0262061D03*
X0088598Y0080923D03*
X0088598Y0059423D03*
X0088598Y0037616D03*
X0088598Y0016116D03*
D17*
X0144114Y0135374D02*
X0184614Y0135374D01*
X0184614Y0312374D02*
X0144114Y0312374D01*
D18*
X0141614Y0321874D02*
X0155614Y0321874D01*
X0155614Y0333874D02*
X0141614Y0333874D01*
X0141614Y0125874D02*
X0155614Y0125874D01*
X0155614Y0113874D02*
X0141614Y0113874D01*
D19*
X0130264Y0113170D02*
X0130264Y0117373D01*
X0130264Y0115271D02*
X0123959Y0115271D01*
X0126061Y0113170D01*
X0123959Y0110928D02*
X0130264Y0106724D01*
X0130264Y0110928D02*
X0123959Y0106724D01*
X0157010Y0185724D02*
X0155959Y0186775D01*
X0155959Y0188877D01*
X0157010Y0189928D01*
X0157010Y0192170D02*
X0161213Y0192170D01*
X0162264Y0193220D01*
X0162264Y0195322D01*
X0161213Y0196373D01*
X0162264Y0198615D02*
X0158061Y0198615D01*
X0155959Y0200717D01*
X0158061Y0202819D01*
X0162264Y0202819D01*
X0162264Y0205061D02*
X0155959Y0205061D01*
X0155959Y0208213D01*
X0157010Y0209264D01*
X0159111Y0209264D01*
X0160162Y0208213D01*
X0160162Y0205061D01*
X0160162Y0207162D02*
X0162264Y0209264D01*
X0162264Y0213608D02*
X0155959Y0213608D01*
X0155959Y0211506D02*
X0155959Y0215710D01*
X0159111Y0217952D02*
X0159111Y0222155D01*
X0159111Y0224397D02*
X0159111Y0226499D01*
X0155959Y0224397D02*
X0155959Y0228601D01*
X0155959Y0224397D02*
X0162264Y0224397D01*
X0159111Y0202819D02*
X0159111Y0198615D01*
X0157010Y0196373D02*
X0155959Y0195322D01*
X0155959Y0193220D01*
X0157010Y0192170D01*
X0160162Y0189928D02*
X0159111Y0188877D01*
X0159111Y0186775D01*
X0158061Y0185724D01*
X0157010Y0185724D01*
X0161213Y0185724D02*
X0162264Y0186775D01*
X0162264Y0188877D01*
X0161213Y0189928D01*
X0160162Y0189928D01*
X0115773Y0338692D02*
X0115773Y0344997D01*
X0112620Y0341844D01*
X0116823Y0341844D01*
X0110378Y0339743D02*
X0109327Y0338692D01*
X0107225Y0338692D01*
X0106174Y0339743D01*
X0106174Y0343946D01*
X0107225Y0344997D01*
X0109327Y0344997D01*
X0110378Y0343946D01*
D20*
X0040917Y0324142D02*
X0037417Y0324142D01*
X0033917Y0324142D01*
X0033917Y0320142D02*
X0037417Y0320142D01*
X0040917Y0320142D01*
X0059039Y0089421D02*
X0059039Y0085921D01*
X0059039Y0082421D01*
X0063039Y0082421D02*
X0063039Y0085921D01*
X0063039Y0089421D01*
X0059102Y0018555D02*
X0059102Y0015055D01*
X0059102Y0011555D01*
X0055102Y0011555D02*
X0055102Y0015055D01*
X0055102Y0018555D01*
D21*
X0082974Y0322142D03*
M02*
