%
M48
M72
T01C0.02400
T02C0.03200
T03C0.03543
T04C0.03600
T05C0.04000
T06C0.04400
T07C0.05200
T08C0.08661
T09C0.11900
T10C0.12598
%
T01
X25606Y141039
X45291Y141039
X25606Y184346
X15034Y212607
X10984Y234657
X91984Y93807
T02
X42102Y39425
X42102Y49425
X42102Y59425
X42102Y69425
X72102Y69425
X72102Y59425
X72102Y49425
X72102Y39425
X88598Y41866
X88598Y55173
X88598Y85173
X88598Y11866
X76984Y257811
X76984Y287811
X51984Y278874
X51984Y268874
T03
X154150Y72260
X154150Y63992
X154150Y53756
X154150Y45488
X144307Y45488
X144307Y56118
X144307Y63992
X144307Y72260
T04
X42102Y15055
X72102Y15055
X76039Y85921
X46039Y85921
X18047Y88008
X18047Y98008
X18047Y108008
X18047Y125764
X18047Y135764
X18047Y145764
X18047Y155764
X18559Y286591
X18559Y296591
X18559Y306591
X37417Y307142
X37417Y337142
T05
X23756Y193874
X23756Y203874
X23756Y213874
X23756Y223874
X23756Y233874
X33756Y233874
X33756Y223874
X33756Y213874
X33756Y203874
X33756Y193874
X70724Y322142
X90724Y322142
T06
X150843Y15055
X135843Y15055
X120843Y15055
T07
X122614Y148874
X122614Y163874
X122614Y178874
X122614Y193874
X122614Y208874
X122614Y223874
X122614Y238874
X122614Y253874
X122614Y268874
X122614Y283874
X122614Y298874
X142614Y291374
X142614Y276374
X142614Y261374
X142614Y246374
X142614Y231374
X142614Y216374
X142614Y201374
X142614Y186374
X142614Y171374
X142614Y156374
T08
X165961Y85449
X169110Y58874
X165961Y32299
T09
X155614Y119874
X141614Y119874
X155614Y327874
X141614Y327874
T10
X13795Y345764
X171276Y345764
X171276Y11118
X13795Y11118
M30
