%
M48
M72
T01C0.02400
T02C0.03150
T03C0.03200
T04C0.03600
T05C0.04000
T06C0.04400
T07C0.11800
T08C0.12598
%
T01
X138071Y203087
X180819Y201106
X187677Y192850
X218780Y172378
X242008Y164504
X208419Y148906
X260619Y84706
X247126Y70803
X232165Y56394
X242165Y46394
X246219Y51106
X251850Y46000
X241220Y36945
X232165Y36394
X222717Y25134
X262480Y27890
X278019Y73306
X317598Y166472
X280197Y217654
X100276Y111354
X33346Y111748
T02
X144606Y109386
X154606Y109386
X164606Y109386
T03
X15354Y53874
X25354Y53874
X12441Y77496
X42441Y77496
X95157Y91315
X105394Y91315
X115236Y91315
X115236Y61315
X105394Y61315
X95157Y61315
X95394Y46039
X105394Y46039
X115394Y46039
X130157Y54661
X160157Y54661
X115394Y16039
X105394Y16039
X95394Y16039
X71969Y116866
X69921Y129819
X79921Y129819
X89921Y129819
X99921Y129819
X109921Y129819
X119921Y129819
X129921Y129819
X139921Y129819
X149921Y129819
X159921Y129819
X169921Y129819
X179921Y129819
X189921Y129819
X199921Y129819
X199921Y159819
X189921Y159819
X179921Y159819
X169921Y159819
X159921Y159819
X149921Y159819
X139921Y159819
X129921Y159819
X119921Y159819
X109921Y159819
X99921Y159819
X89921Y159819
X79921Y159819
X69921Y159819
X41969Y116866
X170472Y188913
X180472Y188913
X289606Y125882
X289606Y115882
X289606Y105882
X289606Y95882
X289606Y85882
X289606Y75882
X289606Y65882
X289606Y55882
X319606Y55882
X319606Y65882
X319606Y75882
X319606Y85882
X319606Y95882
X319606Y105882
X319606Y115882
X319606Y125882
X355394Y116512
X355394Y86512
X350945Y74110
X350945Y64110
X350945Y54110
T04
X43583Y157850
X43583Y127850
X42756Y44425
X72756Y44425
X169961Y16197
X169961Y26197
X337480Y157181
X327480Y157181
X327480Y167181
X337480Y167181
X337480Y177181
X327480Y177181
X327480Y187181
X337480Y187181
X337480Y197181
X327480Y197181
X327480Y207181
X337480Y207181
X337480Y217181
X327480Y217181
X327480Y227181
X337480Y227181
X238780Y188992
X208780Y188992
T05
X105354Y222378
X115354Y222378
X125354Y222378
X135354Y222378
X156535Y222378
X166535Y222378
X176535Y222378
X186535Y222378
X213504Y221984
X223504Y221984
X233504Y221984
X234528Y148244
X244528Y148244
X244528Y138244
X234528Y138244
X224528Y138244
X224528Y148244
X70987Y104076
X53187Y104076
X20748Y108953
X20748Y118953
X20748Y128953
X20748Y138953
X20748Y148953
X20748Y98953
X53187Y78476
X70987Y78476
X133108Y42265
X150908Y42265
X150908Y16665
X133108Y16665
X64606Y18441
X54606Y18441
X44606Y18441
T06
X190433Y12929
X200433Y12929
X210433Y12929
X220433Y12929
X230433Y12929
X240433Y12929
X250433Y12929
X260433Y12929
X270433Y12929
X280433Y12929
X290433Y12929
X300433Y12929
X310433Y12929
X320433Y12929
X330433Y12929
X340433Y12929
X106496Y185370
X66496Y185370
X256181Y228992
X256181Y188992
T07
X35315Y200331
X58937Y200331
X47126Y181827
T08
X16024Y229858
X16417Y12142
X356575Y12929
X356575Y229858
M30
