G75*
%MOIN*%
%OFA0B0*%
%FSLAX25Y25*%
%IPPOS*%
%LPD*%
%AMOC8*
5,1,8,0,0,1.08239X$1,22.5*
%
%ADD10C,0.00000*%
%ADD11C,0.00600*%
%ADD12C,0.01600*%
%ADD13C,0.00500*%
%ADD14C,0.00700*%
%ADD15C,0.00800*%
%ADD16C,0.00200*%
%ADD17C,0.00400*%
%ADD18R,0.01500X0.02000*%
%ADD19R,0.04000X0.01500*%
%ADD20R,0.02000X0.01500*%
%ADD21C,0.00100*%
%ADD22R,0.10000X0.02000*%
%ADD23R,0.03000X0.07500*%
%ADD24C,0.01000*%
%ADD25R,0.02000X0.10000*%
%ADD26R,0.07500X0.03000*%
D10*
X0005394Y0001000D02*
X0005394Y0240882D01*
X0367402Y0240882D01*
X0367402Y0001000D01*
X0005394Y0001000D01*
X0010118Y0012142D02*
X0010120Y0012300D01*
X0010126Y0012458D01*
X0010136Y0012616D01*
X0010150Y0012774D01*
X0010168Y0012931D01*
X0010189Y0013088D01*
X0010215Y0013244D01*
X0010245Y0013400D01*
X0010278Y0013555D01*
X0010316Y0013708D01*
X0010357Y0013861D01*
X0010402Y0014013D01*
X0010451Y0014164D01*
X0010504Y0014313D01*
X0010560Y0014461D01*
X0010620Y0014607D01*
X0010684Y0014752D01*
X0010752Y0014895D01*
X0010823Y0015037D01*
X0010897Y0015177D01*
X0010975Y0015314D01*
X0011057Y0015450D01*
X0011141Y0015584D01*
X0011230Y0015715D01*
X0011321Y0015844D01*
X0011416Y0015971D01*
X0011513Y0016096D01*
X0011614Y0016218D01*
X0011718Y0016337D01*
X0011825Y0016454D01*
X0011935Y0016568D01*
X0012048Y0016679D01*
X0012163Y0016788D01*
X0012281Y0016893D01*
X0012402Y0016995D01*
X0012525Y0017095D01*
X0012651Y0017191D01*
X0012779Y0017284D01*
X0012909Y0017374D01*
X0013042Y0017460D01*
X0013177Y0017544D01*
X0013313Y0017623D01*
X0013452Y0017700D01*
X0013593Y0017772D01*
X0013735Y0017842D01*
X0013879Y0017907D01*
X0014025Y0017969D01*
X0014172Y0018027D01*
X0014321Y0018082D01*
X0014471Y0018133D01*
X0014622Y0018180D01*
X0014774Y0018223D01*
X0014927Y0018262D01*
X0015082Y0018298D01*
X0015237Y0018329D01*
X0015393Y0018357D01*
X0015549Y0018381D01*
X0015706Y0018401D01*
X0015864Y0018417D01*
X0016021Y0018429D01*
X0016180Y0018437D01*
X0016338Y0018441D01*
X0016496Y0018441D01*
X0016654Y0018437D01*
X0016813Y0018429D01*
X0016970Y0018417D01*
X0017128Y0018401D01*
X0017285Y0018381D01*
X0017441Y0018357D01*
X0017597Y0018329D01*
X0017752Y0018298D01*
X0017907Y0018262D01*
X0018060Y0018223D01*
X0018212Y0018180D01*
X0018363Y0018133D01*
X0018513Y0018082D01*
X0018662Y0018027D01*
X0018809Y0017969D01*
X0018955Y0017907D01*
X0019099Y0017842D01*
X0019241Y0017772D01*
X0019382Y0017700D01*
X0019521Y0017623D01*
X0019657Y0017544D01*
X0019792Y0017460D01*
X0019925Y0017374D01*
X0020055Y0017284D01*
X0020183Y0017191D01*
X0020309Y0017095D01*
X0020432Y0016995D01*
X0020553Y0016893D01*
X0020671Y0016788D01*
X0020786Y0016679D01*
X0020899Y0016568D01*
X0021009Y0016454D01*
X0021116Y0016337D01*
X0021220Y0016218D01*
X0021321Y0016096D01*
X0021418Y0015971D01*
X0021513Y0015844D01*
X0021604Y0015715D01*
X0021693Y0015584D01*
X0021777Y0015450D01*
X0021859Y0015314D01*
X0021937Y0015177D01*
X0022011Y0015037D01*
X0022082Y0014895D01*
X0022150Y0014752D01*
X0022214Y0014607D01*
X0022274Y0014461D01*
X0022330Y0014313D01*
X0022383Y0014164D01*
X0022432Y0014013D01*
X0022477Y0013861D01*
X0022518Y0013708D01*
X0022556Y0013555D01*
X0022589Y0013400D01*
X0022619Y0013244D01*
X0022645Y0013088D01*
X0022666Y0012931D01*
X0022684Y0012774D01*
X0022698Y0012616D01*
X0022708Y0012458D01*
X0022714Y0012300D01*
X0022716Y0012142D01*
X0022714Y0011984D01*
X0022708Y0011826D01*
X0022698Y0011668D01*
X0022684Y0011510D01*
X0022666Y0011353D01*
X0022645Y0011196D01*
X0022619Y0011040D01*
X0022589Y0010884D01*
X0022556Y0010729D01*
X0022518Y0010576D01*
X0022477Y0010423D01*
X0022432Y0010271D01*
X0022383Y0010120D01*
X0022330Y0009971D01*
X0022274Y0009823D01*
X0022214Y0009677D01*
X0022150Y0009532D01*
X0022082Y0009389D01*
X0022011Y0009247D01*
X0021937Y0009107D01*
X0021859Y0008970D01*
X0021777Y0008834D01*
X0021693Y0008700D01*
X0021604Y0008569D01*
X0021513Y0008440D01*
X0021418Y0008313D01*
X0021321Y0008188D01*
X0021220Y0008066D01*
X0021116Y0007947D01*
X0021009Y0007830D01*
X0020899Y0007716D01*
X0020786Y0007605D01*
X0020671Y0007496D01*
X0020553Y0007391D01*
X0020432Y0007289D01*
X0020309Y0007189D01*
X0020183Y0007093D01*
X0020055Y0007000D01*
X0019925Y0006910D01*
X0019792Y0006824D01*
X0019657Y0006740D01*
X0019521Y0006661D01*
X0019382Y0006584D01*
X0019241Y0006512D01*
X0019099Y0006442D01*
X0018955Y0006377D01*
X0018809Y0006315D01*
X0018662Y0006257D01*
X0018513Y0006202D01*
X0018363Y0006151D01*
X0018212Y0006104D01*
X0018060Y0006061D01*
X0017907Y0006022D01*
X0017752Y0005986D01*
X0017597Y0005955D01*
X0017441Y0005927D01*
X0017285Y0005903D01*
X0017128Y0005883D01*
X0016970Y0005867D01*
X0016813Y0005855D01*
X0016654Y0005847D01*
X0016496Y0005843D01*
X0016338Y0005843D01*
X0016180Y0005847D01*
X0016021Y0005855D01*
X0015864Y0005867D01*
X0015706Y0005883D01*
X0015549Y0005903D01*
X0015393Y0005927D01*
X0015237Y0005955D01*
X0015082Y0005986D01*
X0014927Y0006022D01*
X0014774Y0006061D01*
X0014622Y0006104D01*
X0014471Y0006151D01*
X0014321Y0006202D01*
X0014172Y0006257D01*
X0014025Y0006315D01*
X0013879Y0006377D01*
X0013735Y0006442D01*
X0013593Y0006512D01*
X0013452Y0006584D01*
X0013313Y0006661D01*
X0013177Y0006740D01*
X0013042Y0006824D01*
X0012909Y0006910D01*
X0012779Y0007000D01*
X0012651Y0007093D01*
X0012525Y0007189D01*
X0012402Y0007289D01*
X0012281Y0007391D01*
X0012163Y0007496D01*
X0012048Y0007605D01*
X0011935Y0007716D01*
X0011825Y0007830D01*
X0011718Y0007947D01*
X0011614Y0008066D01*
X0011513Y0008188D01*
X0011416Y0008313D01*
X0011321Y0008440D01*
X0011230Y0008569D01*
X0011141Y0008700D01*
X0011057Y0008834D01*
X0010975Y0008970D01*
X0010897Y0009107D01*
X0010823Y0009247D01*
X0010752Y0009389D01*
X0010684Y0009532D01*
X0010620Y0009677D01*
X0010560Y0009823D01*
X0010504Y0009971D01*
X0010451Y0010120D01*
X0010402Y0010271D01*
X0010357Y0010423D01*
X0010316Y0010576D01*
X0010278Y0010729D01*
X0010245Y0010884D01*
X0010215Y0011040D01*
X0010189Y0011196D01*
X0010168Y0011353D01*
X0010150Y0011510D01*
X0010136Y0011668D01*
X0010126Y0011826D01*
X0010120Y0011984D01*
X0010118Y0012142D01*
X0009725Y0229858D02*
X0009727Y0230016D01*
X0009733Y0230174D01*
X0009743Y0230332D01*
X0009757Y0230490D01*
X0009775Y0230647D01*
X0009796Y0230804D01*
X0009822Y0230960D01*
X0009852Y0231116D01*
X0009885Y0231271D01*
X0009923Y0231424D01*
X0009964Y0231577D01*
X0010009Y0231729D01*
X0010058Y0231880D01*
X0010111Y0232029D01*
X0010167Y0232177D01*
X0010227Y0232323D01*
X0010291Y0232468D01*
X0010359Y0232611D01*
X0010430Y0232753D01*
X0010504Y0232893D01*
X0010582Y0233030D01*
X0010664Y0233166D01*
X0010748Y0233300D01*
X0010837Y0233431D01*
X0010928Y0233560D01*
X0011023Y0233687D01*
X0011120Y0233812D01*
X0011221Y0233934D01*
X0011325Y0234053D01*
X0011432Y0234170D01*
X0011542Y0234284D01*
X0011655Y0234395D01*
X0011770Y0234504D01*
X0011888Y0234609D01*
X0012009Y0234711D01*
X0012132Y0234811D01*
X0012258Y0234907D01*
X0012386Y0235000D01*
X0012516Y0235090D01*
X0012649Y0235176D01*
X0012784Y0235260D01*
X0012920Y0235339D01*
X0013059Y0235416D01*
X0013200Y0235488D01*
X0013342Y0235558D01*
X0013486Y0235623D01*
X0013632Y0235685D01*
X0013779Y0235743D01*
X0013928Y0235798D01*
X0014078Y0235849D01*
X0014229Y0235896D01*
X0014381Y0235939D01*
X0014534Y0235978D01*
X0014689Y0236014D01*
X0014844Y0236045D01*
X0015000Y0236073D01*
X0015156Y0236097D01*
X0015313Y0236117D01*
X0015471Y0236133D01*
X0015628Y0236145D01*
X0015787Y0236153D01*
X0015945Y0236157D01*
X0016103Y0236157D01*
X0016261Y0236153D01*
X0016420Y0236145D01*
X0016577Y0236133D01*
X0016735Y0236117D01*
X0016892Y0236097D01*
X0017048Y0236073D01*
X0017204Y0236045D01*
X0017359Y0236014D01*
X0017514Y0235978D01*
X0017667Y0235939D01*
X0017819Y0235896D01*
X0017970Y0235849D01*
X0018120Y0235798D01*
X0018269Y0235743D01*
X0018416Y0235685D01*
X0018562Y0235623D01*
X0018706Y0235558D01*
X0018848Y0235488D01*
X0018989Y0235416D01*
X0019128Y0235339D01*
X0019264Y0235260D01*
X0019399Y0235176D01*
X0019532Y0235090D01*
X0019662Y0235000D01*
X0019790Y0234907D01*
X0019916Y0234811D01*
X0020039Y0234711D01*
X0020160Y0234609D01*
X0020278Y0234504D01*
X0020393Y0234395D01*
X0020506Y0234284D01*
X0020616Y0234170D01*
X0020723Y0234053D01*
X0020827Y0233934D01*
X0020928Y0233812D01*
X0021025Y0233687D01*
X0021120Y0233560D01*
X0021211Y0233431D01*
X0021300Y0233300D01*
X0021384Y0233166D01*
X0021466Y0233030D01*
X0021544Y0232893D01*
X0021618Y0232753D01*
X0021689Y0232611D01*
X0021757Y0232468D01*
X0021821Y0232323D01*
X0021881Y0232177D01*
X0021937Y0232029D01*
X0021990Y0231880D01*
X0022039Y0231729D01*
X0022084Y0231577D01*
X0022125Y0231424D01*
X0022163Y0231271D01*
X0022196Y0231116D01*
X0022226Y0230960D01*
X0022252Y0230804D01*
X0022273Y0230647D01*
X0022291Y0230490D01*
X0022305Y0230332D01*
X0022315Y0230174D01*
X0022321Y0230016D01*
X0022323Y0229858D01*
X0022321Y0229700D01*
X0022315Y0229542D01*
X0022305Y0229384D01*
X0022291Y0229226D01*
X0022273Y0229069D01*
X0022252Y0228912D01*
X0022226Y0228756D01*
X0022196Y0228600D01*
X0022163Y0228445D01*
X0022125Y0228292D01*
X0022084Y0228139D01*
X0022039Y0227987D01*
X0021990Y0227836D01*
X0021937Y0227687D01*
X0021881Y0227539D01*
X0021821Y0227393D01*
X0021757Y0227248D01*
X0021689Y0227105D01*
X0021618Y0226963D01*
X0021544Y0226823D01*
X0021466Y0226686D01*
X0021384Y0226550D01*
X0021300Y0226416D01*
X0021211Y0226285D01*
X0021120Y0226156D01*
X0021025Y0226029D01*
X0020928Y0225904D01*
X0020827Y0225782D01*
X0020723Y0225663D01*
X0020616Y0225546D01*
X0020506Y0225432D01*
X0020393Y0225321D01*
X0020278Y0225212D01*
X0020160Y0225107D01*
X0020039Y0225005D01*
X0019916Y0224905D01*
X0019790Y0224809D01*
X0019662Y0224716D01*
X0019532Y0224626D01*
X0019399Y0224540D01*
X0019264Y0224456D01*
X0019128Y0224377D01*
X0018989Y0224300D01*
X0018848Y0224228D01*
X0018706Y0224158D01*
X0018562Y0224093D01*
X0018416Y0224031D01*
X0018269Y0223973D01*
X0018120Y0223918D01*
X0017970Y0223867D01*
X0017819Y0223820D01*
X0017667Y0223777D01*
X0017514Y0223738D01*
X0017359Y0223702D01*
X0017204Y0223671D01*
X0017048Y0223643D01*
X0016892Y0223619D01*
X0016735Y0223599D01*
X0016577Y0223583D01*
X0016420Y0223571D01*
X0016261Y0223563D01*
X0016103Y0223559D01*
X0015945Y0223559D01*
X0015787Y0223563D01*
X0015628Y0223571D01*
X0015471Y0223583D01*
X0015313Y0223599D01*
X0015156Y0223619D01*
X0015000Y0223643D01*
X0014844Y0223671D01*
X0014689Y0223702D01*
X0014534Y0223738D01*
X0014381Y0223777D01*
X0014229Y0223820D01*
X0014078Y0223867D01*
X0013928Y0223918D01*
X0013779Y0223973D01*
X0013632Y0224031D01*
X0013486Y0224093D01*
X0013342Y0224158D01*
X0013200Y0224228D01*
X0013059Y0224300D01*
X0012920Y0224377D01*
X0012784Y0224456D01*
X0012649Y0224540D01*
X0012516Y0224626D01*
X0012386Y0224716D01*
X0012258Y0224809D01*
X0012132Y0224905D01*
X0012009Y0225005D01*
X0011888Y0225107D01*
X0011770Y0225212D01*
X0011655Y0225321D01*
X0011542Y0225432D01*
X0011432Y0225546D01*
X0011325Y0225663D01*
X0011221Y0225782D01*
X0011120Y0225904D01*
X0011023Y0226029D01*
X0010928Y0226156D01*
X0010837Y0226285D01*
X0010748Y0226416D01*
X0010664Y0226550D01*
X0010582Y0226686D01*
X0010504Y0226823D01*
X0010430Y0226963D01*
X0010359Y0227105D01*
X0010291Y0227248D01*
X0010227Y0227393D01*
X0010167Y0227539D01*
X0010111Y0227687D01*
X0010058Y0227836D01*
X0010009Y0227987D01*
X0009964Y0228139D01*
X0009923Y0228292D01*
X0009885Y0228445D01*
X0009852Y0228600D01*
X0009822Y0228756D01*
X0009796Y0228912D01*
X0009775Y0229069D01*
X0009757Y0229226D01*
X0009743Y0229384D01*
X0009733Y0229542D01*
X0009727Y0229700D01*
X0009725Y0229858D01*
X0350276Y0229858D02*
X0350278Y0230016D01*
X0350284Y0230174D01*
X0350294Y0230332D01*
X0350308Y0230490D01*
X0350326Y0230647D01*
X0350347Y0230804D01*
X0350373Y0230960D01*
X0350403Y0231116D01*
X0350436Y0231271D01*
X0350474Y0231424D01*
X0350515Y0231577D01*
X0350560Y0231729D01*
X0350609Y0231880D01*
X0350662Y0232029D01*
X0350718Y0232177D01*
X0350778Y0232323D01*
X0350842Y0232468D01*
X0350910Y0232611D01*
X0350981Y0232753D01*
X0351055Y0232893D01*
X0351133Y0233030D01*
X0351215Y0233166D01*
X0351299Y0233300D01*
X0351388Y0233431D01*
X0351479Y0233560D01*
X0351574Y0233687D01*
X0351671Y0233812D01*
X0351772Y0233934D01*
X0351876Y0234053D01*
X0351983Y0234170D01*
X0352093Y0234284D01*
X0352206Y0234395D01*
X0352321Y0234504D01*
X0352439Y0234609D01*
X0352560Y0234711D01*
X0352683Y0234811D01*
X0352809Y0234907D01*
X0352937Y0235000D01*
X0353067Y0235090D01*
X0353200Y0235176D01*
X0353335Y0235260D01*
X0353471Y0235339D01*
X0353610Y0235416D01*
X0353751Y0235488D01*
X0353893Y0235558D01*
X0354037Y0235623D01*
X0354183Y0235685D01*
X0354330Y0235743D01*
X0354479Y0235798D01*
X0354629Y0235849D01*
X0354780Y0235896D01*
X0354932Y0235939D01*
X0355085Y0235978D01*
X0355240Y0236014D01*
X0355395Y0236045D01*
X0355551Y0236073D01*
X0355707Y0236097D01*
X0355864Y0236117D01*
X0356022Y0236133D01*
X0356179Y0236145D01*
X0356338Y0236153D01*
X0356496Y0236157D01*
X0356654Y0236157D01*
X0356812Y0236153D01*
X0356971Y0236145D01*
X0357128Y0236133D01*
X0357286Y0236117D01*
X0357443Y0236097D01*
X0357599Y0236073D01*
X0357755Y0236045D01*
X0357910Y0236014D01*
X0358065Y0235978D01*
X0358218Y0235939D01*
X0358370Y0235896D01*
X0358521Y0235849D01*
X0358671Y0235798D01*
X0358820Y0235743D01*
X0358967Y0235685D01*
X0359113Y0235623D01*
X0359257Y0235558D01*
X0359399Y0235488D01*
X0359540Y0235416D01*
X0359679Y0235339D01*
X0359815Y0235260D01*
X0359950Y0235176D01*
X0360083Y0235090D01*
X0360213Y0235000D01*
X0360341Y0234907D01*
X0360467Y0234811D01*
X0360590Y0234711D01*
X0360711Y0234609D01*
X0360829Y0234504D01*
X0360944Y0234395D01*
X0361057Y0234284D01*
X0361167Y0234170D01*
X0361274Y0234053D01*
X0361378Y0233934D01*
X0361479Y0233812D01*
X0361576Y0233687D01*
X0361671Y0233560D01*
X0361762Y0233431D01*
X0361851Y0233300D01*
X0361935Y0233166D01*
X0362017Y0233030D01*
X0362095Y0232893D01*
X0362169Y0232753D01*
X0362240Y0232611D01*
X0362308Y0232468D01*
X0362372Y0232323D01*
X0362432Y0232177D01*
X0362488Y0232029D01*
X0362541Y0231880D01*
X0362590Y0231729D01*
X0362635Y0231577D01*
X0362676Y0231424D01*
X0362714Y0231271D01*
X0362747Y0231116D01*
X0362777Y0230960D01*
X0362803Y0230804D01*
X0362824Y0230647D01*
X0362842Y0230490D01*
X0362856Y0230332D01*
X0362866Y0230174D01*
X0362872Y0230016D01*
X0362874Y0229858D01*
X0362872Y0229700D01*
X0362866Y0229542D01*
X0362856Y0229384D01*
X0362842Y0229226D01*
X0362824Y0229069D01*
X0362803Y0228912D01*
X0362777Y0228756D01*
X0362747Y0228600D01*
X0362714Y0228445D01*
X0362676Y0228292D01*
X0362635Y0228139D01*
X0362590Y0227987D01*
X0362541Y0227836D01*
X0362488Y0227687D01*
X0362432Y0227539D01*
X0362372Y0227393D01*
X0362308Y0227248D01*
X0362240Y0227105D01*
X0362169Y0226963D01*
X0362095Y0226823D01*
X0362017Y0226686D01*
X0361935Y0226550D01*
X0361851Y0226416D01*
X0361762Y0226285D01*
X0361671Y0226156D01*
X0361576Y0226029D01*
X0361479Y0225904D01*
X0361378Y0225782D01*
X0361274Y0225663D01*
X0361167Y0225546D01*
X0361057Y0225432D01*
X0360944Y0225321D01*
X0360829Y0225212D01*
X0360711Y0225107D01*
X0360590Y0225005D01*
X0360467Y0224905D01*
X0360341Y0224809D01*
X0360213Y0224716D01*
X0360083Y0224626D01*
X0359950Y0224540D01*
X0359815Y0224456D01*
X0359679Y0224377D01*
X0359540Y0224300D01*
X0359399Y0224228D01*
X0359257Y0224158D01*
X0359113Y0224093D01*
X0358967Y0224031D01*
X0358820Y0223973D01*
X0358671Y0223918D01*
X0358521Y0223867D01*
X0358370Y0223820D01*
X0358218Y0223777D01*
X0358065Y0223738D01*
X0357910Y0223702D01*
X0357755Y0223671D01*
X0357599Y0223643D01*
X0357443Y0223619D01*
X0357286Y0223599D01*
X0357128Y0223583D01*
X0356971Y0223571D01*
X0356812Y0223563D01*
X0356654Y0223559D01*
X0356496Y0223559D01*
X0356338Y0223563D01*
X0356179Y0223571D01*
X0356022Y0223583D01*
X0355864Y0223599D01*
X0355707Y0223619D01*
X0355551Y0223643D01*
X0355395Y0223671D01*
X0355240Y0223702D01*
X0355085Y0223738D01*
X0354932Y0223777D01*
X0354780Y0223820D01*
X0354629Y0223867D01*
X0354479Y0223918D01*
X0354330Y0223973D01*
X0354183Y0224031D01*
X0354037Y0224093D01*
X0353893Y0224158D01*
X0353751Y0224228D01*
X0353610Y0224300D01*
X0353471Y0224377D01*
X0353335Y0224456D01*
X0353200Y0224540D01*
X0353067Y0224626D01*
X0352937Y0224716D01*
X0352809Y0224809D01*
X0352683Y0224905D01*
X0352560Y0225005D01*
X0352439Y0225107D01*
X0352321Y0225212D01*
X0352206Y0225321D01*
X0352093Y0225432D01*
X0351983Y0225546D01*
X0351876Y0225663D01*
X0351772Y0225782D01*
X0351671Y0225904D01*
X0351574Y0226029D01*
X0351479Y0226156D01*
X0351388Y0226285D01*
X0351299Y0226416D01*
X0351215Y0226550D01*
X0351133Y0226686D01*
X0351055Y0226823D01*
X0350981Y0226963D01*
X0350910Y0227105D01*
X0350842Y0227248D01*
X0350778Y0227393D01*
X0350718Y0227539D01*
X0350662Y0227687D01*
X0350609Y0227836D01*
X0350560Y0227987D01*
X0350515Y0228139D01*
X0350474Y0228292D01*
X0350436Y0228445D01*
X0350403Y0228600D01*
X0350373Y0228756D01*
X0350347Y0228912D01*
X0350326Y0229069D01*
X0350308Y0229226D01*
X0350294Y0229384D01*
X0350284Y0229542D01*
X0350278Y0229700D01*
X0350276Y0229858D01*
X0350276Y0012929D02*
X0350278Y0013087D01*
X0350284Y0013245D01*
X0350294Y0013403D01*
X0350308Y0013561D01*
X0350326Y0013718D01*
X0350347Y0013875D01*
X0350373Y0014031D01*
X0350403Y0014187D01*
X0350436Y0014342D01*
X0350474Y0014495D01*
X0350515Y0014648D01*
X0350560Y0014800D01*
X0350609Y0014951D01*
X0350662Y0015100D01*
X0350718Y0015248D01*
X0350778Y0015394D01*
X0350842Y0015539D01*
X0350910Y0015682D01*
X0350981Y0015824D01*
X0351055Y0015964D01*
X0351133Y0016101D01*
X0351215Y0016237D01*
X0351299Y0016371D01*
X0351388Y0016502D01*
X0351479Y0016631D01*
X0351574Y0016758D01*
X0351671Y0016883D01*
X0351772Y0017005D01*
X0351876Y0017124D01*
X0351983Y0017241D01*
X0352093Y0017355D01*
X0352206Y0017466D01*
X0352321Y0017575D01*
X0352439Y0017680D01*
X0352560Y0017782D01*
X0352683Y0017882D01*
X0352809Y0017978D01*
X0352937Y0018071D01*
X0353067Y0018161D01*
X0353200Y0018247D01*
X0353335Y0018331D01*
X0353471Y0018410D01*
X0353610Y0018487D01*
X0353751Y0018559D01*
X0353893Y0018629D01*
X0354037Y0018694D01*
X0354183Y0018756D01*
X0354330Y0018814D01*
X0354479Y0018869D01*
X0354629Y0018920D01*
X0354780Y0018967D01*
X0354932Y0019010D01*
X0355085Y0019049D01*
X0355240Y0019085D01*
X0355395Y0019116D01*
X0355551Y0019144D01*
X0355707Y0019168D01*
X0355864Y0019188D01*
X0356022Y0019204D01*
X0356179Y0019216D01*
X0356338Y0019224D01*
X0356496Y0019228D01*
X0356654Y0019228D01*
X0356812Y0019224D01*
X0356971Y0019216D01*
X0357128Y0019204D01*
X0357286Y0019188D01*
X0357443Y0019168D01*
X0357599Y0019144D01*
X0357755Y0019116D01*
X0357910Y0019085D01*
X0358065Y0019049D01*
X0358218Y0019010D01*
X0358370Y0018967D01*
X0358521Y0018920D01*
X0358671Y0018869D01*
X0358820Y0018814D01*
X0358967Y0018756D01*
X0359113Y0018694D01*
X0359257Y0018629D01*
X0359399Y0018559D01*
X0359540Y0018487D01*
X0359679Y0018410D01*
X0359815Y0018331D01*
X0359950Y0018247D01*
X0360083Y0018161D01*
X0360213Y0018071D01*
X0360341Y0017978D01*
X0360467Y0017882D01*
X0360590Y0017782D01*
X0360711Y0017680D01*
X0360829Y0017575D01*
X0360944Y0017466D01*
X0361057Y0017355D01*
X0361167Y0017241D01*
X0361274Y0017124D01*
X0361378Y0017005D01*
X0361479Y0016883D01*
X0361576Y0016758D01*
X0361671Y0016631D01*
X0361762Y0016502D01*
X0361851Y0016371D01*
X0361935Y0016237D01*
X0362017Y0016101D01*
X0362095Y0015964D01*
X0362169Y0015824D01*
X0362240Y0015682D01*
X0362308Y0015539D01*
X0362372Y0015394D01*
X0362432Y0015248D01*
X0362488Y0015100D01*
X0362541Y0014951D01*
X0362590Y0014800D01*
X0362635Y0014648D01*
X0362676Y0014495D01*
X0362714Y0014342D01*
X0362747Y0014187D01*
X0362777Y0014031D01*
X0362803Y0013875D01*
X0362824Y0013718D01*
X0362842Y0013561D01*
X0362856Y0013403D01*
X0362866Y0013245D01*
X0362872Y0013087D01*
X0362874Y0012929D01*
X0362872Y0012771D01*
X0362866Y0012613D01*
X0362856Y0012455D01*
X0362842Y0012297D01*
X0362824Y0012140D01*
X0362803Y0011983D01*
X0362777Y0011827D01*
X0362747Y0011671D01*
X0362714Y0011516D01*
X0362676Y0011363D01*
X0362635Y0011210D01*
X0362590Y0011058D01*
X0362541Y0010907D01*
X0362488Y0010758D01*
X0362432Y0010610D01*
X0362372Y0010464D01*
X0362308Y0010319D01*
X0362240Y0010176D01*
X0362169Y0010034D01*
X0362095Y0009894D01*
X0362017Y0009757D01*
X0361935Y0009621D01*
X0361851Y0009487D01*
X0361762Y0009356D01*
X0361671Y0009227D01*
X0361576Y0009100D01*
X0361479Y0008975D01*
X0361378Y0008853D01*
X0361274Y0008734D01*
X0361167Y0008617D01*
X0361057Y0008503D01*
X0360944Y0008392D01*
X0360829Y0008283D01*
X0360711Y0008178D01*
X0360590Y0008076D01*
X0360467Y0007976D01*
X0360341Y0007880D01*
X0360213Y0007787D01*
X0360083Y0007697D01*
X0359950Y0007611D01*
X0359815Y0007527D01*
X0359679Y0007448D01*
X0359540Y0007371D01*
X0359399Y0007299D01*
X0359257Y0007229D01*
X0359113Y0007164D01*
X0358967Y0007102D01*
X0358820Y0007044D01*
X0358671Y0006989D01*
X0358521Y0006938D01*
X0358370Y0006891D01*
X0358218Y0006848D01*
X0358065Y0006809D01*
X0357910Y0006773D01*
X0357755Y0006742D01*
X0357599Y0006714D01*
X0357443Y0006690D01*
X0357286Y0006670D01*
X0357128Y0006654D01*
X0356971Y0006642D01*
X0356812Y0006634D01*
X0356654Y0006630D01*
X0356496Y0006630D01*
X0356338Y0006634D01*
X0356179Y0006642D01*
X0356022Y0006654D01*
X0355864Y0006670D01*
X0355707Y0006690D01*
X0355551Y0006714D01*
X0355395Y0006742D01*
X0355240Y0006773D01*
X0355085Y0006809D01*
X0354932Y0006848D01*
X0354780Y0006891D01*
X0354629Y0006938D01*
X0354479Y0006989D01*
X0354330Y0007044D01*
X0354183Y0007102D01*
X0354037Y0007164D01*
X0353893Y0007229D01*
X0353751Y0007299D01*
X0353610Y0007371D01*
X0353471Y0007448D01*
X0353335Y0007527D01*
X0353200Y0007611D01*
X0353067Y0007697D01*
X0352937Y0007787D01*
X0352809Y0007880D01*
X0352683Y0007976D01*
X0352560Y0008076D01*
X0352439Y0008178D01*
X0352321Y0008283D01*
X0352206Y0008392D01*
X0352093Y0008503D01*
X0351983Y0008617D01*
X0351876Y0008734D01*
X0351772Y0008853D01*
X0351671Y0008975D01*
X0351574Y0009100D01*
X0351479Y0009227D01*
X0351388Y0009356D01*
X0351299Y0009487D01*
X0351215Y0009621D01*
X0351133Y0009757D01*
X0351055Y0009894D01*
X0350981Y0010034D01*
X0350910Y0010176D01*
X0350842Y0010319D01*
X0350778Y0010464D01*
X0350718Y0010610D01*
X0350662Y0010758D01*
X0350609Y0010907D01*
X0350560Y0011058D01*
X0350515Y0011210D01*
X0350474Y0011363D01*
X0350436Y0011516D01*
X0350403Y0011671D01*
X0350373Y0011827D01*
X0350347Y0011983D01*
X0350326Y0012140D01*
X0350308Y0012297D01*
X0350294Y0012455D01*
X0350284Y0012613D01*
X0350278Y0012771D01*
X0350276Y0012929D01*
D11*
X0315606Y0050882D02*
X0293606Y0050882D01*
X0293606Y0130882D01*
X0302106Y0130882D01*
X0302108Y0130784D01*
X0302114Y0130686D01*
X0302123Y0130588D01*
X0302137Y0130491D01*
X0302154Y0130394D01*
X0302175Y0130298D01*
X0302200Y0130203D01*
X0302228Y0130109D01*
X0302261Y0130017D01*
X0302296Y0129925D01*
X0302336Y0129835D01*
X0302378Y0129747D01*
X0302425Y0129660D01*
X0302474Y0129576D01*
X0302527Y0129493D01*
X0302583Y0129413D01*
X0302643Y0129334D01*
X0302705Y0129258D01*
X0302770Y0129185D01*
X0302838Y0129114D01*
X0302909Y0129046D01*
X0302982Y0128981D01*
X0303058Y0128919D01*
X0303137Y0128859D01*
X0303217Y0128803D01*
X0303300Y0128750D01*
X0303384Y0128701D01*
X0303471Y0128654D01*
X0303559Y0128612D01*
X0303649Y0128572D01*
X0303741Y0128537D01*
X0303833Y0128504D01*
X0303927Y0128476D01*
X0304022Y0128451D01*
X0304118Y0128430D01*
X0304215Y0128413D01*
X0304312Y0128399D01*
X0304410Y0128390D01*
X0304508Y0128384D01*
X0304606Y0128382D01*
X0304704Y0128384D01*
X0304802Y0128390D01*
X0304900Y0128399D01*
X0304997Y0128413D01*
X0305094Y0128430D01*
X0305190Y0128451D01*
X0305285Y0128476D01*
X0305379Y0128504D01*
X0305471Y0128537D01*
X0305563Y0128572D01*
X0305653Y0128612D01*
X0305741Y0128654D01*
X0305828Y0128701D01*
X0305912Y0128750D01*
X0305995Y0128803D01*
X0306075Y0128859D01*
X0306154Y0128919D01*
X0306230Y0128981D01*
X0306303Y0129046D01*
X0306374Y0129114D01*
X0306442Y0129185D01*
X0306507Y0129258D01*
X0306569Y0129334D01*
X0306629Y0129413D01*
X0306685Y0129493D01*
X0306738Y0129576D01*
X0306787Y0129660D01*
X0306834Y0129747D01*
X0306876Y0129835D01*
X0306916Y0129925D01*
X0306951Y0130017D01*
X0306984Y0130109D01*
X0307012Y0130203D01*
X0307037Y0130298D01*
X0307058Y0130394D01*
X0307075Y0130491D01*
X0307089Y0130588D01*
X0307098Y0130686D01*
X0307104Y0130784D01*
X0307106Y0130882D01*
X0315606Y0130882D01*
X0315606Y0050882D01*
X0256280Y0040685D02*
X0256280Y0037339D01*
X0254705Y0037339D01*
X0254705Y0035567D01*
X0256280Y0035567D01*
X0256280Y0032024D01*
X0250965Y0032024D01*
X0250965Y0040685D02*
X0256280Y0040685D01*
X0174961Y0030197D02*
X0174961Y0022197D01*
X0173961Y0021197D01*
X0174961Y0020197D01*
X0174961Y0012197D01*
X0173961Y0011197D01*
X0165961Y0011197D01*
X0164961Y0012197D01*
X0164961Y0020197D01*
X0165961Y0021197D01*
X0164961Y0022197D01*
X0164961Y0030197D01*
X0165961Y0031197D01*
X0173961Y0031197D01*
X0174961Y0030197D01*
X0154008Y0034465D02*
X0154008Y0024465D01*
X0154008Y0020965D01*
X0146008Y0017465D02*
X0145008Y0017465D01*
X0145008Y0016465D01*
X0139008Y0016465D01*
X0139008Y0017465D01*
X0138008Y0017465D01*
X0130008Y0020965D02*
X0130008Y0024965D01*
X0130008Y0034465D01*
X0130008Y0037965D01*
X0123394Y0037539D02*
X0123394Y0024539D01*
X0121394Y0024539D01*
X0121394Y0037539D01*
X0123394Y0037539D01*
X0123394Y0050539D01*
X0087394Y0050539D01*
X0087394Y0037539D01*
X0087394Y0024539D01*
X0087394Y0011539D01*
X0123394Y0011539D01*
X0123394Y0024539D01*
X0118394Y0023539D02*
X0112394Y0023539D01*
X0112394Y0038539D01*
X0118394Y0038539D01*
X0118394Y0023539D01*
X0108394Y0023539D02*
X0102394Y0023539D01*
X0102394Y0038539D01*
X0108394Y0038539D01*
X0108394Y0023539D01*
X0098394Y0023539D02*
X0092394Y0023539D01*
X0092394Y0038539D01*
X0098394Y0038539D01*
X0098394Y0023539D01*
X0089394Y0024539D02*
X0089394Y0037539D01*
X0087394Y0037539D01*
X0077756Y0039425D02*
X0077756Y0049425D01*
X0077754Y0049485D01*
X0077749Y0049546D01*
X0077740Y0049605D01*
X0077727Y0049664D01*
X0077711Y0049723D01*
X0077691Y0049780D01*
X0077668Y0049835D01*
X0077641Y0049890D01*
X0077612Y0049942D01*
X0077579Y0049993D01*
X0077543Y0050042D01*
X0077505Y0050088D01*
X0077463Y0050132D01*
X0077419Y0050174D01*
X0077373Y0050212D01*
X0077324Y0050248D01*
X0077273Y0050281D01*
X0077221Y0050310D01*
X0077166Y0050337D01*
X0077111Y0050360D01*
X0077054Y0050380D01*
X0076995Y0050396D01*
X0076936Y0050409D01*
X0076877Y0050418D01*
X0076816Y0050423D01*
X0076756Y0050425D01*
X0038756Y0050425D01*
X0038696Y0050423D01*
X0038635Y0050418D01*
X0038576Y0050409D01*
X0038517Y0050396D01*
X0038458Y0050380D01*
X0038401Y0050360D01*
X0038346Y0050337D01*
X0038291Y0050310D01*
X0038239Y0050281D01*
X0038188Y0050248D01*
X0038139Y0050212D01*
X0038093Y0050174D01*
X0038049Y0050132D01*
X0038007Y0050088D01*
X0037969Y0050042D01*
X0037933Y0049993D01*
X0037900Y0049942D01*
X0037871Y0049890D01*
X0037844Y0049835D01*
X0037821Y0049780D01*
X0037801Y0049723D01*
X0037785Y0049664D01*
X0037772Y0049605D01*
X0037763Y0049546D01*
X0037758Y0049485D01*
X0037756Y0049425D01*
X0037756Y0039425D01*
X0037758Y0039365D01*
X0037763Y0039304D01*
X0037772Y0039245D01*
X0037785Y0039186D01*
X0037801Y0039127D01*
X0037821Y0039070D01*
X0037844Y0039015D01*
X0037871Y0038960D01*
X0037900Y0038908D01*
X0037933Y0038857D01*
X0037969Y0038808D01*
X0038007Y0038762D01*
X0038049Y0038718D01*
X0038093Y0038676D01*
X0038139Y0038638D01*
X0038188Y0038602D01*
X0038239Y0038569D01*
X0038291Y0038540D01*
X0038346Y0038513D01*
X0038401Y0038490D01*
X0038458Y0038470D01*
X0038517Y0038454D01*
X0038576Y0038441D01*
X0038635Y0038432D01*
X0038696Y0038427D01*
X0038756Y0038425D01*
X0076756Y0038425D01*
X0076816Y0038427D01*
X0076877Y0038432D01*
X0076936Y0038441D01*
X0076995Y0038454D01*
X0077054Y0038470D01*
X0077111Y0038490D01*
X0077166Y0038513D01*
X0077221Y0038540D01*
X0077273Y0038569D01*
X0077324Y0038602D01*
X0077373Y0038638D01*
X0077419Y0038676D01*
X0077463Y0038718D01*
X0077505Y0038762D01*
X0077543Y0038808D01*
X0077579Y0038857D01*
X0077612Y0038908D01*
X0077641Y0038960D01*
X0077668Y0039015D01*
X0077691Y0039070D01*
X0077711Y0039127D01*
X0077727Y0039186D01*
X0077740Y0039245D01*
X0077749Y0039304D01*
X0077754Y0039365D01*
X0077756Y0039425D01*
X0067756Y0044425D02*
X0059756Y0044425D01*
X0055756Y0044425D02*
X0047756Y0044425D01*
X0010354Y0053874D02*
X0010357Y0054119D01*
X0010366Y0054365D01*
X0010381Y0054610D01*
X0010402Y0054854D01*
X0010429Y0055098D01*
X0010462Y0055341D01*
X0010501Y0055584D01*
X0010546Y0055825D01*
X0010597Y0056065D01*
X0010654Y0056304D01*
X0010716Y0056541D01*
X0010785Y0056777D01*
X0010859Y0057011D01*
X0010939Y0057243D01*
X0011024Y0057473D01*
X0011115Y0057701D01*
X0011212Y0057926D01*
X0011314Y0058150D01*
X0011422Y0058370D01*
X0011535Y0058588D01*
X0011653Y0058803D01*
X0011777Y0059015D01*
X0011905Y0059224D01*
X0012039Y0059430D01*
X0012178Y0059632D01*
X0012322Y0059831D01*
X0012471Y0060026D01*
X0012624Y0060218D01*
X0012782Y0060406D01*
X0012944Y0060590D01*
X0013112Y0060769D01*
X0013283Y0060945D01*
X0013459Y0061116D01*
X0013638Y0061284D01*
X0013822Y0061446D01*
X0014010Y0061604D01*
X0014202Y0061757D01*
X0014397Y0061906D01*
X0014596Y0062050D01*
X0014798Y0062189D01*
X0015004Y0062323D01*
X0015213Y0062451D01*
X0015425Y0062575D01*
X0015640Y0062693D01*
X0015858Y0062806D01*
X0016078Y0062914D01*
X0016302Y0063016D01*
X0016527Y0063113D01*
X0016755Y0063204D01*
X0016985Y0063289D01*
X0017217Y0063369D01*
X0017451Y0063443D01*
X0017687Y0063512D01*
X0017924Y0063574D01*
X0018163Y0063631D01*
X0018403Y0063682D01*
X0018644Y0063727D01*
X0018887Y0063766D01*
X0019130Y0063799D01*
X0019374Y0063826D01*
X0019618Y0063847D01*
X0019863Y0063862D01*
X0020109Y0063871D01*
X0020354Y0063874D01*
X0020599Y0063871D01*
X0020845Y0063862D01*
X0021090Y0063847D01*
X0021334Y0063826D01*
X0021578Y0063799D01*
X0021821Y0063766D01*
X0022064Y0063727D01*
X0022305Y0063682D01*
X0022545Y0063631D01*
X0022784Y0063574D01*
X0023021Y0063512D01*
X0023257Y0063443D01*
X0023491Y0063369D01*
X0023723Y0063289D01*
X0023953Y0063204D01*
X0024181Y0063113D01*
X0024406Y0063016D01*
X0024630Y0062914D01*
X0024850Y0062806D01*
X0025068Y0062693D01*
X0025283Y0062575D01*
X0025495Y0062451D01*
X0025704Y0062323D01*
X0025910Y0062189D01*
X0026112Y0062050D01*
X0026311Y0061906D01*
X0026506Y0061757D01*
X0026698Y0061604D01*
X0026886Y0061446D01*
X0027070Y0061284D01*
X0027249Y0061116D01*
X0027425Y0060945D01*
X0027596Y0060769D01*
X0027764Y0060590D01*
X0027926Y0060406D01*
X0028084Y0060218D01*
X0028237Y0060026D01*
X0028386Y0059831D01*
X0028530Y0059632D01*
X0028669Y0059430D01*
X0028803Y0059224D01*
X0028931Y0059015D01*
X0029055Y0058803D01*
X0029173Y0058588D01*
X0029286Y0058370D01*
X0029394Y0058150D01*
X0029496Y0057926D01*
X0029593Y0057701D01*
X0029684Y0057473D01*
X0029769Y0057243D01*
X0029849Y0057011D01*
X0029923Y0056777D01*
X0029992Y0056541D01*
X0030054Y0056304D01*
X0030111Y0056065D01*
X0030162Y0055825D01*
X0030207Y0055584D01*
X0030246Y0055341D01*
X0030279Y0055098D01*
X0030306Y0054854D01*
X0030327Y0054610D01*
X0030342Y0054365D01*
X0030351Y0054119D01*
X0030354Y0053874D01*
X0030351Y0053629D01*
X0030342Y0053383D01*
X0030327Y0053138D01*
X0030306Y0052894D01*
X0030279Y0052650D01*
X0030246Y0052407D01*
X0030207Y0052164D01*
X0030162Y0051923D01*
X0030111Y0051683D01*
X0030054Y0051444D01*
X0029992Y0051207D01*
X0029923Y0050971D01*
X0029849Y0050737D01*
X0029769Y0050505D01*
X0029684Y0050275D01*
X0029593Y0050047D01*
X0029496Y0049822D01*
X0029394Y0049598D01*
X0029286Y0049378D01*
X0029173Y0049160D01*
X0029055Y0048945D01*
X0028931Y0048733D01*
X0028803Y0048524D01*
X0028669Y0048318D01*
X0028530Y0048116D01*
X0028386Y0047917D01*
X0028237Y0047722D01*
X0028084Y0047530D01*
X0027926Y0047342D01*
X0027764Y0047158D01*
X0027596Y0046979D01*
X0027425Y0046803D01*
X0027249Y0046632D01*
X0027070Y0046464D01*
X0026886Y0046302D01*
X0026698Y0046144D01*
X0026506Y0045991D01*
X0026311Y0045842D01*
X0026112Y0045698D01*
X0025910Y0045559D01*
X0025704Y0045425D01*
X0025495Y0045297D01*
X0025283Y0045173D01*
X0025068Y0045055D01*
X0024850Y0044942D01*
X0024630Y0044834D01*
X0024406Y0044732D01*
X0024181Y0044635D01*
X0023953Y0044544D01*
X0023723Y0044459D01*
X0023491Y0044379D01*
X0023257Y0044305D01*
X0023021Y0044236D01*
X0022784Y0044174D01*
X0022545Y0044117D01*
X0022305Y0044066D01*
X0022064Y0044021D01*
X0021821Y0043982D01*
X0021578Y0043949D01*
X0021334Y0043922D01*
X0021090Y0043901D01*
X0020845Y0043886D01*
X0020599Y0043877D01*
X0020354Y0043874D01*
X0020109Y0043877D01*
X0019863Y0043886D01*
X0019618Y0043901D01*
X0019374Y0043922D01*
X0019130Y0043949D01*
X0018887Y0043982D01*
X0018644Y0044021D01*
X0018403Y0044066D01*
X0018163Y0044117D01*
X0017924Y0044174D01*
X0017687Y0044236D01*
X0017451Y0044305D01*
X0017217Y0044379D01*
X0016985Y0044459D01*
X0016755Y0044544D01*
X0016527Y0044635D01*
X0016302Y0044732D01*
X0016078Y0044834D01*
X0015858Y0044942D01*
X0015640Y0045055D01*
X0015425Y0045173D01*
X0015213Y0045297D01*
X0015004Y0045425D01*
X0014798Y0045559D01*
X0014596Y0045698D01*
X0014397Y0045842D01*
X0014202Y0045991D01*
X0014010Y0046144D01*
X0013822Y0046302D01*
X0013638Y0046464D01*
X0013459Y0046632D01*
X0013283Y0046803D01*
X0013112Y0046979D01*
X0012944Y0047158D01*
X0012782Y0047342D01*
X0012624Y0047530D01*
X0012471Y0047722D01*
X0012322Y0047917D01*
X0012178Y0048116D01*
X0012039Y0048318D01*
X0011905Y0048524D01*
X0011777Y0048733D01*
X0011653Y0048945D01*
X0011535Y0049160D01*
X0011422Y0049378D01*
X0011314Y0049598D01*
X0011212Y0049822D01*
X0011115Y0050047D01*
X0011024Y0050275D01*
X0010939Y0050505D01*
X0010859Y0050737D01*
X0010785Y0050971D01*
X0010716Y0051207D01*
X0010654Y0051444D01*
X0010597Y0051683D01*
X0010546Y0051923D01*
X0010501Y0052164D01*
X0010462Y0052407D01*
X0010429Y0052650D01*
X0010402Y0052894D01*
X0010381Y0053138D01*
X0010366Y0053383D01*
X0010357Y0053629D01*
X0010354Y0053874D01*
X0018441Y0073496D02*
X0019941Y0073496D01*
X0020441Y0073996D01*
X0034441Y0073996D01*
X0034941Y0073496D01*
X0036441Y0073496D01*
X0036501Y0073498D01*
X0036562Y0073503D01*
X0036621Y0073512D01*
X0036680Y0073525D01*
X0036739Y0073541D01*
X0036796Y0073561D01*
X0036851Y0073584D01*
X0036906Y0073611D01*
X0036958Y0073640D01*
X0037009Y0073673D01*
X0037058Y0073709D01*
X0037104Y0073747D01*
X0037148Y0073789D01*
X0037190Y0073833D01*
X0037228Y0073879D01*
X0037264Y0073928D01*
X0037297Y0073979D01*
X0037326Y0074031D01*
X0037353Y0074086D01*
X0037376Y0074141D01*
X0037396Y0074198D01*
X0037412Y0074257D01*
X0037425Y0074316D01*
X0037434Y0074375D01*
X0037439Y0074436D01*
X0037441Y0074496D01*
X0037441Y0080496D01*
X0037439Y0080556D01*
X0037434Y0080617D01*
X0037425Y0080676D01*
X0037412Y0080735D01*
X0037396Y0080794D01*
X0037376Y0080851D01*
X0037353Y0080906D01*
X0037326Y0080961D01*
X0037297Y0081013D01*
X0037264Y0081064D01*
X0037228Y0081113D01*
X0037190Y0081159D01*
X0037148Y0081203D01*
X0037104Y0081245D01*
X0037058Y0081283D01*
X0037009Y0081319D01*
X0036958Y0081352D01*
X0036906Y0081381D01*
X0036851Y0081408D01*
X0036796Y0081431D01*
X0036739Y0081451D01*
X0036680Y0081467D01*
X0036621Y0081480D01*
X0036562Y0081489D01*
X0036501Y0081494D01*
X0036441Y0081496D01*
X0034941Y0081496D01*
X0034441Y0080996D01*
X0020441Y0080996D01*
X0019941Y0081496D01*
X0018441Y0081496D01*
X0018381Y0081494D01*
X0018320Y0081489D01*
X0018261Y0081480D01*
X0018202Y0081467D01*
X0018143Y0081451D01*
X0018086Y0081431D01*
X0018031Y0081408D01*
X0017976Y0081381D01*
X0017924Y0081352D01*
X0017873Y0081319D01*
X0017824Y0081283D01*
X0017778Y0081245D01*
X0017734Y0081203D01*
X0017692Y0081159D01*
X0017654Y0081113D01*
X0017618Y0081064D01*
X0017585Y0081013D01*
X0017556Y0080961D01*
X0017529Y0080906D01*
X0017506Y0080851D01*
X0017486Y0080794D01*
X0017470Y0080735D01*
X0017457Y0080676D01*
X0017448Y0080617D01*
X0017443Y0080556D01*
X0017441Y0080496D01*
X0017441Y0074496D01*
X0017443Y0074436D01*
X0017448Y0074375D01*
X0017457Y0074316D01*
X0017470Y0074257D01*
X0017486Y0074198D01*
X0017506Y0074141D01*
X0017529Y0074086D01*
X0017556Y0074031D01*
X0017585Y0073979D01*
X0017618Y0073928D01*
X0017654Y0073879D01*
X0017692Y0073833D01*
X0017734Y0073789D01*
X0017778Y0073747D01*
X0017824Y0073709D01*
X0017873Y0073673D01*
X0017924Y0073640D01*
X0017976Y0073611D01*
X0018031Y0073584D01*
X0018086Y0073561D01*
X0018143Y0073541D01*
X0018202Y0073525D01*
X0018261Y0073512D01*
X0018320Y0073503D01*
X0018381Y0073498D01*
X0018441Y0073496D01*
X0050087Y0082776D02*
X0050087Y0086776D01*
X0050087Y0096276D01*
X0050087Y0099776D01*
X0058087Y0103276D02*
X0059087Y0103276D01*
X0059087Y0104276D01*
X0065087Y0104276D01*
X0065087Y0103276D01*
X0066087Y0103276D01*
X0074087Y0099776D02*
X0074087Y0096276D01*
X0074087Y0086276D01*
X0074087Y0082776D01*
X0066087Y0079276D02*
X0065087Y0079276D01*
X0065087Y0078276D01*
X0059087Y0078276D01*
X0059087Y0079276D01*
X0058087Y0079276D01*
X0061087Y0091276D02*
X0061089Y0091339D01*
X0061095Y0091401D01*
X0061105Y0091463D01*
X0061118Y0091525D01*
X0061136Y0091585D01*
X0061157Y0091644D01*
X0061182Y0091702D01*
X0061211Y0091758D01*
X0061243Y0091812D01*
X0061278Y0091864D01*
X0061316Y0091913D01*
X0061358Y0091961D01*
X0061402Y0092005D01*
X0061450Y0092047D01*
X0061499Y0092085D01*
X0061551Y0092120D01*
X0061605Y0092152D01*
X0061661Y0092181D01*
X0061719Y0092206D01*
X0061778Y0092227D01*
X0061838Y0092245D01*
X0061900Y0092258D01*
X0061962Y0092268D01*
X0062024Y0092274D01*
X0062087Y0092276D01*
X0062150Y0092274D01*
X0062212Y0092268D01*
X0062274Y0092258D01*
X0062336Y0092245D01*
X0062396Y0092227D01*
X0062455Y0092206D01*
X0062513Y0092181D01*
X0062569Y0092152D01*
X0062623Y0092120D01*
X0062675Y0092085D01*
X0062724Y0092047D01*
X0062772Y0092005D01*
X0062816Y0091961D01*
X0062858Y0091913D01*
X0062896Y0091864D01*
X0062931Y0091812D01*
X0062963Y0091758D01*
X0062992Y0091702D01*
X0063017Y0091644D01*
X0063038Y0091585D01*
X0063056Y0091525D01*
X0063069Y0091463D01*
X0063079Y0091401D01*
X0063085Y0091339D01*
X0063087Y0091276D01*
X0063085Y0091213D01*
X0063079Y0091151D01*
X0063069Y0091089D01*
X0063056Y0091027D01*
X0063038Y0090967D01*
X0063017Y0090908D01*
X0062992Y0090850D01*
X0062963Y0090794D01*
X0062931Y0090740D01*
X0062896Y0090688D01*
X0062858Y0090639D01*
X0062816Y0090591D01*
X0062772Y0090547D01*
X0062724Y0090505D01*
X0062675Y0090467D01*
X0062623Y0090432D01*
X0062569Y0090400D01*
X0062513Y0090371D01*
X0062455Y0090346D01*
X0062396Y0090325D01*
X0062336Y0090307D01*
X0062274Y0090294D01*
X0062212Y0090284D01*
X0062150Y0090278D01*
X0062087Y0090276D01*
X0062024Y0090278D01*
X0061962Y0090284D01*
X0061900Y0090294D01*
X0061838Y0090307D01*
X0061778Y0090325D01*
X0061719Y0090346D01*
X0061661Y0090371D01*
X0061605Y0090400D01*
X0061551Y0090432D01*
X0061499Y0090467D01*
X0061450Y0090505D01*
X0061402Y0090547D01*
X0061358Y0090591D01*
X0061316Y0090639D01*
X0061278Y0090688D01*
X0061243Y0090740D01*
X0061211Y0090794D01*
X0061182Y0090850D01*
X0061157Y0090908D01*
X0061136Y0090967D01*
X0061118Y0091027D01*
X0061105Y0091089D01*
X0061095Y0091151D01*
X0061089Y0091213D01*
X0061087Y0091276D01*
X0055087Y0091276D02*
X0055089Y0091448D01*
X0055095Y0091619D01*
X0055106Y0091791D01*
X0055121Y0091962D01*
X0055140Y0092133D01*
X0055163Y0092303D01*
X0055190Y0092473D01*
X0055222Y0092642D01*
X0055257Y0092810D01*
X0055297Y0092977D01*
X0055341Y0093143D01*
X0055388Y0093308D01*
X0055440Y0093472D01*
X0055496Y0093634D01*
X0055556Y0093795D01*
X0055620Y0093955D01*
X0055688Y0094113D01*
X0055759Y0094269D01*
X0055834Y0094423D01*
X0055914Y0094576D01*
X0055996Y0094726D01*
X0056083Y0094875D01*
X0056173Y0095021D01*
X0056267Y0095165D01*
X0056364Y0095307D01*
X0056465Y0095446D01*
X0056569Y0095583D01*
X0056676Y0095717D01*
X0056787Y0095848D01*
X0056900Y0095977D01*
X0057017Y0096103D01*
X0057137Y0096226D01*
X0057260Y0096346D01*
X0057386Y0096463D01*
X0057515Y0096576D01*
X0057646Y0096687D01*
X0057780Y0096794D01*
X0057917Y0096898D01*
X0058056Y0096999D01*
X0058198Y0097096D01*
X0058342Y0097190D01*
X0058488Y0097280D01*
X0058637Y0097367D01*
X0058787Y0097449D01*
X0058940Y0097529D01*
X0059094Y0097604D01*
X0059250Y0097675D01*
X0059408Y0097743D01*
X0059568Y0097807D01*
X0059729Y0097867D01*
X0059891Y0097923D01*
X0060055Y0097975D01*
X0060220Y0098022D01*
X0060386Y0098066D01*
X0060553Y0098106D01*
X0060721Y0098141D01*
X0060890Y0098173D01*
X0061060Y0098200D01*
X0061230Y0098223D01*
X0061401Y0098242D01*
X0061572Y0098257D01*
X0061744Y0098268D01*
X0061915Y0098274D01*
X0062087Y0098276D01*
X0062259Y0098274D01*
X0062430Y0098268D01*
X0062602Y0098257D01*
X0062773Y0098242D01*
X0062944Y0098223D01*
X0063114Y0098200D01*
X0063284Y0098173D01*
X0063453Y0098141D01*
X0063621Y0098106D01*
X0063788Y0098066D01*
X0063954Y0098022D01*
X0064119Y0097975D01*
X0064283Y0097923D01*
X0064445Y0097867D01*
X0064606Y0097807D01*
X0064766Y0097743D01*
X0064924Y0097675D01*
X0065080Y0097604D01*
X0065234Y0097529D01*
X0065387Y0097449D01*
X0065537Y0097367D01*
X0065686Y0097280D01*
X0065832Y0097190D01*
X0065976Y0097096D01*
X0066118Y0096999D01*
X0066257Y0096898D01*
X0066394Y0096794D01*
X0066528Y0096687D01*
X0066659Y0096576D01*
X0066788Y0096463D01*
X0066914Y0096346D01*
X0067037Y0096226D01*
X0067157Y0096103D01*
X0067274Y0095977D01*
X0067387Y0095848D01*
X0067498Y0095717D01*
X0067605Y0095583D01*
X0067709Y0095446D01*
X0067810Y0095307D01*
X0067907Y0095165D01*
X0068001Y0095021D01*
X0068091Y0094875D01*
X0068178Y0094726D01*
X0068260Y0094576D01*
X0068340Y0094423D01*
X0068415Y0094269D01*
X0068486Y0094113D01*
X0068554Y0093955D01*
X0068618Y0093795D01*
X0068678Y0093634D01*
X0068734Y0093472D01*
X0068786Y0093308D01*
X0068833Y0093143D01*
X0068877Y0092977D01*
X0068917Y0092810D01*
X0068952Y0092642D01*
X0068984Y0092473D01*
X0069011Y0092303D01*
X0069034Y0092133D01*
X0069053Y0091962D01*
X0069068Y0091791D01*
X0069079Y0091619D01*
X0069085Y0091448D01*
X0069087Y0091276D01*
X0069085Y0091104D01*
X0069079Y0090933D01*
X0069068Y0090761D01*
X0069053Y0090590D01*
X0069034Y0090419D01*
X0069011Y0090249D01*
X0068984Y0090079D01*
X0068952Y0089910D01*
X0068917Y0089742D01*
X0068877Y0089575D01*
X0068833Y0089409D01*
X0068786Y0089244D01*
X0068734Y0089080D01*
X0068678Y0088918D01*
X0068618Y0088757D01*
X0068554Y0088597D01*
X0068486Y0088439D01*
X0068415Y0088283D01*
X0068340Y0088129D01*
X0068260Y0087976D01*
X0068178Y0087826D01*
X0068091Y0087677D01*
X0068001Y0087531D01*
X0067907Y0087387D01*
X0067810Y0087245D01*
X0067709Y0087106D01*
X0067605Y0086969D01*
X0067498Y0086835D01*
X0067387Y0086704D01*
X0067274Y0086575D01*
X0067157Y0086449D01*
X0067037Y0086326D01*
X0066914Y0086206D01*
X0066788Y0086089D01*
X0066659Y0085976D01*
X0066528Y0085865D01*
X0066394Y0085758D01*
X0066257Y0085654D01*
X0066118Y0085553D01*
X0065976Y0085456D01*
X0065832Y0085362D01*
X0065686Y0085272D01*
X0065537Y0085185D01*
X0065387Y0085103D01*
X0065234Y0085023D01*
X0065080Y0084948D01*
X0064924Y0084877D01*
X0064766Y0084809D01*
X0064606Y0084745D01*
X0064445Y0084685D01*
X0064283Y0084629D01*
X0064119Y0084577D01*
X0063954Y0084530D01*
X0063788Y0084486D01*
X0063621Y0084446D01*
X0063453Y0084411D01*
X0063284Y0084379D01*
X0063114Y0084352D01*
X0062944Y0084329D01*
X0062773Y0084310D01*
X0062602Y0084295D01*
X0062430Y0084284D01*
X0062259Y0084278D01*
X0062087Y0084276D01*
X0061915Y0084278D01*
X0061744Y0084284D01*
X0061572Y0084295D01*
X0061401Y0084310D01*
X0061230Y0084329D01*
X0061060Y0084352D01*
X0060890Y0084379D01*
X0060721Y0084411D01*
X0060553Y0084446D01*
X0060386Y0084486D01*
X0060220Y0084530D01*
X0060055Y0084577D01*
X0059891Y0084629D01*
X0059729Y0084685D01*
X0059568Y0084745D01*
X0059408Y0084809D01*
X0059250Y0084877D01*
X0059094Y0084948D01*
X0058940Y0085023D01*
X0058787Y0085103D01*
X0058637Y0085185D01*
X0058488Y0085272D01*
X0058342Y0085362D01*
X0058198Y0085456D01*
X0058056Y0085553D01*
X0057917Y0085654D01*
X0057780Y0085758D01*
X0057646Y0085865D01*
X0057515Y0085976D01*
X0057386Y0086089D01*
X0057260Y0086206D01*
X0057137Y0086326D01*
X0057017Y0086449D01*
X0056900Y0086575D01*
X0056787Y0086704D01*
X0056676Y0086835D01*
X0056569Y0086969D01*
X0056465Y0087106D01*
X0056364Y0087245D01*
X0056267Y0087387D01*
X0056173Y0087531D01*
X0056083Y0087677D01*
X0055996Y0087826D01*
X0055914Y0087976D01*
X0055834Y0088129D01*
X0055759Y0088283D01*
X0055688Y0088439D01*
X0055620Y0088597D01*
X0055556Y0088757D01*
X0055496Y0088918D01*
X0055440Y0089080D01*
X0055388Y0089244D01*
X0055341Y0089409D01*
X0055297Y0089575D01*
X0055257Y0089742D01*
X0055222Y0089910D01*
X0055190Y0090079D01*
X0055163Y0090249D01*
X0055140Y0090419D01*
X0055121Y0090590D01*
X0055106Y0090761D01*
X0055095Y0090933D01*
X0055089Y0091104D01*
X0055087Y0091276D01*
X0049469Y0112866D02*
X0047969Y0112866D01*
X0047909Y0112868D01*
X0047848Y0112873D01*
X0047789Y0112882D01*
X0047730Y0112895D01*
X0047671Y0112911D01*
X0047614Y0112931D01*
X0047559Y0112954D01*
X0047504Y0112981D01*
X0047452Y0113010D01*
X0047401Y0113043D01*
X0047352Y0113079D01*
X0047306Y0113117D01*
X0047262Y0113159D01*
X0047220Y0113203D01*
X0047182Y0113249D01*
X0047146Y0113298D01*
X0047113Y0113349D01*
X0047084Y0113401D01*
X0047057Y0113456D01*
X0047034Y0113511D01*
X0047014Y0113568D01*
X0046998Y0113627D01*
X0046985Y0113686D01*
X0046976Y0113745D01*
X0046971Y0113806D01*
X0046969Y0113866D01*
X0046969Y0119866D01*
X0046971Y0119926D01*
X0046976Y0119987D01*
X0046985Y0120046D01*
X0046998Y0120105D01*
X0047014Y0120164D01*
X0047034Y0120221D01*
X0047057Y0120276D01*
X0047084Y0120331D01*
X0047113Y0120383D01*
X0047146Y0120434D01*
X0047182Y0120483D01*
X0047220Y0120529D01*
X0047262Y0120573D01*
X0047306Y0120615D01*
X0047352Y0120653D01*
X0047401Y0120689D01*
X0047452Y0120722D01*
X0047504Y0120751D01*
X0047559Y0120778D01*
X0047614Y0120801D01*
X0047671Y0120821D01*
X0047730Y0120837D01*
X0047789Y0120850D01*
X0047848Y0120859D01*
X0047909Y0120864D01*
X0047969Y0120866D01*
X0049469Y0120866D01*
X0049969Y0120366D01*
X0063969Y0120366D01*
X0064469Y0120866D01*
X0065969Y0120866D01*
X0066029Y0120864D01*
X0066090Y0120859D01*
X0066149Y0120850D01*
X0066208Y0120837D01*
X0066267Y0120821D01*
X0066324Y0120801D01*
X0066379Y0120778D01*
X0066434Y0120751D01*
X0066486Y0120722D01*
X0066537Y0120689D01*
X0066586Y0120653D01*
X0066632Y0120615D01*
X0066676Y0120573D01*
X0066718Y0120529D01*
X0066756Y0120483D01*
X0066792Y0120434D01*
X0066825Y0120383D01*
X0066854Y0120331D01*
X0066881Y0120276D01*
X0066904Y0120221D01*
X0066924Y0120164D01*
X0066940Y0120105D01*
X0066953Y0120046D01*
X0066962Y0119987D01*
X0066967Y0119926D01*
X0066969Y0119866D01*
X0066969Y0113866D01*
X0066967Y0113806D01*
X0066962Y0113745D01*
X0066953Y0113686D01*
X0066940Y0113627D01*
X0066924Y0113568D01*
X0066904Y0113511D01*
X0066881Y0113456D01*
X0066854Y0113401D01*
X0066825Y0113349D01*
X0066792Y0113298D01*
X0066756Y0113249D01*
X0066718Y0113203D01*
X0066676Y0113159D01*
X0066632Y0113117D01*
X0066586Y0113079D01*
X0066537Y0113043D01*
X0066486Y0113010D01*
X0066434Y0112981D01*
X0066379Y0112954D01*
X0066324Y0112931D01*
X0066267Y0112911D01*
X0066208Y0112895D01*
X0066149Y0112882D01*
X0066090Y0112873D01*
X0066029Y0112868D01*
X0065969Y0112866D01*
X0064469Y0112866D01*
X0063969Y0113366D01*
X0049969Y0113366D01*
X0049469Y0112866D01*
X0048583Y0122850D02*
X0038583Y0122850D01*
X0038523Y0122852D01*
X0038462Y0122857D01*
X0038403Y0122866D01*
X0038344Y0122879D01*
X0038285Y0122895D01*
X0038228Y0122915D01*
X0038173Y0122938D01*
X0038118Y0122965D01*
X0038066Y0122994D01*
X0038015Y0123027D01*
X0037966Y0123063D01*
X0037920Y0123101D01*
X0037876Y0123143D01*
X0037834Y0123187D01*
X0037796Y0123233D01*
X0037760Y0123282D01*
X0037727Y0123333D01*
X0037698Y0123385D01*
X0037671Y0123440D01*
X0037648Y0123495D01*
X0037628Y0123552D01*
X0037612Y0123611D01*
X0037599Y0123670D01*
X0037590Y0123729D01*
X0037585Y0123790D01*
X0037583Y0123850D01*
X0037583Y0161850D01*
X0037585Y0161910D01*
X0037590Y0161971D01*
X0037599Y0162030D01*
X0037612Y0162089D01*
X0037628Y0162148D01*
X0037648Y0162205D01*
X0037671Y0162260D01*
X0037698Y0162315D01*
X0037727Y0162367D01*
X0037760Y0162418D01*
X0037796Y0162467D01*
X0037834Y0162513D01*
X0037876Y0162557D01*
X0037920Y0162599D01*
X0037966Y0162637D01*
X0038015Y0162673D01*
X0038066Y0162706D01*
X0038118Y0162735D01*
X0038173Y0162762D01*
X0038228Y0162785D01*
X0038285Y0162805D01*
X0038344Y0162821D01*
X0038403Y0162834D01*
X0038462Y0162843D01*
X0038523Y0162848D01*
X0038583Y0162850D01*
X0048583Y0162850D01*
X0048643Y0162848D01*
X0048704Y0162843D01*
X0048763Y0162834D01*
X0048822Y0162821D01*
X0048881Y0162805D01*
X0048938Y0162785D01*
X0048993Y0162762D01*
X0049048Y0162735D01*
X0049100Y0162706D01*
X0049151Y0162673D01*
X0049200Y0162637D01*
X0049246Y0162599D01*
X0049290Y0162557D01*
X0049332Y0162513D01*
X0049370Y0162467D01*
X0049406Y0162418D01*
X0049439Y0162367D01*
X0049468Y0162315D01*
X0049495Y0162260D01*
X0049518Y0162205D01*
X0049538Y0162148D01*
X0049554Y0162089D01*
X0049567Y0162030D01*
X0049576Y0161971D01*
X0049581Y0161910D01*
X0049583Y0161850D01*
X0049583Y0123850D01*
X0049581Y0123790D01*
X0049576Y0123729D01*
X0049567Y0123670D01*
X0049554Y0123611D01*
X0049538Y0123552D01*
X0049518Y0123495D01*
X0049495Y0123440D01*
X0049468Y0123385D01*
X0049439Y0123333D01*
X0049406Y0123282D01*
X0049370Y0123233D01*
X0049332Y0123187D01*
X0049290Y0123143D01*
X0049246Y0123101D01*
X0049200Y0123063D01*
X0049151Y0123027D01*
X0049100Y0122994D01*
X0049048Y0122965D01*
X0048993Y0122938D01*
X0048938Y0122915D01*
X0048881Y0122895D01*
X0048822Y0122879D01*
X0048763Y0122866D01*
X0048704Y0122857D01*
X0048643Y0122852D01*
X0048583Y0122850D01*
X0043583Y0132850D02*
X0043583Y0140850D01*
X0043583Y0144850D02*
X0043583Y0152850D01*
X0064921Y0154819D02*
X0064921Y0149819D01*
X0064921Y0154819D02*
X0204921Y0154819D01*
X0204921Y0134819D01*
X0065421Y0134819D01*
X0064921Y0134819D02*
X0064921Y0139819D01*
X0065061Y0139821D01*
X0065201Y0139827D01*
X0065341Y0139837D01*
X0065481Y0139850D01*
X0065620Y0139868D01*
X0065759Y0139890D01*
X0065896Y0139915D01*
X0066034Y0139944D01*
X0066170Y0139977D01*
X0066305Y0140014D01*
X0066439Y0140055D01*
X0066572Y0140100D01*
X0066704Y0140148D01*
X0066834Y0140200D01*
X0066963Y0140255D01*
X0067090Y0140314D01*
X0067216Y0140377D01*
X0067340Y0140443D01*
X0067461Y0140512D01*
X0067581Y0140585D01*
X0067699Y0140662D01*
X0067814Y0140741D01*
X0067928Y0140824D01*
X0068038Y0140910D01*
X0068147Y0140999D01*
X0068253Y0141091D01*
X0068356Y0141186D01*
X0068457Y0141283D01*
X0068554Y0141384D01*
X0068649Y0141487D01*
X0068741Y0141593D01*
X0068830Y0141702D01*
X0068916Y0141812D01*
X0068999Y0141926D01*
X0069078Y0142041D01*
X0069155Y0142159D01*
X0069228Y0142279D01*
X0069297Y0142400D01*
X0069363Y0142524D01*
X0069426Y0142650D01*
X0069485Y0142777D01*
X0069540Y0142906D01*
X0069592Y0143036D01*
X0069640Y0143168D01*
X0069685Y0143301D01*
X0069726Y0143435D01*
X0069763Y0143570D01*
X0069796Y0143706D01*
X0069825Y0143844D01*
X0069850Y0143981D01*
X0069872Y0144120D01*
X0069890Y0144259D01*
X0069903Y0144399D01*
X0069913Y0144539D01*
X0069919Y0144679D01*
X0069921Y0144819D01*
X0069919Y0144959D01*
X0069913Y0145099D01*
X0069903Y0145239D01*
X0069890Y0145379D01*
X0069872Y0145518D01*
X0069850Y0145657D01*
X0069825Y0145794D01*
X0069796Y0145932D01*
X0069763Y0146068D01*
X0069726Y0146203D01*
X0069685Y0146337D01*
X0069640Y0146470D01*
X0069592Y0146602D01*
X0069540Y0146732D01*
X0069485Y0146861D01*
X0069426Y0146988D01*
X0069363Y0147114D01*
X0069297Y0147238D01*
X0069228Y0147359D01*
X0069155Y0147479D01*
X0069078Y0147597D01*
X0068999Y0147712D01*
X0068916Y0147826D01*
X0068830Y0147936D01*
X0068741Y0148045D01*
X0068649Y0148151D01*
X0068554Y0148254D01*
X0068457Y0148355D01*
X0068356Y0148452D01*
X0068253Y0148547D01*
X0068147Y0148639D01*
X0068038Y0148728D01*
X0067928Y0148814D01*
X0067814Y0148897D01*
X0067699Y0148976D01*
X0067581Y0149053D01*
X0067461Y0149126D01*
X0067340Y0149195D01*
X0067216Y0149261D01*
X0067090Y0149324D01*
X0066963Y0149383D01*
X0066834Y0149438D01*
X0066704Y0149490D01*
X0066572Y0149538D01*
X0066439Y0149583D01*
X0066305Y0149624D01*
X0066170Y0149661D01*
X0066034Y0149694D01*
X0065896Y0149723D01*
X0065759Y0149748D01*
X0065620Y0149770D01*
X0065481Y0149788D01*
X0065341Y0149801D01*
X0065201Y0149811D01*
X0065061Y0149817D01*
X0064921Y0149819D01*
X0078496Y0180370D02*
X0094496Y0180370D01*
X0094496Y0190370D01*
X0078496Y0190370D01*
X0078496Y0180370D01*
X0082496Y0182870D02*
X0086496Y0185370D01*
X0086496Y0187870D01*
X0086496Y0185370D02*
X0086496Y0182870D01*
X0086496Y0185370D02*
X0080496Y0185370D01*
X0082496Y0182870D02*
X0082496Y0187870D01*
X0086496Y0185370D01*
X0088996Y0185370D01*
X0161972Y0188913D02*
X0161976Y0189244D01*
X0161988Y0189575D01*
X0162009Y0189906D01*
X0162037Y0190236D01*
X0162074Y0190566D01*
X0162118Y0190894D01*
X0162171Y0191221D01*
X0162231Y0191547D01*
X0162300Y0191871D01*
X0162377Y0192193D01*
X0162461Y0192514D01*
X0162553Y0192832D01*
X0162653Y0193148D01*
X0162761Y0193461D01*
X0162877Y0193772D01*
X0163000Y0194079D01*
X0163130Y0194384D01*
X0163268Y0194685D01*
X0163413Y0194983D01*
X0163566Y0195277D01*
X0163726Y0195567D01*
X0163893Y0195853D01*
X0164066Y0196135D01*
X0164247Y0196413D01*
X0164435Y0196686D01*
X0164629Y0196955D01*
X0164829Y0197219D01*
X0165036Y0197477D01*
X0165250Y0197731D01*
X0165469Y0197979D01*
X0165695Y0198222D01*
X0165926Y0198459D01*
X0166163Y0198690D01*
X0166406Y0198916D01*
X0166654Y0199135D01*
X0166908Y0199349D01*
X0167166Y0199556D01*
X0167430Y0199756D01*
X0167699Y0199950D01*
X0167972Y0200138D01*
X0168250Y0200319D01*
X0168532Y0200492D01*
X0168818Y0200659D01*
X0169108Y0200819D01*
X0169402Y0200972D01*
X0169700Y0201117D01*
X0170001Y0201255D01*
X0170306Y0201385D01*
X0170613Y0201508D01*
X0170924Y0201624D01*
X0171237Y0201732D01*
X0171553Y0201832D01*
X0171871Y0201924D01*
X0172192Y0202008D01*
X0172514Y0202085D01*
X0172838Y0202154D01*
X0173164Y0202214D01*
X0173491Y0202267D01*
X0173819Y0202311D01*
X0174149Y0202348D01*
X0174479Y0202376D01*
X0174810Y0202397D01*
X0175141Y0202409D01*
X0175472Y0202413D01*
X0175803Y0202409D01*
X0176134Y0202397D01*
X0176465Y0202376D01*
X0176795Y0202348D01*
X0177125Y0202311D01*
X0177453Y0202267D01*
X0177780Y0202214D01*
X0178106Y0202154D01*
X0178430Y0202085D01*
X0178752Y0202008D01*
X0179073Y0201924D01*
X0179391Y0201832D01*
X0179707Y0201732D01*
X0180020Y0201624D01*
X0180331Y0201508D01*
X0180638Y0201385D01*
X0180943Y0201255D01*
X0181244Y0201117D01*
X0181542Y0200972D01*
X0181836Y0200819D01*
X0182126Y0200659D01*
X0182412Y0200492D01*
X0182694Y0200319D01*
X0182972Y0200138D01*
X0183245Y0199950D01*
X0183514Y0199756D01*
X0183778Y0199556D01*
X0184036Y0199349D01*
X0184290Y0199135D01*
X0184538Y0198916D01*
X0184781Y0198690D01*
X0185018Y0198459D01*
X0185249Y0198222D01*
X0185475Y0197979D01*
X0185694Y0197731D01*
X0185908Y0197477D01*
X0186115Y0197219D01*
X0186315Y0196955D01*
X0186509Y0196686D01*
X0186697Y0196413D01*
X0186878Y0196135D01*
X0187051Y0195853D01*
X0187218Y0195567D01*
X0187378Y0195277D01*
X0187531Y0194983D01*
X0187676Y0194685D01*
X0187814Y0194384D01*
X0187944Y0194079D01*
X0188067Y0193772D01*
X0188183Y0193461D01*
X0188291Y0193148D01*
X0188391Y0192832D01*
X0188483Y0192514D01*
X0188567Y0192193D01*
X0188644Y0191871D01*
X0188713Y0191547D01*
X0188773Y0191221D01*
X0188826Y0190894D01*
X0188870Y0190566D01*
X0188907Y0190236D01*
X0188935Y0189906D01*
X0188956Y0189575D01*
X0188968Y0189244D01*
X0188972Y0188913D01*
X0188968Y0188582D01*
X0188956Y0188251D01*
X0188935Y0187920D01*
X0188907Y0187590D01*
X0188870Y0187260D01*
X0188826Y0186932D01*
X0188773Y0186605D01*
X0188713Y0186279D01*
X0188644Y0185955D01*
X0188567Y0185633D01*
X0188483Y0185312D01*
X0188391Y0184994D01*
X0188291Y0184678D01*
X0188183Y0184365D01*
X0188067Y0184054D01*
X0187944Y0183747D01*
X0187814Y0183442D01*
X0187676Y0183141D01*
X0187531Y0182843D01*
X0187378Y0182549D01*
X0187218Y0182259D01*
X0187051Y0181973D01*
X0186878Y0181691D01*
X0186697Y0181413D01*
X0186509Y0181140D01*
X0186315Y0180871D01*
X0186115Y0180607D01*
X0185908Y0180349D01*
X0185694Y0180095D01*
X0185475Y0179847D01*
X0185249Y0179604D01*
X0185018Y0179367D01*
X0184781Y0179136D01*
X0184538Y0178910D01*
X0184290Y0178691D01*
X0184036Y0178477D01*
X0183778Y0178270D01*
X0183514Y0178070D01*
X0183245Y0177876D01*
X0182972Y0177688D01*
X0182694Y0177507D01*
X0182412Y0177334D01*
X0182126Y0177167D01*
X0181836Y0177007D01*
X0181542Y0176854D01*
X0181244Y0176709D01*
X0180943Y0176571D01*
X0180638Y0176441D01*
X0180331Y0176318D01*
X0180020Y0176202D01*
X0179707Y0176094D01*
X0179391Y0175994D01*
X0179073Y0175902D01*
X0178752Y0175818D01*
X0178430Y0175741D01*
X0178106Y0175672D01*
X0177780Y0175612D01*
X0177453Y0175559D01*
X0177125Y0175515D01*
X0176795Y0175478D01*
X0176465Y0175450D01*
X0176134Y0175429D01*
X0175803Y0175417D01*
X0175472Y0175413D01*
X0175141Y0175417D01*
X0174810Y0175429D01*
X0174479Y0175450D01*
X0174149Y0175478D01*
X0173819Y0175515D01*
X0173491Y0175559D01*
X0173164Y0175612D01*
X0172838Y0175672D01*
X0172514Y0175741D01*
X0172192Y0175818D01*
X0171871Y0175902D01*
X0171553Y0175994D01*
X0171237Y0176094D01*
X0170924Y0176202D01*
X0170613Y0176318D01*
X0170306Y0176441D01*
X0170001Y0176571D01*
X0169700Y0176709D01*
X0169402Y0176854D01*
X0169108Y0177007D01*
X0168818Y0177167D01*
X0168532Y0177334D01*
X0168250Y0177507D01*
X0167972Y0177688D01*
X0167699Y0177876D01*
X0167430Y0178070D01*
X0167166Y0178270D01*
X0166908Y0178477D01*
X0166654Y0178691D01*
X0166406Y0178910D01*
X0166163Y0179136D01*
X0165926Y0179367D01*
X0165695Y0179604D01*
X0165469Y0179847D01*
X0165250Y0180095D01*
X0165036Y0180349D01*
X0164829Y0180607D01*
X0164629Y0180871D01*
X0164435Y0181140D01*
X0164247Y0181413D01*
X0164066Y0181691D01*
X0163893Y0181973D01*
X0163726Y0182259D01*
X0163566Y0182549D01*
X0163413Y0182843D01*
X0163268Y0183141D01*
X0163130Y0183442D01*
X0163000Y0183747D01*
X0162877Y0184054D01*
X0162761Y0184365D01*
X0162653Y0184678D01*
X0162553Y0184994D01*
X0162461Y0185312D01*
X0162377Y0185633D01*
X0162300Y0185955D01*
X0162231Y0186279D01*
X0162171Y0186605D01*
X0162118Y0186932D01*
X0162074Y0187260D01*
X0162037Y0187590D01*
X0162009Y0187920D01*
X0161988Y0188251D01*
X0161976Y0188582D01*
X0161972Y0188913D01*
X0184472Y0188913D02*
X0187472Y0188913D01*
X0185972Y0190413D02*
X0185972Y0187413D01*
X0203780Y0183992D02*
X0203780Y0193992D01*
X0203782Y0194052D01*
X0203787Y0194113D01*
X0203796Y0194172D01*
X0203809Y0194231D01*
X0203825Y0194290D01*
X0203845Y0194347D01*
X0203868Y0194402D01*
X0203895Y0194457D01*
X0203924Y0194509D01*
X0203957Y0194560D01*
X0203993Y0194609D01*
X0204031Y0194655D01*
X0204073Y0194699D01*
X0204117Y0194741D01*
X0204163Y0194779D01*
X0204212Y0194815D01*
X0204263Y0194848D01*
X0204315Y0194877D01*
X0204370Y0194904D01*
X0204425Y0194927D01*
X0204482Y0194947D01*
X0204541Y0194963D01*
X0204600Y0194976D01*
X0204659Y0194985D01*
X0204720Y0194990D01*
X0204780Y0194992D01*
X0242780Y0194992D01*
X0242840Y0194990D01*
X0242901Y0194985D01*
X0242960Y0194976D01*
X0243019Y0194963D01*
X0243078Y0194947D01*
X0243135Y0194927D01*
X0243190Y0194904D01*
X0243245Y0194877D01*
X0243297Y0194848D01*
X0243348Y0194815D01*
X0243397Y0194779D01*
X0243443Y0194741D01*
X0243487Y0194699D01*
X0243529Y0194655D01*
X0243567Y0194609D01*
X0243603Y0194560D01*
X0243636Y0194509D01*
X0243665Y0194457D01*
X0243692Y0194402D01*
X0243715Y0194347D01*
X0243735Y0194290D01*
X0243751Y0194231D01*
X0243764Y0194172D01*
X0243773Y0194113D01*
X0243778Y0194052D01*
X0243780Y0193992D01*
X0243780Y0183992D01*
X0243778Y0183932D01*
X0243773Y0183871D01*
X0243764Y0183812D01*
X0243751Y0183753D01*
X0243735Y0183694D01*
X0243715Y0183637D01*
X0243692Y0183582D01*
X0243665Y0183527D01*
X0243636Y0183475D01*
X0243603Y0183424D01*
X0243567Y0183375D01*
X0243529Y0183329D01*
X0243487Y0183285D01*
X0243443Y0183243D01*
X0243397Y0183205D01*
X0243348Y0183169D01*
X0243297Y0183136D01*
X0243245Y0183107D01*
X0243190Y0183080D01*
X0243135Y0183057D01*
X0243078Y0183037D01*
X0243019Y0183021D01*
X0242960Y0183008D01*
X0242901Y0182999D01*
X0242840Y0182994D01*
X0242780Y0182992D01*
X0204780Y0182992D01*
X0204720Y0182994D01*
X0204659Y0182999D01*
X0204600Y0183008D01*
X0204541Y0183021D01*
X0204482Y0183037D01*
X0204425Y0183057D01*
X0204370Y0183080D01*
X0204315Y0183107D01*
X0204263Y0183136D01*
X0204212Y0183169D01*
X0204163Y0183205D01*
X0204117Y0183243D01*
X0204073Y0183285D01*
X0204031Y0183329D01*
X0203993Y0183375D01*
X0203957Y0183424D01*
X0203924Y0183475D01*
X0203895Y0183527D01*
X0203868Y0183582D01*
X0203845Y0183637D01*
X0203825Y0183694D01*
X0203809Y0183753D01*
X0203796Y0183812D01*
X0203787Y0183871D01*
X0203782Y0183932D01*
X0203780Y0183992D01*
X0213780Y0188992D02*
X0221780Y0188992D01*
X0225780Y0188992D02*
X0233780Y0188992D01*
X0251181Y0200992D02*
X0261181Y0200992D01*
X0261181Y0216992D01*
X0251181Y0216992D01*
X0251181Y0200992D01*
X0256181Y0206492D02*
X0256181Y0208992D01*
X0258681Y0208992D01*
X0256181Y0208992D02*
X0253681Y0208992D01*
X0256181Y0208992D02*
X0253681Y0212992D01*
X0258681Y0212992D01*
X0256181Y0208992D01*
X0256181Y0214992D01*
X0322480Y0213681D02*
X0322480Y0220681D01*
X0323980Y0222181D01*
X0322480Y0223681D01*
X0322480Y0230681D01*
X0323980Y0232181D01*
X0340980Y0232181D01*
X0342480Y0230681D01*
X0342480Y0223681D01*
X0340980Y0222181D01*
X0342480Y0220681D01*
X0342480Y0213681D01*
X0340980Y0212181D01*
X0342480Y0210681D01*
X0342480Y0203681D01*
X0340980Y0202181D01*
X0342480Y0200681D01*
X0342480Y0193681D01*
X0340980Y0192181D01*
X0342480Y0190681D01*
X0342480Y0183681D01*
X0340980Y0182181D01*
X0342480Y0180681D01*
X0342480Y0173681D01*
X0340980Y0172181D01*
X0342480Y0170681D01*
X0342480Y0163681D01*
X0340980Y0162181D01*
X0342480Y0160681D01*
X0342480Y0153681D01*
X0340980Y0152181D01*
X0323980Y0152181D01*
X0322480Y0153681D01*
X0322480Y0160681D01*
X0323980Y0162181D01*
X0322480Y0163681D01*
X0322480Y0170681D01*
X0323980Y0172181D01*
X0322480Y0173681D01*
X0322480Y0180681D01*
X0323980Y0182181D01*
X0322480Y0183681D01*
X0322480Y0190681D01*
X0323980Y0192181D01*
X0322480Y0193681D01*
X0322480Y0200681D01*
X0323980Y0202181D01*
X0322480Y0203681D01*
X0322480Y0210681D01*
X0323980Y0212181D01*
X0322480Y0213681D01*
X0352394Y0111512D02*
X0358394Y0111512D01*
X0358454Y0111510D01*
X0358515Y0111505D01*
X0358574Y0111496D01*
X0358633Y0111483D01*
X0358692Y0111467D01*
X0358749Y0111447D01*
X0358804Y0111424D01*
X0358859Y0111397D01*
X0358911Y0111368D01*
X0358962Y0111335D01*
X0359011Y0111299D01*
X0359057Y0111261D01*
X0359101Y0111219D01*
X0359143Y0111175D01*
X0359181Y0111129D01*
X0359217Y0111080D01*
X0359250Y0111029D01*
X0359279Y0110977D01*
X0359306Y0110922D01*
X0359329Y0110867D01*
X0359349Y0110810D01*
X0359365Y0110751D01*
X0359378Y0110692D01*
X0359387Y0110633D01*
X0359392Y0110572D01*
X0359394Y0110512D01*
X0359394Y0109012D01*
X0358894Y0108512D01*
X0358894Y0094512D01*
X0359394Y0094012D01*
X0359394Y0092512D01*
X0359392Y0092452D01*
X0359387Y0092391D01*
X0359378Y0092332D01*
X0359365Y0092273D01*
X0359349Y0092214D01*
X0359329Y0092157D01*
X0359306Y0092102D01*
X0359279Y0092047D01*
X0359250Y0091995D01*
X0359217Y0091944D01*
X0359181Y0091895D01*
X0359143Y0091849D01*
X0359101Y0091805D01*
X0359057Y0091763D01*
X0359011Y0091725D01*
X0358962Y0091689D01*
X0358911Y0091656D01*
X0358859Y0091627D01*
X0358804Y0091600D01*
X0358749Y0091577D01*
X0358692Y0091557D01*
X0358633Y0091541D01*
X0358574Y0091528D01*
X0358515Y0091519D01*
X0358454Y0091514D01*
X0358394Y0091512D01*
X0352394Y0091512D01*
X0352334Y0091514D01*
X0352273Y0091519D01*
X0352214Y0091528D01*
X0352155Y0091541D01*
X0352096Y0091557D01*
X0352039Y0091577D01*
X0351984Y0091600D01*
X0351929Y0091627D01*
X0351877Y0091656D01*
X0351826Y0091689D01*
X0351777Y0091725D01*
X0351731Y0091763D01*
X0351687Y0091805D01*
X0351645Y0091849D01*
X0351607Y0091895D01*
X0351571Y0091944D01*
X0351538Y0091995D01*
X0351509Y0092047D01*
X0351482Y0092102D01*
X0351459Y0092157D01*
X0351439Y0092214D01*
X0351423Y0092273D01*
X0351410Y0092332D01*
X0351401Y0092391D01*
X0351396Y0092452D01*
X0351394Y0092512D01*
X0351394Y0094012D01*
X0351894Y0094512D01*
X0351894Y0108512D01*
X0351394Y0109012D01*
X0351394Y0110512D01*
X0351396Y0110572D01*
X0351401Y0110633D01*
X0351410Y0110692D01*
X0351423Y0110751D01*
X0351439Y0110810D01*
X0351459Y0110867D01*
X0351482Y0110922D01*
X0351509Y0110977D01*
X0351538Y0111029D01*
X0351571Y0111080D01*
X0351607Y0111129D01*
X0351645Y0111175D01*
X0351687Y0111219D01*
X0351731Y0111261D01*
X0351777Y0111299D01*
X0351826Y0111335D01*
X0351877Y0111368D01*
X0351929Y0111397D01*
X0351984Y0111424D01*
X0352039Y0111447D01*
X0352096Y0111467D01*
X0352155Y0111483D01*
X0352214Y0111496D01*
X0352273Y0111505D01*
X0352334Y0111510D01*
X0352394Y0111512D01*
X0155157Y0057661D02*
X0155157Y0051661D01*
X0155155Y0051601D01*
X0155150Y0051540D01*
X0155141Y0051481D01*
X0155128Y0051422D01*
X0155112Y0051363D01*
X0155092Y0051306D01*
X0155069Y0051251D01*
X0155042Y0051196D01*
X0155013Y0051144D01*
X0154980Y0051093D01*
X0154944Y0051044D01*
X0154906Y0050998D01*
X0154864Y0050954D01*
X0154820Y0050912D01*
X0154774Y0050874D01*
X0154725Y0050838D01*
X0154674Y0050805D01*
X0154622Y0050776D01*
X0154567Y0050749D01*
X0154512Y0050726D01*
X0154455Y0050706D01*
X0154396Y0050690D01*
X0154337Y0050677D01*
X0154278Y0050668D01*
X0154217Y0050663D01*
X0154157Y0050661D01*
X0152657Y0050661D01*
X0152157Y0051161D01*
X0138157Y0051161D01*
X0137657Y0050661D01*
X0136157Y0050661D01*
X0136097Y0050663D01*
X0136036Y0050668D01*
X0135977Y0050677D01*
X0135918Y0050690D01*
X0135859Y0050706D01*
X0135802Y0050726D01*
X0135747Y0050749D01*
X0135692Y0050776D01*
X0135640Y0050805D01*
X0135589Y0050838D01*
X0135540Y0050874D01*
X0135494Y0050912D01*
X0135450Y0050954D01*
X0135408Y0050998D01*
X0135370Y0051044D01*
X0135334Y0051093D01*
X0135301Y0051144D01*
X0135272Y0051196D01*
X0135245Y0051251D01*
X0135222Y0051306D01*
X0135202Y0051363D01*
X0135186Y0051422D01*
X0135173Y0051481D01*
X0135164Y0051540D01*
X0135159Y0051601D01*
X0135157Y0051661D01*
X0135157Y0057661D01*
X0135159Y0057721D01*
X0135164Y0057782D01*
X0135173Y0057841D01*
X0135186Y0057900D01*
X0135202Y0057959D01*
X0135222Y0058016D01*
X0135245Y0058071D01*
X0135272Y0058126D01*
X0135301Y0058178D01*
X0135334Y0058229D01*
X0135370Y0058278D01*
X0135408Y0058324D01*
X0135450Y0058368D01*
X0135494Y0058410D01*
X0135540Y0058448D01*
X0135589Y0058484D01*
X0135640Y0058517D01*
X0135692Y0058546D01*
X0135747Y0058573D01*
X0135802Y0058596D01*
X0135859Y0058616D01*
X0135918Y0058632D01*
X0135977Y0058645D01*
X0136036Y0058654D01*
X0136097Y0058659D01*
X0136157Y0058661D01*
X0137657Y0058661D01*
X0138157Y0058161D01*
X0152157Y0058161D01*
X0152657Y0058661D01*
X0154157Y0058661D01*
X0154217Y0058659D01*
X0154278Y0058654D01*
X0154337Y0058645D01*
X0154396Y0058632D01*
X0154455Y0058616D01*
X0154512Y0058596D01*
X0154567Y0058573D01*
X0154622Y0058546D01*
X0154674Y0058517D01*
X0154725Y0058484D01*
X0154774Y0058448D01*
X0154820Y0058410D01*
X0154864Y0058368D01*
X0154906Y0058324D01*
X0154944Y0058278D01*
X0154980Y0058229D01*
X0155013Y0058178D01*
X0155042Y0058126D01*
X0155069Y0058071D01*
X0155092Y0058016D01*
X0155112Y0057959D01*
X0155128Y0057900D01*
X0155141Y0057841D01*
X0155150Y0057782D01*
X0155155Y0057721D01*
X0155157Y0057661D01*
X0145008Y0042465D02*
X0139008Y0042465D01*
X0139008Y0041465D01*
X0138008Y0041465D01*
X0145008Y0041465D02*
X0146008Y0041465D01*
X0145008Y0041465D02*
X0145008Y0042465D01*
X0154008Y0037965D02*
X0154008Y0034465D01*
X0141008Y0029465D02*
X0141010Y0029528D01*
X0141016Y0029590D01*
X0141026Y0029652D01*
X0141039Y0029714D01*
X0141057Y0029774D01*
X0141078Y0029833D01*
X0141103Y0029891D01*
X0141132Y0029947D01*
X0141164Y0030001D01*
X0141199Y0030053D01*
X0141237Y0030102D01*
X0141279Y0030150D01*
X0141323Y0030194D01*
X0141371Y0030236D01*
X0141420Y0030274D01*
X0141472Y0030309D01*
X0141526Y0030341D01*
X0141582Y0030370D01*
X0141640Y0030395D01*
X0141699Y0030416D01*
X0141759Y0030434D01*
X0141821Y0030447D01*
X0141883Y0030457D01*
X0141945Y0030463D01*
X0142008Y0030465D01*
X0142071Y0030463D01*
X0142133Y0030457D01*
X0142195Y0030447D01*
X0142257Y0030434D01*
X0142317Y0030416D01*
X0142376Y0030395D01*
X0142434Y0030370D01*
X0142490Y0030341D01*
X0142544Y0030309D01*
X0142596Y0030274D01*
X0142645Y0030236D01*
X0142693Y0030194D01*
X0142737Y0030150D01*
X0142779Y0030102D01*
X0142817Y0030053D01*
X0142852Y0030001D01*
X0142884Y0029947D01*
X0142913Y0029891D01*
X0142938Y0029833D01*
X0142959Y0029774D01*
X0142977Y0029714D01*
X0142990Y0029652D01*
X0143000Y0029590D01*
X0143006Y0029528D01*
X0143008Y0029465D01*
X0143006Y0029402D01*
X0143000Y0029340D01*
X0142990Y0029278D01*
X0142977Y0029216D01*
X0142959Y0029156D01*
X0142938Y0029097D01*
X0142913Y0029039D01*
X0142884Y0028983D01*
X0142852Y0028929D01*
X0142817Y0028877D01*
X0142779Y0028828D01*
X0142737Y0028780D01*
X0142693Y0028736D01*
X0142645Y0028694D01*
X0142596Y0028656D01*
X0142544Y0028621D01*
X0142490Y0028589D01*
X0142434Y0028560D01*
X0142376Y0028535D01*
X0142317Y0028514D01*
X0142257Y0028496D01*
X0142195Y0028483D01*
X0142133Y0028473D01*
X0142071Y0028467D01*
X0142008Y0028465D01*
X0141945Y0028467D01*
X0141883Y0028473D01*
X0141821Y0028483D01*
X0141759Y0028496D01*
X0141699Y0028514D01*
X0141640Y0028535D01*
X0141582Y0028560D01*
X0141526Y0028589D01*
X0141472Y0028621D01*
X0141420Y0028656D01*
X0141371Y0028694D01*
X0141323Y0028736D01*
X0141279Y0028780D01*
X0141237Y0028828D01*
X0141199Y0028877D01*
X0141164Y0028929D01*
X0141132Y0028983D01*
X0141103Y0029039D01*
X0141078Y0029097D01*
X0141057Y0029156D01*
X0141039Y0029216D01*
X0141026Y0029278D01*
X0141016Y0029340D01*
X0141010Y0029402D01*
X0141008Y0029465D01*
X0135008Y0029465D02*
X0135010Y0029637D01*
X0135016Y0029808D01*
X0135027Y0029980D01*
X0135042Y0030151D01*
X0135061Y0030322D01*
X0135084Y0030492D01*
X0135111Y0030662D01*
X0135143Y0030831D01*
X0135178Y0030999D01*
X0135218Y0031166D01*
X0135262Y0031332D01*
X0135309Y0031497D01*
X0135361Y0031661D01*
X0135417Y0031823D01*
X0135477Y0031984D01*
X0135541Y0032144D01*
X0135609Y0032302D01*
X0135680Y0032458D01*
X0135755Y0032612D01*
X0135835Y0032765D01*
X0135917Y0032915D01*
X0136004Y0033064D01*
X0136094Y0033210D01*
X0136188Y0033354D01*
X0136285Y0033496D01*
X0136386Y0033635D01*
X0136490Y0033772D01*
X0136597Y0033906D01*
X0136708Y0034037D01*
X0136821Y0034166D01*
X0136938Y0034292D01*
X0137058Y0034415D01*
X0137181Y0034535D01*
X0137307Y0034652D01*
X0137436Y0034765D01*
X0137567Y0034876D01*
X0137701Y0034983D01*
X0137838Y0035087D01*
X0137977Y0035188D01*
X0138119Y0035285D01*
X0138263Y0035379D01*
X0138409Y0035469D01*
X0138558Y0035556D01*
X0138708Y0035638D01*
X0138861Y0035718D01*
X0139015Y0035793D01*
X0139171Y0035864D01*
X0139329Y0035932D01*
X0139489Y0035996D01*
X0139650Y0036056D01*
X0139812Y0036112D01*
X0139976Y0036164D01*
X0140141Y0036211D01*
X0140307Y0036255D01*
X0140474Y0036295D01*
X0140642Y0036330D01*
X0140811Y0036362D01*
X0140981Y0036389D01*
X0141151Y0036412D01*
X0141322Y0036431D01*
X0141493Y0036446D01*
X0141665Y0036457D01*
X0141836Y0036463D01*
X0142008Y0036465D01*
X0142180Y0036463D01*
X0142351Y0036457D01*
X0142523Y0036446D01*
X0142694Y0036431D01*
X0142865Y0036412D01*
X0143035Y0036389D01*
X0143205Y0036362D01*
X0143374Y0036330D01*
X0143542Y0036295D01*
X0143709Y0036255D01*
X0143875Y0036211D01*
X0144040Y0036164D01*
X0144204Y0036112D01*
X0144366Y0036056D01*
X0144527Y0035996D01*
X0144687Y0035932D01*
X0144845Y0035864D01*
X0145001Y0035793D01*
X0145155Y0035718D01*
X0145308Y0035638D01*
X0145458Y0035556D01*
X0145607Y0035469D01*
X0145753Y0035379D01*
X0145897Y0035285D01*
X0146039Y0035188D01*
X0146178Y0035087D01*
X0146315Y0034983D01*
X0146449Y0034876D01*
X0146580Y0034765D01*
X0146709Y0034652D01*
X0146835Y0034535D01*
X0146958Y0034415D01*
X0147078Y0034292D01*
X0147195Y0034166D01*
X0147308Y0034037D01*
X0147419Y0033906D01*
X0147526Y0033772D01*
X0147630Y0033635D01*
X0147731Y0033496D01*
X0147828Y0033354D01*
X0147922Y0033210D01*
X0148012Y0033064D01*
X0148099Y0032915D01*
X0148181Y0032765D01*
X0148261Y0032612D01*
X0148336Y0032458D01*
X0148407Y0032302D01*
X0148475Y0032144D01*
X0148539Y0031984D01*
X0148599Y0031823D01*
X0148655Y0031661D01*
X0148707Y0031497D01*
X0148754Y0031332D01*
X0148798Y0031166D01*
X0148838Y0030999D01*
X0148873Y0030831D01*
X0148905Y0030662D01*
X0148932Y0030492D01*
X0148955Y0030322D01*
X0148974Y0030151D01*
X0148989Y0029980D01*
X0149000Y0029808D01*
X0149006Y0029637D01*
X0149008Y0029465D01*
X0149006Y0029293D01*
X0149000Y0029122D01*
X0148989Y0028950D01*
X0148974Y0028779D01*
X0148955Y0028608D01*
X0148932Y0028438D01*
X0148905Y0028268D01*
X0148873Y0028099D01*
X0148838Y0027931D01*
X0148798Y0027764D01*
X0148754Y0027598D01*
X0148707Y0027433D01*
X0148655Y0027269D01*
X0148599Y0027107D01*
X0148539Y0026946D01*
X0148475Y0026786D01*
X0148407Y0026628D01*
X0148336Y0026472D01*
X0148261Y0026318D01*
X0148181Y0026165D01*
X0148099Y0026015D01*
X0148012Y0025866D01*
X0147922Y0025720D01*
X0147828Y0025576D01*
X0147731Y0025434D01*
X0147630Y0025295D01*
X0147526Y0025158D01*
X0147419Y0025024D01*
X0147308Y0024893D01*
X0147195Y0024764D01*
X0147078Y0024638D01*
X0146958Y0024515D01*
X0146835Y0024395D01*
X0146709Y0024278D01*
X0146580Y0024165D01*
X0146449Y0024054D01*
X0146315Y0023947D01*
X0146178Y0023843D01*
X0146039Y0023742D01*
X0145897Y0023645D01*
X0145753Y0023551D01*
X0145607Y0023461D01*
X0145458Y0023374D01*
X0145308Y0023292D01*
X0145155Y0023212D01*
X0145001Y0023137D01*
X0144845Y0023066D01*
X0144687Y0022998D01*
X0144527Y0022934D01*
X0144366Y0022874D01*
X0144204Y0022818D01*
X0144040Y0022766D01*
X0143875Y0022719D01*
X0143709Y0022675D01*
X0143542Y0022635D01*
X0143374Y0022600D01*
X0143205Y0022568D01*
X0143035Y0022541D01*
X0142865Y0022518D01*
X0142694Y0022499D01*
X0142523Y0022484D01*
X0142351Y0022473D01*
X0142180Y0022467D01*
X0142008Y0022465D01*
X0141836Y0022467D01*
X0141665Y0022473D01*
X0141493Y0022484D01*
X0141322Y0022499D01*
X0141151Y0022518D01*
X0140981Y0022541D01*
X0140811Y0022568D01*
X0140642Y0022600D01*
X0140474Y0022635D01*
X0140307Y0022675D01*
X0140141Y0022719D01*
X0139976Y0022766D01*
X0139812Y0022818D01*
X0139650Y0022874D01*
X0139489Y0022934D01*
X0139329Y0022998D01*
X0139171Y0023066D01*
X0139015Y0023137D01*
X0138861Y0023212D01*
X0138708Y0023292D01*
X0138558Y0023374D01*
X0138409Y0023461D01*
X0138263Y0023551D01*
X0138119Y0023645D01*
X0137977Y0023742D01*
X0137838Y0023843D01*
X0137701Y0023947D01*
X0137567Y0024054D01*
X0137436Y0024165D01*
X0137307Y0024278D01*
X0137181Y0024395D01*
X0137058Y0024515D01*
X0136938Y0024638D01*
X0136821Y0024764D01*
X0136708Y0024893D01*
X0136597Y0025024D01*
X0136490Y0025158D01*
X0136386Y0025295D01*
X0136285Y0025434D01*
X0136188Y0025576D01*
X0136094Y0025720D01*
X0136004Y0025866D01*
X0135917Y0026015D01*
X0135835Y0026165D01*
X0135755Y0026318D01*
X0135680Y0026472D01*
X0135609Y0026628D01*
X0135541Y0026786D01*
X0135477Y0026946D01*
X0135417Y0027107D01*
X0135361Y0027269D01*
X0135309Y0027433D01*
X0135262Y0027598D01*
X0135218Y0027764D01*
X0135178Y0027931D01*
X0135143Y0028099D01*
X0135111Y0028268D01*
X0135084Y0028438D01*
X0135061Y0028608D01*
X0135042Y0028779D01*
X0135027Y0028950D01*
X0135016Y0029122D01*
X0135010Y0029293D01*
X0135008Y0029465D01*
X0089394Y0024539D02*
X0087394Y0024539D01*
X0092157Y0066315D02*
X0098157Y0066315D01*
X0098217Y0066317D01*
X0098278Y0066322D01*
X0098337Y0066331D01*
X0098396Y0066344D01*
X0098455Y0066360D01*
X0098512Y0066380D01*
X0098567Y0066403D01*
X0098622Y0066430D01*
X0098674Y0066459D01*
X0098725Y0066492D01*
X0098774Y0066528D01*
X0098820Y0066566D01*
X0098864Y0066608D01*
X0098906Y0066652D01*
X0098944Y0066698D01*
X0098980Y0066747D01*
X0099013Y0066798D01*
X0099042Y0066850D01*
X0099069Y0066905D01*
X0099092Y0066960D01*
X0099112Y0067017D01*
X0099128Y0067076D01*
X0099141Y0067135D01*
X0099150Y0067194D01*
X0099155Y0067255D01*
X0099157Y0067315D01*
X0099157Y0068815D01*
X0098657Y0069315D01*
X0098657Y0083315D01*
X0099157Y0083815D01*
X0099157Y0085315D01*
X0099155Y0085375D01*
X0099150Y0085436D01*
X0099141Y0085495D01*
X0099128Y0085554D01*
X0099112Y0085613D01*
X0099092Y0085670D01*
X0099069Y0085725D01*
X0099042Y0085780D01*
X0099013Y0085832D01*
X0098980Y0085883D01*
X0098944Y0085932D01*
X0098906Y0085978D01*
X0098864Y0086022D01*
X0098820Y0086064D01*
X0098774Y0086102D01*
X0098725Y0086138D01*
X0098674Y0086171D01*
X0098622Y0086200D01*
X0098567Y0086227D01*
X0098512Y0086250D01*
X0098455Y0086270D01*
X0098396Y0086286D01*
X0098337Y0086299D01*
X0098278Y0086308D01*
X0098217Y0086313D01*
X0098157Y0086315D01*
X0092157Y0086315D01*
X0092097Y0086313D01*
X0092036Y0086308D01*
X0091977Y0086299D01*
X0091918Y0086286D01*
X0091859Y0086270D01*
X0091802Y0086250D01*
X0091747Y0086227D01*
X0091692Y0086200D01*
X0091640Y0086171D01*
X0091589Y0086138D01*
X0091540Y0086102D01*
X0091494Y0086064D01*
X0091450Y0086022D01*
X0091408Y0085978D01*
X0091370Y0085932D01*
X0091334Y0085883D01*
X0091301Y0085832D01*
X0091272Y0085780D01*
X0091245Y0085725D01*
X0091222Y0085670D01*
X0091202Y0085613D01*
X0091186Y0085554D01*
X0091173Y0085495D01*
X0091164Y0085436D01*
X0091159Y0085375D01*
X0091157Y0085315D01*
X0091157Y0083815D01*
X0091657Y0083315D01*
X0091657Y0069315D01*
X0091157Y0068815D01*
X0091157Y0067315D01*
X0091159Y0067255D01*
X0091164Y0067194D01*
X0091173Y0067135D01*
X0091186Y0067076D01*
X0091202Y0067017D01*
X0091222Y0066960D01*
X0091245Y0066905D01*
X0091272Y0066850D01*
X0091301Y0066798D01*
X0091334Y0066747D01*
X0091370Y0066698D01*
X0091408Y0066652D01*
X0091450Y0066608D01*
X0091494Y0066566D01*
X0091540Y0066528D01*
X0091589Y0066492D01*
X0091640Y0066459D01*
X0091692Y0066430D01*
X0091747Y0066403D01*
X0091802Y0066380D01*
X0091859Y0066360D01*
X0091918Y0066344D01*
X0091977Y0066331D01*
X0092036Y0066322D01*
X0092097Y0066317D01*
X0092157Y0066315D01*
X0101394Y0067315D02*
X0101394Y0068815D01*
X0101894Y0069315D01*
X0101894Y0083315D01*
X0101394Y0083815D01*
X0101394Y0085315D01*
X0101396Y0085375D01*
X0101401Y0085436D01*
X0101410Y0085495D01*
X0101423Y0085554D01*
X0101439Y0085613D01*
X0101459Y0085670D01*
X0101482Y0085725D01*
X0101509Y0085780D01*
X0101538Y0085832D01*
X0101571Y0085883D01*
X0101607Y0085932D01*
X0101645Y0085978D01*
X0101687Y0086022D01*
X0101731Y0086064D01*
X0101777Y0086102D01*
X0101826Y0086138D01*
X0101877Y0086171D01*
X0101929Y0086200D01*
X0101984Y0086227D01*
X0102039Y0086250D01*
X0102096Y0086270D01*
X0102155Y0086286D01*
X0102214Y0086299D01*
X0102273Y0086308D01*
X0102334Y0086313D01*
X0102394Y0086315D01*
X0108394Y0086315D01*
X0108454Y0086313D01*
X0108515Y0086308D01*
X0108574Y0086299D01*
X0108633Y0086286D01*
X0108692Y0086270D01*
X0108749Y0086250D01*
X0108804Y0086227D01*
X0108859Y0086200D01*
X0108911Y0086171D01*
X0108962Y0086138D01*
X0109011Y0086102D01*
X0109057Y0086064D01*
X0109101Y0086022D01*
X0109143Y0085978D01*
X0109181Y0085932D01*
X0109217Y0085883D01*
X0109250Y0085832D01*
X0109279Y0085780D01*
X0109306Y0085725D01*
X0109329Y0085670D01*
X0109349Y0085613D01*
X0109365Y0085554D01*
X0109378Y0085495D01*
X0109387Y0085436D01*
X0109392Y0085375D01*
X0109394Y0085315D01*
X0109394Y0083815D01*
X0108894Y0083315D01*
X0108894Y0069315D01*
X0109394Y0068815D01*
X0109394Y0067315D01*
X0109392Y0067255D01*
X0109387Y0067194D01*
X0109378Y0067135D01*
X0109365Y0067076D01*
X0109349Y0067017D01*
X0109329Y0066960D01*
X0109306Y0066905D01*
X0109279Y0066850D01*
X0109250Y0066798D01*
X0109217Y0066747D01*
X0109181Y0066698D01*
X0109143Y0066652D01*
X0109101Y0066608D01*
X0109057Y0066566D01*
X0109011Y0066528D01*
X0108962Y0066492D01*
X0108911Y0066459D01*
X0108859Y0066430D01*
X0108804Y0066403D01*
X0108749Y0066380D01*
X0108692Y0066360D01*
X0108633Y0066344D01*
X0108574Y0066331D01*
X0108515Y0066322D01*
X0108454Y0066317D01*
X0108394Y0066315D01*
X0102394Y0066315D01*
X0102334Y0066317D01*
X0102273Y0066322D01*
X0102214Y0066331D01*
X0102155Y0066344D01*
X0102096Y0066360D01*
X0102039Y0066380D01*
X0101984Y0066403D01*
X0101929Y0066430D01*
X0101877Y0066459D01*
X0101826Y0066492D01*
X0101777Y0066528D01*
X0101731Y0066566D01*
X0101687Y0066608D01*
X0101645Y0066652D01*
X0101607Y0066698D01*
X0101571Y0066747D01*
X0101538Y0066798D01*
X0101509Y0066850D01*
X0101482Y0066905D01*
X0101459Y0066960D01*
X0101439Y0067017D01*
X0101423Y0067076D01*
X0101410Y0067135D01*
X0101401Y0067194D01*
X0101396Y0067255D01*
X0101394Y0067315D01*
X0111236Y0067315D02*
X0111236Y0068815D01*
X0111736Y0069315D01*
X0111736Y0083315D01*
X0111236Y0083815D01*
X0111236Y0085315D01*
X0111238Y0085375D01*
X0111243Y0085436D01*
X0111252Y0085495D01*
X0111265Y0085554D01*
X0111281Y0085613D01*
X0111301Y0085670D01*
X0111324Y0085725D01*
X0111351Y0085780D01*
X0111380Y0085832D01*
X0111413Y0085883D01*
X0111449Y0085932D01*
X0111487Y0085978D01*
X0111529Y0086022D01*
X0111573Y0086064D01*
X0111619Y0086102D01*
X0111668Y0086138D01*
X0111719Y0086171D01*
X0111771Y0086200D01*
X0111826Y0086227D01*
X0111881Y0086250D01*
X0111938Y0086270D01*
X0111997Y0086286D01*
X0112056Y0086299D01*
X0112115Y0086308D01*
X0112176Y0086313D01*
X0112236Y0086315D01*
X0118236Y0086315D01*
X0118296Y0086313D01*
X0118357Y0086308D01*
X0118416Y0086299D01*
X0118475Y0086286D01*
X0118534Y0086270D01*
X0118591Y0086250D01*
X0118646Y0086227D01*
X0118701Y0086200D01*
X0118753Y0086171D01*
X0118804Y0086138D01*
X0118853Y0086102D01*
X0118899Y0086064D01*
X0118943Y0086022D01*
X0118985Y0085978D01*
X0119023Y0085932D01*
X0119059Y0085883D01*
X0119092Y0085832D01*
X0119121Y0085780D01*
X0119148Y0085725D01*
X0119171Y0085670D01*
X0119191Y0085613D01*
X0119207Y0085554D01*
X0119220Y0085495D01*
X0119229Y0085436D01*
X0119234Y0085375D01*
X0119236Y0085315D01*
X0119236Y0083815D01*
X0118736Y0083315D01*
X0118736Y0069315D01*
X0119236Y0068815D01*
X0119236Y0067315D01*
X0119234Y0067255D01*
X0119229Y0067194D01*
X0119220Y0067135D01*
X0119207Y0067076D01*
X0119191Y0067017D01*
X0119171Y0066960D01*
X0119148Y0066905D01*
X0119121Y0066850D01*
X0119092Y0066798D01*
X0119059Y0066747D01*
X0119023Y0066698D01*
X0118985Y0066652D01*
X0118943Y0066608D01*
X0118899Y0066566D01*
X0118853Y0066528D01*
X0118804Y0066492D01*
X0118753Y0066459D01*
X0118701Y0066430D01*
X0118646Y0066403D01*
X0118591Y0066380D01*
X0118534Y0066360D01*
X0118475Y0066344D01*
X0118416Y0066331D01*
X0118357Y0066322D01*
X0118296Y0066317D01*
X0118236Y0066315D01*
X0112236Y0066315D01*
X0112176Y0066317D01*
X0112115Y0066322D01*
X0112056Y0066331D01*
X0111997Y0066344D01*
X0111938Y0066360D01*
X0111881Y0066380D01*
X0111826Y0066403D01*
X0111771Y0066430D01*
X0111719Y0066459D01*
X0111668Y0066492D01*
X0111619Y0066528D01*
X0111573Y0066566D01*
X0111529Y0066608D01*
X0111487Y0066652D01*
X0111449Y0066698D01*
X0111413Y0066747D01*
X0111380Y0066798D01*
X0111351Y0066850D01*
X0111324Y0066905D01*
X0111301Y0066960D01*
X0111281Y0067017D01*
X0111265Y0067076D01*
X0111252Y0067135D01*
X0111243Y0067194D01*
X0111238Y0067255D01*
X0111236Y0067315D01*
D12*
X0059756Y0047925D02*
X0059756Y0044425D01*
X0059756Y0040925D01*
X0055756Y0040925D02*
X0055756Y0044425D01*
X0055756Y0047925D01*
X0047083Y0140850D02*
X0043583Y0140850D01*
X0040083Y0140850D01*
X0040083Y0144850D02*
X0043583Y0144850D01*
X0047083Y0144850D01*
X0221780Y0185492D02*
X0221780Y0188992D01*
X0221780Y0192492D01*
X0225780Y0192492D02*
X0225780Y0188992D01*
X0225780Y0185492D01*
D13*
X0233822Y0180495D02*
X0233822Y0177493D01*
X0234572Y0176742D01*
X0236074Y0176742D01*
X0236824Y0177493D01*
X0238426Y0176742D02*
X0241428Y0176742D01*
X0239927Y0176742D02*
X0239927Y0181246D01*
X0238426Y0179745D01*
X0236824Y0180495D02*
X0236074Y0181246D01*
X0234572Y0181246D01*
X0233822Y0180495D01*
X0244927Y0201242D02*
X0244927Y0203494D01*
X0245678Y0204245D01*
X0248680Y0204245D01*
X0249431Y0203494D01*
X0249431Y0201242D01*
X0244927Y0201242D01*
X0245678Y0205846D02*
X0244927Y0206597D01*
X0244927Y0208098D01*
X0245678Y0208849D01*
X0246429Y0208849D01*
X0249431Y0205846D01*
X0249431Y0208849D01*
X0221004Y0210484D02*
X0218504Y0210484D01*
X0208504Y0210484D01*
X0213504Y0231984D02*
X0213504Y0233484D01*
X0214504Y0233484D01*
X0161035Y0210878D02*
X0151535Y0210878D01*
X0156535Y0232378D02*
X0156535Y0233878D01*
X0157535Y0233878D01*
X0109854Y0210878D02*
X0100354Y0210878D01*
X0105354Y0232378D02*
X0105354Y0233878D01*
X0106354Y0233878D01*
X0155265Y0180667D02*
X0154515Y0179917D01*
X0154515Y0176914D01*
X0155265Y0176163D01*
X0156766Y0176163D01*
X0157517Y0176914D01*
X0159119Y0176914D02*
X0159119Y0178415D01*
X0161370Y0178415D01*
X0162121Y0177665D01*
X0162121Y0176914D01*
X0161370Y0176163D01*
X0159869Y0176163D01*
X0159119Y0176914D01*
X0159119Y0178415D02*
X0160620Y0179917D01*
X0162121Y0180667D01*
X0157517Y0179917D02*
X0156766Y0180667D01*
X0155265Y0180667D01*
X0093145Y0176372D02*
X0090142Y0176372D01*
X0092394Y0178624D01*
X0092394Y0174120D01*
X0088541Y0174871D02*
X0088541Y0177873D01*
X0087790Y0178624D01*
X0085538Y0178624D01*
X0085538Y0174120D01*
X0087790Y0174120D01*
X0088541Y0174871D01*
X0055833Y0159748D02*
X0055833Y0158247D01*
X0055082Y0157496D01*
X0054331Y0157496D01*
X0053581Y0158247D01*
X0053581Y0159748D01*
X0054331Y0160499D01*
X0055082Y0160499D01*
X0055833Y0159748D01*
X0053581Y0159748D02*
X0052830Y0160499D01*
X0052079Y0160499D01*
X0051329Y0159748D01*
X0051329Y0158247D01*
X0052079Y0157496D01*
X0052830Y0157496D01*
X0053581Y0158247D01*
X0055082Y0155895D02*
X0055833Y0155144D01*
X0055833Y0153643D01*
X0055082Y0152893D01*
X0052079Y0152893D01*
X0051329Y0153643D01*
X0051329Y0155144D01*
X0052079Y0155895D01*
X0025748Y0153953D02*
X0025748Y0093953D01*
X0015748Y0093953D01*
X0015748Y0153953D01*
X0025748Y0153953D01*
X0014498Y0152447D02*
X0014048Y0152897D01*
X0012246Y0152897D01*
X0011796Y0152447D01*
X0011796Y0151096D01*
X0014498Y0151096D01*
X0014498Y0152447D01*
X0014498Y0149951D02*
X0011796Y0149951D01*
X0011796Y0148149D02*
X0014498Y0149951D01*
X0014498Y0148149D02*
X0011796Y0148149D01*
X0012246Y0147004D02*
X0011796Y0146554D01*
X0011796Y0145653D01*
X0012246Y0145203D01*
X0014048Y0145203D01*
X0014498Y0145653D01*
X0014498Y0146554D01*
X0014048Y0147004D01*
X0013147Y0147004D01*
X0013147Y0146104D01*
X0013597Y0142897D02*
X0014048Y0142897D01*
X0014498Y0142447D01*
X0014498Y0141546D01*
X0014048Y0141096D01*
X0013147Y0141546D02*
X0013147Y0142447D01*
X0013597Y0142897D01*
X0012246Y0142897D02*
X0011796Y0142447D01*
X0011796Y0141546D01*
X0012246Y0141096D01*
X0012696Y0141096D01*
X0013147Y0141546D01*
X0011796Y0139951D02*
X0011796Y0138149D01*
X0011796Y0139050D02*
X0014498Y0139050D01*
X0014048Y0137004D02*
X0014498Y0136554D01*
X0014498Y0135653D01*
X0014048Y0135203D01*
X0012246Y0135203D01*
X0011796Y0135653D01*
X0011796Y0136554D01*
X0012246Y0137004D01*
X0012246Y0132897D02*
X0011796Y0132447D01*
X0011796Y0131546D01*
X0012246Y0131096D01*
X0014048Y0131096D01*
X0014498Y0131546D01*
X0014498Y0132447D01*
X0014048Y0132897D01*
X0014048Y0129951D02*
X0014498Y0129500D01*
X0014498Y0128600D01*
X0014048Y0128149D01*
X0012246Y0128149D01*
X0011796Y0128600D01*
X0011796Y0129500D01*
X0012246Y0129951D01*
X0011796Y0127004D02*
X0013597Y0127004D01*
X0014498Y0126104D01*
X0013597Y0125203D01*
X0011796Y0125203D01*
X0011796Y0121997D02*
X0011796Y0121096D01*
X0011796Y0121546D02*
X0014498Y0121546D01*
X0014498Y0121096D02*
X0014498Y0121997D01*
X0014498Y0119951D02*
X0011796Y0118149D01*
X0012246Y0117004D02*
X0013147Y0117004D01*
X0013597Y0116554D01*
X0013597Y0115203D01*
X0013597Y0116104D02*
X0014498Y0117004D01*
X0014498Y0118149D02*
X0011796Y0119951D01*
X0012246Y0117004D02*
X0011796Y0116554D01*
X0011796Y0115203D01*
X0014498Y0115203D01*
X0014048Y0112897D02*
X0012246Y0112897D01*
X0011796Y0112447D01*
X0011796Y0111546D01*
X0012246Y0111096D01*
X0014048Y0111096D01*
X0014498Y0111546D01*
X0014498Y0112447D01*
X0014048Y0112897D01*
X0014498Y0109951D02*
X0011796Y0108149D01*
X0011796Y0107004D02*
X0011796Y0105203D01*
X0011796Y0106104D02*
X0014498Y0106104D01*
X0014498Y0108149D02*
X0011796Y0109951D01*
X0012246Y0102897D02*
X0013147Y0102897D01*
X0013597Y0102447D01*
X0013597Y0101096D01*
X0013597Y0101997D02*
X0014498Y0102897D01*
X0014498Y0101096D02*
X0011796Y0101096D01*
X0011796Y0102447D01*
X0012246Y0102897D01*
X0011796Y0099951D02*
X0011796Y0098149D01*
X0011796Y0099050D02*
X0014498Y0099050D01*
X0014048Y0097004D02*
X0012246Y0097004D01*
X0011796Y0096554D01*
X0011796Y0095203D01*
X0014498Y0095203D01*
X0014498Y0096554D01*
X0014048Y0097004D01*
X0018394Y0069376D02*
X0019345Y0069376D01*
X0019662Y0069059D01*
X0019662Y0067791D01*
X0019345Y0067474D01*
X0018394Y0067474D01*
X0018394Y0069376D01*
X0020604Y0068742D02*
X0021238Y0069376D01*
X0021238Y0067474D01*
X0020604Y0067474D02*
X0021872Y0067474D01*
X0067798Y0035928D02*
X0067798Y0032926D01*
X0068549Y0032175D01*
X0070050Y0032175D01*
X0070801Y0032926D01*
X0072402Y0032926D02*
X0072402Y0032175D01*
X0072402Y0032926D02*
X0075405Y0035928D01*
X0075405Y0036679D01*
X0072402Y0036679D01*
X0070801Y0035928D02*
X0070050Y0036679D01*
X0068549Y0036679D01*
X0067798Y0035928D01*
X0056124Y0027276D02*
X0056124Y0026959D01*
X0055807Y0026642D01*
X0056124Y0026325D01*
X0056124Y0026008D01*
X0055807Y0025691D01*
X0055173Y0025691D01*
X0054856Y0026008D01*
X0055490Y0026642D02*
X0055807Y0026642D01*
X0056124Y0027276D02*
X0055807Y0027593D01*
X0055173Y0027593D01*
X0054856Y0027276D01*
X0053914Y0027276D02*
X0053597Y0027593D01*
X0052646Y0027593D01*
X0052646Y0025691D01*
X0053597Y0025691D01*
X0053914Y0026008D01*
X0053914Y0027276D01*
X0087644Y0053040D02*
X0088394Y0052289D01*
X0089896Y0052289D01*
X0090646Y0053040D01*
X0090646Y0053791D01*
X0089896Y0054541D01*
X0088394Y0054541D01*
X0087644Y0055292D01*
X0087644Y0056043D01*
X0088394Y0056793D01*
X0089896Y0056793D01*
X0090646Y0056043D01*
X0092248Y0056793D02*
X0092248Y0052289D01*
X0093749Y0053791D01*
X0095250Y0052289D01*
X0095250Y0056793D01*
X0096852Y0055292D02*
X0098353Y0056793D01*
X0098353Y0052289D01*
X0096852Y0052289D02*
X0099854Y0052289D01*
X0156754Y0039363D02*
X0156754Y0037861D01*
X0157505Y0037111D01*
X0157505Y0035509D02*
X0156754Y0034759D01*
X0156754Y0033257D01*
X0157505Y0032507D01*
X0158255Y0032507D01*
X0159006Y0033257D01*
X0159006Y0034759D01*
X0159757Y0035509D01*
X0160507Y0035509D01*
X0161258Y0034759D01*
X0161258Y0033257D01*
X0160507Y0032507D01*
X0161258Y0037111D02*
X0158255Y0040113D01*
X0157505Y0040113D01*
X0156754Y0039363D01*
X0161258Y0040113D02*
X0161258Y0037111D01*
X0176707Y0029095D02*
X0176707Y0027594D01*
X0177457Y0026843D01*
X0178208Y0026843D01*
X0178959Y0027594D01*
X0178959Y0029845D01*
X0180460Y0029845D02*
X0177457Y0029845D01*
X0176707Y0029095D01*
X0180460Y0029845D02*
X0181211Y0029095D01*
X0181211Y0027594D01*
X0180460Y0026843D01*
X0178959Y0025242D02*
X0179709Y0024491D01*
X0179709Y0022239D01*
X0181211Y0022239D02*
X0176707Y0022239D01*
X0176707Y0024491D01*
X0177457Y0025242D01*
X0178959Y0025242D01*
X0176707Y0020638D02*
X0176707Y0019136D01*
X0176707Y0019887D02*
X0180460Y0019887D01*
X0181211Y0019136D01*
X0181211Y0018386D01*
X0180460Y0017635D01*
X0185683Y0021496D02*
X0186000Y0021179D01*
X0186317Y0021179D01*
X0186634Y0021496D01*
X0186634Y0023081D01*
X0186317Y0023081D02*
X0186951Y0023081D01*
X0187893Y0023081D02*
X0187893Y0022130D01*
X0188527Y0022447D01*
X0188844Y0022447D01*
X0189161Y0022130D01*
X0189161Y0021496D01*
X0188844Y0021179D01*
X0188210Y0021179D01*
X0187893Y0021496D01*
X0187893Y0023081D02*
X0189161Y0023081D01*
X0081337Y0095068D02*
X0080586Y0094318D01*
X0081337Y0095068D02*
X0081337Y0096570D01*
X0080586Y0097320D01*
X0079835Y0097320D01*
X0079085Y0096570D01*
X0079085Y0095068D01*
X0078334Y0094318D01*
X0077583Y0094318D01*
X0076833Y0095068D01*
X0076833Y0096570D01*
X0077583Y0097320D01*
X0078334Y0098922D02*
X0076833Y0100423D01*
X0081337Y0100423D01*
X0081337Y0098922D02*
X0081337Y0101924D01*
X0152646Y0119721D02*
X0153280Y0119087D01*
X0153280Y0118136D01*
X0153280Y0119087D02*
X0153914Y0119721D01*
X0153914Y0120037D01*
X0154856Y0119404D02*
X0155490Y0120037D01*
X0155490Y0118136D01*
X0154856Y0118136D02*
X0156124Y0118136D01*
X0152646Y0119721D02*
X0152646Y0120037D01*
X0245358Y0130911D02*
X0245675Y0130594D01*
X0245992Y0130594D01*
X0246309Y0130911D01*
X0246309Y0132496D01*
X0245992Y0132496D02*
X0246626Y0132496D01*
X0247568Y0132179D02*
X0247885Y0132496D01*
X0248518Y0132496D01*
X0248835Y0132179D01*
X0248835Y0131862D01*
X0248518Y0131545D01*
X0248835Y0131228D01*
X0248835Y0130911D01*
X0248518Y0130594D01*
X0247885Y0130594D01*
X0247568Y0130911D01*
X0248202Y0131545D02*
X0248518Y0131545D01*
X0316226Y0155578D02*
X0316977Y0154827D01*
X0317728Y0154827D01*
X0318478Y0155578D01*
X0318478Y0157079D01*
X0319229Y0157830D01*
X0319980Y0157830D01*
X0320730Y0157079D01*
X0320730Y0155578D01*
X0319980Y0154827D01*
X0319229Y0154827D01*
X0318478Y0155578D01*
X0318478Y0157079D02*
X0317728Y0157830D01*
X0316977Y0157830D01*
X0316226Y0157079D01*
X0316226Y0155578D01*
X0316226Y0164827D02*
X0316226Y0167830D01*
X0316977Y0167830D01*
X0319980Y0164827D01*
X0320730Y0164827D01*
X0319980Y0174827D02*
X0320730Y0175578D01*
X0320730Y0177079D01*
X0319980Y0177830D01*
X0319229Y0177830D01*
X0318478Y0177079D01*
X0318478Y0174827D01*
X0319980Y0174827D01*
X0318478Y0174827D02*
X0316977Y0176328D01*
X0316226Y0177830D01*
X0316226Y0184827D02*
X0318478Y0184827D01*
X0317728Y0186328D01*
X0317728Y0187079D01*
X0318478Y0187830D01*
X0319980Y0187830D01*
X0320730Y0187079D01*
X0320730Y0185578D01*
X0319980Y0184827D01*
X0316226Y0184827D02*
X0316226Y0187830D01*
X0318478Y0194827D02*
X0318478Y0197830D01*
X0320730Y0197079D02*
X0316226Y0197079D01*
X0318478Y0194827D01*
X0316977Y0204827D02*
X0316226Y0205578D01*
X0316226Y0207079D01*
X0316977Y0207830D01*
X0317728Y0207830D01*
X0318478Y0207079D01*
X0319229Y0207830D01*
X0319980Y0207830D01*
X0320730Y0207079D01*
X0320730Y0205578D01*
X0319980Y0204827D01*
X0318478Y0206328D02*
X0318478Y0207079D01*
X0316977Y0214827D02*
X0316226Y0215578D01*
X0316226Y0217079D01*
X0316977Y0217830D01*
X0317728Y0217830D01*
X0320730Y0214827D01*
X0320730Y0217830D01*
X0320730Y0224827D02*
X0320730Y0227830D01*
X0320730Y0226328D02*
X0316226Y0226328D01*
X0317728Y0224827D01*
X0343726Y0225475D02*
X0343726Y0223223D01*
X0348230Y0223223D01*
X0346729Y0223223D02*
X0346729Y0225475D01*
X0345978Y0226226D01*
X0344477Y0226226D01*
X0343726Y0225475D01*
X0345228Y0227827D02*
X0343726Y0229328D01*
X0348230Y0229328D01*
X0348230Y0227827D02*
X0348230Y0230830D01*
X0343726Y0221622D02*
X0343726Y0220121D01*
X0343726Y0220871D02*
X0347480Y0220871D01*
X0348230Y0220121D01*
X0348230Y0219370D01*
X0347480Y0218619D01*
X0357445Y0072358D02*
X0357445Y0055862D01*
X0351445Y0058583D02*
X0351445Y0059638D01*
X0355416Y0054608D02*
X0355631Y0054712D01*
X0355844Y0054821D01*
X0356054Y0054935D01*
X0356261Y0055054D01*
X0356466Y0055177D01*
X0356668Y0055305D01*
X0356867Y0055438D01*
X0357062Y0055575D01*
X0357255Y0055716D01*
X0357444Y0055862D01*
X0346473Y0054610D02*
X0346243Y0054722D01*
X0346016Y0054839D01*
X0345792Y0054961D01*
X0345571Y0055089D01*
X0345354Y0055223D01*
X0345139Y0055361D01*
X0344928Y0055505D01*
X0344721Y0055654D01*
X0344517Y0055808D01*
X0344317Y0055966D01*
X0344121Y0056130D01*
X0343929Y0056298D01*
X0343741Y0056471D01*
X0343557Y0056649D01*
X0343378Y0056830D01*
X0343203Y0057017D01*
X0343033Y0057207D01*
X0342868Y0057401D01*
X0342707Y0057600D01*
X0342551Y0057802D01*
X0342400Y0058008D01*
X0342254Y0058218D01*
X0342114Y0058431D01*
X0341978Y0058647D01*
X0341848Y0058867D01*
X0341723Y0059090D01*
X0341604Y0059315D01*
X0341490Y0059544D01*
X0341382Y0059775D01*
X0341279Y0060009D01*
X0341182Y0060245D01*
X0341091Y0060484D01*
X0341006Y0060724D01*
X0340926Y0060967D01*
X0340853Y0061212D01*
X0340785Y0061458D01*
X0340724Y0061706D01*
X0340669Y0061955D01*
X0340619Y0062205D01*
X0340576Y0062457D01*
X0340539Y0062710D01*
X0340508Y0062963D01*
X0340483Y0063217D01*
X0340464Y0063472D01*
X0340452Y0063727D01*
X0340446Y0063982D01*
X0340446Y0064238D01*
X0340452Y0064493D01*
X0340464Y0064748D01*
X0340483Y0065003D01*
X0340508Y0065257D01*
X0340539Y0065510D01*
X0340576Y0065763D01*
X0340619Y0066015D01*
X0340669Y0066265D01*
X0340724Y0066514D01*
X0340785Y0066762D01*
X0340853Y0067008D01*
X0340926Y0067253D01*
X0341006Y0067496D01*
X0341091Y0067736D01*
X0341182Y0067975D01*
X0341279Y0068211D01*
X0341382Y0068445D01*
X0341490Y0068676D01*
X0341604Y0068905D01*
X0341723Y0069130D01*
X0341848Y0069353D01*
X0341978Y0069573D01*
X0342114Y0069789D01*
X0342254Y0070002D01*
X0342400Y0070212D01*
X0342551Y0070418D01*
X0342707Y0070620D01*
X0342868Y0070819D01*
X0343033Y0071013D01*
X0343203Y0071203D01*
X0343378Y0071390D01*
X0343557Y0071571D01*
X0343741Y0071749D01*
X0343929Y0071922D01*
X0344121Y0072090D01*
X0344317Y0072254D01*
X0344517Y0072412D01*
X0344721Y0072566D01*
X0344928Y0072715D01*
X0345139Y0072859D01*
X0345354Y0072997D01*
X0345571Y0073131D01*
X0345792Y0073259D01*
X0346016Y0073381D01*
X0346243Y0073498D01*
X0346473Y0073610D01*
X0351445Y0069638D02*
X0351445Y0068583D01*
X0355322Y0073656D02*
X0355547Y0073549D01*
X0355770Y0073437D01*
X0355990Y0073320D01*
X0356207Y0073198D01*
X0356422Y0073070D01*
X0356633Y0072937D01*
X0356841Y0072800D01*
X0357045Y0072657D01*
X0357247Y0072510D01*
X0357444Y0072358D01*
X0338695Y0061967D02*
X0338695Y0058964D01*
X0338695Y0060465D02*
X0334191Y0060465D01*
X0335692Y0058964D01*
X0334942Y0057363D02*
X0337944Y0057363D01*
X0338695Y0056612D01*
X0338695Y0055111D01*
X0337944Y0054360D01*
X0334942Y0054360D01*
X0334191Y0055111D01*
X0334191Y0056612D01*
X0334942Y0057363D01*
X0337194Y0055862D02*
X0338695Y0057363D01*
X0014350Y0201878D02*
X0014033Y0201561D01*
X0014350Y0201878D02*
X0014350Y0202195D01*
X0014033Y0202512D01*
X0012448Y0202512D01*
X0012448Y0202195D02*
X0012448Y0202829D01*
X0013082Y0203771D02*
X0012448Y0204405D01*
X0014350Y0204405D01*
X0014350Y0203771D02*
X0014350Y0205039D01*
D14*
X0058817Y0150115D02*
X0057766Y0149064D01*
X0057766Y0146962D01*
X0058817Y0145911D01*
X0058817Y0143669D02*
X0057766Y0142619D01*
X0057766Y0140517D01*
X0058817Y0139466D01*
X0063020Y0139466D01*
X0064071Y0140517D01*
X0064071Y0142619D01*
X0063020Y0143669D01*
X0064071Y0145911D02*
X0059868Y0150115D01*
X0058817Y0150115D01*
X0064071Y0150115D02*
X0064071Y0145911D01*
X0064071Y0137271D02*
X0064071Y0135169D01*
X0064071Y0136220D02*
X0057766Y0136220D01*
X0057766Y0135169D02*
X0057766Y0137271D01*
X0098250Y0220022D02*
X0098250Y0224326D01*
X0096098Y0222174D01*
X0098968Y0222174D01*
X0143098Y0222691D02*
X0144533Y0224126D01*
X0144533Y0219822D01*
X0143098Y0219822D02*
X0145968Y0219822D01*
X0147280Y0222174D02*
X0150149Y0222174D01*
X0149431Y0220022D02*
X0149431Y0224326D01*
X0147280Y0222174D01*
X0194280Y0222691D02*
X0195714Y0224126D01*
X0195714Y0219822D01*
X0194280Y0219822D02*
X0197149Y0219822D01*
X0204248Y0220346D02*
X0204965Y0219628D01*
X0206400Y0219628D01*
X0207117Y0220346D01*
X0207117Y0221063D01*
X0206400Y0221780D01*
X0205683Y0221780D01*
X0206400Y0221780D02*
X0207117Y0222497D01*
X0207117Y0223215D01*
X0206400Y0223932D01*
X0204965Y0223932D01*
X0204248Y0223215D01*
X0241248Y0222297D02*
X0242683Y0223732D01*
X0242683Y0219428D01*
X0244117Y0219428D02*
X0241248Y0219428D01*
X0293956Y0139137D02*
X0296058Y0139137D01*
X0295007Y0139137D02*
X0295007Y0132832D01*
X0293956Y0132832D02*
X0296058Y0132832D01*
X0298253Y0133883D02*
X0299304Y0132832D01*
X0301406Y0132832D01*
X0302457Y0133883D01*
X0304699Y0132832D02*
X0308902Y0132832D01*
X0306801Y0132832D02*
X0306801Y0139137D01*
X0304699Y0137035D01*
X0302457Y0138086D02*
X0301406Y0139137D01*
X0299304Y0139137D01*
X0298253Y0138086D01*
X0298253Y0133883D01*
D15*
X0163606Y0116386D02*
X0163777Y0116357D01*
X0163947Y0116324D01*
X0164116Y0116288D01*
X0164284Y0116247D01*
X0164451Y0116201D01*
X0164617Y0116152D01*
X0164782Y0116099D01*
X0164945Y0116042D01*
X0165107Y0115981D01*
X0165268Y0115916D01*
X0165426Y0115847D01*
X0165583Y0115774D01*
X0165738Y0115697D01*
X0165892Y0115617D01*
X0166043Y0115532D01*
X0166192Y0115445D01*
X0166339Y0115353D01*
X0166484Y0115258D01*
X0166626Y0115160D01*
X0166766Y0115058D01*
X0166903Y0114952D01*
X0167038Y0114844D01*
X0167170Y0114732D01*
X0167299Y0114617D01*
X0167425Y0114498D01*
X0167549Y0114377D01*
X0167669Y0114253D01*
X0167787Y0114126D01*
X0167901Y0113996D01*
X0168012Y0113863D01*
X0168120Y0113727D01*
X0168224Y0113589D01*
X0168325Y0113449D01*
X0168423Y0113306D01*
X0168517Y0113160D01*
X0168607Y0113013D01*
X0168694Y0112863D01*
X0168777Y0112711D01*
X0168856Y0112558D01*
X0168932Y0112402D01*
X0169004Y0112244D01*
X0169072Y0112085D01*
X0169136Y0111924D01*
X0169196Y0111762D01*
X0169252Y0111598D01*
X0169304Y0111433D01*
X0169352Y0111267D01*
X0169396Y0111100D01*
X0169435Y0110931D01*
X0169471Y0110762D01*
X0169503Y0110592D01*
X0169530Y0110421D01*
X0169553Y0110249D01*
X0169572Y0110077D01*
X0169587Y0109905D01*
X0169598Y0109732D01*
X0169604Y0109559D01*
X0169606Y0109386D01*
X0169604Y0109213D01*
X0169598Y0109040D01*
X0169587Y0108867D01*
X0169572Y0108695D01*
X0169553Y0108523D01*
X0169530Y0108351D01*
X0169503Y0108180D01*
X0169471Y0108010D01*
X0169435Y0107841D01*
X0169396Y0107672D01*
X0169352Y0107505D01*
X0169304Y0107339D01*
X0169252Y0107174D01*
X0169196Y0107010D01*
X0169136Y0106848D01*
X0169072Y0106687D01*
X0169004Y0106528D01*
X0168932Y0106370D01*
X0168856Y0106214D01*
X0168777Y0106061D01*
X0168694Y0105909D01*
X0168607Y0105759D01*
X0168517Y0105612D01*
X0168423Y0105466D01*
X0168325Y0105323D01*
X0168224Y0105183D01*
X0168120Y0105045D01*
X0168012Y0104909D01*
X0167901Y0104776D01*
X0167787Y0104646D01*
X0167669Y0104519D01*
X0167549Y0104395D01*
X0167425Y0104274D01*
X0167299Y0104155D01*
X0167170Y0104040D01*
X0167038Y0103928D01*
X0166903Y0103820D01*
X0166766Y0103714D01*
X0166626Y0103612D01*
X0166484Y0103514D01*
X0166339Y0103419D01*
X0166192Y0103327D01*
X0166043Y0103240D01*
X0165892Y0103155D01*
X0165738Y0103075D01*
X0165583Y0102998D01*
X0165426Y0102925D01*
X0165268Y0102856D01*
X0165107Y0102791D01*
X0164945Y0102730D01*
X0164782Y0102673D01*
X0164617Y0102620D01*
X0164451Y0102571D01*
X0164284Y0102525D01*
X0164116Y0102484D01*
X0163947Y0102448D01*
X0163777Y0102415D01*
X0163606Y0102386D01*
X0145607Y0102386D02*
X0145436Y0102415D01*
X0145266Y0102448D01*
X0145097Y0102484D01*
X0144929Y0102525D01*
X0144762Y0102571D01*
X0144596Y0102620D01*
X0144431Y0102673D01*
X0144268Y0102730D01*
X0144106Y0102791D01*
X0143945Y0102856D01*
X0143787Y0102925D01*
X0143630Y0102998D01*
X0143475Y0103075D01*
X0143321Y0103155D01*
X0143170Y0103240D01*
X0143021Y0103327D01*
X0142874Y0103419D01*
X0142729Y0103514D01*
X0142587Y0103612D01*
X0142447Y0103714D01*
X0142310Y0103820D01*
X0142175Y0103928D01*
X0142043Y0104040D01*
X0141914Y0104155D01*
X0141788Y0104274D01*
X0141664Y0104395D01*
X0141544Y0104519D01*
X0141426Y0104646D01*
X0141312Y0104776D01*
X0141201Y0104909D01*
X0141093Y0105045D01*
X0140989Y0105183D01*
X0140888Y0105323D01*
X0140790Y0105466D01*
X0140696Y0105612D01*
X0140606Y0105759D01*
X0140519Y0105909D01*
X0140436Y0106061D01*
X0140357Y0106214D01*
X0140281Y0106370D01*
X0140209Y0106528D01*
X0140141Y0106687D01*
X0140077Y0106848D01*
X0140017Y0107010D01*
X0139961Y0107174D01*
X0139909Y0107339D01*
X0139861Y0107505D01*
X0139817Y0107672D01*
X0139778Y0107841D01*
X0139742Y0108010D01*
X0139710Y0108180D01*
X0139683Y0108351D01*
X0139660Y0108523D01*
X0139641Y0108695D01*
X0139626Y0108867D01*
X0139615Y0109040D01*
X0139609Y0109213D01*
X0139607Y0109386D01*
X0139609Y0109559D01*
X0139615Y0109732D01*
X0139626Y0109905D01*
X0139641Y0110077D01*
X0139660Y0110249D01*
X0139683Y0110421D01*
X0139710Y0110592D01*
X0139742Y0110762D01*
X0139778Y0110931D01*
X0139817Y0111100D01*
X0139861Y0111267D01*
X0139909Y0111433D01*
X0139961Y0111598D01*
X0140017Y0111762D01*
X0140077Y0111924D01*
X0140141Y0112085D01*
X0140209Y0112244D01*
X0140281Y0112402D01*
X0140357Y0112558D01*
X0140436Y0112711D01*
X0140519Y0112863D01*
X0140606Y0113013D01*
X0140696Y0113160D01*
X0140790Y0113306D01*
X0140888Y0113449D01*
X0140989Y0113589D01*
X0141093Y0113727D01*
X0141201Y0113863D01*
X0141312Y0113996D01*
X0141426Y0114126D01*
X0141544Y0114253D01*
X0141664Y0114377D01*
X0141788Y0114498D01*
X0141914Y0114617D01*
X0142043Y0114732D01*
X0142175Y0114844D01*
X0142310Y0114952D01*
X0142447Y0115058D01*
X0142587Y0115160D01*
X0142729Y0115258D01*
X0142874Y0115353D01*
X0143021Y0115445D01*
X0143170Y0115532D01*
X0143321Y0115617D01*
X0143475Y0115697D01*
X0143630Y0115774D01*
X0143787Y0115847D01*
X0143945Y0115916D01*
X0144106Y0115981D01*
X0144268Y0116042D01*
X0144431Y0116099D01*
X0144596Y0116152D01*
X0144762Y0116201D01*
X0144929Y0116247D01*
X0145097Y0116288D01*
X0145266Y0116324D01*
X0145436Y0116357D01*
X0145607Y0116386D01*
X0145606Y0102386D02*
X0147401Y0102206D01*
X0149199Y0102066D01*
X0151000Y0101966D01*
X0152802Y0101906D01*
X0154606Y0101886D01*
X0156410Y0101906D01*
X0158212Y0101966D01*
X0160013Y0102066D01*
X0161811Y0102206D01*
X0163606Y0102386D01*
X0163606Y0116386D02*
X0161811Y0116567D01*
X0160013Y0116707D01*
X0158212Y0116808D01*
X0156410Y0116868D01*
X0154606Y0116888D01*
X0152802Y0116868D01*
X0151000Y0116808D01*
X0149199Y0116707D01*
X0147401Y0116567D01*
X0145606Y0116386D01*
X0058937Y0182614D02*
X0056181Y0182614D01*
X0058937Y0182614D02*
X0058937Y0190882D01*
X0037677Y0182614D02*
X0016811Y0182614D01*
X0016811Y0218047D01*
X0058937Y0218047D01*
X0058937Y0209780D01*
X0022846Y0159556D02*
X0020044Y0156754D01*
X0020745Y0157455D02*
X0022846Y0155353D01*
X0020044Y0155353D02*
X0020044Y0159556D01*
X0015440Y0159556D02*
X0015440Y0155353D01*
X0018243Y0155353D01*
X0013639Y0156053D02*
X0012938Y0155353D01*
X0010836Y0155353D01*
X0010836Y0159556D01*
X0012938Y0159556D01*
X0013639Y0158856D01*
X0013639Y0158155D01*
X0012938Y0157455D01*
X0010836Y0157455D01*
X0012938Y0157455D02*
X0013639Y0156754D01*
X0013639Y0156053D01*
X0012938Y0092556D02*
X0011537Y0092556D01*
X0010836Y0091856D01*
X0010836Y0089053D01*
X0011537Y0088353D01*
X0012938Y0088353D01*
X0013639Y0089053D01*
X0013639Y0090455D01*
X0012237Y0090455D01*
X0013639Y0091856D02*
X0012938Y0092556D01*
X0015440Y0092556D02*
X0017542Y0092556D01*
X0018243Y0091856D01*
X0018243Y0090455D01*
X0017542Y0089754D01*
X0015440Y0089754D01*
X0015440Y0088353D02*
X0015440Y0092556D01*
X0020044Y0092556D02*
X0022846Y0088353D01*
X0022846Y0092556D01*
X0020044Y0092556D02*
X0020044Y0088353D01*
X0018243Y0088353D02*
X0016841Y0089754D01*
X0030354Y0061374D02*
X0030354Y0046374D01*
X0042795Y0024846D02*
X0066417Y0024846D01*
X0066417Y0022772D01*
X0049134Y0022772D02*
X0049134Y0014110D01*
X0040079Y0014110D01*
X0040079Y0022772D01*
X0049134Y0022772D01*
X0185433Y0015429D02*
X0185433Y0010429D01*
X0345433Y0010429D02*
X0345433Y0015429D01*
D16*
X0154008Y0024465D02*
X0153008Y0024465D01*
X0153008Y0034465D01*
X0154008Y0034465D01*
X0131008Y0034465D02*
X0131008Y0024965D01*
X0130008Y0024965D01*
X0130008Y0034465D02*
X0131008Y0034465D01*
X0074087Y0086276D02*
X0073087Y0086276D01*
X0073087Y0096276D01*
X0074087Y0096276D01*
X0051087Y0096276D02*
X0051087Y0086776D01*
X0050087Y0086776D01*
X0050087Y0096276D02*
X0051087Y0096276D01*
D17*
X0026575Y0086299D02*
X0026575Y0082796D01*
X0027158Y0084548D02*
X0024823Y0084548D01*
X0026575Y0086299D01*
X0022400Y0086299D02*
X0022400Y0082796D01*
X0023567Y0082796D02*
X0021232Y0082796D01*
X0019976Y0082796D02*
X0018809Y0083964D01*
X0019392Y0083964D02*
X0017641Y0083964D01*
X0017641Y0082796D02*
X0017641Y0086299D01*
X0019392Y0086299D01*
X0019976Y0085715D01*
X0019976Y0084548D01*
X0019392Y0083964D01*
X0021232Y0085131D02*
X0022400Y0086299D01*
X0047169Y0122166D02*
X0047169Y0125669D01*
X0048920Y0125669D01*
X0049504Y0125085D01*
X0049504Y0123918D01*
X0048920Y0123334D01*
X0047169Y0123334D01*
X0048336Y0123334D02*
X0049504Y0122166D01*
X0050760Y0122166D02*
X0053095Y0122166D01*
X0051927Y0122166D02*
X0051927Y0125669D01*
X0050760Y0124501D01*
X0094155Y0099826D02*
X0094155Y0097491D01*
X0095907Y0097491D01*
X0095323Y0098658D01*
X0095323Y0099242D01*
X0095907Y0099826D01*
X0097074Y0099826D01*
X0097658Y0099242D01*
X0097658Y0098075D01*
X0097074Y0097491D01*
X0097658Y0096235D02*
X0096491Y0095067D01*
X0096491Y0095651D02*
X0096491Y0093900D01*
X0097658Y0093900D02*
X0094155Y0093900D01*
X0094155Y0095651D01*
X0094739Y0096235D01*
X0095907Y0096235D01*
X0096491Y0095651D01*
X0103998Y0096045D02*
X0103998Y0094293D01*
X0107501Y0094293D01*
X0106333Y0094293D02*
X0106333Y0096045D01*
X0105749Y0096629D01*
X0104582Y0096629D01*
X0103998Y0096045D01*
X0106333Y0095461D02*
X0107501Y0096629D01*
X0106917Y0097885D02*
X0107501Y0098468D01*
X0107501Y0099636D01*
X0106917Y0100220D01*
X0106333Y0100220D01*
X0105749Y0099636D01*
X0105749Y0097885D01*
X0106917Y0097885D01*
X0105749Y0097885D02*
X0104582Y0099052D01*
X0103998Y0100220D01*
X0113447Y0100614D02*
X0113447Y0098278D01*
X0114030Y0097022D02*
X0115198Y0097022D01*
X0115782Y0096439D01*
X0115782Y0094687D01*
X0116950Y0094687D02*
X0113447Y0094687D01*
X0113447Y0096439D01*
X0114030Y0097022D01*
X0115782Y0095855D02*
X0116950Y0097022D01*
X0116950Y0098278D02*
X0116366Y0098278D01*
X0114030Y0100614D01*
X0113447Y0100614D01*
X0135357Y0063464D02*
X0137109Y0063464D01*
X0137693Y0062881D01*
X0137693Y0061713D01*
X0137109Y0061129D01*
X0135357Y0061129D01*
X0135357Y0059961D02*
X0135357Y0063464D01*
X0136525Y0061129D02*
X0137693Y0059961D01*
X0138949Y0059961D02*
X0141284Y0062297D01*
X0141284Y0062881D01*
X0140700Y0063464D01*
X0139532Y0063464D01*
X0138949Y0062881D01*
X0138949Y0059961D02*
X0141284Y0059961D01*
X0205787Y0035783D02*
X0206554Y0036550D01*
X0207321Y0036550D01*
X0208089Y0035783D01*
X0208856Y0036550D01*
X0209623Y0036550D01*
X0210391Y0035783D01*
X0210391Y0034248D01*
X0209623Y0033481D01*
X0210391Y0031946D02*
X0208856Y0030412D01*
X0208856Y0031179D02*
X0208856Y0028877D01*
X0210391Y0028877D02*
X0205787Y0028877D01*
X0205787Y0031179D01*
X0206554Y0031946D01*
X0208089Y0031946D01*
X0208856Y0031179D01*
X0206554Y0033481D02*
X0205787Y0034248D01*
X0205787Y0035783D01*
X0208089Y0035783D02*
X0208089Y0035016D01*
X0220505Y0102649D02*
X0221272Y0103416D01*
X0221272Y0104183D01*
X0220505Y0104951D01*
X0216669Y0104951D01*
X0216669Y0105718D02*
X0216669Y0104183D01*
X0216669Y0107253D02*
X0218203Y0108787D01*
X0216669Y0110322D01*
X0221272Y0110322D01*
X0221272Y0111857D02*
X0216669Y0111857D01*
X0216669Y0114159D01*
X0217436Y0114926D01*
X0218970Y0114926D01*
X0219738Y0114159D01*
X0219738Y0111857D01*
X0221272Y0116461D02*
X0221272Y0119530D01*
X0221272Y0117995D02*
X0216669Y0117995D01*
X0218203Y0116461D01*
X0228480Y0117228D02*
X0229247Y0116461D01*
X0228480Y0117228D02*
X0228480Y0118763D01*
X0229247Y0119530D01*
X0230014Y0119530D01*
X0233083Y0116461D01*
X0233083Y0119530D01*
X0239503Y0118763D02*
X0240270Y0119530D01*
X0241038Y0119530D01*
X0241805Y0118763D01*
X0242572Y0119530D01*
X0243340Y0119530D01*
X0244107Y0118763D01*
X0244107Y0117228D01*
X0243340Y0116461D01*
X0241805Y0117995D02*
X0241805Y0118763D01*
X0239503Y0118763D02*
X0239503Y0117228D01*
X0240270Y0116461D01*
X0240270Y0114926D02*
X0241805Y0114926D01*
X0242572Y0114159D01*
X0242572Y0111857D01*
X0244107Y0111857D02*
X0239503Y0111857D01*
X0239503Y0114159D01*
X0240270Y0114926D01*
X0239503Y0110322D02*
X0244107Y0110322D01*
X0244107Y0107253D02*
X0239503Y0107253D01*
X0241038Y0108787D01*
X0239503Y0110322D01*
X0233083Y0110322D02*
X0228480Y0110322D01*
X0230014Y0108787D01*
X0228480Y0107253D01*
X0233083Y0107253D01*
X0232316Y0104951D02*
X0228480Y0104951D01*
X0228480Y0105718D02*
X0228480Y0104183D01*
X0232316Y0104951D02*
X0233083Y0104183D01*
X0233083Y0103416D01*
X0232316Y0102649D01*
X0239503Y0104183D02*
X0239503Y0105718D01*
X0239503Y0104951D02*
X0243340Y0104951D01*
X0244107Y0104183D01*
X0244107Y0103416D01*
X0243340Y0102649D01*
X0233083Y0111857D02*
X0228480Y0111857D01*
X0228480Y0114159D01*
X0229247Y0114926D01*
X0230782Y0114926D01*
X0231549Y0114159D01*
X0231549Y0111857D01*
X0221272Y0107253D02*
X0216669Y0107253D01*
X0360691Y0106281D02*
X0361275Y0106865D01*
X0362442Y0106865D01*
X0363026Y0106281D01*
X0363026Y0104530D01*
X0363026Y0105697D02*
X0364194Y0106865D01*
X0362442Y0108121D02*
X0362442Y0110456D01*
X0360691Y0109872D02*
X0364194Y0109872D01*
X0362442Y0108121D02*
X0360691Y0109872D01*
X0360691Y0106281D02*
X0360691Y0104530D01*
X0364194Y0104530D01*
X0214895Y0235078D02*
X0212493Y0235078D01*
X0214895Y0237480D01*
X0214895Y0238081D01*
X0214295Y0238681D01*
X0213093Y0238681D01*
X0212493Y0238081D01*
X0211212Y0238681D02*
X0210011Y0238681D01*
X0210611Y0238681D02*
X0210611Y0235679D01*
X0210011Y0235078D01*
X0209410Y0235078D01*
X0208810Y0235679D01*
X0167748Y0235472D02*
X0165346Y0235472D01*
X0167748Y0237874D01*
X0167748Y0238475D01*
X0167148Y0239075D01*
X0165947Y0239075D01*
X0165346Y0238475D01*
X0164065Y0237274D02*
X0161663Y0237274D01*
X0160382Y0238475D02*
X0159781Y0239075D01*
X0158580Y0239075D01*
X0157980Y0238475D01*
X0157980Y0236073D01*
X0158580Y0235472D01*
X0159781Y0235472D01*
X0160382Y0236073D01*
X0156699Y0235472D02*
X0154297Y0235472D01*
X0156699Y0237874D01*
X0156699Y0238475D01*
X0156098Y0239075D01*
X0154897Y0239075D01*
X0154297Y0238475D01*
X0153042Y0239075D02*
X0151841Y0239075D01*
X0152442Y0239075D02*
X0152442Y0235472D01*
X0153042Y0235472D02*
X0151841Y0235472D01*
X0116567Y0235472D02*
X0114165Y0235472D01*
X0115366Y0235472D02*
X0115366Y0239075D01*
X0114165Y0237874D01*
X0112884Y0237274D02*
X0110482Y0237274D01*
X0109201Y0238475D02*
X0108600Y0239075D01*
X0107399Y0239075D01*
X0106799Y0238475D01*
X0106799Y0236073D01*
X0107399Y0235472D01*
X0108600Y0235472D01*
X0109201Y0236073D01*
X0105518Y0235472D02*
X0103116Y0235472D01*
X0105518Y0237874D01*
X0105518Y0238475D01*
X0104917Y0239075D01*
X0103716Y0239075D01*
X0103116Y0238475D01*
X0101861Y0239075D02*
X0100660Y0239075D01*
X0101261Y0239075D02*
X0101261Y0235472D01*
X0101861Y0235472D02*
X0100660Y0235472D01*
D18*
X0067719Y0116866D03*
X0046219Y0116866D03*
X0038191Y0077496D03*
X0016691Y0077496D03*
X0134407Y0054661D03*
X0155907Y0054661D03*
D19*
X0115394Y0030289D03*
X0115394Y0027789D03*
X0115394Y0025289D03*
X0105394Y0025289D03*
X0105394Y0027789D03*
X0105394Y0030289D03*
X0095394Y0030289D03*
X0095394Y0027789D03*
X0095394Y0025289D03*
D20*
X0095157Y0065565D03*
X0105394Y0065565D03*
X0115236Y0065565D03*
X0115236Y0087065D03*
X0105394Y0087065D03*
X0095157Y0087065D03*
X0355394Y0090762D03*
X0355394Y0112262D03*
D21*
X0030683Y0061683D02*
X0029963Y0061143D01*
X0029964Y0061144D02*
X0029783Y0061377D01*
X0029597Y0061605D01*
X0029405Y0061829D01*
X0029208Y0062048D01*
X0029006Y0062262D01*
X0028798Y0062471D01*
X0028585Y0062674D01*
X0028368Y0062873D01*
X0028145Y0063066D01*
X0027918Y0063254D01*
X0027687Y0063436D01*
X0027451Y0063613D01*
X0027210Y0063783D01*
X0026966Y0063948D01*
X0026718Y0064106D01*
X0026466Y0064259D01*
X0026210Y0064405D01*
X0025951Y0064545D01*
X0025688Y0064679D01*
X0025423Y0064806D01*
X0025154Y0064927D01*
X0024882Y0065041D01*
X0024608Y0065148D01*
X0024331Y0065249D01*
X0024052Y0065343D01*
X0023770Y0065430D01*
X0023487Y0065510D01*
X0023201Y0065583D01*
X0022914Y0065649D01*
X0022625Y0065708D01*
X0022335Y0065760D01*
X0022044Y0065805D01*
X0021752Y0065843D01*
X0021459Y0065873D01*
X0021165Y0065897D01*
X0020871Y0065913D01*
X0020577Y0065922D01*
X0020282Y0065924D01*
X0019987Y0065918D01*
X0019693Y0065906D01*
X0019399Y0065886D01*
X0019106Y0065859D01*
X0018813Y0065825D01*
X0018521Y0065784D01*
X0018231Y0065735D01*
X0017941Y0065680D01*
X0017654Y0065618D01*
X0017367Y0065548D01*
X0017083Y0065471D01*
X0016800Y0065388D01*
X0016520Y0065298D01*
X0016242Y0065201D01*
X0015966Y0065097D01*
X0015693Y0064986D01*
X0015423Y0064869D01*
X0015155Y0064745D01*
X0014891Y0064615D01*
X0014630Y0064478D01*
X0014373Y0064335D01*
X0014119Y0064185D01*
X0013868Y0064030D01*
X0013622Y0063868D01*
X0013380Y0063701D01*
X0013142Y0063527D01*
X0012908Y0063348D01*
X0012678Y0063163D01*
X0012454Y0062973D01*
X0012233Y0062777D01*
X0012018Y0062576D01*
X0011808Y0062369D01*
X0011603Y0062158D01*
X0011403Y0061941D01*
X0011208Y0061720D01*
X0011019Y0061494D01*
X0010836Y0061264D01*
X0010658Y0061029D01*
X0010486Y0060789D01*
X0010320Y0060546D01*
X0010160Y0060299D01*
X0010006Y0060048D01*
X0009858Y0059793D01*
X0009716Y0059534D01*
X0009581Y0059273D01*
X0009452Y0059008D01*
X0009330Y0058740D01*
X0009214Y0058469D01*
X0009105Y0058195D01*
X0009003Y0057919D01*
X0008908Y0057640D01*
X0008819Y0057359D01*
X0008737Y0057076D01*
X0008662Y0056791D01*
X0008595Y0056504D01*
X0008534Y0056216D01*
X0008480Y0055926D01*
X0008433Y0055635D01*
X0008394Y0055343D01*
X0008362Y0055051D01*
X0008336Y0054757D01*
X0008318Y0054463D01*
X0008308Y0054169D01*
X0008304Y0053874D01*
X0008308Y0053579D01*
X0008318Y0053285D01*
X0008336Y0052991D01*
X0008362Y0052697D01*
X0008394Y0052405D01*
X0008433Y0052113D01*
X0008480Y0051822D01*
X0008534Y0051532D01*
X0008595Y0051244D01*
X0008662Y0050957D01*
X0008737Y0050672D01*
X0008819Y0050389D01*
X0008908Y0050108D01*
X0009003Y0049829D01*
X0009105Y0049553D01*
X0009214Y0049279D01*
X0009330Y0049008D01*
X0009452Y0048740D01*
X0009581Y0048475D01*
X0009716Y0048214D01*
X0009858Y0047955D01*
X0010006Y0047700D01*
X0010160Y0047449D01*
X0010320Y0047202D01*
X0010486Y0046959D01*
X0010658Y0046719D01*
X0010836Y0046484D01*
X0011019Y0046254D01*
X0011208Y0046028D01*
X0011403Y0045807D01*
X0011603Y0045590D01*
X0011808Y0045379D01*
X0012018Y0045172D01*
X0012233Y0044971D01*
X0012454Y0044775D01*
X0012678Y0044585D01*
X0012908Y0044400D01*
X0013142Y0044221D01*
X0013380Y0044047D01*
X0013622Y0043880D01*
X0013868Y0043718D01*
X0014119Y0043563D01*
X0014373Y0043413D01*
X0014630Y0043270D01*
X0014891Y0043133D01*
X0015155Y0043003D01*
X0015423Y0042879D01*
X0015693Y0042762D01*
X0015966Y0042651D01*
X0016242Y0042547D01*
X0016520Y0042450D01*
X0016800Y0042360D01*
X0017083Y0042277D01*
X0017367Y0042200D01*
X0017654Y0042130D01*
X0017941Y0042068D01*
X0018231Y0042013D01*
X0018521Y0041964D01*
X0018813Y0041923D01*
X0019106Y0041889D01*
X0019399Y0041862D01*
X0019693Y0041842D01*
X0019987Y0041830D01*
X0020282Y0041824D01*
X0020577Y0041826D01*
X0020871Y0041835D01*
X0021165Y0041851D01*
X0021459Y0041875D01*
X0021752Y0041905D01*
X0022044Y0041943D01*
X0022335Y0041988D01*
X0022625Y0042040D01*
X0022914Y0042099D01*
X0023201Y0042165D01*
X0023487Y0042238D01*
X0023770Y0042318D01*
X0024052Y0042405D01*
X0024331Y0042499D01*
X0024608Y0042600D01*
X0024882Y0042707D01*
X0025154Y0042821D01*
X0025423Y0042942D01*
X0025688Y0043069D01*
X0025951Y0043203D01*
X0026210Y0043343D01*
X0026466Y0043489D01*
X0026718Y0043642D01*
X0026966Y0043800D01*
X0027210Y0043965D01*
X0027451Y0044135D01*
X0027687Y0044312D01*
X0027918Y0044494D01*
X0028145Y0044682D01*
X0028368Y0044875D01*
X0028585Y0045074D01*
X0028798Y0045277D01*
X0029006Y0045486D01*
X0029208Y0045700D01*
X0029405Y0045919D01*
X0029597Y0046143D01*
X0029783Y0046371D01*
X0029964Y0046604D01*
X0030683Y0046065D01*
X0030684Y0046064D01*
X0030490Y0045814D01*
X0030290Y0045568D01*
X0030084Y0045328D01*
X0029872Y0045093D01*
X0029654Y0044863D01*
X0029431Y0044638D01*
X0029203Y0044419D01*
X0028969Y0044205D01*
X0028730Y0043997D01*
X0028486Y0043795D01*
X0028237Y0043600D01*
X0027983Y0043410D01*
X0027725Y0043227D01*
X0027463Y0043050D01*
X0027196Y0042879D01*
X0026925Y0042715D01*
X0026650Y0042558D01*
X0026372Y0042407D01*
X0026089Y0042263D01*
X0025804Y0042127D01*
X0025515Y0041997D01*
X0025223Y0041874D01*
X0024928Y0041759D01*
X0024631Y0041651D01*
X0024330Y0041550D01*
X0024028Y0041456D01*
X0023723Y0041370D01*
X0023416Y0041291D01*
X0023108Y0041220D01*
X0022798Y0041157D01*
X0022486Y0041101D01*
X0022173Y0041052D01*
X0021859Y0041012D01*
X0021544Y0040979D01*
X0021228Y0040954D01*
X0020912Y0040936D01*
X0020596Y0040926D01*
X0020279Y0040924D01*
X0019962Y0040930D01*
X0019646Y0040943D01*
X0019330Y0040965D01*
X0019015Y0040993D01*
X0018700Y0041030D01*
X0018387Y0041074D01*
X0018074Y0041126D01*
X0017763Y0041186D01*
X0017454Y0041253D01*
X0017146Y0041328D01*
X0016840Y0041410D01*
X0016537Y0041499D01*
X0016235Y0041596D01*
X0015936Y0041701D01*
X0015640Y0041813D01*
X0015346Y0041931D01*
X0015056Y0042057D01*
X0014769Y0042190D01*
X0014484Y0042331D01*
X0014204Y0042478D01*
X0013927Y0042631D01*
X0013654Y0042792D01*
X0013385Y0042959D01*
X0013120Y0043133D01*
X0012860Y0043313D01*
X0012604Y0043499D01*
X0012353Y0043692D01*
X0012106Y0043890D01*
X0011864Y0044095D01*
X0011628Y0044305D01*
X0011396Y0044522D01*
X0011171Y0044744D01*
X0010950Y0044971D01*
X0010735Y0045203D01*
X0010526Y0045441D01*
X0010323Y0045684D01*
X0010125Y0045932D01*
X0009934Y0046184D01*
X0009749Y0046441D01*
X0009571Y0046703D01*
X0009399Y0046969D01*
X0009233Y0047238D01*
X0009074Y0047512D01*
X0008922Y0047790D01*
X0008777Y0048071D01*
X0008638Y0048356D01*
X0008507Y0048644D01*
X0008383Y0048936D01*
X0008265Y0049230D01*
X0008155Y0049527D01*
X0008053Y0049826D01*
X0007958Y0050128D01*
X0007870Y0050432D01*
X0007789Y0050739D01*
X0007716Y0051047D01*
X0007651Y0051357D01*
X0007593Y0051668D01*
X0007543Y0051981D01*
X0007501Y0052295D01*
X0007466Y0052609D01*
X0007439Y0052925D01*
X0007419Y0053241D01*
X0007408Y0053557D01*
X0007404Y0053874D01*
X0007408Y0054191D01*
X0007419Y0054507D01*
X0007439Y0054823D01*
X0007466Y0055139D01*
X0007501Y0055453D01*
X0007543Y0055767D01*
X0007593Y0056080D01*
X0007651Y0056391D01*
X0007716Y0056701D01*
X0007789Y0057009D01*
X0007870Y0057316D01*
X0007958Y0057620D01*
X0008053Y0057922D01*
X0008155Y0058221D01*
X0008265Y0058518D01*
X0008383Y0058812D01*
X0008507Y0059104D01*
X0008638Y0059392D01*
X0008777Y0059677D01*
X0008922Y0059958D01*
X0009074Y0060236D01*
X0009233Y0060510D01*
X0009399Y0060779D01*
X0009571Y0061045D01*
X0009749Y0061307D01*
X0009934Y0061564D01*
X0010125Y0061816D01*
X0010323Y0062064D01*
X0010526Y0062307D01*
X0010735Y0062545D01*
X0010950Y0062777D01*
X0011171Y0063004D01*
X0011396Y0063226D01*
X0011628Y0063443D01*
X0011864Y0063653D01*
X0012106Y0063858D01*
X0012353Y0064056D01*
X0012604Y0064249D01*
X0012860Y0064435D01*
X0013120Y0064615D01*
X0013385Y0064789D01*
X0013654Y0064956D01*
X0013927Y0065117D01*
X0014204Y0065270D01*
X0014484Y0065417D01*
X0014769Y0065558D01*
X0015056Y0065691D01*
X0015346Y0065817D01*
X0015640Y0065935D01*
X0015936Y0066047D01*
X0016235Y0066152D01*
X0016537Y0066249D01*
X0016840Y0066338D01*
X0017146Y0066420D01*
X0017454Y0066495D01*
X0017763Y0066562D01*
X0018074Y0066622D01*
X0018387Y0066674D01*
X0018700Y0066718D01*
X0019015Y0066755D01*
X0019330Y0066783D01*
X0019646Y0066805D01*
X0019962Y0066818D01*
X0020279Y0066824D01*
X0020596Y0066822D01*
X0020912Y0066812D01*
X0021228Y0066794D01*
X0021544Y0066769D01*
X0021859Y0066736D01*
X0022173Y0066696D01*
X0022486Y0066647D01*
X0022798Y0066591D01*
X0023108Y0066528D01*
X0023416Y0066457D01*
X0023723Y0066378D01*
X0024028Y0066292D01*
X0024330Y0066198D01*
X0024631Y0066097D01*
X0024928Y0065989D01*
X0025223Y0065874D01*
X0025515Y0065751D01*
X0025804Y0065621D01*
X0026089Y0065485D01*
X0026372Y0065341D01*
X0026650Y0065190D01*
X0026925Y0065033D01*
X0027196Y0064869D01*
X0027463Y0064698D01*
X0027725Y0064521D01*
X0027983Y0064338D01*
X0028237Y0064148D01*
X0028486Y0063953D01*
X0028730Y0063751D01*
X0028969Y0063543D01*
X0029203Y0063329D01*
X0029431Y0063110D01*
X0029654Y0062885D01*
X0029872Y0062655D01*
X0030084Y0062420D01*
X0030290Y0062180D01*
X0030490Y0061934D01*
X0030684Y0061684D01*
X0030609Y0061628D01*
X0030416Y0061876D01*
X0030217Y0062120D01*
X0030013Y0062358D01*
X0029803Y0062592D01*
X0029587Y0062820D01*
X0029365Y0063043D01*
X0029138Y0063261D01*
X0028906Y0063473D01*
X0028669Y0063679D01*
X0028427Y0063880D01*
X0028179Y0064074D01*
X0027928Y0064262D01*
X0027671Y0064444D01*
X0027411Y0064620D01*
X0027146Y0064789D01*
X0026877Y0064952D01*
X0026604Y0065108D01*
X0026328Y0065258D01*
X0026048Y0065400D01*
X0025764Y0065536D01*
X0025477Y0065665D01*
X0025187Y0065787D01*
X0024895Y0065901D01*
X0024599Y0066009D01*
X0024301Y0066109D01*
X0024001Y0066202D01*
X0023698Y0066287D01*
X0023394Y0066365D01*
X0023088Y0066436D01*
X0022780Y0066499D01*
X0022470Y0066555D01*
X0022160Y0066603D01*
X0021848Y0066643D01*
X0021535Y0066676D01*
X0021222Y0066701D01*
X0020908Y0066718D01*
X0020594Y0066728D01*
X0020279Y0066730D01*
X0019965Y0066724D01*
X0019651Y0066711D01*
X0019337Y0066690D01*
X0019024Y0066661D01*
X0018712Y0066625D01*
X0018401Y0066581D01*
X0018091Y0066529D01*
X0017782Y0066470D01*
X0017475Y0066403D01*
X0017169Y0066329D01*
X0016866Y0066248D01*
X0016564Y0066159D01*
X0016265Y0066062D01*
X0015968Y0065959D01*
X0015674Y0065848D01*
X0015383Y0065730D01*
X0015094Y0065605D01*
X0014809Y0065473D01*
X0014527Y0065334D01*
X0014249Y0065188D01*
X0013974Y0065035D01*
X0013703Y0064876D01*
X0013436Y0064710D01*
X0013173Y0064537D01*
X0012914Y0064359D01*
X0012660Y0064174D01*
X0012411Y0063982D01*
X0012166Y0063785D01*
X0011926Y0063582D01*
X0011691Y0063373D01*
X0011461Y0063158D01*
X0011237Y0062938D01*
X0011018Y0062713D01*
X0010805Y0062482D01*
X0010597Y0062246D01*
X0010395Y0062004D01*
X0010200Y0061759D01*
X0010010Y0061508D01*
X0009826Y0061253D01*
X0009649Y0060993D01*
X0009478Y0060729D01*
X0009314Y0060461D01*
X0009156Y0060189D01*
X0009005Y0059914D01*
X0008861Y0059634D01*
X0008723Y0059352D01*
X0008593Y0059066D01*
X0008469Y0058777D01*
X0008353Y0058484D01*
X0008244Y0058190D01*
X0008142Y0057892D01*
X0008048Y0057593D01*
X0007960Y0057290D01*
X0007880Y0056986D01*
X0007808Y0056681D01*
X0007743Y0056373D01*
X0007686Y0056064D01*
X0007636Y0055753D01*
X0007594Y0055442D01*
X0007559Y0055129D01*
X0007533Y0054816D01*
X0007513Y0054502D01*
X0007502Y0054188D01*
X0007498Y0053874D01*
X0007502Y0053560D01*
X0007513Y0053246D01*
X0007533Y0052932D01*
X0007559Y0052619D01*
X0007594Y0052306D01*
X0007636Y0051995D01*
X0007686Y0051684D01*
X0007743Y0051375D01*
X0007808Y0051067D01*
X0007880Y0050762D01*
X0007960Y0050458D01*
X0008048Y0050155D01*
X0008142Y0049856D01*
X0008244Y0049558D01*
X0008353Y0049264D01*
X0008469Y0048971D01*
X0008593Y0048682D01*
X0008723Y0048396D01*
X0008861Y0048114D01*
X0009005Y0047834D01*
X0009156Y0047559D01*
X0009314Y0047287D01*
X0009478Y0047019D01*
X0009649Y0046755D01*
X0009826Y0046495D01*
X0010010Y0046240D01*
X0010200Y0045989D01*
X0010395Y0045744D01*
X0010597Y0045502D01*
X0010805Y0045266D01*
X0011018Y0045035D01*
X0011237Y0044810D01*
X0011461Y0044590D01*
X0011691Y0044375D01*
X0011926Y0044166D01*
X0012166Y0043963D01*
X0012411Y0043766D01*
X0012660Y0043574D01*
X0012914Y0043389D01*
X0013173Y0043211D01*
X0013436Y0043038D01*
X0013703Y0042872D01*
X0013974Y0042713D01*
X0014249Y0042560D01*
X0014527Y0042414D01*
X0014809Y0042275D01*
X0015094Y0042143D01*
X0015383Y0042018D01*
X0015674Y0041900D01*
X0015968Y0041789D01*
X0016265Y0041686D01*
X0016564Y0041589D01*
X0016866Y0041500D01*
X0017169Y0041419D01*
X0017475Y0041345D01*
X0017782Y0041278D01*
X0018091Y0041219D01*
X0018401Y0041167D01*
X0018712Y0041123D01*
X0019024Y0041087D01*
X0019337Y0041058D01*
X0019651Y0041037D01*
X0019965Y0041024D01*
X0020279Y0041018D01*
X0020594Y0041020D01*
X0020908Y0041030D01*
X0021222Y0041047D01*
X0021535Y0041072D01*
X0021848Y0041105D01*
X0022160Y0041145D01*
X0022470Y0041193D01*
X0022780Y0041249D01*
X0023088Y0041312D01*
X0023394Y0041383D01*
X0023698Y0041461D01*
X0024001Y0041546D01*
X0024301Y0041639D01*
X0024599Y0041739D01*
X0024895Y0041847D01*
X0025187Y0041961D01*
X0025477Y0042083D01*
X0025764Y0042212D01*
X0026048Y0042348D01*
X0026328Y0042490D01*
X0026604Y0042640D01*
X0026877Y0042796D01*
X0027146Y0042959D01*
X0027411Y0043128D01*
X0027671Y0043304D01*
X0027928Y0043486D01*
X0028179Y0043674D01*
X0028427Y0043868D01*
X0028669Y0044069D01*
X0028906Y0044275D01*
X0029138Y0044487D01*
X0029365Y0044705D01*
X0029587Y0044928D01*
X0029803Y0045156D01*
X0030013Y0045390D01*
X0030217Y0045628D01*
X0030416Y0045872D01*
X0030609Y0046120D01*
X0030534Y0046177D01*
X0030342Y0045930D01*
X0030145Y0045688D01*
X0029942Y0045451D01*
X0029733Y0045220D01*
X0029519Y0044993D01*
X0029299Y0044771D01*
X0029074Y0044555D01*
X0028843Y0044345D01*
X0028608Y0044140D01*
X0028367Y0043941D01*
X0028122Y0043748D01*
X0027872Y0043562D01*
X0027618Y0043381D01*
X0027359Y0043206D01*
X0027096Y0043038D01*
X0026829Y0042877D01*
X0026558Y0042722D01*
X0026284Y0042573D01*
X0026006Y0042432D01*
X0025724Y0042297D01*
X0025440Y0042169D01*
X0025152Y0042048D01*
X0024861Y0041934D01*
X0024568Y0041828D01*
X0024272Y0041728D01*
X0023974Y0041636D01*
X0023674Y0041551D01*
X0023371Y0041474D01*
X0023067Y0041404D01*
X0022762Y0041341D01*
X0022455Y0041286D01*
X0022146Y0041238D01*
X0021837Y0041198D01*
X0021526Y0041166D01*
X0021215Y0041141D01*
X0020904Y0041124D01*
X0020592Y0041114D01*
X0020280Y0041112D01*
X0019968Y0041118D01*
X0019656Y0041131D01*
X0019345Y0041152D01*
X0019034Y0041180D01*
X0018724Y0041217D01*
X0018415Y0041260D01*
X0018107Y0041311D01*
X0017800Y0041370D01*
X0017496Y0041436D01*
X0017192Y0041510D01*
X0016891Y0041591D01*
X0016592Y0041679D01*
X0016295Y0041775D01*
X0016000Y0041878D01*
X0015708Y0041988D01*
X0015419Y0042105D01*
X0015132Y0042229D01*
X0014849Y0042360D01*
X0014569Y0042498D01*
X0014293Y0042643D01*
X0014020Y0042795D01*
X0013751Y0042953D01*
X0013486Y0043118D01*
X0013225Y0043289D01*
X0012969Y0043466D01*
X0012716Y0043650D01*
X0012469Y0043840D01*
X0012226Y0044035D01*
X0011987Y0044237D01*
X0011754Y0044445D01*
X0011526Y0044658D01*
X0011304Y0044876D01*
X0011086Y0045100D01*
X0010875Y0045329D01*
X0010669Y0045564D01*
X0010468Y0045803D01*
X0010274Y0046047D01*
X0010086Y0046296D01*
X0009903Y0046549D01*
X0009727Y0046807D01*
X0009558Y0047069D01*
X0009395Y0047335D01*
X0009238Y0047605D01*
X0009088Y0047879D01*
X0008945Y0048156D01*
X0008808Y0048436D01*
X0008679Y0048720D01*
X0008556Y0049007D01*
X0008441Y0049297D01*
X0008333Y0049590D01*
X0008231Y0049885D01*
X0008137Y0050183D01*
X0008051Y0050483D01*
X0007972Y0050784D01*
X0007900Y0051088D01*
X0007835Y0051393D01*
X0007778Y0051700D01*
X0007729Y0052008D01*
X0007687Y0052318D01*
X0007653Y0052628D01*
X0007626Y0052939D01*
X0007607Y0053250D01*
X0007596Y0053562D01*
X0007592Y0053874D01*
X0007596Y0054186D01*
X0007607Y0054498D01*
X0007626Y0054809D01*
X0007653Y0055120D01*
X0007687Y0055430D01*
X0007729Y0055740D01*
X0007778Y0056048D01*
X0007835Y0056355D01*
X0007900Y0056660D01*
X0007972Y0056964D01*
X0008051Y0057265D01*
X0008137Y0057565D01*
X0008231Y0057863D01*
X0008333Y0058158D01*
X0008441Y0058451D01*
X0008556Y0058741D01*
X0008679Y0059028D01*
X0008808Y0059312D01*
X0008945Y0059592D01*
X0009088Y0059869D01*
X0009238Y0060143D01*
X0009395Y0060413D01*
X0009558Y0060679D01*
X0009727Y0060941D01*
X0009903Y0061199D01*
X0010086Y0061452D01*
X0010274Y0061701D01*
X0010468Y0061945D01*
X0010669Y0062184D01*
X0010875Y0062419D01*
X0011086Y0062648D01*
X0011304Y0062872D01*
X0011526Y0063090D01*
X0011754Y0063303D01*
X0011987Y0063511D01*
X0012226Y0063713D01*
X0012469Y0063908D01*
X0012716Y0064098D01*
X0012969Y0064282D01*
X0013225Y0064459D01*
X0013486Y0064630D01*
X0013751Y0064795D01*
X0014020Y0064953D01*
X0014293Y0065105D01*
X0014569Y0065250D01*
X0014849Y0065388D01*
X0015132Y0065519D01*
X0015419Y0065643D01*
X0015708Y0065760D01*
X0016000Y0065870D01*
X0016295Y0065973D01*
X0016592Y0066069D01*
X0016891Y0066157D01*
X0017192Y0066238D01*
X0017496Y0066312D01*
X0017800Y0066378D01*
X0018107Y0066437D01*
X0018415Y0066488D01*
X0018724Y0066531D01*
X0019034Y0066568D01*
X0019345Y0066596D01*
X0019656Y0066617D01*
X0019968Y0066630D01*
X0020280Y0066636D01*
X0020592Y0066634D01*
X0020904Y0066624D01*
X0021215Y0066607D01*
X0021526Y0066582D01*
X0021837Y0066550D01*
X0022146Y0066510D01*
X0022455Y0066462D01*
X0022762Y0066407D01*
X0023067Y0066344D01*
X0023371Y0066274D01*
X0023674Y0066197D01*
X0023974Y0066112D01*
X0024272Y0066020D01*
X0024568Y0065920D01*
X0024861Y0065814D01*
X0025152Y0065700D01*
X0025440Y0065579D01*
X0025724Y0065451D01*
X0026006Y0065316D01*
X0026284Y0065175D01*
X0026558Y0065026D01*
X0026829Y0064871D01*
X0027096Y0064710D01*
X0027359Y0064542D01*
X0027618Y0064367D01*
X0027872Y0064186D01*
X0028122Y0064000D01*
X0028367Y0063807D01*
X0028608Y0063608D01*
X0028843Y0063403D01*
X0029074Y0063193D01*
X0029299Y0062977D01*
X0029519Y0062755D01*
X0029733Y0062528D01*
X0029942Y0062297D01*
X0030145Y0062060D01*
X0030342Y0061818D01*
X0030534Y0061571D01*
X0030458Y0061515D01*
X0030268Y0061760D01*
X0030073Y0062000D01*
X0029871Y0062235D01*
X0029664Y0062465D01*
X0029451Y0062690D01*
X0029233Y0062910D01*
X0029009Y0063124D01*
X0028780Y0063333D01*
X0028547Y0063536D01*
X0028308Y0063734D01*
X0028065Y0063925D01*
X0027816Y0064111D01*
X0027564Y0064290D01*
X0027307Y0064463D01*
X0027046Y0064630D01*
X0026781Y0064791D01*
X0026512Y0064944D01*
X0026240Y0065092D01*
X0025964Y0065232D01*
X0025684Y0065366D01*
X0025402Y0065493D01*
X0025116Y0065613D01*
X0024828Y0065726D01*
X0024537Y0065832D01*
X0024243Y0065930D01*
X0023947Y0066022D01*
X0023649Y0066106D01*
X0023349Y0066183D01*
X0023047Y0066252D01*
X0022744Y0066315D01*
X0022439Y0066369D01*
X0022133Y0066417D01*
X0021825Y0066456D01*
X0021517Y0066488D01*
X0021209Y0066513D01*
X0020899Y0066530D01*
X0020590Y0066540D01*
X0020280Y0066542D01*
X0019970Y0066536D01*
X0019661Y0066523D01*
X0019352Y0066502D01*
X0019043Y0066474D01*
X0018736Y0066438D01*
X0018429Y0066395D01*
X0018123Y0066344D01*
X0017819Y0066286D01*
X0017516Y0066220D01*
X0017215Y0066147D01*
X0016916Y0066067D01*
X0016619Y0065979D01*
X0016324Y0065884D01*
X0016032Y0065782D01*
X0015742Y0065673D01*
X0015455Y0065556D01*
X0015171Y0065433D01*
X0014890Y0065303D01*
X0014612Y0065166D01*
X0014338Y0065022D01*
X0014067Y0064872D01*
X0013800Y0064715D01*
X0013537Y0064551D01*
X0013278Y0064381D01*
X0013023Y0064205D01*
X0012772Y0064023D01*
X0012527Y0063834D01*
X0012285Y0063640D01*
X0012049Y0063440D01*
X0011818Y0063234D01*
X0011591Y0063022D01*
X0011370Y0062805D01*
X0011155Y0062583D01*
X0010944Y0062356D01*
X0010740Y0062123D01*
X0010541Y0061885D01*
X0010348Y0061643D01*
X0010161Y0061396D01*
X0009980Y0061145D01*
X0009806Y0060889D01*
X0009637Y0060629D01*
X0009475Y0060365D01*
X0009320Y0060097D01*
X0009171Y0059825D01*
X0009029Y0059550D01*
X0008893Y0059271D01*
X0008765Y0058990D01*
X0008643Y0058705D01*
X0008529Y0058417D01*
X0008421Y0058126D01*
X0008321Y0057833D01*
X0008227Y0057538D01*
X0008141Y0057240D01*
X0008063Y0056941D01*
X0007992Y0056639D01*
X0007928Y0056336D01*
X0007871Y0056032D01*
X0007822Y0055726D01*
X0007781Y0055419D01*
X0007747Y0055111D01*
X0007720Y0054802D01*
X0007701Y0054493D01*
X0007690Y0054184D01*
X0007686Y0053874D01*
X0007690Y0053564D01*
X0007701Y0053255D01*
X0007720Y0052946D01*
X0007747Y0052637D01*
X0007781Y0052329D01*
X0007822Y0052022D01*
X0007871Y0051716D01*
X0007928Y0051412D01*
X0007992Y0051109D01*
X0008063Y0050807D01*
X0008141Y0050508D01*
X0008227Y0050210D01*
X0008321Y0049915D01*
X0008421Y0049622D01*
X0008529Y0049331D01*
X0008643Y0049043D01*
X0008765Y0048758D01*
X0008893Y0048477D01*
X0009029Y0048198D01*
X0009171Y0047923D01*
X0009320Y0047651D01*
X0009475Y0047383D01*
X0009637Y0047119D01*
X0009806Y0046859D01*
X0009980Y0046603D01*
X0010161Y0046352D01*
X0010348Y0046105D01*
X0010541Y0045863D01*
X0010740Y0045625D01*
X0010944Y0045392D01*
X0011155Y0045165D01*
X0011370Y0044943D01*
X0011591Y0044726D01*
X0011818Y0044514D01*
X0012049Y0044308D01*
X0012285Y0044108D01*
X0012527Y0043914D01*
X0012772Y0043725D01*
X0013023Y0043543D01*
X0013278Y0043367D01*
X0013537Y0043197D01*
X0013800Y0043033D01*
X0014067Y0042876D01*
X0014338Y0042726D01*
X0014612Y0042582D01*
X0014890Y0042445D01*
X0015171Y0042315D01*
X0015455Y0042192D01*
X0015742Y0042075D01*
X0016032Y0041966D01*
X0016324Y0041864D01*
X0016619Y0041769D01*
X0016916Y0041681D01*
X0017215Y0041601D01*
X0017516Y0041528D01*
X0017819Y0041462D01*
X0018123Y0041404D01*
X0018429Y0041353D01*
X0018736Y0041310D01*
X0019043Y0041274D01*
X0019352Y0041246D01*
X0019661Y0041225D01*
X0019970Y0041212D01*
X0020280Y0041206D01*
X0020590Y0041208D01*
X0020899Y0041218D01*
X0021209Y0041235D01*
X0021517Y0041260D01*
X0021825Y0041292D01*
X0022133Y0041331D01*
X0022439Y0041379D01*
X0022744Y0041433D01*
X0023047Y0041496D01*
X0023349Y0041565D01*
X0023649Y0041642D01*
X0023947Y0041726D01*
X0024243Y0041818D01*
X0024537Y0041916D01*
X0024828Y0042022D01*
X0025116Y0042135D01*
X0025402Y0042255D01*
X0025684Y0042382D01*
X0025964Y0042516D01*
X0026240Y0042656D01*
X0026512Y0042804D01*
X0026781Y0042957D01*
X0027046Y0043118D01*
X0027307Y0043285D01*
X0027564Y0043458D01*
X0027816Y0043637D01*
X0028065Y0043823D01*
X0028308Y0044014D01*
X0028547Y0044212D01*
X0028780Y0044415D01*
X0029009Y0044624D01*
X0029233Y0044838D01*
X0029451Y0045058D01*
X0029664Y0045283D01*
X0029871Y0045513D01*
X0030073Y0045748D01*
X0030268Y0045988D01*
X0030458Y0046233D01*
X0030383Y0046290D01*
X0030195Y0046047D01*
X0030000Y0045808D01*
X0029800Y0045575D01*
X0029595Y0045347D01*
X0029383Y0045123D01*
X0029167Y0044905D01*
X0028945Y0044692D01*
X0028718Y0044485D01*
X0028486Y0044283D01*
X0028249Y0044087D01*
X0028007Y0043897D01*
X0027761Y0043713D01*
X0027510Y0043535D01*
X0027255Y0043363D01*
X0026996Y0043198D01*
X0026733Y0043038D01*
X0026466Y0042886D01*
X0026196Y0042739D01*
X0025922Y0042600D01*
X0025645Y0042467D01*
X0025364Y0042341D01*
X0025081Y0042222D01*
X0024794Y0042110D01*
X0024505Y0042005D01*
X0024214Y0041907D01*
X0023920Y0041816D01*
X0023624Y0041733D01*
X0023327Y0041656D01*
X0023027Y0041587D01*
X0022726Y0041526D01*
X0022423Y0041471D01*
X0022119Y0041425D01*
X0021814Y0041385D01*
X0021509Y0041353D01*
X0021202Y0041329D01*
X0020895Y0041312D01*
X0020588Y0041302D01*
X0020280Y0041300D01*
X0019973Y0041306D01*
X0019666Y0041319D01*
X0019359Y0041339D01*
X0019053Y0041368D01*
X0018747Y0041403D01*
X0018443Y0041446D01*
X0018140Y0041497D01*
X0017838Y0041554D01*
X0017537Y0041620D01*
X0017238Y0041692D01*
X0016942Y0041772D01*
X0016647Y0041859D01*
X0016354Y0041953D01*
X0016064Y0042055D01*
X0015776Y0042163D01*
X0015491Y0042278D01*
X0015209Y0042401D01*
X0014930Y0042530D01*
X0014654Y0042666D01*
X0014382Y0042809D01*
X0014113Y0042958D01*
X0013848Y0043114D01*
X0013587Y0043276D01*
X0013330Y0043445D01*
X0013077Y0043620D01*
X0012829Y0043801D01*
X0012585Y0043988D01*
X0012345Y0044181D01*
X0012111Y0044379D01*
X0011881Y0044584D01*
X0011656Y0044794D01*
X0011437Y0045009D01*
X0011223Y0045230D01*
X0011014Y0045455D01*
X0010811Y0045686D01*
X0010614Y0045922D01*
X0010422Y0046163D01*
X0010237Y0046408D01*
X0010057Y0046657D01*
X0009884Y0046911D01*
X0009717Y0047169D01*
X0009556Y0047431D01*
X0009402Y0047697D01*
X0009254Y0047967D01*
X0009113Y0048240D01*
X0008978Y0048517D01*
X0008851Y0048796D01*
X0008730Y0049079D01*
X0008616Y0049365D01*
X0008510Y0049653D01*
X0008410Y0049944D01*
X0008317Y0050237D01*
X0008232Y0050533D01*
X0008154Y0050830D01*
X0008083Y0051129D01*
X0008020Y0051430D01*
X0007964Y0051732D01*
X0007915Y0052036D01*
X0007874Y0052341D01*
X0007840Y0052646D01*
X0007814Y0052952D01*
X0007795Y0053259D01*
X0007784Y0053567D01*
X0007780Y0053874D01*
X0007784Y0054181D01*
X0007795Y0054489D01*
X0007814Y0054796D01*
X0007840Y0055102D01*
X0007874Y0055407D01*
X0007915Y0055712D01*
X0007964Y0056016D01*
X0008020Y0056318D01*
X0008083Y0056619D01*
X0008154Y0056918D01*
X0008232Y0057215D01*
X0008317Y0057511D01*
X0008410Y0057804D01*
X0008510Y0058095D01*
X0008616Y0058383D01*
X0008730Y0058669D01*
X0008851Y0058952D01*
X0008978Y0059231D01*
X0009113Y0059508D01*
X0009254Y0059781D01*
X0009402Y0060051D01*
X0009556Y0060317D01*
X0009717Y0060579D01*
X0009884Y0060837D01*
X0010057Y0061091D01*
X0010237Y0061340D01*
X0010422Y0061585D01*
X0010614Y0061826D01*
X0010811Y0062062D01*
X0011014Y0062293D01*
X0011223Y0062518D01*
X0011437Y0062739D01*
X0011656Y0062954D01*
X0011881Y0063164D01*
X0012111Y0063369D01*
X0012345Y0063567D01*
X0012585Y0063760D01*
X0012829Y0063947D01*
X0013077Y0064128D01*
X0013330Y0064303D01*
X0013587Y0064472D01*
X0013848Y0064634D01*
X0014113Y0064790D01*
X0014382Y0064939D01*
X0014654Y0065082D01*
X0014930Y0065218D01*
X0015209Y0065347D01*
X0015491Y0065470D01*
X0015776Y0065585D01*
X0016064Y0065693D01*
X0016354Y0065795D01*
X0016647Y0065889D01*
X0016942Y0065976D01*
X0017238Y0066056D01*
X0017537Y0066128D01*
X0017838Y0066194D01*
X0018140Y0066251D01*
X0018443Y0066302D01*
X0018747Y0066345D01*
X0019053Y0066380D01*
X0019359Y0066409D01*
X0019666Y0066429D01*
X0019973Y0066442D01*
X0020280Y0066448D01*
X0020588Y0066446D01*
X0020895Y0066436D01*
X0021202Y0066419D01*
X0021509Y0066395D01*
X0021814Y0066363D01*
X0022119Y0066323D01*
X0022423Y0066277D01*
X0022726Y0066222D01*
X0023027Y0066161D01*
X0023327Y0066092D01*
X0023624Y0066015D01*
X0023920Y0065932D01*
X0024214Y0065841D01*
X0024505Y0065743D01*
X0024794Y0065638D01*
X0025081Y0065526D01*
X0025364Y0065407D01*
X0025645Y0065281D01*
X0025922Y0065148D01*
X0026196Y0065009D01*
X0026466Y0064862D01*
X0026733Y0064710D01*
X0026996Y0064550D01*
X0027255Y0064385D01*
X0027510Y0064213D01*
X0027761Y0064035D01*
X0028007Y0063851D01*
X0028249Y0063661D01*
X0028486Y0063465D01*
X0028718Y0063263D01*
X0028945Y0063056D01*
X0029167Y0062843D01*
X0029383Y0062625D01*
X0029595Y0062401D01*
X0029800Y0062173D01*
X0030000Y0061940D01*
X0030195Y0061701D01*
X0030383Y0061458D01*
X0030308Y0061402D01*
X0030121Y0061643D01*
X0029928Y0061880D01*
X0029729Y0062111D01*
X0029525Y0062338D01*
X0029316Y0062560D01*
X0029101Y0062776D01*
X0028880Y0062987D01*
X0028655Y0063193D01*
X0028425Y0063393D01*
X0028189Y0063588D01*
X0027950Y0063776D01*
X0027705Y0063959D01*
X0027456Y0064136D01*
X0027203Y0064306D01*
X0026946Y0064471D01*
X0026685Y0064629D01*
X0026420Y0064780D01*
X0026152Y0064925D01*
X0025880Y0065064D01*
X0025605Y0065196D01*
X0025326Y0065321D01*
X0025045Y0065439D01*
X0024761Y0065550D01*
X0024474Y0065654D01*
X0024185Y0065752D01*
X0023893Y0065842D01*
X0023600Y0065925D01*
X0023304Y0066000D01*
X0023007Y0066069D01*
X0022708Y0066130D01*
X0022407Y0066184D01*
X0022106Y0066230D01*
X0021803Y0066270D01*
X0021500Y0066301D01*
X0021195Y0066326D01*
X0020891Y0066342D01*
X0020586Y0066352D01*
X0020281Y0066354D01*
X0019976Y0066348D01*
X0019671Y0066335D01*
X0019366Y0066315D01*
X0019062Y0066287D01*
X0018759Y0066252D01*
X0018457Y0066209D01*
X0018156Y0066159D01*
X0017856Y0066102D01*
X0017558Y0066037D01*
X0017262Y0065965D01*
X0016967Y0065886D01*
X0016674Y0065799D01*
X0016384Y0065706D01*
X0016096Y0065605D01*
X0015810Y0065497D01*
X0015527Y0065383D01*
X0015247Y0065261D01*
X0014970Y0065133D01*
X0014697Y0064998D01*
X0014427Y0064857D01*
X0014160Y0064708D01*
X0013897Y0064554D01*
X0013638Y0064393D01*
X0013382Y0064225D01*
X0013131Y0064052D01*
X0012885Y0063872D01*
X0012643Y0063686D01*
X0012405Y0063495D01*
X0012172Y0063298D01*
X0011944Y0063095D01*
X0011721Y0062886D01*
X0011503Y0062673D01*
X0011291Y0062454D01*
X0011084Y0062230D01*
X0010882Y0062000D01*
X0010686Y0061766D01*
X0010496Y0061528D01*
X0010312Y0061284D01*
X0010134Y0061037D01*
X0009962Y0060785D01*
X0009796Y0060528D01*
X0009637Y0060268D01*
X0009483Y0060004D01*
X0009337Y0059737D01*
X0009197Y0059466D01*
X0009063Y0059191D01*
X0008937Y0058914D01*
X0008817Y0058633D01*
X0008704Y0058349D01*
X0008598Y0058063D01*
X0008499Y0057775D01*
X0008407Y0057484D01*
X0008323Y0057190D01*
X0008245Y0056895D01*
X0008175Y0056598D01*
X0008112Y0056300D01*
X0008056Y0056000D01*
X0008008Y0055698D01*
X0007967Y0055396D01*
X0007934Y0055093D01*
X0007908Y0054789D01*
X0007889Y0054484D01*
X0007878Y0054179D01*
X0007874Y0053874D01*
X0007878Y0053569D01*
X0007889Y0053264D01*
X0007908Y0052959D01*
X0007934Y0052655D01*
X0007967Y0052352D01*
X0008008Y0052050D01*
X0008056Y0051748D01*
X0008112Y0051448D01*
X0008175Y0051150D01*
X0008245Y0050853D01*
X0008323Y0050558D01*
X0008407Y0050264D01*
X0008499Y0049973D01*
X0008598Y0049685D01*
X0008704Y0049399D01*
X0008817Y0049115D01*
X0008937Y0048834D01*
X0009063Y0048557D01*
X0009197Y0048282D01*
X0009337Y0048011D01*
X0009483Y0047744D01*
X0009637Y0047480D01*
X0009796Y0047220D01*
X0009962Y0046963D01*
X0010134Y0046711D01*
X0010312Y0046464D01*
X0010496Y0046220D01*
X0010686Y0045982D01*
X0010882Y0045748D01*
X0011084Y0045518D01*
X0011291Y0045294D01*
X0011503Y0045075D01*
X0011721Y0044862D01*
X0011944Y0044653D01*
X0012172Y0044450D01*
X0012405Y0044253D01*
X0012643Y0044062D01*
X0012885Y0043876D01*
X0013131Y0043696D01*
X0013382Y0043523D01*
X0013638Y0043355D01*
X0013897Y0043194D01*
X0014160Y0043040D01*
X0014427Y0042891D01*
X0014697Y0042750D01*
X0014970Y0042615D01*
X0015247Y0042487D01*
X0015527Y0042365D01*
X0015810Y0042251D01*
X0016096Y0042143D01*
X0016384Y0042042D01*
X0016674Y0041949D01*
X0016967Y0041862D01*
X0017262Y0041783D01*
X0017558Y0041711D01*
X0017856Y0041646D01*
X0018156Y0041589D01*
X0018457Y0041539D01*
X0018759Y0041496D01*
X0019062Y0041461D01*
X0019366Y0041433D01*
X0019671Y0041413D01*
X0019976Y0041400D01*
X0020281Y0041394D01*
X0020586Y0041396D01*
X0020891Y0041406D01*
X0021195Y0041422D01*
X0021500Y0041447D01*
X0021803Y0041478D01*
X0022106Y0041518D01*
X0022407Y0041564D01*
X0022708Y0041618D01*
X0023007Y0041679D01*
X0023304Y0041748D01*
X0023600Y0041823D01*
X0023893Y0041906D01*
X0024185Y0041996D01*
X0024474Y0042094D01*
X0024761Y0042198D01*
X0025045Y0042309D01*
X0025326Y0042427D01*
X0025605Y0042552D01*
X0025880Y0042684D01*
X0026152Y0042823D01*
X0026420Y0042968D01*
X0026685Y0043119D01*
X0026946Y0043277D01*
X0027203Y0043442D01*
X0027456Y0043612D01*
X0027705Y0043789D01*
X0027950Y0043972D01*
X0028189Y0044160D01*
X0028425Y0044355D01*
X0028655Y0044555D01*
X0028880Y0044761D01*
X0029101Y0044972D01*
X0029316Y0045188D01*
X0029525Y0045410D01*
X0029729Y0045637D01*
X0029928Y0045868D01*
X0030121Y0046105D01*
X0030308Y0046346D01*
X0030233Y0046402D01*
X0030047Y0046163D01*
X0029856Y0045928D01*
X0029659Y0045699D01*
X0029456Y0045474D01*
X0029248Y0045253D01*
X0029034Y0045039D01*
X0028816Y0044829D01*
X0028592Y0044625D01*
X0028364Y0044426D01*
X0028130Y0044233D01*
X0027892Y0044046D01*
X0027650Y0043865D01*
X0027403Y0043689D01*
X0027152Y0043520D01*
X0026896Y0043357D01*
X0026637Y0043200D01*
X0026374Y0043050D01*
X0026108Y0042906D01*
X0025838Y0042768D01*
X0025565Y0042637D01*
X0025289Y0042513D01*
X0025009Y0042396D01*
X0024727Y0042286D01*
X0024443Y0042182D01*
X0024156Y0042086D01*
X0023866Y0041996D01*
X0023575Y0041914D01*
X0023282Y0041839D01*
X0022986Y0041771D01*
X0022690Y0041710D01*
X0022392Y0041657D01*
X0022092Y0041611D01*
X0021792Y0041572D01*
X0021491Y0041540D01*
X0021189Y0041516D01*
X0020886Y0041499D01*
X0020584Y0041490D01*
X0020281Y0041488D01*
X0019978Y0041494D01*
X0019676Y0041507D01*
X0019373Y0041527D01*
X0019072Y0041555D01*
X0018771Y0041590D01*
X0018471Y0041632D01*
X0018172Y0041682D01*
X0017875Y0041739D01*
X0017579Y0041803D01*
X0017285Y0041874D01*
X0016992Y0041953D01*
X0016702Y0042039D01*
X0016413Y0042132D01*
X0016128Y0042231D01*
X0015844Y0042338D01*
X0015564Y0042452D01*
X0015286Y0042572D01*
X0015011Y0042700D01*
X0014739Y0042834D01*
X0014471Y0042974D01*
X0014206Y0043121D01*
X0013945Y0043275D01*
X0013688Y0043435D01*
X0013435Y0043601D01*
X0013186Y0043773D01*
X0012941Y0043951D01*
X0012700Y0044136D01*
X0012465Y0044326D01*
X0012234Y0044521D01*
X0012007Y0044723D01*
X0011786Y0044929D01*
X0011570Y0045142D01*
X0011359Y0045359D01*
X0011154Y0045581D01*
X0010954Y0045809D01*
X0010759Y0046041D01*
X0010571Y0046278D01*
X0010388Y0046520D01*
X0010211Y0046765D01*
X0010040Y0047016D01*
X0009876Y0047270D01*
X0009717Y0047528D01*
X0009565Y0047790D01*
X0009420Y0048055D01*
X0009281Y0048324D01*
X0009148Y0048597D01*
X0009023Y0048872D01*
X0008904Y0049151D01*
X0008792Y0049432D01*
X0008687Y0049716D01*
X0008588Y0050003D01*
X0008497Y0050292D01*
X0008413Y0050583D01*
X0008336Y0050876D01*
X0008267Y0051170D01*
X0008204Y0051467D01*
X0008149Y0051764D01*
X0008101Y0052063D01*
X0008060Y0052363D01*
X0008027Y0052665D01*
X0008001Y0052966D01*
X0007983Y0053269D01*
X0007972Y0053571D01*
X0007968Y0053874D01*
X0007972Y0054177D01*
X0007983Y0054479D01*
X0008001Y0054782D01*
X0008027Y0055083D01*
X0008060Y0055385D01*
X0008101Y0055685D01*
X0008149Y0055984D01*
X0008204Y0056281D01*
X0008267Y0056578D01*
X0008336Y0056872D01*
X0008413Y0057165D01*
X0008497Y0057456D01*
X0008588Y0057745D01*
X0008687Y0058032D01*
X0008792Y0058316D01*
X0008904Y0058597D01*
X0009023Y0058876D01*
X0009148Y0059151D01*
X0009281Y0059424D01*
X0009420Y0059693D01*
X0009565Y0059958D01*
X0009717Y0060220D01*
X0009876Y0060478D01*
X0010040Y0060732D01*
X0010211Y0060983D01*
X0010388Y0061228D01*
X0010571Y0061470D01*
X0010759Y0061707D01*
X0010954Y0061939D01*
X0011154Y0062167D01*
X0011359Y0062389D01*
X0011570Y0062606D01*
X0011786Y0062819D01*
X0012007Y0063025D01*
X0012234Y0063227D01*
X0012465Y0063422D01*
X0012700Y0063612D01*
X0012941Y0063797D01*
X0013186Y0063975D01*
X0013435Y0064147D01*
X0013688Y0064313D01*
X0013945Y0064473D01*
X0014206Y0064627D01*
X0014471Y0064774D01*
X0014739Y0064914D01*
X0015011Y0065048D01*
X0015286Y0065176D01*
X0015564Y0065296D01*
X0015844Y0065410D01*
X0016128Y0065517D01*
X0016413Y0065616D01*
X0016702Y0065709D01*
X0016992Y0065795D01*
X0017285Y0065874D01*
X0017579Y0065945D01*
X0017875Y0066009D01*
X0018172Y0066066D01*
X0018471Y0066116D01*
X0018771Y0066158D01*
X0019072Y0066193D01*
X0019373Y0066221D01*
X0019676Y0066241D01*
X0019978Y0066254D01*
X0020281Y0066260D01*
X0020584Y0066258D01*
X0020886Y0066249D01*
X0021189Y0066232D01*
X0021491Y0066208D01*
X0021792Y0066176D01*
X0022092Y0066137D01*
X0022392Y0066091D01*
X0022690Y0066038D01*
X0022986Y0065977D01*
X0023282Y0065909D01*
X0023575Y0065834D01*
X0023866Y0065752D01*
X0024156Y0065662D01*
X0024443Y0065566D01*
X0024727Y0065462D01*
X0025009Y0065352D01*
X0025289Y0065235D01*
X0025565Y0065111D01*
X0025838Y0064980D01*
X0026108Y0064842D01*
X0026374Y0064698D01*
X0026637Y0064548D01*
X0026896Y0064391D01*
X0027152Y0064228D01*
X0027403Y0064059D01*
X0027650Y0063883D01*
X0027892Y0063702D01*
X0028130Y0063515D01*
X0028364Y0063322D01*
X0028592Y0063123D01*
X0028816Y0062919D01*
X0029034Y0062709D01*
X0029248Y0062495D01*
X0029456Y0062274D01*
X0029659Y0062049D01*
X0029856Y0061820D01*
X0030047Y0061585D01*
X0030233Y0061346D01*
X0030158Y0061289D01*
X0029973Y0061527D01*
X0029783Y0061759D01*
X0029588Y0061988D01*
X0029387Y0062211D01*
X0029180Y0062429D01*
X0028968Y0062643D01*
X0028751Y0062851D01*
X0028529Y0063053D01*
X0028302Y0063250D01*
X0028071Y0063442D01*
X0027835Y0063628D01*
X0027594Y0063808D01*
X0027349Y0063982D01*
X0027100Y0064150D01*
X0026846Y0064312D01*
X0026589Y0064467D01*
X0026328Y0064616D01*
X0026064Y0064759D01*
X0025796Y0064896D01*
X0025525Y0065025D01*
X0025251Y0065148D01*
X0024974Y0065265D01*
X0024694Y0065374D01*
X0024411Y0065477D01*
X0024127Y0065573D01*
X0023839Y0065661D01*
X0023550Y0065743D01*
X0023259Y0065818D01*
X0022966Y0065885D01*
X0022672Y0065946D01*
X0022376Y0065999D01*
X0022079Y0066044D01*
X0021781Y0066083D01*
X0021482Y0066114D01*
X0021182Y0066138D01*
X0020882Y0066155D01*
X0020582Y0066164D01*
X0020281Y0066166D01*
X0019981Y0066160D01*
X0019680Y0066148D01*
X0019381Y0066127D01*
X0019081Y0066100D01*
X0018783Y0066065D01*
X0018485Y0066023D01*
X0018189Y0065974D01*
X0017894Y0065917D01*
X0017600Y0065853D01*
X0017308Y0065783D01*
X0017018Y0065705D01*
X0016729Y0065619D01*
X0016443Y0065527D01*
X0016159Y0065428D01*
X0015878Y0065322D01*
X0015600Y0065209D01*
X0015324Y0065090D01*
X0015051Y0064963D01*
X0014782Y0064830D01*
X0014516Y0064691D01*
X0014253Y0064545D01*
X0013994Y0064393D01*
X0013738Y0064234D01*
X0013487Y0064069D01*
X0013240Y0063898D01*
X0012997Y0063721D01*
X0012758Y0063538D01*
X0012524Y0063350D01*
X0012295Y0063156D01*
X0012071Y0062956D01*
X0011851Y0062751D01*
X0011637Y0062540D01*
X0011427Y0062324D01*
X0011223Y0062104D01*
X0011025Y0061878D01*
X0010832Y0061647D01*
X0010645Y0061412D01*
X0010463Y0061173D01*
X0010288Y0060929D01*
X0010118Y0060680D01*
X0009955Y0060428D01*
X0009798Y0060172D01*
X0009647Y0059912D01*
X0009503Y0059648D01*
X0009365Y0059381D01*
X0009233Y0059111D01*
X0009109Y0058838D01*
X0008991Y0058561D01*
X0008880Y0058282D01*
X0008775Y0058000D01*
X0008678Y0057716D01*
X0008587Y0057429D01*
X0008504Y0057140D01*
X0008428Y0056850D01*
X0008358Y0056557D01*
X0008296Y0056263D01*
X0008242Y0055968D01*
X0008194Y0055671D01*
X0008154Y0055373D01*
X0008121Y0055074D01*
X0008095Y0054775D01*
X0008077Y0054475D01*
X0008066Y0054175D01*
X0008062Y0053874D01*
X0008066Y0053573D01*
X0008077Y0053273D01*
X0008095Y0052973D01*
X0008121Y0052674D01*
X0008154Y0052375D01*
X0008194Y0052077D01*
X0008242Y0051780D01*
X0008296Y0051485D01*
X0008358Y0051191D01*
X0008428Y0050898D01*
X0008504Y0050608D01*
X0008587Y0050319D01*
X0008678Y0050032D01*
X0008775Y0049748D01*
X0008880Y0049466D01*
X0008991Y0049187D01*
X0009109Y0048910D01*
X0009233Y0048637D01*
X0009365Y0048367D01*
X0009503Y0048100D01*
X0009647Y0047836D01*
X0009798Y0047576D01*
X0009955Y0047320D01*
X0010118Y0047068D01*
X0010288Y0046819D01*
X0010463Y0046575D01*
X0010645Y0046336D01*
X0010832Y0046101D01*
X0011025Y0045870D01*
X0011223Y0045644D01*
X0011427Y0045424D01*
X0011637Y0045208D01*
X0011851Y0044997D01*
X0012071Y0044792D01*
X0012295Y0044592D01*
X0012524Y0044398D01*
X0012758Y0044210D01*
X0012997Y0044027D01*
X0013240Y0043850D01*
X0013487Y0043679D01*
X0013738Y0043514D01*
X0013994Y0043355D01*
X0014253Y0043203D01*
X0014516Y0043057D01*
X0014782Y0042918D01*
X0015051Y0042785D01*
X0015324Y0042658D01*
X0015600Y0042539D01*
X0015878Y0042426D01*
X0016159Y0042320D01*
X0016443Y0042221D01*
X0016729Y0042129D01*
X0017018Y0042043D01*
X0017308Y0041965D01*
X0017600Y0041895D01*
X0017894Y0041831D01*
X0018189Y0041774D01*
X0018485Y0041725D01*
X0018783Y0041683D01*
X0019081Y0041648D01*
X0019381Y0041621D01*
X0019680Y0041600D01*
X0019981Y0041588D01*
X0020281Y0041582D01*
X0020582Y0041584D01*
X0020882Y0041593D01*
X0021182Y0041610D01*
X0021482Y0041634D01*
X0021781Y0041665D01*
X0022079Y0041704D01*
X0022376Y0041749D01*
X0022672Y0041802D01*
X0022966Y0041863D01*
X0023259Y0041930D01*
X0023550Y0042005D01*
X0023839Y0042087D01*
X0024127Y0042175D01*
X0024411Y0042271D01*
X0024694Y0042374D01*
X0024974Y0042483D01*
X0025251Y0042600D01*
X0025525Y0042723D01*
X0025796Y0042852D01*
X0026064Y0042989D01*
X0026328Y0043132D01*
X0026589Y0043281D01*
X0026846Y0043436D01*
X0027100Y0043598D01*
X0027349Y0043766D01*
X0027594Y0043940D01*
X0027835Y0044120D01*
X0028071Y0044306D01*
X0028302Y0044498D01*
X0028529Y0044695D01*
X0028751Y0044897D01*
X0028968Y0045105D01*
X0029180Y0045319D01*
X0029387Y0045537D01*
X0029588Y0045760D01*
X0029783Y0045989D01*
X0029973Y0046221D01*
X0030158Y0046459D01*
X0030082Y0046515D01*
X0029900Y0046280D01*
X0029711Y0046049D01*
X0029517Y0045822D01*
X0029317Y0045600D01*
X0029112Y0045384D01*
X0028902Y0045172D01*
X0028687Y0044966D01*
X0028467Y0044765D01*
X0028241Y0044569D01*
X0028012Y0044379D01*
X0027777Y0044195D01*
X0027538Y0044016D01*
X0027295Y0043843D01*
X0027048Y0043677D01*
X0026796Y0043516D01*
X0026541Y0043362D01*
X0026282Y0043214D01*
X0026020Y0043072D01*
X0025754Y0042937D01*
X0025485Y0042808D01*
X0025213Y0042686D01*
X0024938Y0042570D01*
X0024660Y0042461D01*
X0024380Y0042360D01*
X0024097Y0042265D01*
X0023812Y0042177D01*
X0023525Y0042096D01*
X0023237Y0042021D01*
X0022946Y0041955D01*
X0022654Y0041895D01*
X0022360Y0041842D01*
X0022065Y0041797D01*
X0021770Y0041758D01*
X0021473Y0041727D01*
X0021176Y0041704D01*
X0020878Y0041687D01*
X0020580Y0041678D01*
X0020282Y0041676D01*
X0019983Y0041682D01*
X0019685Y0041694D01*
X0019388Y0041714D01*
X0019091Y0041742D01*
X0018795Y0041776D01*
X0018499Y0041818D01*
X0018205Y0041867D01*
X0017912Y0041923D01*
X0017621Y0041986D01*
X0017331Y0042057D01*
X0017043Y0042134D01*
X0016757Y0042218D01*
X0016473Y0042310D01*
X0016191Y0042408D01*
X0015912Y0042513D01*
X0015636Y0042625D01*
X0015362Y0042744D01*
X0015092Y0042869D01*
X0014824Y0043001D01*
X0014560Y0043140D01*
X0014299Y0043285D01*
X0014042Y0043436D01*
X0013789Y0043593D01*
X0013540Y0043757D01*
X0013294Y0043927D01*
X0013053Y0044102D01*
X0012816Y0044284D01*
X0012584Y0044471D01*
X0012357Y0044663D01*
X0012134Y0044862D01*
X0011916Y0045065D01*
X0011703Y0045274D01*
X0011495Y0045488D01*
X0011293Y0045708D01*
X0011096Y0045931D01*
X0010905Y0046160D01*
X0010719Y0046394D01*
X0010539Y0046631D01*
X0010365Y0046873D01*
X0010197Y0047120D01*
X0010035Y0047370D01*
X0009879Y0047624D01*
X0009729Y0047882D01*
X0009586Y0048144D01*
X0009449Y0048409D01*
X0009318Y0048677D01*
X0009195Y0048948D01*
X0009078Y0049223D01*
X0008967Y0049500D01*
X0008864Y0049780D01*
X0008767Y0050062D01*
X0008677Y0050346D01*
X0008595Y0050633D01*
X0008519Y0050921D01*
X0008450Y0051211D01*
X0008389Y0051503D01*
X0008334Y0051796D01*
X0008287Y0052091D01*
X0008247Y0052386D01*
X0008214Y0052683D01*
X0008189Y0052980D01*
X0008171Y0053278D01*
X0008160Y0053576D01*
X0008156Y0053874D01*
X0008160Y0054172D01*
X0008171Y0054470D01*
X0008189Y0054768D01*
X0008214Y0055065D01*
X0008247Y0055362D01*
X0008287Y0055657D01*
X0008334Y0055952D01*
X0008389Y0056245D01*
X0008450Y0056537D01*
X0008519Y0056827D01*
X0008595Y0057115D01*
X0008677Y0057402D01*
X0008767Y0057686D01*
X0008864Y0057968D01*
X0008967Y0058248D01*
X0009078Y0058525D01*
X0009195Y0058800D01*
X0009318Y0059071D01*
X0009449Y0059339D01*
X0009586Y0059604D01*
X0009729Y0059866D01*
X0009879Y0060124D01*
X0010035Y0060378D01*
X0010197Y0060628D01*
X0010365Y0060875D01*
X0010539Y0061117D01*
X0010719Y0061354D01*
X0010905Y0061588D01*
X0011096Y0061817D01*
X0011293Y0062040D01*
X0011495Y0062260D01*
X0011703Y0062474D01*
X0011916Y0062683D01*
X0012134Y0062886D01*
X0012357Y0063085D01*
X0012584Y0063277D01*
X0012816Y0063464D01*
X0013053Y0063646D01*
X0013294Y0063821D01*
X0013540Y0063991D01*
X0013789Y0064155D01*
X0014042Y0064312D01*
X0014299Y0064463D01*
X0014560Y0064608D01*
X0014824Y0064747D01*
X0015092Y0064879D01*
X0015362Y0065004D01*
X0015636Y0065123D01*
X0015912Y0065235D01*
X0016191Y0065340D01*
X0016473Y0065438D01*
X0016757Y0065530D01*
X0017043Y0065614D01*
X0017331Y0065691D01*
X0017621Y0065762D01*
X0017912Y0065825D01*
X0018205Y0065881D01*
X0018499Y0065930D01*
X0018795Y0065972D01*
X0019091Y0066006D01*
X0019388Y0066034D01*
X0019685Y0066054D01*
X0019983Y0066066D01*
X0020282Y0066072D01*
X0020580Y0066070D01*
X0020878Y0066061D01*
X0021176Y0066044D01*
X0021473Y0066021D01*
X0021770Y0065990D01*
X0022065Y0065951D01*
X0022360Y0065906D01*
X0022654Y0065853D01*
X0022946Y0065793D01*
X0023237Y0065727D01*
X0023525Y0065652D01*
X0023812Y0065571D01*
X0024097Y0065483D01*
X0024380Y0065388D01*
X0024660Y0065287D01*
X0024938Y0065178D01*
X0025213Y0065062D01*
X0025485Y0064940D01*
X0025754Y0064811D01*
X0026020Y0064676D01*
X0026282Y0064534D01*
X0026541Y0064386D01*
X0026796Y0064232D01*
X0027048Y0064071D01*
X0027295Y0063905D01*
X0027538Y0063732D01*
X0027777Y0063553D01*
X0028012Y0063369D01*
X0028241Y0063179D01*
X0028467Y0062983D01*
X0028687Y0062782D01*
X0028902Y0062576D01*
X0029112Y0062364D01*
X0029317Y0062148D01*
X0029517Y0061926D01*
X0029711Y0061699D01*
X0029900Y0061468D01*
X0030082Y0061233D01*
X0030007Y0061176D01*
X0029826Y0061410D01*
X0029639Y0061639D01*
X0029446Y0061864D01*
X0029248Y0062084D01*
X0029045Y0062299D01*
X0028836Y0062509D01*
X0028622Y0062714D01*
X0028404Y0062913D01*
X0028180Y0063107D01*
X0027952Y0063296D01*
X0027720Y0063479D01*
X0027483Y0063656D01*
X0027241Y0063827D01*
X0026996Y0063993D01*
X0026747Y0064152D01*
X0026493Y0064305D01*
X0026237Y0064452D01*
X0025976Y0064593D01*
X0025712Y0064727D01*
X0025445Y0064855D01*
X0025175Y0064976D01*
X0024903Y0065091D01*
X0024627Y0065199D01*
X0024349Y0065300D01*
X0024068Y0065394D01*
X0023786Y0065481D01*
X0023501Y0065562D01*
X0023214Y0065635D01*
X0022926Y0065702D01*
X0022636Y0065761D01*
X0022344Y0065813D01*
X0022052Y0065858D01*
X0021758Y0065896D01*
X0021464Y0065927D01*
X0021169Y0065951D01*
X0020874Y0065967D01*
X0020578Y0065976D01*
X0020282Y0065978D01*
X0019986Y0065972D01*
X0019690Y0065960D01*
X0019395Y0065940D01*
X0019100Y0065913D01*
X0018806Y0065879D01*
X0018513Y0065837D01*
X0018221Y0065789D01*
X0017931Y0065733D01*
X0017642Y0065670D01*
X0017354Y0065600D01*
X0017068Y0065523D01*
X0016784Y0065440D01*
X0016503Y0065349D01*
X0016223Y0065251D01*
X0015946Y0065147D01*
X0015672Y0065036D01*
X0015401Y0064918D01*
X0015132Y0064794D01*
X0014867Y0064663D01*
X0014605Y0064525D01*
X0014346Y0064382D01*
X0014091Y0064232D01*
X0013839Y0064075D01*
X0013592Y0063913D01*
X0013349Y0063745D01*
X0013109Y0063570D01*
X0012874Y0063390D01*
X0012644Y0063205D01*
X0012418Y0063013D01*
X0012197Y0062817D01*
X0011981Y0062615D01*
X0011770Y0062407D01*
X0011564Y0062195D01*
X0011363Y0061977D01*
X0011167Y0061755D01*
X0010977Y0061528D01*
X0010793Y0061297D01*
X0010615Y0061061D01*
X0010442Y0060821D01*
X0010275Y0060576D01*
X0010114Y0060328D01*
X0009959Y0060075D01*
X0009811Y0059819D01*
X0009669Y0059560D01*
X0009533Y0059297D01*
X0009403Y0059031D01*
X0009281Y0058762D01*
X0009164Y0058489D01*
X0009055Y0058214D01*
X0008952Y0057937D01*
X0008856Y0057657D01*
X0008767Y0057375D01*
X0008685Y0057090D01*
X0008610Y0056804D01*
X0008542Y0056516D01*
X0008481Y0056227D01*
X0008427Y0055936D01*
X0008380Y0055643D01*
X0008340Y0055350D01*
X0008308Y0055056D01*
X0008283Y0054761D01*
X0008264Y0054466D01*
X0008254Y0054170D01*
X0008250Y0053874D01*
X0008254Y0053578D01*
X0008264Y0053282D01*
X0008283Y0052987D01*
X0008308Y0052692D01*
X0008340Y0052398D01*
X0008380Y0052105D01*
X0008427Y0051812D01*
X0008481Y0051521D01*
X0008542Y0051232D01*
X0008610Y0050944D01*
X0008685Y0050658D01*
X0008767Y0050373D01*
X0008856Y0050091D01*
X0008952Y0049811D01*
X0009055Y0049534D01*
X0009164Y0049259D01*
X0009281Y0048986D01*
X0009403Y0048717D01*
X0009533Y0048451D01*
X0009669Y0048188D01*
X0009811Y0047929D01*
X0009959Y0047673D01*
X0010114Y0047420D01*
X0010275Y0047172D01*
X0010442Y0046927D01*
X0010615Y0046687D01*
X0010793Y0046451D01*
X0010977Y0046220D01*
X0011167Y0045993D01*
X0011363Y0045771D01*
X0011564Y0045553D01*
X0011770Y0045341D01*
X0011981Y0045133D01*
X0012197Y0044931D01*
X0012418Y0044735D01*
X0012644Y0044543D01*
X0012874Y0044358D01*
X0013109Y0044178D01*
X0013349Y0044003D01*
X0013592Y0043835D01*
X0013839Y0043673D01*
X0014091Y0043516D01*
X0014346Y0043366D01*
X0014605Y0043223D01*
X0014867Y0043085D01*
X0015132Y0042954D01*
X0015401Y0042830D01*
X0015672Y0042712D01*
X0015946Y0042601D01*
X0016223Y0042497D01*
X0016503Y0042399D01*
X0016784Y0042308D01*
X0017068Y0042225D01*
X0017354Y0042148D01*
X0017642Y0042078D01*
X0017931Y0042015D01*
X0018221Y0041959D01*
X0018513Y0041911D01*
X0018806Y0041869D01*
X0019100Y0041835D01*
X0019395Y0041808D01*
X0019690Y0041788D01*
X0019986Y0041776D01*
X0020282Y0041770D01*
X0020578Y0041772D01*
X0020874Y0041781D01*
X0021169Y0041797D01*
X0021464Y0041821D01*
X0021758Y0041852D01*
X0022052Y0041890D01*
X0022344Y0041935D01*
X0022636Y0041987D01*
X0022926Y0042046D01*
X0023214Y0042113D01*
X0023501Y0042186D01*
X0023786Y0042267D01*
X0024068Y0042354D01*
X0024349Y0042448D01*
X0024627Y0042549D01*
X0024903Y0042657D01*
X0025175Y0042772D01*
X0025445Y0042893D01*
X0025712Y0043021D01*
X0025976Y0043155D01*
X0026237Y0043296D01*
X0026493Y0043443D01*
X0026747Y0043596D01*
X0026996Y0043755D01*
X0027241Y0043921D01*
X0027483Y0044092D01*
X0027720Y0044269D01*
X0027952Y0044452D01*
X0028180Y0044641D01*
X0028404Y0044835D01*
X0028622Y0045034D01*
X0028836Y0045239D01*
X0029045Y0045449D01*
X0029248Y0045664D01*
X0029446Y0045884D01*
X0029639Y0046109D01*
X0029826Y0046338D01*
X0030007Y0046572D01*
D22*
X0256181Y0203492D03*
D23*
X0256181Y0197242D03*
X0256181Y0220742D03*
D24*
X0238504Y0221984D02*
X0238504Y0210484D01*
X0236004Y0210484D01*
X0236004Y0212984D01*
X0231004Y0212984D01*
X0231004Y0210484D01*
X0226004Y0210484D01*
X0226004Y0212984D01*
X0221004Y0212984D01*
X0221004Y0210484D01*
X0216004Y0210484D01*
X0211004Y0210484D01*
X0211004Y0212984D01*
X0216004Y0212984D01*
X0216004Y0210484D01*
X0221004Y0210484D02*
X0226004Y0210484D01*
X0231004Y0210484D02*
X0236004Y0210484D01*
X0238504Y0221984D02*
X0238504Y0233484D01*
X0218504Y0233484D01*
X0213504Y0233484D01*
X0213504Y0229484D01*
X0214504Y0227484D01*
X0232504Y0227484D01*
X0233504Y0229484D01*
X0233504Y0233484D01*
X0232504Y0233484D02*
X0232504Y0229484D01*
X0233504Y0229484D01*
X0232504Y0229484D02*
X0214504Y0229484D01*
X0214504Y0233484D01*
X0213504Y0233484D02*
X0208504Y0233484D01*
X0208504Y0221984D01*
X0208504Y0210484D01*
X0209504Y0210484D02*
X0211004Y0210484D01*
X0191535Y0210878D02*
X0189035Y0210878D01*
X0189035Y0213378D01*
X0184035Y0213378D01*
X0184035Y0210878D01*
X0179035Y0210878D01*
X0179035Y0213378D01*
X0174035Y0213378D01*
X0174035Y0210878D01*
X0169035Y0210878D01*
X0154035Y0210878D01*
X0154035Y0213378D01*
X0159035Y0213378D01*
X0159035Y0210878D01*
X0164035Y0210878D01*
X0164035Y0213378D01*
X0169035Y0213378D01*
X0169035Y0210878D01*
X0161035Y0210878D02*
X0191535Y0210878D01*
X0191535Y0222378D01*
X0191535Y0233878D01*
X0161535Y0233878D01*
X0156535Y0233878D01*
X0156535Y0229878D01*
X0157535Y0227878D01*
X0185535Y0227878D01*
X0186535Y0229878D01*
X0186535Y0233878D01*
X0185535Y0233878D02*
X0185535Y0229878D01*
X0186535Y0229878D01*
X0185535Y0229878D02*
X0157535Y0229878D01*
X0157535Y0233878D01*
X0156535Y0233878D02*
X0151535Y0233878D01*
X0151535Y0222378D01*
X0151535Y0210878D01*
X0152535Y0210878D02*
X0154035Y0210878D01*
X0140354Y0210878D02*
X0137854Y0210878D01*
X0137854Y0213378D01*
X0132854Y0213378D01*
X0132854Y0210878D01*
X0127854Y0210878D01*
X0127854Y0213378D01*
X0122854Y0213378D01*
X0122854Y0210878D01*
X0117854Y0210878D01*
X0102854Y0210878D01*
X0102854Y0213378D01*
X0107854Y0213378D01*
X0107854Y0210878D01*
X0112854Y0210878D01*
X0112854Y0213378D01*
X0117854Y0213378D01*
X0117854Y0210878D01*
X0109854Y0210878D02*
X0140354Y0210878D01*
X0140354Y0222378D01*
X0140354Y0233878D01*
X0110354Y0233878D01*
X0105354Y0233878D01*
X0105354Y0229878D01*
X0106354Y0227878D01*
X0134354Y0227878D01*
X0135354Y0229878D01*
X0135354Y0233878D01*
X0134354Y0233878D02*
X0134354Y0229878D01*
X0135354Y0229878D01*
X0134354Y0229878D02*
X0106354Y0229878D01*
X0106354Y0233878D01*
X0105354Y0233878D02*
X0100354Y0233878D01*
X0100354Y0222378D01*
X0100354Y0210878D01*
X0101354Y0210878D02*
X0102854Y0210878D01*
X0105354Y0229878D02*
X0106354Y0229878D01*
X0156535Y0229878D02*
X0157535Y0229878D01*
X0213504Y0229484D02*
X0214504Y0229484D01*
X0212087Y0064701D02*
X0212087Y0028087D01*
X0250571Y0028087D01*
X0250571Y0064701D01*
X0212087Y0064701D01*
D25*
X0091996Y0185370D03*
D26*
X0098246Y0185370D03*
X0074746Y0185370D03*
M02*
