G75*
%MOIN*%
%OFA0B0*%
%FSLAX25Y25*%
%IPPOS*%
%LPD*%
%AMOC8*
5,1,8,0,0,1.08239X$1,22.5*
%
%ADD10C,0.00000*%
%ADD11OC8,0.05600*%
%ADD12C,0.05200*%
%ADD13C,0.07400*%
%ADD14C,0.06000*%
%ADD15OC8,0.05200*%
%ADD16OC8,0.06300*%
%ADD17C,0.06300*%
%ADD18C,0.05600*%
%ADD19C,0.06600*%
%ADD20C,0.17000*%
%ADD21C,0.04400*%
%ADD22C,0.07400*%
%ADD23C,0.03937*%
%ADD24C,0.04000*%
%ADD25C,0.01600*%
%ADD26C,0.01969*%
D10*
X0005394Y0001000D02*
X0005394Y0240882D01*
X0367402Y0240882D01*
X0367402Y0001000D01*
X0005394Y0001000D01*
X0010118Y0012142D02*
X0010120Y0012300D01*
X0010126Y0012458D01*
X0010136Y0012616D01*
X0010150Y0012774D01*
X0010168Y0012931D01*
X0010189Y0013088D01*
X0010215Y0013244D01*
X0010245Y0013400D01*
X0010278Y0013555D01*
X0010316Y0013708D01*
X0010357Y0013861D01*
X0010402Y0014013D01*
X0010451Y0014164D01*
X0010504Y0014313D01*
X0010560Y0014461D01*
X0010620Y0014607D01*
X0010684Y0014752D01*
X0010752Y0014895D01*
X0010823Y0015037D01*
X0010897Y0015177D01*
X0010975Y0015314D01*
X0011057Y0015450D01*
X0011141Y0015584D01*
X0011230Y0015715D01*
X0011321Y0015844D01*
X0011416Y0015971D01*
X0011513Y0016096D01*
X0011614Y0016218D01*
X0011718Y0016337D01*
X0011825Y0016454D01*
X0011935Y0016568D01*
X0012048Y0016679D01*
X0012163Y0016788D01*
X0012281Y0016893D01*
X0012402Y0016995D01*
X0012525Y0017095D01*
X0012651Y0017191D01*
X0012779Y0017284D01*
X0012909Y0017374D01*
X0013042Y0017460D01*
X0013177Y0017544D01*
X0013313Y0017623D01*
X0013452Y0017700D01*
X0013593Y0017772D01*
X0013735Y0017842D01*
X0013879Y0017907D01*
X0014025Y0017969D01*
X0014172Y0018027D01*
X0014321Y0018082D01*
X0014471Y0018133D01*
X0014622Y0018180D01*
X0014774Y0018223D01*
X0014927Y0018262D01*
X0015082Y0018298D01*
X0015237Y0018329D01*
X0015393Y0018357D01*
X0015549Y0018381D01*
X0015706Y0018401D01*
X0015864Y0018417D01*
X0016021Y0018429D01*
X0016180Y0018437D01*
X0016338Y0018441D01*
X0016496Y0018441D01*
X0016654Y0018437D01*
X0016813Y0018429D01*
X0016970Y0018417D01*
X0017128Y0018401D01*
X0017285Y0018381D01*
X0017441Y0018357D01*
X0017597Y0018329D01*
X0017752Y0018298D01*
X0017907Y0018262D01*
X0018060Y0018223D01*
X0018212Y0018180D01*
X0018363Y0018133D01*
X0018513Y0018082D01*
X0018662Y0018027D01*
X0018809Y0017969D01*
X0018955Y0017907D01*
X0019099Y0017842D01*
X0019241Y0017772D01*
X0019382Y0017700D01*
X0019521Y0017623D01*
X0019657Y0017544D01*
X0019792Y0017460D01*
X0019925Y0017374D01*
X0020055Y0017284D01*
X0020183Y0017191D01*
X0020309Y0017095D01*
X0020432Y0016995D01*
X0020553Y0016893D01*
X0020671Y0016788D01*
X0020786Y0016679D01*
X0020899Y0016568D01*
X0021009Y0016454D01*
X0021116Y0016337D01*
X0021220Y0016218D01*
X0021321Y0016096D01*
X0021418Y0015971D01*
X0021513Y0015844D01*
X0021604Y0015715D01*
X0021693Y0015584D01*
X0021777Y0015450D01*
X0021859Y0015314D01*
X0021937Y0015177D01*
X0022011Y0015037D01*
X0022082Y0014895D01*
X0022150Y0014752D01*
X0022214Y0014607D01*
X0022274Y0014461D01*
X0022330Y0014313D01*
X0022383Y0014164D01*
X0022432Y0014013D01*
X0022477Y0013861D01*
X0022518Y0013708D01*
X0022556Y0013555D01*
X0022589Y0013400D01*
X0022619Y0013244D01*
X0022645Y0013088D01*
X0022666Y0012931D01*
X0022684Y0012774D01*
X0022698Y0012616D01*
X0022708Y0012458D01*
X0022714Y0012300D01*
X0022716Y0012142D01*
X0022714Y0011984D01*
X0022708Y0011826D01*
X0022698Y0011668D01*
X0022684Y0011510D01*
X0022666Y0011353D01*
X0022645Y0011196D01*
X0022619Y0011040D01*
X0022589Y0010884D01*
X0022556Y0010729D01*
X0022518Y0010576D01*
X0022477Y0010423D01*
X0022432Y0010271D01*
X0022383Y0010120D01*
X0022330Y0009971D01*
X0022274Y0009823D01*
X0022214Y0009677D01*
X0022150Y0009532D01*
X0022082Y0009389D01*
X0022011Y0009247D01*
X0021937Y0009107D01*
X0021859Y0008970D01*
X0021777Y0008834D01*
X0021693Y0008700D01*
X0021604Y0008569D01*
X0021513Y0008440D01*
X0021418Y0008313D01*
X0021321Y0008188D01*
X0021220Y0008066D01*
X0021116Y0007947D01*
X0021009Y0007830D01*
X0020899Y0007716D01*
X0020786Y0007605D01*
X0020671Y0007496D01*
X0020553Y0007391D01*
X0020432Y0007289D01*
X0020309Y0007189D01*
X0020183Y0007093D01*
X0020055Y0007000D01*
X0019925Y0006910D01*
X0019792Y0006824D01*
X0019657Y0006740D01*
X0019521Y0006661D01*
X0019382Y0006584D01*
X0019241Y0006512D01*
X0019099Y0006442D01*
X0018955Y0006377D01*
X0018809Y0006315D01*
X0018662Y0006257D01*
X0018513Y0006202D01*
X0018363Y0006151D01*
X0018212Y0006104D01*
X0018060Y0006061D01*
X0017907Y0006022D01*
X0017752Y0005986D01*
X0017597Y0005955D01*
X0017441Y0005927D01*
X0017285Y0005903D01*
X0017128Y0005883D01*
X0016970Y0005867D01*
X0016813Y0005855D01*
X0016654Y0005847D01*
X0016496Y0005843D01*
X0016338Y0005843D01*
X0016180Y0005847D01*
X0016021Y0005855D01*
X0015864Y0005867D01*
X0015706Y0005883D01*
X0015549Y0005903D01*
X0015393Y0005927D01*
X0015237Y0005955D01*
X0015082Y0005986D01*
X0014927Y0006022D01*
X0014774Y0006061D01*
X0014622Y0006104D01*
X0014471Y0006151D01*
X0014321Y0006202D01*
X0014172Y0006257D01*
X0014025Y0006315D01*
X0013879Y0006377D01*
X0013735Y0006442D01*
X0013593Y0006512D01*
X0013452Y0006584D01*
X0013313Y0006661D01*
X0013177Y0006740D01*
X0013042Y0006824D01*
X0012909Y0006910D01*
X0012779Y0007000D01*
X0012651Y0007093D01*
X0012525Y0007189D01*
X0012402Y0007289D01*
X0012281Y0007391D01*
X0012163Y0007496D01*
X0012048Y0007605D01*
X0011935Y0007716D01*
X0011825Y0007830D01*
X0011718Y0007947D01*
X0011614Y0008066D01*
X0011513Y0008188D01*
X0011416Y0008313D01*
X0011321Y0008440D01*
X0011230Y0008569D01*
X0011141Y0008700D01*
X0011057Y0008834D01*
X0010975Y0008970D01*
X0010897Y0009107D01*
X0010823Y0009247D01*
X0010752Y0009389D01*
X0010684Y0009532D01*
X0010620Y0009677D01*
X0010560Y0009823D01*
X0010504Y0009971D01*
X0010451Y0010120D01*
X0010402Y0010271D01*
X0010357Y0010423D01*
X0010316Y0010576D01*
X0010278Y0010729D01*
X0010245Y0010884D01*
X0010215Y0011040D01*
X0010189Y0011196D01*
X0010168Y0011353D01*
X0010150Y0011510D01*
X0010136Y0011668D01*
X0010126Y0011826D01*
X0010120Y0011984D01*
X0010118Y0012142D01*
X0009725Y0229858D02*
X0009727Y0230016D01*
X0009733Y0230174D01*
X0009743Y0230332D01*
X0009757Y0230490D01*
X0009775Y0230647D01*
X0009796Y0230804D01*
X0009822Y0230960D01*
X0009852Y0231116D01*
X0009885Y0231271D01*
X0009923Y0231424D01*
X0009964Y0231577D01*
X0010009Y0231729D01*
X0010058Y0231880D01*
X0010111Y0232029D01*
X0010167Y0232177D01*
X0010227Y0232323D01*
X0010291Y0232468D01*
X0010359Y0232611D01*
X0010430Y0232753D01*
X0010504Y0232893D01*
X0010582Y0233030D01*
X0010664Y0233166D01*
X0010748Y0233300D01*
X0010837Y0233431D01*
X0010928Y0233560D01*
X0011023Y0233687D01*
X0011120Y0233812D01*
X0011221Y0233934D01*
X0011325Y0234053D01*
X0011432Y0234170D01*
X0011542Y0234284D01*
X0011655Y0234395D01*
X0011770Y0234504D01*
X0011888Y0234609D01*
X0012009Y0234711D01*
X0012132Y0234811D01*
X0012258Y0234907D01*
X0012386Y0235000D01*
X0012516Y0235090D01*
X0012649Y0235176D01*
X0012784Y0235260D01*
X0012920Y0235339D01*
X0013059Y0235416D01*
X0013200Y0235488D01*
X0013342Y0235558D01*
X0013486Y0235623D01*
X0013632Y0235685D01*
X0013779Y0235743D01*
X0013928Y0235798D01*
X0014078Y0235849D01*
X0014229Y0235896D01*
X0014381Y0235939D01*
X0014534Y0235978D01*
X0014689Y0236014D01*
X0014844Y0236045D01*
X0015000Y0236073D01*
X0015156Y0236097D01*
X0015313Y0236117D01*
X0015471Y0236133D01*
X0015628Y0236145D01*
X0015787Y0236153D01*
X0015945Y0236157D01*
X0016103Y0236157D01*
X0016261Y0236153D01*
X0016420Y0236145D01*
X0016577Y0236133D01*
X0016735Y0236117D01*
X0016892Y0236097D01*
X0017048Y0236073D01*
X0017204Y0236045D01*
X0017359Y0236014D01*
X0017514Y0235978D01*
X0017667Y0235939D01*
X0017819Y0235896D01*
X0017970Y0235849D01*
X0018120Y0235798D01*
X0018269Y0235743D01*
X0018416Y0235685D01*
X0018562Y0235623D01*
X0018706Y0235558D01*
X0018848Y0235488D01*
X0018989Y0235416D01*
X0019128Y0235339D01*
X0019264Y0235260D01*
X0019399Y0235176D01*
X0019532Y0235090D01*
X0019662Y0235000D01*
X0019790Y0234907D01*
X0019916Y0234811D01*
X0020039Y0234711D01*
X0020160Y0234609D01*
X0020278Y0234504D01*
X0020393Y0234395D01*
X0020506Y0234284D01*
X0020616Y0234170D01*
X0020723Y0234053D01*
X0020827Y0233934D01*
X0020928Y0233812D01*
X0021025Y0233687D01*
X0021120Y0233560D01*
X0021211Y0233431D01*
X0021300Y0233300D01*
X0021384Y0233166D01*
X0021466Y0233030D01*
X0021544Y0232893D01*
X0021618Y0232753D01*
X0021689Y0232611D01*
X0021757Y0232468D01*
X0021821Y0232323D01*
X0021881Y0232177D01*
X0021937Y0232029D01*
X0021990Y0231880D01*
X0022039Y0231729D01*
X0022084Y0231577D01*
X0022125Y0231424D01*
X0022163Y0231271D01*
X0022196Y0231116D01*
X0022226Y0230960D01*
X0022252Y0230804D01*
X0022273Y0230647D01*
X0022291Y0230490D01*
X0022305Y0230332D01*
X0022315Y0230174D01*
X0022321Y0230016D01*
X0022323Y0229858D01*
X0022321Y0229700D01*
X0022315Y0229542D01*
X0022305Y0229384D01*
X0022291Y0229226D01*
X0022273Y0229069D01*
X0022252Y0228912D01*
X0022226Y0228756D01*
X0022196Y0228600D01*
X0022163Y0228445D01*
X0022125Y0228292D01*
X0022084Y0228139D01*
X0022039Y0227987D01*
X0021990Y0227836D01*
X0021937Y0227687D01*
X0021881Y0227539D01*
X0021821Y0227393D01*
X0021757Y0227248D01*
X0021689Y0227105D01*
X0021618Y0226963D01*
X0021544Y0226823D01*
X0021466Y0226686D01*
X0021384Y0226550D01*
X0021300Y0226416D01*
X0021211Y0226285D01*
X0021120Y0226156D01*
X0021025Y0226029D01*
X0020928Y0225904D01*
X0020827Y0225782D01*
X0020723Y0225663D01*
X0020616Y0225546D01*
X0020506Y0225432D01*
X0020393Y0225321D01*
X0020278Y0225212D01*
X0020160Y0225107D01*
X0020039Y0225005D01*
X0019916Y0224905D01*
X0019790Y0224809D01*
X0019662Y0224716D01*
X0019532Y0224626D01*
X0019399Y0224540D01*
X0019264Y0224456D01*
X0019128Y0224377D01*
X0018989Y0224300D01*
X0018848Y0224228D01*
X0018706Y0224158D01*
X0018562Y0224093D01*
X0018416Y0224031D01*
X0018269Y0223973D01*
X0018120Y0223918D01*
X0017970Y0223867D01*
X0017819Y0223820D01*
X0017667Y0223777D01*
X0017514Y0223738D01*
X0017359Y0223702D01*
X0017204Y0223671D01*
X0017048Y0223643D01*
X0016892Y0223619D01*
X0016735Y0223599D01*
X0016577Y0223583D01*
X0016420Y0223571D01*
X0016261Y0223563D01*
X0016103Y0223559D01*
X0015945Y0223559D01*
X0015787Y0223563D01*
X0015628Y0223571D01*
X0015471Y0223583D01*
X0015313Y0223599D01*
X0015156Y0223619D01*
X0015000Y0223643D01*
X0014844Y0223671D01*
X0014689Y0223702D01*
X0014534Y0223738D01*
X0014381Y0223777D01*
X0014229Y0223820D01*
X0014078Y0223867D01*
X0013928Y0223918D01*
X0013779Y0223973D01*
X0013632Y0224031D01*
X0013486Y0224093D01*
X0013342Y0224158D01*
X0013200Y0224228D01*
X0013059Y0224300D01*
X0012920Y0224377D01*
X0012784Y0224456D01*
X0012649Y0224540D01*
X0012516Y0224626D01*
X0012386Y0224716D01*
X0012258Y0224809D01*
X0012132Y0224905D01*
X0012009Y0225005D01*
X0011888Y0225107D01*
X0011770Y0225212D01*
X0011655Y0225321D01*
X0011542Y0225432D01*
X0011432Y0225546D01*
X0011325Y0225663D01*
X0011221Y0225782D01*
X0011120Y0225904D01*
X0011023Y0226029D01*
X0010928Y0226156D01*
X0010837Y0226285D01*
X0010748Y0226416D01*
X0010664Y0226550D01*
X0010582Y0226686D01*
X0010504Y0226823D01*
X0010430Y0226963D01*
X0010359Y0227105D01*
X0010291Y0227248D01*
X0010227Y0227393D01*
X0010167Y0227539D01*
X0010111Y0227687D01*
X0010058Y0227836D01*
X0010009Y0227987D01*
X0009964Y0228139D01*
X0009923Y0228292D01*
X0009885Y0228445D01*
X0009852Y0228600D01*
X0009822Y0228756D01*
X0009796Y0228912D01*
X0009775Y0229069D01*
X0009757Y0229226D01*
X0009743Y0229384D01*
X0009733Y0229542D01*
X0009727Y0229700D01*
X0009725Y0229858D01*
X0350276Y0229858D02*
X0350278Y0230016D01*
X0350284Y0230174D01*
X0350294Y0230332D01*
X0350308Y0230490D01*
X0350326Y0230647D01*
X0350347Y0230804D01*
X0350373Y0230960D01*
X0350403Y0231116D01*
X0350436Y0231271D01*
X0350474Y0231424D01*
X0350515Y0231577D01*
X0350560Y0231729D01*
X0350609Y0231880D01*
X0350662Y0232029D01*
X0350718Y0232177D01*
X0350778Y0232323D01*
X0350842Y0232468D01*
X0350910Y0232611D01*
X0350981Y0232753D01*
X0351055Y0232893D01*
X0351133Y0233030D01*
X0351215Y0233166D01*
X0351299Y0233300D01*
X0351388Y0233431D01*
X0351479Y0233560D01*
X0351574Y0233687D01*
X0351671Y0233812D01*
X0351772Y0233934D01*
X0351876Y0234053D01*
X0351983Y0234170D01*
X0352093Y0234284D01*
X0352206Y0234395D01*
X0352321Y0234504D01*
X0352439Y0234609D01*
X0352560Y0234711D01*
X0352683Y0234811D01*
X0352809Y0234907D01*
X0352937Y0235000D01*
X0353067Y0235090D01*
X0353200Y0235176D01*
X0353335Y0235260D01*
X0353471Y0235339D01*
X0353610Y0235416D01*
X0353751Y0235488D01*
X0353893Y0235558D01*
X0354037Y0235623D01*
X0354183Y0235685D01*
X0354330Y0235743D01*
X0354479Y0235798D01*
X0354629Y0235849D01*
X0354780Y0235896D01*
X0354932Y0235939D01*
X0355085Y0235978D01*
X0355240Y0236014D01*
X0355395Y0236045D01*
X0355551Y0236073D01*
X0355707Y0236097D01*
X0355864Y0236117D01*
X0356022Y0236133D01*
X0356179Y0236145D01*
X0356338Y0236153D01*
X0356496Y0236157D01*
X0356654Y0236157D01*
X0356812Y0236153D01*
X0356971Y0236145D01*
X0357128Y0236133D01*
X0357286Y0236117D01*
X0357443Y0236097D01*
X0357599Y0236073D01*
X0357755Y0236045D01*
X0357910Y0236014D01*
X0358065Y0235978D01*
X0358218Y0235939D01*
X0358370Y0235896D01*
X0358521Y0235849D01*
X0358671Y0235798D01*
X0358820Y0235743D01*
X0358967Y0235685D01*
X0359113Y0235623D01*
X0359257Y0235558D01*
X0359399Y0235488D01*
X0359540Y0235416D01*
X0359679Y0235339D01*
X0359815Y0235260D01*
X0359950Y0235176D01*
X0360083Y0235090D01*
X0360213Y0235000D01*
X0360341Y0234907D01*
X0360467Y0234811D01*
X0360590Y0234711D01*
X0360711Y0234609D01*
X0360829Y0234504D01*
X0360944Y0234395D01*
X0361057Y0234284D01*
X0361167Y0234170D01*
X0361274Y0234053D01*
X0361378Y0233934D01*
X0361479Y0233812D01*
X0361576Y0233687D01*
X0361671Y0233560D01*
X0361762Y0233431D01*
X0361851Y0233300D01*
X0361935Y0233166D01*
X0362017Y0233030D01*
X0362095Y0232893D01*
X0362169Y0232753D01*
X0362240Y0232611D01*
X0362308Y0232468D01*
X0362372Y0232323D01*
X0362432Y0232177D01*
X0362488Y0232029D01*
X0362541Y0231880D01*
X0362590Y0231729D01*
X0362635Y0231577D01*
X0362676Y0231424D01*
X0362714Y0231271D01*
X0362747Y0231116D01*
X0362777Y0230960D01*
X0362803Y0230804D01*
X0362824Y0230647D01*
X0362842Y0230490D01*
X0362856Y0230332D01*
X0362866Y0230174D01*
X0362872Y0230016D01*
X0362874Y0229858D01*
X0362872Y0229700D01*
X0362866Y0229542D01*
X0362856Y0229384D01*
X0362842Y0229226D01*
X0362824Y0229069D01*
X0362803Y0228912D01*
X0362777Y0228756D01*
X0362747Y0228600D01*
X0362714Y0228445D01*
X0362676Y0228292D01*
X0362635Y0228139D01*
X0362590Y0227987D01*
X0362541Y0227836D01*
X0362488Y0227687D01*
X0362432Y0227539D01*
X0362372Y0227393D01*
X0362308Y0227248D01*
X0362240Y0227105D01*
X0362169Y0226963D01*
X0362095Y0226823D01*
X0362017Y0226686D01*
X0361935Y0226550D01*
X0361851Y0226416D01*
X0361762Y0226285D01*
X0361671Y0226156D01*
X0361576Y0226029D01*
X0361479Y0225904D01*
X0361378Y0225782D01*
X0361274Y0225663D01*
X0361167Y0225546D01*
X0361057Y0225432D01*
X0360944Y0225321D01*
X0360829Y0225212D01*
X0360711Y0225107D01*
X0360590Y0225005D01*
X0360467Y0224905D01*
X0360341Y0224809D01*
X0360213Y0224716D01*
X0360083Y0224626D01*
X0359950Y0224540D01*
X0359815Y0224456D01*
X0359679Y0224377D01*
X0359540Y0224300D01*
X0359399Y0224228D01*
X0359257Y0224158D01*
X0359113Y0224093D01*
X0358967Y0224031D01*
X0358820Y0223973D01*
X0358671Y0223918D01*
X0358521Y0223867D01*
X0358370Y0223820D01*
X0358218Y0223777D01*
X0358065Y0223738D01*
X0357910Y0223702D01*
X0357755Y0223671D01*
X0357599Y0223643D01*
X0357443Y0223619D01*
X0357286Y0223599D01*
X0357128Y0223583D01*
X0356971Y0223571D01*
X0356812Y0223563D01*
X0356654Y0223559D01*
X0356496Y0223559D01*
X0356338Y0223563D01*
X0356179Y0223571D01*
X0356022Y0223583D01*
X0355864Y0223599D01*
X0355707Y0223619D01*
X0355551Y0223643D01*
X0355395Y0223671D01*
X0355240Y0223702D01*
X0355085Y0223738D01*
X0354932Y0223777D01*
X0354780Y0223820D01*
X0354629Y0223867D01*
X0354479Y0223918D01*
X0354330Y0223973D01*
X0354183Y0224031D01*
X0354037Y0224093D01*
X0353893Y0224158D01*
X0353751Y0224228D01*
X0353610Y0224300D01*
X0353471Y0224377D01*
X0353335Y0224456D01*
X0353200Y0224540D01*
X0353067Y0224626D01*
X0352937Y0224716D01*
X0352809Y0224809D01*
X0352683Y0224905D01*
X0352560Y0225005D01*
X0352439Y0225107D01*
X0352321Y0225212D01*
X0352206Y0225321D01*
X0352093Y0225432D01*
X0351983Y0225546D01*
X0351876Y0225663D01*
X0351772Y0225782D01*
X0351671Y0225904D01*
X0351574Y0226029D01*
X0351479Y0226156D01*
X0351388Y0226285D01*
X0351299Y0226416D01*
X0351215Y0226550D01*
X0351133Y0226686D01*
X0351055Y0226823D01*
X0350981Y0226963D01*
X0350910Y0227105D01*
X0350842Y0227248D01*
X0350778Y0227393D01*
X0350718Y0227539D01*
X0350662Y0227687D01*
X0350609Y0227836D01*
X0350560Y0227987D01*
X0350515Y0228139D01*
X0350474Y0228292D01*
X0350436Y0228445D01*
X0350403Y0228600D01*
X0350373Y0228756D01*
X0350347Y0228912D01*
X0350326Y0229069D01*
X0350308Y0229226D01*
X0350294Y0229384D01*
X0350284Y0229542D01*
X0350278Y0229700D01*
X0350276Y0229858D01*
X0350276Y0012929D02*
X0350278Y0013087D01*
X0350284Y0013245D01*
X0350294Y0013403D01*
X0350308Y0013561D01*
X0350326Y0013718D01*
X0350347Y0013875D01*
X0350373Y0014031D01*
X0350403Y0014187D01*
X0350436Y0014342D01*
X0350474Y0014495D01*
X0350515Y0014648D01*
X0350560Y0014800D01*
X0350609Y0014951D01*
X0350662Y0015100D01*
X0350718Y0015248D01*
X0350778Y0015394D01*
X0350842Y0015539D01*
X0350910Y0015682D01*
X0350981Y0015824D01*
X0351055Y0015964D01*
X0351133Y0016101D01*
X0351215Y0016237D01*
X0351299Y0016371D01*
X0351388Y0016502D01*
X0351479Y0016631D01*
X0351574Y0016758D01*
X0351671Y0016883D01*
X0351772Y0017005D01*
X0351876Y0017124D01*
X0351983Y0017241D01*
X0352093Y0017355D01*
X0352206Y0017466D01*
X0352321Y0017575D01*
X0352439Y0017680D01*
X0352560Y0017782D01*
X0352683Y0017882D01*
X0352809Y0017978D01*
X0352937Y0018071D01*
X0353067Y0018161D01*
X0353200Y0018247D01*
X0353335Y0018331D01*
X0353471Y0018410D01*
X0353610Y0018487D01*
X0353751Y0018559D01*
X0353893Y0018629D01*
X0354037Y0018694D01*
X0354183Y0018756D01*
X0354330Y0018814D01*
X0354479Y0018869D01*
X0354629Y0018920D01*
X0354780Y0018967D01*
X0354932Y0019010D01*
X0355085Y0019049D01*
X0355240Y0019085D01*
X0355395Y0019116D01*
X0355551Y0019144D01*
X0355707Y0019168D01*
X0355864Y0019188D01*
X0356022Y0019204D01*
X0356179Y0019216D01*
X0356338Y0019224D01*
X0356496Y0019228D01*
X0356654Y0019228D01*
X0356812Y0019224D01*
X0356971Y0019216D01*
X0357128Y0019204D01*
X0357286Y0019188D01*
X0357443Y0019168D01*
X0357599Y0019144D01*
X0357755Y0019116D01*
X0357910Y0019085D01*
X0358065Y0019049D01*
X0358218Y0019010D01*
X0358370Y0018967D01*
X0358521Y0018920D01*
X0358671Y0018869D01*
X0358820Y0018814D01*
X0358967Y0018756D01*
X0359113Y0018694D01*
X0359257Y0018629D01*
X0359399Y0018559D01*
X0359540Y0018487D01*
X0359679Y0018410D01*
X0359815Y0018331D01*
X0359950Y0018247D01*
X0360083Y0018161D01*
X0360213Y0018071D01*
X0360341Y0017978D01*
X0360467Y0017882D01*
X0360590Y0017782D01*
X0360711Y0017680D01*
X0360829Y0017575D01*
X0360944Y0017466D01*
X0361057Y0017355D01*
X0361167Y0017241D01*
X0361274Y0017124D01*
X0361378Y0017005D01*
X0361479Y0016883D01*
X0361576Y0016758D01*
X0361671Y0016631D01*
X0361762Y0016502D01*
X0361851Y0016371D01*
X0361935Y0016237D01*
X0362017Y0016101D01*
X0362095Y0015964D01*
X0362169Y0015824D01*
X0362240Y0015682D01*
X0362308Y0015539D01*
X0362372Y0015394D01*
X0362432Y0015248D01*
X0362488Y0015100D01*
X0362541Y0014951D01*
X0362590Y0014800D01*
X0362635Y0014648D01*
X0362676Y0014495D01*
X0362714Y0014342D01*
X0362747Y0014187D01*
X0362777Y0014031D01*
X0362803Y0013875D01*
X0362824Y0013718D01*
X0362842Y0013561D01*
X0362856Y0013403D01*
X0362866Y0013245D01*
X0362872Y0013087D01*
X0362874Y0012929D01*
X0362872Y0012771D01*
X0362866Y0012613D01*
X0362856Y0012455D01*
X0362842Y0012297D01*
X0362824Y0012140D01*
X0362803Y0011983D01*
X0362777Y0011827D01*
X0362747Y0011671D01*
X0362714Y0011516D01*
X0362676Y0011363D01*
X0362635Y0011210D01*
X0362590Y0011058D01*
X0362541Y0010907D01*
X0362488Y0010758D01*
X0362432Y0010610D01*
X0362372Y0010464D01*
X0362308Y0010319D01*
X0362240Y0010176D01*
X0362169Y0010034D01*
X0362095Y0009894D01*
X0362017Y0009757D01*
X0361935Y0009621D01*
X0361851Y0009487D01*
X0361762Y0009356D01*
X0361671Y0009227D01*
X0361576Y0009100D01*
X0361479Y0008975D01*
X0361378Y0008853D01*
X0361274Y0008734D01*
X0361167Y0008617D01*
X0361057Y0008503D01*
X0360944Y0008392D01*
X0360829Y0008283D01*
X0360711Y0008178D01*
X0360590Y0008076D01*
X0360467Y0007976D01*
X0360341Y0007880D01*
X0360213Y0007787D01*
X0360083Y0007697D01*
X0359950Y0007611D01*
X0359815Y0007527D01*
X0359679Y0007448D01*
X0359540Y0007371D01*
X0359399Y0007299D01*
X0359257Y0007229D01*
X0359113Y0007164D01*
X0358967Y0007102D01*
X0358820Y0007044D01*
X0358671Y0006989D01*
X0358521Y0006938D01*
X0358370Y0006891D01*
X0358218Y0006848D01*
X0358065Y0006809D01*
X0357910Y0006773D01*
X0357755Y0006742D01*
X0357599Y0006714D01*
X0357443Y0006690D01*
X0357286Y0006670D01*
X0357128Y0006654D01*
X0356971Y0006642D01*
X0356812Y0006634D01*
X0356654Y0006630D01*
X0356496Y0006630D01*
X0356338Y0006634D01*
X0356179Y0006642D01*
X0356022Y0006654D01*
X0355864Y0006670D01*
X0355707Y0006690D01*
X0355551Y0006714D01*
X0355395Y0006742D01*
X0355240Y0006773D01*
X0355085Y0006809D01*
X0354932Y0006848D01*
X0354780Y0006891D01*
X0354629Y0006938D01*
X0354479Y0006989D01*
X0354330Y0007044D01*
X0354183Y0007102D01*
X0354037Y0007164D01*
X0353893Y0007229D01*
X0353751Y0007299D01*
X0353610Y0007371D01*
X0353471Y0007448D01*
X0353335Y0007527D01*
X0353200Y0007611D01*
X0353067Y0007697D01*
X0352937Y0007787D01*
X0352809Y0007880D01*
X0352683Y0007976D01*
X0352560Y0008076D01*
X0352439Y0008178D01*
X0352321Y0008283D01*
X0352206Y0008392D01*
X0352093Y0008503D01*
X0351983Y0008617D01*
X0351876Y0008734D01*
X0351772Y0008853D01*
X0351671Y0008975D01*
X0351574Y0009100D01*
X0351479Y0009227D01*
X0351388Y0009356D01*
X0351299Y0009487D01*
X0351215Y0009621D01*
X0351133Y0009757D01*
X0351055Y0009894D01*
X0350981Y0010034D01*
X0350910Y0010176D01*
X0350842Y0010319D01*
X0350778Y0010464D01*
X0350718Y0010610D01*
X0350662Y0010758D01*
X0350609Y0010907D01*
X0350560Y0011058D01*
X0350515Y0011210D01*
X0350474Y0011363D01*
X0350436Y0011516D01*
X0350403Y0011671D01*
X0350373Y0011827D01*
X0350347Y0011983D01*
X0350326Y0012140D01*
X0350308Y0012297D01*
X0350294Y0012455D01*
X0350284Y0012613D01*
X0350278Y0012771D01*
X0350276Y0012929D01*
D11*
X0337480Y0157181D03*
X0327480Y0157181D03*
X0327480Y0167181D03*
X0337480Y0167181D03*
X0337480Y0177181D03*
X0327480Y0177181D03*
X0327480Y0187181D03*
X0337480Y0187181D03*
X0337480Y0197181D03*
X0327480Y0197181D03*
X0327480Y0207181D03*
X0337480Y0207181D03*
X0337480Y0217181D03*
X0327480Y0217181D03*
X0327480Y0227181D03*
X0337480Y0227181D03*
X0238780Y0188992D03*
X0208780Y0188992D03*
X0043583Y0157850D03*
X0043583Y0127850D03*
X0042756Y0044425D03*
X0072756Y0044425D03*
D12*
X0095394Y0043439D02*
X0095394Y0048639D01*
X0105394Y0048639D02*
X0105394Y0043439D01*
X0115394Y0043439D02*
X0115394Y0048639D01*
X0115394Y0018639D02*
X0115394Y0013439D01*
X0105394Y0013439D02*
X0105394Y0018639D01*
X0095394Y0018639D02*
X0095394Y0013439D01*
X0099921Y0127219D02*
X0099921Y0132419D01*
X0109921Y0132419D02*
X0109921Y0127219D01*
X0119921Y0127219D02*
X0119921Y0132419D01*
X0129921Y0132419D02*
X0129921Y0127219D01*
X0139921Y0127219D02*
X0139921Y0132419D01*
X0149921Y0132419D02*
X0149921Y0127219D01*
X0159921Y0127219D02*
X0159921Y0132419D01*
X0169921Y0132419D02*
X0169921Y0127219D01*
X0179921Y0127219D02*
X0179921Y0132419D01*
X0189921Y0132419D02*
X0189921Y0127219D01*
X0199921Y0127219D02*
X0199921Y0132419D01*
X0199921Y0157219D02*
X0199921Y0162419D01*
X0189921Y0162419D02*
X0189921Y0157219D01*
X0179921Y0157219D02*
X0179921Y0162419D01*
X0169921Y0162419D02*
X0169921Y0157219D01*
X0159921Y0157219D02*
X0159921Y0162419D01*
X0149921Y0162419D02*
X0149921Y0157219D01*
X0139921Y0157219D02*
X0139921Y0162419D01*
X0129921Y0162419D02*
X0129921Y0157219D01*
X0119921Y0157219D02*
X0119921Y0162419D01*
X0109921Y0162419D02*
X0109921Y0157219D01*
X0099921Y0157219D02*
X0099921Y0162419D01*
X0089921Y0162419D02*
X0089921Y0157219D01*
X0079921Y0157219D02*
X0079921Y0162419D01*
X0069921Y0162419D02*
X0069921Y0157219D01*
X0069921Y0132419D02*
X0069921Y0127219D01*
X0079921Y0127219D02*
X0079921Y0132419D01*
X0089921Y0132419D02*
X0089921Y0127219D01*
X0287006Y0125882D02*
X0292206Y0125882D01*
X0292206Y0115882D02*
X0287006Y0115882D01*
X0287006Y0105882D02*
X0292206Y0105882D01*
X0292206Y0095882D02*
X0287006Y0095882D01*
X0287006Y0085882D02*
X0292206Y0085882D01*
X0292206Y0075882D02*
X0287006Y0075882D01*
X0287006Y0065882D02*
X0292206Y0065882D01*
X0292206Y0055882D02*
X0287006Y0055882D01*
X0317006Y0055882D02*
X0322206Y0055882D01*
X0322206Y0065882D02*
X0317006Y0065882D01*
X0317006Y0075882D02*
X0322206Y0075882D01*
X0322206Y0085882D02*
X0317006Y0085882D01*
X0317006Y0095882D02*
X0322206Y0095882D01*
X0322206Y0105882D02*
X0317006Y0105882D01*
X0317006Y0115882D02*
X0322206Y0115882D01*
X0322206Y0125882D02*
X0317006Y0125882D01*
X0348345Y0074110D02*
X0353545Y0074110D01*
X0353545Y0064110D02*
X0348345Y0064110D01*
X0348345Y0054110D02*
X0353545Y0054110D01*
D13*
X0244528Y0138244D03*
X0234528Y0138244D03*
X0224528Y0138244D03*
X0224528Y0148244D03*
X0234528Y0148244D03*
X0244528Y0148244D03*
X0164606Y0109386D03*
X0154606Y0109386D03*
X0144606Y0109386D03*
X0025354Y0053874D03*
X0015354Y0053874D03*
X0044606Y0018441D03*
X0054606Y0018441D03*
X0064606Y0018441D03*
X0020748Y0098953D03*
X0020748Y0108953D03*
X0020748Y0118953D03*
X0020748Y0128953D03*
X0020748Y0138953D03*
X0020748Y0148953D03*
D14*
X0053187Y0107076D02*
X0053187Y0101076D01*
X0070987Y0101076D02*
X0070987Y0107076D01*
X0070987Y0081476D02*
X0070987Y0075476D01*
X0053187Y0075476D02*
X0053187Y0081476D01*
X0133108Y0045265D02*
X0133108Y0039265D01*
X0150908Y0039265D02*
X0150908Y0045265D01*
X0150908Y0019665D02*
X0150908Y0013665D01*
X0133108Y0013665D02*
X0133108Y0019665D01*
X0135354Y0219378D02*
X0135354Y0225378D01*
X0125354Y0225378D02*
X0125354Y0219378D01*
X0115354Y0219378D02*
X0115354Y0225378D01*
X0105354Y0225378D02*
X0105354Y0219378D01*
X0156535Y0219378D02*
X0156535Y0225378D01*
X0166535Y0225378D02*
X0166535Y0219378D01*
X0176535Y0219378D02*
X0176535Y0225378D01*
X0186535Y0225378D02*
X0186535Y0219378D01*
X0213504Y0218984D02*
X0213504Y0224984D01*
X0223504Y0224984D02*
X0223504Y0218984D01*
X0233504Y0218984D02*
X0233504Y0224984D01*
D15*
X0071969Y0116866D03*
X0041969Y0116866D03*
X0095157Y0091315D03*
X0105394Y0091315D03*
X0115236Y0091315D03*
X0115236Y0061315D03*
X0105394Y0061315D03*
X0095157Y0061315D03*
X0130157Y0054661D03*
X0160157Y0054661D03*
X0042441Y0077496D03*
X0012441Y0077496D03*
X0355394Y0086512D03*
X0355394Y0116512D03*
D16*
X0170472Y0188913D03*
D17*
X0180472Y0188913D03*
D18*
X0172761Y0026197D02*
X0167161Y0026197D01*
X0167161Y0016197D02*
X0172761Y0016197D01*
D19*
X0106496Y0185370D03*
X0066496Y0185370D03*
X0256181Y0188992D03*
X0256181Y0228992D03*
D20*
X0058937Y0200331D03*
X0035315Y0200331D03*
X0047126Y0181827D03*
D21*
X0232165Y0056394D03*
X0242165Y0046394D03*
X0232165Y0036394D03*
D22*
X0230433Y0016629D02*
X0230433Y0009229D01*
X0220433Y0009229D02*
X0220433Y0016629D01*
X0210433Y0016629D02*
X0210433Y0009229D01*
X0200433Y0009229D02*
X0200433Y0016629D01*
X0190433Y0016629D02*
X0190433Y0009229D01*
X0240433Y0009229D02*
X0240433Y0016629D01*
X0250433Y0016629D02*
X0250433Y0009229D01*
X0260433Y0009229D02*
X0260433Y0016629D01*
X0270433Y0016629D02*
X0270433Y0009229D01*
X0280433Y0009229D02*
X0280433Y0016629D01*
X0290433Y0016629D02*
X0290433Y0009229D01*
X0300433Y0009229D02*
X0300433Y0016629D01*
X0310433Y0016629D02*
X0310433Y0009229D01*
X0320433Y0009229D02*
X0320433Y0016629D01*
X0330433Y0016629D02*
X0330433Y0009229D01*
X0340433Y0009229D02*
X0340433Y0016629D01*
D23*
X0232165Y0036394D02*
X0231819Y0036106D01*
X0220419Y0036106D01*
X0200619Y0016306D01*
X0200619Y0013306D01*
X0200433Y0012929D01*
X0199419Y0017506D01*
X0193419Y0023506D01*
X0188019Y0023506D01*
X0180819Y0016306D01*
X0170019Y0016306D01*
X0169961Y0016197D01*
X0042441Y0077496D02*
X0042219Y0077506D01*
X0042219Y0091906D01*
X0018219Y0091906D01*
X0014019Y0096106D01*
X0014019Y0121906D01*
X0020619Y0128506D01*
X0020748Y0128953D01*
X0037419Y0130906D02*
X0037419Y0126106D01*
X0041619Y0121906D01*
X0041619Y0118906D01*
X0041969Y0116866D01*
X0042219Y0116506D01*
X0042219Y0091906D01*
X0037419Y0130906D02*
X0064419Y0157906D01*
X0064419Y0165106D01*
X0084219Y0184906D01*
X0106419Y0184906D01*
X0106496Y0185370D01*
X0149619Y0159706D02*
X0149619Y0156706D01*
X0130419Y0137506D01*
X0130419Y0130306D01*
X0129921Y0129819D01*
X0149619Y0159706D02*
X0149921Y0159819D01*
X0150819Y0161506D01*
X0157419Y0168106D01*
X0158619Y0168106D01*
X0179019Y0188506D01*
X0180219Y0188506D01*
X0180472Y0188913D01*
X0180819Y0190906D01*
X0180819Y0201106D01*
X0327480Y0227181D02*
X0327819Y0227506D01*
X0335619Y0227506D01*
X0337480Y0227181D01*
X0338019Y0226906D01*
X0354819Y0210106D01*
X0354819Y0117106D01*
X0355394Y0116512D01*
D24*
X0317598Y0166472D03*
X0242008Y0164504D03*
X0218780Y0172378D03*
X0208419Y0148906D03*
X0187677Y0192850D03*
X0180819Y0201106D03*
X0138071Y0203087D03*
X0033346Y0111748D03*
X0100276Y0111354D03*
X0222717Y0025134D03*
X0241220Y0036945D03*
X0251850Y0046000D03*
X0246219Y0051106D03*
X0247126Y0070803D03*
X0260619Y0084706D03*
X0278019Y0073306D03*
X0262480Y0027890D03*
X0280197Y0217654D03*
D25*
X0327219Y0207106D02*
X0327480Y0207181D01*
X0327219Y0207106D02*
X0168219Y0207106D01*
X0125619Y0164506D01*
X0125619Y0156706D01*
X0110019Y0141106D01*
X0110019Y0130306D01*
X0109921Y0129819D01*
X0105219Y0133306D02*
X0105219Y0097906D01*
X0110619Y0092506D01*
X0110619Y0066106D01*
X0114819Y0061906D01*
X0115236Y0061315D01*
X0110619Y0062506D02*
X0110619Y0059506D01*
X0120219Y0049906D01*
X0143619Y0049906D01*
X0150819Y0042706D01*
X0150908Y0042265D01*
X0143019Y0024706D02*
X0050619Y0024706D01*
X0044619Y0018706D01*
X0044606Y0018441D01*
X0042756Y0044425D02*
X0042819Y0044506D01*
X0042819Y0058306D01*
X0065619Y0081106D01*
X0065619Y0091906D01*
X0053619Y0103906D01*
X0053187Y0104076D01*
X0065619Y0091906D02*
X0095019Y0091906D01*
X0095157Y0091315D01*
X0101019Y0091906D02*
X0101019Y0072106D01*
X0110619Y0062506D01*
X0095157Y0061315D02*
X0095019Y0061306D01*
X0095019Y0046306D01*
X0095394Y0046039D01*
X0143019Y0024706D02*
X0189819Y0071506D01*
X0189819Y0129706D01*
X0189921Y0129819D01*
X0194019Y0136906D02*
X0214419Y0136906D01*
X0221019Y0130306D01*
X0244419Y0130306D01*
X0250419Y0136306D01*
X0250419Y0142306D01*
X0319419Y0142306D01*
X0332019Y0154906D01*
X0332019Y0168106D01*
X0337419Y0173506D01*
X0337419Y0177106D01*
X0337480Y0177181D01*
X0342219Y0171706D02*
X0338019Y0167506D01*
X0337480Y0167181D01*
X0342219Y0171706D02*
X0342219Y0198706D01*
X0339219Y0201706D01*
X0203019Y0201706D01*
X0161619Y0160306D01*
X0160419Y0160306D01*
X0159921Y0159819D01*
X0169921Y0159819D02*
X0170019Y0159706D01*
X0171219Y0159706D01*
X0194019Y0136906D01*
X0201819Y0139306D02*
X0215619Y0139306D01*
X0215619Y0150706D01*
X0221019Y0156106D01*
X0299619Y0156106D01*
X0325419Y0181906D01*
X0329019Y0181906D01*
X0333819Y0186706D01*
X0337419Y0186706D01*
X0337480Y0187181D01*
X0333219Y0192706D02*
X0337419Y0196906D01*
X0337480Y0197181D01*
X0333219Y0192706D02*
X0326619Y0192706D01*
X0317619Y0183706D01*
X0215019Y0183706D01*
X0191619Y0160306D01*
X0190419Y0160306D01*
X0189921Y0159819D01*
X0181419Y0159706D02*
X0201819Y0139306D01*
X0208419Y0148906D02*
X0210219Y0148906D01*
X0242619Y0181306D01*
X0321219Y0181306D01*
X0327219Y0187306D01*
X0327480Y0187181D01*
X0344619Y0206506D02*
X0338619Y0212506D01*
X0186219Y0212506D01*
X0176619Y0222106D01*
X0176535Y0222378D01*
X0171219Y0226906D02*
X0171219Y0217306D01*
X0168219Y0214306D01*
X0164619Y0214306D01*
X0156819Y0222106D01*
X0156535Y0222378D01*
X0156219Y0222106D01*
X0148419Y0214306D01*
X0113619Y0214306D01*
X0105819Y0222106D01*
X0105354Y0222378D01*
X0104619Y0222106D01*
X0096219Y0222106D01*
X0056019Y0181906D01*
X0047619Y0181906D01*
X0047126Y0181827D01*
X0043583Y0157850D02*
X0043419Y0157306D01*
X0043419Y0142306D01*
X0026619Y0125506D01*
X0026619Y0104506D01*
X0021219Y0099106D01*
X0020748Y0098953D01*
X0043583Y0127850D02*
X0044019Y0127906D01*
X0069819Y0127906D01*
X0069921Y0129819D01*
X0070419Y0129706D01*
X0070419Y0118306D01*
X0071619Y0117106D01*
X0071969Y0116866D01*
X0090219Y0138106D02*
X0095619Y0132706D01*
X0095619Y0097306D01*
X0101019Y0091906D01*
X0128619Y0122506D02*
X0137619Y0122506D01*
X0139419Y0124306D01*
X0140019Y0124306D01*
X0154419Y0109906D01*
X0154606Y0109386D01*
X0140019Y0124306D02*
X0140019Y0129706D01*
X0139921Y0129819D01*
X0128619Y0122506D02*
X0125619Y0125506D01*
X0125619Y0138106D01*
X0129819Y0142306D01*
X0129819Y0159706D01*
X0129921Y0159819D01*
X0100419Y0159706D02*
X0099921Y0159819D01*
X0100419Y0159706D02*
X0100419Y0138106D01*
X0105219Y0133306D01*
X0090219Y0138106D02*
X0090219Y0159706D01*
X0089921Y0159819D01*
X0179921Y0159819D02*
X0180219Y0159706D01*
X0181419Y0159706D01*
X0215619Y0139306D02*
X0222219Y0132706D01*
X0228819Y0132706D01*
X0234219Y0138106D01*
X0234528Y0138244D01*
X0224528Y0138244D02*
X0224019Y0138706D01*
X0219219Y0143506D01*
X0219219Y0150706D01*
X0222219Y0153706D01*
X0300819Y0153706D01*
X0303819Y0156706D01*
X0327219Y0156706D01*
X0327480Y0157181D01*
X0344619Y0142306D02*
X0344619Y0206506D01*
X0344619Y0142306D02*
X0320019Y0117706D01*
X0320019Y0115906D01*
X0319606Y0115882D01*
X0294219Y0100306D02*
X0267219Y0100306D01*
X0236019Y0069106D01*
X0236019Y0030106D01*
X0221019Y0015106D01*
X0221019Y0013306D01*
X0220433Y0012929D01*
X0240433Y0012929D02*
X0240819Y0013306D01*
X0240819Y0015106D01*
X0246219Y0020506D01*
X0246219Y0051106D01*
X0257019Y0048106D02*
X0290019Y0015106D01*
X0290019Y0013306D01*
X0290433Y0012929D01*
X0310419Y0013306D02*
X0310433Y0012929D01*
X0310419Y0013306D02*
X0310419Y0054106D01*
X0290019Y0074506D01*
X0290019Y0075706D01*
X0289606Y0075882D01*
X0293619Y0080506D02*
X0285219Y0080506D01*
X0278019Y0073306D01*
X0293619Y0080506D02*
X0308019Y0066106D01*
X0319419Y0066106D01*
X0319606Y0065882D01*
X0330819Y0063106D02*
X0330819Y0013306D01*
X0330433Y0012929D01*
X0289606Y0055882D02*
X0289419Y0055906D01*
X0260619Y0084706D01*
X0257019Y0086506D02*
X0257019Y0048106D01*
X0257019Y0086506D02*
X0266019Y0095506D01*
X0289419Y0095506D01*
X0289606Y0095882D01*
X0294219Y0100306D02*
X0318219Y0076306D01*
X0319419Y0076306D01*
X0319606Y0075882D01*
X0330819Y0063106D02*
X0346419Y0078706D01*
X0347019Y0078706D01*
X0354819Y0086506D01*
X0355394Y0086512D01*
X0250419Y0142306D02*
X0245019Y0147706D01*
X0244528Y0148244D01*
X0213504Y0221984D02*
X0213219Y0222106D01*
X0196419Y0222106D01*
X0188019Y0230506D01*
X0174819Y0230506D01*
X0171219Y0226906D01*
X0166419Y0222706D02*
X0166535Y0222378D01*
X0166419Y0222706D02*
X0158619Y0230506D01*
X0123219Y0230506D01*
X0115419Y0222706D01*
X0115354Y0222378D01*
D26*
X0120139Y0222211D02*
X0120570Y0222211D01*
X0120139Y0223771D02*
X0120570Y0224202D01*
X0120570Y0218426D01*
X0121298Y0216668D01*
X0122644Y0215322D01*
X0124403Y0214594D01*
X0126306Y0214594D01*
X0128064Y0215322D01*
X0129410Y0216668D01*
X0130139Y0218426D01*
X0130139Y0226330D01*
X0129479Y0227921D01*
X0131229Y0227921D01*
X0130570Y0226330D01*
X0130570Y0218426D01*
X0131298Y0216668D01*
X0132644Y0215322D01*
X0134403Y0214594D01*
X0136306Y0214594D01*
X0138064Y0215322D01*
X0139410Y0216668D01*
X0140139Y0218426D01*
X0140139Y0226330D01*
X0139479Y0227921D01*
X0152237Y0227921D01*
X0151916Y0227291D01*
X0151674Y0226545D01*
X0151551Y0225770D01*
X0151551Y0222394D01*
X0156520Y0222394D01*
X0156520Y0222362D01*
X0156551Y0222362D01*
X0156551Y0214394D01*
X0156928Y0214394D01*
X0157703Y0214516D01*
X0158449Y0214759D01*
X0159148Y0215115D01*
X0159782Y0215576D01*
X0160337Y0216131D01*
X0160798Y0216766D01*
X0161155Y0217465D01*
X0161397Y0218211D01*
X0161520Y0218986D01*
X0161520Y0222362D01*
X0156551Y0222362D01*
X0156551Y0222394D01*
X0161520Y0222394D01*
X0161520Y0223950D01*
X0161751Y0223719D01*
X0161751Y0218426D01*
X0162480Y0216668D01*
X0163825Y0215322D01*
X0165584Y0214594D01*
X0167487Y0214594D01*
X0169245Y0215322D01*
X0170591Y0216668D01*
X0171320Y0218426D01*
X0171320Y0226330D01*
X0170591Y0228088D01*
X0169245Y0229434D01*
X0167487Y0230162D01*
X0165584Y0230162D01*
X0163825Y0229434D01*
X0163585Y0229194D01*
X0160083Y0232696D01*
X0159133Y0233090D01*
X0122705Y0233090D01*
X0121755Y0232696D01*
X0121028Y0231969D01*
X0118278Y0229220D01*
X0118064Y0229434D01*
X0116306Y0230162D01*
X0114403Y0230162D01*
X0112644Y0229434D01*
X0111298Y0228088D01*
X0110570Y0226330D01*
X0110570Y0218426D01*
X0111298Y0216668D01*
X0112644Y0215322D01*
X0114403Y0214594D01*
X0116306Y0214594D01*
X0118064Y0215322D01*
X0119410Y0216668D01*
X0120139Y0218426D01*
X0120139Y0223771D01*
X0120546Y0224178D02*
X0120570Y0224178D01*
X0120570Y0220244D02*
X0120139Y0220244D01*
X0120077Y0218277D02*
X0120632Y0218277D01*
X0121656Y0216310D02*
X0119052Y0216310D01*
X0111656Y0216310D02*
X0109286Y0216310D01*
X0109156Y0216131D02*
X0109617Y0216766D01*
X0109973Y0217465D01*
X0110216Y0218211D01*
X0110339Y0218986D01*
X0110339Y0222362D01*
X0105370Y0222362D01*
X0105370Y0214394D01*
X0105747Y0214394D01*
X0106521Y0214516D01*
X0107268Y0214759D01*
X0107967Y0215115D01*
X0108601Y0215576D01*
X0109156Y0216131D01*
X0110226Y0218277D02*
X0110632Y0218277D01*
X0110570Y0220244D02*
X0110339Y0220244D01*
X0110339Y0222211D02*
X0110570Y0222211D01*
X0110339Y0222394D02*
X0110339Y0225770D01*
X0110216Y0226545D01*
X0109973Y0227291D01*
X0109617Y0227990D01*
X0109156Y0228625D01*
X0108601Y0229180D01*
X0107967Y0229641D01*
X0107268Y0229997D01*
X0106521Y0230239D01*
X0105747Y0230362D01*
X0105370Y0230362D01*
X0105370Y0222394D01*
X0105339Y0222394D01*
X0105339Y0230362D01*
X0104962Y0230362D01*
X0104187Y0230239D01*
X0103441Y0229997D01*
X0102742Y0229641D01*
X0102107Y0229180D01*
X0101553Y0228625D01*
X0101091Y0227990D01*
X0100735Y0227291D01*
X0100493Y0226545D01*
X0100370Y0225770D01*
X0100370Y0222394D01*
X0105338Y0222394D01*
X0105338Y0222362D01*
X0100370Y0222362D01*
X0100370Y0218986D01*
X0100493Y0218211D01*
X0100735Y0217465D01*
X0101091Y0216766D01*
X0101553Y0216131D01*
X0102107Y0215576D01*
X0102742Y0215115D01*
X0103441Y0214759D01*
X0104187Y0214516D01*
X0104962Y0214394D01*
X0105339Y0214394D01*
X0105339Y0222362D01*
X0105370Y0222362D01*
X0105370Y0222394D01*
X0110339Y0222394D01*
X0110339Y0224178D02*
X0110570Y0224178D01*
X0110570Y0226145D02*
X0110279Y0226145D01*
X0109529Y0228112D02*
X0111323Y0228112D01*
X0114203Y0230079D02*
X0107014Y0230079D01*
X0105370Y0230079D02*
X0105339Y0230079D01*
X0103694Y0230079D02*
X0027307Y0230079D01*
X0027307Y0231344D02*
X0027307Y0228373D01*
X0026538Y0225503D01*
X0025053Y0222930D01*
X0022952Y0220829D01*
X0020379Y0219344D01*
X0017509Y0218575D01*
X0014538Y0218575D01*
X0011668Y0219344D01*
X0010378Y0220089D01*
X0010378Y0122922D01*
X0010837Y0124031D01*
X0011893Y0125087D01*
X0011893Y0125087D01*
X0015264Y0128458D01*
X0015264Y0130044D01*
X0016099Y0132059D01*
X0017641Y0133602D01*
X0018488Y0133953D01*
X0017641Y0134303D01*
X0016099Y0135846D01*
X0015264Y0137862D01*
X0015264Y0140044D01*
X0016099Y0142059D01*
X0017641Y0143602D01*
X0018241Y0143850D01*
X0017769Y0144091D01*
X0017045Y0144617D01*
X0016412Y0145250D01*
X0015886Y0145974D01*
X0015480Y0146771D01*
X0015204Y0147622D01*
X0015064Y0148505D01*
X0015064Y0148937D01*
X0020732Y0148937D01*
X0020732Y0148969D01*
X0020732Y0154637D01*
X0020301Y0154637D01*
X0019417Y0154497D01*
X0018566Y0154221D01*
X0017769Y0153814D01*
X0017045Y0153288D01*
X0016412Y0152656D01*
X0015886Y0151932D01*
X0015480Y0151135D01*
X0015204Y0150284D01*
X0015064Y0149400D01*
X0015064Y0148969D01*
X0020732Y0148969D01*
X0020764Y0148969D01*
X0020764Y0154637D01*
X0021195Y0154637D01*
X0022079Y0154497D01*
X0022930Y0154221D01*
X0023727Y0153814D01*
X0024451Y0153288D01*
X0025084Y0152656D01*
X0025610Y0151932D01*
X0026016Y0151135D01*
X0026292Y0150284D01*
X0026432Y0149400D01*
X0026432Y0148969D01*
X0020764Y0148969D01*
X0020764Y0148937D01*
X0026432Y0148937D01*
X0026432Y0148505D01*
X0026292Y0147622D01*
X0026016Y0146771D01*
X0025610Y0145974D01*
X0025084Y0145250D01*
X0024451Y0144617D01*
X0023727Y0144091D01*
X0023255Y0143850D01*
X0023855Y0143602D01*
X0025397Y0142059D01*
X0026232Y0140044D01*
X0026232Y0137862D01*
X0025397Y0135846D01*
X0023855Y0134303D01*
X0023008Y0133953D01*
X0023855Y0133602D01*
X0025397Y0132059D01*
X0026232Y0130044D01*
X0026232Y0128774D01*
X0040835Y0143376D01*
X0040835Y0154115D01*
X0038998Y0155952D01*
X0038998Y0159749D01*
X0041684Y0162435D01*
X0045482Y0162435D01*
X0048167Y0159749D01*
X0048167Y0155952D01*
X0046003Y0153788D01*
X0046003Y0144797D01*
X0060666Y0159460D01*
X0060666Y0165852D01*
X0061237Y0167231D01*
X0081037Y0187031D01*
X0082093Y0188087D01*
X0083472Y0188658D01*
X0102594Y0188658D01*
X0103616Y0189680D01*
X0105485Y0190454D01*
X0107507Y0190454D01*
X0109376Y0189680D01*
X0110806Y0188250D01*
X0111580Y0186381D01*
X0111580Y0184359D01*
X0110806Y0182490D01*
X0109376Y0181060D01*
X0107507Y0180286D01*
X0105485Y0180286D01*
X0103616Y0181060D01*
X0103523Y0181153D01*
X0085773Y0181153D01*
X0071239Y0166619D01*
X0072405Y0166136D01*
X0073638Y0164902D01*
X0074305Y0163291D01*
X0074305Y0156347D01*
X0073638Y0154735D01*
X0072405Y0153502D01*
X0070793Y0152835D01*
X0069049Y0152835D01*
X0067438Y0153502D01*
X0066380Y0154560D01*
X0044255Y0132435D01*
X0045482Y0132435D01*
X0047426Y0130490D01*
X0065537Y0130490D01*
X0065537Y0133291D01*
X0066204Y0134902D01*
X0067438Y0136136D01*
X0069049Y0136803D01*
X0070793Y0136803D01*
X0072405Y0136136D01*
X0073638Y0134902D01*
X0074305Y0133291D01*
X0074305Y0126347D01*
X0073638Y0124735D01*
X0073003Y0124101D01*
X0073003Y0121250D01*
X0073785Y0121250D01*
X0076353Y0118682D01*
X0076353Y0115050D01*
X0073785Y0112482D01*
X0070152Y0112482D01*
X0067584Y0115050D01*
X0067584Y0118682D01*
X0067835Y0118933D01*
X0067835Y0123338D01*
X0067438Y0123502D01*
X0066204Y0124735D01*
X0065962Y0125321D01*
X0047537Y0125321D01*
X0045482Y0123266D01*
X0045117Y0123266D01*
X0045372Y0122652D01*
X0045372Y0119663D01*
X0046353Y0118682D01*
X0046353Y0115050D01*
X0045972Y0114669D01*
X0045972Y0080166D01*
X0046825Y0079312D01*
X0046825Y0075680D01*
X0044257Y0073112D01*
X0040625Y0073112D01*
X0038057Y0075680D01*
X0038057Y0079312D01*
X0038466Y0079722D01*
X0038466Y0088153D01*
X0017472Y0088153D01*
X0016093Y0088724D01*
X0015037Y0089780D01*
X0015037Y0089780D01*
X0010837Y0093980D01*
X0010378Y0095089D01*
X0010378Y0081633D01*
X0010625Y0081880D01*
X0014257Y0081880D01*
X0016825Y0079312D01*
X0016825Y0075680D01*
X0014257Y0073112D01*
X0010625Y0073112D01*
X0010378Y0073359D01*
X0010378Y0056191D01*
X0010705Y0056981D01*
X0012248Y0058523D01*
X0014263Y0059358D01*
X0016445Y0059358D01*
X0018461Y0058523D01*
X0020004Y0056981D01*
X0020252Y0056381D01*
X0020493Y0056853D01*
X0021019Y0057577D01*
X0021651Y0058210D01*
X0022375Y0058736D01*
X0023172Y0059142D01*
X0024023Y0059418D01*
X0024907Y0059558D01*
X0025354Y0059558D01*
X0025354Y0053874D01*
X0025354Y0053874D01*
X0025354Y0053874D01*
X0025354Y0048190D01*
X0024907Y0048190D01*
X0024023Y0048330D01*
X0023172Y0048606D01*
X0022375Y0049012D01*
X0021651Y0049538D01*
X0021019Y0050171D01*
X0020493Y0050895D01*
X0020252Y0051367D01*
X0020004Y0050767D01*
X0018461Y0049225D01*
X0016445Y0048390D01*
X0014263Y0048390D01*
X0012248Y0049225D01*
X0010705Y0050767D01*
X0010378Y0051557D01*
X0010378Y0021684D01*
X0012062Y0022656D01*
X0014932Y0023425D01*
X0017903Y0023425D01*
X0020773Y0022656D01*
X0023346Y0021171D01*
X0025446Y0019070D01*
X0026932Y0016497D01*
X0027701Y0013627D01*
X0027701Y0010656D01*
X0026932Y0007786D01*
X0025891Y0005984D01*
X0185765Y0005984D01*
X0185571Y0006250D01*
X0185165Y0007047D01*
X0184889Y0007898D01*
X0184749Y0008782D01*
X0184749Y0012813D01*
X0190317Y0012813D01*
X0190317Y0013045D01*
X0184749Y0013045D01*
X0184749Y0014928D01*
X0182945Y0013124D01*
X0181565Y0012553D01*
X0175600Y0012553D01*
X0175357Y0012311D01*
X0173672Y0011613D01*
X0166249Y0011613D01*
X0164564Y0012311D01*
X0163274Y0013600D01*
X0162576Y0015285D01*
X0162576Y0017109D01*
X0163274Y0018794D01*
X0164564Y0020083D01*
X0166249Y0020781D01*
X0173672Y0020781D01*
X0175357Y0020083D01*
X0175382Y0020058D01*
X0179264Y0020058D01*
X0184837Y0025631D01*
X0185893Y0026687D01*
X0187272Y0027258D01*
X0194165Y0027258D01*
X0195545Y0026687D01*
X0200118Y0022113D01*
X0201120Y0022113D01*
X0218293Y0039287D01*
X0219672Y0039858D01*
X0230118Y0039858D01*
X0231373Y0040378D01*
X0232958Y0040378D01*
X0233435Y0040180D01*
X0233435Y0052407D01*
X0233145Y0052312D01*
X0232495Y0052209D01*
X0232165Y0052209D01*
X0232165Y0056394D01*
X0232165Y0056394D01*
X0227981Y0056394D01*
X0227981Y0056723D01*
X0228084Y0057374D01*
X0228288Y0058000D01*
X0228587Y0058587D01*
X0228974Y0059120D01*
X0229439Y0059585D01*
X0229972Y0059972D01*
X0230559Y0060271D01*
X0231186Y0060475D01*
X0231836Y0060578D01*
X0232165Y0060578D01*
X0232165Y0056394D01*
X0232165Y0056394D01*
X0227981Y0056394D01*
X0227981Y0056064D01*
X0228084Y0055414D01*
X0228288Y0054787D01*
X0228587Y0054201D01*
X0228974Y0053668D01*
X0229439Y0053202D01*
X0229972Y0052815D01*
X0230559Y0052516D01*
X0231186Y0052312D01*
X0231836Y0052209D01*
X0232165Y0052209D01*
X0232165Y0056394D01*
X0232165Y0060578D01*
X0232495Y0060578D01*
X0233145Y0060475D01*
X0233435Y0060381D01*
X0233435Y0069620D01*
X0233828Y0070569D01*
X0234555Y0071296D01*
X0265755Y0102496D01*
X0266705Y0102890D01*
X0283798Y0102890D01*
X0283290Y0103398D01*
X0282622Y0105010D01*
X0282622Y0106754D01*
X0283290Y0108365D01*
X0284523Y0109599D01*
X0286134Y0110266D01*
X0293078Y0110266D01*
X0294690Y0109599D01*
X0295923Y0108365D01*
X0296591Y0106754D01*
X0296591Y0105010D01*
X0295923Y0103398D01*
X0295215Y0102690D01*
X0295683Y0102496D01*
X0296410Y0101769D01*
X0312622Y0085557D01*
X0312622Y0086754D01*
X0313290Y0088365D01*
X0314523Y0089599D01*
X0316134Y0090266D01*
X0323078Y0090266D01*
X0324690Y0089599D01*
X0325923Y0088365D01*
X0326591Y0086754D01*
X0326591Y0085010D01*
X0325923Y0083398D01*
X0324690Y0082165D01*
X0323078Y0081498D01*
X0316681Y0081498D01*
X0317913Y0080266D01*
X0323078Y0080266D01*
X0324690Y0079599D01*
X0325923Y0078365D01*
X0326591Y0076754D01*
X0326591Y0075010D01*
X0325923Y0073398D01*
X0324690Y0072165D01*
X0323078Y0071498D01*
X0316134Y0071498D01*
X0314523Y0072165D01*
X0313290Y0073398D01*
X0312622Y0075010D01*
X0312622Y0076754D01*
X0313060Y0077810D01*
X0296377Y0094493D01*
X0295923Y0093398D01*
X0294690Y0092165D01*
X0293078Y0091498D01*
X0286134Y0091498D01*
X0284523Y0092165D01*
X0283767Y0092921D01*
X0267089Y0092921D01*
X0259603Y0085435D01*
X0259603Y0049176D01*
X0287450Y0021329D01*
X0289342Y0022113D01*
X0291524Y0022113D01*
X0293540Y0021278D01*
X0295082Y0019736D01*
X0295433Y0018889D01*
X0295784Y0019736D01*
X0297326Y0021278D01*
X0299342Y0022113D01*
X0301524Y0022113D01*
X0303540Y0021278D01*
X0305082Y0019736D01*
X0305433Y0018889D01*
X0305784Y0019736D01*
X0307326Y0021278D01*
X0307835Y0021489D01*
X0307835Y0053035D01*
X0296377Y0064493D01*
X0295923Y0063398D01*
X0294690Y0062165D01*
X0293078Y0061498D01*
X0286134Y0061498D01*
X0284523Y0062165D01*
X0283290Y0063398D01*
X0282622Y0065010D01*
X0282622Y0066754D01*
X0283290Y0068365D01*
X0284523Y0069599D01*
X0286134Y0070266D01*
X0290604Y0070266D01*
X0289372Y0071498D01*
X0286134Y0071498D01*
X0284523Y0072165D01*
X0283290Y0073398D01*
X0282843Y0074475D01*
X0281803Y0073435D01*
X0281803Y0072553D01*
X0281227Y0071162D01*
X0280163Y0070097D01*
X0278772Y0069521D01*
X0277266Y0069521D01*
X0275875Y0070097D01*
X0274811Y0071162D01*
X0274235Y0072553D01*
X0274235Y0074058D01*
X0274811Y0075449D01*
X0275875Y0076514D01*
X0277266Y0077090D01*
X0278148Y0077090D01*
X0283755Y0082696D01*
X0283922Y0082766D01*
X0283290Y0083398D01*
X0282622Y0085010D01*
X0282622Y0086754D01*
X0283290Y0088365D01*
X0284523Y0089599D01*
X0286134Y0090266D01*
X0293078Y0090266D01*
X0294690Y0089599D01*
X0295923Y0088365D01*
X0296591Y0086754D01*
X0296591Y0085010D01*
X0295923Y0083398D01*
X0295152Y0082627D01*
X0295810Y0081969D01*
X0309089Y0068690D01*
X0313614Y0068690D01*
X0314523Y0069599D01*
X0316134Y0070266D01*
X0323078Y0070266D01*
X0324690Y0069599D01*
X0325923Y0068365D01*
X0326591Y0066754D01*
X0326591Y0065010D01*
X0325923Y0063398D01*
X0324690Y0062165D01*
X0323078Y0061498D01*
X0316134Y0061498D01*
X0314523Y0062165D01*
X0313290Y0063398D01*
X0313239Y0063521D01*
X0307505Y0063521D01*
X0306555Y0063915D01*
X0296259Y0074210D01*
X0295923Y0073398D01*
X0295352Y0072827D01*
X0311883Y0056296D01*
X0312610Y0055569D01*
X0312622Y0055540D01*
X0312622Y0056754D01*
X0313290Y0058365D01*
X0314523Y0059599D01*
X0316134Y0060266D01*
X0323078Y0060266D01*
X0324690Y0059599D01*
X0325923Y0058365D01*
X0326591Y0056754D01*
X0326591Y0055010D01*
X0325923Y0053398D01*
X0324690Y0052165D01*
X0323078Y0051498D01*
X0316134Y0051498D01*
X0314523Y0052165D01*
X0313290Y0053398D01*
X0313003Y0054090D01*
X0313003Y0021501D01*
X0313540Y0021278D01*
X0315082Y0019736D01*
X0315433Y0018889D01*
X0315784Y0019736D01*
X0317326Y0021278D01*
X0319342Y0022113D01*
X0321524Y0022113D01*
X0323540Y0021278D01*
X0325082Y0019736D01*
X0325433Y0018889D01*
X0325784Y0019736D01*
X0327326Y0021278D01*
X0328235Y0021655D01*
X0328235Y0063620D01*
X0328628Y0064569D01*
X0329355Y0065296D01*
X0344955Y0080896D01*
X0345905Y0081290D01*
X0345948Y0081290D01*
X0351009Y0086351D01*
X0351009Y0088328D01*
X0353578Y0090896D01*
X0357210Y0090896D01*
X0359778Y0088328D01*
X0359778Y0084696D01*
X0357210Y0082128D01*
X0354096Y0082128D01*
X0350663Y0078694D01*
X0350945Y0078694D01*
X0350945Y0074110D01*
X0350945Y0069526D01*
X0353906Y0069526D01*
X0354618Y0069639D01*
X0355305Y0069862D01*
X0355948Y0070189D01*
X0356531Y0070614D01*
X0357042Y0071124D01*
X0357466Y0071708D01*
X0357793Y0072350D01*
X0358016Y0073037D01*
X0358129Y0073749D01*
X0358129Y0074110D01*
X0350945Y0074110D01*
X0350945Y0074110D01*
X0350945Y0074110D01*
X0350945Y0069526D01*
X0347984Y0069526D01*
X0347271Y0069639D01*
X0346585Y0069862D01*
X0345942Y0070189D01*
X0345358Y0070614D01*
X0344848Y0071124D01*
X0344424Y0071708D01*
X0344096Y0072350D01*
X0344004Y0072636D01*
X0333403Y0062035D01*
X0333403Y0021335D01*
X0333540Y0021278D01*
X0335082Y0019736D01*
X0335433Y0018889D01*
X0335784Y0019736D01*
X0337326Y0021278D01*
X0339342Y0022113D01*
X0341524Y0022113D01*
X0343540Y0021278D01*
X0345082Y0019736D01*
X0345917Y0017720D01*
X0345917Y0016751D01*
X0346060Y0017284D01*
X0347546Y0019857D01*
X0349647Y0021958D01*
X0352220Y0023444D01*
X0355089Y0024213D01*
X0358060Y0024213D01*
X0360930Y0023444D01*
X0362417Y0022585D01*
X0362417Y0220202D01*
X0360930Y0219344D01*
X0358060Y0218575D01*
X0355089Y0218575D01*
X0352220Y0219344D01*
X0349647Y0220829D01*
X0347546Y0222930D01*
X0346060Y0225503D01*
X0345291Y0228373D01*
X0345291Y0231344D01*
X0346060Y0234214D01*
X0347033Y0235898D01*
X0025566Y0235898D01*
X0026538Y0234214D01*
X0027307Y0231344D01*
X0027119Y0232046D02*
X0121105Y0232046D01*
X0119138Y0230079D02*
X0116506Y0230079D01*
X0105370Y0228112D02*
X0105339Y0228112D01*
X0105339Y0226145D02*
X0105370Y0226145D01*
X0105339Y0224178D02*
X0105370Y0224178D01*
X0105339Y0222211D02*
X0105370Y0222211D01*
X0105339Y0220244D02*
X0105370Y0220244D01*
X0105339Y0218277D02*
X0105370Y0218277D01*
X0105339Y0216310D02*
X0105370Y0216310D01*
X0101422Y0216310D02*
X0010378Y0216310D01*
X0010378Y0214343D02*
X0180727Y0214343D01*
X0179497Y0215573D02*
X0184755Y0210315D01*
X0185705Y0209921D01*
X0323737Y0209921D01*
X0323506Y0209690D01*
X0167705Y0209690D01*
X0166755Y0209296D01*
X0166028Y0208569D01*
X0123428Y0165969D01*
X0123177Y0165363D01*
X0122405Y0166136D01*
X0120793Y0166803D01*
X0119049Y0166803D01*
X0117438Y0166136D01*
X0116204Y0164902D01*
X0115537Y0163291D01*
X0115537Y0156347D01*
X0116204Y0154735D01*
X0117438Y0153502D01*
X0118373Y0153115D01*
X0107828Y0142569D01*
X0107435Y0141620D01*
X0107435Y0136133D01*
X0106741Y0135438D01*
X0106683Y0135496D01*
X0103003Y0139176D01*
X0103003Y0154101D01*
X0103638Y0154735D01*
X0104305Y0156347D01*
X0104305Y0163291D01*
X0103638Y0164902D01*
X0102405Y0166136D01*
X0100793Y0166803D01*
X0099049Y0166803D01*
X0097438Y0166136D01*
X0096204Y0164902D01*
X0095537Y0163291D01*
X0095537Y0156347D01*
X0096204Y0154735D01*
X0097438Y0153502D01*
X0097835Y0153338D01*
X0097835Y0137591D01*
X0098228Y0136642D01*
X0098354Y0136515D01*
X0097438Y0136136D01*
X0096641Y0135338D01*
X0092803Y0139176D01*
X0092803Y0153901D01*
X0093638Y0154735D01*
X0094305Y0156347D01*
X0094305Y0163291D01*
X0093638Y0164902D01*
X0092405Y0166136D01*
X0090793Y0166803D01*
X0089049Y0166803D01*
X0087438Y0166136D01*
X0086204Y0164902D01*
X0085537Y0163291D01*
X0085537Y0156347D01*
X0086204Y0154735D01*
X0087438Y0153502D01*
X0087635Y0153421D01*
X0087635Y0137591D01*
X0088028Y0136642D01*
X0088213Y0136457D01*
X0087438Y0136136D01*
X0086204Y0134902D01*
X0085537Y0133291D01*
X0085537Y0126347D01*
X0086204Y0124735D01*
X0087438Y0123502D01*
X0089049Y0122835D01*
X0090793Y0122835D01*
X0092405Y0123502D01*
X0093035Y0124132D01*
X0093035Y0096791D01*
X0093404Y0095899D01*
X0093259Y0095899D01*
X0090573Y0093214D01*
X0090573Y0091315D01*
X0095157Y0091315D01*
X0095157Y0091315D01*
X0090573Y0091315D01*
X0090573Y0089416D01*
X0093259Y0086731D01*
X0095157Y0086731D01*
X0095157Y0091315D01*
X0095158Y0091315D01*
X0095158Y0086731D01*
X0097056Y0086731D01*
X0098435Y0088109D01*
X0098435Y0071591D01*
X0098828Y0070642D01*
X0103771Y0065699D01*
X0103578Y0065699D01*
X0101009Y0063131D01*
X0101009Y0059499D01*
X0103578Y0056931D01*
X0107210Y0056931D01*
X0108397Y0058118D01*
X0108428Y0058042D01*
X0113761Y0052709D01*
X0112910Y0052356D01*
X0111677Y0051123D01*
X0111009Y0049511D01*
X0111009Y0042567D01*
X0111677Y0040956D01*
X0112910Y0039723D01*
X0114522Y0039055D01*
X0116266Y0039055D01*
X0117877Y0039723D01*
X0119110Y0040956D01*
X0119778Y0042567D01*
X0119778Y0047321D01*
X0128781Y0047321D01*
X0128324Y0046216D01*
X0128324Y0038313D01*
X0129052Y0036555D01*
X0130398Y0035209D01*
X0132156Y0034480D01*
X0134060Y0034480D01*
X0135818Y0035209D01*
X0137164Y0036555D01*
X0137892Y0038313D01*
X0137892Y0046216D01*
X0137434Y0047321D01*
X0142548Y0047321D01*
X0146124Y0043746D01*
X0146124Y0038313D01*
X0146852Y0036555D01*
X0148198Y0035209D01*
X0149378Y0034720D01*
X0141948Y0027290D01*
X0050105Y0027290D01*
X0049155Y0026896D01*
X0046041Y0023783D01*
X0045697Y0023925D01*
X0043515Y0023925D01*
X0041500Y0023090D01*
X0039957Y0021548D01*
X0039122Y0019532D01*
X0039122Y0017350D01*
X0039957Y0015334D01*
X0041500Y0013792D01*
X0043515Y0012957D01*
X0045697Y0012957D01*
X0047713Y0013792D01*
X0049256Y0015334D01*
X0049504Y0015934D01*
X0049745Y0015462D01*
X0050271Y0014738D01*
X0050903Y0014105D01*
X0051627Y0013579D01*
X0052424Y0013173D01*
X0053275Y0012897D01*
X0054159Y0012757D01*
X0054591Y0012757D01*
X0054591Y0018425D01*
X0054622Y0018425D01*
X0054622Y0012757D01*
X0055054Y0012757D01*
X0055937Y0012897D01*
X0056788Y0013173D01*
X0057585Y0013579D01*
X0058309Y0014105D01*
X0058942Y0014738D01*
X0059468Y0015462D01*
X0059709Y0015934D01*
X0059957Y0015334D01*
X0061500Y0013792D01*
X0063515Y0012957D01*
X0065697Y0012957D01*
X0067713Y0013792D01*
X0069256Y0015334D01*
X0070091Y0017350D01*
X0070091Y0019532D01*
X0069256Y0021548D01*
X0068682Y0022121D01*
X0092675Y0022121D01*
X0091677Y0021123D01*
X0091009Y0019511D01*
X0091009Y0012567D01*
X0091677Y0010956D01*
X0092910Y0009723D01*
X0094522Y0009055D01*
X0096266Y0009055D01*
X0097877Y0009723D01*
X0099110Y0010956D01*
X0099778Y0012567D01*
X0099778Y0019511D01*
X0099110Y0021123D01*
X0098112Y0022121D01*
X0102675Y0022121D01*
X0101677Y0021123D01*
X0101009Y0019511D01*
X0101009Y0012567D01*
X0101677Y0010956D01*
X0102910Y0009723D01*
X0104522Y0009055D01*
X0106266Y0009055D01*
X0107877Y0009723D01*
X0109110Y0010956D01*
X0109778Y0012567D01*
X0109778Y0019511D01*
X0109110Y0021123D01*
X0108112Y0022121D01*
X0112675Y0022121D01*
X0111677Y0021123D01*
X0111009Y0019511D01*
X0111009Y0012567D01*
X0111677Y0010956D01*
X0112910Y0009723D01*
X0114522Y0009055D01*
X0116266Y0009055D01*
X0117877Y0009723D01*
X0119110Y0010956D01*
X0119778Y0012567D01*
X0119778Y0019511D01*
X0119110Y0021123D01*
X0118112Y0022121D01*
X0128947Y0022121D01*
X0128324Y0020616D01*
X0128324Y0012713D01*
X0129052Y0010955D01*
X0130398Y0009609D01*
X0132156Y0008880D01*
X0134060Y0008880D01*
X0135818Y0009609D01*
X0137164Y0010955D01*
X0137892Y0012713D01*
X0137892Y0020616D01*
X0137269Y0022121D01*
X0143533Y0022121D01*
X0144483Y0022515D01*
X0145210Y0023242D01*
X0192010Y0070042D01*
X0192403Y0070991D01*
X0192403Y0123501D01*
X0192405Y0123502D01*
X0193638Y0124735D01*
X0194305Y0126347D01*
X0194305Y0133291D01*
X0193879Y0134321D01*
X0195964Y0134321D01*
X0195537Y0133291D01*
X0195537Y0126347D01*
X0196204Y0124735D01*
X0197438Y0123502D01*
X0199049Y0122835D01*
X0200793Y0122835D01*
X0202405Y0123502D01*
X0203638Y0124735D01*
X0204305Y0126347D01*
X0204305Y0133291D01*
X0203879Y0134321D01*
X0213348Y0134321D01*
X0218828Y0128842D01*
X0219555Y0128115D01*
X0220505Y0127721D01*
X0244933Y0127721D01*
X0245883Y0128115D01*
X0251883Y0134115D01*
X0252610Y0134842D01*
X0253003Y0135791D01*
X0253003Y0139721D01*
X0319933Y0139721D01*
X0320883Y0140115D01*
X0321610Y0140842D01*
X0334210Y0153442D01*
X0334281Y0153614D01*
X0335499Y0152397D01*
X0337480Y0152397D01*
X0337480Y0157181D01*
X0337480Y0157181D01*
X0337480Y0161965D01*
X0335499Y0161965D01*
X0334603Y0161070D01*
X0334603Y0163575D01*
X0335581Y0162597D01*
X0339379Y0162597D01*
X0342035Y0165252D01*
X0342035Y0159393D01*
X0339462Y0161965D01*
X0337480Y0161965D01*
X0337480Y0157181D01*
X0337480Y0157181D01*
X0337480Y0152397D01*
X0339462Y0152397D01*
X0342035Y0154970D01*
X0342035Y0143376D01*
X0326246Y0127587D01*
X0325923Y0128365D01*
X0324690Y0129599D01*
X0323078Y0130266D01*
X0316134Y0130266D01*
X0314523Y0129599D01*
X0313290Y0128365D01*
X0312622Y0126754D01*
X0312622Y0125010D01*
X0313290Y0123398D01*
X0314523Y0122165D01*
X0316134Y0121498D01*
X0320156Y0121498D01*
X0318925Y0120266D01*
X0316134Y0120266D01*
X0314523Y0119599D01*
X0313290Y0118365D01*
X0312622Y0116754D01*
X0312622Y0115010D01*
X0313290Y0113398D01*
X0314523Y0112165D01*
X0316134Y0111498D01*
X0323078Y0111498D01*
X0324690Y0112165D01*
X0325923Y0113398D01*
X0326591Y0115010D01*
X0326591Y0116754D01*
X0325923Y0118365D01*
X0325128Y0119160D01*
X0346083Y0140115D01*
X0346810Y0140842D01*
X0347203Y0141791D01*
X0347203Y0207020D01*
X0346810Y0207969D01*
X0340810Y0213969D01*
X0340781Y0213998D01*
X0342065Y0215282D01*
X0342065Y0217553D01*
X0351066Y0208551D01*
X0351066Y0118385D01*
X0351009Y0118328D01*
X0351009Y0114696D01*
X0353578Y0112128D01*
X0357210Y0112128D01*
X0359778Y0114696D01*
X0359778Y0118328D01*
X0358572Y0119534D01*
X0358572Y0210852D01*
X0358000Y0212231D01*
X0342065Y0228167D01*
X0342065Y0229080D01*
X0339379Y0231765D01*
X0335581Y0231765D01*
X0335074Y0231258D01*
X0329886Y0231258D01*
X0329379Y0231765D01*
X0325581Y0231765D01*
X0322896Y0229080D01*
X0322896Y0225282D01*
X0325581Y0222597D01*
X0329379Y0222597D01*
X0330535Y0223753D01*
X0334426Y0223753D01*
X0335581Y0222597D01*
X0337020Y0222597D01*
X0337852Y0221765D01*
X0335581Y0221765D01*
X0332896Y0219080D01*
X0332896Y0215282D01*
X0333089Y0215090D01*
X0331872Y0215090D01*
X0332065Y0215282D01*
X0332065Y0219080D01*
X0329379Y0221765D01*
X0325581Y0221765D01*
X0322896Y0219080D01*
X0322896Y0215282D01*
X0323089Y0215090D01*
X0236375Y0215090D01*
X0237560Y0216274D01*
X0238288Y0218033D01*
X0238288Y0225936D01*
X0237560Y0227694D01*
X0236214Y0229040D01*
X0234456Y0229768D01*
X0232552Y0229768D01*
X0230794Y0229040D01*
X0229448Y0227694D01*
X0228720Y0225936D01*
X0228720Y0218033D01*
X0229448Y0216274D01*
X0230632Y0215090D01*
X0226623Y0215090D01*
X0226751Y0215182D01*
X0227306Y0215737D01*
X0227767Y0216372D01*
X0228123Y0217071D01*
X0228365Y0217817D01*
X0228488Y0218592D01*
X0228488Y0221968D01*
X0223520Y0221968D01*
X0223520Y0222000D01*
X0228488Y0222000D01*
X0228488Y0225377D01*
X0228365Y0226151D01*
X0228123Y0226898D01*
X0227767Y0227597D01*
X0227306Y0228231D01*
X0226751Y0228786D01*
X0226116Y0229247D01*
X0225417Y0229603D01*
X0224671Y0229846D01*
X0223896Y0229968D01*
X0223520Y0229968D01*
X0223520Y0222000D01*
X0223488Y0222000D01*
X0223488Y0221968D01*
X0218520Y0221968D01*
X0218520Y0218592D01*
X0218642Y0217817D01*
X0218885Y0217071D01*
X0219241Y0216372D01*
X0219702Y0215737D01*
X0220257Y0215182D01*
X0220385Y0215090D01*
X0216623Y0215090D01*
X0216751Y0215182D01*
X0217306Y0215737D01*
X0217767Y0216372D01*
X0218123Y0217071D01*
X0218365Y0217817D01*
X0218488Y0218592D01*
X0218488Y0221968D01*
X0213520Y0221968D01*
X0213520Y0222000D01*
X0218488Y0222000D01*
X0218488Y0225377D01*
X0218365Y0226151D01*
X0218123Y0226898D01*
X0217767Y0227597D01*
X0217306Y0228231D01*
X0216751Y0228786D01*
X0216116Y0229247D01*
X0215417Y0229603D01*
X0214671Y0229846D01*
X0213896Y0229968D01*
X0213520Y0229968D01*
X0213520Y0222000D01*
X0213488Y0222000D01*
X0213488Y0221968D01*
X0208520Y0221968D01*
X0208520Y0218592D01*
X0208642Y0217817D01*
X0208885Y0217071D01*
X0209241Y0216372D01*
X0209702Y0215737D01*
X0210257Y0215182D01*
X0210385Y0215090D01*
X0188685Y0215090D01*
X0189245Y0215322D01*
X0190591Y0216668D01*
X0191320Y0218426D01*
X0191320Y0226330D01*
X0190591Y0228088D01*
X0189245Y0229434D01*
X0187487Y0230162D01*
X0185584Y0230162D01*
X0183825Y0229434D01*
X0182480Y0228088D01*
X0181751Y0226330D01*
X0181751Y0220628D01*
X0181320Y0221059D01*
X0181320Y0226330D01*
X0180591Y0228088D01*
X0179245Y0229434D01*
X0177487Y0230162D01*
X0175584Y0230162D01*
X0173825Y0229434D01*
X0172480Y0228088D01*
X0171751Y0226330D01*
X0171751Y0218426D01*
X0172480Y0216668D01*
X0173825Y0215322D01*
X0175584Y0214594D01*
X0177487Y0214594D01*
X0179245Y0215322D01*
X0179497Y0215573D01*
X0182694Y0212376D02*
X0010378Y0212376D01*
X0010378Y0210409D02*
X0032374Y0210409D01*
X0032408Y0210421D02*
X0031296Y0210032D01*
X0030236Y0209521D01*
X0029238Y0208895D01*
X0028318Y0208161D01*
X0027485Y0207328D01*
X0026751Y0206407D01*
X0026124Y0205410D01*
X0025614Y0204349D01*
X0025225Y0203238D01*
X0024963Y0202090D01*
X0024875Y0201315D01*
X0034331Y0201315D01*
X0034331Y0210770D01*
X0033556Y0210683D01*
X0032408Y0210421D01*
X0034331Y0210409D02*
X0036299Y0210409D01*
X0036299Y0210770D02*
X0036299Y0201315D01*
X0034331Y0201315D01*
X0034331Y0199346D01*
X0036299Y0199346D01*
X0036299Y0189891D01*
X0037074Y0189978D01*
X0038222Y0190240D01*
X0039333Y0190629D01*
X0040394Y0191140D01*
X0041391Y0191767D01*
X0042312Y0192501D01*
X0043145Y0193334D01*
X0043879Y0194254D01*
X0044505Y0195251D01*
X0045016Y0196312D01*
X0045405Y0197424D01*
X0045667Y0198572D01*
X0045755Y0199346D01*
X0036299Y0199346D01*
X0036299Y0201315D01*
X0045755Y0201315D01*
X0045667Y0202090D01*
X0045405Y0203238D01*
X0045016Y0204349D01*
X0044505Y0205410D01*
X0043879Y0206407D01*
X0043145Y0207328D01*
X0042312Y0208161D01*
X0041391Y0208895D01*
X0040394Y0209521D01*
X0039333Y0210032D01*
X0038222Y0210421D01*
X0037074Y0210683D01*
X0036299Y0210770D01*
X0038256Y0210409D02*
X0056815Y0210409D01*
X0057583Y0210615D02*
X0054967Y0209914D01*
X0052622Y0208560D01*
X0050708Y0206645D01*
X0049354Y0204300D01*
X0048653Y0201685D01*
X0048653Y0198977D01*
X0049354Y0196361D01*
X0050708Y0194016D01*
X0052622Y0192101D01*
X0054967Y0190747D01*
X0057583Y0190046D01*
X0060291Y0190046D01*
X0062907Y0190747D01*
X0065252Y0192101D01*
X0067166Y0194016D01*
X0068520Y0196361D01*
X0069221Y0198977D01*
X0069221Y0201685D01*
X0068520Y0204300D01*
X0067166Y0206645D01*
X0065252Y0208560D01*
X0062907Y0209914D01*
X0060291Y0210615D01*
X0057583Y0210615D01*
X0061059Y0210409D02*
X0184661Y0210409D01*
X0182461Y0204521D02*
X0323657Y0204521D01*
X0323889Y0204290D01*
X0202505Y0204290D01*
X0201555Y0203896D01*
X0200828Y0203169D01*
X0185277Y0187618D01*
X0185407Y0187932D01*
X0185407Y0189895D01*
X0184655Y0191708D01*
X0184572Y0191792D01*
X0184572Y0200277D01*
X0184603Y0200353D01*
X0184603Y0201858D01*
X0184027Y0203249D01*
X0182962Y0204314D01*
X0182461Y0204521D01*
X0182493Y0204508D02*
X0323670Y0204508D01*
X0322937Y0199121D02*
X0322896Y0199080D01*
X0322896Y0195282D01*
X0324219Y0193960D01*
X0316548Y0186290D01*
X0260565Y0186290D01*
X0261265Y0187981D01*
X0261265Y0190003D01*
X0260491Y0191872D01*
X0259061Y0193302D01*
X0257192Y0194076D01*
X0255170Y0194076D01*
X0253301Y0193302D01*
X0251871Y0191872D01*
X0251097Y0190003D01*
X0251097Y0187981D01*
X0251797Y0186290D01*
X0242560Y0186290D01*
X0243364Y0187093D01*
X0243364Y0190891D01*
X0240678Y0193576D01*
X0236881Y0193576D01*
X0234195Y0190891D01*
X0234195Y0187093D01*
X0234999Y0186290D01*
X0214505Y0186290D01*
X0213555Y0185896D01*
X0212828Y0185169D01*
X0193100Y0165441D01*
X0192405Y0166136D01*
X0190793Y0166803D01*
X0189049Y0166803D01*
X0187438Y0166136D01*
X0186204Y0164902D01*
X0185537Y0163291D01*
X0185537Y0159242D01*
X0184305Y0160474D01*
X0184305Y0163291D01*
X0183638Y0164902D01*
X0182405Y0166136D01*
X0180793Y0166803D01*
X0179049Y0166803D01*
X0177438Y0166136D01*
X0176204Y0164902D01*
X0175537Y0163291D01*
X0175537Y0159042D01*
X0174305Y0160274D01*
X0174305Y0163291D01*
X0173638Y0164902D01*
X0172405Y0166136D01*
X0171485Y0166517D01*
X0204089Y0199121D01*
X0322937Y0199121D01*
X0322896Y0198607D02*
X0203575Y0198607D01*
X0201608Y0196640D02*
X0322896Y0196640D01*
X0323505Y0194673D02*
X0199641Y0194673D01*
X0197674Y0192706D02*
X0205727Y0192706D01*
X0206798Y0193776D02*
X0203995Y0190974D01*
X0203995Y0188992D01*
X0203995Y0187010D01*
X0206798Y0184208D01*
X0208779Y0184208D01*
X0208779Y0188992D01*
X0203995Y0188992D01*
X0208779Y0188992D01*
X0208779Y0188992D01*
X0208780Y0188992D01*
X0208780Y0188992D01*
X0213564Y0188992D01*
X0213564Y0187010D01*
X0210761Y0184208D01*
X0208780Y0184208D01*
X0208780Y0188992D01*
X0213564Y0188992D01*
X0213564Y0190974D01*
X0210761Y0193776D01*
X0208780Y0193776D01*
X0208780Y0188992D01*
X0208779Y0188992D01*
X0208779Y0193776D01*
X0206798Y0193776D01*
X0208779Y0192706D02*
X0208780Y0192706D01*
X0208779Y0190739D02*
X0208780Y0190739D01*
X0208779Y0188772D02*
X0208780Y0188772D01*
X0208779Y0186805D02*
X0208780Y0186805D01*
X0208779Y0184838D02*
X0208780Y0184838D01*
X0211391Y0184838D02*
X0212497Y0184838D01*
X0213358Y0186805D02*
X0234484Y0186805D01*
X0234195Y0188772D02*
X0213564Y0188772D01*
X0213564Y0190739D02*
X0234195Y0190739D01*
X0236010Y0192706D02*
X0211832Y0192706D01*
X0203995Y0190739D02*
X0195707Y0190739D01*
X0193740Y0188772D02*
X0203995Y0188772D01*
X0204201Y0186805D02*
X0191773Y0186805D01*
X0189806Y0184838D02*
X0206168Y0184838D01*
X0210530Y0182871D02*
X0187839Y0182871D01*
X0185872Y0180904D02*
X0208563Y0180904D01*
X0206596Y0178937D02*
X0183905Y0178937D01*
X0181938Y0176970D02*
X0204629Y0176970D01*
X0202662Y0175003D02*
X0179971Y0175003D01*
X0178004Y0173036D02*
X0200695Y0173036D01*
X0198728Y0171069D02*
X0176037Y0171069D01*
X0174070Y0169102D02*
X0196761Y0169102D01*
X0194794Y0167135D02*
X0172103Y0167135D01*
X0173373Y0165168D02*
X0176470Y0165168D01*
X0175537Y0163201D02*
X0174305Y0163201D01*
X0174305Y0161234D02*
X0175537Y0161234D01*
X0175537Y0159267D02*
X0175312Y0159267D01*
X0173086Y0154184D02*
X0190467Y0136803D01*
X0189049Y0136803D01*
X0187438Y0136136D01*
X0186204Y0134902D01*
X0185537Y0133291D01*
X0185537Y0126347D01*
X0186204Y0124735D01*
X0187235Y0123705D01*
X0187235Y0072576D01*
X0155692Y0041033D01*
X0155692Y0046216D01*
X0154964Y0047975D01*
X0153618Y0049320D01*
X0151860Y0050049D01*
X0149956Y0050049D01*
X0148198Y0049320D01*
X0148028Y0049151D01*
X0145083Y0052096D01*
X0144133Y0052490D01*
X0134469Y0052490D01*
X0134742Y0052763D01*
X0134742Y0054661D01*
X0130158Y0054661D01*
X0130158Y0054661D01*
X0134742Y0054661D01*
X0134742Y0056560D01*
X0132056Y0059246D01*
X0130158Y0059246D01*
X0130158Y0054662D01*
X0130157Y0054662D01*
X0130157Y0059246D01*
X0128259Y0059246D01*
X0125573Y0056560D01*
X0125573Y0054661D01*
X0125573Y0052763D01*
X0125846Y0052490D01*
X0121289Y0052490D01*
X0116848Y0056931D01*
X0117052Y0056931D01*
X0119620Y0059499D01*
X0119620Y0063131D01*
X0117052Y0065699D01*
X0114680Y0065699D01*
X0113203Y0067176D01*
X0113203Y0086865D01*
X0113337Y0086731D01*
X0115236Y0086731D01*
X0115236Y0091315D01*
X0115236Y0095899D01*
X0113337Y0095899D01*
X0112109Y0094670D01*
X0112083Y0094696D01*
X0107803Y0098976D01*
X0107803Y0123351D01*
X0109049Y0122835D01*
X0110793Y0122835D01*
X0112405Y0123502D01*
X0113638Y0124735D01*
X0114305Y0126347D01*
X0114305Y0133291D01*
X0113638Y0134902D01*
X0112603Y0135937D01*
X0112603Y0140035D01*
X0126613Y0154045D01*
X0126935Y0153722D01*
X0127519Y0153298D01*
X0128162Y0152971D01*
X0128848Y0152748D01*
X0129560Y0152635D01*
X0129921Y0152635D01*
X0129921Y0159819D01*
X0129921Y0159819D01*
X0134505Y0159819D01*
X0134505Y0162780D01*
X0134393Y0163492D01*
X0134170Y0164179D01*
X0133842Y0164822D01*
X0133418Y0165405D01*
X0132908Y0165916D01*
X0132324Y0166340D01*
X0131681Y0166667D01*
X0131496Y0166728D01*
X0169289Y0204521D01*
X0179177Y0204521D01*
X0178675Y0204314D01*
X0177611Y0203249D01*
X0177035Y0201858D01*
X0177035Y0200353D01*
X0177066Y0200277D01*
X0177066Y0192485D01*
X0176289Y0191708D01*
X0175847Y0190641D01*
X0175607Y0190400D01*
X0175607Y0191040D01*
X0172599Y0194048D01*
X0170472Y0194048D01*
X0168346Y0194048D01*
X0165338Y0191040D01*
X0165338Y0188913D01*
X0165338Y0186787D01*
X0168346Y0183779D01*
X0168985Y0183779D01*
X0157064Y0171858D01*
X0156672Y0171858D01*
X0155293Y0171287D01*
X0150805Y0166798D01*
X0150793Y0166803D01*
X0149049Y0166803D01*
X0147438Y0166136D01*
X0146204Y0164902D01*
X0145537Y0163291D01*
X0145537Y0157931D01*
X0144305Y0156699D01*
X0144305Y0163291D01*
X0143638Y0164902D01*
X0142405Y0166136D01*
X0140793Y0166803D01*
X0139049Y0166803D01*
X0137438Y0166136D01*
X0136204Y0164902D01*
X0135537Y0163291D01*
X0135537Y0156347D01*
X0136204Y0154735D01*
X0137438Y0153502D01*
X0139049Y0152835D01*
X0140441Y0152835D01*
X0127237Y0139631D01*
X0126666Y0138252D01*
X0126666Y0135364D01*
X0126204Y0134902D01*
X0125537Y0133291D01*
X0125537Y0126347D01*
X0126204Y0124735D01*
X0127438Y0123502D01*
X0129049Y0122835D01*
X0130793Y0122835D01*
X0132405Y0123502D01*
X0133638Y0124735D01*
X0134305Y0126347D01*
X0134305Y0133291D01*
X0134172Y0133614D01*
X0134172Y0135951D01*
X0151240Y0153020D01*
X0152405Y0153502D01*
X0153638Y0154735D01*
X0154305Y0156347D01*
X0154305Y0159685D01*
X0155537Y0160916D01*
X0155537Y0156347D01*
X0156204Y0154735D01*
X0157438Y0153502D01*
X0159049Y0152835D01*
X0160793Y0152835D01*
X0162405Y0153502D01*
X0163638Y0154735D01*
X0164305Y0156347D01*
X0164305Y0159337D01*
X0165537Y0160569D01*
X0165537Y0156347D01*
X0166204Y0154735D01*
X0167438Y0153502D01*
X0169049Y0152835D01*
X0170793Y0152835D01*
X0172405Y0153502D01*
X0173086Y0154184D01*
X0173904Y0153366D02*
X0172075Y0153366D01*
X0175871Y0151399D02*
X0149619Y0151399D01*
X0147652Y0149432D02*
X0177838Y0149432D01*
X0179805Y0147465D02*
X0145685Y0147465D01*
X0143718Y0145498D02*
X0181772Y0145498D01*
X0183739Y0143531D02*
X0141751Y0143531D01*
X0139784Y0141564D02*
X0185706Y0141564D01*
X0187673Y0139597D02*
X0137817Y0139597D01*
X0135850Y0137630D02*
X0189640Y0137630D01*
X0186965Y0135663D02*
X0182878Y0135663D01*
X0182405Y0136136D02*
X0183638Y0134902D01*
X0184305Y0133291D01*
X0184305Y0126347D01*
X0183638Y0124735D01*
X0182405Y0123502D01*
X0180793Y0122835D01*
X0179049Y0122835D01*
X0177438Y0123502D01*
X0176204Y0124735D01*
X0175537Y0126347D01*
X0175537Y0133291D01*
X0176204Y0134902D01*
X0177438Y0136136D01*
X0179049Y0136803D01*
X0180793Y0136803D01*
X0182405Y0136136D01*
X0184138Y0133696D02*
X0185705Y0133696D01*
X0185537Y0131729D02*
X0184305Y0131729D01*
X0184305Y0129762D02*
X0185537Y0129762D01*
X0185537Y0127794D02*
X0184305Y0127794D01*
X0184090Y0125827D02*
X0185752Y0125827D01*
X0187079Y0123860D02*
X0182763Y0123860D01*
X0187235Y0121893D02*
X0107803Y0121893D01*
X0107803Y0119926D02*
X0187235Y0119926D01*
X0187235Y0117959D02*
X0107803Y0117959D01*
X0107803Y0115992D02*
X0187235Y0115992D01*
X0187235Y0114025D02*
X0167723Y0114025D01*
X0167713Y0114035D02*
X0165697Y0114870D01*
X0163515Y0114870D01*
X0161500Y0114035D01*
X0159957Y0112492D01*
X0159709Y0111893D01*
X0159468Y0112365D01*
X0158942Y0113089D01*
X0158309Y0113722D01*
X0157585Y0114247D01*
X0156788Y0114654D01*
X0155937Y0114930D01*
X0155054Y0115070D01*
X0154606Y0115070D01*
X0154159Y0115070D01*
X0153275Y0114930D01*
X0152424Y0114654D01*
X0151627Y0114247D01*
X0150903Y0113722D01*
X0150271Y0113089D01*
X0149745Y0112365D01*
X0149504Y0111893D01*
X0149256Y0112492D01*
X0147713Y0114035D01*
X0145697Y0114870D01*
X0143515Y0114870D01*
X0141500Y0114035D01*
X0139957Y0112492D01*
X0139122Y0110477D01*
X0139122Y0108295D01*
X0139957Y0106279D01*
X0141500Y0104737D01*
X0143515Y0103902D01*
X0145697Y0103902D01*
X0147713Y0104737D01*
X0149256Y0106279D01*
X0149504Y0106879D01*
X0149745Y0106407D01*
X0150271Y0105683D01*
X0150903Y0105050D01*
X0151627Y0104524D01*
X0152424Y0104118D01*
X0153275Y0103842D01*
X0154159Y0103702D01*
X0154606Y0103702D01*
X0154606Y0109386D01*
X0154606Y0115070D01*
X0154606Y0109386D01*
X0154606Y0109386D01*
X0154606Y0109386D01*
X0154606Y0103702D01*
X0155054Y0103702D01*
X0155937Y0103842D01*
X0156788Y0104118D01*
X0157585Y0104524D01*
X0158309Y0105050D01*
X0158942Y0105683D01*
X0159468Y0106407D01*
X0159709Y0106879D01*
X0159957Y0106279D01*
X0161500Y0104737D01*
X0163515Y0103902D01*
X0165697Y0103902D01*
X0167713Y0104737D01*
X0169256Y0106279D01*
X0170091Y0108295D01*
X0170091Y0110477D01*
X0169256Y0112492D01*
X0167713Y0114035D01*
X0169435Y0112058D02*
X0187235Y0112058D01*
X0187235Y0110091D02*
X0170091Y0110091D01*
X0170020Y0108124D02*
X0187235Y0108124D01*
X0187235Y0106157D02*
X0169134Y0106157D01*
X0166394Y0104190D02*
X0187235Y0104190D01*
X0187235Y0102223D02*
X0107803Y0102223D01*
X0107803Y0100256D02*
X0187235Y0100256D01*
X0187235Y0098289D02*
X0108490Y0098289D01*
X0110457Y0096322D02*
X0187235Y0096322D01*
X0187235Y0094355D02*
X0118679Y0094355D01*
X0119820Y0093214D02*
X0117135Y0095899D01*
X0115236Y0095899D01*
X0115236Y0091315D01*
X0115236Y0091315D01*
X0115236Y0091315D01*
X0115236Y0086731D01*
X0117135Y0086731D01*
X0119820Y0089416D01*
X0119820Y0091315D01*
X0119820Y0093214D01*
X0119820Y0092388D02*
X0187235Y0092388D01*
X0187235Y0090421D02*
X0119820Y0090421D01*
X0119820Y0091315D02*
X0115236Y0091315D01*
X0119820Y0091315D01*
X0118859Y0088454D02*
X0187235Y0088454D01*
X0187235Y0086487D02*
X0113203Y0086487D01*
X0113203Y0084520D02*
X0187235Y0084520D01*
X0187235Y0082553D02*
X0113203Y0082553D01*
X0113203Y0080586D02*
X0187235Y0080586D01*
X0187235Y0078619D02*
X0113203Y0078619D01*
X0113203Y0076652D02*
X0187235Y0076652D01*
X0187235Y0074685D02*
X0113203Y0074685D01*
X0113203Y0072718D02*
X0187235Y0072718D01*
X0185410Y0070751D02*
X0113203Y0070751D01*
X0113203Y0068784D02*
X0183443Y0068784D01*
X0181476Y0066817D02*
X0113562Y0066817D01*
X0117901Y0064850D02*
X0179509Y0064850D01*
X0177542Y0062883D02*
X0119620Y0062883D01*
X0119620Y0060916D02*
X0175575Y0060916D01*
X0173608Y0058949D02*
X0162070Y0058949D01*
X0161973Y0059046D02*
X0158341Y0059046D01*
X0155773Y0056477D01*
X0155773Y0052845D01*
X0158341Y0050277D01*
X0161973Y0050277D01*
X0164542Y0052845D01*
X0164542Y0056477D01*
X0161973Y0059046D01*
X0164037Y0056982D02*
X0171641Y0056982D01*
X0169674Y0055015D02*
X0164542Y0055015D01*
X0164542Y0053048D02*
X0167707Y0053048D01*
X0165740Y0051081D02*
X0162777Y0051081D01*
X0163773Y0049114D02*
X0153824Y0049114D01*
X0155307Y0047147D02*
X0161806Y0047147D01*
X0159839Y0045180D02*
X0155692Y0045180D01*
X0155692Y0043213D02*
X0157872Y0043213D01*
X0155905Y0041246D02*
X0155692Y0041246D01*
X0159280Y0037312D02*
X0216318Y0037312D01*
X0218285Y0039279D02*
X0161247Y0039279D01*
X0163214Y0041246D02*
X0233435Y0041246D01*
X0233435Y0043213D02*
X0165181Y0043213D01*
X0167148Y0045180D02*
X0233435Y0045180D01*
X0233435Y0047147D02*
X0169115Y0047147D01*
X0171082Y0049114D02*
X0233435Y0049114D01*
X0233435Y0051081D02*
X0173049Y0051081D01*
X0175016Y0053048D02*
X0229652Y0053048D01*
X0228214Y0055015D02*
X0176983Y0055015D01*
X0178950Y0056982D02*
X0228022Y0056982D01*
X0228850Y0058949D02*
X0180917Y0058949D01*
X0182884Y0060916D02*
X0233435Y0060916D01*
X0233435Y0062883D02*
X0184851Y0062883D01*
X0186818Y0064850D02*
X0233435Y0064850D01*
X0233435Y0066817D02*
X0188785Y0066817D01*
X0190752Y0068784D02*
X0233435Y0068784D01*
X0234010Y0070751D02*
X0192304Y0070751D01*
X0192403Y0072718D02*
X0235977Y0072718D01*
X0237944Y0074685D02*
X0192403Y0074685D01*
X0192403Y0076652D02*
X0239911Y0076652D01*
X0241878Y0078619D02*
X0192403Y0078619D01*
X0192403Y0080586D02*
X0243845Y0080586D01*
X0245812Y0082553D02*
X0192403Y0082553D01*
X0192403Y0084520D02*
X0247779Y0084520D01*
X0249746Y0086487D02*
X0192403Y0086487D01*
X0192403Y0088454D02*
X0251713Y0088454D01*
X0253680Y0090421D02*
X0192403Y0090421D01*
X0192403Y0092388D02*
X0255647Y0092388D01*
X0257614Y0094355D02*
X0192403Y0094355D01*
X0192403Y0096322D02*
X0259581Y0096322D01*
X0261548Y0098289D02*
X0192403Y0098289D01*
X0192403Y0100256D02*
X0263515Y0100256D01*
X0265482Y0102223D02*
X0192403Y0102223D01*
X0192403Y0104190D02*
X0282961Y0104190D01*
X0282622Y0106157D02*
X0192403Y0106157D01*
X0192403Y0108124D02*
X0283190Y0108124D01*
X0285712Y0110091D02*
X0192403Y0110091D01*
X0192403Y0112058D02*
X0284780Y0112058D01*
X0284523Y0112165D02*
X0286134Y0111498D01*
X0293078Y0111498D01*
X0294690Y0112165D01*
X0295923Y0113398D01*
X0296591Y0115010D01*
X0296591Y0116754D01*
X0295923Y0118365D01*
X0294690Y0119599D01*
X0293078Y0120266D01*
X0286134Y0120266D01*
X0284523Y0119599D01*
X0283290Y0118365D01*
X0282622Y0116754D01*
X0282622Y0115010D01*
X0283290Y0113398D01*
X0284523Y0112165D01*
X0283030Y0114025D02*
X0192403Y0114025D01*
X0192403Y0115992D02*
X0282622Y0115992D01*
X0283121Y0117959D02*
X0192403Y0117959D01*
X0192403Y0119926D02*
X0285314Y0119926D01*
X0286134Y0121498D02*
X0284523Y0122165D01*
X0283290Y0123398D01*
X0282622Y0125010D01*
X0282622Y0126754D01*
X0283290Y0128365D01*
X0284523Y0129599D01*
X0286134Y0130266D01*
X0293078Y0130266D01*
X0294690Y0129599D01*
X0295923Y0128365D01*
X0296591Y0126754D01*
X0296591Y0125010D01*
X0295923Y0123398D01*
X0294690Y0122165D01*
X0293078Y0121498D01*
X0286134Y0121498D01*
X0285179Y0121893D02*
X0192403Y0121893D01*
X0192763Y0123860D02*
X0197079Y0123860D01*
X0195752Y0125827D02*
X0194090Y0125827D01*
X0194305Y0127794D02*
X0195537Y0127794D01*
X0195537Y0129762D02*
X0194305Y0129762D01*
X0194305Y0131729D02*
X0195537Y0131729D01*
X0195705Y0133696D02*
X0194138Y0133696D01*
X0204138Y0133696D02*
X0213974Y0133696D01*
X0215941Y0131729D02*
X0204305Y0131729D01*
X0204305Y0129762D02*
X0217908Y0129762D01*
X0220328Y0127794D02*
X0204305Y0127794D01*
X0204090Y0125827D02*
X0282622Y0125827D01*
X0283053Y0127794D02*
X0245110Y0127794D01*
X0247530Y0129762D02*
X0284916Y0129762D01*
X0294297Y0129762D02*
X0314916Y0129762D01*
X0313053Y0127794D02*
X0296160Y0127794D01*
X0296591Y0125827D02*
X0312622Y0125827D01*
X0313098Y0123860D02*
X0296114Y0123860D01*
X0294034Y0121893D02*
X0315179Y0121893D01*
X0315314Y0119926D02*
X0293899Y0119926D01*
X0296091Y0117959D02*
X0313121Y0117959D01*
X0312622Y0115992D02*
X0296591Y0115992D01*
X0296183Y0114025D02*
X0313030Y0114025D01*
X0314780Y0112058D02*
X0294432Y0112058D01*
X0293500Y0110091D02*
X0315712Y0110091D01*
X0316134Y0110266D02*
X0314523Y0109599D01*
X0313290Y0108365D01*
X0312622Y0106754D01*
X0312622Y0105010D01*
X0313290Y0103398D01*
X0314523Y0102165D01*
X0316134Y0101498D01*
X0323078Y0101498D01*
X0324690Y0102165D01*
X0325923Y0103398D01*
X0326591Y0105010D01*
X0326591Y0106754D01*
X0325923Y0108365D01*
X0324690Y0109599D01*
X0323078Y0110266D01*
X0316134Y0110266D01*
X0313190Y0108124D02*
X0296023Y0108124D01*
X0296591Y0106157D02*
X0312622Y0106157D01*
X0312961Y0104190D02*
X0296251Y0104190D01*
X0295956Y0102223D02*
X0314465Y0102223D01*
X0316110Y0100256D02*
X0297923Y0100256D01*
X0299890Y0098289D02*
X0313258Y0098289D01*
X0313290Y0098365D02*
X0312622Y0096754D01*
X0312622Y0095010D01*
X0313290Y0093398D01*
X0314523Y0092165D01*
X0316134Y0091498D01*
X0323078Y0091498D01*
X0324690Y0092165D01*
X0325923Y0093398D01*
X0326591Y0095010D01*
X0326591Y0096754D01*
X0325923Y0098365D01*
X0324690Y0099599D01*
X0323078Y0100266D01*
X0316134Y0100266D01*
X0314523Y0099599D01*
X0313290Y0098365D01*
X0312622Y0096322D02*
X0301857Y0096322D01*
X0303824Y0094355D02*
X0312893Y0094355D01*
X0314300Y0092388D02*
X0305791Y0092388D01*
X0307758Y0090421D02*
X0353103Y0090421D01*
X0351136Y0088454D02*
X0325834Y0088454D01*
X0326591Y0086487D02*
X0351009Y0086487D01*
X0349179Y0084520D02*
X0326388Y0084520D01*
X0325078Y0082553D02*
X0347212Y0082553D01*
X0344645Y0080586D02*
X0317593Y0080586D01*
X0312251Y0078619D02*
X0299160Y0078619D01*
X0301127Y0076652D02*
X0312622Y0076652D01*
X0312757Y0074685D02*
X0303094Y0074685D01*
X0305061Y0072718D02*
X0313970Y0072718D01*
X0313708Y0068784D02*
X0308995Y0068784D01*
X0307028Y0070751D02*
X0334810Y0070751D01*
X0336777Y0072718D02*
X0325243Y0072718D01*
X0326456Y0074685D02*
X0338744Y0074685D01*
X0340711Y0076652D02*
X0326591Y0076652D01*
X0325669Y0078619D02*
X0342678Y0078619D01*
X0350945Y0078619D02*
X0350945Y0078619D01*
X0350945Y0078694D02*
X0350945Y0074110D01*
X0358129Y0074110D01*
X0358129Y0074471D01*
X0358016Y0075184D01*
X0357793Y0075870D01*
X0357466Y0076513D01*
X0357042Y0077097D01*
X0356531Y0077607D01*
X0355948Y0078031D01*
X0355305Y0078359D01*
X0354618Y0078582D01*
X0353906Y0078694D01*
X0350945Y0078694D01*
X0350945Y0076652D02*
X0350945Y0076652D01*
X0350945Y0074685D02*
X0350945Y0074685D01*
X0350945Y0074110D02*
X0350945Y0074110D01*
X0350945Y0072718D02*
X0350945Y0072718D01*
X0350945Y0070751D02*
X0350945Y0070751D01*
X0354417Y0068494D02*
X0347473Y0068494D01*
X0345861Y0067827D01*
X0344628Y0066594D01*
X0343961Y0064982D01*
X0343961Y0063238D01*
X0344628Y0061627D01*
X0345861Y0060393D01*
X0347473Y0059726D01*
X0354417Y0059726D01*
X0356028Y0060393D01*
X0357262Y0061627D01*
X0357929Y0063238D01*
X0357929Y0064982D01*
X0357262Y0066594D01*
X0356028Y0067827D01*
X0354417Y0068494D01*
X0357038Y0066817D02*
X0362417Y0066817D01*
X0362417Y0064850D02*
X0357929Y0064850D01*
X0357782Y0062883D02*
X0362417Y0062883D01*
X0362417Y0060916D02*
X0356551Y0060916D01*
X0356028Y0057827D02*
X0354417Y0058494D01*
X0347473Y0058494D01*
X0345861Y0057827D01*
X0344628Y0056594D01*
X0343961Y0054982D01*
X0343961Y0053238D01*
X0344628Y0051627D01*
X0345861Y0050393D01*
X0347473Y0049726D01*
X0354417Y0049726D01*
X0356028Y0050393D01*
X0357262Y0051627D01*
X0357929Y0053238D01*
X0357929Y0054982D01*
X0357262Y0056594D01*
X0356028Y0057827D01*
X0356873Y0056982D02*
X0362417Y0056982D01*
X0362417Y0058949D02*
X0333403Y0058949D01*
X0333403Y0060916D02*
X0345339Y0060916D01*
X0344108Y0062883D02*
X0334251Y0062883D01*
X0336218Y0064850D02*
X0343961Y0064850D01*
X0344851Y0066817D02*
X0338185Y0066817D01*
X0340152Y0068784D02*
X0362417Y0068784D01*
X0362417Y0070751D02*
X0356669Y0070751D01*
X0357913Y0072718D02*
X0362417Y0072718D01*
X0362417Y0074685D02*
X0358095Y0074685D01*
X0357365Y0076652D02*
X0362417Y0076652D01*
X0362417Y0078619D02*
X0354382Y0078619D01*
X0352554Y0080586D02*
X0362417Y0080586D01*
X0362417Y0082553D02*
X0357635Y0082553D01*
X0359602Y0084520D02*
X0362417Y0084520D01*
X0362417Y0086487D02*
X0359778Y0086487D01*
X0359652Y0088454D02*
X0362417Y0088454D01*
X0362417Y0090421D02*
X0357685Y0090421D01*
X0362417Y0092388D02*
X0324913Y0092388D01*
X0326319Y0094355D02*
X0362417Y0094355D01*
X0362417Y0096322D02*
X0326591Y0096322D01*
X0325955Y0098289D02*
X0362417Y0098289D01*
X0362417Y0100256D02*
X0323102Y0100256D01*
X0324748Y0102223D02*
X0362417Y0102223D01*
X0362417Y0104190D02*
X0326251Y0104190D01*
X0326591Y0106157D02*
X0362417Y0106157D01*
X0362417Y0108124D02*
X0326023Y0108124D01*
X0323500Y0110091D02*
X0362417Y0110091D01*
X0362417Y0112058D02*
X0324432Y0112058D01*
X0326183Y0114025D02*
X0351680Y0114025D01*
X0351009Y0115992D02*
X0326591Y0115992D01*
X0326091Y0117959D02*
X0351009Y0117959D01*
X0351066Y0119926D02*
X0325894Y0119926D01*
X0327861Y0121893D02*
X0351066Y0121893D01*
X0351066Y0123860D02*
X0329829Y0123860D01*
X0331796Y0125827D02*
X0351066Y0125827D01*
X0351066Y0127794D02*
X0333763Y0127794D01*
X0335730Y0129762D02*
X0351066Y0129762D01*
X0351066Y0131729D02*
X0337697Y0131729D01*
X0339664Y0133696D02*
X0351066Y0133696D01*
X0351066Y0135663D02*
X0341631Y0135663D01*
X0343598Y0137630D02*
X0351066Y0137630D01*
X0351066Y0139597D02*
X0345565Y0139597D01*
X0346083Y0140115D02*
X0346083Y0140115D01*
X0347109Y0141564D02*
X0351066Y0141564D01*
X0351066Y0143531D02*
X0347203Y0143531D01*
X0347203Y0145498D02*
X0351066Y0145498D01*
X0351066Y0147465D02*
X0347203Y0147465D01*
X0347203Y0149432D02*
X0351066Y0149432D01*
X0351066Y0151399D02*
X0347203Y0151399D01*
X0347203Y0153366D02*
X0351066Y0153366D01*
X0351066Y0155333D02*
X0347203Y0155333D01*
X0347203Y0157300D02*
X0351066Y0157300D01*
X0351066Y0159267D02*
X0347203Y0159267D01*
X0347203Y0161234D02*
X0351066Y0161234D01*
X0351066Y0163201D02*
X0347203Y0163201D01*
X0347203Y0165168D02*
X0351066Y0165168D01*
X0351066Y0167135D02*
X0347203Y0167135D01*
X0347203Y0169102D02*
X0351066Y0169102D01*
X0351066Y0171069D02*
X0347203Y0171069D01*
X0347203Y0173036D02*
X0351066Y0173036D01*
X0351066Y0175003D02*
X0347203Y0175003D01*
X0347203Y0176970D02*
X0351066Y0176970D01*
X0351066Y0178937D02*
X0347203Y0178937D01*
X0347203Y0180904D02*
X0351066Y0180904D01*
X0351066Y0182871D02*
X0347203Y0182871D01*
X0347203Y0184838D02*
X0351066Y0184838D01*
X0351066Y0186805D02*
X0347203Y0186805D01*
X0347203Y0188772D02*
X0351066Y0188772D01*
X0351066Y0190739D02*
X0347203Y0190739D01*
X0347203Y0192706D02*
X0351066Y0192706D01*
X0351066Y0194673D02*
X0347203Y0194673D01*
X0347203Y0196640D02*
X0351066Y0196640D01*
X0351066Y0198607D02*
X0347203Y0198607D01*
X0347203Y0200574D02*
X0351066Y0200574D01*
X0351066Y0202541D02*
X0347203Y0202541D01*
X0347203Y0204508D02*
X0351066Y0204508D01*
X0351066Y0206475D02*
X0347203Y0206475D01*
X0346337Y0208442D02*
X0351066Y0208442D01*
X0349208Y0210409D02*
X0344370Y0210409D01*
X0342403Y0212376D02*
X0347241Y0212376D01*
X0345274Y0214343D02*
X0341125Y0214343D01*
X0342065Y0216310D02*
X0343307Y0216310D01*
X0348020Y0222211D02*
X0348265Y0222211D01*
X0346825Y0224178D02*
X0346053Y0224178D01*
X0345888Y0226145D02*
X0344086Y0226145D01*
X0345361Y0228112D02*
X0342119Y0228112D01*
X0341065Y0230079D02*
X0345291Y0230079D01*
X0345480Y0232046D02*
X0260317Y0232046D01*
X0260491Y0231872D02*
X0259061Y0233302D01*
X0257192Y0234076D01*
X0255170Y0234076D01*
X0253301Y0233302D01*
X0251871Y0231872D01*
X0251097Y0230003D01*
X0251097Y0227981D01*
X0251871Y0226112D01*
X0253301Y0224682D01*
X0255170Y0223908D01*
X0257192Y0223908D01*
X0259061Y0224682D01*
X0260491Y0226112D01*
X0261265Y0227981D01*
X0261265Y0230003D01*
X0260491Y0231872D01*
X0261234Y0230079D02*
X0323895Y0230079D01*
X0322896Y0228112D02*
X0261265Y0228112D01*
X0260505Y0226145D02*
X0322896Y0226145D01*
X0324000Y0224178D02*
X0257845Y0224178D01*
X0254517Y0224178D02*
X0238288Y0224178D01*
X0238288Y0222211D02*
X0337406Y0222211D01*
X0334060Y0220244D02*
X0330900Y0220244D01*
X0332065Y0218277D02*
X0332896Y0218277D01*
X0332896Y0216310D02*
X0332065Y0216310D01*
X0324060Y0220244D02*
X0238288Y0220244D01*
X0238288Y0218277D02*
X0322896Y0218277D01*
X0322896Y0216310D02*
X0237575Y0216310D01*
X0229433Y0216310D02*
X0227722Y0216310D01*
X0228438Y0218277D02*
X0228720Y0218277D01*
X0228720Y0220244D02*
X0228488Y0220244D01*
X0228488Y0222211D02*
X0228720Y0222211D01*
X0228720Y0224178D02*
X0228488Y0224178D01*
X0228366Y0226145D02*
X0228806Y0226145D01*
X0229866Y0228112D02*
X0227392Y0228112D01*
X0223520Y0228112D02*
X0223488Y0228112D01*
X0223488Y0229968D02*
X0223112Y0229968D01*
X0222337Y0229846D01*
X0221591Y0229603D01*
X0220892Y0229247D01*
X0220257Y0228786D01*
X0219702Y0228231D01*
X0219241Y0227597D01*
X0218885Y0226898D01*
X0218642Y0226151D01*
X0218520Y0225377D01*
X0218520Y0222000D01*
X0223488Y0222000D01*
X0223488Y0229968D01*
X0223488Y0226145D02*
X0223520Y0226145D01*
X0223488Y0224178D02*
X0223520Y0224178D01*
X0223488Y0222211D02*
X0223520Y0222211D01*
X0218520Y0222211D02*
X0218488Y0222211D01*
X0218488Y0220244D02*
X0218520Y0220244D01*
X0218570Y0218277D02*
X0218438Y0218277D01*
X0217722Y0216310D02*
X0219286Y0216310D01*
X0213488Y0222000D02*
X0208520Y0222000D01*
X0208520Y0225377D01*
X0208642Y0226151D01*
X0208885Y0226898D01*
X0209241Y0227597D01*
X0209702Y0228231D01*
X0210257Y0228786D01*
X0210892Y0229247D01*
X0211591Y0229603D01*
X0212337Y0229846D01*
X0213112Y0229968D01*
X0213488Y0229968D01*
X0213488Y0222000D01*
X0213488Y0222211D02*
X0213520Y0222211D01*
X0213488Y0224178D02*
X0213520Y0224178D01*
X0213488Y0226145D02*
X0213520Y0226145D01*
X0213488Y0228112D02*
X0213520Y0228112D01*
X0217392Y0228112D02*
X0219616Y0228112D01*
X0218641Y0226145D02*
X0218366Y0226145D01*
X0218488Y0224178D02*
X0218520Y0224178D01*
X0209616Y0228112D02*
X0190567Y0228112D01*
X0191320Y0226145D02*
X0208641Y0226145D01*
X0208520Y0224178D02*
X0191320Y0224178D01*
X0191320Y0222211D02*
X0208520Y0222211D01*
X0208520Y0220244D02*
X0191320Y0220244D01*
X0191258Y0218277D02*
X0208570Y0218277D01*
X0209286Y0216310D02*
X0190234Y0216310D01*
X0181751Y0222211D02*
X0181320Y0222211D01*
X0181320Y0224178D02*
X0181751Y0224178D01*
X0181751Y0226145D02*
X0181320Y0226145D01*
X0180567Y0228112D02*
X0182504Y0228112D01*
X0185384Y0230079D02*
X0177687Y0230079D01*
X0175384Y0230079D02*
X0167687Y0230079D01*
X0165384Y0230079D02*
X0162700Y0230079D01*
X0160733Y0232046D02*
X0252045Y0232046D01*
X0251128Y0230079D02*
X0187687Y0230079D01*
X0172504Y0228112D02*
X0170567Y0228112D01*
X0171320Y0226145D02*
X0171751Y0226145D01*
X0171751Y0224178D02*
X0171320Y0224178D01*
X0171320Y0222211D02*
X0171751Y0222211D01*
X0171751Y0220244D02*
X0171320Y0220244D01*
X0171258Y0218277D02*
X0171813Y0218277D01*
X0172837Y0216310D02*
X0170234Y0216310D01*
X0162837Y0216310D02*
X0160467Y0216310D01*
X0161407Y0218277D02*
X0161813Y0218277D01*
X0161751Y0220244D02*
X0161520Y0220244D01*
X0161520Y0222211D02*
X0161751Y0222211D01*
X0156551Y0222211D02*
X0156520Y0222211D01*
X0156520Y0222362D02*
X0156520Y0214394D01*
X0156143Y0214394D01*
X0155368Y0214516D01*
X0154622Y0214759D01*
X0153923Y0215115D01*
X0153288Y0215576D01*
X0152734Y0216131D01*
X0152273Y0216766D01*
X0151916Y0217465D01*
X0151674Y0218211D01*
X0151551Y0218986D01*
X0151551Y0222362D01*
X0156520Y0222362D01*
X0156520Y0220244D02*
X0156551Y0220244D01*
X0156520Y0218277D02*
X0156551Y0218277D01*
X0156520Y0216310D02*
X0156551Y0216310D01*
X0152603Y0216310D02*
X0139052Y0216310D01*
X0140077Y0218277D02*
X0151663Y0218277D01*
X0151551Y0220244D02*
X0140139Y0220244D01*
X0140139Y0222211D02*
X0151551Y0222211D01*
X0151551Y0224178D02*
X0140139Y0224178D01*
X0140139Y0226145D02*
X0151611Y0226145D01*
X0130570Y0226145D02*
X0130139Y0226145D01*
X0130139Y0224178D02*
X0130570Y0224178D01*
X0130570Y0222211D02*
X0130139Y0222211D01*
X0130139Y0220244D02*
X0130570Y0220244D01*
X0130632Y0218277D02*
X0130077Y0218277D01*
X0129052Y0216310D02*
X0131656Y0216310D01*
X0158033Y0200574D02*
X0069221Y0200574D01*
X0069122Y0198607D02*
X0156066Y0198607D01*
X0154099Y0196640D02*
X0068595Y0196640D01*
X0067546Y0194673D02*
X0152132Y0194673D01*
X0150165Y0192706D02*
X0065856Y0192706D01*
X0065485Y0190454D02*
X0063616Y0189680D01*
X0062186Y0188250D01*
X0061412Y0186381D01*
X0061412Y0184359D01*
X0062186Y0182490D01*
X0063616Y0181060D01*
X0065485Y0180286D01*
X0067507Y0180286D01*
X0069376Y0181060D01*
X0070806Y0182490D01*
X0071580Y0184359D01*
X0071580Y0186381D01*
X0070806Y0188250D01*
X0069376Y0189680D01*
X0067507Y0190454D01*
X0065485Y0190454D01*
X0062875Y0190739D02*
X0148198Y0190739D01*
X0146231Y0188772D02*
X0110284Y0188772D01*
X0111405Y0186805D02*
X0144264Y0186805D01*
X0142297Y0184838D02*
X0111580Y0184838D01*
X0110964Y0182871D02*
X0140330Y0182871D01*
X0138363Y0180904D02*
X0109000Y0180904D01*
X0103993Y0180904D02*
X0085524Y0180904D01*
X0083557Y0178937D02*
X0136396Y0178937D01*
X0134429Y0176970D02*
X0081590Y0176970D01*
X0079623Y0175003D02*
X0132462Y0175003D01*
X0130495Y0173036D02*
X0077656Y0173036D01*
X0075689Y0171069D02*
X0128528Y0171069D01*
X0126561Y0169102D02*
X0073722Y0169102D01*
X0071755Y0167135D02*
X0124594Y0167135D01*
X0131903Y0167135D02*
X0151141Y0167135D01*
X0153108Y0169102D02*
X0133870Y0169102D01*
X0135837Y0171069D02*
X0155075Y0171069D01*
X0158242Y0173036D02*
X0137804Y0173036D01*
X0139771Y0175003D02*
X0160209Y0175003D01*
X0162176Y0176970D02*
X0141738Y0176970D01*
X0143705Y0178937D02*
X0164143Y0178937D01*
X0166110Y0180904D02*
X0145672Y0180904D01*
X0147639Y0182871D02*
X0168077Y0182871D01*
X0167287Y0184838D02*
X0149606Y0184838D01*
X0151573Y0186805D02*
X0165338Y0186805D01*
X0165338Y0188772D02*
X0153540Y0188772D01*
X0155507Y0190739D02*
X0165338Y0190739D01*
X0165338Y0188913D02*
X0170472Y0188913D01*
X0165338Y0188913D01*
X0167004Y0192706D02*
X0157474Y0192706D01*
X0159441Y0194673D02*
X0177066Y0194673D01*
X0177066Y0192706D02*
X0173941Y0192706D01*
X0175607Y0190739D02*
X0175888Y0190739D01*
X0170472Y0190739D02*
X0170472Y0190739D01*
X0170472Y0188914D02*
X0170472Y0194048D01*
X0170472Y0188914D01*
X0170472Y0188914D01*
X0170472Y0188913D02*
X0170472Y0188913D01*
X0170472Y0192706D02*
X0170472Y0192706D01*
X0177066Y0196640D02*
X0161408Y0196640D01*
X0163375Y0198607D02*
X0177066Y0198607D01*
X0177035Y0200574D02*
X0165342Y0200574D01*
X0167309Y0202541D02*
X0177317Y0202541D01*
X0179145Y0204508D02*
X0169276Y0204508D01*
X0165901Y0208442D02*
X0065370Y0208442D01*
X0067265Y0206475D02*
X0163934Y0206475D01*
X0161967Y0204508D02*
X0068400Y0204508D01*
X0068992Y0202541D02*
X0160000Y0202541D01*
X0184320Y0202541D02*
X0200200Y0202541D01*
X0198233Y0200574D02*
X0184603Y0200574D01*
X0184572Y0198607D02*
X0196266Y0198607D01*
X0194299Y0196640D02*
X0184572Y0196640D01*
X0184572Y0194673D02*
X0192332Y0194673D01*
X0190365Y0192706D02*
X0184572Y0192706D01*
X0185057Y0190739D02*
X0188398Y0190739D01*
X0186431Y0188772D02*
X0185407Y0188772D01*
X0208004Y0173036D02*
X0230695Y0173036D01*
X0232662Y0175003D02*
X0209971Y0175003D01*
X0211938Y0176970D02*
X0234629Y0176970D01*
X0236596Y0178937D02*
X0213905Y0178937D01*
X0215872Y0180904D02*
X0238563Y0180904D01*
X0238780Y0181121D02*
X0210004Y0152345D01*
X0209172Y0152690D01*
X0207666Y0152690D01*
X0206275Y0152114D01*
X0205211Y0151049D01*
X0204635Y0149658D01*
X0204635Y0148153D01*
X0205211Y0146762D01*
X0206275Y0145697D01*
X0207666Y0145121D01*
X0209172Y0145121D01*
X0210562Y0145697D01*
X0211507Y0146642D01*
X0211683Y0146715D01*
X0212410Y0147442D01*
X0213035Y0148067D01*
X0213035Y0141890D01*
X0202889Y0141890D01*
X0191607Y0153172D01*
X0192405Y0153502D01*
X0193638Y0154735D01*
X0194305Y0156347D01*
X0194305Y0159337D01*
X0195537Y0160569D01*
X0195537Y0156347D01*
X0196204Y0154735D01*
X0197438Y0153502D01*
X0199049Y0152835D01*
X0200793Y0152835D01*
X0202405Y0153502D01*
X0203638Y0154735D01*
X0204305Y0156347D01*
X0204305Y0163291D01*
X0203638Y0164902D01*
X0202405Y0166136D01*
X0201485Y0166517D01*
X0216089Y0181121D01*
X0238780Y0181121D01*
X0243689Y0178721D02*
X0223658Y0158690D01*
X0298548Y0158690D01*
X0318580Y0178721D01*
X0243689Y0178721D01*
X0241938Y0176970D02*
X0316829Y0176970D01*
X0314862Y0175003D02*
X0239971Y0175003D01*
X0238004Y0173036D02*
X0312895Y0173036D01*
X0310928Y0171069D02*
X0236037Y0171069D01*
X0234070Y0169102D02*
X0308961Y0169102D01*
X0306994Y0167135D02*
X0232103Y0167135D01*
X0230136Y0165168D02*
X0305027Y0165168D01*
X0303059Y0163201D02*
X0228169Y0163201D01*
X0226202Y0161234D02*
X0301092Y0161234D01*
X0299125Y0159267D02*
X0224235Y0159267D01*
X0218892Y0161234D02*
X0204305Y0161234D01*
X0204305Y0163201D02*
X0220859Y0163201D01*
X0222827Y0165168D02*
X0203373Y0165168D01*
X0202103Y0167135D02*
X0224794Y0167135D01*
X0226761Y0169102D02*
X0204070Y0169102D01*
X0206037Y0171069D02*
X0228728Y0171069D01*
X0216925Y0159267D02*
X0204305Y0159267D01*
X0204305Y0157300D02*
X0214958Y0157300D01*
X0212991Y0155333D02*
X0203885Y0155333D01*
X0202075Y0153366D02*
X0211024Y0153366D01*
X0205560Y0151399D02*
X0193380Y0151399D01*
X0192075Y0153366D02*
X0197767Y0153366D01*
X0195957Y0155333D02*
X0193885Y0155333D01*
X0194305Y0157300D02*
X0195537Y0157300D01*
X0195537Y0159267D02*
X0194305Y0159267D01*
X0185537Y0159267D02*
X0185512Y0159267D01*
X0185537Y0161234D02*
X0184305Y0161234D01*
X0184305Y0163201D02*
X0185537Y0163201D01*
X0186470Y0165168D02*
X0183373Y0165168D01*
X0165537Y0159267D02*
X0164305Y0159267D01*
X0164305Y0157300D02*
X0165537Y0157300D01*
X0165957Y0155333D02*
X0163885Y0155333D01*
X0162075Y0153366D02*
X0167767Y0153366D01*
X0157767Y0153366D02*
X0152075Y0153366D01*
X0153885Y0155333D02*
X0155957Y0155333D01*
X0155537Y0157300D02*
X0154305Y0157300D01*
X0154305Y0159267D02*
X0155537Y0159267D01*
X0145537Y0159267D02*
X0144305Y0159267D01*
X0144305Y0161234D02*
X0145537Y0161234D01*
X0145537Y0163201D02*
X0144305Y0163201D01*
X0143373Y0165168D02*
X0146470Y0165168D01*
X0136470Y0165168D02*
X0133591Y0165168D01*
X0134439Y0163201D02*
X0135537Y0163201D01*
X0135537Y0161234D02*
X0134505Y0161234D01*
X0134505Y0159819D02*
X0129921Y0159819D01*
X0129921Y0159819D01*
X0129921Y0152635D01*
X0130282Y0152635D01*
X0130995Y0152748D01*
X0131681Y0152971D01*
X0132324Y0153298D01*
X0132908Y0153722D01*
X0133418Y0154232D01*
X0133842Y0154816D01*
X0134170Y0155459D01*
X0134393Y0156145D01*
X0134505Y0156858D01*
X0134505Y0159819D01*
X0134505Y0159267D02*
X0135537Y0159267D01*
X0135537Y0157300D02*
X0134505Y0157300D01*
X0134105Y0155333D02*
X0135957Y0155333D01*
X0137767Y0153366D02*
X0132417Y0153366D01*
X0129921Y0153366D02*
X0129921Y0153366D01*
X0129921Y0155333D02*
X0129921Y0155333D01*
X0129921Y0157300D02*
X0129921Y0157300D01*
X0129921Y0159267D02*
X0129921Y0159267D01*
X0127426Y0153366D02*
X0125934Y0153366D01*
X0123967Y0151399D02*
X0139005Y0151399D01*
X0137038Y0149432D02*
X0122000Y0149432D01*
X0120033Y0147465D02*
X0135071Y0147465D01*
X0133104Y0145498D02*
X0118066Y0145498D01*
X0116099Y0143531D02*
X0131137Y0143531D01*
X0129170Y0141564D02*
X0114132Y0141564D01*
X0112603Y0139597D02*
X0127223Y0139597D01*
X0126666Y0137630D02*
X0112603Y0137630D01*
X0112878Y0135663D02*
X0116965Y0135663D01*
X0117438Y0136136D02*
X0116204Y0134902D01*
X0115537Y0133291D01*
X0115537Y0126347D01*
X0116204Y0124735D01*
X0117438Y0123502D01*
X0119049Y0122835D01*
X0120793Y0122835D01*
X0122405Y0123502D01*
X0123638Y0124735D01*
X0124305Y0126347D01*
X0124305Y0133291D01*
X0123638Y0134902D01*
X0122405Y0136136D01*
X0120793Y0136803D01*
X0119049Y0136803D01*
X0117438Y0136136D01*
X0115705Y0133696D02*
X0114138Y0133696D01*
X0114305Y0131729D02*
X0115537Y0131729D01*
X0115537Y0129762D02*
X0114305Y0129762D01*
X0114305Y0127794D02*
X0115537Y0127794D01*
X0115752Y0125827D02*
X0114090Y0125827D01*
X0112763Y0123860D02*
X0117079Y0123860D01*
X0122763Y0123860D02*
X0127079Y0123860D01*
X0125752Y0125827D02*
X0124090Y0125827D01*
X0124305Y0127794D02*
X0125537Y0127794D01*
X0125537Y0129762D02*
X0124305Y0129762D01*
X0124305Y0131729D02*
X0125537Y0131729D01*
X0125705Y0133696D02*
X0124138Y0133696D01*
X0122878Y0135663D02*
X0126666Y0135663D01*
X0134172Y0135663D02*
X0136682Y0135663D01*
X0136935Y0135916D02*
X0136425Y0135405D01*
X0136000Y0134822D01*
X0135673Y0134179D01*
X0135450Y0133492D01*
X0135337Y0132780D01*
X0135337Y0129819D01*
X0139921Y0129819D01*
X0139921Y0129819D01*
X0139921Y0137003D01*
X0139560Y0137003D01*
X0138848Y0136890D01*
X0138162Y0136667D01*
X0137519Y0136340D01*
X0136935Y0135916D01*
X0135516Y0133696D02*
X0134172Y0133696D01*
X0134305Y0131729D02*
X0135337Y0131729D01*
X0135337Y0129819D02*
X0135337Y0126858D01*
X0135450Y0126145D01*
X0135673Y0125459D01*
X0136000Y0124816D01*
X0136425Y0124232D01*
X0136935Y0123722D01*
X0137519Y0123298D01*
X0138162Y0122971D01*
X0138848Y0122748D01*
X0139560Y0122635D01*
X0139921Y0122635D01*
X0139921Y0129819D01*
X0139921Y0129819D01*
X0135337Y0129819D01*
X0135337Y0129762D02*
X0134305Y0129762D01*
X0134305Y0127794D02*
X0135337Y0127794D01*
X0135553Y0125827D02*
X0134090Y0125827D01*
X0132763Y0123860D02*
X0136797Y0123860D01*
X0139921Y0123860D02*
X0139921Y0123860D01*
X0139921Y0122635D02*
X0140282Y0122635D01*
X0140995Y0122748D01*
X0141681Y0122971D01*
X0142324Y0123298D01*
X0142908Y0123722D01*
X0143418Y0124232D01*
X0143842Y0124816D01*
X0144170Y0125459D01*
X0144393Y0126145D01*
X0144505Y0126858D01*
X0144505Y0129819D01*
X0144505Y0132780D01*
X0144393Y0133492D01*
X0144170Y0134179D01*
X0143842Y0134822D01*
X0143418Y0135405D01*
X0142908Y0135916D01*
X0142324Y0136340D01*
X0141681Y0136667D01*
X0140995Y0136890D01*
X0140282Y0137003D01*
X0139921Y0137003D01*
X0139921Y0129819D01*
X0139921Y0129819D01*
X0144505Y0129819D01*
X0139921Y0129819D01*
X0139921Y0129819D01*
X0139921Y0122635D01*
X0139921Y0125827D02*
X0139921Y0125827D01*
X0139921Y0127794D02*
X0139921Y0127794D01*
X0139921Y0129762D02*
X0139921Y0129762D01*
X0139921Y0131729D02*
X0139921Y0131729D01*
X0139921Y0133696D02*
X0139921Y0133696D01*
X0139921Y0135663D02*
X0139921Y0135663D01*
X0143161Y0135663D02*
X0146965Y0135663D01*
X0147438Y0136136D02*
X0146204Y0134902D01*
X0145537Y0133291D01*
X0145537Y0126347D01*
X0146204Y0124735D01*
X0147438Y0123502D01*
X0149049Y0122835D01*
X0150793Y0122835D01*
X0152405Y0123502D01*
X0153638Y0124735D01*
X0154305Y0126347D01*
X0154305Y0133291D01*
X0153638Y0134902D01*
X0152405Y0136136D01*
X0150793Y0136803D01*
X0149049Y0136803D01*
X0147438Y0136136D01*
X0145705Y0133696D02*
X0144327Y0133696D01*
X0144505Y0131729D02*
X0145537Y0131729D01*
X0145537Y0129762D02*
X0144505Y0129762D01*
X0144505Y0127794D02*
X0145537Y0127794D01*
X0145752Y0125827D02*
X0144289Y0125827D01*
X0143046Y0123860D02*
X0147079Y0123860D01*
X0152763Y0123860D02*
X0157079Y0123860D01*
X0157438Y0123502D02*
X0159049Y0122835D01*
X0160793Y0122835D01*
X0162405Y0123502D01*
X0163638Y0124735D01*
X0164305Y0126347D01*
X0164305Y0133291D01*
X0163638Y0134902D01*
X0162405Y0136136D01*
X0160793Y0136803D01*
X0159049Y0136803D01*
X0157438Y0136136D01*
X0156204Y0134902D01*
X0155537Y0133291D01*
X0155537Y0126347D01*
X0156204Y0124735D01*
X0157438Y0123502D01*
X0155752Y0125827D02*
X0154090Y0125827D01*
X0154305Y0127794D02*
X0155537Y0127794D01*
X0155537Y0129762D02*
X0154305Y0129762D01*
X0154305Y0131729D02*
X0155537Y0131729D01*
X0155705Y0133696D02*
X0154138Y0133696D01*
X0152878Y0135663D02*
X0156965Y0135663D01*
X0162878Y0135663D02*
X0166965Y0135663D01*
X0167438Y0136136D02*
X0166204Y0134902D01*
X0165537Y0133291D01*
X0165537Y0126347D01*
X0166204Y0124735D01*
X0167438Y0123502D01*
X0169049Y0122835D01*
X0170793Y0122835D01*
X0172405Y0123502D01*
X0173638Y0124735D01*
X0174305Y0126347D01*
X0174305Y0133291D01*
X0173638Y0134902D01*
X0172405Y0136136D01*
X0170793Y0136803D01*
X0169049Y0136803D01*
X0167438Y0136136D01*
X0165705Y0133696D02*
X0164138Y0133696D01*
X0164305Y0131729D02*
X0165537Y0131729D01*
X0165537Y0129762D02*
X0164305Y0129762D01*
X0164305Y0127794D02*
X0165537Y0127794D01*
X0165752Y0125827D02*
X0164090Y0125827D01*
X0162763Y0123860D02*
X0167079Y0123860D01*
X0172763Y0123860D02*
X0177079Y0123860D01*
X0175752Y0125827D02*
X0174090Y0125827D01*
X0174305Y0127794D02*
X0175537Y0127794D01*
X0175537Y0129762D02*
X0174305Y0129762D01*
X0174305Y0131729D02*
X0175537Y0131729D01*
X0175705Y0133696D02*
X0174138Y0133696D01*
X0172878Y0135663D02*
X0176965Y0135663D01*
X0195347Y0149432D02*
X0204635Y0149432D01*
X0204920Y0147465D02*
X0197314Y0147465D01*
X0199281Y0145498D02*
X0206758Y0145498D01*
X0210080Y0145498D02*
X0213035Y0145498D01*
X0213035Y0147465D02*
X0212433Y0147465D01*
X0212410Y0147442D02*
X0212410Y0147442D01*
X0213035Y0143531D02*
X0201248Y0143531D01*
X0218203Y0143531D02*
X0221576Y0143531D01*
X0221421Y0143595D02*
X0222021Y0143346D01*
X0221548Y0143106D01*
X0220825Y0142580D01*
X0220192Y0141947D01*
X0219666Y0141223D01*
X0219260Y0140426D01*
X0218988Y0139591D01*
X0218203Y0140376D01*
X0218203Y0149635D01*
X0219850Y0151282D01*
X0219043Y0149335D01*
X0219043Y0147153D01*
X0219878Y0145138D01*
X0221421Y0143595D01*
X0219913Y0141564D02*
X0218203Y0141564D01*
X0218982Y0139597D02*
X0218990Y0139597D01*
X0219729Y0145498D02*
X0218203Y0145498D01*
X0218203Y0147465D02*
X0219043Y0147465D01*
X0219083Y0149432D02*
X0218203Y0149432D01*
X0246118Y0153521D02*
X0300133Y0153521D01*
X0301083Y0153915D01*
X0301810Y0154642D01*
X0322896Y0175728D01*
X0322896Y0175282D01*
X0325581Y0172597D01*
X0329379Y0172597D01*
X0332065Y0175282D01*
X0332065Y0179080D01*
X0330956Y0180188D01*
X0331210Y0180442D01*
X0334473Y0183705D01*
X0335581Y0182597D01*
X0339379Y0182597D01*
X0339635Y0182852D01*
X0339635Y0181510D01*
X0339379Y0181765D01*
X0335581Y0181765D01*
X0332896Y0179080D01*
X0332896Y0175282D01*
X0334219Y0173960D01*
X0330702Y0170443D01*
X0329379Y0171765D01*
X0325581Y0171765D01*
X0322896Y0169080D01*
X0322896Y0165282D01*
X0325581Y0162597D01*
X0329379Y0162597D01*
X0329435Y0162652D01*
X0329435Y0161965D01*
X0327480Y0161965D01*
X0325499Y0161965D01*
X0322696Y0159163D01*
X0322696Y0157181D01*
X0322696Y0155199D01*
X0325499Y0152397D01*
X0325856Y0152397D01*
X0318348Y0144890D01*
X0251489Y0144890D01*
X0249782Y0146597D01*
X0250012Y0147153D01*
X0250012Y0149335D01*
X0249177Y0151351D01*
X0247634Y0152893D01*
X0246118Y0153521D01*
X0246494Y0153366D02*
X0324530Y0153366D01*
X0324857Y0151399D02*
X0249129Y0151399D01*
X0249972Y0149432D02*
X0322890Y0149432D01*
X0320923Y0147465D02*
X0250012Y0147465D01*
X0250881Y0145498D02*
X0318956Y0145498D01*
X0322332Y0141564D02*
X0340222Y0141564D01*
X0342035Y0143531D02*
X0324299Y0143531D01*
X0326266Y0145498D02*
X0342035Y0145498D01*
X0342035Y0147465D02*
X0328233Y0147465D01*
X0330200Y0149432D02*
X0342035Y0149432D01*
X0342035Y0151399D02*
X0332167Y0151399D01*
X0334134Y0153366D02*
X0334530Y0153366D01*
X0337480Y0153366D02*
X0337480Y0153366D01*
X0337480Y0155333D02*
X0337480Y0155333D01*
X0337480Y0157300D02*
X0337480Y0157300D01*
X0337480Y0159267D02*
X0337480Y0159267D01*
X0337480Y0161234D02*
X0337480Y0161234D01*
X0334767Y0161234D02*
X0334603Y0161234D01*
X0334603Y0163201D02*
X0334978Y0163201D01*
X0339983Y0163201D02*
X0342035Y0163201D01*
X0342035Y0165168D02*
X0341950Y0165168D01*
X0342035Y0161234D02*
X0340194Y0161234D01*
X0340431Y0153366D02*
X0342035Y0153366D01*
X0327480Y0157181D02*
X0327480Y0157181D01*
X0322696Y0157181D01*
X0327480Y0157181D01*
X0327480Y0157181D01*
X0327480Y0161965D01*
X0327480Y0157181D01*
X0327480Y0157300D02*
X0327480Y0157300D01*
X0327480Y0159267D02*
X0327480Y0159267D01*
X0327480Y0161234D02*
X0327480Y0161234D01*
X0324767Y0161234D02*
X0308402Y0161234D01*
X0310369Y0163201D02*
X0324978Y0163201D01*
X0323011Y0165168D02*
X0312336Y0165168D01*
X0314303Y0167135D02*
X0322896Y0167135D01*
X0322918Y0169102D02*
X0316270Y0169102D01*
X0318237Y0171069D02*
X0324885Y0171069D01*
X0325142Y0173036D02*
X0320204Y0173036D01*
X0322171Y0175003D02*
X0323175Y0175003D01*
X0329818Y0173036D02*
X0333295Y0173036D01*
X0333175Y0175003D02*
X0331785Y0175003D01*
X0332065Y0176970D02*
X0332896Y0176970D01*
X0332896Y0178937D02*
X0332065Y0178937D01*
X0331672Y0180904D02*
X0334720Y0180904D01*
X0335307Y0182871D02*
X0333639Y0182871D01*
X0322965Y0192706D02*
X0259657Y0192706D01*
X0260961Y0190739D02*
X0320998Y0190739D01*
X0319031Y0188772D02*
X0261265Y0188772D01*
X0260778Y0186805D02*
X0317064Y0186805D01*
X0330076Y0171069D02*
X0331328Y0171069D01*
X0322800Y0159267D02*
X0306435Y0159267D01*
X0304468Y0157300D02*
X0322696Y0157300D01*
X0322696Y0155333D02*
X0302501Y0155333D01*
X0332354Y0133696D02*
X0251464Y0133696D01*
X0252950Y0135663D02*
X0334321Y0135663D01*
X0336288Y0137630D02*
X0253003Y0137630D01*
X0253003Y0139597D02*
X0338255Y0139597D01*
X0330387Y0131729D02*
X0249497Y0131729D01*
X0283098Y0123860D02*
X0202763Y0123860D01*
X0162818Y0104190D02*
X0156930Y0104190D01*
X0154606Y0104190D02*
X0154606Y0104190D01*
X0154606Y0106157D02*
X0154606Y0106157D01*
X0154606Y0108124D02*
X0154606Y0108124D01*
X0154606Y0110091D02*
X0154606Y0110091D01*
X0154606Y0112058D02*
X0154606Y0112058D01*
X0154606Y0114025D02*
X0154606Y0114025D01*
X0151321Y0114025D02*
X0147723Y0114025D01*
X0149435Y0112058D02*
X0149588Y0112058D01*
X0141490Y0114025D02*
X0107803Y0114025D01*
X0107803Y0112058D02*
X0139777Y0112058D01*
X0139122Y0110091D02*
X0107803Y0110091D01*
X0107803Y0108124D02*
X0139193Y0108124D01*
X0140079Y0106157D02*
X0107803Y0106157D01*
X0107803Y0104190D02*
X0142818Y0104190D01*
X0146394Y0104190D02*
X0152282Y0104190D01*
X0149926Y0106157D02*
X0149134Y0106157D01*
X0159287Y0106157D02*
X0160079Y0106157D01*
X0159777Y0112058D02*
X0159624Y0112058D01*
X0157891Y0114025D02*
X0161490Y0114025D01*
X0115236Y0094355D02*
X0115236Y0094355D01*
X0115236Y0092388D02*
X0115236Y0092388D01*
X0115236Y0091315D02*
X0115236Y0091315D01*
X0115236Y0090421D02*
X0115236Y0090421D01*
X0115236Y0088454D02*
X0115236Y0088454D01*
X0108035Y0087473D02*
X0107293Y0086731D01*
X0105394Y0086731D01*
X0105394Y0091315D01*
X0105394Y0091315D01*
X0105394Y0086731D01*
X0103603Y0086731D01*
X0103603Y0073176D01*
X0108035Y0068744D01*
X0108035Y0087473D01*
X0108035Y0086487D02*
X0103603Y0086487D01*
X0103603Y0084520D02*
X0108035Y0084520D01*
X0108035Y0082553D02*
X0103603Y0082553D01*
X0103603Y0080586D02*
X0108035Y0080586D01*
X0108035Y0078619D02*
X0103603Y0078619D01*
X0103603Y0076652D02*
X0108035Y0076652D01*
X0108035Y0074685D02*
X0103603Y0074685D01*
X0104061Y0072718D02*
X0108035Y0072718D01*
X0108035Y0070751D02*
X0106028Y0070751D01*
X0107995Y0068784D02*
X0108035Y0068784D01*
X0102653Y0066817D02*
X0010378Y0066817D01*
X0010378Y0064850D02*
X0092492Y0064850D01*
X0093341Y0065699D02*
X0090773Y0063131D01*
X0090773Y0059499D01*
X0092435Y0057838D01*
X0092435Y0051881D01*
X0091677Y0051123D01*
X0091009Y0049511D01*
X0091009Y0042567D01*
X0091677Y0040956D01*
X0092910Y0039723D01*
X0094522Y0039055D01*
X0096266Y0039055D01*
X0097877Y0039723D01*
X0099110Y0040956D01*
X0099778Y0042567D01*
X0099778Y0049511D01*
X0099110Y0051123D01*
X0097877Y0052356D01*
X0097603Y0052470D01*
X0097603Y0057560D01*
X0099542Y0059499D01*
X0099542Y0063131D01*
X0096973Y0065699D01*
X0093341Y0065699D01*
X0097823Y0064850D02*
X0102728Y0064850D01*
X0101009Y0062883D02*
X0099542Y0062883D01*
X0099542Y0060916D02*
X0101009Y0060916D01*
X0101559Y0058949D02*
X0098992Y0058949D01*
X0097603Y0056982D02*
X0103526Y0056982D01*
X0107261Y0056982D02*
X0109488Y0056982D01*
X0111455Y0055015D02*
X0097603Y0055015D01*
X0097603Y0053048D02*
X0113422Y0053048D01*
X0111660Y0051081D02*
X0109128Y0051081D01*
X0109110Y0051123D02*
X0107877Y0052356D01*
X0106266Y0053024D01*
X0104522Y0053024D01*
X0102910Y0052356D01*
X0101677Y0051123D01*
X0101009Y0049511D01*
X0101009Y0042567D01*
X0101677Y0040956D01*
X0102910Y0039723D01*
X0104522Y0039055D01*
X0106266Y0039055D01*
X0107877Y0039723D01*
X0109110Y0040956D01*
X0109778Y0042567D01*
X0109778Y0049511D01*
X0109110Y0051123D01*
X0109778Y0049114D02*
X0111009Y0049114D01*
X0111009Y0047147D02*
X0109778Y0047147D01*
X0109778Y0045180D02*
X0111009Y0045180D01*
X0111009Y0043213D02*
X0109778Y0043213D01*
X0109231Y0041246D02*
X0111557Y0041246D01*
X0113982Y0039279D02*
X0106806Y0039279D01*
X0103982Y0039279D02*
X0096806Y0039279D01*
X0093982Y0039279D02*
X0010378Y0039279D01*
X0010378Y0041246D02*
X0039169Y0041246D01*
X0037972Y0042443D02*
X0040774Y0039641D01*
X0042756Y0039641D01*
X0044738Y0039641D01*
X0047540Y0042443D01*
X0047540Y0044425D01*
X0042756Y0044425D01*
X0042756Y0039641D01*
X0042756Y0044425D01*
X0042756Y0044425D01*
X0042756Y0044425D01*
X0047540Y0044425D01*
X0047540Y0046407D01*
X0044738Y0049209D01*
X0042756Y0049209D01*
X0042756Y0044425D01*
X0037972Y0044425D01*
X0037972Y0042443D01*
X0037972Y0043213D02*
X0010378Y0043213D01*
X0010378Y0045180D02*
X0037972Y0045180D01*
X0037972Y0044425D02*
X0042756Y0044425D01*
X0042756Y0044425D01*
X0042756Y0044425D01*
X0042756Y0049209D01*
X0040774Y0049209D01*
X0037972Y0046407D01*
X0037972Y0044425D01*
X0038712Y0047147D02*
X0010378Y0047147D01*
X0010378Y0049114D02*
X0012515Y0049114D01*
X0010575Y0051081D02*
X0010378Y0051081D01*
X0010378Y0056982D02*
X0010706Y0056982D01*
X0010378Y0058949D02*
X0013275Y0058949D01*
X0010378Y0060916D02*
X0090773Y0060916D01*
X0090773Y0062883D02*
X0010378Y0062883D01*
X0017433Y0058949D02*
X0022794Y0058949D01*
X0025354Y0058949D02*
X0025354Y0058949D01*
X0025354Y0059558D02*
X0025354Y0053874D01*
X0025354Y0048190D01*
X0025802Y0048190D01*
X0026685Y0048330D01*
X0027536Y0048606D01*
X0028334Y0049012D01*
X0029057Y0049538D01*
X0029690Y0050171D01*
X0030216Y0050895D01*
X0030622Y0051692D01*
X0030899Y0052543D01*
X0031039Y0053427D01*
X0031039Y0053874D01*
X0031039Y0054321D01*
X0030899Y0055205D01*
X0030622Y0056056D01*
X0030216Y0056853D01*
X0029690Y0057577D01*
X0029057Y0058210D01*
X0028334Y0058736D01*
X0027536Y0059142D01*
X0026685Y0059418D01*
X0025802Y0059558D01*
X0025354Y0059558D01*
X0025354Y0056982D02*
X0025354Y0056982D01*
X0025354Y0055015D02*
X0025354Y0055015D01*
X0025354Y0053874D02*
X0031039Y0053874D01*
X0025354Y0053874D01*
X0025354Y0053874D01*
X0025354Y0053048D02*
X0025354Y0053048D01*
X0025354Y0051081D02*
X0025354Y0051081D01*
X0025354Y0049114D02*
X0025354Y0049114D01*
X0022235Y0049114D02*
X0018193Y0049114D01*
X0020133Y0051081D02*
X0020398Y0051081D01*
X0020586Y0056982D02*
X0020002Y0056982D01*
X0027915Y0058949D02*
X0091323Y0058949D01*
X0092435Y0056982D02*
X0030122Y0056982D01*
X0030929Y0055015D02*
X0092435Y0055015D01*
X0092435Y0053048D02*
X0030979Y0053048D01*
X0030311Y0051081D02*
X0091660Y0051081D01*
X0091009Y0049114D02*
X0044833Y0049114D01*
X0042756Y0049114D02*
X0042756Y0049114D01*
X0042756Y0047147D02*
X0042756Y0047147D01*
X0042756Y0045180D02*
X0042756Y0045180D01*
X0042756Y0043213D02*
X0042756Y0043213D01*
X0042756Y0041246D02*
X0042756Y0041246D01*
X0046342Y0041246D02*
X0069452Y0041246D01*
X0068172Y0042526D02*
X0070857Y0039841D01*
X0074655Y0039841D01*
X0077340Y0042526D01*
X0077340Y0046324D01*
X0074655Y0049009D01*
X0070857Y0049009D01*
X0068172Y0046324D01*
X0068172Y0042526D01*
X0068172Y0043213D02*
X0047540Y0043213D01*
X0047540Y0045180D02*
X0068172Y0045180D01*
X0068994Y0047147D02*
X0046800Y0047147D01*
X0040679Y0049114D02*
X0028473Y0049114D01*
X0010378Y0037312D02*
X0128738Y0037312D01*
X0128324Y0039279D02*
X0116806Y0039279D01*
X0119231Y0041246D02*
X0128324Y0041246D01*
X0128324Y0043213D02*
X0119778Y0043213D01*
X0119778Y0045180D02*
X0128324Y0045180D01*
X0128709Y0047147D02*
X0119778Y0047147D01*
X0120731Y0053048D02*
X0125573Y0053048D01*
X0125573Y0054661D02*
X0130157Y0054661D01*
X0130157Y0054661D01*
X0125573Y0054661D01*
X0125573Y0055015D02*
X0118764Y0055015D01*
X0117103Y0056982D02*
X0125995Y0056982D01*
X0127962Y0058949D02*
X0119070Y0058949D01*
X0130157Y0058949D02*
X0130158Y0058949D01*
X0130157Y0056982D02*
X0130158Y0056982D01*
X0130157Y0055015D02*
X0130158Y0055015D01*
X0134742Y0055015D02*
X0155773Y0055015D01*
X0155773Y0053048D02*
X0134742Y0053048D01*
X0134320Y0056982D02*
X0156278Y0056982D01*
X0158245Y0058949D02*
X0132353Y0058949D01*
X0146098Y0051081D02*
X0157538Y0051081D01*
X0144690Y0045180D02*
X0137892Y0045180D01*
X0137892Y0043213D02*
X0146124Y0043213D01*
X0146124Y0041246D02*
X0137892Y0041246D01*
X0137892Y0039279D02*
X0146124Y0039279D01*
X0146538Y0037312D02*
X0137477Y0037312D01*
X0135954Y0035345D02*
X0148062Y0035345D01*
X0148036Y0033378D02*
X0010378Y0033378D01*
X0010378Y0035345D02*
X0130262Y0035345D01*
X0142135Y0027477D02*
X0010378Y0027477D01*
X0010378Y0029444D02*
X0144102Y0029444D01*
X0146069Y0031411D02*
X0010378Y0031411D01*
X0010378Y0025510D02*
X0047768Y0025510D01*
X0042592Y0023543D02*
X0010378Y0023543D01*
X0022644Y0021576D02*
X0039985Y0021576D01*
X0039154Y0019609D02*
X0024908Y0019609D01*
X0026271Y0017642D02*
X0039122Y0017642D01*
X0039816Y0015675D02*
X0027152Y0015675D01*
X0027679Y0013708D02*
X0041703Y0013708D01*
X0047510Y0013708D02*
X0051451Y0013708D01*
X0049636Y0015675D02*
X0049397Y0015675D01*
X0054591Y0015675D02*
X0054622Y0015675D01*
X0054591Y0017642D02*
X0054622Y0017642D01*
X0054591Y0013708D02*
X0054622Y0013708D01*
X0057762Y0013708D02*
X0061703Y0013708D01*
X0059816Y0015675D02*
X0059576Y0015675D01*
X0067510Y0013708D02*
X0091009Y0013708D01*
X0091009Y0015675D02*
X0069397Y0015675D01*
X0070091Y0017642D02*
X0091009Y0017642D01*
X0091050Y0019609D02*
X0070059Y0019609D01*
X0069227Y0021576D02*
X0092130Y0021576D01*
X0098658Y0021576D02*
X0102130Y0021576D01*
X0101050Y0019609D02*
X0099738Y0019609D01*
X0099778Y0017642D02*
X0101009Y0017642D01*
X0101009Y0015675D02*
X0099778Y0015675D01*
X0099778Y0013708D02*
X0101009Y0013708D01*
X0101352Y0011741D02*
X0099436Y0011741D01*
X0097928Y0009774D02*
X0102859Y0009774D01*
X0107928Y0009774D02*
X0112859Y0009774D01*
X0111352Y0011741D02*
X0109436Y0011741D01*
X0109778Y0013708D02*
X0111009Y0013708D01*
X0111009Y0015675D02*
X0109778Y0015675D01*
X0109778Y0017642D02*
X0111009Y0017642D01*
X0111050Y0019609D02*
X0109738Y0019609D01*
X0108658Y0021576D02*
X0112130Y0021576D01*
X0118658Y0021576D02*
X0128721Y0021576D01*
X0128324Y0019609D02*
X0119738Y0019609D01*
X0119778Y0017642D02*
X0128324Y0017642D01*
X0128324Y0015675D02*
X0119778Y0015675D01*
X0119778Y0013708D02*
X0128324Y0013708D01*
X0128726Y0011741D02*
X0119436Y0011741D01*
X0117928Y0009774D02*
X0130233Y0009774D01*
X0135983Y0009774D02*
X0148033Y0009774D01*
X0148198Y0009609D02*
X0149956Y0008880D01*
X0151860Y0008880D01*
X0153618Y0009609D01*
X0154964Y0010955D01*
X0155692Y0012713D01*
X0155692Y0020616D01*
X0154964Y0022375D01*
X0153618Y0023720D01*
X0151860Y0024449D01*
X0149956Y0024449D01*
X0148198Y0023720D01*
X0146852Y0022375D01*
X0146124Y0020616D01*
X0146124Y0012713D01*
X0146852Y0010955D01*
X0148198Y0009609D01*
X0146526Y0011741D02*
X0137489Y0011741D01*
X0137892Y0013708D02*
X0146124Y0013708D01*
X0146124Y0015675D02*
X0137892Y0015675D01*
X0137892Y0017642D02*
X0146124Y0017642D01*
X0146124Y0019609D02*
X0137892Y0019609D01*
X0137495Y0021576D02*
X0146521Y0021576D01*
X0145511Y0023543D02*
X0148020Y0023543D01*
X0147478Y0025510D02*
X0162576Y0025510D01*
X0162576Y0025285D02*
X0163274Y0023600D01*
X0164564Y0022311D01*
X0166249Y0021613D01*
X0173672Y0021613D01*
X0175357Y0022311D01*
X0176647Y0023600D01*
X0177345Y0025285D01*
X0177345Y0027109D01*
X0176647Y0028794D01*
X0175357Y0030083D01*
X0173672Y0030781D01*
X0166249Y0030781D01*
X0164564Y0030083D01*
X0163274Y0028794D01*
X0162576Y0027109D01*
X0162576Y0025285D01*
X0163332Y0023543D02*
X0153796Y0023543D01*
X0155295Y0021576D02*
X0180782Y0021576D01*
X0182749Y0023543D02*
X0176590Y0023543D01*
X0177345Y0025510D02*
X0184716Y0025510D01*
X0177192Y0027477D02*
X0206483Y0027477D01*
X0208450Y0029444D02*
X0175997Y0029444D01*
X0163924Y0029444D02*
X0151412Y0029444D01*
X0153379Y0031411D02*
X0210417Y0031411D01*
X0212384Y0033378D02*
X0155346Y0033378D01*
X0157313Y0035345D02*
X0214351Y0035345D01*
X0219064Y0029444D02*
X0231702Y0029444D01*
X0233435Y0031176D02*
X0233435Y0032607D01*
X0232958Y0032409D01*
X0232702Y0032409D01*
X0232565Y0032353D01*
X0232388Y0032353D01*
X0232219Y0032300D01*
X0231647Y0032353D01*
X0221973Y0032353D01*
X0211672Y0022052D01*
X0213540Y0021278D01*
X0215082Y0019736D01*
X0215433Y0018889D01*
X0215784Y0019736D01*
X0217326Y0021278D01*
X0219342Y0022113D01*
X0221524Y0022113D01*
X0223538Y0021279D01*
X0233435Y0031176D01*
X0233435Y0031411D02*
X0221031Y0031411D01*
X0217097Y0027477D02*
X0229735Y0027477D01*
X0227768Y0025510D02*
X0215130Y0025510D01*
X0213163Y0023543D02*
X0225801Y0023543D01*
X0223834Y0021576D02*
X0222822Y0021576D01*
X0218044Y0021576D02*
X0212822Y0021576D01*
X0215135Y0019609D02*
X0215731Y0019609D01*
X0204516Y0025510D02*
X0196722Y0025510D01*
X0198689Y0023543D02*
X0202549Y0023543D01*
X0184749Y0013708D02*
X0183528Y0013708D01*
X0184749Y0011741D02*
X0173981Y0011741D01*
X0184749Y0009774D02*
X0153783Y0009774D01*
X0155289Y0011741D02*
X0165940Y0011741D01*
X0163230Y0013708D02*
X0155692Y0013708D01*
X0155692Y0015675D02*
X0162576Y0015675D01*
X0162797Y0017642D02*
X0155692Y0017642D01*
X0155692Y0019609D02*
X0164089Y0019609D01*
X0162729Y0027477D02*
X0149445Y0027477D01*
X0142723Y0047147D02*
X0137507Y0047147D01*
X0101660Y0051081D02*
X0099128Y0051081D01*
X0099778Y0049114D02*
X0101009Y0049114D01*
X0101009Y0047147D02*
X0099778Y0047147D01*
X0099778Y0045180D02*
X0101009Y0045180D01*
X0101009Y0043213D02*
X0099778Y0043213D01*
X0099231Y0041246D02*
X0101557Y0041246D01*
X0091557Y0041246D02*
X0076060Y0041246D01*
X0077340Y0043213D02*
X0091009Y0043213D01*
X0091009Y0045180D02*
X0077340Y0045180D01*
X0076517Y0047147D02*
X0091009Y0047147D01*
X0100686Y0068784D02*
X0010378Y0068784D01*
X0010378Y0070751D02*
X0052091Y0070751D01*
X0052235Y0070691D02*
X0054138Y0070691D01*
X0055897Y0071420D01*
X0057242Y0072766D01*
X0057971Y0074524D01*
X0057971Y0082427D01*
X0057242Y0084186D01*
X0055897Y0085531D01*
X0054138Y0086260D01*
X0052235Y0086260D01*
X0050477Y0085531D01*
X0049131Y0084186D01*
X0048402Y0082427D01*
X0048402Y0074524D01*
X0049131Y0072766D01*
X0050477Y0071420D01*
X0052235Y0070691D01*
X0054282Y0070751D02*
X0069891Y0070751D01*
X0070035Y0070691D02*
X0071938Y0070691D01*
X0073697Y0071420D01*
X0075042Y0072766D01*
X0075771Y0074524D01*
X0075771Y0082427D01*
X0075042Y0084186D01*
X0073697Y0085531D01*
X0071938Y0086260D01*
X0070035Y0086260D01*
X0068277Y0085531D01*
X0066931Y0084186D01*
X0066202Y0082427D01*
X0066202Y0074524D01*
X0066931Y0072766D01*
X0068277Y0071420D01*
X0070035Y0070691D01*
X0072082Y0070751D02*
X0098783Y0070751D01*
X0098435Y0072718D02*
X0074995Y0072718D01*
X0075771Y0074685D02*
X0098435Y0074685D01*
X0098435Y0076652D02*
X0075771Y0076652D01*
X0075771Y0078619D02*
X0098435Y0078619D01*
X0098435Y0080586D02*
X0075771Y0080586D01*
X0075719Y0082553D02*
X0098435Y0082553D01*
X0098435Y0084520D02*
X0074708Y0084520D01*
X0067265Y0084520D02*
X0056908Y0084520D01*
X0057919Y0082553D02*
X0066255Y0082553D01*
X0066202Y0080586D02*
X0057971Y0080586D01*
X0057971Y0078619D02*
X0066202Y0078619D01*
X0066202Y0076652D02*
X0057971Y0076652D01*
X0057971Y0074685D02*
X0066202Y0074685D01*
X0066978Y0072718D02*
X0057195Y0072718D01*
X0049178Y0072718D02*
X0010378Y0072718D01*
X0015830Y0074685D02*
X0039052Y0074685D01*
X0038057Y0076652D02*
X0016825Y0076652D01*
X0016825Y0078619D02*
X0038057Y0078619D01*
X0038466Y0080586D02*
X0015551Y0080586D01*
X0010378Y0082553D02*
X0038466Y0082553D01*
X0038466Y0084520D02*
X0010378Y0084520D01*
X0010378Y0086487D02*
X0038466Y0086487D01*
X0045972Y0086487D02*
X0098435Y0086487D01*
X0095157Y0088454D02*
X0095158Y0088454D01*
X0095157Y0090421D02*
X0095158Y0090421D01*
X0091535Y0088454D02*
X0045972Y0088454D01*
X0045972Y0090421D02*
X0090573Y0090421D01*
X0090573Y0092388D02*
X0045972Y0092388D01*
X0045972Y0094355D02*
X0091715Y0094355D01*
X0093229Y0096322D02*
X0072013Y0096322D01*
X0071938Y0096291D02*
X0073697Y0097020D01*
X0075042Y0098366D01*
X0075771Y0100124D01*
X0075771Y0108027D01*
X0075042Y0109786D01*
X0073697Y0111131D01*
X0071938Y0111860D01*
X0070035Y0111860D01*
X0068277Y0111131D01*
X0066931Y0109786D01*
X0066202Y0108027D01*
X0066202Y0100124D01*
X0066931Y0098366D01*
X0068277Y0097020D01*
X0070035Y0096291D01*
X0071938Y0096291D01*
X0069960Y0096322D02*
X0054687Y0096322D01*
X0054354Y0096214D02*
X0055100Y0096456D01*
X0055799Y0096813D01*
X0056434Y0097274D01*
X0056988Y0097829D01*
X0057450Y0098463D01*
X0057806Y0099162D01*
X0058048Y0099908D01*
X0058171Y0100683D01*
X0058171Y0104060D01*
X0053202Y0104060D01*
X0053202Y0096091D01*
X0053579Y0096091D01*
X0054354Y0096214D01*
X0053202Y0096322D02*
X0053171Y0096322D01*
X0053171Y0096091D02*
X0053171Y0104060D01*
X0048202Y0104060D01*
X0048202Y0100683D01*
X0048325Y0099908D01*
X0048568Y0099162D01*
X0048924Y0098463D01*
X0049385Y0097829D01*
X0049940Y0097274D01*
X0050574Y0096813D01*
X0051273Y0096456D01*
X0052019Y0096214D01*
X0052794Y0096091D01*
X0053171Y0096091D01*
X0051686Y0096322D02*
X0045972Y0096322D01*
X0045972Y0098289D02*
X0049050Y0098289D01*
X0048270Y0100256D02*
X0045972Y0100256D01*
X0045972Y0102223D02*
X0048202Y0102223D01*
X0048202Y0104091D02*
X0053171Y0104091D01*
X0053171Y0104060D01*
X0053202Y0104060D01*
X0053202Y0104091D01*
X0053171Y0104091D01*
X0053171Y0112060D01*
X0052794Y0112060D01*
X0052019Y0111937D01*
X0051273Y0111695D01*
X0050574Y0111338D01*
X0049940Y0110877D01*
X0049385Y0110323D01*
X0048924Y0109688D01*
X0048568Y0108989D01*
X0048325Y0108243D01*
X0048202Y0107468D01*
X0048202Y0104091D01*
X0048202Y0104190D02*
X0045972Y0104190D01*
X0045972Y0106157D02*
X0048202Y0106157D01*
X0048306Y0108124D02*
X0045972Y0108124D01*
X0045972Y0110091D02*
X0049217Y0110091D01*
X0045972Y0112058D02*
X0052785Y0112058D01*
X0053171Y0112058D02*
X0053202Y0112058D01*
X0053202Y0112060D02*
X0053202Y0104091D01*
X0058171Y0104091D01*
X0058171Y0107468D01*
X0058048Y0108243D01*
X0057806Y0108989D01*
X0057450Y0109688D01*
X0056988Y0110323D01*
X0056434Y0110877D01*
X0055799Y0111338D01*
X0055100Y0111695D01*
X0054354Y0111937D01*
X0053579Y0112060D01*
X0053202Y0112060D01*
X0053588Y0112058D02*
X0093035Y0112058D01*
X0093035Y0110091D02*
X0074737Y0110091D01*
X0075731Y0108124D02*
X0093035Y0108124D01*
X0093035Y0106157D02*
X0075771Y0106157D01*
X0075771Y0104190D02*
X0093035Y0104190D01*
X0093035Y0102223D02*
X0075771Y0102223D01*
X0075771Y0100256D02*
X0093035Y0100256D01*
X0093035Y0098289D02*
X0074966Y0098289D01*
X0067007Y0098289D02*
X0057323Y0098289D01*
X0058103Y0100256D02*
X0066202Y0100256D01*
X0066202Y0102223D02*
X0058171Y0102223D01*
X0058171Y0104190D02*
X0066202Y0104190D01*
X0066202Y0106157D02*
X0058171Y0106157D01*
X0058067Y0108124D02*
X0066243Y0108124D01*
X0067236Y0110091D02*
X0057156Y0110091D01*
X0053202Y0110091D02*
X0053171Y0110091D01*
X0053171Y0108124D02*
X0053202Y0108124D01*
X0053171Y0106157D02*
X0053202Y0106157D01*
X0053171Y0104190D02*
X0053202Y0104190D01*
X0053171Y0102223D02*
X0053202Y0102223D01*
X0053171Y0100256D02*
X0053202Y0100256D01*
X0053171Y0098289D02*
X0053202Y0098289D01*
X0038466Y0098289D02*
X0026232Y0098289D01*
X0026232Y0097862D02*
X0026232Y0100044D01*
X0026109Y0100341D01*
X0028810Y0103042D01*
X0029203Y0103991D01*
X0029203Y0124435D01*
X0033666Y0128898D01*
X0033666Y0125359D01*
X0034237Y0123980D01*
X0035293Y0122924D01*
X0037866Y0120351D01*
X0037866Y0119326D01*
X0037794Y0119007D01*
X0037811Y0118909D01*
X0037584Y0118682D01*
X0037584Y0115050D01*
X0038466Y0114168D01*
X0038466Y0095658D01*
X0025209Y0095658D01*
X0025397Y0095846D01*
X0026232Y0097862D01*
X0025595Y0096322D02*
X0038466Y0096322D01*
X0038466Y0100256D02*
X0026144Y0100256D01*
X0027991Y0102223D02*
X0038466Y0102223D01*
X0038466Y0104190D02*
X0029203Y0104190D01*
X0029203Y0106157D02*
X0038466Y0106157D01*
X0038466Y0108124D02*
X0029203Y0108124D01*
X0029203Y0110091D02*
X0038466Y0110091D01*
X0038466Y0112058D02*
X0029203Y0112058D01*
X0029203Y0114025D02*
X0038466Y0114025D01*
X0037584Y0115992D02*
X0029203Y0115992D01*
X0029203Y0117959D02*
X0037584Y0117959D01*
X0037866Y0119926D02*
X0029203Y0119926D01*
X0029203Y0121893D02*
X0036324Y0121893D01*
X0034357Y0123860D02*
X0029203Y0123860D01*
X0030596Y0125827D02*
X0033666Y0125827D01*
X0033666Y0127794D02*
X0032563Y0127794D01*
X0027220Y0129762D02*
X0026232Y0129762D01*
X0025534Y0131729D02*
X0029187Y0131729D01*
X0031154Y0133696D02*
X0023629Y0133696D01*
X0025214Y0135663D02*
X0033121Y0135663D01*
X0035088Y0137630D02*
X0026136Y0137630D01*
X0026232Y0139597D02*
X0037055Y0139597D01*
X0039022Y0141564D02*
X0025603Y0141564D01*
X0023926Y0143531D02*
X0040835Y0143531D01*
X0040835Y0145498D02*
X0025264Y0145498D01*
X0026241Y0147465D02*
X0040835Y0147465D01*
X0040835Y0149432D02*
X0026427Y0149432D01*
X0025881Y0151399D02*
X0040835Y0151399D01*
X0040835Y0153366D02*
X0024345Y0153366D01*
X0020764Y0153366D02*
X0020732Y0153366D01*
X0020732Y0151399D02*
X0020764Y0151399D01*
X0020732Y0149432D02*
X0020764Y0149432D01*
X0015615Y0151399D02*
X0010378Y0151399D01*
X0010378Y0153366D02*
X0017151Y0153366D01*
X0015069Y0149432D02*
X0010378Y0149432D01*
X0010378Y0147465D02*
X0015255Y0147465D01*
X0016232Y0145498D02*
X0010378Y0145498D01*
X0010378Y0143531D02*
X0017570Y0143531D01*
X0015893Y0141564D02*
X0010378Y0141564D01*
X0010378Y0139597D02*
X0015264Y0139597D01*
X0015360Y0137630D02*
X0010378Y0137630D01*
X0010378Y0135663D02*
X0016282Y0135663D01*
X0017867Y0133696D02*
X0010378Y0133696D01*
X0010378Y0131729D02*
X0015962Y0131729D01*
X0015264Y0129762D02*
X0010378Y0129762D01*
X0010378Y0127794D02*
X0014601Y0127794D01*
X0012634Y0125827D02*
X0010378Y0125827D01*
X0010378Y0123860D02*
X0010767Y0123860D01*
X0045372Y0121893D02*
X0067835Y0121893D01*
X0067835Y0119926D02*
X0045372Y0119926D01*
X0046353Y0117959D02*
X0067584Y0117959D01*
X0067584Y0115992D02*
X0046353Y0115992D01*
X0045972Y0114025D02*
X0068609Y0114025D01*
X0075328Y0114025D02*
X0093035Y0114025D01*
X0093035Y0115992D02*
X0076353Y0115992D01*
X0076353Y0117959D02*
X0093035Y0117959D01*
X0093035Y0119926D02*
X0075108Y0119926D01*
X0073003Y0121893D02*
X0093035Y0121893D01*
X0093035Y0123860D02*
X0092763Y0123860D01*
X0098203Y0123185D02*
X0099049Y0122835D01*
X0100793Y0122835D01*
X0102405Y0123502D01*
X0102635Y0123732D01*
X0102635Y0097391D01*
X0103028Y0096442D01*
X0103571Y0095899D01*
X0103495Y0095899D01*
X0102087Y0094492D01*
X0098203Y0098376D01*
X0098203Y0123185D01*
X0098203Y0121893D02*
X0102635Y0121893D01*
X0102635Y0119926D02*
X0098203Y0119926D01*
X0098203Y0117959D02*
X0102635Y0117959D01*
X0102635Y0115992D02*
X0098203Y0115992D01*
X0098203Y0114025D02*
X0102635Y0114025D01*
X0102635Y0112058D02*
X0098203Y0112058D01*
X0098203Y0110091D02*
X0102635Y0110091D01*
X0102635Y0108124D02*
X0098203Y0108124D01*
X0098203Y0106157D02*
X0102635Y0106157D01*
X0102635Y0104190D02*
X0098203Y0104190D01*
X0098203Y0102223D02*
X0102635Y0102223D01*
X0102635Y0100256D02*
X0098203Y0100256D01*
X0098290Y0098289D02*
X0102635Y0098289D01*
X0103147Y0096322D02*
X0100257Y0096322D01*
X0105394Y0090421D02*
X0105394Y0090421D01*
X0105394Y0088454D02*
X0105394Y0088454D01*
X0087079Y0123860D02*
X0082763Y0123860D01*
X0082405Y0123502D02*
X0083638Y0124735D01*
X0084305Y0126347D01*
X0084305Y0133291D01*
X0083638Y0134902D01*
X0082405Y0136136D01*
X0080793Y0136803D01*
X0079049Y0136803D01*
X0077438Y0136136D01*
X0076204Y0134902D01*
X0075537Y0133291D01*
X0075537Y0126347D01*
X0076204Y0124735D01*
X0077438Y0123502D01*
X0079049Y0122835D01*
X0080793Y0122835D01*
X0082405Y0123502D01*
X0084090Y0125827D02*
X0085752Y0125827D01*
X0085537Y0127794D02*
X0084305Y0127794D01*
X0084305Y0129762D02*
X0085537Y0129762D01*
X0085537Y0131729D02*
X0084305Y0131729D01*
X0084138Y0133696D02*
X0085705Y0133696D01*
X0086965Y0135663D02*
X0082878Y0135663D01*
X0087635Y0137630D02*
X0049450Y0137630D01*
X0051417Y0139597D02*
X0087635Y0139597D01*
X0087635Y0141564D02*
X0053384Y0141564D01*
X0055351Y0143531D02*
X0087635Y0143531D01*
X0087635Y0145498D02*
X0057318Y0145498D01*
X0059285Y0147465D02*
X0087635Y0147465D01*
X0087635Y0149432D02*
X0061252Y0149432D01*
X0063219Y0151399D02*
X0087635Y0151399D01*
X0087635Y0153366D02*
X0082075Y0153366D01*
X0082405Y0153502D02*
X0083638Y0154735D01*
X0084305Y0156347D01*
X0084305Y0163291D01*
X0083638Y0164902D01*
X0082405Y0166136D01*
X0080793Y0166803D01*
X0079049Y0166803D01*
X0077438Y0166136D01*
X0076204Y0164902D01*
X0075537Y0163291D01*
X0075537Y0156347D01*
X0076204Y0154735D01*
X0077438Y0153502D01*
X0079049Y0152835D01*
X0080793Y0152835D01*
X0082405Y0153502D01*
X0083885Y0155333D02*
X0085957Y0155333D01*
X0085537Y0157300D02*
X0084305Y0157300D01*
X0084305Y0159267D02*
X0085537Y0159267D01*
X0085537Y0161234D02*
X0084305Y0161234D01*
X0084305Y0163201D02*
X0085537Y0163201D01*
X0086470Y0165168D02*
X0083373Y0165168D01*
X0076470Y0165168D02*
X0073373Y0165168D01*
X0074305Y0163201D02*
X0075537Y0163201D01*
X0075537Y0161234D02*
X0074305Y0161234D01*
X0074305Y0159267D02*
X0075537Y0159267D01*
X0075537Y0157300D02*
X0074305Y0157300D01*
X0073885Y0155333D02*
X0075957Y0155333D01*
X0077767Y0153366D02*
X0072075Y0153366D01*
X0067767Y0153366D02*
X0065186Y0153366D01*
X0060473Y0159267D02*
X0048167Y0159267D01*
X0048167Y0157300D02*
X0058506Y0157300D01*
X0056539Y0155333D02*
X0047548Y0155333D01*
X0046003Y0153366D02*
X0054572Y0153366D01*
X0052605Y0151399D02*
X0046003Y0151399D01*
X0046003Y0149432D02*
X0050638Y0149432D01*
X0048671Y0147465D02*
X0046003Y0147465D01*
X0046003Y0145498D02*
X0046704Y0145498D01*
X0047483Y0135663D02*
X0066965Y0135663D01*
X0065705Y0133696D02*
X0045516Y0133696D01*
X0046188Y0131729D02*
X0065537Y0131729D01*
X0072878Y0135663D02*
X0076965Y0135663D01*
X0075705Y0133696D02*
X0074138Y0133696D01*
X0074305Y0131729D02*
X0075537Y0131729D01*
X0075537Y0129762D02*
X0074305Y0129762D01*
X0074305Y0127794D02*
X0075537Y0127794D01*
X0075752Y0125827D02*
X0074090Y0125827D01*
X0073003Y0123860D02*
X0077079Y0123860D01*
X0067079Y0123860D02*
X0046076Y0123860D01*
X0012429Y0092388D02*
X0010378Y0092388D01*
X0010378Y0090421D02*
X0014396Y0090421D01*
X0016745Y0088454D02*
X0010378Y0088454D01*
X0010378Y0094355D02*
X0010682Y0094355D01*
X0045972Y0084520D02*
X0049465Y0084520D01*
X0048455Y0082553D02*
X0045972Y0082553D01*
X0045972Y0080586D02*
X0048402Y0080586D01*
X0048402Y0078619D02*
X0046825Y0078619D01*
X0046825Y0076652D02*
X0048402Y0076652D01*
X0048402Y0074685D02*
X0045830Y0074685D01*
X0096317Y0135663D02*
X0096965Y0135663D01*
X0097835Y0137630D02*
X0094350Y0137630D01*
X0092803Y0139597D02*
X0097835Y0139597D01*
X0097835Y0141564D02*
X0092803Y0141564D01*
X0092803Y0143531D02*
X0097835Y0143531D01*
X0097835Y0145498D02*
X0092803Y0145498D01*
X0092803Y0147465D02*
X0097835Y0147465D01*
X0097835Y0149432D02*
X0092803Y0149432D01*
X0092803Y0151399D02*
X0097835Y0151399D01*
X0097767Y0153366D02*
X0092803Y0153366D01*
X0093885Y0155333D02*
X0095957Y0155333D01*
X0095537Y0157300D02*
X0094305Y0157300D01*
X0094305Y0159267D02*
X0095537Y0159267D01*
X0095537Y0161234D02*
X0094305Y0161234D01*
X0094305Y0163201D02*
X0095537Y0163201D01*
X0096470Y0165168D02*
X0093373Y0165168D01*
X0103373Y0165168D02*
X0106470Y0165168D01*
X0106204Y0164902D02*
X0105537Y0163291D01*
X0105537Y0156347D01*
X0106204Y0154735D01*
X0107438Y0153502D01*
X0109049Y0152835D01*
X0110793Y0152835D01*
X0112405Y0153502D01*
X0113638Y0154735D01*
X0114305Y0156347D01*
X0114305Y0163291D01*
X0113638Y0164902D01*
X0112405Y0166136D01*
X0110793Y0166803D01*
X0109049Y0166803D01*
X0107438Y0166136D01*
X0106204Y0164902D01*
X0105537Y0163201D02*
X0104305Y0163201D01*
X0104305Y0161234D02*
X0105537Y0161234D01*
X0105537Y0159267D02*
X0104305Y0159267D01*
X0104305Y0157300D02*
X0105537Y0157300D01*
X0105957Y0155333D02*
X0103885Y0155333D01*
X0103003Y0153366D02*
X0107767Y0153366D01*
X0112075Y0153366D02*
X0117767Y0153366D01*
X0116657Y0151399D02*
X0103003Y0151399D01*
X0103003Y0149432D02*
X0114690Y0149432D01*
X0112723Y0147465D02*
X0103003Y0147465D01*
X0103003Y0145498D02*
X0110756Y0145498D01*
X0108789Y0143531D02*
X0103003Y0143531D01*
X0103003Y0141564D02*
X0107435Y0141564D01*
X0107435Y0139597D02*
X0103003Y0139597D01*
X0104550Y0137630D02*
X0107435Y0137630D01*
X0106965Y0135663D02*
X0106517Y0135663D01*
X0113885Y0155333D02*
X0115957Y0155333D01*
X0115537Y0157300D02*
X0114305Y0157300D01*
X0114305Y0159267D02*
X0115537Y0159267D01*
X0115537Y0161234D02*
X0114305Y0161234D01*
X0114305Y0163201D02*
X0115537Y0163201D01*
X0116470Y0165168D02*
X0113373Y0165168D01*
X0102708Y0188772D02*
X0070284Y0188772D01*
X0071405Y0186805D02*
X0080811Y0186805D01*
X0078844Y0184838D02*
X0071580Y0184838D01*
X0070964Y0182871D02*
X0076877Y0182871D01*
X0074910Y0180904D02*
X0069000Y0180904D01*
X0072943Y0178937D02*
X0057220Y0178937D01*
X0057216Y0178920D02*
X0057478Y0180068D01*
X0057566Y0180843D01*
X0048110Y0180843D01*
X0048110Y0182811D01*
X0046142Y0182811D01*
X0046142Y0192266D01*
X0045367Y0192179D01*
X0044219Y0191917D01*
X0043108Y0191528D01*
X0042047Y0191017D01*
X0041049Y0190391D01*
X0040129Y0189657D01*
X0039296Y0188824D01*
X0038562Y0187903D01*
X0037935Y0186906D01*
X0037425Y0185845D01*
X0037036Y0184734D01*
X0036774Y0183586D01*
X0036686Y0182811D01*
X0046142Y0182811D01*
X0046142Y0180843D01*
X0036686Y0180843D01*
X0036774Y0180068D01*
X0037036Y0178920D01*
X0037425Y0177808D01*
X0037935Y0176747D01*
X0038562Y0175750D01*
X0039296Y0174830D01*
X0040129Y0173997D01*
X0041049Y0173263D01*
X0042047Y0172636D01*
X0043108Y0172125D01*
X0044219Y0171736D01*
X0045367Y0171474D01*
X0046142Y0171387D01*
X0046142Y0180842D01*
X0048110Y0180842D01*
X0048110Y0171387D01*
X0048885Y0171474D01*
X0050033Y0171736D01*
X0051144Y0172125D01*
X0052205Y0172636D01*
X0053202Y0173263D01*
X0054123Y0173997D01*
X0054956Y0174830D01*
X0055690Y0175750D01*
X0056316Y0176747D01*
X0056827Y0177808D01*
X0057216Y0178920D01*
X0056424Y0176970D02*
X0070976Y0176970D01*
X0069009Y0175003D02*
X0055094Y0175003D01*
X0052841Y0173036D02*
X0067042Y0173036D01*
X0065075Y0171069D02*
X0010378Y0171069D01*
X0010378Y0173036D02*
X0041411Y0173036D01*
X0039158Y0175003D02*
X0010378Y0175003D01*
X0010378Y0176970D02*
X0037828Y0176970D01*
X0037032Y0178937D02*
X0010378Y0178937D01*
X0010378Y0180904D02*
X0046142Y0180904D01*
X0046142Y0182871D02*
X0048110Y0182871D01*
X0048110Y0182811D02*
X0048110Y0192266D01*
X0048885Y0192179D01*
X0050033Y0191917D01*
X0051144Y0191528D01*
X0052205Y0191017D01*
X0053202Y0190391D01*
X0054123Y0189657D01*
X0054956Y0188824D01*
X0055690Y0187903D01*
X0056316Y0186906D01*
X0056827Y0185845D01*
X0057216Y0184734D01*
X0057478Y0183586D01*
X0057566Y0182811D01*
X0048110Y0182811D01*
X0048110Y0180904D02*
X0063993Y0180904D01*
X0062028Y0182871D02*
X0057559Y0182871D01*
X0057180Y0184838D02*
X0061412Y0184838D01*
X0061587Y0186805D02*
X0056365Y0186805D01*
X0054997Y0188772D02*
X0062708Y0188772D01*
X0054998Y0190739D02*
X0052648Y0190739D01*
X0052018Y0192706D02*
X0042517Y0192706D01*
X0041604Y0190739D02*
X0039561Y0190739D01*
X0039255Y0188772D02*
X0010378Y0188772D01*
X0010378Y0190739D02*
X0031069Y0190739D01*
X0031296Y0190629D02*
X0032408Y0190240D01*
X0033556Y0189978D01*
X0034331Y0189891D01*
X0034331Y0199346D01*
X0024875Y0199346D01*
X0024963Y0198572D01*
X0025225Y0197424D01*
X0025614Y0196312D01*
X0026124Y0195251D01*
X0026751Y0194254D01*
X0027485Y0193334D01*
X0028318Y0192501D01*
X0029238Y0191767D01*
X0030236Y0191140D01*
X0031296Y0190629D01*
X0034331Y0190739D02*
X0036299Y0190739D01*
X0036299Y0192706D02*
X0034331Y0192706D01*
X0034331Y0194673D02*
X0036299Y0194673D01*
X0036299Y0196640D02*
X0034331Y0196640D01*
X0034331Y0198607D02*
X0036299Y0198607D01*
X0036299Y0200574D02*
X0048653Y0200574D01*
X0048752Y0198607D02*
X0045671Y0198607D01*
X0045131Y0196640D02*
X0049279Y0196640D01*
X0050328Y0194673D02*
X0044142Y0194673D01*
X0046142Y0190739D02*
X0048110Y0190739D01*
X0048110Y0188772D02*
X0046142Y0188772D01*
X0046142Y0186805D02*
X0048110Y0186805D01*
X0048110Y0184838D02*
X0046142Y0184838D01*
X0037887Y0186805D02*
X0010378Y0186805D01*
X0010378Y0184838D02*
X0037072Y0184838D01*
X0036693Y0182871D02*
X0010378Y0182871D01*
X0010378Y0192706D02*
X0028113Y0192706D01*
X0026488Y0194673D02*
X0010378Y0194673D01*
X0010378Y0196640D02*
X0025499Y0196640D01*
X0024959Y0198607D02*
X0010378Y0198607D01*
X0010378Y0200574D02*
X0034331Y0200574D01*
X0034331Y0202541D02*
X0036299Y0202541D01*
X0036299Y0204508D02*
X0034331Y0204508D01*
X0034331Y0206475D02*
X0036299Y0206475D01*
X0036299Y0208442D02*
X0034331Y0208442D01*
X0028671Y0208442D02*
X0010378Y0208442D01*
X0010378Y0206475D02*
X0026805Y0206475D01*
X0025690Y0204508D02*
X0010378Y0204508D01*
X0010378Y0202541D02*
X0025066Y0202541D01*
X0041959Y0208442D02*
X0052504Y0208442D01*
X0050609Y0206475D02*
X0043825Y0206475D01*
X0044940Y0204508D02*
X0049474Y0204508D01*
X0048882Y0202541D02*
X0045564Y0202541D01*
X0021938Y0220244D02*
X0100370Y0220244D01*
X0100370Y0222211D02*
X0024334Y0222211D01*
X0025773Y0224178D02*
X0100370Y0224178D01*
X0100429Y0226145D02*
X0026710Y0226145D01*
X0027237Y0228112D02*
X0101180Y0228112D01*
X0100482Y0218277D02*
X0010378Y0218277D01*
X0026592Y0234013D02*
X0255018Y0234013D01*
X0257345Y0234013D02*
X0346007Y0234013D01*
X0349987Y0220244D02*
X0350660Y0220244D01*
X0351954Y0218277D02*
X0362417Y0218277D01*
X0362417Y0216310D02*
X0353921Y0216310D01*
X0355888Y0214343D02*
X0362417Y0214343D01*
X0362417Y0212376D02*
X0357855Y0212376D01*
X0358572Y0210409D02*
X0362417Y0210409D01*
X0362417Y0208442D02*
X0358572Y0208442D01*
X0358572Y0206475D02*
X0362417Y0206475D01*
X0362417Y0204508D02*
X0358572Y0204508D01*
X0358572Y0202541D02*
X0362417Y0202541D01*
X0362417Y0200574D02*
X0358572Y0200574D01*
X0358572Y0198607D02*
X0362417Y0198607D01*
X0362417Y0196640D02*
X0358572Y0196640D01*
X0358572Y0194673D02*
X0362417Y0194673D01*
X0362417Y0192706D02*
X0358572Y0192706D01*
X0358572Y0190739D02*
X0362417Y0190739D01*
X0362417Y0188772D02*
X0358572Y0188772D01*
X0358572Y0186805D02*
X0362417Y0186805D01*
X0362417Y0184838D02*
X0358572Y0184838D01*
X0358572Y0182871D02*
X0362417Y0182871D01*
X0362417Y0180904D02*
X0358572Y0180904D01*
X0358572Y0178937D02*
X0362417Y0178937D01*
X0362417Y0176970D02*
X0358572Y0176970D01*
X0358572Y0175003D02*
X0362417Y0175003D01*
X0362417Y0173036D02*
X0358572Y0173036D01*
X0358572Y0171069D02*
X0362417Y0171069D01*
X0362417Y0169102D02*
X0358572Y0169102D01*
X0358572Y0167135D02*
X0362417Y0167135D01*
X0362417Y0165168D02*
X0358572Y0165168D01*
X0358572Y0163201D02*
X0362417Y0163201D01*
X0362417Y0161234D02*
X0358572Y0161234D01*
X0358572Y0159267D02*
X0362417Y0159267D01*
X0362417Y0157300D02*
X0358572Y0157300D01*
X0358572Y0155333D02*
X0362417Y0155333D01*
X0362417Y0153366D02*
X0358572Y0153366D01*
X0358572Y0151399D02*
X0362417Y0151399D01*
X0362417Y0149432D02*
X0358572Y0149432D01*
X0358572Y0147465D02*
X0362417Y0147465D01*
X0362417Y0145498D02*
X0358572Y0145498D01*
X0358572Y0143531D02*
X0362417Y0143531D01*
X0362417Y0141564D02*
X0358572Y0141564D01*
X0358572Y0139597D02*
X0362417Y0139597D01*
X0362417Y0137630D02*
X0358572Y0137630D01*
X0358572Y0135663D02*
X0362417Y0135663D01*
X0362417Y0133696D02*
X0358572Y0133696D01*
X0358572Y0131729D02*
X0362417Y0131729D01*
X0362417Y0129762D02*
X0358572Y0129762D01*
X0358572Y0127794D02*
X0362417Y0127794D01*
X0362417Y0125827D02*
X0358572Y0125827D01*
X0358572Y0123860D02*
X0362417Y0123860D01*
X0362417Y0121893D02*
X0358572Y0121893D01*
X0358572Y0119926D02*
X0362417Y0119926D01*
X0362417Y0117959D02*
X0359778Y0117959D01*
X0359778Y0115992D02*
X0362417Y0115992D01*
X0362417Y0114025D02*
X0359108Y0114025D01*
X0328420Y0129762D02*
X0324297Y0129762D01*
X0326160Y0127794D02*
X0326453Y0127794D01*
X0296515Y0094355D02*
X0296319Y0094355D01*
X0294913Y0092388D02*
X0298482Y0092388D01*
X0300449Y0090421D02*
X0264589Y0090421D01*
X0262622Y0088454D02*
X0283378Y0088454D01*
X0282622Y0086487D02*
X0260655Y0086487D01*
X0259603Y0084520D02*
X0282825Y0084520D01*
X0283612Y0082553D02*
X0259603Y0082553D01*
X0259603Y0080586D02*
X0281645Y0080586D01*
X0279678Y0078619D02*
X0259603Y0078619D01*
X0259603Y0076652D02*
X0276210Y0076652D01*
X0274494Y0074685D02*
X0259603Y0074685D01*
X0259603Y0072718D02*
X0274235Y0072718D01*
X0275222Y0070751D02*
X0259603Y0070751D01*
X0259603Y0068784D02*
X0283708Y0068784D01*
X0282648Y0066817D02*
X0259603Y0066817D01*
X0259603Y0064850D02*
X0282688Y0064850D01*
X0283805Y0062883D02*
X0259603Y0062883D01*
X0259603Y0060916D02*
X0299954Y0060916D01*
X0301921Y0058949D02*
X0295622Y0058949D01*
X0295703Y0058868D02*
X0295193Y0059379D01*
X0294609Y0059803D01*
X0293966Y0060130D01*
X0293280Y0060353D01*
X0292567Y0060466D01*
X0289606Y0060466D01*
X0286645Y0060466D01*
X0285933Y0060353D01*
X0285247Y0060130D01*
X0284604Y0059803D01*
X0284020Y0059379D01*
X0283510Y0058868D01*
X0283085Y0058285D01*
X0282758Y0057642D01*
X0282535Y0056955D01*
X0282422Y0056243D01*
X0282422Y0055882D01*
X0289606Y0055882D01*
X0289606Y0055882D01*
X0289606Y0060466D01*
X0289606Y0055882D01*
X0289606Y0055882D01*
X0282422Y0055882D01*
X0282422Y0055521D01*
X0282535Y0054808D01*
X0282758Y0054122D01*
X0283085Y0053479D01*
X0283510Y0052895D01*
X0284020Y0052385D01*
X0284604Y0051961D01*
X0285247Y0051634D01*
X0285933Y0051411D01*
X0286645Y0051298D01*
X0289606Y0051298D01*
X0289606Y0055882D01*
X0289606Y0055882D01*
X0289606Y0051298D01*
X0292567Y0051298D01*
X0293280Y0051411D01*
X0293966Y0051634D01*
X0294609Y0051961D01*
X0295193Y0052385D01*
X0295703Y0052895D01*
X0296127Y0053479D01*
X0296455Y0054122D01*
X0296678Y0054808D01*
X0296791Y0055521D01*
X0296791Y0055882D01*
X0296791Y0056243D01*
X0296678Y0056955D01*
X0296455Y0057642D01*
X0296127Y0058285D01*
X0295703Y0058868D01*
X0296669Y0056982D02*
X0303888Y0056982D01*
X0305855Y0055015D02*
X0296710Y0055015D01*
X0296791Y0055882D02*
X0289606Y0055882D01*
X0296791Y0055882D01*
X0295814Y0053048D02*
X0307822Y0053048D01*
X0307835Y0051081D02*
X0259603Y0051081D01*
X0259603Y0053048D02*
X0283399Y0053048D01*
X0282502Y0055015D02*
X0259603Y0055015D01*
X0259603Y0056982D02*
X0282544Y0056982D01*
X0283590Y0058949D02*
X0259603Y0058949D01*
X0254435Y0058949D02*
X0238603Y0058949D01*
X0238603Y0060916D02*
X0254435Y0060916D01*
X0254435Y0062883D02*
X0238603Y0062883D01*
X0238603Y0064850D02*
X0254435Y0064850D01*
X0254435Y0066817D02*
X0238603Y0066817D01*
X0238603Y0068035D02*
X0254435Y0083867D01*
X0254435Y0047591D01*
X0254828Y0046642D01*
X0279356Y0022113D01*
X0279342Y0022113D01*
X0277326Y0021278D01*
X0275784Y0019736D01*
X0275433Y0018889D01*
X0275082Y0019736D01*
X0273540Y0021278D01*
X0271524Y0022113D01*
X0269342Y0022113D01*
X0267326Y0021278D01*
X0265784Y0019736D01*
X0265433Y0018889D01*
X0265082Y0019736D01*
X0263540Y0021278D01*
X0261524Y0022113D01*
X0259342Y0022113D01*
X0257326Y0021278D01*
X0255784Y0019736D01*
X0255433Y0018889D01*
X0255082Y0019736D01*
X0253540Y0021278D01*
X0251524Y0022113D01*
X0249342Y0022113D01*
X0248803Y0021890D01*
X0248803Y0048338D01*
X0249427Y0048962D01*
X0250003Y0050353D01*
X0250003Y0051858D01*
X0249427Y0053249D01*
X0248362Y0054314D01*
X0246972Y0054890D01*
X0245466Y0054890D01*
X0244075Y0054314D01*
X0243011Y0053249D01*
X0242435Y0051858D01*
X0242435Y0050378D01*
X0241373Y0050378D01*
X0239908Y0049771D01*
X0238788Y0048651D01*
X0238603Y0048205D01*
X0238603Y0068035D01*
X0239352Y0068784D02*
X0254435Y0068784D01*
X0254435Y0070751D02*
X0241319Y0070751D01*
X0243286Y0072718D02*
X0254435Y0072718D01*
X0254435Y0074685D02*
X0245253Y0074685D01*
X0247220Y0076652D02*
X0254435Y0076652D01*
X0254435Y0078619D02*
X0249187Y0078619D01*
X0251154Y0080586D02*
X0254435Y0080586D01*
X0254435Y0082553D02*
X0253121Y0082553D01*
X0266556Y0092388D02*
X0284300Y0092388D01*
X0295834Y0088454D02*
X0302416Y0088454D01*
X0304383Y0086487D02*
X0296591Y0086487D01*
X0296388Y0084520D02*
X0306350Y0084520D01*
X0308317Y0082553D02*
X0295226Y0082553D01*
X0297193Y0080586D02*
X0310284Y0080586D01*
X0311692Y0086487D02*
X0312622Y0086487D01*
X0313378Y0088454D02*
X0309725Y0088454D01*
X0297752Y0072718D02*
X0295461Y0072718D01*
X0297428Y0070751D02*
X0299719Y0070751D01*
X0299395Y0068784D02*
X0301686Y0068784D01*
X0301362Y0066817D02*
X0303653Y0066817D01*
X0303329Y0064850D02*
X0305620Y0064850D01*
X0305296Y0062883D02*
X0313805Y0062883D01*
X0313873Y0058949D02*
X0309230Y0058949D01*
X0307263Y0060916D02*
X0328235Y0060916D01*
X0328235Y0062883D02*
X0325408Y0062883D01*
X0326524Y0064850D02*
X0328909Y0064850D01*
X0330876Y0066817D02*
X0326564Y0066817D01*
X0325504Y0068784D02*
X0332843Y0068784D01*
X0342119Y0070751D02*
X0345221Y0070751D01*
X0328235Y0058949D02*
X0325339Y0058949D01*
X0326496Y0056982D02*
X0328235Y0056982D01*
X0328235Y0055015D02*
X0326591Y0055015D01*
X0325573Y0053048D02*
X0328235Y0053048D01*
X0328235Y0051081D02*
X0313003Y0051081D01*
X0313003Y0053048D02*
X0313640Y0053048D01*
X0313003Y0049114D02*
X0328235Y0049114D01*
X0328235Y0047147D02*
X0313003Y0047147D01*
X0313003Y0045180D02*
X0328235Y0045180D01*
X0328235Y0043213D02*
X0313003Y0043213D01*
X0313003Y0041246D02*
X0328235Y0041246D01*
X0328235Y0039279D02*
X0313003Y0039279D01*
X0313003Y0037312D02*
X0328235Y0037312D01*
X0328235Y0035345D02*
X0313003Y0035345D01*
X0313003Y0033378D02*
X0328235Y0033378D01*
X0328235Y0031411D02*
X0313003Y0031411D01*
X0313003Y0029444D02*
X0328235Y0029444D01*
X0328235Y0027477D02*
X0313003Y0027477D01*
X0313003Y0025510D02*
X0328235Y0025510D01*
X0328235Y0023543D02*
X0313003Y0023543D01*
X0313003Y0021576D02*
X0318044Y0021576D01*
X0315731Y0019609D02*
X0315135Y0019609D01*
X0307835Y0021576D02*
X0302822Y0021576D01*
X0305135Y0019609D02*
X0305731Y0019609D01*
X0307835Y0023543D02*
X0285236Y0023543D01*
X0283269Y0025510D02*
X0307835Y0025510D01*
X0307835Y0027477D02*
X0281302Y0027477D01*
X0279335Y0029444D02*
X0307835Y0029444D01*
X0307835Y0031411D02*
X0277368Y0031411D01*
X0275401Y0033378D02*
X0307835Y0033378D01*
X0307835Y0035345D02*
X0273434Y0035345D01*
X0271467Y0037312D02*
X0307835Y0037312D01*
X0307835Y0039279D02*
X0269500Y0039279D01*
X0267533Y0041246D02*
X0307835Y0041246D01*
X0307835Y0043213D02*
X0265566Y0043213D01*
X0263599Y0045180D02*
X0307835Y0045180D01*
X0307835Y0047147D02*
X0261632Y0047147D01*
X0259665Y0049114D02*
X0307835Y0049114D01*
X0311197Y0056982D02*
X0312716Y0056982D01*
X0297987Y0062883D02*
X0295408Y0062883D01*
X0289606Y0058949D02*
X0289606Y0058949D01*
X0289606Y0056982D02*
X0289606Y0056982D01*
X0289606Y0055882D02*
X0289606Y0055882D01*
X0289606Y0055015D02*
X0289606Y0055015D01*
X0289606Y0053048D02*
X0289606Y0053048D01*
X0266125Y0035345D02*
X0248803Y0035345D01*
X0248803Y0037312D02*
X0264158Y0037312D01*
X0262191Y0039279D02*
X0248803Y0039279D01*
X0248803Y0041246D02*
X0260224Y0041246D01*
X0258257Y0043213D02*
X0248803Y0043213D01*
X0248803Y0045180D02*
X0256290Y0045180D01*
X0254619Y0047147D02*
X0248803Y0047147D01*
X0249490Y0049114D02*
X0254435Y0049114D01*
X0254435Y0051081D02*
X0250003Y0051081D01*
X0249510Y0053048D02*
X0254435Y0053048D01*
X0254435Y0055015D02*
X0238603Y0055015D01*
X0238603Y0056982D02*
X0254435Y0056982D01*
X0242927Y0053048D02*
X0238603Y0053048D01*
X0238603Y0051081D02*
X0242435Y0051081D01*
X0239251Y0049114D02*
X0238603Y0049114D01*
X0238603Y0044582D02*
X0238788Y0044137D01*
X0239908Y0043016D01*
X0241373Y0042409D01*
X0242958Y0042409D01*
X0243635Y0042690D01*
X0243635Y0021576D01*
X0243396Y0021338D01*
X0241524Y0022113D01*
X0239342Y0022113D01*
X0237326Y0021278D01*
X0235784Y0019736D01*
X0235433Y0018889D01*
X0235082Y0019736D01*
X0233540Y0021278D01*
X0231635Y0022067D01*
X0238210Y0028642D01*
X0238603Y0029591D01*
X0238603Y0044582D01*
X0238603Y0043213D02*
X0239712Y0043213D01*
X0238603Y0041246D02*
X0243635Y0041246D01*
X0243635Y0039279D02*
X0238603Y0039279D01*
X0238603Y0037312D02*
X0243635Y0037312D01*
X0243635Y0035345D02*
X0238603Y0035345D01*
X0238603Y0033378D02*
X0243635Y0033378D01*
X0243635Y0031411D02*
X0238603Y0031411D01*
X0238542Y0029444D02*
X0243635Y0029444D01*
X0243635Y0027477D02*
X0237045Y0027477D01*
X0235078Y0025510D02*
X0243635Y0025510D01*
X0243635Y0023543D02*
X0233111Y0023543D01*
X0232822Y0021576D02*
X0238044Y0021576D01*
X0235731Y0019609D02*
X0235135Y0019609D01*
X0242822Y0021576D02*
X0243634Y0021576D01*
X0248803Y0023543D02*
X0277927Y0023543D01*
X0278044Y0021576D02*
X0272822Y0021576D01*
X0275135Y0019609D02*
X0275731Y0019609D01*
X0275960Y0025510D02*
X0248803Y0025510D01*
X0248803Y0027477D02*
X0273993Y0027477D01*
X0272026Y0029444D02*
X0248803Y0029444D01*
X0248803Y0031411D02*
X0270059Y0031411D01*
X0268092Y0033378D02*
X0248803Y0033378D01*
X0252822Y0021576D02*
X0258044Y0021576D01*
X0255731Y0019609D02*
X0255135Y0019609D01*
X0262822Y0021576D02*
X0268044Y0021576D01*
X0265731Y0019609D02*
X0265135Y0019609D01*
X0287203Y0021576D02*
X0288044Y0021576D01*
X0292822Y0021576D02*
X0298044Y0021576D01*
X0295731Y0019609D02*
X0295135Y0019609D01*
X0322822Y0021576D02*
X0328044Y0021576D01*
X0325731Y0019609D02*
X0325135Y0019609D01*
X0333403Y0021576D02*
X0338044Y0021576D01*
X0335731Y0019609D02*
X0335135Y0019609D01*
X0333403Y0023543D02*
X0352589Y0023543D01*
X0349264Y0021576D02*
X0342822Y0021576D01*
X0345135Y0019609D02*
X0347402Y0019609D01*
X0346267Y0017642D02*
X0345917Y0017642D01*
X0333403Y0025510D02*
X0362417Y0025510D01*
X0362417Y0027477D02*
X0333403Y0027477D01*
X0333403Y0029444D02*
X0362417Y0029444D01*
X0362417Y0031411D02*
X0333403Y0031411D01*
X0333403Y0033378D02*
X0362417Y0033378D01*
X0362417Y0035345D02*
X0333403Y0035345D01*
X0333403Y0037312D02*
X0362417Y0037312D01*
X0362417Y0039279D02*
X0333403Y0039279D01*
X0333403Y0041246D02*
X0362417Y0041246D01*
X0362417Y0043213D02*
X0333403Y0043213D01*
X0333403Y0045180D02*
X0362417Y0045180D01*
X0362417Y0047147D02*
X0333403Y0047147D01*
X0333403Y0049114D02*
X0362417Y0049114D01*
X0362417Y0051081D02*
X0356716Y0051081D01*
X0357850Y0053048D02*
X0362417Y0053048D01*
X0362417Y0055015D02*
X0357916Y0055015D01*
X0345016Y0056982D02*
X0333403Y0056982D01*
X0333403Y0055015D02*
X0343974Y0055015D01*
X0344039Y0053048D02*
X0333403Y0053048D01*
X0333403Y0051081D02*
X0345174Y0051081D01*
X0360560Y0023543D02*
X0362417Y0023543D01*
X0290119Y0070751D02*
X0280816Y0070751D01*
X0281803Y0072718D02*
X0283970Y0072718D01*
X0232165Y0058949D02*
X0232165Y0058949D01*
X0232165Y0056982D02*
X0232165Y0056982D01*
X0232165Y0056394D02*
X0232165Y0056394D01*
X0232165Y0055015D02*
X0232165Y0055015D01*
X0232165Y0053048D02*
X0232165Y0053048D01*
X0184919Y0007807D02*
X0026937Y0007807D01*
X0027464Y0009774D02*
X0092859Y0009774D01*
X0091352Y0011741D02*
X0027701Y0011741D01*
X0039617Y0155333D02*
X0010378Y0155333D01*
X0010378Y0157300D02*
X0038998Y0157300D01*
X0038998Y0159267D02*
X0010378Y0159267D01*
X0010378Y0161234D02*
X0040483Y0161234D01*
X0046682Y0161234D02*
X0060666Y0161234D01*
X0060666Y0163201D02*
X0010378Y0163201D01*
X0010378Y0165168D02*
X0060666Y0165168D01*
X0061198Y0167135D02*
X0010378Y0167135D01*
X0010378Y0169102D02*
X0063108Y0169102D01*
X0048110Y0173036D02*
X0046142Y0173036D01*
X0046142Y0175003D02*
X0048110Y0175003D01*
X0048110Y0176970D02*
X0046142Y0176970D01*
X0046142Y0178937D02*
X0048110Y0178937D01*
X0144305Y0157300D02*
X0144906Y0157300D01*
X0243075Y0186805D02*
X0251584Y0186805D01*
X0251097Y0188772D02*
X0243364Y0188772D01*
X0243364Y0190739D02*
X0251402Y0190739D01*
X0252705Y0192706D02*
X0241549Y0192706D01*
X0238201Y0226145D02*
X0251857Y0226145D01*
X0251097Y0228112D02*
X0237142Y0228112D01*
M02*
