G75*
%MOIN*%
%OFA0B0*%
%FSLAX25Y25*%
%IPPOS*%
%LPD*%
%AMOC8*
5,1,8,0,0,1.08239X$1,22.5*
%
%ADD10C,0.00000*%
%ADD11OC8,0.05600*%
%ADD12C,0.05200*%
%ADD13C,0.07400*%
%ADD14C,0.06000*%
%ADD15OC8,0.05200*%
%ADD16OC8,0.06300*%
%ADD17C,0.06300*%
%ADD18C,0.05600*%
%ADD19C,0.06600*%
%ADD20C,0.17000*%
%ADD21R,0.05906X0.05118*%
%ADD22C,0.04400*%
%ADD23C,0.07400*%
%ADD24C,0.03937*%
%ADD25C,0.04000*%
%ADD26C,0.01600*%
%ADD27C,0.01969*%
D10*
X0005394Y0001000D02*
X0005394Y0240882D01*
X0367402Y0240882D01*
X0367402Y0001000D01*
X0005394Y0001000D01*
X0010118Y0012142D02*
X0010120Y0012300D01*
X0010126Y0012458D01*
X0010136Y0012616D01*
X0010150Y0012774D01*
X0010168Y0012931D01*
X0010189Y0013088D01*
X0010215Y0013244D01*
X0010245Y0013400D01*
X0010278Y0013555D01*
X0010316Y0013708D01*
X0010357Y0013861D01*
X0010402Y0014013D01*
X0010451Y0014164D01*
X0010504Y0014313D01*
X0010560Y0014461D01*
X0010620Y0014607D01*
X0010684Y0014752D01*
X0010752Y0014895D01*
X0010823Y0015037D01*
X0010897Y0015177D01*
X0010975Y0015314D01*
X0011057Y0015450D01*
X0011141Y0015584D01*
X0011230Y0015715D01*
X0011321Y0015844D01*
X0011416Y0015971D01*
X0011513Y0016096D01*
X0011614Y0016218D01*
X0011718Y0016337D01*
X0011825Y0016454D01*
X0011935Y0016568D01*
X0012048Y0016679D01*
X0012163Y0016788D01*
X0012281Y0016893D01*
X0012402Y0016995D01*
X0012525Y0017095D01*
X0012651Y0017191D01*
X0012779Y0017284D01*
X0012909Y0017374D01*
X0013042Y0017460D01*
X0013177Y0017544D01*
X0013313Y0017623D01*
X0013452Y0017700D01*
X0013593Y0017772D01*
X0013735Y0017842D01*
X0013879Y0017907D01*
X0014025Y0017969D01*
X0014172Y0018027D01*
X0014321Y0018082D01*
X0014471Y0018133D01*
X0014622Y0018180D01*
X0014774Y0018223D01*
X0014927Y0018262D01*
X0015082Y0018298D01*
X0015237Y0018329D01*
X0015393Y0018357D01*
X0015549Y0018381D01*
X0015706Y0018401D01*
X0015864Y0018417D01*
X0016021Y0018429D01*
X0016180Y0018437D01*
X0016338Y0018441D01*
X0016496Y0018441D01*
X0016654Y0018437D01*
X0016813Y0018429D01*
X0016970Y0018417D01*
X0017128Y0018401D01*
X0017285Y0018381D01*
X0017441Y0018357D01*
X0017597Y0018329D01*
X0017752Y0018298D01*
X0017907Y0018262D01*
X0018060Y0018223D01*
X0018212Y0018180D01*
X0018363Y0018133D01*
X0018513Y0018082D01*
X0018662Y0018027D01*
X0018809Y0017969D01*
X0018955Y0017907D01*
X0019099Y0017842D01*
X0019241Y0017772D01*
X0019382Y0017700D01*
X0019521Y0017623D01*
X0019657Y0017544D01*
X0019792Y0017460D01*
X0019925Y0017374D01*
X0020055Y0017284D01*
X0020183Y0017191D01*
X0020309Y0017095D01*
X0020432Y0016995D01*
X0020553Y0016893D01*
X0020671Y0016788D01*
X0020786Y0016679D01*
X0020899Y0016568D01*
X0021009Y0016454D01*
X0021116Y0016337D01*
X0021220Y0016218D01*
X0021321Y0016096D01*
X0021418Y0015971D01*
X0021513Y0015844D01*
X0021604Y0015715D01*
X0021693Y0015584D01*
X0021777Y0015450D01*
X0021859Y0015314D01*
X0021937Y0015177D01*
X0022011Y0015037D01*
X0022082Y0014895D01*
X0022150Y0014752D01*
X0022214Y0014607D01*
X0022274Y0014461D01*
X0022330Y0014313D01*
X0022383Y0014164D01*
X0022432Y0014013D01*
X0022477Y0013861D01*
X0022518Y0013708D01*
X0022556Y0013555D01*
X0022589Y0013400D01*
X0022619Y0013244D01*
X0022645Y0013088D01*
X0022666Y0012931D01*
X0022684Y0012774D01*
X0022698Y0012616D01*
X0022708Y0012458D01*
X0022714Y0012300D01*
X0022716Y0012142D01*
X0022714Y0011984D01*
X0022708Y0011826D01*
X0022698Y0011668D01*
X0022684Y0011510D01*
X0022666Y0011353D01*
X0022645Y0011196D01*
X0022619Y0011040D01*
X0022589Y0010884D01*
X0022556Y0010729D01*
X0022518Y0010576D01*
X0022477Y0010423D01*
X0022432Y0010271D01*
X0022383Y0010120D01*
X0022330Y0009971D01*
X0022274Y0009823D01*
X0022214Y0009677D01*
X0022150Y0009532D01*
X0022082Y0009389D01*
X0022011Y0009247D01*
X0021937Y0009107D01*
X0021859Y0008970D01*
X0021777Y0008834D01*
X0021693Y0008700D01*
X0021604Y0008569D01*
X0021513Y0008440D01*
X0021418Y0008313D01*
X0021321Y0008188D01*
X0021220Y0008066D01*
X0021116Y0007947D01*
X0021009Y0007830D01*
X0020899Y0007716D01*
X0020786Y0007605D01*
X0020671Y0007496D01*
X0020553Y0007391D01*
X0020432Y0007289D01*
X0020309Y0007189D01*
X0020183Y0007093D01*
X0020055Y0007000D01*
X0019925Y0006910D01*
X0019792Y0006824D01*
X0019657Y0006740D01*
X0019521Y0006661D01*
X0019382Y0006584D01*
X0019241Y0006512D01*
X0019099Y0006442D01*
X0018955Y0006377D01*
X0018809Y0006315D01*
X0018662Y0006257D01*
X0018513Y0006202D01*
X0018363Y0006151D01*
X0018212Y0006104D01*
X0018060Y0006061D01*
X0017907Y0006022D01*
X0017752Y0005986D01*
X0017597Y0005955D01*
X0017441Y0005927D01*
X0017285Y0005903D01*
X0017128Y0005883D01*
X0016970Y0005867D01*
X0016813Y0005855D01*
X0016654Y0005847D01*
X0016496Y0005843D01*
X0016338Y0005843D01*
X0016180Y0005847D01*
X0016021Y0005855D01*
X0015864Y0005867D01*
X0015706Y0005883D01*
X0015549Y0005903D01*
X0015393Y0005927D01*
X0015237Y0005955D01*
X0015082Y0005986D01*
X0014927Y0006022D01*
X0014774Y0006061D01*
X0014622Y0006104D01*
X0014471Y0006151D01*
X0014321Y0006202D01*
X0014172Y0006257D01*
X0014025Y0006315D01*
X0013879Y0006377D01*
X0013735Y0006442D01*
X0013593Y0006512D01*
X0013452Y0006584D01*
X0013313Y0006661D01*
X0013177Y0006740D01*
X0013042Y0006824D01*
X0012909Y0006910D01*
X0012779Y0007000D01*
X0012651Y0007093D01*
X0012525Y0007189D01*
X0012402Y0007289D01*
X0012281Y0007391D01*
X0012163Y0007496D01*
X0012048Y0007605D01*
X0011935Y0007716D01*
X0011825Y0007830D01*
X0011718Y0007947D01*
X0011614Y0008066D01*
X0011513Y0008188D01*
X0011416Y0008313D01*
X0011321Y0008440D01*
X0011230Y0008569D01*
X0011141Y0008700D01*
X0011057Y0008834D01*
X0010975Y0008970D01*
X0010897Y0009107D01*
X0010823Y0009247D01*
X0010752Y0009389D01*
X0010684Y0009532D01*
X0010620Y0009677D01*
X0010560Y0009823D01*
X0010504Y0009971D01*
X0010451Y0010120D01*
X0010402Y0010271D01*
X0010357Y0010423D01*
X0010316Y0010576D01*
X0010278Y0010729D01*
X0010245Y0010884D01*
X0010215Y0011040D01*
X0010189Y0011196D01*
X0010168Y0011353D01*
X0010150Y0011510D01*
X0010136Y0011668D01*
X0010126Y0011826D01*
X0010120Y0011984D01*
X0010118Y0012142D01*
X0009725Y0229858D02*
X0009727Y0230016D01*
X0009733Y0230174D01*
X0009743Y0230332D01*
X0009757Y0230490D01*
X0009775Y0230647D01*
X0009796Y0230804D01*
X0009822Y0230960D01*
X0009852Y0231116D01*
X0009885Y0231271D01*
X0009923Y0231424D01*
X0009964Y0231577D01*
X0010009Y0231729D01*
X0010058Y0231880D01*
X0010111Y0232029D01*
X0010167Y0232177D01*
X0010227Y0232323D01*
X0010291Y0232468D01*
X0010359Y0232611D01*
X0010430Y0232753D01*
X0010504Y0232893D01*
X0010582Y0233030D01*
X0010664Y0233166D01*
X0010748Y0233300D01*
X0010837Y0233431D01*
X0010928Y0233560D01*
X0011023Y0233687D01*
X0011120Y0233812D01*
X0011221Y0233934D01*
X0011325Y0234053D01*
X0011432Y0234170D01*
X0011542Y0234284D01*
X0011655Y0234395D01*
X0011770Y0234504D01*
X0011888Y0234609D01*
X0012009Y0234711D01*
X0012132Y0234811D01*
X0012258Y0234907D01*
X0012386Y0235000D01*
X0012516Y0235090D01*
X0012649Y0235176D01*
X0012784Y0235260D01*
X0012920Y0235339D01*
X0013059Y0235416D01*
X0013200Y0235488D01*
X0013342Y0235558D01*
X0013486Y0235623D01*
X0013632Y0235685D01*
X0013779Y0235743D01*
X0013928Y0235798D01*
X0014078Y0235849D01*
X0014229Y0235896D01*
X0014381Y0235939D01*
X0014534Y0235978D01*
X0014689Y0236014D01*
X0014844Y0236045D01*
X0015000Y0236073D01*
X0015156Y0236097D01*
X0015313Y0236117D01*
X0015471Y0236133D01*
X0015628Y0236145D01*
X0015787Y0236153D01*
X0015945Y0236157D01*
X0016103Y0236157D01*
X0016261Y0236153D01*
X0016420Y0236145D01*
X0016577Y0236133D01*
X0016735Y0236117D01*
X0016892Y0236097D01*
X0017048Y0236073D01*
X0017204Y0236045D01*
X0017359Y0236014D01*
X0017514Y0235978D01*
X0017667Y0235939D01*
X0017819Y0235896D01*
X0017970Y0235849D01*
X0018120Y0235798D01*
X0018269Y0235743D01*
X0018416Y0235685D01*
X0018562Y0235623D01*
X0018706Y0235558D01*
X0018848Y0235488D01*
X0018989Y0235416D01*
X0019128Y0235339D01*
X0019264Y0235260D01*
X0019399Y0235176D01*
X0019532Y0235090D01*
X0019662Y0235000D01*
X0019790Y0234907D01*
X0019916Y0234811D01*
X0020039Y0234711D01*
X0020160Y0234609D01*
X0020278Y0234504D01*
X0020393Y0234395D01*
X0020506Y0234284D01*
X0020616Y0234170D01*
X0020723Y0234053D01*
X0020827Y0233934D01*
X0020928Y0233812D01*
X0021025Y0233687D01*
X0021120Y0233560D01*
X0021211Y0233431D01*
X0021300Y0233300D01*
X0021384Y0233166D01*
X0021466Y0233030D01*
X0021544Y0232893D01*
X0021618Y0232753D01*
X0021689Y0232611D01*
X0021757Y0232468D01*
X0021821Y0232323D01*
X0021881Y0232177D01*
X0021937Y0232029D01*
X0021990Y0231880D01*
X0022039Y0231729D01*
X0022084Y0231577D01*
X0022125Y0231424D01*
X0022163Y0231271D01*
X0022196Y0231116D01*
X0022226Y0230960D01*
X0022252Y0230804D01*
X0022273Y0230647D01*
X0022291Y0230490D01*
X0022305Y0230332D01*
X0022315Y0230174D01*
X0022321Y0230016D01*
X0022323Y0229858D01*
X0022321Y0229700D01*
X0022315Y0229542D01*
X0022305Y0229384D01*
X0022291Y0229226D01*
X0022273Y0229069D01*
X0022252Y0228912D01*
X0022226Y0228756D01*
X0022196Y0228600D01*
X0022163Y0228445D01*
X0022125Y0228292D01*
X0022084Y0228139D01*
X0022039Y0227987D01*
X0021990Y0227836D01*
X0021937Y0227687D01*
X0021881Y0227539D01*
X0021821Y0227393D01*
X0021757Y0227248D01*
X0021689Y0227105D01*
X0021618Y0226963D01*
X0021544Y0226823D01*
X0021466Y0226686D01*
X0021384Y0226550D01*
X0021300Y0226416D01*
X0021211Y0226285D01*
X0021120Y0226156D01*
X0021025Y0226029D01*
X0020928Y0225904D01*
X0020827Y0225782D01*
X0020723Y0225663D01*
X0020616Y0225546D01*
X0020506Y0225432D01*
X0020393Y0225321D01*
X0020278Y0225212D01*
X0020160Y0225107D01*
X0020039Y0225005D01*
X0019916Y0224905D01*
X0019790Y0224809D01*
X0019662Y0224716D01*
X0019532Y0224626D01*
X0019399Y0224540D01*
X0019264Y0224456D01*
X0019128Y0224377D01*
X0018989Y0224300D01*
X0018848Y0224228D01*
X0018706Y0224158D01*
X0018562Y0224093D01*
X0018416Y0224031D01*
X0018269Y0223973D01*
X0018120Y0223918D01*
X0017970Y0223867D01*
X0017819Y0223820D01*
X0017667Y0223777D01*
X0017514Y0223738D01*
X0017359Y0223702D01*
X0017204Y0223671D01*
X0017048Y0223643D01*
X0016892Y0223619D01*
X0016735Y0223599D01*
X0016577Y0223583D01*
X0016420Y0223571D01*
X0016261Y0223563D01*
X0016103Y0223559D01*
X0015945Y0223559D01*
X0015787Y0223563D01*
X0015628Y0223571D01*
X0015471Y0223583D01*
X0015313Y0223599D01*
X0015156Y0223619D01*
X0015000Y0223643D01*
X0014844Y0223671D01*
X0014689Y0223702D01*
X0014534Y0223738D01*
X0014381Y0223777D01*
X0014229Y0223820D01*
X0014078Y0223867D01*
X0013928Y0223918D01*
X0013779Y0223973D01*
X0013632Y0224031D01*
X0013486Y0224093D01*
X0013342Y0224158D01*
X0013200Y0224228D01*
X0013059Y0224300D01*
X0012920Y0224377D01*
X0012784Y0224456D01*
X0012649Y0224540D01*
X0012516Y0224626D01*
X0012386Y0224716D01*
X0012258Y0224809D01*
X0012132Y0224905D01*
X0012009Y0225005D01*
X0011888Y0225107D01*
X0011770Y0225212D01*
X0011655Y0225321D01*
X0011542Y0225432D01*
X0011432Y0225546D01*
X0011325Y0225663D01*
X0011221Y0225782D01*
X0011120Y0225904D01*
X0011023Y0226029D01*
X0010928Y0226156D01*
X0010837Y0226285D01*
X0010748Y0226416D01*
X0010664Y0226550D01*
X0010582Y0226686D01*
X0010504Y0226823D01*
X0010430Y0226963D01*
X0010359Y0227105D01*
X0010291Y0227248D01*
X0010227Y0227393D01*
X0010167Y0227539D01*
X0010111Y0227687D01*
X0010058Y0227836D01*
X0010009Y0227987D01*
X0009964Y0228139D01*
X0009923Y0228292D01*
X0009885Y0228445D01*
X0009852Y0228600D01*
X0009822Y0228756D01*
X0009796Y0228912D01*
X0009775Y0229069D01*
X0009757Y0229226D01*
X0009743Y0229384D01*
X0009733Y0229542D01*
X0009727Y0229700D01*
X0009725Y0229858D01*
X0350276Y0229858D02*
X0350278Y0230016D01*
X0350284Y0230174D01*
X0350294Y0230332D01*
X0350308Y0230490D01*
X0350326Y0230647D01*
X0350347Y0230804D01*
X0350373Y0230960D01*
X0350403Y0231116D01*
X0350436Y0231271D01*
X0350474Y0231424D01*
X0350515Y0231577D01*
X0350560Y0231729D01*
X0350609Y0231880D01*
X0350662Y0232029D01*
X0350718Y0232177D01*
X0350778Y0232323D01*
X0350842Y0232468D01*
X0350910Y0232611D01*
X0350981Y0232753D01*
X0351055Y0232893D01*
X0351133Y0233030D01*
X0351215Y0233166D01*
X0351299Y0233300D01*
X0351388Y0233431D01*
X0351479Y0233560D01*
X0351574Y0233687D01*
X0351671Y0233812D01*
X0351772Y0233934D01*
X0351876Y0234053D01*
X0351983Y0234170D01*
X0352093Y0234284D01*
X0352206Y0234395D01*
X0352321Y0234504D01*
X0352439Y0234609D01*
X0352560Y0234711D01*
X0352683Y0234811D01*
X0352809Y0234907D01*
X0352937Y0235000D01*
X0353067Y0235090D01*
X0353200Y0235176D01*
X0353335Y0235260D01*
X0353471Y0235339D01*
X0353610Y0235416D01*
X0353751Y0235488D01*
X0353893Y0235558D01*
X0354037Y0235623D01*
X0354183Y0235685D01*
X0354330Y0235743D01*
X0354479Y0235798D01*
X0354629Y0235849D01*
X0354780Y0235896D01*
X0354932Y0235939D01*
X0355085Y0235978D01*
X0355240Y0236014D01*
X0355395Y0236045D01*
X0355551Y0236073D01*
X0355707Y0236097D01*
X0355864Y0236117D01*
X0356022Y0236133D01*
X0356179Y0236145D01*
X0356338Y0236153D01*
X0356496Y0236157D01*
X0356654Y0236157D01*
X0356812Y0236153D01*
X0356971Y0236145D01*
X0357128Y0236133D01*
X0357286Y0236117D01*
X0357443Y0236097D01*
X0357599Y0236073D01*
X0357755Y0236045D01*
X0357910Y0236014D01*
X0358065Y0235978D01*
X0358218Y0235939D01*
X0358370Y0235896D01*
X0358521Y0235849D01*
X0358671Y0235798D01*
X0358820Y0235743D01*
X0358967Y0235685D01*
X0359113Y0235623D01*
X0359257Y0235558D01*
X0359399Y0235488D01*
X0359540Y0235416D01*
X0359679Y0235339D01*
X0359815Y0235260D01*
X0359950Y0235176D01*
X0360083Y0235090D01*
X0360213Y0235000D01*
X0360341Y0234907D01*
X0360467Y0234811D01*
X0360590Y0234711D01*
X0360711Y0234609D01*
X0360829Y0234504D01*
X0360944Y0234395D01*
X0361057Y0234284D01*
X0361167Y0234170D01*
X0361274Y0234053D01*
X0361378Y0233934D01*
X0361479Y0233812D01*
X0361576Y0233687D01*
X0361671Y0233560D01*
X0361762Y0233431D01*
X0361851Y0233300D01*
X0361935Y0233166D01*
X0362017Y0233030D01*
X0362095Y0232893D01*
X0362169Y0232753D01*
X0362240Y0232611D01*
X0362308Y0232468D01*
X0362372Y0232323D01*
X0362432Y0232177D01*
X0362488Y0232029D01*
X0362541Y0231880D01*
X0362590Y0231729D01*
X0362635Y0231577D01*
X0362676Y0231424D01*
X0362714Y0231271D01*
X0362747Y0231116D01*
X0362777Y0230960D01*
X0362803Y0230804D01*
X0362824Y0230647D01*
X0362842Y0230490D01*
X0362856Y0230332D01*
X0362866Y0230174D01*
X0362872Y0230016D01*
X0362874Y0229858D01*
X0362872Y0229700D01*
X0362866Y0229542D01*
X0362856Y0229384D01*
X0362842Y0229226D01*
X0362824Y0229069D01*
X0362803Y0228912D01*
X0362777Y0228756D01*
X0362747Y0228600D01*
X0362714Y0228445D01*
X0362676Y0228292D01*
X0362635Y0228139D01*
X0362590Y0227987D01*
X0362541Y0227836D01*
X0362488Y0227687D01*
X0362432Y0227539D01*
X0362372Y0227393D01*
X0362308Y0227248D01*
X0362240Y0227105D01*
X0362169Y0226963D01*
X0362095Y0226823D01*
X0362017Y0226686D01*
X0361935Y0226550D01*
X0361851Y0226416D01*
X0361762Y0226285D01*
X0361671Y0226156D01*
X0361576Y0226029D01*
X0361479Y0225904D01*
X0361378Y0225782D01*
X0361274Y0225663D01*
X0361167Y0225546D01*
X0361057Y0225432D01*
X0360944Y0225321D01*
X0360829Y0225212D01*
X0360711Y0225107D01*
X0360590Y0225005D01*
X0360467Y0224905D01*
X0360341Y0224809D01*
X0360213Y0224716D01*
X0360083Y0224626D01*
X0359950Y0224540D01*
X0359815Y0224456D01*
X0359679Y0224377D01*
X0359540Y0224300D01*
X0359399Y0224228D01*
X0359257Y0224158D01*
X0359113Y0224093D01*
X0358967Y0224031D01*
X0358820Y0223973D01*
X0358671Y0223918D01*
X0358521Y0223867D01*
X0358370Y0223820D01*
X0358218Y0223777D01*
X0358065Y0223738D01*
X0357910Y0223702D01*
X0357755Y0223671D01*
X0357599Y0223643D01*
X0357443Y0223619D01*
X0357286Y0223599D01*
X0357128Y0223583D01*
X0356971Y0223571D01*
X0356812Y0223563D01*
X0356654Y0223559D01*
X0356496Y0223559D01*
X0356338Y0223563D01*
X0356179Y0223571D01*
X0356022Y0223583D01*
X0355864Y0223599D01*
X0355707Y0223619D01*
X0355551Y0223643D01*
X0355395Y0223671D01*
X0355240Y0223702D01*
X0355085Y0223738D01*
X0354932Y0223777D01*
X0354780Y0223820D01*
X0354629Y0223867D01*
X0354479Y0223918D01*
X0354330Y0223973D01*
X0354183Y0224031D01*
X0354037Y0224093D01*
X0353893Y0224158D01*
X0353751Y0224228D01*
X0353610Y0224300D01*
X0353471Y0224377D01*
X0353335Y0224456D01*
X0353200Y0224540D01*
X0353067Y0224626D01*
X0352937Y0224716D01*
X0352809Y0224809D01*
X0352683Y0224905D01*
X0352560Y0225005D01*
X0352439Y0225107D01*
X0352321Y0225212D01*
X0352206Y0225321D01*
X0352093Y0225432D01*
X0351983Y0225546D01*
X0351876Y0225663D01*
X0351772Y0225782D01*
X0351671Y0225904D01*
X0351574Y0226029D01*
X0351479Y0226156D01*
X0351388Y0226285D01*
X0351299Y0226416D01*
X0351215Y0226550D01*
X0351133Y0226686D01*
X0351055Y0226823D01*
X0350981Y0226963D01*
X0350910Y0227105D01*
X0350842Y0227248D01*
X0350778Y0227393D01*
X0350718Y0227539D01*
X0350662Y0227687D01*
X0350609Y0227836D01*
X0350560Y0227987D01*
X0350515Y0228139D01*
X0350474Y0228292D01*
X0350436Y0228445D01*
X0350403Y0228600D01*
X0350373Y0228756D01*
X0350347Y0228912D01*
X0350326Y0229069D01*
X0350308Y0229226D01*
X0350294Y0229384D01*
X0350284Y0229542D01*
X0350278Y0229700D01*
X0350276Y0229858D01*
X0350276Y0012929D02*
X0350278Y0013087D01*
X0350284Y0013245D01*
X0350294Y0013403D01*
X0350308Y0013561D01*
X0350326Y0013718D01*
X0350347Y0013875D01*
X0350373Y0014031D01*
X0350403Y0014187D01*
X0350436Y0014342D01*
X0350474Y0014495D01*
X0350515Y0014648D01*
X0350560Y0014800D01*
X0350609Y0014951D01*
X0350662Y0015100D01*
X0350718Y0015248D01*
X0350778Y0015394D01*
X0350842Y0015539D01*
X0350910Y0015682D01*
X0350981Y0015824D01*
X0351055Y0015964D01*
X0351133Y0016101D01*
X0351215Y0016237D01*
X0351299Y0016371D01*
X0351388Y0016502D01*
X0351479Y0016631D01*
X0351574Y0016758D01*
X0351671Y0016883D01*
X0351772Y0017005D01*
X0351876Y0017124D01*
X0351983Y0017241D01*
X0352093Y0017355D01*
X0352206Y0017466D01*
X0352321Y0017575D01*
X0352439Y0017680D01*
X0352560Y0017782D01*
X0352683Y0017882D01*
X0352809Y0017978D01*
X0352937Y0018071D01*
X0353067Y0018161D01*
X0353200Y0018247D01*
X0353335Y0018331D01*
X0353471Y0018410D01*
X0353610Y0018487D01*
X0353751Y0018559D01*
X0353893Y0018629D01*
X0354037Y0018694D01*
X0354183Y0018756D01*
X0354330Y0018814D01*
X0354479Y0018869D01*
X0354629Y0018920D01*
X0354780Y0018967D01*
X0354932Y0019010D01*
X0355085Y0019049D01*
X0355240Y0019085D01*
X0355395Y0019116D01*
X0355551Y0019144D01*
X0355707Y0019168D01*
X0355864Y0019188D01*
X0356022Y0019204D01*
X0356179Y0019216D01*
X0356338Y0019224D01*
X0356496Y0019228D01*
X0356654Y0019228D01*
X0356812Y0019224D01*
X0356971Y0019216D01*
X0357128Y0019204D01*
X0357286Y0019188D01*
X0357443Y0019168D01*
X0357599Y0019144D01*
X0357755Y0019116D01*
X0357910Y0019085D01*
X0358065Y0019049D01*
X0358218Y0019010D01*
X0358370Y0018967D01*
X0358521Y0018920D01*
X0358671Y0018869D01*
X0358820Y0018814D01*
X0358967Y0018756D01*
X0359113Y0018694D01*
X0359257Y0018629D01*
X0359399Y0018559D01*
X0359540Y0018487D01*
X0359679Y0018410D01*
X0359815Y0018331D01*
X0359950Y0018247D01*
X0360083Y0018161D01*
X0360213Y0018071D01*
X0360341Y0017978D01*
X0360467Y0017882D01*
X0360590Y0017782D01*
X0360711Y0017680D01*
X0360829Y0017575D01*
X0360944Y0017466D01*
X0361057Y0017355D01*
X0361167Y0017241D01*
X0361274Y0017124D01*
X0361378Y0017005D01*
X0361479Y0016883D01*
X0361576Y0016758D01*
X0361671Y0016631D01*
X0361762Y0016502D01*
X0361851Y0016371D01*
X0361935Y0016237D01*
X0362017Y0016101D01*
X0362095Y0015964D01*
X0362169Y0015824D01*
X0362240Y0015682D01*
X0362308Y0015539D01*
X0362372Y0015394D01*
X0362432Y0015248D01*
X0362488Y0015100D01*
X0362541Y0014951D01*
X0362590Y0014800D01*
X0362635Y0014648D01*
X0362676Y0014495D01*
X0362714Y0014342D01*
X0362747Y0014187D01*
X0362777Y0014031D01*
X0362803Y0013875D01*
X0362824Y0013718D01*
X0362842Y0013561D01*
X0362856Y0013403D01*
X0362866Y0013245D01*
X0362872Y0013087D01*
X0362874Y0012929D01*
X0362872Y0012771D01*
X0362866Y0012613D01*
X0362856Y0012455D01*
X0362842Y0012297D01*
X0362824Y0012140D01*
X0362803Y0011983D01*
X0362777Y0011827D01*
X0362747Y0011671D01*
X0362714Y0011516D01*
X0362676Y0011363D01*
X0362635Y0011210D01*
X0362590Y0011058D01*
X0362541Y0010907D01*
X0362488Y0010758D01*
X0362432Y0010610D01*
X0362372Y0010464D01*
X0362308Y0010319D01*
X0362240Y0010176D01*
X0362169Y0010034D01*
X0362095Y0009894D01*
X0362017Y0009757D01*
X0361935Y0009621D01*
X0361851Y0009487D01*
X0361762Y0009356D01*
X0361671Y0009227D01*
X0361576Y0009100D01*
X0361479Y0008975D01*
X0361378Y0008853D01*
X0361274Y0008734D01*
X0361167Y0008617D01*
X0361057Y0008503D01*
X0360944Y0008392D01*
X0360829Y0008283D01*
X0360711Y0008178D01*
X0360590Y0008076D01*
X0360467Y0007976D01*
X0360341Y0007880D01*
X0360213Y0007787D01*
X0360083Y0007697D01*
X0359950Y0007611D01*
X0359815Y0007527D01*
X0359679Y0007448D01*
X0359540Y0007371D01*
X0359399Y0007299D01*
X0359257Y0007229D01*
X0359113Y0007164D01*
X0358967Y0007102D01*
X0358820Y0007044D01*
X0358671Y0006989D01*
X0358521Y0006938D01*
X0358370Y0006891D01*
X0358218Y0006848D01*
X0358065Y0006809D01*
X0357910Y0006773D01*
X0357755Y0006742D01*
X0357599Y0006714D01*
X0357443Y0006690D01*
X0357286Y0006670D01*
X0357128Y0006654D01*
X0356971Y0006642D01*
X0356812Y0006634D01*
X0356654Y0006630D01*
X0356496Y0006630D01*
X0356338Y0006634D01*
X0356179Y0006642D01*
X0356022Y0006654D01*
X0355864Y0006670D01*
X0355707Y0006690D01*
X0355551Y0006714D01*
X0355395Y0006742D01*
X0355240Y0006773D01*
X0355085Y0006809D01*
X0354932Y0006848D01*
X0354780Y0006891D01*
X0354629Y0006938D01*
X0354479Y0006989D01*
X0354330Y0007044D01*
X0354183Y0007102D01*
X0354037Y0007164D01*
X0353893Y0007229D01*
X0353751Y0007299D01*
X0353610Y0007371D01*
X0353471Y0007448D01*
X0353335Y0007527D01*
X0353200Y0007611D01*
X0353067Y0007697D01*
X0352937Y0007787D01*
X0352809Y0007880D01*
X0352683Y0007976D01*
X0352560Y0008076D01*
X0352439Y0008178D01*
X0352321Y0008283D01*
X0352206Y0008392D01*
X0352093Y0008503D01*
X0351983Y0008617D01*
X0351876Y0008734D01*
X0351772Y0008853D01*
X0351671Y0008975D01*
X0351574Y0009100D01*
X0351479Y0009227D01*
X0351388Y0009356D01*
X0351299Y0009487D01*
X0351215Y0009621D01*
X0351133Y0009757D01*
X0351055Y0009894D01*
X0350981Y0010034D01*
X0350910Y0010176D01*
X0350842Y0010319D01*
X0350778Y0010464D01*
X0350718Y0010610D01*
X0350662Y0010758D01*
X0350609Y0010907D01*
X0350560Y0011058D01*
X0350515Y0011210D01*
X0350474Y0011363D01*
X0350436Y0011516D01*
X0350403Y0011671D01*
X0350373Y0011827D01*
X0350347Y0011983D01*
X0350326Y0012140D01*
X0350308Y0012297D01*
X0350294Y0012455D01*
X0350284Y0012613D01*
X0350278Y0012771D01*
X0350276Y0012929D01*
D11*
X0337480Y0157181D03*
X0327480Y0157181D03*
X0327480Y0167181D03*
X0337480Y0167181D03*
X0337480Y0177181D03*
X0327480Y0177181D03*
X0327480Y0187181D03*
X0337480Y0187181D03*
X0337480Y0197181D03*
X0327480Y0197181D03*
X0327480Y0207181D03*
X0337480Y0207181D03*
X0337480Y0217181D03*
X0327480Y0217181D03*
X0327480Y0227181D03*
X0337480Y0227181D03*
X0238780Y0188992D03*
X0208780Y0188992D03*
X0043583Y0157850D03*
X0043583Y0127850D03*
X0042756Y0044425D03*
X0072756Y0044425D03*
D12*
X0095394Y0043439D02*
X0095394Y0048639D01*
X0105394Y0048639D02*
X0105394Y0043439D01*
X0115394Y0043439D02*
X0115394Y0048639D01*
X0115394Y0018639D02*
X0115394Y0013439D01*
X0105394Y0013439D02*
X0105394Y0018639D01*
X0095394Y0018639D02*
X0095394Y0013439D01*
X0099921Y0127219D02*
X0099921Y0132419D01*
X0109921Y0132419D02*
X0109921Y0127219D01*
X0119921Y0127219D02*
X0119921Y0132419D01*
X0129921Y0132419D02*
X0129921Y0127219D01*
X0139921Y0127219D02*
X0139921Y0132419D01*
X0149921Y0132419D02*
X0149921Y0127219D01*
X0159921Y0127219D02*
X0159921Y0132419D01*
X0169921Y0132419D02*
X0169921Y0127219D01*
X0179921Y0127219D02*
X0179921Y0132419D01*
X0189921Y0132419D02*
X0189921Y0127219D01*
X0199921Y0127219D02*
X0199921Y0132419D01*
X0199921Y0157219D02*
X0199921Y0162419D01*
X0189921Y0162419D02*
X0189921Y0157219D01*
X0179921Y0157219D02*
X0179921Y0162419D01*
X0169921Y0162419D02*
X0169921Y0157219D01*
X0159921Y0157219D02*
X0159921Y0162419D01*
X0149921Y0162419D02*
X0149921Y0157219D01*
X0139921Y0157219D02*
X0139921Y0162419D01*
X0129921Y0162419D02*
X0129921Y0157219D01*
X0119921Y0157219D02*
X0119921Y0162419D01*
X0109921Y0162419D02*
X0109921Y0157219D01*
X0099921Y0157219D02*
X0099921Y0162419D01*
X0089921Y0162419D02*
X0089921Y0157219D01*
X0079921Y0157219D02*
X0079921Y0162419D01*
X0069921Y0162419D02*
X0069921Y0157219D01*
X0069921Y0132419D02*
X0069921Y0127219D01*
X0079921Y0127219D02*
X0079921Y0132419D01*
X0089921Y0132419D02*
X0089921Y0127219D01*
X0287006Y0125882D02*
X0292206Y0125882D01*
X0292206Y0115882D02*
X0287006Y0115882D01*
X0287006Y0105882D02*
X0292206Y0105882D01*
X0292206Y0095882D02*
X0287006Y0095882D01*
X0287006Y0085882D02*
X0292206Y0085882D01*
X0292206Y0075882D02*
X0287006Y0075882D01*
X0287006Y0065882D02*
X0292206Y0065882D01*
X0292206Y0055882D02*
X0287006Y0055882D01*
X0317006Y0055882D02*
X0322206Y0055882D01*
X0322206Y0065882D02*
X0317006Y0065882D01*
X0317006Y0075882D02*
X0322206Y0075882D01*
X0322206Y0085882D02*
X0317006Y0085882D01*
X0317006Y0095882D02*
X0322206Y0095882D01*
X0322206Y0105882D02*
X0317006Y0105882D01*
X0317006Y0115882D02*
X0322206Y0115882D01*
X0322206Y0125882D02*
X0317006Y0125882D01*
X0348345Y0074110D02*
X0353545Y0074110D01*
X0353545Y0064110D02*
X0348345Y0064110D01*
X0348345Y0054110D02*
X0353545Y0054110D01*
D13*
X0244528Y0138244D03*
X0234528Y0138244D03*
X0224528Y0138244D03*
X0224528Y0148244D03*
X0234528Y0148244D03*
X0244528Y0148244D03*
X0164606Y0109386D03*
X0154606Y0109386D03*
X0144606Y0109386D03*
X0025354Y0053874D03*
X0015354Y0053874D03*
X0044606Y0018441D03*
X0054606Y0018441D03*
X0064606Y0018441D03*
X0020748Y0098953D03*
X0020748Y0108953D03*
X0020748Y0118953D03*
X0020748Y0128953D03*
X0020748Y0138953D03*
X0020748Y0148953D03*
D14*
X0053187Y0107076D02*
X0053187Y0101076D01*
X0070987Y0101076D02*
X0070987Y0107076D01*
X0070987Y0081476D02*
X0070987Y0075476D01*
X0053187Y0075476D02*
X0053187Y0081476D01*
X0133108Y0045265D02*
X0133108Y0039265D01*
X0150908Y0039265D02*
X0150908Y0045265D01*
X0150908Y0019665D02*
X0150908Y0013665D01*
X0133108Y0013665D02*
X0133108Y0019665D01*
X0135354Y0219378D02*
X0135354Y0225378D01*
X0125354Y0225378D02*
X0125354Y0219378D01*
X0115354Y0219378D02*
X0115354Y0225378D01*
X0105354Y0225378D02*
X0105354Y0219378D01*
X0156535Y0219378D02*
X0156535Y0225378D01*
X0166535Y0225378D02*
X0166535Y0219378D01*
X0176535Y0219378D02*
X0176535Y0225378D01*
X0186535Y0225378D02*
X0186535Y0219378D01*
X0213504Y0218984D02*
X0213504Y0224984D01*
X0223504Y0224984D02*
X0223504Y0218984D01*
X0233504Y0218984D02*
X0233504Y0224984D01*
D15*
X0071969Y0116866D03*
X0041969Y0116866D03*
X0095157Y0091315D03*
X0105394Y0091315D03*
X0115236Y0091315D03*
X0115236Y0061315D03*
X0105394Y0061315D03*
X0095157Y0061315D03*
X0130157Y0054661D03*
X0160157Y0054661D03*
X0042441Y0077496D03*
X0012441Y0077496D03*
X0355394Y0086512D03*
X0355394Y0116512D03*
D16*
X0170472Y0188913D03*
D17*
X0180472Y0188913D03*
D18*
X0172761Y0026197D02*
X0167161Y0026197D01*
X0167161Y0016197D02*
X0172761Y0016197D01*
D19*
X0106496Y0185370D03*
X0066496Y0185370D03*
X0256181Y0188992D03*
X0256181Y0228992D03*
D20*
X0058937Y0200331D03*
X0035315Y0200331D03*
X0047126Y0181827D03*
D21*
X0218386Y0097969D03*
X0218386Y0091276D03*
X0218386Y0084583D03*
X0230197Y0084583D03*
X0230197Y0091276D03*
X0230197Y0097969D03*
X0241220Y0097969D03*
X0241220Y0091276D03*
X0241220Y0084583D03*
D22*
X0232165Y0056394D03*
X0242165Y0046394D03*
X0232165Y0036394D03*
D23*
X0230433Y0016629D02*
X0230433Y0009229D01*
X0220433Y0009229D02*
X0220433Y0016629D01*
X0210433Y0016629D02*
X0210433Y0009229D01*
X0200433Y0009229D02*
X0200433Y0016629D01*
X0190433Y0016629D02*
X0190433Y0009229D01*
X0240433Y0009229D02*
X0240433Y0016629D01*
X0250433Y0016629D02*
X0250433Y0009229D01*
X0260433Y0009229D02*
X0260433Y0016629D01*
X0270433Y0016629D02*
X0270433Y0009229D01*
X0280433Y0009229D02*
X0280433Y0016629D01*
X0290433Y0016629D02*
X0290433Y0009229D01*
X0300433Y0009229D02*
X0300433Y0016629D01*
X0310433Y0016629D02*
X0310433Y0009229D01*
X0320433Y0009229D02*
X0320433Y0016629D01*
X0330433Y0016629D02*
X0330433Y0009229D01*
X0340433Y0009229D02*
X0340433Y0016629D01*
D24*
X0319606Y0125882D02*
X0320019Y0127906D01*
X0320019Y0131506D01*
X0345819Y0157306D01*
X0345819Y0219106D01*
X0338019Y0226906D01*
X0337480Y0227181D01*
X0327480Y0227181D02*
X0327219Y0226906D01*
X0263019Y0226906D01*
X0249219Y0213106D01*
X0191019Y0213106D01*
X0188019Y0216106D01*
X0186219Y0216706D01*
X0180219Y0210706D01*
X0180819Y0208906D01*
X0180819Y0201106D01*
X0180219Y0210706D02*
X0139419Y0210706D01*
X0137019Y0213106D01*
X0135219Y0213706D01*
X0107019Y0185506D01*
X0106496Y0185370D01*
X0066496Y0185370D02*
X0066219Y0185506D01*
X0066219Y0192706D01*
X0059019Y0199906D01*
X0058937Y0200331D01*
X0135219Y0213706D02*
X0135219Y0222106D01*
X0135354Y0222378D01*
X0186219Y0222106D02*
X0186219Y0216706D01*
X0186219Y0222106D02*
X0186535Y0222378D01*
X0233504Y0221984D02*
X0233619Y0222106D01*
X0249219Y0222106D01*
X0255819Y0228706D01*
X0256181Y0228992D01*
X0255819Y0189106D02*
X0239019Y0189106D01*
X0238780Y0188992D01*
X0237219Y0187906D01*
X0215619Y0187906D01*
X0210819Y0183106D01*
X0186219Y0183106D01*
X0180819Y0188506D01*
X0180472Y0188913D01*
X0255819Y0189106D02*
X0256181Y0188992D01*
X0244528Y0138244D02*
X0245019Y0138106D01*
X0287619Y0138106D01*
X0299619Y0126106D01*
X0319419Y0126106D01*
X0319606Y0125882D01*
X0169961Y0016197D02*
X0169419Y0016306D01*
X0162819Y0016306D01*
X0146019Y0033106D01*
X0134619Y0033106D01*
X0132819Y0033706D01*
X0116619Y0017506D01*
X0115394Y0016039D01*
X0114819Y0016306D01*
X0107019Y0016306D01*
X0105394Y0016039D01*
X0105219Y0016306D01*
X0095619Y0016306D01*
X0095394Y0016039D01*
X0093819Y0016906D01*
X0085419Y0025306D01*
X0074019Y0025306D01*
X0072219Y0025906D01*
X0065019Y0018706D01*
X0064606Y0018441D01*
X0072219Y0025906D02*
X0072219Y0043906D01*
X0072756Y0044425D01*
X0072219Y0046306D01*
X0042819Y0075706D01*
X0042819Y0076906D01*
X0042441Y0077496D01*
X0132819Y0042106D02*
X0132819Y0033706D01*
X0132819Y0042106D02*
X0133108Y0042265D01*
D25*
X0222717Y0025134D03*
X0241220Y0036945D03*
X0251850Y0046000D03*
X0246219Y0051106D03*
X0247126Y0070803D03*
X0260619Y0084706D03*
X0278019Y0073306D03*
X0262480Y0027890D03*
X0100276Y0111354D03*
X0033346Y0111748D03*
X0138071Y0203087D03*
X0180819Y0201106D03*
X0187677Y0192850D03*
X0218780Y0172378D03*
X0242008Y0164504D03*
X0208419Y0148906D03*
X0280197Y0217654D03*
X0317598Y0166472D03*
D26*
X0329019Y0172306D02*
X0332619Y0175906D01*
X0332619Y0198706D01*
X0336219Y0202306D01*
X0339219Y0202306D01*
X0342219Y0205306D01*
X0342219Y0212506D01*
X0338019Y0216706D01*
X0337480Y0217181D01*
X0327480Y0217181D02*
X0327219Y0216706D01*
X0308019Y0197506D01*
X0128619Y0197506D01*
X0095619Y0164506D01*
X0095619Y0155506D01*
X0099819Y0151306D01*
X0099819Y0130306D01*
X0099921Y0129819D01*
X0089921Y0129819D02*
X0089619Y0130306D01*
X0088419Y0130306D01*
X0081819Y0136906D01*
X0038619Y0136906D01*
X0021219Y0119506D01*
X0020748Y0118953D01*
X0021219Y0109306D02*
X0020748Y0108953D01*
X0021219Y0109306D02*
X0033219Y0121306D01*
X0071019Y0121306D01*
X0079419Y0129706D01*
X0079921Y0129819D01*
X0071969Y0116866D02*
X0071619Y0116506D01*
X0071619Y0105106D01*
X0071019Y0104506D01*
X0070987Y0104076D01*
X0071019Y0103306D01*
X0075819Y0098506D01*
X0075819Y0056506D01*
X0095619Y0036706D01*
X0118419Y0036706D01*
X0123819Y0042106D01*
X0123819Y0042706D01*
X0131019Y0049906D01*
X0131619Y0049906D01*
X0134619Y0052906D01*
X0134619Y0055906D01*
X0224019Y0145306D01*
X0224019Y0147706D01*
X0224528Y0148244D01*
X0234528Y0148244D02*
X0234819Y0148306D01*
X0236619Y0148306D01*
X0251019Y0162706D01*
X0333219Y0162706D01*
X0337419Y0166906D01*
X0337480Y0167181D01*
X0329019Y0172306D02*
X0240819Y0172306D01*
X0200019Y0131506D01*
X0200019Y0130306D01*
X0199921Y0129819D01*
X0196419Y0145306D02*
X0181419Y0130306D01*
X0180219Y0130306D01*
X0179921Y0129819D01*
X0171819Y0130306D02*
X0190419Y0148906D01*
X0208419Y0148906D01*
X0213819Y0152506D02*
X0242619Y0181306D01*
X0311619Y0181306D01*
X0327219Y0196906D01*
X0327480Y0197181D01*
X0326019Y0202306D02*
X0332619Y0202306D01*
X0337419Y0207106D01*
X0337480Y0207181D01*
X0326019Y0202306D02*
X0307419Y0183706D01*
X0241419Y0183706D01*
X0218019Y0160306D01*
X0200019Y0160306D01*
X0199921Y0159819D01*
X0213819Y0152506D02*
X0143619Y0152506D01*
X0121419Y0130306D01*
X0120219Y0130306D01*
X0119921Y0129819D01*
X0114219Y0134506D02*
X0114219Y0124658D01*
X0110019Y0120458D01*
X0110019Y0066106D01*
X0105819Y0061906D01*
X0105394Y0061315D01*
X0105219Y0061306D01*
X0105219Y0046306D01*
X0105394Y0046039D01*
X0101019Y0049306D02*
X0101019Y0041506D01*
X0103419Y0039106D01*
X0117219Y0039106D01*
X0121419Y0043306D01*
X0121419Y0045706D01*
X0129819Y0054106D01*
X0130157Y0054661D01*
X0129819Y0054706D01*
X0129819Y0076906D01*
X0125919Y0080806D01*
X0154419Y0109306D01*
X0154606Y0109386D01*
X0160419Y0113506D02*
X0164019Y0109906D01*
X0164606Y0109386D01*
X0160419Y0113506D02*
X0160419Y0129706D01*
X0159921Y0129819D01*
X0169921Y0129819D02*
X0170019Y0130306D01*
X0171819Y0130306D01*
X0149921Y0129819D02*
X0149619Y0129706D01*
X0149619Y0114706D01*
X0144819Y0109906D01*
X0144606Y0109386D01*
X0125919Y0080806D02*
X0115419Y0091306D01*
X0115236Y0091315D01*
X0105394Y0091315D02*
X0105219Y0091306D01*
X0105219Y0067306D01*
X0099819Y0061906D01*
X0099819Y0059506D01*
X0097419Y0057106D01*
X0097419Y0052906D01*
X0101019Y0049306D01*
X0097419Y0057106D02*
X0093219Y0057106D01*
X0090819Y0059506D01*
X0090819Y0087106D01*
X0095019Y0091306D01*
X0095157Y0091315D01*
X0099819Y0091906D02*
X0099819Y0066106D01*
X0095619Y0061906D01*
X0095157Y0061315D01*
X0115236Y0061315D02*
X0115419Y0061306D01*
X0115419Y0046306D01*
X0115394Y0046039D01*
X0150908Y0042265D02*
X0152619Y0043306D01*
X0169419Y0026506D01*
X0169961Y0026197D01*
X0176019Y0012706D02*
X0171819Y0008506D01*
X0064419Y0008506D01*
X0054819Y0018106D01*
X0054606Y0018441D01*
X0054219Y0018706D01*
X0054219Y0032506D01*
X0042819Y0043906D01*
X0042756Y0044425D01*
X0042219Y0044506D01*
X0034419Y0044506D01*
X0025419Y0053506D01*
X0025354Y0053874D01*
X0015354Y0053874D02*
X0015219Y0054106D01*
X0012819Y0056506D01*
X0012819Y0076906D01*
X0012441Y0077496D01*
X0018819Y0093106D02*
X0042219Y0093106D01*
X0053019Y0103906D01*
X0053187Y0104076D01*
X0018819Y0093106D02*
X0015219Y0096706D01*
X0015219Y0141106D01*
X0020619Y0146506D01*
X0020619Y0148306D01*
X0020748Y0148953D01*
X0021219Y0149506D01*
X0021219Y0155506D01*
X0047019Y0181306D01*
X0047126Y0181827D01*
X0047019Y0182506D01*
X0035619Y0193906D01*
X0035619Y0199906D01*
X0035315Y0200331D01*
X0070419Y0177706D02*
X0114819Y0222106D01*
X0115354Y0222378D01*
X0125019Y0222106D02*
X0125354Y0222378D01*
X0125619Y0222706D01*
X0133419Y0230506D01*
X0168219Y0230506D01*
X0176019Y0222706D01*
X0176535Y0222378D01*
X0181419Y0226906D02*
X0181419Y0217306D01*
X0178419Y0214306D01*
X0174819Y0214306D01*
X0167019Y0222106D01*
X0166535Y0222378D01*
X0181419Y0226906D02*
X0188619Y0234106D01*
X0336819Y0234106D01*
X0342219Y0228706D01*
X0342219Y0228106D01*
X0349419Y0220906D01*
X0349419Y0136906D01*
X0320019Y0107506D01*
X0320019Y0106306D01*
X0319606Y0105882D01*
X0324819Y0100306D02*
X0276819Y0100306D01*
X0261219Y0084706D01*
X0260619Y0084706D01*
X0242019Y0084706D01*
X0241220Y0084583D01*
X0240819Y0084706D01*
X0230619Y0084706D01*
X0230197Y0084583D01*
X0232419Y0084106D01*
X0232419Y0056506D01*
X0232165Y0056394D01*
X0231819Y0055906D01*
X0191019Y0015106D01*
X0191019Y0013306D01*
X0190433Y0012929D01*
X0189819Y0012706D01*
X0176019Y0012706D01*
X0210433Y0012929D02*
X0210819Y0013306D01*
X0210819Y0020506D01*
X0236619Y0046306D01*
X0242019Y0046306D01*
X0242165Y0046394D01*
X0246219Y0051106D02*
X0285219Y0090106D01*
X0294219Y0090106D01*
X0296619Y0087706D01*
X0296619Y0079906D01*
X0319419Y0057106D01*
X0319419Y0055906D01*
X0319606Y0055882D01*
X0341019Y0064306D02*
X0320019Y0085306D01*
X0319606Y0085882D01*
X0324819Y0100306D02*
X0350619Y0074506D01*
X0350945Y0074110D01*
X0350619Y0064306D02*
X0341019Y0064306D01*
X0350619Y0064306D02*
X0350945Y0064110D01*
X0350945Y0054110D02*
X0350619Y0054106D01*
X0350619Y0022906D01*
X0341019Y0013306D01*
X0340433Y0012929D01*
X0320433Y0012929D02*
X0320019Y0013306D01*
X0320019Y0034306D01*
X0290019Y0064306D01*
X0290019Y0065506D01*
X0289606Y0065882D01*
X0278019Y0061906D02*
X0278019Y0073306D01*
X0282219Y0078106D02*
X0282219Y0032506D01*
X0300219Y0014506D01*
X0300219Y0013306D01*
X0300433Y0012929D01*
X0278019Y0061906D02*
X0230619Y0014506D01*
X0230619Y0013306D01*
X0230433Y0012929D01*
X0159819Y0051106D02*
X0151419Y0042706D01*
X0150908Y0042265D01*
X0159819Y0051106D02*
X0159819Y0054106D01*
X0160157Y0054661D01*
X0213819Y0087706D02*
X0216819Y0084706D01*
X0218019Y0084706D01*
X0218386Y0084583D01*
X0218619Y0084706D01*
X0230019Y0084706D01*
X0230197Y0084583D01*
X0230197Y0091276D02*
X0230619Y0091306D01*
X0231819Y0091306D01*
X0236619Y0096106D01*
X0236619Y0101506D01*
X0250419Y0115306D01*
X0289419Y0115306D01*
X0289606Y0115882D01*
X0289419Y0125506D02*
X0289606Y0125882D01*
X0289419Y0125506D02*
X0249819Y0125506D01*
X0225219Y0100906D01*
X0225219Y0096706D01*
X0219819Y0091306D01*
X0218619Y0091306D01*
X0218386Y0091276D01*
X0213819Y0087706D02*
X0213819Y0101506D01*
X0224019Y0111706D01*
X0224019Y0138106D01*
X0224528Y0138244D01*
X0210219Y0145306D02*
X0242019Y0177106D01*
X0327219Y0177106D01*
X0327480Y0177181D01*
X0327819Y0157306D02*
X0327480Y0157181D01*
X0327819Y0157306D02*
X0337419Y0157306D01*
X0337480Y0157181D01*
X0289606Y0105882D02*
X0289419Y0105706D01*
X0278619Y0105706D01*
X0264219Y0091306D01*
X0241419Y0091306D01*
X0241220Y0091276D01*
X0282219Y0078106D02*
X0289419Y0085306D01*
X0289606Y0085882D01*
X0210219Y0145306D02*
X0196419Y0145306D01*
X0187419Y0189106D02*
X0182619Y0193906D01*
X0176019Y0193906D01*
X0171219Y0189106D01*
X0170472Y0188913D01*
X0170019Y0188506D01*
X0159819Y0188506D01*
X0131619Y0160306D01*
X0130419Y0160306D01*
X0129921Y0159819D01*
X0119921Y0159819D02*
X0119619Y0160306D01*
X0118419Y0160306D01*
X0111819Y0166906D01*
X0108219Y0166906D01*
X0104619Y0163306D01*
X0104619Y0096706D01*
X0099819Y0091906D01*
X0114219Y0134506D02*
X0110019Y0138706D01*
X0110019Y0159706D01*
X0109921Y0159819D01*
X0080019Y0160306D02*
X0079921Y0159819D01*
X0080019Y0160306D02*
X0080019Y0177106D01*
X0125019Y0222106D01*
X0187419Y0189106D02*
X0208419Y0189106D01*
X0208780Y0188992D01*
X0213504Y0221984D02*
X0213819Y0222106D01*
X0223419Y0222106D01*
X0223504Y0221984D01*
X0070419Y0177706D02*
X0070419Y0160306D01*
X0069921Y0159819D01*
D27*
X0065537Y0159267D02*
X0048167Y0159267D01*
X0048167Y0159749D02*
X0045482Y0162435D01*
X0041684Y0162435D01*
X0038998Y0159749D01*
X0038998Y0155952D01*
X0041684Y0153266D01*
X0045482Y0153266D01*
X0048167Y0155952D01*
X0048167Y0159749D01*
X0046682Y0161234D02*
X0065537Y0161234D01*
X0065537Y0163201D02*
X0010378Y0163201D01*
X0010378Y0165168D02*
X0066470Y0165168D01*
X0066204Y0164902D02*
X0065537Y0163291D01*
X0065537Y0156347D01*
X0066204Y0154735D01*
X0067438Y0153502D01*
X0069049Y0152835D01*
X0070793Y0152835D01*
X0072405Y0153502D01*
X0073638Y0154735D01*
X0074305Y0156347D01*
X0074305Y0163291D01*
X0073638Y0164902D01*
X0073003Y0165537D01*
X0073003Y0176635D01*
X0112167Y0215799D01*
X0112644Y0215322D01*
X0114014Y0214755D01*
X0077828Y0178569D01*
X0077435Y0177620D01*
X0077435Y0166133D01*
X0076204Y0164902D01*
X0075537Y0163291D01*
X0075537Y0156347D01*
X0076204Y0154735D01*
X0077438Y0153502D01*
X0079049Y0152835D01*
X0080793Y0152835D01*
X0082405Y0153502D01*
X0083638Y0154735D01*
X0084305Y0156347D01*
X0084305Y0163291D01*
X0083638Y0164902D01*
X0082603Y0165937D01*
X0082603Y0176035D01*
X0122267Y0215699D01*
X0122644Y0215322D01*
X0124403Y0214594D01*
X0126306Y0214594D01*
X0128064Y0215322D01*
X0129410Y0216668D01*
X0130139Y0218426D01*
X0130139Y0223571D01*
X0130570Y0224002D01*
X0130570Y0218426D01*
X0131298Y0216668D01*
X0131466Y0216500D01*
X0131466Y0215260D01*
X0106661Y0190454D01*
X0105485Y0190454D01*
X0103616Y0189680D01*
X0102186Y0188250D01*
X0101412Y0186381D01*
X0101412Y0184359D01*
X0102186Y0182490D01*
X0103616Y0181060D01*
X0105485Y0180286D01*
X0107507Y0180286D01*
X0107912Y0180454D01*
X0093428Y0165969D01*
X0093177Y0165363D01*
X0092405Y0166136D01*
X0090793Y0166803D01*
X0089049Y0166803D01*
X0087438Y0166136D01*
X0086204Y0164902D01*
X0085537Y0163291D01*
X0085537Y0156347D01*
X0086204Y0154735D01*
X0087438Y0153502D01*
X0089049Y0152835D01*
X0090793Y0152835D01*
X0092405Y0153502D01*
X0093286Y0154384D01*
X0093428Y0154042D01*
X0094155Y0153315D01*
X0097235Y0150235D01*
X0097235Y0135933D01*
X0096204Y0134902D01*
X0095537Y0133291D01*
X0095537Y0126347D01*
X0096204Y0124735D01*
X0097438Y0123502D01*
X0099049Y0122835D01*
X0100793Y0122835D01*
X0102035Y0123349D01*
X0102035Y0097776D01*
X0098607Y0094348D01*
X0097056Y0095899D01*
X0095158Y0095899D01*
X0095158Y0091315D01*
X0095157Y0091315D01*
X0095157Y0091315D01*
X0090573Y0091315D01*
X0090573Y0093214D01*
X0093259Y0095899D01*
X0095157Y0095899D01*
X0095157Y0091315D01*
X0090573Y0091315D01*
X0090573Y0089416D01*
X0093259Y0086731D01*
X0095157Y0086731D01*
X0095157Y0091315D01*
X0095158Y0091315D01*
X0095158Y0086731D01*
X0097056Y0086731D01*
X0097235Y0086909D01*
X0097235Y0067176D01*
X0095758Y0065699D01*
X0093341Y0065699D01*
X0090773Y0063131D01*
X0090773Y0059499D01*
X0093341Y0056931D01*
X0096973Y0056931D01*
X0099542Y0059499D01*
X0099542Y0062174D01*
X0102010Y0064642D01*
X0102403Y0065591D01*
X0102403Y0087822D01*
X0103495Y0086731D01*
X0105394Y0086731D01*
X0107293Y0086731D01*
X0107435Y0086873D01*
X0107435Y0067176D01*
X0105958Y0065699D01*
X0103578Y0065699D01*
X0101009Y0063131D01*
X0101009Y0059499D01*
X0102635Y0057874D01*
X0102635Y0052081D01*
X0101677Y0051123D01*
X0101009Y0049511D01*
X0101009Y0042567D01*
X0101677Y0040956D01*
X0102910Y0039723D01*
X0103955Y0039290D01*
X0096832Y0039290D01*
X0097877Y0039723D01*
X0099110Y0040956D01*
X0099778Y0042567D01*
X0099778Y0049511D01*
X0099110Y0051123D01*
X0097877Y0052356D01*
X0096266Y0053024D01*
X0094522Y0053024D01*
X0092910Y0052356D01*
X0091677Y0051123D01*
X0091009Y0049511D01*
X0091009Y0044970D01*
X0078403Y0057576D01*
X0078403Y0099020D01*
X0078010Y0099969D01*
X0075771Y0102208D01*
X0075771Y0108027D01*
X0075042Y0109786D01*
X0074203Y0110625D01*
X0074203Y0112901D01*
X0076353Y0115050D01*
X0076353Y0118682D01*
X0074201Y0120833D01*
X0077154Y0123786D01*
X0077438Y0123502D01*
X0079049Y0122835D01*
X0080793Y0122835D01*
X0082405Y0123502D01*
X0083638Y0124735D01*
X0084305Y0126347D01*
X0084305Y0130764D01*
X0085537Y0129533D01*
X0085537Y0126347D01*
X0086204Y0124735D01*
X0087438Y0123502D01*
X0089049Y0122835D01*
X0090793Y0122835D01*
X0092405Y0123502D01*
X0093638Y0124735D01*
X0094305Y0126347D01*
X0094305Y0133291D01*
X0093638Y0134902D01*
X0092405Y0136136D01*
X0090793Y0136803D01*
X0089049Y0136803D01*
X0087438Y0136136D01*
X0086841Y0135538D01*
X0084010Y0138369D01*
X0083283Y0139096D01*
X0082333Y0139490D01*
X0038105Y0139490D01*
X0037155Y0139096D01*
X0026232Y0128174D01*
X0026232Y0130044D01*
X0025397Y0132059D01*
X0023855Y0133602D01*
X0023008Y0133953D01*
X0023855Y0134303D01*
X0025397Y0135846D01*
X0026232Y0137862D01*
X0026232Y0140044D01*
X0025397Y0142059D01*
X0023855Y0143602D01*
X0023255Y0143850D01*
X0023727Y0144091D01*
X0024451Y0144617D01*
X0025084Y0145250D01*
X0025610Y0145974D01*
X0026016Y0146771D01*
X0026292Y0147622D01*
X0026432Y0148505D01*
X0026432Y0148937D01*
X0020764Y0148937D01*
X0020764Y0148969D01*
X0020732Y0148969D01*
X0020732Y0154637D01*
X0020301Y0154637D01*
X0019417Y0154497D01*
X0018566Y0154221D01*
X0017769Y0153814D01*
X0017045Y0153288D01*
X0016412Y0152656D01*
X0015886Y0151932D01*
X0015480Y0151135D01*
X0015204Y0150284D01*
X0015064Y0149400D01*
X0015064Y0148969D01*
X0020732Y0148969D01*
X0020732Y0148937D01*
X0015064Y0148937D01*
X0015064Y0148505D01*
X0015204Y0147622D01*
X0015480Y0146771D01*
X0015886Y0145974D01*
X0016412Y0145250D01*
X0017045Y0144617D01*
X0017769Y0144091D01*
X0018241Y0143850D01*
X0017641Y0143602D01*
X0016099Y0142059D01*
X0015264Y0140044D01*
X0015264Y0137862D01*
X0016099Y0135846D01*
X0017641Y0134303D01*
X0018488Y0133953D01*
X0017641Y0133602D01*
X0016099Y0132059D01*
X0015264Y0130044D01*
X0015264Y0127862D01*
X0016099Y0125846D01*
X0017641Y0124303D01*
X0018488Y0123953D01*
X0017641Y0123602D01*
X0016099Y0122059D01*
X0015264Y0120044D01*
X0015264Y0117862D01*
X0016099Y0115846D01*
X0017641Y0114303D01*
X0018488Y0113953D01*
X0017641Y0113602D01*
X0016099Y0112059D01*
X0015264Y0110044D01*
X0015264Y0107862D01*
X0016099Y0105846D01*
X0017641Y0104303D01*
X0018488Y0103953D01*
X0017641Y0103602D01*
X0016099Y0102059D01*
X0015264Y0100044D01*
X0015264Y0097862D01*
X0016099Y0095846D01*
X0017641Y0094303D01*
X0019657Y0093469D01*
X0021839Y0093469D01*
X0023855Y0094303D01*
X0025397Y0095846D01*
X0026232Y0097862D01*
X0026232Y0100044D01*
X0025397Y0102059D01*
X0023855Y0103602D01*
X0023008Y0103953D01*
X0023855Y0104303D01*
X0025397Y0105846D01*
X0026232Y0107862D01*
X0026232Y0110044D01*
X0026051Y0110482D01*
X0034289Y0118721D01*
X0037623Y0118721D01*
X0037584Y0118682D01*
X0037584Y0115050D01*
X0040152Y0112482D01*
X0043785Y0112482D01*
X0046353Y0115050D01*
X0046353Y0118682D01*
X0046314Y0118721D01*
X0067623Y0118721D01*
X0067584Y0118682D01*
X0067584Y0115050D01*
X0069035Y0113600D01*
X0069035Y0111445D01*
X0068277Y0111131D01*
X0066931Y0109786D01*
X0066202Y0108027D01*
X0066202Y0100124D01*
X0066931Y0098366D01*
X0068277Y0097020D01*
X0070035Y0096291D01*
X0071938Y0096291D01*
X0073235Y0096828D01*
X0073235Y0085723D01*
X0071938Y0086260D01*
X0070035Y0086260D01*
X0068277Y0085531D01*
X0066931Y0084186D01*
X0066202Y0082427D01*
X0066202Y0074524D01*
X0066931Y0072766D01*
X0068277Y0071420D01*
X0070035Y0070691D01*
X0071938Y0070691D01*
X0073235Y0071228D01*
X0073235Y0055991D01*
X0073628Y0055042D01*
X0074355Y0054315D01*
X0094155Y0034515D01*
X0095105Y0034121D01*
X0118933Y0034121D01*
X0119883Y0034515D01*
X0120610Y0035242D01*
X0126010Y0040642D01*
X0126403Y0041591D01*
X0126403Y0041635D01*
X0128324Y0043556D01*
X0128324Y0038313D01*
X0129052Y0036555D01*
X0129066Y0036540D01*
X0129066Y0035260D01*
X0116665Y0022858D01*
X0116266Y0023024D01*
X0114522Y0023024D01*
X0112910Y0022356D01*
X0111677Y0021123D01*
X0111236Y0020058D01*
X0109551Y0020058D01*
X0109110Y0021123D01*
X0107877Y0022356D01*
X0106266Y0023024D01*
X0104522Y0023024D01*
X0102910Y0022356D01*
X0101677Y0021123D01*
X0101236Y0020058D01*
X0099551Y0020058D01*
X0099110Y0021123D01*
X0097877Y0022356D01*
X0096266Y0023024D01*
X0094522Y0023024D01*
X0093451Y0022580D01*
X0087545Y0028487D01*
X0086165Y0029058D01*
X0075972Y0029058D01*
X0075972Y0041158D01*
X0077340Y0042526D01*
X0077340Y0046324D01*
X0075627Y0048037D01*
X0075622Y0048054D01*
X0075485Y0048227D01*
X0075400Y0048431D01*
X0075025Y0048807D01*
X0074694Y0049223D01*
X0074501Y0049331D01*
X0053140Y0070691D01*
X0054138Y0070691D01*
X0055897Y0071420D01*
X0057242Y0072766D01*
X0057971Y0074524D01*
X0057971Y0082427D01*
X0057242Y0084186D01*
X0055897Y0085531D01*
X0054138Y0086260D01*
X0052235Y0086260D01*
X0050477Y0085531D01*
X0049131Y0084186D01*
X0048402Y0082427D01*
X0048402Y0075429D01*
X0046825Y0077006D01*
X0046825Y0079312D01*
X0044257Y0081880D01*
X0040625Y0081880D01*
X0038057Y0079312D01*
X0038057Y0075680D01*
X0039270Y0074467D01*
X0039637Y0073580D01*
X0068172Y0045046D01*
X0068172Y0042526D01*
X0068466Y0042232D01*
X0068466Y0027460D01*
X0064931Y0023925D01*
X0063515Y0023925D01*
X0061500Y0023090D01*
X0059957Y0021548D01*
X0059709Y0020948D01*
X0059468Y0021420D01*
X0058942Y0022144D01*
X0058309Y0022777D01*
X0057585Y0023303D01*
X0056788Y0023709D01*
X0055937Y0023985D01*
X0055054Y0024125D01*
X0054622Y0024125D01*
X0054622Y0018457D01*
X0054591Y0018457D01*
X0054591Y0024125D01*
X0054159Y0024125D01*
X0053275Y0023985D01*
X0052424Y0023709D01*
X0051627Y0023303D01*
X0050903Y0022777D01*
X0050271Y0022144D01*
X0049745Y0021420D01*
X0049504Y0020948D01*
X0049256Y0021548D01*
X0047713Y0023090D01*
X0045697Y0023925D01*
X0043515Y0023925D01*
X0041500Y0023090D01*
X0039957Y0021548D01*
X0039122Y0019532D01*
X0039122Y0017350D01*
X0039957Y0015334D01*
X0041500Y0013792D01*
X0043515Y0012957D01*
X0045697Y0012957D01*
X0047713Y0013792D01*
X0049256Y0015334D01*
X0049504Y0015934D01*
X0049745Y0015462D01*
X0050271Y0014738D01*
X0050903Y0014105D01*
X0051627Y0013579D01*
X0052424Y0013173D01*
X0053275Y0012897D01*
X0054159Y0012757D01*
X0054591Y0012757D01*
X0054591Y0018425D01*
X0054622Y0018425D01*
X0054622Y0012757D01*
X0055054Y0012757D01*
X0055937Y0012897D01*
X0056788Y0013173D01*
X0057585Y0013579D01*
X0058309Y0014105D01*
X0058942Y0014738D01*
X0059468Y0015462D01*
X0059709Y0015934D01*
X0059957Y0015334D01*
X0061500Y0013792D01*
X0063515Y0012957D01*
X0065697Y0012957D01*
X0067713Y0013792D01*
X0069256Y0015334D01*
X0070091Y0017350D01*
X0070091Y0018470D01*
X0073202Y0021582D01*
X0073272Y0021553D01*
X0073410Y0021553D01*
X0073540Y0021509D01*
X0074152Y0021553D01*
X0083864Y0021553D01*
X0091009Y0014408D01*
X0091009Y0012567D01*
X0091677Y0010956D01*
X0092910Y0009723D01*
X0094522Y0009055D01*
X0096266Y0009055D01*
X0097877Y0009723D01*
X0099110Y0010956D01*
X0099772Y0012553D01*
X0101015Y0012553D01*
X0101677Y0010956D01*
X0102910Y0009723D01*
X0104522Y0009055D01*
X0106266Y0009055D01*
X0107877Y0009723D01*
X0109110Y0010956D01*
X0109772Y0012553D01*
X0111015Y0012553D01*
X0111677Y0010956D01*
X0112910Y0009723D01*
X0114522Y0009055D01*
X0116266Y0009055D01*
X0117877Y0009723D01*
X0119110Y0010956D01*
X0119778Y0012567D01*
X0119778Y0015357D01*
X0133802Y0029382D01*
X0133872Y0029353D01*
X0134010Y0029353D01*
X0134140Y0029309D01*
X0134752Y0029353D01*
X0144464Y0029353D01*
X0149541Y0024277D01*
X0148198Y0023720D01*
X0146852Y0022375D01*
X0146124Y0020616D01*
X0146124Y0012713D01*
X0146852Y0010955D01*
X0148198Y0009609D01*
X0149956Y0008880D01*
X0151860Y0008880D01*
X0153618Y0009609D01*
X0154964Y0010955D01*
X0155692Y0012713D01*
X0155692Y0018125D01*
X0160693Y0013124D01*
X0162072Y0012553D01*
X0164322Y0012553D01*
X0164564Y0012311D01*
X0166249Y0011613D01*
X0173672Y0011613D01*
X0175357Y0012311D01*
X0176647Y0013600D01*
X0177345Y0015285D01*
X0177345Y0017109D01*
X0176647Y0018794D01*
X0175357Y0020083D01*
X0173672Y0020781D01*
X0166249Y0020781D01*
X0164564Y0020083D01*
X0164539Y0020058D01*
X0164373Y0020058D01*
X0149948Y0034484D01*
X0149956Y0034480D01*
X0151860Y0034480D01*
X0153618Y0035209D01*
X0154964Y0036555D01*
X0155184Y0037086D01*
X0163375Y0028895D01*
X0163274Y0028794D01*
X0162576Y0027109D01*
X0162576Y0025285D01*
X0163274Y0023600D01*
X0164564Y0022311D01*
X0166249Y0021613D01*
X0173672Y0021613D01*
X0175357Y0022311D01*
X0176647Y0023600D01*
X0177345Y0025285D01*
X0177345Y0027109D01*
X0176647Y0028794D01*
X0175357Y0030083D01*
X0173672Y0030781D01*
X0168798Y0030781D01*
X0155974Y0043606D01*
X0162010Y0049642D01*
X0162403Y0050591D01*
X0162403Y0050707D01*
X0164542Y0052845D01*
X0164542Y0056477D01*
X0161973Y0059046D01*
X0158341Y0059046D01*
X0155773Y0056477D01*
X0155773Y0052845D01*
X0156839Y0051780D01*
X0153999Y0048940D01*
X0153618Y0049320D01*
X0151860Y0050049D01*
X0149956Y0050049D01*
X0148198Y0049320D01*
X0146852Y0047975D01*
X0146124Y0046216D01*
X0146124Y0038313D01*
X0146726Y0036858D01*
X0137290Y0036858D01*
X0137892Y0038313D01*
X0137892Y0046216D01*
X0137164Y0047975D01*
X0135818Y0049320D01*
X0135019Y0049651D01*
X0136810Y0051442D01*
X0137203Y0052391D01*
X0137203Y0054835D01*
X0219056Y0136688D01*
X0219260Y0136062D01*
X0219666Y0135265D01*
X0220192Y0134541D01*
X0220825Y0133908D01*
X0221548Y0133382D01*
X0222346Y0132976D01*
X0223196Y0132700D01*
X0224080Y0132560D01*
X0224512Y0132560D01*
X0224512Y0138228D01*
X0224543Y0138228D01*
X0224543Y0132560D01*
X0224975Y0132560D01*
X0225859Y0132700D01*
X0226710Y0132976D01*
X0227507Y0133382D01*
X0228231Y0133908D01*
X0228863Y0134541D01*
X0229389Y0135265D01*
X0229630Y0135737D01*
X0229878Y0135138D01*
X0231421Y0133595D01*
X0233437Y0132760D01*
X0235618Y0132760D01*
X0237634Y0133595D01*
X0239177Y0135138D01*
X0239528Y0135984D01*
X0239878Y0135138D01*
X0241421Y0133595D01*
X0243437Y0132760D01*
X0245618Y0132760D01*
X0247634Y0133595D01*
X0248392Y0134353D01*
X0286064Y0134353D01*
X0290151Y0130266D01*
X0286134Y0130266D01*
X0284523Y0129599D01*
X0283290Y0128365D01*
X0283175Y0128090D01*
X0249305Y0128090D01*
X0248355Y0127696D01*
X0247628Y0126969D01*
X0223028Y0102369D01*
X0222733Y0101657D01*
X0222078Y0102312D01*
X0214694Y0102312D01*
X0213649Y0101267D01*
X0213649Y0094670D01*
X0213697Y0094622D01*
X0213649Y0094574D01*
X0213649Y0088020D01*
X0213584Y0087908D01*
X0213449Y0087403D01*
X0213449Y0084878D01*
X0218090Y0084878D01*
X0218090Y0084287D01*
X0213449Y0084287D01*
X0213449Y0081762D01*
X0213584Y0081258D01*
X0213845Y0080805D01*
X0214215Y0080436D01*
X0214667Y0080175D01*
X0215172Y0080039D01*
X0218091Y0080039D01*
X0218091Y0084287D01*
X0218681Y0084287D01*
X0218681Y0080039D01*
X0221600Y0080039D01*
X0222104Y0080175D01*
X0222557Y0080436D01*
X0222926Y0080805D01*
X0223188Y0081258D01*
X0223323Y0081762D01*
X0223323Y0084287D01*
X0218681Y0084287D01*
X0218681Y0084878D01*
X0223323Y0084878D01*
X0223323Y0087403D01*
X0223188Y0087908D01*
X0223123Y0088020D01*
X0223123Y0090955D01*
X0225460Y0093292D01*
X0225460Y0088020D01*
X0225395Y0087908D01*
X0225260Y0087403D01*
X0225260Y0084878D01*
X0229901Y0084878D01*
X0229901Y0084287D01*
X0225260Y0084287D01*
X0225260Y0081762D01*
X0225395Y0081258D01*
X0225656Y0080805D01*
X0226026Y0080436D01*
X0226478Y0080175D01*
X0226983Y0080039D01*
X0229902Y0080039D01*
X0229902Y0084287D01*
X0230492Y0084287D01*
X0230492Y0080039D01*
X0233411Y0080039D01*
X0233915Y0080175D01*
X0234368Y0080436D01*
X0234737Y0080805D01*
X0234999Y0081258D01*
X0235134Y0081762D01*
X0235134Y0084287D01*
X0230492Y0084287D01*
X0230492Y0084878D01*
X0235134Y0084878D01*
X0235134Y0087403D01*
X0234999Y0087908D01*
X0234934Y0088020D01*
X0234934Y0090766D01*
X0236483Y0092315D01*
X0236483Y0088020D01*
X0236419Y0087908D01*
X0236283Y0087403D01*
X0236283Y0084878D01*
X0240925Y0084878D01*
X0240925Y0084287D01*
X0241516Y0084287D01*
X0241516Y0080039D01*
X0244434Y0080039D01*
X0244939Y0080175D01*
X0245392Y0080436D01*
X0245761Y0080805D01*
X0246022Y0081258D01*
X0246157Y0081762D01*
X0246157Y0084287D01*
X0241516Y0084287D01*
X0241516Y0084878D01*
X0246157Y0084878D01*
X0246157Y0087403D01*
X0246022Y0087908D01*
X0245957Y0088020D01*
X0245957Y0088721D01*
X0264733Y0088721D01*
X0265683Y0089115D01*
X0279689Y0103121D01*
X0283567Y0103121D01*
X0284523Y0102165D01*
X0286134Y0101498D01*
X0293078Y0101498D01*
X0294690Y0102165D01*
X0295923Y0103398D01*
X0296591Y0105010D01*
X0296591Y0106754D01*
X0295923Y0108365D01*
X0294690Y0109599D01*
X0293078Y0110266D01*
X0286134Y0110266D01*
X0284523Y0109599D01*
X0283290Y0108365D01*
X0283258Y0108290D01*
X0278105Y0108290D01*
X0277155Y0107896D01*
X0276428Y0107169D01*
X0263148Y0093890D01*
X0245957Y0093890D01*
X0245957Y0094574D01*
X0245909Y0094622D01*
X0245957Y0094670D01*
X0245957Y0101267D01*
X0244912Y0102312D01*
X0241080Y0102312D01*
X0251489Y0112721D01*
X0283967Y0112721D01*
X0284523Y0112165D01*
X0286134Y0111498D01*
X0293078Y0111498D01*
X0294690Y0112165D01*
X0295923Y0113398D01*
X0296591Y0115010D01*
X0296591Y0116754D01*
X0295923Y0118365D01*
X0294690Y0119599D01*
X0293078Y0120266D01*
X0286134Y0120266D01*
X0284523Y0119599D01*
X0283290Y0118365D01*
X0283093Y0117890D01*
X0249905Y0117890D01*
X0248955Y0117496D01*
X0248228Y0116769D01*
X0234428Y0102969D01*
X0234077Y0102123D01*
X0233889Y0102312D01*
X0230280Y0102312D01*
X0250889Y0122921D01*
X0283767Y0122921D01*
X0284523Y0122165D01*
X0286134Y0121498D01*
X0293078Y0121498D01*
X0294690Y0122165D01*
X0295923Y0123398D01*
X0296244Y0124173D01*
X0297493Y0122924D01*
X0298872Y0122353D01*
X0314335Y0122353D01*
X0314523Y0122165D01*
X0316134Y0121498D01*
X0323078Y0121498D01*
X0324690Y0122165D01*
X0325923Y0123398D01*
X0326591Y0125010D01*
X0326591Y0126754D01*
X0325923Y0128365D01*
X0324690Y0129599D01*
X0323791Y0129971D01*
X0346835Y0153014D01*
X0346835Y0137976D01*
X0326304Y0117445D01*
X0325923Y0118365D01*
X0324690Y0119599D01*
X0323078Y0120266D01*
X0316134Y0120266D01*
X0314523Y0119599D01*
X0313290Y0118365D01*
X0312622Y0116754D01*
X0312622Y0115010D01*
X0313290Y0113398D01*
X0314523Y0112165D01*
X0316134Y0111498D01*
X0320356Y0111498D01*
X0319125Y0110266D01*
X0316134Y0110266D01*
X0314523Y0109599D01*
X0313290Y0108365D01*
X0312622Y0106754D01*
X0312622Y0105010D01*
X0313290Y0103398D01*
X0314523Y0102165D01*
X0316134Y0101498D01*
X0323078Y0101498D01*
X0324690Y0102165D01*
X0325923Y0103398D01*
X0326591Y0105010D01*
X0326591Y0106754D01*
X0325923Y0108365D01*
X0325228Y0109060D01*
X0350883Y0134715D01*
X0351610Y0135442D01*
X0352003Y0136391D01*
X0352003Y0219469D01*
X0352220Y0219344D01*
X0355089Y0218575D01*
X0358060Y0218575D01*
X0360930Y0219344D01*
X0362417Y0220202D01*
X0362417Y0022585D01*
X0360930Y0023444D01*
X0358060Y0024213D01*
X0355089Y0024213D01*
X0353203Y0023707D01*
X0353203Y0049726D01*
X0354417Y0049726D01*
X0356028Y0050393D01*
X0357262Y0051627D01*
X0357929Y0053238D01*
X0357929Y0054982D01*
X0357262Y0056594D01*
X0356028Y0057827D01*
X0354417Y0058494D01*
X0347473Y0058494D01*
X0345861Y0057827D01*
X0344628Y0056594D01*
X0343961Y0054982D01*
X0343961Y0053238D01*
X0344628Y0051627D01*
X0345861Y0050393D01*
X0347473Y0049726D01*
X0348035Y0049726D01*
X0348035Y0023976D01*
X0344438Y0020380D01*
X0343540Y0021278D01*
X0341524Y0022113D01*
X0339342Y0022113D01*
X0337326Y0021278D01*
X0335784Y0019736D01*
X0335433Y0018889D01*
X0335082Y0019736D01*
X0333540Y0021278D01*
X0331524Y0022113D01*
X0329342Y0022113D01*
X0327326Y0021278D01*
X0325784Y0019736D01*
X0325433Y0018889D01*
X0325082Y0019736D01*
X0323540Y0021278D01*
X0322603Y0021666D01*
X0322603Y0034820D01*
X0322210Y0035769D01*
X0321483Y0036496D01*
X0295252Y0062727D01*
X0295923Y0063398D01*
X0296591Y0065010D01*
X0296591Y0066754D01*
X0295923Y0068365D01*
X0294690Y0069599D01*
X0293078Y0070266D01*
X0286134Y0070266D01*
X0284803Y0069715D01*
X0284803Y0072049D01*
X0286134Y0071498D01*
X0293078Y0071498D01*
X0294690Y0072165D01*
X0295923Y0073398D01*
X0296591Y0075010D01*
X0296591Y0076279D01*
X0313897Y0058973D01*
X0313290Y0058365D01*
X0312622Y0056754D01*
X0312622Y0055010D01*
X0313290Y0053398D01*
X0314523Y0052165D01*
X0316134Y0051498D01*
X0323078Y0051498D01*
X0324690Y0052165D01*
X0325923Y0053398D01*
X0326591Y0055010D01*
X0326591Y0056754D01*
X0325923Y0058365D01*
X0324690Y0059599D01*
X0323078Y0060266D01*
X0319913Y0060266D01*
X0318681Y0061498D01*
X0323078Y0061498D01*
X0324690Y0062165D01*
X0325923Y0063398D01*
X0326591Y0065010D01*
X0326591Y0066754D01*
X0325923Y0068365D01*
X0324690Y0069599D01*
X0323078Y0070266D01*
X0316134Y0070266D01*
X0314523Y0069599D01*
X0313290Y0068365D01*
X0312857Y0067322D01*
X0299203Y0080976D01*
X0299203Y0088220D01*
X0298810Y0089169D01*
X0296410Y0091569D01*
X0295683Y0092296D01*
X0295073Y0092549D01*
X0295923Y0093398D01*
X0296591Y0095010D01*
X0296591Y0096754D01*
X0295923Y0098365D01*
X0294690Y0099599D01*
X0293078Y0100266D01*
X0286134Y0100266D01*
X0284523Y0099599D01*
X0283290Y0098365D01*
X0282622Y0096754D01*
X0282622Y0095010D01*
X0283290Y0093398D01*
X0284205Y0092483D01*
X0283755Y0092296D01*
X0246348Y0054890D01*
X0245466Y0054890D01*
X0244075Y0054314D01*
X0243011Y0053249D01*
X0242435Y0051858D01*
X0242435Y0050378D01*
X0241373Y0050378D01*
X0239908Y0049771D01*
X0239027Y0048890D01*
X0236105Y0048890D01*
X0235155Y0048496D01*
X0209355Y0022696D01*
X0208628Y0021969D01*
X0208552Y0021786D01*
X0207326Y0021278D01*
X0205784Y0019736D01*
X0205433Y0018889D01*
X0205082Y0019736D01*
X0203540Y0021278D01*
X0201524Y0022113D01*
X0199342Y0022113D01*
X0197326Y0021278D01*
X0195784Y0019736D01*
X0195535Y0019136D01*
X0195295Y0019608D01*
X0194769Y0020332D01*
X0194136Y0020965D01*
X0193412Y0021491D01*
X0192615Y0021897D01*
X0191764Y0022173D01*
X0190880Y0022313D01*
X0190549Y0022313D01*
X0190549Y0013045D01*
X0190317Y0013045D01*
X0190317Y0012813D01*
X0184749Y0012813D01*
X0184749Y0008782D01*
X0184889Y0007898D01*
X0185165Y0007047D01*
X0185571Y0006250D01*
X0185765Y0005984D01*
X0025891Y0005984D01*
X0026932Y0007786D01*
X0027701Y0010656D01*
X0027701Y0013627D01*
X0026932Y0016497D01*
X0025446Y0019070D01*
X0023346Y0021171D01*
X0020773Y0022656D01*
X0017903Y0023425D01*
X0014932Y0023425D01*
X0012062Y0022656D01*
X0010378Y0021684D01*
X0010378Y0051557D01*
X0010705Y0050767D01*
X0012248Y0049225D01*
X0014263Y0048390D01*
X0016445Y0048390D01*
X0018461Y0049225D01*
X0020004Y0050767D01*
X0020252Y0051367D01*
X0020493Y0050895D01*
X0021019Y0050171D01*
X0021651Y0049538D01*
X0022375Y0049012D01*
X0023172Y0048606D01*
X0024023Y0048330D01*
X0024907Y0048190D01*
X0025354Y0048190D01*
X0025354Y0053874D01*
X0025354Y0059558D01*
X0024907Y0059558D01*
X0024023Y0059418D01*
X0023172Y0059142D01*
X0022375Y0058736D01*
X0021651Y0058210D01*
X0021019Y0057577D01*
X0020493Y0056853D01*
X0020252Y0056381D01*
X0020004Y0056981D01*
X0018461Y0058523D01*
X0016445Y0059358D01*
X0015403Y0059358D01*
X0015403Y0074258D01*
X0016825Y0075680D01*
X0016825Y0079312D01*
X0014257Y0081880D01*
X0010625Y0081880D01*
X0010378Y0081633D01*
X0010378Y0220089D01*
X0011668Y0219344D01*
X0014538Y0218575D01*
X0017509Y0218575D01*
X0020379Y0219344D01*
X0022952Y0220829D01*
X0025053Y0222930D01*
X0026538Y0225503D01*
X0027307Y0228373D01*
X0027307Y0231344D01*
X0026538Y0234214D01*
X0025566Y0235898D01*
X0186756Y0235898D01*
X0179955Y0229096D01*
X0179769Y0228910D01*
X0179245Y0229434D01*
X0177487Y0230162D01*
X0175584Y0230162D01*
X0173825Y0229434D01*
X0173385Y0228994D01*
X0169683Y0232696D01*
X0168733Y0233090D01*
X0132905Y0233090D01*
X0131955Y0232696D01*
X0131228Y0231969D01*
X0128378Y0229120D01*
X0128064Y0229434D01*
X0126306Y0230162D01*
X0124403Y0230162D01*
X0122644Y0229434D01*
X0121298Y0228088D01*
X0120570Y0226330D01*
X0120570Y0221311D01*
X0120139Y0220880D01*
X0120139Y0226330D01*
X0119410Y0228088D01*
X0118064Y0229434D01*
X0116306Y0230162D01*
X0114403Y0230162D01*
X0112644Y0229434D01*
X0111298Y0228088D01*
X0110570Y0226330D01*
X0110570Y0221511D01*
X0110339Y0221280D01*
X0110339Y0222362D01*
X0105370Y0222362D01*
X0105370Y0222394D01*
X0105339Y0222394D01*
X0105339Y0230362D01*
X0104962Y0230362D01*
X0104187Y0230239D01*
X0103441Y0229997D01*
X0102742Y0229641D01*
X0102107Y0229180D01*
X0101553Y0228625D01*
X0101091Y0227990D01*
X0100735Y0227291D01*
X0100493Y0226545D01*
X0100370Y0225770D01*
X0100370Y0222394D01*
X0105338Y0222394D01*
X0105338Y0222362D01*
X0100370Y0222362D01*
X0100370Y0218986D01*
X0100493Y0218211D01*
X0100735Y0217465D01*
X0101091Y0216766D01*
X0101553Y0216131D01*
X0102107Y0215576D01*
X0102742Y0215115D01*
X0103441Y0214759D01*
X0103725Y0214667D01*
X0068228Y0179169D01*
X0067835Y0178220D01*
X0067835Y0166300D01*
X0067438Y0166136D01*
X0066204Y0164902D01*
X0067835Y0167135D02*
X0010378Y0167135D01*
X0010378Y0169102D02*
X0067835Y0169102D01*
X0067835Y0171069D02*
X0010378Y0171069D01*
X0010378Y0173036D02*
X0041411Y0173036D01*
X0041049Y0173263D02*
X0042047Y0172636D01*
X0043108Y0172125D01*
X0044219Y0171736D01*
X0045367Y0171474D01*
X0046142Y0171387D01*
X0046142Y0180842D01*
X0048110Y0180842D01*
X0048110Y0171387D01*
X0048885Y0171474D01*
X0050033Y0171736D01*
X0051144Y0172125D01*
X0052205Y0172636D01*
X0053202Y0173263D01*
X0054123Y0173997D01*
X0054956Y0174830D01*
X0055690Y0175750D01*
X0056316Y0176747D01*
X0056827Y0177808D01*
X0057216Y0178920D01*
X0057478Y0180068D01*
X0057566Y0180843D01*
X0048110Y0180843D01*
X0048110Y0182811D01*
X0046142Y0182811D01*
X0046142Y0192266D01*
X0045367Y0192179D01*
X0044219Y0191917D01*
X0043108Y0191528D01*
X0042047Y0191017D01*
X0041049Y0190391D01*
X0040129Y0189657D01*
X0039296Y0188824D01*
X0038562Y0187903D01*
X0037935Y0186906D01*
X0037425Y0185845D01*
X0037036Y0184734D01*
X0036774Y0183586D01*
X0036686Y0182811D01*
X0046142Y0182811D01*
X0046142Y0180843D01*
X0036686Y0180843D01*
X0036774Y0180068D01*
X0037036Y0178920D01*
X0037425Y0177808D01*
X0037935Y0176747D01*
X0038562Y0175750D01*
X0039296Y0174830D01*
X0040129Y0173997D01*
X0041049Y0173263D01*
X0039158Y0175003D02*
X0010378Y0175003D01*
X0010378Y0176970D02*
X0037828Y0176970D01*
X0037032Y0178937D02*
X0010378Y0178937D01*
X0010378Y0180904D02*
X0046142Y0180904D01*
X0046142Y0182871D02*
X0048110Y0182871D01*
X0048110Y0182811D02*
X0048110Y0192266D01*
X0048885Y0192179D01*
X0050033Y0191917D01*
X0051144Y0191528D01*
X0052205Y0191017D01*
X0053202Y0190391D01*
X0054123Y0189657D01*
X0054956Y0188824D01*
X0055690Y0187903D01*
X0056316Y0186906D01*
X0056827Y0185845D01*
X0057216Y0184734D01*
X0057478Y0183586D01*
X0057566Y0182811D01*
X0048110Y0182811D01*
X0048110Y0180904D02*
X0063993Y0180904D01*
X0063616Y0181060D02*
X0065485Y0180286D01*
X0067507Y0180286D01*
X0069376Y0181060D01*
X0070806Y0182490D01*
X0071580Y0184359D01*
X0071580Y0186381D01*
X0070806Y0188250D01*
X0069972Y0189085D01*
X0069972Y0193452D01*
X0069400Y0194831D01*
X0068283Y0195949D01*
X0068520Y0196361D01*
X0069221Y0198977D01*
X0069221Y0201685D01*
X0068520Y0204300D01*
X0067166Y0206645D01*
X0065252Y0208560D01*
X0062907Y0209914D01*
X0060291Y0210615D01*
X0057583Y0210615D01*
X0054967Y0209914D01*
X0052622Y0208560D01*
X0050708Y0206645D01*
X0049354Y0204300D01*
X0048653Y0201685D01*
X0048653Y0198977D01*
X0049354Y0196361D01*
X0050708Y0194016D01*
X0052622Y0192101D01*
X0054967Y0190747D01*
X0057583Y0190046D01*
X0060291Y0190046D01*
X0062466Y0190629D01*
X0062466Y0188530D01*
X0062186Y0188250D01*
X0061412Y0186381D01*
X0061412Y0184359D01*
X0062186Y0182490D01*
X0063616Y0181060D01*
X0062028Y0182871D02*
X0057559Y0182871D01*
X0057180Y0184838D02*
X0061412Y0184838D01*
X0061587Y0186805D02*
X0056365Y0186805D01*
X0054997Y0188772D02*
X0062466Y0188772D01*
X0054998Y0190739D02*
X0052648Y0190739D01*
X0052018Y0192706D02*
X0042517Y0192706D01*
X0042312Y0192501D02*
X0043145Y0193334D01*
X0043879Y0194254D01*
X0044505Y0195251D01*
X0045016Y0196312D01*
X0045405Y0197424D01*
X0045667Y0198572D01*
X0045755Y0199346D01*
X0036299Y0199346D01*
X0036299Y0189891D01*
X0037074Y0189978D01*
X0038222Y0190240D01*
X0039333Y0190629D01*
X0040394Y0191140D01*
X0041391Y0191767D01*
X0042312Y0192501D01*
X0041604Y0190739D02*
X0039561Y0190739D01*
X0039255Y0188772D02*
X0010378Y0188772D01*
X0010378Y0190739D02*
X0031069Y0190739D01*
X0031296Y0190629D02*
X0032408Y0190240D01*
X0033556Y0189978D01*
X0034331Y0189891D01*
X0034331Y0199346D01*
X0036299Y0199346D01*
X0036299Y0201315D01*
X0034331Y0201315D01*
X0034331Y0210770D01*
X0033556Y0210683D01*
X0032408Y0210421D01*
X0031296Y0210032D01*
X0030236Y0209521D01*
X0029238Y0208895D01*
X0028318Y0208161D01*
X0027485Y0207328D01*
X0026751Y0206407D01*
X0026124Y0205410D01*
X0025614Y0204349D01*
X0025225Y0203238D01*
X0024963Y0202090D01*
X0024875Y0201315D01*
X0034331Y0201315D01*
X0034331Y0199346D01*
X0024875Y0199346D01*
X0024963Y0198572D01*
X0025225Y0197424D01*
X0025614Y0196312D01*
X0026124Y0195251D01*
X0026751Y0194254D01*
X0027485Y0193334D01*
X0028318Y0192501D01*
X0029238Y0191767D01*
X0030236Y0191140D01*
X0031296Y0190629D01*
X0034331Y0190739D02*
X0036299Y0190739D01*
X0036299Y0192706D02*
X0034331Y0192706D01*
X0034331Y0194673D02*
X0036299Y0194673D01*
X0036299Y0196640D02*
X0034331Y0196640D01*
X0034331Y0198607D02*
X0036299Y0198607D01*
X0036299Y0200574D02*
X0048653Y0200574D01*
X0048752Y0198607D02*
X0045671Y0198607D01*
X0045131Y0196640D02*
X0049279Y0196640D01*
X0050328Y0194673D02*
X0044142Y0194673D01*
X0046142Y0190739D02*
X0048110Y0190739D01*
X0048110Y0188772D02*
X0046142Y0188772D01*
X0046142Y0186805D02*
X0048110Y0186805D01*
X0048110Y0184838D02*
X0046142Y0184838D01*
X0037887Y0186805D02*
X0010378Y0186805D01*
X0010378Y0184838D02*
X0037072Y0184838D01*
X0036693Y0182871D02*
X0010378Y0182871D01*
X0010378Y0192706D02*
X0028113Y0192706D01*
X0026488Y0194673D02*
X0010378Y0194673D01*
X0010378Y0196640D02*
X0025499Y0196640D01*
X0024959Y0198607D02*
X0010378Y0198607D01*
X0010378Y0200574D02*
X0034331Y0200574D01*
X0034331Y0202541D02*
X0036299Y0202541D01*
X0036299Y0201315D02*
X0036299Y0210770D01*
X0037074Y0210683D01*
X0038222Y0210421D01*
X0039333Y0210032D01*
X0040394Y0209521D01*
X0041391Y0208895D01*
X0042312Y0208161D01*
X0043145Y0207328D01*
X0043879Y0206407D01*
X0044505Y0205410D01*
X0045016Y0204349D01*
X0045405Y0203238D01*
X0045667Y0202090D01*
X0045755Y0201315D01*
X0036299Y0201315D01*
X0036299Y0204508D02*
X0034331Y0204508D01*
X0034331Y0206475D02*
X0036299Y0206475D01*
X0036299Y0208442D02*
X0034331Y0208442D01*
X0034331Y0210409D02*
X0036299Y0210409D01*
X0038256Y0210409D02*
X0056815Y0210409D01*
X0061059Y0210409D02*
X0099468Y0210409D01*
X0101435Y0212376D02*
X0010378Y0212376D01*
X0010378Y0210409D02*
X0032374Y0210409D01*
X0028671Y0208442D02*
X0010378Y0208442D01*
X0010378Y0206475D02*
X0026805Y0206475D01*
X0025690Y0204508D02*
X0010378Y0204508D01*
X0010378Y0202541D02*
X0025066Y0202541D01*
X0041959Y0208442D02*
X0052504Y0208442D01*
X0050609Y0206475D02*
X0043825Y0206475D01*
X0044940Y0204508D02*
X0049474Y0204508D01*
X0048882Y0202541D02*
X0045564Y0202541D01*
X0065370Y0208442D02*
X0097501Y0208442D01*
X0095534Y0206475D02*
X0067265Y0206475D01*
X0068400Y0204508D02*
X0093567Y0204508D01*
X0091600Y0202541D02*
X0068992Y0202541D01*
X0069221Y0200574D02*
X0089633Y0200574D01*
X0087666Y0198607D02*
X0069122Y0198607D01*
X0068595Y0196640D02*
X0085699Y0196640D01*
X0083732Y0194673D02*
X0069466Y0194673D01*
X0069972Y0192706D02*
X0081765Y0192706D01*
X0079798Y0190739D02*
X0069972Y0190739D01*
X0070284Y0188772D02*
X0077831Y0188772D01*
X0075864Y0186805D02*
X0071405Y0186805D01*
X0071580Y0184838D02*
X0073897Y0184838D01*
X0071930Y0182871D02*
X0070964Y0182871D01*
X0069963Y0180904D02*
X0069000Y0180904D01*
X0068132Y0178937D02*
X0057220Y0178937D01*
X0056424Y0176970D02*
X0067835Y0176970D01*
X0067835Y0175003D02*
X0055094Y0175003D01*
X0052841Y0173036D02*
X0067835Y0173036D01*
X0073003Y0173036D02*
X0077435Y0173036D01*
X0077435Y0175003D02*
X0073003Y0175003D01*
X0073338Y0176970D02*
X0077435Y0176970D01*
X0078196Y0178937D02*
X0075305Y0178937D01*
X0077272Y0180904D02*
X0080163Y0180904D01*
X0079239Y0182871D02*
X0082130Y0182871D01*
X0081206Y0184838D02*
X0084097Y0184838D01*
X0083173Y0186805D02*
X0086064Y0186805D01*
X0085140Y0188772D02*
X0088031Y0188772D01*
X0087107Y0190739D02*
X0089998Y0190739D01*
X0089074Y0192706D02*
X0091965Y0192706D01*
X0091041Y0194673D02*
X0093932Y0194673D01*
X0093008Y0196640D02*
X0095899Y0196640D01*
X0094975Y0198607D02*
X0097866Y0198607D01*
X0096942Y0200574D02*
X0099833Y0200574D01*
X0098909Y0202541D02*
X0101800Y0202541D01*
X0100876Y0204508D02*
X0103767Y0204508D01*
X0102843Y0206475D02*
X0105734Y0206475D01*
X0104810Y0208442D02*
X0107701Y0208442D01*
X0106777Y0210409D02*
X0109668Y0210409D01*
X0108744Y0212376D02*
X0111635Y0212376D01*
X0110711Y0214343D02*
X0113602Y0214343D01*
X0116977Y0210409D02*
X0126615Y0210409D01*
X0124648Y0208442D02*
X0115010Y0208442D01*
X0113043Y0206475D02*
X0122681Y0206475D01*
X0120714Y0204508D02*
X0111076Y0204508D01*
X0109109Y0202541D02*
X0118747Y0202541D01*
X0116780Y0200574D02*
X0107142Y0200574D01*
X0105175Y0198607D02*
X0114813Y0198607D01*
X0112846Y0196640D02*
X0103208Y0196640D01*
X0101241Y0194673D02*
X0110879Y0194673D01*
X0108912Y0192706D02*
X0099274Y0192706D01*
X0097307Y0190739D02*
X0106945Y0190739D01*
X0102708Y0188772D02*
X0095340Y0188772D01*
X0093373Y0186805D02*
X0101587Y0186805D01*
X0101412Y0184838D02*
X0091406Y0184838D01*
X0089439Y0182871D02*
X0102028Y0182871D01*
X0103993Y0180904D02*
X0087472Y0180904D01*
X0085505Y0178937D02*
X0106396Y0178937D01*
X0104429Y0176970D02*
X0083538Y0176970D01*
X0082603Y0175003D02*
X0102462Y0175003D01*
X0100495Y0173036D02*
X0082603Y0173036D01*
X0082603Y0171069D02*
X0098528Y0171069D01*
X0096561Y0169102D02*
X0082603Y0169102D01*
X0082603Y0167135D02*
X0094594Y0167135D01*
X0101343Y0166575D02*
X0129689Y0194921D01*
X0308533Y0194921D01*
X0309483Y0195315D01*
X0322896Y0208728D01*
X0322896Y0205282D01*
X0324119Y0204060D01*
X0323828Y0203769D01*
X0306348Y0186290D01*
X0260565Y0186290D01*
X0261265Y0187981D01*
X0261265Y0190003D01*
X0260491Y0191872D01*
X0259061Y0193302D01*
X0257192Y0194076D01*
X0255170Y0194076D01*
X0253301Y0193302D01*
X0252857Y0192858D01*
X0241396Y0192858D01*
X0240678Y0193576D01*
X0236881Y0193576D01*
X0234963Y0191658D01*
X0214872Y0191658D01*
X0213493Y0191087D01*
X0213472Y0191066D01*
X0210761Y0193776D01*
X0208780Y0193776D01*
X0208780Y0188992D01*
X0208779Y0188992D01*
X0203995Y0188992D01*
X0203995Y0187010D01*
X0204147Y0186858D01*
X0187773Y0186858D01*
X0185407Y0189225D01*
X0185407Y0189895D01*
X0184655Y0191708D01*
X0183267Y0193096D01*
X0181454Y0193848D01*
X0179491Y0193848D01*
X0177677Y0193096D01*
X0176289Y0191708D01*
X0175607Y0190060D01*
X0175607Y0191040D01*
X0172599Y0194048D01*
X0170472Y0194048D01*
X0168346Y0194048D01*
X0165338Y0191040D01*
X0165338Y0188913D01*
X0165338Y0186787D01*
X0168346Y0183779D01*
X0170472Y0183779D01*
X0170472Y0188913D01*
X0165338Y0188913D01*
X0170472Y0188913D01*
X0170472Y0188913D01*
X0170472Y0188913D01*
X0170472Y0183779D01*
X0172599Y0183779D01*
X0175607Y0186787D01*
X0175607Y0187767D01*
X0176289Y0186118D01*
X0177677Y0184730D01*
X0179491Y0183979D01*
X0180038Y0183979D01*
X0184093Y0179924D01*
X0185472Y0179353D01*
X0211565Y0179353D01*
X0212945Y0179924D01*
X0214000Y0180980D01*
X0217173Y0184153D01*
X0236886Y0184153D01*
X0237292Y0184080D01*
X0237625Y0184153D01*
X0237965Y0184153D01*
X0238347Y0184311D01*
X0238376Y0184317D01*
X0216948Y0162890D01*
X0204305Y0162890D01*
X0204305Y0163291D01*
X0203638Y0164902D01*
X0202405Y0166136D01*
X0200793Y0166803D01*
X0199049Y0166803D01*
X0197438Y0166136D01*
X0196204Y0164902D01*
X0195537Y0163291D01*
X0195537Y0156347D01*
X0196058Y0155090D01*
X0193785Y0155090D01*
X0194305Y0156347D01*
X0194305Y0163291D01*
X0193638Y0164902D01*
X0192405Y0166136D01*
X0190793Y0166803D01*
X0189049Y0166803D01*
X0187438Y0166136D01*
X0186204Y0164902D01*
X0185537Y0163291D01*
X0185537Y0156347D01*
X0186058Y0155090D01*
X0183785Y0155090D01*
X0184305Y0156347D01*
X0184305Y0163291D01*
X0183638Y0164902D01*
X0182405Y0166136D01*
X0180793Y0166803D01*
X0179049Y0166803D01*
X0177438Y0166136D01*
X0176204Y0164902D01*
X0175537Y0163291D01*
X0175537Y0156347D01*
X0176058Y0155090D01*
X0173785Y0155090D01*
X0174305Y0156347D01*
X0174305Y0163291D01*
X0173638Y0164902D01*
X0172405Y0166136D01*
X0170793Y0166803D01*
X0169049Y0166803D01*
X0167438Y0166136D01*
X0166204Y0164902D01*
X0165537Y0163291D01*
X0165537Y0156347D01*
X0166058Y0155090D01*
X0163785Y0155090D01*
X0164305Y0156347D01*
X0164305Y0163291D01*
X0163638Y0164902D01*
X0162405Y0166136D01*
X0160793Y0166803D01*
X0159049Y0166803D01*
X0157438Y0166136D01*
X0156204Y0164902D01*
X0155537Y0163291D01*
X0155537Y0156347D01*
X0156058Y0155090D01*
X0153785Y0155090D01*
X0154305Y0156347D01*
X0154305Y0163291D01*
X0153638Y0164902D01*
X0152405Y0166136D01*
X0150793Y0166803D01*
X0149049Y0166803D01*
X0147438Y0166136D01*
X0146204Y0164902D01*
X0145537Y0163291D01*
X0145537Y0156347D01*
X0146058Y0155090D01*
X0143785Y0155090D01*
X0144305Y0156347D01*
X0144305Y0163291D01*
X0143638Y0164902D01*
X0142405Y0166136D01*
X0140793Y0166803D01*
X0139049Y0166803D01*
X0137438Y0166136D01*
X0136204Y0164902D01*
X0135537Y0163291D01*
X0135537Y0156347D01*
X0136204Y0154735D01*
X0137438Y0153502D01*
X0139049Y0152835D01*
X0140293Y0152835D01*
X0123000Y0135541D01*
X0122405Y0136136D01*
X0120793Y0136803D01*
X0119049Y0136803D01*
X0117438Y0136136D01*
X0116662Y0135360D01*
X0116410Y0135969D01*
X0115683Y0136696D01*
X0112603Y0139776D01*
X0112603Y0153701D01*
X0113638Y0154735D01*
X0114305Y0156347D01*
X0114305Y0160764D01*
X0115537Y0159533D01*
X0115537Y0156347D01*
X0116204Y0154735D01*
X0117438Y0153502D01*
X0119049Y0152835D01*
X0120793Y0152835D01*
X0122405Y0153502D01*
X0123638Y0154735D01*
X0124305Y0156347D01*
X0124305Y0163291D01*
X0123638Y0164902D01*
X0122405Y0166136D01*
X0120793Y0166803D01*
X0119049Y0166803D01*
X0117438Y0166136D01*
X0116841Y0165538D01*
X0114010Y0168369D01*
X0113283Y0169096D01*
X0112333Y0169490D01*
X0107705Y0169490D01*
X0106755Y0169096D01*
X0103155Y0165496D01*
X0103100Y0165441D01*
X0102405Y0166136D01*
X0101343Y0166575D01*
X0101903Y0167135D02*
X0104794Y0167135D01*
X0103870Y0169102D02*
X0106768Y0169102D01*
X0105837Y0171069D02*
X0225128Y0171069D01*
X0227095Y0173036D02*
X0107804Y0173036D01*
X0109771Y0175003D02*
X0229062Y0175003D01*
X0231029Y0176970D02*
X0111738Y0176970D01*
X0113705Y0178937D02*
X0232996Y0178937D01*
X0234963Y0180904D02*
X0213924Y0180904D01*
X0215891Y0182871D02*
X0236930Y0182871D01*
X0236010Y0192706D02*
X0211832Y0192706D01*
X0208780Y0192706D02*
X0208779Y0192706D01*
X0208779Y0193776D02*
X0206798Y0193776D01*
X0203995Y0190974D01*
X0203995Y0188992D01*
X0208779Y0188992D01*
X0208779Y0188992D01*
X0208779Y0193776D01*
X0208779Y0190739D02*
X0208780Y0190739D01*
X0205727Y0192706D02*
X0183658Y0192706D01*
X0185057Y0190739D02*
X0203995Y0190739D01*
X0203995Y0188772D02*
X0185860Y0188772D01*
X0181146Y0182871D02*
X0117639Y0182871D01*
X0119606Y0184838D02*
X0167287Y0184838D01*
X0165338Y0186805D02*
X0121573Y0186805D01*
X0123540Y0188772D02*
X0165338Y0188772D01*
X0165338Y0190739D02*
X0125507Y0190739D01*
X0127474Y0192706D02*
X0167004Y0192706D01*
X0170472Y0192706D02*
X0170472Y0192706D01*
X0170472Y0194048D02*
X0170472Y0188914D01*
X0170472Y0194048D01*
X0170472Y0190739D02*
X0170472Y0190739D01*
X0170472Y0188914D02*
X0170472Y0188914D01*
X0170472Y0188772D02*
X0170472Y0188772D01*
X0170472Y0186805D02*
X0170472Y0186805D01*
X0170472Y0184838D02*
X0170472Y0184838D01*
X0173658Y0184838D02*
X0177570Y0184838D01*
X0176005Y0186805D02*
X0175607Y0186805D01*
X0175607Y0190739D02*
X0175888Y0190739D01*
X0177287Y0192706D02*
X0173941Y0192706D01*
X0177144Y0200090D02*
X0128105Y0200090D01*
X0127155Y0199696D01*
X0126428Y0198969D01*
X0111413Y0183954D01*
X0111580Y0184359D01*
X0111580Y0184760D01*
X0135819Y0208998D01*
X0137293Y0207524D01*
X0138672Y0206953D01*
X0177066Y0206953D01*
X0177066Y0201934D01*
X0177035Y0201858D01*
X0177035Y0200353D01*
X0177144Y0200090D01*
X0177035Y0200574D02*
X0127395Y0200574D01*
X0126066Y0198607D02*
X0125428Y0198607D01*
X0124099Y0196640D02*
X0123461Y0196640D01*
X0122132Y0194673D02*
X0121494Y0194673D01*
X0120165Y0192706D02*
X0119527Y0192706D01*
X0118198Y0190739D02*
X0117560Y0190739D01*
X0116231Y0188772D02*
X0115593Y0188772D01*
X0114264Y0186805D02*
X0113626Y0186805D01*
X0112297Y0184838D02*
X0111659Y0184838D01*
X0115672Y0180904D02*
X0183113Y0180904D01*
X0183373Y0165168D02*
X0186470Y0165168D01*
X0185537Y0163201D02*
X0184305Y0163201D01*
X0184305Y0161234D02*
X0185537Y0161234D01*
X0185537Y0159267D02*
X0184305Y0159267D01*
X0184305Y0157300D02*
X0185537Y0157300D01*
X0185957Y0155333D02*
X0183885Y0155333D01*
X0187780Y0149921D02*
X0173200Y0135341D01*
X0172405Y0136136D01*
X0170793Y0136803D01*
X0169049Y0136803D01*
X0167438Y0136136D01*
X0166204Y0134902D01*
X0165537Y0133291D01*
X0165537Y0126347D01*
X0166204Y0124735D01*
X0167438Y0123502D01*
X0169049Y0122835D01*
X0170793Y0122835D01*
X0172405Y0123502D01*
X0173638Y0124735D01*
X0174305Y0126347D01*
X0174305Y0129137D01*
X0175537Y0130369D01*
X0175537Y0126347D01*
X0176204Y0124735D01*
X0177438Y0123502D01*
X0179049Y0122835D01*
X0180793Y0122835D01*
X0182405Y0123502D01*
X0183638Y0124735D01*
X0184305Y0126347D01*
X0184305Y0129537D01*
X0185537Y0130769D01*
X0185537Y0126347D01*
X0186204Y0124735D01*
X0187438Y0123502D01*
X0189049Y0122835D01*
X0190793Y0122835D01*
X0192405Y0123502D01*
X0193638Y0124735D01*
X0194305Y0126347D01*
X0194305Y0133291D01*
X0193638Y0134902D01*
X0192405Y0136136D01*
X0191343Y0136575D01*
X0197489Y0142721D01*
X0207580Y0142721D01*
X0201407Y0136549D01*
X0200793Y0136803D01*
X0199049Y0136803D01*
X0197438Y0136136D01*
X0196204Y0134902D01*
X0195537Y0133291D01*
X0195537Y0126347D01*
X0196204Y0124735D01*
X0197438Y0123502D01*
X0198232Y0123173D01*
X0133180Y0058122D01*
X0132056Y0059246D01*
X0130158Y0059246D01*
X0130158Y0054662D01*
X0130157Y0054662D01*
X0130157Y0059246D01*
X0128259Y0059246D01*
X0125573Y0056560D01*
X0125573Y0054661D01*
X0125573Y0052763D01*
X0127897Y0050439D01*
X0121628Y0044169D01*
X0121235Y0043220D01*
X0121235Y0043176D01*
X0119178Y0041120D01*
X0119778Y0042567D01*
X0119778Y0049511D01*
X0119110Y0051123D01*
X0118003Y0052230D01*
X0118003Y0057882D01*
X0119620Y0059499D01*
X0119620Y0063131D01*
X0117052Y0065699D01*
X0113420Y0065699D01*
X0110852Y0063131D01*
X0110852Y0059499D01*
X0112835Y0057516D01*
X0112835Y0052281D01*
X0111677Y0051123D01*
X0111009Y0049511D01*
X0111009Y0042567D01*
X0111677Y0040956D01*
X0112910Y0039723D01*
X0113955Y0039290D01*
X0106832Y0039290D01*
X0107877Y0039723D01*
X0109110Y0040956D01*
X0109778Y0042567D01*
X0109778Y0049511D01*
X0109110Y0051123D01*
X0107877Y0052356D01*
X0107803Y0052387D01*
X0107803Y0057524D01*
X0109778Y0059499D01*
X0109778Y0062210D01*
X0112210Y0064642D01*
X0112603Y0065591D01*
X0112603Y0087465D01*
X0113337Y0086731D01*
X0115236Y0086731D01*
X0115236Y0091315D01*
X0115236Y0095899D01*
X0113337Y0095899D01*
X0112603Y0095165D01*
X0112603Y0119388D01*
X0116410Y0123194D01*
X0116801Y0124139D01*
X0117438Y0123502D01*
X0119049Y0122835D01*
X0120793Y0122835D01*
X0122405Y0123502D01*
X0123638Y0124735D01*
X0124305Y0126347D01*
X0124305Y0129537D01*
X0125537Y0130769D01*
X0125537Y0126347D01*
X0126204Y0124735D01*
X0127438Y0123502D01*
X0129049Y0122835D01*
X0130793Y0122835D01*
X0132405Y0123502D01*
X0133638Y0124735D01*
X0134305Y0126347D01*
X0134305Y0133291D01*
X0133638Y0134902D01*
X0132405Y0136136D01*
X0131343Y0136575D01*
X0144689Y0149921D01*
X0187780Y0149921D01*
X0187290Y0149432D02*
X0144200Y0149432D01*
X0142233Y0147465D02*
X0185323Y0147465D01*
X0183356Y0145498D02*
X0140266Y0145498D01*
X0138299Y0143531D02*
X0181389Y0143531D01*
X0179422Y0141564D02*
X0136332Y0141564D01*
X0134365Y0139597D02*
X0177455Y0139597D01*
X0175488Y0137630D02*
X0132398Y0137630D01*
X0132878Y0135663D02*
X0136682Y0135663D01*
X0136935Y0135916D02*
X0136425Y0135405D01*
X0136000Y0134822D01*
X0135673Y0134179D01*
X0135450Y0133492D01*
X0135337Y0132780D01*
X0135337Y0129819D01*
X0139921Y0129819D01*
X0139921Y0129819D01*
X0139921Y0137003D01*
X0139560Y0137003D01*
X0138848Y0136890D01*
X0138162Y0136667D01*
X0137519Y0136340D01*
X0136935Y0135916D01*
X0135516Y0133696D02*
X0134138Y0133696D01*
X0134305Y0131729D02*
X0135337Y0131729D01*
X0135337Y0129819D02*
X0135337Y0126858D01*
X0135450Y0126145D01*
X0135673Y0125459D01*
X0136000Y0124816D01*
X0136425Y0124232D01*
X0136935Y0123722D01*
X0137519Y0123298D01*
X0138162Y0122971D01*
X0138848Y0122748D01*
X0139560Y0122635D01*
X0139921Y0122635D01*
X0139921Y0129819D01*
X0139921Y0129819D01*
X0135337Y0129819D01*
X0135337Y0129762D02*
X0134305Y0129762D01*
X0134305Y0127794D02*
X0135337Y0127794D01*
X0135553Y0125827D02*
X0134090Y0125827D01*
X0132763Y0123860D02*
X0136797Y0123860D01*
X0139921Y0123860D02*
X0139921Y0123860D01*
X0139921Y0122635D02*
X0140282Y0122635D01*
X0140995Y0122748D01*
X0141681Y0122971D01*
X0142324Y0123298D01*
X0142908Y0123722D01*
X0143418Y0124232D01*
X0143842Y0124816D01*
X0144170Y0125459D01*
X0144393Y0126145D01*
X0144505Y0126858D01*
X0144505Y0129819D01*
X0144505Y0132780D01*
X0144393Y0133492D01*
X0144170Y0134179D01*
X0143842Y0134822D01*
X0143418Y0135405D01*
X0142908Y0135916D01*
X0142324Y0136340D01*
X0141681Y0136667D01*
X0140995Y0136890D01*
X0140282Y0137003D01*
X0139921Y0137003D01*
X0139921Y0129819D01*
X0139921Y0129819D01*
X0144505Y0129819D01*
X0139921Y0129819D01*
X0139921Y0129819D01*
X0139921Y0122635D01*
X0139921Y0125827D02*
X0139921Y0125827D01*
X0139921Y0127794D02*
X0139921Y0127794D01*
X0139921Y0129762D02*
X0139921Y0129762D01*
X0139921Y0131729D02*
X0139921Y0131729D01*
X0139921Y0133696D02*
X0139921Y0133696D01*
X0139921Y0135663D02*
X0139921Y0135663D01*
X0143161Y0135663D02*
X0146965Y0135663D01*
X0147438Y0136136D02*
X0146204Y0134902D01*
X0145537Y0133291D01*
X0145537Y0126347D01*
X0146204Y0124735D01*
X0147035Y0123905D01*
X0147035Y0115776D01*
X0146002Y0114744D01*
X0145697Y0114870D01*
X0143515Y0114870D01*
X0141500Y0114035D01*
X0139957Y0112492D01*
X0139122Y0110477D01*
X0139122Y0108295D01*
X0139957Y0106279D01*
X0141500Y0104737D01*
X0143515Y0103902D01*
X0145697Y0103902D01*
X0147713Y0104737D01*
X0149256Y0106279D01*
X0149504Y0106879D01*
X0149745Y0106407D01*
X0150271Y0105683D01*
X0150903Y0105050D01*
X0151627Y0104524D01*
X0152424Y0104118D01*
X0153275Y0103842D01*
X0154159Y0103702D01*
X0154606Y0103702D01*
X0154606Y0109386D01*
X0154606Y0115070D01*
X0154159Y0115070D01*
X0153275Y0114930D01*
X0152424Y0114654D01*
X0152203Y0114541D01*
X0152203Y0123419D01*
X0152405Y0123502D01*
X0153638Y0124735D01*
X0154305Y0126347D01*
X0154305Y0133291D01*
X0153638Y0134902D01*
X0152405Y0136136D01*
X0150793Y0136803D01*
X0149049Y0136803D01*
X0147438Y0136136D01*
X0145705Y0133696D02*
X0144327Y0133696D01*
X0144505Y0131729D02*
X0145537Y0131729D01*
X0145537Y0129762D02*
X0144505Y0129762D01*
X0144505Y0127794D02*
X0145537Y0127794D01*
X0145752Y0125827D02*
X0144289Y0125827D01*
X0143046Y0123860D02*
X0147035Y0123860D01*
X0147035Y0121893D02*
X0115109Y0121893D01*
X0116686Y0123860D02*
X0117079Y0123860D01*
X0113142Y0119926D02*
X0147035Y0119926D01*
X0147035Y0117959D02*
X0112603Y0117959D01*
X0112603Y0115992D02*
X0147035Y0115992D01*
X0141490Y0114025D02*
X0112603Y0114025D01*
X0112603Y0112058D02*
X0139777Y0112058D01*
X0139122Y0110091D02*
X0112603Y0110091D01*
X0112603Y0108124D02*
X0139193Y0108124D01*
X0140079Y0106157D02*
X0112603Y0106157D01*
X0112603Y0104190D02*
X0142818Y0104190D01*
X0146394Y0104190D02*
X0152282Y0104190D01*
X0154606Y0104190D02*
X0154606Y0104190D01*
X0154606Y0103702D02*
X0155054Y0103702D01*
X0155937Y0103842D01*
X0156788Y0104118D01*
X0157585Y0104524D01*
X0158309Y0105050D01*
X0158942Y0105683D01*
X0159468Y0106407D01*
X0159709Y0106879D01*
X0159957Y0106279D01*
X0161500Y0104737D01*
X0163515Y0103902D01*
X0165697Y0103902D01*
X0167713Y0104737D01*
X0169256Y0106279D01*
X0170091Y0108295D01*
X0170091Y0110477D01*
X0169256Y0112492D01*
X0167713Y0114035D01*
X0165697Y0114870D01*
X0163515Y0114870D01*
X0163003Y0114658D01*
X0163003Y0124101D01*
X0163638Y0124735D01*
X0164305Y0126347D01*
X0164305Y0133291D01*
X0163638Y0134902D01*
X0162405Y0136136D01*
X0160793Y0136803D01*
X0159049Y0136803D01*
X0157438Y0136136D01*
X0156204Y0134902D01*
X0155537Y0133291D01*
X0155537Y0126347D01*
X0156204Y0124735D01*
X0157438Y0123502D01*
X0157835Y0123338D01*
X0157835Y0114066D01*
X0157585Y0114247D01*
X0156788Y0114654D01*
X0155937Y0114930D01*
X0155054Y0115070D01*
X0154606Y0115070D01*
X0154606Y0109386D01*
X0154606Y0109386D01*
X0154606Y0109386D01*
X0154606Y0103702D01*
X0156930Y0104190D02*
X0162818Y0104190D01*
X0160079Y0106157D02*
X0159287Y0106157D01*
X0154606Y0106157D02*
X0154606Y0106157D01*
X0154606Y0108124D02*
X0154606Y0108124D01*
X0154606Y0110091D02*
X0154606Y0110091D01*
X0154606Y0112058D02*
X0154606Y0112058D01*
X0154606Y0114025D02*
X0154606Y0114025D01*
X0152203Y0115992D02*
X0157835Y0115992D01*
X0157835Y0117959D02*
X0152203Y0117959D01*
X0152203Y0119926D02*
X0157835Y0119926D01*
X0157835Y0121893D02*
X0152203Y0121893D01*
X0152763Y0123860D02*
X0157079Y0123860D01*
X0155752Y0125827D02*
X0154090Y0125827D01*
X0154305Y0127794D02*
X0155537Y0127794D01*
X0155537Y0129762D02*
X0154305Y0129762D01*
X0154305Y0131729D02*
X0155537Y0131729D01*
X0155705Y0133696D02*
X0154138Y0133696D01*
X0152878Y0135663D02*
X0156965Y0135663D01*
X0162878Y0135663D02*
X0166965Y0135663D01*
X0165705Y0133696D02*
X0164138Y0133696D01*
X0164305Y0131729D02*
X0165537Y0131729D01*
X0165537Y0129762D02*
X0164305Y0129762D01*
X0164305Y0127794D02*
X0165537Y0127794D01*
X0165752Y0125827D02*
X0164090Y0125827D01*
X0163003Y0123860D02*
X0167079Y0123860D01*
X0163003Y0121893D02*
X0196952Y0121893D01*
X0197079Y0123860D02*
X0192763Y0123860D01*
X0194090Y0125827D02*
X0195752Y0125827D01*
X0195537Y0127794D02*
X0194305Y0127794D01*
X0194305Y0129762D02*
X0195537Y0129762D01*
X0195537Y0131729D02*
X0194305Y0131729D01*
X0194138Y0133696D02*
X0195705Y0133696D01*
X0196965Y0135663D02*
X0192878Y0135663D01*
X0192398Y0137630D02*
X0202488Y0137630D01*
X0204455Y0139597D02*
X0194365Y0139597D01*
X0196332Y0141564D02*
X0206422Y0141564D01*
X0216064Y0133696D02*
X0221117Y0133696D01*
X0219463Y0135663D02*
X0218031Y0135663D01*
X0214097Y0131729D02*
X0288689Y0131729D01*
X0286722Y0133696D02*
X0247735Y0133696D01*
X0241320Y0133696D02*
X0237735Y0133696D01*
X0239394Y0135663D02*
X0239661Y0135663D01*
X0231320Y0133696D02*
X0227938Y0133696D01*
X0229592Y0135663D02*
X0229661Y0135663D01*
X0224543Y0135663D02*
X0224512Y0135663D01*
X0224512Y0137630D02*
X0224543Y0137630D01*
X0224512Y0133696D02*
X0224543Y0133696D01*
X0212130Y0129762D02*
X0284916Y0129762D01*
X0295369Y0135663D02*
X0318869Y0135663D01*
X0320836Y0137630D02*
X0293402Y0137630D01*
X0291435Y0139597D02*
X0322803Y0139597D01*
X0324770Y0141564D02*
X0289077Y0141564D01*
X0289745Y0141287D02*
X0288365Y0141858D01*
X0248669Y0141858D01*
X0247634Y0142893D01*
X0246787Y0143244D01*
X0247634Y0143595D01*
X0249177Y0145138D01*
X0250012Y0147153D01*
X0250012Y0149335D01*
X0249177Y0151351D01*
X0247634Y0152893D01*
X0245674Y0153705D01*
X0252089Y0160121D01*
X0323655Y0160121D01*
X0322696Y0159163D01*
X0322696Y0157181D01*
X0322696Y0155199D01*
X0325499Y0152397D01*
X0327480Y0152397D01*
X0327480Y0157181D01*
X0322696Y0157181D01*
X0327480Y0157181D01*
X0327480Y0157181D01*
X0327480Y0157181D01*
X0327480Y0152397D01*
X0329462Y0152397D01*
X0332265Y0155199D01*
X0332265Y0157181D01*
X0327480Y0157181D01*
X0327480Y0157181D01*
X0332265Y0157181D01*
X0332265Y0159163D01*
X0331306Y0160121D01*
X0333655Y0160121D01*
X0332696Y0159163D01*
X0332696Y0157181D01*
X0332696Y0155199D01*
X0335499Y0152397D01*
X0335603Y0152397D01*
X0316837Y0133631D01*
X0316266Y0132252D01*
X0316266Y0130266D01*
X0316134Y0130266D01*
X0315150Y0129858D01*
X0301173Y0129858D01*
X0290800Y0140231D01*
X0289745Y0141287D01*
X0297336Y0133696D02*
X0316902Y0133696D01*
X0316266Y0131729D02*
X0299303Y0131729D01*
X0296557Y0123860D02*
X0296114Y0123860D01*
X0294034Y0121893D02*
X0315179Y0121893D01*
X0315314Y0119926D02*
X0293899Y0119926D01*
X0296091Y0117959D02*
X0313121Y0117959D01*
X0312622Y0115992D02*
X0296591Y0115992D01*
X0296183Y0114025D02*
X0313030Y0114025D01*
X0314780Y0112058D02*
X0294432Y0112058D01*
X0293500Y0110091D02*
X0315712Y0110091D01*
X0313190Y0108124D02*
X0296023Y0108124D01*
X0296591Y0106157D02*
X0312622Y0106157D01*
X0312961Y0104190D02*
X0296251Y0104190D01*
X0294748Y0102223D02*
X0314465Y0102223D01*
X0316110Y0100256D02*
X0293102Y0100256D01*
X0295955Y0098289D02*
X0313258Y0098289D01*
X0313290Y0098365D02*
X0312622Y0096754D01*
X0312622Y0095010D01*
X0313290Y0093398D01*
X0314523Y0092165D01*
X0316134Y0091498D01*
X0323078Y0091498D01*
X0324690Y0092165D01*
X0325923Y0093398D01*
X0326591Y0095010D01*
X0326591Y0096754D01*
X0325923Y0098365D01*
X0324690Y0099599D01*
X0323078Y0100266D01*
X0316134Y0100266D01*
X0314523Y0099599D01*
X0313290Y0098365D01*
X0312622Y0096322D02*
X0296591Y0096322D01*
X0296319Y0094355D02*
X0312893Y0094355D01*
X0314300Y0092388D02*
X0295461Y0092388D01*
X0297558Y0090421D02*
X0353103Y0090421D01*
X0353578Y0090896D02*
X0351009Y0088328D01*
X0351009Y0084696D01*
X0353578Y0082128D01*
X0357210Y0082128D01*
X0359778Y0084696D01*
X0359778Y0088328D01*
X0357210Y0090896D01*
X0353578Y0090896D01*
X0351136Y0088454D02*
X0325834Y0088454D01*
X0325923Y0088365D02*
X0324690Y0089599D01*
X0323078Y0090266D01*
X0316134Y0090266D01*
X0314523Y0089599D01*
X0313290Y0088365D01*
X0312622Y0086754D01*
X0312622Y0085010D01*
X0313290Y0083398D01*
X0314523Y0082165D01*
X0316134Y0081498D01*
X0320172Y0081498D01*
X0321404Y0080266D01*
X0316134Y0080266D01*
X0314523Y0079599D01*
X0313290Y0078365D01*
X0312622Y0076754D01*
X0312622Y0075010D01*
X0313290Y0073398D01*
X0314523Y0072165D01*
X0316134Y0071498D01*
X0323078Y0071498D01*
X0324690Y0072165D01*
X0325923Y0073398D01*
X0326591Y0075010D01*
X0326591Y0075079D01*
X0339555Y0062115D01*
X0340505Y0061721D01*
X0344589Y0061721D01*
X0344628Y0061627D01*
X0345861Y0060393D01*
X0347473Y0059726D01*
X0354417Y0059726D01*
X0356028Y0060393D01*
X0357262Y0061627D01*
X0357929Y0063238D01*
X0357929Y0064982D01*
X0357262Y0066594D01*
X0356028Y0067827D01*
X0354417Y0068494D01*
X0347473Y0068494D01*
X0345861Y0067827D01*
X0344924Y0066890D01*
X0342089Y0066890D01*
X0325752Y0083227D01*
X0325923Y0083398D01*
X0326591Y0085010D01*
X0326591Y0086754D01*
X0325923Y0088365D01*
X0326591Y0086487D02*
X0351009Y0086487D01*
X0351185Y0084520D02*
X0326388Y0084520D01*
X0326426Y0082553D02*
X0353152Y0082553D01*
X0353906Y0078694D02*
X0350945Y0078694D01*
X0350945Y0074110D01*
X0350945Y0069526D01*
X0353906Y0069526D01*
X0354618Y0069639D01*
X0355305Y0069862D01*
X0355948Y0070189D01*
X0356531Y0070614D01*
X0357042Y0071124D01*
X0357466Y0071708D01*
X0357793Y0072350D01*
X0358016Y0073037D01*
X0358129Y0073749D01*
X0358129Y0074110D01*
X0350945Y0074110D01*
X0350945Y0074110D01*
X0350945Y0074110D01*
X0350945Y0069526D01*
X0347984Y0069526D01*
X0347271Y0069639D01*
X0346585Y0069862D01*
X0345942Y0070189D01*
X0345358Y0070614D01*
X0344848Y0071124D01*
X0344424Y0071708D01*
X0344096Y0072350D01*
X0343874Y0073037D01*
X0343761Y0073749D01*
X0343761Y0074110D01*
X0350945Y0074110D01*
X0358129Y0074110D01*
X0358129Y0074471D01*
X0358016Y0075184D01*
X0357793Y0075870D01*
X0357466Y0076513D01*
X0357042Y0077097D01*
X0356531Y0077607D01*
X0355948Y0078031D01*
X0355305Y0078359D01*
X0354618Y0078582D01*
X0353906Y0078694D01*
X0354382Y0078619D02*
X0362417Y0078619D01*
X0362417Y0076652D02*
X0357365Y0076652D01*
X0358095Y0074685D02*
X0362417Y0074685D01*
X0362417Y0072718D02*
X0357913Y0072718D01*
X0356669Y0070751D02*
X0362417Y0070751D01*
X0362417Y0068784D02*
X0340195Y0068784D01*
X0338228Y0070751D02*
X0345221Y0070751D01*
X0343977Y0072718D02*
X0336261Y0072718D01*
X0334294Y0074685D02*
X0343795Y0074685D01*
X0343761Y0074471D02*
X0343874Y0075184D01*
X0344096Y0075870D01*
X0344424Y0076513D01*
X0344848Y0077097D01*
X0345358Y0077607D01*
X0345942Y0078031D01*
X0346585Y0078359D01*
X0347271Y0078582D01*
X0347984Y0078694D01*
X0350945Y0078694D01*
X0350945Y0074110D01*
X0350945Y0074110D01*
X0350945Y0074110D01*
X0343761Y0074110D01*
X0343761Y0074471D01*
X0344525Y0076652D02*
X0332327Y0076652D01*
X0330360Y0078619D02*
X0347508Y0078619D01*
X0350945Y0078619D02*
X0350945Y0078619D01*
X0350945Y0076652D02*
X0350945Y0076652D01*
X0350945Y0074685D02*
X0350945Y0074685D01*
X0350945Y0072718D02*
X0350945Y0072718D01*
X0350945Y0070751D02*
X0350945Y0070751D01*
X0357038Y0066817D02*
X0362417Y0066817D01*
X0362417Y0064850D02*
X0357929Y0064850D01*
X0357782Y0062883D02*
X0362417Y0062883D01*
X0362417Y0060916D02*
X0356551Y0060916D01*
X0356873Y0056982D02*
X0362417Y0056982D01*
X0362417Y0058949D02*
X0325339Y0058949D01*
X0326496Y0056982D02*
X0345016Y0056982D01*
X0343974Y0055015D02*
X0326591Y0055015D01*
X0325573Y0053048D02*
X0344039Y0053048D01*
X0345174Y0051081D02*
X0306898Y0051081D01*
X0304931Y0053048D02*
X0313640Y0053048D01*
X0312622Y0055015D02*
X0302964Y0055015D01*
X0300997Y0056982D02*
X0312716Y0056982D01*
X0313873Y0058949D02*
X0299030Y0058949D01*
X0297063Y0060916D02*
X0311954Y0060916D01*
X0309987Y0062883D02*
X0295408Y0062883D01*
X0296524Y0064850D02*
X0308020Y0064850D01*
X0306053Y0066817D02*
X0296564Y0066817D01*
X0295504Y0068784D02*
X0304086Y0068784D01*
X0302119Y0070751D02*
X0284803Y0070751D01*
X0279635Y0076732D02*
X0278772Y0077090D01*
X0277266Y0077090D01*
X0275875Y0076514D01*
X0274811Y0075449D01*
X0274235Y0074058D01*
X0274235Y0072553D01*
X0274811Y0071162D01*
X0275435Y0070538D01*
X0275435Y0062976D01*
X0233638Y0021180D01*
X0233540Y0021278D01*
X0231524Y0022113D01*
X0229342Y0022113D01*
X0227326Y0021278D01*
X0225784Y0019736D01*
X0225433Y0018889D01*
X0225082Y0019736D01*
X0223540Y0021278D01*
X0221524Y0022113D01*
X0219342Y0022113D01*
X0217326Y0021278D01*
X0215784Y0019736D01*
X0215433Y0018889D01*
X0215082Y0019736D01*
X0214393Y0020425D01*
X0228588Y0034620D01*
X0228788Y0034137D01*
X0229908Y0033016D01*
X0231373Y0032409D01*
X0232958Y0032409D01*
X0234422Y0033016D01*
X0235543Y0034137D01*
X0236150Y0035601D01*
X0236150Y0037186D01*
X0235543Y0038651D01*
X0234422Y0039771D01*
X0233939Y0039971D01*
X0237689Y0043721D01*
X0239203Y0043721D01*
X0239908Y0043016D01*
X0241373Y0042409D01*
X0242958Y0042409D01*
X0244422Y0043016D01*
X0245543Y0044137D01*
X0246150Y0045601D01*
X0246150Y0047186D01*
X0246094Y0047321D01*
X0246972Y0047321D01*
X0248362Y0047897D01*
X0249427Y0048962D01*
X0250003Y0050353D01*
X0250003Y0051235D01*
X0282961Y0084193D01*
X0283290Y0083398D01*
X0283573Y0083115D01*
X0280755Y0080296D01*
X0280028Y0079569D01*
X0279635Y0078620D01*
X0279635Y0076732D01*
X0279635Y0078619D02*
X0277387Y0078619D01*
X0276210Y0076652D02*
X0275420Y0076652D01*
X0274494Y0074685D02*
X0273453Y0074685D01*
X0274235Y0072718D02*
X0271486Y0072718D01*
X0269519Y0070751D02*
X0275222Y0070751D01*
X0275435Y0068784D02*
X0267552Y0068784D01*
X0265585Y0066817D02*
X0275435Y0066817D01*
X0275435Y0064850D02*
X0263618Y0064850D01*
X0261651Y0062883D02*
X0275342Y0062883D01*
X0273375Y0060916D02*
X0259684Y0060916D01*
X0257717Y0058949D02*
X0271408Y0058949D01*
X0269441Y0056982D02*
X0255750Y0056982D01*
X0253783Y0055015D02*
X0267474Y0055015D01*
X0265507Y0053048D02*
X0251816Y0053048D01*
X0250003Y0051081D02*
X0263540Y0051081D01*
X0261573Y0049114D02*
X0249490Y0049114D01*
X0246150Y0047147D02*
X0259606Y0047147D01*
X0257639Y0045180D02*
X0245975Y0045180D01*
X0244619Y0043213D02*
X0255672Y0043213D01*
X0253705Y0041246D02*
X0235214Y0041246D01*
X0234915Y0039279D02*
X0251738Y0039279D01*
X0249771Y0037312D02*
X0236098Y0037312D01*
X0236043Y0035345D02*
X0247803Y0035345D01*
X0245836Y0033378D02*
X0234784Y0033378D01*
X0229547Y0033378D02*
X0227346Y0033378D01*
X0225379Y0031411D02*
X0243869Y0031411D01*
X0241902Y0029444D02*
X0223412Y0029444D01*
X0221445Y0027477D02*
X0239935Y0027477D01*
X0237968Y0025510D02*
X0219478Y0025510D01*
X0217511Y0023543D02*
X0236001Y0023543D01*
X0234034Y0021576D02*
X0232822Y0021576D01*
X0228044Y0021576D02*
X0222822Y0021576D01*
X0225135Y0019609D02*
X0225731Y0019609D01*
X0218044Y0021576D02*
X0215544Y0021576D01*
X0215731Y0019609D02*
X0215135Y0019609D01*
X0210201Y0023543D02*
X0176590Y0023543D01*
X0177345Y0025510D02*
X0212168Y0025510D01*
X0214135Y0027477D02*
X0177192Y0027477D01*
X0175997Y0029444D02*
X0216102Y0029444D01*
X0218069Y0031411D02*
X0168168Y0031411D01*
X0166201Y0033378D02*
X0220036Y0033378D01*
X0222003Y0035345D02*
X0164234Y0035345D01*
X0162267Y0037312D02*
X0223970Y0037312D01*
X0225938Y0039279D02*
X0160300Y0039279D01*
X0158333Y0041246D02*
X0227905Y0041246D01*
X0229872Y0043213D02*
X0156366Y0043213D01*
X0157548Y0045180D02*
X0231839Y0045180D01*
X0233806Y0047147D02*
X0159515Y0047147D01*
X0161482Y0049114D02*
X0239251Y0049114D01*
X0242435Y0051081D02*
X0162777Y0051081D01*
X0164542Y0053048D02*
X0229652Y0053048D01*
X0229439Y0053202D02*
X0229972Y0052815D01*
X0230559Y0052516D01*
X0231186Y0052312D01*
X0231836Y0052209D01*
X0232165Y0052209D01*
X0232165Y0056394D01*
X0232165Y0056394D01*
X0227981Y0056394D01*
X0227981Y0056723D01*
X0228084Y0057374D01*
X0228288Y0058000D01*
X0228587Y0058587D01*
X0228974Y0059120D01*
X0229439Y0059585D01*
X0229972Y0059972D01*
X0230559Y0060271D01*
X0231186Y0060475D01*
X0231836Y0060578D01*
X0232165Y0060578D01*
X0232165Y0056394D01*
X0232165Y0056394D01*
X0227981Y0056394D01*
X0227981Y0056064D01*
X0228084Y0055414D01*
X0228288Y0054787D01*
X0228587Y0054201D01*
X0228974Y0053668D01*
X0229439Y0053202D01*
X0228214Y0055015D02*
X0164542Y0055015D01*
X0164037Y0056982D02*
X0228022Y0056982D01*
X0228850Y0058949D02*
X0162070Y0058949D01*
X0158245Y0058949D02*
X0141317Y0058949D01*
X0143284Y0060916D02*
X0252375Y0060916D01*
X0254342Y0062883D02*
X0145251Y0062883D01*
X0147218Y0064850D02*
X0256309Y0064850D01*
X0258276Y0066817D02*
X0149185Y0066817D01*
X0151152Y0068784D02*
X0260243Y0068784D01*
X0262210Y0070751D02*
X0153119Y0070751D01*
X0155086Y0072718D02*
X0264177Y0072718D01*
X0266144Y0074685D02*
X0157053Y0074685D01*
X0159020Y0076652D02*
X0268111Y0076652D01*
X0270078Y0078619D02*
X0160987Y0078619D01*
X0162954Y0080586D02*
X0214064Y0080586D01*
X0213449Y0082553D02*
X0164921Y0082553D01*
X0166888Y0084520D02*
X0218090Y0084520D01*
X0218681Y0084520D02*
X0229901Y0084520D01*
X0230492Y0084520D02*
X0240925Y0084520D01*
X0240925Y0084287D02*
X0236283Y0084287D01*
X0236283Y0081762D01*
X0236419Y0081258D01*
X0236680Y0080805D01*
X0237049Y0080436D01*
X0237502Y0080175D01*
X0238006Y0080039D01*
X0240925Y0080039D01*
X0240925Y0084287D01*
X0241516Y0084520D02*
X0275979Y0084520D01*
X0274012Y0082553D02*
X0246157Y0082553D01*
X0245542Y0080586D02*
X0272045Y0080586D01*
X0279354Y0080586D02*
X0281045Y0080586D01*
X0280755Y0080296D02*
X0280755Y0080296D01*
X0281321Y0082553D02*
X0283012Y0082553D01*
X0277946Y0086487D02*
X0246157Y0086487D01*
X0245957Y0088454D02*
X0279913Y0088454D01*
X0281880Y0090421D02*
X0266989Y0090421D01*
X0268956Y0092388D02*
X0283977Y0092388D01*
X0282893Y0094355D02*
X0270923Y0094355D01*
X0272890Y0096322D02*
X0282622Y0096322D01*
X0283258Y0098289D02*
X0274857Y0098289D01*
X0276824Y0100256D02*
X0286110Y0100256D01*
X0284465Y0102223D02*
X0278791Y0102223D01*
X0275416Y0106157D02*
X0244925Y0106157D01*
X0242958Y0104190D02*
X0273449Y0104190D01*
X0271482Y0102223D02*
X0245001Y0102223D01*
X0245957Y0100256D02*
X0269515Y0100256D01*
X0267548Y0098289D02*
X0245957Y0098289D01*
X0245957Y0096322D02*
X0265581Y0096322D01*
X0263614Y0094355D02*
X0245957Y0094355D01*
X0236483Y0090421D02*
X0234934Y0090421D01*
X0234934Y0088454D02*
X0236483Y0088454D01*
X0236283Y0086487D02*
X0235134Y0086487D01*
X0235134Y0082553D02*
X0236283Y0082553D01*
X0236899Y0080586D02*
X0234518Y0080586D01*
X0230492Y0080586D02*
X0229902Y0080586D01*
X0229902Y0082553D02*
X0230492Y0082553D01*
X0225875Y0080586D02*
X0222707Y0080586D01*
X0223323Y0082553D02*
X0225260Y0082553D01*
X0218681Y0082553D02*
X0218091Y0082553D01*
X0218091Y0080586D02*
X0218681Y0080586D01*
X0223323Y0086487D02*
X0225260Y0086487D01*
X0225460Y0088454D02*
X0223123Y0088454D01*
X0223123Y0090421D02*
X0225460Y0090421D01*
X0225460Y0092388D02*
X0224556Y0092388D01*
X0213649Y0092388D02*
X0174756Y0092388D01*
X0172789Y0090421D02*
X0213649Y0090421D01*
X0213649Y0088454D02*
X0170822Y0088454D01*
X0168855Y0086487D02*
X0213449Y0086487D01*
X0213649Y0094355D02*
X0176723Y0094355D01*
X0178690Y0096322D02*
X0213649Y0096322D01*
X0213649Y0098289D02*
X0180657Y0098289D01*
X0182624Y0100256D02*
X0213649Y0100256D01*
X0214605Y0102223D02*
X0184591Y0102223D01*
X0186558Y0104190D02*
X0224849Y0104190D01*
X0222968Y0102223D02*
X0222166Y0102223D01*
X0226816Y0106157D02*
X0188525Y0106157D01*
X0190492Y0108124D02*
X0228783Y0108124D01*
X0230750Y0110091D02*
X0192459Y0110091D01*
X0194426Y0112058D02*
X0232717Y0112058D01*
X0234684Y0114025D02*
X0196393Y0114025D01*
X0198360Y0115992D02*
X0236651Y0115992D01*
X0238618Y0117959D02*
X0200327Y0117959D01*
X0202294Y0119926D02*
X0240585Y0119926D01*
X0242552Y0121893D02*
X0204262Y0121893D01*
X0206229Y0123860D02*
X0244519Y0123860D01*
X0246486Y0125827D02*
X0208196Y0125827D01*
X0210163Y0127794D02*
X0248592Y0127794D01*
X0249861Y0121893D02*
X0285179Y0121893D01*
X0285314Y0119926D02*
X0247894Y0119926D01*
X0245927Y0117959D02*
X0283121Y0117959D01*
X0284780Y0112058D02*
X0250826Y0112058D01*
X0248859Y0110091D02*
X0285712Y0110091D01*
X0277706Y0108124D02*
X0246892Y0108124D01*
X0241550Y0110091D02*
X0238059Y0110091D01*
X0239583Y0108124D02*
X0236092Y0108124D01*
X0237616Y0106157D02*
X0234125Y0106157D01*
X0235649Y0104190D02*
X0232158Y0104190D01*
X0233977Y0102223D02*
X0234119Y0102223D01*
X0240026Y0112058D02*
X0243517Y0112058D01*
X0241993Y0114025D02*
X0245484Y0114025D01*
X0243960Y0115992D02*
X0247451Y0115992D01*
X0247479Y0143531D02*
X0326737Y0143531D01*
X0328704Y0145498D02*
X0249326Y0145498D01*
X0250012Y0147465D02*
X0330671Y0147465D01*
X0332638Y0149432D02*
X0249972Y0149432D01*
X0249129Y0151399D02*
X0334605Y0151399D01*
X0334530Y0153366D02*
X0330431Y0153366D01*
X0332265Y0155333D02*
X0332696Y0155333D01*
X0332696Y0157181D02*
X0337480Y0157181D01*
X0337480Y0157181D01*
X0332696Y0157181D01*
X0332696Y0157300D02*
X0332265Y0157300D01*
X0332161Y0159267D02*
X0332800Y0159267D01*
X0336133Y0161965D02*
X0336765Y0162597D01*
X0339379Y0162597D01*
X0342065Y0165282D01*
X0342065Y0169080D01*
X0339379Y0171765D01*
X0335581Y0171765D01*
X0332896Y0169080D01*
X0332896Y0166037D01*
X0332148Y0165290D01*
X0332065Y0165290D01*
X0332065Y0169080D01*
X0330756Y0170388D01*
X0334083Y0173715D01*
X0334273Y0173905D01*
X0335581Y0172597D01*
X0339379Y0172597D01*
X0342065Y0175282D01*
X0342065Y0179080D01*
X0339379Y0181765D01*
X0335581Y0181765D01*
X0335203Y0181387D01*
X0335203Y0182975D01*
X0335581Y0182597D01*
X0339379Y0182597D01*
X0342065Y0185282D01*
X0342065Y0189080D01*
X0339379Y0191765D01*
X0335581Y0191765D01*
X0335203Y0191387D01*
X0335203Y0192975D01*
X0335581Y0192597D01*
X0339379Y0192597D01*
X0342065Y0195282D01*
X0342065Y0199080D01*
X0340856Y0200288D01*
X0342066Y0201498D01*
X0342066Y0159361D01*
X0339462Y0161965D01*
X0337480Y0161965D01*
X0336133Y0161965D01*
X0337480Y0161965D02*
X0337480Y0157181D01*
X0337480Y0157181D01*
X0337480Y0161965D01*
X0337480Y0161234D02*
X0337480Y0161234D01*
X0337480Y0159267D02*
X0337480Y0159267D01*
X0337480Y0157300D02*
X0337480Y0157300D01*
X0340194Y0161234D02*
X0342066Y0161234D01*
X0342066Y0163201D02*
X0339983Y0163201D01*
X0341950Y0165168D02*
X0342066Y0165168D01*
X0342065Y0167135D02*
X0342066Y0167135D01*
X0342043Y0169102D02*
X0342066Y0169102D01*
X0342066Y0171069D02*
X0340076Y0171069D01*
X0339818Y0173036D02*
X0342066Y0173036D01*
X0342066Y0175003D02*
X0341785Y0175003D01*
X0342065Y0176970D02*
X0342066Y0176970D01*
X0342065Y0178937D02*
X0342066Y0178937D01*
X0342066Y0180904D02*
X0340241Y0180904D01*
X0339653Y0182871D02*
X0342066Y0182871D01*
X0342066Y0184838D02*
X0341620Y0184838D01*
X0342065Y0186805D02*
X0342066Y0186805D01*
X0342065Y0188772D02*
X0342066Y0188772D01*
X0342066Y0190739D02*
X0340406Y0190739D01*
X0339488Y0192706D02*
X0342066Y0192706D01*
X0342066Y0194673D02*
X0341455Y0194673D01*
X0342065Y0196640D02*
X0342066Y0196640D01*
X0342065Y0198607D02*
X0342066Y0198607D01*
X0342066Y0200574D02*
X0341142Y0200574D01*
X0332896Y0206237D02*
X0332065Y0205406D01*
X0332065Y0209080D01*
X0329379Y0211765D01*
X0325933Y0211765D01*
X0326765Y0212597D01*
X0329379Y0212597D01*
X0332065Y0215282D01*
X0332065Y0219080D01*
X0329379Y0221765D01*
X0325581Y0221765D01*
X0322896Y0219080D01*
X0322896Y0216037D01*
X0306948Y0200090D01*
X0184494Y0200090D01*
X0184603Y0200353D01*
X0184603Y0201858D01*
X0184572Y0201934D01*
X0184572Y0208772D01*
X0184615Y0209384D01*
X0184572Y0209515D01*
X0184572Y0209652D01*
X0184543Y0209722D01*
X0186819Y0211998D01*
X0188893Y0209924D01*
X0190272Y0209353D01*
X0249965Y0209353D01*
X0251345Y0209924D01*
X0252400Y0210980D01*
X0264573Y0223153D01*
X0325026Y0223153D01*
X0325581Y0222597D01*
X0329379Y0222597D01*
X0332065Y0225282D01*
X0332065Y0229080D01*
X0329623Y0231521D01*
X0335337Y0231521D01*
X0332896Y0229080D01*
X0332896Y0225282D01*
X0335581Y0222597D01*
X0337020Y0222597D01*
X0337852Y0221765D01*
X0335581Y0221765D01*
X0332896Y0219080D01*
X0332896Y0215282D01*
X0335581Y0212597D01*
X0338473Y0212597D01*
X0339304Y0211765D01*
X0335581Y0211765D01*
X0332896Y0209080D01*
X0332896Y0206237D01*
X0332896Y0206475D02*
X0332065Y0206475D01*
X0332065Y0208442D02*
X0332896Y0208442D01*
X0334225Y0210409D02*
X0330735Y0210409D01*
X0326544Y0212376D02*
X0338694Y0212376D01*
X0333835Y0214343D02*
X0331125Y0214343D01*
X0332065Y0216310D02*
X0332896Y0216310D01*
X0332896Y0218277D02*
X0332065Y0218277D01*
X0330900Y0220244D02*
X0334060Y0220244D01*
X0337406Y0222211D02*
X0263632Y0222211D01*
X0261665Y0220244D02*
X0324060Y0220244D01*
X0322896Y0218277D02*
X0259698Y0218277D01*
X0257731Y0216310D02*
X0322896Y0216310D01*
X0321202Y0214343D02*
X0255764Y0214343D01*
X0253797Y0212376D02*
X0319235Y0212376D01*
X0317268Y0210409D02*
X0251830Y0210409D01*
X0247664Y0225858D02*
X0238288Y0225858D01*
X0238288Y0225936D01*
X0237560Y0227694D01*
X0236214Y0229040D01*
X0234456Y0229768D01*
X0232552Y0229768D01*
X0230794Y0229040D01*
X0229448Y0227694D01*
X0228720Y0225936D01*
X0228720Y0218033D01*
X0229206Y0216858D01*
X0228015Y0216858D01*
X0228123Y0217071D01*
X0228365Y0217817D01*
X0228488Y0218592D01*
X0228488Y0221968D01*
X0223520Y0221968D01*
X0223520Y0222000D01*
X0228488Y0222000D01*
X0228488Y0225377D01*
X0228365Y0226151D01*
X0228123Y0226898D01*
X0227767Y0227597D01*
X0227306Y0228231D01*
X0226751Y0228786D01*
X0226116Y0229247D01*
X0225417Y0229603D01*
X0224671Y0229846D01*
X0223896Y0229968D01*
X0223520Y0229968D01*
X0223520Y0222000D01*
X0223488Y0222000D01*
X0223488Y0221968D01*
X0218520Y0221968D01*
X0218520Y0218592D01*
X0218642Y0217817D01*
X0218885Y0217071D01*
X0218993Y0216858D01*
X0218015Y0216858D01*
X0218123Y0217071D01*
X0218365Y0217817D01*
X0218488Y0218592D01*
X0218488Y0221968D01*
X0213520Y0221968D01*
X0213520Y0222000D01*
X0218488Y0222000D01*
X0218488Y0225377D01*
X0218365Y0226151D01*
X0218123Y0226898D01*
X0217767Y0227597D01*
X0217306Y0228231D01*
X0216751Y0228786D01*
X0216116Y0229247D01*
X0215417Y0229603D01*
X0214671Y0229846D01*
X0213896Y0229968D01*
X0213520Y0229968D01*
X0213520Y0222000D01*
X0213488Y0222000D01*
X0213488Y0221968D01*
X0208520Y0221968D01*
X0208520Y0218592D01*
X0208642Y0217817D01*
X0208885Y0217071D01*
X0208993Y0216858D01*
X0192573Y0216858D01*
X0191228Y0218204D01*
X0191320Y0218426D01*
X0191320Y0226330D01*
X0190591Y0228088D01*
X0189245Y0229434D01*
X0188083Y0229915D01*
X0189689Y0231521D01*
X0251726Y0231521D01*
X0251097Y0230003D01*
X0251097Y0229291D01*
X0247664Y0225858D01*
X0247951Y0226145D02*
X0238201Y0226145D01*
X0237142Y0228112D02*
X0249918Y0228112D01*
X0251128Y0230079D02*
X0188247Y0230079D01*
X0190567Y0228112D02*
X0209616Y0228112D01*
X0209702Y0228231D02*
X0209241Y0227597D01*
X0208885Y0226898D01*
X0208642Y0226151D01*
X0208520Y0225377D01*
X0208520Y0222000D01*
X0213488Y0222000D01*
X0213488Y0229968D01*
X0213112Y0229968D01*
X0212337Y0229846D01*
X0211591Y0229603D01*
X0210892Y0229247D01*
X0210257Y0228786D01*
X0209702Y0228231D01*
X0208641Y0226145D02*
X0191320Y0226145D01*
X0191320Y0224178D02*
X0208520Y0224178D01*
X0208520Y0222211D02*
X0191320Y0222211D01*
X0191320Y0220244D02*
X0208520Y0220244D01*
X0208570Y0218277D02*
X0191258Y0218277D01*
X0188408Y0210409D02*
X0185230Y0210409D01*
X0184572Y0208442D02*
X0315301Y0208442D01*
X0313334Y0206475D02*
X0184572Y0206475D01*
X0184572Y0204508D02*
X0311367Y0204508D01*
X0309400Y0202541D02*
X0184572Y0202541D01*
X0184603Y0200574D02*
X0307433Y0200574D01*
X0312775Y0198607D02*
X0318666Y0198607D01*
X0320633Y0200574D02*
X0314742Y0200574D01*
X0316709Y0202541D02*
X0322600Y0202541D01*
X0323670Y0204508D02*
X0318676Y0204508D01*
X0320643Y0206475D02*
X0322896Y0206475D01*
X0322896Y0208442D02*
X0322610Y0208442D01*
X0316699Y0196640D02*
X0310808Y0196640D01*
X0314732Y0194673D02*
X0129441Y0194673D01*
X0129362Y0202541D02*
X0177066Y0202541D01*
X0177066Y0204508D02*
X0131329Y0204508D01*
X0133296Y0206475D02*
X0177066Y0206475D01*
X0171011Y0214458D02*
X0169697Y0215773D01*
X0169245Y0215322D01*
X0167487Y0214594D01*
X0165584Y0214594D01*
X0163825Y0215322D01*
X0162480Y0216668D01*
X0161751Y0218426D01*
X0161751Y0226330D01*
X0162410Y0227921D01*
X0160834Y0227921D01*
X0161155Y0227291D01*
X0161397Y0226545D01*
X0161520Y0225770D01*
X0161520Y0222394D01*
X0156551Y0222394D01*
X0156551Y0222362D01*
X0161520Y0222362D01*
X0161520Y0218986D01*
X0161397Y0218211D01*
X0161155Y0217465D01*
X0160798Y0216766D01*
X0160337Y0216131D01*
X0159782Y0215576D01*
X0159148Y0215115D01*
X0158449Y0214759D01*
X0157703Y0214516D01*
X0157335Y0214458D01*
X0171011Y0214458D01*
X0162837Y0216310D02*
X0160467Y0216310D01*
X0161407Y0218277D02*
X0161813Y0218277D01*
X0161751Y0220244D02*
X0161520Y0220244D01*
X0161520Y0222211D02*
X0161751Y0222211D01*
X0161751Y0224178D02*
X0161520Y0224178D01*
X0161460Y0226145D02*
X0161751Y0226145D01*
X0156520Y0222394D02*
X0151551Y0222394D01*
X0151551Y0225770D01*
X0151674Y0226545D01*
X0151916Y0227291D01*
X0152237Y0227921D01*
X0139479Y0227921D01*
X0140139Y0226330D01*
X0140139Y0218426D01*
X0139410Y0216668D01*
X0139063Y0216321D01*
X0139145Y0216287D01*
X0139578Y0215853D01*
X0140042Y0215451D01*
X0140103Y0215328D01*
X0140973Y0214458D01*
X0155736Y0214458D01*
X0155368Y0214516D01*
X0154622Y0214759D01*
X0153923Y0215115D01*
X0153288Y0215576D01*
X0152734Y0216131D01*
X0152273Y0216766D01*
X0151916Y0217465D01*
X0151674Y0218211D01*
X0151551Y0218986D01*
X0151551Y0222362D01*
X0156520Y0222362D01*
X0156520Y0222394D01*
X0151551Y0222211D02*
X0140139Y0222211D01*
X0140139Y0220244D02*
X0151551Y0220244D01*
X0151663Y0218277D02*
X0140077Y0218277D01*
X0139089Y0216310D02*
X0152603Y0216310D01*
X0151551Y0224178D02*
X0140139Y0224178D01*
X0140139Y0226145D02*
X0151611Y0226145D01*
X0170333Y0232046D02*
X0182905Y0232046D01*
X0180938Y0230079D02*
X0177687Y0230079D01*
X0175384Y0230079D02*
X0172300Y0230079D01*
X0184872Y0234013D02*
X0026592Y0234013D01*
X0027119Y0232046D02*
X0131305Y0232046D01*
X0129338Y0230079D02*
X0126506Y0230079D01*
X0124203Y0230079D02*
X0116506Y0230079D01*
X0114203Y0230079D02*
X0107014Y0230079D01*
X0107268Y0229997D02*
X0106521Y0230239D01*
X0105747Y0230362D01*
X0105370Y0230362D01*
X0105370Y0222394D01*
X0110339Y0222394D01*
X0110339Y0225770D01*
X0110216Y0226545D01*
X0109973Y0227291D01*
X0109617Y0227990D01*
X0109156Y0228625D01*
X0108601Y0229180D01*
X0107967Y0229641D01*
X0107268Y0229997D01*
X0105370Y0230079D02*
X0105339Y0230079D01*
X0103694Y0230079D02*
X0027307Y0230079D01*
X0027237Y0228112D02*
X0101180Y0228112D01*
X0100429Y0226145D02*
X0026710Y0226145D01*
X0025773Y0224178D02*
X0100370Y0224178D01*
X0100370Y0222211D02*
X0024334Y0222211D01*
X0021938Y0220244D02*
X0100370Y0220244D01*
X0100482Y0218277D02*
X0010378Y0218277D01*
X0010378Y0216310D02*
X0101422Y0216310D01*
X0103402Y0214343D02*
X0010378Y0214343D01*
X0046142Y0178937D02*
X0048110Y0178937D01*
X0048110Y0176970D02*
X0046142Y0176970D01*
X0046142Y0175003D02*
X0048110Y0175003D01*
X0048110Y0173036D02*
X0046142Y0173036D01*
X0040483Y0161234D02*
X0010378Y0161234D01*
X0010378Y0159267D02*
X0038998Y0159267D01*
X0038998Y0157300D02*
X0010378Y0157300D01*
X0010378Y0155333D02*
X0039617Y0155333D01*
X0041584Y0153366D02*
X0024345Y0153366D01*
X0024451Y0153288D02*
X0023727Y0153814D01*
X0022930Y0154221D01*
X0022079Y0154497D01*
X0021195Y0154637D01*
X0020764Y0154637D01*
X0020764Y0148969D01*
X0026432Y0148969D01*
X0026432Y0149400D01*
X0026292Y0150284D01*
X0026016Y0151135D01*
X0025610Y0151932D01*
X0025084Y0152656D01*
X0024451Y0153288D01*
X0025881Y0151399D02*
X0096071Y0151399D01*
X0097235Y0149432D02*
X0026427Y0149432D01*
X0026241Y0147465D02*
X0097235Y0147465D01*
X0097235Y0145498D02*
X0025264Y0145498D01*
X0023926Y0143531D02*
X0097235Y0143531D01*
X0097235Y0141564D02*
X0025603Y0141564D01*
X0026232Y0139597D02*
X0097235Y0139597D01*
X0097235Y0137630D02*
X0084750Y0137630D01*
X0086717Y0135663D02*
X0086965Y0135663D01*
X0092878Y0135663D02*
X0096965Y0135663D01*
X0095705Y0133696D02*
X0094138Y0133696D01*
X0094305Y0131729D02*
X0095537Y0131729D01*
X0095537Y0129762D02*
X0094305Y0129762D01*
X0094305Y0127794D02*
X0095537Y0127794D01*
X0095752Y0125827D02*
X0094090Y0125827D01*
X0092763Y0123860D02*
X0097079Y0123860D01*
X0102035Y0121893D02*
X0075261Y0121893D01*
X0075108Y0119926D02*
X0102035Y0119926D01*
X0102035Y0117959D02*
X0076353Y0117959D01*
X0076353Y0115992D02*
X0102035Y0115992D01*
X0102035Y0114025D02*
X0075328Y0114025D01*
X0074203Y0112058D02*
X0102035Y0112058D01*
X0102035Y0110091D02*
X0074737Y0110091D01*
X0075731Y0108124D02*
X0102035Y0108124D01*
X0102035Y0106157D02*
X0075771Y0106157D01*
X0075771Y0104190D02*
X0102035Y0104190D01*
X0102035Y0102223D02*
X0075771Y0102223D01*
X0077723Y0100256D02*
X0102035Y0100256D01*
X0102035Y0098289D02*
X0078403Y0098289D01*
X0078403Y0096322D02*
X0100581Y0096322D01*
X0098614Y0094355D02*
X0098600Y0094355D01*
X0095158Y0094355D02*
X0095157Y0094355D01*
X0095157Y0092388D02*
X0095158Y0092388D01*
X0095157Y0090421D02*
X0095158Y0090421D01*
X0095157Y0088454D02*
X0095158Y0088454D01*
X0097235Y0086487D02*
X0078403Y0086487D01*
X0078403Y0084520D02*
X0097235Y0084520D01*
X0097235Y0082553D02*
X0078403Y0082553D01*
X0078403Y0080586D02*
X0097235Y0080586D01*
X0097235Y0078619D02*
X0078403Y0078619D01*
X0078403Y0076652D02*
X0097235Y0076652D01*
X0097235Y0074685D02*
X0078403Y0074685D01*
X0078403Y0072718D02*
X0097235Y0072718D01*
X0097235Y0070751D02*
X0078403Y0070751D01*
X0078403Y0068784D02*
X0097235Y0068784D01*
X0096876Y0066817D02*
X0078403Y0066817D01*
X0078403Y0064850D02*
X0092492Y0064850D01*
X0090773Y0062883D02*
X0078403Y0062883D01*
X0078403Y0060916D02*
X0090773Y0060916D01*
X0091323Y0058949D02*
X0078403Y0058949D01*
X0078997Y0056982D02*
X0093290Y0056982D01*
X0097025Y0056982D02*
X0102635Y0056982D01*
X0102635Y0055015D02*
X0080964Y0055015D01*
X0082931Y0053048D02*
X0102635Y0053048D01*
X0101660Y0051081D02*
X0099128Y0051081D01*
X0099778Y0049114D02*
X0101009Y0049114D01*
X0101009Y0047147D02*
X0099778Y0047147D01*
X0099778Y0045180D02*
X0101009Y0045180D01*
X0101009Y0043213D02*
X0099778Y0043213D01*
X0099231Y0041246D02*
X0101557Y0041246D01*
X0109231Y0041246D02*
X0111557Y0041246D01*
X0111009Y0043213D02*
X0109778Y0043213D01*
X0109778Y0045180D02*
X0111009Y0045180D01*
X0111009Y0047147D02*
X0109778Y0047147D01*
X0109778Y0049114D02*
X0111009Y0049114D01*
X0111660Y0051081D02*
X0109128Y0051081D01*
X0107803Y0053048D02*
X0112835Y0053048D01*
X0112835Y0055015D02*
X0107803Y0055015D01*
X0107803Y0056982D02*
X0112835Y0056982D01*
X0111402Y0058949D02*
X0109228Y0058949D01*
X0109778Y0060916D02*
X0110852Y0060916D01*
X0110852Y0062883D02*
X0110451Y0062883D01*
X0112296Y0064850D02*
X0112571Y0064850D01*
X0112603Y0066817D02*
X0141876Y0066817D01*
X0143843Y0068784D02*
X0112603Y0068784D01*
X0112603Y0070751D02*
X0145810Y0070751D01*
X0147777Y0072718D02*
X0112603Y0072718D01*
X0112603Y0074685D02*
X0149744Y0074685D01*
X0151711Y0076652D02*
X0112603Y0076652D01*
X0112603Y0078619D02*
X0153678Y0078619D01*
X0155645Y0080586D02*
X0112603Y0080586D01*
X0112603Y0082553D02*
X0157612Y0082553D01*
X0159579Y0084520D02*
X0112603Y0084520D01*
X0112603Y0086487D02*
X0161546Y0086487D01*
X0163513Y0088454D02*
X0118859Y0088454D01*
X0119820Y0089416D02*
X0119820Y0091315D01*
X0119820Y0093214D01*
X0117135Y0095899D01*
X0115236Y0095899D01*
X0115236Y0091315D01*
X0115236Y0091315D01*
X0115236Y0091315D01*
X0115236Y0086731D01*
X0117135Y0086731D01*
X0119820Y0089416D01*
X0119820Y0090421D02*
X0165480Y0090421D01*
X0167447Y0092388D02*
X0119820Y0092388D01*
X0119820Y0091315D02*
X0115236Y0091315D01*
X0115236Y0091315D01*
X0119820Y0091315D01*
X0118679Y0094355D02*
X0169414Y0094355D01*
X0171381Y0096322D02*
X0112603Y0096322D01*
X0112603Y0098289D02*
X0173348Y0098289D01*
X0175315Y0100256D02*
X0112603Y0100256D01*
X0112603Y0102223D02*
X0177282Y0102223D01*
X0179249Y0104190D02*
X0166394Y0104190D01*
X0169134Y0106157D02*
X0181216Y0106157D01*
X0183183Y0108124D02*
X0170020Y0108124D01*
X0170091Y0110091D02*
X0185150Y0110091D01*
X0187117Y0112058D02*
X0169435Y0112058D01*
X0167723Y0114025D02*
X0189084Y0114025D01*
X0191051Y0115992D02*
X0163003Y0115992D01*
X0163003Y0117959D02*
X0193018Y0117959D01*
X0194985Y0119926D02*
X0163003Y0119926D01*
X0172763Y0123860D02*
X0177079Y0123860D01*
X0175752Y0125827D02*
X0174090Y0125827D01*
X0174305Y0127794D02*
X0175537Y0127794D01*
X0175537Y0129762D02*
X0174930Y0129762D01*
X0173521Y0135663D02*
X0172878Y0135663D01*
X0184530Y0129762D02*
X0185537Y0129762D01*
X0185537Y0127794D02*
X0184305Y0127794D01*
X0184090Y0125827D02*
X0185752Y0125827D01*
X0187079Y0123860D02*
X0182763Y0123860D01*
X0149926Y0106157D02*
X0149134Y0106157D01*
X0127079Y0123860D02*
X0122763Y0123860D01*
X0124090Y0125827D02*
X0125752Y0125827D01*
X0125537Y0127794D02*
X0124305Y0127794D01*
X0124530Y0129762D02*
X0125537Y0129762D01*
X0123121Y0135663D02*
X0122878Y0135663D01*
X0125088Y0137630D02*
X0114750Y0137630D01*
X0116537Y0135663D02*
X0116965Y0135663D01*
X0112782Y0139597D02*
X0127055Y0139597D01*
X0129022Y0141564D02*
X0112603Y0141564D01*
X0112603Y0143531D02*
X0130989Y0143531D01*
X0132956Y0145498D02*
X0112603Y0145498D01*
X0112603Y0147465D02*
X0134923Y0147465D01*
X0136890Y0149432D02*
X0112603Y0149432D01*
X0112603Y0151399D02*
X0138857Y0151399D01*
X0137767Y0153366D02*
X0132417Y0153366D01*
X0132324Y0153298D02*
X0132908Y0153722D01*
X0133418Y0154232D01*
X0133842Y0154816D01*
X0134170Y0155459D01*
X0134393Y0156145D01*
X0134505Y0156858D01*
X0134505Y0159819D01*
X0134505Y0162780D01*
X0134393Y0163492D01*
X0134170Y0164179D01*
X0133842Y0164822D01*
X0133418Y0165405D01*
X0132908Y0165916D01*
X0132324Y0166340D01*
X0131681Y0166667D01*
X0130995Y0166890D01*
X0130282Y0167003D01*
X0129921Y0167003D01*
X0129560Y0167003D01*
X0128848Y0166890D01*
X0128162Y0166667D01*
X0127519Y0166340D01*
X0126935Y0165916D01*
X0126425Y0165405D01*
X0126000Y0164822D01*
X0125673Y0164179D01*
X0125450Y0163492D01*
X0125337Y0162780D01*
X0125337Y0159819D01*
X0129921Y0159819D01*
X0129921Y0159819D01*
X0129921Y0167003D01*
X0129921Y0159819D01*
X0129921Y0159819D01*
X0125337Y0159819D01*
X0125337Y0156858D01*
X0125450Y0156145D01*
X0125673Y0155459D01*
X0126000Y0154816D01*
X0126425Y0154232D01*
X0126935Y0153722D01*
X0127519Y0153298D01*
X0128162Y0152971D01*
X0128848Y0152748D01*
X0129560Y0152635D01*
X0129921Y0152635D01*
X0129921Y0159819D01*
X0129921Y0159819D01*
X0134505Y0159819D01*
X0129921Y0159819D01*
X0129921Y0159819D01*
X0129921Y0152635D01*
X0130282Y0152635D01*
X0130995Y0152748D01*
X0131681Y0152971D01*
X0132324Y0153298D01*
X0129921Y0153366D02*
X0129921Y0153366D01*
X0129921Y0155333D02*
X0129921Y0155333D01*
X0129921Y0157300D02*
X0129921Y0157300D01*
X0129921Y0159267D02*
X0129921Y0159267D01*
X0129921Y0161234D02*
X0129921Y0161234D01*
X0129921Y0163201D02*
X0129921Y0163201D01*
X0129921Y0165168D02*
X0129921Y0165168D01*
X0126252Y0165168D02*
X0123373Y0165168D01*
X0124305Y0163201D02*
X0125404Y0163201D01*
X0125337Y0161234D02*
X0124305Y0161234D01*
X0124305Y0159267D02*
X0125337Y0159267D01*
X0125337Y0157300D02*
X0124305Y0157300D01*
X0123885Y0155333D02*
X0125737Y0155333D01*
X0127426Y0153366D02*
X0122075Y0153366D01*
X0117767Y0153366D02*
X0112603Y0153366D01*
X0113885Y0155333D02*
X0115957Y0155333D01*
X0115537Y0157300D02*
X0114305Y0157300D01*
X0114305Y0159267D02*
X0115537Y0159267D01*
X0115244Y0167135D02*
X0221194Y0167135D01*
X0223161Y0169102D02*
X0113270Y0169102D01*
X0133591Y0165168D02*
X0136470Y0165168D01*
X0135537Y0163201D02*
X0134439Y0163201D01*
X0134505Y0161234D02*
X0135537Y0161234D01*
X0135537Y0159267D02*
X0134505Y0159267D01*
X0134505Y0157300D02*
X0135537Y0157300D01*
X0135957Y0155333D02*
X0134105Y0155333D01*
X0143885Y0155333D02*
X0145957Y0155333D01*
X0145537Y0157300D02*
X0144305Y0157300D01*
X0144305Y0159267D02*
X0145537Y0159267D01*
X0145537Y0161234D02*
X0144305Y0161234D01*
X0144305Y0163201D02*
X0145537Y0163201D01*
X0146470Y0165168D02*
X0143373Y0165168D01*
X0153373Y0165168D02*
X0156470Y0165168D01*
X0155537Y0163201D02*
X0154305Y0163201D01*
X0154305Y0161234D02*
X0155537Y0161234D01*
X0155537Y0159267D02*
X0154305Y0159267D01*
X0154305Y0157300D02*
X0155537Y0157300D01*
X0155957Y0155333D02*
X0153885Y0155333D01*
X0163885Y0155333D02*
X0165957Y0155333D01*
X0165537Y0157300D02*
X0164305Y0157300D01*
X0164305Y0159267D02*
X0165537Y0159267D01*
X0165537Y0161234D02*
X0164305Y0161234D01*
X0164305Y0163201D02*
X0165537Y0163201D01*
X0166470Y0165168D02*
X0163373Y0165168D01*
X0173373Y0165168D02*
X0176470Y0165168D01*
X0175537Y0163201D02*
X0174305Y0163201D01*
X0174305Y0161234D02*
X0175537Y0161234D01*
X0175537Y0159267D02*
X0174305Y0159267D01*
X0174305Y0157300D02*
X0175537Y0157300D01*
X0175957Y0155333D02*
X0173885Y0155333D01*
X0193885Y0155333D02*
X0195957Y0155333D01*
X0195537Y0157300D02*
X0194305Y0157300D01*
X0194305Y0159267D02*
X0195537Y0159267D01*
X0195537Y0161234D02*
X0194305Y0161234D01*
X0194305Y0163201D02*
X0195537Y0163201D01*
X0196470Y0165168D02*
X0193373Y0165168D01*
X0203373Y0165168D02*
X0219227Y0165168D01*
X0217259Y0163201D02*
X0204305Y0163201D01*
X0225815Y0153647D02*
X0227634Y0152893D01*
X0229177Y0151351D01*
X0229528Y0150504D01*
X0229878Y0151351D01*
X0231421Y0152893D01*
X0233437Y0153728D01*
X0235618Y0153728D01*
X0237576Y0152917D01*
X0248828Y0164169D01*
X0249555Y0164896D01*
X0250505Y0165290D01*
X0322896Y0165290D01*
X0322896Y0169080D01*
X0323537Y0169721D01*
X0241889Y0169721D01*
X0225815Y0153647D01*
X0226494Y0153366D02*
X0232561Y0153366D01*
X0229926Y0151399D02*
X0229129Y0151399D01*
X0227501Y0155333D02*
X0239991Y0155333D01*
X0238024Y0153366D02*
X0236494Y0153366D01*
X0241958Y0157300D02*
X0229468Y0157300D01*
X0231435Y0159267D02*
X0243925Y0159267D01*
X0245892Y0161234D02*
X0233402Y0161234D01*
X0235369Y0163201D02*
X0247859Y0163201D01*
X0250210Y0165168D02*
X0237336Y0165168D01*
X0239303Y0167135D02*
X0322896Y0167135D01*
X0322918Y0169102D02*
X0241270Y0169102D01*
X0251235Y0159267D02*
X0322800Y0159267D01*
X0322696Y0157300D02*
X0249268Y0157300D01*
X0247301Y0155333D02*
X0322696Y0155333D01*
X0324530Y0153366D02*
X0246494Y0153366D01*
X0260778Y0186805D02*
X0306864Y0186805D01*
X0308831Y0188772D02*
X0261265Y0188772D01*
X0260961Y0190739D02*
X0310798Y0190739D01*
X0312765Y0192706D02*
X0259657Y0192706D01*
X0228720Y0218277D02*
X0228438Y0218277D01*
X0228488Y0220244D02*
X0228720Y0220244D01*
X0228720Y0222211D02*
X0228488Y0222211D01*
X0228488Y0224178D02*
X0228720Y0224178D01*
X0228806Y0226145D02*
X0228366Y0226145D01*
X0227392Y0228112D02*
X0229866Y0228112D01*
X0223520Y0228112D02*
X0223488Y0228112D01*
X0223488Y0229968D02*
X0223112Y0229968D01*
X0222337Y0229846D01*
X0221591Y0229603D01*
X0220892Y0229247D01*
X0220257Y0228786D01*
X0219702Y0228231D01*
X0219241Y0227597D01*
X0218885Y0226898D01*
X0218642Y0226151D01*
X0218520Y0225377D01*
X0218520Y0222000D01*
X0223488Y0222000D01*
X0223488Y0229968D01*
X0223488Y0226145D02*
X0223520Y0226145D01*
X0223488Y0224178D02*
X0223520Y0224178D01*
X0223488Y0222211D02*
X0223520Y0222211D01*
X0218520Y0222211D02*
X0218488Y0222211D01*
X0218488Y0220244D02*
X0218520Y0220244D01*
X0218570Y0218277D02*
X0218438Y0218277D01*
X0213520Y0222211D02*
X0213488Y0222211D01*
X0213488Y0224178D02*
X0213520Y0224178D01*
X0213488Y0226145D02*
X0213520Y0226145D01*
X0213488Y0228112D02*
X0213520Y0228112D01*
X0217392Y0228112D02*
X0219616Y0228112D01*
X0218641Y0226145D02*
X0218366Y0226145D01*
X0218488Y0224178D02*
X0218520Y0224178D01*
X0136375Y0208442D02*
X0135263Y0208442D01*
X0128582Y0212376D02*
X0118944Y0212376D01*
X0120911Y0214343D02*
X0130549Y0214343D01*
X0131466Y0216310D02*
X0129052Y0216310D01*
X0130077Y0218277D02*
X0130632Y0218277D01*
X0130570Y0220244D02*
X0130139Y0220244D01*
X0130139Y0222211D02*
X0130570Y0222211D01*
X0120570Y0222211D02*
X0120139Y0222211D01*
X0120139Y0224178D02*
X0120570Y0224178D01*
X0120570Y0226145D02*
X0120139Y0226145D01*
X0119386Y0228112D02*
X0121323Y0228112D01*
X0111323Y0228112D02*
X0109529Y0228112D01*
X0110279Y0226145D02*
X0110570Y0226145D01*
X0110570Y0224178D02*
X0110339Y0224178D01*
X0110339Y0222211D02*
X0110570Y0222211D01*
X0105370Y0224178D02*
X0105339Y0224178D01*
X0105339Y0226145D02*
X0105370Y0226145D01*
X0105339Y0228112D02*
X0105370Y0228112D01*
X0077435Y0171069D02*
X0073003Y0171069D01*
X0073003Y0169102D02*
X0077435Y0169102D01*
X0077435Y0167135D02*
X0073003Y0167135D01*
X0073373Y0165168D02*
X0076470Y0165168D01*
X0075537Y0163201D02*
X0074305Y0163201D01*
X0074305Y0161234D02*
X0075537Y0161234D01*
X0075537Y0159267D02*
X0074305Y0159267D01*
X0074305Y0157300D02*
X0075537Y0157300D01*
X0075957Y0155333D02*
X0073885Y0155333D01*
X0072075Y0153366D02*
X0077767Y0153366D01*
X0082075Y0153366D02*
X0087767Y0153366D01*
X0085957Y0155333D02*
X0083885Y0155333D01*
X0084305Y0157300D02*
X0085537Y0157300D01*
X0085537Y0159267D02*
X0084305Y0159267D01*
X0084305Y0161234D02*
X0085537Y0161234D01*
X0085537Y0163201D02*
X0084305Y0163201D01*
X0083373Y0165168D02*
X0086470Y0165168D01*
X0092075Y0153366D02*
X0094104Y0153366D01*
X0094155Y0153315D02*
X0094155Y0153315D01*
X0067767Y0153366D02*
X0045581Y0153366D01*
X0047548Y0155333D02*
X0065957Y0155333D01*
X0065537Y0157300D02*
X0048167Y0157300D01*
X0035688Y0137630D02*
X0026136Y0137630D01*
X0025214Y0135663D02*
X0033721Y0135663D01*
X0031754Y0133696D02*
X0023629Y0133696D01*
X0025534Y0131729D02*
X0029787Y0131729D01*
X0027820Y0129762D02*
X0026232Y0129762D01*
X0017867Y0133696D02*
X0010378Y0133696D01*
X0010378Y0135663D02*
X0016282Y0135663D01*
X0015360Y0137630D02*
X0010378Y0137630D01*
X0010378Y0139597D02*
X0015264Y0139597D01*
X0015893Y0141564D02*
X0010378Y0141564D01*
X0010378Y0143531D02*
X0017570Y0143531D01*
X0016232Y0145498D02*
X0010378Y0145498D01*
X0010378Y0147465D02*
X0015255Y0147465D01*
X0015069Y0149432D02*
X0010378Y0149432D01*
X0010378Y0151399D02*
X0015615Y0151399D01*
X0017151Y0153366D02*
X0010378Y0153366D01*
X0020732Y0153366D02*
X0020764Y0153366D01*
X0020732Y0151399D02*
X0020764Y0151399D01*
X0020732Y0149432D02*
X0020764Y0149432D01*
X0015962Y0131729D02*
X0010378Y0131729D01*
X0010378Y0129762D02*
X0015264Y0129762D01*
X0015292Y0127794D02*
X0010378Y0127794D01*
X0010378Y0125827D02*
X0016117Y0125827D01*
X0018265Y0123860D02*
X0010378Y0123860D01*
X0010378Y0121893D02*
X0016030Y0121893D01*
X0015264Y0119926D02*
X0010378Y0119926D01*
X0010378Y0117959D02*
X0015264Y0117959D01*
X0016038Y0115992D02*
X0010378Y0115992D01*
X0010378Y0114025D02*
X0018313Y0114025D01*
X0016098Y0112058D02*
X0010378Y0112058D01*
X0010378Y0110091D02*
X0015284Y0110091D01*
X0015264Y0108124D02*
X0010378Y0108124D01*
X0010378Y0106157D02*
X0015970Y0106157D01*
X0017915Y0104190D02*
X0010378Y0104190D01*
X0010378Y0102223D02*
X0016263Y0102223D01*
X0015352Y0100256D02*
X0010378Y0100256D01*
X0010378Y0098289D02*
X0015264Y0098289D01*
X0015902Y0096322D02*
X0010378Y0096322D01*
X0010378Y0094355D02*
X0017590Y0094355D01*
X0023906Y0094355D02*
X0073235Y0094355D01*
X0073235Y0092388D02*
X0010378Y0092388D01*
X0010378Y0090421D02*
X0073235Y0090421D01*
X0073235Y0088454D02*
X0010378Y0088454D01*
X0010378Y0086487D02*
X0073235Y0086487D01*
X0067265Y0084520D02*
X0056908Y0084520D01*
X0057919Y0082553D02*
X0066255Y0082553D01*
X0066202Y0080586D02*
X0057971Y0080586D01*
X0057971Y0078619D02*
X0066202Y0078619D01*
X0066202Y0076652D02*
X0057971Y0076652D01*
X0057971Y0074685D02*
X0066202Y0074685D01*
X0066978Y0072718D02*
X0057195Y0072718D01*
X0054282Y0070751D02*
X0069891Y0070751D01*
X0072082Y0070751D02*
X0073235Y0070751D01*
X0073235Y0068784D02*
X0055048Y0068784D01*
X0057015Y0066817D02*
X0073235Y0066817D01*
X0073235Y0064850D02*
X0058982Y0064850D01*
X0060949Y0062883D02*
X0073235Y0062883D01*
X0073235Y0060916D02*
X0062916Y0060916D01*
X0064883Y0058949D02*
X0073235Y0058949D01*
X0073235Y0056982D02*
X0066850Y0056982D01*
X0068817Y0055015D02*
X0073655Y0055015D01*
X0075622Y0053048D02*
X0070784Y0053048D01*
X0072751Y0051081D02*
X0077589Y0051081D01*
X0079556Y0049114D02*
X0074781Y0049114D01*
X0076517Y0047147D02*
X0081523Y0047147D01*
X0083490Y0045180D02*
X0077340Y0045180D01*
X0077340Y0043213D02*
X0085457Y0043213D01*
X0087424Y0041246D02*
X0076060Y0041246D01*
X0075972Y0039279D02*
X0089391Y0039279D01*
X0091358Y0037312D02*
X0075972Y0037312D01*
X0075972Y0035345D02*
X0093325Y0035345D01*
X0088555Y0027477D02*
X0121283Y0027477D01*
X0123250Y0029444D02*
X0075972Y0029444D01*
X0075972Y0031411D02*
X0125217Y0031411D01*
X0127184Y0033378D02*
X0075972Y0033378D01*
X0068466Y0033378D02*
X0010378Y0033378D01*
X0010378Y0035345D02*
X0068466Y0035345D01*
X0068466Y0037312D02*
X0010378Y0037312D01*
X0010378Y0039279D02*
X0068466Y0039279D01*
X0068466Y0041246D02*
X0046342Y0041246D01*
X0047540Y0042443D02*
X0044738Y0039641D01*
X0042756Y0039641D01*
X0042756Y0044425D01*
X0042756Y0044425D01*
X0042756Y0044425D01*
X0047540Y0044425D01*
X0047540Y0042443D01*
X0047540Y0043213D02*
X0068172Y0043213D01*
X0068037Y0045180D02*
X0047540Y0045180D01*
X0047540Y0044425D02*
X0047540Y0046407D01*
X0044738Y0049209D01*
X0042756Y0049209D01*
X0042756Y0044425D01*
X0042756Y0039641D01*
X0040774Y0039641D01*
X0037972Y0042443D01*
X0037972Y0044425D01*
X0042756Y0044425D01*
X0047540Y0044425D01*
X0046800Y0047147D02*
X0066070Y0047147D01*
X0064103Y0049114D02*
X0044833Y0049114D01*
X0042756Y0049114D02*
X0042756Y0049114D01*
X0042756Y0049209D02*
X0040774Y0049209D01*
X0037972Y0046407D01*
X0037972Y0044425D01*
X0042756Y0044425D01*
X0042756Y0044425D01*
X0042756Y0044425D01*
X0042756Y0049209D01*
X0042756Y0047147D02*
X0042756Y0047147D01*
X0042756Y0045180D02*
X0042756Y0045180D01*
X0042756Y0043213D02*
X0042756Y0043213D01*
X0042756Y0041246D02*
X0042756Y0041246D01*
X0039169Y0041246D02*
X0010378Y0041246D01*
X0010378Y0043213D02*
X0037972Y0043213D01*
X0037972Y0045180D02*
X0010378Y0045180D01*
X0010378Y0047147D02*
X0038712Y0047147D01*
X0040679Y0049114D02*
X0028473Y0049114D01*
X0028334Y0049012D02*
X0029057Y0049538D01*
X0029690Y0050171D01*
X0030216Y0050895D01*
X0030622Y0051692D01*
X0030899Y0052543D01*
X0031039Y0053427D01*
X0031039Y0053874D01*
X0031039Y0054321D01*
X0030899Y0055205D01*
X0030622Y0056056D01*
X0030216Y0056853D01*
X0029690Y0057577D01*
X0029057Y0058210D01*
X0028334Y0058736D01*
X0027536Y0059142D01*
X0026685Y0059418D01*
X0025802Y0059558D01*
X0025354Y0059558D01*
X0025354Y0053874D01*
X0025354Y0053874D01*
X0025354Y0053874D01*
X0025354Y0048190D01*
X0025802Y0048190D01*
X0026685Y0048330D01*
X0027536Y0048606D01*
X0028334Y0049012D01*
X0030311Y0051081D02*
X0062136Y0051081D01*
X0060169Y0053048D02*
X0030979Y0053048D01*
X0031039Y0053874D02*
X0025354Y0053874D01*
X0031039Y0053874D01*
X0030929Y0055015D02*
X0058202Y0055015D01*
X0056235Y0056982D02*
X0030122Y0056982D01*
X0027915Y0058949D02*
X0054268Y0058949D01*
X0052301Y0060916D02*
X0015403Y0060916D01*
X0015403Y0062883D02*
X0050334Y0062883D01*
X0048367Y0064850D02*
X0015403Y0064850D01*
X0015403Y0066817D02*
X0046400Y0066817D01*
X0044433Y0068784D02*
X0015403Y0068784D01*
X0015403Y0070751D02*
X0042466Y0070751D01*
X0040499Y0072718D02*
X0015403Y0072718D01*
X0015830Y0074685D02*
X0039052Y0074685D01*
X0038057Y0076652D02*
X0016825Y0076652D01*
X0016825Y0078619D02*
X0038057Y0078619D01*
X0039331Y0080586D02*
X0015551Y0080586D01*
X0010378Y0082553D02*
X0048455Y0082553D01*
X0048402Y0080586D02*
X0045551Y0080586D01*
X0046825Y0078619D02*
X0048402Y0078619D01*
X0048402Y0076652D02*
X0047180Y0076652D01*
X0049465Y0084520D02*
X0010378Y0084520D01*
X0025595Y0096322D02*
X0051686Y0096322D01*
X0052019Y0096214D02*
X0051273Y0096456D01*
X0050574Y0096813D01*
X0049940Y0097274D01*
X0049385Y0097829D01*
X0048924Y0098463D01*
X0048568Y0099162D01*
X0048325Y0099908D01*
X0048202Y0100683D01*
X0048202Y0104060D01*
X0053171Y0104060D01*
X0053171Y0104091D01*
X0048202Y0104091D01*
X0048202Y0107468D01*
X0048325Y0108243D01*
X0048568Y0108989D01*
X0048924Y0109688D01*
X0049385Y0110323D01*
X0049940Y0110877D01*
X0050574Y0111338D01*
X0051273Y0111695D01*
X0052019Y0111937D01*
X0052794Y0112060D01*
X0053171Y0112060D01*
X0053171Y0104091D01*
X0053202Y0104091D01*
X0053202Y0112060D01*
X0053579Y0112060D01*
X0054354Y0111937D01*
X0055100Y0111695D01*
X0055799Y0111338D01*
X0056434Y0110877D01*
X0056988Y0110323D01*
X0057450Y0109688D01*
X0057806Y0108989D01*
X0058048Y0108243D01*
X0058171Y0107468D01*
X0058171Y0104091D01*
X0053202Y0104091D01*
X0053202Y0104060D01*
X0053202Y0096091D01*
X0053579Y0096091D01*
X0054354Y0096214D01*
X0055100Y0096456D01*
X0055799Y0096813D01*
X0056434Y0097274D01*
X0056988Y0097829D01*
X0057450Y0098463D01*
X0057806Y0099162D01*
X0058048Y0099908D01*
X0058171Y0100683D01*
X0058171Y0104060D01*
X0053202Y0104060D01*
X0053171Y0104060D01*
X0053171Y0096091D01*
X0052794Y0096091D01*
X0052019Y0096214D01*
X0053171Y0096322D02*
X0053202Y0096322D01*
X0054687Y0096322D02*
X0069960Y0096322D01*
X0072013Y0096322D02*
X0073235Y0096322D01*
X0067007Y0098289D02*
X0057323Y0098289D01*
X0058103Y0100256D02*
X0066202Y0100256D01*
X0066202Y0102223D02*
X0058171Y0102223D01*
X0058171Y0104190D02*
X0066202Y0104190D01*
X0066202Y0106157D02*
X0058171Y0106157D01*
X0058067Y0108124D02*
X0066243Y0108124D01*
X0067236Y0110091D02*
X0057156Y0110091D01*
X0053202Y0110091D02*
X0053171Y0110091D01*
X0053171Y0108124D02*
X0053202Y0108124D01*
X0053171Y0106157D02*
X0053202Y0106157D01*
X0053171Y0104190D02*
X0053202Y0104190D01*
X0053171Y0102223D02*
X0053202Y0102223D01*
X0053171Y0100256D02*
X0053202Y0100256D01*
X0053171Y0098289D02*
X0053202Y0098289D01*
X0049050Y0098289D02*
X0026232Y0098289D01*
X0026144Y0100256D02*
X0048270Y0100256D01*
X0048202Y0102223D02*
X0025233Y0102223D01*
X0023581Y0104190D02*
X0048202Y0104190D01*
X0048202Y0106157D02*
X0025526Y0106157D01*
X0026232Y0108124D02*
X0048306Y0108124D01*
X0049217Y0110091D02*
X0026213Y0110091D01*
X0027626Y0112058D02*
X0052785Y0112058D01*
X0053171Y0112058D02*
X0053202Y0112058D01*
X0053588Y0112058D02*
X0069035Y0112058D01*
X0068609Y0114025D02*
X0045328Y0114025D01*
X0046353Y0115992D02*
X0067584Y0115992D01*
X0067584Y0117959D02*
X0046353Y0117959D01*
X0038609Y0114025D02*
X0029593Y0114025D01*
X0031560Y0115992D02*
X0037584Y0115992D01*
X0037584Y0117959D02*
X0033527Y0117959D01*
X0078403Y0094355D02*
X0091715Y0094355D01*
X0090573Y0092388D02*
X0078403Y0092388D01*
X0078403Y0090421D02*
X0090573Y0090421D01*
X0091535Y0088454D02*
X0078403Y0088454D01*
X0102403Y0086487D02*
X0107435Y0086487D01*
X0107435Y0084520D02*
X0102403Y0084520D01*
X0102403Y0082553D02*
X0107435Y0082553D01*
X0107435Y0080586D02*
X0102403Y0080586D01*
X0102403Y0078619D02*
X0107435Y0078619D01*
X0107435Y0076652D02*
X0102403Y0076652D01*
X0102403Y0074685D02*
X0107435Y0074685D01*
X0107435Y0072718D02*
X0102403Y0072718D01*
X0102403Y0070751D02*
X0107435Y0070751D01*
X0107435Y0068784D02*
X0102403Y0068784D01*
X0102403Y0066817D02*
X0107076Y0066817D01*
X0102728Y0064850D02*
X0102096Y0064850D01*
X0101009Y0062883D02*
X0100251Y0062883D01*
X0099542Y0060916D02*
X0101009Y0060916D01*
X0101559Y0058949D02*
X0098992Y0058949D01*
X0091660Y0051081D02*
X0084898Y0051081D01*
X0086865Y0049114D02*
X0091009Y0049114D01*
X0091009Y0047147D02*
X0088832Y0047147D01*
X0090799Y0045180D02*
X0091009Y0045180D01*
X0068466Y0031411D02*
X0010378Y0031411D01*
X0010378Y0029444D02*
X0068466Y0029444D01*
X0068466Y0027477D02*
X0010378Y0027477D01*
X0010378Y0025510D02*
X0066516Y0025510D01*
X0062592Y0023543D02*
X0057114Y0023543D01*
X0054622Y0023543D02*
X0054591Y0023543D01*
X0054591Y0021576D02*
X0054622Y0021576D01*
X0054591Y0019609D02*
X0054622Y0019609D01*
X0054591Y0017642D02*
X0054622Y0017642D01*
X0054591Y0015675D02*
X0054622Y0015675D01*
X0054591Y0013708D02*
X0054622Y0013708D01*
X0057762Y0013708D02*
X0061703Y0013708D01*
X0059816Y0015675D02*
X0059576Y0015675D01*
X0059355Y0021576D02*
X0059985Y0021576D01*
X0052098Y0023543D02*
X0046621Y0023543D01*
X0049227Y0021576D02*
X0049858Y0021576D01*
X0049636Y0015675D02*
X0049397Y0015675D01*
X0047510Y0013708D02*
X0051451Y0013708D01*
X0041703Y0013708D02*
X0027679Y0013708D01*
X0027701Y0011741D02*
X0091352Y0011741D01*
X0091009Y0013708D02*
X0067510Y0013708D01*
X0069397Y0015675D02*
X0089743Y0015675D01*
X0087776Y0017642D02*
X0070091Y0017642D01*
X0071229Y0019609D02*
X0085809Y0019609D01*
X0090522Y0025510D02*
X0119316Y0025510D01*
X0117349Y0023543D02*
X0092489Y0023543D01*
X0098658Y0021576D02*
X0102130Y0021576D01*
X0108658Y0021576D02*
X0112130Y0021576D01*
X0120095Y0015675D02*
X0128324Y0015675D01*
X0128324Y0017642D02*
X0122062Y0017642D01*
X0124029Y0019609D02*
X0128324Y0019609D01*
X0128324Y0020616D02*
X0128324Y0012713D01*
X0129052Y0010955D01*
X0130398Y0009609D01*
X0132156Y0008880D01*
X0134060Y0008880D01*
X0135818Y0009609D01*
X0137164Y0010955D01*
X0137892Y0012713D01*
X0137892Y0020616D01*
X0137164Y0022375D01*
X0135818Y0023720D01*
X0134060Y0024449D01*
X0132156Y0024449D01*
X0130398Y0023720D01*
X0129052Y0022375D01*
X0128324Y0020616D01*
X0128721Y0021576D02*
X0125996Y0021576D01*
X0127963Y0023543D02*
X0130220Y0023543D01*
X0129930Y0025510D02*
X0148308Y0025510D01*
X0148020Y0023543D02*
X0135996Y0023543D01*
X0137495Y0021576D02*
X0146521Y0021576D01*
X0146124Y0019609D02*
X0137892Y0019609D01*
X0137892Y0017642D02*
X0146124Y0017642D01*
X0146124Y0015675D02*
X0137892Y0015675D01*
X0137892Y0013708D02*
X0146124Y0013708D01*
X0146526Y0011741D02*
X0137489Y0011741D01*
X0135983Y0009774D02*
X0148033Y0009774D01*
X0153783Y0009774D02*
X0184749Y0009774D01*
X0184749Y0011741D02*
X0173981Y0011741D01*
X0176691Y0013708D02*
X0184749Y0013708D01*
X0184749Y0013045D02*
X0190317Y0013045D01*
X0190317Y0022313D01*
X0189986Y0022313D01*
X0189102Y0022173D01*
X0188251Y0021897D01*
X0187454Y0021491D01*
X0186730Y0020965D01*
X0186097Y0020332D01*
X0185571Y0019608D01*
X0185165Y0018811D01*
X0184889Y0017960D01*
X0184749Y0017076D01*
X0184749Y0013045D01*
X0184749Y0015675D02*
X0177345Y0015675D01*
X0177124Y0017642D02*
X0184838Y0017642D01*
X0185572Y0019609D02*
X0175832Y0019609D01*
X0187621Y0021576D02*
X0162856Y0021576D01*
X0163332Y0023543D02*
X0160889Y0023543D01*
X0162576Y0025510D02*
X0158922Y0025510D01*
X0156955Y0027477D02*
X0162729Y0027477D01*
X0162826Y0029444D02*
X0154988Y0029444D01*
X0153021Y0031411D02*
X0160859Y0031411D01*
X0158892Y0033378D02*
X0151054Y0033378D01*
X0153754Y0035345D02*
X0156925Y0035345D01*
X0146538Y0037312D02*
X0137477Y0037312D01*
X0137892Y0039279D02*
X0146124Y0039279D01*
X0146124Y0041246D02*
X0137892Y0041246D01*
X0137892Y0043213D02*
X0146124Y0043213D01*
X0146124Y0045180D02*
X0137892Y0045180D01*
X0137507Y0047147D02*
X0146509Y0047147D01*
X0147991Y0049114D02*
X0136024Y0049114D01*
X0136449Y0051081D02*
X0156140Y0051081D01*
X0155773Y0053048D02*
X0137203Y0053048D01*
X0137383Y0055015D02*
X0155773Y0055015D01*
X0156278Y0056982D02*
X0139350Y0056982D01*
X0134008Y0058949D02*
X0132353Y0058949D01*
X0130158Y0058949D02*
X0130157Y0058949D01*
X0130157Y0056982D02*
X0130158Y0056982D01*
X0130157Y0055015D02*
X0130158Y0055015D01*
X0130157Y0054661D02*
X0130157Y0054661D01*
X0125573Y0054661D01*
X0130157Y0054661D01*
X0127255Y0051081D02*
X0119128Y0051081D01*
X0119778Y0049114D02*
X0126573Y0049114D01*
X0124606Y0047147D02*
X0119778Y0047147D01*
X0119778Y0045180D02*
X0122639Y0045180D01*
X0121235Y0043213D02*
X0119778Y0043213D01*
X0119305Y0041246D02*
X0119231Y0041246D01*
X0122680Y0037312D02*
X0128738Y0037312D01*
X0129066Y0035345D02*
X0120713Y0035345D01*
X0120610Y0035242D02*
X0120610Y0035242D01*
X0124647Y0039279D02*
X0128324Y0039279D01*
X0128324Y0041246D02*
X0126260Y0041246D01*
X0127981Y0043213D02*
X0128324Y0043213D01*
X0125573Y0053048D02*
X0118003Y0053048D01*
X0118003Y0055015D02*
X0125573Y0055015D01*
X0125995Y0056982D02*
X0118003Y0056982D01*
X0119070Y0058949D02*
X0127962Y0058949D01*
X0135975Y0060916D02*
X0119620Y0060916D01*
X0119620Y0062883D02*
X0137942Y0062883D01*
X0139909Y0064850D02*
X0117901Y0064850D01*
X0105394Y0086731D02*
X0105394Y0091315D01*
X0105394Y0091315D01*
X0105394Y0086731D01*
X0105394Y0088454D02*
X0105394Y0088454D01*
X0105394Y0090421D02*
X0105394Y0090421D01*
X0115236Y0090421D02*
X0115236Y0090421D01*
X0115236Y0088454D02*
X0115236Y0088454D01*
X0115236Y0092388D02*
X0115236Y0092388D01*
X0115236Y0094355D02*
X0115236Y0094355D01*
X0087079Y0123860D02*
X0082763Y0123860D01*
X0084090Y0125827D02*
X0085752Y0125827D01*
X0085537Y0127794D02*
X0084305Y0127794D01*
X0084305Y0129762D02*
X0085308Y0129762D01*
X0025354Y0058949D02*
X0025354Y0058949D01*
X0025354Y0056982D02*
X0025354Y0056982D01*
X0025354Y0055015D02*
X0025354Y0055015D01*
X0025354Y0053874D02*
X0025354Y0053874D01*
X0025354Y0053048D02*
X0025354Y0053048D01*
X0025354Y0051081D02*
X0025354Y0051081D01*
X0025354Y0049114D02*
X0025354Y0049114D01*
X0022235Y0049114D02*
X0018193Y0049114D01*
X0020133Y0051081D02*
X0020398Y0051081D01*
X0020586Y0056982D02*
X0020002Y0056982D01*
X0017433Y0058949D02*
X0022794Y0058949D01*
X0012515Y0049114D02*
X0010378Y0049114D01*
X0010378Y0051081D02*
X0010575Y0051081D01*
X0010378Y0023543D02*
X0042592Y0023543D01*
X0039985Y0021576D02*
X0022644Y0021576D01*
X0024908Y0019609D02*
X0039154Y0019609D01*
X0039122Y0017642D02*
X0026271Y0017642D01*
X0027152Y0015675D02*
X0039816Y0015675D01*
X0027464Y0009774D02*
X0092859Y0009774D01*
X0097928Y0009774D02*
X0102859Y0009774D01*
X0101352Y0011741D02*
X0099436Y0011741D01*
X0107928Y0009774D02*
X0112859Y0009774D01*
X0111352Y0011741D02*
X0109436Y0011741D01*
X0117928Y0009774D02*
X0130233Y0009774D01*
X0128726Y0011741D02*
X0119436Y0011741D01*
X0119778Y0013708D02*
X0128324Y0013708D01*
X0131897Y0027477D02*
X0146340Y0027477D01*
X0155692Y0017642D02*
X0156176Y0017642D01*
X0155692Y0015675D02*
X0158143Y0015675D01*
X0160110Y0013708D02*
X0155692Y0013708D01*
X0155289Y0011741D02*
X0165940Y0011741D01*
X0184919Y0007807D02*
X0026937Y0007807D01*
X0073196Y0021576D02*
X0073217Y0021576D01*
X0153824Y0049114D02*
X0154173Y0049114D01*
X0190317Y0021576D02*
X0190549Y0021576D01*
X0190549Y0019609D02*
X0190317Y0019609D01*
X0190317Y0017642D02*
X0190549Y0017642D01*
X0190549Y0015675D02*
X0190317Y0015675D01*
X0190317Y0013708D02*
X0190549Y0013708D01*
X0195294Y0019609D02*
X0195731Y0019609D01*
X0198044Y0021576D02*
X0193246Y0021576D01*
X0202822Y0021576D02*
X0208044Y0021576D01*
X0205731Y0019609D02*
X0205135Y0019609D01*
X0237181Y0043213D02*
X0239712Y0043213D01*
X0242927Y0053048D02*
X0234679Y0053048D01*
X0234891Y0053202D02*
X0235357Y0053668D01*
X0235744Y0054201D01*
X0236043Y0054787D01*
X0236247Y0055414D01*
X0236350Y0056064D01*
X0236350Y0056394D01*
X0236350Y0056723D01*
X0236247Y0057374D01*
X0236043Y0058000D01*
X0235744Y0058587D01*
X0235357Y0059120D01*
X0234891Y0059585D01*
X0234358Y0059972D01*
X0233772Y0060271D01*
X0233145Y0060475D01*
X0232495Y0060578D01*
X0232165Y0060578D01*
X0232165Y0056394D01*
X0232165Y0056394D01*
X0236350Y0056394D01*
X0232165Y0056394D01*
X0232165Y0056394D01*
X0232165Y0052209D01*
X0232495Y0052209D01*
X0233145Y0052312D01*
X0233772Y0052516D01*
X0234358Y0052815D01*
X0234891Y0053202D01*
X0236117Y0055015D02*
X0246474Y0055015D01*
X0248441Y0056982D02*
X0236309Y0056982D01*
X0235481Y0058949D02*
X0250408Y0058949D01*
X0232165Y0058949D02*
X0232165Y0058949D01*
X0232165Y0056982D02*
X0232165Y0056982D01*
X0232165Y0055015D02*
X0232165Y0055015D01*
X0232165Y0053048D02*
X0232165Y0053048D01*
X0255113Y0035345D02*
X0279635Y0035345D01*
X0279635Y0037312D02*
X0257080Y0037312D01*
X0259047Y0039279D02*
X0279635Y0039279D01*
X0279635Y0041246D02*
X0261014Y0041246D01*
X0262981Y0043213D02*
X0279635Y0043213D01*
X0279635Y0045180D02*
X0264948Y0045180D01*
X0266915Y0047147D02*
X0279635Y0047147D01*
X0279635Y0049114D02*
X0268882Y0049114D01*
X0270849Y0051081D02*
X0279635Y0051081D01*
X0279635Y0053048D02*
X0272816Y0053048D01*
X0274783Y0055015D02*
X0279635Y0055015D01*
X0279635Y0056982D02*
X0276750Y0056982D01*
X0278717Y0058949D02*
X0279635Y0058949D01*
X0279635Y0059867D02*
X0279635Y0033020D01*
X0279635Y0031991D01*
X0280028Y0031042D01*
X0289069Y0022000D01*
X0287326Y0021278D01*
X0285784Y0019736D01*
X0285433Y0018889D01*
X0285082Y0019736D01*
X0283540Y0021278D01*
X0281524Y0022113D01*
X0279342Y0022113D01*
X0277326Y0021278D01*
X0275784Y0019736D01*
X0275433Y0018889D01*
X0275082Y0019736D01*
X0273540Y0021278D01*
X0271524Y0022113D01*
X0269342Y0022113D01*
X0267326Y0021278D01*
X0265784Y0019736D01*
X0265433Y0018889D01*
X0265082Y0019736D01*
X0263540Y0021278D01*
X0261524Y0022113D01*
X0259342Y0022113D01*
X0257326Y0021278D01*
X0255784Y0019736D01*
X0255433Y0018889D01*
X0255082Y0019736D01*
X0253540Y0021278D01*
X0251524Y0022113D01*
X0249342Y0022113D01*
X0247326Y0021278D01*
X0245784Y0019736D01*
X0245433Y0018889D01*
X0245082Y0019736D01*
X0243540Y0021278D01*
X0241777Y0022009D01*
X0279635Y0059867D01*
X0284803Y0059904D02*
X0284803Y0062049D01*
X0286134Y0061498D01*
X0289172Y0061498D01*
X0290204Y0060466D01*
X0289606Y0060466D01*
X0286645Y0060466D01*
X0285933Y0060353D01*
X0285247Y0060130D01*
X0284803Y0059904D01*
X0284803Y0060916D02*
X0289754Y0060916D01*
X0289606Y0060466D02*
X0289606Y0055882D01*
X0289606Y0060466D01*
X0289606Y0058949D02*
X0289606Y0058949D01*
X0289606Y0056982D02*
X0289606Y0056982D01*
X0289606Y0055882D02*
X0289606Y0055882D01*
X0289606Y0055882D01*
X0289606Y0051298D01*
X0286645Y0051298D01*
X0285933Y0051411D01*
X0285247Y0051634D01*
X0284803Y0051859D01*
X0284803Y0033576D01*
X0297214Y0021166D01*
X0297326Y0021278D01*
X0299342Y0022113D01*
X0301524Y0022113D01*
X0303540Y0021278D01*
X0305082Y0019736D01*
X0305433Y0018889D01*
X0305784Y0019736D01*
X0307326Y0021278D01*
X0309342Y0022113D01*
X0311524Y0022113D01*
X0313540Y0021278D01*
X0315082Y0019736D01*
X0315433Y0018889D01*
X0315784Y0019736D01*
X0317326Y0021278D01*
X0317435Y0021323D01*
X0317435Y0033235D01*
X0296477Y0054192D01*
X0296455Y0054122D01*
X0296127Y0053479D01*
X0295703Y0052895D01*
X0295193Y0052385D01*
X0294609Y0051961D01*
X0293966Y0051634D01*
X0293280Y0051411D01*
X0292567Y0051298D01*
X0289606Y0051298D01*
X0289606Y0055882D01*
X0289606Y0055015D02*
X0289606Y0055015D01*
X0289606Y0053048D02*
X0289606Y0053048D01*
X0284803Y0051081D02*
X0299589Y0051081D01*
X0301556Y0049114D02*
X0284803Y0049114D01*
X0284803Y0047147D02*
X0303523Y0047147D01*
X0305490Y0045180D02*
X0284803Y0045180D01*
X0284803Y0043213D02*
X0307457Y0043213D01*
X0309424Y0041246D02*
X0284803Y0041246D01*
X0284803Y0039279D02*
X0311391Y0039279D01*
X0313358Y0037312D02*
X0284803Y0037312D01*
X0284803Y0035345D02*
X0315325Y0035345D01*
X0317292Y0033378D02*
X0285001Y0033378D01*
X0286968Y0031411D02*
X0317435Y0031411D01*
X0317435Y0029444D02*
X0288935Y0029444D01*
X0290902Y0027477D02*
X0317435Y0027477D01*
X0317435Y0025510D02*
X0292869Y0025510D01*
X0294836Y0023543D02*
X0317435Y0023543D01*
X0317435Y0021576D02*
X0312822Y0021576D01*
X0315135Y0019609D02*
X0315731Y0019609D01*
X0322822Y0021576D02*
X0328044Y0021576D01*
X0325731Y0019609D02*
X0325135Y0019609D01*
X0322603Y0023543D02*
X0347601Y0023543D01*
X0348035Y0025510D02*
X0322603Y0025510D01*
X0322603Y0027477D02*
X0348035Y0027477D01*
X0348035Y0029444D02*
X0322603Y0029444D01*
X0322603Y0031411D02*
X0348035Y0031411D01*
X0348035Y0033378D02*
X0322603Y0033378D01*
X0322386Y0035345D02*
X0348035Y0035345D01*
X0348035Y0037312D02*
X0320667Y0037312D01*
X0318700Y0039279D02*
X0348035Y0039279D01*
X0348035Y0041246D02*
X0316733Y0041246D01*
X0314766Y0043213D02*
X0348035Y0043213D01*
X0348035Y0045180D02*
X0312799Y0045180D01*
X0310832Y0047147D02*
X0348035Y0047147D01*
X0348035Y0049114D02*
X0308865Y0049114D01*
X0297622Y0053048D02*
X0295814Y0053048D01*
X0319263Y0060916D02*
X0345339Y0060916D01*
X0338787Y0062883D02*
X0325408Y0062883D01*
X0326524Y0064850D02*
X0336820Y0064850D01*
X0334853Y0066817D02*
X0326564Y0066817D01*
X0325504Y0068784D02*
X0332886Y0068784D01*
X0330919Y0070751D02*
X0309428Y0070751D01*
X0311395Y0068784D02*
X0313708Y0068784D01*
X0313970Y0072718D02*
X0307461Y0072718D01*
X0305494Y0074685D02*
X0312757Y0074685D01*
X0312622Y0076652D02*
X0303527Y0076652D01*
X0301560Y0078619D02*
X0313543Y0078619D01*
X0314135Y0082553D02*
X0299203Y0082553D01*
X0299203Y0084520D02*
X0312825Y0084520D01*
X0312622Y0086487D02*
X0299203Y0086487D01*
X0299106Y0088454D02*
X0313378Y0088454D01*
X0321084Y0080586D02*
X0299593Y0080586D01*
X0298185Y0074685D02*
X0296456Y0074685D01*
X0295243Y0072718D02*
X0300152Y0072718D01*
X0325243Y0072718D02*
X0328952Y0072718D01*
X0326985Y0074685D02*
X0326456Y0074685D01*
X0328393Y0080586D02*
X0362417Y0080586D01*
X0362417Y0082553D02*
X0357635Y0082553D01*
X0359602Y0084520D02*
X0362417Y0084520D01*
X0362417Y0086487D02*
X0359778Y0086487D01*
X0359652Y0088454D02*
X0362417Y0088454D01*
X0362417Y0090421D02*
X0357685Y0090421D01*
X0362417Y0092388D02*
X0324913Y0092388D01*
X0326319Y0094355D02*
X0362417Y0094355D01*
X0362417Y0096322D02*
X0326591Y0096322D01*
X0325955Y0098289D02*
X0362417Y0098289D01*
X0362417Y0100256D02*
X0323102Y0100256D01*
X0324748Y0102223D02*
X0362417Y0102223D01*
X0362417Y0104190D02*
X0326251Y0104190D01*
X0326591Y0106157D02*
X0362417Y0106157D01*
X0362417Y0108124D02*
X0326023Y0108124D01*
X0326259Y0110091D02*
X0362417Y0110091D01*
X0362417Y0112058D02*
X0328226Y0112058D01*
X0330193Y0114025D02*
X0351680Y0114025D01*
X0351009Y0114696D02*
X0353578Y0112128D01*
X0357210Y0112128D01*
X0359778Y0114696D01*
X0359778Y0118328D01*
X0357210Y0120896D01*
X0353578Y0120896D01*
X0351009Y0118328D01*
X0351009Y0114696D01*
X0351009Y0115992D02*
X0332160Y0115992D01*
X0334127Y0117959D02*
X0351009Y0117959D01*
X0352608Y0119926D02*
X0336094Y0119926D01*
X0338062Y0121893D02*
X0362417Y0121893D01*
X0362417Y0119926D02*
X0358179Y0119926D01*
X0359778Y0117959D02*
X0362417Y0117959D01*
X0362417Y0115992D02*
X0359778Y0115992D01*
X0359108Y0114025D02*
X0362417Y0114025D01*
X0362417Y0123860D02*
X0340029Y0123860D01*
X0341996Y0125827D02*
X0362417Y0125827D01*
X0362417Y0127794D02*
X0343963Y0127794D01*
X0345930Y0129762D02*
X0362417Y0129762D01*
X0362417Y0131729D02*
X0347897Y0131729D01*
X0349864Y0133696D02*
X0362417Y0133696D01*
X0362417Y0135663D02*
X0351701Y0135663D01*
X0352003Y0137630D02*
X0362417Y0137630D01*
X0362417Y0139597D02*
X0352003Y0139597D01*
X0352003Y0141564D02*
X0362417Y0141564D01*
X0362417Y0143531D02*
X0352003Y0143531D01*
X0352003Y0145498D02*
X0362417Y0145498D01*
X0362417Y0147465D02*
X0352003Y0147465D01*
X0352003Y0149432D02*
X0362417Y0149432D01*
X0362417Y0151399D02*
X0352003Y0151399D01*
X0352003Y0153366D02*
X0362417Y0153366D01*
X0362417Y0155333D02*
X0352003Y0155333D01*
X0352003Y0157300D02*
X0362417Y0157300D01*
X0362417Y0159267D02*
X0352003Y0159267D01*
X0352003Y0161234D02*
X0362417Y0161234D01*
X0362417Y0163201D02*
X0352003Y0163201D01*
X0352003Y0165168D02*
X0362417Y0165168D01*
X0362417Y0167135D02*
X0352003Y0167135D01*
X0352003Y0169102D02*
X0362417Y0169102D01*
X0362417Y0171069D02*
X0352003Y0171069D01*
X0352003Y0173036D02*
X0362417Y0173036D01*
X0362417Y0175003D02*
X0352003Y0175003D01*
X0352003Y0176970D02*
X0362417Y0176970D01*
X0362417Y0178937D02*
X0352003Y0178937D01*
X0352003Y0180904D02*
X0362417Y0180904D01*
X0362417Y0182871D02*
X0352003Y0182871D01*
X0352003Y0184838D02*
X0362417Y0184838D01*
X0362417Y0186805D02*
X0352003Y0186805D01*
X0352003Y0188772D02*
X0362417Y0188772D01*
X0362417Y0190739D02*
X0352003Y0190739D01*
X0352003Y0192706D02*
X0362417Y0192706D01*
X0362417Y0194673D02*
X0352003Y0194673D01*
X0352003Y0196640D02*
X0362417Y0196640D01*
X0362417Y0198607D02*
X0352003Y0198607D01*
X0352003Y0200574D02*
X0362417Y0200574D01*
X0362417Y0202541D02*
X0352003Y0202541D01*
X0352003Y0204508D02*
X0362417Y0204508D01*
X0362417Y0206475D02*
X0352003Y0206475D01*
X0352003Y0208442D02*
X0362417Y0208442D01*
X0362417Y0210409D02*
X0352003Y0210409D01*
X0352003Y0212376D02*
X0362417Y0212376D01*
X0362417Y0214343D02*
X0352003Y0214343D01*
X0352003Y0216310D02*
X0362417Y0216310D01*
X0362417Y0218277D02*
X0352003Y0218277D01*
X0334000Y0224178D02*
X0330961Y0224178D01*
X0332065Y0226145D02*
X0332896Y0226145D01*
X0332896Y0228112D02*
X0332065Y0228112D01*
X0331065Y0230079D02*
X0333895Y0230079D01*
X0335203Y0192706D02*
X0335472Y0192706D01*
X0335307Y0182871D02*
X0335203Y0182871D01*
X0335142Y0173036D02*
X0333404Y0173036D01*
X0334885Y0171069D02*
X0331437Y0171069D01*
X0332043Y0169102D02*
X0332918Y0169102D01*
X0332896Y0167135D02*
X0332065Y0167135D01*
X0327480Y0155333D02*
X0327480Y0155333D01*
X0327480Y0153366D02*
X0327480Y0153366D01*
X0337351Y0143531D02*
X0346835Y0143531D01*
X0346835Y0145498D02*
X0339318Y0145498D01*
X0341285Y0147465D02*
X0346835Y0147465D01*
X0346835Y0149432D02*
X0343252Y0149432D01*
X0345219Y0151399D02*
X0346835Y0151399D01*
X0346835Y0141564D02*
X0335384Y0141564D01*
X0333417Y0139597D02*
X0346835Y0139597D01*
X0346488Y0137630D02*
X0331450Y0137630D01*
X0329483Y0135663D02*
X0344521Y0135663D01*
X0342554Y0133696D02*
X0327516Y0133696D01*
X0325549Y0131729D02*
X0340587Y0131729D01*
X0338620Y0129762D02*
X0324297Y0129762D01*
X0326160Y0127794D02*
X0336653Y0127794D01*
X0334686Y0125827D02*
X0326591Y0125827D01*
X0326114Y0123860D02*
X0332719Y0123860D01*
X0330752Y0121893D02*
X0324034Y0121893D01*
X0323899Y0119926D02*
X0328785Y0119926D01*
X0326818Y0117959D02*
X0326091Y0117959D01*
X0241516Y0082553D02*
X0240925Y0082553D01*
X0240925Y0080586D02*
X0241516Y0080586D01*
X0253146Y0033378D02*
X0279635Y0033378D01*
X0279875Y0031411D02*
X0251179Y0031411D01*
X0249212Y0029444D02*
X0281626Y0029444D01*
X0283593Y0027477D02*
X0247245Y0027477D01*
X0245278Y0025510D02*
X0285560Y0025510D01*
X0287527Y0023543D02*
X0243311Y0023543D01*
X0242822Y0021576D02*
X0248044Y0021576D01*
X0245731Y0019609D02*
X0245135Y0019609D01*
X0252822Y0021576D02*
X0258044Y0021576D01*
X0255731Y0019609D02*
X0255135Y0019609D01*
X0262822Y0021576D02*
X0268044Y0021576D01*
X0265731Y0019609D02*
X0265135Y0019609D01*
X0272822Y0021576D02*
X0278044Y0021576D01*
X0275731Y0019609D02*
X0275135Y0019609D01*
X0282822Y0021576D02*
X0288044Y0021576D01*
X0285731Y0019609D02*
X0285135Y0019609D01*
X0296803Y0021576D02*
X0298044Y0021576D01*
X0302822Y0021576D02*
X0308044Y0021576D01*
X0305731Y0019609D02*
X0305135Y0019609D01*
X0332822Y0021576D02*
X0338044Y0021576D01*
X0335731Y0019609D02*
X0335135Y0019609D01*
X0342822Y0021576D02*
X0345634Y0021576D01*
X0353203Y0025510D02*
X0362417Y0025510D01*
X0362417Y0027477D02*
X0353203Y0027477D01*
X0353203Y0029444D02*
X0362417Y0029444D01*
X0362417Y0031411D02*
X0353203Y0031411D01*
X0353203Y0033378D02*
X0362417Y0033378D01*
X0362417Y0035345D02*
X0353203Y0035345D01*
X0353203Y0037312D02*
X0362417Y0037312D01*
X0362417Y0039279D02*
X0353203Y0039279D01*
X0353203Y0041246D02*
X0362417Y0041246D01*
X0362417Y0043213D02*
X0353203Y0043213D01*
X0353203Y0045180D02*
X0362417Y0045180D01*
X0362417Y0047147D02*
X0353203Y0047147D01*
X0353203Y0049114D02*
X0362417Y0049114D01*
X0362417Y0051081D02*
X0356716Y0051081D01*
X0357850Y0053048D02*
X0362417Y0053048D01*
X0362417Y0055015D02*
X0357916Y0055015D01*
X0360560Y0023543D02*
X0362417Y0023543D01*
M02*
