G75*
%MOIN*%
%OFA0B0*%
%FSLAX25Y25*%
%IPPOS*%
%LPD*%
%AMOC8*
5,1,8,0,0,1.08239X$1,22.5*
%
%ADD10C,0.00000*%
%ADD11C,0.13398*%
%ADD12OC8,0.06400*%
%ADD13C,0.06000*%
%ADD14C,0.08200*%
%ADD15C,0.06800*%
%ADD16OC8,0.06000*%
%ADD17OC8,0.07100*%
%ADD18C,0.07100*%
%ADD19C,0.06400*%
%ADD20C,0.07400*%
%ADD21C,0.17800*%
%ADD22R,0.06706X0.05918*%
%ADD23C,0.05200*%
%ADD24C,0.08200*%
%ADD25C,0.04800*%
D10*
X0005394Y0001000D02*
X0005394Y0240882D01*
X0367402Y0240882D01*
X0367402Y0001000D01*
X0005394Y0001000D01*
X0010118Y0012142D02*
X0010120Y0012300D01*
X0010126Y0012458D01*
X0010136Y0012616D01*
X0010150Y0012774D01*
X0010168Y0012931D01*
X0010189Y0013088D01*
X0010215Y0013244D01*
X0010245Y0013400D01*
X0010278Y0013555D01*
X0010316Y0013708D01*
X0010357Y0013861D01*
X0010402Y0014013D01*
X0010451Y0014164D01*
X0010504Y0014313D01*
X0010560Y0014461D01*
X0010620Y0014607D01*
X0010684Y0014752D01*
X0010752Y0014895D01*
X0010823Y0015037D01*
X0010897Y0015177D01*
X0010975Y0015314D01*
X0011057Y0015450D01*
X0011141Y0015584D01*
X0011230Y0015715D01*
X0011321Y0015844D01*
X0011416Y0015971D01*
X0011513Y0016096D01*
X0011614Y0016218D01*
X0011718Y0016337D01*
X0011825Y0016454D01*
X0011935Y0016568D01*
X0012048Y0016679D01*
X0012163Y0016788D01*
X0012281Y0016893D01*
X0012402Y0016995D01*
X0012525Y0017095D01*
X0012651Y0017191D01*
X0012779Y0017284D01*
X0012909Y0017374D01*
X0013042Y0017460D01*
X0013177Y0017544D01*
X0013313Y0017623D01*
X0013452Y0017700D01*
X0013593Y0017772D01*
X0013735Y0017842D01*
X0013879Y0017907D01*
X0014025Y0017969D01*
X0014172Y0018027D01*
X0014321Y0018082D01*
X0014471Y0018133D01*
X0014622Y0018180D01*
X0014774Y0018223D01*
X0014927Y0018262D01*
X0015082Y0018298D01*
X0015237Y0018329D01*
X0015393Y0018357D01*
X0015549Y0018381D01*
X0015706Y0018401D01*
X0015864Y0018417D01*
X0016021Y0018429D01*
X0016180Y0018437D01*
X0016338Y0018441D01*
X0016496Y0018441D01*
X0016654Y0018437D01*
X0016813Y0018429D01*
X0016970Y0018417D01*
X0017128Y0018401D01*
X0017285Y0018381D01*
X0017441Y0018357D01*
X0017597Y0018329D01*
X0017752Y0018298D01*
X0017907Y0018262D01*
X0018060Y0018223D01*
X0018212Y0018180D01*
X0018363Y0018133D01*
X0018513Y0018082D01*
X0018662Y0018027D01*
X0018809Y0017969D01*
X0018955Y0017907D01*
X0019099Y0017842D01*
X0019241Y0017772D01*
X0019382Y0017700D01*
X0019521Y0017623D01*
X0019657Y0017544D01*
X0019792Y0017460D01*
X0019925Y0017374D01*
X0020055Y0017284D01*
X0020183Y0017191D01*
X0020309Y0017095D01*
X0020432Y0016995D01*
X0020553Y0016893D01*
X0020671Y0016788D01*
X0020786Y0016679D01*
X0020899Y0016568D01*
X0021009Y0016454D01*
X0021116Y0016337D01*
X0021220Y0016218D01*
X0021321Y0016096D01*
X0021418Y0015971D01*
X0021513Y0015844D01*
X0021604Y0015715D01*
X0021693Y0015584D01*
X0021777Y0015450D01*
X0021859Y0015314D01*
X0021937Y0015177D01*
X0022011Y0015037D01*
X0022082Y0014895D01*
X0022150Y0014752D01*
X0022214Y0014607D01*
X0022274Y0014461D01*
X0022330Y0014313D01*
X0022383Y0014164D01*
X0022432Y0014013D01*
X0022477Y0013861D01*
X0022518Y0013708D01*
X0022556Y0013555D01*
X0022589Y0013400D01*
X0022619Y0013244D01*
X0022645Y0013088D01*
X0022666Y0012931D01*
X0022684Y0012774D01*
X0022698Y0012616D01*
X0022708Y0012458D01*
X0022714Y0012300D01*
X0022716Y0012142D01*
X0022714Y0011984D01*
X0022708Y0011826D01*
X0022698Y0011668D01*
X0022684Y0011510D01*
X0022666Y0011353D01*
X0022645Y0011196D01*
X0022619Y0011040D01*
X0022589Y0010884D01*
X0022556Y0010729D01*
X0022518Y0010576D01*
X0022477Y0010423D01*
X0022432Y0010271D01*
X0022383Y0010120D01*
X0022330Y0009971D01*
X0022274Y0009823D01*
X0022214Y0009677D01*
X0022150Y0009532D01*
X0022082Y0009389D01*
X0022011Y0009247D01*
X0021937Y0009107D01*
X0021859Y0008970D01*
X0021777Y0008834D01*
X0021693Y0008700D01*
X0021604Y0008569D01*
X0021513Y0008440D01*
X0021418Y0008313D01*
X0021321Y0008188D01*
X0021220Y0008066D01*
X0021116Y0007947D01*
X0021009Y0007830D01*
X0020899Y0007716D01*
X0020786Y0007605D01*
X0020671Y0007496D01*
X0020553Y0007391D01*
X0020432Y0007289D01*
X0020309Y0007189D01*
X0020183Y0007093D01*
X0020055Y0007000D01*
X0019925Y0006910D01*
X0019792Y0006824D01*
X0019657Y0006740D01*
X0019521Y0006661D01*
X0019382Y0006584D01*
X0019241Y0006512D01*
X0019099Y0006442D01*
X0018955Y0006377D01*
X0018809Y0006315D01*
X0018662Y0006257D01*
X0018513Y0006202D01*
X0018363Y0006151D01*
X0018212Y0006104D01*
X0018060Y0006061D01*
X0017907Y0006022D01*
X0017752Y0005986D01*
X0017597Y0005955D01*
X0017441Y0005927D01*
X0017285Y0005903D01*
X0017128Y0005883D01*
X0016970Y0005867D01*
X0016813Y0005855D01*
X0016654Y0005847D01*
X0016496Y0005843D01*
X0016338Y0005843D01*
X0016180Y0005847D01*
X0016021Y0005855D01*
X0015864Y0005867D01*
X0015706Y0005883D01*
X0015549Y0005903D01*
X0015393Y0005927D01*
X0015237Y0005955D01*
X0015082Y0005986D01*
X0014927Y0006022D01*
X0014774Y0006061D01*
X0014622Y0006104D01*
X0014471Y0006151D01*
X0014321Y0006202D01*
X0014172Y0006257D01*
X0014025Y0006315D01*
X0013879Y0006377D01*
X0013735Y0006442D01*
X0013593Y0006512D01*
X0013452Y0006584D01*
X0013313Y0006661D01*
X0013177Y0006740D01*
X0013042Y0006824D01*
X0012909Y0006910D01*
X0012779Y0007000D01*
X0012651Y0007093D01*
X0012525Y0007189D01*
X0012402Y0007289D01*
X0012281Y0007391D01*
X0012163Y0007496D01*
X0012048Y0007605D01*
X0011935Y0007716D01*
X0011825Y0007830D01*
X0011718Y0007947D01*
X0011614Y0008066D01*
X0011513Y0008188D01*
X0011416Y0008313D01*
X0011321Y0008440D01*
X0011230Y0008569D01*
X0011141Y0008700D01*
X0011057Y0008834D01*
X0010975Y0008970D01*
X0010897Y0009107D01*
X0010823Y0009247D01*
X0010752Y0009389D01*
X0010684Y0009532D01*
X0010620Y0009677D01*
X0010560Y0009823D01*
X0010504Y0009971D01*
X0010451Y0010120D01*
X0010402Y0010271D01*
X0010357Y0010423D01*
X0010316Y0010576D01*
X0010278Y0010729D01*
X0010245Y0010884D01*
X0010215Y0011040D01*
X0010189Y0011196D01*
X0010168Y0011353D01*
X0010150Y0011510D01*
X0010136Y0011668D01*
X0010126Y0011826D01*
X0010120Y0011984D01*
X0010118Y0012142D01*
X0009725Y0229858D02*
X0009727Y0230016D01*
X0009733Y0230174D01*
X0009743Y0230332D01*
X0009757Y0230490D01*
X0009775Y0230647D01*
X0009796Y0230804D01*
X0009822Y0230960D01*
X0009852Y0231116D01*
X0009885Y0231271D01*
X0009923Y0231424D01*
X0009964Y0231577D01*
X0010009Y0231729D01*
X0010058Y0231880D01*
X0010111Y0232029D01*
X0010167Y0232177D01*
X0010227Y0232323D01*
X0010291Y0232468D01*
X0010359Y0232611D01*
X0010430Y0232753D01*
X0010504Y0232893D01*
X0010582Y0233030D01*
X0010664Y0233166D01*
X0010748Y0233300D01*
X0010837Y0233431D01*
X0010928Y0233560D01*
X0011023Y0233687D01*
X0011120Y0233812D01*
X0011221Y0233934D01*
X0011325Y0234053D01*
X0011432Y0234170D01*
X0011542Y0234284D01*
X0011655Y0234395D01*
X0011770Y0234504D01*
X0011888Y0234609D01*
X0012009Y0234711D01*
X0012132Y0234811D01*
X0012258Y0234907D01*
X0012386Y0235000D01*
X0012516Y0235090D01*
X0012649Y0235176D01*
X0012784Y0235260D01*
X0012920Y0235339D01*
X0013059Y0235416D01*
X0013200Y0235488D01*
X0013342Y0235558D01*
X0013486Y0235623D01*
X0013632Y0235685D01*
X0013779Y0235743D01*
X0013928Y0235798D01*
X0014078Y0235849D01*
X0014229Y0235896D01*
X0014381Y0235939D01*
X0014534Y0235978D01*
X0014689Y0236014D01*
X0014844Y0236045D01*
X0015000Y0236073D01*
X0015156Y0236097D01*
X0015313Y0236117D01*
X0015471Y0236133D01*
X0015628Y0236145D01*
X0015787Y0236153D01*
X0015945Y0236157D01*
X0016103Y0236157D01*
X0016261Y0236153D01*
X0016420Y0236145D01*
X0016577Y0236133D01*
X0016735Y0236117D01*
X0016892Y0236097D01*
X0017048Y0236073D01*
X0017204Y0236045D01*
X0017359Y0236014D01*
X0017514Y0235978D01*
X0017667Y0235939D01*
X0017819Y0235896D01*
X0017970Y0235849D01*
X0018120Y0235798D01*
X0018269Y0235743D01*
X0018416Y0235685D01*
X0018562Y0235623D01*
X0018706Y0235558D01*
X0018848Y0235488D01*
X0018989Y0235416D01*
X0019128Y0235339D01*
X0019264Y0235260D01*
X0019399Y0235176D01*
X0019532Y0235090D01*
X0019662Y0235000D01*
X0019790Y0234907D01*
X0019916Y0234811D01*
X0020039Y0234711D01*
X0020160Y0234609D01*
X0020278Y0234504D01*
X0020393Y0234395D01*
X0020506Y0234284D01*
X0020616Y0234170D01*
X0020723Y0234053D01*
X0020827Y0233934D01*
X0020928Y0233812D01*
X0021025Y0233687D01*
X0021120Y0233560D01*
X0021211Y0233431D01*
X0021300Y0233300D01*
X0021384Y0233166D01*
X0021466Y0233030D01*
X0021544Y0232893D01*
X0021618Y0232753D01*
X0021689Y0232611D01*
X0021757Y0232468D01*
X0021821Y0232323D01*
X0021881Y0232177D01*
X0021937Y0232029D01*
X0021990Y0231880D01*
X0022039Y0231729D01*
X0022084Y0231577D01*
X0022125Y0231424D01*
X0022163Y0231271D01*
X0022196Y0231116D01*
X0022226Y0230960D01*
X0022252Y0230804D01*
X0022273Y0230647D01*
X0022291Y0230490D01*
X0022305Y0230332D01*
X0022315Y0230174D01*
X0022321Y0230016D01*
X0022323Y0229858D01*
X0022321Y0229700D01*
X0022315Y0229542D01*
X0022305Y0229384D01*
X0022291Y0229226D01*
X0022273Y0229069D01*
X0022252Y0228912D01*
X0022226Y0228756D01*
X0022196Y0228600D01*
X0022163Y0228445D01*
X0022125Y0228292D01*
X0022084Y0228139D01*
X0022039Y0227987D01*
X0021990Y0227836D01*
X0021937Y0227687D01*
X0021881Y0227539D01*
X0021821Y0227393D01*
X0021757Y0227248D01*
X0021689Y0227105D01*
X0021618Y0226963D01*
X0021544Y0226823D01*
X0021466Y0226686D01*
X0021384Y0226550D01*
X0021300Y0226416D01*
X0021211Y0226285D01*
X0021120Y0226156D01*
X0021025Y0226029D01*
X0020928Y0225904D01*
X0020827Y0225782D01*
X0020723Y0225663D01*
X0020616Y0225546D01*
X0020506Y0225432D01*
X0020393Y0225321D01*
X0020278Y0225212D01*
X0020160Y0225107D01*
X0020039Y0225005D01*
X0019916Y0224905D01*
X0019790Y0224809D01*
X0019662Y0224716D01*
X0019532Y0224626D01*
X0019399Y0224540D01*
X0019264Y0224456D01*
X0019128Y0224377D01*
X0018989Y0224300D01*
X0018848Y0224228D01*
X0018706Y0224158D01*
X0018562Y0224093D01*
X0018416Y0224031D01*
X0018269Y0223973D01*
X0018120Y0223918D01*
X0017970Y0223867D01*
X0017819Y0223820D01*
X0017667Y0223777D01*
X0017514Y0223738D01*
X0017359Y0223702D01*
X0017204Y0223671D01*
X0017048Y0223643D01*
X0016892Y0223619D01*
X0016735Y0223599D01*
X0016577Y0223583D01*
X0016420Y0223571D01*
X0016261Y0223563D01*
X0016103Y0223559D01*
X0015945Y0223559D01*
X0015787Y0223563D01*
X0015628Y0223571D01*
X0015471Y0223583D01*
X0015313Y0223599D01*
X0015156Y0223619D01*
X0015000Y0223643D01*
X0014844Y0223671D01*
X0014689Y0223702D01*
X0014534Y0223738D01*
X0014381Y0223777D01*
X0014229Y0223820D01*
X0014078Y0223867D01*
X0013928Y0223918D01*
X0013779Y0223973D01*
X0013632Y0224031D01*
X0013486Y0224093D01*
X0013342Y0224158D01*
X0013200Y0224228D01*
X0013059Y0224300D01*
X0012920Y0224377D01*
X0012784Y0224456D01*
X0012649Y0224540D01*
X0012516Y0224626D01*
X0012386Y0224716D01*
X0012258Y0224809D01*
X0012132Y0224905D01*
X0012009Y0225005D01*
X0011888Y0225107D01*
X0011770Y0225212D01*
X0011655Y0225321D01*
X0011542Y0225432D01*
X0011432Y0225546D01*
X0011325Y0225663D01*
X0011221Y0225782D01*
X0011120Y0225904D01*
X0011023Y0226029D01*
X0010928Y0226156D01*
X0010837Y0226285D01*
X0010748Y0226416D01*
X0010664Y0226550D01*
X0010582Y0226686D01*
X0010504Y0226823D01*
X0010430Y0226963D01*
X0010359Y0227105D01*
X0010291Y0227248D01*
X0010227Y0227393D01*
X0010167Y0227539D01*
X0010111Y0227687D01*
X0010058Y0227836D01*
X0010009Y0227987D01*
X0009964Y0228139D01*
X0009923Y0228292D01*
X0009885Y0228445D01*
X0009852Y0228600D01*
X0009822Y0228756D01*
X0009796Y0228912D01*
X0009775Y0229069D01*
X0009757Y0229226D01*
X0009743Y0229384D01*
X0009733Y0229542D01*
X0009727Y0229700D01*
X0009725Y0229858D01*
X0350276Y0229858D02*
X0350278Y0230016D01*
X0350284Y0230174D01*
X0350294Y0230332D01*
X0350308Y0230490D01*
X0350326Y0230647D01*
X0350347Y0230804D01*
X0350373Y0230960D01*
X0350403Y0231116D01*
X0350436Y0231271D01*
X0350474Y0231424D01*
X0350515Y0231577D01*
X0350560Y0231729D01*
X0350609Y0231880D01*
X0350662Y0232029D01*
X0350718Y0232177D01*
X0350778Y0232323D01*
X0350842Y0232468D01*
X0350910Y0232611D01*
X0350981Y0232753D01*
X0351055Y0232893D01*
X0351133Y0233030D01*
X0351215Y0233166D01*
X0351299Y0233300D01*
X0351388Y0233431D01*
X0351479Y0233560D01*
X0351574Y0233687D01*
X0351671Y0233812D01*
X0351772Y0233934D01*
X0351876Y0234053D01*
X0351983Y0234170D01*
X0352093Y0234284D01*
X0352206Y0234395D01*
X0352321Y0234504D01*
X0352439Y0234609D01*
X0352560Y0234711D01*
X0352683Y0234811D01*
X0352809Y0234907D01*
X0352937Y0235000D01*
X0353067Y0235090D01*
X0353200Y0235176D01*
X0353335Y0235260D01*
X0353471Y0235339D01*
X0353610Y0235416D01*
X0353751Y0235488D01*
X0353893Y0235558D01*
X0354037Y0235623D01*
X0354183Y0235685D01*
X0354330Y0235743D01*
X0354479Y0235798D01*
X0354629Y0235849D01*
X0354780Y0235896D01*
X0354932Y0235939D01*
X0355085Y0235978D01*
X0355240Y0236014D01*
X0355395Y0236045D01*
X0355551Y0236073D01*
X0355707Y0236097D01*
X0355864Y0236117D01*
X0356022Y0236133D01*
X0356179Y0236145D01*
X0356338Y0236153D01*
X0356496Y0236157D01*
X0356654Y0236157D01*
X0356812Y0236153D01*
X0356971Y0236145D01*
X0357128Y0236133D01*
X0357286Y0236117D01*
X0357443Y0236097D01*
X0357599Y0236073D01*
X0357755Y0236045D01*
X0357910Y0236014D01*
X0358065Y0235978D01*
X0358218Y0235939D01*
X0358370Y0235896D01*
X0358521Y0235849D01*
X0358671Y0235798D01*
X0358820Y0235743D01*
X0358967Y0235685D01*
X0359113Y0235623D01*
X0359257Y0235558D01*
X0359399Y0235488D01*
X0359540Y0235416D01*
X0359679Y0235339D01*
X0359815Y0235260D01*
X0359950Y0235176D01*
X0360083Y0235090D01*
X0360213Y0235000D01*
X0360341Y0234907D01*
X0360467Y0234811D01*
X0360590Y0234711D01*
X0360711Y0234609D01*
X0360829Y0234504D01*
X0360944Y0234395D01*
X0361057Y0234284D01*
X0361167Y0234170D01*
X0361274Y0234053D01*
X0361378Y0233934D01*
X0361479Y0233812D01*
X0361576Y0233687D01*
X0361671Y0233560D01*
X0361762Y0233431D01*
X0361851Y0233300D01*
X0361935Y0233166D01*
X0362017Y0233030D01*
X0362095Y0232893D01*
X0362169Y0232753D01*
X0362240Y0232611D01*
X0362308Y0232468D01*
X0362372Y0232323D01*
X0362432Y0232177D01*
X0362488Y0232029D01*
X0362541Y0231880D01*
X0362590Y0231729D01*
X0362635Y0231577D01*
X0362676Y0231424D01*
X0362714Y0231271D01*
X0362747Y0231116D01*
X0362777Y0230960D01*
X0362803Y0230804D01*
X0362824Y0230647D01*
X0362842Y0230490D01*
X0362856Y0230332D01*
X0362866Y0230174D01*
X0362872Y0230016D01*
X0362874Y0229858D01*
X0362872Y0229700D01*
X0362866Y0229542D01*
X0362856Y0229384D01*
X0362842Y0229226D01*
X0362824Y0229069D01*
X0362803Y0228912D01*
X0362777Y0228756D01*
X0362747Y0228600D01*
X0362714Y0228445D01*
X0362676Y0228292D01*
X0362635Y0228139D01*
X0362590Y0227987D01*
X0362541Y0227836D01*
X0362488Y0227687D01*
X0362432Y0227539D01*
X0362372Y0227393D01*
X0362308Y0227248D01*
X0362240Y0227105D01*
X0362169Y0226963D01*
X0362095Y0226823D01*
X0362017Y0226686D01*
X0361935Y0226550D01*
X0361851Y0226416D01*
X0361762Y0226285D01*
X0361671Y0226156D01*
X0361576Y0226029D01*
X0361479Y0225904D01*
X0361378Y0225782D01*
X0361274Y0225663D01*
X0361167Y0225546D01*
X0361057Y0225432D01*
X0360944Y0225321D01*
X0360829Y0225212D01*
X0360711Y0225107D01*
X0360590Y0225005D01*
X0360467Y0224905D01*
X0360341Y0224809D01*
X0360213Y0224716D01*
X0360083Y0224626D01*
X0359950Y0224540D01*
X0359815Y0224456D01*
X0359679Y0224377D01*
X0359540Y0224300D01*
X0359399Y0224228D01*
X0359257Y0224158D01*
X0359113Y0224093D01*
X0358967Y0224031D01*
X0358820Y0223973D01*
X0358671Y0223918D01*
X0358521Y0223867D01*
X0358370Y0223820D01*
X0358218Y0223777D01*
X0358065Y0223738D01*
X0357910Y0223702D01*
X0357755Y0223671D01*
X0357599Y0223643D01*
X0357443Y0223619D01*
X0357286Y0223599D01*
X0357128Y0223583D01*
X0356971Y0223571D01*
X0356812Y0223563D01*
X0356654Y0223559D01*
X0356496Y0223559D01*
X0356338Y0223563D01*
X0356179Y0223571D01*
X0356022Y0223583D01*
X0355864Y0223599D01*
X0355707Y0223619D01*
X0355551Y0223643D01*
X0355395Y0223671D01*
X0355240Y0223702D01*
X0355085Y0223738D01*
X0354932Y0223777D01*
X0354780Y0223820D01*
X0354629Y0223867D01*
X0354479Y0223918D01*
X0354330Y0223973D01*
X0354183Y0224031D01*
X0354037Y0224093D01*
X0353893Y0224158D01*
X0353751Y0224228D01*
X0353610Y0224300D01*
X0353471Y0224377D01*
X0353335Y0224456D01*
X0353200Y0224540D01*
X0353067Y0224626D01*
X0352937Y0224716D01*
X0352809Y0224809D01*
X0352683Y0224905D01*
X0352560Y0225005D01*
X0352439Y0225107D01*
X0352321Y0225212D01*
X0352206Y0225321D01*
X0352093Y0225432D01*
X0351983Y0225546D01*
X0351876Y0225663D01*
X0351772Y0225782D01*
X0351671Y0225904D01*
X0351574Y0226029D01*
X0351479Y0226156D01*
X0351388Y0226285D01*
X0351299Y0226416D01*
X0351215Y0226550D01*
X0351133Y0226686D01*
X0351055Y0226823D01*
X0350981Y0226963D01*
X0350910Y0227105D01*
X0350842Y0227248D01*
X0350778Y0227393D01*
X0350718Y0227539D01*
X0350662Y0227687D01*
X0350609Y0227836D01*
X0350560Y0227987D01*
X0350515Y0228139D01*
X0350474Y0228292D01*
X0350436Y0228445D01*
X0350403Y0228600D01*
X0350373Y0228756D01*
X0350347Y0228912D01*
X0350326Y0229069D01*
X0350308Y0229226D01*
X0350294Y0229384D01*
X0350284Y0229542D01*
X0350278Y0229700D01*
X0350276Y0229858D01*
X0350276Y0012929D02*
X0350278Y0013087D01*
X0350284Y0013245D01*
X0350294Y0013403D01*
X0350308Y0013561D01*
X0350326Y0013718D01*
X0350347Y0013875D01*
X0350373Y0014031D01*
X0350403Y0014187D01*
X0350436Y0014342D01*
X0350474Y0014495D01*
X0350515Y0014648D01*
X0350560Y0014800D01*
X0350609Y0014951D01*
X0350662Y0015100D01*
X0350718Y0015248D01*
X0350778Y0015394D01*
X0350842Y0015539D01*
X0350910Y0015682D01*
X0350981Y0015824D01*
X0351055Y0015964D01*
X0351133Y0016101D01*
X0351215Y0016237D01*
X0351299Y0016371D01*
X0351388Y0016502D01*
X0351479Y0016631D01*
X0351574Y0016758D01*
X0351671Y0016883D01*
X0351772Y0017005D01*
X0351876Y0017124D01*
X0351983Y0017241D01*
X0352093Y0017355D01*
X0352206Y0017466D01*
X0352321Y0017575D01*
X0352439Y0017680D01*
X0352560Y0017782D01*
X0352683Y0017882D01*
X0352809Y0017978D01*
X0352937Y0018071D01*
X0353067Y0018161D01*
X0353200Y0018247D01*
X0353335Y0018331D01*
X0353471Y0018410D01*
X0353610Y0018487D01*
X0353751Y0018559D01*
X0353893Y0018629D01*
X0354037Y0018694D01*
X0354183Y0018756D01*
X0354330Y0018814D01*
X0354479Y0018869D01*
X0354629Y0018920D01*
X0354780Y0018967D01*
X0354932Y0019010D01*
X0355085Y0019049D01*
X0355240Y0019085D01*
X0355395Y0019116D01*
X0355551Y0019144D01*
X0355707Y0019168D01*
X0355864Y0019188D01*
X0356022Y0019204D01*
X0356179Y0019216D01*
X0356338Y0019224D01*
X0356496Y0019228D01*
X0356654Y0019228D01*
X0356812Y0019224D01*
X0356971Y0019216D01*
X0357128Y0019204D01*
X0357286Y0019188D01*
X0357443Y0019168D01*
X0357599Y0019144D01*
X0357755Y0019116D01*
X0357910Y0019085D01*
X0358065Y0019049D01*
X0358218Y0019010D01*
X0358370Y0018967D01*
X0358521Y0018920D01*
X0358671Y0018869D01*
X0358820Y0018814D01*
X0358967Y0018756D01*
X0359113Y0018694D01*
X0359257Y0018629D01*
X0359399Y0018559D01*
X0359540Y0018487D01*
X0359679Y0018410D01*
X0359815Y0018331D01*
X0359950Y0018247D01*
X0360083Y0018161D01*
X0360213Y0018071D01*
X0360341Y0017978D01*
X0360467Y0017882D01*
X0360590Y0017782D01*
X0360711Y0017680D01*
X0360829Y0017575D01*
X0360944Y0017466D01*
X0361057Y0017355D01*
X0361167Y0017241D01*
X0361274Y0017124D01*
X0361378Y0017005D01*
X0361479Y0016883D01*
X0361576Y0016758D01*
X0361671Y0016631D01*
X0361762Y0016502D01*
X0361851Y0016371D01*
X0361935Y0016237D01*
X0362017Y0016101D01*
X0362095Y0015964D01*
X0362169Y0015824D01*
X0362240Y0015682D01*
X0362308Y0015539D01*
X0362372Y0015394D01*
X0362432Y0015248D01*
X0362488Y0015100D01*
X0362541Y0014951D01*
X0362590Y0014800D01*
X0362635Y0014648D01*
X0362676Y0014495D01*
X0362714Y0014342D01*
X0362747Y0014187D01*
X0362777Y0014031D01*
X0362803Y0013875D01*
X0362824Y0013718D01*
X0362842Y0013561D01*
X0362856Y0013403D01*
X0362866Y0013245D01*
X0362872Y0013087D01*
X0362874Y0012929D01*
X0362872Y0012771D01*
X0362866Y0012613D01*
X0362856Y0012455D01*
X0362842Y0012297D01*
X0362824Y0012140D01*
X0362803Y0011983D01*
X0362777Y0011827D01*
X0362747Y0011671D01*
X0362714Y0011516D01*
X0362676Y0011363D01*
X0362635Y0011210D01*
X0362590Y0011058D01*
X0362541Y0010907D01*
X0362488Y0010758D01*
X0362432Y0010610D01*
X0362372Y0010464D01*
X0362308Y0010319D01*
X0362240Y0010176D01*
X0362169Y0010034D01*
X0362095Y0009894D01*
X0362017Y0009757D01*
X0361935Y0009621D01*
X0361851Y0009487D01*
X0361762Y0009356D01*
X0361671Y0009227D01*
X0361576Y0009100D01*
X0361479Y0008975D01*
X0361378Y0008853D01*
X0361274Y0008734D01*
X0361167Y0008617D01*
X0361057Y0008503D01*
X0360944Y0008392D01*
X0360829Y0008283D01*
X0360711Y0008178D01*
X0360590Y0008076D01*
X0360467Y0007976D01*
X0360341Y0007880D01*
X0360213Y0007787D01*
X0360083Y0007697D01*
X0359950Y0007611D01*
X0359815Y0007527D01*
X0359679Y0007448D01*
X0359540Y0007371D01*
X0359399Y0007299D01*
X0359257Y0007229D01*
X0359113Y0007164D01*
X0358967Y0007102D01*
X0358820Y0007044D01*
X0358671Y0006989D01*
X0358521Y0006938D01*
X0358370Y0006891D01*
X0358218Y0006848D01*
X0358065Y0006809D01*
X0357910Y0006773D01*
X0357755Y0006742D01*
X0357599Y0006714D01*
X0357443Y0006690D01*
X0357286Y0006670D01*
X0357128Y0006654D01*
X0356971Y0006642D01*
X0356812Y0006634D01*
X0356654Y0006630D01*
X0356496Y0006630D01*
X0356338Y0006634D01*
X0356179Y0006642D01*
X0356022Y0006654D01*
X0355864Y0006670D01*
X0355707Y0006690D01*
X0355551Y0006714D01*
X0355395Y0006742D01*
X0355240Y0006773D01*
X0355085Y0006809D01*
X0354932Y0006848D01*
X0354780Y0006891D01*
X0354629Y0006938D01*
X0354479Y0006989D01*
X0354330Y0007044D01*
X0354183Y0007102D01*
X0354037Y0007164D01*
X0353893Y0007229D01*
X0353751Y0007299D01*
X0353610Y0007371D01*
X0353471Y0007448D01*
X0353335Y0007527D01*
X0353200Y0007611D01*
X0353067Y0007697D01*
X0352937Y0007787D01*
X0352809Y0007880D01*
X0352683Y0007976D01*
X0352560Y0008076D01*
X0352439Y0008178D01*
X0352321Y0008283D01*
X0352206Y0008392D01*
X0352093Y0008503D01*
X0351983Y0008617D01*
X0351876Y0008734D01*
X0351772Y0008853D01*
X0351671Y0008975D01*
X0351574Y0009100D01*
X0351479Y0009227D01*
X0351388Y0009356D01*
X0351299Y0009487D01*
X0351215Y0009621D01*
X0351133Y0009757D01*
X0351055Y0009894D01*
X0350981Y0010034D01*
X0350910Y0010176D01*
X0350842Y0010319D01*
X0350778Y0010464D01*
X0350718Y0010610D01*
X0350662Y0010758D01*
X0350609Y0010907D01*
X0350560Y0011058D01*
X0350515Y0011210D01*
X0350474Y0011363D01*
X0350436Y0011516D01*
X0350403Y0011671D01*
X0350373Y0011827D01*
X0350347Y0011983D01*
X0350326Y0012140D01*
X0350308Y0012297D01*
X0350294Y0012455D01*
X0350284Y0012613D01*
X0350278Y0012771D01*
X0350276Y0012929D01*
D11*
X0356575Y0012929D03*
X0356575Y0229858D03*
X0016024Y0229858D03*
X0016417Y0012142D03*
D12*
X0042756Y0044425D03*
X0072756Y0044425D03*
X0043583Y0127850D03*
X0043583Y0157850D03*
X0208780Y0188992D03*
X0238780Y0188992D03*
X0327480Y0187181D03*
X0337480Y0187181D03*
X0337480Y0197181D03*
X0327480Y0197181D03*
X0327480Y0207181D03*
X0337480Y0207181D03*
X0337480Y0217181D03*
X0327480Y0217181D03*
X0327480Y0227181D03*
X0337480Y0227181D03*
X0337480Y0177181D03*
X0327480Y0177181D03*
X0327480Y0167181D03*
X0337480Y0167181D03*
X0337480Y0157181D03*
X0327480Y0157181D03*
D13*
X0322206Y0125882D02*
X0317006Y0125882D01*
X0317006Y0115882D02*
X0322206Y0115882D01*
X0322206Y0105882D02*
X0317006Y0105882D01*
X0317006Y0095882D02*
X0322206Y0095882D01*
X0322206Y0085882D02*
X0317006Y0085882D01*
X0317006Y0075882D02*
X0322206Y0075882D01*
X0322206Y0065882D02*
X0317006Y0065882D01*
X0317006Y0055882D02*
X0322206Y0055882D01*
X0348345Y0054110D02*
X0353545Y0054110D01*
X0353545Y0064110D02*
X0348345Y0064110D01*
X0348345Y0074110D02*
X0353545Y0074110D01*
X0292206Y0075882D02*
X0287006Y0075882D01*
X0287006Y0085882D02*
X0292206Y0085882D01*
X0292206Y0095882D02*
X0287006Y0095882D01*
X0287006Y0105882D02*
X0292206Y0105882D01*
X0292206Y0115882D02*
X0287006Y0115882D01*
X0287006Y0125882D02*
X0292206Y0125882D01*
X0292206Y0065882D02*
X0287006Y0065882D01*
X0287006Y0055882D02*
X0292206Y0055882D01*
X0199921Y0127219D02*
X0199921Y0132419D01*
X0189921Y0132419D02*
X0189921Y0127219D01*
X0179921Y0127219D02*
X0179921Y0132419D01*
X0169921Y0132419D02*
X0169921Y0127219D01*
X0159921Y0127219D02*
X0159921Y0132419D01*
X0149921Y0132419D02*
X0149921Y0127219D01*
X0139921Y0127219D02*
X0139921Y0132419D01*
X0129921Y0132419D02*
X0129921Y0127219D01*
X0119921Y0127219D02*
X0119921Y0132419D01*
X0109921Y0132419D02*
X0109921Y0127219D01*
X0099921Y0127219D02*
X0099921Y0132419D01*
X0089921Y0132419D02*
X0089921Y0127219D01*
X0079921Y0127219D02*
X0079921Y0132419D01*
X0069921Y0132419D02*
X0069921Y0127219D01*
X0069921Y0157219D02*
X0069921Y0162419D01*
X0079921Y0162419D02*
X0079921Y0157219D01*
X0089921Y0157219D02*
X0089921Y0162419D01*
X0099921Y0162419D02*
X0099921Y0157219D01*
X0109921Y0157219D02*
X0109921Y0162419D01*
X0119921Y0162419D02*
X0119921Y0157219D01*
X0129921Y0157219D02*
X0129921Y0162419D01*
X0139921Y0162419D02*
X0139921Y0157219D01*
X0149921Y0157219D02*
X0149921Y0162419D01*
X0159921Y0162419D02*
X0159921Y0157219D01*
X0169921Y0157219D02*
X0169921Y0162419D01*
X0179921Y0162419D02*
X0179921Y0157219D01*
X0189921Y0157219D02*
X0189921Y0162419D01*
X0199921Y0162419D02*
X0199921Y0157219D01*
X0115394Y0048639D02*
X0115394Y0043439D01*
X0105394Y0043439D02*
X0105394Y0048639D01*
X0095394Y0048639D02*
X0095394Y0043439D01*
X0095394Y0018639D02*
X0095394Y0013439D01*
X0105394Y0013439D02*
X0105394Y0018639D01*
X0115394Y0018639D02*
X0115394Y0013439D01*
D14*
X0064606Y0018441D03*
X0054606Y0018441D03*
X0044606Y0018441D03*
X0025354Y0053874D03*
X0015354Y0053874D03*
X0020748Y0098953D03*
X0020748Y0108953D03*
X0020748Y0118953D03*
X0020748Y0128953D03*
X0020748Y0138953D03*
X0020748Y0148953D03*
X0144606Y0109386D03*
X0154606Y0109386D03*
X0164606Y0109386D03*
X0224528Y0138244D03*
X0234528Y0138244D03*
X0244528Y0138244D03*
X0244528Y0148244D03*
X0234528Y0148244D03*
X0224528Y0148244D03*
D15*
X0223504Y0218984D02*
X0223504Y0224984D01*
X0233504Y0224984D02*
X0233504Y0218984D01*
X0213504Y0218984D02*
X0213504Y0224984D01*
X0186535Y0225378D02*
X0186535Y0219378D01*
X0176535Y0219378D02*
X0176535Y0225378D01*
X0166535Y0225378D02*
X0166535Y0219378D01*
X0156535Y0219378D02*
X0156535Y0225378D01*
X0135354Y0225378D02*
X0135354Y0219378D01*
X0125354Y0219378D02*
X0125354Y0225378D01*
X0115354Y0225378D02*
X0115354Y0219378D01*
X0105354Y0219378D02*
X0105354Y0225378D01*
X0070987Y0107076D02*
X0070987Y0101076D01*
X0053187Y0101076D02*
X0053187Y0107076D01*
X0053187Y0081476D02*
X0053187Y0075476D01*
X0070987Y0075476D02*
X0070987Y0081476D01*
X0133108Y0045265D02*
X0133108Y0039265D01*
X0150908Y0039265D02*
X0150908Y0045265D01*
X0150908Y0019665D02*
X0150908Y0013665D01*
X0133108Y0013665D02*
X0133108Y0019665D01*
D16*
X0130157Y0054661D03*
X0115236Y0061315D03*
X0105394Y0061315D03*
X0095157Y0061315D03*
X0095157Y0091315D03*
X0105394Y0091315D03*
X0115236Y0091315D03*
X0071969Y0116866D03*
X0041969Y0116866D03*
X0042441Y0077496D03*
X0012441Y0077496D03*
X0160157Y0054661D03*
X0355394Y0086512D03*
X0355394Y0116512D03*
D17*
X0170472Y0188913D03*
D18*
X0180472Y0188913D03*
D19*
X0172761Y0026197D02*
X0167161Y0026197D01*
X0167161Y0016197D02*
X0172761Y0016197D01*
D20*
X0106496Y0185370D03*
X0066496Y0185370D03*
X0256181Y0188992D03*
X0256181Y0228992D03*
D21*
X0058937Y0200331D03*
X0035315Y0200331D03*
X0047126Y0181827D03*
D22*
X0218386Y0097969D03*
X0218386Y0091276D03*
X0218386Y0084583D03*
X0230197Y0084583D03*
X0230197Y0091276D03*
X0230197Y0097969D03*
X0241220Y0097969D03*
X0241220Y0091276D03*
X0241220Y0084583D03*
D23*
X0232165Y0056394D03*
X0242165Y0046394D03*
X0232165Y0036394D03*
D24*
X0230433Y0016629D02*
X0230433Y0009229D01*
X0220433Y0009229D02*
X0220433Y0016629D01*
X0210433Y0016629D02*
X0210433Y0009229D01*
X0200433Y0009229D02*
X0200433Y0016629D01*
X0190433Y0016629D02*
X0190433Y0009229D01*
X0240433Y0009229D02*
X0240433Y0016629D01*
X0250433Y0016629D02*
X0250433Y0009229D01*
X0260433Y0009229D02*
X0260433Y0016629D01*
X0270433Y0016629D02*
X0270433Y0009229D01*
X0280433Y0009229D02*
X0280433Y0016629D01*
X0290433Y0016629D02*
X0290433Y0009229D01*
X0300433Y0009229D02*
X0300433Y0016629D01*
X0310433Y0016629D02*
X0310433Y0009229D01*
X0320433Y0009229D02*
X0320433Y0016629D01*
X0330433Y0016629D02*
X0330433Y0009229D01*
X0340433Y0009229D02*
X0340433Y0016629D01*
D25*
X0262480Y0027890D03*
X0241220Y0036945D03*
X0251850Y0046000D03*
X0246219Y0051106D03*
X0247126Y0070803D03*
X0260619Y0084706D03*
X0278019Y0073306D03*
X0222717Y0025134D03*
X0100276Y0111354D03*
X0033346Y0111748D03*
X0138071Y0203087D03*
X0180819Y0201106D03*
X0187677Y0192850D03*
X0218780Y0172378D03*
X0242008Y0164504D03*
X0208419Y0148906D03*
X0280197Y0217654D03*
X0317598Y0166472D03*
M02*
