%
M48
M72
T01C0.02400
T02C0.03150
T03C0.03200
T04C0.03543
T05C0.03600
T06C0.04000
T07C0.04400
T08C0.05200
T09C0.08661
T10C0.11800
T11C0.11900
T12C0.12598
T13C0.13000
%
T01
X376394Y292929
X424819Y275213
X453165Y256315
X483480Y263402
X498441Y270882
X593717Y280724
X666551Y281118
X637024Y255528
X662614Y251591
X723638Y235843
X757102Y227969
X758283Y242142
X904740Y279150
X979543Y271276
X985449Y269307
X957890Y251591
X1047260Y227181
X1040567Y204346
X1087811Y170882
X1185055Y159465
X1240961Y162614
X1259071Y193323
X1229150Y212220
X1084661Y261827
X1056709Y311827
X846472Y314189
X782693Y312614
X774819Y283087
X465764Y318520
X536630Y214189
X612220Y209465
X611433Y191748
X596472Y191354
X623244Y174819
X574031Y170882
X605528Y163008
X623244Y159071
X657890Y161433
X611039Y147260
X592929Y147260
X568126Y131512
X577969Y127575
X616551Y119701
X477575Y127181
X383087Y143323
X373244Y143717
X379150Y135449
X376394Y124425
X239386Y135449
X225606Y147260
X284661Y147260
X255134Y170882
X192142Y166945
X1125213Y101984
X1186236Y118520
X1121669Y143717
X1078756Y129937
X1087811Y127575
X1058677Y144110
X1033874Y137811
X1010252Y138205
X798441Y122457
X835843Y147260
X699622Y141354
X699622Y129543
X538992Y181118
X688205Y190567
T02
X637260Y221276
X647260Y221276
X657260Y221276
T03
X168874Y87024
X198874Y87024
X236236Y93362
X251118Y87969
X261118Y87969
X271118Y87969
X261039Y64740
X251039Y64740
X236236Y63362
X514976Y64150
X529898Y65606
X539898Y65606
X724386Y83087
X754386Y83087
X807339Y84819
X817339Y84819
X827339Y84819
X792142Y96118
X807339Y114819
X817339Y114819
X827339Y114819
X1008638Y82299
X1038638Y82299
X1092142Y87181
X1102142Y87181
X1112142Y87181
X1076000Y96118
X1092142Y117181
X1102142Y117181
X1112142Y117181
X1292496Y85449
X1322496Y85449
X1360252Y94150
X1375764Y89543
X1385764Y89543
X1395764Y89543
X1360252Y64150
X1375252Y63638
X1385252Y63638
X1092024Y65606
X1102024Y65606
X1076000Y66118
X807614Y65213
X817614Y65213
X792142Y66118
X549622Y84425
X539622Y84425
X529622Y84425
X514976Y94150
X476827Y84268
X446827Y84268
X529622Y114425
X539622Y114425
X549622Y114425
X271118Y117969
X261118Y117969
X251118Y117969
X295646Y204701
X325646Y204701
X402693Y227535
X412693Y227535
X429071Y226551
X439071Y226551
X452417Y226157
X462417Y226157
X505134Y220449
X520882Y220449
X536630Y220449
X562181Y240921
X572181Y240921
X582181Y240921
X592181Y240921
X602181Y240921
X612181Y240921
X622181Y240921
X632181Y240921
X642181Y240921
X652181Y240921
X662181Y240921
X672181Y240921
X682181Y240921
X692181Y240921
X719740Y222417
X729740Y222417
X754386Y221512
X764386Y221512
X779898Y221039
X789898Y221039
X855803Y208244
X885803Y208244
X918283Y227535
X928283Y227535
X943520Y225055
X953520Y225055
X965252Y226157
X975252Y226157
X1136669Y203520
X1166669Y203520
X1201472Y226748
X1211472Y226748
X1228323Y228205
X1238323Y228205
X1251000Y229307
X1261000Y229307
X1214583Y286717
X1214583Y300717
X692181Y270921
X682181Y270921
X672181Y270921
X662181Y270921
X652181Y270921
X642181Y270921
X632181Y270921
X622181Y270921
X612181Y270921
X602181Y270921
X592181Y270921
X582181Y270921
X572181Y270921
X562181Y270921
X530882Y279504
X520882Y279504
X510882Y279504
X485449Y274071
X438205Y283441
X510882Y309504
X520882Y309504
X530882Y309504
X438205Y313441
X505134Y250449
X520882Y250449
X536630Y250449
X485449Y244071
X574937Y200370
X604937Y200370
X143205Y230094
X133205Y230094
X120803Y230488
X110803Y230488
X92102Y231472
X82102Y231472
X40843Y208244
X10843Y208244
X1375764Y119543
X1385764Y119543
X1395764Y119543
T04
X971669Y287417
X979937Y287417
X987811Y287417
X998441Y287417
X998441Y297260
X990173Y297260
X979937Y297260
X971669Y297260
T05
X371276Y278008
X405646Y266945
X415646Y266945
X371276Y248008
X553126Y310252
X563126Y310252
X573126Y310252
X583126Y310252
X596433Y310252
X606433Y310252
X616433Y310252
X626433Y310252
X1254701Y301591
X1284701Y301591
X1352378Y296236
X1382299Y296236
X1382299Y286236
X1352378Y286236
X1352378Y276236
X1382299Y276236
T06
X1202457Y111827
X1232457Y111827
X1254543Y112063
X1284543Y112063
X1306512Y111984
X1336512Y111984
X1336512Y131984
X1306512Y131984
X1284543Y132063
X1254543Y132063
X1232457Y131827
X1202457Y131827
X1202457Y151827
X1232457Y151827
X1254543Y152063
X1284543Y152063
X1306512Y151984
X1336512Y151984
X1336512Y181984
X1306512Y181984
X1284543Y182063
X1254543Y182063
X1232457Y181827
X1202457Y181827
X1048047Y180488
X1018047Y180488
X998323Y179858
X968323Y179858
X947142Y179937
X917142Y179937
X917142Y149937
X947142Y149937
X968323Y149858
X998323Y149858
X1018047Y150488
X1048047Y150488
X1048047Y130488
X1018047Y130488
X998323Y129858
X968323Y129858
X947142Y129937
X917142Y129937
X917142Y109937
X947142Y109937
X968323Y109858
X998323Y109858
X1018047Y110488
X1048047Y110488
X770094Y110252
X740094Y110252
X716157Y109937
X686157Y109937
X663008Y110016
X633008Y110016
X633008Y130016
X663008Y130016
X686157Y129937
X716157Y129937
X740094Y130252
X770094Y130252
X770094Y150252
X740094Y150252
X716157Y149937
X686157Y149937
X663008Y150016
X633008Y150016
X633008Y180016
X663008Y180016
X686157Y179937
X716157Y179937
X740094Y180252
X770094Y180252
X493441Y179543
X463441Y179543
X443441Y179622
X413441Y179622
X395409Y179701
X365409Y179701
X365409Y149701
X395409Y149701
X413441Y149622
X443441Y149622
X463441Y149543
X493441Y149543
X493441Y129543
X463441Y129543
X443441Y129622
X413441Y129622
X395409Y129701
X365409Y129701
X365409Y109701
X395409Y109701
X413441Y109622
X443441Y109622
X463441Y109543
X493441Y109543
X215606Y109858
X185606Y109858
X164425Y109543
X134425Y109543
X113913Y109071
X83913Y109071
X83913Y129071
X113913Y129071
X134425Y129543
X164425Y129543
X185606Y129858
X215606Y129858
X215606Y149858
X185606Y149858
X164425Y149543
X134425Y149543
X113913Y149071
X83913Y149071
X83913Y179071
X113913Y179071
X134425Y179543
X164425Y179543
X185606Y179858
X215606Y179858
X316413Y312102
X326413Y312102
X336413Y312102
X346413Y312102
X356413Y312102
X366413Y312102
X397846Y311278
X423446Y311278
X452964Y311278
X478564Y311278
X478564Y293478
X452964Y293478
X423446Y293478
X397846Y293478
X773717Y302654
X783717Y302654
X793717Y302654
X803717Y302654
X813717Y302654
X813717Y292654
X803717Y292654
X793717Y292654
X783717Y292654
X773717Y292654
X870567Y292654
X880567Y292654
X890567Y292654
X900567Y292654
X910567Y292654
X910567Y302654
X900567Y302654
X890567Y302654
X880567Y302654
X870567Y302654
T07
X1254425Y274425
X1254425Y263008
X1294425Y263008
X1294425Y274425
X1341472Y200843
X1301472Y200843
X1289898Y201236
X1249898Y201236
X1237142Y200843
X1197142Y200843
X1166197Y179386
X1156197Y179386
X1146197Y179386
X1053283Y197693
X1013283Y197693
X1003283Y197693
X963283Y197693
X951709Y198008
X911709Y198008
X883008Y180173
X873008Y180173
X863008Y180173
X774150Y197220
X734150Y197220
X721000Y196827
X681000Y196827
X665882Y196433
X625882Y196433
X604150Y180173
X594150Y180173
X584150Y180173
X497772Y197614
X457772Y197614
X448165Y197614
X408165Y197614
X399346Y197614
X359346Y197614
X322142Y180567
X312142Y180567
X302142Y180567
X222181Y196039
X182181Y196039
X170606Y196039
X130606Y196039
X116669Y196433
X76669Y196433
X38953Y180173
X28953Y180173
X18953Y180173
T08
X78815Y46197
X93815Y46197
X108815Y46197
X123815Y46197
X138815Y46197
X153815Y46197
X168815Y46197
X183815Y46197
X198815Y46197
X213815Y46197
X356965Y47102
X371965Y47102
X386965Y47102
X401965Y47102
X416965Y47102
X431965Y47102
X446965Y47102
X461965Y47102
X476965Y47102
X491965Y47102
X634484Y46709
X649484Y46709
X664484Y46709
X679484Y46709
X694484Y46709
X709484Y46709
X724484Y46709
X739484Y46709
X754484Y46709
X769484Y46709
X918382Y46906
X933382Y46906
X948382Y46906
X963382Y46906
X978382Y46906
X993382Y46906
X1008382Y46906
X1023382Y46906
X1038382Y46906
X1053382Y46906
X1202594Y46118
X1217594Y46118
X1232594Y46118
X1247594Y46118
X1262594Y46118
X1277594Y46118
X1292594Y46118
X1307594Y46118
X1322594Y46118
X1337594Y46118
X1345094Y66118
X1330094Y66118
X1315094Y66118
X1300094Y66118
X1285094Y66118
X1270094Y66118
X1255094Y66118
X1240094Y66118
X1225094Y66118
X1210094Y66118
X1195094Y66118
X1060882Y66906
X1045882Y66906
X1030882Y66906
X1015882Y66906
X1000882Y66906
X985882Y66906
X970882Y66906
X955882Y66906
X940882Y66906
X925882Y66906
X910882Y66906
X776984Y66709
X761984Y66709
X746984Y66709
X731984Y66709
X716984Y66709
X701984Y66709
X686984Y66709
X671984Y66709
X656984Y66709
X641984Y66709
X626984Y66709
X499465Y67102
X484465Y67102
X469465Y67102
X454465Y67102
X439465Y67102
X424465Y67102
X409465Y67102
X394465Y67102
X379465Y67102
X364465Y67102
X349465Y67102
X221315Y66197
X206315Y66197
X191315Y66197
X176315Y66197
X161315Y66197
X146315Y66197
X131315Y66197
X116315Y66197
X101315Y66197
X86315Y66197
X71315Y66197
T09
X958480Y309071
X985055Y312220
X1011630Y309071
T10
X1307647Y287024
X1322357Y303335
T11
X42315Y33197
X42315Y47197
X250315Y33197
X250315Y47197
X320465Y34102
X320465Y48102
X528465Y34102
X528465Y48102
X597984Y33709
X597984Y47709
X805984Y33709
X805984Y47709
X881882Y33906
X881882Y47906
X1089882Y33906
X1089882Y47906
X1166094Y33118
X1166094Y47118
X1374094Y33118
X1374094Y47118
T12
X36630Y288992
X288598Y304740
X658677Y308677
X863402Y265370
X1115370Y316551
X1322457Y274513
X1352378Y315764
X839780Y17339
X560252Y13402
X284661Y21276
X16945Y17339
X1127181Y17339
X1394898Y17339
T13
X1156197Y110386
X873008Y111173
X594150Y111173
X312142Y111567
X28953Y111173
M30
