%
M48
M72
T01C0.03200
T02C0.03543
T03C0.03600
T04C0.04400
T05C0.05500
T06C0.08661
T07C0.08700
T08C0.12598
%
T01
X29465Y118087
X29465Y128087
X29465Y138087
X29465Y148087
X25764Y187063
X55764Y187063
X59465Y148087
X59465Y138087
X59465Y128087
X59465Y118087
X104386Y118598
X104386Y88598
X38835Y536906
X37457Y516866
X28835Y536906
X37457Y486866
T02
X162929Y82929
X162929Y74661
X162929Y64425
X162929Y56157
X153087Y56157
X153087Y66787
X153087Y74661
X153087Y82929
T03
X26591Y167890
X25961Y220213
X25961Y230213
X25961Y240213
X25843Y253992
X25843Y263992
X25843Y273992
X25843Y283992
X56591Y167890
X85213Y127260
X85213Y97260
X25961Y472929
X25961Y462929
X25961Y452929
T04
X163638Y14465
X148638Y14465
X133638Y14465
T05
X140606Y142732
X140606Y201787
X140606Y367142
X140606Y445882
X140606Y516748
X140606Y583677
T06
X174740Y96118
X177890Y69543
X174740Y42969
T07
X140606Y120732
X140606Y164732
X140606Y179787
X140606Y223787
X170606Y201787
X170606Y142732
X140606Y345142
X140606Y389142
X140606Y423882
X140606Y467882
X140606Y494748
X140606Y538748
X140606Y561677
X140606Y605677
X170606Y583677
X170606Y516748
X170606Y445882
X170606Y367142
T08
X12811Y623047
X182102Y16748
X186039Y623047
X12811Y12811
M30
