G75*
%MOIN*%
%OFA0B0*%
%FSLAX25Y25*%
%IPPOS*%
%LPD*%
%AMOC8*
5,1,8,0,0,1.08239X$1,22.5*
%
%ADD10C,0.00000*%
%ADD11C,0.00600*%
%ADD12OC8,0.07500*%
%ADD13C,0.05200*%
%ADD14C,0.05600*%
%ADD15OC8,0.05200*%
%ADD16C,0.06600*%
%ADD17OC8,0.05543*%
%ADD18OC8,0.08250*%
%ADD19OC8,0.12700*%
%ADD20C,0.01969*%
%ADD21C,0.01600*%
D10*
X0001000Y0001000D02*
X0001000Y0634858D01*
X0197850Y0634858D01*
X0197850Y0001000D01*
X0001000Y0001000D01*
X0006512Y0012811D02*
X0006514Y0012969D01*
X0006520Y0013127D01*
X0006530Y0013285D01*
X0006544Y0013443D01*
X0006562Y0013600D01*
X0006583Y0013757D01*
X0006609Y0013913D01*
X0006639Y0014069D01*
X0006672Y0014224D01*
X0006710Y0014377D01*
X0006751Y0014530D01*
X0006796Y0014682D01*
X0006845Y0014833D01*
X0006898Y0014982D01*
X0006954Y0015130D01*
X0007014Y0015276D01*
X0007078Y0015421D01*
X0007146Y0015564D01*
X0007217Y0015706D01*
X0007291Y0015846D01*
X0007369Y0015983D01*
X0007451Y0016119D01*
X0007535Y0016253D01*
X0007624Y0016384D01*
X0007715Y0016513D01*
X0007810Y0016640D01*
X0007907Y0016765D01*
X0008008Y0016887D01*
X0008112Y0017006D01*
X0008219Y0017123D01*
X0008329Y0017237D01*
X0008442Y0017348D01*
X0008557Y0017457D01*
X0008675Y0017562D01*
X0008796Y0017664D01*
X0008919Y0017764D01*
X0009045Y0017860D01*
X0009173Y0017953D01*
X0009303Y0018043D01*
X0009436Y0018129D01*
X0009571Y0018213D01*
X0009707Y0018292D01*
X0009846Y0018369D01*
X0009987Y0018441D01*
X0010129Y0018511D01*
X0010273Y0018576D01*
X0010419Y0018638D01*
X0010566Y0018696D01*
X0010715Y0018751D01*
X0010865Y0018802D01*
X0011016Y0018849D01*
X0011168Y0018892D01*
X0011321Y0018931D01*
X0011476Y0018967D01*
X0011631Y0018998D01*
X0011787Y0019026D01*
X0011943Y0019050D01*
X0012100Y0019070D01*
X0012258Y0019086D01*
X0012415Y0019098D01*
X0012574Y0019106D01*
X0012732Y0019110D01*
X0012890Y0019110D01*
X0013048Y0019106D01*
X0013207Y0019098D01*
X0013364Y0019086D01*
X0013522Y0019070D01*
X0013679Y0019050D01*
X0013835Y0019026D01*
X0013991Y0018998D01*
X0014146Y0018967D01*
X0014301Y0018931D01*
X0014454Y0018892D01*
X0014606Y0018849D01*
X0014757Y0018802D01*
X0014907Y0018751D01*
X0015056Y0018696D01*
X0015203Y0018638D01*
X0015349Y0018576D01*
X0015493Y0018511D01*
X0015635Y0018441D01*
X0015776Y0018369D01*
X0015915Y0018292D01*
X0016051Y0018213D01*
X0016186Y0018129D01*
X0016319Y0018043D01*
X0016449Y0017953D01*
X0016577Y0017860D01*
X0016703Y0017764D01*
X0016826Y0017664D01*
X0016947Y0017562D01*
X0017065Y0017457D01*
X0017180Y0017348D01*
X0017293Y0017237D01*
X0017403Y0017123D01*
X0017510Y0017006D01*
X0017614Y0016887D01*
X0017715Y0016765D01*
X0017812Y0016640D01*
X0017907Y0016513D01*
X0017998Y0016384D01*
X0018087Y0016253D01*
X0018171Y0016119D01*
X0018253Y0015983D01*
X0018331Y0015846D01*
X0018405Y0015706D01*
X0018476Y0015564D01*
X0018544Y0015421D01*
X0018608Y0015276D01*
X0018668Y0015130D01*
X0018724Y0014982D01*
X0018777Y0014833D01*
X0018826Y0014682D01*
X0018871Y0014530D01*
X0018912Y0014377D01*
X0018950Y0014224D01*
X0018983Y0014069D01*
X0019013Y0013913D01*
X0019039Y0013757D01*
X0019060Y0013600D01*
X0019078Y0013443D01*
X0019092Y0013285D01*
X0019102Y0013127D01*
X0019108Y0012969D01*
X0019110Y0012811D01*
X0019108Y0012653D01*
X0019102Y0012495D01*
X0019092Y0012337D01*
X0019078Y0012179D01*
X0019060Y0012022D01*
X0019039Y0011865D01*
X0019013Y0011709D01*
X0018983Y0011553D01*
X0018950Y0011398D01*
X0018912Y0011245D01*
X0018871Y0011092D01*
X0018826Y0010940D01*
X0018777Y0010789D01*
X0018724Y0010640D01*
X0018668Y0010492D01*
X0018608Y0010346D01*
X0018544Y0010201D01*
X0018476Y0010058D01*
X0018405Y0009916D01*
X0018331Y0009776D01*
X0018253Y0009639D01*
X0018171Y0009503D01*
X0018087Y0009369D01*
X0017998Y0009238D01*
X0017907Y0009109D01*
X0017812Y0008982D01*
X0017715Y0008857D01*
X0017614Y0008735D01*
X0017510Y0008616D01*
X0017403Y0008499D01*
X0017293Y0008385D01*
X0017180Y0008274D01*
X0017065Y0008165D01*
X0016947Y0008060D01*
X0016826Y0007958D01*
X0016703Y0007858D01*
X0016577Y0007762D01*
X0016449Y0007669D01*
X0016319Y0007579D01*
X0016186Y0007493D01*
X0016051Y0007409D01*
X0015915Y0007330D01*
X0015776Y0007253D01*
X0015635Y0007181D01*
X0015493Y0007111D01*
X0015349Y0007046D01*
X0015203Y0006984D01*
X0015056Y0006926D01*
X0014907Y0006871D01*
X0014757Y0006820D01*
X0014606Y0006773D01*
X0014454Y0006730D01*
X0014301Y0006691D01*
X0014146Y0006655D01*
X0013991Y0006624D01*
X0013835Y0006596D01*
X0013679Y0006572D01*
X0013522Y0006552D01*
X0013364Y0006536D01*
X0013207Y0006524D01*
X0013048Y0006516D01*
X0012890Y0006512D01*
X0012732Y0006512D01*
X0012574Y0006516D01*
X0012415Y0006524D01*
X0012258Y0006536D01*
X0012100Y0006552D01*
X0011943Y0006572D01*
X0011787Y0006596D01*
X0011631Y0006624D01*
X0011476Y0006655D01*
X0011321Y0006691D01*
X0011168Y0006730D01*
X0011016Y0006773D01*
X0010865Y0006820D01*
X0010715Y0006871D01*
X0010566Y0006926D01*
X0010419Y0006984D01*
X0010273Y0007046D01*
X0010129Y0007111D01*
X0009987Y0007181D01*
X0009846Y0007253D01*
X0009707Y0007330D01*
X0009571Y0007409D01*
X0009436Y0007493D01*
X0009303Y0007579D01*
X0009173Y0007669D01*
X0009045Y0007762D01*
X0008919Y0007858D01*
X0008796Y0007958D01*
X0008675Y0008060D01*
X0008557Y0008165D01*
X0008442Y0008274D01*
X0008329Y0008385D01*
X0008219Y0008499D01*
X0008112Y0008616D01*
X0008008Y0008735D01*
X0007907Y0008857D01*
X0007810Y0008982D01*
X0007715Y0009109D01*
X0007624Y0009238D01*
X0007535Y0009369D01*
X0007451Y0009503D01*
X0007369Y0009639D01*
X0007291Y0009776D01*
X0007217Y0009916D01*
X0007146Y0010058D01*
X0007078Y0010201D01*
X0007014Y0010346D01*
X0006954Y0010492D01*
X0006898Y0010640D01*
X0006845Y0010789D01*
X0006796Y0010940D01*
X0006751Y0011092D01*
X0006710Y0011245D01*
X0006672Y0011398D01*
X0006639Y0011553D01*
X0006609Y0011709D01*
X0006583Y0011865D01*
X0006562Y0012022D01*
X0006544Y0012179D01*
X0006530Y0012337D01*
X0006520Y0012495D01*
X0006514Y0012653D01*
X0006512Y0012811D01*
X0170409Y0042969D02*
X0170411Y0043100D01*
X0170417Y0043232D01*
X0170427Y0043363D01*
X0170441Y0043494D01*
X0170459Y0043624D01*
X0170481Y0043753D01*
X0170506Y0043882D01*
X0170536Y0044010D01*
X0170570Y0044137D01*
X0170607Y0044264D01*
X0170648Y0044388D01*
X0170693Y0044512D01*
X0170742Y0044634D01*
X0170794Y0044755D01*
X0170850Y0044873D01*
X0170910Y0044991D01*
X0170973Y0045106D01*
X0171040Y0045219D01*
X0171110Y0045331D01*
X0171183Y0045440D01*
X0171259Y0045546D01*
X0171339Y0045651D01*
X0171422Y0045753D01*
X0171508Y0045852D01*
X0171597Y0045949D01*
X0171689Y0046043D01*
X0171784Y0046134D01*
X0171881Y0046223D01*
X0171981Y0046308D01*
X0172084Y0046390D01*
X0172189Y0046469D01*
X0172296Y0046545D01*
X0172406Y0046617D01*
X0172518Y0046686D01*
X0172632Y0046752D01*
X0172747Y0046814D01*
X0172865Y0046873D01*
X0172984Y0046928D01*
X0173105Y0046980D01*
X0173228Y0047027D01*
X0173352Y0047071D01*
X0173477Y0047112D01*
X0173603Y0047148D01*
X0173731Y0047181D01*
X0173859Y0047209D01*
X0173988Y0047234D01*
X0174118Y0047255D01*
X0174248Y0047272D01*
X0174379Y0047285D01*
X0174510Y0047294D01*
X0174641Y0047299D01*
X0174773Y0047300D01*
X0174904Y0047297D01*
X0175036Y0047290D01*
X0175167Y0047279D01*
X0175297Y0047264D01*
X0175427Y0047245D01*
X0175557Y0047222D01*
X0175685Y0047196D01*
X0175813Y0047165D01*
X0175940Y0047130D01*
X0176066Y0047092D01*
X0176190Y0047050D01*
X0176314Y0047004D01*
X0176435Y0046954D01*
X0176555Y0046901D01*
X0176674Y0046844D01*
X0176791Y0046784D01*
X0176905Y0046720D01*
X0177018Y0046652D01*
X0177129Y0046581D01*
X0177238Y0046507D01*
X0177344Y0046430D01*
X0177448Y0046349D01*
X0177549Y0046266D01*
X0177648Y0046179D01*
X0177744Y0046089D01*
X0177837Y0045996D01*
X0177928Y0045901D01*
X0178015Y0045803D01*
X0178100Y0045702D01*
X0178181Y0045599D01*
X0178259Y0045493D01*
X0178334Y0045385D01*
X0178406Y0045275D01*
X0178474Y0045163D01*
X0178539Y0045049D01*
X0178600Y0044932D01*
X0178658Y0044814D01*
X0178712Y0044694D01*
X0178763Y0044573D01*
X0178810Y0044450D01*
X0178853Y0044326D01*
X0178892Y0044201D01*
X0178928Y0044074D01*
X0178959Y0043946D01*
X0178987Y0043818D01*
X0179011Y0043689D01*
X0179031Y0043559D01*
X0179047Y0043428D01*
X0179059Y0043297D01*
X0179067Y0043166D01*
X0179071Y0043035D01*
X0179071Y0042903D01*
X0179067Y0042772D01*
X0179059Y0042641D01*
X0179047Y0042510D01*
X0179031Y0042379D01*
X0179011Y0042249D01*
X0178987Y0042120D01*
X0178959Y0041992D01*
X0178928Y0041864D01*
X0178892Y0041737D01*
X0178853Y0041612D01*
X0178810Y0041488D01*
X0178763Y0041365D01*
X0178712Y0041244D01*
X0178658Y0041124D01*
X0178600Y0041006D01*
X0178539Y0040889D01*
X0178474Y0040775D01*
X0178406Y0040663D01*
X0178334Y0040553D01*
X0178259Y0040445D01*
X0178181Y0040339D01*
X0178100Y0040236D01*
X0178015Y0040135D01*
X0177928Y0040037D01*
X0177837Y0039942D01*
X0177744Y0039849D01*
X0177648Y0039759D01*
X0177549Y0039672D01*
X0177448Y0039589D01*
X0177344Y0039508D01*
X0177238Y0039431D01*
X0177129Y0039357D01*
X0177018Y0039286D01*
X0176906Y0039218D01*
X0176791Y0039154D01*
X0176674Y0039094D01*
X0176555Y0039037D01*
X0176435Y0038984D01*
X0176314Y0038934D01*
X0176190Y0038888D01*
X0176066Y0038846D01*
X0175940Y0038808D01*
X0175813Y0038773D01*
X0175685Y0038742D01*
X0175557Y0038716D01*
X0175427Y0038693D01*
X0175297Y0038674D01*
X0175167Y0038659D01*
X0175036Y0038648D01*
X0174904Y0038641D01*
X0174773Y0038638D01*
X0174641Y0038639D01*
X0174510Y0038644D01*
X0174379Y0038653D01*
X0174248Y0038666D01*
X0174118Y0038683D01*
X0173988Y0038704D01*
X0173859Y0038729D01*
X0173731Y0038757D01*
X0173603Y0038790D01*
X0173477Y0038826D01*
X0173352Y0038867D01*
X0173228Y0038911D01*
X0173105Y0038958D01*
X0172984Y0039010D01*
X0172865Y0039065D01*
X0172747Y0039124D01*
X0172632Y0039186D01*
X0172518Y0039252D01*
X0172406Y0039321D01*
X0172296Y0039393D01*
X0172189Y0039469D01*
X0172084Y0039548D01*
X0171981Y0039630D01*
X0171881Y0039715D01*
X0171784Y0039804D01*
X0171689Y0039895D01*
X0171597Y0039989D01*
X0171508Y0040086D01*
X0171422Y0040185D01*
X0171339Y0040287D01*
X0171259Y0040392D01*
X0171183Y0040498D01*
X0171110Y0040607D01*
X0171040Y0040719D01*
X0170973Y0040832D01*
X0170910Y0040947D01*
X0170850Y0041065D01*
X0170794Y0041183D01*
X0170742Y0041304D01*
X0170693Y0041426D01*
X0170648Y0041550D01*
X0170607Y0041674D01*
X0170570Y0041801D01*
X0170536Y0041928D01*
X0170506Y0042056D01*
X0170481Y0042185D01*
X0170459Y0042314D01*
X0170441Y0042444D01*
X0170427Y0042575D01*
X0170417Y0042706D01*
X0170411Y0042838D01*
X0170409Y0042969D01*
X0173559Y0069543D02*
X0173561Y0069674D01*
X0173567Y0069806D01*
X0173577Y0069937D01*
X0173591Y0070068D01*
X0173609Y0070198D01*
X0173631Y0070327D01*
X0173656Y0070456D01*
X0173686Y0070584D01*
X0173720Y0070711D01*
X0173757Y0070838D01*
X0173798Y0070962D01*
X0173843Y0071086D01*
X0173892Y0071208D01*
X0173944Y0071329D01*
X0174000Y0071447D01*
X0174060Y0071565D01*
X0174123Y0071680D01*
X0174190Y0071793D01*
X0174260Y0071905D01*
X0174333Y0072014D01*
X0174409Y0072120D01*
X0174489Y0072225D01*
X0174572Y0072327D01*
X0174658Y0072426D01*
X0174747Y0072523D01*
X0174839Y0072617D01*
X0174934Y0072708D01*
X0175031Y0072797D01*
X0175131Y0072882D01*
X0175234Y0072964D01*
X0175339Y0073043D01*
X0175446Y0073119D01*
X0175556Y0073191D01*
X0175668Y0073260D01*
X0175782Y0073326D01*
X0175897Y0073388D01*
X0176015Y0073447D01*
X0176134Y0073502D01*
X0176255Y0073554D01*
X0176378Y0073601D01*
X0176502Y0073645D01*
X0176627Y0073686D01*
X0176753Y0073722D01*
X0176881Y0073755D01*
X0177009Y0073783D01*
X0177138Y0073808D01*
X0177268Y0073829D01*
X0177398Y0073846D01*
X0177529Y0073859D01*
X0177660Y0073868D01*
X0177791Y0073873D01*
X0177923Y0073874D01*
X0178054Y0073871D01*
X0178186Y0073864D01*
X0178317Y0073853D01*
X0178447Y0073838D01*
X0178577Y0073819D01*
X0178707Y0073796D01*
X0178835Y0073770D01*
X0178963Y0073739D01*
X0179090Y0073704D01*
X0179216Y0073666D01*
X0179340Y0073624D01*
X0179464Y0073578D01*
X0179585Y0073528D01*
X0179705Y0073475D01*
X0179824Y0073418D01*
X0179941Y0073358D01*
X0180055Y0073294D01*
X0180168Y0073226D01*
X0180279Y0073155D01*
X0180388Y0073081D01*
X0180494Y0073004D01*
X0180598Y0072923D01*
X0180699Y0072840D01*
X0180798Y0072753D01*
X0180894Y0072663D01*
X0180987Y0072570D01*
X0181078Y0072475D01*
X0181165Y0072377D01*
X0181250Y0072276D01*
X0181331Y0072173D01*
X0181409Y0072067D01*
X0181484Y0071959D01*
X0181556Y0071849D01*
X0181624Y0071737D01*
X0181689Y0071623D01*
X0181750Y0071506D01*
X0181808Y0071388D01*
X0181862Y0071268D01*
X0181913Y0071147D01*
X0181960Y0071024D01*
X0182003Y0070900D01*
X0182042Y0070775D01*
X0182078Y0070648D01*
X0182109Y0070520D01*
X0182137Y0070392D01*
X0182161Y0070263D01*
X0182181Y0070133D01*
X0182197Y0070002D01*
X0182209Y0069871D01*
X0182217Y0069740D01*
X0182221Y0069609D01*
X0182221Y0069477D01*
X0182217Y0069346D01*
X0182209Y0069215D01*
X0182197Y0069084D01*
X0182181Y0068953D01*
X0182161Y0068823D01*
X0182137Y0068694D01*
X0182109Y0068566D01*
X0182078Y0068438D01*
X0182042Y0068311D01*
X0182003Y0068186D01*
X0181960Y0068062D01*
X0181913Y0067939D01*
X0181862Y0067818D01*
X0181808Y0067698D01*
X0181750Y0067580D01*
X0181689Y0067463D01*
X0181624Y0067349D01*
X0181556Y0067237D01*
X0181484Y0067127D01*
X0181409Y0067019D01*
X0181331Y0066913D01*
X0181250Y0066810D01*
X0181165Y0066709D01*
X0181078Y0066611D01*
X0180987Y0066516D01*
X0180894Y0066423D01*
X0180798Y0066333D01*
X0180699Y0066246D01*
X0180598Y0066163D01*
X0180494Y0066082D01*
X0180388Y0066005D01*
X0180279Y0065931D01*
X0180168Y0065860D01*
X0180056Y0065792D01*
X0179941Y0065728D01*
X0179824Y0065668D01*
X0179705Y0065611D01*
X0179585Y0065558D01*
X0179464Y0065508D01*
X0179340Y0065462D01*
X0179216Y0065420D01*
X0179090Y0065382D01*
X0178963Y0065347D01*
X0178835Y0065316D01*
X0178707Y0065290D01*
X0178577Y0065267D01*
X0178447Y0065248D01*
X0178317Y0065233D01*
X0178186Y0065222D01*
X0178054Y0065215D01*
X0177923Y0065212D01*
X0177791Y0065213D01*
X0177660Y0065218D01*
X0177529Y0065227D01*
X0177398Y0065240D01*
X0177268Y0065257D01*
X0177138Y0065278D01*
X0177009Y0065303D01*
X0176881Y0065331D01*
X0176753Y0065364D01*
X0176627Y0065400D01*
X0176502Y0065441D01*
X0176378Y0065485D01*
X0176255Y0065532D01*
X0176134Y0065584D01*
X0176015Y0065639D01*
X0175897Y0065698D01*
X0175782Y0065760D01*
X0175668Y0065826D01*
X0175556Y0065895D01*
X0175446Y0065967D01*
X0175339Y0066043D01*
X0175234Y0066122D01*
X0175131Y0066204D01*
X0175031Y0066289D01*
X0174934Y0066378D01*
X0174839Y0066469D01*
X0174747Y0066563D01*
X0174658Y0066660D01*
X0174572Y0066759D01*
X0174489Y0066861D01*
X0174409Y0066966D01*
X0174333Y0067072D01*
X0174260Y0067181D01*
X0174190Y0067293D01*
X0174123Y0067406D01*
X0174060Y0067521D01*
X0174000Y0067639D01*
X0173944Y0067757D01*
X0173892Y0067878D01*
X0173843Y0068000D01*
X0173798Y0068124D01*
X0173757Y0068248D01*
X0173720Y0068375D01*
X0173686Y0068502D01*
X0173656Y0068630D01*
X0173631Y0068759D01*
X0173609Y0068888D01*
X0173591Y0069018D01*
X0173577Y0069149D01*
X0173567Y0069280D01*
X0173561Y0069412D01*
X0173559Y0069543D01*
X0170409Y0096118D02*
X0170411Y0096249D01*
X0170417Y0096381D01*
X0170427Y0096512D01*
X0170441Y0096643D01*
X0170459Y0096773D01*
X0170481Y0096902D01*
X0170506Y0097031D01*
X0170536Y0097159D01*
X0170570Y0097286D01*
X0170607Y0097413D01*
X0170648Y0097537D01*
X0170693Y0097661D01*
X0170742Y0097783D01*
X0170794Y0097904D01*
X0170850Y0098022D01*
X0170910Y0098140D01*
X0170973Y0098255D01*
X0171040Y0098368D01*
X0171110Y0098480D01*
X0171183Y0098589D01*
X0171259Y0098695D01*
X0171339Y0098800D01*
X0171422Y0098902D01*
X0171508Y0099001D01*
X0171597Y0099098D01*
X0171689Y0099192D01*
X0171784Y0099283D01*
X0171881Y0099372D01*
X0171981Y0099457D01*
X0172084Y0099539D01*
X0172189Y0099618D01*
X0172296Y0099694D01*
X0172406Y0099766D01*
X0172518Y0099835D01*
X0172632Y0099901D01*
X0172747Y0099963D01*
X0172865Y0100022D01*
X0172984Y0100077D01*
X0173105Y0100129D01*
X0173228Y0100176D01*
X0173352Y0100220D01*
X0173477Y0100261D01*
X0173603Y0100297D01*
X0173731Y0100330D01*
X0173859Y0100358D01*
X0173988Y0100383D01*
X0174118Y0100404D01*
X0174248Y0100421D01*
X0174379Y0100434D01*
X0174510Y0100443D01*
X0174641Y0100448D01*
X0174773Y0100449D01*
X0174904Y0100446D01*
X0175036Y0100439D01*
X0175167Y0100428D01*
X0175297Y0100413D01*
X0175427Y0100394D01*
X0175557Y0100371D01*
X0175685Y0100345D01*
X0175813Y0100314D01*
X0175940Y0100279D01*
X0176066Y0100241D01*
X0176190Y0100199D01*
X0176314Y0100153D01*
X0176435Y0100103D01*
X0176555Y0100050D01*
X0176674Y0099993D01*
X0176791Y0099933D01*
X0176905Y0099869D01*
X0177018Y0099801D01*
X0177129Y0099730D01*
X0177238Y0099656D01*
X0177344Y0099579D01*
X0177448Y0099498D01*
X0177549Y0099415D01*
X0177648Y0099328D01*
X0177744Y0099238D01*
X0177837Y0099145D01*
X0177928Y0099050D01*
X0178015Y0098952D01*
X0178100Y0098851D01*
X0178181Y0098748D01*
X0178259Y0098642D01*
X0178334Y0098534D01*
X0178406Y0098424D01*
X0178474Y0098312D01*
X0178539Y0098198D01*
X0178600Y0098081D01*
X0178658Y0097963D01*
X0178712Y0097843D01*
X0178763Y0097722D01*
X0178810Y0097599D01*
X0178853Y0097475D01*
X0178892Y0097350D01*
X0178928Y0097223D01*
X0178959Y0097095D01*
X0178987Y0096967D01*
X0179011Y0096838D01*
X0179031Y0096708D01*
X0179047Y0096577D01*
X0179059Y0096446D01*
X0179067Y0096315D01*
X0179071Y0096184D01*
X0179071Y0096052D01*
X0179067Y0095921D01*
X0179059Y0095790D01*
X0179047Y0095659D01*
X0179031Y0095528D01*
X0179011Y0095398D01*
X0178987Y0095269D01*
X0178959Y0095141D01*
X0178928Y0095013D01*
X0178892Y0094886D01*
X0178853Y0094761D01*
X0178810Y0094637D01*
X0178763Y0094514D01*
X0178712Y0094393D01*
X0178658Y0094273D01*
X0178600Y0094155D01*
X0178539Y0094038D01*
X0178474Y0093924D01*
X0178406Y0093812D01*
X0178334Y0093702D01*
X0178259Y0093594D01*
X0178181Y0093488D01*
X0178100Y0093385D01*
X0178015Y0093284D01*
X0177928Y0093186D01*
X0177837Y0093091D01*
X0177744Y0092998D01*
X0177648Y0092908D01*
X0177549Y0092821D01*
X0177448Y0092738D01*
X0177344Y0092657D01*
X0177238Y0092580D01*
X0177129Y0092506D01*
X0177018Y0092435D01*
X0176906Y0092367D01*
X0176791Y0092303D01*
X0176674Y0092243D01*
X0176555Y0092186D01*
X0176435Y0092133D01*
X0176314Y0092083D01*
X0176190Y0092037D01*
X0176066Y0091995D01*
X0175940Y0091957D01*
X0175813Y0091922D01*
X0175685Y0091891D01*
X0175557Y0091865D01*
X0175427Y0091842D01*
X0175297Y0091823D01*
X0175167Y0091808D01*
X0175036Y0091797D01*
X0174904Y0091790D01*
X0174773Y0091787D01*
X0174641Y0091788D01*
X0174510Y0091793D01*
X0174379Y0091802D01*
X0174248Y0091815D01*
X0174118Y0091832D01*
X0173988Y0091853D01*
X0173859Y0091878D01*
X0173731Y0091906D01*
X0173603Y0091939D01*
X0173477Y0091975D01*
X0173352Y0092016D01*
X0173228Y0092060D01*
X0173105Y0092107D01*
X0172984Y0092159D01*
X0172865Y0092214D01*
X0172747Y0092273D01*
X0172632Y0092335D01*
X0172518Y0092401D01*
X0172406Y0092470D01*
X0172296Y0092542D01*
X0172189Y0092618D01*
X0172084Y0092697D01*
X0171981Y0092779D01*
X0171881Y0092864D01*
X0171784Y0092953D01*
X0171689Y0093044D01*
X0171597Y0093138D01*
X0171508Y0093235D01*
X0171422Y0093334D01*
X0171339Y0093436D01*
X0171259Y0093541D01*
X0171183Y0093647D01*
X0171110Y0093756D01*
X0171040Y0093868D01*
X0170973Y0093981D01*
X0170910Y0094096D01*
X0170850Y0094214D01*
X0170794Y0094332D01*
X0170742Y0094453D01*
X0170693Y0094575D01*
X0170648Y0094699D01*
X0170607Y0094823D01*
X0170570Y0094950D01*
X0170536Y0095077D01*
X0170506Y0095205D01*
X0170481Y0095334D01*
X0170459Y0095463D01*
X0170441Y0095593D01*
X0170427Y0095724D01*
X0170417Y0095855D01*
X0170411Y0095987D01*
X0170409Y0096118D01*
X0175803Y0016748D02*
X0175805Y0016906D01*
X0175811Y0017064D01*
X0175821Y0017222D01*
X0175835Y0017380D01*
X0175853Y0017537D01*
X0175874Y0017694D01*
X0175900Y0017850D01*
X0175930Y0018006D01*
X0175963Y0018161D01*
X0176001Y0018314D01*
X0176042Y0018467D01*
X0176087Y0018619D01*
X0176136Y0018770D01*
X0176189Y0018919D01*
X0176245Y0019067D01*
X0176305Y0019213D01*
X0176369Y0019358D01*
X0176437Y0019501D01*
X0176508Y0019643D01*
X0176582Y0019783D01*
X0176660Y0019920D01*
X0176742Y0020056D01*
X0176826Y0020190D01*
X0176915Y0020321D01*
X0177006Y0020450D01*
X0177101Y0020577D01*
X0177198Y0020702D01*
X0177299Y0020824D01*
X0177403Y0020943D01*
X0177510Y0021060D01*
X0177620Y0021174D01*
X0177733Y0021285D01*
X0177848Y0021394D01*
X0177966Y0021499D01*
X0178087Y0021601D01*
X0178210Y0021701D01*
X0178336Y0021797D01*
X0178464Y0021890D01*
X0178594Y0021980D01*
X0178727Y0022066D01*
X0178862Y0022150D01*
X0178998Y0022229D01*
X0179137Y0022306D01*
X0179278Y0022378D01*
X0179420Y0022448D01*
X0179564Y0022513D01*
X0179710Y0022575D01*
X0179857Y0022633D01*
X0180006Y0022688D01*
X0180156Y0022739D01*
X0180307Y0022786D01*
X0180459Y0022829D01*
X0180612Y0022868D01*
X0180767Y0022904D01*
X0180922Y0022935D01*
X0181078Y0022963D01*
X0181234Y0022987D01*
X0181391Y0023007D01*
X0181549Y0023023D01*
X0181706Y0023035D01*
X0181865Y0023043D01*
X0182023Y0023047D01*
X0182181Y0023047D01*
X0182339Y0023043D01*
X0182498Y0023035D01*
X0182655Y0023023D01*
X0182813Y0023007D01*
X0182970Y0022987D01*
X0183126Y0022963D01*
X0183282Y0022935D01*
X0183437Y0022904D01*
X0183592Y0022868D01*
X0183745Y0022829D01*
X0183897Y0022786D01*
X0184048Y0022739D01*
X0184198Y0022688D01*
X0184347Y0022633D01*
X0184494Y0022575D01*
X0184640Y0022513D01*
X0184784Y0022448D01*
X0184926Y0022378D01*
X0185067Y0022306D01*
X0185206Y0022229D01*
X0185342Y0022150D01*
X0185477Y0022066D01*
X0185610Y0021980D01*
X0185740Y0021890D01*
X0185868Y0021797D01*
X0185994Y0021701D01*
X0186117Y0021601D01*
X0186238Y0021499D01*
X0186356Y0021394D01*
X0186471Y0021285D01*
X0186584Y0021174D01*
X0186694Y0021060D01*
X0186801Y0020943D01*
X0186905Y0020824D01*
X0187006Y0020702D01*
X0187103Y0020577D01*
X0187198Y0020450D01*
X0187289Y0020321D01*
X0187378Y0020190D01*
X0187462Y0020056D01*
X0187544Y0019920D01*
X0187622Y0019783D01*
X0187696Y0019643D01*
X0187767Y0019501D01*
X0187835Y0019358D01*
X0187899Y0019213D01*
X0187959Y0019067D01*
X0188015Y0018919D01*
X0188068Y0018770D01*
X0188117Y0018619D01*
X0188162Y0018467D01*
X0188203Y0018314D01*
X0188241Y0018161D01*
X0188274Y0018006D01*
X0188304Y0017850D01*
X0188330Y0017694D01*
X0188351Y0017537D01*
X0188369Y0017380D01*
X0188383Y0017222D01*
X0188393Y0017064D01*
X0188399Y0016906D01*
X0188401Y0016748D01*
X0188399Y0016590D01*
X0188393Y0016432D01*
X0188383Y0016274D01*
X0188369Y0016116D01*
X0188351Y0015959D01*
X0188330Y0015802D01*
X0188304Y0015646D01*
X0188274Y0015490D01*
X0188241Y0015335D01*
X0188203Y0015182D01*
X0188162Y0015029D01*
X0188117Y0014877D01*
X0188068Y0014726D01*
X0188015Y0014577D01*
X0187959Y0014429D01*
X0187899Y0014283D01*
X0187835Y0014138D01*
X0187767Y0013995D01*
X0187696Y0013853D01*
X0187622Y0013713D01*
X0187544Y0013576D01*
X0187462Y0013440D01*
X0187378Y0013306D01*
X0187289Y0013175D01*
X0187198Y0013046D01*
X0187103Y0012919D01*
X0187006Y0012794D01*
X0186905Y0012672D01*
X0186801Y0012553D01*
X0186694Y0012436D01*
X0186584Y0012322D01*
X0186471Y0012211D01*
X0186356Y0012102D01*
X0186238Y0011997D01*
X0186117Y0011895D01*
X0185994Y0011795D01*
X0185868Y0011699D01*
X0185740Y0011606D01*
X0185610Y0011516D01*
X0185477Y0011430D01*
X0185342Y0011346D01*
X0185206Y0011267D01*
X0185067Y0011190D01*
X0184926Y0011118D01*
X0184784Y0011048D01*
X0184640Y0010983D01*
X0184494Y0010921D01*
X0184347Y0010863D01*
X0184198Y0010808D01*
X0184048Y0010757D01*
X0183897Y0010710D01*
X0183745Y0010667D01*
X0183592Y0010628D01*
X0183437Y0010592D01*
X0183282Y0010561D01*
X0183126Y0010533D01*
X0182970Y0010509D01*
X0182813Y0010489D01*
X0182655Y0010473D01*
X0182498Y0010461D01*
X0182339Y0010453D01*
X0182181Y0010449D01*
X0182023Y0010449D01*
X0181865Y0010453D01*
X0181706Y0010461D01*
X0181549Y0010473D01*
X0181391Y0010489D01*
X0181234Y0010509D01*
X0181078Y0010533D01*
X0180922Y0010561D01*
X0180767Y0010592D01*
X0180612Y0010628D01*
X0180459Y0010667D01*
X0180307Y0010710D01*
X0180156Y0010757D01*
X0180006Y0010808D01*
X0179857Y0010863D01*
X0179710Y0010921D01*
X0179564Y0010983D01*
X0179420Y0011048D01*
X0179278Y0011118D01*
X0179137Y0011190D01*
X0178998Y0011267D01*
X0178862Y0011346D01*
X0178727Y0011430D01*
X0178594Y0011516D01*
X0178464Y0011606D01*
X0178336Y0011699D01*
X0178210Y0011795D01*
X0178087Y0011895D01*
X0177966Y0011997D01*
X0177848Y0012102D01*
X0177733Y0012211D01*
X0177620Y0012322D01*
X0177510Y0012436D01*
X0177403Y0012553D01*
X0177299Y0012672D01*
X0177198Y0012794D01*
X0177101Y0012919D01*
X0177006Y0013046D01*
X0176915Y0013175D01*
X0176826Y0013306D01*
X0176742Y0013440D01*
X0176660Y0013576D01*
X0176582Y0013713D01*
X0176508Y0013853D01*
X0176437Y0013995D01*
X0176369Y0014138D01*
X0176305Y0014283D01*
X0176245Y0014429D01*
X0176189Y0014577D01*
X0176136Y0014726D01*
X0176087Y0014877D01*
X0176042Y0015029D01*
X0176001Y0015182D01*
X0175963Y0015335D01*
X0175930Y0015490D01*
X0175900Y0015646D01*
X0175874Y0015802D01*
X0175853Y0015959D01*
X0175835Y0016116D01*
X0175821Y0016274D01*
X0175811Y0016432D01*
X0175805Y0016590D01*
X0175803Y0016748D01*
X0179740Y0623047D02*
X0179742Y0623205D01*
X0179748Y0623363D01*
X0179758Y0623521D01*
X0179772Y0623679D01*
X0179790Y0623836D01*
X0179811Y0623993D01*
X0179837Y0624149D01*
X0179867Y0624305D01*
X0179900Y0624460D01*
X0179938Y0624613D01*
X0179979Y0624766D01*
X0180024Y0624918D01*
X0180073Y0625069D01*
X0180126Y0625218D01*
X0180182Y0625366D01*
X0180242Y0625512D01*
X0180306Y0625657D01*
X0180374Y0625800D01*
X0180445Y0625942D01*
X0180519Y0626082D01*
X0180597Y0626219D01*
X0180679Y0626355D01*
X0180763Y0626489D01*
X0180852Y0626620D01*
X0180943Y0626749D01*
X0181038Y0626876D01*
X0181135Y0627001D01*
X0181236Y0627123D01*
X0181340Y0627242D01*
X0181447Y0627359D01*
X0181557Y0627473D01*
X0181670Y0627584D01*
X0181785Y0627693D01*
X0181903Y0627798D01*
X0182024Y0627900D01*
X0182147Y0628000D01*
X0182273Y0628096D01*
X0182401Y0628189D01*
X0182531Y0628279D01*
X0182664Y0628365D01*
X0182799Y0628449D01*
X0182935Y0628528D01*
X0183074Y0628605D01*
X0183215Y0628677D01*
X0183357Y0628747D01*
X0183501Y0628812D01*
X0183647Y0628874D01*
X0183794Y0628932D01*
X0183943Y0628987D01*
X0184093Y0629038D01*
X0184244Y0629085D01*
X0184396Y0629128D01*
X0184549Y0629167D01*
X0184704Y0629203D01*
X0184859Y0629234D01*
X0185015Y0629262D01*
X0185171Y0629286D01*
X0185328Y0629306D01*
X0185486Y0629322D01*
X0185643Y0629334D01*
X0185802Y0629342D01*
X0185960Y0629346D01*
X0186118Y0629346D01*
X0186276Y0629342D01*
X0186435Y0629334D01*
X0186592Y0629322D01*
X0186750Y0629306D01*
X0186907Y0629286D01*
X0187063Y0629262D01*
X0187219Y0629234D01*
X0187374Y0629203D01*
X0187529Y0629167D01*
X0187682Y0629128D01*
X0187834Y0629085D01*
X0187985Y0629038D01*
X0188135Y0628987D01*
X0188284Y0628932D01*
X0188431Y0628874D01*
X0188577Y0628812D01*
X0188721Y0628747D01*
X0188863Y0628677D01*
X0189004Y0628605D01*
X0189143Y0628528D01*
X0189279Y0628449D01*
X0189414Y0628365D01*
X0189547Y0628279D01*
X0189677Y0628189D01*
X0189805Y0628096D01*
X0189931Y0628000D01*
X0190054Y0627900D01*
X0190175Y0627798D01*
X0190293Y0627693D01*
X0190408Y0627584D01*
X0190521Y0627473D01*
X0190631Y0627359D01*
X0190738Y0627242D01*
X0190842Y0627123D01*
X0190943Y0627001D01*
X0191040Y0626876D01*
X0191135Y0626749D01*
X0191226Y0626620D01*
X0191315Y0626489D01*
X0191399Y0626355D01*
X0191481Y0626219D01*
X0191559Y0626082D01*
X0191633Y0625942D01*
X0191704Y0625800D01*
X0191772Y0625657D01*
X0191836Y0625512D01*
X0191896Y0625366D01*
X0191952Y0625218D01*
X0192005Y0625069D01*
X0192054Y0624918D01*
X0192099Y0624766D01*
X0192140Y0624613D01*
X0192178Y0624460D01*
X0192211Y0624305D01*
X0192241Y0624149D01*
X0192267Y0623993D01*
X0192288Y0623836D01*
X0192306Y0623679D01*
X0192320Y0623521D01*
X0192330Y0623363D01*
X0192336Y0623205D01*
X0192338Y0623047D01*
X0192336Y0622889D01*
X0192330Y0622731D01*
X0192320Y0622573D01*
X0192306Y0622415D01*
X0192288Y0622258D01*
X0192267Y0622101D01*
X0192241Y0621945D01*
X0192211Y0621789D01*
X0192178Y0621634D01*
X0192140Y0621481D01*
X0192099Y0621328D01*
X0192054Y0621176D01*
X0192005Y0621025D01*
X0191952Y0620876D01*
X0191896Y0620728D01*
X0191836Y0620582D01*
X0191772Y0620437D01*
X0191704Y0620294D01*
X0191633Y0620152D01*
X0191559Y0620012D01*
X0191481Y0619875D01*
X0191399Y0619739D01*
X0191315Y0619605D01*
X0191226Y0619474D01*
X0191135Y0619345D01*
X0191040Y0619218D01*
X0190943Y0619093D01*
X0190842Y0618971D01*
X0190738Y0618852D01*
X0190631Y0618735D01*
X0190521Y0618621D01*
X0190408Y0618510D01*
X0190293Y0618401D01*
X0190175Y0618296D01*
X0190054Y0618194D01*
X0189931Y0618094D01*
X0189805Y0617998D01*
X0189677Y0617905D01*
X0189547Y0617815D01*
X0189414Y0617729D01*
X0189279Y0617645D01*
X0189143Y0617566D01*
X0189004Y0617489D01*
X0188863Y0617417D01*
X0188721Y0617347D01*
X0188577Y0617282D01*
X0188431Y0617220D01*
X0188284Y0617162D01*
X0188135Y0617107D01*
X0187985Y0617056D01*
X0187834Y0617009D01*
X0187682Y0616966D01*
X0187529Y0616927D01*
X0187374Y0616891D01*
X0187219Y0616860D01*
X0187063Y0616832D01*
X0186907Y0616808D01*
X0186750Y0616788D01*
X0186592Y0616772D01*
X0186435Y0616760D01*
X0186276Y0616752D01*
X0186118Y0616748D01*
X0185960Y0616748D01*
X0185802Y0616752D01*
X0185643Y0616760D01*
X0185486Y0616772D01*
X0185328Y0616788D01*
X0185171Y0616808D01*
X0185015Y0616832D01*
X0184859Y0616860D01*
X0184704Y0616891D01*
X0184549Y0616927D01*
X0184396Y0616966D01*
X0184244Y0617009D01*
X0184093Y0617056D01*
X0183943Y0617107D01*
X0183794Y0617162D01*
X0183647Y0617220D01*
X0183501Y0617282D01*
X0183357Y0617347D01*
X0183215Y0617417D01*
X0183074Y0617489D01*
X0182935Y0617566D01*
X0182799Y0617645D01*
X0182664Y0617729D01*
X0182531Y0617815D01*
X0182401Y0617905D01*
X0182273Y0617998D01*
X0182147Y0618094D01*
X0182024Y0618194D01*
X0181903Y0618296D01*
X0181785Y0618401D01*
X0181670Y0618510D01*
X0181557Y0618621D01*
X0181447Y0618735D01*
X0181340Y0618852D01*
X0181236Y0618971D01*
X0181135Y0619093D01*
X0181038Y0619218D01*
X0180943Y0619345D01*
X0180852Y0619474D01*
X0180763Y0619605D01*
X0180679Y0619739D01*
X0180597Y0619875D01*
X0180519Y0620012D01*
X0180445Y0620152D01*
X0180374Y0620294D01*
X0180306Y0620437D01*
X0180242Y0620582D01*
X0180182Y0620728D01*
X0180126Y0620876D01*
X0180073Y0621025D01*
X0180024Y0621176D01*
X0179979Y0621328D01*
X0179938Y0621481D01*
X0179900Y0621634D01*
X0179867Y0621789D01*
X0179837Y0621945D01*
X0179811Y0622101D01*
X0179790Y0622258D01*
X0179772Y0622415D01*
X0179758Y0622573D01*
X0179748Y0622731D01*
X0179742Y0622889D01*
X0179740Y0623047D01*
X0006512Y0623047D02*
X0006514Y0623205D01*
X0006520Y0623363D01*
X0006530Y0623521D01*
X0006544Y0623679D01*
X0006562Y0623836D01*
X0006583Y0623993D01*
X0006609Y0624149D01*
X0006639Y0624305D01*
X0006672Y0624460D01*
X0006710Y0624613D01*
X0006751Y0624766D01*
X0006796Y0624918D01*
X0006845Y0625069D01*
X0006898Y0625218D01*
X0006954Y0625366D01*
X0007014Y0625512D01*
X0007078Y0625657D01*
X0007146Y0625800D01*
X0007217Y0625942D01*
X0007291Y0626082D01*
X0007369Y0626219D01*
X0007451Y0626355D01*
X0007535Y0626489D01*
X0007624Y0626620D01*
X0007715Y0626749D01*
X0007810Y0626876D01*
X0007907Y0627001D01*
X0008008Y0627123D01*
X0008112Y0627242D01*
X0008219Y0627359D01*
X0008329Y0627473D01*
X0008442Y0627584D01*
X0008557Y0627693D01*
X0008675Y0627798D01*
X0008796Y0627900D01*
X0008919Y0628000D01*
X0009045Y0628096D01*
X0009173Y0628189D01*
X0009303Y0628279D01*
X0009436Y0628365D01*
X0009571Y0628449D01*
X0009707Y0628528D01*
X0009846Y0628605D01*
X0009987Y0628677D01*
X0010129Y0628747D01*
X0010273Y0628812D01*
X0010419Y0628874D01*
X0010566Y0628932D01*
X0010715Y0628987D01*
X0010865Y0629038D01*
X0011016Y0629085D01*
X0011168Y0629128D01*
X0011321Y0629167D01*
X0011476Y0629203D01*
X0011631Y0629234D01*
X0011787Y0629262D01*
X0011943Y0629286D01*
X0012100Y0629306D01*
X0012258Y0629322D01*
X0012415Y0629334D01*
X0012574Y0629342D01*
X0012732Y0629346D01*
X0012890Y0629346D01*
X0013048Y0629342D01*
X0013207Y0629334D01*
X0013364Y0629322D01*
X0013522Y0629306D01*
X0013679Y0629286D01*
X0013835Y0629262D01*
X0013991Y0629234D01*
X0014146Y0629203D01*
X0014301Y0629167D01*
X0014454Y0629128D01*
X0014606Y0629085D01*
X0014757Y0629038D01*
X0014907Y0628987D01*
X0015056Y0628932D01*
X0015203Y0628874D01*
X0015349Y0628812D01*
X0015493Y0628747D01*
X0015635Y0628677D01*
X0015776Y0628605D01*
X0015915Y0628528D01*
X0016051Y0628449D01*
X0016186Y0628365D01*
X0016319Y0628279D01*
X0016449Y0628189D01*
X0016577Y0628096D01*
X0016703Y0628000D01*
X0016826Y0627900D01*
X0016947Y0627798D01*
X0017065Y0627693D01*
X0017180Y0627584D01*
X0017293Y0627473D01*
X0017403Y0627359D01*
X0017510Y0627242D01*
X0017614Y0627123D01*
X0017715Y0627001D01*
X0017812Y0626876D01*
X0017907Y0626749D01*
X0017998Y0626620D01*
X0018087Y0626489D01*
X0018171Y0626355D01*
X0018253Y0626219D01*
X0018331Y0626082D01*
X0018405Y0625942D01*
X0018476Y0625800D01*
X0018544Y0625657D01*
X0018608Y0625512D01*
X0018668Y0625366D01*
X0018724Y0625218D01*
X0018777Y0625069D01*
X0018826Y0624918D01*
X0018871Y0624766D01*
X0018912Y0624613D01*
X0018950Y0624460D01*
X0018983Y0624305D01*
X0019013Y0624149D01*
X0019039Y0623993D01*
X0019060Y0623836D01*
X0019078Y0623679D01*
X0019092Y0623521D01*
X0019102Y0623363D01*
X0019108Y0623205D01*
X0019110Y0623047D01*
X0019108Y0622889D01*
X0019102Y0622731D01*
X0019092Y0622573D01*
X0019078Y0622415D01*
X0019060Y0622258D01*
X0019039Y0622101D01*
X0019013Y0621945D01*
X0018983Y0621789D01*
X0018950Y0621634D01*
X0018912Y0621481D01*
X0018871Y0621328D01*
X0018826Y0621176D01*
X0018777Y0621025D01*
X0018724Y0620876D01*
X0018668Y0620728D01*
X0018608Y0620582D01*
X0018544Y0620437D01*
X0018476Y0620294D01*
X0018405Y0620152D01*
X0018331Y0620012D01*
X0018253Y0619875D01*
X0018171Y0619739D01*
X0018087Y0619605D01*
X0017998Y0619474D01*
X0017907Y0619345D01*
X0017812Y0619218D01*
X0017715Y0619093D01*
X0017614Y0618971D01*
X0017510Y0618852D01*
X0017403Y0618735D01*
X0017293Y0618621D01*
X0017180Y0618510D01*
X0017065Y0618401D01*
X0016947Y0618296D01*
X0016826Y0618194D01*
X0016703Y0618094D01*
X0016577Y0617998D01*
X0016449Y0617905D01*
X0016319Y0617815D01*
X0016186Y0617729D01*
X0016051Y0617645D01*
X0015915Y0617566D01*
X0015776Y0617489D01*
X0015635Y0617417D01*
X0015493Y0617347D01*
X0015349Y0617282D01*
X0015203Y0617220D01*
X0015056Y0617162D01*
X0014907Y0617107D01*
X0014757Y0617056D01*
X0014606Y0617009D01*
X0014454Y0616966D01*
X0014301Y0616927D01*
X0014146Y0616891D01*
X0013991Y0616860D01*
X0013835Y0616832D01*
X0013679Y0616808D01*
X0013522Y0616788D01*
X0013364Y0616772D01*
X0013207Y0616760D01*
X0013048Y0616752D01*
X0012890Y0616748D01*
X0012732Y0616748D01*
X0012574Y0616752D01*
X0012415Y0616760D01*
X0012258Y0616772D01*
X0012100Y0616788D01*
X0011943Y0616808D01*
X0011787Y0616832D01*
X0011631Y0616860D01*
X0011476Y0616891D01*
X0011321Y0616927D01*
X0011168Y0616966D01*
X0011016Y0617009D01*
X0010865Y0617056D01*
X0010715Y0617107D01*
X0010566Y0617162D01*
X0010419Y0617220D01*
X0010273Y0617282D01*
X0010129Y0617347D01*
X0009987Y0617417D01*
X0009846Y0617489D01*
X0009707Y0617566D01*
X0009571Y0617645D01*
X0009436Y0617729D01*
X0009303Y0617815D01*
X0009173Y0617905D01*
X0009045Y0617998D01*
X0008919Y0618094D01*
X0008796Y0618194D01*
X0008675Y0618296D01*
X0008557Y0618401D01*
X0008442Y0618510D01*
X0008329Y0618621D01*
X0008219Y0618735D01*
X0008112Y0618852D01*
X0008008Y0618971D01*
X0007907Y0619093D01*
X0007810Y0619218D01*
X0007715Y0619345D01*
X0007624Y0619474D01*
X0007535Y0619605D01*
X0007451Y0619739D01*
X0007369Y0619875D01*
X0007291Y0620012D01*
X0007217Y0620152D01*
X0007146Y0620294D01*
X0007078Y0620437D01*
X0007014Y0620582D01*
X0006954Y0620728D01*
X0006898Y0620876D01*
X0006845Y0621025D01*
X0006796Y0621176D01*
X0006751Y0621328D01*
X0006710Y0621481D01*
X0006672Y0621634D01*
X0006639Y0621789D01*
X0006609Y0621945D01*
X0006583Y0622101D01*
X0006562Y0622258D01*
X0006544Y0622415D01*
X0006530Y0622573D01*
X0006520Y0622731D01*
X0006514Y0622889D01*
X0006512Y0623047D01*
D11*
X0186339Y0609000D02*
X0186339Y0607933D01*
X0187407Y0606865D01*
X0189542Y0606865D01*
X0190610Y0605797D01*
X0190610Y0604730D01*
X0189542Y0603662D01*
X0187407Y0603662D01*
X0186339Y0604730D01*
X0186339Y0609000D02*
X0187407Y0610068D01*
X0189542Y0610068D01*
X0190610Y0609000D01*
X0189542Y0543139D02*
X0186339Y0543139D01*
X0186339Y0536733D01*
X0186339Y0538868D02*
X0189542Y0538868D01*
X0190610Y0539936D01*
X0190610Y0542071D01*
X0189542Y0543139D01*
X0188475Y0538868D02*
X0190610Y0536733D01*
X0189542Y0472272D02*
X0187407Y0472272D01*
X0186339Y0471205D01*
X0186339Y0466934D01*
X0187407Y0465867D01*
X0189542Y0465867D01*
X0190610Y0466934D01*
X0190610Y0469070D01*
X0188475Y0469070D01*
X0190610Y0471205D02*
X0189542Y0472272D01*
X0189542Y0393532D02*
X0186339Y0393532D01*
X0186339Y0387127D01*
X0189542Y0387127D01*
X0190610Y0388194D01*
X0190610Y0389262D01*
X0189542Y0390330D01*
X0186339Y0390330D01*
X0189542Y0390330D02*
X0190610Y0391397D01*
X0190610Y0392465D01*
X0189542Y0393532D01*
X0189542Y0228178D02*
X0186339Y0228178D01*
X0186339Y0221772D01*
X0186339Y0223908D02*
X0189542Y0223908D01*
X0190610Y0224975D01*
X0190610Y0227110D01*
X0189542Y0228178D01*
X0188475Y0223908D02*
X0190610Y0221772D01*
X0186339Y0169123D02*
X0186339Y0162717D01*
X0190610Y0162717D01*
D12*
X0085213Y0127260D03*
X0085213Y0097260D03*
X0056591Y0167890D03*
X0026591Y0167890D03*
D13*
X0026865Y0148087D02*
X0032065Y0148087D01*
X0032065Y0138087D02*
X0026865Y0138087D01*
X0026865Y0128087D02*
X0032065Y0128087D01*
X0032065Y0118087D02*
X0026865Y0118087D01*
X0056865Y0118087D02*
X0062065Y0118087D01*
X0062065Y0128087D02*
X0056865Y0128087D01*
X0056865Y0138087D02*
X0062065Y0138087D01*
X0062065Y0148087D02*
X0056865Y0148087D01*
D14*
X0028761Y0220213D02*
X0023161Y0220213D01*
X0023161Y0230213D02*
X0028761Y0230213D01*
X0028761Y0240213D02*
X0023161Y0240213D01*
X0023043Y0253992D02*
X0028643Y0253992D01*
X0028643Y0263992D02*
X0023043Y0263992D01*
X0023043Y0273992D02*
X0028643Y0273992D01*
X0028643Y0283992D02*
X0023043Y0283992D01*
X0023161Y0452929D02*
X0028761Y0452929D01*
X0028761Y0462929D02*
X0023161Y0462929D01*
X0023161Y0472929D02*
X0028761Y0472929D01*
D15*
X0037457Y0486866D03*
X0037457Y0516866D03*
X0038835Y0536906D03*
X0028835Y0536906D03*
X0025764Y0187063D03*
X0055764Y0187063D03*
X0104386Y0118598D03*
X0104386Y0088598D03*
D16*
X0133638Y0017765D02*
X0133638Y0011165D01*
X0148638Y0011165D02*
X0148638Y0017765D01*
X0163638Y0017765D02*
X0163638Y0011165D01*
D17*
X0162929Y0056157D03*
X0162929Y0064425D03*
X0162929Y0074661D03*
X0162929Y0082929D03*
X0153087Y0082929D03*
X0153087Y0074661D03*
X0153087Y0066787D03*
X0153087Y0056157D03*
D18*
X0140606Y0142732D03*
X0140606Y0201787D03*
X0140606Y0367142D03*
X0140606Y0445882D03*
X0140606Y0516748D03*
X0140606Y0583677D03*
D19*
X0140606Y0561677D03*
X0140606Y0538748D03*
X0140606Y0494748D03*
X0140606Y0467882D03*
X0140606Y0423882D03*
X0140606Y0389142D03*
X0140606Y0345142D03*
X0170606Y0367142D03*
X0170606Y0445882D03*
X0170606Y0516748D03*
X0170606Y0583677D03*
X0140606Y0605677D03*
X0140606Y0223787D03*
X0140606Y0179787D03*
X0140606Y0164732D03*
X0140606Y0120732D03*
X0170606Y0142732D03*
X0170606Y0201787D03*
D20*
X0149954Y0192700D02*
X0140954Y0201700D01*
X0140606Y0201787D01*
X0149954Y0192700D02*
X0149954Y0107650D01*
X0167504Y0090100D01*
X0167504Y0080650D01*
X0163004Y0076150D01*
X0163004Y0074800D01*
X0162929Y0074661D01*
X0158054Y0076600D02*
X0162554Y0081100D01*
X0162554Y0082900D01*
X0162929Y0082929D01*
X0158054Y0076600D02*
X0158054Y0023500D01*
X0149054Y0014500D01*
X0148638Y0014465D01*
X0153087Y0056157D02*
X0152654Y0056350D01*
X0152654Y0060400D01*
X0091004Y0122050D01*
X0091004Y0189100D01*
X0026204Y0253900D01*
X0025843Y0253992D01*
X0026204Y0263800D02*
X0025843Y0263992D01*
X0026204Y0263800D02*
X0109004Y0181000D01*
X0109004Y0112150D01*
X0152654Y0068500D01*
X0152654Y0067150D01*
X0153087Y0066787D01*
X0153087Y0082929D02*
X0152654Y0083350D01*
X0152654Y0096850D01*
X0112154Y0137350D01*
X0112154Y0187750D01*
X0036779Y0263125D01*
X0140504Y0366850D01*
X0140606Y0367142D01*
X0140606Y0467882D02*
X0140504Y0468100D01*
X0140504Y0478900D01*
X0133304Y0486100D01*
X0132854Y0487000D01*
X0140504Y0494650D01*
X0140606Y0494748D01*
X0132854Y0487000D02*
X0037904Y0487000D01*
X0037457Y0486866D01*
X0028904Y0479350D02*
X0033404Y0474850D01*
X0033404Y0460450D01*
X0026204Y0453250D01*
X0025961Y0452929D01*
X0025304Y0452350D01*
X0014954Y0442000D01*
X0014954Y0133750D01*
X0029354Y0119350D01*
X0029354Y0118450D01*
X0029465Y0118087D01*
X0055764Y0187063D02*
X0055454Y0187300D01*
X0055454Y0210700D01*
X0026204Y0239950D01*
X0025961Y0240213D01*
X0018104Y0214300D02*
X0079304Y0153100D01*
X0079304Y0103150D01*
X0085154Y0097300D01*
X0085213Y0097260D01*
X0085604Y0096400D01*
X0133304Y0048700D01*
X0133304Y0014500D01*
X0133638Y0014465D01*
X0140606Y0120732D02*
X0140954Y0121150D01*
X0140954Y0134650D01*
X0146804Y0140500D01*
X0146804Y0158500D01*
X0140954Y0164350D01*
X0140606Y0164732D01*
X0036779Y0263125D02*
X0026204Y0273700D01*
X0025843Y0273992D01*
X0018104Y0275950D02*
X0025754Y0283600D01*
X0025843Y0283992D01*
X0018104Y0275950D02*
X0018104Y0214300D01*
X0028904Y0479350D02*
X0028904Y0536500D01*
X0028835Y0536906D01*
X0140606Y0561677D02*
X0140954Y0561700D01*
X0162554Y0583300D01*
X0170204Y0583300D01*
X0170606Y0583677D01*
D21*
X0169806Y0584457D02*
X0146331Y0584457D01*
X0146331Y0586049D02*
X0146331Y0581306D01*
X0142978Y0577952D01*
X0138235Y0577952D01*
X0134881Y0581306D01*
X0134881Y0586049D01*
X0138235Y0589402D01*
X0142978Y0589402D01*
X0146331Y0586049D01*
X0146325Y0586055D02*
X0162456Y0586055D01*
X0162456Y0587053D02*
X0162456Y0584477D01*
X0169806Y0584477D01*
X0169806Y0582877D01*
X0162456Y0582877D01*
X0162456Y0580301D01*
X0167230Y0575527D01*
X0169806Y0575527D01*
X0169806Y0582877D01*
X0171406Y0582877D01*
X0171406Y0575527D01*
X0173982Y0575527D01*
X0178165Y0579710D01*
X0178165Y0520715D01*
X0173982Y0524898D01*
X0171406Y0524898D01*
X0171406Y0517548D01*
X0169806Y0517548D01*
X0169806Y0515948D01*
X0162456Y0515948D01*
X0162456Y0513372D01*
X0167230Y0508598D01*
X0169806Y0508598D01*
X0169806Y0515948D01*
X0171406Y0515948D01*
X0171406Y0508598D01*
X0173982Y0508598D01*
X0178165Y0512781D01*
X0178165Y0449849D01*
X0173982Y0454032D01*
X0171406Y0454032D01*
X0171406Y0446682D01*
X0169806Y0446682D01*
X0169806Y0445082D01*
X0162456Y0445082D01*
X0162456Y0442506D01*
X0167230Y0437732D01*
X0169806Y0437732D01*
X0169806Y0445082D01*
X0171406Y0445082D01*
X0171406Y0437732D01*
X0173982Y0437732D01*
X0178165Y0441915D01*
X0178165Y0371108D01*
X0173982Y0375292D01*
X0171406Y0375292D01*
X0171406Y0367942D01*
X0169806Y0367942D01*
X0169806Y0366342D01*
X0162456Y0366342D01*
X0162456Y0363766D01*
X0167230Y0358992D01*
X0169806Y0358992D01*
X0169806Y0366342D01*
X0171406Y0366342D01*
X0171406Y0358992D01*
X0173982Y0358992D01*
X0178165Y0363175D01*
X0178165Y0205754D01*
X0173982Y0209937D01*
X0171406Y0209937D01*
X0171406Y0202587D01*
X0169806Y0202587D01*
X0169806Y0200987D01*
X0171406Y0200987D01*
X0171406Y0193637D01*
X0173982Y0193637D01*
X0178165Y0197821D01*
X0178165Y0146699D01*
X0173982Y0150882D01*
X0171406Y0150882D01*
X0171406Y0143532D01*
X0169806Y0143532D01*
X0169806Y0141932D01*
X0162456Y0141932D01*
X0162456Y0139356D01*
X0167230Y0134582D01*
X0169806Y0134582D01*
X0169806Y0141932D01*
X0171406Y0141932D01*
X0171406Y0134582D01*
X0173982Y0134582D01*
X0178165Y0138766D01*
X0178165Y0104582D01*
X0176556Y0105249D01*
X0172924Y0105249D01*
X0169568Y0103859D01*
X0167000Y0101290D01*
X0165609Y0097934D01*
X0165609Y0095649D01*
X0152538Y0108720D01*
X0152538Y0193214D01*
X0152145Y0194164D01*
X0146331Y0199977D01*
X0146331Y0204159D01*
X0142978Y0207512D01*
X0138235Y0207512D01*
X0134881Y0204159D01*
X0134881Y0199416D01*
X0138235Y0196062D01*
X0142937Y0196062D01*
X0147370Y0191630D01*
X0147370Y0184550D01*
X0143982Y0187937D01*
X0141406Y0187937D01*
X0141406Y0180587D01*
X0139806Y0180587D01*
X0139806Y0178987D01*
X0141406Y0178987D01*
X0141406Y0165532D01*
X0139806Y0165532D01*
X0139806Y0163932D01*
X0132456Y0163932D01*
X0132456Y0161356D01*
X0137230Y0156582D01*
X0139806Y0156582D01*
X0139806Y0163932D01*
X0141406Y0163932D01*
X0141406Y0156582D01*
X0143982Y0156582D01*
X0147370Y0159970D01*
X0147370Y0125495D01*
X0143982Y0128882D01*
X0141406Y0128882D01*
X0141406Y0121532D01*
X0139806Y0121532D01*
X0139806Y0119932D01*
X0133226Y0119932D01*
X0114738Y0138420D01*
X0114738Y0188264D01*
X0114345Y0189214D01*
X0040434Y0263125D01*
X0138725Y0361417D01*
X0142978Y0361417D01*
X0146331Y0364770D01*
X0146331Y0369513D01*
X0142978Y0372867D01*
X0138235Y0372867D01*
X0134881Y0369513D01*
X0134881Y0364882D01*
X0036779Y0266780D01*
X0032216Y0271343D01*
X0032373Y0271500D01*
X0033043Y0273117D01*
X0033043Y0274867D01*
X0032373Y0276485D01*
X0031135Y0277722D01*
X0029518Y0278392D01*
X0024201Y0278392D01*
X0025401Y0279592D01*
X0029518Y0279592D01*
X0031135Y0280262D01*
X0032373Y0281500D01*
X0033043Y0283117D01*
X0033043Y0284867D01*
X0032373Y0286485D01*
X0031135Y0287722D01*
X0029518Y0288392D01*
X0022167Y0288392D01*
X0020550Y0287722D01*
X0019312Y0286485D01*
X0018643Y0284867D01*
X0018643Y0283117D01*
X0019312Y0281500D01*
X0019656Y0281156D01*
X0017538Y0279039D01*
X0017538Y0440930D01*
X0025138Y0448529D01*
X0029636Y0448529D01*
X0031253Y0449199D01*
X0032491Y0450437D01*
X0033161Y0452054D01*
X0033161Y0453804D01*
X0032491Y0455422D01*
X0032260Y0455652D01*
X0035595Y0458986D01*
X0035988Y0459936D01*
X0035988Y0475364D01*
X0035595Y0476314D01*
X0034868Y0477041D01*
X0031488Y0480420D01*
X0031488Y0533619D01*
X0033035Y0535166D01*
X0033035Y0538645D01*
X0030574Y0541105D01*
X0027095Y0541105D01*
X0024635Y0538645D01*
X0024635Y0535166D01*
X0026320Y0533481D01*
X0026320Y0478836D01*
X0026713Y0477886D01*
X0027070Y0477529D01*
X0026061Y0477529D01*
X0026061Y0473029D01*
X0025861Y0473029D01*
X0025861Y0477529D01*
X0022799Y0477529D01*
X0022083Y0477416D01*
X0021395Y0477192D01*
X0020750Y0476863D01*
X0020164Y0476438D01*
X0019652Y0475926D01*
X0019226Y0475340D01*
X0018898Y0474695D01*
X0018674Y0474006D01*
X0018561Y0473291D01*
X0018561Y0473029D01*
X0025861Y0473029D01*
X0025861Y0472829D01*
X0026061Y0472829D01*
X0026061Y0468329D01*
X0029123Y0468329D01*
X0029838Y0468442D01*
X0030526Y0468666D01*
X0030820Y0468816D01*
X0030820Y0467043D01*
X0030526Y0467192D01*
X0029838Y0467416D01*
X0029123Y0467529D01*
X0026061Y0467529D01*
X0026061Y0463029D01*
X0025861Y0463029D01*
X0025861Y0467529D01*
X0022799Y0467529D01*
X0022083Y0467416D01*
X0021395Y0467192D01*
X0020750Y0466863D01*
X0020164Y0466438D01*
X0019652Y0465926D01*
X0019226Y0465340D01*
X0018898Y0464695D01*
X0018674Y0464006D01*
X0018561Y0463291D01*
X0018561Y0463029D01*
X0025861Y0463029D01*
X0025861Y0462829D01*
X0026061Y0462829D01*
X0026061Y0458329D01*
X0027628Y0458329D01*
X0026628Y0457329D01*
X0022285Y0457329D01*
X0020668Y0456659D01*
X0019430Y0455422D01*
X0018761Y0453804D01*
X0018761Y0452054D01*
X0019430Y0450437D01*
X0019583Y0450284D01*
X0012811Y0443512D01*
X0012811Y0611948D01*
X0014272Y0611948D01*
X0017095Y0612704D01*
X0019626Y0614166D01*
X0021693Y0616232D01*
X0023154Y0618763D01*
X0023910Y0621586D01*
X0023910Y0623047D01*
X0174940Y0623047D01*
X0174940Y0621586D01*
X0175697Y0618763D01*
X0177158Y0616232D01*
X0178165Y0615225D01*
X0178165Y0587644D01*
X0173982Y0591827D01*
X0171406Y0591827D01*
X0171406Y0584477D01*
X0169806Y0584477D01*
X0169806Y0591827D01*
X0167230Y0591827D01*
X0162456Y0587053D01*
X0163057Y0587654D02*
X0144726Y0587654D01*
X0143128Y0589252D02*
X0164655Y0589252D01*
X0166254Y0590851D02*
X0012811Y0590851D01*
X0012811Y0592449D02*
X0178165Y0592449D01*
X0178165Y0590851D02*
X0174959Y0590851D01*
X0176557Y0589252D02*
X0178165Y0589252D01*
X0178156Y0587654D02*
X0178165Y0587654D01*
X0178165Y0594048D02*
X0012811Y0594048D01*
X0012811Y0595646D02*
X0178165Y0595646D01*
X0178165Y0597245D02*
X0012811Y0597245D01*
X0012811Y0598843D02*
X0135914Y0598843D01*
X0137230Y0597527D02*
X0132456Y0602301D01*
X0132456Y0604877D01*
X0139806Y0604877D01*
X0139806Y0606477D01*
X0132456Y0606477D01*
X0132456Y0609053D01*
X0137230Y0613827D01*
X0139806Y0613827D01*
X0139806Y0606477D01*
X0141406Y0606477D01*
X0141406Y0613827D01*
X0143982Y0613827D01*
X0148756Y0609053D01*
X0148756Y0606477D01*
X0141406Y0606477D01*
X0141406Y0604877D01*
X0141406Y0597527D01*
X0143982Y0597527D01*
X0148756Y0602301D01*
X0148756Y0604877D01*
X0141406Y0604877D01*
X0139806Y0604877D01*
X0139806Y0597527D01*
X0137230Y0597527D01*
X0134316Y0600442D02*
X0012811Y0600442D01*
X0012811Y0602040D02*
X0132717Y0602040D01*
X0132456Y0603639D02*
X0012811Y0603639D01*
X0012811Y0605237D02*
X0139806Y0605237D01*
X0139806Y0603639D02*
X0141406Y0603639D01*
X0141406Y0605237D02*
X0178165Y0605237D01*
X0178165Y0603639D02*
X0148756Y0603639D01*
X0148495Y0602040D02*
X0178165Y0602040D01*
X0178165Y0600442D02*
X0146897Y0600442D01*
X0145298Y0598843D02*
X0178165Y0598843D01*
X0178165Y0606836D02*
X0148756Y0606836D01*
X0148756Y0608434D02*
X0178165Y0608434D01*
X0178165Y0610033D02*
X0147776Y0610033D01*
X0146178Y0611631D02*
X0178165Y0611631D01*
X0178165Y0613230D02*
X0144579Y0613230D01*
X0141406Y0613230D02*
X0139806Y0613230D01*
X0139806Y0611631D02*
X0141406Y0611631D01*
X0141406Y0610033D02*
X0139806Y0610033D01*
X0139806Y0608434D02*
X0141406Y0608434D01*
X0141406Y0606836D02*
X0139806Y0606836D01*
X0139806Y0602040D02*
X0141406Y0602040D01*
X0141406Y0600442D02*
X0139806Y0600442D01*
X0139806Y0598843D02*
X0141406Y0598843D01*
X0138085Y0589252D02*
X0012811Y0589252D01*
X0012811Y0587654D02*
X0136486Y0587654D01*
X0134888Y0586055D02*
X0012811Y0586055D01*
X0012811Y0584457D02*
X0134881Y0584457D01*
X0134881Y0582858D02*
X0012811Y0582858D01*
X0012811Y0581260D02*
X0134927Y0581260D01*
X0136526Y0579661D02*
X0012811Y0579661D01*
X0012811Y0578063D02*
X0138125Y0578063D01*
X0137230Y0569827D02*
X0132456Y0565053D01*
X0132456Y0562477D01*
X0139806Y0562477D01*
X0139806Y0560877D01*
X0132456Y0560877D01*
X0132456Y0558301D01*
X0137230Y0553527D01*
X0139806Y0553527D01*
X0139806Y0560877D01*
X0141406Y0560877D01*
X0141406Y0553527D01*
X0143982Y0553527D01*
X0148756Y0558301D01*
X0148756Y0560877D01*
X0141406Y0560877D01*
X0141406Y0562477D01*
X0139806Y0562477D01*
X0139806Y0569827D01*
X0137230Y0569827D01*
X0135875Y0568472D02*
X0012811Y0568472D01*
X0012811Y0570070D02*
X0178165Y0570070D01*
X0178165Y0568472D02*
X0145338Y0568472D01*
X0143982Y0569827D02*
X0141406Y0569827D01*
X0141406Y0562477D01*
X0148756Y0562477D01*
X0148756Y0565053D01*
X0143982Y0569827D01*
X0141406Y0568472D02*
X0139806Y0568472D01*
X0139806Y0566873D02*
X0141406Y0566873D01*
X0141406Y0565274D02*
X0139806Y0565274D01*
X0139806Y0563676D02*
X0141406Y0563676D01*
X0141406Y0562077D02*
X0178165Y0562077D01*
X0178165Y0560479D02*
X0148756Y0560479D01*
X0148756Y0558880D02*
X0178165Y0558880D01*
X0178165Y0557282D02*
X0147737Y0557282D01*
X0146138Y0555683D02*
X0178165Y0555683D01*
X0178165Y0554085D02*
X0144540Y0554085D01*
X0141406Y0554085D02*
X0139806Y0554085D01*
X0139806Y0555683D02*
X0141406Y0555683D01*
X0141406Y0557282D02*
X0139806Y0557282D01*
X0139806Y0558880D02*
X0141406Y0558880D01*
X0141406Y0560479D02*
X0139806Y0560479D01*
X0139806Y0562077D02*
X0012811Y0562077D01*
X0012811Y0560479D02*
X0132456Y0560479D01*
X0132456Y0558880D02*
X0012811Y0558880D01*
X0012811Y0557282D02*
X0133476Y0557282D01*
X0135074Y0555683D02*
X0012811Y0555683D01*
X0012811Y0554085D02*
X0136673Y0554085D01*
X0137230Y0546898D02*
X0132456Y0542124D01*
X0132456Y0539548D01*
X0139806Y0539548D01*
X0139806Y0537948D01*
X0132456Y0537948D01*
X0132456Y0535372D01*
X0137230Y0530598D01*
X0139806Y0530598D01*
X0139806Y0537948D01*
X0141406Y0537948D01*
X0141406Y0530598D01*
X0143982Y0530598D01*
X0148756Y0535372D01*
X0148756Y0537948D01*
X0141406Y0537948D01*
X0141406Y0539548D01*
X0139806Y0539548D01*
X0139806Y0546898D01*
X0137230Y0546898D01*
X0136425Y0546092D02*
X0012811Y0546092D01*
X0012811Y0544494D02*
X0134826Y0544494D01*
X0133228Y0542895D02*
X0012811Y0542895D01*
X0012811Y0541297D02*
X0132456Y0541297D01*
X0132456Y0539698D02*
X0041982Y0539698D01*
X0043035Y0538645D02*
X0040574Y0541105D01*
X0037095Y0541105D01*
X0034635Y0538645D01*
X0034635Y0535166D01*
X0037095Y0532706D01*
X0040574Y0532706D01*
X0043035Y0535166D01*
X0043035Y0538645D01*
X0043035Y0538100D02*
X0139806Y0538100D01*
X0139806Y0539698D02*
X0141406Y0539698D01*
X0141406Y0539548D02*
X0141406Y0546898D01*
X0143982Y0546898D01*
X0148756Y0542124D01*
X0148756Y0539548D01*
X0141406Y0539548D01*
X0141406Y0538100D02*
X0178165Y0538100D01*
X0178165Y0539698D02*
X0148756Y0539698D01*
X0148756Y0541297D02*
X0178165Y0541297D01*
X0178165Y0542895D02*
X0147985Y0542895D01*
X0146386Y0544494D02*
X0178165Y0544494D01*
X0178165Y0546092D02*
X0144788Y0546092D01*
X0141406Y0546092D02*
X0139806Y0546092D01*
X0139806Y0544494D02*
X0141406Y0544494D01*
X0141406Y0542895D02*
X0139806Y0542895D01*
X0139806Y0541297D02*
X0141406Y0541297D01*
X0141406Y0536501D02*
X0139806Y0536501D01*
X0139806Y0534903D02*
X0141406Y0534903D01*
X0141406Y0533304D02*
X0139806Y0533304D01*
X0139806Y0531706D02*
X0141406Y0531706D01*
X0145090Y0531706D02*
X0178165Y0531706D01*
X0178165Y0533304D02*
X0146688Y0533304D01*
X0148287Y0534903D02*
X0178165Y0534903D01*
X0178165Y0536501D02*
X0148756Y0536501D01*
X0142978Y0522473D02*
X0146331Y0519119D01*
X0146331Y0514377D01*
X0142978Y0511023D01*
X0138235Y0511023D01*
X0134881Y0514377D01*
X0134881Y0519119D01*
X0138235Y0522473D01*
X0142978Y0522473D01*
X0143336Y0522115D02*
X0164447Y0522115D01*
X0166046Y0523713D02*
X0031488Y0523713D01*
X0031488Y0522115D02*
X0137877Y0522115D01*
X0136278Y0520516D02*
X0039746Y0520516D01*
X0039196Y0521066D02*
X0035717Y0521066D01*
X0033257Y0518606D01*
X0033257Y0515126D01*
X0035717Y0512666D01*
X0039196Y0512666D01*
X0041657Y0515126D01*
X0041657Y0518606D01*
X0039196Y0521066D01*
X0041345Y0518918D02*
X0134881Y0518918D01*
X0134881Y0517319D02*
X0041657Y0517319D01*
X0041657Y0515721D02*
X0134881Y0515721D01*
X0135136Y0514122D02*
X0040652Y0514122D01*
X0035167Y0520516D02*
X0031488Y0520516D01*
X0031488Y0518918D02*
X0033569Y0518918D01*
X0033257Y0517319D02*
X0031488Y0517319D01*
X0031488Y0515721D02*
X0033257Y0515721D01*
X0034261Y0514122D02*
X0031488Y0514122D01*
X0031488Y0512524D02*
X0136734Y0512524D01*
X0137230Y0502898D02*
X0132456Y0498124D01*
X0132456Y0495548D01*
X0139806Y0495548D01*
X0139806Y0493948D01*
X0132456Y0493948D01*
X0132456Y0491372D01*
X0137230Y0486598D01*
X0139806Y0486598D01*
X0139806Y0493948D01*
X0141406Y0493948D01*
X0141406Y0486598D01*
X0143982Y0486598D01*
X0148756Y0491372D01*
X0148756Y0493948D01*
X0141406Y0493948D01*
X0141406Y0495548D01*
X0139806Y0495548D01*
X0139806Y0502898D01*
X0137230Y0502898D01*
X0135666Y0501334D02*
X0031488Y0501334D01*
X0031488Y0499736D02*
X0134068Y0499736D01*
X0132469Y0498137D02*
X0031488Y0498137D01*
X0031488Y0496539D02*
X0132456Y0496539D01*
X0132456Y0493341D02*
X0031488Y0493341D01*
X0031488Y0491743D02*
X0132456Y0491743D01*
X0133684Y0490144D02*
X0040401Y0490144D01*
X0039279Y0491266D02*
X0041857Y0488689D01*
X0041857Y0486866D01*
X0037457Y0486866D01*
X0037457Y0486866D01*
X0041857Y0486866D01*
X0041857Y0485044D01*
X0039279Y0482466D01*
X0037457Y0482466D01*
X0037457Y0486866D01*
X0037457Y0486866D01*
X0037457Y0486866D01*
X0037457Y0491266D01*
X0039279Y0491266D01*
X0037457Y0491266D02*
X0037457Y0486866D01*
X0037457Y0482466D01*
X0035634Y0482466D01*
X0033057Y0485044D01*
X0033057Y0486866D01*
X0037457Y0486866D01*
X0037457Y0486866D01*
X0033057Y0486866D01*
X0033057Y0488689D01*
X0035634Y0491266D01*
X0037457Y0491266D01*
X0037457Y0490144D02*
X0037457Y0490144D01*
X0037457Y0488546D02*
X0037457Y0488546D01*
X0037457Y0486947D02*
X0037457Y0486947D01*
X0037457Y0485349D02*
X0037457Y0485349D01*
X0037457Y0483750D02*
X0037457Y0483750D01*
X0034350Y0483750D02*
X0031488Y0483750D01*
X0031488Y0482152D02*
X0178165Y0482152D01*
X0178165Y0483750D02*
X0040563Y0483750D01*
X0041857Y0485349D02*
X0178165Y0485349D01*
X0178165Y0486947D02*
X0144332Y0486947D01*
X0145930Y0488546D02*
X0178165Y0488546D01*
X0178165Y0490144D02*
X0147529Y0490144D01*
X0148756Y0491743D02*
X0178165Y0491743D01*
X0178165Y0493341D02*
X0148756Y0493341D01*
X0148756Y0495548D02*
X0148756Y0498124D01*
X0143982Y0502898D01*
X0141406Y0502898D01*
X0141406Y0495548D01*
X0148756Y0495548D01*
X0148756Y0496539D02*
X0178165Y0496539D01*
X0178165Y0498137D02*
X0148743Y0498137D01*
X0147145Y0499736D02*
X0178165Y0499736D01*
X0178165Y0501334D02*
X0145546Y0501334D01*
X0141406Y0501334D02*
X0139806Y0501334D01*
X0139806Y0499736D02*
X0141406Y0499736D01*
X0141406Y0498137D02*
X0139806Y0498137D01*
X0139806Y0496539D02*
X0141406Y0496539D01*
X0141406Y0494940D02*
X0178165Y0494940D01*
X0178165Y0502933D02*
X0031488Y0502933D01*
X0031488Y0504531D02*
X0178165Y0504531D01*
X0178165Y0506130D02*
X0031488Y0506130D01*
X0031488Y0507728D02*
X0178165Y0507728D01*
X0178165Y0509327D02*
X0174711Y0509327D01*
X0176309Y0510925D02*
X0178165Y0510925D01*
X0178165Y0512524D02*
X0177908Y0512524D01*
X0178165Y0522115D02*
X0176765Y0522115D01*
X0178165Y0523713D02*
X0175167Y0523713D01*
X0178165Y0525312D02*
X0031488Y0525312D01*
X0031488Y0526910D02*
X0178165Y0526910D01*
X0178165Y0528509D02*
X0031488Y0528509D01*
X0031488Y0530107D02*
X0178165Y0530107D01*
X0178165Y0547691D02*
X0012811Y0547691D01*
X0012811Y0549289D02*
X0178165Y0549289D01*
X0178165Y0550888D02*
X0012811Y0550888D01*
X0012811Y0552486D02*
X0178165Y0552486D01*
X0178165Y0563676D02*
X0148756Y0563676D01*
X0148535Y0565274D02*
X0178165Y0565274D01*
X0178165Y0566873D02*
X0146936Y0566873D01*
X0143088Y0578063D02*
X0164695Y0578063D01*
X0163097Y0579661D02*
X0144687Y0579661D01*
X0146285Y0581260D02*
X0162456Y0581260D01*
X0162456Y0582858D02*
X0146331Y0582858D01*
X0136633Y0613230D02*
X0018005Y0613230D01*
X0020289Y0614828D02*
X0178165Y0614828D01*
X0177045Y0616427D02*
X0021805Y0616427D01*
X0022728Y0618025D02*
X0176122Y0618025D01*
X0175466Y0619624D02*
X0023384Y0619624D01*
X0023813Y0621222D02*
X0175038Y0621222D01*
X0174940Y0622821D02*
X0023910Y0622821D01*
X0012811Y0611631D02*
X0135035Y0611631D01*
X0133436Y0610033D02*
X0012811Y0610033D01*
X0012811Y0608434D02*
X0132456Y0608434D01*
X0132456Y0606836D02*
X0012811Y0606836D01*
X0012811Y0576464D02*
X0166294Y0576464D01*
X0169806Y0576464D02*
X0171406Y0576464D01*
X0171406Y0578063D02*
X0169806Y0578063D01*
X0169806Y0579661D02*
X0171406Y0579661D01*
X0171406Y0581260D02*
X0169806Y0581260D01*
X0169806Y0582858D02*
X0171406Y0582858D01*
X0171406Y0586055D02*
X0169806Y0586055D01*
X0169806Y0587654D02*
X0171406Y0587654D01*
X0171406Y0589252D02*
X0169806Y0589252D01*
X0169806Y0590851D02*
X0171406Y0590851D01*
X0174919Y0576464D02*
X0178165Y0576464D01*
X0178165Y0574866D02*
X0012811Y0574866D01*
X0012811Y0573267D02*
X0178165Y0573267D01*
X0178165Y0571669D02*
X0012811Y0571669D01*
X0012811Y0566873D02*
X0134276Y0566873D01*
X0132678Y0565274D02*
X0012811Y0565274D01*
X0012811Y0563676D02*
X0132456Y0563676D01*
X0132456Y0536501D02*
X0043035Y0536501D01*
X0042772Y0534903D02*
X0132926Y0534903D01*
X0134524Y0533304D02*
X0041173Y0533304D01*
X0036496Y0533304D02*
X0031488Y0533304D01*
X0031488Y0531706D02*
X0136123Y0531706D01*
X0144934Y0520516D02*
X0162849Y0520516D01*
X0162456Y0520124D02*
X0162456Y0517548D01*
X0169806Y0517548D01*
X0169806Y0524898D01*
X0167230Y0524898D01*
X0162456Y0520124D01*
X0162456Y0518918D02*
X0146331Y0518918D01*
X0146331Y0517319D02*
X0169806Y0517319D01*
X0169806Y0515721D02*
X0171406Y0515721D01*
X0171406Y0514122D02*
X0169806Y0514122D01*
X0169806Y0512524D02*
X0171406Y0512524D01*
X0171406Y0510925D02*
X0169806Y0510925D01*
X0169806Y0509327D02*
X0171406Y0509327D01*
X0171406Y0518918D02*
X0169806Y0518918D01*
X0169806Y0520516D02*
X0171406Y0520516D01*
X0171406Y0522115D02*
X0169806Y0522115D01*
X0169806Y0523713D02*
X0171406Y0523713D01*
X0166502Y0509327D02*
X0031488Y0509327D01*
X0031488Y0510925D02*
X0164903Y0510925D01*
X0163305Y0512524D02*
X0144478Y0512524D01*
X0146077Y0514122D02*
X0162456Y0514122D01*
X0162456Y0515721D02*
X0146331Y0515721D01*
X0139806Y0494940D02*
X0031488Y0494940D01*
X0031488Y0490144D02*
X0034512Y0490144D01*
X0033057Y0488546D02*
X0031488Y0488546D01*
X0031488Y0486947D02*
X0033057Y0486947D01*
X0033057Y0485349D02*
X0031488Y0485349D01*
X0031488Y0480553D02*
X0178165Y0480553D01*
X0178165Y0478955D02*
X0032954Y0478955D01*
X0034552Y0477356D02*
X0178165Y0477356D01*
X0178165Y0475758D02*
X0144256Y0475758D01*
X0143982Y0476032D02*
X0141406Y0476032D01*
X0141406Y0468682D01*
X0139806Y0468682D01*
X0139806Y0467082D01*
X0132456Y0467082D01*
X0132456Y0464506D01*
X0137230Y0459732D01*
X0139806Y0459732D01*
X0139806Y0467082D01*
X0141406Y0467082D01*
X0141406Y0459732D01*
X0143982Y0459732D01*
X0148756Y0464506D01*
X0148756Y0467082D01*
X0141406Y0467082D01*
X0141406Y0468682D01*
X0148756Y0468682D01*
X0148756Y0471258D01*
X0143982Y0476032D01*
X0141406Y0475758D02*
X0139806Y0475758D01*
X0139806Y0476032D02*
X0137230Y0476032D01*
X0132456Y0471258D01*
X0132456Y0468682D01*
X0139806Y0468682D01*
X0139806Y0476032D01*
X0139806Y0474159D02*
X0141406Y0474159D01*
X0141406Y0472561D02*
X0139806Y0472561D01*
X0139806Y0470962D02*
X0141406Y0470962D01*
X0141406Y0469364D02*
X0139806Y0469364D01*
X0139806Y0467765D02*
X0035988Y0467765D01*
X0035988Y0466167D02*
X0132456Y0466167D01*
X0132456Y0464568D02*
X0035988Y0464568D01*
X0035988Y0462970D02*
X0133993Y0462970D01*
X0135591Y0461371D02*
X0035988Y0461371D01*
X0035921Y0459773D02*
X0137190Y0459773D01*
X0138235Y0451607D02*
X0134881Y0448253D01*
X0134881Y0443511D01*
X0138235Y0440157D01*
X0142978Y0440157D01*
X0146331Y0443511D01*
X0146331Y0448253D01*
X0142978Y0451607D01*
X0138235Y0451607D01*
X0136810Y0450182D02*
X0032236Y0450182D01*
X0033047Y0451780D02*
X0164979Y0451780D01*
X0166577Y0453379D02*
X0033161Y0453379D01*
X0032675Y0454977D02*
X0178165Y0454977D01*
X0178165Y0453379D02*
X0174635Y0453379D01*
X0176234Y0451780D02*
X0178165Y0451780D01*
X0178165Y0450182D02*
X0177832Y0450182D01*
X0178165Y0456576D02*
X0033184Y0456576D01*
X0034783Y0458174D02*
X0178165Y0458174D01*
X0178165Y0459773D02*
X0144023Y0459773D01*
X0145621Y0461371D02*
X0178165Y0461371D01*
X0178165Y0462970D02*
X0147220Y0462970D01*
X0148756Y0464568D02*
X0178165Y0464568D01*
X0178165Y0466167D02*
X0148756Y0466167D01*
X0148756Y0469364D02*
X0178165Y0469364D01*
X0178165Y0470962D02*
X0148756Y0470962D01*
X0147453Y0472561D02*
X0178165Y0472561D01*
X0178165Y0474159D02*
X0145855Y0474159D01*
X0141406Y0467765D02*
X0178165Y0467765D01*
X0171406Y0453379D02*
X0169806Y0453379D01*
X0169806Y0454032D02*
X0167230Y0454032D01*
X0162456Y0449258D01*
X0162456Y0446682D01*
X0169806Y0446682D01*
X0169806Y0454032D01*
X0169806Y0451780D02*
X0171406Y0451780D01*
X0171406Y0450182D02*
X0169806Y0450182D01*
X0169806Y0448583D02*
X0171406Y0448583D01*
X0171406Y0446985D02*
X0169806Y0446985D01*
X0169806Y0445386D02*
X0146331Y0445386D01*
X0146331Y0443788D02*
X0162456Y0443788D01*
X0162773Y0442189D02*
X0145010Y0442189D01*
X0143411Y0440591D02*
X0164372Y0440591D01*
X0165970Y0438992D02*
X0017538Y0438992D01*
X0017538Y0437394D02*
X0178165Y0437394D01*
X0178165Y0438992D02*
X0175242Y0438992D01*
X0176841Y0440591D02*
X0178165Y0440591D01*
X0178165Y0435795D02*
X0017538Y0435795D01*
X0017538Y0434197D02*
X0178165Y0434197D01*
X0178165Y0432598D02*
X0017538Y0432598D01*
X0017538Y0431000D02*
X0136198Y0431000D01*
X0137230Y0432032D02*
X0132456Y0427258D01*
X0132456Y0424682D01*
X0139806Y0424682D01*
X0139806Y0423082D01*
X0132456Y0423082D01*
X0132456Y0420506D01*
X0137230Y0415732D01*
X0139806Y0415732D01*
X0139806Y0423082D01*
X0141406Y0423082D01*
X0141406Y0415732D01*
X0143982Y0415732D01*
X0148756Y0420506D01*
X0148756Y0423082D01*
X0141406Y0423082D01*
X0141406Y0424682D01*
X0139806Y0424682D01*
X0139806Y0432032D01*
X0137230Y0432032D01*
X0134600Y0429401D02*
X0017538Y0429401D01*
X0017538Y0427803D02*
X0133001Y0427803D01*
X0132456Y0426204D02*
X0017538Y0426204D01*
X0017538Y0424605D02*
X0139806Y0424605D01*
X0139806Y0423007D02*
X0141406Y0423007D01*
X0141406Y0424605D02*
X0178165Y0424605D01*
X0178165Y0423007D02*
X0148756Y0423007D01*
X0148756Y0421408D02*
X0178165Y0421408D01*
X0178165Y0419810D02*
X0148060Y0419810D01*
X0146462Y0418211D02*
X0178165Y0418211D01*
X0178165Y0416613D02*
X0144863Y0416613D01*
X0141406Y0416613D02*
X0139806Y0416613D01*
X0139806Y0418211D02*
X0141406Y0418211D01*
X0141406Y0419810D02*
X0139806Y0419810D01*
X0139806Y0421408D02*
X0141406Y0421408D01*
X0141406Y0424682D02*
X0148756Y0424682D01*
X0148756Y0427258D01*
X0143982Y0432032D01*
X0141406Y0432032D01*
X0141406Y0424682D01*
X0141406Y0426204D02*
X0139806Y0426204D01*
X0139806Y0427803D02*
X0141406Y0427803D01*
X0141406Y0429401D02*
X0139806Y0429401D01*
X0139806Y0431000D02*
X0141406Y0431000D01*
X0145014Y0431000D02*
X0178165Y0431000D01*
X0178165Y0429401D02*
X0146613Y0429401D01*
X0148211Y0427803D02*
X0178165Y0427803D01*
X0178165Y0426204D02*
X0148756Y0426204D01*
X0146331Y0446985D02*
X0162456Y0446985D01*
X0162456Y0448583D02*
X0146001Y0448583D01*
X0144403Y0450182D02*
X0163380Y0450182D01*
X0169806Y0443788D02*
X0171406Y0443788D01*
X0171406Y0442189D02*
X0169806Y0442189D01*
X0169806Y0440591D02*
X0171406Y0440591D01*
X0171406Y0438992D02*
X0169806Y0438992D01*
X0178165Y0415014D02*
X0017538Y0415014D01*
X0017538Y0413416D02*
X0178165Y0413416D01*
X0178165Y0411817D02*
X0017538Y0411817D01*
X0017538Y0410219D02*
X0178165Y0410219D01*
X0178165Y0408620D02*
X0017538Y0408620D01*
X0017538Y0407022D02*
X0178165Y0407022D01*
X0178165Y0405423D02*
X0017538Y0405423D01*
X0017538Y0403825D02*
X0178165Y0403825D01*
X0178165Y0402226D02*
X0017538Y0402226D01*
X0017538Y0400628D02*
X0178165Y0400628D01*
X0178165Y0399029D02*
X0017538Y0399029D01*
X0017538Y0397431D02*
X0178165Y0397431D01*
X0178165Y0395832D02*
X0145442Y0395832D01*
X0143982Y0397292D02*
X0148756Y0392518D01*
X0148756Y0389942D01*
X0141406Y0389942D01*
X0139806Y0389942D01*
X0139806Y0388342D01*
X0132456Y0388342D01*
X0132456Y0385766D01*
X0137230Y0380992D01*
X0139806Y0380992D01*
X0139806Y0388342D01*
X0141406Y0388342D01*
X0141406Y0380992D01*
X0143982Y0380992D01*
X0148756Y0385766D01*
X0148756Y0388342D01*
X0141406Y0388342D01*
X0141406Y0389942D01*
X0141406Y0397292D01*
X0143982Y0397292D01*
X0141406Y0395832D02*
X0139806Y0395832D01*
X0139806Y0397292D02*
X0137230Y0397292D01*
X0132456Y0392518D01*
X0132456Y0389942D01*
X0139806Y0389942D01*
X0139806Y0397292D01*
X0139806Y0394234D02*
X0141406Y0394234D01*
X0141406Y0392635D02*
X0139806Y0392635D01*
X0139806Y0391037D02*
X0141406Y0391037D01*
X0141406Y0389438D02*
X0178165Y0389438D01*
X0178165Y0387840D02*
X0148756Y0387840D01*
X0148756Y0386241D02*
X0178165Y0386241D01*
X0178165Y0384643D02*
X0147633Y0384643D01*
X0146035Y0383044D02*
X0178165Y0383044D01*
X0178165Y0381446D02*
X0144436Y0381446D01*
X0141406Y0381446D02*
X0139806Y0381446D01*
X0139806Y0383044D02*
X0141406Y0383044D01*
X0141406Y0384643D02*
X0139806Y0384643D01*
X0139806Y0386241D02*
X0141406Y0386241D01*
X0141406Y0387840D02*
X0139806Y0387840D01*
X0139806Y0389438D02*
X0017538Y0389438D01*
X0017538Y0387840D02*
X0132456Y0387840D01*
X0132456Y0386241D02*
X0017538Y0386241D01*
X0017538Y0384643D02*
X0133579Y0384643D01*
X0135178Y0383044D02*
X0017538Y0383044D01*
X0017538Y0381446D02*
X0136777Y0381446D01*
X0137223Y0371855D02*
X0017538Y0371855D01*
X0017538Y0373453D02*
X0165392Y0373453D01*
X0163793Y0371855D02*
X0143990Y0371855D01*
X0145588Y0370256D02*
X0162456Y0370256D01*
X0162456Y0370518D02*
X0162456Y0367942D01*
X0169806Y0367942D01*
X0169806Y0375292D01*
X0167230Y0375292D01*
X0162456Y0370518D01*
X0162456Y0368658D02*
X0146331Y0368658D01*
X0146331Y0367059D02*
X0169806Y0367059D01*
X0169806Y0365461D02*
X0171406Y0365461D01*
X0171406Y0363862D02*
X0169806Y0363862D01*
X0169806Y0362264D02*
X0171406Y0362264D01*
X0171406Y0360665D02*
X0169806Y0360665D01*
X0169806Y0359067D02*
X0171406Y0359067D01*
X0171406Y0368658D02*
X0169806Y0368658D01*
X0169806Y0370256D02*
X0171406Y0370256D01*
X0171406Y0371855D02*
X0169806Y0371855D01*
X0169806Y0373453D02*
X0171406Y0373453D01*
X0171406Y0375052D02*
X0169806Y0375052D01*
X0166990Y0375052D02*
X0017538Y0375052D01*
X0017538Y0376650D02*
X0178165Y0376650D01*
X0178165Y0375052D02*
X0174222Y0375052D01*
X0175821Y0373453D02*
X0178165Y0373453D01*
X0178165Y0371855D02*
X0177419Y0371855D01*
X0178165Y0378249D02*
X0017538Y0378249D01*
X0017538Y0379847D02*
X0178165Y0379847D01*
X0178165Y0391037D02*
X0148756Y0391037D01*
X0148639Y0392635D02*
X0178165Y0392635D01*
X0178165Y0394234D02*
X0147040Y0394234D01*
X0135771Y0395832D02*
X0017538Y0395832D01*
X0017538Y0394234D02*
X0134173Y0394234D01*
X0132574Y0392635D02*
X0017538Y0392635D01*
X0017538Y0391037D02*
X0132456Y0391037D01*
X0135624Y0370256D02*
X0017538Y0370256D01*
X0017538Y0368658D02*
X0134881Y0368658D01*
X0134881Y0367059D02*
X0017538Y0367059D01*
X0017538Y0365461D02*
X0134881Y0365461D01*
X0133861Y0363862D02*
X0017538Y0363862D01*
X0017538Y0362264D02*
X0132263Y0362264D01*
X0130664Y0360665D02*
X0017538Y0360665D01*
X0017538Y0359067D02*
X0129066Y0359067D01*
X0127467Y0357468D02*
X0017538Y0357468D01*
X0017538Y0355870D02*
X0125869Y0355870D01*
X0124270Y0354271D02*
X0017538Y0354271D01*
X0017538Y0352672D02*
X0122672Y0352672D01*
X0121073Y0351074D02*
X0017538Y0351074D01*
X0017538Y0349475D02*
X0119475Y0349475D01*
X0117876Y0347877D02*
X0017538Y0347877D01*
X0017538Y0346278D02*
X0116278Y0346278D01*
X0114679Y0344680D02*
X0017538Y0344680D01*
X0017538Y0343081D02*
X0113081Y0343081D01*
X0111482Y0341483D02*
X0017538Y0341483D01*
X0017538Y0339884D02*
X0109884Y0339884D01*
X0108285Y0338286D02*
X0017538Y0338286D01*
X0017538Y0336687D02*
X0106687Y0336687D01*
X0105088Y0335089D02*
X0017538Y0335089D01*
X0017538Y0333490D02*
X0103490Y0333490D01*
X0101891Y0331892D02*
X0017538Y0331892D01*
X0017538Y0330293D02*
X0100293Y0330293D01*
X0098694Y0328695D02*
X0017538Y0328695D01*
X0017538Y0327096D02*
X0097096Y0327096D01*
X0095497Y0325498D02*
X0017538Y0325498D01*
X0017538Y0323899D02*
X0093899Y0323899D01*
X0092300Y0322301D02*
X0017538Y0322301D01*
X0017538Y0320702D02*
X0090702Y0320702D01*
X0089103Y0319104D02*
X0017538Y0319104D01*
X0017538Y0317505D02*
X0087505Y0317505D01*
X0085906Y0315907D02*
X0017538Y0315907D01*
X0017538Y0314308D02*
X0084307Y0314308D01*
X0082709Y0312710D02*
X0017538Y0312710D01*
X0017538Y0311111D02*
X0081110Y0311111D01*
X0079512Y0309513D02*
X0017538Y0309513D01*
X0017538Y0307914D02*
X0077913Y0307914D01*
X0076315Y0306316D02*
X0017538Y0306316D01*
X0017538Y0304717D02*
X0074716Y0304717D01*
X0073118Y0303119D02*
X0017538Y0303119D01*
X0017538Y0301520D02*
X0071519Y0301520D01*
X0069921Y0299922D02*
X0017538Y0299922D01*
X0017538Y0298323D02*
X0068322Y0298323D01*
X0066724Y0296725D02*
X0017538Y0296725D01*
X0017538Y0295126D02*
X0065125Y0295126D01*
X0063527Y0293528D02*
X0017538Y0293528D01*
X0017538Y0291929D02*
X0061928Y0291929D01*
X0060330Y0290331D02*
X0017538Y0290331D01*
X0017538Y0288732D02*
X0058731Y0288732D01*
X0057133Y0287134D02*
X0031724Y0287134D01*
X0032766Y0285535D02*
X0055534Y0285535D01*
X0053936Y0283937D02*
X0033043Y0283937D01*
X0032720Y0282338D02*
X0052337Y0282338D01*
X0050739Y0280739D02*
X0031612Y0280739D01*
X0031315Y0277542D02*
X0047542Y0277542D01*
X0045943Y0275944D02*
X0032597Y0275944D01*
X0033043Y0274345D02*
X0044345Y0274345D01*
X0042746Y0272747D02*
X0032889Y0272747D01*
X0032410Y0271148D02*
X0041148Y0271148D01*
X0039549Y0269550D02*
X0034009Y0269550D01*
X0035607Y0267951D02*
X0037951Y0267951D01*
X0042063Y0264754D02*
X0178165Y0264754D01*
X0178165Y0263156D02*
X0040464Y0263156D01*
X0042001Y0261557D02*
X0178165Y0261557D01*
X0178165Y0259959D02*
X0043600Y0259959D01*
X0045198Y0258360D02*
X0178165Y0258360D01*
X0178165Y0256762D02*
X0046797Y0256762D01*
X0048395Y0255163D02*
X0178165Y0255163D01*
X0178165Y0253565D02*
X0049994Y0253565D01*
X0051592Y0251966D02*
X0178165Y0251966D01*
X0178165Y0250368D02*
X0053191Y0250368D01*
X0054789Y0248769D02*
X0178165Y0248769D01*
X0178165Y0247171D02*
X0056388Y0247171D01*
X0057986Y0245572D02*
X0178165Y0245572D01*
X0178165Y0243974D02*
X0059585Y0243974D01*
X0061183Y0242375D02*
X0178165Y0242375D01*
X0178165Y0240777D02*
X0062782Y0240777D01*
X0064380Y0239178D02*
X0178165Y0239178D01*
X0178165Y0237580D02*
X0065979Y0237580D01*
X0067577Y0235981D02*
X0178165Y0235981D01*
X0178165Y0234383D02*
X0069176Y0234383D01*
X0070774Y0232784D02*
X0178165Y0232784D01*
X0178165Y0231186D02*
X0144734Y0231186D01*
X0143982Y0231937D02*
X0141406Y0231937D01*
X0141406Y0224587D01*
X0148756Y0224587D01*
X0148756Y0227163D01*
X0143982Y0231937D01*
X0141406Y0231186D02*
X0139806Y0231186D01*
X0139806Y0231937D02*
X0137230Y0231937D01*
X0132456Y0227163D01*
X0132456Y0224587D01*
X0139806Y0224587D01*
X0139806Y0222987D01*
X0141406Y0222987D01*
X0141406Y0215637D01*
X0143982Y0215637D01*
X0148756Y0220412D01*
X0148756Y0222987D01*
X0141406Y0222987D01*
X0141406Y0224587D01*
X0139806Y0224587D01*
X0139806Y0231937D01*
X0139806Y0229587D02*
X0141406Y0229587D01*
X0141406Y0227989D02*
X0139806Y0227989D01*
X0139806Y0226390D02*
X0141406Y0226390D01*
X0141406Y0224792D02*
X0139806Y0224792D01*
X0139806Y0223193D02*
X0080366Y0223193D01*
X0081964Y0221595D02*
X0132456Y0221595D01*
X0132456Y0220412D02*
X0137230Y0215637D01*
X0139806Y0215637D01*
X0139806Y0222987D01*
X0132456Y0222987D01*
X0132456Y0220412D01*
X0132872Y0219996D02*
X0083563Y0219996D01*
X0085161Y0218398D02*
X0134470Y0218398D01*
X0136069Y0216799D02*
X0086760Y0216799D01*
X0088358Y0215201D02*
X0178165Y0215201D01*
X0178165Y0216799D02*
X0145144Y0216799D01*
X0146742Y0218398D02*
X0178165Y0218398D01*
X0178165Y0219996D02*
X0148341Y0219996D01*
X0148756Y0221595D02*
X0178165Y0221595D01*
X0178165Y0223193D02*
X0141406Y0223193D01*
X0141406Y0221595D02*
X0139806Y0221595D01*
X0139806Y0219996D02*
X0141406Y0219996D01*
X0141406Y0218398D02*
X0139806Y0218398D01*
X0139806Y0216799D02*
X0141406Y0216799D01*
X0143282Y0207208D02*
X0164501Y0207208D01*
X0162903Y0205609D02*
X0144881Y0205609D01*
X0146331Y0204011D02*
X0162456Y0204011D01*
X0162456Y0205163D02*
X0162456Y0202587D01*
X0169806Y0202587D01*
X0169806Y0209937D01*
X0167230Y0209937D01*
X0162456Y0205163D01*
X0162456Y0200987D02*
X0162456Y0198412D01*
X0167230Y0193637D01*
X0169806Y0193637D01*
X0169806Y0200987D01*
X0162456Y0200987D01*
X0162456Y0200814D02*
X0146331Y0200814D01*
X0146331Y0202412D02*
X0169806Y0202412D01*
X0169806Y0200814D02*
X0171406Y0200814D01*
X0171406Y0199215D02*
X0169806Y0199215D01*
X0169806Y0197617D02*
X0171406Y0197617D01*
X0171406Y0196018D02*
X0169806Y0196018D01*
X0169806Y0194420D02*
X0171406Y0194420D01*
X0174765Y0194420D02*
X0178165Y0194420D01*
X0178165Y0196018D02*
X0176363Y0196018D01*
X0177962Y0197617D02*
X0178165Y0197617D01*
X0178165Y0192821D02*
X0152538Y0192821D01*
X0152538Y0191223D02*
X0178165Y0191223D01*
X0178165Y0189624D02*
X0152538Y0189624D01*
X0152538Y0188026D02*
X0178165Y0188026D01*
X0178165Y0186427D02*
X0152538Y0186427D01*
X0152538Y0184829D02*
X0178165Y0184829D01*
X0178165Y0183230D02*
X0152538Y0183230D01*
X0152538Y0181632D02*
X0178165Y0181632D01*
X0178165Y0180033D02*
X0152538Y0180033D01*
X0152538Y0178435D02*
X0178165Y0178435D01*
X0178165Y0176836D02*
X0152538Y0176836D01*
X0152538Y0175238D02*
X0178165Y0175238D01*
X0178165Y0173639D02*
X0152538Y0173639D01*
X0152538Y0172041D02*
X0178165Y0172041D01*
X0178165Y0170442D02*
X0152538Y0170442D01*
X0152538Y0168844D02*
X0178165Y0168844D01*
X0178165Y0167245D02*
X0152538Y0167245D01*
X0152538Y0165647D02*
X0178165Y0165647D01*
X0178165Y0164048D02*
X0152538Y0164048D01*
X0152538Y0162450D02*
X0178165Y0162450D01*
X0178165Y0160851D02*
X0152538Y0160851D01*
X0152538Y0159253D02*
X0178165Y0159253D01*
X0178165Y0157654D02*
X0152538Y0157654D01*
X0152538Y0156056D02*
X0178165Y0156056D01*
X0178165Y0154457D02*
X0152538Y0154457D01*
X0152538Y0152859D02*
X0178165Y0152859D01*
X0178165Y0151260D02*
X0152538Y0151260D01*
X0152538Y0149662D02*
X0166010Y0149662D01*
X0167230Y0150882D02*
X0162456Y0146108D01*
X0162456Y0143532D01*
X0169806Y0143532D01*
X0169806Y0150882D01*
X0167230Y0150882D01*
X0164411Y0148063D02*
X0152538Y0148063D01*
X0152538Y0146465D02*
X0162813Y0146465D01*
X0162456Y0144866D02*
X0152538Y0144866D01*
X0152538Y0143268D02*
X0169806Y0143268D01*
X0169806Y0144866D02*
X0171406Y0144866D01*
X0171406Y0146465D02*
X0169806Y0146465D01*
X0169806Y0148063D02*
X0171406Y0148063D01*
X0171406Y0149662D02*
X0169806Y0149662D01*
X0169806Y0141669D02*
X0171406Y0141669D01*
X0171406Y0140070D02*
X0169806Y0140070D01*
X0169806Y0138472D02*
X0171406Y0138472D01*
X0171406Y0136873D02*
X0169806Y0136873D01*
X0169806Y0135275D02*
X0171406Y0135275D01*
X0174675Y0135275D02*
X0178165Y0135275D01*
X0178165Y0136873D02*
X0176273Y0136873D01*
X0177872Y0138472D02*
X0178165Y0138472D01*
X0178165Y0133676D02*
X0152538Y0133676D01*
X0152538Y0132078D02*
X0178165Y0132078D01*
X0178165Y0130479D02*
X0152538Y0130479D01*
X0152538Y0128881D02*
X0178165Y0128881D01*
X0178165Y0127282D02*
X0152538Y0127282D01*
X0152538Y0125684D02*
X0178165Y0125684D01*
X0178165Y0124085D02*
X0152538Y0124085D01*
X0152538Y0122487D02*
X0178165Y0122487D01*
X0178165Y0120888D02*
X0152538Y0120888D01*
X0152538Y0119290D02*
X0178165Y0119290D01*
X0178165Y0117691D02*
X0152538Y0117691D01*
X0152538Y0116093D02*
X0178165Y0116093D01*
X0178165Y0114494D02*
X0152538Y0114494D01*
X0152538Y0112896D02*
X0178165Y0112896D01*
X0178165Y0111297D02*
X0152538Y0111297D01*
X0152538Y0109699D02*
X0178165Y0109699D01*
X0178165Y0108100D02*
X0153158Y0108100D01*
X0154757Y0106502D02*
X0178165Y0106502D01*
X0178165Y0104903D02*
X0177391Y0104903D01*
X0172090Y0104903D02*
X0156355Y0104903D01*
X0157954Y0103305D02*
X0169014Y0103305D01*
X0167416Y0101706D02*
X0159552Y0101706D01*
X0161151Y0100108D02*
X0166510Y0100108D01*
X0165848Y0098509D02*
X0162749Y0098509D01*
X0164348Y0096911D02*
X0165609Y0096911D01*
X0164920Y0089030D02*
X0148490Y0105459D01*
X0147763Y0106186D01*
X0147370Y0107136D01*
X0147370Y0115970D01*
X0143982Y0112582D01*
X0141406Y0112582D01*
X0141406Y0119932D01*
X0139806Y0119932D01*
X0139806Y0113352D01*
X0154845Y0098314D01*
X0155238Y0097364D01*
X0155238Y0086960D01*
X0157458Y0084740D01*
X0157458Y0081118D01*
X0155277Y0078937D01*
X0156006Y0078207D01*
X0156590Y0078791D01*
X0158738Y0080938D01*
X0158557Y0081118D01*
X0158557Y0084740D01*
X0161118Y0087301D01*
X0164740Y0087301D01*
X0164920Y0087121D01*
X0164920Y0089030D01*
X0164920Y0088918D02*
X0155238Y0088918D01*
X0155238Y0087320D02*
X0164920Y0087320D01*
X0163433Y0090517D02*
X0155238Y0090517D01*
X0155238Y0092115D02*
X0161834Y0092115D01*
X0160236Y0093714D02*
X0155238Y0093714D01*
X0155238Y0095312D02*
X0158637Y0095312D01*
X0157039Y0096911D02*
X0155238Y0096911D01*
X0155440Y0098509D02*
X0154649Y0098509D01*
X0153842Y0100108D02*
X0153051Y0100108D01*
X0152243Y0101706D02*
X0151452Y0101706D01*
X0150645Y0103305D02*
X0149854Y0103305D01*
X0149046Y0104903D02*
X0148255Y0104903D01*
X0147632Y0106502D02*
X0146657Y0106502D01*
X0147370Y0108100D02*
X0145058Y0108100D01*
X0143460Y0109699D02*
X0147370Y0109699D01*
X0147370Y0111297D02*
X0141861Y0111297D01*
X0141406Y0112896D02*
X0140263Y0112896D01*
X0139806Y0114494D02*
X0141406Y0114494D01*
X0141406Y0116093D02*
X0139806Y0116093D01*
X0139806Y0117691D02*
X0141406Y0117691D01*
X0141406Y0119290D02*
X0139806Y0119290D01*
X0139806Y0120888D02*
X0132270Y0120888D01*
X0132456Y0121532D02*
X0139806Y0121532D01*
X0139806Y0128882D01*
X0137230Y0128882D01*
X0132456Y0124108D01*
X0132456Y0121532D01*
X0132456Y0122487D02*
X0130672Y0122487D01*
X0129073Y0124085D02*
X0132456Y0124085D01*
X0134032Y0125684D02*
X0127475Y0125684D01*
X0125876Y0127282D02*
X0135631Y0127282D01*
X0137229Y0128881D02*
X0124278Y0128881D01*
X0122679Y0130479D02*
X0147370Y0130479D01*
X0147370Y0128881D02*
X0143983Y0128881D01*
X0145582Y0127282D02*
X0147370Y0127282D01*
X0147370Y0125684D02*
X0147181Y0125684D01*
X0147370Y0132078D02*
X0121081Y0132078D01*
X0119482Y0133676D02*
X0147370Y0133676D01*
X0147370Y0135275D02*
X0117884Y0135275D01*
X0116285Y0136873D02*
X0147370Y0136873D01*
X0147370Y0138472D02*
X0144442Y0138472D01*
X0142978Y0137007D02*
X0146331Y0140361D01*
X0146331Y0145104D01*
X0142978Y0148457D01*
X0138235Y0148457D01*
X0134881Y0145104D01*
X0134881Y0140361D01*
X0138235Y0137007D01*
X0142978Y0137007D01*
X0141406Y0128881D02*
X0139806Y0128881D01*
X0139806Y0127282D02*
X0141406Y0127282D01*
X0141406Y0125684D02*
X0139806Y0125684D01*
X0139806Y0124085D02*
X0141406Y0124085D01*
X0141406Y0122487D02*
X0139806Y0122487D01*
X0144296Y0112896D02*
X0147370Y0112896D01*
X0147370Y0114494D02*
X0145894Y0114494D01*
X0152538Y0135275D02*
X0166538Y0135275D01*
X0164939Y0136873D02*
X0152538Y0136873D01*
X0152538Y0138472D02*
X0163341Y0138472D01*
X0162456Y0140070D02*
X0152538Y0140070D01*
X0152538Y0141669D02*
X0162456Y0141669D01*
X0175203Y0149662D02*
X0178165Y0149662D01*
X0178165Y0148063D02*
X0176801Y0148063D01*
X0166448Y0194420D02*
X0151889Y0194420D01*
X0150290Y0196018D02*
X0164849Y0196018D01*
X0163251Y0197617D02*
X0148692Y0197617D01*
X0147093Y0199215D02*
X0162456Y0199215D01*
X0166100Y0208806D02*
X0094752Y0208806D01*
X0096351Y0207208D02*
X0137930Y0207208D01*
X0136332Y0205609D02*
X0097949Y0205609D01*
X0099548Y0204011D02*
X0134881Y0204011D01*
X0134881Y0202412D02*
X0101146Y0202412D01*
X0102745Y0200814D02*
X0134881Y0200814D01*
X0135082Y0199215D02*
X0104343Y0199215D01*
X0105942Y0197617D02*
X0136680Y0197617D01*
X0137230Y0187937D02*
X0132456Y0183163D01*
X0132456Y0180587D01*
X0139806Y0180587D01*
X0139806Y0187937D01*
X0137230Y0187937D01*
X0135720Y0186427D02*
X0114738Y0186427D01*
X0114738Y0184829D02*
X0134122Y0184829D01*
X0132523Y0183230D02*
X0114738Y0183230D01*
X0114738Y0181632D02*
X0132456Y0181632D01*
X0132456Y0178987D02*
X0132456Y0176412D01*
X0136608Y0172260D01*
X0132456Y0168108D01*
X0132456Y0165532D01*
X0139806Y0165532D01*
X0139806Y0172882D01*
X0139806Y0178987D01*
X0132456Y0178987D01*
X0132456Y0178435D02*
X0114738Y0178435D01*
X0114738Y0180033D02*
X0139806Y0180033D01*
X0139806Y0178435D02*
X0141406Y0178435D01*
X0141406Y0176836D02*
X0139806Y0176836D01*
X0139806Y0175238D02*
X0141406Y0175238D01*
X0141406Y0173639D02*
X0139806Y0173639D01*
X0139806Y0172041D02*
X0141406Y0172041D01*
X0141406Y0170442D02*
X0139806Y0170442D01*
X0139806Y0168844D02*
X0141406Y0168844D01*
X0141406Y0167245D02*
X0139806Y0167245D01*
X0139806Y0165647D02*
X0141406Y0165647D01*
X0139806Y0164048D02*
X0114738Y0164048D01*
X0114738Y0162450D02*
X0132456Y0162450D01*
X0132962Y0160851D02*
X0114738Y0160851D01*
X0114738Y0159253D02*
X0134560Y0159253D01*
X0136159Y0157654D02*
X0114738Y0157654D01*
X0114738Y0156056D02*
X0147370Y0156056D01*
X0147370Y0157654D02*
X0145054Y0157654D01*
X0146652Y0159253D02*
X0147370Y0159253D01*
X0147370Y0154457D02*
X0114738Y0154457D01*
X0114738Y0152859D02*
X0147370Y0152859D01*
X0147370Y0151260D02*
X0114738Y0151260D01*
X0114738Y0149662D02*
X0147370Y0149662D01*
X0147370Y0148063D02*
X0143372Y0148063D01*
X0144970Y0146465D02*
X0147370Y0146465D01*
X0147370Y0144866D02*
X0146331Y0144866D01*
X0146331Y0143268D02*
X0147370Y0143268D01*
X0147370Y0141669D02*
X0146331Y0141669D01*
X0146041Y0140070D02*
X0147370Y0140070D01*
X0141406Y0157654D02*
X0139806Y0157654D01*
X0139806Y0159253D02*
X0141406Y0159253D01*
X0141406Y0160851D02*
X0139806Y0160851D01*
X0139806Y0162450D02*
X0141406Y0162450D01*
X0137841Y0148063D02*
X0114738Y0148063D01*
X0114738Y0146465D02*
X0136242Y0146465D01*
X0134881Y0144866D02*
X0114738Y0144866D01*
X0114738Y0143268D02*
X0134881Y0143268D01*
X0134881Y0141669D02*
X0114738Y0141669D01*
X0114738Y0140070D02*
X0135172Y0140070D01*
X0136770Y0138472D02*
X0114738Y0138472D01*
X0114738Y0165647D02*
X0132456Y0165647D01*
X0132456Y0167245D02*
X0114738Y0167245D01*
X0114738Y0168844D02*
X0133192Y0168844D01*
X0134790Y0170442D02*
X0114738Y0170442D01*
X0114738Y0172041D02*
X0136389Y0172041D01*
X0135229Y0173639D02*
X0114738Y0173639D01*
X0114738Y0175238D02*
X0133630Y0175238D01*
X0132456Y0176836D02*
X0114738Y0176836D01*
X0114738Y0188026D02*
X0147370Y0188026D01*
X0147370Y0189624D02*
X0113934Y0189624D01*
X0112336Y0191223D02*
X0147370Y0191223D01*
X0146178Y0192821D02*
X0110737Y0192821D01*
X0109139Y0194420D02*
X0144579Y0194420D01*
X0142981Y0196018D02*
X0107540Y0196018D01*
X0093154Y0210405D02*
X0178165Y0210405D01*
X0178165Y0212003D02*
X0091555Y0212003D01*
X0089957Y0213602D02*
X0178165Y0213602D01*
X0178165Y0208806D02*
X0175113Y0208806D01*
X0176712Y0207208D02*
X0178165Y0207208D01*
X0178165Y0224792D02*
X0148756Y0224792D01*
X0148756Y0226390D02*
X0178165Y0226390D01*
X0178165Y0227989D02*
X0147931Y0227989D01*
X0146332Y0229587D02*
X0178165Y0229587D01*
X0171406Y0208806D02*
X0169806Y0208806D01*
X0169806Y0207208D02*
X0171406Y0207208D01*
X0171406Y0205609D02*
X0169806Y0205609D01*
X0169806Y0204011D02*
X0171406Y0204011D01*
X0178165Y0266353D02*
X0043661Y0266353D01*
X0045260Y0267951D02*
X0178165Y0267951D01*
X0178165Y0269550D02*
X0046859Y0269550D01*
X0048457Y0271148D02*
X0178165Y0271148D01*
X0178165Y0272747D02*
X0050056Y0272747D01*
X0051654Y0274345D02*
X0178165Y0274345D01*
X0178165Y0275944D02*
X0053253Y0275944D01*
X0054851Y0277542D02*
X0178165Y0277542D01*
X0178165Y0279141D02*
X0056450Y0279141D01*
X0058048Y0280739D02*
X0178165Y0280739D01*
X0178165Y0282338D02*
X0059647Y0282338D01*
X0061245Y0283937D02*
X0178165Y0283937D01*
X0178165Y0285535D02*
X0062844Y0285535D01*
X0064442Y0287134D02*
X0178165Y0287134D01*
X0178165Y0288732D02*
X0066041Y0288732D01*
X0067639Y0290331D02*
X0178165Y0290331D01*
X0178165Y0291929D02*
X0069238Y0291929D01*
X0070836Y0293528D02*
X0178165Y0293528D01*
X0178165Y0295126D02*
X0072435Y0295126D01*
X0074033Y0296725D02*
X0178165Y0296725D01*
X0178165Y0298323D02*
X0075632Y0298323D01*
X0077230Y0299922D02*
X0178165Y0299922D01*
X0178165Y0301520D02*
X0078829Y0301520D01*
X0080427Y0303119D02*
X0178165Y0303119D01*
X0178165Y0304717D02*
X0082026Y0304717D01*
X0083624Y0306316D02*
X0178165Y0306316D01*
X0178165Y0307914D02*
X0085223Y0307914D01*
X0086821Y0309513D02*
X0178165Y0309513D01*
X0178165Y0311111D02*
X0088420Y0311111D01*
X0090018Y0312710D02*
X0178165Y0312710D01*
X0178165Y0314308D02*
X0091617Y0314308D01*
X0093215Y0315907D02*
X0178165Y0315907D01*
X0178165Y0317505D02*
X0094814Y0317505D01*
X0096412Y0319104D02*
X0178165Y0319104D01*
X0178165Y0320702D02*
X0098011Y0320702D01*
X0099609Y0322301D02*
X0178165Y0322301D01*
X0178165Y0323899D02*
X0101208Y0323899D01*
X0102806Y0325498D02*
X0178165Y0325498D01*
X0178165Y0327096D02*
X0104405Y0327096D01*
X0106003Y0328695D02*
X0178165Y0328695D01*
X0178165Y0330293D02*
X0107602Y0330293D01*
X0109200Y0331892D02*
X0178165Y0331892D01*
X0178165Y0333490D02*
X0110799Y0333490D01*
X0112397Y0335089D02*
X0178165Y0335089D01*
X0178165Y0336687D02*
X0113996Y0336687D01*
X0115595Y0338286D02*
X0135936Y0338286D01*
X0137230Y0336992D02*
X0132456Y0341766D01*
X0132456Y0344342D01*
X0139806Y0344342D01*
X0139806Y0345942D01*
X0132456Y0345942D01*
X0132456Y0348518D01*
X0137230Y0353292D01*
X0139806Y0353292D01*
X0139806Y0345942D01*
X0141406Y0345942D01*
X0141406Y0353292D01*
X0143982Y0353292D01*
X0148756Y0348518D01*
X0148756Y0345942D01*
X0141406Y0345942D01*
X0141406Y0344342D01*
X0141406Y0336992D01*
X0143982Y0336992D01*
X0148756Y0341766D01*
X0148756Y0344342D01*
X0141406Y0344342D01*
X0139806Y0344342D01*
X0139806Y0336992D01*
X0137230Y0336992D01*
X0134338Y0339884D02*
X0117193Y0339884D01*
X0118792Y0341483D02*
X0132739Y0341483D01*
X0132456Y0343081D02*
X0120390Y0343081D01*
X0121989Y0344680D02*
X0139806Y0344680D01*
X0139806Y0346278D02*
X0141406Y0346278D01*
X0141406Y0344680D02*
X0178165Y0344680D01*
X0178165Y0346278D02*
X0148756Y0346278D01*
X0148756Y0347877D02*
X0178165Y0347877D01*
X0178165Y0349475D02*
X0147798Y0349475D01*
X0146200Y0351074D02*
X0178165Y0351074D01*
X0178165Y0352672D02*
X0144601Y0352672D01*
X0141406Y0352672D02*
X0139806Y0352672D01*
X0139806Y0351074D02*
X0141406Y0351074D01*
X0141406Y0349475D02*
X0139806Y0349475D01*
X0139806Y0347877D02*
X0141406Y0347877D01*
X0141406Y0343081D02*
X0139806Y0343081D01*
X0139806Y0341483D02*
X0141406Y0341483D01*
X0141406Y0339884D02*
X0139806Y0339884D01*
X0139806Y0338286D02*
X0141406Y0338286D01*
X0145276Y0338286D02*
X0178165Y0338286D01*
X0178165Y0339884D02*
X0146875Y0339884D01*
X0148473Y0341483D02*
X0178165Y0341483D01*
X0178165Y0343081D02*
X0148756Y0343081D01*
X0143824Y0362264D02*
X0163959Y0362264D01*
X0162456Y0363862D02*
X0145423Y0363862D01*
X0146331Y0365461D02*
X0162456Y0365461D01*
X0165557Y0360665D02*
X0137974Y0360665D01*
X0136375Y0359067D02*
X0167156Y0359067D01*
X0174057Y0359067D02*
X0178165Y0359067D01*
X0178165Y0360665D02*
X0175655Y0360665D01*
X0177254Y0362264D02*
X0178165Y0362264D01*
X0178165Y0357468D02*
X0134777Y0357468D01*
X0133178Y0355870D02*
X0178165Y0355870D01*
X0178165Y0354271D02*
X0131580Y0354271D01*
X0129981Y0352672D02*
X0136611Y0352672D01*
X0135013Y0351074D02*
X0128383Y0351074D01*
X0126784Y0349475D02*
X0133414Y0349475D01*
X0132456Y0347877D02*
X0125186Y0347877D01*
X0123587Y0346278D02*
X0132456Y0346278D01*
X0136349Y0416613D02*
X0017538Y0416613D01*
X0017538Y0418211D02*
X0134751Y0418211D01*
X0133152Y0419810D02*
X0017538Y0419810D01*
X0017538Y0421408D02*
X0132456Y0421408D01*
X0132456Y0423007D02*
X0017538Y0423007D01*
X0017538Y0440591D02*
X0137801Y0440591D01*
X0136203Y0442189D02*
X0018798Y0442189D01*
X0020396Y0443788D02*
X0134881Y0443788D01*
X0134881Y0445386D02*
X0021995Y0445386D01*
X0023593Y0446985D02*
X0134881Y0446985D01*
X0135211Y0448583D02*
X0029766Y0448583D01*
X0027474Y0458174D02*
X0012811Y0458174D01*
X0012811Y0456576D02*
X0020585Y0456576D01*
X0019246Y0454977D02*
X0012811Y0454977D01*
X0012811Y0453379D02*
X0018761Y0453379D01*
X0018874Y0451780D02*
X0012811Y0451780D01*
X0012811Y0450182D02*
X0019481Y0450182D01*
X0017882Y0448583D02*
X0012811Y0448583D01*
X0012811Y0446985D02*
X0016284Y0446985D01*
X0014685Y0445386D02*
X0012811Y0445386D01*
X0012811Y0443788D02*
X0013087Y0443788D01*
X0012811Y0459773D02*
X0019812Y0459773D01*
X0019652Y0459932D02*
X0020164Y0459420D01*
X0020750Y0458995D01*
X0021395Y0458666D01*
X0022083Y0458442D01*
X0022799Y0458329D01*
X0025861Y0458329D01*
X0025861Y0462829D01*
X0018561Y0462829D01*
X0018561Y0462567D01*
X0018674Y0461852D01*
X0018898Y0461163D01*
X0019226Y0460518D01*
X0019652Y0459932D01*
X0018830Y0461371D02*
X0012811Y0461371D01*
X0012811Y0462970D02*
X0025861Y0462970D01*
X0025861Y0464568D02*
X0026061Y0464568D01*
X0026061Y0466167D02*
X0025861Y0466167D01*
X0025861Y0468329D02*
X0025861Y0472829D01*
X0018561Y0472829D01*
X0018561Y0472567D01*
X0018674Y0471852D01*
X0018898Y0471163D01*
X0019226Y0470518D01*
X0019652Y0469932D01*
X0020164Y0469420D01*
X0020750Y0468995D01*
X0021395Y0468666D01*
X0022083Y0468442D01*
X0022799Y0468329D01*
X0025861Y0468329D01*
X0025861Y0469364D02*
X0026061Y0469364D01*
X0026061Y0470962D02*
X0025861Y0470962D01*
X0025861Y0472561D02*
X0026061Y0472561D01*
X0026061Y0474159D02*
X0025861Y0474159D01*
X0025861Y0475758D02*
X0026061Y0475758D01*
X0026061Y0477356D02*
X0025861Y0477356D01*
X0026320Y0478955D02*
X0012811Y0478955D01*
X0012811Y0480553D02*
X0026320Y0480553D01*
X0026320Y0482152D02*
X0012811Y0482152D01*
X0012811Y0483750D02*
X0026320Y0483750D01*
X0026320Y0485349D02*
X0012811Y0485349D01*
X0012811Y0486947D02*
X0026320Y0486947D01*
X0026320Y0488546D02*
X0012811Y0488546D01*
X0012811Y0490144D02*
X0026320Y0490144D01*
X0026320Y0491743D02*
X0012811Y0491743D01*
X0012811Y0493341D02*
X0026320Y0493341D01*
X0026320Y0494940D02*
X0012811Y0494940D01*
X0012811Y0496539D02*
X0026320Y0496539D01*
X0026320Y0498137D02*
X0012811Y0498137D01*
X0012811Y0499736D02*
X0026320Y0499736D01*
X0026320Y0501334D02*
X0012811Y0501334D01*
X0012811Y0502933D02*
X0026320Y0502933D01*
X0026320Y0504531D02*
X0012811Y0504531D01*
X0012811Y0506130D02*
X0026320Y0506130D01*
X0026320Y0507728D02*
X0012811Y0507728D01*
X0012811Y0509327D02*
X0026320Y0509327D01*
X0026320Y0510925D02*
X0012811Y0510925D01*
X0012811Y0512524D02*
X0026320Y0512524D01*
X0026320Y0514122D02*
X0012811Y0514122D01*
X0012811Y0515721D02*
X0026320Y0515721D01*
X0026320Y0517319D02*
X0012811Y0517319D01*
X0012811Y0518918D02*
X0026320Y0518918D01*
X0026320Y0520516D02*
X0012811Y0520516D01*
X0012811Y0522115D02*
X0026320Y0522115D01*
X0026320Y0523713D02*
X0012811Y0523713D01*
X0012811Y0525312D02*
X0026320Y0525312D01*
X0026320Y0526910D02*
X0012811Y0526910D01*
X0012811Y0528509D02*
X0026320Y0528509D01*
X0026320Y0530107D02*
X0012811Y0530107D01*
X0012811Y0531706D02*
X0026320Y0531706D01*
X0026320Y0533304D02*
X0012811Y0533304D01*
X0012811Y0534903D02*
X0024898Y0534903D01*
X0024635Y0536501D02*
X0012811Y0536501D01*
X0012811Y0538100D02*
X0024635Y0538100D01*
X0025688Y0539698D02*
X0012811Y0539698D01*
X0031982Y0539698D02*
X0035688Y0539698D01*
X0034635Y0538100D02*
X0033035Y0538100D01*
X0033035Y0536501D02*
X0034635Y0536501D01*
X0034898Y0534903D02*
X0032772Y0534903D01*
X0041857Y0488546D02*
X0135283Y0488546D01*
X0136881Y0486947D02*
X0041857Y0486947D01*
X0035825Y0475758D02*
X0136956Y0475758D01*
X0135358Y0474159D02*
X0035988Y0474159D01*
X0035988Y0472561D02*
X0133759Y0472561D01*
X0132456Y0470962D02*
X0035988Y0470962D01*
X0035988Y0469364D02*
X0132456Y0469364D01*
X0139806Y0466167D02*
X0141406Y0466167D01*
X0141406Y0464568D02*
X0139806Y0464568D01*
X0139806Y0462970D02*
X0141406Y0462970D01*
X0141406Y0461371D02*
X0139806Y0461371D01*
X0139806Y0459773D02*
X0141406Y0459773D01*
X0141406Y0486947D02*
X0139806Y0486947D01*
X0139806Y0488546D02*
X0141406Y0488546D01*
X0141406Y0490144D02*
X0139806Y0490144D01*
X0139806Y0491743D02*
X0141406Y0491743D01*
X0141406Y0493341D02*
X0139806Y0493341D01*
X0176518Y0578063D02*
X0178165Y0578063D01*
X0178116Y0579661D02*
X0178165Y0579661D01*
X0136479Y0231186D02*
X0072373Y0231186D01*
X0073971Y0229587D02*
X0134880Y0229587D01*
X0133282Y0227989D02*
X0075570Y0227989D01*
X0077169Y0226390D02*
X0132456Y0226390D01*
X0132456Y0224792D02*
X0078767Y0224792D01*
X0070840Y0205609D02*
X0030449Y0205609D01*
X0032048Y0204011D02*
X0072438Y0204011D01*
X0074037Y0202412D02*
X0033646Y0202412D01*
X0035245Y0200814D02*
X0075635Y0200814D01*
X0077234Y0199215D02*
X0036843Y0199215D01*
X0038442Y0197617D02*
X0078832Y0197617D01*
X0080431Y0196018D02*
X0040040Y0196018D01*
X0041639Y0194420D02*
X0082029Y0194420D01*
X0083628Y0192821D02*
X0043237Y0192821D01*
X0044836Y0191223D02*
X0053701Y0191223D01*
X0053941Y0191463D02*
X0051364Y0188886D01*
X0051364Y0187063D01*
X0051364Y0185240D01*
X0053941Y0182663D01*
X0055764Y0182663D01*
X0057586Y0182663D01*
X0060164Y0185240D01*
X0060164Y0187063D01*
X0060164Y0188886D01*
X0057586Y0191463D01*
X0055764Y0191463D01*
X0055764Y0187063D01*
X0060164Y0187063D01*
X0055764Y0187063D01*
X0055764Y0187063D01*
X0055764Y0187063D01*
X0055764Y0182663D01*
X0055764Y0187063D01*
X0055764Y0187063D01*
X0055764Y0191463D01*
X0053941Y0191463D01*
X0055764Y0191223D02*
X0055764Y0191223D01*
X0055764Y0189624D02*
X0055764Y0189624D01*
X0055764Y0188026D02*
X0055764Y0188026D01*
X0055764Y0187063D02*
X0055764Y0187063D01*
X0051364Y0187063D01*
X0055764Y0187063D01*
X0055764Y0186427D02*
X0055764Y0186427D01*
X0055764Y0184829D02*
X0055764Y0184829D01*
X0055764Y0183230D02*
X0055764Y0183230D01*
X0054427Y0181632D02*
X0088420Y0181632D01*
X0088420Y0183230D02*
X0058154Y0183230D01*
X0059752Y0184829D02*
X0088420Y0184829D01*
X0088420Y0186427D02*
X0060164Y0186427D01*
X0060164Y0188026D02*
X0088420Y0188026D01*
X0088420Y0188030D02*
X0088420Y0131619D01*
X0087429Y0132610D01*
X0082997Y0132610D01*
X0081888Y0131501D01*
X0081888Y0153614D01*
X0081495Y0154564D01*
X0080768Y0155291D01*
X0020688Y0215370D01*
X0020688Y0216474D01*
X0022285Y0215813D01*
X0029636Y0215813D01*
X0031253Y0216482D01*
X0032491Y0217720D01*
X0033161Y0219337D01*
X0033161Y0221088D01*
X0032491Y0222705D01*
X0031253Y0223943D01*
X0029636Y0224613D01*
X0022285Y0224613D01*
X0020688Y0223951D01*
X0020688Y0226474D01*
X0022285Y0225813D01*
X0029636Y0225813D01*
X0031253Y0226482D01*
X0032491Y0227720D01*
X0033161Y0229337D01*
X0033161Y0231088D01*
X0032491Y0232705D01*
X0031253Y0233943D01*
X0029636Y0234613D01*
X0022285Y0234613D01*
X0020688Y0233951D01*
X0020688Y0236323D01*
X0020750Y0236278D01*
X0021395Y0235950D01*
X0022083Y0235726D01*
X0022799Y0235613D01*
X0025861Y0235613D01*
X0025861Y0240113D01*
X0026061Y0240113D01*
X0026061Y0240313D01*
X0025861Y0240313D01*
X0025861Y0244813D01*
X0022799Y0244813D01*
X0022083Y0244699D01*
X0021395Y0244476D01*
X0020750Y0244147D01*
X0020688Y0244102D01*
X0020688Y0250205D01*
X0022167Y0249592D01*
X0026857Y0249592D01*
X0088420Y0188030D01*
X0086825Y0189624D02*
X0059425Y0189624D01*
X0057826Y0191223D02*
X0085226Y0191223D01*
X0088420Y0180033D02*
X0056025Y0180033D01*
X0057624Y0178435D02*
X0088420Y0178435D01*
X0088420Y0176836D02*
X0059222Y0176836D01*
X0060821Y0175238D02*
X0088420Y0175238D01*
X0088420Y0173639D02*
X0062419Y0173639D01*
X0064018Y0172041D02*
X0088420Y0172041D01*
X0088420Y0170442D02*
X0065616Y0170442D01*
X0067215Y0168844D02*
X0088420Y0168844D01*
X0088420Y0167245D02*
X0068813Y0167245D01*
X0070412Y0165647D02*
X0088420Y0165647D01*
X0088420Y0164048D02*
X0072010Y0164048D01*
X0073609Y0162450D02*
X0088420Y0162450D01*
X0088420Y0160851D02*
X0075207Y0160851D01*
X0076806Y0159253D02*
X0088420Y0159253D01*
X0088420Y0157654D02*
X0078404Y0157654D01*
X0080003Y0156056D02*
X0088420Y0156056D01*
X0088420Y0154457D02*
X0081539Y0154457D01*
X0081888Y0152859D02*
X0088420Y0152859D01*
X0088420Y0151260D02*
X0081888Y0151260D01*
X0081888Y0149662D02*
X0088420Y0149662D01*
X0088420Y0148063D02*
X0081888Y0148063D01*
X0081888Y0146465D02*
X0088420Y0146465D01*
X0088420Y0144866D02*
X0081888Y0144866D01*
X0081888Y0143268D02*
X0088420Y0143268D01*
X0088420Y0141669D02*
X0081888Y0141669D01*
X0081888Y0140070D02*
X0088420Y0140070D01*
X0088420Y0138472D02*
X0081888Y0138472D01*
X0081888Y0136873D02*
X0088420Y0136873D01*
X0088420Y0135275D02*
X0081888Y0135275D01*
X0081888Y0133676D02*
X0088420Y0133676D01*
X0088420Y0132078D02*
X0087961Y0132078D01*
X0082465Y0132078D02*
X0081888Y0132078D01*
X0076720Y0132078D02*
X0063404Y0132078D01*
X0062900Y0132287D02*
X0056029Y0132287D01*
X0054485Y0131647D01*
X0053304Y0130466D01*
X0052665Y0128922D01*
X0052665Y0127251D01*
X0053304Y0125708D01*
X0054485Y0124526D01*
X0056029Y0123887D01*
X0062900Y0123887D01*
X0064444Y0124526D01*
X0065625Y0125708D01*
X0066265Y0127251D01*
X0066265Y0128922D01*
X0065625Y0130466D01*
X0064444Y0131647D01*
X0062900Y0132287D01*
X0062900Y0133887D02*
X0064444Y0134526D01*
X0065625Y0135708D01*
X0066265Y0137251D01*
X0066265Y0138922D01*
X0065625Y0140466D01*
X0064444Y0141647D01*
X0062900Y0142287D01*
X0056029Y0142287D01*
X0054485Y0141647D01*
X0053304Y0140466D01*
X0052665Y0138922D01*
X0052665Y0137251D01*
X0053304Y0135708D01*
X0054485Y0134526D01*
X0056029Y0133887D01*
X0062900Y0133887D01*
X0065193Y0135275D02*
X0076720Y0135275D01*
X0076720Y0136873D02*
X0066108Y0136873D01*
X0066265Y0138472D02*
X0076720Y0138472D01*
X0076720Y0140070D02*
X0065789Y0140070D01*
X0064391Y0141669D02*
X0076720Y0141669D01*
X0076720Y0143268D02*
X0017538Y0143268D01*
X0017538Y0144866D02*
X0024145Y0144866D01*
X0024485Y0144526D02*
X0023304Y0145708D01*
X0022665Y0147251D01*
X0022665Y0148922D01*
X0023304Y0150466D01*
X0024485Y0151647D01*
X0026029Y0152287D01*
X0032900Y0152287D01*
X0034444Y0151647D01*
X0035625Y0150466D01*
X0036265Y0148922D01*
X0036265Y0147251D01*
X0035625Y0145708D01*
X0034444Y0144526D01*
X0032900Y0143887D01*
X0026029Y0143887D01*
X0024485Y0144526D01*
X0022990Y0146465D02*
X0017538Y0146465D01*
X0017538Y0148063D02*
X0022665Y0148063D01*
X0022971Y0149662D02*
X0017538Y0149662D01*
X0017538Y0151260D02*
X0024098Y0151260D01*
X0026029Y0142287D02*
X0024485Y0141647D01*
X0023304Y0140466D01*
X0022665Y0138922D01*
X0022665Y0137251D01*
X0023304Y0135708D01*
X0024485Y0134526D01*
X0026029Y0133887D01*
X0032900Y0133887D01*
X0034444Y0134526D01*
X0035625Y0135708D01*
X0036265Y0137251D01*
X0036265Y0138922D01*
X0035625Y0140466D01*
X0034444Y0141647D01*
X0032900Y0142287D01*
X0026029Y0142287D01*
X0024538Y0141669D02*
X0017538Y0141669D01*
X0017538Y0140070D02*
X0023140Y0140070D01*
X0022665Y0138472D02*
X0017538Y0138472D01*
X0017538Y0136873D02*
X0022821Y0136873D01*
X0023737Y0135275D02*
X0017538Y0135275D01*
X0017538Y0134820D02*
X0017538Y0211211D01*
X0055310Y0173440D01*
X0054292Y0173440D01*
X0051041Y0170189D01*
X0051041Y0167990D01*
X0056490Y0167990D01*
X0056490Y0167790D01*
X0051041Y0167790D01*
X0051041Y0165591D01*
X0054292Y0162340D01*
X0056491Y0162340D01*
X0056491Y0167790D01*
X0056691Y0167790D01*
X0056691Y0162340D01*
X0058889Y0162340D01*
X0062141Y0165591D01*
X0062141Y0166609D01*
X0076720Y0152030D01*
X0076720Y0102636D01*
X0077113Y0101686D01*
X0079863Y0098937D01*
X0079863Y0095044D01*
X0082997Y0091910D01*
X0086439Y0091910D01*
X0130720Y0047630D01*
X0130720Y0021776D01*
X0129484Y0020540D01*
X0128738Y0018739D01*
X0128738Y0010190D01*
X0129283Y0008874D01*
X0023247Y0008874D01*
X0023910Y0011350D01*
X0023910Y0014272D01*
X0023154Y0017095D01*
X0021693Y0019626D01*
X0019626Y0021693D01*
X0017095Y0023154D01*
X0014272Y0023910D01*
X0012811Y0023910D01*
X0012811Y0132238D01*
X0013490Y0131559D01*
X0023944Y0121105D01*
X0023304Y0120466D01*
X0022665Y0118922D01*
X0022665Y0117251D01*
X0023304Y0115708D01*
X0024485Y0114526D01*
X0026029Y0113887D01*
X0032900Y0113887D01*
X0034444Y0114526D01*
X0035625Y0115708D01*
X0036265Y0117251D01*
X0036265Y0118922D01*
X0035625Y0120466D01*
X0034444Y0121647D01*
X0032900Y0122287D01*
X0030072Y0122287D01*
X0028472Y0123887D01*
X0032900Y0123887D01*
X0034444Y0124526D01*
X0035625Y0125708D01*
X0036265Y0127251D01*
X0036265Y0128922D01*
X0035625Y0130466D01*
X0034444Y0131647D01*
X0032900Y0132287D01*
X0026029Y0132287D01*
X0024485Y0131647D01*
X0023304Y0130466D01*
X0022891Y0129468D01*
X0017538Y0134820D01*
X0018682Y0133676D02*
X0076720Y0133676D01*
X0076720Y0130479D02*
X0065611Y0130479D01*
X0066265Y0128881D02*
X0076720Y0128881D01*
X0076720Y0127282D02*
X0066265Y0127282D01*
X0065602Y0125684D02*
X0076720Y0125684D01*
X0076720Y0124085D02*
X0063380Y0124085D01*
X0062900Y0122287D02*
X0056029Y0122287D01*
X0054485Y0121647D01*
X0053304Y0120466D01*
X0052665Y0118922D01*
X0052665Y0117251D01*
X0053304Y0115708D01*
X0054485Y0114526D01*
X0056029Y0113887D01*
X0062900Y0113887D01*
X0064444Y0114526D01*
X0065625Y0115708D01*
X0066265Y0117251D01*
X0066265Y0118922D01*
X0065625Y0120466D01*
X0064444Y0121647D01*
X0062900Y0122287D01*
X0065203Y0120888D02*
X0076720Y0120888D01*
X0076720Y0119290D02*
X0066112Y0119290D01*
X0066265Y0117691D02*
X0076720Y0117691D01*
X0076720Y0116093D02*
X0065785Y0116093D01*
X0064367Y0114494D02*
X0076720Y0114494D01*
X0076720Y0112896D02*
X0012811Y0112896D01*
X0012811Y0114494D02*
X0024562Y0114494D01*
X0023144Y0116093D02*
X0012811Y0116093D01*
X0012811Y0117691D02*
X0022665Y0117691D01*
X0022817Y0119290D02*
X0012811Y0119290D01*
X0012811Y0120888D02*
X0023727Y0120888D01*
X0022562Y0122487D02*
X0012811Y0122487D01*
X0012811Y0124085D02*
X0020964Y0124085D01*
X0019365Y0125684D02*
X0012811Y0125684D01*
X0012811Y0127282D02*
X0017767Y0127282D01*
X0016168Y0128881D02*
X0012811Y0128881D01*
X0012811Y0130479D02*
X0014570Y0130479D01*
X0012971Y0132078D02*
X0012811Y0132078D01*
X0012811Y0111297D02*
X0076720Y0111297D01*
X0076720Y0109699D02*
X0012811Y0109699D01*
X0012811Y0108100D02*
X0076720Y0108100D01*
X0076720Y0106502D02*
X0012811Y0106502D01*
X0012811Y0104903D02*
X0076720Y0104903D01*
X0076720Y0103305D02*
X0012811Y0103305D01*
X0012811Y0101706D02*
X0077105Y0101706D01*
X0078692Y0100108D02*
X0012811Y0100108D01*
X0012811Y0098509D02*
X0079863Y0098509D01*
X0079863Y0096911D02*
X0012811Y0096911D01*
X0012811Y0095312D02*
X0079863Y0095312D01*
X0081193Y0093714D02*
X0012811Y0093714D01*
X0012811Y0092115D02*
X0082791Y0092115D01*
X0087833Y0090517D02*
X0012811Y0090517D01*
X0012811Y0088918D02*
X0089431Y0088918D01*
X0091030Y0087320D02*
X0012811Y0087320D01*
X0012811Y0085721D02*
X0092628Y0085721D01*
X0094227Y0084123D02*
X0012811Y0084123D01*
X0012811Y0082524D02*
X0095825Y0082524D01*
X0097424Y0080926D02*
X0012811Y0080926D01*
X0012811Y0079327D02*
X0099022Y0079327D01*
X0100621Y0077729D02*
X0012811Y0077729D01*
X0012811Y0076130D02*
X0102219Y0076130D01*
X0103818Y0074532D02*
X0012811Y0074532D01*
X0012811Y0072933D02*
X0105416Y0072933D01*
X0107015Y0071334D02*
X0012811Y0071334D01*
X0012811Y0069736D02*
X0108613Y0069736D01*
X0110212Y0068137D02*
X0012811Y0068137D01*
X0012811Y0066539D02*
X0111810Y0066539D01*
X0113409Y0064940D02*
X0012811Y0064940D01*
X0012811Y0063342D02*
X0115007Y0063342D01*
X0116606Y0061743D02*
X0012811Y0061743D01*
X0012811Y0060145D02*
X0118204Y0060145D01*
X0119803Y0058546D02*
X0012811Y0058546D01*
X0012811Y0056948D02*
X0121401Y0056948D01*
X0123000Y0055349D02*
X0012811Y0055349D01*
X0012811Y0053751D02*
X0124598Y0053751D01*
X0126197Y0052152D02*
X0012811Y0052152D01*
X0012811Y0050554D02*
X0127795Y0050554D01*
X0129394Y0048955D02*
X0012811Y0048955D01*
X0012811Y0047357D02*
X0130720Y0047357D01*
X0130720Y0045758D02*
X0012811Y0045758D01*
X0012811Y0044160D02*
X0130720Y0044160D01*
X0130720Y0042561D02*
X0012811Y0042561D01*
X0012811Y0040963D02*
X0130720Y0040963D01*
X0130720Y0039364D02*
X0012811Y0039364D01*
X0012811Y0037766D02*
X0130720Y0037766D01*
X0130720Y0036167D02*
X0012811Y0036167D01*
X0012811Y0034569D02*
X0130720Y0034569D01*
X0130720Y0032970D02*
X0012811Y0032970D01*
X0012811Y0031372D02*
X0130720Y0031372D01*
X0130720Y0029773D02*
X0012811Y0029773D01*
X0012811Y0028175D02*
X0130720Y0028175D01*
X0130720Y0026576D02*
X0012811Y0026576D01*
X0012811Y0024978D02*
X0130720Y0024978D01*
X0130720Y0023379D02*
X0016254Y0023379D01*
X0019474Y0021781D02*
X0130720Y0021781D01*
X0129335Y0020182D02*
X0021137Y0020182D01*
X0022294Y0018584D02*
X0128738Y0018584D01*
X0128738Y0016985D02*
X0023183Y0016985D01*
X0023612Y0015387D02*
X0128738Y0015387D01*
X0128738Y0013788D02*
X0023910Y0013788D01*
X0023910Y0012190D02*
X0128738Y0012190D01*
X0128738Y0010591D02*
X0023707Y0010591D01*
X0023279Y0008993D02*
X0129234Y0008993D01*
X0155667Y0079327D02*
X0157126Y0079327D01*
X0157265Y0080926D02*
X0158725Y0080926D01*
X0158557Y0082524D02*
X0157458Y0082524D01*
X0157458Y0084123D02*
X0158557Y0084123D01*
X0159539Y0085721D02*
X0156477Y0085721D01*
X0141406Y0181632D02*
X0139806Y0181632D01*
X0139806Y0183230D02*
X0141406Y0183230D01*
X0141406Y0184829D02*
X0139806Y0184829D01*
X0139806Y0186427D02*
X0141406Y0186427D01*
X0145492Y0186427D02*
X0147370Y0186427D01*
X0147370Y0184829D02*
X0147091Y0184829D01*
X0076720Y0151260D02*
X0065114Y0151260D01*
X0064931Y0151443D02*
X0064371Y0151850D01*
X0063754Y0152164D01*
X0063095Y0152378D01*
X0062411Y0152487D01*
X0059465Y0152487D01*
X0059465Y0148087D01*
X0066465Y0148087D01*
X0066465Y0148433D01*
X0066356Y0149117D01*
X0066142Y0149776D01*
X0065828Y0150393D01*
X0065421Y0150953D01*
X0064931Y0151443D01*
X0066179Y0149662D02*
X0076720Y0149662D01*
X0076720Y0148063D02*
X0066465Y0148063D01*
X0066465Y0148087D02*
X0059465Y0148087D01*
X0059465Y0148087D01*
X0059464Y0148087D01*
X0059464Y0148087D01*
X0052465Y0148087D01*
X0052465Y0148433D01*
X0052573Y0149117D01*
X0052787Y0149776D01*
X0053101Y0150393D01*
X0053508Y0150953D01*
X0053998Y0151443D01*
X0054558Y0151850D01*
X0055176Y0152164D01*
X0055834Y0152378D01*
X0056518Y0152487D01*
X0059464Y0152487D01*
X0059464Y0148087D01*
X0052465Y0148087D01*
X0052465Y0147740D01*
X0052573Y0147056D01*
X0052787Y0146398D01*
X0053101Y0145781D01*
X0053508Y0145220D01*
X0053998Y0144730D01*
X0054558Y0144323D01*
X0055176Y0144009D01*
X0055834Y0143795D01*
X0056518Y0143687D01*
X0059464Y0143687D01*
X0059464Y0148086D01*
X0059465Y0148086D01*
X0059465Y0143687D01*
X0062411Y0143687D01*
X0063095Y0143795D01*
X0063754Y0144009D01*
X0064371Y0144323D01*
X0064931Y0144730D01*
X0065421Y0145220D01*
X0065828Y0145781D01*
X0066142Y0146398D01*
X0066356Y0147056D01*
X0066465Y0147740D01*
X0066465Y0148087D01*
X0066164Y0146465D02*
X0076720Y0146465D01*
X0076720Y0144866D02*
X0065067Y0144866D01*
X0059465Y0144866D02*
X0059464Y0144866D01*
X0059464Y0146465D02*
X0059465Y0146465D01*
X0059464Y0148063D02*
X0059465Y0148063D01*
X0059464Y0149662D02*
X0059465Y0149662D01*
X0059464Y0151260D02*
X0059465Y0151260D01*
X0054538Y0141669D02*
X0034391Y0141669D01*
X0035789Y0140070D02*
X0053140Y0140070D01*
X0052665Y0138472D02*
X0036265Y0138472D01*
X0036108Y0136873D02*
X0052821Y0136873D01*
X0053737Y0135275D02*
X0035193Y0135275D01*
X0033404Y0132078D02*
X0055525Y0132078D01*
X0053318Y0130479D02*
X0035611Y0130479D01*
X0036265Y0128881D02*
X0052665Y0128881D01*
X0052665Y0127282D02*
X0036265Y0127282D01*
X0035602Y0125684D02*
X0053328Y0125684D01*
X0055549Y0124085D02*
X0033380Y0124085D01*
X0035203Y0120888D02*
X0053727Y0120888D01*
X0052817Y0119290D02*
X0036112Y0119290D01*
X0036265Y0117691D02*
X0052665Y0117691D01*
X0053144Y0116093D02*
X0035785Y0116093D01*
X0034367Y0114494D02*
X0054562Y0114494D01*
X0053863Y0144866D02*
X0034784Y0144866D01*
X0035939Y0146465D02*
X0052765Y0146465D01*
X0052465Y0148063D02*
X0036265Y0148063D01*
X0035958Y0149662D02*
X0052750Y0149662D01*
X0053815Y0151260D02*
X0034831Y0151260D01*
X0030315Y0164048D02*
X0052583Y0164048D01*
X0051041Y0165647D02*
X0031913Y0165647D01*
X0031941Y0165674D02*
X0028807Y0162540D01*
X0024375Y0162540D01*
X0021241Y0165674D01*
X0021241Y0170106D01*
X0024375Y0173240D01*
X0028807Y0173240D01*
X0031941Y0170106D01*
X0031941Y0165674D01*
X0031941Y0167245D02*
X0051041Y0167245D01*
X0051041Y0168844D02*
X0031941Y0168844D01*
X0031604Y0170442D02*
X0051294Y0170442D01*
X0052893Y0172041D02*
X0030006Y0172041D01*
X0027503Y0182863D02*
X0029964Y0185323D01*
X0029964Y0188803D01*
X0027503Y0191263D01*
X0024024Y0191263D01*
X0021564Y0188803D01*
X0021564Y0185323D01*
X0024024Y0182863D01*
X0027503Y0182863D01*
X0027871Y0183230D02*
X0045519Y0183230D01*
X0047117Y0181632D02*
X0017538Y0181632D01*
X0017538Y0183230D02*
X0023657Y0183230D01*
X0022058Y0184829D02*
X0017538Y0184829D01*
X0017538Y0186427D02*
X0021564Y0186427D01*
X0021564Y0188026D02*
X0017538Y0188026D01*
X0017538Y0189624D02*
X0022385Y0189624D01*
X0023984Y0191223D02*
X0017538Y0191223D01*
X0017538Y0192821D02*
X0035928Y0192821D01*
X0037526Y0191223D02*
X0027544Y0191223D01*
X0029142Y0189624D02*
X0039125Y0189624D01*
X0040723Y0188026D02*
X0029964Y0188026D01*
X0029964Y0186427D02*
X0042322Y0186427D01*
X0043920Y0184829D02*
X0029469Y0184829D01*
X0034329Y0194420D02*
X0017538Y0194420D01*
X0017538Y0196018D02*
X0032731Y0196018D01*
X0031132Y0197617D02*
X0017538Y0197617D01*
X0017538Y0199215D02*
X0029534Y0199215D01*
X0027935Y0200814D02*
X0017538Y0200814D01*
X0017538Y0202412D02*
X0026337Y0202412D01*
X0024738Y0204011D02*
X0017538Y0204011D01*
X0017538Y0205609D02*
X0023140Y0205609D01*
X0021541Y0207208D02*
X0017538Y0207208D01*
X0017538Y0208806D02*
X0019943Y0208806D01*
X0018344Y0210405D02*
X0017538Y0210405D01*
X0020858Y0215201D02*
X0061249Y0215201D01*
X0059650Y0216799D02*
X0031570Y0216799D01*
X0032771Y0218398D02*
X0058052Y0218398D01*
X0056453Y0219996D02*
X0033161Y0219996D01*
X0032951Y0221595D02*
X0054855Y0221595D01*
X0053256Y0223193D02*
X0032003Y0223193D01*
X0031030Y0226390D02*
X0050059Y0226390D01*
X0048461Y0227989D02*
X0032602Y0227989D01*
X0033161Y0229587D02*
X0046862Y0229587D01*
X0045264Y0231186D02*
X0033120Y0231186D01*
X0032412Y0232784D02*
X0043665Y0232784D01*
X0042067Y0234383D02*
X0030191Y0234383D01*
X0029838Y0235726D02*
X0030526Y0235950D01*
X0031172Y0236278D01*
X0031757Y0236704D01*
X0032269Y0237216D01*
X0032695Y0237802D01*
X0033024Y0238447D01*
X0033247Y0239135D01*
X0033361Y0239851D01*
X0033361Y0240113D01*
X0026061Y0240113D01*
X0026061Y0235613D01*
X0029123Y0235613D01*
X0029838Y0235726D01*
X0030588Y0235981D02*
X0040468Y0235981D01*
X0038870Y0237580D02*
X0032534Y0237580D01*
X0033254Y0239178D02*
X0037271Y0239178D01*
X0035673Y0240777D02*
X0033329Y0240777D01*
X0033361Y0240575D02*
X0033247Y0241290D01*
X0033024Y0241978D01*
X0032695Y0242624D01*
X0032269Y0243209D01*
X0031757Y0243721D01*
X0031172Y0244147D01*
X0030526Y0244476D01*
X0029838Y0244699D01*
X0029123Y0244813D01*
X0026061Y0244813D01*
X0026061Y0240313D01*
X0033361Y0240313D01*
X0033361Y0240575D01*
X0032821Y0242375D02*
X0034074Y0242375D01*
X0032476Y0243974D02*
X0031410Y0243974D01*
X0030877Y0245572D02*
X0020688Y0245572D01*
X0020688Y0247171D02*
X0029279Y0247171D01*
X0027680Y0248769D02*
X0020688Y0248769D01*
X0025861Y0243974D02*
X0026061Y0243974D01*
X0026061Y0242375D02*
X0025861Y0242375D01*
X0025861Y0240777D02*
X0026061Y0240777D01*
X0026061Y0239178D02*
X0025861Y0239178D01*
X0025861Y0237580D02*
X0026061Y0237580D01*
X0026061Y0235981D02*
X0025861Y0235981D01*
X0021730Y0234383D02*
X0020688Y0234383D01*
X0020688Y0235981D02*
X0021333Y0235981D01*
X0020891Y0226390D02*
X0020688Y0226390D01*
X0020688Y0224792D02*
X0051658Y0224792D01*
X0062847Y0213602D02*
X0022457Y0213602D01*
X0024055Y0212003D02*
X0064446Y0212003D01*
X0066044Y0210405D02*
X0025654Y0210405D01*
X0027252Y0208806D02*
X0067643Y0208806D01*
X0069241Y0207208D02*
X0028851Y0207208D01*
X0023175Y0172041D02*
X0017538Y0172041D01*
X0017538Y0173639D02*
X0055110Y0173639D01*
X0053512Y0175238D02*
X0017538Y0175238D01*
X0017538Y0176836D02*
X0051913Y0176836D01*
X0050315Y0178435D02*
X0017538Y0178435D01*
X0017538Y0180033D02*
X0048716Y0180033D01*
X0051230Y0184829D02*
X0051775Y0184829D01*
X0051364Y0186427D02*
X0049631Y0186427D01*
X0048033Y0188026D02*
X0051364Y0188026D01*
X0052103Y0189624D02*
X0046434Y0189624D01*
X0052828Y0183230D02*
X0053374Y0183230D01*
X0056491Y0167245D02*
X0056691Y0167245D01*
X0056691Y0165647D02*
X0056491Y0165647D01*
X0056491Y0164048D02*
X0056691Y0164048D01*
X0056691Y0162450D02*
X0056491Y0162450D01*
X0054182Y0162450D02*
X0017538Y0162450D01*
X0017538Y0164048D02*
X0022866Y0164048D01*
X0021268Y0165647D02*
X0017538Y0165647D01*
X0017538Y0167245D02*
X0021241Y0167245D01*
X0021241Y0168844D02*
X0017538Y0168844D01*
X0017538Y0170442D02*
X0021577Y0170442D01*
X0017538Y0160851D02*
X0067898Y0160851D01*
X0069497Y0159253D02*
X0017538Y0159253D01*
X0017538Y0157654D02*
X0071095Y0157654D01*
X0072694Y0156056D02*
X0017538Y0156056D01*
X0017538Y0154457D02*
X0074292Y0154457D01*
X0075891Y0152859D02*
X0017538Y0152859D01*
X0020281Y0132078D02*
X0025525Y0132078D01*
X0023318Y0130479D02*
X0021879Y0130479D01*
X0029872Y0122487D02*
X0076720Y0122487D01*
X0066300Y0162450D02*
X0058999Y0162450D01*
X0060598Y0164048D02*
X0064701Y0164048D01*
X0063103Y0165647D02*
X0062141Y0165647D01*
X0049140Y0279141D02*
X0024950Y0279141D01*
X0019239Y0280739D02*
X0017538Y0280739D01*
X0017538Y0279141D02*
X0017640Y0279141D01*
X0017538Y0282338D02*
X0018965Y0282338D01*
X0018643Y0283937D02*
X0017538Y0283937D01*
X0017538Y0285535D02*
X0018919Y0285535D01*
X0019961Y0287134D02*
X0017538Y0287134D01*
X0025861Y0459773D02*
X0026061Y0459773D01*
X0026061Y0461371D02*
X0025861Y0461371D01*
X0020242Y0469364D02*
X0012811Y0469364D01*
X0012811Y0470962D02*
X0019000Y0470962D01*
X0018562Y0472561D02*
X0012811Y0472561D01*
X0012811Y0474159D02*
X0018724Y0474159D01*
X0019530Y0475758D02*
X0012811Y0475758D01*
X0012811Y0477356D02*
X0021900Y0477356D01*
X0019893Y0466167D02*
X0012811Y0466167D01*
X0012811Y0467765D02*
X0030820Y0467765D01*
X0018856Y0464568D02*
X0012811Y0464568D01*
M02*
