G75*
%MOIN*%
%OFA0B0*%
%FSLAX25Y25*%
%IPPOS*%
%LPD*%
%AMOC8*
5,1,8,0,0,1.08239X$1,22.5*
%
%ADD10C,0.00000*%
%ADD11C,0.00600*%
D10*
X0001000Y0001000D02*
X0001000Y0634858D01*
X0197850Y0634858D01*
X0197850Y0001000D01*
X0001000Y0001000D01*
X0006512Y0012811D02*
X0006514Y0012969D01*
X0006520Y0013127D01*
X0006530Y0013285D01*
X0006544Y0013443D01*
X0006562Y0013600D01*
X0006583Y0013757D01*
X0006609Y0013913D01*
X0006639Y0014069D01*
X0006672Y0014224D01*
X0006710Y0014377D01*
X0006751Y0014530D01*
X0006796Y0014682D01*
X0006845Y0014833D01*
X0006898Y0014982D01*
X0006954Y0015130D01*
X0007014Y0015276D01*
X0007078Y0015421D01*
X0007146Y0015564D01*
X0007217Y0015706D01*
X0007291Y0015846D01*
X0007369Y0015983D01*
X0007451Y0016119D01*
X0007535Y0016253D01*
X0007624Y0016384D01*
X0007715Y0016513D01*
X0007810Y0016640D01*
X0007907Y0016765D01*
X0008008Y0016887D01*
X0008112Y0017006D01*
X0008219Y0017123D01*
X0008329Y0017237D01*
X0008442Y0017348D01*
X0008557Y0017457D01*
X0008675Y0017562D01*
X0008796Y0017664D01*
X0008919Y0017764D01*
X0009045Y0017860D01*
X0009173Y0017953D01*
X0009303Y0018043D01*
X0009436Y0018129D01*
X0009571Y0018213D01*
X0009707Y0018292D01*
X0009846Y0018369D01*
X0009987Y0018441D01*
X0010129Y0018511D01*
X0010273Y0018576D01*
X0010419Y0018638D01*
X0010566Y0018696D01*
X0010715Y0018751D01*
X0010865Y0018802D01*
X0011016Y0018849D01*
X0011168Y0018892D01*
X0011321Y0018931D01*
X0011476Y0018967D01*
X0011631Y0018998D01*
X0011787Y0019026D01*
X0011943Y0019050D01*
X0012100Y0019070D01*
X0012258Y0019086D01*
X0012415Y0019098D01*
X0012574Y0019106D01*
X0012732Y0019110D01*
X0012890Y0019110D01*
X0013048Y0019106D01*
X0013207Y0019098D01*
X0013364Y0019086D01*
X0013522Y0019070D01*
X0013679Y0019050D01*
X0013835Y0019026D01*
X0013991Y0018998D01*
X0014146Y0018967D01*
X0014301Y0018931D01*
X0014454Y0018892D01*
X0014606Y0018849D01*
X0014757Y0018802D01*
X0014907Y0018751D01*
X0015056Y0018696D01*
X0015203Y0018638D01*
X0015349Y0018576D01*
X0015493Y0018511D01*
X0015635Y0018441D01*
X0015776Y0018369D01*
X0015915Y0018292D01*
X0016051Y0018213D01*
X0016186Y0018129D01*
X0016319Y0018043D01*
X0016449Y0017953D01*
X0016577Y0017860D01*
X0016703Y0017764D01*
X0016826Y0017664D01*
X0016947Y0017562D01*
X0017065Y0017457D01*
X0017180Y0017348D01*
X0017293Y0017237D01*
X0017403Y0017123D01*
X0017510Y0017006D01*
X0017614Y0016887D01*
X0017715Y0016765D01*
X0017812Y0016640D01*
X0017907Y0016513D01*
X0017998Y0016384D01*
X0018087Y0016253D01*
X0018171Y0016119D01*
X0018253Y0015983D01*
X0018331Y0015846D01*
X0018405Y0015706D01*
X0018476Y0015564D01*
X0018544Y0015421D01*
X0018608Y0015276D01*
X0018668Y0015130D01*
X0018724Y0014982D01*
X0018777Y0014833D01*
X0018826Y0014682D01*
X0018871Y0014530D01*
X0018912Y0014377D01*
X0018950Y0014224D01*
X0018983Y0014069D01*
X0019013Y0013913D01*
X0019039Y0013757D01*
X0019060Y0013600D01*
X0019078Y0013443D01*
X0019092Y0013285D01*
X0019102Y0013127D01*
X0019108Y0012969D01*
X0019110Y0012811D01*
X0019108Y0012653D01*
X0019102Y0012495D01*
X0019092Y0012337D01*
X0019078Y0012179D01*
X0019060Y0012022D01*
X0019039Y0011865D01*
X0019013Y0011709D01*
X0018983Y0011553D01*
X0018950Y0011398D01*
X0018912Y0011245D01*
X0018871Y0011092D01*
X0018826Y0010940D01*
X0018777Y0010789D01*
X0018724Y0010640D01*
X0018668Y0010492D01*
X0018608Y0010346D01*
X0018544Y0010201D01*
X0018476Y0010058D01*
X0018405Y0009916D01*
X0018331Y0009776D01*
X0018253Y0009639D01*
X0018171Y0009503D01*
X0018087Y0009369D01*
X0017998Y0009238D01*
X0017907Y0009109D01*
X0017812Y0008982D01*
X0017715Y0008857D01*
X0017614Y0008735D01*
X0017510Y0008616D01*
X0017403Y0008499D01*
X0017293Y0008385D01*
X0017180Y0008274D01*
X0017065Y0008165D01*
X0016947Y0008060D01*
X0016826Y0007958D01*
X0016703Y0007858D01*
X0016577Y0007762D01*
X0016449Y0007669D01*
X0016319Y0007579D01*
X0016186Y0007493D01*
X0016051Y0007409D01*
X0015915Y0007330D01*
X0015776Y0007253D01*
X0015635Y0007181D01*
X0015493Y0007111D01*
X0015349Y0007046D01*
X0015203Y0006984D01*
X0015056Y0006926D01*
X0014907Y0006871D01*
X0014757Y0006820D01*
X0014606Y0006773D01*
X0014454Y0006730D01*
X0014301Y0006691D01*
X0014146Y0006655D01*
X0013991Y0006624D01*
X0013835Y0006596D01*
X0013679Y0006572D01*
X0013522Y0006552D01*
X0013364Y0006536D01*
X0013207Y0006524D01*
X0013048Y0006516D01*
X0012890Y0006512D01*
X0012732Y0006512D01*
X0012574Y0006516D01*
X0012415Y0006524D01*
X0012258Y0006536D01*
X0012100Y0006552D01*
X0011943Y0006572D01*
X0011787Y0006596D01*
X0011631Y0006624D01*
X0011476Y0006655D01*
X0011321Y0006691D01*
X0011168Y0006730D01*
X0011016Y0006773D01*
X0010865Y0006820D01*
X0010715Y0006871D01*
X0010566Y0006926D01*
X0010419Y0006984D01*
X0010273Y0007046D01*
X0010129Y0007111D01*
X0009987Y0007181D01*
X0009846Y0007253D01*
X0009707Y0007330D01*
X0009571Y0007409D01*
X0009436Y0007493D01*
X0009303Y0007579D01*
X0009173Y0007669D01*
X0009045Y0007762D01*
X0008919Y0007858D01*
X0008796Y0007958D01*
X0008675Y0008060D01*
X0008557Y0008165D01*
X0008442Y0008274D01*
X0008329Y0008385D01*
X0008219Y0008499D01*
X0008112Y0008616D01*
X0008008Y0008735D01*
X0007907Y0008857D01*
X0007810Y0008982D01*
X0007715Y0009109D01*
X0007624Y0009238D01*
X0007535Y0009369D01*
X0007451Y0009503D01*
X0007369Y0009639D01*
X0007291Y0009776D01*
X0007217Y0009916D01*
X0007146Y0010058D01*
X0007078Y0010201D01*
X0007014Y0010346D01*
X0006954Y0010492D01*
X0006898Y0010640D01*
X0006845Y0010789D01*
X0006796Y0010940D01*
X0006751Y0011092D01*
X0006710Y0011245D01*
X0006672Y0011398D01*
X0006639Y0011553D01*
X0006609Y0011709D01*
X0006583Y0011865D01*
X0006562Y0012022D01*
X0006544Y0012179D01*
X0006530Y0012337D01*
X0006520Y0012495D01*
X0006514Y0012653D01*
X0006512Y0012811D01*
X0170409Y0042969D02*
X0170411Y0043100D01*
X0170417Y0043232D01*
X0170427Y0043363D01*
X0170441Y0043494D01*
X0170459Y0043624D01*
X0170481Y0043753D01*
X0170506Y0043882D01*
X0170536Y0044010D01*
X0170570Y0044137D01*
X0170607Y0044264D01*
X0170648Y0044388D01*
X0170693Y0044512D01*
X0170742Y0044634D01*
X0170794Y0044755D01*
X0170850Y0044873D01*
X0170910Y0044991D01*
X0170973Y0045106D01*
X0171040Y0045219D01*
X0171110Y0045331D01*
X0171183Y0045440D01*
X0171259Y0045546D01*
X0171339Y0045651D01*
X0171422Y0045753D01*
X0171508Y0045852D01*
X0171597Y0045949D01*
X0171689Y0046043D01*
X0171784Y0046134D01*
X0171881Y0046223D01*
X0171981Y0046308D01*
X0172084Y0046390D01*
X0172189Y0046469D01*
X0172296Y0046545D01*
X0172406Y0046617D01*
X0172518Y0046686D01*
X0172632Y0046752D01*
X0172747Y0046814D01*
X0172865Y0046873D01*
X0172984Y0046928D01*
X0173105Y0046980D01*
X0173228Y0047027D01*
X0173352Y0047071D01*
X0173477Y0047112D01*
X0173603Y0047148D01*
X0173731Y0047181D01*
X0173859Y0047209D01*
X0173988Y0047234D01*
X0174118Y0047255D01*
X0174248Y0047272D01*
X0174379Y0047285D01*
X0174510Y0047294D01*
X0174641Y0047299D01*
X0174773Y0047300D01*
X0174904Y0047297D01*
X0175036Y0047290D01*
X0175167Y0047279D01*
X0175297Y0047264D01*
X0175427Y0047245D01*
X0175557Y0047222D01*
X0175685Y0047196D01*
X0175813Y0047165D01*
X0175940Y0047130D01*
X0176066Y0047092D01*
X0176190Y0047050D01*
X0176314Y0047004D01*
X0176435Y0046954D01*
X0176555Y0046901D01*
X0176674Y0046844D01*
X0176791Y0046784D01*
X0176905Y0046720D01*
X0177018Y0046652D01*
X0177129Y0046581D01*
X0177238Y0046507D01*
X0177344Y0046430D01*
X0177448Y0046349D01*
X0177549Y0046266D01*
X0177648Y0046179D01*
X0177744Y0046089D01*
X0177837Y0045996D01*
X0177928Y0045901D01*
X0178015Y0045803D01*
X0178100Y0045702D01*
X0178181Y0045599D01*
X0178259Y0045493D01*
X0178334Y0045385D01*
X0178406Y0045275D01*
X0178474Y0045163D01*
X0178539Y0045049D01*
X0178600Y0044932D01*
X0178658Y0044814D01*
X0178712Y0044694D01*
X0178763Y0044573D01*
X0178810Y0044450D01*
X0178853Y0044326D01*
X0178892Y0044201D01*
X0178928Y0044074D01*
X0178959Y0043946D01*
X0178987Y0043818D01*
X0179011Y0043689D01*
X0179031Y0043559D01*
X0179047Y0043428D01*
X0179059Y0043297D01*
X0179067Y0043166D01*
X0179071Y0043035D01*
X0179071Y0042903D01*
X0179067Y0042772D01*
X0179059Y0042641D01*
X0179047Y0042510D01*
X0179031Y0042379D01*
X0179011Y0042249D01*
X0178987Y0042120D01*
X0178959Y0041992D01*
X0178928Y0041864D01*
X0178892Y0041737D01*
X0178853Y0041612D01*
X0178810Y0041488D01*
X0178763Y0041365D01*
X0178712Y0041244D01*
X0178658Y0041124D01*
X0178600Y0041006D01*
X0178539Y0040889D01*
X0178474Y0040775D01*
X0178406Y0040663D01*
X0178334Y0040553D01*
X0178259Y0040445D01*
X0178181Y0040339D01*
X0178100Y0040236D01*
X0178015Y0040135D01*
X0177928Y0040037D01*
X0177837Y0039942D01*
X0177744Y0039849D01*
X0177648Y0039759D01*
X0177549Y0039672D01*
X0177448Y0039589D01*
X0177344Y0039508D01*
X0177238Y0039431D01*
X0177129Y0039357D01*
X0177018Y0039286D01*
X0176906Y0039218D01*
X0176791Y0039154D01*
X0176674Y0039094D01*
X0176555Y0039037D01*
X0176435Y0038984D01*
X0176314Y0038934D01*
X0176190Y0038888D01*
X0176066Y0038846D01*
X0175940Y0038808D01*
X0175813Y0038773D01*
X0175685Y0038742D01*
X0175557Y0038716D01*
X0175427Y0038693D01*
X0175297Y0038674D01*
X0175167Y0038659D01*
X0175036Y0038648D01*
X0174904Y0038641D01*
X0174773Y0038638D01*
X0174641Y0038639D01*
X0174510Y0038644D01*
X0174379Y0038653D01*
X0174248Y0038666D01*
X0174118Y0038683D01*
X0173988Y0038704D01*
X0173859Y0038729D01*
X0173731Y0038757D01*
X0173603Y0038790D01*
X0173477Y0038826D01*
X0173352Y0038867D01*
X0173228Y0038911D01*
X0173105Y0038958D01*
X0172984Y0039010D01*
X0172865Y0039065D01*
X0172747Y0039124D01*
X0172632Y0039186D01*
X0172518Y0039252D01*
X0172406Y0039321D01*
X0172296Y0039393D01*
X0172189Y0039469D01*
X0172084Y0039548D01*
X0171981Y0039630D01*
X0171881Y0039715D01*
X0171784Y0039804D01*
X0171689Y0039895D01*
X0171597Y0039989D01*
X0171508Y0040086D01*
X0171422Y0040185D01*
X0171339Y0040287D01*
X0171259Y0040392D01*
X0171183Y0040498D01*
X0171110Y0040607D01*
X0171040Y0040719D01*
X0170973Y0040832D01*
X0170910Y0040947D01*
X0170850Y0041065D01*
X0170794Y0041183D01*
X0170742Y0041304D01*
X0170693Y0041426D01*
X0170648Y0041550D01*
X0170607Y0041674D01*
X0170570Y0041801D01*
X0170536Y0041928D01*
X0170506Y0042056D01*
X0170481Y0042185D01*
X0170459Y0042314D01*
X0170441Y0042444D01*
X0170427Y0042575D01*
X0170417Y0042706D01*
X0170411Y0042838D01*
X0170409Y0042969D01*
X0173559Y0069543D02*
X0173561Y0069674D01*
X0173567Y0069806D01*
X0173577Y0069937D01*
X0173591Y0070068D01*
X0173609Y0070198D01*
X0173631Y0070327D01*
X0173656Y0070456D01*
X0173686Y0070584D01*
X0173720Y0070711D01*
X0173757Y0070838D01*
X0173798Y0070962D01*
X0173843Y0071086D01*
X0173892Y0071208D01*
X0173944Y0071329D01*
X0174000Y0071447D01*
X0174060Y0071565D01*
X0174123Y0071680D01*
X0174190Y0071793D01*
X0174260Y0071905D01*
X0174333Y0072014D01*
X0174409Y0072120D01*
X0174489Y0072225D01*
X0174572Y0072327D01*
X0174658Y0072426D01*
X0174747Y0072523D01*
X0174839Y0072617D01*
X0174934Y0072708D01*
X0175031Y0072797D01*
X0175131Y0072882D01*
X0175234Y0072964D01*
X0175339Y0073043D01*
X0175446Y0073119D01*
X0175556Y0073191D01*
X0175668Y0073260D01*
X0175782Y0073326D01*
X0175897Y0073388D01*
X0176015Y0073447D01*
X0176134Y0073502D01*
X0176255Y0073554D01*
X0176378Y0073601D01*
X0176502Y0073645D01*
X0176627Y0073686D01*
X0176753Y0073722D01*
X0176881Y0073755D01*
X0177009Y0073783D01*
X0177138Y0073808D01*
X0177268Y0073829D01*
X0177398Y0073846D01*
X0177529Y0073859D01*
X0177660Y0073868D01*
X0177791Y0073873D01*
X0177923Y0073874D01*
X0178054Y0073871D01*
X0178186Y0073864D01*
X0178317Y0073853D01*
X0178447Y0073838D01*
X0178577Y0073819D01*
X0178707Y0073796D01*
X0178835Y0073770D01*
X0178963Y0073739D01*
X0179090Y0073704D01*
X0179216Y0073666D01*
X0179340Y0073624D01*
X0179464Y0073578D01*
X0179585Y0073528D01*
X0179705Y0073475D01*
X0179824Y0073418D01*
X0179941Y0073358D01*
X0180055Y0073294D01*
X0180168Y0073226D01*
X0180279Y0073155D01*
X0180388Y0073081D01*
X0180494Y0073004D01*
X0180598Y0072923D01*
X0180699Y0072840D01*
X0180798Y0072753D01*
X0180894Y0072663D01*
X0180987Y0072570D01*
X0181078Y0072475D01*
X0181165Y0072377D01*
X0181250Y0072276D01*
X0181331Y0072173D01*
X0181409Y0072067D01*
X0181484Y0071959D01*
X0181556Y0071849D01*
X0181624Y0071737D01*
X0181689Y0071623D01*
X0181750Y0071506D01*
X0181808Y0071388D01*
X0181862Y0071268D01*
X0181913Y0071147D01*
X0181960Y0071024D01*
X0182003Y0070900D01*
X0182042Y0070775D01*
X0182078Y0070648D01*
X0182109Y0070520D01*
X0182137Y0070392D01*
X0182161Y0070263D01*
X0182181Y0070133D01*
X0182197Y0070002D01*
X0182209Y0069871D01*
X0182217Y0069740D01*
X0182221Y0069609D01*
X0182221Y0069477D01*
X0182217Y0069346D01*
X0182209Y0069215D01*
X0182197Y0069084D01*
X0182181Y0068953D01*
X0182161Y0068823D01*
X0182137Y0068694D01*
X0182109Y0068566D01*
X0182078Y0068438D01*
X0182042Y0068311D01*
X0182003Y0068186D01*
X0181960Y0068062D01*
X0181913Y0067939D01*
X0181862Y0067818D01*
X0181808Y0067698D01*
X0181750Y0067580D01*
X0181689Y0067463D01*
X0181624Y0067349D01*
X0181556Y0067237D01*
X0181484Y0067127D01*
X0181409Y0067019D01*
X0181331Y0066913D01*
X0181250Y0066810D01*
X0181165Y0066709D01*
X0181078Y0066611D01*
X0180987Y0066516D01*
X0180894Y0066423D01*
X0180798Y0066333D01*
X0180699Y0066246D01*
X0180598Y0066163D01*
X0180494Y0066082D01*
X0180388Y0066005D01*
X0180279Y0065931D01*
X0180168Y0065860D01*
X0180056Y0065792D01*
X0179941Y0065728D01*
X0179824Y0065668D01*
X0179705Y0065611D01*
X0179585Y0065558D01*
X0179464Y0065508D01*
X0179340Y0065462D01*
X0179216Y0065420D01*
X0179090Y0065382D01*
X0178963Y0065347D01*
X0178835Y0065316D01*
X0178707Y0065290D01*
X0178577Y0065267D01*
X0178447Y0065248D01*
X0178317Y0065233D01*
X0178186Y0065222D01*
X0178054Y0065215D01*
X0177923Y0065212D01*
X0177791Y0065213D01*
X0177660Y0065218D01*
X0177529Y0065227D01*
X0177398Y0065240D01*
X0177268Y0065257D01*
X0177138Y0065278D01*
X0177009Y0065303D01*
X0176881Y0065331D01*
X0176753Y0065364D01*
X0176627Y0065400D01*
X0176502Y0065441D01*
X0176378Y0065485D01*
X0176255Y0065532D01*
X0176134Y0065584D01*
X0176015Y0065639D01*
X0175897Y0065698D01*
X0175782Y0065760D01*
X0175668Y0065826D01*
X0175556Y0065895D01*
X0175446Y0065967D01*
X0175339Y0066043D01*
X0175234Y0066122D01*
X0175131Y0066204D01*
X0175031Y0066289D01*
X0174934Y0066378D01*
X0174839Y0066469D01*
X0174747Y0066563D01*
X0174658Y0066660D01*
X0174572Y0066759D01*
X0174489Y0066861D01*
X0174409Y0066966D01*
X0174333Y0067072D01*
X0174260Y0067181D01*
X0174190Y0067293D01*
X0174123Y0067406D01*
X0174060Y0067521D01*
X0174000Y0067639D01*
X0173944Y0067757D01*
X0173892Y0067878D01*
X0173843Y0068000D01*
X0173798Y0068124D01*
X0173757Y0068248D01*
X0173720Y0068375D01*
X0173686Y0068502D01*
X0173656Y0068630D01*
X0173631Y0068759D01*
X0173609Y0068888D01*
X0173591Y0069018D01*
X0173577Y0069149D01*
X0173567Y0069280D01*
X0173561Y0069412D01*
X0173559Y0069543D01*
X0170409Y0096118D02*
X0170411Y0096249D01*
X0170417Y0096381D01*
X0170427Y0096512D01*
X0170441Y0096643D01*
X0170459Y0096773D01*
X0170481Y0096902D01*
X0170506Y0097031D01*
X0170536Y0097159D01*
X0170570Y0097286D01*
X0170607Y0097413D01*
X0170648Y0097537D01*
X0170693Y0097661D01*
X0170742Y0097783D01*
X0170794Y0097904D01*
X0170850Y0098022D01*
X0170910Y0098140D01*
X0170973Y0098255D01*
X0171040Y0098368D01*
X0171110Y0098480D01*
X0171183Y0098589D01*
X0171259Y0098695D01*
X0171339Y0098800D01*
X0171422Y0098902D01*
X0171508Y0099001D01*
X0171597Y0099098D01*
X0171689Y0099192D01*
X0171784Y0099283D01*
X0171881Y0099372D01*
X0171981Y0099457D01*
X0172084Y0099539D01*
X0172189Y0099618D01*
X0172296Y0099694D01*
X0172406Y0099766D01*
X0172518Y0099835D01*
X0172632Y0099901D01*
X0172747Y0099963D01*
X0172865Y0100022D01*
X0172984Y0100077D01*
X0173105Y0100129D01*
X0173228Y0100176D01*
X0173352Y0100220D01*
X0173477Y0100261D01*
X0173603Y0100297D01*
X0173731Y0100330D01*
X0173859Y0100358D01*
X0173988Y0100383D01*
X0174118Y0100404D01*
X0174248Y0100421D01*
X0174379Y0100434D01*
X0174510Y0100443D01*
X0174641Y0100448D01*
X0174773Y0100449D01*
X0174904Y0100446D01*
X0175036Y0100439D01*
X0175167Y0100428D01*
X0175297Y0100413D01*
X0175427Y0100394D01*
X0175557Y0100371D01*
X0175685Y0100345D01*
X0175813Y0100314D01*
X0175940Y0100279D01*
X0176066Y0100241D01*
X0176190Y0100199D01*
X0176314Y0100153D01*
X0176435Y0100103D01*
X0176555Y0100050D01*
X0176674Y0099993D01*
X0176791Y0099933D01*
X0176905Y0099869D01*
X0177018Y0099801D01*
X0177129Y0099730D01*
X0177238Y0099656D01*
X0177344Y0099579D01*
X0177448Y0099498D01*
X0177549Y0099415D01*
X0177648Y0099328D01*
X0177744Y0099238D01*
X0177837Y0099145D01*
X0177928Y0099050D01*
X0178015Y0098952D01*
X0178100Y0098851D01*
X0178181Y0098748D01*
X0178259Y0098642D01*
X0178334Y0098534D01*
X0178406Y0098424D01*
X0178474Y0098312D01*
X0178539Y0098198D01*
X0178600Y0098081D01*
X0178658Y0097963D01*
X0178712Y0097843D01*
X0178763Y0097722D01*
X0178810Y0097599D01*
X0178853Y0097475D01*
X0178892Y0097350D01*
X0178928Y0097223D01*
X0178959Y0097095D01*
X0178987Y0096967D01*
X0179011Y0096838D01*
X0179031Y0096708D01*
X0179047Y0096577D01*
X0179059Y0096446D01*
X0179067Y0096315D01*
X0179071Y0096184D01*
X0179071Y0096052D01*
X0179067Y0095921D01*
X0179059Y0095790D01*
X0179047Y0095659D01*
X0179031Y0095528D01*
X0179011Y0095398D01*
X0178987Y0095269D01*
X0178959Y0095141D01*
X0178928Y0095013D01*
X0178892Y0094886D01*
X0178853Y0094761D01*
X0178810Y0094637D01*
X0178763Y0094514D01*
X0178712Y0094393D01*
X0178658Y0094273D01*
X0178600Y0094155D01*
X0178539Y0094038D01*
X0178474Y0093924D01*
X0178406Y0093812D01*
X0178334Y0093702D01*
X0178259Y0093594D01*
X0178181Y0093488D01*
X0178100Y0093385D01*
X0178015Y0093284D01*
X0177928Y0093186D01*
X0177837Y0093091D01*
X0177744Y0092998D01*
X0177648Y0092908D01*
X0177549Y0092821D01*
X0177448Y0092738D01*
X0177344Y0092657D01*
X0177238Y0092580D01*
X0177129Y0092506D01*
X0177018Y0092435D01*
X0176906Y0092367D01*
X0176791Y0092303D01*
X0176674Y0092243D01*
X0176555Y0092186D01*
X0176435Y0092133D01*
X0176314Y0092083D01*
X0176190Y0092037D01*
X0176066Y0091995D01*
X0175940Y0091957D01*
X0175813Y0091922D01*
X0175685Y0091891D01*
X0175557Y0091865D01*
X0175427Y0091842D01*
X0175297Y0091823D01*
X0175167Y0091808D01*
X0175036Y0091797D01*
X0174904Y0091790D01*
X0174773Y0091787D01*
X0174641Y0091788D01*
X0174510Y0091793D01*
X0174379Y0091802D01*
X0174248Y0091815D01*
X0174118Y0091832D01*
X0173988Y0091853D01*
X0173859Y0091878D01*
X0173731Y0091906D01*
X0173603Y0091939D01*
X0173477Y0091975D01*
X0173352Y0092016D01*
X0173228Y0092060D01*
X0173105Y0092107D01*
X0172984Y0092159D01*
X0172865Y0092214D01*
X0172747Y0092273D01*
X0172632Y0092335D01*
X0172518Y0092401D01*
X0172406Y0092470D01*
X0172296Y0092542D01*
X0172189Y0092618D01*
X0172084Y0092697D01*
X0171981Y0092779D01*
X0171881Y0092864D01*
X0171784Y0092953D01*
X0171689Y0093044D01*
X0171597Y0093138D01*
X0171508Y0093235D01*
X0171422Y0093334D01*
X0171339Y0093436D01*
X0171259Y0093541D01*
X0171183Y0093647D01*
X0171110Y0093756D01*
X0171040Y0093868D01*
X0170973Y0093981D01*
X0170910Y0094096D01*
X0170850Y0094214D01*
X0170794Y0094332D01*
X0170742Y0094453D01*
X0170693Y0094575D01*
X0170648Y0094699D01*
X0170607Y0094823D01*
X0170570Y0094950D01*
X0170536Y0095077D01*
X0170506Y0095205D01*
X0170481Y0095334D01*
X0170459Y0095463D01*
X0170441Y0095593D01*
X0170427Y0095724D01*
X0170417Y0095855D01*
X0170411Y0095987D01*
X0170409Y0096118D01*
X0175803Y0016748D02*
X0175805Y0016906D01*
X0175811Y0017064D01*
X0175821Y0017222D01*
X0175835Y0017380D01*
X0175853Y0017537D01*
X0175874Y0017694D01*
X0175900Y0017850D01*
X0175930Y0018006D01*
X0175963Y0018161D01*
X0176001Y0018314D01*
X0176042Y0018467D01*
X0176087Y0018619D01*
X0176136Y0018770D01*
X0176189Y0018919D01*
X0176245Y0019067D01*
X0176305Y0019213D01*
X0176369Y0019358D01*
X0176437Y0019501D01*
X0176508Y0019643D01*
X0176582Y0019783D01*
X0176660Y0019920D01*
X0176742Y0020056D01*
X0176826Y0020190D01*
X0176915Y0020321D01*
X0177006Y0020450D01*
X0177101Y0020577D01*
X0177198Y0020702D01*
X0177299Y0020824D01*
X0177403Y0020943D01*
X0177510Y0021060D01*
X0177620Y0021174D01*
X0177733Y0021285D01*
X0177848Y0021394D01*
X0177966Y0021499D01*
X0178087Y0021601D01*
X0178210Y0021701D01*
X0178336Y0021797D01*
X0178464Y0021890D01*
X0178594Y0021980D01*
X0178727Y0022066D01*
X0178862Y0022150D01*
X0178998Y0022229D01*
X0179137Y0022306D01*
X0179278Y0022378D01*
X0179420Y0022448D01*
X0179564Y0022513D01*
X0179710Y0022575D01*
X0179857Y0022633D01*
X0180006Y0022688D01*
X0180156Y0022739D01*
X0180307Y0022786D01*
X0180459Y0022829D01*
X0180612Y0022868D01*
X0180767Y0022904D01*
X0180922Y0022935D01*
X0181078Y0022963D01*
X0181234Y0022987D01*
X0181391Y0023007D01*
X0181549Y0023023D01*
X0181706Y0023035D01*
X0181865Y0023043D01*
X0182023Y0023047D01*
X0182181Y0023047D01*
X0182339Y0023043D01*
X0182498Y0023035D01*
X0182655Y0023023D01*
X0182813Y0023007D01*
X0182970Y0022987D01*
X0183126Y0022963D01*
X0183282Y0022935D01*
X0183437Y0022904D01*
X0183592Y0022868D01*
X0183745Y0022829D01*
X0183897Y0022786D01*
X0184048Y0022739D01*
X0184198Y0022688D01*
X0184347Y0022633D01*
X0184494Y0022575D01*
X0184640Y0022513D01*
X0184784Y0022448D01*
X0184926Y0022378D01*
X0185067Y0022306D01*
X0185206Y0022229D01*
X0185342Y0022150D01*
X0185477Y0022066D01*
X0185610Y0021980D01*
X0185740Y0021890D01*
X0185868Y0021797D01*
X0185994Y0021701D01*
X0186117Y0021601D01*
X0186238Y0021499D01*
X0186356Y0021394D01*
X0186471Y0021285D01*
X0186584Y0021174D01*
X0186694Y0021060D01*
X0186801Y0020943D01*
X0186905Y0020824D01*
X0187006Y0020702D01*
X0187103Y0020577D01*
X0187198Y0020450D01*
X0187289Y0020321D01*
X0187378Y0020190D01*
X0187462Y0020056D01*
X0187544Y0019920D01*
X0187622Y0019783D01*
X0187696Y0019643D01*
X0187767Y0019501D01*
X0187835Y0019358D01*
X0187899Y0019213D01*
X0187959Y0019067D01*
X0188015Y0018919D01*
X0188068Y0018770D01*
X0188117Y0018619D01*
X0188162Y0018467D01*
X0188203Y0018314D01*
X0188241Y0018161D01*
X0188274Y0018006D01*
X0188304Y0017850D01*
X0188330Y0017694D01*
X0188351Y0017537D01*
X0188369Y0017380D01*
X0188383Y0017222D01*
X0188393Y0017064D01*
X0188399Y0016906D01*
X0188401Y0016748D01*
X0188399Y0016590D01*
X0188393Y0016432D01*
X0188383Y0016274D01*
X0188369Y0016116D01*
X0188351Y0015959D01*
X0188330Y0015802D01*
X0188304Y0015646D01*
X0188274Y0015490D01*
X0188241Y0015335D01*
X0188203Y0015182D01*
X0188162Y0015029D01*
X0188117Y0014877D01*
X0188068Y0014726D01*
X0188015Y0014577D01*
X0187959Y0014429D01*
X0187899Y0014283D01*
X0187835Y0014138D01*
X0187767Y0013995D01*
X0187696Y0013853D01*
X0187622Y0013713D01*
X0187544Y0013576D01*
X0187462Y0013440D01*
X0187378Y0013306D01*
X0187289Y0013175D01*
X0187198Y0013046D01*
X0187103Y0012919D01*
X0187006Y0012794D01*
X0186905Y0012672D01*
X0186801Y0012553D01*
X0186694Y0012436D01*
X0186584Y0012322D01*
X0186471Y0012211D01*
X0186356Y0012102D01*
X0186238Y0011997D01*
X0186117Y0011895D01*
X0185994Y0011795D01*
X0185868Y0011699D01*
X0185740Y0011606D01*
X0185610Y0011516D01*
X0185477Y0011430D01*
X0185342Y0011346D01*
X0185206Y0011267D01*
X0185067Y0011190D01*
X0184926Y0011118D01*
X0184784Y0011048D01*
X0184640Y0010983D01*
X0184494Y0010921D01*
X0184347Y0010863D01*
X0184198Y0010808D01*
X0184048Y0010757D01*
X0183897Y0010710D01*
X0183745Y0010667D01*
X0183592Y0010628D01*
X0183437Y0010592D01*
X0183282Y0010561D01*
X0183126Y0010533D01*
X0182970Y0010509D01*
X0182813Y0010489D01*
X0182655Y0010473D01*
X0182498Y0010461D01*
X0182339Y0010453D01*
X0182181Y0010449D01*
X0182023Y0010449D01*
X0181865Y0010453D01*
X0181706Y0010461D01*
X0181549Y0010473D01*
X0181391Y0010489D01*
X0181234Y0010509D01*
X0181078Y0010533D01*
X0180922Y0010561D01*
X0180767Y0010592D01*
X0180612Y0010628D01*
X0180459Y0010667D01*
X0180307Y0010710D01*
X0180156Y0010757D01*
X0180006Y0010808D01*
X0179857Y0010863D01*
X0179710Y0010921D01*
X0179564Y0010983D01*
X0179420Y0011048D01*
X0179278Y0011118D01*
X0179137Y0011190D01*
X0178998Y0011267D01*
X0178862Y0011346D01*
X0178727Y0011430D01*
X0178594Y0011516D01*
X0178464Y0011606D01*
X0178336Y0011699D01*
X0178210Y0011795D01*
X0178087Y0011895D01*
X0177966Y0011997D01*
X0177848Y0012102D01*
X0177733Y0012211D01*
X0177620Y0012322D01*
X0177510Y0012436D01*
X0177403Y0012553D01*
X0177299Y0012672D01*
X0177198Y0012794D01*
X0177101Y0012919D01*
X0177006Y0013046D01*
X0176915Y0013175D01*
X0176826Y0013306D01*
X0176742Y0013440D01*
X0176660Y0013576D01*
X0176582Y0013713D01*
X0176508Y0013853D01*
X0176437Y0013995D01*
X0176369Y0014138D01*
X0176305Y0014283D01*
X0176245Y0014429D01*
X0176189Y0014577D01*
X0176136Y0014726D01*
X0176087Y0014877D01*
X0176042Y0015029D01*
X0176001Y0015182D01*
X0175963Y0015335D01*
X0175930Y0015490D01*
X0175900Y0015646D01*
X0175874Y0015802D01*
X0175853Y0015959D01*
X0175835Y0016116D01*
X0175821Y0016274D01*
X0175811Y0016432D01*
X0175805Y0016590D01*
X0175803Y0016748D01*
X0179740Y0623047D02*
X0179742Y0623205D01*
X0179748Y0623363D01*
X0179758Y0623521D01*
X0179772Y0623679D01*
X0179790Y0623836D01*
X0179811Y0623993D01*
X0179837Y0624149D01*
X0179867Y0624305D01*
X0179900Y0624460D01*
X0179938Y0624613D01*
X0179979Y0624766D01*
X0180024Y0624918D01*
X0180073Y0625069D01*
X0180126Y0625218D01*
X0180182Y0625366D01*
X0180242Y0625512D01*
X0180306Y0625657D01*
X0180374Y0625800D01*
X0180445Y0625942D01*
X0180519Y0626082D01*
X0180597Y0626219D01*
X0180679Y0626355D01*
X0180763Y0626489D01*
X0180852Y0626620D01*
X0180943Y0626749D01*
X0181038Y0626876D01*
X0181135Y0627001D01*
X0181236Y0627123D01*
X0181340Y0627242D01*
X0181447Y0627359D01*
X0181557Y0627473D01*
X0181670Y0627584D01*
X0181785Y0627693D01*
X0181903Y0627798D01*
X0182024Y0627900D01*
X0182147Y0628000D01*
X0182273Y0628096D01*
X0182401Y0628189D01*
X0182531Y0628279D01*
X0182664Y0628365D01*
X0182799Y0628449D01*
X0182935Y0628528D01*
X0183074Y0628605D01*
X0183215Y0628677D01*
X0183357Y0628747D01*
X0183501Y0628812D01*
X0183647Y0628874D01*
X0183794Y0628932D01*
X0183943Y0628987D01*
X0184093Y0629038D01*
X0184244Y0629085D01*
X0184396Y0629128D01*
X0184549Y0629167D01*
X0184704Y0629203D01*
X0184859Y0629234D01*
X0185015Y0629262D01*
X0185171Y0629286D01*
X0185328Y0629306D01*
X0185486Y0629322D01*
X0185643Y0629334D01*
X0185802Y0629342D01*
X0185960Y0629346D01*
X0186118Y0629346D01*
X0186276Y0629342D01*
X0186435Y0629334D01*
X0186592Y0629322D01*
X0186750Y0629306D01*
X0186907Y0629286D01*
X0187063Y0629262D01*
X0187219Y0629234D01*
X0187374Y0629203D01*
X0187529Y0629167D01*
X0187682Y0629128D01*
X0187834Y0629085D01*
X0187985Y0629038D01*
X0188135Y0628987D01*
X0188284Y0628932D01*
X0188431Y0628874D01*
X0188577Y0628812D01*
X0188721Y0628747D01*
X0188863Y0628677D01*
X0189004Y0628605D01*
X0189143Y0628528D01*
X0189279Y0628449D01*
X0189414Y0628365D01*
X0189547Y0628279D01*
X0189677Y0628189D01*
X0189805Y0628096D01*
X0189931Y0628000D01*
X0190054Y0627900D01*
X0190175Y0627798D01*
X0190293Y0627693D01*
X0190408Y0627584D01*
X0190521Y0627473D01*
X0190631Y0627359D01*
X0190738Y0627242D01*
X0190842Y0627123D01*
X0190943Y0627001D01*
X0191040Y0626876D01*
X0191135Y0626749D01*
X0191226Y0626620D01*
X0191315Y0626489D01*
X0191399Y0626355D01*
X0191481Y0626219D01*
X0191559Y0626082D01*
X0191633Y0625942D01*
X0191704Y0625800D01*
X0191772Y0625657D01*
X0191836Y0625512D01*
X0191896Y0625366D01*
X0191952Y0625218D01*
X0192005Y0625069D01*
X0192054Y0624918D01*
X0192099Y0624766D01*
X0192140Y0624613D01*
X0192178Y0624460D01*
X0192211Y0624305D01*
X0192241Y0624149D01*
X0192267Y0623993D01*
X0192288Y0623836D01*
X0192306Y0623679D01*
X0192320Y0623521D01*
X0192330Y0623363D01*
X0192336Y0623205D01*
X0192338Y0623047D01*
X0192336Y0622889D01*
X0192330Y0622731D01*
X0192320Y0622573D01*
X0192306Y0622415D01*
X0192288Y0622258D01*
X0192267Y0622101D01*
X0192241Y0621945D01*
X0192211Y0621789D01*
X0192178Y0621634D01*
X0192140Y0621481D01*
X0192099Y0621328D01*
X0192054Y0621176D01*
X0192005Y0621025D01*
X0191952Y0620876D01*
X0191896Y0620728D01*
X0191836Y0620582D01*
X0191772Y0620437D01*
X0191704Y0620294D01*
X0191633Y0620152D01*
X0191559Y0620012D01*
X0191481Y0619875D01*
X0191399Y0619739D01*
X0191315Y0619605D01*
X0191226Y0619474D01*
X0191135Y0619345D01*
X0191040Y0619218D01*
X0190943Y0619093D01*
X0190842Y0618971D01*
X0190738Y0618852D01*
X0190631Y0618735D01*
X0190521Y0618621D01*
X0190408Y0618510D01*
X0190293Y0618401D01*
X0190175Y0618296D01*
X0190054Y0618194D01*
X0189931Y0618094D01*
X0189805Y0617998D01*
X0189677Y0617905D01*
X0189547Y0617815D01*
X0189414Y0617729D01*
X0189279Y0617645D01*
X0189143Y0617566D01*
X0189004Y0617489D01*
X0188863Y0617417D01*
X0188721Y0617347D01*
X0188577Y0617282D01*
X0188431Y0617220D01*
X0188284Y0617162D01*
X0188135Y0617107D01*
X0187985Y0617056D01*
X0187834Y0617009D01*
X0187682Y0616966D01*
X0187529Y0616927D01*
X0187374Y0616891D01*
X0187219Y0616860D01*
X0187063Y0616832D01*
X0186907Y0616808D01*
X0186750Y0616788D01*
X0186592Y0616772D01*
X0186435Y0616760D01*
X0186276Y0616752D01*
X0186118Y0616748D01*
X0185960Y0616748D01*
X0185802Y0616752D01*
X0185643Y0616760D01*
X0185486Y0616772D01*
X0185328Y0616788D01*
X0185171Y0616808D01*
X0185015Y0616832D01*
X0184859Y0616860D01*
X0184704Y0616891D01*
X0184549Y0616927D01*
X0184396Y0616966D01*
X0184244Y0617009D01*
X0184093Y0617056D01*
X0183943Y0617107D01*
X0183794Y0617162D01*
X0183647Y0617220D01*
X0183501Y0617282D01*
X0183357Y0617347D01*
X0183215Y0617417D01*
X0183074Y0617489D01*
X0182935Y0617566D01*
X0182799Y0617645D01*
X0182664Y0617729D01*
X0182531Y0617815D01*
X0182401Y0617905D01*
X0182273Y0617998D01*
X0182147Y0618094D01*
X0182024Y0618194D01*
X0181903Y0618296D01*
X0181785Y0618401D01*
X0181670Y0618510D01*
X0181557Y0618621D01*
X0181447Y0618735D01*
X0181340Y0618852D01*
X0181236Y0618971D01*
X0181135Y0619093D01*
X0181038Y0619218D01*
X0180943Y0619345D01*
X0180852Y0619474D01*
X0180763Y0619605D01*
X0180679Y0619739D01*
X0180597Y0619875D01*
X0180519Y0620012D01*
X0180445Y0620152D01*
X0180374Y0620294D01*
X0180306Y0620437D01*
X0180242Y0620582D01*
X0180182Y0620728D01*
X0180126Y0620876D01*
X0180073Y0621025D01*
X0180024Y0621176D01*
X0179979Y0621328D01*
X0179938Y0621481D01*
X0179900Y0621634D01*
X0179867Y0621789D01*
X0179837Y0621945D01*
X0179811Y0622101D01*
X0179790Y0622258D01*
X0179772Y0622415D01*
X0179758Y0622573D01*
X0179748Y0622731D01*
X0179742Y0622889D01*
X0179740Y0623047D01*
X0006512Y0623047D02*
X0006514Y0623205D01*
X0006520Y0623363D01*
X0006530Y0623521D01*
X0006544Y0623679D01*
X0006562Y0623836D01*
X0006583Y0623993D01*
X0006609Y0624149D01*
X0006639Y0624305D01*
X0006672Y0624460D01*
X0006710Y0624613D01*
X0006751Y0624766D01*
X0006796Y0624918D01*
X0006845Y0625069D01*
X0006898Y0625218D01*
X0006954Y0625366D01*
X0007014Y0625512D01*
X0007078Y0625657D01*
X0007146Y0625800D01*
X0007217Y0625942D01*
X0007291Y0626082D01*
X0007369Y0626219D01*
X0007451Y0626355D01*
X0007535Y0626489D01*
X0007624Y0626620D01*
X0007715Y0626749D01*
X0007810Y0626876D01*
X0007907Y0627001D01*
X0008008Y0627123D01*
X0008112Y0627242D01*
X0008219Y0627359D01*
X0008329Y0627473D01*
X0008442Y0627584D01*
X0008557Y0627693D01*
X0008675Y0627798D01*
X0008796Y0627900D01*
X0008919Y0628000D01*
X0009045Y0628096D01*
X0009173Y0628189D01*
X0009303Y0628279D01*
X0009436Y0628365D01*
X0009571Y0628449D01*
X0009707Y0628528D01*
X0009846Y0628605D01*
X0009987Y0628677D01*
X0010129Y0628747D01*
X0010273Y0628812D01*
X0010419Y0628874D01*
X0010566Y0628932D01*
X0010715Y0628987D01*
X0010865Y0629038D01*
X0011016Y0629085D01*
X0011168Y0629128D01*
X0011321Y0629167D01*
X0011476Y0629203D01*
X0011631Y0629234D01*
X0011787Y0629262D01*
X0011943Y0629286D01*
X0012100Y0629306D01*
X0012258Y0629322D01*
X0012415Y0629334D01*
X0012574Y0629342D01*
X0012732Y0629346D01*
X0012890Y0629346D01*
X0013048Y0629342D01*
X0013207Y0629334D01*
X0013364Y0629322D01*
X0013522Y0629306D01*
X0013679Y0629286D01*
X0013835Y0629262D01*
X0013991Y0629234D01*
X0014146Y0629203D01*
X0014301Y0629167D01*
X0014454Y0629128D01*
X0014606Y0629085D01*
X0014757Y0629038D01*
X0014907Y0628987D01*
X0015056Y0628932D01*
X0015203Y0628874D01*
X0015349Y0628812D01*
X0015493Y0628747D01*
X0015635Y0628677D01*
X0015776Y0628605D01*
X0015915Y0628528D01*
X0016051Y0628449D01*
X0016186Y0628365D01*
X0016319Y0628279D01*
X0016449Y0628189D01*
X0016577Y0628096D01*
X0016703Y0628000D01*
X0016826Y0627900D01*
X0016947Y0627798D01*
X0017065Y0627693D01*
X0017180Y0627584D01*
X0017293Y0627473D01*
X0017403Y0627359D01*
X0017510Y0627242D01*
X0017614Y0627123D01*
X0017715Y0627001D01*
X0017812Y0626876D01*
X0017907Y0626749D01*
X0017998Y0626620D01*
X0018087Y0626489D01*
X0018171Y0626355D01*
X0018253Y0626219D01*
X0018331Y0626082D01*
X0018405Y0625942D01*
X0018476Y0625800D01*
X0018544Y0625657D01*
X0018608Y0625512D01*
X0018668Y0625366D01*
X0018724Y0625218D01*
X0018777Y0625069D01*
X0018826Y0624918D01*
X0018871Y0624766D01*
X0018912Y0624613D01*
X0018950Y0624460D01*
X0018983Y0624305D01*
X0019013Y0624149D01*
X0019039Y0623993D01*
X0019060Y0623836D01*
X0019078Y0623679D01*
X0019092Y0623521D01*
X0019102Y0623363D01*
X0019108Y0623205D01*
X0019110Y0623047D01*
X0019108Y0622889D01*
X0019102Y0622731D01*
X0019092Y0622573D01*
X0019078Y0622415D01*
X0019060Y0622258D01*
X0019039Y0622101D01*
X0019013Y0621945D01*
X0018983Y0621789D01*
X0018950Y0621634D01*
X0018912Y0621481D01*
X0018871Y0621328D01*
X0018826Y0621176D01*
X0018777Y0621025D01*
X0018724Y0620876D01*
X0018668Y0620728D01*
X0018608Y0620582D01*
X0018544Y0620437D01*
X0018476Y0620294D01*
X0018405Y0620152D01*
X0018331Y0620012D01*
X0018253Y0619875D01*
X0018171Y0619739D01*
X0018087Y0619605D01*
X0017998Y0619474D01*
X0017907Y0619345D01*
X0017812Y0619218D01*
X0017715Y0619093D01*
X0017614Y0618971D01*
X0017510Y0618852D01*
X0017403Y0618735D01*
X0017293Y0618621D01*
X0017180Y0618510D01*
X0017065Y0618401D01*
X0016947Y0618296D01*
X0016826Y0618194D01*
X0016703Y0618094D01*
X0016577Y0617998D01*
X0016449Y0617905D01*
X0016319Y0617815D01*
X0016186Y0617729D01*
X0016051Y0617645D01*
X0015915Y0617566D01*
X0015776Y0617489D01*
X0015635Y0617417D01*
X0015493Y0617347D01*
X0015349Y0617282D01*
X0015203Y0617220D01*
X0015056Y0617162D01*
X0014907Y0617107D01*
X0014757Y0617056D01*
X0014606Y0617009D01*
X0014454Y0616966D01*
X0014301Y0616927D01*
X0014146Y0616891D01*
X0013991Y0616860D01*
X0013835Y0616832D01*
X0013679Y0616808D01*
X0013522Y0616788D01*
X0013364Y0616772D01*
X0013207Y0616760D01*
X0013048Y0616752D01*
X0012890Y0616748D01*
X0012732Y0616748D01*
X0012574Y0616752D01*
X0012415Y0616760D01*
X0012258Y0616772D01*
X0012100Y0616788D01*
X0011943Y0616808D01*
X0011787Y0616832D01*
X0011631Y0616860D01*
X0011476Y0616891D01*
X0011321Y0616927D01*
X0011168Y0616966D01*
X0011016Y0617009D01*
X0010865Y0617056D01*
X0010715Y0617107D01*
X0010566Y0617162D01*
X0010419Y0617220D01*
X0010273Y0617282D01*
X0010129Y0617347D01*
X0009987Y0617417D01*
X0009846Y0617489D01*
X0009707Y0617566D01*
X0009571Y0617645D01*
X0009436Y0617729D01*
X0009303Y0617815D01*
X0009173Y0617905D01*
X0009045Y0617998D01*
X0008919Y0618094D01*
X0008796Y0618194D01*
X0008675Y0618296D01*
X0008557Y0618401D01*
X0008442Y0618510D01*
X0008329Y0618621D01*
X0008219Y0618735D01*
X0008112Y0618852D01*
X0008008Y0618971D01*
X0007907Y0619093D01*
X0007810Y0619218D01*
X0007715Y0619345D01*
X0007624Y0619474D01*
X0007535Y0619605D01*
X0007451Y0619739D01*
X0007369Y0619875D01*
X0007291Y0620012D01*
X0007217Y0620152D01*
X0007146Y0620294D01*
X0007078Y0620437D01*
X0007014Y0620582D01*
X0006954Y0620728D01*
X0006898Y0620876D01*
X0006845Y0621025D01*
X0006796Y0621176D01*
X0006751Y0621328D01*
X0006710Y0621481D01*
X0006672Y0621634D01*
X0006639Y0621789D01*
X0006609Y0621945D01*
X0006583Y0622101D01*
X0006562Y0622258D01*
X0006544Y0622415D01*
X0006530Y0622573D01*
X0006520Y0622731D01*
X0006514Y0622889D01*
X0006512Y0623047D01*
D11*
X0186339Y0609000D02*
X0186339Y0607933D01*
X0187407Y0606865D01*
X0189542Y0606865D01*
X0190610Y0605797D01*
X0190610Y0604730D01*
X0189542Y0603662D01*
X0187407Y0603662D01*
X0186339Y0604730D01*
X0186339Y0609000D02*
X0187407Y0610068D01*
X0189542Y0610068D01*
X0190610Y0609000D01*
X0189542Y0543139D02*
X0186339Y0543139D01*
X0186339Y0536733D01*
X0186339Y0538868D02*
X0189542Y0538868D01*
X0190610Y0539936D01*
X0190610Y0542071D01*
X0189542Y0543139D01*
X0188475Y0538868D02*
X0190610Y0536733D01*
X0189542Y0472272D02*
X0187407Y0472272D01*
X0186339Y0471205D01*
X0186339Y0466934D01*
X0187407Y0465867D01*
X0189542Y0465867D01*
X0190610Y0466934D01*
X0190610Y0469070D01*
X0188475Y0469070D01*
X0190610Y0471205D02*
X0189542Y0472272D01*
X0189542Y0393532D02*
X0186339Y0393532D01*
X0186339Y0387127D01*
X0189542Y0387127D01*
X0190610Y0388194D01*
X0190610Y0389262D01*
X0189542Y0390330D01*
X0186339Y0390330D01*
X0189542Y0390330D02*
X0190610Y0391397D01*
X0190610Y0392465D01*
X0189542Y0393532D01*
X0189542Y0228178D02*
X0186339Y0228178D01*
X0186339Y0221772D01*
X0186339Y0223908D02*
X0189542Y0223908D01*
X0190610Y0224975D01*
X0190610Y0227110D01*
X0189542Y0228178D01*
X0188475Y0223908D02*
X0190610Y0221772D01*
X0186339Y0169123D02*
X0186339Y0162717D01*
X0190610Y0162717D01*
M02*
