%
M48
M72
T01C0.02400
T02C0.03200
T03C0.03600
T04C0.04000
T05C0.04400
T06C0.05200
T07C0.11900
T08C0.12598
T09C0.13000
%
T01
X38008Y154937
X21175Y171794
X38575Y176594
X38008Y182496
X36175Y192794
X26197Y210055
X26197Y225803
X14386Y225803
X41945Y225803
X89189Y186433
X120685Y186433
X152181Y190370
X175803Y186433
X196975Y172994
X203362Y162811
X207299Y135252
X259375Y149594
X262417Y119504
X160975Y214994
X209575Y227594
X226984Y217929
T02
X108008Y221787
X138008Y221787
X170016Y240134
X179819Y257457
X189819Y257457
X200016Y240134
X328283Y105173
X315764Y85331
X315764Y75331
X315764Y65331
X328283Y75173
X285764Y75331
X285764Y85331
X268402Y74780
X260449Y61984
X285764Y65331
X260449Y91984
X268402Y104780
X210094Y91945
X180094Y91945
T03
X13638Y130331
X13638Y140331
X13638Y150331
X13638Y165331
X13638Y175331
X13638Y185331
X13638Y195331
X330764Y130331
X330764Y140331
X330764Y150331
X330764Y165331
X330764Y175331
X330764Y185331
X330764Y195331
T04
X48717Y254031
X58717Y254031
X68717Y254031
X78717Y254031
X88717Y254031
X88717Y244031
X78717Y244031
X68717Y244031
X58717Y244031
X48717Y244031
X127732Y255331
X137732Y255331
X147732Y255331
X157732Y255331
X244386Y254425
X254386Y254425
X264386Y254425
X274386Y254425
X284386Y254425
X284386Y244425
X274386Y244425
X264386Y244425
X254386Y244425
X244386Y244425
X250016Y178835
X220016Y178835
X192890Y178835
X162890Y178835
X137575Y178835
X107575Y178835
X107575Y148835
X107575Y128835
X107575Y108835
X137575Y108835
X137575Y128835
X137575Y148835
X162890Y148835
X162890Y128835
X162890Y108835
X192890Y108835
X192890Y128835
X220016Y128835
X220016Y108835
X250016Y108835
X250016Y128835
X250016Y148835
X220016Y148835
X192890Y148835
T05
X98795Y200528
X82575Y179898
X72575Y179898
X62575Y179898
X138795Y200528
X157654Y200528
X197654Y200528
X214701Y200528
X254701Y200528
T06
X92575Y65331
X107575Y65331
X122575Y65331
X137575Y65331
X152575Y65331
X167575Y65331
X182575Y65331
X197575Y65331
X212575Y65331
X227575Y65331
X242575Y65331
X235075Y45331
X220075Y45331
X205075Y45331
X190075Y45331
X175075Y45331
X160075Y45331
X145075Y45331
X130075Y45331
X115075Y45331
X100075Y45331
T07
X63575Y46331
X63575Y32331
X271575Y32331
X271575Y46331
T08
X18638Y251709
X22575Y25331
X326827Y26394
X325764Y251709
T09
X72575Y110898
M30
