G75*
%MOIN*%
%OFA0B0*%
%FSLAX25Y25*%
%IPPOS*%
%LPD*%
%AMOC8*
5,1,8,0,0,1.08239X$1,22.5*
%
%ADD10C,0.00000*%
%ADD11C,0.06600*%
%ADD12C,0.05600*%
%ADD13C,0.06000*%
%ADD14OC8,0.05200*%
%ADD15C,0.05200*%
%ADD16C,0.06600*%
%ADD17C,0.00009*%
%ADD18C,0.07800*%
%ADD19OC8,0.07400*%
%ADD20C,0.01600*%
%ADD21C,0.04000*%
%ADD22C,0.01969*%
D10*
X0001000Y0001000D02*
X0001000Y0273953D01*
X0343205Y0273953D01*
X0343205Y0001000D01*
X0001000Y0001000D01*
X0016276Y0025331D02*
X0016278Y0025489D01*
X0016284Y0025647D01*
X0016294Y0025805D01*
X0016308Y0025963D01*
X0016326Y0026120D01*
X0016347Y0026277D01*
X0016373Y0026433D01*
X0016403Y0026589D01*
X0016436Y0026744D01*
X0016474Y0026897D01*
X0016515Y0027050D01*
X0016560Y0027202D01*
X0016609Y0027353D01*
X0016662Y0027502D01*
X0016718Y0027650D01*
X0016778Y0027796D01*
X0016842Y0027941D01*
X0016910Y0028084D01*
X0016981Y0028226D01*
X0017055Y0028366D01*
X0017133Y0028503D01*
X0017215Y0028639D01*
X0017299Y0028773D01*
X0017388Y0028904D01*
X0017479Y0029033D01*
X0017574Y0029160D01*
X0017671Y0029285D01*
X0017772Y0029407D01*
X0017876Y0029526D01*
X0017983Y0029643D01*
X0018093Y0029757D01*
X0018206Y0029868D01*
X0018321Y0029977D01*
X0018439Y0030082D01*
X0018560Y0030184D01*
X0018683Y0030284D01*
X0018809Y0030380D01*
X0018937Y0030473D01*
X0019067Y0030563D01*
X0019200Y0030649D01*
X0019335Y0030733D01*
X0019471Y0030812D01*
X0019610Y0030889D01*
X0019751Y0030961D01*
X0019893Y0031031D01*
X0020037Y0031096D01*
X0020183Y0031158D01*
X0020330Y0031216D01*
X0020479Y0031271D01*
X0020629Y0031322D01*
X0020780Y0031369D01*
X0020932Y0031412D01*
X0021085Y0031451D01*
X0021240Y0031487D01*
X0021395Y0031518D01*
X0021551Y0031546D01*
X0021707Y0031570D01*
X0021864Y0031590D01*
X0022022Y0031606D01*
X0022179Y0031618D01*
X0022338Y0031626D01*
X0022496Y0031630D01*
X0022654Y0031630D01*
X0022812Y0031626D01*
X0022971Y0031618D01*
X0023128Y0031606D01*
X0023286Y0031590D01*
X0023443Y0031570D01*
X0023599Y0031546D01*
X0023755Y0031518D01*
X0023910Y0031487D01*
X0024065Y0031451D01*
X0024218Y0031412D01*
X0024370Y0031369D01*
X0024521Y0031322D01*
X0024671Y0031271D01*
X0024820Y0031216D01*
X0024967Y0031158D01*
X0025113Y0031096D01*
X0025257Y0031031D01*
X0025399Y0030961D01*
X0025540Y0030889D01*
X0025679Y0030812D01*
X0025815Y0030733D01*
X0025950Y0030649D01*
X0026083Y0030563D01*
X0026213Y0030473D01*
X0026341Y0030380D01*
X0026467Y0030284D01*
X0026590Y0030184D01*
X0026711Y0030082D01*
X0026829Y0029977D01*
X0026944Y0029868D01*
X0027057Y0029757D01*
X0027167Y0029643D01*
X0027274Y0029526D01*
X0027378Y0029407D01*
X0027479Y0029285D01*
X0027576Y0029160D01*
X0027671Y0029033D01*
X0027762Y0028904D01*
X0027851Y0028773D01*
X0027935Y0028639D01*
X0028017Y0028503D01*
X0028095Y0028366D01*
X0028169Y0028226D01*
X0028240Y0028084D01*
X0028308Y0027941D01*
X0028372Y0027796D01*
X0028432Y0027650D01*
X0028488Y0027502D01*
X0028541Y0027353D01*
X0028590Y0027202D01*
X0028635Y0027050D01*
X0028676Y0026897D01*
X0028714Y0026744D01*
X0028747Y0026589D01*
X0028777Y0026433D01*
X0028803Y0026277D01*
X0028824Y0026120D01*
X0028842Y0025963D01*
X0028856Y0025805D01*
X0028866Y0025647D01*
X0028872Y0025489D01*
X0028874Y0025331D01*
X0028872Y0025173D01*
X0028866Y0025015D01*
X0028856Y0024857D01*
X0028842Y0024699D01*
X0028824Y0024542D01*
X0028803Y0024385D01*
X0028777Y0024229D01*
X0028747Y0024073D01*
X0028714Y0023918D01*
X0028676Y0023765D01*
X0028635Y0023612D01*
X0028590Y0023460D01*
X0028541Y0023309D01*
X0028488Y0023160D01*
X0028432Y0023012D01*
X0028372Y0022866D01*
X0028308Y0022721D01*
X0028240Y0022578D01*
X0028169Y0022436D01*
X0028095Y0022296D01*
X0028017Y0022159D01*
X0027935Y0022023D01*
X0027851Y0021889D01*
X0027762Y0021758D01*
X0027671Y0021629D01*
X0027576Y0021502D01*
X0027479Y0021377D01*
X0027378Y0021255D01*
X0027274Y0021136D01*
X0027167Y0021019D01*
X0027057Y0020905D01*
X0026944Y0020794D01*
X0026829Y0020685D01*
X0026711Y0020580D01*
X0026590Y0020478D01*
X0026467Y0020378D01*
X0026341Y0020282D01*
X0026213Y0020189D01*
X0026083Y0020099D01*
X0025950Y0020013D01*
X0025815Y0019929D01*
X0025679Y0019850D01*
X0025540Y0019773D01*
X0025399Y0019701D01*
X0025257Y0019631D01*
X0025113Y0019566D01*
X0024967Y0019504D01*
X0024820Y0019446D01*
X0024671Y0019391D01*
X0024521Y0019340D01*
X0024370Y0019293D01*
X0024218Y0019250D01*
X0024065Y0019211D01*
X0023910Y0019175D01*
X0023755Y0019144D01*
X0023599Y0019116D01*
X0023443Y0019092D01*
X0023286Y0019072D01*
X0023128Y0019056D01*
X0022971Y0019044D01*
X0022812Y0019036D01*
X0022654Y0019032D01*
X0022496Y0019032D01*
X0022338Y0019036D01*
X0022179Y0019044D01*
X0022022Y0019056D01*
X0021864Y0019072D01*
X0021707Y0019092D01*
X0021551Y0019116D01*
X0021395Y0019144D01*
X0021240Y0019175D01*
X0021085Y0019211D01*
X0020932Y0019250D01*
X0020780Y0019293D01*
X0020629Y0019340D01*
X0020479Y0019391D01*
X0020330Y0019446D01*
X0020183Y0019504D01*
X0020037Y0019566D01*
X0019893Y0019631D01*
X0019751Y0019701D01*
X0019610Y0019773D01*
X0019471Y0019850D01*
X0019335Y0019929D01*
X0019200Y0020013D01*
X0019067Y0020099D01*
X0018937Y0020189D01*
X0018809Y0020282D01*
X0018683Y0020378D01*
X0018560Y0020478D01*
X0018439Y0020580D01*
X0018321Y0020685D01*
X0018206Y0020794D01*
X0018093Y0020905D01*
X0017983Y0021019D01*
X0017876Y0021136D01*
X0017772Y0021255D01*
X0017671Y0021377D01*
X0017574Y0021502D01*
X0017479Y0021629D01*
X0017388Y0021758D01*
X0017299Y0021889D01*
X0017215Y0022023D01*
X0017133Y0022159D01*
X0017055Y0022296D01*
X0016981Y0022436D01*
X0016910Y0022578D01*
X0016842Y0022721D01*
X0016778Y0022866D01*
X0016718Y0023012D01*
X0016662Y0023160D01*
X0016609Y0023309D01*
X0016560Y0023460D01*
X0016515Y0023612D01*
X0016474Y0023765D01*
X0016436Y0023918D01*
X0016403Y0024073D01*
X0016373Y0024229D01*
X0016347Y0024385D01*
X0016326Y0024542D01*
X0016308Y0024699D01*
X0016294Y0024857D01*
X0016284Y0025015D01*
X0016278Y0025173D01*
X0016276Y0025331D01*
X0057625Y0032331D02*
X0057627Y0032485D01*
X0057633Y0032639D01*
X0057643Y0032792D01*
X0057657Y0032945D01*
X0057675Y0033098D01*
X0057696Y0033250D01*
X0057722Y0033402D01*
X0057752Y0033553D01*
X0057785Y0033703D01*
X0057823Y0033852D01*
X0057864Y0034001D01*
X0057909Y0034148D01*
X0057958Y0034294D01*
X0058011Y0034438D01*
X0058067Y0034581D01*
X0058127Y0034723D01*
X0058191Y0034863D01*
X0058258Y0035001D01*
X0058329Y0035138D01*
X0058403Y0035273D01*
X0058481Y0035405D01*
X0058562Y0035536D01*
X0058647Y0035665D01*
X0058734Y0035791D01*
X0058825Y0035915D01*
X0058920Y0036036D01*
X0059017Y0036156D01*
X0059117Y0036272D01*
X0059221Y0036386D01*
X0059327Y0036497D01*
X0059436Y0036606D01*
X0059548Y0036711D01*
X0059663Y0036814D01*
X0059780Y0036914D01*
X0059900Y0037010D01*
X0060022Y0037104D01*
X0060146Y0037194D01*
X0060273Y0037281D01*
X0060402Y0037365D01*
X0060534Y0037445D01*
X0060667Y0037522D01*
X0060802Y0037595D01*
X0060939Y0037665D01*
X0061078Y0037732D01*
X0061218Y0037794D01*
X0061360Y0037853D01*
X0061504Y0037909D01*
X0061649Y0037961D01*
X0061795Y0038008D01*
X0061942Y0038053D01*
X0062091Y0038093D01*
X0062240Y0038129D01*
X0062391Y0038162D01*
X0062542Y0038191D01*
X0062694Y0038215D01*
X0062846Y0038236D01*
X0062999Y0038253D01*
X0063152Y0038266D01*
X0063306Y0038275D01*
X0063460Y0038280D01*
X0063613Y0038281D01*
X0063767Y0038278D01*
X0063921Y0038271D01*
X0064074Y0038260D01*
X0064228Y0038245D01*
X0064380Y0038226D01*
X0064532Y0038203D01*
X0064684Y0038177D01*
X0064835Y0038146D01*
X0064985Y0038112D01*
X0065134Y0038073D01*
X0065281Y0038031D01*
X0065428Y0037985D01*
X0065574Y0037935D01*
X0065718Y0037882D01*
X0065861Y0037824D01*
X0066002Y0037763D01*
X0066142Y0037699D01*
X0066280Y0037631D01*
X0066416Y0037559D01*
X0066550Y0037484D01*
X0066682Y0037405D01*
X0066812Y0037323D01*
X0066940Y0037238D01*
X0067066Y0037149D01*
X0067189Y0037057D01*
X0067310Y0036962D01*
X0067429Y0036864D01*
X0067545Y0036763D01*
X0067658Y0036659D01*
X0067769Y0036552D01*
X0067876Y0036442D01*
X0067981Y0036329D01*
X0068083Y0036214D01*
X0068182Y0036096D01*
X0068278Y0035976D01*
X0068371Y0035853D01*
X0068460Y0035728D01*
X0068546Y0035601D01*
X0068629Y0035471D01*
X0068709Y0035339D01*
X0068785Y0035206D01*
X0068857Y0035070D01*
X0068926Y0034932D01*
X0068992Y0034793D01*
X0069054Y0034652D01*
X0069112Y0034510D01*
X0069166Y0034366D01*
X0069217Y0034221D01*
X0069264Y0034074D01*
X0069307Y0033927D01*
X0069346Y0033778D01*
X0069382Y0033628D01*
X0069413Y0033478D01*
X0069441Y0033326D01*
X0069465Y0033174D01*
X0069485Y0033022D01*
X0069501Y0032869D01*
X0069513Y0032715D01*
X0069521Y0032562D01*
X0069525Y0032408D01*
X0069525Y0032254D01*
X0069521Y0032100D01*
X0069513Y0031947D01*
X0069501Y0031793D01*
X0069485Y0031640D01*
X0069465Y0031488D01*
X0069441Y0031336D01*
X0069413Y0031184D01*
X0069382Y0031034D01*
X0069346Y0030884D01*
X0069307Y0030735D01*
X0069264Y0030588D01*
X0069217Y0030441D01*
X0069166Y0030296D01*
X0069112Y0030152D01*
X0069054Y0030010D01*
X0068992Y0029869D01*
X0068926Y0029730D01*
X0068857Y0029592D01*
X0068785Y0029456D01*
X0068709Y0029323D01*
X0068629Y0029191D01*
X0068546Y0029061D01*
X0068460Y0028934D01*
X0068371Y0028809D01*
X0068278Y0028686D01*
X0068182Y0028566D01*
X0068083Y0028448D01*
X0067981Y0028333D01*
X0067876Y0028220D01*
X0067769Y0028110D01*
X0067658Y0028003D01*
X0067545Y0027899D01*
X0067429Y0027798D01*
X0067310Y0027700D01*
X0067189Y0027605D01*
X0067066Y0027513D01*
X0066940Y0027424D01*
X0066812Y0027339D01*
X0066682Y0027257D01*
X0066550Y0027178D01*
X0066416Y0027103D01*
X0066280Y0027031D01*
X0066142Y0026963D01*
X0066002Y0026899D01*
X0065861Y0026838D01*
X0065718Y0026780D01*
X0065574Y0026727D01*
X0065428Y0026677D01*
X0065281Y0026631D01*
X0065134Y0026589D01*
X0064985Y0026550D01*
X0064835Y0026516D01*
X0064684Y0026485D01*
X0064532Y0026459D01*
X0064380Y0026436D01*
X0064228Y0026417D01*
X0064074Y0026402D01*
X0063921Y0026391D01*
X0063767Y0026384D01*
X0063613Y0026381D01*
X0063460Y0026382D01*
X0063306Y0026387D01*
X0063152Y0026396D01*
X0062999Y0026409D01*
X0062846Y0026426D01*
X0062694Y0026447D01*
X0062542Y0026471D01*
X0062391Y0026500D01*
X0062240Y0026533D01*
X0062091Y0026569D01*
X0061942Y0026609D01*
X0061795Y0026654D01*
X0061649Y0026701D01*
X0061504Y0026753D01*
X0061360Y0026809D01*
X0061218Y0026868D01*
X0061078Y0026930D01*
X0060939Y0026997D01*
X0060802Y0027067D01*
X0060667Y0027140D01*
X0060534Y0027217D01*
X0060402Y0027297D01*
X0060273Y0027381D01*
X0060146Y0027468D01*
X0060022Y0027558D01*
X0059900Y0027652D01*
X0059780Y0027748D01*
X0059663Y0027848D01*
X0059548Y0027951D01*
X0059436Y0028056D01*
X0059327Y0028165D01*
X0059221Y0028276D01*
X0059117Y0028390D01*
X0059017Y0028506D01*
X0058920Y0028626D01*
X0058825Y0028747D01*
X0058734Y0028871D01*
X0058647Y0028997D01*
X0058562Y0029126D01*
X0058481Y0029257D01*
X0058403Y0029389D01*
X0058329Y0029524D01*
X0058258Y0029661D01*
X0058191Y0029799D01*
X0058127Y0029939D01*
X0058067Y0030081D01*
X0058011Y0030224D01*
X0057958Y0030368D01*
X0057909Y0030514D01*
X0057864Y0030661D01*
X0057823Y0030810D01*
X0057785Y0030959D01*
X0057752Y0031109D01*
X0057722Y0031260D01*
X0057696Y0031412D01*
X0057675Y0031564D01*
X0057657Y0031717D01*
X0057643Y0031870D01*
X0057633Y0032023D01*
X0057627Y0032177D01*
X0057625Y0032331D01*
X0057575Y0032331D02*
X0057577Y0032178D01*
X0057583Y0032025D01*
X0057593Y0031872D01*
X0057606Y0031719D01*
X0057624Y0031567D01*
X0057645Y0031415D01*
X0057671Y0031264D01*
X0057700Y0031114D01*
X0057733Y0030964D01*
X0057770Y0030815D01*
X0057810Y0030667D01*
X0057855Y0030521D01*
X0057903Y0030375D01*
X0057955Y0030231D01*
X0058010Y0030088D01*
X0058069Y0029947D01*
X0058132Y0029807D01*
X0058198Y0029669D01*
X0058268Y0029532D01*
X0058341Y0029398D01*
X0058418Y0029265D01*
X0058498Y0029134D01*
X0058581Y0029006D01*
X0058667Y0028879D01*
X0058757Y0028755D01*
X0058850Y0028633D01*
X0058946Y0028514D01*
X0059045Y0028397D01*
X0059147Y0028282D01*
X0059252Y0028170D01*
X0059360Y0028061D01*
X0059470Y0027955D01*
X0059583Y0027852D01*
X0059699Y0027751D01*
X0059817Y0027654D01*
X0059938Y0027559D01*
X0060061Y0027468D01*
X0060186Y0027380D01*
X0060314Y0027295D01*
X0060443Y0027213D01*
X0060575Y0027135D01*
X0060709Y0027060D01*
X0060844Y0026988D01*
X0060982Y0026920D01*
X0061121Y0026856D01*
X0061261Y0026795D01*
X0061403Y0026738D01*
X0061547Y0026684D01*
X0061692Y0026634D01*
X0061838Y0026588D01*
X0061985Y0026545D01*
X0062133Y0026507D01*
X0062283Y0026472D01*
X0062433Y0026441D01*
X0062583Y0026413D01*
X0062735Y0026390D01*
X0062887Y0026371D01*
X0063039Y0026355D01*
X0063192Y0026343D01*
X0063345Y0026335D01*
X0063498Y0026331D01*
X0063652Y0026331D01*
X0063805Y0026335D01*
X0063958Y0026343D01*
X0064111Y0026355D01*
X0064263Y0026371D01*
X0064415Y0026390D01*
X0064567Y0026413D01*
X0064717Y0026441D01*
X0064867Y0026472D01*
X0065017Y0026507D01*
X0065165Y0026545D01*
X0065312Y0026588D01*
X0065458Y0026634D01*
X0065603Y0026684D01*
X0065747Y0026738D01*
X0065889Y0026795D01*
X0066029Y0026856D01*
X0066168Y0026920D01*
X0066306Y0026988D01*
X0066441Y0027060D01*
X0066575Y0027135D01*
X0066707Y0027213D01*
X0066836Y0027295D01*
X0066964Y0027380D01*
X0067089Y0027468D01*
X0067212Y0027559D01*
X0067333Y0027654D01*
X0067451Y0027751D01*
X0067567Y0027852D01*
X0067680Y0027955D01*
X0067790Y0028061D01*
X0067898Y0028170D01*
X0068003Y0028282D01*
X0068105Y0028397D01*
X0068204Y0028514D01*
X0068300Y0028633D01*
X0068393Y0028755D01*
X0068483Y0028879D01*
X0068569Y0029006D01*
X0068652Y0029134D01*
X0068732Y0029265D01*
X0068809Y0029398D01*
X0068882Y0029532D01*
X0068952Y0029669D01*
X0069018Y0029807D01*
X0069081Y0029947D01*
X0069140Y0030088D01*
X0069195Y0030231D01*
X0069247Y0030375D01*
X0069295Y0030521D01*
X0069340Y0030667D01*
X0069380Y0030815D01*
X0069417Y0030964D01*
X0069450Y0031114D01*
X0069479Y0031264D01*
X0069505Y0031415D01*
X0069526Y0031567D01*
X0069544Y0031719D01*
X0069557Y0031872D01*
X0069567Y0032025D01*
X0069573Y0032178D01*
X0069575Y0032331D01*
X0057625Y0046331D02*
X0057627Y0046485D01*
X0057633Y0046639D01*
X0057643Y0046792D01*
X0057657Y0046945D01*
X0057675Y0047098D01*
X0057696Y0047250D01*
X0057722Y0047402D01*
X0057752Y0047553D01*
X0057785Y0047703D01*
X0057823Y0047852D01*
X0057864Y0048001D01*
X0057909Y0048148D01*
X0057958Y0048294D01*
X0058011Y0048438D01*
X0058067Y0048581D01*
X0058127Y0048723D01*
X0058191Y0048863D01*
X0058258Y0049001D01*
X0058329Y0049138D01*
X0058403Y0049273D01*
X0058481Y0049405D01*
X0058562Y0049536D01*
X0058647Y0049665D01*
X0058734Y0049791D01*
X0058825Y0049915D01*
X0058920Y0050036D01*
X0059017Y0050156D01*
X0059117Y0050272D01*
X0059221Y0050386D01*
X0059327Y0050497D01*
X0059436Y0050606D01*
X0059548Y0050711D01*
X0059663Y0050814D01*
X0059780Y0050914D01*
X0059900Y0051010D01*
X0060022Y0051104D01*
X0060146Y0051194D01*
X0060273Y0051281D01*
X0060402Y0051365D01*
X0060534Y0051445D01*
X0060667Y0051522D01*
X0060802Y0051595D01*
X0060939Y0051665D01*
X0061078Y0051732D01*
X0061218Y0051794D01*
X0061360Y0051853D01*
X0061504Y0051909D01*
X0061649Y0051961D01*
X0061795Y0052008D01*
X0061942Y0052053D01*
X0062091Y0052093D01*
X0062240Y0052129D01*
X0062391Y0052162D01*
X0062542Y0052191D01*
X0062694Y0052215D01*
X0062846Y0052236D01*
X0062999Y0052253D01*
X0063152Y0052266D01*
X0063306Y0052275D01*
X0063460Y0052280D01*
X0063613Y0052281D01*
X0063767Y0052278D01*
X0063921Y0052271D01*
X0064074Y0052260D01*
X0064228Y0052245D01*
X0064380Y0052226D01*
X0064532Y0052203D01*
X0064684Y0052177D01*
X0064835Y0052146D01*
X0064985Y0052112D01*
X0065134Y0052073D01*
X0065281Y0052031D01*
X0065428Y0051985D01*
X0065574Y0051935D01*
X0065718Y0051882D01*
X0065861Y0051824D01*
X0066002Y0051763D01*
X0066142Y0051699D01*
X0066280Y0051631D01*
X0066416Y0051559D01*
X0066550Y0051484D01*
X0066682Y0051405D01*
X0066812Y0051323D01*
X0066940Y0051238D01*
X0067066Y0051149D01*
X0067189Y0051057D01*
X0067310Y0050962D01*
X0067429Y0050864D01*
X0067545Y0050763D01*
X0067658Y0050659D01*
X0067769Y0050552D01*
X0067876Y0050442D01*
X0067981Y0050329D01*
X0068083Y0050214D01*
X0068182Y0050096D01*
X0068278Y0049976D01*
X0068371Y0049853D01*
X0068460Y0049728D01*
X0068546Y0049601D01*
X0068629Y0049471D01*
X0068709Y0049339D01*
X0068785Y0049206D01*
X0068857Y0049070D01*
X0068926Y0048932D01*
X0068992Y0048793D01*
X0069054Y0048652D01*
X0069112Y0048510D01*
X0069166Y0048366D01*
X0069217Y0048221D01*
X0069264Y0048074D01*
X0069307Y0047927D01*
X0069346Y0047778D01*
X0069382Y0047628D01*
X0069413Y0047478D01*
X0069441Y0047326D01*
X0069465Y0047174D01*
X0069485Y0047022D01*
X0069501Y0046869D01*
X0069513Y0046715D01*
X0069521Y0046562D01*
X0069525Y0046408D01*
X0069525Y0046254D01*
X0069521Y0046100D01*
X0069513Y0045947D01*
X0069501Y0045793D01*
X0069485Y0045640D01*
X0069465Y0045488D01*
X0069441Y0045336D01*
X0069413Y0045184D01*
X0069382Y0045034D01*
X0069346Y0044884D01*
X0069307Y0044735D01*
X0069264Y0044588D01*
X0069217Y0044441D01*
X0069166Y0044296D01*
X0069112Y0044152D01*
X0069054Y0044010D01*
X0068992Y0043869D01*
X0068926Y0043730D01*
X0068857Y0043592D01*
X0068785Y0043456D01*
X0068709Y0043323D01*
X0068629Y0043191D01*
X0068546Y0043061D01*
X0068460Y0042934D01*
X0068371Y0042809D01*
X0068278Y0042686D01*
X0068182Y0042566D01*
X0068083Y0042448D01*
X0067981Y0042333D01*
X0067876Y0042220D01*
X0067769Y0042110D01*
X0067658Y0042003D01*
X0067545Y0041899D01*
X0067429Y0041798D01*
X0067310Y0041700D01*
X0067189Y0041605D01*
X0067066Y0041513D01*
X0066940Y0041424D01*
X0066812Y0041339D01*
X0066682Y0041257D01*
X0066550Y0041178D01*
X0066416Y0041103D01*
X0066280Y0041031D01*
X0066142Y0040963D01*
X0066002Y0040899D01*
X0065861Y0040838D01*
X0065718Y0040780D01*
X0065574Y0040727D01*
X0065428Y0040677D01*
X0065281Y0040631D01*
X0065134Y0040589D01*
X0064985Y0040550D01*
X0064835Y0040516D01*
X0064684Y0040485D01*
X0064532Y0040459D01*
X0064380Y0040436D01*
X0064228Y0040417D01*
X0064074Y0040402D01*
X0063921Y0040391D01*
X0063767Y0040384D01*
X0063613Y0040381D01*
X0063460Y0040382D01*
X0063306Y0040387D01*
X0063152Y0040396D01*
X0062999Y0040409D01*
X0062846Y0040426D01*
X0062694Y0040447D01*
X0062542Y0040471D01*
X0062391Y0040500D01*
X0062240Y0040533D01*
X0062091Y0040569D01*
X0061942Y0040609D01*
X0061795Y0040654D01*
X0061649Y0040701D01*
X0061504Y0040753D01*
X0061360Y0040809D01*
X0061218Y0040868D01*
X0061078Y0040930D01*
X0060939Y0040997D01*
X0060802Y0041067D01*
X0060667Y0041140D01*
X0060534Y0041217D01*
X0060402Y0041297D01*
X0060273Y0041381D01*
X0060146Y0041468D01*
X0060022Y0041558D01*
X0059900Y0041652D01*
X0059780Y0041748D01*
X0059663Y0041848D01*
X0059548Y0041951D01*
X0059436Y0042056D01*
X0059327Y0042165D01*
X0059221Y0042276D01*
X0059117Y0042390D01*
X0059017Y0042506D01*
X0058920Y0042626D01*
X0058825Y0042747D01*
X0058734Y0042871D01*
X0058647Y0042997D01*
X0058562Y0043126D01*
X0058481Y0043257D01*
X0058403Y0043389D01*
X0058329Y0043524D01*
X0058258Y0043661D01*
X0058191Y0043799D01*
X0058127Y0043939D01*
X0058067Y0044081D01*
X0058011Y0044224D01*
X0057958Y0044368D01*
X0057909Y0044514D01*
X0057864Y0044661D01*
X0057823Y0044810D01*
X0057785Y0044959D01*
X0057752Y0045109D01*
X0057722Y0045260D01*
X0057696Y0045412D01*
X0057675Y0045564D01*
X0057657Y0045717D01*
X0057643Y0045870D01*
X0057633Y0046023D01*
X0057627Y0046177D01*
X0057625Y0046331D01*
X0057575Y0046331D02*
X0057577Y0046484D01*
X0057583Y0046637D01*
X0057593Y0046790D01*
X0057606Y0046943D01*
X0057624Y0047095D01*
X0057645Y0047247D01*
X0057671Y0047398D01*
X0057700Y0047548D01*
X0057733Y0047698D01*
X0057770Y0047847D01*
X0057810Y0047995D01*
X0057855Y0048141D01*
X0057903Y0048287D01*
X0057955Y0048431D01*
X0058010Y0048574D01*
X0058069Y0048715D01*
X0058132Y0048855D01*
X0058198Y0048993D01*
X0058268Y0049130D01*
X0058341Y0049264D01*
X0058418Y0049397D01*
X0058498Y0049528D01*
X0058581Y0049656D01*
X0058667Y0049783D01*
X0058757Y0049907D01*
X0058850Y0050029D01*
X0058946Y0050148D01*
X0059045Y0050265D01*
X0059147Y0050380D01*
X0059252Y0050492D01*
X0059360Y0050601D01*
X0059470Y0050707D01*
X0059583Y0050810D01*
X0059699Y0050911D01*
X0059817Y0051008D01*
X0059938Y0051103D01*
X0060061Y0051194D01*
X0060186Y0051282D01*
X0060314Y0051367D01*
X0060443Y0051449D01*
X0060575Y0051527D01*
X0060709Y0051602D01*
X0060844Y0051674D01*
X0060982Y0051742D01*
X0061121Y0051806D01*
X0061261Y0051867D01*
X0061403Y0051924D01*
X0061547Y0051978D01*
X0061692Y0052028D01*
X0061838Y0052074D01*
X0061985Y0052117D01*
X0062133Y0052155D01*
X0062283Y0052190D01*
X0062433Y0052221D01*
X0062583Y0052249D01*
X0062735Y0052272D01*
X0062887Y0052291D01*
X0063039Y0052307D01*
X0063192Y0052319D01*
X0063345Y0052327D01*
X0063498Y0052331D01*
X0063652Y0052331D01*
X0063805Y0052327D01*
X0063958Y0052319D01*
X0064111Y0052307D01*
X0064263Y0052291D01*
X0064415Y0052272D01*
X0064567Y0052249D01*
X0064717Y0052221D01*
X0064867Y0052190D01*
X0065017Y0052155D01*
X0065165Y0052117D01*
X0065312Y0052074D01*
X0065458Y0052028D01*
X0065603Y0051978D01*
X0065747Y0051924D01*
X0065889Y0051867D01*
X0066029Y0051806D01*
X0066168Y0051742D01*
X0066306Y0051674D01*
X0066441Y0051602D01*
X0066575Y0051527D01*
X0066707Y0051449D01*
X0066836Y0051367D01*
X0066964Y0051282D01*
X0067089Y0051194D01*
X0067212Y0051103D01*
X0067333Y0051008D01*
X0067451Y0050911D01*
X0067567Y0050810D01*
X0067680Y0050707D01*
X0067790Y0050601D01*
X0067898Y0050492D01*
X0068003Y0050380D01*
X0068105Y0050265D01*
X0068204Y0050148D01*
X0068300Y0050029D01*
X0068393Y0049907D01*
X0068483Y0049783D01*
X0068569Y0049656D01*
X0068652Y0049528D01*
X0068732Y0049397D01*
X0068809Y0049264D01*
X0068882Y0049130D01*
X0068952Y0048993D01*
X0069018Y0048855D01*
X0069081Y0048715D01*
X0069140Y0048574D01*
X0069195Y0048431D01*
X0069247Y0048287D01*
X0069295Y0048141D01*
X0069340Y0047995D01*
X0069380Y0047847D01*
X0069417Y0047698D01*
X0069450Y0047548D01*
X0069479Y0047398D01*
X0069505Y0047247D01*
X0069526Y0047095D01*
X0069544Y0046943D01*
X0069557Y0046790D01*
X0069567Y0046637D01*
X0069573Y0046484D01*
X0069575Y0046331D01*
X0066075Y0110898D02*
X0066077Y0111059D01*
X0066083Y0111219D01*
X0066093Y0111380D01*
X0066107Y0111540D01*
X0066125Y0111700D01*
X0066146Y0111859D01*
X0066172Y0112018D01*
X0066202Y0112176D01*
X0066235Y0112333D01*
X0066273Y0112490D01*
X0066314Y0112645D01*
X0066359Y0112799D01*
X0066408Y0112952D01*
X0066461Y0113104D01*
X0066517Y0113255D01*
X0066578Y0113404D01*
X0066641Y0113552D01*
X0066709Y0113698D01*
X0066780Y0113842D01*
X0066854Y0113984D01*
X0066932Y0114125D01*
X0067014Y0114263D01*
X0067099Y0114400D01*
X0067187Y0114534D01*
X0067279Y0114666D01*
X0067374Y0114796D01*
X0067472Y0114924D01*
X0067573Y0115049D01*
X0067677Y0115171D01*
X0067784Y0115291D01*
X0067894Y0115408D01*
X0068007Y0115523D01*
X0068123Y0115634D01*
X0068242Y0115743D01*
X0068363Y0115848D01*
X0068487Y0115951D01*
X0068613Y0116051D01*
X0068741Y0116147D01*
X0068872Y0116240D01*
X0069006Y0116330D01*
X0069141Y0116417D01*
X0069279Y0116500D01*
X0069418Y0116580D01*
X0069560Y0116656D01*
X0069703Y0116729D01*
X0069848Y0116798D01*
X0069995Y0116864D01*
X0070143Y0116926D01*
X0070293Y0116984D01*
X0070444Y0117039D01*
X0070597Y0117090D01*
X0070751Y0117137D01*
X0070906Y0117180D01*
X0071062Y0117219D01*
X0071218Y0117255D01*
X0071376Y0117286D01*
X0071534Y0117314D01*
X0071693Y0117338D01*
X0071853Y0117358D01*
X0072013Y0117374D01*
X0072173Y0117386D01*
X0072334Y0117394D01*
X0072495Y0117398D01*
X0072655Y0117398D01*
X0072816Y0117394D01*
X0072977Y0117386D01*
X0073137Y0117374D01*
X0073297Y0117358D01*
X0073457Y0117338D01*
X0073616Y0117314D01*
X0073774Y0117286D01*
X0073932Y0117255D01*
X0074088Y0117219D01*
X0074244Y0117180D01*
X0074399Y0117137D01*
X0074553Y0117090D01*
X0074706Y0117039D01*
X0074857Y0116984D01*
X0075007Y0116926D01*
X0075155Y0116864D01*
X0075302Y0116798D01*
X0075447Y0116729D01*
X0075590Y0116656D01*
X0075732Y0116580D01*
X0075871Y0116500D01*
X0076009Y0116417D01*
X0076144Y0116330D01*
X0076278Y0116240D01*
X0076409Y0116147D01*
X0076537Y0116051D01*
X0076663Y0115951D01*
X0076787Y0115848D01*
X0076908Y0115743D01*
X0077027Y0115634D01*
X0077143Y0115523D01*
X0077256Y0115408D01*
X0077366Y0115291D01*
X0077473Y0115171D01*
X0077577Y0115049D01*
X0077678Y0114924D01*
X0077776Y0114796D01*
X0077871Y0114666D01*
X0077963Y0114534D01*
X0078051Y0114400D01*
X0078136Y0114263D01*
X0078218Y0114125D01*
X0078296Y0113984D01*
X0078370Y0113842D01*
X0078441Y0113698D01*
X0078509Y0113552D01*
X0078572Y0113404D01*
X0078633Y0113255D01*
X0078689Y0113104D01*
X0078742Y0112952D01*
X0078791Y0112799D01*
X0078836Y0112645D01*
X0078877Y0112490D01*
X0078915Y0112333D01*
X0078948Y0112176D01*
X0078978Y0112018D01*
X0079004Y0111859D01*
X0079025Y0111700D01*
X0079043Y0111540D01*
X0079057Y0111380D01*
X0079067Y0111219D01*
X0079073Y0111059D01*
X0079075Y0110898D01*
X0079073Y0110737D01*
X0079067Y0110577D01*
X0079057Y0110416D01*
X0079043Y0110256D01*
X0079025Y0110096D01*
X0079004Y0109937D01*
X0078978Y0109778D01*
X0078948Y0109620D01*
X0078915Y0109463D01*
X0078877Y0109306D01*
X0078836Y0109151D01*
X0078791Y0108997D01*
X0078742Y0108844D01*
X0078689Y0108692D01*
X0078633Y0108541D01*
X0078572Y0108392D01*
X0078509Y0108244D01*
X0078441Y0108098D01*
X0078370Y0107954D01*
X0078296Y0107812D01*
X0078218Y0107671D01*
X0078136Y0107533D01*
X0078051Y0107396D01*
X0077963Y0107262D01*
X0077871Y0107130D01*
X0077776Y0107000D01*
X0077678Y0106872D01*
X0077577Y0106747D01*
X0077473Y0106625D01*
X0077366Y0106505D01*
X0077256Y0106388D01*
X0077143Y0106273D01*
X0077027Y0106162D01*
X0076908Y0106053D01*
X0076787Y0105948D01*
X0076663Y0105845D01*
X0076537Y0105745D01*
X0076409Y0105649D01*
X0076278Y0105556D01*
X0076144Y0105466D01*
X0076009Y0105379D01*
X0075871Y0105296D01*
X0075732Y0105216D01*
X0075590Y0105140D01*
X0075447Y0105067D01*
X0075302Y0104998D01*
X0075155Y0104932D01*
X0075007Y0104870D01*
X0074857Y0104812D01*
X0074706Y0104757D01*
X0074553Y0104706D01*
X0074399Y0104659D01*
X0074244Y0104616D01*
X0074088Y0104577D01*
X0073932Y0104541D01*
X0073774Y0104510D01*
X0073616Y0104482D01*
X0073457Y0104458D01*
X0073297Y0104438D01*
X0073137Y0104422D01*
X0072977Y0104410D01*
X0072816Y0104402D01*
X0072655Y0104398D01*
X0072495Y0104398D01*
X0072334Y0104402D01*
X0072173Y0104410D01*
X0072013Y0104422D01*
X0071853Y0104438D01*
X0071693Y0104458D01*
X0071534Y0104482D01*
X0071376Y0104510D01*
X0071218Y0104541D01*
X0071062Y0104577D01*
X0070906Y0104616D01*
X0070751Y0104659D01*
X0070597Y0104706D01*
X0070444Y0104757D01*
X0070293Y0104812D01*
X0070143Y0104870D01*
X0069995Y0104932D01*
X0069848Y0104998D01*
X0069703Y0105067D01*
X0069560Y0105140D01*
X0069418Y0105216D01*
X0069279Y0105296D01*
X0069141Y0105379D01*
X0069006Y0105466D01*
X0068872Y0105556D01*
X0068741Y0105649D01*
X0068613Y0105745D01*
X0068487Y0105845D01*
X0068363Y0105948D01*
X0068242Y0106053D01*
X0068123Y0106162D01*
X0068007Y0106273D01*
X0067894Y0106388D01*
X0067784Y0106505D01*
X0067677Y0106625D01*
X0067573Y0106747D01*
X0067472Y0106872D01*
X0067374Y0107000D01*
X0067279Y0107130D01*
X0067187Y0107262D01*
X0067099Y0107396D01*
X0067014Y0107533D01*
X0066932Y0107671D01*
X0066854Y0107812D01*
X0066780Y0107954D01*
X0066709Y0108098D01*
X0066641Y0108244D01*
X0066578Y0108392D01*
X0066517Y0108541D01*
X0066461Y0108692D01*
X0066408Y0108844D01*
X0066359Y0108997D01*
X0066314Y0109151D01*
X0066273Y0109306D01*
X0066235Y0109463D01*
X0066202Y0109620D01*
X0066172Y0109778D01*
X0066146Y0109937D01*
X0066125Y0110096D01*
X0066107Y0110256D01*
X0066093Y0110416D01*
X0066083Y0110577D01*
X0066077Y0110737D01*
X0066075Y0110898D01*
X0012339Y0251709D02*
X0012341Y0251867D01*
X0012347Y0252025D01*
X0012357Y0252183D01*
X0012371Y0252341D01*
X0012389Y0252498D01*
X0012410Y0252655D01*
X0012436Y0252811D01*
X0012466Y0252967D01*
X0012499Y0253122D01*
X0012537Y0253275D01*
X0012578Y0253428D01*
X0012623Y0253580D01*
X0012672Y0253731D01*
X0012725Y0253880D01*
X0012781Y0254028D01*
X0012841Y0254174D01*
X0012905Y0254319D01*
X0012973Y0254462D01*
X0013044Y0254604D01*
X0013118Y0254744D01*
X0013196Y0254881D01*
X0013278Y0255017D01*
X0013362Y0255151D01*
X0013451Y0255282D01*
X0013542Y0255411D01*
X0013637Y0255538D01*
X0013734Y0255663D01*
X0013835Y0255785D01*
X0013939Y0255904D01*
X0014046Y0256021D01*
X0014156Y0256135D01*
X0014269Y0256246D01*
X0014384Y0256355D01*
X0014502Y0256460D01*
X0014623Y0256562D01*
X0014746Y0256662D01*
X0014872Y0256758D01*
X0015000Y0256851D01*
X0015130Y0256941D01*
X0015263Y0257027D01*
X0015398Y0257111D01*
X0015534Y0257190D01*
X0015673Y0257267D01*
X0015814Y0257339D01*
X0015956Y0257409D01*
X0016100Y0257474D01*
X0016246Y0257536D01*
X0016393Y0257594D01*
X0016542Y0257649D01*
X0016692Y0257700D01*
X0016843Y0257747D01*
X0016995Y0257790D01*
X0017148Y0257829D01*
X0017303Y0257865D01*
X0017458Y0257896D01*
X0017614Y0257924D01*
X0017770Y0257948D01*
X0017927Y0257968D01*
X0018085Y0257984D01*
X0018242Y0257996D01*
X0018401Y0258004D01*
X0018559Y0258008D01*
X0018717Y0258008D01*
X0018875Y0258004D01*
X0019034Y0257996D01*
X0019191Y0257984D01*
X0019349Y0257968D01*
X0019506Y0257948D01*
X0019662Y0257924D01*
X0019818Y0257896D01*
X0019973Y0257865D01*
X0020128Y0257829D01*
X0020281Y0257790D01*
X0020433Y0257747D01*
X0020584Y0257700D01*
X0020734Y0257649D01*
X0020883Y0257594D01*
X0021030Y0257536D01*
X0021176Y0257474D01*
X0021320Y0257409D01*
X0021462Y0257339D01*
X0021603Y0257267D01*
X0021742Y0257190D01*
X0021878Y0257111D01*
X0022013Y0257027D01*
X0022146Y0256941D01*
X0022276Y0256851D01*
X0022404Y0256758D01*
X0022530Y0256662D01*
X0022653Y0256562D01*
X0022774Y0256460D01*
X0022892Y0256355D01*
X0023007Y0256246D01*
X0023120Y0256135D01*
X0023230Y0256021D01*
X0023337Y0255904D01*
X0023441Y0255785D01*
X0023542Y0255663D01*
X0023639Y0255538D01*
X0023734Y0255411D01*
X0023825Y0255282D01*
X0023914Y0255151D01*
X0023998Y0255017D01*
X0024080Y0254881D01*
X0024158Y0254744D01*
X0024232Y0254604D01*
X0024303Y0254462D01*
X0024371Y0254319D01*
X0024435Y0254174D01*
X0024495Y0254028D01*
X0024551Y0253880D01*
X0024604Y0253731D01*
X0024653Y0253580D01*
X0024698Y0253428D01*
X0024739Y0253275D01*
X0024777Y0253122D01*
X0024810Y0252967D01*
X0024840Y0252811D01*
X0024866Y0252655D01*
X0024887Y0252498D01*
X0024905Y0252341D01*
X0024919Y0252183D01*
X0024929Y0252025D01*
X0024935Y0251867D01*
X0024937Y0251709D01*
X0024935Y0251551D01*
X0024929Y0251393D01*
X0024919Y0251235D01*
X0024905Y0251077D01*
X0024887Y0250920D01*
X0024866Y0250763D01*
X0024840Y0250607D01*
X0024810Y0250451D01*
X0024777Y0250296D01*
X0024739Y0250143D01*
X0024698Y0249990D01*
X0024653Y0249838D01*
X0024604Y0249687D01*
X0024551Y0249538D01*
X0024495Y0249390D01*
X0024435Y0249244D01*
X0024371Y0249099D01*
X0024303Y0248956D01*
X0024232Y0248814D01*
X0024158Y0248674D01*
X0024080Y0248537D01*
X0023998Y0248401D01*
X0023914Y0248267D01*
X0023825Y0248136D01*
X0023734Y0248007D01*
X0023639Y0247880D01*
X0023542Y0247755D01*
X0023441Y0247633D01*
X0023337Y0247514D01*
X0023230Y0247397D01*
X0023120Y0247283D01*
X0023007Y0247172D01*
X0022892Y0247063D01*
X0022774Y0246958D01*
X0022653Y0246856D01*
X0022530Y0246756D01*
X0022404Y0246660D01*
X0022276Y0246567D01*
X0022146Y0246477D01*
X0022013Y0246391D01*
X0021878Y0246307D01*
X0021742Y0246228D01*
X0021603Y0246151D01*
X0021462Y0246079D01*
X0021320Y0246009D01*
X0021176Y0245944D01*
X0021030Y0245882D01*
X0020883Y0245824D01*
X0020734Y0245769D01*
X0020584Y0245718D01*
X0020433Y0245671D01*
X0020281Y0245628D01*
X0020128Y0245589D01*
X0019973Y0245553D01*
X0019818Y0245522D01*
X0019662Y0245494D01*
X0019506Y0245470D01*
X0019349Y0245450D01*
X0019191Y0245434D01*
X0019034Y0245422D01*
X0018875Y0245414D01*
X0018717Y0245410D01*
X0018559Y0245410D01*
X0018401Y0245414D01*
X0018242Y0245422D01*
X0018085Y0245434D01*
X0017927Y0245450D01*
X0017770Y0245470D01*
X0017614Y0245494D01*
X0017458Y0245522D01*
X0017303Y0245553D01*
X0017148Y0245589D01*
X0016995Y0245628D01*
X0016843Y0245671D01*
X0016692Y0245718D01*
X0016542Y0245769D01*
X0016393Y0245824D01*
X0016246Y0245882D01*
X0016100Y0245944D01*
X0015956Y0246009D01*
X0015814Y0246079D01*
X0015673Y0246151D01*
X0015534Y0246228D01*
X0015398Y0246307D01*
X0015263Y0246391D01*
X0015130Y0246477D01*
X0015000Y0246567D01*
X0014872Y0246660D01*
X0014746Y0246756D01*
X0014623Y0246856D01*
X0014502Y0246958D01*
X0014384Y0247063D01*
X0014269Y0247172D01*
X0014156Y0247283D01*
X0014046Y0247397D01*
X0013939Y0247514D01*
X0013835Y0247633D01*
X0013734Y0247755D01*
X0013637Y0247880D01*
X0013542Y0248007D01*
X0013451Y0248136D01*
X0013362Y0248267D01*
X0013278Y0248401D01*
X0013196Y0248537D01*
X0013118Y0248674D01*
X0013044Y0248814D01*
X0012973Y0248956D01*
X0012905Y0249099D01*
X0012841Y0249244D01*
X0012781Y0249390D01*
X0012725Y0249538D01*
X0012672Y0249687D01*
X0012623Y0249838D01*
X0012578Y0249990D01*
X0012537Y0250143D01*
X0012499Y0250296D01*
X0012466Y0250451D01*
X0012436Y0250607D01*
X0012410Y0250763D01*
X0012389Y0250920D01*
X0012371Y0251077D01*
X0012357Y0251235D01*
X0012347Y0251393D01*
X0012341Y0251551D01*
X0012339Y0251709D01*
X0265625Y0046331D02*
X0265627Y0046485D01*
X0265633Y0046639D01*
X0265643Y0046792D01*
X0265657Y0046945D01*
X0265675Y0047098D01*
X0265696Y0047250D01*
X0265722Y0047402D01*
X0265752Y0047553D01*
X0265785Y0047703D01*
X0265823Y0047852D01*
X0265864Y0048001D01*
X0265909Y0048148D01*
X0265958Y0048294D01*
X0266011Y0048438D01*
X0266067Y0048581D01*
X0266127Y0048723D01*
X0266191Y0048863D01*
X0266258Y0049001D01*
X0266329Y0049138D01*
X0266403Y0049273D01*
X0266481Y0049405D01*
X0266562Y0049536D01*
X0266647Y0049665D01*
X0266734Y0049791D01*
X0266825Y0049915D01*
X0266920Y0050036D01*
X0267017Y0050156D01*
X0267117Y0050272D01*
X0267221Y0050386D01*
X0267327Y0050497D01*
X0267436Y0050606D01*
X0267548Y0050711D01*
X0267663Y0050814D01*
X0267780Y0050914D01*
X0267900Y0051010D01*
X0268022Y0051104D01*
X0268146Y0051194D01*
X0268273Y0051281D01*
X0268402Y0051365D01*
X0268534Y0051445D01*
X0268667Y0051522D01*
X0268802Y0051595D01*
X0268939Y0051665D01*
X0269078Y0051732D01*
X0269218Y0051794D01*
X0269360Y0051853D01*
X0269504Y0051909D01*
X0269649Y0051961D01*
X0269795Y0052008D01*
X0269942Y0052053D01*
X0270091Y0052093D01*
X0270240Y0052129D01*
X0270391Y0052162D01*
X0270542Y0052191D01*
X0270694Y0052215D01*
X0270846Y0052236D01*
X0270999Y0052253D01*
X0271152Y0052266D01*
X0271306Y0052275D01*
X0271460Y0052280D01*
X0271613Y0052281D01*
X0271767Y0052278D01*
X0271921Y0052271D01*
X0272074Y0052260D01*
X0272228Y0052245D01*
X0272380Y0052226D01*
X0272532Y0052203D01*
X0272684Y0052177D01*
X0272835Y0052146D01*
X0272985Y0052112D01*
X0273134Y0052073D01*
X0273281Y0052031D01*
X0273428Y0051985D01*
X0273574Y0051935D01*
X0273718Y0051882D01*
X0273861Y0051824D01*
X0274002Y0051763D01*
X0274142Y0051699D01*
X0274280Y0051631D01*
X0274416Y0051559D01*
X0274550Y0051484D01*
X0274682Y0051405D01*
X0274812Y0051323D01*
X0274940Y0051238D01*
X0275066Y0051149D01*
X0275189Y0051057D01*
X0275310Y0050962D01*
X0275429Y0050864D01*
X0275545Y0050763D01*
X0275658Y0050659D01*
X0275769Y0050552D01*
X0275876Y0050442D01*
X0275981Y0050329D01*
X0276083Y0050214D01*
X0276182Y0050096D01*
X0276278Y0049976D01*
X0276371Y0049853D01*
X0276460Y0049728D01*
X0276546Y0049601D01*
X0276629Y0049471D01*
X0276709Y0049339D01*
X0276785Y0049206D01*
X0276857Y0049070D01*
X0276926Y0048932D01*
X0276992Y0048793D01*
X0277054Y0048652D01*
X0277112Y0048510D01*
X0277166Y0048366D01*
X0277217Y0048221D01*
X0277264Y0048074D01*
X0277307Y0047927D01*
X0277346Y0047778D01*
X0277382Y0047628D01*
X0277413Y0047478D01*
X0277441Y0047326D01*
X0277465Y0047174D01*
X0277485Y0047022D01*
X0277501Y0046869D01*
X0277513Y0046715D01*
X0277521Y0046562D01*
X0277525Y0046408D01*
X0277525Y0046254D01*
X0277521Y0046100D01*
X0277513Y0045947D01*
X0277501Y0045793D01*
X0277485Y0045640D01*
X0277465Y0045488D01*
X0277441Y0045336D01*
X0277413Y0045184D01*
X0277382Y0045034D01*
X0277346Y0044884D01*
X0277307Y0044735D01*
X0277264Y0044588D01*
X0277217Y0044441D01*
X0277166Y0044296D01*
X0277112Y0044152D01*
X0277054Y0044010D01*
X0276992Y0043869D01*
X0276926Y0043730D01*
X0276857Y0043592D01*
X0276785Y0043456D01*
X0276709Y0043323D01*
X0276629Y0043191D01*
X0276546Y0043061D01*
X0276460Y0042934D01*
X0276371Y0042809D01*
X0276278Y0042686D01*
X0276182Y0042566D01*
X0276083Y0042448D01*
X0275981Y0042333D01*
X0275876Y0042220D01*
X0275769Y0042110D01*
X0275658Y0042003D01*
X0275545Y0041899D01*
X0275429Y0041798D01*
X0275310Y0041700D01*
X0275189Y0041605D01*
X0275066Y0041513D01*
X0274940Y0041424D01*
X0274812Y0041339D01*
X0274682Y0041257D01*
X0274550Y0041178D01*
X0274416Y0041103D01*
X0274280Y0041031D01*
X0274142Y0040963D01*
X0274002Y0040899D01*
X0273861Y0040838D01*
X0273718Y0040780D01*
X0273574Y0040727D01*
X0273428Y0040677D01*
X0273281Y0040631D01*
X0273134Y0040589D01*
X0272985Y0040550D01*
X0272835Y0040516D01*
X0272684Y0040485D01*
X0272532Y0040459D01*
X0272380Y0040436D01*
X0272228Y0040417D01*
X0272074Y0040402D01*
X0271921Y0040391D01*
X0271767Y0040384D01*
X0271613Y0040381D01*
X0271460Y0040382D01*
X0271306Y0040387D01*
X0271152Y0040396D01*
X0270999Y0040409D01*
X0270846Y0040426D01*
X0270694Y0040447D01*
X0270542Y0040471D01*
X0270391Y0040500D01*
X0270240Y0040533D01*
X0270091Y0040569D01*
X0269942Y0040609D01*
X0269795Y0040654D01*
X0269649Y0040701D01*
X0269504Y0040753D01*
X0269360Y0040809D01*
X0269218Y0040868D01*
X0269078Y0040930D01*
X0268939Y0040997D01*
X0268802Y0041067D01*
X0268667Y0041140D01*
X0268534Y0041217D01*
X0268402Y0041297D01*
X0268273Y0041381D01*
X0268146Y0041468D01*
X0268022Y0041558D01*
X0267900Y0041652D01*
X0267780Y0041748D01*
X0267663Y0041848D01*
X0267548Y0041951D01*
X0267436Y0042056D01*
X0267327Y0042165D01*
X0267221Y0042276D01*
X0267117Y0042390D01*
X0267017Y0042506D01*
X0266920Y0042626D01*
X0266825Y0042747D01*
X0266734Y0042871D01*
X0266647Y0042997D01*
X0266562Y0043126D01*
X0266481Y0043257D01*
X0266403Y0043389D01*
X0266329Y0043524D01*
X0266258Y0043661D01*
X0266191Y0043799D01*
X0266127Y0043939D01*
X0266067Y0044081D01*
X0266011Y0044224D01*
X0265958Y0044368D01*
X0265909Y0044514D01*
X0265864Y0044661D01*
X0265823Y0044810D01*
X0265785Y0044959D01*
X0265752Y0045109D01*
X0265722Y0045260D01*
X0265696Y0045412D01*
X0265675Y0045564D01*
X0265657Y0045717D01*
X0265643Y0045870D01*
X0265633Y0046023D01*
X0265627Y0046177D01*
X0265625Y0046331D01*
X0265575Y0046331D02*
X0265577Y0046484D01*
X0265583Y0046637D01*
X0265593Y0046790D01*
X0265606Y0046943D01*
X0265624Y0047095D01*
X0265645Y0047247D01*
X0265671Y0047398D01*
X0265700Y0047548D01*
X0265733Y0047698D01*
X0265770Y0047847D01*
X0265810Y0047995D01*
X0265855Y0048141D01*
X0265903Y0048287D01*
X0265955Y0048431D01*
X0266010Y0048574D01*
X0266069Y0048715D01*
X0266132Y0048855D01*
X0266198Y0048993D01*
X0266268Y0049130D01*
X0266341Y0049264D01*
X0266418Y0049397D01*
X0266498Y0049528D01*
X0266581Y0049656D01*
X0266667Y0049783D01*
X0266757Y0049907D01*
X0266850Y0050029D01*
X0266946Y0050148D01*
X0267045Y0050265D01*
X0267147Y0050380D01*
X0267252Y0050492D01*
X0267360Y0050601D01*
X0267470Y0050707D01*
X0267583Y0050810D01*
X0267699Y0050911D01*
X0267817Y0051008D01*
X0267938Y0051103D01*
X0268061Y0051194D01*
X0268186Y0051282D01*
X0268314Y0051367D01*
X0268443Y0051449D01*
X0268575Y0051527D01*
X0268709Y0051602D01*
X0268844Y0051674D01*
X0268982Y0051742D01*
X0269121Y0051806D01*
X0269261Y0051867D01*
X0269403Y0051924D01*
X0269547Y0051978D01*
X0269692Y0052028D01*
X0269838Y0052074D01*
X0269985Y0052117D01*
X0270133Y0052155D01*
X0270283Y0052190D01*
X0270433Y0052221D01*
X0270583Y0052249D01*
X0270735Y0052272D01*
X0270887Y0052291D01*
X0271039Y0052307D01*
X0271192Y0052319D01*
X0271345Y0052327D01*
X0271498Y0052331D01*
X0271652Y0052331D01*
X0271805Y0052327D01*
X0271958Y0052319D01*
X0272111Y0052307D01*
X0272263Y0052291D01*
X0272415Y0052272D01*
X0272567Y0052249D01*
X0272717Y0052221D01*
X0272867Y0052190D01*
X0273017Y0052155D01*
X0273165Y0052117D01*
X0273312Y0052074D01*
X0273458Y0052028D01*
X0273603Y0051978D01*
X0273747Y0051924D01*
X0273889Y0051867D01*
X0274029Y0051806D01*
X0274168Y0051742D01*
X0274306Y0051674D01*
X0274441Y0051602D01*
X0274575Y0051527D01*
X0274707Y0051449D01*
X0274836Y0051367D01*
X0274964Y0051282D01*
X0275089Y0051194D01*
X0275212Y0051103D01*
X0275333Y0051008D01*
X0275451Y0050911D01*
X0275567Y0050810D01*
X0275680Y0050707D01*
X0275790Y0050601D01*
X0275898Y0050492D01*
X0276003Y0050380D01*
X0276105Y0050265D01*
X0276204Y0050148D01*
X0276300Y0050029D01*
X0276393Y0049907D01*
X0276483Y0049783D01*
X0276569Y0049656D01*
X0276652Y0049528D01*
X0276732Y0049397D01*
X0276809Y0049264D01*
X0276882Y0049130D01*
X0276952Y0048993D01*
X0277018Y0048855D01*
X0277081Y0048715D01*
X0277140Y0048574D01*
X0277195Y0048431D01*
X0277247Y0048287D01*
X0277295Y0048141D01*
X0277340Y0047995D01*
X0277380Y0047847D01*
X0277417Y0047698D01*
X0277450Y0047548D01*
X0277479Y0047398D01*
X0277505Y0047247D01*
X0277526Y0047095D01*
X0277544Y0046943D01*
X0277557Y0046790D01*
X0277567Y0046637D01*
X0277573Y0046484D01*
X0277575Y0046331D01*
X0265625Y0032331D02*
X0265627Y0032485D01*
X0265633Y0032639D01*
X0265643Y0032792D01*
X0265657Y0032945D01*
X0265675Y0033098D01*
X0265696Y0033250D01*
X0265722Y0033402D01*
X0265752Y0033553D01*
X0265785Y0033703D01*
X0265823Y0033852D01*
X0265864Y0034001D01*
X0265909Y0034148D01*
X0265958Y0034294D01*
X0266011Y0034438D01*
X0266067Y0034581D01*
X0266127Y0034723D01*
X0266191Y0034863D01*
X0266258Y0035001D01*
X0266329Y0035138D01*
X0266403Y0035273D01*
X0266481Y0035405D01*
X0266562Y0035536D01*
X0266647Y0035665D01*
X0266734Y0035791D01*
X0266825Y0035915D01*
X0266920Y0036036D01*
X0267017Y0036156D01*
X0267117Y0036272D01*
X0267221Y0036386D01*
X0267327Y0036497D01*
X0267436Y0036606D01*
X0267548Y0036711D01*
X0267663Y0036814D01*
X0267780Y0036914D01*
X0267900Y0037010D01*
X0268022Y0037104D01*
X0268146Y0037194D01*
X0268273Y0037281D01*
X0268402Y0037365D01*
X0268534Y0037445D01*
X0268667Y0037522D01*
X0268802Y0037595D01*
X0268939Y0037665D01*
X0269078Y0037732D01*
X0269218Y0037794D01*
X0269360Y0037853D01*
X0269504Y0037909D01*
X0269649Y0037961D01*
X0269795Y0038008D01*
X0269942Y0038053D01*
X0270091Y0038093D01*
X0270240Y0038129D01*
X0270391Y0038162D01*
X0270542Y0038191D01*
X0270694Y0038215D01*
X0270846Y0038236D01*
X0270999Y0038253D01*
X0271152Y0038266D01*
X0271306Y0038275D01*
X0271460Y0038280D01*
X0271613Y0038281D01*
X0271767Y0038278D01*
X0271921Y0038271D01*
X0272074Y0038260D01*
X0272228Y0038245D01*
X0272380Y0038226D01*
X0272532Y0038203D01*
X0272684Y0038177D01*
X0272835Y0038146D01*
X0272985Y0038112D01*
X0273134Y0038073D01*
X0273281Y0038031D01*
X0273428Y0037985D01*
X0273574Y0037935D01*
X0273718Y0037882D01*
X0273861Y0037824D01*
X0274002Y0037763D01*
X0274142Y0037699D01*
X0274280Y0037631D01*
X0274416Y0037559D01*
X0274550Y0037484D01*
X0274682Y0037405D01*
X0274812Y0037323D01*
X0274940Y0037238D01*
X0275066Y0037149D01*
X0275189Y0037057D01*
X0275310Y0036962D01*
X0275429Y0036864D01*
X0275545Y0036763D01*
X0275658Y0036659D01*
X0275769Y0036552D01*
X0275876Y0036442D01*
X0275981Y0036329D01*
X0276083Y0036214D01*
X0276182Y0036096D01*
X0276278Y0035976D01*
X0276371Y0035853D01*
X0276460Y0035728D01*
X0276546Y0035601D01*
X0276629Y0035471D01*
X0276709Y0035339D01*
X0276785Y0035206D01*
X0276857Y0035070D01*
X0276926Y0034932D01*
X0276992Y0034793D01*
X0277054Y0034652D01*
X0277112Y0034510D01*
X0277166Y0034366D01*
X0277217Y0034221D01*
X0277264Y0034074D01*
X0277307Y0033927D01*
X0277346Y0033778D01*
X0277382Y0033628D01*
X0277413Y0033478D01*
X0277441Y0033326D01*
X0277465Y0033174D01*
X0277485Y0033022D01*
X0277501Y0032869D01*
X0277513Y0032715D01*
X0277521Y0032562D01*
X0277525Y0032408D01*
X0277525Y0032254D01*
X0277521Y0032100D01*
X0277513Y0031947D01*
X0277501Y0031793D01*
X0277485Y0031640D01*
X0277465Y0031488D01*
X0277441Y0031336D01*
X0277413Y0031184D01*
X0277382Y0031034D01*
X0277346Y0030884D01*
X0277307Y0030735D01*
X0277264Y0030588D01*
X0277217Y0030441D01*
X0277166Y0030296D01*
X0277112Y0030152D01*
X0277054Y0030010D01*
X0276992Y0029869D01*
X0276926Y0029730D01*
X0276857Y0029592D01*
X0276785Y0029456D01*
X0276709Y0029323D01*
X0276629Y0029191D01*
X0276546Y0029061D01*
X0276460Y0028934D01*
X0276371Y0028809D01*
X0276278Y0028686D01*
X0276182Y0028566D01*
X0276083Y0028448D01*
X0275981Y0028333D01*
X0275876Y0028220D01*
X0275769Y0028110D01*
X0275658Y0028003D01*
X0275545Y0027899D01*
X0275429Y0027798D01*
X0275310Y0027700D01*
X0275189Y0027605D01*
X0275066Y0027513D01*
X0274940Y0027424D01*
X0274812Y0027339D01*
X0274682Y0027257D01*
X0274550Y0027178D01*
X0274416Y0027103D01*
X0274280Y0027031D01*
X0274142Y0026963D01*
X0274002Y0026899D01*
X0273861Y0026838D01*
X0273718Y0026780D01*
X0273574Y0026727D01*
X0273428Y0026677D01*
X0273281Y0026631D01*
X0273134Y0026589D01*
X0272985Y0026550D01*
X0272835Y0026516D01*
X0272684Y0026485D01*
X0272532Y0026459D01*
X0272380Y0026436D01*
X0272228Y0026417D01*
X0272074Y0026402D01*
X0271921Y0026391D01*
X0271767Y0026384D01*
X0271613Y0026381D01*
X0271460Y0026382D01*
X0271306Y0026387D01*
X0271152Y0026396D01*
X0270999Y0026409D01*
X0270846Y0026426D01*
X0270694Y0026447D01*
X0270542Y0026471D01*
X0270391Y0026500D01*
X0270240Y0026533D01*
X0270091Y0026569D01*
X0269942Y0026609D01*
X0269795Y0026654D01*
X0269649Y0026701D01*
X0269504Y0026753D01*
X0269360Y0026809D01*
X0269218Y0026868D01*
X0269078Y0026930D01*
X0268939Y0026997D01*
X0268802Y0027067D01*
X0268667Y0027140D01*
X0268534Y0027217D01*
X0268402Y0027297D01*
X0268273Y0027381D01*
X0268146Y0027468D01*
X0268022Y0027558D01*
X0267900Y0027652D01*
X0267780Y0027748D01*
X0267663Y0027848D01*
X0267548Y0027951D01*
X0267436Y0028056D01*
X0267327Y0028165D01*
X0267221Y0028276D01*
X0267117Y0028390D01*
X0267017Y0028506D01*
X0266920Y0028626D01*
X0266825Y0028747D01*
X0266734Y0028871D01*
X0266647Y0028997D01*
X0266562Y0029126D01*
X0266481Y0029257D01*
X0266403Y0029389D01*
X0266329Y0029524D01*
X0266258Y0029661D01*
X0266191Y0029799D01*
X0266127Y0029939D01*
X0266067Y0030081D01*
X0266011Y0030224D01*
X0265958Y0030368D01*
X0265909Y0030514D01*
X0265864Y0030661D01*
X0265823Y0030810D01*
X0265785Y0030959D01*
X0265752Y0031109D01*
X0265722Y0031260D01*
X0265696Y0031412D01*
X0265675Y0031564D01*
X0265657Y0031717D01*
X0265643Y0031870D01*
X0265633Y0032023D01*
X0265627Y0032177D01*
X0265625Y0032331D01*
X0265575Y0032331D02*
X0265577Y0032178D01*
X0265583Y0032025D01*
X0265593Y0031872D01*
X0265606Y0031719D01*
X0265624Y0031567D01*
X0265645Y0031415D01*
X0265671Y0031264D01*
X0265700Y0031114D01*
X0265733Y0030964D01*
X0265770Y0030815D01*
X0265810Y0030667D01*
X0265855Y0030521D01*
X0265903Y0030375D01*
X0265955Y0030231D01*
X0266010Y0030088D01*
X0266069Y0029947D01*
X0266132Y0029807D01*
X0266198Y0029669D01*
X0266268Y0029532D01*
X0266341Y0029398D01*
X0266418Y0029265D01*
X0266498Y0029134D01*
X0266581Y0029006D01*
X0266667Y0028879D01*
X0266757Y0028755D01*
X0266850Y0028633D01*
X0266946Y0028514D01*
X0267045Y0028397D01*
X0267147Y0028282D01*
X0267252Y0028170D01*
X0267360Y0028061D01*
X0267470Y0027955D01*
X0267583Y0027852D01*
X0267699Y0027751D01*
X0267817Y0027654D01*
X0267938Y0027559D01*
X0268061Y0027468D01*
X0268186Y0027380D01*
X0268314Y0027295D01*
X0268443Y0027213D01*
X0268575Y0027135D01*
X0268709Y0027060D01*
X0268844Y0026988D01*
X0268982Y0026920D01*
X0269121Y0026856D01*
X0269261Y0026795D01*
X0269403Y0026738D01*
X0269547Y0026684D01*
X0269692Y0026634D01*
X0269838Y0026588D01*
X0269985Y0026545D01*
X0270133Y0026507D01*
X0270283Y0026472D01*
X0270433Y0026441D01*
X0270583Y0026413D01*
X0270735Y0026390D01*
X0270887Y0026371D01*
X0271039Y0026355D01*
X0271192Y0026343D01*
X0271345Y0026335D01*
X0271498Y0026331D01*
X0271652Y0026331D01*
X0271805Y0026335D01*
X0271958Y0026343D01*
X0272111Y0026355D01*
X0272263Y0026371D01*
X0272415Y0026390D01*
X0272567Y0026413D01*
X0272717Y0026441D01*
X0272867Y0026472D01*
X0273017Y0026507D01*
X0273165Y0026545D01*
X0273312Y0026588D01*
X0273458Y0026634D01*
X0273603Y0026684D01*
X0273747Y0026738D01*
X0273889Y0026795D01*
X0274029Y0026856D01*
X0274168Y0026920D01*
X0274306Y0026988D01*
X0274441Y0027060D01*
X0274575Y0027135D01*
X0274707Y0027213D01*
X0274836Y0027295D01*
X0274964Y0027380D01*
X0275089Y0027468D01*
X0275212Y0027559D01*
X0275333Y0027654D01*
X0275451Y0027751D01*
X0275567Y0027852D01*
X0275680Y0027955D01*
X0275790Y0028061D01*
X0275898Y0028170D01*
X0276003Y0028282D01*
X0276105Y0028397D01*
X0276204Y0028514D01*
X0276300Y0028633D01*
X0276393Y0028755D01*
X0276483Y0028879D01*
X0276569Y0029006D01*
X0276652Y0029134D01*
X0276732Y0029265D01*
X0276809Y0029398D01*
X0276882Y0029532D01*
X0276952Y0029669D01*
X0277018Y0029807D01*
X0277081Y0029947D01*
X0277140Y0030088D01*
X0277195Y0030231D01*
X0277247Y0030375D01*
X0277295Y0030521D01*
X0277340Y0030667D01*
X0277380Y0030815D01*
X0277417Y0030964D01*
X0277450Y0031114D01*
X0277479Y0031264D01*
X0277505Y0031415D01*
X0277526Y0031567D01*
X0277544Y0031719D01*
X0277557Y0031872D01*
X0277567Y0032025D01*
X0277573Y0032178D01*
X0277575Y0032331D01*
X0320528Y0026394D02*
X0320530Y0026552D01*
X0320536Y0026710D01*
X0320546Y0026868D01*
X0320560Y0027026D01*
X0320578Y0027183D01*
X0320599Y0027340D01*
X0320625Y0027496D01*
X0320655Y0027652D01*
X0320688Y0027807D01*
X0320726Y0027960D01*
X0320767Y0028113D01*
X0320812Y0028265D01*
X0320861Y0028416D01*
X0320914Y0028565D01*
X0320970Y0028713D01*
X0321030Y0028859D01*
X0321094Y0029004D01*
X0321162Y0029147D01*
X0321233Y0029289D01*
X0321307Y0029429D01*
X0321385Y0029566D01*
X0321467Y0029702D01*
X0321551Y0029836D01*
X0321640Y0029967D01*
X0321731Y0030096D01*
X0321826Y0030223D01*
X0321923Y0030348D01*
X0322024Y0030470D01*
X0322128Y0030589D01*
X0322235Y0030706D01*
X0322345Y0030820D01*
X0322458Y0030931D01*
X0322573Y0031040D01*
X0322691Y0031145D01*
X0322812Y0031247D01*
X0322935Y0031347D01*
X0323061Y0031443D01*
X0323189Y0031536D01*
X0323319Y0031626D01*
X0323452Y0031712D01*
X0323587Y0031796D01*
X0323723Y0031875D01*
X0323862Y0031952D01*
X0324003Y0032024D01*
X0324145Y0032094D01*
X0324289Y0032159D01*
X0324435Y0032221D01*
X0324582Y0032279D01*
X0324731Y0032334D01*
X0324881Y0032385D01*
X0325032Y0032432D01*
X0325184Y0032475D01*
X0325337Y0032514D01*
X0325492Y0032550D01*
X0325647Y0032581D01*
X0325803Y0032609D01*
X0325959Y0032633D01*
X0326116Y0032653D01*
X0326274Y0032669D01*
X0326431Y0032681D01*
X0326590Y0032689D01*
X0326748Y0032693D01*
X0326906Y0032693D01*
X0327064Y0032689D01*
X0327223Y0032681D01*
X0327380Y0032669D01*
X0327538Y0032653D01*
X0327695Y0032633D01*
X0327851Y0032609D01*
X0328007Y0032581D01*
X0328162Y0032550D01*
X0328317Y0032514D01*
X0328470Y0032475D01*
X0328622Y0032432D01*
X0328773Y0032385D01*
X0328923Y0032334D01*
X0329072Y0032279D01*
X0329219Y0032221D01*
X0329365Y0032159D01*
X0329509Y0032094D01*
X0329651Y0032024D01*
X0329792Y0031952D01*
X0329931Y0031875D01*
X0330067Y0031796D01*
X0330202Y0031712D01*
X0330335Y0031626D01*
X0330465Y0031536D01*
X0330593Y0031443D01*
X0330719Y0031347D01*
X0330842Y0031247D01*
X0330963Y0031145D01*
X0331081Y0031040D01*
X0331196Y0030931D01*
X0331309Y0030820D01*
X0331419Y0030706D01*
X0331526Y0030589D01*
X0331630Y0030470D01*
X0331731Y0030348D01*
X0331828Y0030223D01*
X0331923Y0030096D01*
X0332014Y0029967D01*
X0332103Y0029836D01*
X0332187Y0029702D01*
X0332269Y0029566D01*
X0332347Y0029429D01*
X0332421Y0029289D01*
X0332492Y0029147D01*
X0332560Y0029004D01*
X0332624Y0028859D01*
X0332684Y0028713D01*
X0332740Y0028565D01*
X0332793Y0028416D01*
X0332842Y0028265D01*
X0332887Y0028113D01*
X0332928Y0027960D01*
X0332966Y0027807D01*
X0332999Y0027652D01*
X0333029Y0027496D01*
X0333055Y0027340D01*
X0333076Y0027183D01*
X0333094Y0027026D01*
X0333108Y0026868D01*
X0333118Y0026710D01*
X0333124Y0026552D01*
X0333126Y0026394D01*
X0333124Y0026236D01*
X0333118Y0026078D01*
X0333108Y0025920D01*
X0333094Y0025762D01*
X0333076Y0025605D01*
X0333055Y0025448D01*
X0333029Y0025292D01*
X0332999Y0025136D01*
X0332966Y0024981D01*
X0332928Y0024828D01*
X0332887Y0024675D01*
X0332842Y0024523D01*
X0332793Y0024372D01*
X0332740Y0024223D01*
X0332684Y0024075D01*
X0332624Y0023929D01*
X0332560Y0023784D01*
X0332492Y0023641D01*
X0332421Y0023499D01*
X0332347Y0023359D01*
X0332269Y0023222D01*
X0332187Y0023086D01*
X0332103Y0022952D01*
X0332014Y0022821D01*
X0331923Y0022692D01*
X0331828Y0022565D01*
X0331731Y0022440D01*
X0331630Y0022318D01*
X0331526Y0022199D01*
X0331419Y0022082D01*
X0331309Y0021968D01*
X0331196Y0021857D01*
X0331081Y0021748D01*
X0330963Y0021643D01*
X0330842Y0021541D01*
X0330719Y0021441D01*
X0330593Y0021345D01*
X0330465Y0021252D01*
X0330335Y0021162D01*
X0330202Y0021076D01*
X0330067Y0020992D01*
X0329931Y0020913D01*
X0329792Y0020836D01*
X0329651Y0020764D01*
X0329509Y0020694D01*
X0329365Y0020629D01*
X0329219Y0020567D01*
X0329072Y0020509D01*
X0328923Y0020454D01*
X0328773Y0020403D01*
X0328622Y0020356D01*
X0328470Y0020313D01*
X0328317Y0020274D01*
X0328162Y0020238D01*
X0328007Y0020207D01*
X0327851Y0020179D01*
X0327695Y0020155D01*
X0327538Y0020135D01*
X0327380Y0020119D01*
X0327223Y0020107D01*
X0327064Y0020099D01*
X0326906Y0020095D01*
X0326748Y0020095D01*
X0326590Y0020099D01*
X0326431Y0020107D01*
X0326274Y0020119D01*
X0326116Y0020135D01*
X0325959Y0020155D01*
X0325803Y0020179D01*
X0325647Y0020207D01*
X0325492Y0020238D01*
X0325337Y0020274D01*
X0325184Y0020313D01*
X0325032Y0020356D01*
X0324881Y0020403D01*
X0324731Y0020454D01*
X0324582Y0020509D01*
X0324435Y0020567D01*
X0324289Y0020629D01*
X0324145Y0020694D01*
X0324003Y0020764D01*
X0323862Y0020836D01*
X0323723Y0020913D01*
X0323587Y0020992D01*
X0323452Y0021076D01*
X0323319Y0021162D01*
X0323189Y0021252D01*
X0323061Y0021345D01*
X0322935Y0021441D01*
X0322812Y0021541D01*
X0322691Y0021643D01*
X0322573Y0021748D01*
X0322458Y0021857D01*
X0322345Y0021968D01*
X0322235Y0022082D01*
X0322128Y0022199D01*
X0322024Y0022318D01*
X0321923Y0022440D01*
X0321826Y0022565D01*
X0321731Y0022692D01*
X0321640Y0022821D01*
X0321551Y0022952D01*
X0321467Y0023086D01*
X0321385Y0023222D01*
X0321307Y0023359D01*
X0321233Y0023499D01*
X0321162Y0023641D01*
X0321094Y0023784D01*
X0321030Y0023929D01*
X0320970Y0024075D01*
X0320914Y0024223D01*
X0320861Y0024372D01*
X0320812Y0024523D01*
X0320767Y0024675D01*
X0320726Y0024828D01*
X0320688Y0024981D01*
X0320655Y0025136D01*
X0320625Y0025292D01*
X0320599Y0025448D01*
X0320578Y0025605D01*
X0320560Y0025762D01*
X0320546Y0025920D01*
X0320536Y0026078D01*
X0320530Y0026236D01*
X0320528Y0026394D01*
X0319465Y0251709D02*
X0319467Y0251867D01*
X0319473Y0252025D01*
X0319483Y0252183D01*
X0319497Y0252341D01*
X0319515Y0252498D01*
X0319536Y0252655D01*
X0319562Y0252811D01*
X0319592Y0252967D01*
X0319625Y0253122D01*
X0319663Y0253275D01*
X0319704Y0253428D01*
X0319749Y0253580D01*
X0319798Y0253731D01*
X0319851Y0253880D01*
X0319907Y0254028D01*
X0319967Y0254174D01*
X0320031Y0254319D01*
X0320099Y0254462D01*
X0320170Y0254604D01*
X0320244Y0254744D01*
X0320322Y0254881D01*
X0320404Y0255017D01*
X0320488Y0255151D01*
X0320577Y0255282D01*
X0320668Y0255411D01*
X0320763Y0255538D01*
X0320860Y0255663D01*
X0320961Y0255785D01*
X0321065Y0255904D01*
X0321172Y0256021D01*
X0321282Y0256135D01*
X0321395Y0256246D01*
X0321510Y0256355D01*
X0321628Y0256460D01*
X0321749Y0256562D01*
X0321872Y0256662D01*
X0321998Y0256758D01*
X0322126Y0256851D01*
X0322256Y0256941D01*
X0322389Y0257027D01*
X0322524Y0257111D01*
X0322660Y0257190D01*
X0322799Y0257267D01*
X0322940Y0257339D01*
X0323082Y0257409D01*
X0323226Y0257474D01*
X0323372Y0257536D01*
X0323519Y0257594D01*
X0323668Y0257649D01*
X0323818Y0257700D01*
X0323969Y0257747D01*
X0324121Y0257790D01*
X0324274Y0257829D01*
X0324429Y0257865D01*
X0324584Y0257896D01*
X0324740Y0257924D01*
X0324896Y0257948D01*
X0325053Y0257968D01*
X0325211Y0257984D01*
X0325368Y0257996D01*
X0325527Y0258004D01*
X0325685Y0258008D01*
X0325843Y0258008D01*
X0326001Y0258004D01*
X0326160Y0257996D01*
X0326317Y0257984D01*
X0326475Y0257968D01*
X0326632Y0257948D01*
X0326788Y0257924D01*
X0326944Y0257896D01*
X0327099Y0257865D01*
X0327254Y0257829D01*
X0327407Y0257790D01*
X0327559Y0257747D01*
X0327710Y0257700D01*
X0327860Y0257649D01*
X0328009Y0257594D01*
X0328156Y0257536D01*
X0328302Y0257474D01*
X0328446Y0257409D01*
X0328588Y0257339D01*
X0328729Y0257267D01*
X0328868Y0257190D01*
X0329004Y0257111D01*
X0329139Y0257027D01*
X0329272Y0256941D01*
X0329402Y0256851D01*
X0329530Y0256758D01*
X0329656Y0256662D01*
X0329779Y0256562D01*
X0329900Y0256460D01*
X0330018Y0256355D01*
X0330133Y0256246D01*
X0330246Y0256135D01*
X0330356Y0256021D01*
X0330463Y0255904D01*
X0330567Y0255785D01*
X0330668Y0255663D01*
X0330765Y0255538D01*
X0330860Y0255411D01*
X0330951Y0255282D01*
X0331040Y0255151D01*
X0331124Y0255017D01*
X0331206Y0254881D01*
X0331284Y0254744D01*
X0331358Y0254604D01*
X0331429Y0254462D01*
X0331497Y0254319D01*
X0331561Y0254174D01*
X0331621Y0254028D01*
X0331677Y0253880D01*
X0331730Y0253731D01*
X0331779Y0253580D01*
X0331824Y0253428D01*
X0331865Y0253275D01*
X0331903Y0253122D01*
X0331936Y0252967D01*
X0331966Y0252811D01*
X0331992Y0252655D01*
X0332013Y0252498D01*
X0332031Y0252341D01*
X0332045Y0252183D01*
X0332055Y0252025D01*
X0332061Y0251867D01*
X0332063Y0251709D01*
X0332061Y0251551D01*
X0332055Y0251393D01*
X0332045Y0251235D01*
X0332031Y0251077D01*
X0332013Y0250920D01*
X0331992Y0250763D01*
X0331966Y0250607D01*
X0331936Y0250451D01*
X0331903Y0250296D01*
X0331865Y0250143D01*
X0331824Y0249990D01*
X0331779Y0249838D01*
X0331730Y0249687D01*
X0331677Y0249538D01*
X0331621Y0249390D01*
X0331561Y0249244D01*
X0331497Y0249099D01*
X0331429Y0248956D01*
X0331358Y0248814D01*
X0331284Y0248674D01*
X0331206Y0248537D01*
X0331124Y0248401D01*
X0331040Y0248267D01*
X0330951Y0248136D01*
X0330860Y0248007D01*
X0330765Y0247880D01*
X0330668Y0247755D01*
X0330567Y0247633D01*
X0330463Y0247514D01*
X0330356Y0247397D01*
X0330246Y0247283D01*
X0330133Y0247172D01*
X0330018Y0247063D01*
X0329900Y0246958D01*
X0329779Y0246856D01*
X0329656Y0246756D01*
X0329530Y0246660D01*
X0329402Y0246567D01*
X0329272Y0246477D01*
X0329139Y0246391D01*
X0329004Y0246307D01*
X0328868Y0246228D01*
X0328729Y0246151D01*
X0328588Y0246079D01*
X0328446Y0246009D01*
X0328302Y0245944D01*
X0328156Y0245882D01*
X0328009Y0245824D01*
X0327860Y0245769D01*
X0327710Y0245718D01*
X0327559Y0245671D01*
X0327407Y0245628D01*
X0327254Y0245589D01*
X0327099Y0245553D01*
X0326944Y0245522D01*
X0326788Y0245494D01*
X0326632Y0245470D01*
X0326475Y0245450D01*
X0326317Y0245434D01*
X0326160Y0245422D01*
X0326001Y0245414D01*
X0325843Y0245410D01*
X0325685Y0245410D01*
X0325527Y0245414D01*
X0325368Y0245422D01*
X0325211Y0245434D01*
X0325053Y0245450D01*
X0324896Y0245470D01*
X0324740Y0245494D01*
X0324584Y0245522D01*
X0324429Y0245553D01*
X0324274Y0245589D01*
X0324121Y0245628D01*
X0323969Y0245671D01*
X0323818Y0245718D01*
X0323668Y0245769D01*
X0323519Y0245824D01*
X0323372Y0245882D01*
X0323226Y0245944D01*
X0323082Y0246009D01*
X0322940Y0246079D01*
X0322799Y0246151D01*
X0322660Y0246228D01*
X0322524Y0246307D01*
X0322389Y0246391D01*
X0322256Y0246477D01*
X0322126Y0246567D01*
X0321998Y0246660D01*
X0321872Y0246756D01*
X0321749Y0246856D01*
X0321628Y0246958D01*
X0321510Y0247063D01*
X0321395Y0247172D01*
X0321282Y0247283D01*
X0321172Y0247397D01*
X0321065Y0247514D01*
X0320961Y0247633D01*
X0320860Y0247755D01*
X0320763Y0247880D01*
X0320668Y0248007D01*
X0320577Y0248136D01*
X0320488Y0248267D01*
X0320404Y0248401D01*
X0320322Y0248537D01*
X0320244Y0248674D01*
X0320170Y0248814D01*
X0320099Y0248956D01*
X0320031Y0249099D01*
X0319967Y0249244D01*
X0319907Y0249390D01*
X0319851Y0249538D01*
X0319798Y0249687D01*
X0319749Y0249838D01*
X0319704Y0249990D01*
X0319663Y0250143D01*
X0319625Y0250296D01*
X0319592Y0250451D01*
X0319562Y0250607D01*
X0319536Y0250763D01*
X0319515Y0250920D01*
X0319497Y0251077D01*
X0319483Y0251235D01*
X0319473Y0251393D01*
X0319467Y0251551D01*
X0319465Y0251709D01*
D11*
X0254701Y0200528D03*
X0214701Y0200528D03*
X0197654Y0200528D03*
X0157654Y0200528D03*
X0138795Y0200528D03*
X0098795Y0200528D03*
D12*
X0016438Y0195331D02*
X0010838Y0195331D01*
X0010838Y0185331D02*
X0016438Y0185331D01*
X0016438Y0175331D02*
X0010838Y0175331D01*
X0010838Y0165331D02*
X0016438Y0165331D01*
X0016438Y0150331D02*
X0010838Y0150331D01*
X0010838Y0140331D02*
X0016438Y0140331D01*
X0016438Y0130331D02*
X0010838Y0130331D01*
X0327964Y0130331D02*
X0333564Y0130331D01*
X0333564Y0140331D02*
X0327964Y0140331D01*
X0327964Y0150331D02*
X0333564Y0150331D01*
X0333564Y0165331D02*
X0327964Y0165331D01*
X0327964Y0175331D02*
X0333564Y0175331D01*
X0333564Y0185331D02*
X0327964Y0185331D01*
X0327964Y0195331D02*
X0333564Y0195331D01*
D13*
X0253016Y0178835D02*
X0247016Y0178835D01*
X0223016Y0178835D02*
X0217016Y0178835D01*
X0195890Y0178835D02*
X0189890Y0178835D01*
X0165890Y0178835D02*
X0159890Y0178835D01*
X0140575Y0178835D02*
X0134575Y0178835D01*
X0110575Y0178835D02*
X0104575Y0178835D01*
X0104575Y0148835D02*
X0110575Y0148835D01*
X0134575Y0148835D02*
X0140575Y0148835D01*
X0159890Y0148835D02*
X0165890Y0148835D01*
X0189890Y0148835D02*
X0195890Y0148835D01*
X0217016Y0148835D02*
X0223016Y0148835D01*
X0247016Y0148835D02*
X0253016Y0148835D01*
X0253016Y0128835D02*
X0247016Y0128835D01*
X0247016Y0108835D02*
X0253016Y0108835D01*
X0223016Y0108835D02*
X0217016Y0108835D01*
X0217016Y0128835D02*
X0223016Y0128835D01*
X0195890Y0128835D02*
X0189890Y0128835D01*
X0189890Y0108835D02*
X0195890Y0108835D01*
X0165890Y0108835D02*
X0159890Y0108835D01*
X0140575Y0108835D02*
X0134575Y0108835D01*
X0134575Y0128835D02*
X0140575Y0128835D01*
X0159890Y0128835D02*
X0165890Y0128835D01*
X0110575Y0128835D02*
X0104575Y0128835D01*
X0104575Y0108835D02*
X0110575Y0108835D01*
X0127732Y0252331D02*
X0127732Y0258331D01*
X0137732Y0258331D02*
X0137732Y0252331D01*
X0147732Y0252331D02*
X0147732Y0258331D01*
X0157732Y0258331D02*
X0157732Y0252331D01*
D14*
X0170016Y0240134D03*
X0179819Y0257457D03*
X0189819Y0257457D03*
X0200016Y0240134D03*
X0138008Y0221787D03*
X0108008Y0221787D03*
X0268402Y0104780D03*
X0268402Y0074780D03*
X0210094Y0091945D03*
X0180094Y0091945D03*
X0328283Y0105173D03*
X0328283Y0075173D03*
D15*
X0320964Y0075331D02*
X0315764Y0075331D01*
X0315764Y0085331D02*
X0320964Y0085331D01*
X0320964Y0065331D02*
X0315764Y0065331D01*
X0285764Y0065331D02*
X0280564Y0065331D01*
X0280564Y0075331D02*
X0285764Y0075331D01*
X0285764Y0085331D02*
X0280564Y0085331D01*
X0260449Y0089384D02*
X0260449Y0094584D01*
X0260449Y0064584D02*
X0260449Y0059384D01*
D16*
X0082575Y0176598D02*
X0082575Y0183198D01*
X0072575Y0183198D02*
X0072575Y0176598D01*
X0062575Y0176598D02*
X0062575Y0183198D01*
D17*
X0057575Y0046331D02*
X0057575Y0032331D01*
X0069575Y0032331D02*
X0069575Y0046331D01*
X0265575Y0046331D02*
X0265575Y0032331D01*
X0277575Y0032331D02*
X0277575Y0046331D01*
D18*
X0242575Y0061431D02*
X0242575Y0069231D01*
X0227575Y0069231D02*
X0227575Y0061431D01*
X0235075Y0049231D02*
X0235075Y0041431D01*
X0220075Y0041431D02*
X0220075Y0049231D01*
X0205075Y0049231D02*
X0205075Y0041431D01*
X0190075Y0041431D02*
X0190075Y0049231D01*
X0197575Y0061431D02*
X0197575Y0069231D01*
X0212575Y0069231D02*
X0212575Y0061431D01*
X0182575Y0061431D02*
X0182575Y0069231D01*
X0167575Y0069231D02*
X0167575Y0061431D01*
X0152575Y0061431D02*
X0152575Y0069231D01*
X0137575Y0069231D02*
X0137575Y0061431D01*
X0122575Y0061431D02*
X0122575Y0069231D01*
X0107575Y0069231D02*
X0107575Y0061431D01*
X0115075Y0049231D02*
X0115075Y0041431D01*
X0130075Y0041431D02*
X0130075Y0049231D01*
X0145075Y0049231D02*
X0145075Y0041431D01*
X0160075Y0041431D02*
X0160075Y0049231D01*
X0175075Y0049231D02*
X0175075Y0041431D01*
X0100075Y0041431D02*
X0100075Y0049231D01*
X0092575Y0061431D02*
X0092575Y0069231D01*
D19*
X0088717Y0244031D03*
X0078717Y0244031D03*
X0068717Y0244031D03*
X0058717Y0244031D03*
X0048717Y0244031D03*
X0048717Y0254031D03*
X0058717Y0254031D03*
X0068717Y0254031D03*
X0078717Y0254031D03*
X0088717Y0254031D03*
X0244386Y0254425D03*
X0254386Y0254425D03*
X0264386Y0254425D03*
X0274386Y0254425D03*
X0284386Y0254425D03*
X0284386Y0244425D03*
X0274386Y0244425D03*
X0264386Y0244425D03*
X0254386Y0244425D03*
X0244386Y0244425D03*
D20*
X0240959Y0240357D02*
X0242190Y0239125D01*
X0246581Y0239125D01*
X0246585Y0239129D01*
X0321511Y0164203D01*
X0322461Y0163809D01*
X0323831Y0163809D01*
X0324234Y0162838D01*
X0325471Y0161601D01*
X0327089Y0160931D01*
X0334439Y0160931D01*
X0336056Y0161601D01*
X0337294Y0162838D01*
X0337964Y0164455D01*
X0337964Y0166206D01*
X0337294Y0167823D01*
X0336056Y0169061D01*
X0334439Y0169731D01*
X0327089Y0169731D01*
X0325471Y0169061D01*
X0325388Y0168978D01*
X0324045Y0168978D01*
X0253898Y0239125D01*
X0256189Y0239125D01*
X0320911Y0174403D01*
X0321861Y0174009D01*
X0323749Y0174009D01*
X0324234Y0172838D01*
X0325471Y0171601D01*
X0327089Y0170931D01*
X0334439Y0170931D01*
X0336056Y0171601D01*
X0337294Y0172838D01*
X0337964Y0174455D01*
X0337964Y0176206D01*
X0337294Y0177823D01*
X0336056Y0179061D01*
X0334439Y0179731D01*
X0327089Y0179731D01*
X0325754Y0179178D01*
X0323445Y0179178D01*
X0263498Y0239125D01*
X0266581Y0239125D01*
X0269386Y0241930D01*
X0272190Y0239125D01*
X0276581Y0239125D01*
X0279244Y0241788D01*
X0282108Y0238925D01*
X0284186Y0238925D01*
X0284186Y0244225D01*
X0284586Y0244225D01*
X0284586Y0244625D01*
X0289886Y0244625D01*
X0289886Y0246703D01*
X0287164Y0249425D01*
X0289886Y0252147D01*
X0289886Y0254225D01*
X0284586Y0254225D01*
X0284586Y0248925D01*
X0284586Y0244625D01*
X0284186Y0244625D01*
X0284186Y0254225D01*
X0284586Y0254225D01*
X0284586Y0254625D01*
X0289886Y0254625D01*
X0289886Y0256703D01*
X0286664Y0259925D01*
X0284586Y0259925D01*
X0284586Y0254625D01*
X0284186Y0254625D01*
X0284186Y0254225D01*
X0279686Y0254225D01*
X0279686Y0254625D01*
X0284186Y0254625D01*
X0284186Y0259925D01*
X0282108Y0259925D01*
X0279244Y0257062D01*
X0276581Y0259725D01*
X0272190Y0259725D01*
X0271344Y0258879D01*
X0268766Y0261458D01*
X0268039Y0262185D01*
X0267089Y0262578D01*
X0241461Y0262578D01*
X0240511Y0262185D01*
X0236911Y0258585D01*
X0236184Y0257858D01*
X0235791Y0256908D01*
X0235791Y0160480D01*
X0236184Y0159530D01*
X0243695Y0152019D01*
X0243116Y0151440D01*
X0242433Y0149790D01*
X0225359Y0166864D01*
X0225359Y0174826D01*
X0225621Y0174935D01*
X0226915Y0176229D01*
X0227616Y0177920D01*
X0227616Y0179750D01*
X0226915Y0181440D01*
X0225621Y0182734D01*
X0223931Y0183435D01*
X0219589Y0183435D01*
X0217559Y0185464D01*
X0217559Y0196456D01*
X0218855Y0197752D01*
X0219601Y0199553D01*
X0219601Y0201502D01*
X0218855Y0203303D01*
X0217476Y0204682D01*
X0215675Y0205428D01*
X0213726Y0205428D01*
X0212159Y0204778D01*
X0212159Y0225087D01*
X0212627Y0225554D01*
X0213175Y0226878D01*
X0213175Y0228310D01*
X0212627Y0229633D01*
X0211614Y0230646D01*
X0210291Y0231194D01*
X0208859Y0231194D01*
X0207536Y0230646D01*
X0206523Y0229633D01*
X0205975Y0228310D01*
X0205975Y0226878D01*
X0206523Y0225554D01*
X0206991Y0225087D01*
X0206991Y0177772D01*
X0150175Y0234588D01*
X0150175Y0248363D01*
X0150338Y0248431D01*
X0151632Y0249725D01*
X0152332Y0251416D01*
X0152332Y0259246D01*
X0151632Y0260936D01*
X0150338Y0262230D01*
X0148647Y0262931D01*
X0146817Y0262931D01*
X0145127Y0262230D01*
X0143833Y0260936D01*
X0143132Y0259246D01*
X0143132Y0251416D01*
X0143833Y0249725D01*
X0145127Y0248431D01*
X0145375Y0248328D01*
X0145375Y0233116D01*
X0145740Y0232234D01*
X0159638Y0218337D01*
X0158936Y0218046D01*
X0157923Y0217033D01*
X0157375Y0215710D01*
X0157375Y0215048D01*
X0143695Y0201369D01*
X0143695Y0201502D01*
X0142949Y0203303D01*
X0141571Y0204682D01*
X0139770Y0205428D01*
X0137821Y0205428D01*
X0136020Y0204682D01*
X0134641Y0203303D01*
X0133895Y0201502D01*
X0133895Y0199553D01*
X0134641Y0197752D01*
X0136020Y0196374D01*
X0137821Y0195628D01*
X0137954Y0195628D01*
X0105384Y0163058D01*
X0104991Y0162108D01*
X0104991Y0153435D01*
X0103660Y0153435D01*
X0101969Y0152734D01*
X0100675Y0151440D01*
X0099975Y0149750D01*
X0099975Y0147920D01*
X0100675Y0146229D01*
X0100726Y0146178D01*
X0031245Y0146178D01*
X0020966Y0156458D01*
X0020239Y0157185D01*
X0019289Y0157578D01*
X0008759Y0157578D01*
X0008759Y0161429D01*
X0009963Y0160931D01*
X0017313Y0160931D01*
X0018930Y0161601D01*
X0020168Y0162838D01*
X0020322Y0163209D01*
X0021089Y0163209D01*
X0022039Y0163603D01*
X0032445Y0174009D01*
X0036068Y0174009D01*
X0036536Y0173542D01*
X0037859Y0172994D01*
X0039291Y0172994D01*
X0040614Y0173542D01*
X0041627Y0174554D01*
X0042175Y0175878D01*
X0042175Y0177310D01*
X0041627Y0178633D01*
X0040614Y0179646D01*
X0039291Y0180194D01*
X0037859Y0180194D01*
X0036536Y0179646D01*
X0036068Y0179178D01*
X0034559Y0179178D01*
X0034559Y0189566D01*
X0035459Y0189194D01*
X0036891Y0189194D01*
X0038214Y0189742D01*
X0039227Y0190754D01*
X0039775Y0192078D01*
X0039775Y0193510D01*
X0039227Y0194833D01*
X0038759Y0195301D01*
X0038759Y0210323D01*
X0067167Y0238731D01*
X0070912Y0238731D01*
X0073717Y0241536D01*
X0076521Y0238731D01*
X0080912Y0238731D01*
X0083575Y0241395D01*
X0086438Y0238531D01*
X0088517Y0238531D01*
X0088517Y0243831D01*
X0088917Y0243831D01*
X0088917Y0244231D01*
X0094217Y0244231D01*
X0094217Y0246310D01*
X0091495Y0249031D01*
X0094217Y0251753D01*
X0094217Y0253831D01*
X0088917Y0253831D01*
X0088917Y0254231D01*
X0094217Y0254231D01*
X0094217Y0256310D01*
X0090995Y0259531D01*
X0088917Y0259531D01*
X0088917Y0254232D01*
X0088517Y0254232D01*
X0088517Y0259531D01*
X0086438Y0259531D01*
X0083575Y0256668D01*
X0080912Y0259331D01*
X0077092Y0259331D01*
X0071239Y0265185D01*
X0070289Y0265578D01*
X0012861Y0265578D01*
X0011911Y0265185D01*
X0011184Y0264458D01*
X0005800Y0259074D01*
X0005800Y0269110D01*
X0338405Y0269110D01*
X0338405Y0005800D01*
X0005800Y0005800D01*
X0005800Y0144514D01*
X0007299Y0143015D01*
X0007108Y0142823D01*
X0006438Y0141206D01*
X0006438Y0139455D01*
X0007108Y0137838D01*
X0008345Y0136601D01*
X0009963Y0135931D01*
X0017313Y0135931D01*
X0018930Y0136601D01*
X0020168Y0137838D01*
X0020838Y0139455D01*
X0020838Y0141206D01*
X0020168Y0142823D01*
X0018930Y0144061D01*
X0017313Y0144731D01*
X0012892Y0144731D01*
X0011892Y0145731D01*
X0013538Y0145731D01*
X0013538Y0150231D01*
X0013738Y0150231D01*
X0013738Y0145731D01*
X0016800Y0145731D01*
X0017515Y0145844D01*
X0018204Y0146068D01*
X0018849Y0146396D01*
X0019434Y0146822D01*
X0019946Y0147334D01*
X0020372Y0147920D01*
X0020701Y0148565D01*
X0020909Y0149205D01*
X0028711Y0141403D01*
X0029661Y0141009D01*
X0186904Y0141009D01*
X0194479Y0133435D01*
X0188975Y0133435D01*
X0187284Y0132734D01*
X0185990Y0131440D01*
X0185290Y0129750D01*
X0185290Y0127920D01*
X0185990Y0126229D01*
X0187284Y0124935D01*
X0188975Y0124235D01*
X0196805Y0124235D01*
X0198495Y0124935D01*
X0199789Y0126229D01*
X0200345Y0127569D01*
X0200911Y0127003D01*
X0201861Y0126609D01*
X0212958Y0126609D01*
X0213116Y0126229D01*
X0214410Y0124935D01*
X0216101Y0124235D01*
X0223931Y0124235D01*
X0225621Y0124935D01*
X0226915Y0126229D01*
X0227616Y0127920D01*
X0227616Y0128159D01*
X0243540Y0112234D01*
X0243725Y0112049D01*
X0243116Y0111440D01*
X0242416Y0109750D01*
X0242416Y0107920D01*
X0243116Y0106229D01*
X0244410Y0104935D01*
X0246101Y0104235D01*
X0247191Y0104235D01*
X0247191Y0072393D01*
X0245690Y0073893D01*
X0243669Y0074731D01*
X0241481Y0074731D01*
X0239459Y0073893D01*
X0237912Y0072346D01*
X0237075Y0070325D01*
X0237075Y0060337D01*
X0237912Y0058315D01*
X0239459Y0056768D01*
X0241481Y0055931D01*
X0241857Y0055931D01*
X0239005Y0053079D01*
X0238190Y0053893D01*
X0236169Y0054731D01*
X0233981Y0054731D01*
X0231959Y0053893D01*
X0230412Y0052346D01*
X0229575Y0050325D01*
X0229575Y0040337D01*
X0230412Y0038315D01*
X0231959Y0036768D01*
X0233981Y0035931D01*
X0236169Y0035931D01*
X0238190Y0036768D01*
X0239737Y0038315D01*
X0240575Y0040337D01*
X0240575Y0047339D01*
X0251966Y0058730D01*
X0252359Y0059680D01*
X0252359Y0104235D01*
X0253931Y0104235D01*
X0255621Y0104935D01*
X0256915Y0106229D01*
X0257616Y0107920D01*
X0257616Y0109750D01*
X0257018Y0111194D01*
X0276381Y0111194D01*
X0311564Y0076011D01*
X0311564Y0074495D01*
X0312203Y0072952D01*
X0313385Y0071770D01*
X0314928Y0071131D01*
X0321799Y0071131D01*
X0323343Y0071770D01*
X0324524Y0072952D01*
X0324536Y0072981D01*
X0326544Y0070973D01*
X0330023Y0070973D01*
X0332483Y0073434D01*
X0332483Y0076913D01*
X0330023Y0079373D01*
X0326544Y0079373D01*
X0324629Y0077458D01*
X0324524Y0077710D01*
X0323343Y0078891D01*
X0321799Y0079531D01*
X0314928Y0079531D01*
X0314860Y0079502D01*
X0291753Y0102609D01*
X0324908Y0102609D01*
X0326544Y0100973D01*
X0330023Y0100973D01*
X0332483Y0103434D01*
X0332483Y0106913D01*
X0330023Y0109373D01*
X0326544Y0109373D01*
X0324948Y0107778D01*
X0291045Y0107778D01*
X0271014Y0127809D01*
X0324262Y0127809D01*
X0325471Y0126601D01*
X0327089Y0125931D01*
X0334439Y0125931D01*
X0336056Y0126601D01*
X0337294Y0127838D01*
X0337964Y0129455D01*
X0337964Y0131206D01*
X0337294Y0132823D01*
X0336056Y0134061D01*
X0334439Y0134731D01*
X0327089Y0134731D01*
X0325471Y0134061D01*
X0324388Y0132978D01*
X0270045Y0132978D01*
X0256855Y0146168D01*
X0256915Y0146229D01*
X0257130Y0146747D01*
X0257336Y0146542D01*
X0258659Y0145994D01*
X0259320Y0145994D01*
X0266911Y0138403D01*
X0267861Y0138009D01*
X0324163Y0138009D01*
X0324234Y0137838D01*
X0325471Y0136601D01*
X0327089Y0135931D01*
X0334439Y0135931D01*
X0336056Y0136601D01*
X0337294Y0137838D01*
X0337964Y0139455D01*
X0337964Y0141206D01*
X0337294Y0142823D01*
X0336056Y0144061D01*
X0334439Y0144731D01*
X0327089Y0144731D01*
X0325471Y0144061D01*
X0324588Y0143178D01*
X0269445Y0143178D01*
X0262975Y0149648D01*
X0262975Y0150310D01*
X0262427Y0151633D01*
X0261414Y0152646D01*
X0260091Y0153194D01*
X0258659Y0153194D01*
X0257336Y0152646D01*
X0256523Y0151833D01*
X0255621Y0152734D01*
X0253931Y0153435D01*
X0249589Y0153435D01*
X0240959Y0162064D01*
X0240959Y0240357D01*
X0240959Y0239572D02*
X0241744Y0239572D01*
X0240959Y0237973D02*
X0247740Y0237973D01*
X0249339Y0236375D02*
X0240959Y0236375D01*
X0240959Y0234776D02*
X0250937Y0234776D01*
X0252536Y0233178D02*
X0240959Y0233178D01*
X0240959Y0231579D02*
X0254134Y0231579D01*
X0255733Y0229981D02*
X0240959Y0229981D01*
X0240959Y0228382D02*
X0257332Y0228382D01*
X0258930Y0226784D02*
X0240959Y0226784D01*
X0240959Y0225185D02*
X0260529Y0225185D01*
X0262127Y0223587D02*
X0240959Y0223587D01*
X0240959Y0221988D02*
X0263726Y0221988D01*
X0265324Y0220390D02*
X0240959Y0220390D01*
X0240959Y0218791D02*
X0266923Y0218791D01*
X0268521Y0217193D02*
X0240959Y0217193D01*
X0240959Y0215594D02*
X0270120Y0215594D01*
X0271718Y0213996D02*
X0240959Y0213996D01*
X0240959Y0212397D02*
X0273317Y0212397D01*
X0274915Y0210799D02*
X0240959Y0210799D01*
X0240959Y0209200D02*
X0276514Y0209200D01*
X0278112Y0207602D02*
X0240959Y0207602D01*
X0240959Y0206003D02*
X0279711Y0206003D01*
X0281309Y0204405D02*
X0257753Y0204405D01*
X0257476Y0204682D02*
X0255675Y0205428D01*
X0253726Y0205428D01*
X0251925Y0204682D01*
X0250547Y0203303D01*
X0249801Y0201502D01*
X0249801Y0199553D01*
X0250547Y0197752D01*
X0251925Y0196374D01*
X0253726Y0195628D01*
X0255675Y0195628D01*
X0257476Y0196374D01*
X0258855Y0197752D01*
X0259601Y0199553D01*
X0259601Y0201502D01*
X0258855Y0203303D01*
X0257476Y0204682D01*
X0259061Y0202806D02*
X0282908Y0202806D01*
X0284506Y0201208D02*
X0259601Y0201208D01*
X0259601Y0199609D02*
X0286105Y0199609D01*
X0287703Y0198011D02*
X0258962Y0198011D01*
X0257515Y0196412D02*
X0289302Y0196412D01*
X0290900Y0194814D02*
X0240959Y0194814D01*
X0240959Y0196412D02*
X0251887Y0196412D01*
X0250440Y0198011D02*
X0240959Y0198011D01*
X0240959Y0199609D02*
X0249801Y0199609D01*
X0249801Y0201208D02*
X0240959Y0201208D01*
X0240959Y0202806D02*
X0250341Y0202806D01*
X0251648Y0204405D02*
X0240959Y0204405D01*
X0235791Y0204405D02*
X0217753Y0204405D01*
X0219061Y0202806D02*
X0235791Y0202806D01*
X0235791Y0201208D02*
X0219601Y0201208D01*
X0219601Y0199609D02*
X0235791Y0199609D01*
X0235791Y0198011D02*
X0218962Y0198011D01*
X0217559Y0196412D02*
X0235791Y0196412D01*
X0235791Y0194814D02*
X0217559Y0194814D01*
X0217559Y0193215D02*
X0235791Y0193215D01*
X0235791Y0191617D02*
X0217559Y0191617D01*
X0217559Y0190018D02*
X0235791Y0190018D01*
X0235791Y0188420D02*
X0217559Y0188420D01*
X0217559Y0186821D02*
X0235791Y0186821D01*
X0235791Y0185223D02*
X0217801Y0185223D01*
X0219399Y0183624D02*
X0235791Y0183624D01*
X0235791Y0182025D02*
X0226330Y0182025D01*
X0227335Y0180427D02*
X0235791Y0180427D01*
X0235791Y0178828D02*
X0227616Y0178828D01*
X0227330Y0177230D02*
X0235791Y0177230D01*
X0235791Y0175631D02*
X0226318Y0175631D01*
X0225359Y0174033D02*
X0235791Y0174033D01*
X0235791Y0172434D02*
X0225359Y0172434D01*
X0225359Y0170836D02*
X0235791Y0170836D01*
X0235791Y0169237D02*
X0225359Y0169237D01*
X0225359Y0167639D02*
X0235791Y0167639D01*
X0235791Y0166040D02*
X0226183Y0166040D01*
X0227781Y0164442D02*
X0235791Y0164442D01*
X0235791Y0162843D02*
X0229380Y0162843D01*
X0230978Y0161245D02*
X0235791Y0161245D01*
X0236136Y0159646D02*
X0232577Y0159646D01*
X0234175Y0158048D02*
X0237666Y0158048D01*
X0239265Y0156449D02*
X0235774Y0156449D01*
X0237372Y0154851D02*
X0240863Y0154851D01*
X0242462Y0153252D02*
X0238971Y0153252D01*
X0240569Y0151654D02*
X0243330Y0151654D01*
X0242542Y0150055D02*
X0242168Y0150055D01*
X0238056Y0146858D02*
X0227176Y0146858D01*
X0226915Y0146229D02*
X0227616Y0147920D01*
X0227616Y0149750D01*
X0226915Y0151440D01*
X0225621Y0152734D01*
X0223931Y0153435D01*
X0222359Y0153435D01*
X0222359Y0162555D01*
X0243511Y0141403D01*
X0244461Y0141009D01*
X0250504Y0141009D01*
X0275520Y0115994D01*
X0246569Y0115994D01*
X0218328Y0144235D01*
X0223931Y0144235D01*
X0225621Y0144935D01*
X0226915Y0146229D01*
X0225946Y0145260D02*
X0239654Y0145260D01*
X0241253Y0143661D02*
X0218901Y0143661D01*
X0220500Y0142063D02*
X0242851Y0142063D01*
X0251050Y0140464D02*
X0222098Y0140464D01*
X0223697Y0138866D02*
X0252648Y0138866D01*
X0254247Y0137267D02*
X0225295Y0137267D01*
X0226894Y0135669D02*
X0255845Y0135669D01*
X0257444Y0134070D02*
X0228492Y0134070D01*
X0230091Y0132472D02*
X0244147Y0132472D01*
X0244410Y0132734D02*
X0243116Y0131440D01*
X0242416Y0129750D01*
X0242416Y0127920D01*
X0243116Y0126229D01*
X0244410Y0124935D01*
X0246101Y0124235D01*
X0253931Y0124235D01*
X0255621Y0124935D01*
X0256915Y0126229D01*
X0257616Y0127920D01*
X0257616Y0129750D01*
X0256915Y0131440D01*
X0255621Y0132734D01*
X0253931Y0133435D01*
X0246101Y0133435D01*
X0244410Y0132734D01*
X0242881Y0130873D02*
X0231689Y0130873D01*
X0233288Y0129275D02*
X0242416Y0129275D01*
X0242517Y0127676D02*
X0234887Y0127676D01*
X0236485Y0126078D02*
X0243267Y0126078D01*
X0245511Y0124479D02*
X0238084Y0124479D01*
X0239682Y0122881D02*
X0268633Y0122881D01*
X0267035Y0124479D02*
X0254521Y0124479D01*
X0256764Y0126078D02*
X0265436Y0126078D01*
X0263838Y0127676D02*
X0257515Y0127676D01*
X0257616Y0129275D02*
X0262239Y0129275D01*
X0260641Y0130873D02*
X0257150Y0130873D01*
X0255884Y0132472D02*
X0259042Y0132472D01*
X0264157Y0138866D02*
X0266448Y0138866D01*
X0265756Y0137267D02*
X0324805Y0137267D01*
X0325494Y0134070D02*
X0268953Y0134070D01*
X0267355Y0135669D02*
X0338405Y0135669D01*
X0338405Y0137267D02*
X0336723Y0137267D01*
X0337719Y0138866D02*
X0338405Y0138866D01*
X0338405Y0140464D02*
X0337964Y0140464D01*
X0337609Y0142063D02*
X0338405Y0142063D01*
X0338405Y0143661D02*
X0336456Y0143661D01*
X0338405Y0145260D02*
X0267363Y0145260D01*
X0265765Y0146858D02*
X0324931Y0146858D01*
X0324967Y0146822D02*
X0325553Y0146396D01*
X0326198Y0146068D01*
X0326887Y0145844D01*
X0327602Y0145731D01*
X0330664Y0145731D01*
X0330664Y0150231D01*
X0330864Y0150231D01*
X0330864Y0150431D01*
X0330664Y0150431D01*
X0330664Y0154931D01*
X0327602Y0154931D01*
X0326887Y0154817D01*
X0326198Y0154594D01*
X0325553Y0154265D01*
X0324967Y0153839D01*
X0324455Y0153327D01*
X0324030Y0152742D01*
X0323701Y0152096D01*
X0323477Y0151408D01*
X0323364Y0150693D01*
X0323364Y0150431D01*
X0330664Y0150431D01*
X0330664Y0150231D01*
X0323364Y0150231D01*
X0323364Y0149969D01*
X0323477Y0149254D01*
X0323701Y0148565D01*
X0324030Y0147920D01*
X0324455Y0147334D01*
X0324967Y0146822D01*
X0323756Y0148457D02*
X0264166Y0148457D01*
X0262975Y0150055D02*
X0323364Y0150055D01*
X0323557Y0151654D02*
X0262406Y0151654D01*
X0260054Y0145260D02*
X0257763Y0145260D01*
X0259362Y0143661D02*
X0261653Y0143661D01*
X0260960Y0142063D02*
X0263251Y0142063D01*
X0262559Y0140464D02*
X0264850Y0140464D01*
X0268962Y0143661D02*
X0325072Y0143661D01*
X0330864Y0145731D02*
X0330864Y0150231D01*
X0338164Y0150231D01*
X0338164Y0149969D01*
X0338051Y0149254D01*
X0337827Y0148565D01*
X0337498Y0147920D01*
X0337072Y0147334D01*
X0336560Y0146822D01*
X0335975Y0146396D01*
X0335330Y0146068D01*
X0334641Y0145844D01*
X0333926Y0145731D01*
X0330864Y0145731D01*
X0330864Y0146858D02*
X0330664Y0146858D01*
X0330664Y0148457D02*
X0330864Y0148457D01*
X0330864Y0150055D02*
X0330664Y0150055D01*
X0330764Y0150331D02*
X0330775Y0150794D01*
X0337975Y0157994D01*
X0337975Y0197594D01*
X0291175Y0244394D01*
X0284575Y0244394D01*
X0284386Y0244425D01*
X0284586Y0244367D02*
X0317408Y0244367D01*
X0316882Y0244894D02*
X0318949Y0242827D01*
X0321480Y0241366D01*
X0324303Y0240609D01*
X0327225Y0240609D01*
X0330048Y0241366D01*
X0332579Y0242827D01*
X0334645Y0244894D01*
X0336107Y0247425D01*
X0336863Y0250247D01*
X0336863Y0253170D01*
X0336107Y0255993D01*
X0334645Y0258524D01*
X0332579Y0260590D01*
X0330048Y0262051D01*
X0327225Y0262808D01*
X0324303Y0262808D01*
X0321480Y0262051D01*
X0318949Y0260590D01*
X0316882Y0258524D01*
X0315421Y0255993D01*
X0314665Y0253170D01*
X0314665Y0250247D01*
X0315421Y0247425D01*
X0316882Y0244894D01*
X0316263Y0245966D02*
X0289886Y0245966D01*
X0289886Y0244225D02*
X0284586Y0244225D01*
X0284586Y0238925D01*
X0286664Y0238925D01*
X0289886Y0242147D01*
X0289886Y0244225D01*
X0289886Y0242769D02*
X0319049Y0242769D01*
X0322209Y0241170D02*
X0288909Y0241170D01*
X0287311Y0239572D02*
X0338405Y0239572D01*
X0338405Y0241170D02*
X0329318Y0241170D01*
X0332478Y0242769D02*
X0338405Y0242769D01*
X0338405Y0244367D02*
X0334119Y0244367D01*
X0335264Y0245966D02*
X0338405Y0245966D01*
X0338405Y0247564D02*
X0336144Y0247564D01*
X0336572Y0249163D02*
X0338405Y0249163D01*
X0338405Y0250761D02*
X0336863Y0250761D01*
X0336863Y0252360D02*
X0338405Y0252360D01*
X0338405Y0253958D02*
X0336652Y0253958D01*
X0336223Y0255557D02*
X0338405Y0255557D01*
X0338405Y0257156D02*
X0335435Y0257156D01*
X0334415Y0258754D02*
X0338405Y0258754D01*
X0338405Y0260353D02*
X0332817Y0260353D01*
X0330222Y0261951D02*
X0338405Y0261951D01*
X0338405Y0263550D02*
X0072874Y0263550D01*
X0071275Y0265148D02*
X0338405Y0265148D01*
X0338405Y0266747D02*
X0005800Y0266747D01*
X0005800Y0268345D02*
X0338405Y0268345D01*
X0321306Y0261951D02*
X0268272Y0261951D01*
X0269871Y0260353D02*
X0318711Y0260353D01*
X0317112Y0258754D02*
X0287835Y0258754D01*
X0289434Y0257156D02*
X0316092Y0257156D01*
X0315304Y0255557D02*
X0289886Y0255557D01*
X0289886Y0253958D02*
X0314876Y0253958D01*
X0314665Y0252360D02*
X0289886Y0252360D01*
X0288500Y0250761D02*
X0314665Y0250761D01*
X0314955Y0249163D02*
X0287426Y0249163D01*
X0289025Y0247564D02*
X0315383Y0247564D01*
X0338405Y0237973D02*
X0264650Y0237973D01*
X0266248Y0236375D02*
X0338405Y0236375D01*
X0338405Y0234776D02*
X0267847Y0234776D01*
X0269445Y0233178D02*
X0338405Y0233178D01*
X0338405Y0231579D02*
X0271044Y0231579D01*
X0272642Y0229981D02*
X0338405Y0229981D01*
X0338405Y0228382D02*
X0274241Y0228382D01*
X0275839Y0226784D02*
X0338405Y0226784D01*
X0338405Y0225185D02*
X0277438Y0225185D01*
X0279036Y0223587D02*
X0338405Y0223587D01*
X0338405Y0221988D02*
X0280635Y0221988D01*
X0282233Y0220390D02*
X0338405Y0220390D01*
X0338405Y0218791D02*
X0283832Y0218791D01*
X0285430Y0217193D02*
X0338405Y0217193D01*
X0338405Y0215594D02*
X0287029Y0215594D01*
X0288627Y0213996D02*
X0338405Y0213996D01*
X0338405Y0212397D02*
X0290226Y0212397D01*
X0291824Y0210799D02*
X0338405Y0210799D01*
X0338405Y0209200D02*
X0293423Y0209200D01*
X0295022Y0207602D02*
X0338405Y0207602D01*
X0338405Y0206003D02*
X0296620Y0206003D01*
X0298219Y0204405D02*
X0338405Y0204405D01*
X0338405Y0202806D02*
X0299817Y0202806D01*
X0301416Y0201208D02*
X0338405Y0201208D01*
X0338405Y0199609D02*
X0334733Y0199609D01*
X0334439Y0199731D02*
X0327089Y0199731D01*
X0325471Y0199061D01*
X0324234Y0197823D01*
X0323564Y0196206D01*
X0323564Y0194455D01*
X0324234Y0192838D01*
X0325471Y0191601D01*
X0327089Y0190931D01*
X0334439Y0190931D01*
X0336056Y0191601D01*
X0337294Y0192838D01*
X0337964Y0194455D01*
X0337964Y0196206D01*
X0337294Y0197823D01*
X0336056Y0199061D01*
X0334439Y0199731D01*
X0337106Y0198011D02*
X0338405Y0198011D01*
X0338405Y0196412D02*
X0337878Y0196412D01*
X0337964Y0194814D02*
X0338405Y0194814D01*
X0338405Y0193215D02*
X0337450Y0193215D01*
X0338405Y0191617D02*
X0336072Y0191617D01*
X0334439Y0189731D02*
X0327089Y0189731D01*
X0325471Y0189061D01*
X0324234Y0187823D01*
X0323564Y0186206D01*
X0323564Y0184455D01*
X0324234Y0182838D01*
X0325471Y0181601D01*
X0327089Y0180931D01*
X0334439Y0180931D01*
X0336056Y0181601D01*
X0337294Y0182838D01*
X0337964Y0184455D01*
X0337964Y0186206D01*
X0337294Y0187823D01*
X0336056Y0189061D01*
X0334439Y0189731D01*
X0336697Y0188420D02*
X0338405Y0188420D01*
X0338405Y0190018D02*
X0312605Y0190018D01*
X0311007Y0191617D02*
X0325455Y0191617D01*
X0324078Y0193215D02*
X0309408Y0193215D01*
X0307810Y0194814D02*
X0323564Y0194814D01*
X0323649Y0196412D02*
X0306211Y0196412D01*
X0304613Y0198011D02*
X0324421Y0198011D01*
X0326795Y0199609D02*
X0303014Y0199609D01*
X0298902Y0196412D02*
X0296611Y0196412D01*
X0297303Y0198011D02*
X0295013Y0198011D01*
X0295705Y0199609D02*
X0293414Y0199609D01*
X0294106Y0201208D02*
X0291816Y0201208D01*
X0292508Y0202806D02*
X0290217Y0202806D01*
X0290909Y0204405D02*
X0288619Y0204405D01*
X0289311Y0206003D02*
X0287020Y0206003D01*
X0287712Y0207602D02*
X0285422Y0207602D01*
X0286114Y0209200D02*
X0283823Y0209200D01*
X0284515Y0210799D02*
X0282224Y0210799D01*
X0282917Y0212397D02*
X0280626Y0212397D01*
X0281318Y0213996D02*
X0279027Y0213996D01*
X0279720Y0215594D02*
X0277429Y0215594D01*
X0278121Y0217193D02*
X0275830Y0217193D01*
X0276523Y0218791D02*
X0274232Y0218791D01*
X0274924Y0220390D02*
X0272633Y0220390D01*
X0273326Y0221988D02*
X0271035Y0221988D01*
X0271727Y0223587D02*
X0269436Y0223587D01*
X0270129Y0225185D02*
X0267838Y0225185D01*
X0268530Y0226784D02*
X0266239Y0226784D01*
X0266932Y0228382D02*
X0264641Y0228382D01*
X0265333Y0229981D02*
X0263042Y0229981D01*
X0263734Y0231579D02*
X0261444Y0231579D01*
X0262136Y0233178D02*
X0259845Y0233178D01*
X0260537Y0234776D02*
X0258247Y0234776D01*
X0258939Y0236375D02*
X0256648Y0236375D01*
X0257340Y0237973D02*
X0255050Y0237973D01*
X0267028Y0239572D02*
X0271744Y0239572D01*
X0270145Y0241170D02*
X0268626Y0241170D01*
X0277028Y0239572D02*
X0281461Y0239572D01*
X0279862Y0241170D02*
X0278626Y0241170D01*
X0284186Y0241170D02*
X0284586Y0241170D01*
X0284586Y0239572D02*
X0284186Y0239572D01*
X0284186Y0242769D02*
X0284586Y0242769D01*
X0284586Y0245966D02*
X0284186Y0245966D01*
X0284186Y0247564D02*
X0284586Y0247564D01*
X0284586Y0249163D02*
X0284186Y0249163D01*
X0284186Y0250761D02*
X0284586Y0250761D01*
X0284586Y0252360D02*
X0284186Y0252360D01*
X0284186Y0253958D02*
X0284586Y0253958D01*
X0284386Y0254425D02*
X0283975Y0254594D01*
X0275575Y0262994D01*
X0178975Y0262994D01*
X0171775Y0255794D01*
X0157975Y0255794D01*
X0157732Y0255331D01*
X0157375Y0255794D01*
X0150175Y0262994D01*
X0097375Y0262994D01*
X0088975Y0254594D01*
X0088717Y0254031D01*
X0088975Y0253394D01*
X0088975Y0244394D01*
X0088717Y0244031D01*
X0088917Y0243831D02*
X0094217Y0243831D01*
X0094217Y0241753D01*
X0090995Y0238531D01*
X0088917Y0238531D01*
X0088917Y0243831D01*
X0088917Y0244232D02*
X0088517Y0244232D01*
X0088517Y0253831D01*
X0088917Y0253831D01*
X0088917Y0248531D01*
X0088917Y0244232D01*
X0088917Y0244367D02*
X0088517Y0244367D01*
X0088517Y0242769D02*
X0088917Y0242769D01*
X0088917Y0241170D02*
X0088517Y0241170D01*
X0088517Y0239572D02*
X0088917Y0239572D01*
X0092035Y0239572D02*
X0145375Y0239572D01*
X0145375Y0241170D02*
X0093634Y0241170D01*
X0094217Y0242769D02*
X0145375Y0242769D01*
X0145375Y0244367D02*
X0094217Y0244367D01*
X0094217Y0245966D02*
X0145375Y0245966D01*
X0145375Y0247564D02*
X0092962Y0247564D01*
X0091626Y0249163D02*
X0124395Y0249163D01*
X0123833Y0249725D02*
X0125127Y0248431D01*
X0126817Y0247731D01*
X0128647Y0247731D01*
X0130338Y0248431D01*
X0131632Y0249725D01*
X0132332Y0251416D01*
X0132332Y0259246D01*
X0131632Y0260936D01*
X0130338Y0262230D01*
X0128647Y0262931D01*
X0126817Y0262931D01*
X0125127Y0262230D01*
X0123833Y0260936D01*
X0123132Y0259246D01*
X0123132Y0251416D01*
X0123833Y0249725D01*
X0123403Y0250761D02*
X0093225Y0250761D01*
X0094217Y0252360D02*
X0123132Y0252360D01*
X0123132Y0253958D02*
X0088917Y0253958D01*
X0088917Y0252360D02*
X0088517Y0252360D01*
X0088517Y0250761D02*
X0088917Y0250761D01*
X0088917Y0249163D02*
X0088517Y0249163D01*
X0088517Y0247564D02*
X0088917Y0247564D01*
X0088917Y0245966D02*
X0088517Y0245966D01*
X0083799Y0241170D02*
X0083351Y0241170D01*
X0081752Y0239572D02*
X0085398Y0239572D01*
X0075681Y0239572D02*
X0071752Y0239572D01*
X0073351Y0241170D02*
X0074082Y0241170D01*
X0066409Y0237973D02*
X0145375Y0237973D01*
X0145375Y0236375D02*
X0064811Y0236375D01*
X0063212Y0234776D02*
X0145375Y0234776D01*
X0145375Y0233178D02*
X0061614Y0233178D01*
X0060015Y0231579D02*
X0146395Y0231579D01*
X0147994Y0229981D02*
X0058417Y0229981D01*
X0056818Y0228382D02*
X0149592Y0228382D01*
X0151191Y0226784D02*
X0055220Y0226784D01*
X0053621Y0225185D02*
X0105466Y0225185D01*
X0106268Y0225987D02*
X0103808Y0223527D01*
X0103808Y0220048D01*
X0106268Y0217587D01*
X0109748Y0217587D01*
X0112208Y0220048D01*
X0112208Y0223527D01*
X0109748Y0225987D01*
X0106268Y0225987D01*
X0103868Y0223587D02*
X0052023Y0223587D01*
X0050424Y0221988D02*
X0103808Y0221988D01*
X0103808Y0220390D02*
X0048826Y0220390D01*
X0047227Y0218791D02*
X0105064Y0218791D01*
X0110951Y0218791D02*
X0135064Y0218791D01*
X0136268Y0217587D02*
X0139748Y0217587D01*
X0142208Y0220048D01*
X0142208Y0223527D01*
X0139748Y0225987D01*
X0136268Y0225987D01*
X0133808Y0223527D01*
X0133808Y0220048D01*
X0136268Y0217587D01*
X0133808Y0220390D02*
X0112208Y0220390D01*
X0112208Y0221988D02*
X0133808Y0221988D01*
X0133868Y0223587D02*
X0112148Y0223587D01*
X0110550Y0225185D02*
X0135466Y0225185D01*
X0140550Y0225185D02*
X0152789Y0225185D01*
X0154388Y0223587D02*
X0142148Y0223587D01*
X0142208Y0221988D02*
X0155986Y0221988D01*
X0157585Y0220390D02*
X0142208Y0220390D01*
X0140951Y0218791D02*
X0159183Y0218791D01*
X0158083Y0217193D02*
X0045629Y0217193D01*
X0044030Y0215594D02*
X0157375Y0215594D01*
X0156322Y0213996D02*
X0042431Y0213996D01*
X0040833Y0212397D02*
X0154724Y0212397D01*
X0153125Y0210799D02*
X0039234Y0210799D01*
X0038759Y0209200D02*
X0151527Y0209200D01*
X0149928Y0207602D02*
X0038759Y0207602D01*
X0038759Y0206003D02*
X0148330Y0206003D01*
X0146731Y0204405D02*
X0141848Y0204405D01*
X0143155Y0202806D02*
X0145133Y0202806D01*
X0149245Y0199609D02*
X0152754Y0199609D01*
X0152754Y0199553D02*
X0153500Y0197752D01*
X0154878Y0196374D01*
X0156679Y0195628D01*
X0158628Y0195628D01*
X0160429Y0196374D01*
X0161808Y0197752D01*
X0162554Y0199553D01*
X0162554Y0201502D01*
X0161808Y0203303D01*
X0160429Y0204682D01*
X0158628Y0205428D01*
X0156679Y0205428D01*
X0154878Y0204682D01*
X0153500Y0203303D01*
X0152754Y0201502D01*
X0152754Y0199553D01*
X0152754Y0201208D02*
X0150843Y0201208D01*
X0152442Y0202806D02*
X0153294Y0202806D01*
X0154040Y0204405D02*
X0154601Y0204405D01*
X0155639Y0206003D02*
X0171971Y0206003D01*
X0170373Y0207602D02*
X0157237Y0207602D01*
X0158836Y0209200D02*
X0168774Y0209200D01*
X0167176Y0210799D02*
X0160434Y0210799D01*
X0161029Y0211394D02*
X0161691Y0211394D01*
X0163014Y0211942D01*
X0164027Y0212954D01*
X0164318Y0213657D01*
X0194540Y0183435D01*
X0188975Y0183435D01*
X0187284Y0182734D01*
X0185990Y0181440D01*
X0185290Y0179750D01*
X0185290Y0177920D01*
X0185990Y0176229D01*
X0187284Y0174935D01*
X0188975Y0174235D01*
X0193592Y0174235D01*
X0193375Y0173710D01*
X0193375Y0173048D01*
X0171904Y0151578D01*
X0169652Y0151578D01*
X0168495Y0152734D01*
X0166805Y0153435D01*
X0158975Y0153435D01*
X0157284Y0152734D01*
X0155990Y0151440D01*
X0155290Y0149750D01*
X0155290Y0147920D01*
X0155990Y0146229D01*
X0156041Y0146178D01*
X0144423Y0146178D01*
X0144474Y0146229D01*
X0145175Y0147920D01*
X0145175Y0149750D01*
X0144474Y0151440D01*
X0143180Y0152734D01*
X0141490Y0153435D01*
X0133660Y0153435D01*
X0131969Y0152734D01*
X0130675Y0151440D01*
X0129975Y0149750D01*
X0129975Y0147920D01*
X0130675Y0146229D01*
X0130726Y0146178D01*
X0114423Y0146178D01*
X0114474Y0146229D01*
X0115175Y0147920D01*
X0115175Y0149750D01*
X0114474Y0151440D01*
X0113180Y0152734D01*
X0111490Y0153435D01*
X0110159Y0153435D01*
X0110159Y0160523D01*
X0130392Y0180756D01*
X0129975Y0179750D01*
X0129975Y0177920D01*
X0130675Y0176229D01*
X0131969Y0174935D01*
X0133660Y0174235D01*
X0141490Y0174235D01*
X0143180Y0174935D01*
X0144474Y0176229D01*
X0145175Y0177920D01*
X0145175Y0179750D01*
X0144474Y0181440D01*
X0143180Y0182734D01*
X0141490Y0183435D01*
X0133660Y0183435D01*
X0132654Y0183018D01*
X0161029Y0211394D01*
X0163469Y0212397D02*
X0165577Y0212397D01*
X0169168Y0215594D02*
X0187975Y0215594D01*
X0187975Y0213996D02*
X0170767Y0213996D01*
X0172365Y0212397D02*
X0187975Y0212397D01*
X0187975Y0210799D02*
X0173964Y0210799D01*
X0175562Y0209200D02*
X0187975Y0209200D01*
X0187975Y0207602D02*
X0177161Y0207602D01*
X0178759Y0206003D02*
X0188771Y0206003D01*
X0188340Y0206434D02*
X0192905Y0201869D01*
X0192754Y0201502D01*
X0192754Y0199553D01*
X0193500Y0197752D01*
X0194878Y0196374D01*
X0196679Y0195628D01*
X0198628Y0195628D01*
X0200429Y0196374D01*
X0201808Y0197752D01*
X0202554Y0199553D01*
X0202554Y0201502D01*
X0201808Y0203303D01*
X0200429Y0204682D01*
X0198628Y0205428D01*
X0196679Y0205428D01*
X0196294Y0205268D01*
X0192775Y0208788D01*
X0192775Y0254473D01*
X0194019Y0255717D01*
X0194019Y0259196D01*
X0191559Y0261657D01*
X0188079Y0261657D01*
X0185619Y0259196D01*
X0185619Y0255717D01*
X0187975Y0253361D01*
X0187975Y0207316D01*
X0188340Y0206434D01*
X0190375Y0207794D02*
X0197575Y0200594D01*
X0197654Y0200528D01*
X0202013Y0202806D02*
X0206991Y0202806D01*
X0206991Y0201208D02*
X0202554Y0201208D01*
X0202554Y0199609D02*
X0206991Y0199609D01*
X0206991Y0198011D02*
X0201915Y0198011D01*
X0200468Y0196412D02*
X0206991Y0196412D01*
X0206991Y0194814D02*
X0189949Y0194814D01*
X0188351Y0196412D02*
X0194839Y0196412D01*
X0193392Y0198011D02*
X0186752Y0198011D01*
X0185153Y0199609D02*
X0192754Y0199609D01*
X0192754Y0201208D02*
X0183555Y0201208D01*
X0181956Y0202806D02*
X0191968Y0202806D01*
X0190370Y0204405D02*
X0180358Y0204405D01*
X0176767Y0201208D02*
X0162554Y0201208D01*
X0162554Y0199609D02*
X0178365Y0199609D01*
X0179964Y0198011D02*
X0161915Y0198011D01*
X0160468Y0196412D02*
X0181562Y0196412D01*
X0183161Y0194814D02*
X0144449Y0194814D01*
X0146048Y0196412D02*
X0154839Y0196412D01*
X0153392Y0198011D02*
X0147646Y0198011D01*
X0142851Y0193215D02*
X0184759Y0193215D01*
X0186358Y0191617D02*
X0141252Y0191617D01*
X0139654Y0190018D02*
X0187956Y0190018D01*
X0189555Y0188420D02*
X0138055Y0188420D01*
X0136457Y0186821D02*
X0191153Y0186821D01*
X0192752Y0185223D02*
X0134858Y0185223D01*
X0133260Y0183624D02*
X0194350Y0183624D01*
X0197942Y0186821D02*
X0206991Y0186821D01*
X0206991Y0185223D02*
X0199540Y0185223D01*
X0201139Y0183624D02*
X0206991Y0183624D01*
X0206991Y0182025D02*
X0202737Y0182025D01*
X0204336Y0180427D02*
X0206991Y0180427D01*
X0206991Y0178828D02*
X0205934Y0178828D01*
X0200744Y0177230D02*
X0200204Y0177230D01*
X0200362Y0177612D02*
X0209575Y0168400D01*
X0209575Y0146716D01*
X0209940Y0145834D01*
X0222340Y0133435D01*
X0216101Y0133435D01*
X0214410Y0132734D01*
X0213454Y0131778D01*
X0203445Y0131778D01*
X0190989Y0144235D01*
X0196805Y0144235D01*
X0198495Y0144935D01*
X0199789Y0146229D01*
X0200490Y0147920D01*
X0200490Y0149750D01*
X0199789Y0151440D01*
X0198495Y0152734D01*
X0196805Y0153435D01*
X0188975Y0153435D01*
X0187284Y0152734D01*
X0185990Y0151440D01*
X0185290Y0149750D01*
X0185290Y0147920D01*
X0185990Y0146229D01*
X0186041Y0146178D01*
X0169738Y0146178D01*
X0169789Y0146229D01*
X0169864Y0146409D01*
X0173489Y0146409D01*
X0174439Y0146803D01*
X0197029Y0169394D01*
X0197691Y0169394D01*
X0199014Y0169942D01*
X0200027Y0170954D01*
X0200575Y0172278D01*
X0200575Y0173710D01*
X0200027Y0175033D01*
X0199310Y0175750D01*
X0199789Y0176229D01*
X0200362Y0177612D01*
X0199428Y0175631D02*
X0202343Y0175631D01*
X0203941Y0174033D02*
X0200441Y0174033D01*
X0200575Y0172434D02*
X0205540Y0172434D01*
X0207138Y0170836D02*
X0199908Y0170836D01*
X0196873Y0169237D02*
X0208737Y0169237D01*
X0209575Y0167639D02*
X0195275Y0167639D01*
X0193676Y0166040D02*
X0209575Y0166040D01*
X0209575Y0164442D02*
X0192078Y0164442D01*
X0190479Y0162843D02*
X0209575Y0162843D01*
X0209575Y0161245D02*
X0188881Y0161245D01*
X0187282Y0159646D02*
X0209575Y0159646D01*
X0209575Y0158048D02*
X0185684Y0158048D01*
X0184085Y0156449D02*
X0209575Y0156449D01*
X0209575Y0154851D02*
X0182487Y0154851D01*
X0180888Y0153252D02*
X0188535Y0153252D01*
X0186204Y0151654D02*
X0179290Y0151654D01*
X0177691Y0150055D02*
X0185416Y0150055D01*
X0185290Y0148457D02*
X0176093Y0148457D01*
X0174494Y0146858D02*
X0185729Y0146858D01*
X0187450Y0140464D02*
X0020838Y0140464D01*
X0020593Y0138866D02*
X0189048Y0138866D01*
X0190647Y0137267D02*
X0019597Y0137267D01*
X0018908Y0134070D02*
X0193844Y0134070D01*
X0192245Y0135669D02*
X0005800Y0135669D01*
X0005800Y0137267D02*
X0007679Y0137267D01*
X0006682Y0138866D02*
X0005800Y0138866D01*
X0005800Y0140464D02*
X0006438Y0140464D01*
X0006793Y0142063D02*
X0005800Y0142063D01*
X0005800Y0143661D02*
X0006653Y0143661D01*
X0012363Y0145260D02*
X0024854Y0145260D01*
X0023256Y0146858D02*
X0019471Y0146858D01*
X0020646Y0148457D02*
X0021657Y0148457D01*
X0019330Y0143661D02*
X0026453Y0143661D01*
X0028051Y0142063D02*
X0020483Y0142063D01*
X0017313Y0134731D02*
X0009963Y0134731D01*
X0008345Y0134061D01*
X0007108Y0132823D01*
X0006438Y0131206D01*
X0006438Y0129455D01*
X0007108Y0127838D01*
X0008345Y0126601D01*
X0009963Y0125931D01*
X0017313Y0125931D01*
X0018930Y0126601D01*
X0020168Y0127838D01*
X0020838Y0129455D01*
X0020838Y0131206D01*
X0020168Y0132823D01*
X0018930Y0134061D01*
X0017313Y0134731D01*
X0020314Y0132472D02*
X0101706Y0132472D01*
X0101969Y0132734D02*
X0100675Y0131440D01*
X0099975Y0129750D01*
X0099975Y0127920D01*
X0100675Y0126229D01*
X0101969Y0124935D01*
X0103660Y0124235D01*
X0111490Y0124235D01*
X0113180Y0124935D01*
X0114474Y0126229D01*
X0115175Y0127920D01*
X0115175Y0129750D01*
X0114474Y0131440D01*
X0113180Y0132734D01*
X0111490Y0133435D01*
X0103660Y0133435D01*
X0101969Y0132734D01*
X0100440Y0130873D02*
X0020838Y0130873D01*
X0020763Y0129275D02*
X0099975Y0129275D01*
X0100076Y0127676D02*
X0076799Y0127676D01*
X0074852Y0128198D02*
X0070297Y0128198D01*
X0065897Y0127019D01*
X0061952Y0124741D01*
X0058731Y0121520D01*
X0056454Y0117575D01*
X0055275Y0113175D01*
X0055275Y0108620D01*
X0056454Y0104220D01*
X0058731Y0100275D01*
X0061952Y0097054D01*
X0065897Y0094777D01*
X0070297Y0093598D01*
X0074852Y0093598D01*
X0079252Y0094777D01*
X0083197Y0097054D01*
X0086418Y0100275D01*
X0088696Y0104220D01*
X0089875Y0108620D01*
X0089875Y0113175D01*
X0088696Y0117575D01*
X0086418Y0121520D01*
X0083197Y0124741D01*
X0079252Y0127019D01*
X0074852Y0128198D01*
X0080882Y0126078D02*
X0100826Y0126078D01*
X0103070Y0124479D02*
X0083459Y0124479D01*
X0085058Y0122881D02*
X0232894Y0122881D01*
X0231295Y0124479D02*
X0224521Y0124479D01*
X0226764Y0126078D02*
X0229697Y0126078D01*
X0228098Y0127676D02*
X0227515Y0127676D01*
X0221704Y0134070D02*
X0201153Y0134070D01*
X0202752Y0132472D02*
X0214147Y0132472D01*
X0218507Y0137267D02*
X0197956Y0137267D01*
X0199555Y0135669D02*
X0220106Y0135669D01*
X0216909Y0138866D02*
X0196357Y0138866D01*
X0194759Y0140464D02*
X0215310Y0140464D01*
X0213712Y0142063D02*
X0193160Y0142063D01*
X0191562Y0143661D02*
X0212113Y0143661D01*
X0210515Y0145260D02*
X0198820Y0145260D01*
X0200050Y0146858D02*
X0209575Y0146858D01*
X0209575Y0148457D02*
X0200490Y0148457D01*
X0200363Y0150055D02*
X0209575Y0150055D01*
X0209575Y0151654D02*
X0199576Y0151654D01*
X0197245Y0153252D02*
X0209575Y0153252D01*
X0211975Y0147194D02*
X0245575Y0113594D01*
X0277375Y0113594D01*
X0315175Y0075794D01*
X0315764Y0075331D01*
X0311564Y0074925D02*
X0289964Y0074925D01*
X0289964Y0074495D02*
X0289964Y0076166D01*
X0289324Y0077710D01*
X0288143Y0078891D01*
X0286599Y0079531D01*
X0279728Y0079531D01*
X0278185Y0078891D01*
X0277003Y0077710D01*
X0276364Y0076166D01*
X0276364Y0074495D01*
X0277003Y0072952D01*
X0278185Y0071770D01*
X0279728Y0071131D01*
X0286599Y0071131D01*
X0288143Y0071770D01*
X0289324Y0072952D01*
X0289964Y0074495D01*
X0289480Y0073327D02*
X0312048Y0073327D01*
X0313486Y0071728D02*
X0288042Y0071728D01*
X0287575Y0069794D02*
X0260575Y0069794D01*
X0260575Y0061994D01*
X0260449Y0061984D01*
X0260449Y0061984D01*
X0264849Y0061984D01*
X0264849Y0059038D01*
X0264740Y0058354D01*
X0264526Y0057695D01*
X0264212Y0057078D01*
X0263805Y0056518D01*
X0263315Y0056028D01*
X0262755Y0055621D01*
X0262138Y0055307D01*
X0261479Y0055093D01*
X0260795Y0054984D01*
X0260449Y0054984D01*
X0260449Y0061984D01*
X0260449Y0061984D01*
X0260449Y0054984D01*
X0260103Y0054984D01*
X0259418Y0055093D01*
X0258760Y0055307D01*
X0258143Y0055621D01*
X0257582Y0056028D01*
X0257093Y0056518D01*
X0256686Y0057078D01*
X0256371Y0057695D01*
X0256157Y0058354D01*
X0256049Y0059038D01*
X0256049Y0061984D01*
X0260449Y0061984D01*
X0264849Y0061984D01*
X0264849Y0064931D01*
X0264740Y0065615D01*
X0264526Y0066273D01*
X0264212Y0066890D01*
X0263805Y0067451D01*
X0263315Y0067940D01*
X0262755Y0068347D01*
X0262138Y0068662D01*
X0261479Y0068876D01*
X0260795Y0068984D01*
X0260449Y0068984D01*
X0260449Y0061984D01*
X0260449Y0061984D01*
X0260449Y0061984D01*
X0256049Y0061984D01*
X0256049Y0064931D01*
X0256157Y0065615D01*
X0256371Y0066273D01*
X0256686Y0066890D01*
X0257093Y0067451D01*
X0257582Y0067940D01*
X0258143Y0068347D01*
X0258760Y0068662D01*
X0259418Y0068876D01*
X0260103Y0068984D01*
X0260449Y0068984D01*
X0260449Y0061984D01*
X0260449Y0062137D02*
X0260449Y0062137D01*
X0260449Y0060539D02*
X0260449Y0060539D01*
X0260449Y0058940D02*
X0260449Y0058940D01*
X0260449Y0057342D02*
X0260449Y0057342D01*
X0260449Y0055743D02*
X0260449Y0055743D01*
X0262923Y0055743D02*
X0266278Y0055743D01*
X0267824Y0056636D02*
X0264526Y0054732D01*
X0264526Y0054732D01*
X0263236Y0053195D01*
X0262973Y0052931D01*
X0262879Y0052770D01*
X0262077Y0051814D01*
X0261651Y0050642D01*
X0261557Y0050480D01*
X0261461Y0050121D01*
X0260775Y0048235D01*
X0260775Y0047298D01*
X0260770Y0047286D01*
X0260770Y0031375D01*
X0260775Y0031364D01*
X0260775Y0030426D01*
X0261461Y0028541D01*
X0261557Y0028181D01*
X0261651Y0028020D01*
X0262077Y0026847D01*
X0262879Y0025892D01*
X0262973Y0025730D01*
X0263236Y0025467D01*
X0264526Y0023930D01*
X0267824Y0022025D01*
X0269800Y0021677D01*
X0270160Y0021581D01*
X0270346Y0021581D01*
X0271575Y0021364D01*
X0272803Y0021581D01*
X0272990Y0021581D01*
X0273350Y0021677D01*
X0275326Y0022025D01*
X0278624Y0023930D01*
X0279914Y0025467D01*
X0280177Y0025730D01*
X0280270Y0025892D01*
X0281072Y0026847D01*
X0281072Y0026847D01*
X0281499Y0028020D01*
X0281592Y0028181D01*
X0281689Y0028541D01*
X0282375Y0030426D01*
X0282375Y0031364D01*
X0282380Y0031375D01*
X0282380Y0047286D01*
X0282375Y0047298D01*
X0282375Y0048235D01*
X0281689Y0050121D01*
X0281592Y0050480D01*
X0281499Y0050642D01*
X0281072Y0051814D01*
X0280270Y0052770D01*
X0280177Y0052931D01*
X0279914Y0053195D01*
X0278624Y0054732D01*
X0275326Y0056636D01*
X0273350Y0056984D01*
X0272990Y0057081D01*
X0272803Y0057081D01*
X0271575Y0057297D01*
X0271575Y0057297D01*
X0270346Y0057081D01*
X0270160Y0057081D01*
X0269800Y0056984D01*
X0267824Y0056636D01*
X0267824Y0056636D01*
X0264346Y0057342D02*
X0338405Y0057342D01*
X0338405Y0058940D02*
X0264833Y0058940D01*
X0264849Y0060539D02*
X0338405Y0060539D01*
X0338405Y0062137D02*
X0323993Y0062137D01*
X0323830Y0061975D02*
X0324320Y0062464D01*
X0324727Y0063025D01*
X0325041Y0063642D01*
X0325255Y0064300D01*
X0325364Y0064984D01*
X0325364Y0065331D01*
X0325364Y0065677D01*
X0325255Y0066361D01*
X0325041Y0067020D01*
X0324727Y0067637D01*
X0324320Y0068197D01*
X0323830Y0068687D01*
X0323270Y0069094D01*
X0322653Y0069408D01*
X0321994Y0069622D01*
X0321310Y0069731D01*
X0315764Y0069731D01*
X0315764Y0065331D01*
X0315764Y0065331D01*
X0325364Y0065331D01*
X0315764Y0065331D01*
X0315764Y0065331D01*
X0315764Y0069731D01*
X0315417Y0069731D01*
X0314733Y0069622D01*
X0314075Y0069408D01*
X0313458Y0069094D01*
X0312897Y0068687D01*
X0312408Y0068197D01*
X0312001Y0067637D01*
X0311686Y0067020D01*
X0311472Y0066361D01*
X0311364Y0065677D01*
X0311364Y0065331D01*
X0315764Y0065331D01*
X0315175Y0065594D01*
X0291775Y0065594D01*
X0287575Y0069794D01*
X0286599Y0069531D02*
X0279728Y0069531D01*
X0278185Y0068891D01*
X0277003Y0067710D01*
X0276364Y0066166D01*
X0276364Y0064495D01*
X0277003Y0062952D01*
X0278185Y0061770D01*
X0279728Y0061131D01*
X0286599Y0061131D01*
X0288143Y0061770D01*
X0289324Y0062952D01*
X0289964Y0064495D01*
X0289964Y0066166D01*
X0289324Y0067710D01*
X0288143Y0068891D01*
X0286599Y0069531D01*
X0288503Y0068531D02*
X0312742Y0068531D01*
X0311658Y0066933D02*
X0289646Y0066933D01*
X0289964Y0065334D02*
X0311364Y0065334D01*
X0311364Y0065331D02*
X0311364Y0064984D01*
X0311472Y0064300D01*
X0311686Y0063642D01*
X0312001Y0063025D01*
X0312408Y0062464D01*
X0312897Y0061975D01*
X0313458Y0061567D01*
X0314075Y0061253D01*
X0314733Y0061039D01*
X0315417Y0060931D01*
X0315764Y0060931D01*
X0321310Y0060931D01*
X0321994Y0061039D01*
X0322653Y0061253D01*
X0323270Y0061567D01*
X0323830Y0061975D01*
X0325072Y0063736D02*
X0338405Y0063736D01*
X0338405Y0065334D02*
X0325364Y0065334D01*
X0325070Y0066933D02*
X0338405Y0066933D01*
X0338405Y0068531D02*
X0323986Y0068531D01*
X0323242Y0071728D02*
X0325789Y0071728D01*
X0330778Y0071728D02*
X0338405Y0071728D01*
X0338405Y0070130D02*
X0252359Y0070130D01*
X0252359Y0071728D02*
X0265513Y0071728D01*
X0266662Y0070580D02*
X0270141Y0070580D01*
X0272602Y0073040D01*
X0272602Y0076519D01*
X0270141Y0078980D01*
X0266662Y0078980D01*
X0264202Y0076519D01*
X0264202Y0073040D01*
X0266662Y0070580D01*
X0264202Y0073327D02*
X0252359Y0073327D01*
X0252359Y0074925D02*
X0264202Y0074925D01*
X0264206Y0076524D02*
X0252359Y0076524D01*
X0252359Y0078122D02*
X0265805Y0078122D01*
X0270999Y0078122D02*
X0277416Y0078122D01*
X0276512Y0076524D02*
X0272597Y0076524D01*
X0272602Y0074925D02*
X0276364Y0074925D01*
X0276848Y0073327D02*
X0272602Y0073327D01*
X0271290Y0071728D02*
X0278286Y0071728D01*
X0277825Y0068531D02*
X0262394Y0068531D01*
X0260449Y0068531D02*
X0260449Y0068531D01*
X0260575Y0069794D02*
X0260575Y0082994D01*
X0268375Y0090794D01*
X0268375Y0104594D01*
X0268402Y0104780D01*
X0268402Y0104780D01*
X0268402Y0109180D01*
X0270224Y0109180D01*
X0272802Y0106602D01*
X0272802Y0104780D01*
X0268402Y0104780D01*
X0268402Y0104779D01*
X0272802Y0104779D01*
X0272802Y0102957D01*
X0270224Y0100380D01*
X0268402Y0100380D01*
X0268402Y0104779D01*
X0268402Y0104779D01*
X0268402Y0100380D01*
X0266579Y0100380D01*
X0264002Y0102957D01*
X0264002Y0104779D01*
X0268401Y0104779D01*
X0268401Y0104780D01*
X0264002Y0104780D01*
X0264002Y0106602D01*
X0266579Y0109180D01*
X0268402Y0109180D01*
X0268402Y0104780D01*
X0268402Y0105297D02*
X0268402Y0105297D01*
X0268402Y0106895D02*
X0268402Y0106895D01*
X0268402Y0108494D02*
X0268402Y0108494D01*
X0270910Y0108494D02*
X0279080Y0108494D01*
X0277482Y0110092D02*
X0257474Y0110092D01*
X0257616Y0108494D02*
X0265893Y0108494D01*
X0264295Y0106895D02*
X0257191Y0106895D01*
X0255983Y0105297D02*
X0264002Y0105297D01*
X0264002Y0103698D02*
X0252359Y0103698D01*
X0252359Y0102100D02*
X0264859Y0102100D01*
X0266457Y0100501D02*
X0252359Y0100501D01*
X0252359Y0098903D02*
X0288671Y0098903D01*
X0287073Y0100501D02*
X0270346Y0100501D01*
X0268402Y0100501D02*
X0268402Y0100501D01*
X0268402Y0102100D02*
X0268402Y0102100D01*
X0268402Y0103698D02*
X0268402Y0103698D01*
X0271944Y0102100D02*
X0285474Y0102100D01*
X0283876Y0103698D02*
X0272802Y0103698D01*
X0272802Y0105297D02*
X0282277Y0105297D01*
X0280679Y0106895D02*
X0272508Y0106895D01*
X0263668Y0097304D02*
X0290270Y0097304D01*
X0291869Y0095706D02*
X0264530Y0095706D01*
X0264649Y0095420D02*
X0264009Y0096963D01*
X0262828Y0098145D01*
X0261284Y0098784D01*
X0259613Y0098784D01*
X0258070Y0098145D01*
X0256888Y0096963D01*
X0256249Y0095420D01*
X0256249Y0088549D01*
X0256888Y0087005D01*
X0258070Y0085824D01*
X0259613Y0085184D01*
X0261284Y0085184D01*
X0262828Y0085824D01*
X0264009Y0087005D01*
X0264649Y0088549D01*
X0264649Y0095420D01*
X0264649Y0094107D02*
X0293467Y0094107D01*
X0295066Y0092509D02*
X0264649Y0092509D01*
X0264649Y0090910D02*
X0296664Y0090910D01*
X0298263Y0089312D02*
X0287128Y0089312D01*
X0286599Y0089531D02*
X0279728Y0089531D01*
X0278185Y0088891D01*
X0277003Y0087710D01*
X0276364Y0086166D01*
X0276364Y0084495D01*
X0277003Y0082952D01*
X0278185Y0081770D01*
X0279728Y0081131D01*
X0286599Y0081131D01*
X0288143Y0081770D01*
X0289324Y0082952D01*
X0289964Y0084495D01*
X0289964Y0086166D01*
X0289324Y0087710D01*
X0288143Y0088891D01*
X0286599Y0089531D01*
X0289321Y0087713D02*
X0299861Y0087713D01*
X0301460Y0086115D02*
X0289964Y0086115D01*
X0289964Y0084516D02*
X0303058Y0084516D01*
X0304657Y0082918D02*
X0289291Y0082918D01*
X0287054Y0081319D02*
X0306255Y0081319D01*
X0307854Y0079721D02*
X0252359Y0079721D01*
X0252359Y0081319D02*
X0279273Y0081319D01*
X0277037Y0082918D02*
X0252359Y0082918D01*
X0252359Y0084516D02*
X0276364Y0084516D01*
X0276364Y0086115D02*
X0263119Y0086115D01*
X0264303Y0087713D02*
X0277007Y0087713D01*
X0279200Y0089312D02*
X0264649Y0089312D01*
X0257779Y0086115D02*
X0252359Y0086115D01*
X0252359Y0087713D02*
X0256595Y0087713D01*
X0256249Y0089312D02*
X0252359Y0089312D01*
X0252359Y0090910D02*
X0256249Y0090910D01*
X0256249Y0092509D02*
X0252359Y0092509D01*
X0252359Y0094107D02*
X0256249Y0094107D01*
X0256367Y0095706D02*
X0252359Y0095706D01*
X0252359Y0097304D02*
X0257229Y0097304D01*
X0247191Y0097304D02*
X0222359Y0097304D01*
X0222359Y0095706D02*
X0247191Y0095706D01*
X0247191Y0094107D02*
X0222359Y0094107D01*
X0222359Y0092509D02*
X0247191Y0092509D01*
X0247191Y0090910D02*
X0222359Y0090910D01*
X0222359Y0089312D02*
X0247191Y0089312D01*
X0247191Y0087713D02*
X0222359Y0087713D01*
X0222359Y0086115D02*
X0247191Y0086115D01*
X0247191Y0084516D02*
X0222359Y0084516D01*
X0222359Y0082918D02*
X0247191Y0082918D01*
X0247191Y0081319D02*
X0222359Y0081319D01*
X0222359Y0079721D02*
X0247191Y0079721D01*
X0247191Y0078122D02*
X0222359Y0078122D01*
X0222359Y0076524D02*
X0247191Y0076524D01*
X0247191Y0074925D02*
X0222359Y0074925D01*
X0222359Y0073327D02*
X0223893Y0073327D01*
X0224459Y0073893D02*
X0222912Y0072346D01*
X0222359Y0071011D01*
X0222359Y0104235D01*
X0223931Y0104235D01*
X0225621Y0104935D01*
X0226915Y0106229D01*
X0227616Y0107920D01*
X0227616Y0109750D01*
X0226915Y0111440D01*
X0225621Y0112734D01*
X0223931Y0113435D01*
X0216101Y0113435D01*
X0214410Y0112734D01*
X0213116Y0111440D01*
X0212416Y0109750D01*
X0212416Y0107920D01*
X0213116Y0106229D01*
X0214410Y0104935D01*
X0216101Y0104235D01*
X0217191Y0104235D01*
X0217191Y0072575D01*
X0216923Y0072944D01*
X0216288Y0073578D01*
X0215562Y0074106D01*
X0214763Y0074513D01*
X0213910Y0074790D01*
X0213075Y0074923D01*
X0213075Y0065831D01*
X0212075Y0065831D01*
X0212075Y0074923D01*
X0211240Y0074790D01*
X0210387Y0074513D01*
X0209587Y0074106D01*
X0208862Y0073578D01*
X0208227Y0072944D01*
X0207700Y0072218D01*
X0207292Y0071419D01*
X0207015Y0070565D01*
X0206875Y0069679D01*
X0206875Y0065831D01*
X0212075Y0065831D01*
X0212075Y0064831D01*
X0206875Y0064831D01*
X0206875Y0060982D01*
X0207015Y0060096D01*
X0207292Y0059243D01*
X0207700Y0058443D01*
X0208227Y0057717D01*
X0208862Y0057083D01*
X0209587Y0056556D01*
X0210387Y0056148D01*
X0211240Y0055871D01*
X0211721Y0055795D01*
X0209005Y0053079D01*
X0208190Y0053893D01*
X0206169Y0054731D01*
X0203981Y0054731D01*
X0201959Y0053893D01*
X0200412Y0052346D01*
X0199575Y0050325D01*
X0199575Y0040337D01*
X0200412Y0038315D01*
X0201959Y0036768D01*
X0203981Y0035931D01*
X0206169Y0035931D01*
X0208190Y0036768D01*
X0209737Y0038315D01*
X0210575Y0040337D01*
X0210575Y0047339D01*
X0214936Y0051700D01*
X0214792Y0051419D01*
X0214515Y0050565D01*
X0214375Y0049679D01*
X0214375Y0045831D01*
X0219575Y0045831D01*
X0219575Y0054923D01*
X0218740Y0054790D01*
X0217887Y0054513D01*
X0217606Y0054370D01*
X0221966Y0058730D01*
X0222353Y0059665D01*
X0222912Y0058315D01*
X0224459Y0056768D01*
X0226481Y0055931D01*
X0228669Y0055931D01*
X0230690Y0056768D01*
X0232237Y0058315D01*
X0233075Y0060337D01*
X0233075Y0070325D01*
X0232237Y0072346D01*
X0230690Y0073893D01*
X0228669Y0074731D01*
X0226481Y0074731D01*
X0224459Y0073893D01*
X0222656Y0071728D02*
X0222359Y0071728D01*
X0217191Y0073327D02*
X0216540Y0073327D01*
X0217191Y0074925D02*
X0005800Y0074925D01*
X0005800Y0073327D02*
X0088610Y0073327D01*
X0088862Y0073578D02*
X0088227Y0072944D01*
X0087700Y0072218D01*
X0087292Y0071419D01*
X0087015Y0070565D01*
X0086875Y0069679D01*
X0086875Y0065831D01*
X0092075Y0065831D01*
X0092075Y0074923D01*
X0091240Y0074790D01*
X0090387Y0074513D01*
X0089587Y0074106D01*
X0088862Y0073578D01*
X0087450Y0071728D02*
X0005800Y0071728D01*
X0005800Y0070130D02*
X0086946Y0070130D01*
X0086875Y0068531D02*
X0005800Y0068531D01*
X0005800Y0066933D02*
X0086875Y0066933D01*
X0086875Y0064831D02*
X0086875Y0060982D01*
X0087015Y0060096D01*
X0087292Y0059243D01*
X0087700Y0058443D01*
X0088227Y0057717D01*
X0088862Y0057083D01*
X0089587Y0056556D01*
X0090387Y0056148D01*
X0091240Y0055871D01*
X0092075Y0055739D01*
X0092075Y0064831D01*
X0086875Y0064831D01*
X0086875Y0063736D02*
X0005800Y0063736D01*
X0005800Y0065334D02*
X0092075Y0065334D01*
X0092075Y0065831D02*
X0092075Y0064831D01*
X0093075Y0064831D01*
X0093075Y0065831D01*
X0092075Y0065831D01*
X0092575Y0065594D02*
X0092575Y0065331D01*
X0093175Y0064994D01*
X0096175Y0064994D01*
X0105775Y0055394D01*
X0142975Y0055394D01*
X0152575Y0064994D01*
X0152575Y0065331D01*
X0153075Y0065334D02*
X0162075Y0065334D01*
X0162075Y0063736D02*
X0158275Y0063736D01*
X0158275Y0064831D02*
X0153075Y0064831D01*
X0153075Y0065831D01*
X0152075Y0065831D01*
X0152075Y0074923D01*
X0151240Y0074790D01*
X0150387Y0074513D01*
X0149587Y0074106D01*
X0148862Y0073578D01*
X0148227Y0072944D01*
X0147700Y0072218D01*
X0147292Y0071419D01*
X0147015Y0070565D01*
X0146875Y0069679D01*
X0146875Y0065831D01*
X0152075Y0065831D01*
X0152075Y0064831D01*
X0146875Y0064831D01*
X0146875Y0060982D01*
X0147015Y0060096D01*
X0147292Y0059243D01*
X0147700Y0058443D01*
X0148227Y0057717D01*
X0148862Y0057083D01*
X0149587Y0056556D01*
X0150387Y0056148D01*
X0151240Y0055871D01*
X0152075Y0055739D01*
X0152075Y0064831D01*
X0153075Y0064831D01*
X0153075Y0055739D01*
X0153910Y0055871D01*
X0154763Y0056148D01*
X0155562Y0056556D01*
X0156288Y0057083D01*
X0156923Y0057717D01*
X0157450Y0058443D01*
X0157857Y0059243D01*
X0158134Y0060096D01*
X0158275Y0060982D01*
X0158275Y0064831D01*
X0158275Y0065831D02*
X0158275Y0069679D01*
X0158134Y0070565D01*
X0157857Y0071419D01*
X0157450Y0072218D01*
X0156923Y0072944D01*
X0156288Y0073578D01*
X0155562Y0074106D01*
X0154763Y0074513D01*
X0153910Y0074790D01*
X0153075Y0074923D01*
X0153075Y0065831D01*
X0158275Y0065831D01*
X0158275Y0066933D02*
X0162075Y0066933D01*
X0162075Y0068531D02*
X0158275Y0068531D01*
X0158203Y0070130D02*
X0162075Y0070130D01*
X0162075Y0070325D02*
X0162912Y0072346D01*
X0164459Y0073893D01*
X0166481Y0074731D01*
X0168669Y0074731D01*
X0170690Y0073893D01*
X0172237Y0072346D01*
X0173075Y0070325D01*
X0173075Y0060337D01*
X0172237Y0058315D01*
X0170690Y0056768D01*
X0168669Y0055931D01*
X0166481Y0055931D01*
X0164459Y0056768D01*
X0162912Y0058315D01*
X0162075Y0060337D01*
X0162075Y0070325D01*
X0162656Y0071728D02*
X0157700Y0071728D01*
X0156540Y0073327D02*
X0163893Y0073327D01*
X0171257Y0073327D02*
X0178610Y0073327D01*
X0178862Y0073578D02*
X0178227Y0072944D01*
X0177700Y0072218D01*
X0177292Y0071419D01*
X0177015Y0070565D01*
X0176875Y0069679D01*
X0176875Y0065831D01*
X0182075Y0065831D01*
X0182075Y0074923D01*
X0181240Y0074790D01*
X0180387Y0074513D01*
X0179587Y0074106D01*
X0178862Y0073578D01*
X0177450Y0071728D02*
X0172493Y0071728D01*
X0173075Y0070130D02*
X0176946Y0070130D01*
X0176875Y0068531D02*
X0173075Y0068531D01*
X0173075Y0066933D02*
X0176875Y0066933D01*
X0176875Y0064831D02*
X0176875Y0060982D01*
X0177015Y0060096D01*
X0177292Y0059243D01*
X0177700Y0058443D01*
X0178227Y0057717D01*
X0178862Y0057083D01*
X0179587Y0056556D01*
X0180387Y0056148D01*
X0181240Y0055871D01*
X0182075Y0055739D01*
X0182075Y0064831D01*
X0176875Y0064831D01*
X0176875Y0063736D02*
X0173075Y0063736D01*
X0173075Y0065334D02*
X0182075Y0065334D01*
X0182075Y0065831D02*
X0182075Y0064831D01*
X0183075Y0064831D01*
X0183075Y0065831D01*
X0182075Y0065831D01*
X0182575Y0065331D02*
X0182575Y0064994D01*
X0192175Y0055394D01*
X0199375Y0055394D01*
X0208975Y0064994D01*
X0212575Y0064994D01*
X0212575Y0065331D01*
X0212075Y0065334D02*
X0203075Y0065334D01*
X0203075Y0063736D02*
X0206875Y0063736D01*
X0206875Y0062137D02*
X0203075Y0062137D01*
X0203075Y0060539D02*
X0206945Y0060539D01*
X0207447Y0058940D02*
X0202496Y0058940D01*
X0202237Y0058315D02*
X0203075Y0060337D01*
X0203075Y0070325D01*
X0202237Y0072346D01*
X0200690Y0073893D01*
X0198669Y0074731D01*
X0196481Y0074731D01*
X0194459Y0073893D01*
X0192912Y0072346D01*
X0192075Y0070325D01*
X0192075Y0060337D01*
X0192912Y0058315D01*
X0194459Y0056768D01*
X0196481Y0055931D01*
X0198669Y0055931D01*
X0200690Y0056768D01*
X0202237Y0058315D01*
X0201264Y0057342D02*
X0208603Y0057342D01*
X0207584Y0054145D02*
X0210071Y0054145D01*
X0211670Y0055743D02*
X0183102Y0055743D01*
X0183075Y0055743D02*
X0182075Y0055743D01*
X0182048Y0055743D02*
X0153102Y0055743D01*
X0153075Y0055743D02*
X0152075Y0055743D01*
X0152048Y0055743D02*
X0093102Y0055743D01*
X0093075Y0055743D02*
X0092075Y0055743D01*
X0092048Y0055743D02*
X0068872Y0055743D01*
X0067326Y0056636D02*
X0070624Y0054732D01*
X0070624Y0054732D01*
X0070624Y0054732D01*
X0071914Y0053195D01*
X0072177Y0052931D01*
X0072270Y0052770D01*
X0073072Y0051814D01*
X0073072Y0051814D01*
X0073499Y0050642D01*
X0073592Y0050480D01*
X0073689Y0050121D01*
X0074375Y0048235D01*
X0074375Y0047298D01*
X0074380Y0047286D01*
X0074380Y0031375D01*
X0074375Y0031364D01*
X0074375Y0030426D01*
X0073689Y0028541D01*
X0073592Y0028181D01*
X0073499Y0028020D01*
X0073072Y0026847D01*
X0073072Y0026847D01*
X0072270Y0025892D01*
X0072177Y0025730D01*
X0071914Y0025467D01*
X0070624Y0023930D01*
X0070624Y0023930D01*
X0067326Y0022025D01*
X0067326Y0022025D01*
X0065350Y0021677D01*
X0064990Y0021581D01*
X0064803Y0021581D01*
X0063575Y0021364D01*
X0063575Y0021364D01*
X0062346Y0021581D01*
X0062160Y0021581D01*
X0061800Y0021677D01*
X0059824Y0022025D01*
X0059824Y0022025D01*
X0056526Y0023930D01*
X0056526Y0023930D01*
X0056526Y0023930D01*
X0055236Y0025467D01*
X0054973Y0025730D01*
X0054879Y0025892D01*
X0054077Y0026847D01*
X0054077Y0026847D01*
X0053651Y0028020D01*
X0053557Y0028181D01*
X0053461Y0028541D01*
X0052775Y0030426D01*
X0052775Y0031364D01*
X0052770Y0031375D01*
X0052770Y0047286D01*
X0052775Y0047298D01*
X0052775Y0048235D01*
X0053461Y0050121D01*
X0053557Y0050480D01*
X0053651Y0050642D01*
X0054077Y0051814D01*
X0054077Y0051814D01*
X0054879Y0052770D01*
X0054973Y0052931D01*
X0055236Y0053195D01*
X0056526Y0054732D01*
X0056526Y0054732D01*
X0059824Y0056636D01*
X0059824Y0056636D01*
X0061800Y0056984D01*
X0062160Y0057081D01*
X0062346Y0057081D01*
X0063575Y0057297D01*
X0063575Y0057297D01*
X0064803Y0057081D01*
X0064990Y0057081D01*
X0065350Y0056984D01*
X0067326Y0056636D01*
X0067326Y0056636D01*
X0071117Y0054145D02*
X0097566Y0054145D01*
X0096959Y0053893D02*
X0095412Y0052346D01*
X0094575Y0050325D01*
X0094575Y0040337D01*
X0095412Y0038315D01*
X0096959Y0036768D01*
X0098981Y0035931D01*
X0101169Y0035931D01*
X0103190Y0036768D01*
X0104737Y0038315D01*
X0105575Y0040337D01*
X0105575Y0050325D01*
X0104737Y0052346D01*
X0103190Y0053893D01*
X0101169Y0054731D01*
X0098981Y0054731D01*
X0096959Y0053893D01*
X0095612Y0052546D02*
X0072458Y0052546D01*
X0073388Y0050948D02*
X0094833Y0050948D01*
X0094575Y0049349D02*
X0073969Y0049349D01*
X0074375Y0048235D02*
X0074375Y0048235D01*
X0074375Y0047751D02*
X0094575Y0047751D01*
X0094575Y0046152D02*
X0074380Y0046152D01*
X0074380Y0044554D02*
X0094575Y0044554D01*
X0094575Y0042955D02*
X0074380Y0042955D01*
X0074380Y0041356D02*
X0094575Y0041356D01*
X0094815Y0039758D02*
X0074380Y0039758D01*
X0074380Y0038159D02*
X0095568Y0038159D01*
X0097459Y0036561D02*
X0074380Y0036561D01*
X0074380Y0034962D02*
X0260770Y0034962D01*
X0260770Y0033364D02*
X0074380Y0033364D01*
X0074380Y0031765D02*
X0260770Y0031765D01*
X0260869Y0030167D02*
X0074280Y0030167D01*
X0073699Y0028568D02*
X0261451Y0028568D01*
X0262033Y0026970D02*
X0073117Y0026970D01*
X0071834Y0025371D02*
X0263316Y0025371D01*
X0264526Y0023930D02*
X0264526Y0023930D01*
X0264526Y0023930D01*
X0264797Y0023773D02*
X0070352Y0023773D01*
X0067583Y0022174D02*
X0267566Y0022174D01*
X0267824Y0022025D02*
X0267824Y0022025D01*
X0271575Y0021364D02*
X0271575Y0021364D01*
X0275326Y0022025D02*
X0275326Y0022025D01*
X0275583Y0022174D02*
X0316467Y0022174D01*
X0316484Y0022110D02*
X0317945Y0019579D01*
X0320012Y0017512D01*
X0322543Y0016051D01*
X0325366Y0015294D01*
X0328288Y0015294D01*
X0331111Y0016051D01*
X0333642Y0017512D01*
X0335708Y0019579D01*
X0337170Y0022110D01*
X0337926Y0024932D01*
X0337926Y0027855D01*
X0337170Y0030678D01*
X0335708Y0033209D01*
X0333642Y0035275D01*
X0331111Y0036737D01*
X0328288Y0037493D01*
X0325366Y0037493D01*
X0322543Y0036737D01*
X0320012Y0035275D01*
X0317945Y0033209D01*
X0316484Y0030678D01*
X0315728Y0027855D01*
X0315728Y0024932D01*
X0316484Y0022110D01*
X0316038Y0023773D02*
X0278352Y0023773D01*
X0278624Y0023930D02*
X0278624Y0023930D01*
X0279834Y0025371D02*
X0315728Y0025371D01*
X0315728Y0026970D02*
X0281117Y0026970D01*
X0281699Y0028568D02*
X0315919Y0028568D01*
X0316347Y0030167D02*
X0282280Y0030167D01*
X0282380Y0031765D02*
X0317112Y0031765D01*
X0318100Y0033364D02*
X0282380Y0033364D01*
X0282380Y0034962D02*
X0319699Y0034962D01*
X0322239Y0036561D02*
X0282380Y0036561D01*
X0282380Y0038159D02*
X0338405Y0038159D01*
X0338405Y0036561D02*
X0331415Y0036561D01*
X0333955Y0034962D02*
X0338405Y0034962D01*
X0338405Y0033364D02*
X0335553Y0033364D01*
X0336542Y0031765D02*
X0338405Y0031765D01*
X0338405Y0030167D02*
X0337306Y0030167D01*
X0337735Y0028568D02*
X0338405Y0028568D01*
X0338405Y0026970D02*
X0337926Y0026970D01*
X0337926Y0025371D02*
X0338405Y0025371D01*
X0338405Y0023773D02*
X0337615Y0023773D01*
X0337187Y0022174D02*
X0338405Y0022174D01*
X0338405Y0020576D02*
X0336284Y0020576D01*
X0335107Y0018977D02*
X0338405Y0018977D01*
X0338405Y0017379D02*
X0333411Y0017379D01*
X0330101Y0015780D02*
X0338405Y0015780D01*
X0338405Y0014182D02*
X0005800Y0014182D01*
X0005800Y0015780D02*
X0016918Y0015780D01*
X0015760Y0016449D02*
X0018291Y0014988D01*
X0021114Y0014231D01*
X0024036Y0014231D01*
X0026859Y0014988D01*
X0029390Y0016449D01*
X0031456Y0018516D01*
X0032918Y0021047D01*
X0033674Y0023869D01*
X0033674Y0026792D01*
X0032918Y0029615D01*
X0031456Y0032146D01*
X0029390Y0034212D01*
X0026859Y0035674D01*
X0024036Y0036430D01*
X0021114Y0036430D01*
X0018291Y0035674D01*
X0015760Y0034212D01*
X0013693Y0032146D01*
X0012232Y0029615D01*
X0011476Y0026792D01*
X0011476Y0023869D01*
X0012232Y0021047D01*
X0013693Y0018516D01*
X0015760Y0016449D01*
X0014830Y0017379D02*
X0005800Y0017379D01*
X0005800Y0018977D02*
X0013427Y0018977D01*
X0012504Y0020576D02*
X0005800Y0020576D01*
X0005800Y0022174D02*
X0011930Y0022174D01*
X0011501Y0023773D02*
X0005800Y0023773D01*
X0005800Y0025371D02*
X0011476Y0025371D01*
X0011523Y0026970D02*
X0005800Y0026970D01*
X0005800Y0028568D02*
X0011952Y0028568D01*
X0012551Y0030167D02*
X0005800Y0030167D01*
X0005800Y0031765D02*
X0013474Y0031765D01*
X0014911Y0033364D02*
X0005800Y0033364D01*
X0005800Y0034962D02*
X0017059Y0034962D01*
X0005800Y0036561D02*
X0052770Y0036561D01*
X0052770Y0038159D02*
X0005800Y0038159D01*
X0005800Y0039758D02*
X0052770Y0039758D01*
X0052770Y0041356D02*
X0005800Y0041356D01*
X0005800Y0042955D02*
X0052770Y0042955D01*
X0052770Y0044554D02*
X0005800Y0044554D01*
X0005800Y0046152D02*
X0052770Y0046152D01*
X0052775Y0047751D02*
X0005800Y0047751D01*
X0005800Y0049349D02*
X0053180Y0049349D01*
X0053762Y0050948D02*
X0005800Y0050948D01*
X0005800Y0052546D02*
X0054692Y0052546D01*
X0056033Y0054145D02*
X0005800Y0054145D01*
X0005800Y0055743D02*
X0058278Y0055743D01*
X0052770Y0034962D02*
X0028091Y0034962D01*
X0030238Y0033364D02*
X0052770Y0033364D01*
X0052770Y0031765D02*
X0031676Y0031765D01*
X0032599Y0030167D02*
X0052869Y0030167D01*
X0053451Y0028568D02*
X0033198Y0028568D01*
X0033626Y0026970D02*
X0054033Y0026970D01*
X0055316Y0025371D02*
X0033674Y0025371D01*
X0033648Y0023773D02*
X0056797Y0023773D01*
X0059566Y0022174D02*
X0033220Y0022174D01*
X0032646Y0020576D02*
X0317369Y0020576D01*
X0318546Y0018977D02*
X0031723Y0018977D01*
X0030320Y0017379D02*
X0320243Y0017379D01*
X0323552Y0015780D02*
X0028231Y0015780D01*
X0005800Y0012583D02*
X0338405Y0012583D01*
X0338405Y0010985D02*
X0005800Y0010985D01*
X0005800Y0009386D02*
X0338405Y0009386D01*
X0338405Y0007788D02*
X0005800Y0007788D01*
X0005800Y0006189D02*
X0338405Y0006189D01*
X0338405Y0039758D02*
X0282380Y0039758D01*
X0282380Y0041356D02*
X0338405Y0041356D01*
X0338405Y0042955D02*
X0282380Y0042955D01*
X0282380Y0044554D02*
X0338405Y0044554D01*
X0338405Y0046152D02*
X0282380Y0046152D01*
X0282375Y0047751D02*
X0338405Y0047751D01*
X0338405Y0049349D02*
X0281969Y0049349D01*
X0282375Y0048235D02*
X0282375Y0048235D01*
X0281388Y0050948D02*
X0338405Y0050948D01*
X0338405Y0052546D02*
X0280458Y0052546D01*
X0281072Y0051814D02*
X0281072Y0051814D01*
X0279117Y0054145D02*
X0338405Y0054145D01*
X0338405Y0055743D02*
X0276872Y0055743D01*
X0278624Y0054732D02*
X0278624Y0054732D01*
X0277818Y0062137D02*
X0264849Y0062137D01*
X0264849Y0063736D02*
X0276678Y0063736D01*
X0276364Y0065334D02*
X0264785Y0065334D01*
X0264181Y0066933D02*
X0276681Y0066933D01*
X0288510Y0062137D02*
X0312735Y0062137D01*
X0311656Y0063736D02*
X0289649Y0063736D01*
X0289816Y0076524D02*
X0311051Y0076524D01*
X0309452Y0078122D02*
X0288912Y0078122D01*
X0301854Y0092509D02*
X0338405Y0092509D01*
X0338405Y0094107D02*
X0300255Y0094107D01*
X0298657Y0095706D02*
X0338405Y0095706D01*
X0338405Y0097304D02*
X0297058Y0097304D01*
X0295460Y0098903D02*
X0338405Y0098903D01*
X0338405Y0100501D02*
X0293861Y0100501D01*
X0292263Y0102100D02*
X0325417Y0102100D01*
X0331150Y0102100D02*
X0338405Y0102100D01*
X0338405Y0103698D02*
X0332483Y0103698D01*
X0332483Y0105297D02*
X0338405Y0105297D01*
X0338405Y0106895D02*
X0332483Y0106895D01*
X0330902Y0108494D02*
X0338405Y0108494D01*
X0338405Y0110092D02*
X0288731Y0110092D01*
X0290329Y0108494D02*
X0325665Y0108494D01*
X0338405Y0111691D02*
X0287132Y0111691D01*
X0285534Y0113289D02*
X0338405Y0113289D01*
X0338405Y0114888D02*
X0283935Y0114888D01*
X0282337Y0116487D02*
X0338405Y0116487D01*
X0338405Y0118085D02*
X0280738Y0118085D01*
X0279140Y0119684D02*
X0338405Y0119684D01*
X0338405Y0121282D02*
X0277541Y0121282D01*
X0275943Y0122881D02*
X0338405Y0122881D01*
X0338405Y0124479D02*
X0274344Y0124479D01*
X0272746Y0126078D02*
X0326734Y0126078D01*
X0324396Y0127676D02*
X0271147Y0127676D01*
X0270232Y0121282D02*
X0241281Y0121282D01*
X0242879Y0119684D02*
X0271830Y0119684D01*
X0273429Y0118085D02*
X0244478Y0118085D01*
X0246076Y0116487D02*
X0275027Y0116487D01*
X0247191Y0103698D02*
X0222359Y0103698D01*
X0222359Y0102100D02*
X0247191Y0102100D01*
X0247191Y0100501D02*
X0222359Y0100501D01*
X0222359Y0098903D02*
X0247191Y0098903D01*
X0244048Y0105297D02*
X0225983Y0105297D01*
X0227191Y0106895D02*
X0242840Y0106895D01*
X0242416Y0108494D02*
X0227616Y0108494D01*
X0227474Y0110092D02*
X0242558Y0110092D01*
X0243367Y0111691D02*
X0226665Y0111691D01*
X0224281Y0113289D02*
X0242485Y0113289D01*
X0240886Y0114888D02*
X0089416Y0114888D01*
X0089844Y0113289D02*
X0103309Y0113289D01*
X0103660Y0113435D02*
X0101969Y0112734D01*
X0100675Y0111440D01*
X0099975Y0109750D01*
X0099975Y0107920D01*
X0100675Y0106229D01*
X0101969Y0104935D01*
X0103660Y0104235D01*
X0111490Y0104235D01*
X0113180Y0104935D01*
X0114474Y0106229D01*
X0115175Y0107920D01*
X0115175Y0109750D01*
X0114474Y0111440D01*
X0113180Y0112734D01*
X0111490Y0113435D01*
X0103660Y0113435D01*
X0100926Y0111691D02*
X0089875Y0111691D01*
X0089875Y0110092D02*
X0100117Y0110092D01*
X0099975Y0108494D02*
X0089841Y0108494D01*
X0089413Y0106895D02*
X0100399Y0106895D01*
X0101607Y0105297D02*
X0088984Y0105297D01*
X0088395Y0103698D02*
X0217191Y0103698D01*
X0217191Y0102100D02*
X0087472Y0102100D01*
X0086549Y0100501D02*
X0217191Y0100501D01*
X0217191Y0098903D02*
X0085046Y0098903D01*
X0083447Y0097304D02*
X0217191Y0097304D01*
X0217191Y0095706D02*
X0212273Y0095706D01*
X0211834Y0096145D02*
X0208355Y0096145D01*
X0205894Y0093685D01*
X0205894Y0090205D01*
X0208355Y0087745D01*
X0211834Y0087745D01*
X0214294Y0090205D01*
X0214294Y0093685D01*
X0211834Y0096145D01*
X0213872Y0094107D02*
X0217191Y0094107D01*
X0217191Y0092509D02*
X0214294Y0092509D01*
X0214294Y0090910D02*
X0217191Y0090910D01*
X0217191Y0089312D02*
X0213401Y0089312D01*
X0206788Y0089312D02*
X0183401Y0089312D01*
X0184294Y0090205D02*
X0181834Y0087745D01*
X0178355Y0087745D01*
X0175894Y0090205D01*
X0175894Y0093685D01*
X0178355Y0096145D01*
X0181834Y0096145D01*
X0184294Y0093685D01*
X0184294Y0090205D01*
X0184294Y0090910D02*
X0205894Y0090910D01*
X0205894Y0092509D02*
X0184294Y0092509D01*
X0183872Y0094107D02*
X0206317Y0094107D01*
X0207916Y0095706D02*
X0182273Y0095706D01*
X0177916Y0095706D02*
X0080862Y0095706D01*
X0076755Y0094107D02*
X0176317Y0094107D01*
X0175894Y0092509D02*
X0005800Y0092509D01*
X0005800Y0094107D02*
X0068395Y0094107D01*
X0064288Y0095706D02*
X0005800Y0095706D01*
X0005800Y0097304D02*
X0061702Y0097304D01*
X0060104Y0098903D02*
X0005800Y0098903D01*
X0005800Y0100501D02*
X0058601Y0100501D01*
X0057678Y0102100D02*
X0005800Y0102100D01*
X0005800Y0103698D02*
X0056755Y0103698D01*
X0056165Y0105297D02*
X0005800Y0105297D01*
X0005800Y0106895D02*
X0055737Y0106895D01*
X0055309Y0108494D02*
X0005800Y0108494D01*
X0005800Y0110092D02*
X0055275Y0110092D01*
X0054775Y0109394D02*
X0054775Y0103394D01*
X0092575Y0065594D01*
X0093075Y0065831D02*
X0093075Y0074923D01*
X0093910Y0074790D01*
X0094763Y0074513D01*
X0095562Y0074106D01*
X0096288Y0073578D01*
X0096923Y0072944D01*
X0097450Y0072218D01*
X0097857Y0071419D01*
X0098134Y0070565D01*
X0098275Y0069679D01*
X0098275Y0065831D01*
X0093075Y0065831D01*
X0093075Y0065334D02*
X0102075Y0065334D01*
X0102075Y0063736D02*
X0098275Y0063736D01*
X0098275Y0064831D02*
X0093075Y0064831D01*
X0093075Y0055739D01*
X0093910Y0055871D01*
X0094763Y0056148D01*
X0095562Y0056556D01*
X0096288Y0057083D01*
X0096923Y0057717D01*
X0097450Y0058443D01*
X0097857Y0059243D01*
X0098134Y0060096D01*
X0098275Y0060982D01*
X0098275Y0064831D01*
X0098275Y0066933D02*
X0102075Y0066933D01*
X0102075Y0068531D02*
X0098275Y0068531D01*
X0098203Y0070130D02*
X0102075Y0070130D01*
X0102075Y0070325D02*
X0102912Y0072346D01*
X0104459Y0073893D01*
X0106481Y0074731D01*
X0108669Y0074731D01*
X0110690Y0073893D01*
X0112237Y0072346D01*
X0113075Y0070325D01*
X0113075Y0060337D01*
X0112237Y0058315D01*
X0110690Y0056768D01*
X0108669Y0055931D01*
X0106481Y0055931D01*
X0104459Y0056768D01*
X0102912Y0058315D01*
X0102075Y0060337D01*
X0102075Y0070325D01*
X0102656Y0071728D02*
X0097700Y0071728D01*
X0096540Y0073327D02*
X0103893Y0073327D01*
X0111257Y0073327D02*
X0118893Y0073327D01*
X0119459Y0073893D02*
X0117912Y0072346D01*
X0117075Y0070325D01*
X0117075Y0060337D01*
X0117912Y0058315D01*
X0119459Y0056768D01*
X0121481Y0055931D01*
X0123669Y0055931D01*
X0125690Y0056768D01*
X0127237Y0058315D01*
X0128075Y0060337D01*
X0128075Y0070325D01*
X0127237Y0072346D01*
X0125690Y0073893D01*
X0123669Y0074731D01*
X0121481Y0074731D01*
X0119459Y0073893D01*
X0117656Y0071728D02*
X0112493Y0071728D01*
X0113075Y0070130D02*
X0117075Y0070130D01*
X0117075Y0068531D02*
X0113075Y0068531D01*
X0113075Y0066933D02*
X0117075Y0066933D01*
X0117075Y0065334D02*
X0113075Y0065334D01*
X0113075Y0063736D02*
X0117075Y0063736D01*
X0117075Y0062137D02*
X0113075Y0062137D01*
X0113075Y0060539D02*
X0117075Y0060539D01*
X0117653Y0058940D02*
X0112496Y0058940D01*
X0111264Y0057342D02*
X0118886Y0057342D01*
X0117584Y0054145D02*
X0127566Y0054145D01*
X0126959Y0053893D02*
X0128981Y0054731D01*
X0131169Y0054731D01*
X0133190Y0053893D01*
X0134737Y0052346D01*
X0135575Y0050325D01*
X0135575Y0040337D01*
X0134737Y0038315D01*
X0133190Y0036768D01*
X0131169Y0035931D01*
X0128981Y0035931D01*
X0126959Y0036768D01*
X0125412Y0038315D01*
X0124575Y0040337D01*
X0124575Y0050325D01*
X0125412Y0052346D01*
X0126959Y0053893D01*
X0125612Y0052546D02*
X0119538Y0052546D01*
X0119737Y0052346D02*
X0118190Y0053893D01*
X0116169Y0054731D01*
X0113981Y0054731D01*
X0111959Y0053893D01*
X0110412Y0052346D01*
X0109575Y0050325D01*
X0109575Y0040337D01*
X0110412Y0038315D01*
X0111959Y0036768D01*
X0113981Y0035931D01*
X0116169Y0035931D01*
X0118190Y0036768D01*
X0119737Y0038315D01*
X0120575Y0040337D01*
X0120575Y0050325D01*
X0119737Y0052346D01*
X0120317Y0050948D02*
X0124833Y0050948D01*
X0124575Y0049349D02*
X0120575Y0049349D01*
X0120575Y0047751D02*
X0124575Y0047751D01*
X0124575Y0046152D02*
X0120575Y0046152D01*
X0120575Y0044554D02*
X0124575Y0044554D01*
X0124575Y0042955D02*
X0120575Y0042955D01*
X0120575Y0041356D02*
X0124575Y0041356D01*
X0124815Y0039758D02*
X0120335Y0039758D01*
X0119582Y0038159D02*
X0125568Y0038159D01*
X0127459Y0036561D02*
X0117690Y0036561D01*
X0112459Y0036561D02*
X0102690Y0036561D01*
X0104582Y0038159D02*
X0110568Y0038159D01*
X0109815Y0039758D02*
X0105335Y0039758D01*
X0105575Y0041356D02*
X0109575Y0041356D01*
X0109575Y0042955D02*
X0105575Y0042955D01*
X0105575Y0044554D02*
X0109575Y0044554D01*
X0109575Y0046152D02*
X0105575Y0046152D01*
X0105575Y0047751D02*
X0109575Y0047751D01*
X0109575Y0049349D02*
X0105575Y0049349D01*
X0105317Y0050948D02*
X0109833Y0050948D01*
X0110612Y0052546D02*
X0104538Y0052546D01*
X0102584Y0054145D02*
X0112566Y0054145D01*
X0103886Y0057342D02*
X0096547Y0057342D01*
X0097703Y0058940D02*
X0102653Y0058940D01*
X0102075Y0060539D02*
X0098205Y0060539D01*
X0098275Y0062137D02*
X0102075Y0062137D01*
X0093075Y0062137D02*
X0092075Y0062137D01*
X0092075Y0060539D02*
X0093075Y0060539D01*
X0093075Y0058940D02*
X0092075Y0058940D01*
X0092075Y0057342D02*
X0093075Y0057342D01*
X0088603Y0057342D02*
X0005800Y0057342D01*
X0005800Y0058940D02*
X0087447Y0058940D01*
X0086945Y0060539D02*
X0005800Y0060539D01*
X0005800Y0062137D02*
X0086875Y0062137D01*
X0092075Y0063736D02*
X0093075Y0063736D01*
X0093075Y0066933D02*
X0092075Y0066933D01*
X0092075Y0068531D02*
X0093075Y0068531D01*
X0093075Y0070130D02*
X0092075Y0070130D01*
X0092075Y0071728D02*
X0093075Y0071728D01*
X0093075Y0073327D02*
X0092075Y0073327D01*
X0126257Y0073327D02*
X0133893Y0073327D01*
X0134459Y0073893D02*
X0132912Y0072346D01*
X0132075Y0070325D01*
X0132075Y0060337D01*
X0132912Y0058315D01*
X0134459Y0056768D01*
X0136481Y0055931D01*
X0138669Y0055931D01*
X0140690Y0056768D01*
X0142237Y0058315D01*
X0143075Y0060337D01*
X0143075Y0070325D01*
X0142237Y0072346D01*
X0140690Y0073893D01*
X0138669Y0074731D01*
X0136481Y0074731D01*
X0134459Y0073893D01*
X0132656Y0071728D02*
X0127493Y0071728D01*
X0128075Y0070130D02*
X0132075Y0070130D01*
X0132075Y0068531D02*
X0128075Y0068531D01*
X0128075Y0066933D02*
X0132075Y0066933D01*
X0132075Y0065334D02*
X0128075Y0065334D01*
X0128075Y0063736D02*
X0132075Y0063736D01*
X0132075Y0062137D02*
X0128075Y0062137D01*
X0128075Y0060539D02*
X0132075Y0060539D01*
X0132653Y0058940D02*
X0127496Y0058940D01*
X0126264Y0057342D02*
X0133886Y0057342D01*
X0132584Y0054145D02*
X0142566Y0054145D01*
X0141959Y0053893D02*
X0140412Y0052346D01*
X0139575Y0050325D01*
X0139575Y0040337D01*
X0140412Y0038315D01*
X0141959Y0036768D01*
X0143981Y0035931D01*
X0146169Y0035931D01*
X0148190Y0036768D01*
X0149737Y0038315D01*
X0150575Y0040337D01*
X0150575Y0050325D01*
X0149737Y0052346D01*
X0148190Y0053893D01*
X0146169Y0054731D01*
X0143981Y0054731D01*
X0141959Y0053893D01*
X0140612Y0052546D02*
X0134538Y0052546D01*
X0135317Y0050948D02*
X0139833Y0050948D01*
X0139575Y0049349D02*
X0135575Y0049349D01*
X0135575Y0047751D02*
X0139575Y0047751D01*
X0139575Y0046152D02*
X0135575Y0046152D01*
X0135575Y0044554D02*
X0139575Y0044554D01*
X0139575Y0042955D02*
X0135575Y0042955D01*
X0135575Y0041356D02*
X0139575Y0041356D01*
X0139815Y0039758D02*
X0135335Y0039758D01*
X0134582Y0038159D02*
X0140568Y0038159D01*
X0142459Y0036561D02*
X0132690Y0036561D01*
X0147690Y0036561D02*
X0157459Y0036561D01*
X0156959Y0036768D02*
X0158981Y0035931D01*
X0161169Y0035931D01*
X0163190Y0036768D01*
X0164737Y0038315D01*
X0165575Y0040337D01*
X0165575Y0050325D01*
X0164737Y0052346D01*
X0163190Y0053893D01*
X0161169Y0054731D01*
X0158981Y0054731D01*
X0156959Y0053893D01*
X0155412Y0052346D01*
X0154575Y0050325D01*
X0154575Y0040337D01*
X0155412Y0038315D01*
X0156959Y0036768D01*
X0155568Y0038159D02*
X0149582Y0038159D01*
X0150335Y0039758D02*
X0154815Y0039758D01*
X0154575Y0041356D02*
X0150575Y0041356D01*
X0150575Y0042955D02*
X0154575Y0042955D01*
X0154575Y0044554D02*
X0150575Y0044554D01*
X0150575Y0046152D02*
X0154575Y0046152D01*
X0154575Y0047751D02*
X0150575Y0047751D01*
X0150575Y0049349D02*
X0154575Y0049349D01*
X0154833Y0050948D02*
X0150317Y0050948D01*
X0149538Y0052546D02*
X0155612Y0052546D01*
X0157566Y0054145D02*
X0147584Y0054145D01*
X0148603Y0057342D02*
X0141264Y0057342D01*
X0142496Y0058940D02*
X0147447Y0058940D01*
X0146945Y0060539D02*
X0143075Y0060539D01*
X0143075Y0062137D02*
X0146875Y0062137D01*
X0146875Y0063736D02*
X0143075Y0063736D01*
X0143075Y0065334D02*
X0152075Y0065334D01*
X0152075Y0063736D02*
X0153075Y0063736D01*
X0153075Y0062137D02*
X0152075Y0062137D01*
X0152075Y0060539D02*
X0153075Y0060539D01*
X0153075Y0058940D02*
X0152075Y0058940D01*
X0152075Y0057342D02*
X0153075Y0057342D01*
X0156547Y0057342D02*
X0163886Y0057342D01*
X0162653Y0058940D02*
X0157703Y0058940D01*
X0158205Y0060539D02*
X0162075Y0060539D01*
X0162075Y0062137D02*
X0158275Y0062137D01*
X0153075Y0066933D02*
X0152075Y0066933D01*
X0152075Y0068531D02*
X0153075Y0068531D01*
X0153075Y0070130D02*
X0152075Y0070130D01*
X0152075Y0071728D02*
X0153075Y0071728D01*
X0153075Y0073327D02*
X0152075Y0073327D01*
X0148610Y0073327D02*
X0141257Y0073327D01*
X0142493Y0071728D02*
X0147450Y0071728D01*
X0146946Y0070130D02*
X0143075Y0070130D01*
X0143075Y0068531D02*
X0146875Y0068531D01*
X0146875Y0066933D02*
X0143075Y0066933D01*
X0162584Y0054145D02*
X0172566Y0054145D01*
X0171959Y0053893D02*
X0173981Y0054731D01*
X0176169Y0054731D01*
X0178190Y0053893D01*
X0179737Y0052346D01*
X0180575Y0050325D01*
X0180575Y0040337D01*
X0179737Y0038315D01*
X0178190Y0036768D01*
X0176169Y0035931D01*
X0173981Y0035931D01*
X0171959Y0036768D01*
X0170412Y0038315D01*
X0169575Y0040337D01*
X0169575Y0050325D01*
X0170412Y0052346D01*
X0171959Y0053893D01*
X0170612Y0052546D02*
X0164538Y0052546D01*
X0165317Y0050948D02*
X0169833Y0050948D01*
X0169575Y0049349D02*
X0165575Y0049349D01*
X0165575Y0047751D02*
X0169575Y0047751D01*
X0169575Y0046152D02*
X0165575Y0046152D01*
X0165575Y0044554D02*
X0169575Y0044554D01*
X0169575Y0042955D02*
X0165575Y0042955D01*
X0165575Y0041356D02*
X0169575Y0041356D01*
X0169815Y0039758D02*
X0165335Y0039758D01*
X0164582Y0038159D02*
X0170568Y0038159D01*
X0172459Y0036561D02*
X0162690Y0036561D01*
X0177690Y0036561D02*
X0187459Y0036561D01*
X0186959Y0036768D02*
X0188981Y0035931D01*
X0191169Y0035931D01*
X0193190Y0036768D01*
X0194737Y0038315D01*
X0195575Y0040337D01*
X0195575Y0050325D01*
X0194737Y0052346D01*
X0193190Y0053893D01*
X0191169Y0054731D01*
X0188981Y0054731D01*
X0186959Y0053893D01*
X0185412Y0052346D01*
X0184575Y0050325D01*
X0184575Y0040337D01*
X0185412Y0038315D01*
X0186959Y0036768D01*
X0185568Y0038159D02*
X0179582Y0038159D01*
X0180335Y0039758D02*
X0184815Y0039758D01*
X0184575Y0041356D02*
X0180575Y0041356D01*
X0180575Y0042955D02*
X0184575Y0042955D01*
X0184575Y0044554D02*
X0180575Y0044554D01*
X0180575Y0046152D02*
X0184575Y0046152D01*
X0184575Y0047751D02*
X0180575Y0047751D01*
X0180575Y0049349D02*
X0184575Y0049349D01*
X0184833Y0050948D02*
X0180317Y0050948D01*
X0179538Y0052546D02*
X0185612Y0052546D01*
X0187566Y0054145D02*
X0177584Y0054145D01*
X0178603Y0057342D02*
X0171264Y0057342D01*
X0172496Y0058940D02*
X0177447Y0058940D01*
X0176945Y0060539D02*
X0173075Y0060539D01*
X0173075Y0062137D02*
X0176875Y0062137D01*
X0182075Y0062137D02*
X0183075Y0062137D01*
X0183075Y0060539D02*
X0182075Y0060539D01*
X0182075Y0058940D02*
X0183075Y0058940D01*
X0183075Y0057342D02*
X0182075Y0057342D01*
X0183075Y0055739D02*
X0183910Y0055871D01*
X0184763Y0056148D01*
X0185562Y0056556D01*
X0186288Y0057083D01*
X0186923Y0057717D01*
X0187450Y0058443D01*
X0187857Y0059243D01*
X0188134Y0060096D01*
X0188275Y0060982D01*
X0188275Y0064831D01*
X0183075Y0064831D01*
X0183075Y0055739D01*
X0186547Y0057342D02*
X0193886Y0057342D01*
X0192653Y0058940D02*
X0187703Y0058940D01*
X0188205Y0060539D02*
X0192075Y0060539D01*
X0192075Y0062137D02*
X0188275Y0062137D01*
X0188275Y0063736D02*
X0192075Y0063736D01*
X0192075Y0065334D02*
X0183075Y0065334D01*
X0183075Y0065831D02*
X0188275Y0065831D01*
X0188275Y0069679D01*
X0188134Y0070565D01*
X0187857Y0071419D01*
X0187450Y0072218D01*
X0186923Y0072944D01*
X0186288Y0073578D01*
X0185562Y0074106D01*
X0184763Y0074513D01*
X0183910Y0074790D01*
X0183075Y0074923D01*
X0183075Y0065831D01*
X0183075Y0066933D02*
X0182075Y0066933D01*
X0182075Y0068531D02*
X0183075Y0068531D01*
X0183075Y0070130D02*
X0182075Y0070130D01*
X0182075Y0071728D02*
X0183075Y0071728D01*
X0183075Y0073327D02*
X0182075Y0073327D01*
X0186540Y0073327D02*
X0193893Y0073327D01*
X0192656Y0071728D02*
X0187700Y0071728D01*
X0188203Y0070130D02*
X0192075Y0070130D01*
X0192075Y0068531D02*
X0188275Y0068531D01*
X0188275Y0066933D02*
X0192075Y0066933D01*
X0183075Y0063736D02*
X0182075Y0063736D01*
X0192584Y0054145D02*
X0202566Y0054145D01*
X0200612Y0052546D02*
X0194538Y0052546D01*
X0195317Y0050948D02*
X0199833Y0050948D01*
X0199575Y0049349D02*
X0195575Y0049349D01*
X0195575Y0047751D02*
X0199575Y0047751D01*
X0199575Y0046152D02*
X0195575Y0046152D01*
X0195575Y0044554D02*
X0199575Y0044554D01*
X0199575Y0042955D02*
X0195575Y0042955D01*
X0195575Y0041356D02*
X0199575Y0041356D01*
X0199815Y0039758D02*
X0195335Y0039758D01*
X0194582Y0038159D02*
X0200568Y0038159D01*
X0202459Y0036561D02*
X0192690Y0036561D01*
X0207690Y0036561D02*
X0217080Y0036561D01*
X0217087Y0036556D02*
X0217887Y0036148D01*
X0218740Y0035871D01*
X0219575Y0035739D01*
X0219575Y0044831D01*
X0214375Y0044831D01*
X0214375Y0040982D01*
X0214515Y0040096D01*
X0214792Y0039243D01*
X0215200Y0038443D01*
X0215727Y0037717D01*
X0216362Y0037083D01*
X0217087Y0036556D01*
X0215406Y0038159D02*
X0209582Y0038159D01*
X0210335Y0039758D02*
X0214625Y0039758D01*
X0214375Y0041356D02*
X0210575Y0041356D01*
X0210575Y0042955D02*
X0214375Y0042955D01*
X0214375Y0044554D02*
X0210575Y0044554D01*
X0210575Y0046152D02*
X0214375Y0046152D01*
X0214375Y0047751D02*
X0210986Y0047751D01*
X0212585Y0049349D02*
X0214375Y0049349D01*
X0214183Y0050948D02*
X0214639Y0050948D01*
X0219575Y0050948D02*
X0220575Y0050948D01*
X0220575Y0052546D02*
X0219575Y0052546D01*
X0219575Y0054145D02*
X0220575Y0054145D01*
X0220575Y0054923D02*
X0220575Y0045831D01*
X0219575Y0045831D01*
X0219575Y0044831D01*
X0220575Y0044831D01*
X0220575Y0045831D01*
X0225775Y0045831D01*
X0225775Y0049679D01*
X0225634Y0050565D01*
X0225357Y0051419D01*
X0224950Y0052218D01*
X0224423Y0052944D01*
X0223788Y0053578D01*
X0223062Y0054106D01*
X0222263Y0054513D01*
X0221410Y0054790D01*
X0220575Y0054923D01*
X0218979Y0055743D02*
X0241670Y0055743D01*
X0240071Y0054145D02*
X0237584Y0054145D01*
X0238886Y0057342D02*
X0231264Y0057342D01*
X0232496Y0058940D02*
X0237653Y0058940D01*
X0237075Y0060539D02*
X0233075Y0060539D01*
X0233075Y0062137D02*
X0237075Y0062137D01*
X0237075Y0063736D02*
X0233075Y0063736D01*
X0233075Y0065334D02*
X0237075Y0065334D01*
X0237075Y0066933D02*
X0233075Y0066933D01*
X0233075Y0068531D02*
X0237075Y0068531D01*
X0237075Y0070130D02*
X0233075Y0070130D01*
X0232493Y0071728D02*
X0237656Y0071728D01*
X0238893Y0073327D02*
X0231257Y0073327D01*
X0217191Y0076524D02*
X0005800Y0076524D01*
X0005800Y0078122D02*
X0217191Y0078122D01*
X0217191Y0079721D02*
X0005800Y0079721D01*
X0005800Y0081319D02*
X0217191Y0081319D01*
X0217191Y0082918D02*
X0005800Y0082918D01*
X0005800Y0084516D02*
X0217191Y0084516D01*
X0217191Y0086115D02*
X0005800Y0086115D01*
X0005800Y0087713D02*
X0217191Y0087713D01*
X0213075Y0073327D02*
X0212075Y0073327D01*
X0212075Y0071728D02*
X0213075Y0071728D01*
X0213075Y0070130D02*
X0212075Y0070130D01*
X0212075Y0068531D02*
X0213075Y0068531D01*
X0213075Y0066933D02*
X0212075Y0066933D01*
X0206875Y0066933D02*
X0203075Y0066933D01*
X0203075Y0068531D02*
X0206875Y0068531D01*
X0206946Y0070130D02*
X0203075Y0070130D01*
X0202493Y0071728D02*
X0207450Y0071728D01*
X0208610Y0073327D02*
X0201257Y0073327D01*
X0220577Y0057342D02*
X0223886Y0057342D01*
X0222653Y0058940D02*
X0222053Y0058940D01*
X0222986Y0054145D02*
X0232566Y0054145D01*
X0230612Y0052546D02*
X0224712Y0052546D01*
X0225510Y0050948D02*
X0229833Y0050948D01*
X0229575Y0049349D02*
X0225775Y0049349D01*
X0225775Y0047751D02*
X0229575Y0047751D01*
X0229575Y0046152D02*
X0225775Y0046152D01*
X0225775Y0044831D02*
X0220575Y0044831D01*
X0220575Y0035739D01*
X0221410Y0035871D01*
X0222263Y0036148D01*
X0223062Y0036556D01*
X0223788Y0037083D01*
X0224423Y0037717D01*
X0224950Y0038443D01*
X0225357Y0039243D01*
X0225634Y0040096D01*
X0225775Y0040982D01*
X0225775Y0044831D01*
X0225775Y0044554D02*
X0229575Y0044554D01*
X0229575Y0042955D02*
X0225775Y0042955D01*
X0225775Y0041356D02*
X0229575Y0041356D01*
X0229815Y0039758D02*
X0225525Y0039758D01*
X0224744Y0038159D02*
X0230568Y0038159D01*
X0232459Y0036561D02*
X0223070Y0036561D01*
X0220575Y0036561D02*
X0219575Y0036561D01*
X0219575Y0038159D02*
X0220575Y0038159D01*
X0220575Y0039758D02*
X0219575Y0039758D01*
X0219575Y0041356D02*
X0220575Y0041356D01*
X0220575Y0042955D02*
X0219575Y0042955D01*
X0219575Y0044554D02*
X0220575Y0044554D01*
X0220575Y0046152D02*
X0219575Y0046152D01*
X0219575Y0047751D02*
X0220575Y0047751D01*
X0220575Y0049349D02*
X0219575Y0049349D01*
X0240575Y0046152D02*
X0260770Y0046152D01*
X0260770Y0044554D02*
X0240575Y0044554D01*
X0240575Y0042955D02*
X0260770Y0042955D01*
X0260770Y0041356D02*
X0240575Y0041356D01*
X0240335Y0039758D02*
X0260770Y0039758D01*
X0260770Y0038159D02*
X0239582Y0038159D01*
X0237690Y0036561D02*
X0260770Y0036561D01*
X0262077Y0026847D02*
X0262077Y0026847D01*
X0260775Y0047751D02*
X0240986Y0047751D01*
X0242585Y0049349D02*
X0261180Y0049349D01*
X0261762Y0050948D02*
X0244183Y0050948D01*
X0245782Y0052546D02*
X0262692Y0052546D01*
X0262077Y0051814D02*
X0262077Y0051814D01*
X0264033Y0054145D02*
X0247380Y0054145D01*
X0248979Y0055743D02*
X0257975Y0055743D01*
X0256551Y0057342D02*
X0250577Y0057342D01*
X0252053Y0058940D02*
X0256064Y0058940D01*
X0256049Y0060539D02*
X0252359Y0060539D01*
X0252359Y0062137D02*
X0256049Y0062137D01*
X0256049Y0063736D02*
X0252359Y0063736D01*
X0252359Y0065334D02*
X0256113Y0065334D01*
X0256716Y0066933D02*
X0252359Y0066933D01*
X0252359Y0068531D02*
X0258503Y0068531D01*
X0260449Y0066933D02*
X0260449Y0066933D01*
X0260449Y0065334D02*
X0260449Y0065334D01*
X0260449Y0063736D02*
X0260449Y0063736D01*
X0247191Y0073327D02*
X0246257Y0073327D01*
X0214048Y0105297D02*
X0198857Y0105297D01*
X0198495Y0104935D02*
X0199789Y0106229D01*
X0200490Y0107920D01*
X0200490Y0109750D01*
X0199789Y0111440D01*
X0198495Y0112734D01*
X0196805Y0113435D01*
X0188975Y0113435D01*
X0187284Y0112734D01*
X0185990Y0111440D01*
X0185290Y0109750D01*
X0185290Y0107920D01*
X0185990Y0106229D01*
X0187284Y0104935D01*
X0188975Y0104235D01*
X0196805Y0104235D01*
X0198495Y0104935D01*
X0200066Y0106895D02*
X0212840Y0106895D01*
X0212416Y0108494D02*
X0200490Y0108494D01*
X0200348Y0110092D02*
X0212558Y0110092D01*
X0213367Y0111691D02*
X0199539Y0111691D01*
X0197155Y0113289D02*
X0215750Y0113289D01*
X0215511Y0124479D02*
X0197395Y0124479D01*
X0199638Y0126078D02*
X0213267Y0126078D01*
X0234492Y0121282D02*
X0086556Y0121282D01*
X0087479Y0119684D02*
X0236091Y0119684D01*
X0237689Y0118085D02*
X0088401Y0118085D01*
X0088988Y0116487D02*
X0239288Y0116487D01*
X0236457Y0148457D02*
X0227616Y0148457D01*
X0227489Y0150055D02*
X0234859Y0150055D01*
X0233260Y0151654D02*
X0226702Y0151654D01*
X0224371Y0153252D02*
X0231662Y0153252D01*
X0230063Y0154851D02*
X0222359Y0154851D01*
X0222359Y0156449D02*
X0228465Y0156449D01*
X0226866Y0158048D02*
X0222359Y0158048D01*
X0222359Y0159646D02*
X0225267Y0159646D01*
X0223669Y0161245D02*
X0222359Y0161245D01*
X0211975Y0169394D02*
X0211975Y0147194D01*
X0187021Y0132472D02*
X0168758Y0132472D01*
X0168495Y0132734D02*
X0169789Y0131440D01*
X0170490Y0129750D01*
X0170490Y0127920D01*
X0169789Y0126229D01*
X0168495Y0124935D01*
X0166805Y0124235D01*
X0158975Y0124235D01*
X0157284Y0124935D01*
X0155990Y0126229D01*
X0155290Y0127920D01*
X0155290Y0129750D01*
X0155990Y0131440D01*
X0157284Y0132734D01*
X0158975Y0133435D01*
X0166805Y0133435D01*
X0168495Y0132734D01*
X0170024Y0130873D02*
X0185755Y0130873D01*
X0185290Y0129275D02*
X0170490Y0129275D01*
X0170389Y0127676D02*
X0185391Y0127676D01*
X0186141Y0126078D02*
X0169638Y0126078D01*
X0167395Y0124479D02*
X0188385Y0124479D01*
X0188624Y0113289D02*
X0167155Y0113289D01*
X0166805Y0113435D02*
X0168495Y0112734D01*
X0169789Y0111440D01*
X0170490Y0109750D01*
X0170490Y0107920D01*
X0169789Y0106229D01*
X0168495Y0104935D01*
X0166805Y0104235D01*
X0158975Y0104235D01*
X0157284Y0104935D01*
X0155990Y0106229D01*
X0155290Y0107920D01*
X0155290Y0109750D01*
X0155990Y0111440D01*
X0157284Y0112734D01*
X0158975Y0113435D01*
X0166805Y0113435D01*
X0169539Y0111691D02*
X0186241Y0111691D01*
X0185432Y0110092D02*
X0170348Y0110092D01*
X0170490Y0108494D02*
X0185290Y0108494D01*
X0185714Y0106895D02*
X0170066Y0106895D01*
X0168857Y0105297D02*
X0186922Y0105297D01*
X0175894Y0090910D02*
X0005800Y0090910D01*
X0005800Y0089312D02*
X0176788Y0089312D01*
X0156922Y0105297D02*
X0143542Y0105297D01*
X0143180Y0104935D02*
X0144474Y0106229D01*
X0145175Y0107920D01*
X0145175Y0109750D01*
X0144474Y0111440D01*
X0143180Y0112734D01*
X0141490Y0113435D01*
X0133660Y0113435D01*
X0131969Y0112734D01*
X0130675Y0111440D01*
X0129975Y0109750D01*
X0129975Y0107920D01*
X0130675Y0106229D01*
X0131969Y0104935D01*
X0133660Y0104235D01*
X0141490Y0104235D01*
X0143180Y0104935D01*
X0144751Y0106895D02*
X0155714Y0106895D01*
X0155290Y0108494D02*
X0145175Y0108494D01*
X0145033Y0110092D02*
X0155432Y0110092D01*
X0156241Y0111691D02*
X0144224Y0111691D01*
X0141840Y0113289D02*
X0158624Y0113289D01*
X0158385Y0124479D02*
X0142080Y0124479D01*
X0141490Y0124235D02*
X0143180Y0124935D01*
X0144474Y0126229D01*
X0145175Y0127920D01*
X0145175Y0129750D01*
X0144474Y0131440D01*
X0143180Y0132734D01*
X0141490Y0133435D01*
X0133660Y0133435D01*
X0131969Y0132734D01*
X0130675Y0131440D01*
X0129975Y0129750D01*
X0129975Y0127920D01*
X0130675Y0126229D01*
X0131969Y0124935D01*
X0133660Y0124235D01*
X0141490Y0124235D01*
X0144323Y0126078D02*
X0156141Y0126078D01*
X0155391Y0127676D02*
X0145074Y0127676D01*
X0145175Y0129275D02*
X0155290Y0129275D01*
X0155755Y0130873D02*
X0144709Y0130873D01*
X0143443Y0132472D02*
X0157021Y0132472D01*
X0155729Y0146858D02*
X0144735Y0146858D01*
X0145175Y0148457D02*
X0155290Y0148457D01*
X0155416Y0150055D02*
X0145048Y0150055D01*
X0144261Y0151654D02*
X0156204Y0151654D01*
X0158535Y0153252D02*
X0141930Y0153252D01*
X0133220Y0153252D02*
X0111930Y0153252D01*
X0110159Y0154851D02*
X0175177Y0154851D01*
X0173579Y0153252D02*
X0167245Y0153252D01*
X0169576Y0151654D02*
X0171980Y0151654D01*
X0176776Y0156449D02*
X0110159Y0156449D01*
X0110159Y0158048D02*
X0178374Y0158048D01*
X0179973Y0159646D02*
X0110159Y0159646D01*
X0110881Y0161245D02*
X0181571Y0161245D01*
X0183170Y0162843D02*
X0112479Y0162843D01*
X0114078Y0164442D02*
X0184768Y0164442D01*
X0186367Y0166040D02*
X0115676Y0166040D01*
X0117275Y0167639D02*
X0187965Y0167639D01*
X0189564Y0169237D02*
X0118873Y0169237D01*
X0120472Y0170836D02*
X0191162Y0170836D01*
X0192761Y0172434D02*
X0122070Y0172434D01*
X0123669Y0174033D02*
X0193509Y0174033D01*
X0186588Y0175631D02*
X0169192Y0175631D01*
X0169789Y0176229D02*
X0170490Y0177920D01*
X0170490Y0179750D01*
X0169789Y0181440D01*
X0168495Y0182734D01*
X0166805Y0183435D01*
X0158975Y0183435D01*
X0157284Y0182734D01*
X0155990Y0181440D01*
X0155290Y0179750D01*
X0155290Y0177920D01*
X0155990Y0176229D01*
X0157284Y0174935D01*
X0158975Y0174235D01*
X0166805Y0174235D01*
X0168495Y0174935D01*
X0169789Y0176229D01*
X0170204Y0177230D02*
X0185575Y0177230D01*
X0185290Y0178828D02*
X0170490Y0178828D01*
X0170209Y0180427D02*
X0185570Y0180427D01*
X0186575Y0182025D02*
X0169204Y0182025D01*
X0156575Y0182025D02*
X0143889Y0182025D01*
X0144894Y0180427D02*
X0155570Y0180427D01*
X0155290Y0178828D02*
X0145175Y0178828D01*
X0144889Y0177230D02*
X0155575Y0177230D01*
X0156588Y0175631D02*
X0143877Y0175631D01*
X0131273Y0175631D02*
X0125267Y0175631D01*
X0126866Y0177230D02*
X0130260Y0177230D01*
X0129975Y0178828D02*
X0128464Y0178828D01*
X0130063Y0180427D02*
X0130255Y0180427D01*
X0125950Y0183624D02*
X0087475Y0183624D01*
X0087475Y0184172D02*
X0086729Y0185973D01*
X0085350Y0187352D01*
X0083549Y0188098D01*
X0081600Y0188098D01*
X0079799Y0187352D01*
X0078421Y0185973D01*
X0077675Y0184172D01*
X0077675Y0175623D01*
X0078421Y0173822D01*
X0079799Y0172444D01*
X0081600Y0171698D01*
X0083549Y0171698D01*
X0085350Y0172444D01*
X0086729Y0173822D01*
X0087475Y0175623D01*
X0087475Y0184172D01*
X0087040Y0185223D02*
X0127549Y0185223D01*
X0129147Y0186821D02*
X0085881Y0186821D01*
X0087475Y0182025D02*
X0101260Y0182025D01*
X0100675Y0181440D02*
X0101969Y0182734D01*
X0103660Y0183435D01*
X0111490Y0183435D01*
X0113180Y0182734D01*
X0114474Y0181440D01*
X0115175Y0179750D01*
X0115175Y0177920D01*
X0114474Y0176229D01*
X0113180Y0174935D01*
X0111490Y0174235D01*
X0103660Y0174235D01*
X0101969Y0174935D01*
X0100675Y0176229D01*
X0099975Y0177920D01*
X0099975Y0179750D01*
X0100675Y0181440D01*
X0100255Y0180427D02*
X0087475Y0180427D01*
X0087475Y0178828D02*
X0099975Y0178828D01*
X0100260Y0177230D02*
X0087475Y0177230D01*
X0087475Y0175631D02*
X0101273Y0175631D01*
X0109965Y0167639D02*
X0026075Y0167639D01*
X0027673Y0169237D02*
X0111564Y0169237D01*
X0113162Y0170836D02*
X0029272Y0170836D01*
X0030870Y0172434D02*
X0059628Y0172434D01*
X0059902Y0172236D02*
X0060617Y0171871D01*
X0061381Y0171623D01*
X0062173Y0171498D01*
X0062275Y0171498D01*
X0062275Y0179598D01*
X0057475Y0179598D01*
X0057475Y0176196D01*
X0057600Y0175403D01*
X0057848Y0174640D01*
X0058213Y0173925D01*
X0058685Y0173275D01*
X0059252Y0172708D01*
X0059902Y0172236D01*
X0062275Y0172434D02*
X0062875Y0172434D01*
X0062875Y0171498D02*
X0062976Y0171498D01*
X0063769Y0171623D01*
X0064533Y0171871D01*
X0065248Y0172236D01*
X0065897Y0172708D01*
X0066465Y0173275D01*
X0066937Y0173925D01*
X0067301Y0174640D01*
X0067549Y0175403D01*
X0067675Y0176196D01*
X0067675Y0179598D01*
X0062875Y0179598D01*
X0062875Y0180198D01*
X0062275Y0180198D01*
X0062275Y0188298D01*
X0062173Y0188298D01*
X0061381Y0188172D01*
X0060617Y0187924D01*
X0059902Y0187560D01*
X0059252Y0187088D01*
X0058685Y0186520D01*
X0058213Y0185871D01*
X0057848Y0185155D01*
X0057600Y0184392D01*
X0057475Y0183599D01*
X0057475Y0180198D01*
X0062275Y0180198D01*
X0062275Y0179598D01*
X0062875Y0179598D01*
X0062875Y0171498D01*
X0062875Y0174033D02*
X0062275Y0174033D01*
X0062275Y0175631D02*
X0062875Y0175631D01*
X0062875Y0177230D02*
X0062275Y0177230D01*
X0062275Y0178828D02*
X0062875Y0178828D01*
X0062875Y0180198D02*
X0067675Y0180198D01*
X0067675Y0183599D01*
X0067549Y0184392D01*
X0067301Y0185155D01*
X0066937Y0185871D01*
X0066465Y0186520D01*
X0065897Y0187088D01*
X0065248Y0187560D01*
X0064533Y0187924D01*
X0063769Y0188172D01*
X0062976Y0188298D01*
X0062875Y0188298D01*
X0062875Y0180198D01*
X0062875Y0180427D02*
X0062275Y0180427D01*
X0062275Y0182025D02*
X0062875Y0182025D01*
X0062875Y0183624D02*
X0062275Y0183624D01*
X0062275Y0185223D02*
X0062875Y0185223D01*
X0062875Y0186821D02*
X0062275Y0186821D01*
X0058986Y0186821D02*
X0034559Y0186821D01*
X0034559Y0185223D02*
X0057883Y0185223D01*
X0057479Y0183624D02*
X0034559Y0183624D01*
X0034559Y0182025D02*
X0057475Y0182025D01*
X0057475Y0180427D02*
X0034559Y0180427D01*
X0029391Y0180427D02*
X0023759Y0180427D01*
X0023759Y0182025D02*
X0029391Y0182025D01*
X0029391Y0183624D02*
X0023759Y0183624D01*
X0023759Y0185223D02*
X0029391Y0185223D01*
X0029391Y0186821D02*
X0023759Y0186821D01*
X0023759Y0188420D02*
X0029391Y0188420D01*
X0029391Y0190018D02*
X0023759Y0190018D01*
X0023759Y0191617D02*
X0029391Y0191617D01*
X0029391Y0193215D02*
X0023759Y0193215D01*
X0023759Y0194814D02*
X0029391Y0194814D01*
X0029391Y0196412D02*
X0023759Y0196412D01*
X0023759Y0198011D02*
X0029391Y0198011D01*
X0029391Y0199609D02*
X0023759Y0199609D01*
X0023759Y0201208D02*
X0029391Y0201208D01*
X0029391Y0202806D02*
X0023759Y0202806D01*
X0023759Y0204405D02*
X0029391Y0204405D01*
X0029391Y0206003D02*
X0023759Y0206003D01*
X0023759Y0207602D02*
X0029391Y0207602D01*
X0029391Y0209200D02*
X0023759Y0209200D01*
X0023759Y0210799D02*
X0029391Y0210799D01*
X0029391Y0212397D02*
X0023759Y0212397D01*
X0023759Y0213996D02*
X0029391Y0213996D01*
X0029391Y0215594D02*
X0023759Y0215594D01*
X0023759Y0217193D02*
X0029391Y0217193D01*
X0029391Y0218791D02*
X0023759Y0218791D01*
X0023759Y0220390D02*
X0029391Y0220390D01*
X0029391Y0221988D02*
X0023759Y0221988D01*
X0023759Y0223587D02*
X0029391Y0223587D01*
X0029391Y0225185D02*
X0023759Y0225185D01*
X0023759Y0226784D02*
X0029391Y0226784D01*
X0029391Y0228108D02*
X0029391Y0178264D01*
X0024441Y0173315D01*
X0024227Y0173833D01*
X0023759Y0174301D01*
X0023759Y0233723D01*
X0043417Y0253381D01*
X0043417Y0251836D01*
X0046221Y0249031D01*
X0043417Y0246227D01*
X0043417Y0242690D01*
X0030511Y0229785D01*
X0029784Y0229058D01*
X0029391Y0228108D01*
X0029504Y0228382D02*
X0023759Y0228382D01*
X0023759Y0229981D02*
X0030707Y0229981D01*
X0030511Y0229785D02*
X0030511Y0229785D01*
X0032306Y0231579D02*
X0023759Y0231579D01*
X0023759Y0233178D02*
X0033904Y0233178D01*
X0035503Y0234776D02*
X0024812Y0234776D01*
X0026411Y0236375D02*
X0037101Y0236375D01*
X0038700Y0237973D02*
X0028009Y0237973D01*
X0029608Y0239572D02*
X0040298Y0239572D01*
X0041897Y0241170D02*
X0031206Y0241170D01*
X0032805Y0242769D02*
X0043417Y0242769D01*
X0043417Y0244367D02*
X0034403Y0244367D01*
X0036002Y0245966D02*
X0043417Y0245966D01*
X0044754Y0247564D02*
X0037600Y0247564D01*
X0039199Y0249163D02*
X0046090Y0249163D01*
X0044491Y0250761D02*
X0040797Y0250761D01*
X0042396Y0252360D02*
X0043417Y0252360D01*
X0038283Y0255557D02*
X0029097Y0255557D01*
X0028981Y0255993D02*
X0029737Y0253170D01*
X0029737Y0250247D01*
X0028981Y0247425D01*
X0027519Y0244894D01*
X0025453Y0242827D01*
X0022922Y0241366D01*
X0020099Y0240609D01*
X0017177Y0240609D01*
X0014354Y0241366D01*
X0011823Y0242827D01*
X0009756Y0244894D01*
X0008759Y0246621D01*
X0008759Y0199232D01*
X0009963Y0199731D01*
X0017313Y0199731D01*
X0018591Y0199202D01*
X0018591Y0235308D01*
X0018984Y0236258D01*
X0019711Y0236985D01*
X0043136Y0260409D01*
X0025634Y0260409D01*
X0027519Y0258524D01*
X0028981Y0255993D01*
X0028309Y0257156D02*
X0039882Y0257156D01*
X0041480Y0258754D02*
X0027289Y0258754D01*
X0025691Y0260353D02*
X0043079Y0260353D01*
X0036685Y0253958D02*
X0029526Y0253958D01*
X0029737Y0252360D02*
X0035086Y0252360D01*
X0033488Y0250761D02*
X0029737Y0250761D01*
X0029446Y0249163D02*
X0031889Y0249163D01*
X0030291Y0247564D02*
X0029018Y0247564D01*
X0028692Y0245966D02*
X0028138Y0245966D01*
X0027094Y0244367D02*
X0026993Y0244367D01*
X0025495Y0242769D02*
X0025352Y0242769D01*
X0023897Y0241170D02*
X0022193Y0241170D01*
X0022298Y0239572D02*
X0008759Y0239572D01*
X0008759Y0241170D02*
X0015083Y0241170D01*
X0011923Y0242769D02*
X0008759Y0242769D01*
X0008759Y0244367D02*
X0010282Y0244367D01*
X0009137Y0245966D02*
X0008759Y0245966D01*
X0008759Y0237973D02*
X0020700Y0237973D01*
X0019101Y0236375D02*
X0008759Y0236375D01*
X0008759Y0234776D02*
X0018591Y0234776D01*
X0018591Y0233178D02*
X0008759Y0233178D01*
X0008759Y0231579D02*
X0018591Y0231579D01*
X0018591Y0229981D02*
X0008759Y0229981D01*
X0008759Y0228382D02*
X0018591Y0228382D01*
X0018591Y0226784D02*
X0008759Y0226784D01*
X0008759Y0225185D02*
X0018591Y0225185D01*
X0018591Y0223587D02*
X0008759Y0223587D01*
X0008759Y0221988D02*
X0018591Y0221988D01*
X0018591Y0220390D02*
X0008759Y0220390D01*
X0008759Y0218791D02*
X0018591Y0218791D01*
X0018591Y0217193D02*
X0008759Y0217193D01*
X0008759Y0215594D02*
X0018591Y0215594D01*
X0018591Y0213996D02*
X0008759Y0213996D01*
X0008759Y0212397D02*
X0018591Y0212397D01*
X0018591Y0210799D02*
X0008759Y0210799D01*
X0008759Y0209200D02*
X0018591Y0209200D01*
X0018591Y0207602D02*
X0008759Y0207602D01*
X0008759Y0206003D02*
X0018591Y0206003D01*
X0018591Y0204405D02*
X0008759Y0204405D01*
X0008759Y0202806D02*
X0018591Y0202806D01*
X0018591Y0201208D02*
X0008759Y0201208D01*
X0008759Y0199609D02*
X0009669Y0199609D01*
X0017607Y0199609D02*
X0018591Y0199609D01*
X0034559Y0188420D02*
X0130746Y0188420D01*
X0132344Y0190018D02*
X0038490Y0190018D01*
X0039584Y0191617D02*
X0133943Y0191617D01*
X0135541Y0193215D02*
X0039775Y0193215D01*
X0039235Y0194814D02*
X0137140Y0194814D01*
X0135981Y0196412D02*
X0101609Y0196412D01*
X0101571Y0196374D02*
X0102949Y0197752D01*
X0103695Y0199553D01*
X0103695Y0201502D01*
X0102949Y0203303D01*
X0101571Y0204682D01*
X0099770Y0205428D01*
X0097821Y0205428D01*
X0096020Y0204682D01*
X0094641Y0203303D01*
X0093895Y0201502D01*
X0093895Y0199553D01*
X0094641Y0197752D01*
X0096020Y0196374D01*
X0097821Y0195628D01*
X0099770Y0195628D01*
X0101571Y0196374D01*
X0103056Y0198011D02*
X0134534Y0198011D01*
X0133895Y0199609D02*
X0103695Y0199609D01*
X0103695Y0201208D02*
X0133895Y0201208D01*
X0134435Y0202806D02*
X0103155Y0202806D01*
X0101848Y0204405D02*
X0135743Y0204405D01*
X0160706Y0204405D02*
X0173570Y0204405D01*
X0175168Y0202806D02*
X0162013Y0202806D01*
X0167570Y0217193D02*
X0187975Y0217193D01*
X0187975Y0218791D02*
X0165971Y0218791D01*
X0164373Y0220390D02*
X0187975Y0220390D01*
X0187975Y0221988D02*
X0162774Y0221988D01*
X0161176Y0223587D02*
X0187975Y0223587D01*
X0187975Y0225185D02*
X0159577Y0225185D01*
X0157979Y0226784D02*
X0187975Y0226784D01*
X0187975Y0228382D02*
X0156380Y0228382D01*
X0154782Y0229981D02*
X0187975Y0229981D01*
X0187975Y0231579D02*
X0153183Y0231579D01*
X0151585Y0233178D02*
X0187975Y0233178D01*
X0187975Y0234776D02*
X0150175Y0234776D01*
X0150175Y0236375D02*
X0167835Y0236375D01*
X0168276Y0235934D02*
X0171755Y0235934D01*
X0174216Y0238394D01*
X0174216Y0241874D01*
X0171755Y0244334D01*
X0168276Y0244334D01*
X0165816Y0241874D01*
X0165816Y0238394D01*
X0168276Y0235934D01*
X0166237Y0237973D02*
X0150175Y0237973D01*
X0150175Y0239572D02*
X0165816Y0239572D01*
X0165816Y0241170D02*
X0150175Y0241170D01*
X0150175Y0242769D02*
X0166711Y0242769D01*
X0173320Y0242769D02*
X0187975Y0242769D01*
X0187975Y0244367D02*
X0150175Y0244367D01*
X0150175Y0245966D02*
X0187975Y0245966D01*
X0187975Y0247564D02*
X0158323Y0247564D01*
X0158110Y0247531D02*
X0158856Y0247649D01*
X0159575Y0247882D01*
X0160248Y0248225D01*
X0160859Y0248669D01*
X0161394Y0249204D01*
X0161838Y0249815D01*
X0162181Y0250488D01*
X0162414Y0251207D01*
X0162532Y0251953D01*
X0162532Y0255131D01*
X0157932Y0255131D01*
X0157932Y0255531D01*
X0157532Y0255531D01*
X0157532Y0263131D01*
X0157355Y0263131D01*
X0156608Y0263013D01*
X0155890Y0262779D01*
X0155217Y0262436D01*
X0154605Y0261992D01*
X0154071Y0261458D01*
X0153627Y0260846D01*
X0153284Y0260173D01*
X0153050Y0259455D01*
X0152932Y0258708D01*
X0152932Y0255531D01*
X0157532Y0255531D01*
X0157532Y0255131D01*
X0152932Y0255131D01*
X0152932Y0251953D01*
X0153050Y0251207D01*
X0153284Y0250488D01*
X0153627Y0249815D01*
X0154071Y0249204D01*
X0154605Y0248669D01*
X0155217Y0248225D01*
X0155890Y0247882D01*
X0156608Y0247649D01*
X0157355Y0247531D01*
X0157532Y0247531D01*
X0157532Y0255131D01*
X0157932Y0255131D01*
X0157932Y0247531D01*
X0158110Y0247531D01*
X0157932Y0247564D02*
X0157532Y0247564D01*
X0157142Y0247564D02*
X0150175Y0247564D01*
X0151070Y0249163D02*
X0154112Y0249163D01*
X0153195Y0250761D02*
X0152061Y0250761D01*
X0152332Y0252360D02*
X0152932Y0252360D01*
X0152932Y0253958D02*
X0152332Y0253958D01*
X0152332Y0255557D02*
X0152932Y0255557D01*
X0152932Y0257156D02*
X0152332Y0257156D01*
X0152332Y0258754D02*
X0152940Y0258754D01*
X0153375Y0260353D02*
X0151874Y0260353D01*
X0150617Y0261951D02*
X0154564Y0261951D01*
X0157532Y0261951D02*
X0157932Y0261951D01*
X0157932Y0263131D02*
X0157932Y0255531D01*
X0162532Y0255531D01*
X0162532Y0258708D01*
X0162414Y0259455D01*
X0162181Y0260173D01*
X0161838Y0260846D01*
X0161394Y0261458D01*
X0160859Y0261992D01*
X0160248Y0262436D01*
X0159575Y0262779D01*
X0158856Y0263013D01*
X0158110Y0263131D01*
X0157932Y0263131D01*
X0157932Y0260353D02*
X0157532Y0260353D01*
X0157532Y0258754D02*
X0157932Y0258754D01*
X0157932Y0257156D02*
X0157532Y0257156D01*
X0157532Y0255557D02*
X0157932Y0255557D01*
X0157932Y0253958D02*
X0157532Y0253958D01*
X0157532Y0252360D02*
X0157932Y0252360D01*
X0157932Y0250761D02*
X0157532Y0250761D01*
X0157532Y0249163D02*
X0157932Y0249163D01*
X0161353Y0249163D02*
X0187975Y0249163D01*
X0187975Y0250761D02*
X0162269Y0250761D01*
X0162532Y0252360D02*
X0187975Y0252360D01*
X0187377Y0253958D02*
X0182260Y0253958D01*
X0181559Y0253257D02*
X0184019Y0255717D01*
X0184019Y0259196D01*
X0181559Y0261657D01*
X0178079Y0261657D01*
X0175619Y0259196D01*
X0175619Y0255717D01*
X0178079Y0253257D01*
X0181559Y0253257D01*
X0183859Y0255557D02*
X0185779Y0255557D01*
X0185619Y0257156D02*
X0184019Y0257156D01*
X0184019Y0258754D02*
X0185619Y0258754D01*
X0186775Y0260353D02*
X0182863Y0260353D01*
X0176775Y0260353D02*
X0162089Y0260353D01*
X0162525Y0258754D02*
X0175619Y0258754D01*
X0175619Y0257156D02*
X0162532Y0257156D01*
X0162532Y0255557D02*
X0175779Y0255557D01*
X0177377Y0253958D02*
X0162532Y0253958D01*
X0160900Y0261951D02*
X0240277Y0261951D01*
X0238679Y0260353D02*
X0192863Y0260353D01*
X0194019Y0258754D02*
X0237080Y0258754D01*
X0235893Y0257156D02*
X0194019Y0257156D01*
X0193859Y0255557D02*
X0235791Y0255557D01*
X0235791Y0253958D02*
X0192775Y0253958D01*
X0192775Y0252360D02*
X0235791Y0252360D01*
X0235791Y0250761D02*
X0192775Y0250761D01*
X0192775Y0249163D02*
X0235791Y0249163D01*
X0235791Y0247564D02*
X0192775Y0247564D01*
X0192775Y0245966D02*
X0235791Y0245966D01*
X0235791Y0244367D02*
X0192775Y0244367D01*
X0192775Y0242769D02*
X0196711Y0242769D01*
X0195816Y0241874D02*
X0198276Y0244334D01*
X0201755Y0244334D01*
X0204216Y0241874D01*
X0204216Y0238394D01*
X0201755Y0235934D01*
X0198276Y0235934D01*
X0195816Y0238394D01*
X0195816Y0241874D01*
X0195816Y0241170D02*
X0192775Y0241170D01*
X0192775Y0239572D02*
X0195816Y0239572D01*
X0196237Y0237973D02*
X0192775Y0237973D01*
X0192775Y0236375D02*
X0197835Y0236375D01*
X0202196Y0236375D02*
X0235791Y0236375D01*
X0235791Y0237973D02*
X0203795Y0237973D01*
X0204216Y0239572D02*
X0235791Y0239572D01*
X0235791Y0241170D02*
X0204216Y0241170D01*
X0203320Y0242769D02*
X0235791Y0242769D01*
X0235791Y0234776D02*
X0192775Y0234776D01*
X0192775Y0233178D02*
X0235791Y0233178D01*
X0235791Y0231579D02*
X0192775Y0231579D01*
X0192775Y0229981D02*
X0206871Y0229981D01*
X0206005Y0228382D02*
X0192775Y0228382D01*
X0192775Y0226784D02*
X0206014Y0226784D01*
X0206892Y0225185D02*
X0192775Y0225185D01*
X0192775Y0223587D02*
X0206991Y0223587D01*
X0206991Y0221988D02*
X0192775Y0221988D01*
X0192775Y0220390D02*
X0206991Y0220390D01*
X0206991Y0218791D02*
X0192775Y0218791D01*
X0192775Y0217193D02*
X0206991Y0217193D01*
X0206991Y0215594D02*
X0192775Y0215594D01*
X0192775Y0213996D02*
X0206991Y0213996D01*
X0206991Y0212397D02*
X0192775Y0212397D01*
X0192775Y0210799D02*
X0206991Y0210799D01*
X0206991Y0209200D02*
X0192775Y0209200D01*
X0193961Y0207602D02*
X0206991Y0207602D01*
X0206991Y0206003D02*
X0195559Y0206003D01*
X0190375Y0207794D02*
X0190375Y0256994D01*
X0189819Y0257457D01*
X0187975Y0241170D02*
X0174216Y0241170D01*
X0174216Y0239572D02*
X0187975Y0239572D01*
X0187975Y0237973D02*
X0173795Y0237973D01*
X0172196Y0236375D02*
X0187975Y0236375D01*
X0212279Y0229981D02*
X0235791Y0229981D01*
X0235791Y0228382D02*
X0213145Y0228382D01*
X0213136Y0226784D02*
X0235791Y0226784D01*
X0235791Y0225185D02*
X0212258Y0225185D01*
X0212159Y0223587D02*
X0235791Y0223587D01*
X0235791Y0221988D02*
X0212159Y0221988D01*
X0212159Y0220390D02*
X0235791Y0220390D01*
X0235791Y0218791D02*
X0212159Y0218791D01*
X0212159Y0217193D02*
X0235791Y0217193D01*
X0235791Y0215594D02*
X0212159Y0215594D01*
X0212159Y0213996D02*
X0235791Y0213996D01*
X0235791Y0212397D02*
X0212159Y0212397D01*
X0212159Y0210799D02*
X0235791Y0210799D01*
X0235791Y0209200D02*
X0212159Y0209200D01*
X0212159Y0207602D02*
X0235791Y0207602D01*
X0235791Y0206003D02*
X0212159Y0206003D01*
X0206991Y0204405D02*
X0200706Y0204405D01*
X0206991Y0193215D02*
X0191548Y0193215D01*
X0193146Y0191617D02*
X0206991Y0191617D01*
X0206991Y0190018D02*
X0194745Y0190018D01*
X0196343Y0188420D02*
X0206991Y0188420D01*
X0211975Y0169394D02*
X0147775Y0233594D01*
X0147775Y0255194D01*
X0147732Y0255331D01*
X0143132Y0255557D02*
X0142332Y0255557D01*
X0142332Y0253958D02*
X0143132Y0253958D01*
X0143132Y0252360D02*
X0142332Y0252360D01*
X0142332Y0251416D02*
X0142332Y0259246D01*
X0141632Y0260936D01*
X0140338Y0262230D01*
X0138647Y0262931D01*
X0136817Y0262931D01*
X0135127Y0262230D01*
X0133833Y0260936D01*
X0133132Y0259246D01*
X0133132Y0251416D01*
X0133833Y0249725D01*
X0135127Y0248431D01*
X0136817Y0247731D01*
X0138647Y0247731D01*
X0140338Y0248431D01*
X0141632Y0249725D01*
X0142332Y0251416D01*
X0142061Y0250761D02*
X0143403Y0250761D01*
X0144395Y0249163D02*
X0141070Y0249163D01*
X0134395Y0249163D02*
X0131070Y0249163D01*
X0132061Y0250761D02*
X0133403Y0250761D01*
X0133132Y0252360D02*
X0132332Y0252360D01*
X0132332Y0253958D02*
X0133132Y0253958D01*
X0133132Y0255557D02*
X0132332Y0255557D01*
X0132332Y0257156D02*
X0133132Y0257156D01*
X0133132Y0258754D02*
X0132332Y0258754D01*
X0131874Y0260353D02*
X0133591Y0260353D01*
X0134847Y0261951D02*
X0130617Y0261951D01*
X0124847Y0261951D02*
X0074472Y0261951D01*
X0076071Y0260353D02*
X0123591Y0260353D01*
X0123132Y0258754D02*
X0091772Y0258754D01*
X0093371Y0257156D02*
X0123132Y0257156D01*
X0123132Y0255557D02*
X0094217Y0255557D01*
X0088917Y0255557D02*
X0088517Y0255557D01*
X0088517Y0257156D02*
X0088917Y0257156D01*
X0088917Y0258754D02*
X0088517Y0258754D01*
X0085661Y0258754D02*
X0081489Y0258754D01*
X0083088Y0257156D02*
X0084062Y0257156D01*
X0059858Y0238731D02*
X0034559Y0213433D01*
X0034559Y0226523D01*
X0046767Y0238731D01*
X0050912Y0238731D01*
X0053717Y0241536D01*
X0056521Y0238731D01*
X0059858Y0238731D01*
X0059100Y0237973D02*
X0046009Y0237973D01*
X0044411Y0236375D02*
X0057501Y0236375D01*
X0055903Y0234776D02*
X0042812Y0234776D01*
X0041214Y0233178D02*
X0054304Y0233178D01*
X0052706Y0231579D02*
X0039615Y0231579D01*
X0038017Y0229981D02*
X0051107Y0229981D01*
X0049509Y0228382D02*
X0036418Y0228382D01*
X0034820Y0226784D02*
X0047910Y0226784D01*
X0046312Y0225185D02*
X0034559Y0225185D01*
X0034559Y0223587D02*
X0044713Y0223587D01*
X0043115Y0221988D02*
X0034559Y0221988D01*
X0034559Y0220390D02*
X0041516Y0220390D01*
X0039918Y0218791D02*
X0034559Y0218791D01*
X0034559Y0217193D02*
X0038319Y0217193D01*
X0036721Y0215594D02*
X0034559Y0215594D01*
X0034559Y0213996D02*
X0035122Y0213996D01*
X0038759Y0204405D02*
X0095743Y0204405D01*
X0094435Y0202806D02*
X0038759Y0202806D01*
X0038759Y0201208D02*
X0093895Y0201208D01*
X0093895Y0199609D02*
X0038759Y0199609D01*
X0038759Y0198011D02*
X0094534Y0198011D01*
X0095981Y0196412D02*
X0038759Y0196412D01*
X0041431Y0178828D02*
X0057475Y0178828D01*
X0057475Y0177230D02*
X0042175Y0177230D01*
X0042073Y0175631D02*
X0057564Y0175631D01*
X0058158Y0174033D02*
X0041105Y0174033D01*
X0029391Y0178828D02*
X0023759Y0178828D01*
X0023759Y0177230D02*
X0028356Y0177230D01*
X0026758Y0175631D02*
X0023759Y0175631D01*
X0024027Y0174033D02*
X0025159Y0174033D01*
X0024476Y0166040D02*
X0108367Y0166040D01*
X0106768Y0164442D02*
X0022878Y0164442D01*
X0020170Y0162843D02*
X0105295Y0162843D01*
X0104991Y0161245D02*
X0018071Y0161245D01*
X0020974Y0156449D02*
X0104991Y0156449D01*
X0104991Y0154851D02*
X0022572Y0154851D01*
X0024171Y0153252D02*
X0103220Y0153252D01*
X0100889Y0151654D02*
X0025769Y0151654D01*
X0027368Y0150055D02*
X0100101Y0150055D01*
X0099975Y0148457D02*
X0028966Y0148457D01*
X0030565Y0146858D02*
X0100414Y0146858D01*
X0104991Y0158048D02*
X0008759Y0158048D01*
X0008759Y0159646D02*
X0104991Y0159646D01*
X0114261Y0151654D02*
X0130889Y0151654D01*
X0130101Y0150055D02*
X0115048Y0150055D01*
X0115175Y0148457D02*
X0129975Y0148457D01*
X0130414Y0146858D02*
X0114735Y0146858D01*
X0113443Y0132472D02*
X0131706Y0132472D01*
X0130440Y0130873D02*
X0114709Y0130873D01*
X0115175Y0129275D02*
X0129975Y0129275D01*
X0130076Y0127676D02*
X0115074Y0127676D01*
X0114323Y0126078D02*
X0130826Y0126078D01*
X0133070Y0124479D02*
X0112080Y0124479D01*
X0111840Y0113289D02*
X0133309Y0113289D01*
X0130926Y0111691D02*
X0114224Y0111691D01*
X0115033Y0110092D02*
X0130117Y0110092D01*
X0129975Y0108494D02*
X0115175Y0108494D01*
X0114751Y0106895D02*
X0130399Y0106895D01*
X0131607Y0105297D02*
X0113542Y0105297D01*
X0068351Y0127676D02*
X0020006Y0127676D01*
X0017668Y0126078D02*
X0064267Y0126078D01*
X0061690Y0124479D02*
X0005800Y0124479D01*
X0005800Y0122881D02*
X0060092Y0122881D01*
X0058594Y0121282D02*
X0005800Y0121282D01*
X0005800Y0119684D02*
X0057671Y0119684D01*
X0056748Y0118085D02*
X0005800Y0118085D01*
X0005800Y0116487D02*
X0056162Y0116487D01*
X0055734Y0114888D02*
X0005800Y0114888D01*
X0005800Y0113289D02*
X0055305Y0113289D01*
X0055275Y0111691D02*
X0005800Y0111691D01*
X0005800Y0126078D02*
X0009608Y0126078D01*
X0007270Y0127676D02*
X0005800Y0127676D01*
X0005800Y0129275D02*
X0006513Y0129275D01*
X0006438Y0130873D02*
X0005800Y0130873D01*
X0005800Y0132472D02*
X0006962Y0132472D01*
X0005800Y0134070D02*
X0008368Y0134070D01*
X0013538Y0146858D02*
X0013738Y0146858D01*
X0013738Y0148457D02*
X0013538Y0148457D01*
X0013538Y0150055D02*
X0013738Y0150055D01*
X0013975Y0150194D02*
X0013638Y0150331D01*
X0013975Y0150194D02*
X0054775Y0109394D01*
X0009204Y0161245D02*
X0008759Y0161245D01*
X0065521Y0172434D02*
X0069821Y0172434D01*
X0069799Y0172444D02*
X0071600Y0171698D01*
X0073549Y0171698D01*
X0075350Y0172444D01*
X0076729Y0173822D01*
X0077475Y0175623D01*
X0077475Y0184172D01*
X0076729Y0185973D01*
X0075350Y0187352D01*
X0073549Y0188098D01*
X0071600Y0188098D01*
X0069799Y0187352D01*
X0068421Y0185973D01*
X0067675Y0184172D01*
X0067675Y0175623D01*
X0068421Y0173822D01*
X0069799Y0172444D01*
X0068333Y0174033D02*
X0066992Y0174033D01*
X0067585Y0175631D02*
X0067675Y0175631D01*
X0067675Y0177230D02*
X0067675Y0177230D01*
X0067675Y0178828D02*
X0067675Y0178828D01*
X0067675Y0180427D02*
X0067675Y0180427D01*
X0067675Y0182025D02*
X0067675Y0182025D01*
X0067671Y0183624D02*
X0067675Y0183624D01*
X0067267Y0185223D02*
X0068110Y0185223D01*
X0069269Y0186821D02*
X0066164Y0186821D01*
X0075881Y0186821D02*
X0079269Y0186821D01*
X0078110Y0185223D02*
X0077040Y0185223D01*
X0077475Y0183624D02*
X0077675Y0183624D01*
X0077675Y0182025D02*
X0077475Y0182025D01*
X0077475Y0180427D02*
X0077675Y0180427D01*
X0077675Y0178828D02*
X0077475Y0178828D01*
X0077475Y0177230D02*
X0077675Y0177230D01*
X0077675Y0175631D02*
X0077475Y0175631D01*
X0076816Y0174033D02*
X0078333Y0174033D01*
X0079821Y0172434D02*
X0075328Y0172434D01*
X0085328Y0172434D02*
X0114761Y0172434D01*
X0116359Y0174033D02*
X0086816Y0174033D01*
X0113877Y0175631D02*
X0117958Y0175631D01*
X0119556Y0177230D02*
X0114889Y0177230D01*
X0115175Y0178828D02*
X0121155Y0178828D01*
X0122753Y0180427D02*
X0114894Y0180427D01*
X0113889Y0182025D02*
X0124352Y0182025D01*
X0055681Y0239572D02*
X0051752Y0239572D01*
X0053351Y0241170D02*
X0054082Y0241170D01*
X0011874Y0265148D02*
X0005800Y0265148D01*
X0005800Y0263550D02*
X0010276Y0263550D01*
X0008677Y0261951D02*
X0005800Y0261951D01*
X0005800Y0260353D02*
X0007079Y0260353D01*
X0140617Y0261951D02*
X0144847Y0261951D01*
X0143591Y0260353D02*
X0141874Y0260353D01*
X0142332Y0258754D02*
X0143132Y0258754D01*
X0143132Y0257156D02*
X0142332Y0257156D01*
X0240959Y0193215D02*
X0292499Y0193215D01*
X0294097Y0191617D02*
X0240959Y0191617D01*
X0240959Y0190018D02*
X0295696Y0190018D01*
X0297294Y0188420D02*
X0240959Y0188420D01*
X0240959Y0186821D02*
X0298893Y0186821D01*
X0300491Y0185223D02*
X0240959Y0185223D01*
X0240959Y0183624D02*
X0302090Y0183624D01*
X0303688Y0182025D02*
X0256330Y0182025D01*
X0256915Y0181440D02*
X0255621Y0182734D01*
X0253931Y0183435D01*
X0246101Y0183435D01*
X0244410Y0182734D01*
X0243116Y0181440D01*
X0242416Y0179750D01*
X0242416Y0177920D01*
X0243116Y0176229D01*
X0244410Y0174935D01*
X0246101Y0174235D01*
X0253931Y0174235D01*
X0255621Y0174935D01*
X0256915Y0176229D01*
X0257616Y0177920D01*
X0257616Y0179750D01*
X0256915Y0181440D01*
X0257335Y0180427D02*
X0305287Y0180427D01*
X0306885Y0178828D02*
X0257616Y0178828D01*
X0257330Y0177230D02*
X0308484Y0177230D01*
X0310082Y0175631D02*
X0256318Y0175631D01*
X0243714Y0175631D02*
X0240959Y0175631D01*
X0240959Y0174033D02*
X0311681Y0174033D01*
X0313279Y0172434D02*
X0240959Y0172434D01*
X0240959Y0170836D02*
X0314878Y0170836D01*
X0316476Y0169237D02*
X0240959Y0169237D01*
X0240959Y0167639D02*
X0318075Y0167639D01*
X0319673Y0166040D02*
X0240959Y0166040D01*
X0240959Y0164442D02*
X0321272Y0164442D01*
X0324232Y0162843D02*
X0240959Y0162843D01*
X0241778Y0161245D02*
X0326330Y0161245D01*
X0327097Y0154851D02*
X0248172Y0154851D01*
X0246574Y0156449D02*
X0338405Y0156449D01*
X0338405Y0154851D02*
X0334430Y0154851D01*
X0334641Y0154817D02*
X0333926Y0154931D01*
X0330864Y0154931D01*
X0330864Y0150431D01*
X0338164Y0150431D01*
X0338164Y0150693D01*
X0338051Y0151408D01*
X0337827Y0152096D01*
X0337498Y0152742D01*
X0337072Y0153327D01*
X0336560Y0153839D01*
X0335975Y0154265D01*
X0335330Y0154594D01*
X0334641Y0154817D01*
X0337127Y0153252D02*
X0338405Y0153252D01*
X0338405Y0151654D02*
X0337971Y0151654D01*
X0338164Y0150055D02*
X0338405Y0150055D01*
X0338405Y0148457D02*
X0337772Y0148457D01*
X0338405Y0146858D02*
X0336597Y0146858D01*
X0330864Y0151654D02*
X0330664Y0151654D01*
X0330664Y0153252D02*
X0330864Y0153252D01*
X0330864Y0154851D02*
X0330664Y0154851D01*
X0324401Y0153252D02*
X0254371Y0153252D01*
X0244975Y0158048D02*
X0338405Y0158048D01*
X0338405Y0159646D02*
X0243377Y0159646D01*
X0242701Y0177230D02*
X0240959Y0177230D01*
X0240959Y0178828D02*
X0242416Y0178828D01*
X0242696Y0180427D02*
X0240959Y0180427D01*
X0240959Y0182025D02*
X0243701Y0182025D01*
X0298210Y0194814D02*
X0300500Y0194814D01*
X0299808Y0193215D02*
X0302099Y0193215D01*
X0301407Y0191617D02*
X0303697Y0191617D01*
X0303005Y0190018D02*
X0305296Y0190018D01*
X0304604Y0188420D02*
X0306894Y0188420D01*
X0306202Y0186821D02*
X0308493Y0186821D01*
X0307801Y0185223D02*
X0310091Y0185223D01*
X0309399Y0183624D02*
X0311690Y0183624D01*
X0310998Y0182025D02*
X0313288Y0182025D01*
X0312596Y0180427D02*
X0314887Y0180427D01*
X0314195Y0178828D02*
X0316485Y0178828D01*
X0315793Y0177230D02*
X0318084Y0177230D01*
X0317392Y0175631D02*
X0319682Y0175631D01*
X0318990Y0174033D02*
X0321804Y0174033D01*
X0320589Y0172434D02*
X0324638Y0172434D01*
X0322187Y0170836D02*
X0338405Y0170836D01*
X0338405Y0172434D02*
X0336890Y0172434D01*
X0337789Y0174033D02*
X0338405Y0174033D01*
X0338405Y0175631D02*
X0337964Y0175631D01*
X0337540Y0177230D02*
X0338405Y0177230D01*
X0338405Y0178828D02*
X0336289Y0178828D01*
X0338405Y0180427D02*
X0322196Y0180427D01*
X0320598Y0182025D02*
X0325046Y0182025D01*
X0323908Y0183624D02*
X0318999Y0183624D01*
X0317401Y0185223D02*
X0323564Y0185223D01*
X0323819Y0186821D02*
X0315802Y0186821D01*
X0314204Y0188420D02*
X0324830Y0188420D01*
X0336481Y0182025D02*
X0338405Y0182025D01*
X0338405Y0183624D02*
X0337619Y0183624D01*
X0337964Y0185223D02*
X0338405Y0185223D01*
X0338405Y0186821D02*
X0337709Y0186821D01*
X0338405Y0169237D02*
X0335630Y0169237D01*
X0337370Y0167639D02*
X0338405Y0167639D01*
X0338405Y0166040D02*
X0337964Y0166040D01*
X0337958Y0164442D02*
X0338405Y0164442D01*
X0338405Y0162843D02*
X0337296Y0162843D01*
X0338405Y0161245D02*
X0335197Y0161245D01*
X0325898Y0169237D02*
X0323786Y0169237D01*
X0336034Y0134070D02*
X0338405Y0134070D01*
X0338405Y0132472D02*
X0337440Y0132472D01*
X0337964Y0130873D02*
X0338405Y0130873D01*
X0338405Y0129275D02*
X0337889Y0129275D01*
X0338405Y0127676D02*
X0337132Y0127676D01*
X0338405Y0126078D02*
X0334794Y0126078D01*
X0338405Y0090910D02*
X0303452Y0090910D01*
X0305051Y0089312D02*
X0314400Y0089312D01*
X0314928Y0089531D02*
X0313385Y0088891D01*
X0312203Y0087710D01*
X0311564Y0086166D01*
X0311564Y0084495D01*
X0312203Y0082952D01*
X0313385Y0081770D01*
X0314928Y0081131D01*
X0321799Y0081131D01*
X0323343Y0081770D01*
X0324524Y0082952D01*
X0325164Y0084495D01*
X0325164Y0086166D01*
X0324524Y0087710D01*
X0323343Y0088891D01*
X0321799Y0089531D01*
X0314928Y0089531D01*
X0312207Y0087713D02*
X0306649Y0087713D01*
X0308248Y0086115D02*
X0311564Y0086115D01*
X0311564Y0084516D02*
X0309846Y0084516D01*
X0311445Y0082918D02*
X0312237Y0082918D01*
X0313043Y0081319D02*
X0314473Y0081319D01*
X0314642Y0079721D02*
X0338405Y0079721D01*
X0338405Y0081319D02*
X0322254Y0081319D01*
X0324491Y0082918D02*
X0338405Y0082918D01*
X0338405Y0084516D02*
X0325164Y0084516D01*
X0325164Y0086115D02*
X0338405Y0086115D01*
X0338405Y0087713D02*
X0324521Y0087713D01*
X0322328Y0089312D02*
X0338405Y0089312D01*
X0338405Y0078122D02*
X0331274Y0078122D01*
X0332483Y0076524D02*
X0338405Y0076524D01*
X0338405Y0074925D02*
X0332483Y0074925D01*
X0332377Y0073327D02*
X0338405Y0073327D01*
X0325293Y0078122D02*
X0324112Y0078122D01*
X0315764Y0068531D02*
X0315764Y0068531D01*
X0315764Y0066933D02*
X0315764Y0066933D01*
X0315764Y0065334D02*
X0315764Y0065334D01*
X0315764Y0065331D02*
X0315764Y0065331D01*
X0315764Y0060931D01*
X0315764Y0065331D01*
X0315764Y0065331D01*
X0311364Y0065331D01*
X0315764Y0063736D02*
X0315764Y0063736D01*
X0315764Y0062137D02*
X0315764Y0062137D01*
X0284586Y0255557D02*
X0284186Y0255557D01*
X0284186Y0257156D02*
X0284586Y0257156D01*
X0284586Y0258754D02*
X0284186Y0258754D01*
X0280937Y0258754D02*
X0277552Y0258754D01*
X0279151Y0257156D02*
X0279338Y0257156D01*
D21*
X0226984Y0217929D03*
X0209575Y0227594D03*
X0160975Y0214994D03*
X0152181Y0190370D03*
X0175803Y0186433D03*
X0196975Y0172994D03*
X0203362Y0162811D03*
X0207299Y0135252D03*
X0259375Y0149594D03*
X0262417Y0119504D03*
X0120685Y0186433D03*
X0089189Y0186433D03*
X0038008Y0182496D03*
X0038575Y0176594D03*
X0021175Y0171794D03*
X0038008Y0154937D03*
X0036175Y0192794D03*
X0026197Y0210055D03*
X0026197Y0225803D03*
X0014386Y0225803D03*
X0041945Y0225803D03*
D22*
X0031975Y0227594D02*
X0048175Y0243794D01*
X0048717Y0244031D01*
X0068575Y0243794D02*
X0068717Y0244031D01*
X0068575Y0243794D02*
X0036175Y0211394D01*
X0036175Y0192794D01*
X0031975Y0177194D02*
X0032575Y0176594D01*
X0038575Y0176594D01*
X0031975Y0177194D02*
X0031975Y0227594D01*
X0021175Y0234794D02*
X0021175Y0171794D01*
X0020575Y0165794D02*
X0013975Y0165794D01*
X0013638Y0165331D01*
X0020575Y0165794D02*
X0031975Y0177194D01*
X0018775Y0154994D02*
X0006175Y0154994D01*
X0006175Y0147794D01*
X0013638Y0140331D01*
X0018775Y0154994D02*
X0030175Y0143594D01*
X0187975Y0143594D01*
X0202375Y0129194D01*
X0219775Y0129194D01*
X0220016Y0128835D01*
X0220016Y0108835D02*
X0219775Y0108794D01*
X0219775Y0060194D01*
X0205375Y0045794D01*
X0205075Y0045331D01*
X0235075Y0045331D02*
X0235375Y0045794D01*
X0249775Y0060194D01*
X0249775Y0108794D01*
X0250016Y0108835D01*
X0268975Y0130394D02*
X0250375Y0148994D01*
X0250016Y0148835D01*
X0249775Y0149594D01*
X0238375Y0160994D01*
X0238375Y0256394D01*
X0241975Y0259994D01*
X0266575Y0259994D01*
X0271975Y0254594D01*
X0274375Y0254594D01*
X0274386Y0254425D01*
X0254575Y0244394D02*
X0254386Y0244425D01*
X0254575Y0244394D02*
X0322375Y0176594D01*
X0328375Y0176594D01*
X0330764Y0175331D01*
X0330175Y0175994D01*
X0328975Y0175994D01*
X0330764Y0175331D02*
X0330764Y0175134D01*
X0329575Y0166394D02*
X0322975Y0166394D01*
X0244975Y0244394D01*
X0244386Y0244425D01*
X0209575Y0227594D02*
X0209575Y0175994D01*
X0219775Y0165794D01*
X0219775Y0148994D01*
X0220016Y0148835D01*
X0222775Y0165794D02*
X0222775Y0175994D01*
X0220375Y0178394D01*
X0220016Y0178835D01*
X0219775Y0179594D01*
X0214975Y0184394D01*
X0214975Y0199994D01*
X0214701Y0200528D01*
X0196975Y0172994D02*
X0172975Y0148994D01*
X0163375Y0148994D01*
X0162890Y0148835D01*
X0107575Y0148835D02*
X0107575Y0161594D01*
X0160975Y0214994D01*
X0222775Y0165794D02*
X0244975Y0143594D01*
X0251575Y0143594D01*
X0289975Y0105194D01*
X0327775Y0105194D01*
X0328283Y0105173D01*
X0330764Y0130331D02*
X0330175Y0130394D01*
X0268975Y0130394D01*
X0268375Y0140594D02*
X0259375Y0149594D01*
X0268375Y0140594D02*
X0330175Y0140594D01*
X0330764Y0140331D01*
X0330764Y0140370D01*
X0330764Y0165331D02*
X0329575Y0166394D01*
X0330175Y0165794D02*
X0330764Y0165331D01*
X0330764Y0195134D02*
X0330764Y0195331D01*
X0078717Y0254031D02*
X0078175Y0254594D01*
X0069775Y0262994D01*
X0013375Y0262994D01*
X0006175Y0255794D01*
X0006175Y0154994D01*
X0021175Y0234794D02*
X0046375Y0259994D01*
X0060775Y0259994D01*
X0066175Y0254594D01*
X0068575Y0254594D01*
X0068717Y0254031D01*
M02*
