%
M48
M72
T01C0.02400
T02C0.03200
T03C0.03600
T04C0.04000
T05C0.04400
T06C0.05200
T07C0.11900
T08C0.12598
T09C0.13000
%
T01
X30981Y122931
X36381Y189531
X143913Y158874
X145882Y191551
X273047Y201000
T02
X56118Y199898
X86118Y199898
X146551Y257457
X156551Y257457
X179425Y257457
X189425Y257457
X318008Y98362
X308008Y98362
X315370Y85331
X315370Y75331
X315370Y65331
X285370Y65331
X285370Y75331
X285370Y85331
X262496Y85331
X262496Y75331
T03
X13244Y130331
X13244Y140331
X13244Y150331
X13244Y165331
X13244Y175331
X13244Y185331
X13244Y195331
X47181Y253520
X57181Y253520
X67181Y253520
X77181Y253520
X330370Y195331
X330370Y185331
X330370Y175331
X330370Y165331
X330370Y150331
X330370Y140331
X330370Y130331
T04
X107181Y108835
X107181Y128835
X107181Y148835
X137181Y148835
X137181Y128835
X137181Y108835
X162496Y108835
X162496Y128835
X162496Y148835
X192496Y148835
X192496Y128835
X192496Y108835
X219622Y108835
X219622Y128835
X219622Y148835
X249622Y148835
X249622Y128835
X249622Y108835
X249622Y178835
X219622Y178835
X192496Y178835
X162496Y178835
X137181Y178835
X107181Y178835
T05
X98402Y200528
X82181Y179898
X72181Y179898
X62181Y179898
X138402Y200528
X157260Y200528
X197260Y200528
X214307Y200528
X254307Y200528
T06
X92181Y65331
X107181Y65331
X122181Y65331
X137181Y65331
X152181Y65331
X167181Y65331
X182181Y65331
X197181Y65331
X212181Y65331
X227181Y65331
X242181Y65331
X234681Y45331
X219681Y45331
X204681Y45331
X189681Y45331
X174681Y45331
X159681Y45331
X144681Y45331
X129681Y45331
X114681Y45331
X99681Y45331
T07
X63181Y46331
X63181Y32331
X271181Y32331
X271181Y46331
T08
X18244Y251709
X22181Y25331
X326433Y26394
X325370Y251709
T09
X72181Y110898
M30
