G75*
%MOIN*%
%OFA0B0*%
%FSLAX25Y25*%
%IPPOS*%
%LPD*%
%AMOC8*
5,1,8,0,0,1.08239X$1,22.5*
%
%ADD10C,0.00000*%
%ADD11C,0.13398*%
%ADD12C,0.07400*%
%ADD13C,0.06400*%
%ADD14C,0.06800*%
%ADD15OC8,0.06000*%
%ADD16C,0.06000*%
%ADD17C,0.07400*%
%ADD18C,0.13800*%
%ADD19C,0.00009*%
%ADD20C,0.08600*%
%ADD21C,0.12700*%
%ADD22C,0.04800*%
D10*
X0001000Y0001000D02*
X0001000Y0273953D01*
X0342417Y0274346D01*
X0342417Y0001394D01*
X0001000Y0001000D01*
X0015882Y0025331D02*
X0015884Y0025489D01*
X0015890Y0025647D01*
X0015900Y0025805D01*
X0015914Y0025963D01*
X0015932Y0026120D01*
X0015953Y0026277D01*
X0015979Y0026433D01*
X0016009Y0026589D01*
X0016042Y0026744D01*
X0016080Y0026897D01*
X0016121Y0027050D01*
X0016166Y0027202D01*
X0016215Y0027353D01*
X0016268Y0027502D01*
X0016324Y0027650D01*
X0016384Y0027796D01*
X0016448Y0027941D01*
X0016516Y0028084D01*
X0016587Y0028226D01*
X0016661Y0028366D01*
X0016739Y0028503D01*
X0016821Y0028639D01*
X0016905Y0028773D01*
X0016994Y0028904D01*
X0017085Y0029033D01*
X0017180Y0029160D01*
X0017277Y0029285D01*
X0017378Y0029407D01*
X0017482Y0029526D01*
X0017589Y0029643D01*
X0017699Y0029757D01*
X0017812Y0029868D01*
X0017927Y0029977D01*
X0018045Y0030082D01*
X0018166Y0030184D01*
X0018289Y0030284D01*
X0018415Y0030380D01*
X0018543Y0030473D01*
X0018673Y0030563D01*
X0018806Y0030649D01*
X0018941Y0030733D01*
X0019077Y0030812D01*
X0019216Y0030889D01*
X0019357Y0030961D01*
X0019499Y0031031D01*
X0019643Y0031096D01*
X0019789Y0031158D01*
X0019936Y0031216D01*
X0020085Y0031271D01*
X0020235Y0031322D01*
X0020386Y0031369D01*
X0020538Y0031412D01*
X0020691Y0031451D01*
X0020846Y0031487D01*
X0021001Y0031518D01*
X0021157Y0031546D01*
X0021313Y0031570D01*
X0021470Y0031590D01*
X0021628Y0031606D01*
X0021785Y0031618D01*
X0021944Y0031626D01*
X0022102Y0031630D01*
X0022260Y0031630D01*
X0022418Y0031626D01*
X0022577Y0031618D01*
X0022734Y0031606D01*
X0022892Y0031590D01*
X0023049Y0031570D01*
X0023205Y0031546D01*
X0023361Y0031518D01*
X0023516Y0031487D01*
X0023671Y0031451D01*
X0023824Y0031412D01*
X0023976Y0031369D01*
X0024127Y0031322D01*
X0024277Y0031271D01*
X0024426Y0031216D01*
X0024573Y0031158D01*
X0024719Y0031096D01*
X0024863Y0031031D01*
X0025005Y0030961D01*
X0025146Y0030889D01*
X0025285Y0030812D01*
X0025421Y0030733D01*
X0025556Y0030649D01*
X0025689Y0030563D01*
X0025819Y0030473D01*
X0025947Y0030380D01*
X0026073Y0030284D01*
X0026196Y0030184D01*
X0026317Y0030082D01*
X0026435Y0029977D01*
X0026550Y0029868D01*
X0026663Y0029757D01*
X0026773Y0029643D01*
X0026880Y0029526D01*
X0026984Y0029407D01*
X0027085Y0029285D01*
X0027182Y0029160D01*
X0027277Y0029033D01*
X0027368Y0028904D01*
X0027457Y0028773D01*
X0027541Y0028639D01*
X0027623Y0028503D01*
X0027701Y0028366D01*
X0027775Y0028226D01*
X0027846Y0028084D01*
X0027914Y0027941D01*
X0027978Y0027796D01*
X0028038Y0027650D01*
X0028094Y0027502D01*
X0028147Y0027353D01*
X0028196Y0027202D01*
X0028241Y0027050D01*
X0028282Y0026897D01*
X0028320Y0026744D01*
X0028353Y0026589D01*
X0028383Y0026433D01*
X0028409Y0026277D01*
X0028430Y0026120D01*
X0028448Y0025963D01*
X0028462Y0025805D01*
X0028472Y0025647D01*
X0028478Y0025489D01*
X0028480Y0025331D01*
X0028478Y0025173D01*
X0028472Y0025015D01*
X0028462Y0024857D01*
X0028448Y0024699D01*
X0028430Y0024542D01*
X0028409Y0024385D01*
X0028383Y0024229D01*
X0028353Y0024073D01*
X0028320Y0023918D01*
X0028282Y0023765D01*
X0028241Y0023612D01*
X0028196Y0023460D01*
X0028147Y0023309D01*
X0028094Y0023160D01*
X0028038Y0023012D01*
X0027978Y0022866D01*
X0027914Y0022721D01*
X0027846Y0022578D01*
X0027775Y0022436D01*
X0027701Y0022296D01*
X0027623Y0022159D01*
X0027541Y0022023D01*
X0027457Y0021889D01*
X0027368Y0021758D01*
X0027277Y0021629D01*
X0027182Y0021502D01*
X0027085Y0021377D01*
X0026984Y0021255D01*
X0026880Y0021136D01*
X0026773Y0021019D01*
X0026663Y0020905D01*
X0026550Y0020794D01*
X0026435Y0020685D01*
X0026317Y0020580D01*
X0026196Y0020478D01*
X0026073Y0020378D01*
X0025947Y0020282D01*
X0025819Y0020189D01*
X0025689Y0020099D01*
X0025556Y0020013D01*
X0025421Y0019929D01*
X0025285Y0019850D01*
X0025146Y0019773D01*
X0025005Y0019701D01*
X0024863Y0019631D01*
X0024719Y0019566D01*
X0024573Y0019504D01*
X0024426Y0019446D01*
X0024277Y0019391D01*
X0024127Y0019340D01*
X0023976Y0019293D01*
X0023824Y0019250D01*
X0023671Y0019211D01*
X0023516Y0019175D01*
X0023361Y0019144D01*
X0023205Y0019116D01*
X0023049Y0019092D01*
X0022892Y0019072D01*
X0022734Y0019056D01*
X0022577Y0019044D01*
X0022418Y0019036D01*
X0022260Y0019032D01*
X0022102Y0019032D01*
X0021944Y0019036D01*
X0021785Y0019044D01*
X0021628Y0019056D01*
X0021470Y0019072D01*
X0021313Y0019092D01*
X0021157Y0019116D01*
X0021001Y0019144D01*
X0020846Y0019175D01*
X0020691Y0019211D01*
X0020538Y0019250D01*
X0020386Y0019293D01*
X0020235Y0019340D01*
X0020085Y0019391D01*
X0019936Y0019446D01*
X0019789Y0019504D01*
X0019643Y0019566D01*
X0019499Y0019631D01*
X0019357Y0019701D01*
X0019216Y0019773D01*
X0019077Y0019850D01*
X0018941Y0019929D01*
X0018806Y0020013D01*
X0018673Y0020099D01*
X0018543Y0020189D01*
X0018415Y0020282D01*
X0018289Y0020378D01*
X0018166Y0020478D01*
X0018045Y0020580D01*
X0017927Y0020685D01*
X0017812Y0020794D01*
X0017699Y0020905D01*
X0017589Y0021019D01*
X0017482Y0021136D01*
X0017378Y0021255D01*
X0017277Y0021377D01*
X0017180Y0021502D01*
X0017085Y0021629D01*
X0016994Y0021758D01*
X0016905Y0021889D01*
X0016821Y0022023D01*
X0016739Y0022159D01*
X0016661Y0022296D01*
X0016587Y0022436D01*
X0016516Y0022578D01*
X0016448Y0022721D01*
X0016384Y0022866D01*
X0016324Y0023012D01*
X0016268Y0023160D01*
X0016215Y0023309D01*
X0016166Y0023460D01*
X0016121Y0023612D01*
X0016080Y0023765D01*
X0016042Y0023918D01*
X0016009Y0024073D01*
X0015979Y0024229D01*
X0015953Y0024385D01*
X0015932Y0024542D01*
X0015914Y0024699D01*
X0015900Y0024857D01*
X0015890Y0025015D01*
X0015884Y0025173D01*
X0015882Y0025331D01*
X0057231Y0032331D02*
X0057233Y0032485D01*
X0057239Y0032639D01*
X0057249Y0032792D01*
X0057263Y0032945D01*
X0057281Y0033098D01*
X0057302Y0033250D01*
X0057328Y0033402D01*
X0057358Y0033553D01*
X0057391Y0033703D01*
X0057429Y0033852D01*
X0057470Y0034001D01*
X0057515Y0034148D01*
X0057564Y0034294D01*
X0057617Y0034438D01*
X0057673Y0034581D01*
X0057733Y0034723D01*
X0057797Y0034863D01*
X0057864Y0035001D01*
X0057935Y0035138D01*
X0058009Y0035273D01*
X0058087Y0035405D01*
X0058168Y0035536D01*
X0058253Y0035665D01*
X0058340Y0035791D01*
X0058431Y0035915D01*
X0058526Y0036036D01*
X0058623Y0036156D01*
X0058723Y0036272D01*
X0058827Y0036386D01*
X0058933Y0036497D01*
X0059042Y0036606D01*
X0059154Y0036711D01*
X0059269Y0036814D01*
X0059386Y0036914D01*
X0059506Y0037010D01*
X0059628Y0037104D01*
X0059752Y0037194D01*
X0059879Y0037281D01*
X0060008Y0037365D01*
X0060140Y0037445D01*
X0060273Y0037522D01*
X0060408Y0037595D01*
X0060545Y0037665D01*
X0060684Y0037732D01*
X0060824Y0037794D01*
X0060966Y0037853D01*
X0061110Y0037909D01*
X0061255Y0037961D01*
X0061401Y0038008D01*
X0061548Y0038053D01*
X0061697Y0038093D01*
X0061846Y0038129D01*
X0061997Y0038162D01*
X0062148Y0038191D01*
X0062300Y0038215D01*
X0062452Y0038236D01*
X0062605Y0038253D01*
X0062758Y0038266D01*
X0062912Y0038275D01*
X0063066Y0038280D01*
X0063219Y0038281D01*
X0063373Y0038278D01*
X0063527Y0038271D01*
X0063680Y0038260D01*
X0063834Y0038245D01*
X0063986Y0038226D01*
X0064138Y0038203D01*
X0064290Y0038177D01*
X0064441Y0038146D01*
X0064591Y0038112D01*
X0064740Y0038073D01*
X0064887Y0038031D01*
X0065034Y0037985D01*
X0065180Y0037935D01*
X0065324Y0037882D01*
X0065467Y0037824D01*
X0065608Y0037763D01*
X0065748Y0037699D01*
X0065886Y0037631D01*
X0066022Y0037559D01*
X0066156Y0037484D01*
X0066288Y0037405D01*
X0066418Y0037323D01*
X0066546Y0037238D01*
X0066672Y0037149D01*
X0066795Y0037057D01*
X0066916Y0036962D01*
X0067035Y0036864D01*
X0067151Y0036763D01*
X0067264Y0036659D01*
X0067375Y0036552D01*
X0067482Y0036442D01*
X0067587Y0036329D01*
X0067689Y0036214D01*
X0067788Y0036096D01*
X0067884Y0035976D01*
X0067977Y0035853D01*
X0068066Y0035728D01*
X0068152Y0035601D01*
X0068235Y0035471D01*
X0068315Y0035339D01*
X0068391Y0035206D01*
X0068463Y0035070D01*
X0068532Y0034932D01*
X0068598Y0034793D01*
X0068660Y0034652D01*
X0068718Y0034510D01*
X0068772Y0034366D01*
X0068823Y0034221D01*
X0068870Y0034074D01*
X0068913Y0033927D01*
X0068952Y0033778D01*
X0068988Y0033628D01*
X0069019Y0033478D01*
X0069047Y0033326D01*
X0069071Y0033174D01*
X0069091Y0033022D01*
X0069107Y0032869D01*
X0069119Y0032715D01*
X0069127Y0032562D01*
X0069131Y0032408D01*
X0069131Y0032254D01*
X0069127Y0032100D01*
X0069119Y0031947D01*
X0069107Y0031793D01*
X0069091Y0031640D01*
X0069071Y0031488D01*
X0069047Y0031336D01*
X0069019Y0031184D01*
X0068988Y0031034D01*
X0068952Y0030884D01*
X0068913Y0030735D01*
X0068870Y0030588D01*
X0068823Y0030441D01*
X0068772Y0030296D01*
X0068718Y0030152D01*
X0068660Y0030010D01*
X0068598Y0029869D01*
X0068532Y0029730D01*
X0068463Y0029592D01*
X0068391Y0029456D01*
X0068315Y0029323D01*
X0068235Y0029191D01*
X0068152Y0029061D01*
X0068066Y0028934D01*
X0067977Y0028809D01*
X0067884Y0028686D01*
X0067788Y0028566D01*
X0067689Y0028448D01*
X0067587Y0028333D01*
X0067482Y0028220D01*
X0067375Y0028110D01*
X0067264Y0028003D01*
X0067151Y0027899D01*
X0067035Y0027798D01*
X0066916Y0027700D01*
X0066795Y0027605D01*
X0066672Y0027513D01*
X0066546Y0027424D01*
X0066418Y0027339D01*
X0066288Y0027257D01*
X0066156Y0027178D01*
X0066022Y0027103D01*
X0065886Y0027031D01*
X0065748Y0026963D01*
X0065608Y0026899D01*
X0065467Y0026838D01*
X0065324Y0026780D01*
X0065180Y0026727D01*
X0065034Y0026677D01*
X0064887Y0026631D01*
X0064740Y0026589D01*
X0064591Y0026550D01*
X0064441Y0026516D01*
X0064290Y0026485D01*
X0064138Y0026459D01*
X0063986Y0026436D01*
X0063834Y0026417D01*
X0063680Y0026402D01*
X0063527Y0026391D01*
X0063373Y0026384D01*
X0063219Y0026381D01*
X0063066Y0026382D01*
X0062912Y0026387D01*
X0062758Y0026396D01*
X0062605Y0026409D01*
X0062452Y0026426D01*
X0062300Y0026447D01*
X0062148Y0026471D01*
X0061997Y0026500D01*
X0061846Y0026533D01*
X0061697Y0026569D01*
X0061548Y0026609D01*
X0061401Y0026654D01*
X0061255Y0026701D01*
X0061110Y0026753D01*
X0060966Y0026809D01*
X0060824Y0026868D01*
X0060684Y0026930D01*
X0060545Y0026997D01*
X0060408Y0027067D01*
X0060273Y0027140D01*
X0060140Y0027217D01*
X0060008Y0027297D01*
X0059879Y0027381D01*
X0059752Y0027468D01*
X0059628Y0027558D01*
X0059506Y0027652D01*
X0059386Y0027748D01*
X0059269Y0027848D01*
X0059154Y0027951D01*
X0059042Y0028056D01*
X0058933Y0028165D01*
X0058827Y0028276D01*
X0058723Y0028390D01*
X0058623Y0028506D01*
X0058526Y0028626D01*
X0058431Y0028747D01*
X0058340Y0028871D01*
X0058253Y0028997D01*
X0058168Y0029126D01*
X0058087Y0029257D01*
X0058009Y0029389D01*
X0057935Y0029524D01*
X0057864Y0029661D01*
X0057797Y0029799D01*
X0057733Y0029939D01*
X0057673Y0030081D01*
X0057617Y0030224D01*
X0057564Y0030368D01*
X0057515Y0030514D01*
X0057470Y0030661D01*
X0057429Y0030810D01*
X0057391Y0030959D01*
X0057358Y0031109D01*
X0057328Y0031260D01*
X0057302Y0031412D01*
X0057281Y0031564D01*
X0057263Y0031717D01*
X0057249Y0031870D01*
X0057239Y0032023D01*
X0057233Y0032177D01*
X0057231Y0032331D01*
X0057181Y0032331D02*
X0057183Y0032178D01*
X0057189Y0032025D01*
X0057199Y0031872D01*
X0057212Y0031719D01*
X0057230Y0031567D01*
X0057251Y0031415D01*
X0057277Y0031264D01*
X0057306Y0031114D01*
X0057339Y0030964D01*
X0057376Y0030815D01*
X0057416Y0030667D01*
X0057461Y0030521D01*
X0057509Y0030375D01*
X0057561Y0030231D01*
X0057616Y0030088D01*
X0057675Y0029947D01*
X0057738Y0029807D01*
X0057804Y0029669D01*
X0057874Y0029532D01*
X0057947Y0029398D01*
X0058024Y0029265D01*
X0058104Y0029134D01*
X0058187Y0029006D01*
X0058273Y0028879D01*
X0058363Y0028755D01*
X0058456Y0028633D01*
X0058552Y0028514D01*
X0058651Y0028397D01*
X0058753Y0028282D01*
X0058858Y0028170D01*
X0058966Y0028061D01*
X0059076Y0027955D01*
X0059189Y0027852D01*
X0059305Y0027751D01*
X0059423Y0027654D01*
X0059544Y0027559D01*
X0059667Y0027468D01*
X0059792Y0027380D01*
X0059920Y0027295D01*
X0060049Y0027213D01*
X0060181Y0027135D01*
X0060315Y0027060D01*
X0060450Y0026988D01*
X0060588Y0026920D01*
X0060727Y0026856D01*
X0060867Y0026795D01*
X0061009Y0026738D01*
X0061153Y0026684D01*
X0061298Y0026634D01*
X0061444Y0026588D01*
X0061591Y0026545D01*
X0061739Y0026507D01*
X0061889Y0026472D01*
X0062039Y0026441D01*
X0062189Y0026413D01*
X0062341Y0026390D01*
X0062493Y0026371D01*
X0062645Y0026355D01*
X0062798Y0026343D01*
X0062951Y0026335D01*
X0063104Y0026331D01*
X0063258Y0026331D01*
X0063411Y0026335D01*
X0063564Y0026343D01*
X0063717Y0026355D01*
X0063869Y0026371D01*
X0064021Y0026390D01*
X0064173Y0026413D01*
X0064323Y0026441D01*
X0064473Y0026472D01*
X0064623Y0026507D01*
X0064771Y0026545D01*
X0064918Y0026588D01*
X0065064Y0026634D01*
X0065209Y0026684D01*
X0065353Y0026738D01*
X0065495Y0026795D01*
X0065635Y0026856D01*
X0065774Y0026920D01*
X0065912Y0026988D01*
X0066047Y0027060D01*
X0066181Y0027135D01*
X0066313Y0027213D01*
X0066442Y0027295D01*
X0066570Y0027380D01*
X0066695Y0027468D01*
X0066818Y0027559D01*
X0066939Y0027654D01*
X0067057Y0027751D01*
X0067173Y0027852D01*
X0067286Y0027955D01*
X0067396Y0028061D01*
X0067504Y0028170D01*
X0067609Y0028282D01*
X0067711Y0028397D01*
X0067810Y0028514D01*
X0067906Y0028633D01*
X0067999Y0028755D01*
X0068089Y0028879D01*
X0068175Y0029006D01*
X0068258Y0029134D01*
X0068338Y0029265D01*
X0068415Y0029398D01*
X0068488Y0029532D01*
X0068558Y0029669D01*
X0068624Y0029807D01*
X0068687Y0029947D01*
X0068746Y0030088D01*
X0068801Y0030231D01*
X0068853Y0030375D01*
X0068901Y0030521D01*
X0068946Y0030667D01*
X0068986Y0030815D01*
X0069023Y0030964D01*
X0069056Y0031114D01*
X0069085Y0031264D01*
X0069111Y0031415D01*
X0069132Y0031567D01*
X0069150Y0031719D01*
X0069163Y0031872D01*
X0069173Y0032025D01*
X0069179Y0032178D01*
X0069181Y0032331D01*
X0057231Y0046331D02*
X0057233Y0046485D01*
X0057239Y0046639D01*
X0057249Y0046792D01*
X0057263Y0046945D01*
X0057281Y0047098D01*
X0057302Y0047250D01*
X0057328Y0047402D01*
X0057358Y0047553D01*
X0057391Y0047703D01*
X0057429Y0047852D01*
X0057470Y0048001D01*
X0057515Y0048148D01*
X0057564Y0048294D01*
X0057617Y0048438D01*
X0057673Y0048581D01*
X0057733Y0048723D01*
X0057797Y0048863D01*
X0057864Y0049001D01*
X0057935Y0049138D01*
X0058009Y0049273D01*
X0058087Y0049405D01*
X0058168Y0049536D01*
X0058253Y0049665D01*
X0058340Y0049791D01*
X0058431Y0049915D01*
X0058526Y0050036D01*
X0058623Y0050156D01*
X0058723Y0050272D01*
X0058827Y0050386D01*
X0058933Y0050497D01*
X0059042Y0050606D01*
X0059154Y0050711D01*
X0059269Y0050814D01*
X0059386Y0050914D01*
X0059506Y0051010D01*
X0059628Y0051104D01*
X0059752Y0051194D01*
X0059879Y0051281D01*
X0060008Y0051365D01*
X0060140Y0051445D01*
X0060273Y0051522D01*
X0060408Y0051595D01*
X0060545Y0051665D01*
X0060684Y0051732D01*
X0060824Y0051794D01*
X0060966Y0051853D01*
X0061110Y0051909D01*
X0061255Y0051961D01*
X0061401Y0052008D01*
X0061548Y0052053D01*
X0061697Y0052093D01*
X0061846Y0052129D01*
X0061997Y0052162D01*
X0062148Y0052191D01*
X0062300Y0052215D01*
X0062452Y0052236D01*
X0062605Y0052253D01*
X0062758Y0052266D01*
X0062912Y0052275D01*
X0063066Y0052280D01*
X0063219Y0052281D01*
X0063373Y0052278D01*
X0063527Y0052271D01*
X0063680Y0052260D01*
X0063834Y0052245D01*
X0063986Y0052226D01*
X0064138Y0052203D01*
X0064290Y0052177D01*
X0064441Y0052146D01*
X0064591Y0052112D01*
X0064740Y0052073D01*
X0064887Y0052031D01*
X0065034Y0051985D01*
X0065180Y0051935D01*
X0065324Y0051882D01*
X0065467Y0051824D01*
X0065608Y0051763D01*
X0065748Y0051699D01*
X0065886Y0051631D01*
X0066022Y0051559D01*
X0066156Y0051484D01*
X0066288Y0051405D01*
X0066418Y0051323D01*
X0066546Y0051238D01*
X0066672Y0051149D01*
X0066795Y0051057D01*
X0066916Y0050962D01*
X0067035Y0050864D01*
X0067151Y0050763D01*
X0067264Y0050659D01*
X0067375Y0050552D01*
X0067482Y0050442D01*
X0067587Y0050329D01*
X0067689Y0050214D01*
X0067788Y0050096D01*
X0067884Y0049976D01*
X0067977Y0049853D01*
X0068066Y0049728D01*
X0068152Y0049601D01*
X0068235Y0049471D01*
X0068315Y0049339D01*
X0068391Y0049206D01*
X0068463Y0049070D01*
X0068532Y0048932D01*
X0068598Y0048793D01*
X0068660Y0048652D01*
X0068718Y0048510D01*
X0068772Y0048366D01*
X0068823Y0048221D01*
X0068870Y0048074D01*
X0068913Y0047927D01*
X0068952Y0047778D01*
X0068988Y0047628D01*
X0069019Y0047478D01*
X0069047Y0047326D01*
X0069071Y0047174D01*
X0069091Y0047022D01*
X0069107Y0046869D01*
X0069119Y0046715D01*
X0069127Y0046562D01*
X0069131Y0046408D01*
X0069131Y0046254D01*
X0069127Y0046100D01*
X0069119Y0045947D01*
X0069107Y0045793D01*
X0069091Y0045640D01*
X0069071Y0045488D01*
X0069047Y0045336D01*
X0069019Y0045184D01*
X0068988Y0045034D01*
X0068952Y0044884D01*
X0068913Y0044735D01*
X0068870Y0044588D01*
X0068823Y0044441D01*
X0068772Y0044296D01*
X0068718Y0044152D01*
X0068660Y0044010D01*
X0068598Y0043869D01*
X0068532Y0043730D01*
X0068463Y0043592D01*
X0068391Y0043456D01*
X0068315Y0043323D01*
X0068235Y0043191D01*
X0068152Y0043061D01*
X0068066Y0042934D01*
X0067977Y0042809D01*
X0067884Y0042686D01*
X0067788Y0042566D01*
X0067689Y0042448D01*
X0067587Y0042333D01*
X0067482Y0042220D01*
X0067375Y0042110D01*
X0067264Y0042003D01*
X0067151Y0041899D01*
X0067035Y0041798D01*
X0066916Y0041700D01*
X0066795Y0041605D01*
X0066672Y0041513D01*
X0066546Y0041424D01*
X0066418Y0041339D01*
X0066288Y0041257D01*
X0066156Y0041178D01*
X0066022Y0041103D01*
X0065886Y0041031D01*
X0065748Y0040963D01*
X0065608Y0040899D01*
X0065467Y0040838D01*
X0065324Y0040780D01*
X0065180Y0040727D01*
X0065034Y0040677D01*
X0064887Y0040631D01*
X0064740Y0040589D01*
X0064591Y0040550D01*
X0064441Y0040516D01*
X0064290Y0040485D01*
X0064138Y0040459D01*
X0063986Y0040436D01*
X0063834Y0040417D01*
X0063680Y0040402D01*
X0063527Y0040391D01*
X0063373Y0040384D01*
X0063219Y0040381D01*
X0063066Y0040382D01*
X0062912Y0040387D01*
X0062758Y0040396D01*
X0062605Y0040409D01*
X0062452Y0040426D01*
X0062300Y0040447D01*
X0062148Y0040471D01*
X0061997Y0040500D01*
X0061846Y0040533D01*
X0061697Y0040569D01*
X0061548Y0040609D01*
X0061401Y0040654D01*
X0061255Y0040701D01*
X0061110Y0040753D01*
X0060966Y0040809D01*
X0060824Y0040868D01*
X0060684Y0040930D01*
X0060545Y0040997D01*
X0060408Y0041067D01*
X0060273Y0041140D01*
X0060140Y0041217D01*
X0060008Y0041297D01*
X0059879Y0041381D01*
X0059752Y0041468D01*
X0059628Y0041558D01*
X0059506Y0041652D01*
X0059386Y0041748D01*
X0059269Y0041848D01*
X0059154Y0041951D01*
X0059042Y0042056D01*
X0058933Y0042165D01*
X0058827Y0042276D01*
X0058723Y0042390D01*
X0058623Y0042506D01*
X0058526Y0042626D01*
X0058431Y0042747D01*
X0058340Y0042871D01*
X0058253Y0042997D01*
X0058168Y0043126D01*
X0058087Y0043257D01*
X0058009Y0043389D01*
X0057935Y0043524D01*
X0057864Y0043661D01*
X0057797Y0043799D01*
X0057733Y0043939D01*
X0057673Y0044081D01*
X0057617Y0044224D01*
X0057564Y0044368D01*
X0057515Y0044514D01*
X0057470Y0044661D01*
X0057429Y0044810D01*
X0057391Y0044959D01*
X0057358Y0045109D01*
X0057328Y0045260D01*
X0057302Y0045412D01*
X0057281Y0045564D01*
X0057263Y0045717D01*
X0057249Y0045870D01*
X0057239Y0046023D01*
X0057233Y0046177D01*
X0057231Y0046331D01*
X0057181Y0046331D02*
X0057183Y0046484D01*
X0057189Y0046637D01*
X0057199Y0046790D01*
X0057212Y0046943D01*
X0057230Y0047095D01*
X0057251Y0047247D01*
X0057277Y0047398D01*
X0057306Y0047548D01*
X0057339Y0047698D01*
X0057376Y0047847D01*
X0057416Y0047995D01*
X0057461Y0048141D01*
X0057509Y0048287D01*
X0057561Y0048431D01*
X0057616Y0048574D01*
X0057675Y0048715D01*
X0057738Y0048855D01*
X0057804Y0048993D01*
X0057874Y0049130D01*
X0057947Y0049264D01*
X0058024Y0049397D01*
X0058104Y0049528D01*
X0058187Y0049656D01*
X0058273Y0049783D01*
X0058363Y0049907D01*
X0058456Y0050029D01*
X0058552Y0050148D01*
X0058651Y0050265D01*
X0058753Y0050380D01*
X0058858Y0050492D01*
X0058966Y0050601D01*
X0059076Y0050707D01*
X0059189Y0050810D01*
X0059305Y0050911D01*
X0059423Y0051008D01*
X0059544Y0051103D01*
X0059667Y0051194D01*
X0059792Y0051282D01*
X0059920Y0051367D01*
X0060049Y0051449D01*
X0060181Y0051527D01*
X0060315Y0051602D01*
X0060450Y0051674D01*
X0060588Y0051742D01*
X0060727Y0051806D01*
X0060867Y0051867D01*
X0061009Y0051924D01*
X0061153Y0051978D01*
X0061298Y0052028D01*
X0061444Y0052074D01*
X0061591Y0052117D01*
X0061739Y0052155D01*
X0061889Y0052190D01*
X0062039Y0052221D01*
X0062189Y0052249D01*
X0062341Y0052272D01*
X0062493Y0052291D01*
X0062645Y0052307D01*
X0062798Y0052319D01*
X0062951Y0052327D01*
X0063104Y0052331D01*
X0063258Y0052331D01*
X0063411Y0052327D01*
X0063564Y0052319D01*
X0063717Y0052307D01*
X0063869Y0052291D01*
X0064021Y0052272D01*
X0064173Y0052249D01*
X0064323Y0052221D01*
X0064473Y0052190D01*
X0064623Y0052155D01*
X0064771Y0052117D01*
X0064918Y0052074D01*
X0065064Y0052028D01*
X0065209Y0051978D01*
X0065353Y0051924D01*
X0065495Y0051867D01*
X0065635Y0051806D01*
X0065774Y0051742D01*
X0065912Y0051674D01*
X0066047Y0051602D01*
X0066181Y0051527D01*
X0066313Y0051449D01*
X0066442Y0051367D01*
X0066570Y0051282D01*
X0066695Y0051194D01*
X0066818Y0051103D01*
X0066939Y0051008D01*
X0067057Y0050911D01*
X0067173Y0050810D01*
X0067286Y0050707D01*
X0067396Y0050601D01*
X0067504Y0050492D01*
X0067609Y0050380D01*
X0067711Y0050265D01*
X0067810Y0050148D01*
X0067906Y0050029D01*
X0067999Y0049907D01*
X0068089Y0049783D01*
X0068175Y0049656D01*
X0068258Y0049528D01*
X0068338Y0049397D01*
X0068415Y0049264D01*
X0068488Y0049130D01*
X0068558Y0048993D01*
X0068624Y0048855D01*
X0068687Y0048715D01*
X0068746Y0048574D01*
X0068801Y0048431D01*
X0068853Y0048287D01*
X0068901Y0048141D01*
X0068946Y0047995D01*
X0068986Y0047847D01*
X0069023Y0047698D01*
X0069056Y0047548D01*
X0069085Y0047398D01*
X0069111Y0047247D01*
X0069132Y0047095D01*
X0069150Y0046943D01*
X0069163Y0046790D01*
X0069173Y0046637D01*
X0069179Y0046484D01*
X0069181Y0046331D01*
X0065681Y0110898D02*
X0065683Y0111059D01*
X0065689Y0111219D01*
X0065699Y0111380D01*
X0065713Y0111540D01*
X0065731Y0111700D01*
X0065752Y0111859D01*
X0065778Y0112018D01*
X0065808Y0112176D01*
X0065841Y0112333D01*
X0065879Y0112490D01*
X0065920Y0112645D01*
X0065965Y0112799D01*
X0066014Y0112952D01*
X0066067Y0113104D01*
X0066123Y0113255D01*
X0066184Y0113404D01*
X0066247Y0113552D01*
X0066315Y0113698D01*
X0066386Y0113842D01*
X0066460Y0113984D01*
X0066538Y0114125D01*
X0066620Y0114263D01*
X0066705Y0114400D01*
X0066793Y0114534D01*
X0066885Y0114666D01*
X0066980Y0114796D01*
X0067078Y0114924D01*
X0067179Y0115049D01*
X0067283Y0115171D01*
X0067390Y0115291D01*
X0067500Y0115408D01*
X0067613Y0115523D01*
X0067729Y0115634D01*
X0067848Y0115743D01*
X0067969Y0115848D01*
X0068093Y0115951D01*
X0068219Y0116051D01*
X0068347Y0116147D01*
X0068478Y0116240D01*
X0068612Y0116330D01*
X0068747Y0116417D01*
X0068885Y0116500D01*
X0069024Y0116580D01*
X0069166Y0116656D01*
X0069309Y0116729D01*
X0069454Y0116798D01*
X0069601Y0116864D01*
X0069749Y0116926D01*
X0069899Y0116984D01*
X0070050Y0117039D01*
X0070203Y0117090D01*
X0070357Y0117137D01*
X0070512Y0117180D01*
X0070668Y0117219D01*
X0070824Y0117255D01*
X0070982Y0117286D01*
X0071140Y0117314D01*
X0071299Y0117338D01*
X0071459Y0117358D01*
X0071619Y0117374D01*
X0071779Y0117386D01*
X0071940Y0117394D01*
X0072101Y0117398D01*
X0072261Y0117398D01*
X0072422Y0117394D01*
X0072583Y0117386D01*
X0072743Y0117374D01*
X0072903Y0117358D01*
X0073063Y0117338D01*
X0073222Y0117314D01*
X0073380Y0117286D01*
X0073538Y0117255D01*
X0073694Y0117219D01*
X0073850Y0117180D01*
X0074005Y0117137D01*
X0074159Y0117090D01*
X0074312Y0117039D01*
X0074463Y0116984D01*
X0074613Y0116926D01*
X0074761Y0116864D01*
X0074908Y0116798D01*
X0075053Y0116729D01*
X0075196Y0116656D01*
X0075338Y0116580D01*
X0075477Y0116500D01*
X0075615Y0116417D01*
X0075750Y0116330D01*
X0075884Y0116240D01*
X0076015Y0116147D01*
X0076143Y0116051D01*
X0076269Y0115951D01*
X0076393Y0115848D01*
X0076514Y0115743D01*
X0076633Y0115634D01*
X0076749Y0115523D01*
X0076862Y0115408D01*
X0076972Y0115291D01*
X0077079Y0115171D01*
X0077183Y0115049D01*
X0077284Y0114924D01*
X0077382Y0114796D01*
X0077477Y0114666D01*
X0077569Y0114534D01*
X0077657Y0114400D01*
X0077742Y0114263D01*
X0077824Y0114125D01*
X0077902Y0113984D01*
X0077976Y0113842D01*
X0078047Y0113698D01*
X0078115Y0113552D01*
X0078178Y0113404D01*
X0078239Y0113255D01*
X0078295Y0113104D01*
X0078348Y0112952D01*
X0078397Y0112799D01*
X0078442Y0112645D01*
X0078483Y0112490D01*
X0078521Y0112333D01*
X0078554Y0112176D01*
X0078584Y0112018D01*
X0078610Y0111859D01*
X0078631Y0111700D01*
X0078649Y0111540D01*
X0078663Y0111380D01*
X0078673Y0111219D01*
X0078679Y0111059D01*
X0078681Y0110898D01*
X0078679Y0110737D01*
X0078673Y0110577D01*
X0078663Y0110416D01*
X0078649Y0110256D01*
X0078631Y0110096D01*
X0078610Y0109937D01*
X0078584Y0109778D01*
X0078554Y0109620D01*
X0078521Y0109463D01*
X0078483Y0109306D01*
X0078442Y0109151D01*
X0078397Y0108997D01*
X0078348Y0108844D01*
X0078295Y0108692D01*
X0078239Y0108541D01*
X0078178Y0108392D01*
X0078115Y0108244D01*
X0078047Y0108098D01*
X0077976Y0107954D01*
X0077902Y0107812D01*
X0077824Y0107671D01*
X0077742Y0107533D01*
X0077657Y0107396D01*
X0077569Y0107262D01*
X0077477Y0107130D01*
X0077382Y0107000D01*
X0077284Y0106872D01*
X0077183Y0106747D01*
X0077079Y0106625D01*
X0076972Y0106505D01*
X0076862Y0106388D01*
X0076749Y0106273D01*
X0076633Y0106162D01*
X0076514Y0106053D01*
X0076393Y0105948D01*
X0076269Y0105845D01*
X0076143Y0105745D01*
X0076015Y0105649D01*
X0075884Y0105556D01*
X0075750Y0105466D01*
X0075615Y0105379D01*
X0075477Y0105296D01*
X0075338Y0105216D01*
X0075196Y0105140D01*
X0075053Y0105067D01*
X0074908Y0104998D01*
X0074761Y0104932D01*
X0074613Y0104870D01*
X0074463Y0104812D01*
X0074312Y0104757D01*
X0074159Y0104706D01*
X0074005Y0104659D01*
X0073850Y0104616D01*
X0073694Y0104577D01*
X0073538Y0104541D01*
X0073380Y0104510D01*
X0073222Y0104482D01*
X0073063Y0104458D01*
X0072903Y0104438D01*
X0072743Y0104422D01*
X0072583Y0104410D01*
X0072422Y0104402D01*
X0072261Y0104398D01*
X0072101Y0104398D01*
X0071940Y0104402D01*
X0071779Y0104410D01*
X0071619Y0104422D01*
X0071459Y0104438D01*
X0071299Y0104458D01*
X0071140Y0104482D01*
X0070982Y0104510D01*
X0070824Y0104541D01*
X0070668Y0104577D01*
X0070512Y0104616D01*
X0070357Y0104659D01*
X0070203Y0104706D01*
X0070050Y0104757D01*
X0069899Y0104812D01*
X0069749Y0104870D01*
X0069601Y0104932D01*
X0069454Y0104998D01*
X0069309Y0105067D01*
X0069166Y0105140D01*
X0069024Y0105216D01*
X0068885Y0105296D01*
X0068747Y0105379D01*
X0068612Y0105466D01*
X0068478Y0105556D01*
X0068347Y0105649D01*
X0068219Y0105745D01*
X0068093Y0105845D01*
X0067969Y0105948D01*
X0067848Y0106053D01*
X0067729Y0106162D01*
X0067613Y0106273D01*
X0067500Y0106388D01*
X0067390Y0106505D01*
X0067283Y0106625D01*
X0067179Y0106747D01*
X0067078Y0106872D01*
X0066980Y0107000D01*
X0066885Y0107130D01*
X0066793Y0107262D01*
X0066705Y0107396D01*
X0066620Y0107533D01*
X0066538Y0107671D01*
X0066460Y0107812D01*
X0066386Y0107954D01*
X0066315Y0108098D01*
X0066247Y0108244D01*
X0066184Y0108392D01*
X0066123Y0108541D01*
X0066067Y0108692D01*
X0066014Y0108844D01*
X0065965Y0108997D01*
X0065920Y0109151D01*
X0065879Y0109306D01*
X0065841Y0109463D01*
X0065808Y0109620D01*
X0065778Y0109778D01*
X0065752Y0109937D01*
X0065731Y0110096D01*
X0065713Y0110256D01*
X0065699Y0110416D01*
X0065689Y0110577D01*
X0065683Y0110737D01*
X0065681Y0110898D01*
X0011945Y0251709D02*
X0011947Y0251867D01*
X0011953Y0252025D01*
X0011963Y0252183D01*
X0011977Y0252341D01*
X0011995Y0252498D01*
X0012016Y0252655D01*
X0012042Y0252811D01*
X0012072Y0252967D01*
X0012105Y0253122D01*
X0012143Y0253275D01*
X0012184Y0253428D01*
X0012229Y0253580D01*
X0012278Y0253731D01*
X0012331Y0253880D01*
X0012387Y0254028D01*
X0012447Y0254174D01*
X0012511Y0254319D01*
X0012579Y0254462D01*
X0012650Y0254604D01*
X0012724Y0254744D01*
X0012802Y0254881D01*
X0012884Y0255017D01*
X0012968Y0255151D01*
X0013057Y0255282D01*
X0013148Y0255411D01*
X0013243Y0255538D01*
X0013340Y0255663D01*
X0013441Y0255785D01*
X0013545Y0255904D01*
X0013652Y0256021D01*
X0013762Y0256135D01*
X0013875Y0256246D01*
X0013990Y0256355D01*
X0014108Y0256460D01*
X0014229Y0256562D01*
X0014352Y0256662D01*
X0014478Y0256758D01*
X0014606Y0256851D01*
X0014736Y0256941D01*
X0014869Y0257027D01*
X0015004Y0257111D01*
X0015140Y0257190D01*
X0015279Y0257267D01*
X0015420Y0257339D01*
X0015562Y0257409D01*
X0015706Y0257474D01*
X0015852Y0257536D01*
X0015999Y0257594D01*
X0016148Y0257649D01*
X0016298Y0257700D01*
X0016449Y0257747D01*
X0016601Y0257790D01*
X0016754Y0257829D01*
X0016909Y0257865D01*
X0017064Y0257896D01*
X0017220Y0257924D01*
X0017376Y0257948D01*
X0017533Y0257968D01*
X0017691Y0257984D01*
X0017848Y0257996D01*
X0018007Y0258004D01*
X0018165Y0258008D01*
X0018323Y0258008D01*
X0018481Y0258004D01*
X0018640Y0257996D01*
X0018797Y0257984D01*
X0018955Y0257968D01*
X0019112Y0257948D01*
X0019268Y0257924D01*
X0019424Y0257896D01*
X0019579Y0257865D01*
X0019734Y0257829D01*
X0019887Y0257790D01*
X0020039Y0257747D01*
X0020190Y0257700D01*
X0020340Y0257649D01*
X0020489Y0257594D01*
X0020636Y0257536D01*
X0020782Y0257474D01*
X0020926Y0257409D01*
X0021068Y0257339D01*
X0021209Y0257267D01*
X0021348Y0257190D01*
X0021484Y0257111D01*
X0021619Y0257027D01*
X0021752Y0256941D01*
X0021882Y0256851D01*
X0022010Y0256758D01*
X0022136Y0256662D01*
X0022259Y0256562D01*
X0022380Y0256460D01*
X0022498Y0256355D01*
X0022613Y0256246D01*
X0022726Y0256135D01*
X0022836Y0256021D01*
X0022943Y0255904D01*
X0023047Y0255785D01*
X0023148Y0255663D01*
X0023245Y0255538D01*
X0023340Y0255411D01*
X0023431Y0255282D01*
X0023520Y0255151D01*
X0023604Y0255017D01*
X0023686Y0254881D01*
X0023764Y0254744D01*
X0023838Y0254604D01*
X0023909Y0254462D01*
X0023977Y0254319D01*
X0024041Y0254174D01*
X0024101Y0254028D01*
X0024157Y0253880D01*
X0024210Y0253731D01*
X0024259Y0253580D01*
X0024304Y0253428D01*
X0024345Y0253275D01*
X0024383Y0253122D01*
X0024416Y0252967D01*
X0024446Y0252811D01*
X0024472Y0252655D01*
X0024493Y0252498D01*
X0024511Y0252341D01*
X0024525Y0252183D01*
X0024535Y0252025D01*
X0024541Y0251867D01*
X0024543Y0251709D01*
X0024541Y0251551D01*
X0024535Y0251393D01*
X0024525Y0251235D01*
X0024511Y0251077D01*
X0024493Y0250920D01*
X0024472Y0250763D01*
X0024446Y0250607D01*
X0024416Y0250451D01*
X0024383Y0250296D01*
X0024345Y0250143D01*
X0024304Y0249990D01*
X0024259Y0249838D01*
X0024210Y0249687D01*
X0024157Y0249538D01*
X0024101Y0249390D01*
X0024041Y0249244D01*
X0023977Y0249099D01*
X0023909Y0248956D01*
X0023838Y0248814D01*
X0023764Y0248674D01*
X0023686Y0248537D01*
X0023604Y0248401D01*
X0023520Y0248267D01*
X0023431Y0248136D01*
X0023340Y0248007D01*
X0023245Y0247880D01*
X0023148Y0247755D01*
X0023047Y0247633D01*
X0022943Y0247514D01*
X0022836Y0247397D01*
X0022726Y0247283D01*
X0022613Y0247172D01*
X0022498Y0247063D01*
X0022380Y0246958D01*
X0022259Y0246856D01*
X0022136Y0246756D01*
X0022010Y0246660D01*
X0021882Y0246567D01*
X0021752Y0246477D01*
X0021619Y0246391D01*
X0021484Y0246307D01*
X0021348Y0246228D01*
X0021209Y0246151D01*
X0021068Y0246079D01*
X0020926Y0246009D01*
X0020782Y0245944D01*
X0020636Y0245882D01*
X0020489Y0245824D01*
X0020340Y0245769D01*
X0020190Y0245718D01*
X0020039Y0245671D01*
X0019887Y0245628D01*
X0019734Y0245589D01*
X0019579Y0245553D01*
X0019424Y0245522D01*
X0019268Y0245494D01*
X0019112Y0245470D01*
X0018955Y0245450D01*
X0018797Y0245434D01*
X0018640Y0245422D01*
X0018481Y0245414D01*
X0018323Y0245410D01*
X0018165Y0245410D01*
X0018007Y0245414D01*
X0017848Y0245422D01*
X0017691Y0245434D01*
X0017533Y0245450D01*
X0017376Y0245470D01*
X0017220Y0245494D01*
X0017064Y0245522D01*
X0016909Y0245553D01*
X0016754Y0245589D01*
X0016601Y0245628D01*
X0016449Y0245671D01*
X0016298Y0245718D01*
X0016148Y0245769D01*
X0015999Y0245824D01*
X0015852Y0245882D01*
X0015706Y0245944D01*
X0015562Y0246009D01*
X0015420Y0246079D01*
X0015279Y0246151D01*
X0015140Y0246228D01*
X0015004Y0246307D01*
X0014869Y0246391D01*
X0014736Y0246477D01*
X0014606Y0246567D01*
X0014478Y0246660D01*
X0014352Y0246756D01*
X0014229Y0246856D01*
X0014108Y0246958D01*
X0013990Y0247063D01*
X0013875Y0247172D01*
X0013762Y0247283D01*
X0013652Y0247397D01*
X0013545Y0247514D01*
X0013441Y0247633D01*
X0013340Y0247755D01*
X0013243Y0247880D01*
X0013148Y0248007D01*
X0013057Y0248136D01*
X0012968Y0248267D01*
X0012884Y0248401D01*
X0012802Y0248537D01*
X0012724Y0248674D01*
X0012650Y0248814D01*
X0012579Y0248956D01*
X0012511Y0249099D01*
X0012447Y0249244D01*
X0012387Y0249390D01*
X0012331Y0249538D01*
X0012278Y0249687D01*
X0012229Y0249838D01*
X0012184Y0249990D01*
X0012143Y0250143D01*
X0012105Y0250296D01*
X0012072Y0250451D01*
X0012042Y0250607D01*
X0012016Y0250763D01*
X0011995Y0250920D01*
X0011977Y0251077D01*
X0011963Y0251235D01*
X0011953Y0251393D01*
X0011947Y0251551D01*
X0011945Y0251709D01*
X0265231Y0046331D02*
X0265233Y0046485D01*
X0265239Y0046639D01*
X0265249Y0046792D01*
X0265263Y0046945D01*
X0265281Y0047098D01*
X0265302Y0047250D01*
X0265328Y0047402D01*
X0265358Y0047553D01*
X0265391Y0047703D01*
X0265429Y0047852D01*
X0265470Y0048001D01*
X0265515Y0048148D01*
X0265564Y0048294D01*
X0265617Y0048438D01*
X0265673Y0048581D01*
X0265733Y0048723D01*
X0265797Y0048863D01*
X0265864Y0049001D01*
X0265935Y0049138D01*
X0266009Y0049273D01*
X0266087Y0049405D01*
X0266168Y0049536D01*
X0266253Y0049665D01*
X0266340Y0049791D01*
X0266431Y0049915D01*
X0266526Y0050036D01*
X0266623Y0050156D01*
X0266723Y0050272D01*
X0266827Y0050386D01*
X0266933Y0050497D01*
X0267042Y0050606D01*
X0267154Y0050711D01*
X0267269Y0050814D01*
X0267386Y0050914D01*
X0267506Y0051010D01*
X0267628Y0051104D01*
X0267752Y0051194D01*
X0267879Y0051281D01*
X0268008Y0051365D01*
X0268140Y0051445D01*
X0268273Y0051522D01*
X0268408Y0051595D01*
X0268545Y0051665D01*
X0268684Y0051732D01*
X0268824Y0051794D01*
X0268966Y0051853D01*
X0269110Y0051909D01*
X0269255Y0051961D01*
X0269401Y0052008D01*
X0269548Y0052053D01*
X0269697Y0052093D01*
X0269846Y0052129D01*
X0269997Y0052162D01*
X0270148Y0052191D01*
X0270300Y0052215D01*
X0270452Y0052236D01*
X0270605Y0052253D01*
X0270758Y0052266D01*
X0270912Y0052275D01*
X0271066Y0052280D01*
X0271219Y0052281D01*
X0271373Y0052278D01*
X0271527Y0052271D01*
X0271680Y0052260D01*
X0271834Y0052245D01*
X0271986Y0052226D01*
X0272138Y0052203D01*
X0272290Y0052177D01*
X0272441Y0052146D01*
X0272591Y0052112D01*
X0272740Y0052073D01*
X0272887Y0052031D01*
X0273034Y0051985D01*
X0273180Y0051935D01*
X0273324Y0051882D01*
X0273467Y0051824D01*
X0273608Y0051763D01*
X0273748Y0051699D01*
X0273886Y0051631D01*
X0274022Y0051559D01*
X0274156Y0051484D01*
X0274288Y0051405D01*
X0274418Y0051323D01*
X0274546Y0051238D01*
X0274672Y0051149D01*
X0274795Y0051057D01*
X0274916Y0050962D01*
X0275035Y0050864D01*
X0275151Y0050763D01*
X0275264Y0050659D01*
X0275375Y0050552D01*
X0275482Y0050442D01*
X0275587Y0050329D01*
X0275689Y0050214D01*
X0275788Y0050096D01*
X0275884Y0049976D01*
X0275977Y0049853D01*
X0276066Y0049728D01*
X0276152Y0049601D01*
X0276235Y0049471D01*
X0276315Y0049339D01*
X0276391Y0049206D01*
X0276463Y0049070D01*
X0276532Y0048932D01*
X0276598Y0048793D01*
X0276660Y0048652D01*
X0276718Y0048510D01*
X0276772Y0048366D01*
X0276823Y0048221D01*
X0276870Y0048074D01*
X0276913Y0047927D01*
X0276952Y0047778D01*
X0276988Y0047628D01*
X0277019Y0047478D01*
X0277047Y0047326D01*
X0277071Y0047174D01*
X0277091Y0047022D01*
X0277107Y0046869D01*
X0277119Y0046715D01*
X0277127Y0046562D01*
X0277131Y0046408D01*
X0277131Y0046254D01*
X0277127Y0046100D01*
X0277119Y0045947D01*
X0277107Y0045793D01*
X0277091Y0045640D01*
X0277071Y0045488D01*
X0277047Y0045336D01*
X0277019Y0045184D01*
X0276988Y0045034D01*
X0276952Y0044884D01*
X0276913Y0044735D01*
X0276870Y0044588D01*
X0276823Y0044441D01*
X0276772Y0044296D01*
X0276718Y0044152D01*
X0276660Y0044010D01*
X0276598Y0043869D01*
X0276532Y0043730D01*
X0276463Y0043592D01*
X0276391Y0043456D01*
X0276315Y0043323D01*
X0276235Y0043191D01*
X0276152Y0043061D01*
X0276066Y0042934D01*
X0275977Y0042809D01*
X0275884Y0042686D01*
X0275788Y0042566D01*
X0275689Y0042448D01*
X0275587Y0042333D01*
X0275482Y0042220D01*
X0275375Y0042110D01*
X0275264Y0042003D01*
X0275151Y0041899D01*
X0275035Y0041798D01*
X0274916Y0041700D01*
X0274795Y0041605D01*
X0274672Y0041513D01*
X0274546Y0041424D01*
X0274418Y0041339D01*
X0274288Y0041257D01*
X0274156Y0041178D01*
X0274022Y0041103D01*
X0273886Y0041031D01*
X0273748Y0040963D01*
X0273608Y0040899D01*
X0273467Y0040838D01*
X0273324Y0040780D01*
X0273180Y0040727D01*
X0273034Y0040677D01*
X0272887Y0040631D01*
X0272740Y0040589D01*
X0272591Y0040550D01*
X0272441Y0040516D01*
X0272290Y0040485D01*
X0272138Y0040459D01*
X0271986Y0040436D01*
X0271834Y0040417D01*
X0271680Y0040402D01*
X0271527Y0040391D01*
X0271373Y0040384D01*
X0271219Y0040381D01*
X0271066Y0040382D01*
X0270912Y0040387D01*
X0270758Y0040396D01*
X0270605Y0040409D01*
X0270452Y0040426D01*
X0270300Y0040447D01*
X0270148Y0040471D01*
X0269997Y0040500D01*
X0269846Y0040533D01*
X0269697Y0040569D01*
X0269548Y0040609D01*
X0269401Y0040654D01*
X0269255Y0040701D01*
X0269110Y0040753D01*
X0268966Y0040809D01*
X0268824Y0040868D01*
X0268684Y0040930D01*
X0268545Y0040997D01*
X0268408Y0041067D01*
X0268273Y0041140D01*
X0268140Y0041217D01*
X0268008Y0041297D01*
X0267879Y0041381D01*
X0267752Y0041468D01*
X0267628Y0041558D01*
X0267506Y0041652D01*
X0267386Y0041748D01*
X0267269Y0041848D01*
X0267154Y0041951D01*
X0267042Y0042056D01*
X0266933Y0042165D01*
X0266827Y0042276D01*
X0266723Y0042390D01*
X0266623Y0042506D01*
X0266526Y0042626D01*
X0266431Y0042747D01*
X0266340Y0042871D01*
X0266253Y0042997D01*
X0266168Y0043126D01*
X0266087Y0043257D01*
X0266009Y0043389D01*
X0265935Y0043524D01*
X0265864Y0043661D01*
X0265797Y0043799D01*
X0265733Y0043939D01*
X0265673Y0044081D01*
X0265617Y0044224D01*
X0265564Y0044368D01*
X0265515Y0044514D01*
X0265470Y0044661D01*
X0265429Y0044810D01*
X0265391Y0044959D01*
X0265358Y0045109D01*
X0265328Y0045260D01*
X0265302Y0045412D01*
X0265281Y0045564D01*
X0265263Y0045717D01*
X0265249Y0045870D01*
X0265239Y0046023D01*
X0265233Y0046177D01*
X0265231Y0046331D01*
X0265181Y0046331D02*
X0265183Y0046484D01*
X0265189Y0046637D01*
X0265199Y0046790D01*
X0265212Y0046943D01*
X0265230Y0047095D01*
X0265251Y0047247D01*
X0265277Y0047398D01*
X0265306Y0047548D01*
X0265339Y0047698D01*
X0265376Y0047847D01*
X0265416Y0047995D01*
X0265461Y0048141D01*
X0265509Y0048287D01*
X0265561Y0048431D01*
X0265616Y0048574D01*
X0265675Y0048715D01*
X0265738Y0048855D01*
X0265804Y0048993D01*
X0265874Y0049130D01*
X0265947Y0049264D01*
X0266024Y0049397D01*
X0266104Y0049528D01*
X0266187Y0049656D01*
X0266273Y0049783D01*
X0266363Y0049907D01*
X0266456Y0050029D01*
X0266552Y0050148D01*
X0266651Y0050265D01*
X0266753Y0050380D01*
X0266858Y0050492D01*
X0266966Y0050601D01*
X0267076Y0050707D01*
X0267189Y0050810D01*
X0267305Y0050911D01*
X0267423Y0051008D01*
X0267544Y0051103D01*
X0267667Y0051194D01*
X0267792Y0051282D01*
X0267920Y0051367D01*
X0268049Y0051449D01*
X0268181Y0051527D01*
X0268315Y0051602D01*
X0268450Y0051674D01*
X0268588Y0051742D01*
X0268727Y0051806D01*
X0268867Y0051867D01*
X0269009Y0051924D01*
X0269153Y0051978D01*
X0269298Y0052028D01*
X0269444Y0052074D01*
X0269591Y0052117D01*
X0269739Y0052155D01*
X0269889Y0052190D01*
X0270039Y0052221D01*
X0270189Y0052249D01*
X0270341Y0052272D01*
X0270493Y0052291D01*
X0270645Y0052307D01*
X0270798Y0052319D01*
X0270951Y0052327D01*
X0271104Y0052331D01*
X0271258Y0052331D01*
X0271411Y0052327D01*
X0271564Y0052319D01*
X0271717Y0052307D01*
X0271869Y0052291D01*
X0272021Y0052272D01*
X0272173Y0052249D01*
X0272323Y0052221D01*
X0272473Y0052190D01*
X0272623Y0052155D01*
X0272771Y0052117D01*
X0272918Y0052074D01*
X0273064Y0052028D01*
X0273209Y0051978D01*
X0273353Y0051924D01*
X0273495Y0051867D01*
X0273635Y0051806D01*
X0273774Y0051742D01*
X0273912Y0051674D01*
X0274047Y0051602D01*
X0274181Y0051527D01*
X0274313Y0051449D01*
X0274442Y0051367D01*
X0274570Y0051282D01*
X0274695Y0051194D01*
X0274818Y0051103D01*
X0274939Y0051008D01*
X0275057Y0050911D01*
X0275173Y0050810D01*
X0275286Y0050707D01*
X0275396Y0050601D01*
X0275504Y0050492D01*
X0275609Y0050380D01*
X0275711Y0050265D01*
X0275810Y0050148D01*
X0275906Y0050029D01*
X0275999Y0049907D01*
X0276089Y0049783D01*
X0276175Y0049656D01*
X0276258Y0049528D01*
X0276338Y0049397D01*
X0276415Y0049264D01*
X0276488Y0049130D01*
X0276558Y0048993D01*
X0276624Y0048855D01*
X0276687Y0048715D01*
X0276746Y0048574D01*
X0276801Y0048431D01*
X0276853Y0048287D01*
X0276901Y0048141D01*
X0276946Y0047995D01*
X0276986Y0047847D01*
X0277023Y0047698D01*
X0277056Y0047548D01*
X0277085Y0047398D01*
X0277111Y0047247D01*
X0277132Y0047095D01*
X0277150Y0046943D01*
X0277163Y0046790D01*
X0277173Y0046637D01*
X0277179Y0046484D01*
X0277181Y0046331D01*
X0265231Y0032331D02*
X0265233Y0032485D01*
X0265239Y0032639D01*
X0265249Y0032792D01*
X0265263Y0032945D01*
X0265281Y0033098D01*
X0265302Y0033250D01*
X0265328Y0033402D01*
X0265358Y0033553D01*
X0265391Y0033703D01*
X0265429Y0033852D01*
X0265470Y0034001D01*
X0265515Y0034148D01*
X0265564Y0034294D01*
X0265617Y0034438D01*
X0265673Y0034581D01*
X0265733Y0034723D01*
X0265797Y0034863D01*
X0265864Y0035001D01*
X0265935Y0035138D01*
X0266009Y0035273D01*
X0266087Y0035405D01*
X0266168Y0035536D01*
X0266253Y0035665D01*
X0266340Y0035791D01*
X0266431Y0035915D01*
X0266526Y0036036D01*
X0266623Y0036156D01*
X0266723Y0036272D01*
X0266827Y0036386D01*
X0266933Y0036497D01*
X0267042Y0036606D01*
X0267154Y0036711D01*
X0267269Y0036814D01*
X0267386Y0036914D01*
X0267506Y0037010D01*
X0267628Y0037104D01*
X0267752Y0037194D01*
X0267879Y0037281D01*
X0268008Y0037365D01*
X0268140Y0037445D01*
X0268273Y0037522D01*
X0268408Y0037595D01*
X0268545Y0037665D01*
X0268684Y0037732D01*
X0268824Y0037794D01*
X0268966Y0037853D01*
X0269110Y0037909D01*
X0269255Y0037961D01*
X0269401Y0038008D01*
X0269548Y0038053D01*
X0269697Y0038093D01*
X0269846Y0038129D01*
X0269997Y0038162D01*
X0270148Y0038191D01*
X0270300Y0038215D01*
X0270452Y0038236D01*
X0270605Y0038253D01*
X0270758Y0038266D01*
X0270912Y0038275D01*
X0271066Y0038280D01*
X0271219Y0038281D01*
X0271373Y0038278D01*
X0271527Y0038271D01*
X0271680Y0038260D01*
X0271834Y0038245D01*
X0271986Y0038226D01*
X0272138Y0038203D01*
X0272290Y0038177D01*
X0272441Y0038146D01*
X0272591Y0038112D01*
X0272740Y0038073D01*
X0272887Y0038031D01*
X0273034Y0037985D01*
X0273180Y0037935D01*
X0273324Y0037882D01*
X0273467Y0037824D01*
X0273608Y0037763D01*
X0273748Y0037699D01*
X0273886Y0037631D01*
X0274022Y0037559D01*
X0274156Y0037484D01*
X0274288Y0037405D01*
X0274418Y0037323D01*
X0274546Y0037238D01*
X0274672Y0037149D01*
X0274795Y0037057D01*
X0274916Y0036962D01*
X0275035Y0036864D01*
X0275151Y0036763D01*
X0275264Y0036659D01*
X0275375Y0036552D01*
X0275482Y0036442D01*
X0275587Y0036329D01*
X0275689Y0036214D01*
X0275788Y0036096D01*
X0275884Y0035976D01*
X0275977Y0035853D01*
X0276066Y0035728D01*
X0276152Y0035601D01*
X0276235Y0035471D01*
X0276315Y0035339D01*
X0276391Y0035206D01*
X0276463Y0035070D01*
X0276532Y0034932D01*
X0276598Y0034793D01*
X0276660Y0034652D01*
X0276718Y0034510D01*
X0276772Y0034366D01*
X0276823Y0034221D01*
X0276870Y0034074D01*
X0276913Y0033927D01*
X0276952Y0033778D01*
X0276988Y0033628D01*
X0277019Y0033478D01*
X0277047Y0033326D01*
X0277071Y0033174D01*
X0277091Y0033022D01*
X0277107Y0032869D01*
X0277119Y0032715D01*
X0277127Y0032562D01*
X0277131Y0032408D01*
X0277131Y0032254D01*
X0277127Y0032100D01*
X0277119Y0031947D01*
X0277107Y0031793D01*
X0277091Y0031640D01*
X0277071Y0031488D01*
X0277047Y0031336D01*
X0277019Y0031184D01*
X0276988Y0031034D01*
X0276952Y0030884D01*
X0276913Y0030735D01*
X0276870Y0030588D01*
X0276823Y0030441D01*
X0276772Y0030296D01*
X0276718Y0030152D01*
X0276660Y0030010D01*
X0276598Y0029869D01*
X0276532Y0029730D01*
X0276463Y0029592D01*
X0276391Y0029456D01*
X0276315Y0029323D01*
X0276235Y0029191D01*
X0276152Y0029061D01*
X0276066Y0028934D01*
X0275977Y0028809D01*
X0275884Y0028686D01*
X0275788Y0028566D01*
X0275689Y0028448D01*
X0275587Y0028333D01*
X0275482Y0028220D01*
X0275375Y0028110D01*
X0275264Y0028003D01*
X0275151Y0027899D01*
X0275035Y0027798D01*
X0274916Y0027700D01*
X0274795Y0027605D01*
X0274672Y0027513D01*
X0274546Y0027424D01*
X0274418Y0027339D01*
X0274288Y0027257D01*
X0274156Y0027178D01*
X0274022Y0027103D01*
X0273886Y0027031D01*
X0273748Y0026963D01*
X0273608Y0026899D01*
X0273467Y0026838D01*
X0273324Y0026780D01*
X0273180Y0026727D01*
X0273034Y0026677D01*
X0272887Y0026631D01*
X0272740Y0026589D01*
X0272591Y0026550D01*
X0272441Y0026516D01*
X0272290Y0026485D01*
X0272138Y0026459D01*
X0271986Y0026436D01*
X0271834Y0026417D01*
X0271680Y0026402D01*
X0271527Y0026391D01*
X0271373Y0026384D01*
X0271219Y0026381D01*
X0271066Y0026382D01*
X0270912Y0026387D01*
X0270758Y0026396D01*
X0270605Y0026409D01*
X0270452Y0026426D01*
X0270300Y0026447D01*
X0270148Y0026471D01*
X0269997Y0026500D01*
X0269846Y0026533D01*
X0269697Y0026569D01*
X0269548Y0026609D01*
X0269401Y0026654D01*
X0269255Y0026701D01*
X0269110Y0026753D01*
X0268966Y0026809D01*
X0268824Y0026868D01*
X0268684Y0026930D01*
X0268545Y0026997D01*
X0268408Y0027067D01*
X0268273Y0027140D01*
X0268140Y0027217D01*
X0268008Y0027297D01*
X0267879Y0027381D01*
X0267752Y0027468D01*
X0267628Y0027558D01*
X0267506Y0027652D01*
X0267386Y0027748D01*
X0267269Y0027848D01*
X0267154Y0027951D01*
X0267042Y0028056D01*
X0266933Y0028165D01*
X0266827Y0028276D01*
X0266723Y0028390D01*
X0266623Y0028506D01*
X0266526Y0028626D01*
X0266431Y0028747D01*
X0266340Y0028871D01*
X0266253Y0028997D01*
X0266168Y0029126D01*
X0266087Y0029257D01*
X0266009Y0029389D01*
X0265935Y0029524D01*
X0265864Y0029661D01*
X0265797Y0029799D01*
X0265733Y0029939D01*
X0265673Y0030081D01*
X0265617Y0030224D01*
X0265564Y0030368D01*
X0265515Y0030514D01*
X0265470Y0030661D01*
X0265429Y0030810D01*
X0265391Y0030959D01*
X0265358Y0031109D01*
X0265328Y0031260D01*
X0265302Y0031412D01*
X0265281Y0031564D01*
X0265263Y0031717D01*
X0265249Y0031870D01*
X0265239Y0032023D01*
X0265233Y0032177D01*
X0265231Y0032331D01*
X0265181Y0032331D02*
X0265183Y0032178D01*
X0265189Y0032025D01*
X0265199Y0031872D01*
X0265212Y0031719D01*
X0265230Y0031567D01*
X0265251Y0031415D01*
X0265277Y0031264D01*
X0265306Y0031114D01*
X0265339Y0030964D01*
X0265376Y0030815D01*
X0265416Y0030667D01*
X0265461Y0030521D01*
X0265509Y0030375D01*
X0265561Y0030231D01*
X0265616Y0030088D01*
X0265675Y0029947D01*
X0265738Y0029807D01*
X0265804Y0029669D01*
X0265874Y0029532D01*
X0265947Y0029398D01*
X0266024Y0029265D01*
X0266104Y0029134D01*
X0266187Y0029006D01*
X0266273Y0028879D01*
X0266363Y0028755D01*
X0266456Y0028633D01*
X0266552Y0028514D01*
X0266651Y0028397D01*
X0266753Y0028282D01*
X0266858Y0028170D01*
X0266966Y0028061D01*
X0267076Y0027955D01*
X0267189Y0027852D01*
X0267305Y0027751D01*
X0267423Y0027654D01*
X0267544Y0027559D01*
X0267667Y0027468D01*
X0267792Y0027380D01*
X0267920Y0027295D01*
X0268049Y0027213D01*
X0268181Y0027135D01*
X0268315Y0027060D01*
X0268450Y0026988D01*
X0268588Y0026920D01*
X0268727Y0026856D01*
X0268867Y0026795D01*
X0269009Y0026738D01*
X0269153Y0026684D01*
X0269298Y0026634D01*
X0269444Y0026588D01*
X0269591Y0026545D01*
X0269739Y0026507D01*
X0269889Y0026472D01*
X0270039Y0026441D01*
X0270189Y0026413D01*
X0270341Y0026390D01*
X0270493Y0026371D01*
X0270645Y0026355D01*
X0270798Y0026343D01*
X0270951Y0026335D01*
X0271104Y0026331D01*
X0271258Y0026331D01*
X0271411Y0026335D01*
X0271564Y0026343D01*
X0271717Y0026355D01*
X0271869Y0026371D01*
X0272021Y0026390D01*
X0272173Y0026413D01*
X0272323Y0026441D01*
X0272473Y0026472D01*
X0272623Y0026507D01*
X0272771Y0026545D01*
X0272918Y0026588D01*
X0273064Y0026634D01*
X0273209Y0026684D01*
X0273353Y0026738D01*
X0273495Y0026795D01*
X0273635Y0026856D01*
X0273774Y0026920D01*
X0273912Y0026988D01*
X0274047Y0027060D01*
X0274181Y0027135D01*
X0274313Y0027213D01*
X0274442Y0027295D01*
X0274570Y0027380D01*
X0274695Y0027468D01*
X0274818Y0027559D01*
X0274939Y0027654D01*
X0275057Y0027751D01*
X0275173Y0027852D01*
X0275286Y0027955D01*
X0275396Y0028061D01*
X0275504Y0028170D01*
X0275609Y0028282D01*
X0275711Y0028397D01*
X0275810Y0028514D01*
X0275906Y0028633D01*
X0275999Y0028755D01*
X0276089Y0028879D01*
X0276175Y0029006D01*
X0276258Y0029134D01*
X0276338Y0029265D01*
X0276415Y0029398D01*
X0276488Y0029532D01*
X0276558Y0029669D01*
X0276624Y0029807D01*
X0276687Y0029947D01*
X0276746Y0030088D01*
X0276801Y0030231D01*
X0276853Y0030375D01*
X0276901Y0030521D01*
X0276946Y0030667D01*
X0276986Y0030815D01*
X0277023Y0030964D01*
X0277056Y0031114D01*
X0277085Y0031264D01*
X0277111Y0031415D01*
X0277132Y0031567D01*
X0277150Y0031719D01*
X0277163Y0031872D01*
X0277173Y0032025D01*
X0277179Y0032178D01*
X0277181Y0032331D01*
X0320134Y0026394D02*
X0320136Y0026552D01*
X0320142Y0026710D01*
X0320152Y0026868D01*
X0320166Y0027026D01*
X0320184Y0027183D01*
X0320205Y0027340D01*
X0320231Y0027496D01*
X0320261Y0027652D01*
X0320294Y0027807D01*
X0320332Y0027960D01*
X0320373Y0028113D01*
X0320418Y0028265D01*
X0320467Y0028416D01*
X0320520Y0028565D01*
X0320576Y0028713D01*
X0320636Y0028859D01*
X0320700Y0029004D01*
X0320768Y0029147D01*
X0320839Y0029289D01*
X0320913Y0029429D01*
X0320991Y0029566D01*
X0321073Y0029702D01*
X0321157Y0029836D01*
X0321246Y0029967D01*
X0321337Y0030096D01*
X0321432Y0030223D01*
X0321529Y0030348D01*
X0321630Y0030470D01*
X0321734Y0030589D01*
X0321841Y0030706D01*
X0321951Y0030820D01*
X0322064Y0030931D01*
X0322179Y0031040D01*
X0322297Y0031145D01*
X0322418Y0031247D01*
X0322541Y0031347D01*
X0322667Y0031443D01*
X0322795Y0031536D01*
X0322925Y0031626D01*
X0323058Y0031712D01*
X0323193Y0031796D01*
X0323329Y0031875D01*
X0323468Y0031952D01*
X0323609Y0032024D01*
X0323751Y0032094D01*
X0323895Y0032159D01*
X0324041Y0032221D01*
X0324188Y0032279D01*
X0324337Y0032334D01*
X0324487Y0032385D01*
X0324638Y0032432D01*
X0324790Y0032475D01*
X0324943Y0032514D01*
X0325098Y0032550D01*
X0325253Y0032581D01*
X0325409Y0032609D01*
X0325565Y0032633D01*
X0325722Y0032653D01*
X0325880Y0032669D01*
X0326037Y0032681D01*
X0326196Y0032689D01*
X0326354Y0032693D01*
X0326512Y0032693D01*
X0326670Y0032689D01*
X0326829Y0032681D01*
X0326986Y0032669D01*
X0327144Y0032653D01*
X0327301Y0032633D01*
X0327457Y0032609D01*
X0327613Y0032581D01*
X0327768Y0032550D01*
X0327923Y0032514D01*
X0328076Y0032475D01*
X0328228Y0032432D01*
X0328379Y0032385D01*
X0328529Y0032334D01*
X0328678Y0032279D01*
X0328825Y0032221D01*
X0328971Y0032159D01*
X0329115Y0032094D01*
X0329257Y0032024D01*
X0329398Y0031952D01*
X0329537Y0031875D01*
X0329673Y0031796D01*
X0329808Y0031712D01*
X0329941Y0031626D01*
X0330071Y0031536D01*
X0330199Y0031443D01*
X0330325Y0031347D01*
X0330448Y0031247D01*
X0330569Y0031145D01*
X0330687Y0031040D01*
X0330802Y0030931D01*
X0330915Y0030820D01*
X0331025Y0030706D01*
X0331132Y0030589D01*
X0331236Y0030470D01*
X0331337Y0030348D01*
X0331434Y0030223D01*
X0331529Y0030096D01*
X0331620Y0029967D01*
X0331709Y0029836D01*
X0331793Y0029702D01*
X0331875Y0029566D01*
X0331953Y0029429D01*
X0332027Y0029289D01*
X0332098Y0029147D01*
X0332166Y0029004D01*
X0332230Y0028859D01*
X0332290Y0028713D01*
X0332346Y0028565D01*
X0332399Y0028416D01*
X0332448Y0028265D01*
X0332493Y0028113D01*
X0332534Y0027960D01*
X0332572Y0027807D01*
X0332605Y0027652D01*
X0332635Y0027496D01*
X0332661Y0027340D01*
X0332682Y0027183D01*
X0332700Y0027026D01*
X0332714Y0026868D01*
X0332724Y0026710D01*
X0332730Y0026552D01*
X0332732Y0026394D01*
X0332730Y0026236D01*
X0332724Y0026078D01*
X0332714Y0025920D01*
X0332700Y0025762D01*
X0332682Y0025605D01*
X0332661Y0025448D01*
X0332635Y0025292D01*
X0332605Y0025136D01*
X0332572Y0024981D01*
X0332534Y0024828D01*
X0332493Y0024675D01*
X0332448Y0024523D01*
X0332399Y0024372D01*
X0332346Y0024223D01*
X0332290Y0024075D01*
X0332230Y0023929D01*
X0332166Y0023784D01*
X0332098Y0023641D01*
X0332027Y0023499D01*
X0331953Y0023359D01*
X0331875Y0023222D01*
X0331793Y0023086D01*
X0331709Y0022952D01*
X0331620Y0022821D01*
X0331529Y0022692D01*
X0331434Y0022565D01*
X0331337Y0022440D01*
X0331236Y0022318D01*
X0331132Y0022199D01*
X0331025Y0022082D01*
X0330915Y0021968D01*
X0330802Y0021857D01*
X0330687Y0021748D01*
X0330569Y0021643D01*
X0330448Y0021541D01*
X0330325Y0021441D01*
X0330199Y0021345D01*
X0330071Y0021252D01*
X0329941Y0021162D01*
X0329808Y0021076D01*
X0329673Y0020992D01*
X0329537Y0020913D01*
X0329398Y0020836D01*
X0329257Y0020764D01*
X0329115Y0020694D01*
X0328971Y0020629D01*
X0328825Y0020567D01*
X0328678Y0020509D01*
X0328529Y0020454D01*
X0328379Y0020403D01*
X0328228Y0020356D01*
X0328076Y0020313D01*
X0327923Y0020274D01*
X0327768Y0020238D01*
X0327613Y0020207D01*
X0327457Y0020179D01*
X0327301Y0020155D01*
X0327144Y0020135D01*
X0326986Y0020119D01*
X0326829Y0020107D01*
X0326670Y0020099D01*
X0326512Y0020095D01*
X0326354Y0020095D01*
X0326196Y0020099D01*
X0326037Y0020107D01*
X0325880Y0020119D01*
X0325722Y0020135D01*
X0325565Y0020155D01*
X0325409Y0020179D01*
X0325253Y0020207D01*
X0325098Y0020238D01*
X0324943Y0020274D01*
X0324790Y0020313D01*
X0324638Y0020356D01*
X0324487Y0020403D01*
X0324337Y0020454D01*
X0324188Y0020509D01*
X0324041Y0020567D01*
X0323895Y0020629D01*
X0323751Y0020694D01*
X0323609Y0020764D01*
X0323468Y0020836D01*
X0323329Y0020913D01*
X0323193Y0020992D01*
X0323058Y0021076D01*
X0322925Y0021162D01*
X0322795Y0021252D01*
X0322667Y0021345D01*
X0322541Y0021441D01*
X0322418Y0021541D01*
X0322297Y0021643D01*
X0322179Y0021748D01*
X0322064Y0021857D01*
X0321951Y0021968D01*
X0321841Y0022082D01*
X0321734Y0022199D01*
X0321630Y0022318D01*
X0321529Y0022440D01*
X0321432Y0022565D01*
X0321337Y0022692D01*
X0321246Y0022821D01*
X0321157Y0022952D01*
X0321073Y0023086D01*
X0320991Y0023222D01*
X0320913Y0023359D01*
X0320839Y0023499D01*
X0320768Y0023641D01*
X0320700Y0023784D01*
X0320636Y0023929D01*
X0320576Y0024075D01*
X0320520Y0024223D01*
X0320467Y0024372D01*
X0320418Y0024523D01*
X0320373Y0024675D01*
X0320332Y0024828D01*
X0320294Y0024981D01*
X0320261Y0025136D01*
X0320231Y0025292D01*
X0320205Y0025448D01*
X0320184Y0025605D01*
X0320166Y0025762D01*
X0320152Y0025920D01*
X0320142Y0026078D01*
X0320136Y0026236D01*
X0320134Y0026394D01*
X0319071Y0251709D02*
X0319073Y0251867D01*
X0319079Y0252025D01*
X0319089Y0252183D01*
X0319103Y0252341D01*
X0319121Y0252498D01*
X0319142Y0252655D01*
X0319168Y0252811D01*
X0319198Y0252967D01*
X0319231Y0253122D01*
X0319269Y0253275D01*
X0319310Y0253428D01*
X0319355Y0253580D01*
X0319404Y0253731D01*
X0319457Y0253880D01*
X0319513Y0254028D01*
X0319573Y0254174D01*
X0319637Y0254319D01*
X0319705Y0254462D01*
X0319776Y0254604D01*
X0319850Y0254744D01*
X0319928Y0254881D01*
X0320010Y0255017D01*
X0320094Y0255151D01*
X0320183Y0255282D01*
X0320274Y0255411D01*
X0320369Y0255538D01*
X0320466Y0255663D01*
X0320567Y0255785D01*
X0320671Y0255904D01*
X0320778Y0256021D01*
X0320888Y0256135D01*
X0321001Y0256246D01*
X0321116Y0256355D01*
X0321234Y0256460D01*
X0321355Y0256562D01*
X0321478Y0256662D01*
X0321604Y0256758D01*
X0321732Y0256851D01*
X0321862Y0256941D01*
X0321995Y0257027D01*
X0322130Y0257111D01*
X0322266Y0257190D01*
X0322405Y0257267D01*
X0322546Y0257339D01*
X0322688Y0257409D01*
X0322832Y0257474D01*
X0322978Y0257536D01*
X0323125Y0257594D01*
X0323274Y0257649D01*
X0323424Y0257700D01*
X0323575Y0257747D01*
X0323727Y0257790D01*
X0323880Y0257829D01*
X0324035Y0257865D01*
X0324190Y0257896D01*
X0324346Y0257924D01*
X0324502Y0257948D01*
X0324659Y0257968D01*
X0324817Y0257984D01*
X0324974Y0257996D01*
X0325133Y0258004D01*
X0325291Y0258008D01*
X0325449Y0258008D01*
X0325607Y0258004D01*
X0325766Y0257996D01*
X0325923Y0257984D01*
X0326081Y0257968D01*
X0326238Y0257948D01*
X0326394Y0257924D01*
X0326550Y0257896D01*
X0326705Y0257865D01*
X0326860Y0257829D01*
X0327013Y0257790D01*
X0327165Y0257747D01*
X0327316Y0257700D01*
X0327466Y0257649D01*
X0327615Y0257594D01*
X0327762Y0257536D01*
X0327908Y0257474D01*
X0328052Y0257409D01*
X0328194Y0257339D01*
X0328335Y0257267D01*
X0328474Y0257190D01*
X0328610Y0257111D01*
X0328745Y0257027D01*
X0328878Y0256941D01*
X0329008Y0256851D01*
X0329136Y0256758D01*
X0329262Y0256662D01*
X0329385Y0256562D01*
X0329506Y0256460D01*
X0329624Y0256355D01*
X0329739Y0256246D01*
X0329852Y0256135D01*
X0329962Y0256021D01*
X0330069Y0255904D01*
X0330173Y0255785D01*
X0330274Y0255663D01*
X0330371Y0255538D01*
X0330466Y0255411D01*
X0330557Y0255282D01*
X0330646Y0255151D01*
X0330730Y0255017D01*
X0330812Y0254881D01*
X0330890Y0254744D01*
X0330964Y0254604D01*
X0331035Y0254462D01*
X0331103Y0254319D01*
X0331167Y0254174D01*
X0331227Y0254028D01*
X0331283Y0253880D01*
X0331336Y0253731D01*
X0331385Y0253580D01*
X0331430Y0253428D01*
X0331471Y0253275D01*
X0331509Y0253122D01*
X0331542Y0252967D01*
X0331572Y0252811D01*
X0331598Y0252655D01*
X0331619Y0252498D01*
X0331637Y0252341D01*
X0331651Y0252183D01*
X0331661Y0252025D01*
X0331667Y0251867D01*
X0331669Y0251709D01*
X0331667Y0251551D01*
X0331661Y0251393D01*
X0331651Y0251235D01*
X0331637Y0251077D01*
X0331619Y0250920D01*
X0331598Y0250763D01*
X0331572Y0250607D01*
X0331542Y0250451D01*
X0331509Y0250296D01*
X0331471Y0250143D01*
X0331430Y0249990D01*
X0331385Y0249838D01*
X0331336Y0249687D01*
X0331283Y0249538D01*
X0331227Y0249390D01*
X0331167Y0249244D01*
X0331103Y0249099D01*
X0331035Y0248956D01*
X0330964Y0248814D01*
X0330890Y0248674D01*
X0330812Y0248537D01*
X0330730Y0248401D01*
X0330646Y0248267D01*
X0330557Y0248136D01*
X0330466Y0248007D01*
X0330371Y0247880D01*
X0330274Y0247755D01*
X0330173Y0247633D01*
X0330069Y0247514D01*
X0329962Y0247397D01*
X0329852Y0247283D01*
X0329739Y0247172D01*
X0329624Y0247063D01*
X0329506Y0246958D01*
X0329385Y0246856D01*
X0329262Y0246756D01*
X0329136Y0246660D01*
X0329008Y0246567D01*
X0328878Y0246477D01*
X0328745Y0246391D01*
X0328610Y0246307D01*
X0328474Y0246228D01*
X0328335Y0246151D01*
X0328194Y0246079D01*
X0328052Y0246009D01*
X0327908Y0245944D01*
X0327762Y0245882D01*
X0327615Y0245824D01*
X0327466Y0245769D01*
X0327316Y0245718D01*
X0327165Y0245671D01*
X0327013Y0245628D01*
X0326860Y0245589D01*
X0326705Y0245553D01*
X0326550Y0245522D01*
X0326394Y0245494D01*
X0326238Y0245470D01*
X0326081Y0245450D01*
X0325923Y0245434D01*
X0325766Y0245422D01*
X0325607Y0245414D01*
X0325449Y0245410D01*
X0325291Y0245410D01*
X0325133Y0245414D01*
X0324974Y0245422D01*
X0324817Y0245434D01*
X0324659Y0245450D01*
X0324502Y0245470D01*
X0324346Y0245494D01*
X0324190Y0245522D01*
X0324035Y0245553D01*
X0323880Y0245589D01*
X0323727Y0245628D01*
X0323575Y0245671D01*
X0323424Y0245718D01*
X0323274Y0245769D01*
X0323125Y0245824D01*
X0322978Y0245882D01*
X0322832Y0245944D01*
X0322688Y0246009D01*
X0322546Y0246079D01*
X0322405Y0246151D01*
X0322266Y0246228D01*
X0322130Y0246307D01*
X0321995Y0246391D01*
X0321862Y0246477D01*
X0321732Y0246567D01*
X0321604Y0246660D01*
X0321478Y0246756D01*
X0321355Y0246856D01*
X0321234Y0246958D01*
X0321116Y0247063D01*
X0321001Y0247172D01*
X0320888Y0247283D01*
X0320778Y0247397D01*
X0320671Y0247514D01*
X0320567Y0247633D01*
X0320466Y0247755D01*
X0320369Y0247880D01*
X0320274Y0248007D01*
X0320183Y0248136D01*
X0320094Y0248267D01*
X0320010Y0248401D01*
X0319928Y0248537D01*
X0319850Y0248674D01*
X0319776Y0248814D01*
X0319705Y0248956D01*
X0319637Y0249099D01*
X0319573Y0249244D01*
X0319513Y0249390D01*
X0319457Y0249538D01*
X0319404Y0249687D01*
X0319355Y0249838D01*
X0319310Y0249990D01*
X0319269Y0250143D01*
X0319231Y0250296D01*
X0319198Y0250451D01*
X0319168Y0250607D01*
X0319142Y0250763D01*
X0319121Y0250920D01*
X0319103Y0251077D01*
X0319089Y0251235D01*
X0319079Y0251393D01*
X0319073Y0251551D01*
X0319071Y0251709D01*
D11*
X0325370Y0251709D03*
X0326433Y0026394D03*
X0022181Y0025331D03*
X0018244Y0251709D03*
D12*
X0098402Y0200528D03*
X0138402Y0200528D03*
X0157260Y0200528D03*
X0197260Y0200528D03*
X0214307Y0200528D03*
X0254307Y0200528D03*
D13*
X0327570Y0195331D02*
X0333170Y0195331D01*
X0333170Y0185331D02*
X0327570Y0185331D01*
X0327570Y0175331D02*
X0333170Y0175331D01*
X0333170Y0165331D02*
X0327570Y0165331D01*
X0327570Y0150331D02*
X0333170Y0150331D01*
X0333170Y0140331D02*
X0327570Y0140331D01*
X0327570Y0130331D02*
X0333170Y0130331D01*
X0077181Y0250720D02*
X0077181Y0256320D01*
X0067181Y0256320D02*
X0067181Y0250720D01*
X0057181Y0250720D02*
X0057181Y0256320D01*
X0047181Y0256320D02*
X0047181Y0250720D01*
X0016044Y0195331D02*
X0010444Y0195331D01*
X0010444Y0185331D02*
X0016044Y0185331D01*
X0016044Y0175331D02*
X0010444Y0175331D01*
X0010444Y0165331D02*
X0016044Y0165331D01*
X0016044Y0150331D02*
X0010444Y0150331D01*
X0010444Y0140331D02*
X0016044Y0140331D01*
X0016044Y0130331D02*
X0010444Y0130331D01*
D14*
X0104181Y0128835D02*
X0110181Y0128835D01*
X0110181Y0108835D02*
X0104181Y0108835D01*
X0134181Y0108835D02*
X0140181Y0108835D01*
X0159496Y0108835D02*
X0165496Y0108835D01*
X0165496Y0128835D02*
X0159496Y0128835D01*
X0140181Y0128835D02*
X0134181Y0128835D01*
X0134181Y0148835D02*
X0140181Y0148835D01*
X0159496Y0148835D02*
X0165496Y0148835D01*
X0189496Y0148835D02*
X0195496Y0148835D01*
X0216622Y0148835D02*
X0222622Y0148835D01*
X0246622Y0148835D02*
X0252622Y0148835D01*
X0252622Y0128835D02*
X0246622Y0128835D01*
X0246622Y0108835D02*
X0252622Y0108835D01*
X0222622Y0108835D02*
X0216622Y0108835D01*
X0195496Y0108835D02*
X0189496Y0108835D01*
X0189496Y0128835D02*
X0195496Y0128835D01*
X0216622Y0128835D02*
X0222622Y0128835D01*
X0222622Y0178835D02*
X0216622Y0178835D01*
X0195496Y0178835D02*
X0189496Y0178835D01*
X0165496Y0178835D02*
X0159496Y0178835D01*
X0140181Y0178835D02*
X0134181Y0178835D01*
X0110181Y0178835D02*
X0104181Y0178835D01*
X0104181Y0148835D02*
X0110181Y0148835D01*
X0246622Y0178835D02*
X0252622Y0178835D01*
D15*
X0308008Y0098362D03*
X0318008Y0098362D03*
X0262496Y0085331D03*
X0262496Y0075331D03*
X0086118Y0199898D03*
X0056118Y0199898D03*
X0146551Y0257457D03*
X0156551Y0257457D03*
X0179425Y0257457D03*
X0189425Y0257457D03*
D16*
X0280170Y0085331D02*
X0285370Y0085331D01*
X0285370Y0075331D02*
X0280170Y0075331D01*
X0280170Y0065331D02*
X0285370Y0065331D01*
X0315370Y0065331D02*
X0320570Y0065331D01*
X0320570Y0075331D02*
X0315370Y0075331D01*
X0315370Y0085331D02*
X0320570Y0085331D01*
D17*
X0082181Y0176598D02*
X0082181Y0183198D01*
X0072181Y0183198D02*
X0072181Y0176598D01*
X0062181Y0176598D02*
X0062181Y0183198D01*
D18*
X0072181Y0110898D03*
D19*
X0069181Y0046331D02*
X0069181Y0032331D01*
X0057181Y0032331D02*
X0057181Y0046331D01*
X0265181Y0046331D02*
X0265181Y0032331D01*
X0277181Y0032331D02*
X0277181Y0046331D01*
D20*
X0242181Y0061431D02*
X0242181Y0069231D01*
X0227181Y0069231D02*
X0227181Y0061431D01*
X0219681Y0049231D02*
X0219681Y0041431D01*
X0204681Y0041431D02*
X0204681Y0049231D01*
X0189681Y0049231D02*
X0189681Y0041431D01*
X0174681Y0041431D02*
X0174681Y0049231D01*
X0159681Y0049231D02*
X0159681Y0041431D01*
X0144681Y0041431D02*
X0144681Y0049231D01*
X0137181Y0061431D02*
X0137181Y0069231D01*
X0122181Y0069231D02*
X0122181Y0061431D01*
X0107181Y0061431D02*
X0107181Y0069231D01*
X0092181Y0069231D02*
X0092181Y0061431D01*
X0099681Y0049231D02*
X0099681Y0041431D01*
X0114681Y0041431D02*
X0114681Y0049231D01*
X0129681Y0049231D02*
X0129681Y0041431D01*
X0152181Y0061431D02*
X0152181Y0069231D01*
X0167181Y0069231D02*
X0167181Y0061431D01*
X0182181Y0061431D02*
X0182181Y0069231D01*
X0197181Y0069231D02*
X0197181Y0061431D01*
X0212181Y0061431D02*
X0212181Y0069231D01*
X0234681Y0049231D02*
X0234681Y0041431D01*
D21*
X0271181Y0046331D03*
X0271181Y0032331D03*
X0063181Y0032331D03*
X0063181Y0046331D03*
D22*
X0030981Y0122931D03*
X0036381Y0189531D03*
X0143913Y0158874D03*
X0145882Y0191551D03*
X0273047Y0201000D03*
M02*
