G75*
%MOIN*%
%OFA0B0*%
%FSLAX25Y25*%
%IPPOS*%
%LPD*%
%AMOC8*
5,1,8,0,0,1.08239X$1,22.5*
%
%ADD10C,0.00000*%
%ADD11C,0.00600*%
%ADD12C,0.00500*%
%ADD13R,0.02000X0.10000*%
%ADD14R,0.07500X0.03000*%
%ADD15C,0.00700*%
%ADD16R,0.10000X0.05000*%
%ADD17C,0.00800*%
%ADD18C,0.01000*%
%ADD19C,0.00400*%
%ADD20R,0.01500X0.02000*%
%ADD21C,0.02000*%
%ADD22C,0.00200*%
%ADD23R,0.03000X0.02500*%
%ADD24R,0.05000X0.11000*%
%ADD25C,0.00009*%
D10*
X0001000Y0001000D02*
X0001000Y0273953D01*
X0342417Y0274346D01*
X0342417Y0001394D01*
X0001000Y0001000D01*
X0015882Y0025331D02*
X0015884Y0025489D01*
X0015890Y0025647D01*
X0015900Y0025805D01*
X0015914Y0025963D01*
X0015932Y0026120D01*
X0015953Y0026277D01*
X0015979Y0026433D01*
X0016009Y0026589D01*
X0016042Y0026744D01*
X0016080Y0026897D01*
X0016121Y0027050D01*
X0016166Y0027202D01*
X0016215Y0027353D01*
X0016268Y0027502D01*
X0016324Y0027650D01*
X0016384Y0027796D01*
X0016448Y0027941D01*
X0016516Y0028084D01*
X0016587Y0028226D01*
X0016661Y0028366D01*
X0016739Y0028503D01*
X0016821Y0028639D01*
X0016905Y0028773D01*
X0016994Y0028904D01*
X0017085Y0029033D01*
X0017180Y0029160D01*
X0017277Y0029285D01*
X0017378Y0029407D01*
X0017482Y0029526D01*
X0017589Y0029643D01*
X0017699Y0029757D01*
X0017812Y0029868D01*
X0017927Y0029977D01*
X0018045Y0030082D01*
X0018166Y0030184D01*
X0018289Y0030284D01*
X0018415Y0030380D01*
X0018543Y0030473D01*
X0018673Y0030563D01*
X0018806Y0030649D01*
X0018941Y0030733D01*
X0019077Y0030812D01*
X0019216Y0030889D01*
X0019357Y0030961D01*
X0019499Y0031031D01*
X0019643Y0031096D01*
X0019789Y0031158D01*
X0019936Y0031216D01*
X0020085Y0031271D01*
X0020235Y0031322D01*
X0020386Y0031369D01*
X0020538Y0031412D01*
X0020691Y0031451D01*
X0020846Y0031487D01*
X0021001Y0031518D01*
X0021157Y0031546D01*
X0021313Y0031570D01*
X0021470Y0031590D01*
X0021628Y0031606D01*
X0021785Y0031618D01*
X0021944Y0031626D01*
X0022102Y0031630D01*
X0022260Y0031630D01*
X0022418Y0031626D01*
X0022577Y0031618D01*
X0022734Y0031606D01*
X0022892Y0031590D01*
X0023049Y0031570D01*
X0023205Y0031546D01*
X0023361Y0031518D01*
X0023516Y0031487D01*
X0023671Y0031451D01*
X0023824Y0031412D01*
X0023976Y0031369D01*
X0024127Y0031322D01*
X0024277Y0031271D01*
X0024426Y0031216D01*
X0024573Y0031158D01*
X0024719Y0031096D01*
X0024863Y0031031D01*
X0025005Y0030961D01*
X0025146Y0030889D01*
X0025285Y0030812D01*
X0025421Y0030733D01*
X0025556Y0030649D01*
X0025689Y0030563D01*
X0025819Y0030473D01*
X0025947Y0030380D01*
X0026073Y0030284D01*
X0026196Y0030184D01*
X0026317Y0030082D01*
X0026435Y0029977D01*
X0026550Y0029868D01*
X0026663Y0029757D01*
X0026773Y0029643D01*
X0026880Y0029526D01*
X0026984Y0029407D01*
X0027085Y0029285D01*
X0027182Y0029160D01*
X0027277Y0029033D01*
X0027368Y0028904D01*
X0027457Y0028773D01*
X0027541Y0028639D01*
X0027623Y0028503D01*
X0027701Y0028366D01*
X0027775Y0028226D01*
X0027846Y0028084D01*
X0027914Y0027941D01*
X0027978Y0027796D01*
X0028038Y0027650D01*
X0028094Y0027502D01*
X0028147Y0027353D01*
X0028196Y0027202D01*
X0028241Y0027050D01*
X0028282Y0026897D01*
X0028320Y0026744D01*
X0028353Y0026589D01*
X0028383Y0026433D01*
X0028409Y0026277D01*
X0028430Y0026120D01*
X0028448Y0025963D01*
X0028462Y0025805D01*
X0028472Y0025647D01*
X0028478Y0025489D01*
X0028480Y0025331D01*
X0028478Y0025173D01*
X0028472Y0025015D01*
X0028462Y0024857D01*
X0028448Y0024699D01*
X0028430Y0024542D01*
X0028409Y0024385D01*
X0028383Y0024229D01*
X0028353Y0024073D01*
X0028320Y0023918D01*
X0028282Y0023765D01*
X0028241Y0023612D01*
X0028196Y0023460D01*
X0028147Y0023309D01*
X0028094Y0023160D01*
X0028038Y0023012D01*
X0027978Y0022866D01*
X0027914Y0022721D01*
X0027846Y0022578D01*
X0027775Y0022436D01*
X0027701Y0022296D01*
X0027623Y0022159D01*
X0027541Y0022023D01*
X0027457Y0021889D01*
X0027368Y0021758D01*
X0027277Y0021629D01*
X0027182Y0021502D01*
X0027085Y0021377D01*
X0026984Y0021255D01*
X0026880Y0021136D01*
X0026773Y0021019D01*
X0026663Y0020905D01*
X0026550Y0020794D01*
X0026435Y0020685D01*
X0026317Y0020580D01*
X0026196Y0020478D01*
X0026073Y0020378D01*
X0025947Y0020282D01*
X0025819Y0020189D01*
X0025689Y0020099D01*
X0025556Y0020013D01*
X0025421Y0019929D01*
X0025285Y0019850D01*
X0025146Y0019773D01*
X0025005Y0019701D01*
X0024863Y0019631D01*
X0024719Y0019566D01*
X0024573Y0019504D01*
X0024426Y0019446D01*
X0024277Y0019391D01*
X0024127Y0019340D01*
X0023976Y0019293D01*
X0023824Y0019250D01*
X0023671Y0019211D01*
X0023516Y0019175D01*
X0023361Y0019144D01*
X0023205Y0019116D01*
X0023049Y0019092D01*
X0022892Y0019072D01*
X0022734Y0019056D01*
X0022577Y0019044D01*
X0022418Y0019036D01*
X0022260Y0019032D01*
X0022102Y0019032D01*
X0021944Y0019036D01*
X0021785Y0019044D01*
X0021628Y0019056D01*
X0021470Y0019072D01*
X0021313Y0019092D01*
X0021157Y0019116D01*
X0021001Y0019144D01*
X0020846Y0019175D01*
X0020691Y0019211D01*
X0020538Y0019250D01*
X0020386Y0019293D01*
X0020235Y0019340D01*
X0020085Y0019391D01*
X0019936Y0019446D01*
X0019789Y0019504D01*
X0019643Y0019566D01*
X0019499Y0019631D01*
X0019357Y0019701D01*
X0019216Y0019773D01*
X0019077Y0019850D01*
X0018941Y0019929D01*
X0018806Y0020013D01*
X0018673Y0020099D01*
X0018543Y0020189D01*
X0018415Y0020282D01*
X0018289Y0020378D01*
X0018166Y0020478D01*
X0018045Y0020580D01*
X0017927Y0020685D01*
X0017812Y0020794D01*
X0017699Y0020905D01*
X0017589Y0021019D01*
X0017482Y0021136D01*
X0017378Y0021255D01*
X0017277Y0021377D01*
X0017180Y0021502D01*
X0017085Y0021629D01*
X0016994Y0021758D01*
X0016905Y0021889D01*
X0016821Y0022023D01*
X0016739Y0022159D01*
X0016661Y0022296D01*
X0016587Y0022436D01*
X0016516Y0022578D01*
X0016448Y0022721D01*
X0016384Y0022866D01*
X0016324Y0023012D01*
X0016268Y0023160D01*
X0016215Y0023309D01*
X0016166Y0023460D01*
X0016121Y0023612D01*
X0016080Y0023765D01*
X0016042Y0023918D01*
X0016009Y0024073D01*
X0015979Y0024229D01*
X0015953Y0024385D01*
X0015932Y0024542D01*
X0015914Y0024699D01*
X0015900Y0024857D01*
X0015890Y0025015D01*
X0015884Y0025173D01*
X0015882Y0025331D01*
X0057231Y0032331D02*
X0057233Y0032485D01*
X0057239Y0032639D01*
X0057249Y0032792D01*
X0057263Y0032945D01*
X0057281Y0033098D01*
X0057302Y0033250D01*
X0057328Y0033402D01*
X0057358Y0033553D01*
X0057391Y0033703D01*
X0057429Y0033852D01*
X0057470Y0034001D01*
X0057515Y0034148D01*
X0057564Y0034294D01*
X0057617Y0034438D01*
X0057673Y0034581D01*
X0057733Y0034723D01*
X0057797Y0034863D01*
X0057864Y0035001D01*
X0057935Y0035138D01*
X0058009Y0035273D01*
X0058087Y0035405D01*
X0058168Y0035536D01*
X0058253Y0035665D01*
X0058340Y0035791D01*
X0058431Y0035915D01*
X0058526Y0036036D01*
X0058623Y0036156D01*
X0058723Y0036272D01*
X0058827Y0036386D01*
X0058933Y0036497D01*
X0059042Y0036606D01*
X0059154Y0036711D01*
X0059269Y0036814D01*
X0059386Y0036914D01*
X0059506Y0037010D01*
X0059628Y0037104D01*
X0059752Y0037194D01*
X0059879Y0037281D01*
X0060008Y0037365D01*
X0060140Y0037445D01*
X0060273Y0037522D01*
X0060408Y0037595D01*
X0060545Y0037665D01*
X0060684Y0037732D01*
X0060824Y0037794D01*
X0060966Y0037853D01*
X0061110Y0037909D01*
X0061255Y0037961D01*
X0061401Y0038008D01*
X0061548Y0038053D01*
X0061697Y0038093D01*
X0061846Y0038129D01*
X0061997Y0038162D01*
X0062148Y0038191D01*
X0062300Y0038215D01*
X0062452Y0038236D01*
X0062605Y0038253D01*
X0062758Y0038266D01*
X0062912Y0038275D01*
X0063066Y0038280D01*
X0063219Y0038281D01*
X0063373Y0038278D01*
X0063527Y0038271D01*
X0063680Y0038260D01*
X0063834Y0038245D01*
X0063986Y0038226D01*
X0064138Y0038203D01*
X0064290Y0038177D01*
X0064441Y0038146D01*
X0064591Y0038112D01*
X0064740Y0038073D01*
X0064887Y0038031D01*
X0065034Y0037985D01*
X0065180Y0037935D01*
X0065324Y0037882D01*
X0065467Y0037824D01*
X0065608Y0037763D01*
X0065748Y0037699D01*
X0065886Y0037631D01*
X0066022Y0037559D01*
X0066156Y0037484D01*
X0066288Y0037405D01*
X0066418Y0037323D01*
X0066546Y0037238D01*
X0066672Y0037149D01*
X0066795Y0037057D01*
X0066916Y0036962D01*
X0067035Y0036864D01*
X0067151Y0036763D01*
X0067264Y0036659D01*
X0067375Y0036552D01*
X0067482Y0036442D01*
X0067587Y0036329D01*
X0067689Y0036214D01*
X0067788Y0036096D01*
X0067884Y0035976D01*
X0067977Y0035853D01*
X0068066Y0035728D01*
X0068152Y0035601D01*
X0068235Y0035471D01*
X0068315Y0035339D01*
X0068391Y0035206D01*
X0068463Y0035070D01*
X0068532Y0034932D01*
X0068598Y0034793D01*
X0068660Y0034652D01*
X0068718Y0034510D01*
X0068772Y0034366D01*
X0068823Y0034221D01*
X0068870Y0034074D01*
X0068913Y0033927D01*
X0068952Y0033778D01*
X0068988Y0033628D01*
X0069019Y0033478D01*
X0069047Y0033326D01*
X0069071Y0033174D01*
X0069091Y0033022D01*
X0069107Y0032869D01*
X0069119Y0032715D01*
X0069127Y0032562D01*
X0069131Y0032408D01*
X0069131Y0032254D01*
X0069127Y0032100D01*
X0069119Y0031947D01*
X0069107Y0031793D01*
X0069091Y0031640D01*
X0069071Y0031488D01*
X0069047Y0031336D01*
X0069019Y0031184D01*
X0068988Y0031034D01*
X0068952Y0030884D01*
X0068913Y0030735D01*
X0068870Y0030588D01*
X0068823Y0030441D01*
X0068772Y0030296D01*
X0068718Y0030152D01*
X0068660Y0030010D01*
X0068598Y0029869D01*
X0068532Y0029730D01*
X0068463Y0029592D01*
X0068391Y0029456D01*
X0068315Y0029323D01*
X0068235Y0029191D01*
X0068152Y0029061D01*
X0068066Y0028934D01*
X0067977Y0028809D01*
X0067884Y0028686D01*
X0067788Y0028566D01*
X0067689Y0028448D01*
X0067587Y0028333D01*
X0067482Y0028220D01*
X0067375Y0028110D01*
X0067264Y0028003D01*
X0067151Y0027899D01*
X0067035Y0027798D01*
X0066916Y0027700D01*
X0066795Y0027605D01*
X0066672Y0027513D01*
X0066546Y0027424D01*
X0066418Y0027339D01*
X0066288Y0027257D01*
X0066156Y0027178D01*
X0066022Y0027103D01*
X0065886Y0027031D01*
X0065748Y0026963D01*
X0065608Y0026899D01*
X0065467Y0026838D01*
X0065324Y0026780D01*
X0065180Y0026727D01*
X0065034Y0026677D01*
X0064887Y0026631D01*
X0064740Y0026589D01*
X0064591Y0026550D01*
X0064441Y0026516D01*
X0064290Y0026485D01*
X0064138Y0026459D01*
X0063986Y0026436D01*
X0063834Y0026417D01*
X0063680Y0026402D01*
X0063527Y0026391D01*
X0063373Y0026384D01*
X0063219Y0026381D01*
X0063066Y0026382D01*
X0062912Y0026387D01*
X0062758Y0026396D01*
X0062605Y0026409D01*
X0062452Y0026426D01*
X0062300Y0026447D01*
X0062148Y0026471D01*
X0061997Y0026500D01*
X0061846Y0026533D01*
X0061697Y0026569D01*
X0061548Y0026609D01*
X0061401Y0026654D01*
X0061255Y0026701D01*
X0061110Y0026753D01*
X0060966Y0026809D01*
X0060824Y0026868D01*
X0060684Y0026930D01*
X0060545Y0026997D01*
X0060408Y0027067D01*
X0060273Y0027140D01*
X0060140Y0027217D01*
X0060008Y0027297D01*
X0059879Y0027381D01*
X0059752Y0027468D01*
X0059628Y0027558D01*
X0059506Y0027652D01*
X0059386Y0027748D01*
X0059269Y0027848D01*
X0059154Y0027951D01*
X0059042Y0028056D01*
X0058933Y0028165D01*
X0058827Y0028276D01*
X0058723Y0028390D01*
X0058623Y0028506D01*
X0058526Y0028626D01*
X0058431Y0028747D01*
X0058340Y0028871D01*
X0058253Y0028997D01*
X0058168Y0029126D01*
X0058087Y0029257D01*
X0058009Y0029389D01*
X0057935Y0029524D01*
X0057864Y0029661D01*
X0057797Y0029799D01*
X0057733Y0029939D01*
X0057673Y0030081D01*
X0057617Y0030224D01*
X0057564Y0030368D01*
X0057515Y0030514D01*
X0057470Y0030661D01*
X0057429Y0030810D01*
X0057391Y0030959D01*
X0057358Y0031109D01*
X0057328Y0031260D01*
X0057302Y0031412D01*
X0057281Y0031564D01*
X0057263Y0031717D01*
X0057249Y0031870D01*
X0057239Y0032023D01*
X0057233Y0032177D01*
X0057231Y0032331D01*
X0057181Y0032331D02*
X0057183Y0032178D01*
X0057189Y0032025D01*
X0057199Y0031872D01*
X0057212Y0031719D01*
X0057230Y0031567D01*
X0057251Y0031415D01*
X0057277Y0031264D01*
X0057306Y0031114D01*
X0057339Y0030964D01*
X0057376Y0030815D01*
X0057416Y0030667D01*
X0057461Y0030521D01*
X0057509Y0030375D01*
X0057561Y0030231D01*
X0057616Y0030088D01*
X0057675Y0029947D01*
X0057738Y0029807D01*
X0057804Y0029669D01*
X0057874Y0029532D01*
X0057947Y0029398D01*
X0058024Y0029265D01*
X0058104Y0029134D01*
X0058187Y0029006D01*
X0058273Y0028879D01*
X0058363Y0028755D01*
X0058456Y0028633D01*
X0058552Y0028514D01*
X0058651Y0028397D01*
X0058753Y0028282D01*
X0058858Y0028170D01*
X0058966Y0028061D01*
X0059076Y0027955D01*
X0059189Y0027852D01*
X0059305Y0027751D01*
X0059423Y0027654D01*
X0059544Y0027559D01*
X0059667Y0027468D01*
X0059792Y0027380D01*
X0059920Y0027295D01*
X0060049Y0027213D01*
X0060181Y0027135D01*
X0060315Y0027060D01*
X0060450Y0026988D01*
X0060588Y0026920D01*
X0060727Y0026856D01*
X0060867Y0026795D01*
X0061009Y0026738D01*
X0061153Y0026684D01*
X0061298Y0026634D01*
X0061444Y0026588D01*
X0061591Y0026545D01*
X0061739Y0026507D01*
X0061889Y0026472D01*
X0062039Y0026441D01*
X0062189Y0026413D01*
X0062341Y0026390D01*
X0062493Y0026371D01*
X0062645Y0026355D01*
X0062798Y0026343D01*
X0062951Y0026335D01*
X0063104Y0026331D01*
X0063258Y0026331D01*
X0063411Y0026335D01*
X0063564Y0026343D01*
X0063717Y0026355D01*
X0063869Y0026371D01*
X0064021Y0026390D01*
X0064173Y0026413D01*
X0064323Y0026441D01*
X0064473Y0026472D01*
X0064623Y0026507D01*
X0064771Y0026545D01*
X0064918Y0026588D01*
X0065064Y0026634D01*
X0065209Y0026684D01*
X0065353Y0026738D01*
X0065495Y0026795D01*
X0065635Y0026856D01*
X0065774Y0026920D01*
X0065912Y0026988D01*
X0066047Y0027060D01*
X0066181Y0027135D01*
X0066313Y0027213D01*
X0066442Y0027295D01*
X0066570Y0027380D01*
X0066695Y0027468D01*
X0066818Y0027559D01*
X0066939Y0027654D01*
X0067057Y0027751D01*
X0067173Y0027852D01*
X0067286Y0027955D01*
X0067396Y0028061D01*
X0067504Y0028170D01*
X0067609Y0028282D01*
X0067711Y0028397D01*
X0067810Y0028514D01*
X0067906Y0028633D01*
X0067999Y0028755D01*
X0068089Y0028879D01*
X0068175Y0029006D01*
X0068258Y0029134D01*
X0068338Y0029265D01*
X0068415Y0029398D01*
X0068488Y0029532D01*
X0068558Y0029669D01*
X0068624Y0029807D01*
X0068687Y0029947D01*
X0068746Y0030088D01*
X0068801Y0030231D01*
X0068853Y0030375D01*
X0068901Y0030521D01*
X0068946Y0030667D01*
X0068986Y0030815D01*
X0069023Y0030964D01*
X0069056Y0031114D01*
X0069085Y0031264D01*
X0069111Y0031415D01*
X0069132Y0031567D01*
X0069150Y0031719D01*
X0069163Y0031872D01*
X0069173Y0032025D01*
X0069179Y0032178D01*
X0069181Y0032331D01*
X0057231Y0046331D02*
X0057233Y0046485D01*
X0057239Y0046639D01*
X0057249Y0046792D01*
X0057263Y0046945D01*
X0057281Y0047098D01*
X0057302Y0047250D01*
X0057328Y0047402D01*
X0057358Y0047553D01*
X0057391Y0047703D01*
X0057429Y0047852D01*
X0057470Y0048001D01*
X0057515Y0048148D01*
X0057564Y0048294D01*
X0057617Y0048438D01*
X0057673Y0048581D01*
X0057733Y0048723D01*
X0057797Y0048863D01*
X0057864Y0049001D01*
X0057935Y0049138D01*
X0058009Y0049273D01*
X0058087Y0049405D01*
X0058168Y0049536D01*
X0058253Y0049665D01*
X0058340Y0049791D01*
X0058431Y0049915D01*
X0058526Y0050036D01*
X0058623Y0050156D01*
X0058723Y0050272D01*
X0058827Y0050386D01*
X0058933Y0050497D01*
X0059042Y0050606D01*
X0059154Y0050711D01*
X0059269Y0050814D01*
X0059386Y0050914D01*
X0059506Y0051010D01*
X0059628Y0051104D01*
X0059752Y0051194D01*
X0059879Y0051281D01*
X0060008Y0051365D01*
X0060140Y0051445D01*
X0060273Y0051522D01*
X0060408Y0051595D01*
X0060545Y0051665D01*
X0060684Y0051732D01*
X0060824Y0051794D01*
X0060966Y0051853D01*
X0061110Y0051909D01*
X0061255Y0051961D01*
X0061401Y0052008D01*
X0061548Y0052053D01*
X0061697Y0052093D01*
X0061846Y0052129D01*
X0061997Y0052162D01*
X0062148Y0052191D01*
X0062300Y0052215D01*
X0062452Y0052236D01*
X0062605Y0052253D01*
X0062758Y0052266D01*
X0062912Y0052275D01*
X0063066Y0052280D01*
X0063219Y0052281D01*
X0063373Y0052278D01*
X0063527Y0052271D01*
X0063680Y0052260D01*
X0063834Y0052245D01*
X0063986Y0052226D01*
X0064138Y0052203D01*
X0064290Y0052177D01*
X0064441Y0052146D01*
X0064591Y0052112D01*
X0064740Y0052073D01*
X0064887Y0052031D01*
X0065034Y0051985D01*
X0065180Y0051935D01*
X0065324Y0051882D01*
X0065467Y0051824D01*
X0065608Y0051763D01*
X0065748Y0051699D01*
X0065886Y0051631D01*
X0066022Y0051559D01*
X0066156Y0051484D01*
X0066288Y0051405D01*
X0066418Y0051323D01*
X0066546Y0051238D01*
X0066672Y0051149D01*
X0066795Y0051057D01*
X0066916Y0050962D01*
X0067035Y0050864D01*
X0067151Y0050763D01*
X0067264Y0050659D01*
X0067375Y0050552D01*
X0067482Y0050442D01*
X0067587Y0050329D01*
X0067689Y0050214D01*
X0067788Y0050096D01*
X0067884Y0049976D01*
X0067977Y0049853D01*
X0068066Y0049728D01*
X0068152Y0049601D01*
X0068235Y0049471D01*
X0068315Y0049339D01*
X0068391Y0049206D01*
X0068463Y0049070D01*
X0068532Y0048932D01*
X0068598Y0048793D01*
X0068660Y0048652D01*
X0068718Y0048510D01*
X0068772Y0048366D01*
X0068823Y0048221D01*
X0068870Y0048074D01*
X0068913Y0047927D01*
X0068952Y0047778D01*
X0068988Y0047628D01*
X0069019Y0047478D01*
X0069047Y0047326D01*
X0069071Y0047174D01*
X0069091Y0047022D01*
X0069107Y0046869D01*
X0069119Y0046715D01*
X0069127Y0046562D01*
X0069131Y0046408D01*
X0069131Y0046254D01*
X0069127Y0046100D01*
X0069119Y0045947D01*
X0069107Y0045793D01*
X0069091Y0045640D01*
X0069071Y0045488D01*
X0069047Y0045336D01*
X0069019Y0045184D01*
X0068988Y0045034D01*
X0068952Y0044884D01*
X0068913Y0044735D01*
X0068870Y0044588D01*
X0068823Y0044441D01*
X0068772Y0044296D01*
X0068718Y0044152D01*
X0068660Y0044010D01*
X0068598Y0043869D01*
X0068532Y0043730D01*
X0068463Y0043592D01*
X0068391Y0043456D01*
X0068315Y0043323D01*
X0068235Y0043191D01*
X0068152Y0043061D01*
X0068066Y0042934D01*
X0067977Y0042809D01*
X0067884Y0042686D01*
X0067788Y0042566D01*
X0067689Y0042448D01*
X0067587Y0042333D01*
X0067482Y0042220D01*
X0067375Y0042110D01*
X0067264Y0042003D01*
X0067151Y0041899D01*
X0067035Y0041798D01*
X0066916Y0041700D01*
X0066795Y0041605D01*
X0066672Y0041513D01*
X0066546Y0041424D01*
X0066418Y0041339D01*
X0066288Y0041257D01*
X0066156Y0041178D01*
X0066022Y0041103D01*
X0065886Y0041031D01*
X0065748Y0040963D01*
X0065608Y0040899D01*
X0065467Y0040838D01*
X0065324Y0040780D01*
X0065180Y0040727D01*
X0065034Y0040677D01*
X0064887Y0040631D01*
X0064740Y0040589D01*
X0064591Y0040550D01*
X0064441Y0040516D01*
X0064290Y0040485D01*
X0064138Y0040459D01*
X0063986Y0040436D01*
X0063834Y0040417D01*
X0063680Y0040402D01*
X0063527Y0040391D01*
X0063373Y0040384D01*
X0063219Y0040381D01*
X0063066Y0040382D01*
X0062912Y0040387D01*
X0062758Y0040396D01*
X0062605Y0040409D01*
X0062452Y0040426D01*
X0062300Y0040447D01*
X0062148Y0040471D01*
X0061997Y0040500D01*
X0061846Y0040533D01*
X0061697Y0040569D01*
X0061548Y0040609D01*
X0061401Y0040654D01*
X0061255Y0040701D01*
X0061110Y0040753D01*
X0060966Y0040809D01*
X0060824Y0040868D01*
X0060684Y0040930D01*
X0060545Y0040997D01*
X0060408Y0041067D01*
X0060273Y0041140D01*
X0060140Y0041217D01*
X0060008Y0041297D01*
X0059879Y0041381D01*
X0059752Y0041468D01*
X0059628Y0041558D01*
X0059506Y0041652D01*
X0059386Y0041748D01*
X0059269Y0041848D01*
X0059154Y0041951D01*
X0059042Y0042056D01*
X0058933Y0042165D01*
X0058827Y0042276D01*
X0058723Y0042390D01*
X0058623Y0042506D01*
X0058526Y0042626D01*
X0058431Y0042747D01*
X0058340Y0042871D01*
X0058253Y0042997D01*
X0058168Y0043126D01*
X0058087Y0043257D01*
X0058009Y0043389D01*
X0057935Y0043524D01*
X0057864Y0043661D01*
X0057797Y0043799D01*
X0057733Y0043939D01*
X0057673Y0044081D01*
X0057617Y0044224D01*
X0057564Y0044368D01*
X0057515Y0044514D01*
X0057470Y0044661D01*
X0057429Y0044810D01*
X0057391Y0044959D01*
X0057358Y0045109D01*
X0057328Y0045260D01*
X0057302Y0045412D01*
X0057281Y0045564D01*
X0057263Y0045717D01*
X0057249Y0045870D01*
X0057239Y0046023D01*
X0057233Y0046177D01*
X0057231Y0046331D01*
X0057181Y0046331D02*
X0057183Y0046484D01*
X0057189Y0046637D01*
X0057199Y0046790D01*
X0057212Y0046943D01*
X0057230Y0047095D01*
X0057251Y0047247D01*
X0057277Y0047398D01*
X0057306Y0047548D01*
X0057339Y0047698D01*
X0057376Y0047847D01*
X0057416Y0047995D01*
X0057461Y0048141D01*
X0057509Y0048287D01*
X0057561Y0048431D01*
X0057616Y0048574D01*
X0057675Y0048715D01*
X0057738Y0048855D01*
X0057804Y0048993D01*
X0057874Y0049130D01*
X0057947Y0049264D01*
X0058024Y0049397D01*
X0058104Y0049528D01*
X0058187Y0049656D01*
X0058273Y0049783D01*
X0058363Y0049907D01*
X0058456Y0050029D01*
X0058552Y0050148D01*
X0058651Y0050265D01*
X0058753Y0050380D01*
X0058858Y0050492D01*
X0058966Y0050601D01*
X0059076Y0050707D01*
X0059189Y0050810D01*
X0059305Y0050911D01*
X0059423Y0051008D01*
X0059544Y0051103D01*
X0059667Y0051194D01*
X0059792Y0051282D01*
X0059920Y0051367D01*
X0060049Y0051449D01*
X0060181Y0051527D01*
X0060315Y0051602D01*
X0060450Y0051674D01*
X0060588Y0051742D01*
X0060727Y0051806D01*
X0060867Y0051867D01*
X0061009Y0051924D01*
X0061153Y0051978D01*
X0061298Y0052028D01*
X0061444Y0052074D01*
X0061591Y0052117D01*
X0061739Y0052155D01*
X0061889Y0052190D01*
X0062039Y0052221D01*
X0062189Y0052249D01*
X0062341Y0052272D01*
X0062493Y0052291D01*
X0062645Y0052307D01*
X0062798Y0052319D01*
X0062951Y0052327D01*
X0063104Y0052331D01*
X0063258Y0052331D01*
X0063411Y0052327D01*
X0063564Y0052319D01*
X0063717Y0052307D01*
X0063869Y0052291D01*
X0064021Y0052272D01*
X0064173Y0052249D01*
X0064323Y0052221D01*
X0064473Y0052190D01*
X0064623Y0052155D01*
X0064771Y0052117D01*
X0064918Y0052074D01*
X0065064Y0052028D01*
X0065209Y0051978D01*
X0065353Y0051924D01*
X0065495Y0051867D01*
X0065635Y0051806D01*
X0065774Y0051742D01*
X0065912Y0051674D01*
X0066047Y0051602D01*
X0066181Y0051527D01*
X0066313Y0051449D01*
X0066442Y0051367D01*
X0066570Y0051282D01*
X0066695Y0051194D01*
X0066818Y0051103D01*
X0066939Y0051008D01*
X0067057Y0050911D01*
X0067173Y0050810D01*
X0067286Y0050707D01*
X0067396Y0050601D01*
X0067504Y0050492D01*
X0067609Y0050380D01*
X0067711Y0050265D01*
X0067810Y0050148D01*
X0067906Y0050029D01*
X0067999Y0049907D01*
X0068089Y0049783D01*
X0068175Y0049656D01*
X0068258Y0049528D01*
X0068338Y0049397D01*
X0068415Y0049264D01*
X0068488Y0049130D01*
X0068558Y0048993D01*
X0068624Y0048855D01*
X0068687Y0048715D01*
X0068746Y0048574D01*
X0068801Y0048431D01*
X0068853Y0048287D01*
X0068901Y0048141D01*
X0068946Y0047995D01*
X0068986Y0047847D01*
X0069023Y0047698D01*
X0069056Y0047548D01*
X0069085Y0047398D01*
X0069111Y0047247D01*
X0069132Y0047095D01*
X0069150Y0046943D01*
X0069163Y0046790D01*
X0069173Y0046637D01*
X0069179Y0046484D01*
X0069181Y0046331D01*
X0065681Y0110898D02*
X0065683Y0111059D01*
X0065689Y0111219D01*
X0065699Y0111380D01*
X0065713Y0111540D01*
X0065731Y0111700D01*
X0065752Y0111859D01*
X0065778Y0112018D01*
X0065808Y0112176D01*
X0065841Y0112333D01*
X0065879Y0112490D01*
X0065920Y0112645D01*
X0065965Y0112799D01*
X0066014Y0112952D01*
X0066067Y0113104D01*
X0066123Y0113255D01*
X0066184Y0113404D01*
X0066247Y0113552D01*
X0066315Y0113698D01*
X0066386Y0113842D01*
X0066460Y0113984D01*
X0066538Y0114125D01*
X0066620Y0114263D01*
X0066705Y0114400D01*
X0066793Y0114534D01*
X0066885Y0114666D01*
X0066980Y0114796D01*
X0067078Y0114924D01*
X0067179Y0115049D01*
X0067283Y0115171D01*
X0067390Y0115291D01*
X0067500Y0115408D01*
X0067613Y0115523D01*
X0067729Y0115634D01*
X0067848Y0115743D01*
X0067969Y0115848D01*
X0068093Y0115951D01*
X0068219Y0116051D01*
X0068347Y0116147D01*
X0068478Y0116240D01*
X0068612Y0116330D01*
X0068747Y0116417D01*
X0068885Y0116500D01*
X0069024Y0116580D01*
X0069166Y0116656D01*
X0069309Y0116729D01*
X0069454Y0116798D01*
X0069601Y0116864D01*
X0069749Y0116926D01*
X0069899Y0116984D01*
X0070050Y0117039D01*
X0070203Y0117090D01*
X0070357Y0117137D01*
X0070512Y0117180D01*
X0070668Y0117219D01*
X0070824Y0117255D01*
X0070982Y0117286D01*
X0071140Y0117314D01*
X0071299Y0117338D01*
X0071459Y0117358D01*
X0071619Y0117374D01*
X0071779Y0117386D01*
X0071940Y0117394D01*
X0072101Y0117398D01*
X0072261Y0117398D01*
X0072422Y0117394D01*
X0072583Y0117386D01*
X0072743Y0117374D01*
X0072903Y0117358D01*
X0073063Y0117338D01*
X0073222Y0117314D01*
X0073380Y0117286D01*
X0073538Y0117255D01*
X0073694Y0117219D01*
X0073850Y0117180D01*
X0074005Y0117137D01*
X0074159Y0117090D01*
X0074312Y0117039D01*
X0074463Y0116984D01*
X0074613Y0116926D01*
X0074761Y0116864D01*
X0074908Y0116798D01*
X0075053Y0116729D01*
X0075196Y0116656D01*
X0075338Y0116580D01*
X0075477Y0116500D01*
X0075615Y0116417D01*
X0075750Y0116330D01*
X0075884Y0116240D01*
X0076015Y0116147D01*
X0076143Y0116051D01*
X0076269Y0115951D01*
X0076393Y0115848D01*
X0076514Y0115743D01*
X0076633Y0115634D01*
X0076749Y0115523D01*
X0076862Y0115408D01*
X0076972Y0115291D01*
X0077079Y0115171D01*
X0077183Y0115049D01*
X0077284Y0114924D01*
X0077382Y0114796D01*
X0077477Y0114666D01*
X0077569Y0114534D01*
X0077657Y0114400D01*
X0077742Y0114263D01*
X0077824Y0114125D01*
X0077902Y0113984D01*
X0077976Y0113842D01*
X0078047Y0113698D01*
X0078115Y0113552D01*
X0078178Y0113404D01*
X0078239Y0113255D01*
X0078295Y0113104D01*
X0078348Y0112952D01*
X0078397Y0112799D01*
X0078442Y0112645D01*
X0078483Y0112490D01*
X0078521Y0112333D01*
X0078554Y0112176D01*
X0078584Y0112018D01*
X0078610Y0111859D01*
X0078631Y0111700D01*
X0078649Y0111540D01*
X0078663Y0111380D01*
X0078673Y0111219D01*
X0078679Y0111059D01*
X0078681Y0110898D01*
X0078679Y0110737D01*
X0078673Y0110577D01*
X0078663Y0110416D01*
X0078649Y0110256D01*
X0078631Y0110096D01*
X0078610Y0109937D01*
X0078584Y0109778D01*
X0078554Y0109620D01*
X0078521Y0109463D01*
X0078483Y0109306D01*
X0078442Y0109151D01*
X0078397Y0108997D01*
X0078348Y0108844D01*
X0078295Y0108692D01*
X0078239Y0108541D01*
X0078178Y0108392D01*
X0078115Y0108244D01*
X0078047Y0108098D01*
X0077976Y0107954D01*
X0077902Y0107812D01*
X0077824Y0107671D01*
X0077742Y0107533D01*
X0077657Y0107396D01*
X0077569Y0107262D01*
X0077477Y0107130D01*
X0077382Y0107000D01*
X0077284Y0106872D01*
X0077183Y0106747D01*
X0077079Y0106625D01*
X0076972Y0106505D01*
X0076862Y0106388D01*
X0076749Y0106273D01*
X0076633Y0106162D01*
X0076514Y0106053D01*
X0076393Y0105948D01*
X0076269Y0105845D01*
X0076143Y0105745D01*
X0076015Y0105649D01*
X0075884Y0105556D01*
X0075750Y0105466D01*
X0075615Y0105379D01*
X0075477Y0105296D01*
X0075338Y0105216D01*
X0075196Y0105140D01*
X0075053Y0105067D01*
X0074908Y0104998D01*
X0074761Y0104932D01*
X0074613Y0104870D01*
X0074463Y0104812D01*
X0074312Y0104757D01*
X0074159Y0104706D01*
X0074005Y0104659D01*
X0073850Y0104616D01*
X0073694Y0104577D01*
X0073538Y0104541D01*
X0073380Y0104510D01*
X0073222Y0104482D01*
X0073063Y0104458D01*
X0072903Y0104438D01*
X0072743Y0104422D01*
X0072583Y0104410D01*
X0072422Y0104402D01*
X0072261Y0104398D01*
X0072101Y0104398D01*
X0071940Y0104402D01*
X0071779Y0104410D01*
X0071619Y0104422D01*
X0071459Y0104438D01*
X0071299Y0104458D01*
X0071140Y0104482D01*
X0070982Y0104510D01*
X0070824Y0104541D01*
X0070668Y0104577D01*
X0070512Y0104616D01*
X0070357Y0104659D01*
X0070203Y0104706D01*
X0070050Y0104757D01*
X0069899Y0104812D01*
X0069749Y0104870D01*
X0069601Y0104932D01*
X0069454Y0104998D01*
X0069309Y0105067D01*
X0069166Y0105140D01*
X0069024Y0105216D01*
X0068885Y0105296D01*
X0068747Y0105379D01*
X0068612Y0105466D01*
X0068478Y0105556D01*
X0068347Y0105649D01*
X0068219Y0105745D01*
X0068093Y0105845D01*
X0067969Y0105948D01*
X0067848Y0106053D01*
X0067729Y0106162D01*
X0067613Y0106273D01*
X0067500Y0106388D01*
X0067390Y0106505D01*
X0067283Y0106625D01*
X0067179Y0106747D01*
X0067078Y0106872D01*
X0066980Y0107000D01*
X0066885Y0107130D01*
X0066793Y0107262D01*
X0066705Y0107396D01*
X0066620Y0107533D01*
X0066538Y0107671D01*
X0066460Y0107812D01*
X0066386Y0107954D01*
X0066315Y0108098D01*
X0066247Y0108244D01*
X0066184Y0108392D01*
X0066123Y0108541D01*
X0066067Y0108692D01*
X0066014Y0108844D01*
X0065965Y0108997D01*
X0065920Y0109151D01*
X0065879Y0109306D01*
X0065841Y0109463D01*
X0065808Y0109620D01*
X0065778Y0109778D01*
X0065752Y0109937D01*
X0065731Y0110096D01*
X0065713Y0110256D01*
X0065699Y0110416D01*
X0065689Y0110577D01*
X0065683Y0110737D01*
X0065681Y0110898D01*
X0011945Y0251709D02*
X0011947Y0251867D01*
X0011953Y0252025D01*
X0011963Y0252183D01*
X0011977Y0252341D01*
X0011995Y0252498D01*
X0012016Y0252655D01*
X0012042Y0252811D01*
X0012072Y0252967D01*
X0012105Y0253122D01*
X0012143Y0253275D01*
X0012184Y0253428D01*
X0012229Y0253580D01*
X0012278Y0253731D01*
X0012331Y0253880D01*
X0012387Y0254028D01*
X0012447Y0254174D01*
X0012511Y0254319D01*
X0012579Y0254462D01*
X0012650Y0254604D01*
X0012724Y0254744D01*
X0012802Y0254881D01*
X0012884Y0255017D01*
X0012968Y0255151D01*
X0013057Y0255282D01*
X0013148Y0255411D01*
X0013243Y0255538D01*
X0013340Y0255663D01*
X0013441Y0255785D01*
X0013545Y0255904D01*
X0013652Y0256021D01*
X0013762Y0256135D01*
X0013875Y0256246D01*
X0013990Y0256355D01*
X0014108Y0256460D01*
X0014229Y0256562D01*
X0014352Y0256662D01*
X0014478Y0256758D01*
X0014606Y0256851D01*
X0014736Y0256941D01*
X0014869Y0257027D01*
X0015004Y0257111D01*
X0015140Y0257190D01*
X0015279Y0257267D01*
X0015420Y0257339D01*
X0015562Y0257409D01*
X0015706Y0257474D01*
X0015852Y0257536D01*
X0015999Y0257594D01*
X0016148Y0257649D01*
X0016298Y0257700D01*
X0016449Y0257747D01*
X0016601Y0257790D01*
X0016754Y0257829D01*
X0016909Y0257865D01*
X0017064Y0257896D01*
X0017220Y0257924D01*
X0017376Y0257948D01*
X0017533Y0257968D01*
X0017691Y0257984D01*
X0017848Y0257996D01*
X0018007Y0258004D01*
X0018165Y0258008D01*
X0018323Y0258008D01*
X0018481Y0258004D01*
X0018640Y0257996D01*
X0018797Y0257984D01*
X0018955Y0257968D01*
X0019112Y0257948D01*
X0019268Y0257924D01*
X0019424Y0257896D01*
X0019579Y0257865D01*
X0019734Y0257829D01*
X0019887Y0257790D01*
X0020039Y0257747D01*
X0020190Y0257700D01*
X0020340Y0257649D01*
X0020489Y0257594D01*
X0020636Y0257536D01*
X0020782Y0257474D01*
X0020926Y0257409D01*
X0021068Y0257339D01*
X0021209Y0257267D01*
X0021348Y0257190D01*
X0021484Y0257111D01*
X0021619Y0257027D01*
X0021752Y0256941D01*
X0021882Y0256851D01*
X0022010Y0256758D01*
X0022136Y0256662D01*
X0022259Y0256562D01*
X0022380Y0256460D01*
X0022498Y0256355D01*
X0022613Y0256246D01*
X0022726Y0256135D01*
X0022836Y0256021D01*
X0022943Y0255904D01*
X0023047Y0255785D01*
X0023148Y0255663D01*
X0023245Y0255538D01*
X0023340Y0255411D01*
X0023431Y0255282D01*
X0023520Y0255151D01*
X0023604Y0255017D01*
X0023686Y0254881D01*
X0023764Y0254744D01*
X0023838Y0254604D01*
X0023909Y0254462D01*
X0023977Y0254319D01*
X0024041Y0254174D01*
X0024101Y0254028D01*
X0024157Y0253880D01*
X0024210Y0253731D01*
X0024259Y0253580D01*
X0024304Y0253428D01*
X0024345Y0253275D01*
X0024383Y0253122D01*
X0024416Y0252967D01*
X0024446Y0252811D01*
X0024472Y0252655D01*
X0024493Y0252498D01*
X0024511Y0252341D01*
X0024525Y0252183D01*
X0024535Y0252025D01*
X0024541Y0251867D01*
X0024543Y0251709D01*
X0024541Y0251551D01*
X0024535Y0251393D01*
X0024525Y0251235D01*
X0024511Y0251077D01*
X0024493Y0250920D01*
X0024472Y0250763D01*
X0024446Y0250607D01*
X0024416Y0250451D01*
X0024383Y0250296D01*
X0024345Y0250143D01*
X0024304Y0249990D01*
X0024259Y0249838D01*
X0024210Y0249687D01*
X0024157Y0249538D01*
X0024101Y0249390D01*
X0024041Y0249244D01*
X0023977Y0249099D01*
X0023909Y0248956D01*
X0023838Y0248814D01*
X0023764Y0248674D01*
X0023686Y0248537D01*
X0023604Y0248401D01*
X0023520Y0248267D01*
X0023431Y0248136D01*
X0023340Y0248007D01*
X0023245Y0247880D01*
X0023148Y0247755D01*
X0023047Y0247633D01*
X0022943Y0247514D01*
X0022836Y0247397D01*
X0022726Y0247283D01*
X0022613Y0247172D01*
X0022498Y0247063D01*
X0022380Y0246958D01*
X0022259Y0246856D01*
X0022136Y0246756D01*
X0022010Y0246660D01*
X0021882Y0246567D01*
X0021752Y0246477D01*
X0021619Y0246391D01*
X0021484Y0246307D01*
X0021348Y0246228D01*
X0021209Y0246151D01*
X0021068Y0246079D01*
X0020926Y0246009D01*
X0020782Y0245944D01*
X0020636Y0245882D01*
X0020489Y0245824D01*
X0020340Y0245769D01*
X0020190Y0245718D01*
X0020039Y0245671D01*
X0019887Y0245628D01*
X0019734Y0245589D01*
X0019579Y0245553D01*
X0019424Y0245522D01*
X0019268Y0245494D01*
X0019112Y0245470D01*
X0018955Y0245450D01*
X0018797Y0245434D01*
X0018640Y0245422D01*
X0018481Y0245414D01*
X0018323Y0245410D01*
X0018165Y0245410D01*
X0018007Y0245414D01*
X0017848Y0245422D01*
X0017691Y0245434D01*
X0017533Y0245450D01*
X0017376Y0245470D01*
X0017220Y0245494D01*
X0017064Y0245522D01*
X0016909Y0245553D01*
X0016754Y0245589D01*
X0016601Y0245628D01*
X0016449Y0245671D01*
X0016298Y0245718D01*
X0016148Y0245769D01*
X0015999Y0245824D01*
X0015852Y0245882D01*
X0015706Y0245944D01*
X0015562Y0246009D01*
X0015420Y0246079D01*
X0015279Y0246151D01*
X0015140Y0246228D01*
X0015004Y0246307D01*
X0014869Y0246391D01*
X0014736Y0246477D01*
X0014606Y0246567D01*
X0014478Y0246660D01*
X0014352Y0246756D01*
X0014229Y0246856D01*
X0014108Y0246958D01*
X0013990Y0247063D01*
X0013875Y0247172D01*
X0013762Y0247283D01*
X0013652Y0247397D01*
X0013545Y0247514D01*
X0013441Y0247633D01*
X0013340Y0247755D01*
X0013243Y0247880D01*
X0013148Y0248007D01*
X0013057Y0248136D01*
X0012968Y0248267D01*
X0012884Y0248401D01*
X0012802Y0248537D01*
X0012724Y0248674D01*
X0012650Y0248814D01*
X0012579Y0248956D01*
X0012511Y0249099D01*
X0012447Y0249244D01*
X0012387Y0249390D01*
X0012331Y0249538D01*
X0012278Y0249687D01*
X0012229Y0249838D01*
X0012184Y0249990D01*
X0012143Y0250143D01*
X0012105Y0250296D01*
X0012072Y0250451D01*
X0012042Y0250607D01*
X0012016Y0250763D01*
X0011995Y0250920D01*
X0011977Y0251077D01*
X0011963Y0251235D01*
X0011953Y0251393D01*
X0011947Y0251551D01*
X0011945Y0251709D01*
X0265231Y0046331D02*
X0265233Y0046485D01*
X0265239Y0046639D01*
X0265249Y0046792D01*
X0265263Y0046945D01*
X0265281Y0047098D01*
X0265302Y0047250D01*
X0265328Y0047402D01*
X0265358Y0047553D01*
X0265391Y0047703D01*
X0265429Y0047852D01*
X0265470Y0048001D01*
X0265515Y0048148D01*
X0265564Y0048294D01*
X0265617Y0048438D01*
X0265673Y0048581D01*
X0265733Y0048723D01*
X0265797Y0048863D01*
X0265864Y0049001D01*
X0265935Y0049138D01*
X0266009Y0049273D01*
X0266087Y0049405D01*
X0266168Y0049536D01*
X0266253Y0049665D01*
X0266340Y0049791D01*
X0266431Y0049915D01*
X0266526Y0050036D01*
X0266623Y0050156D01*
X0266723Y0050272D01*
X0266827Y0050386D01*
X0266933Y0050497D01*
X0267042Y0050606D01*
X0267154Y0050711D01*
X0267269Y0050814D01*
X0267386Y0050914D01*
X0267506Y0051010D01*
X0267628Y0051104D01*
X0267752Y0051194D01*
X0267879Y0051281D01*
X0268008Y0051365D01*
X0268140Y0051445D01*
X0268273Y0051522D01*
X0268408Y0051595D01*
X0268545Y0051665D01*
X0268684Y0051732D01*
X0268824Y0051794D01*
X0268966Y0051853D01*
X0269110Y0051909D01*
X0269255Y0051961D01*
X0269401Y0052008D01*
X0269548Y0052053D01*
X0269697Y0052093D01*
X0269846Y0052129D01*
X0269997Y0052162D01*
X0270148Y0052191D01*
X0270300Y0052215D01*
X0270452Y0052236D01*
X0270605Y0052253D01*
X0270758Y0052266D01*
X0270912Y0052275D01*
X0271066Y0052280D01*
X0271219Y0052281D01*
X0271373Y0052278D01*
X0271527Y0052271D01*
X0271680Y0052260D01*
X0271834Y0052245D01*
X0271986Y0052226D01*
X0272138Y0052203D01*
X0272290Y0052177D01*
X0272441Y0052146D01*
X0272591Y0052112D01*
X0272740Y0052073D01*
X0272887Y0052031D01*
X0273034Y0051985D01*
X0273180Y0051935D01*
X0273324Y0051882D01*
X0273467Y0051824D01*
X0273608Y0051763D01*
X0273748Y0051699D01*
X0273886Y0051631D01*
X0274022Y0051559D01*
X0274156Y0051484D01*
X0274288Y0051405D01*
X0274418Y0051323D01*
X0274546Y0051238D01*
X0274672Y0051149D01*
X0274795Y0051057D01*
X0274916Y0050962D01*
X0275035Y0050864D01*
X0275151Y0050763D01*
X0275264Y0050659D01*
X0275375Y0050552D01*
X0275482Y0050442D01*
X0275587Y0050329D01*
X0275689Y0050214D01*
X0275788Y0050096D01*
X0275884Y0049976D01*
X0275977Y0049853D01*
X0276066Y0049728D01*
X0276152Y0049601D01*
X0276235Y0049471D01*
X0276315Y0049339D01*
X0276391Y0049206D01*
X0276463Y0049070D01*
X0276532Y0048932D01*
X0276598Y0048793D01*
X0276660Y0048652D01*
X0276718Y0048510D01*
X0276772Y0048366D01*
X0276823Y0048221D01*
X0276870Y0048074D01*
X0276913Y0047927D01*
X0276952Y0047778D01*
X0276988Y0047628D01*
X0277019Y0047478D01*
X0277047Y0047326D01*
X0277071Y0047174D01*
X0277091Y0047022D01*
X0277107Y0046869D01*
X0277119Y0046715D01*
X0277127Y0046562D01*
X0277131Y0046408D01*
X0277131Y0046254D01*
X0277127Y0046100D01*
X0277119Y0045947D01*
X0277107Y0045793D01*
X0277091Y0045640D01*
X0277071Y0045488D01*
X0277047Y0045336D01*
X0277019Y0045184D01*
X0276988Y0045034D01*
X0276952Y0044884D01*
X0276913Y0044735D01*
X0276870Y0044588D01*
X0276823Y0044441D01*
X0276772Y0044296D01*
X0276718Y0044152D01*
X0276660Y0044010D01*
X0276598Y0043869D01*
X0276532Y0043730D01*
X0276463Y0043592D01*
X0276391Y0043456D01*
X0276315Y0043323D01*
X0276235Y0043191D01*
X0276152Y0043061D01*
X0276066Y0042934D01*
X0275977Y0042809D01*
X0275884Y0042686D01*
X0275788Y0042566D01*
X0275689Y0042448D01*
X0275587Y0042333D01*
X0275482Y0042220D01*
X0275375Y0042110D01*
X0275264Y0042003D01*
X0275151Y0041899D01*
X0275035Y0041798D01*
X0274916Y0041700D01*
X0274795Y0041605D01*
X0274672Y0041513D01*
X0274546Y0041424D01*
X0274418Y0041339D01*
X0274288Y0041257D01*
X0274156Y0041178D01*
X0274022Y0041103D01*
X0273886Y0041031D01*
X0273748Y0040963D01*
X0273608Y0040899D01*
X0273467Y0040838D01*
X0273324Y0040780D01*
X0273180Y0040727D01*
X0273034Y0040677D01*
X0272887Y0040631D01*
X0272740Y0040589D01*
X0272591Y0040550D01*
X0272441Y0040516D01*
X0272290Y0040485D01*
X0272138Y0040459D01*
X0271986Y0040436D01*
X0271834Y0040417D01*
X0271680Y0040402D01*
X0271527Y0040391D01*
X0271373Y0040384D01*
X0271219Y0040381D01*
X0271066Y0040382D01*
X0270912Y0040387D01*
X0270758Y0040396D01*
X0270605Y0040409D01*
X0270452Y0040426D01*
X0270300Y0040447D01*
X0270148Y0040471D01*
X0269997Y0040500D01*
X0269846Y0040533D01*
X0269697Y0040569D01*
X0269548Y0040609D01*
X0269401Y0040654D01*
X0269255Y0040701D01*
X0269110Y0040753D01*
X0268966Y0040809D01*
X0268824Y0040868D01*
X0268684Y0040930D01*
X0268545Y0040997D01*
X0268408Y0041067D01*
X0268273Y0041140D01*
X0268140Y0041217D01*
X0268008Y0041297D01*
X0267879Y0041381D01*
X0267752Y0041468D01*
X0267628Y0041558D01*
X0267506Y0041652D01*
X0267386Y0041748D01*
X0267269Y0041848D01*
X0267154Y0041951D01*
X0267042Y0042056D01*
X0266933Y0042165D01*
X0266827Y0042276D01*
X0266723Y0042390D01*
X0266623Y0042506D01*
X0266526Y0042626D01*
X0266431Y0042747D01*
X0266340Y0042871D01*
X0266253Y0042997D01*
X0266168Y0043126D01*
X0266087Y0043257D01*
X0266009Y0043389D01*
X0265935Y0043524D01*
X0265864Y0043661D01*
X0265797Y0043799D01*
X0265733Y0043939D01*
X0265673Y0044081D01*
X0265617Y0044224D01*
X0265564Y0044368D01*
X0265515Y0044514D01*
X0265470Y0044661D01*
X0265429Y0044810D01*
X0265391Y0044959D01*
X0265358Y0045109D01*
X0265328Y0045260D01*
X0265302Y0045412D01*
X0265281Y0045564D01*
X0265263Y0045717D01*
X0265249Y0045870D01*
X0265239Y0046023D01*
X0265233Y0046177D01*
X0265231Y0046331D01*
X0265181Y0046331D02*
X0265183Y0046484D01*
X0265189Y0046637D01*
X0265199Y0046790D01*
X0265212Y0046943D01*
X0265230Y0047095D01*
X0265251Y0047247D01*
X0265277Y0047398D01*
X0265306Y0047548D01*
X0265339Y0047698D01*
X0265376Y0047847D01*
X0265416Y0047995D01*
X0265461Y0048141D01*
X0265509Y0048287D01*
X0265561Y0048431D01*
X0265616Y0048574D01*
X0265675Y0048715D01*
X0265738Y0048855D01*
X0265804Y0048993D01*
X0265874Y0049130D01*
X0265947Y0049264D01*
X0266024Y0049397D01*
X0266104Y0049528D01*
X0266187Y0049656D01*
X0266273Y0049783D01*
X0266363Y0049907D01*
X0266456Y0050029D01*
X0266552Y0050148D01*
X0266651Y0050265D01*
X0266753Y0050380D01*
X0266858Y0050492D01*
X0266966Y0050601D01*
X0267076Y0050707D01*
X0267189Y0050810D01*
X0267305Y0050911D01*
X0267423Y0051008D01*
X0267544Y0051103D01*
X0267667Y0051194D01*
X0267792Y0051282D01*
X0267920Y0051367D01*
X0268049Y0051449D01*
X0268181Y0051527D01*
X0268315Y0051602D01*
X0268450Y0051674D01*
X0268588Y0051742D01*
X0268727Y0051806D01*
X0268867Y0051867D01*
X0269009Y0051924D01*
X0269153Y0051978D01*
X0269298Y0052028D01*
X0269444Y0052074D01*
X0269591Y0052117D01*
X0269739Y0052155D01*
X0269889Y0052190D01*
X0270039Y0052221D01*
X0270189Y0052249D01*
X0270341Y0052272D01*
X0270493Y0052291D01*
X0270645Y0052307D01*
X0270798Y0052319D01*
X0270951Y0052327D01*
X0271104Y0052331D01*
X0271258Y0052331D01*
X0271411Y0052327D01*
X0271564Y0052319D01*
X0271717Y0052307D01*
X0271869Y0052291D01*
X0272021Y0052272D01*
X0272173Y0052249D01*
X0272323Y0052221D01*
X0272473Y0052190D01*
X0272623Y0052155D01*
X0272771Y0052117D01*
X0272918Y0052074D01*
X0273064Y0052028D01*
X0273209Y0051978D01*
X0273353Y0051924D01*
X0273495Y0051867D01*
X0273635Y0051806D01*
X0273774Y0051742D01*
X0273912Y0051674D01*
X0274047Y0051602D01*
X0274181Y0051527D01*
X0274313Y0051449D01*
X0274442Y0051367D01*
X0274570Y0051282D01*
X0274695Y0051194D01*
X0274818Y0051103D01*
X0274939Y0051008D01*
X0275057Y0050911D01*
X0275173Y0050810D01*
X0275286Y0050707D01*
X0275396Y0050601D01*
X0275504Y0050492D01*
X0275609Y0050380D01*
X0275711Y0050265D01*
X0275810Y0050148D01*
X0275906Y0050029D01*
X0275999Y0049907D01*
X0276089Y0049783D01*
X0276175Y0049656D01*
X0276258Y0049528D01*
X0276338Y0049397D01*
X0276415Y0049264D01*
X0276488Y0049130D01*
X0276558Y0048993D01*
X0276624Y0048855D01*
X0276687Y0048715D01*
X0276746Y0048574D01*
X0276801Y0048431D01*
X0276853Y0048287D01*
X0276901Y0048141D01*
X0276946Y0047995D01*
X0276986Y0047847D01*
X0277023Y0047698D01*
X0277056Y0047548D01*
X0277085Y0047398D01*
X0277111Y0047247D01*
X0277132Y0047095D01*
X0277150Y0046943D01*
X0277163Y0046790D01*
X0277173Y0046637D01*
X0277179Y0046484D01*
X0277181Y0046331D01*
X0265231Y0032331D02*
X0265233Y0032485D01*
X0265239Y0032639D01*
X0265249Y0032792D01*
X0265263Y0032945D01*
X0265281Y0033098D01*
X0265302Y0033250D01*
X0265328Y0033402D01*
X0265358Y0033553D01*
X0265391Y0033703D01*
X0265429Y0033852D01*
X0265470Y0034001D01*
X0265515Y0034148D01*
X0265564Y0034294D01*
X0265617Y0034438D01*
X0265673Y0034581D01*
X0265733Y0034723D01*
X0265797Y0034863D01*
X0265864Y0035001D01*
X0265935Y0035138D01*
X0266009Y0035273D01*
X0266087Y0035405D01*
X0266168Y0035536D01*
X0266253Y0035665D01*
X0266340Y0035791D01*
X0266431Y0035915D01*
X0266526Y0036036D01*
X0266623Y0036156D01*
X0266723Y0036272D01*
X0266827Y0036386D01*
X0266933Y0036497D01*
X0267042Y0036606D01*
X0267154Y0036711D01*
X0267269Y0036814D01*
X0267386Y0036914D01*
X0267506Y0037010D01*
X0267628Y0037104D01*
X0267752Y0037194D01*
X0267879Y0037281D01*
X0268008Y0037365D01*
X0268140Y0037445D01*
X0268273Y0037522D01*
X0268408Y0037595D01*
X0268545Y0037665D01*
X0268684Y0037732D01*
X0268824Y0037794D01*
X0268966Y0037853D01*
X0269110Y0037909D01*
X0269255Y0037961D01*
X0269401Y0038008D01*
X0269548Y0038053D01*
X0269697Y0038093D01*
X0269846Y0038129D01*
X0269997Y0038162D01*
X0270148Y0038191D01*
X0270300Y0038215D01*
X0270452Y0038236D01*
X0270605Y0038253D01*
X0270758Y0038266D01*
X0270912Y0038275D01*
X0271066Y0038280D01*
X0271219Y0038281D01*
X0271373Y0038278D01*
X0271527Y0038271D01*
X0271680Y0038260D01*
X0271834Y0038245D01*
X0271986Y0038226D01*
X0272138Y0038203D01*
X0272290Y0038177D01*
X0272441Y0038146D01*
X0272591Y0038112D01*
X0272740Y0038073D01*
X0272887Y0038031D01*
X0273034Y0037985D01*
X0273180Y0037935D01*
X0273324Y0037882D01*
X0273467Y0037824D01*
X0273608Y0037763D01*
X0273748Y0037699D01*
X0273886Y0037631D01*
X0274022Y0037559D01*
X0274156Y0037484D01*
X0274288Y0037405D01*
X0274418Y0037323D01*
X0274546Y0037238D01*
X0274672Y0037149D01*
X0274795Y0037057D01*
X0274916Y0036962D01*
X0275035Y0036864D01*
X0275151Y0036763D01*
X0275264Y0036659D01*
X0275375Y0036552D01*
X0275482Y0036442D01*
X0275587Y0036329D01*
X0275689Y0036214D01*
X0275788Y0036096D01*
X0275884Y0035976D01*
X0275977Y0035853D01*
X0276066Y0035728D01*
X0276152Y0035601D01*
X0276235Y0035471D01*
X0276315Y0035339D01*
X0276391Y0035206D01*
X0276463Y0035070D01*
X0276532Y0034932D01*
X0276598Y0034793D01*
X0276660Y0034652D01*
X0276718Y0034510D01*
X0276772Y0034366D01*
X0276823Y0034221D01*
X0276870Y0034074D01*
X0276913Y0033927D01*
X0276952Y0033778D01*
X0276988Y0033628D01*
X0277019Y0033478D01*
X0277047Y0033326D01*
X0277071Y0033174D01*
X0277091Y0033022D01*
X0277107Y0032869D01*
X0277119Y0032715D01*
X0277127Y0032562D01*
X0277131Y0032408D01*
X0277131Y0032254D01*
X0277127Y0032100D01*
X0277119Y0031947D01*
X0277107Y0031793D01*
X0277091Y0031640D01*
X0277071Y0031488D01*
X0277047Y0031336D01*
X0277019Y0031184D01*
X0276988Y0031034D01*
X0276952Y0030884D01*
X0276913Y0030735D01*
X0276870Y0030588D01*
X0276823Y0030441D01*
X0276772Y0030296D01*
X0276718Y0030152D01*
X0276660Y0030010D01*
X0276598Y0029869D01*
X0276532Y0029730D01*
X0276463Y0029592D01*
X0276391Y0029456D01*
X0276315Y0029323D01*
X0276235Y0029191D01*
X0276152Y0029061D01*
X0276066Y0028934D01*
X0275977Y0028809D01*
X0275884Y0028686D01*
X0275788Y0028566D01*
X0275689Y0028448D01*
X0275587Y0028333D01*
X0275482Y0028220D01*
X0275375Y0028110D01*
X0275264Y0028003D01*
X0275151Y0027899D01*
X0275035Y0027798D01*
X0274916Y0027700D01*
X0274795Y0027605D01*
X0274672Y0027513D01*
X0274546Y0027424D01*
X0274418Y0027339D01*
X0274288Y0027257D01*
X0274156Y0027178D01*
X0274022Y0027103D01*
X0273886Y0027031D01*
X0273748Y0026963D01*
X0273608Y0026899D01*
X0273467Y0026838D01*
X0273324Y0026780D01*
X0273180Y0026727D01*
X0273034Y0026677D01*
X0272887Y0026631D01*
X0272740Y0026589D01*
X0272591Y0026550D01*
X0272441Y0026516D01*
X0272290Y0026485D01*
X0272138Y0026459D01*
X0271986Y0026436D01*
X0271834Y0026417D01*
X0271680Y0026402D01*
X0271527Y0026391D01*
X0271373Y0026384D01*
X0271219Y0026381D01*
X0271066Y0026382D01*
X0270912Y0026387D01*
X0270758Y0026396D01*
X0270605Y0026409D01*
X0270452Y0026426D01*
X0270300Y0026447D01*
X0270148Y0026471D01*
X0269997Y0026500D01*
X0269846Y0026533D01*
X0269697Y0026569D01*
X0269548Y0026609D01*
X0269401Y0026654D01*
X0269255Y0026701D01*
X0269110Y0026753D01*
X0268966Y0026809D01*
X0268824Y0026868D01*
X0268684Y0026930D01*
X0268545Y0026997D01*
X0268408Y0027067D01*
X0268273Y0027140D01*
X0268140Y0027217D01*
X0268008Y0027297D01*
X0267879Y0027381D01*
X0267752Y0027468D01*
X0267628Y0027558D01*
X0267506Y0027652D01*
X0267386Y0027748D01*
X0267269Y0027848D01*
X0267154Y0027951D01*
X0267042Y0028056D01*
X0266933Y0028165D01*
X0266827Y0028276D01*
X0266723Y0028390D01*
X0266623Y0028506D01*
X0266526Y0028626D01*
X0266431Y0028747D01*
X0266340Y0028871D01*
X0266253Y0028997D01*
X0266168Y0029126D01*
X0266087Y0029257D01*
X0266009Y0029389D01*
X0265935Y0029524D01*
X0265864Y0029661D01*
X0265797Y0029799D01*
X0265733Y0029939D01*
X0265673Y0030081D01*
X0265617Y0030224D01*
X0265564Y0030368D01*
X0265515Y0030514D01*
X0265470Y0030661D01*
X0265429Y0030810D01*
X0265391Y0030959D01*
X0265358Y0031109D01*
X0265328Y0031260D01*
X0265302Y0031412D01*
X0265281Y0031564D01*
X0265263Y0031717D01*
X0265249Y0031870D01*
X0265239Y0032023D01*
X0265233Y0032177D01*
X0265231Y0032331D01*
X0265181Y0032331D02*
X0265183Y0032178D01*
X0265189Y0032025D01*
X0265199Y0031872D01*
X0265212Y0031719D01*
X0265230Y0031567D01*
X0265251Y0031415D01*
X0265277Y0031264D01*
X0265306Y0031114D01*
X0265339Y0030964D01*
X0265376Y0030815D01*
X0265416Y0030667D01*
X0265461Y0030521D01*
X0265509Y0030375D01*
X0265561Y0030231D01*
X0265616Y0030088D01*
X0265675Y0029947D01*
X0265738Y0029807D01*
X0265804Y0029669D01*
X0265874Y0029532D01*
X0265947Y0029398D01*
X0266024Y0029265D01*
X0266104Y0029134D01*
X0266187Y0029006D01*
X0266273Y0028879D01*
X0266363Y0028755D01*
X0266456Y0028633D01*
X0266552Y0028514D01*
X0266651Y0028397D01*
X0266753Y0028282D01*
X0266858Y0028170D01*
X0266966Y0028061D01*
X0267076Y0027955D01*
X0267189Y0027852D01*
X0267305Y0027751D01*
X0267423Y0027654D01*
X0267544Y0027559D01*
X0267667Y0027468D01*
X0267792Y0027380D01*
X0267920Y0027295D01*
X0268049Y0027213D01*
X0268181Y0027135D01*
X0268315Y0027060D01*
X0268450Y0026988D01*
X0268588Y0026920D01*
X0268727Y0026856D01*
X0268867Y0026795D01*
X0269009Y0026738D01*
X0269153Y0026684D01*
X0269298Y0026634D01*
X0269444Y0026588D01*
X0269591Y0026545D01*
X0269739Y0026507D01*
X0269889Y0026472D01*
X0270039Y0026441D01*
X0270189Y0026413D01*
X0270341Y0026390D01*
X0270493Y0026371D01*
X0270645Y0026355D01*
X0270798Y0026343D01*
X0270951Y0026335D01*
X0271104Y0026331D01*
X0271258Y0026331D01*
X0271411Y0026335D01*
X0271564Y0026343D01*
X0271717Y0026355D01*
X0271869Y0026371D01*
X0272021Y0026390D01*
X0272173Y0026413D01*
X0272323Y0026441D01*
X0272473Y0026472D01*
X0272623Y0026507D01*
X0272771Y0026545D01*
X0272918Y0026588D01*
X0273064Y0026634D01*
X0273209Y0026684D01*
X0273353Y0026738D01*
X0273495Y0026795D01*
X0273635Y0026856D01*
X0273774Y0026920D01*
X0273912Y0026988D01*
X0274047Y0027060D01*
X0274181Y0027135D01*
X0274313Y0027213D01*
X0274442Y0027295D01*
X0274570Y0027380D01*
X0274695Y0027468D01*
X0274818Y0027559D01*
X0274939Y0027654D01*
X0275057Y0027751D01*
X0275173Y0027852D01*
X0275286Y0027955D01*
X0275396Y0028061D01*
X0275504Y0028170D01*
X0275609Y0028282D01*
X0275711Y0028397D01*
X0275810Y0028514D01*
X0275906Y0028633D01*
X0275999Y0028755D01*
X0276089Y0028879D01*
X0276175Y0029006D01*
X0276258Y0029134D01*
X0276338Y0029265D01*
X0276415Y0029398D01*
X0276488Y0029532D01*
X0276558Y0029669D01*
X0276624Y0029807D01*
X0276687Y0029947D01*
X0276746Y0030088D01*
X0276801Y0030231D01*
X0276853Y0030375D01*
X0276901Y0030521D01*
X0276946Y0030667D01*
X0276986Y0030815D01*
X0277023Y0030964D01*
X0277056Y0031114D01*
X0277085Y0031264D01*
X0277111Y0031415D01*
X0277132Y0031567D01*
X0277150Y0031719D01*
X0277163Y0031872D01*
X0277173Y0032025D01*
X0277179Y0032178D01*
X0277181Y0032331D01*
X0320134Y0026394D02*
X0320136Y0026552D01*
X0320142Y0026710D01*
X0320152Y0026868D01*
X0320166Y0027026D01*
X0320184Y0027183D01*
X0320205Y0027340D01*
X0320231Y0027496D01*
X0320261Y0027652D01*
X0320294Y0027807D01*
X0320332Y0027960D01*
X0320373Y0028113D01*
X0320418Y0028265D01*
X0320467Y0028416D01*
X0320520Y0028565D01*
X0320576Y0028713D01*
X0320636Y0028859D01*
X0320700Y0029004D01*
X0320768Y0029147D01*
X0320839Y0029289D01*
X0320913Y0029429D01*
X0320991Y0029566D01*
X0321073Y0029702D01*
X0321157Y0029836D01*
X0321246Y0029967D01*
X0321337Y0030096D01*
X0321432Y0030223D01*
X0321529Y0030348D01*
X0321630Y0030470D01*
X0321734Y0030589D01*
X0321841Y0030706D01*
X0321951Y0030820D01*
X0322064Y0030931D01*
X0322179Y0031040D01*
X0322297Y0031145D01*
X0322418Y0031247D01*
X0322541Y0031347D01*
X0322667Y0031443D01*
X0322795Y0031536D01*
X0322925Y0031626D01*
X0323058Y0031712D01*
X0323193Y0031796D01*
X0323329Y0031875D01*
X0323468Y0031952D01*
X0323609Y0032024D01*
X0323751Y0032094D01*
X0323895Y0032159D01*
X0324041Y0032221D01*
X0324188Y0032279D01*
X0324337Y0032334D01*
X0324487Y0032385D01*
X0324638Y0032432D01*
X0324790Y0032475D01*
X0324943Y0032514D01*
X0325098Y0032550D01*
X0325253Y0032581D01*
X0325409Y0032609D01*
X0325565Y0032633D01*
X0325722Y0032653D01*
X0325880Y0032669D01*
X0326037Y0032681D01*
X0326196Y0032689D01*
X0326354Y0032693D01*
X0326512Y0032693D01*
X0326670Y0032689D01*
X0326829Y0032681D01*
X0326986Y0032669D01*
X0327144Y0032653D01*
X0327301Y0032633D01*
X0327457Y0032609D01*
X0327613Y0032581D01*
X0327768Y0032550D01*
X0327923Y0032514D01*
X0328076Y0032475D01*
X0328228Y0032432D01*
X0328379Y0032385D01*
X0328529Y0032334D01*
X0328678Y0032279D01*
X0328825Y0032221D01*
X0328971Y0032159D01*
X0329115Y0032094D01*
X0329257Y0032024D01*
X0329398Y0031952D01*
X0329537Y0031875D01*
X0329673Y0031796D01*
X0329808Y0031712D01*
X0329941Y0031626D01*
X0330071Y0031536D01*
X0330199Y0031443D01*
X0330325Y0031347D01*
X0330448Y0031247D01*
X0330569Y0031145D01*
X0330687Y0031040D01*
X0330802Y0030931D01*
X0330915Y0030820D01*
X0331025Y0030706D01*
X0331132Y0030589D01*
X0331236Y0030470D01*
X0331337Y0030348D01*
X0331434Y0030223D01*
X0331529Y0030096D01*
X0331620Y0029967D01*
X0331709Y0029836D01*
X0331793Y0029702D01*
X0331875Y0029566D01*
X0331953Y0029429D01*
X0332027Y0029289D01*
X0332098Y0029147D01*
X0332166Y0029004D01*
X0332230Y0028859D01*
X0332290Y0028713D01*
X0332346Y0028565D01*
X0332399Y0028416D01*
X0332448Y0028265D01*
X0332493Y0028113D01*
X0332534Y0027960D01*
X0332572Y0027807D01*
X0332605Y0027652D01*
X0332635Y0027496D01*
X0332661Y0027340D01*
X0332682Y0027183D01*
X0332700Y0027026D01*
X0332714Y0026868D01*
X0332724Y0026710D01*
X0332730Y0026552D01*
X0332732Y0026394D01*
X0332730Y0026236D01*
X0332724Y0026078D01*
X0332714Y0025920D01*
X0332700Y0025762D01*
X0332682Y0025605D01*
X0332661Y0025448D01*
X0332635Y0025292D01*
X0332605Y0025136D01*
X0332572Y0024981D01*
X0332534Y0024828D01*
X0332493Y0024675D01*
X0332448Y0024523D01*
X0332399Y0024372D01*
X0332346Y0024223D01*
X0332290Y0024075D01*
X0332230Y0023929D01*
X0332166Y0023784D01*
X0332098Y0023641D01*
X0332027Y0023499D01*
X0331953Y0023359D01*
X0331875Y0023222D01*
X0331793Y0023086D01*
X0331709Y0022952D01*
X0331620Y0022821D01*
X0331529Y0022692D01*
X0331434Y0022565D01*
X0331337Y0022440D01*
X0331236Y0022318D01*
X0331132Y0022199D01*
X0331025Y0022082D01*
X0330915Y0021968D01*
X0330802Y0021857D01*
X0330687Y0021748D01*
X0330569Y0021643D01*
X0330448Y0021541D01*
X0330325Y0021441D01*
X0330199Y0021345D01*
X0330071Y0021252D01*
X0329941Y0021162D01*
X0329808Y0021076D01*
X0329673Y0020992D01*
X0329537Y0020913D01*
X0329398Y0020836D01*
X0329257Y0020764D01*
X0329115Y0020694D01*
X0328971Y0020629D01*
X0328825Y0020567D01*
X0328678Y0020509D01*
X0328529Y0020454D01*
X0328379Y0020403D01*
X0328228Y0020356D01*
X0328076Y0020313D01*
X0327923Y0020274D01*
X0327768Y0020238D01*
X0327613Y0020207D01*
X0327457Y0020179D01*
X0327301Y0020155D01*
X0327144Y0020135D01*
X0326986Y0020119D01*
X0326829Y0020107D01*
X0326670Y0020099D01*
X0326512Y0020095D01*
X0326354Y0020095D01*
X0326196Y0020099D01*
X0326037Y0020107D01*
X0325880Y0020119D01*
X0325722Y0020135D01*
X0325565Y0020155D01*
X0325409Y0020179D01*
X0325253Y0020207D01*
X0325098Y0020238D01*
X0324943Y0020274D01*
X0324790Y0020313D01*
X0324638Y0020356D01*
X0324487Y0020403D01*
X0324337Y0020454D01*
X0324188Y0020509D01*
X0324041Y0020567D01*
X0323895Y0020629D01*
X0323751Y0020694D01*
X0323609Y0020764D01*
X0323468Y0020836D01*
X0323329Y0020913D01*
X0323193Y0020992D01*
X0323058Y0021076D01*
X0322925Y0021162D01*
X0322795Y0021252D01*
X0322667Y0021345D01*
X0322541Y0021441D01*
X0322418Y0021541D01*
X0322297Y0021643D01*
X0322179Y0021748D01*
X0322064Y0021857D01*
X0321951Y0021968D01*
X0321841Y0022082D01*
X0321734Y0022199D01*
X0321630Y0022318D01*
X0321529Y0022440D01*
X0321432Y0022565D01*
X0321337Y0022692D01*
X0321246Y0022821D01*
X0321157Y0022952D01*
X0321073Y0023086D01*
X0320991Y0023222D01*
X0320913Y0023359D01*
X0320839Y0023499D01*
X0320768Y0023641D01*
X0320700Y0023784D01*
X0320636Y0023929D01*
X0320576Y0024075D01*
X0320520Y0024223D01*
X0320467Y0024372D01*
X0320418Y0024523D01*
X0320373Y0024675D01*
X0320332Y0024828D01*
X0320294Y0024981D01*
X0320261Y0025136D01*
X0320231Y0025292D01*
X0320205Y0025448D01*
X0320184Y0025605D01*
X0320166Y0025762D01*
X0320152Y0025920D01*
X0320142Y0026078D01*
X0320136Y0026236D01*
X0320134Y0026394D01*
X0319071Y0251709D02*
X0319073Y0251867D01*
X0319079Y0252025D01*
X0319089Y0252183D01*
X0319103Y0252341D01*
X0319121Y0252498D01*
X0319142Y0252655D01*
X0319168Y0252811D01*
X0319198Y0252967D01*
X0319231Y0253122D01*
X0319269Y0253275D01*
X0319310Y0253428D01*
X0319355Y0253580D01*
X0319404Y0253731D01*
X0319457Y0253880D01*
X0319513Y0254028D01*
X0319573Y0254174D01*
X0319637Y0254319D01*
X0319705Y0254462D01*
X0319776Y0254604D01*
X0319850Y0254744D01*
X0319928Y0254881D01*
X0320010Y0255017D01*
X0320094Y0255151D01*
X0320183Y0255282D01*
X0320274Y0255411D01*
X0320369Y0255538D01*
X0320466Y0255663D01*
X0320567Y0255785D01*
X0320671Y0255904D01*
X0320778Y0256021D01*
X0320888Y0256135D01*
X0321001Y0256246D01*
X0321116Y0256355D01*
X0321234Y0256460D01*
X0321355Y0256562D01*
X0321478Y0256662D01*
X0321604Y0256758D01*
X0321732Y0256851D01*
X0321862Y0256941D01*
X0321995Y0257027D01*
X0322130Y0257111D01*
X0322266Y0257190D01*
X0322405Y0257267D01*
X0322546Y0257339D01*
X0322688Y0257409D01*
X0322832Y0257474D01*
X0322978Y0257536D01*
X0323125Y0257594D01*
X0323274Y0257649D01*
X0323424Y0257700D01*
X0323575Y0257747D01*
X0323727Y0257790D01*
X0323880Y0257829D01*
X0324035Y0257865D01*
X0324190Y0257896D01*
X0324346Y0257924D01*
X0324502Y0257948D01*
X0324659Y0257968D01*
X0324817Y0257984D01*
X0324974Y0257996D01*
X0325133Y0258004D01*
X0325291Y0258008D01*
X0325449Y0258008D01*
X0325607Y0258004D01*
X0325766Y0257996D01*
X0325923Y0257984D01*
X0326081Y0257968D01*
X0326238Y0257948D01*
X0326394Y0257924D01*
X0326550Y0257896D01*
X0326705Y0257865D01*
X0326860Y0257829D01*
X0327013Y0257790D01*
X0327165Y0257747D01*
X0327316Y0257700D01*
X0327466Y0257649D01*
X0327615Y0257594D01*
X0327762Y0257536D01*
X0327908Y0257474D01*
X0328052Y0257409D01*
X0328194Y0257339D01*
X0328335Y0257267D01*
X0328474Y0257190D01*
X0328610Y0257111D01*
X0328745Y0257027D01*
X0328878Y0256941D01*
X0329008Y0256851D01*
X0329136Y0256758D01*
X0329262Y0256662D01*
X0329385Y0256562D01*
X0329506Y0256460D01*
X0329624Y0256355D01*
X0329739Y0256246D01*
X0329852Y0256135D01*
X0329962Y0256021D01*
X0330069Y0255904D01*
X0330173Y0255785D01*
X0330274Y0255663D01*
X0330371Y0255538D01*
X0330466Y0255411D01*
X0330557Y0255282D01*
X0330646Y0255151D01*
X0330730Y0255017D01*
X0330812Y0254881D01*
X0330890Y0254744D01*
X0330964Y0254604D01*
X0331035Y0254462D01*
X0331103Y0254319D01*
X0331167Y0254174D01*
X0331227Y0254028D01*
X0331283Y0253880D01*
X0331336Y0253731D01*
X0331385Y0253580D01*
X0331430Y0253428D01*
X0331471Y0253275D01*
X0331509Y0253122D01*
X0331542Y0252967D01*
X0331572Y0252811D01*
X0331598Y0252655D01*
X0331619Y0252498D01*
X0331637Y0252341D01*
X0331651Y0252183D01*
X0331661Y0252025D01*
X0331667Y0251867D01*
X0331669Y0251709D01*
X0331667Y0251551D01*
X0331661Y0251393D01*
X0331651Y0251235D01*
X0331637Y0251077D01*
X0331619Y0250920D01*
X0331598Y0250763D01*
X0331572Y0250607D01*
X0331542Y0250451D01*
X0331509Y0250296D01*
X0331471Y0250143D01*
X0331430Y0249990D01*
X0331385Y0249838D01*
X0331336Y0249687D01*
X0331283Y0249538D01*
X0331227Y0249390D01*
X0331167Y0249244D01*
X0331103Y0249099D01*
X0331035Y0248956D01*
X0330964Y0248814D01*
X0330890Y0248674D01*
X0330812Y0248537D01*
X0330730Y0248401D01*
X0330646Y0248267D01*
X0330557Y0248136D01*
X0330466Y0248007D01*
X0330371Y0247880D01*
X0330274Y0247755D01*
X0330173Y0247633D01*
X0330069Y0247514D01*
X0329962Y0247397D01*
X0329852Y0247283D01*
X0329739Y0247172D01*
X0329624Y0247063D01*
X0329506Y0246958D01*
X0329385Y0246856D01*
X0329262Y0246756D01*
X0329136Y0246660D01*
X0329008Y0246567D01*
X0328878Y0246477D01*
X0328745Y0246391D01*
X0328610Y0246307D01*
X0328474Y0246228D01*
X0328335Y0246151D01*
X0328194Y0246079D01*
X0328052Y0246009D01*
X0327908Y0245944D01*
X0327762Y0245882D01*
X0327615Y0245824D01*
X0327466Y0245769D01*
X0327316Y0245718D01*
X0327165Y0245671D01*
X0327013Y0245628D01*
X0326860Y0245589D01*
X0326705Y0245553D01*
X0326550Y0245522D01*
X0326394Y0245494D01*
X0326238Y0245470D01*
X0326081Y0245450D01*
X0325923Y0245434D01*
X0325766Y0245422D01*
X0325607Y0245414D01*
X0325449Y0245410D01*
X0325291Y0245410D01*
X0325133Y0245414D01*
X0324974Y0245422D01*
X0324817Y0245434D01*
X0324659Y0245450D01*
X0324502Y0245470D01*
X0324346Y0245494D01*
X0324190Y0245522D01*
X0324035Y0245553D01*
X0323880Y0245589D01*
X0323727Y0245628D01*
X0323575Y0245671D01*
X0323424Y0245718D01*
X0323274Y0245769D01*
X0323125Y0245824D01*
X0322978Y0245882D01*
X0322832Y0245944D01*
X0322688Y0246009D01*
X0322546Y0246079D01*
X0322405Y0246151D01*
X0322266Y0246228D01*
X0322130Y0246307D01*
X0321995Y0246391D01*
X0321862Y0246477D01*
X0321732Y0246567D01*
X0321604Y0246660D01*
X0321478Y0246756D01*
X0321355Y0246856D01*
X0321234Y0246958D01*
X0321116Y0247063D01*
X0321001Y0247172D01*
X0320888Y0247283D01*
X0320778Y0247397D01*
X0320671Y0247514D01*
X0320567Y0247633D01*
X0320466Y0247755D01*
X0320369Y0247880D01*
X0320274Y0248007D01*
X0320183Y0248136D01*
X0320094Y0248267D01*
X0320010Y0248401D01*
X0319928Y0248537D01*
X0319850Y0248674D01*
X0319776Y0248814D01*
X0319705Y0248956D01*
X0319637Y0249099D01*
X0319573Y0249244D01*
X0319513Y0249390D01*
X0319457Y0249538D01*
X0319404Y0249687D01*
X0319355Y0249838D01*
X0319310Y0249990D01*
X0319269Y0250143D01*
X0319231Y0250296D01*
X0319198Y0250451D01*
X0319168Y0250607D01*
X0319142Y0250763D01*
X0319121Y0250920D01*
X0319103Y0251077D01*
X0319089Y0251235D01*
X0319079Y0251393D01*
X0319073Y0251551D01*
X0319071Y0251709D01*
D11*
X0326370Y0200331D02*
X0325370Y0199331D01*
X0325370Y0191331D01*
X0326370Y0190331D01*
X0325370Y0189331D01*
X0325370Y0181331D01*
X0326370Y0180331D01*
X0325370Y0179331D01*
X0325370Y0171331D01*
X0326370Y0170331D01*
X0325370Y0169331D01*
X0325370Y0161331D01*
X0326370Y0160331D01*
X0334370Y0160331D01*
X0335370Y0161331D01*
X0335370Y0169331D01*
X0334370Y0170331D01*
X0335370Y0171331D01*
X0335370Y0179331D01*
X0334370Y0180331D01*
X0335370Y0181331D01*
X0335370Y0189331D01*
X0334370Y0190331D01*
X0335370Y0191331D01*
X0335370Y0199331D01*
X0334370Y0200331D01*
X0326370Y0200331D01*
X0326370Y0155331D02*
X0334370Y0155331D01*
X0335370Y0154331D01*
X0335370Y0146331D01*
X0334370Y0145331D01*
X0335370Y0144331D01*
X0335370Y0136331D01*
X0334370Y0135331D01*
X0335370Y0134331D01*
X0335370Y0126331D01*
X0334370Y0125331D01*
X0326370Y0125331D01*
X0325370Y0126331D01*
X0325370Y0134331D01*
X0326370Y0135331D01*
X0325370Y0136331D01*
X0325370Y0144331D01*
X0326370Y0145331D01*
X0325370Y0146331D01*
X0325370Y0154331D01*
X0326370Y0155331D01*
X0254622Y0183835D02*
X0254622Y0103835D01*
X0214622Y0103835D01*
X0214622Y0183835D01*
X0229622Y0183835D01*
X0229622Y0178835D01*
X0239622Y0178835D01*
X0239622Y0183835D01*
X0229622Y0183835D01*
X0232122Y0176335D02*
X0237122Y0166335D01*
X0237122Y0171335D01*
X0237122Y0176335D01*
X0232122Y0176335D01*
X0232122Y0171335D01*
X0232122Y0166335D01*
X0237122Y0166335D01*
X0237122Y0171335D02*
X0249622Y0171335D01*
X0249622Y0174835D01*
X0254622Y0183835D02*
X0239622Y0183835D01*
X0232122Y0171335D02*
X0219622Y0171335D01*
X0219622Y0174835D01*
X0197496Y0183835D02*
X0182496Y0183835D01*
X0172496Y0183835D01*
X0157496Y0183835D01*
X0157496Y0103835D01*
X0197496Y0103835D01*
X0197496Y0183835D01*
X0192496Y0174835D02*
X0192496Y0171335D01*
X0179996Y0171335D01*
X0179996Y0166335D01*
X0174996Y0176335D01*
X0174996Y0171335D01*
X0174996Y0166335D01*
X0179996Y0166335D01*
X0179996Y0171335D02*
X0179996Y0176335D01*
X0174996Y0176335D01*
X0172496Y0178835D02*
X0172496Y0183835D01*
X0172496Y0178835D02*
X0182496Y0178835D01*
X0182496Y0183835D01*
X0174996Y0171335D02*
X0162496Y0171335D01*
X0162496Y0174835D01*
X0142181Y0183835D02*
X0127181Y0183835D01*
X0117181Y0183835D01*
X0102181Y0183835D01*
X0102181Y0103835D01*
X0142181Y0103835D01*
X0142181Y0183835D01*
X0137181Y0174835D02*
X0137181Y0171335D01*
X0124681Y0171335D01*
X0124681Y0166335D01*
X0119681Y0176335D01*
X0119681Y0171335D01*
X0119681Y0166335D01*
X0124681Y0166335D01*
X0124681Y0171335D02*
X0124681Y0176335D01*
X0119681Y0176335D01*
X0117181Y0178835D02*
X0117181Y0183835D01*
X0117181Y0178835D02*
X0127181Y0178835D01*
X0127181Y0183835D01*
X0119681Y0171335D02*
X0107181Y0171335D01*
X0107181Y0174835D01*
X0110402Y0195528D02*
X0110402Y0205528D01*
X0126402Y0205528D01*
X0126402Y0195528D01*
X0110402Y0195528D01*
X0115902Y0200528D02*
X0118402Y0200528D01*
X0118402Y0198028D01*
X0118402Y0200528D02*
X0118402Y0203028D01*
X0118402Y0200528D02*
X0122402Y0203028D01*
X0122402Y0198028D01*
X0118402Y0200528D01*
X0124402Y0200528D01*
X0081118Y0202898D02*
X0081118Y0196898D01*
X0081116Y0196838D01*
X0081111Y0196777D01*
X0081102Y0196718D01*
X0081089Y0196659D01*
X0081073Y0196600D01*
X0081053Y0196543D01*
X0081030Y0196488D01*
X0081003Y0196433D01*
X0080974Y0196381D01*
X0080941Y0196330D01*
X0080905Y0196281D01*
X0080867Y0196235D01*
X0080825Y0196191D01*
X0080781Y0196149D01*
X0080735Y0196111D01*
X0080686Y0196075D01*
X0080635Y0196042D01*
X0080583Y0196013D01*
X0080528Y0195986D01*
X0080473Y0195963D01*
X0080416Y0195943D01*
X0080357Y0195927D01*
X0080298Y0195914D01*
X0080239Y0195905D01*
X0080178Y0195900D01*
X0080118Y0195898D01*
X0078618Y0195898D01*
X0078118Y0196398D01*
X0064118Y0196398D01*
X0063618Y0195898D01*
X0062118Y0195898D01*
X0062058Y0195900D01*
X0061997Y0195905D01*
X0061938Y0195914D01*
X0061879Y0195927D01*
X0061820Y0195943D01*
X0061763Y0195963D01*
X0061708Y0195986D01*
X0061653Y0196013D01*
X0061601Y0196042D01*
X0061550Y0196075D01*
X0061501Y0196111D01*
X0061455Y0196149D01*
X0061411Y0196191D01*
X0061369Y0196235D01*
X0061331Y0196281D01*
X0061295Y0196330D01*
X0061262Y0196381D01*
X0061233Y0196433D01*
X0061206Y0196488D01*
X0061183Y0196543D01*
X0061163Y0196600D01*
X0061147Y0196659D01*
X0061134Y0196718D01*
X0061125Y0196777D01*
X0061120Y0196838D01*
X0061118Y0196898D01*
X0061118Y0202898D01*
X0061120Y0202958D01*
X0061125Y0203019D01*
X0061134Y0203078D01*
X0061147Y0203137D01*
X0061163Y0203196D01*
X0061183Y0203253D01*
X0061206Y0203308D01*
X0061233Y0203363D01*
X0061262Y0203415D01*
X0061295Y0203466D01*
X0061331Y0203515D01*
X0061369Y0203561D01*
X0061411Y0203605D01*
X0061455Y0203647D01*
X0061501Y0203685D01*
X0061550Y0203721D01*
X0061601Y0203754D01*
X0061653Y0203783D01*
X0061708Y0203810D01*
X0061763Y0203833D01*
X0061820Y0203853D01*
X0061879Y0203869D01*
X0061938Y0203882D01*
X0061997Y0203891D01*
X0062058Y0203896D01*
X0062118Y0203898D01*
X0063618Y0203898D01*
X0064118Y0203398D01*
X0078118Y0203398D01*
X0078618Y0203898D01*
X0080118Y0203898D01*
X0080178Y0203896D01*
X0080239Y0203891D01*
X0080298Y0203882D01*
X0080357Y0203869D01*
X0080416Y0203853D01*
X0080473Y0203833D01*
X0080528Y0203810D01*
X0080583Y0203783D01*
X0080635Y0203754D01*
X0080686Y0203721D01*
X0080735Y0203685D01*
X0080781Y0203647D01*
X0080825Y0203605D01*
X0080867Y0203561D01*
X0080905Y0203515D01*
X0080941Y0203466D01*
X0080974Y0203415D01*
X0081003Y0203363D01*
X0081030Y0203308D01*
X0081053Y0203253D01*
X0081073Y0203196D01*
X0081089Y0203137D01*
X0081102Y0203078D01*
X0081111Y0203019D01*
X0081116Y0202958D01*
X0081118Y0202898D01*
X0081181Y0248520D02*
X0073181Y0248520D01*
X0072181Y0249520D01*
X0071181Y0248520D01*
X0063181Y0248520D01*
X0062181Y0249520D01*
X0061181Y0248520D01*
X0053181Y0248520D01*
X0052181Y0249520D01*
X0051181Y0248520D01*
X0043181Y0248520D01*
X0042181Y0249520D01*
X0042181Y0257520D01*
X0043181Y0258520D01*
X0051181Y0258520D01*
X0052181Y0257520D01*
X0053181Y0258520D01*
X0061181Y0258520D01*
X0062181Y0257520D01*
X0063181Y0258520D01*
X0071181Y0258520D01*
X0072181Y0257520D01*
X0073181Y0258520D01*
X0081181Y0258520D01*
X0082181Y0257520D01*
X0082181Y0249520D01*
X0081181Y0248520D01*
X0018244Y0199331D02*
X0018244Y0191331D01*
X0017244Y0190331D01*
X0018244Y0189331D01*
X0018244Y0181331D01*
X0017244Y0180331D01*
X0018244Y0179331D01*
X0018244Y0171331D01*
X0017244Y0170331D01*
X0018244Y0169331D01*
X0018244Y0161331D01*
X0017244Y0160331D01*
X0009244Y0160331D01*
X0008244Y0161331D01*
X0008244Y0169331D01*
X0009244Y0170331D01*
X0008244Y0171331D01*
X0008244Y0179331D01*
X0009244Y0180331D01*
X0008244Y0181331D01*
X0008244Y0189331D01*
X0009244Y0190331D01*
X0008244Y0191331D01*
X0008244Y0199331D01*
X0009244Y0200331D01*
X0017244Y0200331D01*
X0018244Y0199331D01*
X0017244Y0155331D02*
X0009244Y0155331D01*
X0008244Y0154331D01*
X0008244Y0146331D01*
X0009244Y0145331D01*
X0008244Y0144331D01*
X0008244Y0136331D01*
X0009244Y0135331D01*
X0008244Y0134331D01*
X0008244Y0126331D01*
X0009244Y0125331D01*
X0017244Y0125331D01*
X0018244Y0126331D01*
X0018244Y0134331D01*
X0017244Y0135331D01*
X0018244Y0136331D01*
X0018244Y0144331D01*
X0017244Y0145331D01*
X0018244Y0146331D01*
X0018244Y0154331D01*
X0017244Y0155331D01*
X0105881Y0122535D02*
X0107181Y0121335D01*
X0107181Y0124535D01*
X0107181Y0121335D02*
X0109681Y0118835D01*
X0114681Y0118835D01*
X0114681Y0148835D01*
X0111181Y0148835D01*
X0129681Y0148835D02*
X0129681Y0118835D01*
X0134681Y0118835D01*
X0137181Y0121335D01*
X0138481Y0122535D01*
X0137181Y0121335D02*
X0137181Y0124535D01*
X0137181Y0116335D02*
X0137181Y0113035D01*
X0161196Y0122535D02*
X0162496Y0121335D01*
X0162496Y0124535D01*
X0162496Y0121335D02*
X0164996Y0118835D01*
X0169996Y0118835D01*
X0169996Y0148835D01*
X0166496Y0148835D01*
X0184996Y0148835D02*
X0184996Y0118835D01*
X0189996Y0118835D01*
X0192496Y0121335D01*
X0193796Y0122535D01*
X0192496Y0121335D02*
X0192496Y0124535D01*
X0192496Y0116335D02*
X0192496Y0113035D01*
X0219622Y0113035D02*
X0219622Y0116335D01*
X0222122Y0118835D02*
X0219622Y0121335D01*
X0218322Y0122535D01*
X0219622Y0121335D02*
X0219622Y0124535D01*
X0222122Y0118835D02*
X0227122Y0118835D01*
X0227122Y0148835D01*
X0223622Y0148835D01*
X0242122Y0148835D02*
X0242122Y0118835D01*
X0247122Y0118835D01*
X0249622Y0121335D01*
X0250922Y0122535D01*
X0249622Y0121335D02*
X0249622Y0124535D01*
X0249622Y0116335D02*
X0249622Y0113035D01*
X0288870Y0090331D02*
X0296370Y0090331D01*
X0296372Y0090205D01*
X0296378Y0090080D01*
X0296388Y0089955D01*
X0296402Y0089830D01*
X0296419Y0089705D01*
X0296441Y0089581D01*
X0296466Y0089458D01*
X0296496Y0089336D01*
X0296529Y0089215D01*
X0296566Y0089095D01*
X0296606Y0088976D01*
X0296651Y0088859D01*
X0296699Y0088742D01*
X0296751Y0088628D01*
X0296806Y0088515D01*
X0296865Y0088404D01*
X0296927Y0088295D01*
X0296993Y0088188D01*
X0297062Y0088083D01*
X0297134Y0087980D01*
X0297209Y0087879D01*
X0297288Y0087781D01*
X0297370Y0087686D01*
X0297454Y0087593D01*
X0297542Y0087503D01*
X0297632Y0087415D01*
X0297725Y0087331D01*
X0297820Y0087249D01*
X0297918Y0087170D01*
X0298019Y0087095D01*
X0298122Y0087023D01*
X0298227Y0086954D01*
X0298334Y0086888D01*
X0298443Y0086826D01*
X0298554Y0086767D01*
X0298667Y0086712D01*
X0298781Y0086660D01*
X0298898Y0086612D01*
X0299015Y0086567D01*
X0299134Y0086527D01*
X0299254Y0086490D01*
X0299375Y0086457D01*
X0299497Y0086427D01*
X0299620Y0086402D01*
X0299744Y0086380D01*
X0299869Y0086363D01*
X0299994Y0086349D01*
X0300119Y0086339D01*
X0300244Y0086333D01*
X0300370Y0086331D01*
X0300496Y0086333D01*
X0300621Y0086339D01*
X0300746Y0086349D01*
X0300871Y0086363D01*
X0300996Y0086380D01*
X0301120Y0086402D01*
X0301243Y0086427D01*
X0301365Y0086457D01*
X0301486Y0086490D01*
X0301606Y0086527D01*
X0301725Y0086567D01*
X0301842Y0086612D01*
X0301959Y0086660D01*
X0302073Y0086712D01*
X0302186Y0086767D01*
X0302297Y0086826D01*
X0302406Y0086888D01*
X0302513Y0086954D01*
X0302618Y0087023D01*
X0302721Y0087095D01*
X0302822Y0087170D01*
X0302920Y0087249D01*
X0303015Y0087331D01*
X0303108Y0087415D01*
X0303198Y0087503D01*
X0303286Y0087593D01*
X0303370Y0087686D01*
X0303452Y0087781D01*
X0303531Y0087879D01*
X0303606Y0087980D01*
X0303678Y0088083D01*
X0303747Y0088188D01*
X0303813Y0088295D01*
X0303875Y0088404D01*
X0303934Y0088515D01*
X0303989Y0088628D01*
X0304041Y0088742D01*
X0304089Y0088859D01*
X0304134Y0088976D01*
X0304174Y0089095D01*
X0304211Y0089215D01*
X0304244Y0089336D01*
X0304274Y0089458D01*
X0304299Y0089581D01*
X0304321Y0089705D01*
X0304338Y0089830D01*
X0304352Y0089955D01*
X0304362Y0090080D01*
X0304368Y0090205D01*
X0304370Y0090331D01*
X0311870Y0090331D01*
X0311870Y0060331D01*
X0288870Y0060331D01*
X0288870Y0090331D01*
X0246181Y0070331D02*
X0243681Y0072831D01*
X0240681Y0072831D01*
X0238181Y0070331D01*
X0231181Y0070331D02*
X0228681Y0072831D01*
X0225681Y0072831D01*
X0223181Y0070331D01*
X0216181Y0070331D02*
X0213681Y0072831D01*
X0210681Y0072831D01*
X0208181Y0070331D01*
X0201181Y0070331D02*
X0198681Y0072831D01*
X0195681Y0072831D01*
X0193181Y0070331D01*
X0186181Y0070331D02*
X0183681Y0072831D01*
X0180681Y0072831D01*
X0178181Y0070331D01*
X0171181Y0070331D02*
X0168681Y0072831D01*
X0165681Y0072831D01*
X0163181Y0070331D01*
X0156181Y0070331D02*
X0153681Y0072831D01*
X0150681Y0072831D01*
X0148181Y0070331D01*
X0141181Y0070331D02*
X0138681Y0072831D01*
X0135681Y0072831D01*
X0133181Y0070331D01*
X0126181Y0070331D02*
X0123681Y0072831D01*
X0120681Y0072831D01*
X0118181Y0070331D01*
X0111181Y0070331D02*
X0108681Y0072831D01*
X0105681Y0072831D01*
X0103181Y0070331D01*
X0096181Y0070331D02*
X0093681Y0072831D01*
X0090681Y0072831D01*
X0088181Y0070331D01*
X0088181Y0060331D02*
X0088181Y0045331D01*
X0074681Y0045331D01*
X0037181Y0045331D01*
X0037181Y0033331D01*
X0074681Y0033331D01*
X0074681Y0001831D01*
X0259681Y0001831D01*
X0259681Y0033331D01*
X0259681Y0045331D01*
X0246181Y0045331D01*
X0246181Y0060331D01*
X0238181Y0060331D02*
X0238181Y0055831D01*
X0236181Y0053831D01*
X0236181Y0051331D01*
X0233181Y0051331D01*
X0233181Y0053831D01*
X0231181Y0055831D01*
X0231181Y0060331D01*
X0223181Y0060331D02*
X0223181Y0055831D01*
X0221181Y0053831D01*
X0221181Y0051331D01*
X0218181Y0051331D01*
X0218181Y0053831D01*
X0216181Y0055831D01*
X0216181Y0060331D01*
X0208181Y0060331D02*
X0208181Y0055831D01*
X0206181Y0053831D01*
X0206181Y0051331D01*
X0203181Y0051331D01*
X0203181Y0053831D01*
X0201181Y0055831D01*
X0201181Y0060331D01*
X0193181Y0060331D02*
X0193181Y0055831D01*
X0191181Y0053831D01*
X0191181Y0051331D01*
X0188181Y0051331D01*
X0188181Y0053831D01*
X0186181Y0055831D01*
X0186181Y0060331D01*
X0178181Y0060331D02*
X0178181Y0055831D01*
X0176181Y0053831D01*
X0176181Y0051331D01*
X0173181Y0051331D01*
X0173181Y0053831D01*
X0171181Y0055831D01*
X0171181Y0060331D01*
X0163181Y0060331D02*
X0163181Y0055831D01*
X0161181Y0053831D01*
X0161181Y0051331D01*
X0158181Y0051331D01*
X0158181Y0053831D01*
X0156181Y0055831D01*
X0156181Y0060331D01*
X0148181Y0060331D02*
X0148181Y0055831D01*
X0146181Y0053831D01*
X0146181Y0051331D01*
X0143181Y0051331D01*
X0143181Y0053831D01*
X0141181Y0055831D01*
X0141181Y0060331D01*
X0133181Y0060331D02*
X0133181Y0055831D01*
X0131181Y0053831D01*
X0131181Y0051331D01*
X0128181Y0051331D01*
X0128181Y0053831D01*
X0126181Y0055831D01*
X0126181Y0060331D01*
X0118181Y0060331D02*
X0118181Y0055831D01*
X0116181Y0053831D01*
X0116181Y0051331D01*
X0113181Y0051331D01*
X0113181Y0053831D01*
X0111181Y0055831D01*
X0111181Y0060331D01*
X0103181Y0060331D02*
X0103181Y0055831D01*
X0101181Y0053831D01*
X0101181Y0051331D01*
X0098181Y0051331D01*
X0098181Y0053831D01*
X0096181Y0055831D01*
X0096181Y0060331D01*
X0093681Y0045331D02*
X0088181Y0045331D01*
X0074681Y0045331D02*
X0074681Y0033331D01*
X0052181Y0029331D02*
X0052181Y0049331D01*
X0105681Y0045331D02*
X0108681Y0045331D01*
X0120681Y0045331D02*
X0123681Y0045331D01*
X0135681Y0045331D02*
X0138681Y0045331D01*
X0150681Y0045331D02*
X0153681Y0045331D01*
X0165681Y0045331D02*
X0168681Y0045331D01*
X0180681Y0045331D02*
X0183681Y0045331D01*
X0195681Y0045331D02*
X0198681Y0045331D01*
X0210681Y0045331D02*
X0213681Y0045331D01*
X0225681Y0045331D02*
X0228681Y0045331D01*
X0240681Y0045331D02*
X0246181Y0045331D01*
X0259681Y0045331D02*
X0297181Y0045331D01*
X0297181Y0033331D01*
X0259681Y0033331D01*
X0282181Y0029331D02*
X0282181Y0049331D01*
X0162496Y0113035D02*
X0162496Y0116335D01*
X0184996Y0148835D02*
X0188496Y0148835D01*
X0242122Y0148835D02*
X0245622Y0148835D01*
X0242307Y0195528D02*
X0226307Y0195528D01*
X0226307Y0205528D01*
X0242307Y0205528D01*
X0242307Y0195528D01*
X0238307Y0198028D02*
X0234307Y0200528D01*
X0234307Y0198028D01*
X0234307Y0200528D02*
X0231807Y0200528D01*
X0234307Y0200528D02*
X0234307Y0203028D01*
X0234307Y0200528D02*
X0238307Y0203028D01*
X0238307Y0198028D01*
X0240307Y0200528D02*
X0234307Y0200528D01*
X0185260Y0195528D02*
X0185260Y0205528D01*
X0169260Y0205528D01*
X0169260Y0195528D01*
X0185260Y0195528D01*
X0181260Y0198028D02*
X0177260Y0200528D01*
X0177260Y0198028D01*
X0177260Y0200528D02*
X0174760Y0200528D01*
X0177260Y0200528D02*
X0177260Y0203028D01*
X0177260Y0200528D02*
X0181260Y0203028D01*
X0181260Y0198028D01*
X0183260Y0200528D02*
X0177260Y0200528D01*
X0133181Y0148835D02*
X0129681Y0148835D01*
X0107181Y0116335D02*
X0107181Y0113035D01*
X0174425Y0257457D02*
X0174428Y0257702D01*
X0174437Y0257948D01*
X0174452Y0258193D01*
X0174473Y0258437D01*
X0174500Y0258681D01*
X0174533Y0258924D01*
X0174572Y0259167D01*
X0174617Y0259408D01*
X0174668Y0259648D01*
X0174725Y0259887D01*
X0174787Y0260124D01*
X0174856Y0260360D01*
X0174930Y0260594D01*
X0175010Y0260826D01*
X0175095Y0261056D01*
X0175186Y0261284D01*
X0175283Y0261509D01*
X0175385Y0261733D01*
X0175493Y0261953D01*
X0175606Y0262171D01*
X0175724Y0262386D01*
X0175848Y0262598D01*
X0175976Y0262807D01*
X0176110Y0263013D01*
X0176249Y0263215D01*
X0176393Y0263414D01*
X0176542Y0263609D01*
X0176695Y0263801D01*
X0176853Y0263989D01*
X0177015Y0264173D01*
X0177183Y0264352D01*
X0177354Y0264528D01*
X0177530Y0264699D01*
X0177709Y0264867D01*
X0177893Y0265029D01*
X0178081Y0265187D01*
X0178273Y0265340D01*
X0178468Y0265489D01*
X0178667Y0265633D01*
X0178869Y0265772D01*
X0179075Y0265906D01*
X0179284Y0266034D01*
X0179496Y0266158D01*
X0179711Y0266276D01*
X0179929Y0266389D01*
X0180149Y0266497D01*
X0180373Y0266599D01*
X0180598Y0266696D01*
X0180826Y0266787D01*
X0181056Y0266872D01*
X0181288Y0266952D01*
X0181522Y0267026D01*
X0181758Y0267095D01*
X0181995Y0267157D01*
X0182234Y0267214D01*
X0182474Y0267265D01*
X0182715Y0267310D01*
X0182958Y0267349D01*
X0183201Y0267382D01*
X0183445Y0267409D01*
X0183689Y0267430D01*
X0183934Y0267445D01*
X0184180Y0267454D01*
X0184425Y0267457D01*
X0184670Y0267454D01*
X0184916Y0267445D01*
X0185161Y0267430D01*
X0185405Y0267409D01*
X0185649Y0267382D01*
X0185892Y0267349D01*
X0186135Y0267310D01*
X0186376Y0267265D01*
X0186616Y0267214D01*
X0186855Y0267157D01*
X0187092Y0267095D01*
X0187328Y0267026D01*
X0187562Y0266952D01*
X0187794Y0266872D01*
X0188024Y0266787D01*
X0188252Y0266696D01*
X0188477Y0266599D01*
X0188701Y0266497D01*
X0188921Y0266389D01*
X0189139Y0266276D01*
X0189354Y0266158D01*
X0189566Y0266034D01*
X0189775Y0265906D01*
X0189981Y0265772D01*
X0190183Y0265633D01*
X0190382Y0265489D01*
X0190577Y0265340D01*
X0190769Y0265187D01*
X0190957Y0265029D01*
X0191141Y0264867D01*
X0191320Y0264699D01*
X0191496Y0264528D01*
X0191667Y0264352D01*
X0191835Y0264173D01*
X0191997Y0263989D01*
X0192155Y0263801D01*
X0192308Y0263609D01*
X0192457Y0263414D01*
X0192601Y0263215D01*
X0192740Y0263013D01*
X0192874Y0262807D01*
X0193002Y0262598D01*
X0193126Y0262386D01*
X0193244Y0262171D01*
X0193357Y0261953D01*
X0193465Y0261733D01*
X0193567Y0261509D01*
X0193664Y0261284D01*
X0193755Y0261056D01*
X0193840Y0260826D01*
X0193920Y0260594D01*
X0193994Y0260360D01*
X0194063Y0260124D01*
X0194125Y0259887D01*
X0194182Y0259648D01*
X0194233Y0259408D01*
X0194278Y0259167D01*
X0194317Y0258924D01*
X0194350Y0258681D01*
X0194377Y0258437D01*
X0194398Y0258193D01*
X0194413Y0257948D01*
X0194422Y0257702D01*
X0194425Y0257457D01*
X0194422Y0257212D01*
X0194413Y0256966D01*
X0194398Y0256721D01*
X0194377Y0256477D01*
X0194350Y0256233D01*
X0194317Y0255990D01*
X0194278Y0255747D01*
X0194233Y0255506D01*
X0194182Y0255266D01*
X0194125Y0255027D01*
X0194063Y0254790D01*
X0193994Y0254554D01*
X0193920Y0254320D01*
X0193840Y0254088D01*
X0193755Y0253858D01*
X0193664Y0253630D01*
X0193567Y0253405D01*
X0193465Y0253181D01*
X0193357Y0252961D01*
X0193244Y0252743D01*
X0193126Y0252528D01*
X0193002Y0252316D01*
X0192874Y0252107D01*
X0192740Y0251901D01*
X0192601Y0251699D01*
X0192457Y0251500D01*
X0192308Y0251305D01*
X0192155Y0251113D01*
X0191997Y0250925D01*
X0191835Y0250741D01*
X0191667Y0250562D01*
X0191496Y0250386D01*
X0191320Y0250215D01*
X0191141Y0250047D01*
X0190957Y0249885D01*
X0190769Y0249727D01*
X0190577Y0249574D01*
X0190382Y0249425D01*
X0190183Y0249281D01*
X0189981Y0249142D01*
X0189775Y0249008D01*
X0189566Y0248880D01*
X0189354Y0248756D01*
X0189139Y0248638D01*
X0188921Y0248525D01*
X0188701Y0248417D01*
X0188477Y0248315D01*
X0188252Y0248218D01*
X0188024Y0248127D01*
X0187794Y0248042D01*
X0187562Y0247962D01*
X0187328Y0247888D01*
X0187092Y0247819D01*
X0186855Y0247757D01*
X0186616Y0247700D01*
X0186376Y0247649D01*
X0186135Y0247604D01*
X0185892Y0247565D01*
X0185649Y0247532D01*
X0185405Y0247505D01*
X0185161Y0247484D01*
X0184916Y0247469D01*
X0184670Y0247460D01*
X0184425Y0247457D01*
X0184180Y0247460D01*
X0183934Y0247469D01*
X0183689Y0247484D01*
X0183445Y0247505D01*
X0183201Y0247532D01*
X0182958Y0247565D01*
X0182715Y0247604D01*
X0182474Y0247649D01*
X0182234Y0247700D01*
X0181995Y0247757D01*
X0181758Y0247819D01*
X0181522Y0247888D01*
X0181288Y0247962D01*
X0181056Y0248042D01*
X0180826Y0248127D01*
X0180598Y0248218D01*
X0180373Y0248315D01*
X0180149Y0248417D01*
X0179929Y0248525D01*
X0179711Y0248638D01*
X0179496Y0248756D01*
X0179284Y0248880D01*
X0179075Y0249008D01*
X0178869Y0249142D01*
X0178667Y0249281D01*
X0178468Y0249425D01*
X0178273Y0249574D01*
X0178081Y0249727D01*
X0177893Y0249885D01*
X0177709Y0250047D01*
X0177530Y0250215D01*
X0177354Y0250386D01*
X0177183Y0250562D01*
X0177015Y0250741D01*
X0176853Y0250925D01*
X0176695Y0251113D01*
X0176542Y0251305D01*
X0176393Y0251500D01*
X0176249Y0251699D01*
X0176110Y0251901D01*
X0175976Y0252107D01*
X0175848Y0252316D01*
X0175724Y0252528D01*
X0175606Y0252743D01*
X0175493Y0252961D01*
X0175385Y0253181D01*
X0175283Y0253405D01*
X0175186Y0253630D01*
X0175095Y0253858D01*
X0175010Y0254088D01*
X0174930Y0254320D01*
X0174856Y0254554D01*
X0174787Y0254790D01*
X0174725Y0255027D01*
X0174668Y0255266D01*
X0174617Y0255506D01*
X0174572Y0255747D01*
X0174533Y0255990D01*
X0174500Y0256233D01*
X0174473Y0256477D01*
X0174452Y0256721D01*
X0174437Y0256966D01*
X0174428Y0257212D01*
X0174425Y0257457D01*
D12*
X0158600Y0251860D02*
X0157849Y0252611D01*
X0156348Y0252611D01*
X0155597Y0251860D01*
X0153996Y0251860D02*
X0153996Y0250359D01*
X0153245Y0249608D01*
X0150993Y0249608D01*
X0150993Y0248107D02*
X0150993Y0252611D01*
X0153245Y0252611D01*
X0153996Y0251860D01*
X0152495Y0249608D02*
X0153996Y0248107D01*
X0155597Y0248107D02*
X0158600Y0251109D01*
X0158600Y0251860D01*
X0158600Y0248107D02*
X0155597Y0248107D01*
X0197175Y0259807D02*
X0200178Y0259807D01*
X0201779Y0259807D02*
X0204782Y0259807D01*
X0206383Y0259807D02*
X0206383Y0264311D01*
X0208635Y0264311D01*
X0209386Y0263560D01*
X0209386Y0260557D01*
X0208635Y0259807D01*
X0206383Y0259807D01*
X0203280Y0262059D02*
X0201779Y0262059D01*
X0201779Y0264311D02*
X0201779Y0259807D01*
X0201779Y0264311D02*
X0204782Y0264311D01*
X0210987Y0262809D02*
X0212488Y0264311D01*
X0212488Y0259807D01*
X0210987Y0259807D02*
X0213990Y0259807D01*
X0197175Y0259807D02*
X0197175Y0264311D01*
X0176366Y0211781D02*
X0174864Y0211781D01*
X0174114Y0211031D01*
X0172512Y0211031D02*
X0171762Y0211781D01*
X0169510Y0211781D01*
X0169510Y0207278D01*
X0171762Y0207278D01*
X0172512Y0208028D01*
X0172512Y0211031D01*
X0176366Y0211781D02*
X0177116Y0211031D01*
X0177116Y0210280D01*
X0174114Y0207278D01*
X0177116Y0207278D01*
X0226557Y0207278D02*
X0228809Y0207278D01*
X0229560Y0208028D01*
X0229560Y0211031D01*
X0228809Y0211781D01*
X0226557Y0211781D01*
X0226557Y0207278D01*
X0231161Y0207278D02*
X0234164Y0207278D01*
X0232662Y0207278D02*
X0232662Y0211781D01*
X0231161Y0210280D01*
X0326990Y0210744D02*
X0326990Y0208492D01*
X0331494Y0208492D01*
X0329993Y0208492D02*
X0329993Y0210744D01*
X0329242Y0211494D01*
X0327741Y0211494D01*
X0326990Y0210744D01*
X0327741Y0213096D02*
X0326990Y0213846D01*
X0326990Y0215348D01*
X0327741Y0216098D01*
X0328492Y0216098D01*
X0329242Y0215348D01*
X0329993Y0216098D01*
X0330743Y0216098D01*
X0331494Y0215348D01*
X0331494Y0213846D01*
X0330743Y0213096D01*
X0329242Y0214597D02*
X0329242Y0215348D01*
X0326990Y0206890D02*
X0326990Y0205389D01*
X0326990Y0206140D02*
X0330743Y0206140D01*
X0331494Y0205389D01*
X0331494Y0204638D01*
X0330743Y0203888D01*
X0337217Y0197282D02*
X0338919Y0195581D01*
X0338919Y0197849D01*
X0340620Y0197282D02*
X0337217Y0197282D01*
X0337784Y0187849D02*
X0338351Y0187849D01*
X0338919Y0187282D01*
X0339486Y0187849D01*
X0340053Y0187849D01*
X0340620Y0187282D01*
X0340620Y0186148D01*
X0340053Y0185581D01*
X0338919Y0186715D02*
X0338919Y0187282D01*
X0337784Y0187849D02*
X0337217Y0187282D01*
X0337217Y0186148D01*
X0337784Y0185581D01*
X0337784Y0177849D02*
X0337217Y0177282D01*
X0337217Y0176148D01*
X0337784Y0175581D01*
X0337784Y0177849D02*
X0338351Y0177849D01*
X0340620Y0175581D01*
X0340620Y0177849D01*
X0340620Y0167849D02*
X0340620Y0165581D01*
X0340620Y0166715D02*
X0337217Y0166715D01*
X0338351Y0165581D01*
X0338351Y0152849D02*
X0338919Y0152282D01*
X0339486Y0152849D01*
X0340053Y0152849D01*
X0340620Y0152282D01*
X0340620Y0151148D01*
X0340053Y0150581D01*
X0338919Y0151715D02*
X0338919Y0152282D01*
X0338351Y0152849D02*
X0337784Y0152849D01*
X0337217Y0152282D01*
X0337217Y0151148D01*
X0337784Y0150581D01*
X0337784Y0142849D02*
X0337217Y0142282D01*
X0337217Y0141148D01*
X0337784Y0140581D01*
X0337784Y0142849D02*
X0338351Y0142849D01*
X0340620Y0140581D01*
X0340620Y0142849D01*
X0340620Y0132849D02*
X0340620Y0130581D01*
X0340620Y0131715D02*
X0337217Y0131715D01*
X0338351Y0130581D01*
X0334848Y0118449D02*
X0330345Y0118449D01*
X0332597Y0116197D01*
X0332597Y0119200D01*
X0332597Y0114596D02*
X0333347Y0113845D01*
X0333347Y0111593D01*
X0334848Y0111593D02*
X0330345Y0111593D01*
X0330345Y0113845D01*
X0331095Y0114596D01*
X0332597Y0114596D01*
X0330345Y0109992D02*
X0330345Y0108491D01*
X0330345Y0109241D02*
X0334098Y0109241D01*
X0334848Y0108491D01*
X0334848Y0107740D01*
X0334098Y0106989D01*
X0319306Y0093516D02*
X0317054Y0091264D01*
X0320056Y0091264D01*
X0319306Y0089012D02*
X0319306Y0093516D01*
X0315453Y0092765D02*
X0315453Y0091264D01*
X0314702Y0090513D01*
X0312450Y0090513D01*
X0312450Y0089012D02*
X0312450Y0093516D01*
X0314702Y0093516D01*
X0315453Y0092765D01*
X0313951Y0090513D02*
X0315453Y0089012D01*
X0301330Y0091581D02*
X0298328Y0091581D01*
X0299829Y0091581D02*
X0299829Y0096085D01*
X0298328Y0094583D01*
X0296727Y0096085D02*
X0293724Y0093082D01*
X0294475Y0093833D02*
X0296727Y0091581D01*
X0293724Y0091581D02*
X0293724Y0096085D01*
X0292123Y0095334D02*
X0292123Y0092331D01*
X0291372Y0091581D01*
X0289871Y0091581D01*
X0289120Y0092331D01*
X0289120Y0095334D01*
X0289871Y0096085D01*
X0291372Y0096085D01*
X0292123Y0095334D01*
X0271846Y0086629D02*
X0271846Y0085127D01*
X0271095Y0084377D01*
X0271846Y0082775D02*
X0270345Y0081274D01*
X0270345Y0082025D02*
X0270345Y0079773D01*
X0271846Y0079773D02*
X0267342Y0079773D01*
X0267342Y0082025D01*
X0268093Y0082775D01*
X0269594Y0082775D01*
X0270345Y0082025D01*
X0268093Y0084377D02*
X0267342Y0085127D01*
X0267342Y0086629D01*
X0268093Y0087379D01*
X0268844Y0087379D01*
X0269594Y0086629D01*
X0270345Y0087379D01*
X0271095Y0087379D01*
X0271846Y0086629D01*
X0269594Y0086629D02*
X0269594Y0085878D01*
X0247432Y0041085D02*
X0247432Y0036581D01*
X0245931Y0036581D02*
X0248934Y0036581D01*
X0245931Y0039583D02*
X0247432Y0041085D01*
X0091038Y0036581D02*
X0088035Y0036581D01*
X0089536Y0036581D02*
X0089536Y0041085D01*
X0088035Y0039583D01*
X0086434Y0039583D02*
X0086434Y0040334D01*
X0085683Y0041085D01*
X0084182Y0041085D01*
X0083431Y0040334D01*
X0086434Y0039583D02*
X0083431Y0036581D01*
X0086434Y0036581D01*
X0092681Y0097398D02*
X0051681Y0097398D01*
X0051681Y0104898D01*
X0055181Y0104898D01*
X0055181Y0110898D01*
X0051681Y0110898D01*
X0051681Y0159898D01*
X0092681Y0159898D01*
X0092681Y0110898D01*
X0089181Y0110898D01*
X0089181Y0104898D01*
X0092681Y0104898D01*
X0092681Y0097398D01*
X0065081Y0110898D02*
X0065083Y0111072D01*
X0065090Y0111246D01*
X0065100Y0111420D01*
X0065115Y0111594D01*
X0065134Y0111767D01*
X0065158Y0111940D01*
X0065186Y0112112D01*
X0065217Y0112283D01*
X0065254Y0112454D01*
X0065294Y0112623D01*
X0065338Y0112792D01*
X0065387Y0112959D01*
X0065439Y0113125D01*
X0065496Y0113290D01*
X0065557Y0113453D01*
X0065621Y0113615D01*
X0065690Y0113775D01*
X0065763Y0113934D01*
X0065839Y0114090D01*
X0065919Y0114245D01*
X0066003Y0114398D01*
X0066091Y0114548D01*
X0066183Y0114696D01*
X0066278Y0114843D01*
X0066376Y0114986D01*
X0066478Y0115127D01*
X0066584Y0115266D01*
X0066693Y0115402D01*
X0066805Y0115536D01*
X0066920Y0115666D01*
X0067039Y0115794D01*
X0067161Y0115918D01*
X0067285Y0116040D01*
X0067413Y0116159D01*
X0067543Y0116274D01*
X0067677Y0116386D01*
X0067813Y0116495D01*
X0067952Y0116601D01*
X0068093Y0116703D01*
X0068236Y0116801D01*
X0068383Y0116896D01*
X0068531Y0116988D01*
X0068681Y0117076D01*
X0068834Y0117160D01*
X0068989Y0117240D01*
X0069145Y0117316D01*
X0069304Y0117389D01*
X0069464Y0117458D01*
X0069626Y0117522D01*
X0069789Y0117583D01*
X0069954Y0117640D01*
X0070120Y0117692D01*
X0070287Y0117741D01*
X0070456Y0117785D01*
X0070625Y0117825D01*
X0070796Y0117862D01*
X0070967Y0117893D01*
X0071139Y0117921D01*
X0071312Y0117945D01*
X0071485Y0117964D01*
X0071659Y0117979D01*
X0071833Y0117989D01*
X0072007Y0117996D01*
X0072181Y0117998D01*
X0072355Y0117996D01*
X0072529Y0117989D01*
X0072703Y0117979D01*
X0072877Y0117964D01*
X0073050Y0117945D01*
X0073223Y0117921D01*
X0073395Y0117893D01*
X0073566Y0117862D01*
X0073737Y0117825D01*
X0073906Y0117785D01*
X0074075Y0117741D01*
X0074242Y0117692D01*
X0074408Y0117640D01*
X0074573Y0117583D01*
X0074736Y0117522D01*
X0074898Y0117458D01*
X0075058Y0117389D01*
X0075217Y0117316D01*
X0075373Y0117240D01*
X0075528Y0117160D01*
X0075681Y0117076D01*
X0075831Y0116988D01*
X0075979Y0116896D01*
X0076126Y0116801D01*
X0076269Y0116703D01*
X0076410Y0116601D01*
X0076549Y0116495D01*
X0076685Y0116386D01*
X0076819Y0116274D01*
X0076949Y0116159D01*
X0077077Y0116040D01*
X0077201Y0115918D01*
X0077323Y0115794D01*
X0077442Y0115666D01*
X0077557Y0115536D01*
X0077669Y0115402D01*
X0077778Y0115266D01*
X0077884Y0115127D01*
X0077986Y0114986D01*
X0078084Y0114843D01*
X0078179Y0114696D01*
X0078271Y0114548D01*
X0078359Y0114398D01*
X0078443Y0114245D01*
X0078523Y0114090D01*
X0078599Y0113934D01*
X0078672Y0113775D01*
X0078741Y0113615D01*
X0078805Y0113453D01*
X0078866Y0113290D01*
X0078923Y0113125D01*
X0078975Y0112959D01*
X0079024Y0112792D01*
X0079068Y0112623D01*
X0079108Y0112454D01*
X0079145Y0112283D01*
X0079176Y0112112D01*
X0079204Y0111940D01*
X0079228Y0111767D01*
X0079247Y0111594D01*
X0079262Y0111420D01*
X0079272Y0111246D01*
X0079279Y0111072D01*
X0079281Y0110898D01*
X0079279Y0110724D01*
X0079272Y0110550D01*
X0079262Y0110376D01*
X0079247Y0110202D01*
X0079228Y0110029D01*
X0079204Y0109856D01*
X0079176Y0109684D01*
X0079145Y0109513D01*
X0079108Y0109342D01*
X0079068Y0109173D01*
X0079024Y0109004D01*
X0078975Y0108837D01*
X0078923Y0108671D01*
X0078866Y0108506D01*
X0078805Y0108343D01*
X0078741Y0108181D01*
X0078672Y0108021D01*
X0078599Y0107862D01*
X0078523Y0107706D01*
X0078443Y0107551D01*
X0078359Y0107398D01*
X0078271Y0107248D01*
X0078179Y0107100D01*
X0078084Y0106953D01*
X0077986Y0106810D01*
X0077884Y0106669D01*
X0077778Y0106530D01*
X0077669Y0106394D01*
X0077557Y0106260D01*
X0077442Y0106130D01*
X0077323Y0106002D01*
X0077201Y0105878D01*
X0077077Y0105756D01*
X0076949Y0105637D01*
X0076819Y0105522D01*
X0076685Y0105410D01*
X0076549Y0105301D01*
X0076410Y0105195D01*
X0076269Y0105093D01*
X0076126Y0104995D01*
X0075979Y0104900D01*
X0075831Y0104808D01*
X0075681Y0104720D01*
X0075528Y0104636D01*
X0075373Y0104556D01*
X0075217Y0104480D01*
X0075058Y0104407D01*
X0074898Y0104338D01*
X0074736Y0104274D01*
X0074573Y0104213D01*
X0074408Y0104156D01*
X0074242Y0104104D01*
X0074075Y0104055D01*
X0073906Y0104011D01*
X0073737Y0103971D01*
X0073566Y0103934D01*
X0073395Y0103903D01*
X0073223Y0103875D01*
X0073050Y0103851D01*
X0072877Y0103832D01*
X0072703Y0103817D01*
X0072529Y0103807D01*
X0072355Y0103800D01*
X0072181Y0103798D01*
X0072007Y0103800D01*
X0071833Y0103807D01*
X0071659Y0103817D01*
X0071485Y0103832D01*
X0071312Y0103851D01*
X0071139Y0103875D01*
X0070967Y0103903D01*
X0070796Y0103934D01*
X0070625Y0103971D01*
X0070456Y0104011D01*
X0070287Y0104055D01*
X0070120Y0104104D01*
X0069954Y0104156D01*
X0069789Y0104213D01*
X0069626Y0104274D01*
X0069464Y0104338D01*
X0069304Y0104407D01*
X0069145Y0104480D01*
X0068989Y0104556D01*
X0068834Y0104636D01*
X0068681Y0104720D01*
X0068531Y0104808D01*
X0068383Y0104900D01*
X0068236Y0104995D01*
X0068093Y0105093D01*
X0067952Y0105195D01*
X0067813Y0105301D01*
X0067677Y0105410D01*
X0067543Y0105522D01*
X0067413Y0105637D01*
X0067285Y0105756D01*
X0067161Y0105878D01*
X0067039Y0106002D01*
X0066920Y0106130D01*
X0066805Y0106260D01*
X0066693Y0106394D01*
X0066584Y0106530D01*
X0066478Y0106669D01*
X0066376Y0106810D01*
X0066278Y0106953D01*
X0066183Y0107100D01*
X0066091Y0107248D01*
X0066003Y0107398D01*
X0065919Y0107551D01*
X0065839Y0107706D01*
X0065763Y0107862D01*
X0065690Y0108021D01*
X0065621Y0108181D01*
X0065557Y0108343D01*
X0065496Y0108506D01*
X0065439Y0108671D01*
X0065387Y0108837D01*
X0065338Y0109004D01*
X0065294Y0109173D01*
X0065254Y0109342D01*
X0065217Y0109513D01*
X0065186Y0109684D01*
X0065158Y0109856D01*
X0065134Y0110029D01*
X0065115Y0110202D01*
X0065100Y0110376D01*
X0065090Y0110550D01*
X0065083Y0110724D01*
X0065081Y0110898D01*
X0065991Y0120248D02*
X0065991Y0122516D01*
X0067125Y0123651D01*
X0068259Y0122516D01*
X0068259Y0120248D01*
X0069582Y0120248D02*
X0071850Y0120248D01*
X0070716Y0120248D02*
X0070716Y0123651D01*
X0069582Y0122516D01*
X0068259Y0121949D02*
X0065991Y0121949D01*
X0073173Y0120815D02*
X0073173Y0120248D01*
X0073173Y0120815D02*
X0075441Y0123083D01*
X0075441Y0123651D01*
X0073173Y0123651D01*
X0077331Y0120815D02*
X0077331Y0120248D01*
X0077898Y0120248D01*
X0077898Y0120815D01*
X0077331Y0120815D01*
X0077898Y0120248D02*
X0076764Y0119113D01*
X0079158Y0120815D02*
X0079725Y0120248D01*
X0080859Y0120248D01*
X0081427Y0120815D01*
X0081427Y0121949D01*
X0080859Y0122516D01*
X0080292Y0122516D01*
X0079158Y0121949D01*
X0079158Y0123651D01*
X0081427Y0123651D01*
X0082749Y0122516D02*
X0082749Y0120248D01*
X0083883Y0120248D02*
X0083883Y0121949D01*
X0084450Y0122516D01*
X0085018Y0121949D01*
X0085018Y0120248D01*
X0086340Y0120248D02*
X0086340Y0122516D01*
X0086907Y0122516D01*
X0087474Y0121949D01*
X0088041Y0122516D01*
X0088609Y0121949D01*
X0088609Y0120248D01*
X0087474Y0120248D02*
X0087474Y0121949D01*
X0083883Y0121949D02*
X0083316Y0122516D01*
X0082749Y0122516D01*
X0023494Y0130581D02*
X0023494Y0132849D01*
X0023494Y0131715D02*
X0020091Y0131715D01*
X0021225Y0130581D01*
X0014368Y0126980D02*
X0014368Y0123978D01*
X0014368Y0125479D02*
X0009864Y0125479D01*
X0011366Y0123978D01*
X0012116Y0122376D02*
X0012867Y0121626D01*
X0012867Y0119374D01*
X0014368Y0119374D02*
X0009864Y0119374D01*
X0009864Y0121626D01*
X0010615Y0122376D01*
X0012116Y0122376D01*
X0009864Y0117772D02*
X0009864Y0116271D01*
X0009864Y0117022D02*
X0013617Y0117022D01*
X0014368Y0116271D01*
X0014368Y0115520D01*
X0013617Y0114770D01*
X0020658Y0140581D02*
X0020091Y0141148D01*
X0020091Y0142282D01*
X0020658Y0142849D01*
X0021225Y0142849D01*
X0023494Y0140581D01*
X0023494Y0142849D01*
X0022927Y0150581D02*
X0023494Y0151148D01*
X0023494Y0152282D01*
X0022927Y0152849D01*
X0022360Y0152849D01*
X0021793Y0152282D01*
X0021793Y0151715D01*
X0021793Y0152282D02*
X0021225Y0152849D01*
X0020658Y0152849D01*
X0020091Y0152282D01*
X0020091Y0151148D01*
X0020658Y0150581D01*
X0021225Y0165581D02*
X0020091Y0166715D01*
X0023494Y0166715D01*
X0023494Y0165581D02*
X0023494Y0167849D01*
X0023494Y0175581D02*
X0021225Y0177849D01*
X0020658Y0177849D01*
X0020091Y0177282D01*
X0020091Y0176148D01*
X0020658Y0175581D01*
X0023494Y0175581D02*
X0023494Y0177849D01*
X0022927Y0185581D02*
X0023494Y0186148D01*
X0023494Y0187282D01*
X0022927Y0187849D01*
X0022360Y0187849D01*
X0021793Y0187282D01*
X0021793Y0186715D01*
X0021793Y0187282D02*
X0021225Y0187849D01*
X0020658Y0187849D01*
X0020091Y0187282D01*
X0020091Y0186148D01*
X0020658Y0185581D01*
X0021793Y0195581D02*
X0020091Y0197282D01*
X0023494Y0197282D01*
X0021793Y0197849D02*
X0021793Y0195581D01*
X0013617Y0203888D02*
X0014368Y0204638D01*
X0014368Y0205389D01*
X0013617Y0206140D01*
X0009864Y0206140D01*
X0009864Y0206890D02*
X0009864Y0205389D01*
X0009864Y0208492D02*
X0009864Y0210744D01*
X0010615Y0211494D01*
X0012116Y0211494D01*
X0012867Y0210744D01*
X0012867Y0208492D01*
X0014368Y0208492D02*
X0009864Y0208492D01*
X0010615Y0213096D02*
X0009864Y0213846D01*
X0009864Y0215348D01*
X0010615Y0216098D01*
X0011366Y0216098D01*
X0014368Y0213096D01*
X0014368Y0216098D01*
X0068619Y0243020D02*
X0069370Y0242270D01*
X0070121Y0242270D01*
X0070871Y0243020D01*
X0070871Y0246774D01*
X0070121Y0246774D02*
X0071622Y0246774D01*
X0073223Y0246774D02*
X0075475Y0246774D01*
X0076226Y0246023D01*
X0076226Y0244522D01*
X0075475Y0243771D01*
X0073223Y0243771D01*
X0073223Y0242270D02*
X0073223Y0246774D01*
X0077827Y0246774D02*
X0077827Y0244522D01*
X0079328Y0245272D01*
X0080079Y0245272D01*
X0080830Y0244522D01*
X0080830Y0243020D01*
X0080079Y0242270D01*
X0078578Y0242270D01*
X0077827Y0243020D01*
X0077827Y0246774D02*
X0080830Y0246774D01*
X0076109Y0260370D02*
X0073840Y0260370D01*
X0074974Y0260370D02*
X0074974Y0263773D01*
X0073840Y0262638D01*
X0066109Y0262638D02*
X0066109Y0263205D01*
X0065541Y0263773D01*
X0064407Y0263773D01*
X0063840Y0263205D01*
X0066109Y0262638D02*
X0063840Y0260370D01*
X0066109Y0260370D01*
X0056109Y0260937D02*
X0055541Y0260370D01*
X0054407Y0260370D01*
X0053840Y0260937D01*
X0054974Y0262071D02*
X0055541Y0262071D01*
X0056109Y0261504D01*
X0056109Y0260937D01*
X0055541Y0262071D02*
X0056109Y0262638D01*
X0056109Y0263205D01*
X0055541Y0263773D01*
X0054407Y0263773D01*
X0053840Y0263205D01*
X0046109Y0262071D02*
X0043840Y0262071D01*
X0045541Y0263773D01*
X0045541Y0260370D01*
X0110652Y0211781D02*
X0110652Y0207278D01*
X0112903Y0207278D01*
X0113654Y0208028D01*
X0113654Y0211031D01*
X0112903Y0211781D01*
X0110652Y0211781D01*
X0115255Y0211031D02*
X0116006Y0211781D01*
X0117507Y0211781D01*
X0118258Y0211031D01*
X0118258Y0210280D01*
X0117507Y0209529D01*
X0118258Y0208779D01*
X0118258Y0208028D01*
X0117507Y0207278D01*
X0116006Y0207278D01*
X0115255Y0208028D01*
X0116757Y0209529D02*
X0117507Y0209529D01*
D13*
X0112902Y0200528D03*
X0171760Y0200528D03*
X0228807Y0200528D03*
D14*
X0222557Y0200528D03*
X0246057Y0200528D03*
X0189010Y0200528D03*
X0165510Y0200528D03*
X0130152Y0200528D03*
X0106652Y0200528D03*
D15*
X0083187Y0134053D02*
X0083187Y0127748D01*
X0081086Y0127748D02*
X0085289Y0127748D01*
X0081086Y0131951D02*
X0083187Y0134053D01*
X0078844Y0134053D02*
X0074640Y0134053D01*
X0076742Y0134053D02*
X0076742Y0127748D01*
X0102531Y0100490D02*
X0102531Y0094185D01*
X0102531Y0096286D02*
X0106735Y0100490D01*
X0108977Y0099439D02*
X0110027Y0100490D01*
X0112129Y0100490D01*
X0113180Y0099439D01*
X0113180Y0098388D01*
X0112129Y0097337D01*
X0113180Y0096286D01*
X0113180Y0095236D01*
X0112129Y0094185D01*
X0110027Y0094185D01*
X0108977Y0095236D01*
X0106735Y0094185D02*
X0103582Y0097337D01*
X0111078Y0097337D02*
X0112129Y0097337D01*
X0157846Y0096286D02*
X0162050Y0100490D01*
X0164292Y0099439D02*
X0165342Y0100490D01*
X0167444Y0100490D01*
X0168495Y0099439D01*
X0168495Y0098388D01*
X0164292Y0094185D01*
X0168495Y0094185D01*
X0162050Y0094185D02*
X0158897Y0097337D01*
X0157846Y0094185D02*
X0157846Y0100490D01*
X0214972Y0100490D02*
X0214972Y0094185D01*
X0214972Y0096286D02*
X0219176Y0100490D01*
X0221418Y0098388D02*
X0223519Y0100490D01*
X0223519Y0094185D01*
X0221418Y0094185D02*
X0225621Y0094185D01*
X0219176Y0094185D02*
X0216023Y0097337D01*
X0171908Y0031986D02*
X0167704Y0031986D01*
X0167704Y0025681D01*
X0167704Y0028833D02*
X0169806Y0028833D01*
X0165462Y0028833D02*
X0161259Y0028833D01*
X0159017Y0031986D02*
X0154813Y0031986D01*
X0156915Y0031986D02*
X0156915Y0025681D01*
X0152571Y0025681D02*
X0150469Y0027783D01*
X0151520Y0027783D02*
X0148368Y0027783D01*
X0148368Y0025681D02*
X0148368Y0031986D01*
X0151520Y0031986D01*
X0152571Y0030935D01*
X0152571Y0028833D01*
X0151520Y0027783D01*
X0146126Y0028833D02*
X0141922Y0028833D01*
X0141922Y0029884D02*
X0144024Y0031986D01*
X0146126Y0029884D01*
X0146126Y0025681D01*
X0141922Y0025681D02*
X0141922Y0029884D01*
X0139680Y0030935D02*
X0138629Y0031986D01*
X0136527Y0031986D01*
X0135477Y0030935D01*
X0135477Y0026732D01*
X0136527Y0025681D01*
X0138629Y0025681D01*
X0139680Y0026732D01*
X0133235Y0026732D02*
X0132184Y0025681D01*
X0130082Y0025681D01*
X0129031Y0026732D01*
X0130082Y0028833D02*
X0132184Y0028833D01*
X0133235Y0027783D01*
X0133235Y0026732D01*
X0130082Y0028833D02*
X0129031Y0029884D01*
X0129031Y0030935D01*
X0130082Y0031986D01*
X0132184Y0031986D01*
X0133235Y0030935D01*
X0060680Y0057681D02*
X0056477Y0057681D01*
X0058578Y0057681D02*
X0058578Y0063986D01*
X0056477Y0061884D01*
X0054235Y0063986D02*
X0050031Y0057681D01*
X0054235Y0057681D02*
X0050031Y0063986D01*
D16*
X0122181Y0181335D03*
X0177496Y0181335D03*
X0234622Y0181335D03*
D17*
X0194425Y0249957D02*
X0194425Y0264957D01*
D18*
X0194238Y0265200D01*
X0194046Y0265438D01*
X0193847Y0265671D01*
X0193643Y0265899D01*
X0193434Y0266122D01*
X0193219Y0266340D01*
X0192999Y0266553D01*
X0192774Y0266760D01*
X0192543Y0266962D01*
X0192308Y0267158D01*
X0192068Y0267348D01*
X0191824Y0267532D01*
X0191575Y0267710D01*
X0191321Y0267882D01*
X0191064Y0268048D01*
X0190803Y0268208D01*
X0190538Y0268361D01*
X0190269Y0268507D01*
X0189996Y0268647D01*
X0189721Y0268780D01*
X0189442Y0268906D01*
X0189160Y0269026D01*
X0188875Y0269138D01*
X0188588Y0269243D01*
X0188298Y0269342D01*
X0188006Y0269433D01*
X0187711Y0269517D01*
X0187415Y0269594D01*
X0187117Y0269664D01*
X0186817Y0269726D01*
X0186516Y0269781D01*
X0186214Y0269828D01*
X0185910Y0269868D01*
X0185606Y0269901D01*
X0185301Y0269926D01*
X0184995Y0269944D01*
X0184689Y0269954D01*
X0184383Y0269957D01*
X0184077Y0269952D01*
X0183771Y0269940D01*
X0183465Y0269920D01*
X0183161Y0269893D01*
X0182856Y0269858D01*
X0182553Y0269816D01*
X0182251Y0269767D01*
X0181950Y0269710D01*
X0181651Y0269645D01*
X0181353Y0269574D01*
X0181058Y0269495D01*
X0180764Y0269409D01*
X0180472Y0269316D01*
X0180183Y0269215D01*
X0179896Y0269108D01*
X0179612Y0268993D01*
X0179331Y0268872D01*
X0179053Y0268744D01*
X0178778Y0268609D01*
X0178507Y0268467D01*
X0178239Y0268319D01*
X0177975Y0268164D01*
X0177715Y0268003D01*
X0177459Y0267836D01*
X0177206Y0267662D01*
X0176959Y0267482D01*
X0176715Y0267296D01*
X0176477Y0267105D01*
X0176243Y0266907D01*
X0176014Y0266704D01*
X0175790Y0266495D01*
X0175571Y0266281D01*
X0175358Y0266061D01*
X0175150Y0265837D01*
X0174947Y0265607D01*
X0174751Y0265373D01*
X0174560Y0265133D01*
X0174375Y0264890D01*
X0174196Y0264641D01*
X0174023Y0264389D01*
X0173856Y0264132D01*
X0173696Y0263871D01*
X0173542Y0263606D01*
X0173395Y0263338D01*
X0173254Y0263066D01*
X0173120Y0262791D01*
X0172993Y0262512D01*
X0172872Y0262231D01*
X0172759Y0261946D01*
X0172653Y0261659D01*
X0172553Y0261370D01*
X0172461Y0261078D01*
X0172376Y0260784D01*
X0172298Y0260488D01*
X0172227Y0260190D01*
X0172164Y0259890D01*
X0172108Y0259589D01*
X0172060Y0259287D01*
X0172019Y0258984D01*
X0171985Y0258680D01*
X0171959Y0258375D01*
X0171940Y0258069D01*
X0171929Y0257763D01*
X0171925Y0257457D01*
X0171929Y0257151D01*
X0171940Y0256845D01*
X0171959Y0256539D01*
X0171985Y0256234D01*
X0172019Y0255930D01*
X0172060Y0255627D01*
X0172108Y0255325D01*
X0172164Y0255024D01*
X0172227Y0254724D01*
X0172298Y0254426D01*
X0172376Y0254130D01*
X0172461Y0253836D01*
X0172553Y0253544D01*
X0172653Y0253255D01*
X0172759Y0252968D01*
X0172872Y0252683D01*
X0172993Y0252402D01*
X0173120Y0252123D01*
X0173254Y0251848D01*
X0173395Y0251576D01*
X0173542Y0251308D01*
X0173696Y0251043D01*
X0173856Y0250782D01*
X0174023Y0250525D01*
X0174196Y0250273D01*
X0174375Y0250024D01*
X0174560Y0249781D01*
X0174751Y0249541D01*
X0174947Y0249307D01*
X0175150Y0249077D01*
X0175358Y0248853D01*
X0175571Y0248633D01*
X0175790Y0248419D01*
X0176014Y0248210D01*
X0176243Y0248007D01*
X0176477Y0247809D01*
X0176715Y0247618D01*
X0176959Y0247432D01*
X0177206Y0247252D01*
X0177459Y0247078D01*
X0177715Y0246911D01*
X0177975Y0246750D01*
X0178239Y0246595D01*
X0178507Y0246447D01*
X0178778Y0246305D01*
X0179053Y0246170D01*
X0179331Y0246042D01*
X0179612Y0245921D01*
X0179896Y0245806D01*
X0180183Y0245699D01*
X0180472Y0245598D01*
X0180764Y0245505D01*
X0181058Y0245419D01*
X0181353Y0245340D01*
X0181651Y0245269D01*
X0181950Y0245204D01*
X0182251Y0245147D01*
X0182553Y0245098D01*
X0182856Y0245056D01*
X0183161Y0245021D01*
X0183465Y0244994D01*
X0183771Y0244974D01*
X0184077Y0244962D01*
X0184383Y0244957D01*
X0184689Y0244960D01*
X0184995Y0244970D01*
X0185301Y0244988D01*
X0185606Y0245013D01*
X0185910Y0245046D01*
X0186214Y0245086D01*
X0186516Y0245133D01*
X0186817Y0245188D01*
X0187117Y0245250D01*
X0187415Y0245320D01*
X0187711Y0245397D01*
X0188006Y0245481D01*
X0188298Y0245572D01*
X0188588Y0245671D01*
X0188875Y0245776D01*
X0189160Y0245888D01*
X0189442Y0246008D01*
X0189721Y0246134D01*
X0189996Y0246267D01*
X0190269Y0246407D01*
X0190538Y0246553D01*
X0190803Y0246706D01*
X0191064Y0246866D01*
X0191321Y0247032D01*
X0191575Y0247204D01*
X0191824Y0247382D01*
X0192068Y0247566D01*
X0192308Y0247756D01*
X0192543Y0247952D01*
X0192774Y0248154D01*
X0192999Y0248361D01*
X0193219Y0248574D01*
X0193434Y0248792D01*
X0193643Y0249015D01*
X0193847Y0249243D01*
X0194046Y0249476D01*
X0194238Y0249714D01*
X0194425Y0249957D01*
D19*
X0066077Y0208701D02*
X0066077Y0205198D01*
X0064909Y0205198D02*
X0067245Y0205198D01*
X0064909Y0207533D02*
X0066077Y0208701D01*
X0063653Y0208117D02*
X0063653Y0206949D01*
X0063070Y0206365D01*
X0061318Y0206365D01*
X0061318Y0205198D02*
X0061318Y0208701D01*
X0063070Y0208701D01*
X0063653Y0208117D01*
X0062486Y0206365D02*
X0063653Y0205198D01*
D20*
X0060368Y0199898D03*
X0081868Y0199898D03*
D21*
X0151051Y0257457D02*
X0152051Y0257457D01*
X0312508Y0098362D02*
X0313508Y0098362D01*
X0262496Y0080831D02*
X0262496Y0079831D01*
D22*
X0255681Y0043831D02*
X0255681Y0003331D01*
X0090181Y0124898D02*
X0090181Y0157398D01*
X0054181Y0157398D01*
X0054181Y0124898D01*
X0090181Y0124898D01*
X0078681Y0043831D02*
X0078681Y0003331D01*
D23*
X0082181Y0172148D03*
X0072181Y0172148D03*
X0062181Y0172148D03*
D24*
X0062181Y0165398D03*
X0072181Y0165398D03*
X0082181Y0165398D03*
D25*
X0069181Y0046331D02*
X0069181Y0032331D01*
X0057181Y0032331D02*
X0057181Y0046331D01*
X0265181Y0046331D02*
X0265181Y0032331D01*
X0277181Y0032331D02*
X0277181Y0046331D01*
M02*
