G75*
%MOIN*%
%OFA0B0*%
%FSLAX25Y25*%
%IPPOS*%
%LPD*%
%AMOC8*
5,1,8,0,0,1.08239X$1,22.5*
%
%ADD10C,0.00000*%
%ADD11C,0.00400*%
%ADD12C,0.00300*%
%ADD13C,0.06600*%
%ADD14C,0.05600*%
%ADD15C,0.06000*%
%ADD16OC8,0.05200*%
%ADD17C,0.05200*%
%ADD18C,0.06600*%
%ADD19C,0.00009*%
%ADD20C,0.07800*%
%ADD21C,0.01969*%
%ADD22C,0.01600*%
%ADD23C,0.04000*%
D10*
X0001000Y0001000D02*
X0001000Y0273953D01*
X0342417Y0274346D01*
X0342417Y0001394D01*
X0001000Y0001000D01*
X0015882Y0025331D02*
X0015884Y0025489D01*
X0015890Y0025647D01*
X0015900Y0025805D01*
X0015914Y0025963D01*
X0015932Y0026120D01*
X0015953Y0026277D01*
X0015979Y0026433D01*
X0016009Y0026589D01*
X0016042Y0026744D01*
X0016080Y0026897D01*
X0016121Y0027050D01*
X0016166Y0027202D01*
X0016215Y0027353D01*
X0016268Y0027502D01*
X0016324Y0027650D01*
X0016384Y0027796D01*
X0016448Y0027941D01*
X0016516Y0028084D01*
X0016587Y0028226D01*
X0016661Y0028366D01*
X0016739Y0028503D01*
X0016821Y0028639D01*
X0016905Y0028773D01*
X0016994Y0028904D01*
X0017085Y0029033D01*
X0017180Y0029160D01*
X0017277Y0029285D01*
X0017378Y0029407D01*
X0017482Y0029526D01*
X0017589Y0029643D01*
X0017699Y0029757D01*
X0017812Y0029868D01*
X0017927Y0029977D01*
X0018045Y0030082D01*
X0018166Y0030184D01*
X0018289Y0030284D01*
X0018415Y0030380D01*
X0018543Y0030473D01*
X0018673Y0030563D01*
X0018806Y0030649D01*
X0018941Y0030733D01*
X0019077Y0030812D01*
X0019216Y0030889D01*
X0019357Y0030961D01*
X0019499Y0031031D01*
X0019643Y0031096D01*
X0019789Y0031158D01*
X0019936Y0031216D01*
X0020085Y0031271D01*
X0020235Y0031322D01*
X0020386Y0031369D01*
X0020538Y0031412D01*
X0020691Y0031451D01*
X0020846Y0031487D01*
X0021001Y0031518D01*
X0021157Y0031546D01*
X0021313Y0031570D01*
X0021470Y0031590D01*
X0021628Y0031606D01*
X0021785Y0031618D01*
X0021944Y0031626D01*
X0022102Y0031630D01*
X0022260Y0031630D01*
X0022418Y0031626D01*
X0022577Y0031618D01*
X0022734Y0031606D01*
X0022892Y0031590D01*
X0023049Y0031570D01*
X0023205Y0031546D01*
X0023361Y0031518D01*
X0023516Y0031487D01*
X0023671Y0031451D01*
X0023824Y0031412D01*
X0023976Y0031369D01*
X0024127Y0031322D01*
X0024277Y0031271D01*
X0024426Y0031216D01*
X0024573Y0031158D01*
X0024719Y0031096D01*
X0024863Y0031031D01*
X0025005Y0030961D01*
X0025146Y0030889D01*
X0025285Y0030812D01*
X0025421Y0030733D01*
X0025556Y0030649D01*
X0025689Y0030563D01*
X0025819Y0030473D01*
X0025947Y0030380D01*
X0026073Y0030284D01*
X0026196Y0030184D01*
X0026317Y0030082D01*
X0026435Y0029977D01*
X0026550Y0029868D01*
X0026663Y0029757D01*
X0026773Y0029643D01*
X0026880Y0029526D01*
X0026984Y0029407D01*
X0027085Y0029285D01*
X0027182Y0029160D01*
X0027277Y0029033D01*
X0027368Y0028904D01*
X0027457Y0028773D01*
X0027541Y0028639D01*
X0027623Y0028503D01*
X0027701Y0028366D01*
X0027775Y0028226D01*
X0027846Y0028084D01*
X0027914Y0027941D01*
X0027978Y0027796D01*
X0028038Y0027650D01*
X0028094Y0027502D01*
X0028147Y0027353D01*
X0028196Y0027202D01*
X0028241Y0027050D01*
X0028282Y0026897D01*
X0028320Y0026744D01*
X0028353Y0026589D01*
X0028383Y0026433D01*
X0028409Y0026277D01*
X0028430Y0026120D01*
X0028448Y0025963D01*
X0028462Y0025805D01*
X0028472Y0025647D01*
X0028478Y0025489D01*
X0028480Y0025331D01*
X0028478Y0025173D01*
X0028472Y0025015D01*
X0028462Y0024857D01*
X0028448Y0024699D01*
X0028430Y0024542D01*
X0028409Y0024385D01*
X0028383Y0024229D01*
X0028353Y0024073D01*
X0028320Y0023918D01*
X0028282Y0023765D01*
X0028241Y0023612D01*
X0028196Y0023460D01*
X0028147Y0023309D01*
X0028094Y0023160D01*
X0028038Y0023012D01*
X0027978Y0022866D01*
X0027914Y0022721D01*
X0027846Y0022578D01*
X0027775Y0022436D01*
X0027701Y0022296D01*
X0027623Y0022159D01*
X0027541Y0022023D01*
X0027457Y0021889D01*
X0027368Y0021758D01*
X0027277Y0021629D01*
X0027182Y0021502D01*
X0027085Y0021377D01*
X0026984Y0021255D01*
X0026880Y0021136D01*
X0026773Y0021019D01*
X0026663Y0020905D01*
X0026550Y0020794D01*
X0026435Y0020685D01*
X0026317Y0020580D01*
X0026196Y0020478D01*
X0026073Y0020378D01*
X0025947Y0020282D01*
X0025819Y0020189D01*
X0025689Y0020099D01*
X0025556Y0020013D01*
X0025421Y0019929D01*
X0025285Y0019850D01*
X0025146Y0019773D01*
X0025005Y0019701D01*
X0024863Y0019631D01*
X0024719Y0019566D01*
X0024573Y0019504D01*
X0024426Y0019446D01*
X0024277Y0019391D01*
X0024127Y0019340D01*
X0023976Y0019293D01*
X0023824Y0019250D01*
X0023671Y0019211D01*
X0023516Y0019175D01*
X0023361Y0019144D01*
X0023205Y0019116D01*
X0023049Y0019092D01*
X0022892Y0019072D01*
X0022734Y0019056D01*
X0022577Y0019044D01*
X0022418Y0019036D01*
X0022260Y0019032D01*
X0022102Y0019032D01*
X0021944Y0019036D01*
X0021785Y0019044D01*
X0021628Y0019056D01*
X0021470Y0019072D01*
X0021313Y0019092D01*
X0021157Y0019116D01*
X0021001Y0019144D01*
X0020846Y0019175D01*
X0020691Y0019211D01*
X0020538Y0019250D01*
X0020386Y0019293D01*
X0020235Y0019340D01*
X0020085Y0019391D01*
X0019936Y0019446D01*
X0019789Y0019504D01*
X0019643Y0019566D01*
X0019499Y0019631D01*
X0019357Y0019701D01*
X0019216Y0019773D01*
X0019077Y0019850D01*
X0018941Y0019929D01*
X0018806Y0020013D01*
X0018673Y0020099D01*
X0018543Y0020189D01*
X0018415Y0020282D01*
X0018289Y0020378D01*
X0018166Y0020478D01*
X0018045Y0020580D01*
X0017927Y0020685D01*
X0017812Y0020794D01*
X0017699Y0020905D01*
X0017589Y0021019D01*
X0017482Y0021136D01*
X0017378Y0021255D01*
X0017277Y0021377D01*
X0017180Y0021502D01*
X0017085Y0021629D01*
X0016994Y0021758D01*
X0016905Y0021889D01*
X0016821Y0022023D01*
X0016739Y0022159D01*
X0016661Y0022296D01*
X0016587Y0022436D01*
X0016516Y0022578D01*
X0016448Y0022721D01*
X0016384Y0022866D01*
X0016324Y0023012D01*
X0016268Y0023160D01*
X0016215Y0023309D01*
X0016166Y0023460D01*
X0016121Y0023612D01*
X0016080Y0023765D01*
X0016042Y0023918D01*
X0016009Y0024073D01*
X0015979Y0024229D01*
X0015953Y0024385D01*
X0015932Y0024542D01*
X0015914Y0024699D01*
X0015900Y0024857D01*
X0015890Y0025015D01*
X0015884Y0025173D01*
X0015882Y0025331D01*
X0057231Y0032331D02*
X0057233Y0032485D01*
X0057239Y0032639D01*
X0057249Y0032792D01*
X0057263Y0032945D01*
X0057281Y0033098D01*
X0057302Y0033250D01*
X0057328Y0033402D01*
X0057358Y0033553D01*
X0057391Y0033703D01*
X0057429Y0033852D01*
X0057470Y0034001D01*
X0057515Y0034148D01*
X0057564Y0034294D01*
X0057617Y0034438D01*
X0057673Y0034581D01*
X0057733Y0034723D01*
X0057797Y0034863D01*
X0057864Y0035001D01*
X0057935Y0035138D01*
X0058009Y0035273D01*
X0058087Y0035405D01*
X0058168Y0035536D01*
X0058253Y0035665D01*
X0058340Y0035791D01*
X0058431Y0035915D01*
X0058526Y0036036D01*
X0058623Y0036156D01*
X0058723Y0036272D01*
X0058827Y0036386D01*
X0058933Y0036497D01*
X0059042Y0036606D01*
X0059154Y0036711D01*
X0059269Y0036814D01*
X0059386Y0036914D01*
X0059506Y0037010D01*
X0059628Y0037104D01*
X0059752Y0037194D01*
X0059879Y0037281D01*
X0060008Y0037365D01*
X0060140Y0037445D01*
X0060273Y0037522D01*
X0060408Y0037595D01*
X0060545Y0037665D01*
X0060684Y0037732D01*
X0060824Y0037794D01*
X0060966Y0037853D01*
X0061110Y0037909D01*
X0061255Y0037961D01*
X0061401Y0038008D01*
X0061548Y0038053D01*
X0061697Y0038093D01*
X0061846Y0038129D01*
X0061997Y0038162D01*
X0062148Y0038191D01*
X0062300Y0038215D01*
X0062452Y0038236D01*
X0062605Y0038253D01*
X0062758Y0038266D01*
X0062912Y0038275D01*
X0063066Y0038280D01*
X0063219Y0038281D01*
X0063373Y0038278D01*
X0063527Y0038271D01*
X0063680Y0038260D01*
X0063834Y0038245D01*
X0063986Y0038226D01*
X0064138Y0038203D01*
X0064290Y0038177D01*
X0064441Y0038146D01*
X0064591Y0038112D01*
X0064740Y0038073D01*
X0064887Y0038031D01*
X0065034Y0037985D01*
X0065180Y0037935D01*
X0065324Y0037882D01*
X0065467Y0037824D01*
X0065608Y0037763D01*
X0065748Y0037699D01*
X0065886Y0037631D01*
X0066022Y0037559D01*
X0066156Y0037484D01*
X0066288Y0037405D01*
X0066418Y0037323D01*
X0066546Y0037238D01*
X0066672Y0037149D01*
X0066795Y0037057D01*
X0066916Y0036962D01*
X0067035Y0036864D01*
X0067151Y0036763D01*
X0067264Y0036659D01*
X0067375Y0036552D01*
X0067482Y0036442D01*
X0067587Y0036329D01*
X0067689Y0036214D01*
X0067788Y0036096D01*
X0067884Y0035976D01*
X0067977Y0035853D01*
X0068066Y0035728D01*
X0068152Y0035601D01*
X0068235Y0035471D01*
X0068315Y0035339D01*
X0068391Y0035206D01*
X0068463Y0035070D01*
X0068532Y0034932D01*
X0068598Y0034793D01*
X0068660Y0034652D01*
X0068718Y0034510D01*
X0068772Y0034366D01*
X0068823Y0034221D01*
X0068870Y0034074D01*
X0068913Y0033927D01*
X0068952Y0033778D01*
X0068988Y0033628D01*
X0069019Y0033478D01*
X0069047Y0033326D01*
X0069071Y0033174D01*
X0069091Y0033022D01*
X0069107Y0032869D01*
X0069119Y0032715D01*
X0069127Y0032562D01*
X0069131Y0032408D01*
X0069131Y0032254D01*
X0069127Y0032100D01*
X0069119Y0031947D01*
X0069107Y0031793D01*
X0069091Y0031640D01*
X0069071Y0031488D01*
X0069047Y0031336D01*
X0069019Y0031184D01*
X0068988Y0031034D01*
X0068952Y0030884D01*
X0068913Y0030735D01*
X0068870Y0030588D01*
X0068823Y0030441D01*
X0068772Y0030296D01*
X0068718Y0030152D01*
X0068660Y0030010D01*
X0068598Y0029869D01*
X0068532Y0029730D01*
X0068463Y0029592D01*
X0068391Y0029456D01*
X0068315Y0029323D01*
X0068235Y0029191D01*
X0068152Y0029061D01*
X0068066Y0028934D01*
X0067977Y0028809D01*
X0067884Y0028686D01*
X0067788Y0028566D01*
X0067689Y0028448D01*
X0067587Y0028333D01*
X0067482Y0028220D01*
X0067375Y0028110D01*
X0067264Y0028003D01*
X0067151Y0027899D01*
X0067035Y0027798D01*
X0066916Y0027700D01*
X0066795Y0027605D01*
X0066672Y0027513D01*
X0066546Y0027424D01*
X0066418Y0027339D01*
X0066288Y0027257D01*
X0066156Y0027178D01*
X0066022Y0027103D01*
X0065886Y0027031D01*
X0065748Y0026963D01*
X0065608Y0026899D01*
X0065467Y0026838D01*
X0065324Y0026780D01*
X0065180Y0026727D01*
X0065034Y0026677D01*
X0064887Y0026631D01*
X0064740Y0026589D01*
X0064591Y0026550D01*
X0064441Y0026516D01*
X0064290Y0026485D01*
X0064138Y0026459D01*
X0063986Y0026436D01*
X0063834Y0026417D01*
X0063680Y0026402D01*
X0063527Y0026391D01*
X0063373Y0026384D01*
X0063219Y0026381D01*
X0063066Y0026382D01*
X0062912Y0026387D01*
X0062758Y0026396D01*
X0062605Y0026409D01*
X0062452Y0026426D01*
X0062300Y0026447D01*
X0062148Y0026471D01*
X0061997Y0026500D01*
X0061846Y0026533D01*
X0061697Y0026569D01*
X0061548Y0026609D01*
X0061401Y0026654D01*
X0061255Y0026701D01*
X0061110Y0026753D01*
X0060966Y0026809D01*
X0060824Y0026868D01*
X0060684Y0026930D01*
X0060545Y0026997D01*
X0060408Y0027067D01*
X0060273Y0027140D01*
X0060140Y0027217D01*
X0060008Y0027297D01*
X0059879Y0027381D01*
X0059752Y0027468D01*
X0059628Y0027558D01*
X0059506Y0027652D01*
X0059386Y0027748D01*
X0059269Y0027848D01*
X0059154Y0027951D01*
X0059042Y0028056D01*
X0058933Y0028165D01*
X0058827Y0028276D01*
X0058723Y0028390D01*
X0058623Y0028506D01*
X0058526Y0028626D01*
X0058431Y0028747D01*
X0058340Y0028871D01*
X0058253Y0028997D01*
X0058168Y0029126D01*
X0058087Y0029257D01*
X0058009Y0029389D01*
X0057935Y0029524D01*
X0057864Y0029661D01*
X0057797Y0029799D01*
X0057733Y0029939D01*
X0057673Y0030081D01*
X0057617Y0030224D01*
X0057564Y0030368D01*
X0057515Y0030514D01*
X0057470Y0030661D01*
X0057429Y0030810D01*
X0057391Y0030959D01*
X0057358Y0031109D01*
X0057328Y0031260D01*
X0057302Y0031412D01*
X0057281Y0031564D01*
X0057263Y0031717D01*
X0057249Y0031870D01*
X0057239Y0032023D01*
X0057233Y0032177D01*
X0057231Y0032331D01*
X0057181Y0032331D02*
X0057183Y0032178D01*
X0057189Y0032025D01*
X0057199Y0031872D01*
X0057212Y0031719D01*
X0057230Y0031567D01*
X0057251Y0031415D01*
X0057277Y0031264D01*
X0057306Y0031114D01*
X0057339Y0030964D01*
X0057376Y0030815D01*
X0057416Y0030667D01*
X0057461Y0030521D01*
X0057509Y0030375D01*
X0057561Y0030231D01*
X0057616Y0030088D01*
X0057675Y0029947D01*
X0057738Y0029807D01*
X0057804Y0029669D01*
X0057874Y0029532D01*
X0057947Y0029398D01*
X0058024Y0029265D01*
X0058104Y0029134D01*
X0058187Y0029006D01*
X0058273Y0028879D01*
X0058363Y0028755D01*
X0058456Y0028633D01*
X0058552Y0028514D01*
X0058651Y0028397D01*
X0058753Y0028282D01*
X0058858Y0028170D01*
X0058966Y0028061D01*
X0059076Y0027955D01*
X0059189Y0027852D01*
X0059305Y0027751D01*
X0059423Y0027654D01*
X0059544Y0027559D01*
X0059667Y0027468D01*
X0059792Y0027380D01*
X0059920Y0027295D01*
X0060049Y0027213D01*
X0060181Y0027135D01*
X0060315Y0027060D01*
X0060450Y0026988D01*
X0060588Y0026920D01*
X0060727Y0026856D01*
X0060867Y0026795D01*
X0061009Y0026738D01*
X0061153Y0026684D01*
X0061298Y0026634D01*
X0061444Y0026588D01*
X0061591Y0026545D01*
X0061739Y0026507D01*
X0061889Y0026472D01*
X0062039Y0026441D01*
X0062189Y0026413D01*
X0062341Y0026390D01*
X0062493Y0026371D01*
X0062645Y0026355D01*
X0062798Y0026343D01*
X0062951Y0026335D01*
X0063104Y0026331D01*
X0063258Y0026331D01*
X0063411Y0026335D01*
X0063564Y0026343D01*
X0063717Y0026355D01*
X0063869Y0026371D01*
X0064021Y0026390D01*
X0064173Y0026413D01*
X0064323Y0026441D01*
X0064473Y0026472D01*
X0064623Y0026507D01*
X0064771Y0026545D01*
X0064918Y0026588D01*
X0065064Y0026634D01*
X0065209Y0026684D01*
X0065353Y0026738D01*
X0065495Y0026795D01*
X0065635Y0026856D01*
X0065774Y0026920D01*
X0065912Y0026988D01*
X0066047Y0027060D01*
X0066181Y0027135D01*
X0066313Y0027213D01*
X0066442Y0027295D01*
X0066570Y0027380D01*
X0066695Y0027468D01*
X0066818Y0027559D01*
X0066939Y0027654D01*
X0067057Y0027751D01*
X0067173Y0027852D01*
X0067286Y0027955D01*
X0067396Y0028061D01*
X0067504Y0028170D01*
X0067609Y0028282D01*
X0067711Y0028397D01*
X0067810Y0028514D01*
X0067906Y0028633D01*
X0067999Y0028755D01*
X0068089Y0028879D01*
X0068175Y0029006D01*
X0068258Y0029134D01*
X0068338Y0029265D01*
X0068415Y0029398D01*
X0068488Y0029532D01*
X0068558Y0029669D01*
X0068624Y0029807D01*
X0068687Y0029947D01*
X0068746Y0030088D01*
X0068801Y0030231D01*
X0068853Y0030375D01*
X0068901Y0030521D01*
X0068946Y0030667D01*
X0068986Y0030815D01*
X0069023Y0030964D01*
X0069056Y0031114D01*
X0069085Y0031264D01*
X0069111Y0031415D01*
X0069132Y0031567D01*
X0069150Y0031719D01*
X0069163Y0031872D01*
X0069173Y0032025D01*
X0069179Y0032178D01*
X0069181Y0032331D01*
X0057231Y0046331D02*
X0057233Y0046485D01*
X0057239Y0046639D01*
X0057249Y0046792D01*
X0057263Y0046945D01*
X0057281Y0047098D01*
X0057302Y0047250D01*
X0057328Y0047402D01*
X0057358Y0047553D01*
X0057391Y0047703D01*
X0057429Y0047852D01*
X0057470Y0048001D01*
X0057515Y0048148D01*
X0057564Y0048294D01*
X0057617Y0048438D01*
X0057673Y0048581D01*
X0057733Y0048723D01*
X0057797Y0048863D01*
X0057864Y0049001D01*
X0057935Y0049138D01*
X0058009Y0049273D01*
X0058087Y0049405D01*
X0058168Y0049536D01*
X0058253Y0049665D01*
X0058340Y0049791D01*
X0058431Y0049915D01*
X0058526Y0050036D01*
X0058623Y0050156D01*
X0058723Y0050272D01*
X0058827Y0050386D01*
X0058933Y0050497D01*
X0059042Y0050606D01*
X0059154Y0050711D01*
X0059269Y0050814D01*
X0059386Y0050914D01*
X0059506Y0051010D01*
X0059628Y0051104D01*
X0059752Y0051194D01*
X0059879Y0051281D01*
X0060008Y0051365D01*
X0060140Y0051445D01*
X0060273Y0051522D01*
X0060408Y0051595D01*
X0060545Y0051665D01*
X0060684Y0051732D01*
X0060824Y0051794D01*
X0060966Y0051853D01*
X0061110Y0051909D01*
X0061255Y0051961D01*
X0061401Y0052008D01*
X0061548Y0052053D01*
X0061697Y0052093D01*
X0061846Y0052129D01*
X0061997Y0052162D01*
X0062148Y0052191D01*
X0062300Y0052215D01*
X0062452Y0052236D01*
X0062605Y0052253D01*
X0062758Y0052266D01*
X0062912Y0052275D01*
X0063066Y0052280D01*
X0063219Y0052281D01*
X0063373Y0052278D01*
X0063527Y0052271D01*
X0063680Y0052260D01*
X0063834Y0052245D01*
X0063986Y0052226D01*
X0064138Y0052203D01*
X0064290Y0052177D01*
X0064441Y0052146D01*
X0064591Y0052112D01*
X0064740Y0052073D01*
X0064887Y0052031D01*
X0065034Y0051985D01*
X0065180Y0051935D01*
X0065324Y0051882D01*
X0065467Y0051824D01*
X0065608Y0051763D01*
X0065748Y0051699D01*
X0065886Y0051631D01*
X0066022Y0051559D01*
X0066156Y0051484D01*
X0066288Y0051405D01*
X0066418Y0051323D01*
X0066546Y0051238D01*
X0066672Y0051149D01*
X0066795Y0051057D01*
X0066916Y0050962D01*
X0067035Y0050864D01*
X0067151Y0050763D01*
X0067264Y0050659D01*
X0067375Y0050552D01*
X0067482Y0050442D01*
X0067587Y0050329D01*
X0067689Y0050214D01*
X0067788Y0050096D01*
X0067884Y0049976D01*
X0067977Y0049853D01*
X0068066Y0049728D01*
X0068152Y0049601D01*
X0068235Y0049471D01*
X0068315Y0049339D01*
X0068391Y0049206D01*
X0068463Y0049070D01*
X0068532Y0048932D01*
X0068598Y0048793D01*
X0068660Y0048652D01*
X0068718Y0048510D01*
X0068772Y0048366D01*
X0068823Y0048221D01*
X0068870Y0048074D01*
X0068913Y0047927D01*
X0068952Y0047778D01*
X0068988Y0047628D01*
X0069019Y0047478D01*
X0069047Y0047326D01*
X0069071Y0047174D01*
X0069091Y0047022D01*
X0069107Y0046869D01*
X0069119Y0046715D01*
X0069127Y0046562D01*
X0069131Y0046408D01*
X0069131Y0046254D01*
X0069127Y0046100D01*
X0069119Y0045947D01*
X0069107Y0045793D01*
X0069091Y0045640D01*
X0069071Y0045488D01*
X0069047Y0045336D01*
X0069019Y0045184D01*
X0068988Y0045034D01*
X0068952Y0044884D01*
X0068913Y0044735D01*
X0068870Y0044588D01*
X0068823Y0044441D01*
X0068772Y0044296D01*
X0068718Y0044152D01*
X0068660Y0044010D01*
X0068598Y0043869D01*
X0068532Y0043730D01*
X0068463Y0043592D01*
X0068391Y0043456D01*
X0068315Y0043323D01*
X0068235Y0043191D01*
X0068152Y0043061D01*
X0068066Y0042934D01*
X0067977Y0042809D01*
X0067884Y0042686D01*
X0067788Y0042566D01*
X0067689Y0042448D01*
X0067587Y0042333D01*
X0067482Y0042220D01*
X0067375Y0042110D01*
X0067264Y0042003D01*
X0067151Y0041899D01*
X0067035Y0041798D01*
X0066916Y0041700D01*
X0066795Y0041605D01*
X0066672Y0041513D01*
X0066546Y0041424D01*
X0066418Y0041339D01*
X0066288Y0041257D01*
X0066156Y0041178D01*
X0066022Y0041103D01*
X0065886Y0041031D01*
X0065748Y0040963D01*
X0065608Y0040899D01*
X0065467Y0040838D01*
X0065324Y0040780D01*
X0065180Y0040727D01*
X0065034Y0040677D01*
X0064887Y0040631D01*
X0064740Y0040589D01*
X0064591Y0040550D01*
X0064441Y0040516D01*
X0064290Y0040485D01*
X0064138Y0040459D01*
X0063986Y0040436D01*
X0063834Y0040417D01*
X0063680Y0040402D01*
X0063527Y0040391D01*
X0063373Y0040384D01*
X0063219Y0040381D01*
X0063066Y0040382D01*
X0062912Y0040387D01*
X0062758Y0040396D01*
X0062605Y0040409D01*
X0062452Y0040426D01*
X0062300Y0040447D01*
X0062148Y0040471D01*
X0061997Y0040500D01*
X0061846Y0040533D01*
X0061697Y0040569D01*
X0061548Y0040609D01*
X0061401Y0040654D01*
X0061255Y0040701D01*
X0061110Y0040753D01*
X0060966Y0040809D01*
X0060824Y0040868D01*
X0060684Y0040930D01*
X0060545Y0040997D01*
X0060408Y0041067D01*
X0060273Y0041140D01*
X0060140Y0041217D01*
X0060008Y0041297D01*
X0059879Y0041381D01*
X0059752Y0041468D01*
X0059628Y0041558D01*
X0059506Y0041652D01*
X0059386Y0041748D01*
X0059269Y0041848D01*
X0059154Y0041951D01*
X0059042Y0042056D01*
X0058933Y0042165D01*
X0058827Y0042276D01*
X0058723Y0042390D01*
X0058623Y0042506D01*
X0058526Y0042626D01*
X0058431Y0042747D01*
X0058340Y0042871D01*
X0058253Y0042997D01*
X0058168Y0043126D01*
X0058087Y0043257D01*
X0058009Y0043389D01*
X0057935Y0043524D01*
X0057864Y0043661D01*
X0057797Y0043799D01*
X0057733Y0043939D01*
X0057673Y0044081D01*
X0057617Y0044224D01*
X0057564Y0044368D01*
X0057515Y0044514D01*
X0057470Y0044661D01*
X0057429Y0044810D01*
X0057391Y0044959D01*
X0057358Y0045109D01*
X0057328Y0045260D01*
X0057302Y0045412D01*
X0057281Y0045564D01*
X0057263Y0045717D01*
X0057249Y0045870D01*
X0057239Y0046023D01*
X0057233Y0046177D01*
X0057231Y0046331D01*
X0057181Y0046331D02*
X0057183Y0046484D01*
X0057189Y0046637D01*
X0057199Y0046790D01*
X0057212Y0046943D01*
X0057230Y0047095D01*
X0057251Y0047247D01*
X0057277Y0047398D01*
X0057306Y0047548D01*
X0057339Y0047698D01*
X0057376Y0047847D01*
X0057416Y0047995D01*
X0057461Y0048141D01*
X0057509Y0048287D01*
X0057561Y0048431D01*
X0057616Y0048574D01*
X0057675Y0048715D01*
X0057738Y0048855D01*
X0057804Y0048993D01*
X0057874Y0049130D01*
X0057947Y0049264D01*
X0058024Y0049397D01*
X0058104Y0049528D01*
X0058187Y0049656D01*
X0058273Y0049783D01*
X0058363Y0049907D01*
X0058456Y0050029D01*
X0058552Y0050148D01*
X0058651Y0050265D01*
X0058753Y0050380D01*
X0058858Y0050492D01*
X0058966Y0050601D01*
X0059076Y0050707D01*
X0059189Y0050810D01*
X0059305Y0050911D01*
X0059423Y0051008D01*
X0059544Y0051103D01*
X0059667Y0051194D01*
X0059792Y0051282D01*
X0059920Y0051367D01*
X0060049Y0051449D01*
X0060181Y0051527D01*
X0060315Y0051602D01*
X0060450Y0051674D01*
X0060588Y0051742D01*
X0060727Y0051806D01*
X0060867Y0051867D01*
X0061009Y0051924D01*
X0061153Y0051978D01*
X0061298Y0052028D01*
X0061444Y0052074D01*
X0061591Y0052117D01*
X0061739Y0052155D01*
X0061889Y0052190D01*
X0062039Y0052221D01*
X0062189Y0052249D01*
X0062341Y0052272D01*
X0062493Y0052291D01*
X0062645Y0052307D01*
X0062798Y0052319D01*
X0062951Y0052327D01*
X0063104Y0052331D01*
X0063258Y0052331D01*
X0063411Y0052327D01*
X0063564Y0052319D01*
X0063717Y0052307D01*
X0063869Y0052291D01*
X0064021Y0052272D01*
X0064173Y0052249D01*
X0064323Y0052221D01*
X0064473Y0052190D01*
X0064623Y0052155D01*
X0064771Y0052117D01*
X0064918Y0052074D01*
X0065064Y0052028D01*
X0065209Y0051978D01*
X0065353Y0051924D01*
X0065495Y0051867D01*
X0065635Y0051806D01*
X0065774Y0051742D01*
X0065912Y0051674D01*
X0066047Y0051602D01*
X0066181Y0051527D01*
X0066313Y0051449D01*
X0066442Y0051367D01*
X0066570Y0051282D01*
X0066695Y0051194D01*
X0066818Y0051103D01*
X0066939Y0051008D01*
X0067057Y0050911D01*
X0067173Y0050810D01*
X0067286Y0050707D01*
X0067396Y0050601D01*
X0067504Y0050492D01*
X0067609Y0050380D01*
X0067711Y0050265D01*
X0067810Y0050148D01*
X0067906Y0050029D01*
X0067999Y0049907D01*
X0068089Y0049783D01*
X0068175Y0049656D01*
X0068258Y0049528D01*
X0068338Y0049397D01*
X0068415Y0049264D01*
X0068488Y0049130D01*
X0068558Y0048993D01*
X0068624Y0048855D01*
X0068687Y0048715D01*
X0068746Y0048574D01*
X0068801Y0048431D01*
X0068853Y0048287D01*
X0068901Y0048141D01*
X0068946Y0047995D01*
X0068986Y0047847D01*
X0069023Y0047698D01*
X0069056Y0047548D01*
X0069085Y0047398D01*
X0069111Y0047247D01*
X0069132Y0047095D01*
X0069150Y0046943D01*
X0069163Y0046790D01*
X0069173Y0046637D01*
X0069179Y0046484D01*
X0069181Y0046331D01*
X0065681Y0110898D02*
X0065683Y0111059D01*
X0065689Y0111219D01*
X0065699Y0111380D01*
X0065713Y0111540D01*
X0065731Y0111700D01*
X0065752Y0111859D01*
X0065778Y0112018D01*
X0065808Y0112176D01*
X0065841Y0112333D01*
X0065879Y0112490D01*
X0065920Y0112645D01*
X0065965Y0112799D01*
X0066014Y0112952D01*
X0066067Y0113104D01*
X0066123Y0113255D01*
X0066184Y0113404D01*
X0066247Y0113552D01*
X0066315Y0113698D01*
X0066386Y0113842D01*
X0066460Y0113984D01*
X0066538Y0114125D01*
X0066620Y0114263D01*
X0066705Y0114400D01*
X0066793Y0114534D01*
X0066885Y0114666D01*
X0066980Y0114796D01*
X0067078Y0114924D01*
X0067179Y0115049D01*
X0067283Y0115171D01*
X0067390Y0115291D01*
X0067500Y0115408D01*
X0067613Y0115523D01*
X0067729Y0115634D01*
X0067848Y0115743D01*
X0067969Y0115848D01*
X0068093Y0115951D01*
X0068219Y0116051D01*
X0068347Y0116147D01*
X0068478Y0116240D01*
X0068612Y0116330D01*
X0068747Y0116417D01*
X0068885Y0116500D01*
X0069024Y0116580D01*
X0069166Y0116656D01*
X0069309Y0116729D01*
X0069454Y0116798D01*
X0069601Y0116864D01*
X0069749Y0116926D01*
X0069899Y0116984D01*
X0070050Y0117039D01*
X0070203Y0117090D01*
X0070357Y0117137D01*
X0070512Y0117180D01*
X0070668Y0117219D01*
X0070824Y0117255D01*
X0070982Y0117286D01*
X0071140Y0117314D01*
X0071299Y0117338D01*
X0071459Y0117358D01*
X0071619Y0117374D01*
X0071779Y0117386D01*
X0071940Y0117394D01*
X0072101Y0117398D01*
X0072261Y0117398D01*
X0072422Y0117394D01*
X0072583Y0117386D01*
X0072743Y0117374D01*
X0072903Y0117358D01*
X0073063Y0117338D01*
X0073222Y0117314D01*
X0073380Y0117286D01*
X0073538Y0117255D01*
X0073694Y0117219D01*
X0073850Y0117180D01*
X0074005Y0117137D01*
X0074159Y0117090D01*
X0074312Y0117039D01*
X0074463Y0116984D01*
X0074613Y0116926D01*
X0074761Y0116864D01*
X0074908Y0116798D01*
X0075053Y0116729D01*
X0075196Y0116656D01*
X0075338Y0116580D01*
X0075477Y0116500D01*
X0075615Y0116417D01*
X0075750Y0116330D01*
X0075884Y0116240D01*
X0076015Y0116147D01*
X0076143Y0116051D01*
X0076269Y0115951D01*
X0076393Y0115848D01*
X0076514Y0115743D01*
X0076633Y0115634D01*
X0076749Y0115523D01*
X0076862Y0115408D01*
X0076972Y0115291D01*
X0077079Y0115171D01*
X0077183Y0115049D01*
X0077284Y0114924D01*
X0077382Y0114796D01*
X0077477Y0114666D01*
X0077569Y0114534D01*
X0077657Y0114400D01*
X0077742Y0114263D01*
X0077824Y0114125D01*
X0077902Y0113984D01*
X0077976Y0113842D01*
X0078047Y0113698D01*
X0078115Y0113552D01*
X0078178Y0113404D01*
X0078239Y0113255D01*
X0078295Y0113104D01*
X0078348Y0112952D01*
X0078397Y0112799D01*
X0078442Y0112645D01*
X0078483Y0112490D01*
X0078521Y0112333D01*
X0078554Y0112176D01*
X0078584Y0112018D01*
X0078610Y0111859D01*
X0078631Y0111700D01*
X0078649Y0111540D01*
X0078663Y0111380D01*
X0078673Y0111219D01*
X0078679Y0111059D01*
X0078681Y0110898D01*
X0078679Y0110737D01*
X0078673Y0110577D01*
X0078663Y0110416D01*
X0078649Y0110256D01*
X0078631Y0110096D01*
X0078610Y0109937D01*
X0078584Y0109778D01*
X0078554Y0109620D01*
X0078521Y0109463D01*
X0078483Y0109306D01*
X0078442Y0109151D01*
X0078397Y0108997D01*
X0078348Y0108844D01*
X0078295Y0108692D01*
X0078239Y0108541D01*
X0078178Y0108392D01*
X0078115Y0108244D01*
X0078047Y0108098D01*
X0077976Y0107954D01*
X0077902Y0107812D01*
X0077824Y0107671D01*
X0077742Y0107533D01*
X0077657Y0107396D01*
X0077569Y0107262D01*
X0077477Y0107130D01*
X0077382Y0107000D01*
X0077284Y0106872D01*
X0077183Y0106747D01*
X0077079Y0106625D01*
X0076972Y0106505D01*
X0076862Y0106388D01*
X0076749Y0106273D01*
X0076633Y0106162D01*
X0076514Y0106053D01*
X0076393Y0105948D01*
X0076269Y0105845D01*
X0076143Y0105745D01*
X0076015Y0105649D01*
X0075884Y0105556D01*
X0075750Y0105466D01*
X0075615Y0105379D01*
X0075477Y0105296D01*
X0075338Y0105216D01*
X0075196Y0105140D01*
X0075053Y0105067D01*
X0074908Y0104998D01*
X0074761Y0104932D01*
X0074613Y0104870D01*
X0074463Y0104812D01*
X0074312Y0104757D01*
X0074159Y0104706D01*
X0074005Y0104659D01*
X0073850Y0104616D01*
X0073694Y0104577D01*
X0073538Y0104541D01*
X0073380Y0104510D01*
X0073222Y0104482D01*
X0073063Y0104458D01*
X0072903Y0104438D01*
X0072743Y0104422D01*
X0072583Y0104410D01*
X0072422Y0104402D01*
X0072261Y0104398D01*
X0072101Y0104398D01*
X0071940Y0104402D01*
X0071779Y0104410D01*
X0071619Y0104422D01*
X0071459Y0104438D01*
X0071299Y0104458D01*
X0071140Y0104482D01*
X0070982Y0104510D01*
X0070824Y0104541D01*
X0070668Y0104577D01*
X0070512Y0104616D01*
X0070357Y0104659D01*
X0070203Y0104706D01*
X0070050Y0104757D01*
X0069899Y0104812D01*
X0069749Y0104870D01*
X0069601Y0104932D01*
X0069454Y0104998D01*
X0069309Y0105067D01*
X0069166Y0105140D01*
X0069024Y0105216D01*
X0068885Y0105296D01*
X0068747Y0105379D01*
X0068612Y0105466D01*
X0068478Y0105556D01*
X0068347Y0105649D01*
X0068219Y0105745D01*
X0068093Y0105845D01*
X0067969Y0105948D01*
X0067848Y0106053D01*
X0067729Y0106162D01*
X0067613Y0106273D01*
X0067500Y0106388D01*
X0067390Y0106505D01*
X0067283Y0106625D01*
X0067179Y0106747D01*
X0067078Y0106872D01*
X0066980Y0107000D01*
X0066885Y0107130D01*
X0066793Y0107262D01*
X0066705Y0107396D01*
X0066620Y0107533D01*
X0066538Y0107671D01*
X0066460Y0107812D01*
X0066386Y0107954D01*
X0066315Y0108098D01*
X0066247Y0108244D01*
X0066184Y0108392D01*
X0066123Y0108541D01*
X0066067Y0108692D01*
X0066014Y0108844D01*
X0065965Y0108997D01*
X0065920Y0109151D01*
X0065879Y0109306D01*
X0065841Y0109463D01*
X0065808Y0109620D01*
X0065778Y0109778D01*
X0065752Y0109937D01*
X0065731Y0110096D01*
X0065713Y0110256D01*
X0065699Y0110416D01*
X0065689Y0110577D01*
X0065683Y0110737D01*
X0065681Y0110898D01*
X0011945Y0251709D02*
X0011947Y0251867D01*
X0011953Y0252025D01*
X0011963Y0252183D01*
X0011977Y0252341D01*
X0011995Y0252498D01*
X0012016Y0252655D01*
X0012042Y0252811D01*
X0012072Y0252967D01*
X0012105Y0253122D01*
X0012143Y0253275D01*
X0012184Y0253428D01*
X0012229Y0253580D01*
X0012278Y0253731D01*
X0012331Y0253880D01*
X0012387Y0254028D01*
X0012447Y0254174D01*
X0012511Y0254319D01*
X0012579Y0254462D01*
X0012650Y0254604D01*
X0012724Y0254744D01*
X0012802Y0254881D01*
X0012884Y0255017D01*
X0012968Y0255151D01*
X0013057Y0255282D01*
X0013148Y0255411D01*
X0013243Y0255538D01*
X0013340Y0255663D01*
X0013441Y0255785D01*
X0013545Y0255904D01*
X0013652Y0256021D01*
X0013762Y0256135D01*
X0013875Y0256246D01*
X0013990Y0256355D01*
X0014108Y0256460D01*
X0014229Y0256562D01*
X0014352Y0256662D01*
X0014478Y0256758D01*
X0014606Y0256851D01*
X0014736Y0256941D01*
X0014869Y0257027D01*
X0015004Y0257111D01*
X0015140Y0257190D01*
X0015279Y0257267D01*
X0015420Y0257339D01*
X0015562Y0257409D01*
X0015706Y0257474D01*
X0015852Y0257536D01*
X0015999Y0257594D01*
X0016148Y0257649D01*
X0016298Y0257700D01*
X0016449Y0257747D01*
X0016601Y0257790D01*
X0016754Y0257829D01*
X0016909Y0257865D01*
X0017064Y0257896D01*
X0017220Y0257924D01*
X0017376Y0257948D01*
X0017533Y0257968D01*
X0017691Y0257984D01*
X0017848Y0257996D01*
X0018007Y0258004D01*
X0018165Y0258008D01*
X0018323Y0258008D01*
X0018481Y0258004D01*
X0018640Y0257996D01*
X0018797Y0257984D01*
X0018955Y0257968D01*
X0019112Y0257948D01*
X0019268Y0257924D01*
X0019424Y0257896D01*
X0019579Y0257865D01*
X0019734Y0257829D01*
X0019887Y0257790D01*
X0020039Y0257747D01*
X0020190Y0257700D01*
X0020340Y0257649D01*
X0020489Y0257594D01*
X0020636Y0257536D01*
X0020782Y0257474D01*
X0020926Y0257409D01*
X0021068Y0257339D01*
X0021209Y0257267D01*
X0021348Y0257190D01*
X0021484Y0257111D01*
X0021619Y0257027D01*
X0021752Y0256941D01*
X0021882Y0256851D01*
X0022010Y0256758D01*
X0022136Y0256662D01*
X0022259Y0256562D01*
X0022380Y0256460D01*
X0022498Y0256355D01*
X0022613Y0256246D01*
X0022726Y0256135D01*
X0022836Y0256021D01*
X0022943Y0255904D01*
X0023047Y0255785D01*
X0023148Y0255663D01*
X0023245Y0255538D01*
X0023340Y0255411D01*
X0023431Y0255282D01*
X0023520Y0255151D01*
X0023604Y0255017D01*
X0023686Y0254881D01*
X0023764Y0254744D01*
X0023838Y0254604D01*
X0023909Y0254462D01*
X0023977Y0254319D01*
X0024041Y0254174D01*
X0024101Y0254028D01*
X0024157Y0253880D01*
X0024210Y0253731D01*
X0024259Y0253580D01*
X0024304Y0253428D01*
X0024345Y0253275D01*
X0024383Y0253122D01*
X0024416Y0252967D01*
X0024446Y0252811D01*
X0024472Y0252655D01*
X0024493Y0252498D01*
X0024511Y0252341D01*
X0024525Y0252183D01*
X0024535Y0252025D01*
X0024541Y0251867D01*
X0024543Y0251709D01*
X0024541Y0251551D01*
X0024535Y0251393D01*
X0024525Y0251235D01*
X0024511Y0251077D01*
X0024493Y0250920D01*
X0024472Y0250763D01*
X0024446Y0250607D01*
X0024416Y0250451D01*
X0024383Y0250296D01*
X0024345Y0250143D01*
X0024304Y0249990D01*
X0024259Y0249838D01*
X0024210Y0249687D01*
X0024157Y0249538D01*
X0024101Y0249390D01*
X0024041Y0249244D01*
X0023977Y0249099D01*
X0023909Y0248956D01*
X0023838Y0248814D01*
X0023764Y0248674D01*
X0023686Y0248537D01*
X0023604Y0248401D01*
X0023520Y0248267D01*
X0023431Y0248136D01*
X0023340Y0248007D01*
X0023245Y0247880D01*
X0023148Y0247755D01*
X0023047Y0247633D01*
X0022943Y0247514D01*
X0022836Y0247397D01*
X0022726Y0247283D01*
X0022613Y0247172D01*
X0022498Y0247063D01*
X0022380Y0246958D01*
X0022259Y0246856D01*
X0022136Y0246756D01*
X0022010Y0246660D01*
X0021882Y0246567D01*
X0021752Y0246477D01*
X0021619Y0246391D01*
X0021484Y0246307D01*
X0021348Y0246228D01*
X0021209Y0246151D01*
X0021068Y0246079D01*
X0020926Y0246009D01*
X0020782Y0245944D01*
X0020636Y0245882D01*
X0020489Y0245824D01*
X0020340Y0245769D01*
X0020190Y0245718D01*
X0020039Y0245671D01*
X0019887Y0245628D01*
X0019734Y0245589D01*
X0019579Y0245553D01*
X0019424Y0245522D01*
X0019268Y0245494D01*
X0019112Y0245470D01*
X0018955Y0245450D01*
X0018797Y0245434D01*
X0018640Y0245422D01*
X0018481Y0245414D01*
X0018323Y0245410D01*
X0018165Y0245410D01*
X0018007Y0245414D01*
X0017848Y0245422D01*
X0017691Y0245434D01*
X0017533Y0245450D01*
X0017376Y0245470D01*
X0017220Y0245494D01*
X0017064Y0245522D01*
X0016909Y0245553D01*
X0016754Y0245589D01*
X0016601Y0245628D01*
X0016449Y0245671D01*
X0016298Y0245718D01*
X0016148Y0245769D01*
X0015999Y0245824D01*
X0015852Y0245882D01*
X0015706Y0245944D01*
X0015562Y0246009D01*
X0015420Y0246079D01*
X0015279Y0246151D01*
X0015140Y0246228D01*
X0015004Y0246307D01*
X0014869Y0246391D01*
X0014736Y0246477D01*
X0014606Y0246567D01*
X0014478Y0246660D01*
X0014352Y0246756D01*
X0014229Y0246856D01*
X0014108Y0246958D01*
X0013990Y0247063D01*
X0013875Y0247172D01*
X0013762Y0247283D01*
X0013652Y0247397D01*
X0013545Y0247514D01*
X0013441Y0247633D01*
X0013340Y0247755D01*
X0013243Y0247880D01*
X0013148Y0248007D01*
X0013057Y0248136D01*
X0012968Y0248267D01*
X0012884Y0248401D01*
X0012802Y0248537D01*
X0012724Y0248674D01*
X0012650Y0248814D01*
X0012579Y0248956D01*
X0012511Y0249099D01*
X0012447Y0249244D01*
X0012387Y0249390D01*
X0012331Y0249538D01*
X0012278Y0249687D01*
X0012229Y0249838D01*
X0012184Y0249990D01*
X0012143Y0250143D01*
X0012105Y0250296D01*
X0012072Y0250451D01*
X0012042Y0250607D01*
X0012016Y0250763D01*
X0011995Y0250920D01*
X0011977Y0251077D01*
X0011963Y0251235D01*
X0011953Y0251393D01*
X0011947Y0251551D01*
X0011945Y0251709D01*
X0265231Y0046331D02*
X0265233Y0046485D01*
X0265239Y0046639D01*
X0265249Y0046792D01*
X0265263Y0046945D01*
X0265281Y0047098D01*
X0265302Y0047250D01*
X0265328Y0047402D01*
X0265358Y0047553D01*
X0265391Y0047703D01*
X0265429Y0047852D01*
X0265470Y0048001D01*
X0265515Y0048148D01*
X0265564Y0048294D01*
X0265617Y0048438D01*
X0265673Y0048581D01*
X0265733Y0048723D01*
X0265797Y0048863D01*
X0265864Y0049001D01*
X0265935Y0049138D01*
X0266009Y0049273D01*
X0266087Y0049405D01*
X0266168Y0049536D01*
X0266253Y0049665D01*
X0266340Y0049791D01*
X0266431Y0049915D01*
X0266526Y0050036D01*
X0266623Y0050156D01*
X0266723Y0050272D01*
X0266827Y0050386D01*
X0266933Y0050497D01*
X0267042Y0050606D01*
X0267154Y0050711D01*
X0267269Y0050814D01*
X0267386Y0050914D01*
X0267506Y0051010D01*
X0267628Y0051104D01*
X0267752Y0051194D01*
X0267879Y0051281D01*
X0268008Y0051365D01*
X0268140Y0051445D01*
X0268273Y0051522D01*
X0268408Y0051595D01*
X0268545Y0051665D01*
X0268684Y0051732D01*
X0268824Y0051794D01*
X0268966Y0051853D01*
X0269110Y0051909D01*
X0269255Y0051961D01*
X0269401Y0052008D01*
X0269548Y0052053D01*
X0269697Y0052093D01*
X0269846Y0052129D01*
X0269997Y0052162D01*
X0270148Y0052191D01*
X0270300Y0052215D01*
X0270452Y0052236D01*
X0270605Y0052253D01*
X0270758Y0052266D01*
X0270912Y0052275D01*
X0271066Y0052280D01*
X0271219Y0052281D01*
X0271373Y0052278D01*
X0271527Y0052271D01*
X0271680Y0052260D01*
X0271834Y0052245D01*
X0271986Y0052226D01*
X0272138Y0052203D01*
X0272290Y0052177D01*
X0272441Y0052146D01*
X0272591Y0052112D01*
X0272740Y0052073D01*
X0272887Y0052031D01*
X0273034Y0051985D01*
X0273180Y0051935D01*
X0273324Y0051882D01*
X0273467Y0051824D01*
X0273608Y0051763D01*
X0273748Y0051699D01*
X0273886Y0051631D01*
X0274022Y0051559D01*
X0274156Y0051484D01*
X0274288Y0051405D01*
X0274418Y0051323D01*
X0274546Y0051238D01*
X0274672Y0051149D01*
X0274795Y0051057D01*
X0274916Y0050962D01*
X0275035Y0050864D01*
X0275151Y0050763D01*
X0275264Y0050659D01*
X0275375Y0050552D01*
X0275482Y0050442D01*
X0275587Y0050329D01*
X0275689Y0050214D01*
X0275788Y0050096D01*
X0275884Y0049976D01*
X0275977Y0049853D01*
X0276066Y0049728D01*
X0276152Y0049601D01*
X0276235Y0049471D01*
X0276315Y0049339D01*
X0276391Y0049206D01*
X0276463Y0049070D01*
X0276532Y0048932D01*
X0276598Y0048793D01*
X0276660Y0048652D01*
X0276718Y0048510D01*
X0276772Y0048366D01*
X0276823Y0048221D01*
X0276870Y0048074D01*
X0276913Y0047927D01*
X0276952Y0047778D01*
X0276988Y0047628D01*
X0277019Y0047478D01*
X0277047Y0047326D01*
X0277071Y0047174D01*
X0277091Y0047022D01*
X0277107Y0046869D01*
X0277119Y0046715D01*
X0277127Y0046562D01*
X0277131Y0046408D01*
X0277131Y0046254D01*
X0277127Y0046100D01*
X0277119Y0045947D01*
X0277107Y0045793D01*
X0277091Y0045640D01*
X0277071Y0045488D01*
X0277047Y0045336D01*
X0277019Y0045184D01*
X0276988Y0045034D01*
X0276952Y0044884D01*
X0276913Y0044735D01*
X0276870Y0044588D01*
X0276823Y0044441D01*
X0276772Y0044296D01*
X0276718Y0044152D01*
X0276660Y0044010D01*
X0276598Y0043869D01*
X0276532Y0043730D01*
X0276463Y0043592D01*
X0276391Y0043456D01*
X0276315Y0043323D01*
X0276235Y0043191D01*
X0276152Y0043061D01*
X0276066Y0042934D01*
X0275977Y0042809D01*
X0275884Y0042686D01*
X0275788Y0042566D01*
X0275689Y0042448D01*
X0275587Y0042333D01*
X0275482Y0042220D01*
X0275375Y0042110D01*
X0275264Y0042003D01*
X0275151Y0041899D01*
X0275035Y0041798D01*
X0274916Y0041700D01*
X0274795Y0041605D01*
X0274672Y0041513D01*
X0274546Y0041424D01*
X0274418Y0041339D01*
X0274288Y0041257D01*
X0274156Y0041178D01*
X0274022Y0041103D01*
X0273886Y0041031D01*
X0273748Y0040963D01*
X0273608Y0040899D01*
X0273467Y0040838D01*
X0273324Y0040780D01*
X0273180Y0040727D01*
X0273034Y0040677D01*
X0272887Y0040631D01*
X0272740Y0040589D01*
X0272591Y0040550D01*
X0272441Y0040516D01*
X0272290Y0040485D01*
X0272138Y0040459D01*
X0271986Y0040436D01*
X0271834Y0040417D01*
X0271680Y0040402D01*
X0271527Y0040391D01*
X0271373Y0040384D01*
X0271219Y0040381D01*
X0271066Y0040382D01*
X0270912Y0040387D01*
X0270758Y0040396D01*
X0270605Y0040409D01*
X0270452Y0040426D01*
X0270300Y0040447D01*
X0270148Y0040471D01*
X0269997Y0040500D01*
X0269846Y0040533D01*
X0269697Y0040569D01*
X0269548Y0040609D01*
X0269401Y0040654D01*
X0269255Y0040701D01*
X0269110Y0040753D01*
X0268966Y0040809D01*
X0268824Y0040868D01*
X0268684Y0040930D01*
X0268545Y0040997D01*
X0268408Y0041067D01*
X0268273Y0041140D01*
X0268140Y0041217D01*
X0268008Y0041297D01*
X0267879Y0041381D01*
X0267752Y0041468D01*
X0267628Y0041558D01*
X0267506Y0041652D01*
X0267386Y0041748D01*
X0267269Y0041848D01*
X0267154Y0041951D01*
X0267042Y0042056D01*
X0266933Y0042165D01*
X0266827Y0042276D01*
X0266723Y0042390D01*
X0266623Y0042506D01*
X0266526Y0042626D01*
X0266431Y0042747D01*
X0266340Y0042871D01*
X0266253Y0042997D01*
X0266168Y0043126D01*
X0266087Y0043257D01*
X0266009Y0043389D01*
X0265935Y0043524D01*
X0265864Y0043661D01*
X0265797Y0043799D01*
X0265733Y0043939D01*
X0265673Y0044081D01*
X0265617Y0044224D01*
X0265564Y0044368D01*
X0265515Y0044514D01*
X0265470Y0044661D01*
X0265429Y0044810D01*
X0265391Y0044959D01*
X0265358Y0045109D01*
X0265328Y0045260D01*
X0265302Y0045412D01*
X0265281Y0045564D01*
X0265263Y0045717D01*
X0265249Y0045870D01*
X0265239Y0046023D01*
X0265233Y0046177D01*
X0265231Y0046331D01*
X0265181Y0046331D02*
X0265183Y0046484D01*
X0265189Y0046637D01*
X0265199Y0046790D01*
X0265212Y0046943D01*
X0265230Y0047095D01*
X0265251Y0047247D01*
X0265277Y0047398D01*
X0265306Y0047548D01*
X0265339Y0047698D01*
X0265376Y0047847D01*
X0265416Y0047995D01*
X0265461Y0048141D01*
X0265509Y0048287D01*
X0265561Y0048431D01*
X0265616Y0048574D01*
X0265675Y0048715D01*
X0265738Y0048855D01*
X0265804Y0048993D01*
X0265874Y0049130D01*
X0265947Y0049264D01*
X0266024Y0049397D01*
X0266104Y0049528D01*
X0266187Y0049656D01*
X0266273Y0049783D01*
X0266363Y0049907D01*
X0266456Y0050029D01*
X0266552Y0050148D01*
X0266651Y0050265D01*
X0266753Y0050380D01*
X0266858Y0050492D01*
X0266966Y0050601D01*
X0267076Y0050707D01*
X0267189Y0050810D01*
X0267305Y0050911D01*
X0267423Y0051008D01*
X0267544Y0051103D01*
X0267667Y0051194D01*
X0267792Y0051282D01*
X0267920Y0051367D01*
X0268049Y0051449D01*
X0268181Y0051527D01*
X0268315Y0051602D01*
X0268450Y0051674D01*
X0268588Y0051742D01*
X0268727Y0051806D01*
X0268867Y0051867D01*
X0269009Y0051924D01*
X0269153Y0051978D01*
X0269298Y0052028D01*
X0269444Y0052074D01*
X0269591Y0052117D01*
X0269739Y0052155D01*
X0269889Y0052190D01*
X0270039Y0052221D01*
X0270189Y0052249D01*
X0270341Y0052272D01*
X0270493Y0052291D01*
X0270645Y0052307D01*
X0270798Y0052319D01*
X0270951Y0052327D01*
X0271104Y0052331D01*
X0271258Y0052331D01*
X0271411Y0052327D01*
X0271564Y0052319D01*
X0271717Y0052307D01*
X0271869Y0052291D01*
X0272021Y0052272D01*
X0272173Y0052249D01*
X0272323Y0052221D01*
X0272473Y0052190D01*
X0272623Y0052155D01*
X0272771Y0052117D01*
X0272918Y0052074D01*
X0273064Y0052028D01*
X0273209Y0051978D01*
X0273353Y0051924D01*
X0273495Y0051867D01*
X0273635Y0051806D01*
X0273774Y0051742D01*
X0273912Y0051674D01*
X0274047Y0051602D01*
X0274181Y0051527D01*
X0274313Y0051449D01*
X0274442Y0051367D01*
X0274570Y0051282D01*
X0274695Y0051194D01*
X0274818Y0051103D01*
X0274939Y0051008D01*
X0275057Y0050911D01*
X0275173Y0050810D01*
X0275286Y0050707D01*
X0275396Y0050601D01*
X0275504Y0050492D01*
X0275609Y0050380D01*
X0275711Y0050265D01*
X0275810Y0050148D01*
X0275906Y0050029D01*
X0275999Y0049907D01*
X0276089Y0049783D01*
X0276175Y0049656D01*
X0276258Y0049528D01*
X0276338Y0049397D01*
X0276415Y0049264D01*
X0276488Y0049130D01*
X0276558Y0048993D01*
X0276624Y0048855D01*
X0276687Y0048715D01*
X0276746Y0048574D01*
X0276801Y0048431D01*
X0276853Y0048287D01*
X0276901Y0048141D01*
X0276946Y0047995D01*
X0276986Y0047847D01*
X0277023Y0047698D01*
X0277056Y0047548D01*
X0277085Y0047398D01*
X0277111Y0047247D01*
X0277132Y0047095D01*
X0277150Y0046943D01*
X0277163Y0046790D01*
X0277173Y0046637D01*
X0277179Y0046484D01*
X0277181Y0046331D01*
X0265231Y0032331D02*
X0265233Y0032485D01*
X0265239Y0032639D01*
X0265249Y0032792D01*
X0265263Y0032945D01*
X0265281Y0033098D01*
X0265302Y0033250D01*
X0265328Y0033402D01*
X0265358Y0033553D01*
X0265391Y0033703D01*
X0265429Y0033852D01*
X0265470Y0034001D01*
X0265515Y0034148D01*
X0265564Y0034294D01*
X0265617Y0034438D01*
X0265673Y0034581D01*
X0265733Y0034723D01*
X0265797Y0034863D01*
X0265864Y0035001D01*
X0265935Y0035138D01*
X0266009Y0035273D01*
X0266087Y0035405D01*
X0266168Y0035536D01*
X0266253Y0035665D01*
X0266340Y0035791D01*
X0266431Y0035915D01*
X0266526Y0036036D01*
X0266623Y0036156D01*
X0266723Y0036272D01*
X0266827Y0036386D01*
X0266933Y0036497D01*
X0267042Y0036606D01*
X0267154Y0036711D01*
X0267269Y0036814D01*
X0267386Y0036914D01*
X0267506Y0037010D01*
X0267628Y0037104D01*
X0267752Y0037194D01*
X0267879Y0037281D01*
X0268008Y0037365D01*
X0268140Y0037445D01*
X0268273Y0037522D01*
X0268408Y0037595D01*
X0268545Y0037665D01*
X0268684Y0037732D01*
X0268824Y0037794D01*
X0268966Y0037853D01*
X0269110Y0037909D01*
X0269255Y0037961D01*
X0269401Y0038008D01*
X0269548Y0038053D01*
X0269697Y0038093D01*
X0269846Y0038129D01*
X0269997Y0038162D01*
X0270148Y0038191D01*
X0270300Y0038215D01*
X0270452Y0038236D01*
X0270605Y0038253D01*
X0270758Y0038266D01*
X0270912Y0038275D01*
X0271066Y0038280D01*
X0271219Y0038281D01*
X0271373Y0038278D01*
X0271527Y0038271D01*
X0271680Y0038260D01*
X0271834Y0038245D01*
X0271986Y0038226D01*
X0272138Y0038203D01*
X0272290Y0038177D01*
X0272441Y0038146D01*
X0272591Y0038112D01*
X0272740Y0038073D01*
X0272887Y0038031D01*
X0273034Y0037985D01*
X0273180Y0037935D01*
X0273324Y0037882D01*
X0273467Y0037824D01*
X0273608Y0037763D01*
X0273748Y0037699D01*
X0273886Y0037631D01*
X0274022Y0037559D01*
X0274156Y0037484D01*
X0274288Y0037405D01*
X0274418Y0037323D01*
X0274546Y0037238D01*
X0274672Y0037149D01*
X0274795Y0037057D01*
X0274916Y0036962D01*
X0275035Y0036864D01*
X0275151Y0036763D01*
X0275264Y0036659D01*
X0275375Y0036552D01*
X0275482Y0036442D01*
X0275587Y0036329D01*
X0275689Y0036214D01*
X0275788Y0036096D01*
X0275884Y0035976D01*
X0275977Y0035853D01*
X0276066Y0035728D01*
X0276152Y0035601D01*
X0276235Y0035471D01*
X0276315Y0035339D01*
X0276391Y0035206D01*
X0276463Y0035070D01*
X0276532Y0034932D01*
X0276598Y0034793D01*
X0276660Y0034652D01*
X0276718Y0034510D01*
X0276772Y0034366D01*
X0276823Y0034221D01*
X0276870Y0034074D01*
X0276913Y0033927D01*
X0276952Y0033778D01*
X0276988Y0033628D01*
X0277019Y0033478D01*
X0277047Y0033326D01*
X0277071Y0033174D01*
X0277091Y0033022D01*
X0277107Y0032869D01*
X0277119Y0032715D01*
X0277127Y0032562D01*
X0277131Y0032408D01*
X0277131Y0032254D01*
X0277127Y0032100D01*
X0277119Y0031947D01*
X0277107Y0031793D01*
X0277091Y0031640D01*
X0277071Y0031488D01*
X0277047Y0031336D01*
X0277019Y0031184D01*
X0276988Y0031034D01*
X0276952Y0030884D01*
X0276913Y0030735D01*
X0276870Y0030588D01*
X0276823Y0030441D01*
X0276772Y0030296D01*
X0276718Y0030152D01*
X0276660Y0030010D01*
X0276598Y0029869D01*
X0276532Y0029730D01*
X0276463Y0029592D01*
X0276391Y0029456D01*
X0276315Y0029323D01*
X0276235Y0029191D01*
X0276152Y0029061D01*
X0276066Y0028934D01*
X0275977Y0028809D01*
X0275884Y0028686D01*
X0275788Y0028566D01*
X0275689Y0028448D01*
X0275587Y0028333D01*
X0275482Y0028220D01*
X0275375Y0028110D01*
X0275264Y0028003D01*
X0275151Y0027899D01*
X0275035Y0027798D01*
X0274916Y0027700D01*
X0274795Y0027605D01*
X0274672Y0027513D01*
X0274546Y0027424D01*
X0274418Y0027339D01*
X0274288Y0027257D01*
X0274156Y0027178D01*
X0274022Y0027103D01*
X0273886Y0027031D01*
X0273748Y0026963D01*
X0273608Y0026899D01*
X0273467Y0026838D01*
X0273324Y0026780D01*
X0273180Y0026727D01*
X0273034Y0026677D01*
X0272887Y0026631D01*
X0272740Y0026589D01*
X0272591Y0026550D01*
X0272441Y0026516D01*
X0272290Y0026485D01*
X0272138Y0026459D01*
X0271986Y0026436D01*
X0271834Y0026417D01*
X0271680Y0026402D01*
X0271527Y0026391D01*
X0271373Y0026384D01*
X0271219Y0026381D01*
X0271066Y0026382D01*
X0270912Y0026387D01*
X0270758Y0026396D01*
X0270605Y0026409D01*
X0270452Y0026426D01*
X0270300Y0026447D01*
X0270148Y0026471D01*
X0269997Y0026500D01*
X0269846Y0026533D01*
X0269697Y0026569D01*
X0269548Y0026609D01*
X0269401Y0026654D01*
X0269255Y0026701D01*
X0269110Y0026753D01*
X0268966Y0026809D01*
X0268824Y0026868D01*
X0268684Y0026930D01*
X0268545Y0026997D01*
X0268408Y0027067D01*
X0268273Y0027140D01*
X0268140Y0027217D01*
X0268008Y0027297D01*
X0267879Y0027381D01*
X0267752Y0027468D01*
X0267628Y0027558D01*
X0267506Y0027652D01*
X0267386Y0027748D01*
X0267269Y0027848D01*
X0267154Y0027951D01*
X0267042Y0028056D01*
X0266933Y0028165D01*
X0266827Y0028276D01*
X0266723Y0028390D01*
X0266623Y0028506D01*
X0266526Y0028626D01*
X0266431Y0028747D01*
X0266340Y0028871D01*
X0266253Y0028997D01*
X0266168Y0029126D01*
X0266087Y0029257D01*
X0266009Y0029389D01*
X0265935Y0029524D01*
X0265864Y0029661D01*
X0265797Y0029799D01*
X0265733Y0029939D01*
X0265673Y0030081D01*
X0265617Y0030224D01*
X0265564Y0030368D01*
X0265515Y0030514D01*
X0265470Y0030661D01*
X0265429Y0030810D01*
X0265391Y0030959D01*
X0265358Y0031109D01*
X0265328Y0031260D01*
X0265302Y0031412D01*
X0265281Y0031564D01*
X0265263Y0031717D01*
X0265249Y0031870D01*
X0265239Y0032023D01*
X0265233Y0032177D01*
X0265231Y0032331D01*
X0265181Y0032331D02*
X0265183Y0032178D01*
X0265189Y0032025D01*
X0265199Y0031872D01*
X0265212Y0031719D01*
X0265230Y0031567D01*
X0265251Y0031415D01*
X0265277Y0031264D01*
X0265306Y0031114D01*
X0265339Y0030964D01*
X0265376Y0030815D01*
X0265416Y0030667D01*
X0265461Y0030521D01*
X0265509Y0030375D01*
X0265561Y0030231D01*
X0265616Y0030088D01*
X0265675Y0029947D01*
X0265738Y0029807D01*
X0265804Y0029669D01*
X0265874Y0029532D01*
X0265947Y0029398D01*
X0266024Y0029265D01*
X0266104Y0029134D01*
X0266187Y0029006D01*
X0266273Y0028879D01*
X0266363Y0028755D01*
X0266456Y0028633D01*
X0266552Y0028514D01*
X0266651Y0028397D01*
X0266753Y0028282D01*
X0266858Y0028170D01*
X0266966Y0028061D01*
X0267076Y0027955D01*
X0267189Y0027852D01*
X0267305Y0027751D01*
X0267423Y0027654D01*
X0267544Y0027559D01*
X0267667Y0027468D01*
X0267792Y0027380D01*
X0267920Y0027295D01*
X0268049Y0027213D01*
X0268181Y0027135D01*
X0268315Y0027060D01*
X0268450Y0026988D01*
X0268588Y0026920D01*
X0268727Y0026856D01*
X0268867Y0026795D01*
X0269009Y0026738D01*
X0269153Y0026684D01*
X0269298Y0026634D01*
X0269444Y0026588D01*
X0269591Y0026545D01*
X0269739Y0026507D01*
X0269889Y0026472D01*
X0270039Y0026441D01*
X0270189Y0026413D01*
X0270341Y0026390D01*
X0270493Y0026371D01*
X0270645Y0026355D01*
X0270798Y0026343D01*
X0270951Y0026335D01*
X0271104Y0026331D01*
X0271258Y0026331D01*
X0271411Y0026335D01*
X0271564Y0026343D01*
X0271717Y0026355D01*
X0271869Y0026371D01*
X0272021Y0026390D01*
X0272173Y0026413D01*
X0272323Y0026441D01*
X0272473Y0026472D01*
X0272623Y0026507D01*
X0272771Y0026545D01*
X0272918Y0026588D01*
X0273064Y0026634D01*
X0273209Y0026684D01*
X0273353Y0026738D01*
X0273495Y0026795D01*
X0273635Y0026856D01*
X0273774Y0026920D01*
X0273912Y0026988D01*
X0274047Y0027060D01*
X0274181Y0027135D01*
X0274313Y0027213D01*
X0274442Y0027295D01*
X0274570Y0027380D01*
X0274695Y0027468D01*
X0274818Y0027559D01*
X0274939Y0027654D01*
X0275057Y0027751D01*
X0275173Y0027852D01*
X0275286Y0027955D01*
X0275396Y0028061D01*
X0275504Y0028170D01*
X0275609Y0028282D01*
X0275711Y0028397D01*
X0275810Y0028514D01*
X0275906Y0028633D01*
X0275999Y0028755D01*
X0276089Y0028879D01*
X0276175Y0029006D01*
X0276258Y0029134D01*
X0276338Y0029265D01*
X0276415Y0029398D01*
X0276488Y0029532D01*
X0276558Y0029669D01*
X0276624Y0029807D01*
X0276687Y0029947D01*
X0276746Y0030088D01*
X0276801Y0030231D01*
X0276853Y0030375D01*
X0276901Y0030521D01*
X0276946Y0030667D01*
X0276986Y0030815D01*
X0277023Y0030964D01*
X0277056Y0031114D01*
X0277085Y0031264D01*
X0277111Y0031415D01*
X0277132Y0031567D01*
X0277150Y0031719D01*
X0277163Y0031872D01*
X0277173Y0032025D01*
X0277179Y0032178D01*
X0277181Y0032331D01*
X0320134Y0026394D02*
X0320136Y0026552D01*
X0320142Y0026710D01*
X0320152Y0026868D01*
X0320166Y0027026D01*
X0320184Y0027183D01*
X0320205Y0027340D01*
X0320231Y0027496D01*
X0320261Y0027652D01*
X0320294Y0027807D01*
X0320332Y0027960D01*
X0320373Y0028113D01*
X0320418Y0028265D01*
X0320467Y0028416D01*
X0320520Y0028565D01*
X0320576Y0028713D01*
X0320636Y0028859D01*
X0320700Y0029004D01*
X0320768Y0029147D01*
X0320839Y0029289D01*
X0320913Y0029429D01*
X0320991Y0029566D01*
X0321073Y0029702D01*
X0321157Y0029836D01*
X0321246Y0029967D01*
X0321337Y0030096D01*
X0321432Y0030223D01*
X0321529Y0030348D01*
X0321630Y0030470D01*
X0321734Y0030589D01*
X0321841Y0030706D01*
X0321951Y0030820D01*
X0322064Y0030931D01*
X0322179Y0031040D01*
X0322297Y0031145D01*
X0322418Y0031247D01*
X0322541Y0031347D01*
X0322667Y0031443D01*
X0322795Y0031536D01*
X0322925Y0031626D01*
X0323058Y0031712D01*
X0323193Y0031796D01*
X0323329Y0031875D01*
X0323468Y0031952D01*
X0323609Y0032024D01*
X0323751Y0032094D01*
X0323895Y0032159D01*
X0324041Y0032221D01*
X0324188Y0032279D01*
X0324337Y0032334D01*
X0324487Y0032385D01*
X0324638Y0032432D01*
X0324790Y0032475D01*
X0324943Y0032514D01*
X0325098Y0032550D01*
X0325253Y0032581D01*
X0325409Y0032609D01*
X0325565Y0032633D01*
X0325722Y0032653D01*
X0325880Y0032669D01*
X0326037Y0032681D01*
X0326196Y0032689D01*
X0326354Y0032693D01*
X0326512Y0032693D01*
X0326670Y0032689D01*
X0326829Y0032681D01*
X0326986Y0032669D01*
X0327144Y0032653D01*
X0327301Y0032633D01*
X0327457Y0032609D01*
X0327613Y0032581D01*
X0327768Y0032550D01*
X0327923Y0032514D01*
X0328076Y0032475D01*
X0328228Y0032432D01*
X0328379Y0032385D01*
X0328529Y0032334D01*
X0328678Y0032279D01*
X0328825Y0032221D01*
X0328971Y0032159D01*
X0329115Y0032094D01*
X0329257Y0032024D01*
X0329398Y0031952D01*
X0329537Y0031875D01*
X0329673Y0031796D01*
X0329808Y0031712D01*
X0329941Y0031626D01*
X0330071Y0031536D01*
X0330199Y0031443D01*
X0330325Y0031347D01*
X0330448Y0031247D01*
X0330569Y0031145D01*
X0330687Y0031040D01*
X0330802Y0030931D01*
X0330915Y0030820D01*
X0331025Y0030706D01*
X0331132Y0030589D01*
X0331236Y0030470D01*
X0331337Y0030348D01*
X0331434Y0030223D01*
X0331529Y0030096D01*
X0331620Y0029967D01*
X0331709Y0029836D01*
X0331793Y0029702D01*
X0331875Y0029566D01*
X0331953Y0029429D01*
X0332027Y0029289D01*
X0332098Y0029147D01*
X0332166Y0029004D01*
X0332230Y0028859D01*
X0332290Y0028713D01*
X0332346Y0028565D01*
X0332399Y0028416D01*
X0332448Y0028265D01*
X0332493Y0028113D01*
X0332534Y0027960D01*
X0332572Y0027807D01*
X0332605Y0027652D01*
X0332635Y0027496D01*
X0332661Y0027340D01*
X0332682Y0027183D01*
X0332700Y0027026D01*
X0332714Y0026868D01*
X0332724Y0026710D01*
X0332730Y0026552D01*
X0332732Y0026394D01*
X0332730Y0026236D01*
X0332724Y0026078D01*
X0332714Y0025920D01*
X0332700Y0025762D01*
X0332682Y0025605D01*
X0332661Y0025448D01*
X0332635Y0025292D01*
X0332605Y0025136D01*
X0332572Y0024981D01*
X0332534Y0024828D01*
X0332493Y0024675D01*
X0332448Y0024523D01*
X0332399Y0024372D01*
X0332346Y0024223D01*
X0332290Y0024075D01*
X0332230Y0023929D01*
X0332166Y0023784D01*
X0332098Y0023641D01*
X0332027Y0023499D01*
X0331953Y0023359D01*
X0331875Y0023222D01*
X0331793Y0023086D01*
X0331709Y0022952D01*
X0331620Y0022821D01*
X0331529Y0022692D01*
X0331434Y0022565D01*
X0331337Y0022440D01*
X0331236Y0022318D01*
X0331132Y0022199D01*
X0331025Y0022082D01*
X0330915Y0021968D01*
X0330802Y0021857D01*
X0330687Y0021748D01*
X0330569Y0021643D01*
X0330448Y0021541D01*
X0330325Y0021441D01*
X0330199Y0021345D01*
X0330071Y0021252D01*
X0329941Y0021162D01*
X0329808Y0021076D01*
X0329673Y0020992D01*
X0329537Y0020913D01*
X0329398Y0020836D01*
X0329257Y0020764D01*
X0329115Y0020694D01*
X0328971Y0020629D01*
X0328825Y0020567D01*
X0328678Y0020509D01*
X0328529Y0020454D01*
X0328379Y0020403D01*
X0328228Y0020356D01*
X0328076Y0020313D01*
X0327923Y0020274D01*
X0327768Y0020238D01*
X0327613Y0020207D01*
X0327457Y0020179D01*
X0327301Y0020155D01*
X0327144Y0020135D01*
X0326986Y0020119D01*
X0326829Y0020107D01*
X0326670Y0020099D01*
X0326512Y0020095D01*
X0326354Y0020095D01*
X0326196Y0020099D01*
X0326037Y0020107D01*
X0325880Y0020119D01*
X0325722Y0020135D01*
X0325565Y0020155D01*
X0325409Y0020179D01*
X0325253Y0020207D01*
X0325098Y0020238D01*
X0324943Y0020274D01*
X0324790Y0020313D01*
X0324638Y0020356D01*
X0324487Y0020403D01*
X0324337Y0020454D01*
X0324188Y0020509D01*
X0324041Y0020567D01*
X0323895Y0020629D01*
X0323751Y0020694D01*
X0323609Y0020764D01*
X0323468Y0020836D01*
X0323329Y0020913D01*
X0323193Y0020992D01*
X0323058Y0021076D01*
X0322925Y0021162D01*
X0322795Y0021252D01*
X0322667Y0021345D01*
X0322541Y0021441D01*
X0322418Y0021541D01*
X0322297Y0021643D01*
X0322179Y0021748D01*
X0322064Y0021857D01*
X0321951Y0021968D01*
X0321841Y0022082D01*
X0321734Y0022199D01*
X0321630Y0022318D01*
X0321529Y0022440D01*
X0321432Y0022565D01*
X0321337Y0022692D01*
X0321246Y0022821D01*
X0321157Y0022952D01*
X0321073Y0023086D01*
X0320991Y0023222D01*
X0320913Y0023359D01*
X0320839Y0023499D01*
X0320768Y0023641D01*
X0320700Y0023784D01*
X0320636Y0023929D01*
X0320576Y0024075D01*
X0320520Y0024223D01*
X0320467Y0024372D01*
X0320418Y0024523D01*
X0320373Y0024675D01*
X0320332Y0024828D01*
X0320294Y0024981D01*
X0320261Y0025136D01*
X0320231Y0025292D01*
X0320205Y0025448D01*
X0320184Y0025605D01*
X0320166Y0025762D01*
X0320152Y0025920D01*
X0320142Y0026078D01*
X0320136Y0026236D01*
X0320134Y0026394D01*
X0319071Y0251709D02*
X0319073Y0251867D01*
X0319079Y0252025D01*
X0319089Y0252183D01*
X0319103Y0252341D01*
X0319121Y0252498D01*
X0319142Y0252655D01*
X0319168Y0252811D01*
X0319198Y0252967D01*
X0319231Y0253122D01*
X0319269Y0253275D01*
X0319310Y0253428D01*
X0319355Y0253580D01*
X0319404Y0253731D01*
X0319457Y0253880D01*
X0319513Y0254028D01*
X0319573Y0254174D01*
X0319637Y0254319D01*
X0319705Y0254462D01*
X0319776Y0254604D01*
X0319850Y0254744D01*
X0319928Y0254881D01*
X0320010Y0255017D01*
X0320094Y0255151D01*
X0320183Y0255282D01*
X0320274Y0255411D01*
X0320369Y0255538D01*
X0320466Y0255663D01*
X0320567Y0255785D01*
X0320671Y0255904D01*
X0320778Y0256021D01*
X0320888Y0256135D01*
X0321001Y0256246D01*
X0321116Y0256355D01*
X0321234Y0256460D01*
X0321355Y0256562D01*
X0321478Y0256662D01*
X0321604Y0256758D01*
X0321732Y0256851D01*
X0321862Y0256941D01*
X0321995Y0257027D01*
X0322130Y0257111D01*
X0322266Y0257190D01*
X0322405Y0257267D01*
X0322546Y0257339D01*
X0322688Y0257409D01*
X0322832Y0257474D01*
X0322978Y0257536D01*
X0323125Y0257594D01*
X0323274Y0257649D01*
X0323424Y0257700D01*
X0323575Y0257747D01*
X0323727Y0257790D01*
X0323880Y0257829D01*
X0324035Y0257865D01*
X0324190Y0257896D01*
X0324346Y0257924D01*
X0324502Y0257948D01*
X0324659Y0257968D01*
X0324817Y0257984D01*
X0324974Y0257996D01*
X0325133Y0258004D01*
X0325291Y0258008D01*
X0325449Y0258008D01*
X0325607Y0258004D01*
X0325766Y0257996D01*
X0325923Y0257984D01*
X0326081Y0257968D01*
X0326238Y0257948D01*
X0326394Y0257924D01*
X0326550Y0257896D01*
X0326705Y0257865D01*
X0326860Y0257829D01*
X0327013Y0257790D01*
X0327165Y0257747D01*
X0327316Y0257700D01*
X0327466Y0257649D01*
X0327615Y0257594D01*
X0327762Y0257536D01*
X0327908Y0257474D01*
X0328052Y0257409D01*
X0328194Y0257339D01*
X0328335Y0257267D01*
X0328474Y0257190D01*
X0328610Y0257111D01*
X0328745Y0257027D01*
X0328878Y0256941D01*
X0329008Y0256851D01*
X0329136Y0256758D01*
X0329262Y0256662D01*
X0329385Y0256562D01*
X0329506Y0256460D01*
X0329624Y0256355D01*
X0329739Y0256246D01*
X0329852Y0256135D01*
X0329962Y0256021D01*
X0330069Y0255904D01*
X0330173Y0255785D01*
X0330274Y0255663D01*
X0330371Y0255538D01*
X0330466Y0255411D01*
X0330557Y0255282D01*
X0330646Y0255151D01*
X0330730Y0255017D01*
X0330812Y0254881D01*
X0330890Y0254744D01*
X0330964Y0254604D01*
X0331035Y0254462D01*
X0331103Y0254319D01*
X0331167Y0254174D01*
X0331227Y0254028D01*
X0331283Y0253880D01*
X0331336Y0253731D01*
X0331385Y0253580D01*
X0331430Y0253428D01*
X0331471Y0253275D01*
X0331509Y0253122D01*
X0331542Y0252967D01*
X0331572Y0252811D01*
X0331598Y0252655D01*
X0331619Y0252498D01*
X0331637Y0252341D01*
X0331651Y0252183D01*
X0331661Y0252025D01*
X0331667Y0251867D01*
X0331669Y0251709D01*
X0331667Y0251551D01*
X0331661Y0251393D01*
X0331651Y0251235D01*
X0331637Y0251077D01*
X0331619Y0250920D01*
X0331598Y0250763D01*
X0331572Y0250607D01*
X0331542Y0250451D01*
X0331509Y0250296D01*
X0331471Y0250143D01*
X0331430Y0249990D01*
X0331385Y0249838D01*
X0331336Y0249687D01*
X0331283Y0249538D01*
X0331227Y0249390D01*
X0331167Y0249244D01*
X0331103Y0249099D01*
X0331035Y0248956D01*
X0330964Y0248814D01*
X0330890Y0248674D01*
X0330812Y0248537D01*
X0330730Y0248401D01*
X0330646Y0248267D01*
X0330557Y0248136D01*
X0330466Y0248007D01*
X0330371Y0247880D01*
X0330274Y0247755D01*
X0330173Y0247633D01*
X0330069Y0247514D01*
X0329962Y0247397D01*
X0329852Y0247283D01*
X0329739Y0247172D01*
X0329624Y0247063D01*
X0329506Y0246958D01*
X0329385Y0246856D01*
X0329262Y0246756D01*
X0329136Y0246660D01*
X0329008Y0246567D01*
X0328878Y0246477D01*
X0328745Y0246391D01*
X0328610Y0246307D01*
X0328474Y0246228D01*
X0328335Y0246151D01*
X0328194Y0246079D01*
X0328052Y0246009D01*
X0327908Y0245944D01*
X0327762Y0245882D01*
X0327615Y0245824D01*
X0327466Y0245769D01*
X0327316Y0245718D01*
X0327165Y0245671D01*
X0327013Y0245628D01*
X0326860Y0245589D01*
X0326705Y0245553D01*
X0326550Y0245522D01*
X0326394Y0245494D01*
X0326238Y0245470D01*
X0326081Y0245450D01*
X0325923Y0245434D01*
X0325766Y0245422D01*
X0325607Y0245414D01*
X0325449Y0245410D01*
X0325291Y0245410D01*
X0325133Y0245414D01*
X0324974Y0245422D01*
X0324817Y0245434D01*
X0324659Y0245450D01*
X0324502Y0245470D01*
X0324346Y0245494D01*
X0324190Y0245522D01*
X0324035Y0245553D01*
X0323880Y0245589D01*
X0323727Y0245628D01*
X0323575Y0245671D01*
X0323424Y0245718D01*
X0323274Y0245769D01*
X0323125Y0245824D01*
X0322978Y0245882D01*
X0322832Y0245944D01*
X0322688Y0246009D01*
X0322546Y0246079D01*
X0322405Y0246151D01*
X0322266Y0246228D01*
X0322130Y0246307D01*
X0321995Y0246391D01*
X0321862Y0246477D01*
X0321732Y0246567D01*
X0321604Y0246660D01*
X0321478Y0246756D01*
X0321355Y0246856D01*
X0321234Y0246958D01*
X0321116Y0247063D01*
X0321001Y0247172D01*
X0320888Y0247283D01*
X0320778Y0247397D01*
X0320671Y0247514D01*
X0320567Y0247633D01*
X0320466Y0247755D01*
X0320369Y0247880D01*
X0320274Y0248007D01*
X0320183Y0248136D01*
X0320094Y0248267D01*
X0320010Y0248401D01*
X0319928Y0248537D01*
X0319850Y0248674D01*
X0319776Y0248814D01*
X0319705Y0248956D01*
X0319637Y0249099D01*
X0319573Y0249244D01*
X0319513Y0249390D01*
X0319457Y0249538D01*
X0319404Y0249687D01*
X0319355Y0249838D01*
X0319310Y0249990D01*
X0319269Y0250143D01*
X0319231Y0250296D01*
X0319198Y0250451D01*
X0319168Y0250607D01*
X0319142Y0250763D01*
X0319121Y0250920D01*
X0319103Y0251077D01*
X0319089Y0251235D01*
X0319079Y0251393D01*
X0319073Y0251551D01*
X0319071Y0251709D01*
D11*
X0308884Y0253562D02*
X0308884Y0258767D01*
X0308884Y0256164D02*
X0305414Y0256164D01*
X0303727Y0254430D02*
X0302860Y0253562D01*
X0301125Y0253562D01*
X0300258Y0254430D01*
X0300258Y0257899D01*
X0301125Y0258767D01*
X0302860Y0258767D01*
X0303727Y0257899D01*
X0305414Y0258767D02*
X0305414Y0253562D01*
X0296836Y0253562D02*
X0296836Y0258767D01*
X0295101Y0258767D02*
X0298571Y0258767D01*
X0293399Y0258767D02*
X0291664Y0258767D01*
X0292531Y0258767D02*
X0292531Y0253562D01*
X0291664Y0253562D02*
X0293399Y0253562D01*
X0289977Y0253562D02*
X0289977Y0258767D01*
X0286507Y0258767D02*
X0286507Y0253562D01*
X0288242Y0255297D01*
X0289977Y0253562D01*
X0284821Y0254430D02*
X0283953Y0253562D01*
X0282218Y0253562D01*
X0281351Y0254430D01*
X0282218Y0256164D02*
X0281351Y0257032D01*
X0281351Y0257899D01*
X0282218Y0258767D01*
X0283953Y0258767D01*
X0284821Y0257899D01*
X0283953Y0256164D02*
X0284821Y0255297D01*
X0284821Y0254430D01*
X0283953Y0256164D02*
X0282218Y0256164D01*
X0274508Y0258767D02*
X0271038Y0258767D01*
X0272773Y0258767D02*
X0272773Y0253562D01*
X0269351Y0253562D02*
X0267617Y0255297D01*
X0268484Y0255297D02*
X0265882Y0255297D01*
X0265882Y0253562D02*
X0265882Y0258767D01*
X0268484Y0258767D01*
X0269351Y0257899D01*
X0269351Y0256164D01*
X0268484Y0255297D01*
X0264195Y0256164D02*
X0260725Y0256164D01*
X0260725Y0257032D02*
X0262460Y0258767D01*
X0264195Y0257032D01*
X0264195Y0253562D01*
X0260725Y0253562D02*
X0260725Y0257032D01*
X0259039Y0257899D02*
X0258171Y0258767D01*
X0256436Y0258767D01*
X0255569Y0257899D01*
X0255569Y0254430D01*
X0256436Y0253562D01*
X0258171Y0253562D01*
X0259039Y0254430D01*
X0253882Y0254430D02*
X0253015Y0253562D01*
X0251280Y0253562D01*
X0250413Y0254430D01*
X0251280Y0256164D02*
X0250413Y0257032D01*
X0250413Y0257899D01*
X0251280Y0258767D01*
X0253015Y0258767D01*
X0253882Y0257899D01*
X0253015Y0256164D02*
X0253882Y0255297D01*
X0253882Y0254430D01*
X0253015Y0256164D02*
X0251280Y0256164D01*
X0270098Y0014072D02*
X0272400Y0014072D01*
X0273167Y0013304D01*
X0273167Y0011770D01*
X0272400Y0011002D01*
X0270098Y0011002D01*
X0271632Y0011002D02*
X0273167Y0009468D01*
X0274702Y0010235D02*
X0275469Y0009468D01*
X0277004Y0009468D01*
X0277771Y0010235D01*
X0277771Y0011770D01*
X0276236Y0011770D01*
X0274702Y0013304D02*
X0274702Y0010235D01*
X0274702Y0013304D02*
X0275469Y0014072D01*
X0277004Y0014072D01*
X0277771Y0013304D01*
X0279305Y0014072D02*
X0279305Y0009468D01*
X0281607Y0009468D01*
X0282375Y0010235D01*
X0282375Y0011002D01*
X0281607Y0011770D01*
X0279305Y0011770D01*
X0279305Y0014072D02*
X0281607Y0014072D01*
X0282375Y0013304D01*
X0282375Y0012537D01*
X0281607Y0011770D01*
X0283909Y0012537D02*
X0284677Y0011770D01*
X0286211Y0011770D01*
X0286979Y0011002D01*
X0286979Y0010235D01*
X0286211Y0009468D01*
X0284677Y0009468D01*
X0283909Y0010235D01*
X0283909Y0012537D02*
X0283909Y0013304D01*
X0284677Y0014072D01*
X0286211Y0014072D01*
X0286979Y0013304D01*
X0288513Y0009468D02*
X0291583Y0014072D01*
X0293117Y0014072D02*
X0295419Y0014072D01*
X0296187Y0013304D01*
X0296187Y0011770D01*
X0295419Y0011002D01*
X0293117Y0011002D01*
X0293117Y0009468D02*
X0293117Y0014072D01*
X0297721Y0013304D02*
X0297721Y0010235D01*
X0298488Y0009468D01*
X0300023Y0009468D01*
X0300790Y0010235D01*
X0300790Y0011770D01*
X0299256Y0011770D01*
X0300790Y0013304D02*
X0300023Y0014072D01*
X0298488Y0014072D01*
X0297721Y0013304D01*
X0294652Y0011002D02*
X0296187Y0009468D01*
X0302325Y0009468D02*
X0304627Y0009468D01*
X0305394Y0010235D01*
X0304627Y0011002D01*
X0303092Y0011002D01*
X0302325Y0011770D01*
X0303092Y0012537D01*
X0305394Y0012537D01*
X0306929Y0011770D02*
X0309231Y0011770D01*
X0309998Y0011002D01*
X0309998Y0010235D01*
X0309231Y0009468D01*
X0306929Y0009468D01*
X0306929Y0014072D01*
X0309231Y0014072D01*
X0309998Y0013304D01*
X0309998Y0012537D01*
X0309231Y0011770D01*
X0316137Y0013304D02*
X0316137Y0010235D01*
X0316904Y0009468D01*
X0318439Y0009468D01*
X0319206Y0010235D01*
X0319206Y0013304D01*
X0318439Y0014072D01*
X0316904Y0014072D01*
X0316137Y0013304D01*
X0320741Y0014072D02*
X0320741Y0009468D01*
X0323810Y0009468D02*
X0323810Y0014072D01*
X0325345Y0014072D02*
X0325345Y0009468D01*
X0328414Y0009468D01*
X0331483Y0009468D02*
X0331483Y0011770D01*
X0333018Y0013304D01*
X0333018Y0014072D01*
X0331483Y0011770D02*
X0329949Y0013304D01*
X0329949Y0014072D01*
X0323810Y0009468D02*
X0320741Y0014072D01*
X0270098Y0014072D02*
X0270098Y0009468D01*
D12*
X0259686Y0244671D02*
X0260170Y0245154D01*
X0260170Y0247573D01*
X0260170Y0248541D02*
X0260170Y0249024D01*
X0261650Y0249024D02*
X0261650Y0248541D01*
X0261650Y0247573D02*
X0261166Y0247573D01*
X0261650Y0247573D02*
X0261650Y0245638D01*
X0261166Y0245638D02*
X0262134Y0245638D01*
X0259686Y0244671D02*
X0259202Y0244671D01*
X0258191Y0245638D02*
X0258191Y0247089D01*
X0257707Y0247573D01*
X0256256Y0247573D01*
X0256256Y0245638D01*
X0255244Y0246606D02*
X0253309Y0246606D01*
X0253309Y0247089D02*
X0253793Y0247573D01*
X0254760Y0247573D01*
X0255244Y0247089D01*
X0255244Y0246606D01*
X0254760Y0245638D02*
X0253793Y0245638D01*
X0253309Y0246122D01*
X0253309Y0247089D01*
X0252298Y0245638D02*
X0250846Y0247089D01*
X0250363Y0246606D02*
X0252298Y0248541D01*
X0250363Y0248541D02*
X0250363Y0245638D01*
X0266077Y0247089D02*
X0268012Y0247089D01*
X0271970Y0248057D02*
X0272454Y0248541D01*
X0273422Y0248541D01*
X0273905Y0248057D01*
X0273905Y0247573D01*
X0271970Y0245638D01*
X0273905Y0245638D01*
X0274917Y0246122D02*
X0276852Y0248057D01*
X0276852Y0246122D01*
X0276368Y0245638D01*
X0275401Y0245638D01*
X0274917Y0246122D01*
X0274917Y0248057D01*
X0275401Y0248541D01*
X0276368Y0248541D01*
X0276852Y0248057D01*
X0277863Y0247573D02*
X0278831Y0248541D01*
X0278831Y0245638D01*
X0279798Y0245638D02*
X0277863Y0245638D01*
X0280810Y0246122D02*
X0280810Y0246606D01*
X0281294Y0247089D01*
X0282261Y0247089D01*
X0282745Y0246606D01*
X0282745Y0246122D01*
X0282261Y0245638D01*
X0281294Y0245638D01*
X0280810Y0246122D01*
X0281294Y0247089D02*
X0280810Y0247573D01*
X0280810Y0248057D01*
X0281294Y0248541D01*
X0282261Y0248541D01*
X0282745Y0248057D01*
X0282745Y0247573D01*
X0282261Y0247089D01*
D13*
X0254307Y0200528D03*
X0214307Y0200528D03*
X0197260Y0200528D03*
X0157260Y0200528D03*
X0138402Y0200528D03*
X0098402Y0200528D03*
D14*
X0077181Y0250720D02*
X0077181Y0256320D01*
X0067181Y0256320D02*
X0067181Y0250720D01*
X0057181Y0250720D02*
X0057181Y0256320D01*
X0047181Y0256320D02*
X0047181Y0250720D01*
X0016044Y0195331D02*
X0010444Y0195331D01*
X0010444Y0185331D02*
X0016044Y0185331D01*
X0016044Y0175331D02*
X0010444Y0175331D01*
X0010444Y0165331D02*
X0016044Y0165331D01*
X0016044Y0150331D02*
X0010444Y0150331D01*
X0010444Y0140331D02*
X0016044Y0140331D01*
X0016044Y0130331D02*
X0010444Y0130331D01*
X0327570Y0130331D02*
X0333170Y0130331D01*
X0333170Y0140331D02*
X0327570Y0140331D01*
X0327570Y0150331D02*
X0333170Y0150331D01*
X0333170Y0165331D02*
X0327570Y0165331D01*
X0327570Y0175331D02*
X0333170Y0175331D01*
X0333170Y0185331D02*
X0327570Y0185331D01*
X0327570Y0195331D02*
X0333170Y0195331D01*
D15*
X0252622Y0178835D02*
X0246622Y0178835D01*
X0222622Y0178835D02*
X0216622Y0178835D01*
X0195496Y0178835D02*
X0189496Y0178835D01*
X0165496Y0178835D02*
X0159496Y0178835D01*
X0140181Y0178835D02*
X0134181Y0178835D01*
X0110181Y0178835D02*
X0104181Y0178835D01*
X0104181Y0148835D02*
X0110181Y0148835D01*
X0134181Y0148835D02*
X0140181Y0148835D01*
X0159496Y0148835D02*
X0165496Y0148835D01*
X0189496Y0148835D02*
X0195496Y0148835D01*
X0216622Y0148835D02*
X0222622Y0148835D01*
X0246622Y0148835D02*
X0252622Y0148835D01*
X0252622Y0128835D02*
X0246622Y0128835D01*
X0246622Y0108835D02*
X0252622Y0108835D01*
X0222622Y0108835D02*
X0216622Y0108835D01*
X0195496Y0108835D02*
X0189496Y0108835D01*
X0189496Y0128835D02*
X0195496Y0128835D01*
X0216622Y0128835D02*
X0222622Y0128835D01*
X0165496Y0128835D02*
X0159496Y0128835D01*
X0140181Y0128835D02*
X0134181Y0128835D01*
X0134181Y0108835D02*
X0140181Y0108835D01*
X0159496Y0108835D02*
X0165496Y0108835D01*
X0110181Y0108835D02*
X0104181Y0108835D01*
X0104181Y0128835D02*
X0110181Y0128835D01*
D16*
X0086118Y0199898D03*
X0056118Y0199898D03*
X0146551Y0257457D03*
X0156551Y0257457D03*
X0179425Y0257457D03*
X0189425Y0257457D03*
X0308008Y0098362D03*
X0318008Y0098362D03*
X0262496Y0085331D03*
X0262496Y0075331D03*
D17*
X0280170Y0075331D02*
X0285370Y0075331D01*
X0285370Y0085331D02*
X0280170Y0085331D01*
X0280170Y0065331D02*
X0285370Y0065331D01*
X0315370Y0065331D02*
X0320570Y0065331D01*
X0320570Y0075331D02*
X0315370Y0075331D01*
X0315370Y0085331D02*
X0320570Y0085331D01*
D18*
X0082181Y0176598D02*
X0082181Y0183198D01*
X0072181Y0183198D02*
X0072181Y0176598D01*
X0062181Y0176598D02*
X0062181Y0183198D01*
D19*
X0057181Y0046331D02*
X0057181Y0032331D01*
X0069181Y0032331D02*
X0069181Y0046331D01*
X0265181Y0046331D02*
X0265181Y0032331D01*
X0277181Y0032331D02*
X0277181Y0046331D01*
D20*
X0242181Y0061431D02*
X0242181Y0069231D01*
X0227181Y0069231D02*
X0227181Y0061431D01*
X0219681Y0049231D02*
X0219681Y0041431D01*
X0204681Y0041431D02*
X0204681Y0049231D01*
X0189681Y0049231D02*
X0189681Y0041431D01*
X0174681Y0041431D02*
X0174681Y0049231D01*
X0159681Y0049231D02*
X0159681Y0041431D01*
X0144681Y0041431D02*
X0144681Y0049231D01*
X0137181Y0061431D02*
X0137181Y0069231D01*
X0122181Y0069231D02*
X0122181Y0061431D01*
X0107181Y0061431D02*
X0107181Y0069231D01*
X0092181Y0069231D02*
X0092181Y0061431D01*
X0099681Y0049231D02*
X0099681Y0041431D01*
X0114681Y0041431D02*
X0114681Y0049231D01*
X0129681Y0049231D02*
X0129681Y0041431D01*
X0152181Y0061431D02*
X0152181Y0069231D01*
X0167181Y0069231D02*
X0167181Y0061431D01*
X0182181Y0061431D02*
X0182181Y0069231D01*
X0197181Y0069231D02*
X0197181Y0061431D01*
X0212181Y0061431D02*
X0212181Y0069231D01*
X0234681Y0049231D02*
X0234681Y0041431D01*
D21*
X0234681Y0045331D02*
X0234981Y0045531D01*
X0249381Y0059931D01*
X0249381Y0108531D01*
X0249622Y0108835D01*
X0249622Y0128835D02*
X0249381Y0128931D01*
X0244581Y0133731D01*
X0214581Y0133731D01*
X0204381Y0123531D01*
X0102381Y0123531D01*
X0095781Y0130131D01*
X0013581Y0130131D01*
X0013244Y0130331D01*
X0030981Y0122931D02*
X0098781Y0122931D01*
X0101181Y0120531D01*
X0211581Y0120531D01*
X0219381Y0128331D01*
X0219622Y0128835D01*
X0228981Y0143931D02*
X0141981Y0143931D01*
X0137181Y0148731D01*
X0137181Y0148835D01*
X0107181Y0128931D02*
X0107181Y0128835D01*
X0107181Y0128931D02*
X0102381Y0128931D01*
X0036381Y0194931D01*
X0013581Y0194931D01*
X0013244Y0195331D01*
X0107181Y0108835D02*
X0107181Y0077331D01*
X0099981Y0070131D01*
X0099981Y0045531D01*
X0099681Y0045331D01*
X0137181Y0065331D02*
X0137181Y0108835D01*
X0162496Y0108835D02*
X0162981Y0108531D01*
X0162981Y0069531D01*
X0167181Y0065331D01*
X0192981Y0069531D02*
X0197181Y0065331D01*
X0192981Y0069531D02*
X0192981Y0108531D01*
X0192496Y0108835D01*
X0219381Y0108531D02*
X0219622Y0108835D01*
X0219381Y0108531D02*
X0219381Y0084531D01*
X0204981Y0070131D01*
X0204981Y0045531D01*
X0204681Y0045331D01*
X0267981Y0130731D02*
X0249981Y0148731D01*
X0249622Y0148835D01*
X0234981Y0154131D02*
X0197781Y0154131D01*
X0192981Y0149331D01*
X0192496Y0148835D01*
X0228981Y0143931D02*
X0249981Y0164931D01*
X0329781Y0164931D01*
X0330370Y0165331D01*
X0330370Y0185331D02*
X0266181Y0185331D01*
X0234981Y0154131D01*
X0267981Y0130731D02*
X0329781Y0130731D01*
X0330370Y0130331D01*
D22*
X0326695Y0134731D02*
X0325078Y0134061D01*
X0324332Y0133315D01*
X0269052Y0133315D01*
X0256330Y0146037D01*
X0256522Y0146229D01*
X0257222Y0147920D01*
X0257222Y0149750D01*
X0256522Y0151440D01*
X0255228Y0152734D01*
X0253537Y0153435D01*
X0245707Y0153435D01*
X0244016Y0152734D01*
X0242722Y0151440D01*
X0242022Y0149750D01*
X0242022Y0147920D01*
X0242722Y0146229D01*
X0244016Y0144935D01*
X0245707Y0144235D01*
X0250822Y0144235D01*
X0266517Y0128540D01*
X0267467Y0128146D01*
X0323712Y0128146D01*
X0323840Y0127838D01*
X0325078Y0126601D01*
X0326695Y0125931D01*
X0334045Y0125931D01*
X0335662Y0126601D01*
X0336900Y0127838D01*
X0337570Y0129455D01*
X0337570Y0131206D01*
X0336900Y0132823D01*
X0335662Y0134061D01*
X0334045Y0134731D01*
X0326695Y0134731D01*
X0326695Y0135931D02*
X0325078Y0136601D01*
X0323840Y0137838D01*
X0323170Y0139455D01*
X0323170Y0141206D01*
X0323840Y0142823D01*
X0325078Y0144061D01*
X0326695Y0144731D01*
X0334045Y0144731D01*
X0335662Y0144061D01*
X0336900Y0142823D01*
X0337570Y0141206D01*
X0337570Y0139455D01*
X0336900Y0137838D01*
X0335662Y0136601D01*
X0334045Y0135931D01*
X0326695Y0135931D01*
X0325100Y0134070D02*
X0268296Y0134070D01*
X0266698Y0135669D02*
X0337617Y0135669D01*
X0337617Y0137267D02*
X0336329Y0137267D01*
X0337326Y0138866D02*
X0337617Y0138866D01*
X0337570Y0140464D02*
X0337617Y0140464D01*
X0337617Y0142063D02*
X0337215Y0142063D01*
X0337581Y0142731D02*
X0337581Y0086331D01*
X0316581Y0065331D01*
X0315370Y0065331D01*
X0315370Y0069731D01*
X0315024Y0069731D01*
X0314340Y0069622D01*
X0313681Y0069408D01*
X0313064Y0069094D01*
X0312504Y0068687D01*
X0312014Y0068197D01*
X0311607Y0067637D01*
X0311292Y0067020D01*
X0311078Y0066361D01*
X0310970Y0065677D01*
X0310970Y0065331D01*
X0315370Y0065331D01*
X0315370Y0065331D01*
X0315370Y0069731D01*
X0320916Y0069731D01*
X0321600Y0069622D01*
X0322259Y0069408D01*
X0322876Y0069094D01*
X0323436Y0068687D01*
X0323926Y0068197D01*
X0324333Y0067637D01*
X0324648Y0067020D01*
X0324862Y0066361D01*
X0324970Y0065677D01*
X0324970Y0065331D01*
X0315370Y0065331D01*
X0315370Y0065331D01*
X0301581Y0065331D01*
X0285981Y0080931D01*
X0266781Y0080931D01*
X0262581Y0085131D01*
X0262496Y0085331D01*
X0262496Y0089731D01*
X0260674Y0089731D01*
X0258096Y0087153D01*
X0258096Y0085331D01*
X0262496Y0085331D01*
X0262496Y0085331D01*
X0262496Y0089731D01*
X0264319Y0089731D01*
X0266896Y0087153D01*
X0266896Y0085331D01*
X0262496Y0085331D01*
X0262496Y0085331D01*
X0262496Y0085331D01*
X0258096Y0085331D01*
X0258096Y0083508D01*
X0260674Y0080931D01*
X0262496Y0080931D01*
X0264319Y0080931D01*
X0266896Y0083508D01*
X0266896Y0085331D01*
X0262496Y0085331D01*
X0262496Y0085331D01*
X0262496Y0080931D01*
X0262496Y0085331D01*
X0262496Y0086115D02*
X0262496Y0086115D01*
X0262496Y0087713D02*
X0262496Y0087713D01*
X0262496Y0089312D02*
X0262496Y0089312D01*
X0260255Y0089312D02*
X0251965Y0089312D01*
X0251965Y0090910D02*
X0308181Y0090910D01*
X0308181Y0091608D02*
X0308181Y0083453D01*
X0308546Y0082571D01*
X0309222Y0081896D01*
X0312381Y0078737D01*
X0312381Y0078281D01*
X0311809Y0077710D01*
X0311170Y0076166D01*
X0311170Y0074495D01*
X0311809Y0072952D01*
X0312991Y0071770D01*
X0314535Y0071131D01*
X0321406Y0071131D01*
X0322949Y0071770D01*
X0324131Y0072952D01*
X0324770Y0074495D01*
X0324770Y0076166D01*
X0324131Y0077710D01*
X0322949Y0078891D01*
X0321406Y0079531D01*
X0317181Y0079531D01*
X0317181Y0080208D01*
X0316816Y0081090D01*
X0316775Y0081131D01*
X0321406Y0081131D01*
X0322949Y0081770D01*
X0324131Y0082952D01*
X0324770Y0084495D01*
X0324770Y0086166D01*
X0324131Y0087710D01*
X0322949Y0088891D01*
X0321406Y0089531D01*
X0314535Y0089531D01*
X0312991Y0088891D01*
X0312981Y0088881D01*
X0312981Y0090137D01*
X0317007Y0094162D01*
X0319748Y0094162D01*
X0322208Y0096623D01*
X0322208Y0100102D01*
X0319748Y0102562D01*
X0316268Y0102562D01*
X0313808Y0100102D01*
X0313808Y0097752D01*
X0308546Y0092490D01*
X0308181Y0091608D01*
X0308565Y0092509D02*
X0251965Y0092509D01*
X0251965Y0094107D02*
X0310164Y0094107D01*
X0309748Y0094162D02*
X0312208Y0096623D01*
X0312208Y0100102D01*
X0309748Y0102562D01*
X0306268Y0102562D01*
X0303808Y0100102D01*
X0303808Y0096623D01*
X0306268Y0094162D01*
X0309748Y0094162D01*
X0311291Y0095706D02*
X0311762Y0095706D01*
X0312208Y0097304D02*
X0313361Y0097304D01*
X0313808Y0098903D02*
X0312208Y0098903D01*
X0311808Y0100501D02*
X0314207Y0100501D01*
X0315806Y0102100D02*
X0310210Y0102100D01*
X0305806Y0102100D02*
X0251965Y0102100D01*
X0251965Y0103698D02*
X0337617Y0103698D01*
X0337617Y0102100D02*
X0320210Y0102100D01*
X0321808Y0100501D02*
X0337617Y0100501D01*
X0337617Y0098903D02*
X0322208Y0098903D01*
X0322208Y0097304D02*
X0337617Y0097304D01*
X0337617Y0095706D02*
X0321291Y0095706D01*
X0318008Y0098362D02*
X0317781Y0098331D01*
X0310581Y0091131D01*
X0310581Y0083931D01*
X0314781Y0079731D01*
X0314781Y0075531D01*
X0315370Y0075331D01*
X0312222Y0078122D02*
X0288518Y0078122D01*
X0288931Y0077710D02*
X0287749Y0078891D01*
X0286206Y0079531D01*
X0279335Y0079531D01*
X0277791Y0078891D01*
X0276830Y0077931D01*
X0265836Y0077931D01*
X0264236Y0079531D01*
X0260756Y0079531D01*
X0258296Y0077070D01*
X0258296Y0073591D01*
X0260756Y0071131D01*
X0264236Y0071131D01*
X0266236Y0073131D01*
X0276535Y0073131D01*
X0276609Y0072952D01*
X0277791Y0071770D01*
X0279335Y0071131D01*
X0286206Y0071131D01*
X0287749Y0071770D01*
X0288931Y0072952D01*
X0289570Y0074495D01*
X0289570Y0076166D01*
X0288931Y0077710D01*
X0289422Y0076524D02*
X0311318Y0076524D01*
X0311170Y0074925D02*
X0289570Y0074925D01*
X0289086Y0073327D02*
X0311654Y0073327D01*
X0313092Y0071728D02*
X0287648Y0071728D01*
X0286206Y0069531D02*
X0279335Y0069531D01*
X0277791Y0068891D01*
X0276609Y0067710D01*
X0275970Y0066166D01*
X0275970Y0064495D01*
X0276609Y0062952D01*
X0277791Y0061770D01*
X0279335Y0061131D01*
X0286206Y0061131D01*
X0287749Y0061770D01*
X0288931Y0062952D01*
X0289570Y0064495D01*
X0289570Y0066166D01*
X0288931Y0067710D01*
X0287749Y0068891D01*
X0286206Y0069531D01*
X0288109Y0068531D02*
X0312348Y0068531D01*
X0311264Y0066933D02*
X0289253Y0066933D01*
X0289570Y0065334D02*
X0310970Y0065334D01*
X0310970Y0065331D02*
X0310970Y0064984D01*
X0311078Y0064300D01*
X0311292Y0063642D01*
X0311607Y0063025D01*
X0312014Y0062464D01*
X0312504Y0061975D01*
X0313064Y0061567D01*
X0313681Y0061253D01*
X0314340Y0061039D01*
X0315024Y0060931D01*
X0315370Y0060931D01*
X0315370Y0065331D01*
X0315370Y0065331D01*
X0310970Y0065331D01*
X0311262Y0063736D02*
X0289255Y0063736D01*
X0288116Y0062137D02*
X0312341Y0062137D01*
X0315370Y0062137D02*
X0315370Y0062137D01*
X0315370Y0060931D02*
X0320916Y0060931D01*
X0321600Y0061039D01*
X0322259Y0061253D01*
X0322876Y0061567D01*
X0323436Y0061975D01*
X0323926Y0062464D01*
X0324333Y0063025D01*
X0324648Y0063642D01*
X0324862Y0064300D01*
X0324970Y0064984D01*
X0324970Y0065331D01*
X0315370Y0065331D01*
X0315370Y0065331D01*
X0315370Y0060931D01*
X0315370Y0063736D02*
X0315370Y0063736D01*
X0315370Y0065334D02*
X0315370Y0065334D01*
X0315370Y0066933D02*
X0315370Y0066933D01*
X0315370Y0068531D02*
X0315370Y0068531D01*
X0322848Y0071728D02*
X0337617Y0071728D01*
X0337617Y0070130D02*
X0251965Y0070130D01*
X0251965Y0071728D02*
X0260159Y0071728D01*
X0258560Y0073327D02*
X0251965Y0073327D01*
X0251965Y0074925D02*
X0258296Y0074925D01*
X0258296Y0076524D02*
X0251965Y0076524D01*
X0251965Y0078122D02*
X0259348Y0078122D01*
X0260285Y0081319D02*
X0251965Y0081319D01*
X0251965Y0079721D02*
X0311397Y0079721D01*
X0309798Y0081319D02*
X0286661Y0081319D01*
X0286206Y0081131D02*
X0287749Y0081770D01*
X0288931Y0082952D01*
X0289570Y0084495D01*
X0289570Y0086166D01*
X0288931Y0087710D01*
X0287749Y0088891D01*
X0286206Y0089531D01*
X0279335Y0089531D01*
X0277791Y0088891D01*
X0276609Y0087710D01*
X0275970Y0086166D01*
X0275970Y0084495D01*
X0276609Y0082952D01*
X0277791Y0081770D01*
X0279335Y0081131D01*
X0286206Y0081131D01*
X0288897Y0082918D02*
X0308403Y0082918D01*
X0308181Y0084516D02*
X0289570Y0084516D01*
X0289570Y0086115D02*
X0308181Y0086115D01*
X0308181Y0087713D02*
X0288927Y0087713D01*
X0286734Y0089312D02*
X0308181Y0089312D01*
X0312981Y0089312D02*
X0314006Y0089312D01*
X0313755Y0090910D02*
X0337617Y0090910D01*
X0337617Y0089312D02*
X0321934Y0089312D01*
X0324127Y0087713D02*
X0337617Y0087713D01*
X0337617Y0086115D02*
X0324770Y0086115D01*
X0324770Y0084516D02*
X0337617Y0084516D01*
X0337617Y0082918D02*
X0324097Y0082918D01*
X0321861Y0081319D02*
X0337617Y0081319D01*
X0337617Y0079721D02*
X0317181Y0079721D01*
X0323718Y0078122D02*
X0337617Y0078122D01*
X0337617Y0076524D02*
X0324622Y0076524D01*
X0324770Y0074925D02*
X0337617Y0074925D01*
X0337617Y0073327D02*
X0324286Y0073327D01*
X0323592Y0068531D02*
X0337617Y0068531D01*
X0337617Y0066933D02*
X0324676Y0066933D01*
X0324970Y0065334D02*
X0337617Y0065334D01*
X0337617Y0063736D02*
X0324678Y0063736D01*
X0323599Y0062137D02*
X0337617Y0062137D01*
X0337617Y0060539D02*
X0251965Y0060539D01*
X0251965Y0059417D02*
X0251965Y0104235D01*
X0253537Y0104235D01*
X0255228Y0104935D01*
X0256522Y0106229D01*
X0257222Y0107920D01*
X0257222Y0109750D01*
X0256522Y0111440D01*
X0255228Y0112734D01*
X0253537Y0113435D01*
X0245707Y0113435D01*
X0244016Y0112734D01*
X0242722Y0111440D01*
X0242022Y0109750D01*
X0242022Y0107920D01*
X0242722Y0106229D01*
X0244016Y0104935D01*
X0245707Y0104235D01*
X0246797Y0104235D01*
X0246797Y0072393D01*
X0245297Y0073893D01*
X0243275Y0074731D01*
X0241087Y0074731D01*
X0239066Y0073893D01*
X0237518Y0072346D01*
X0236681Y0070325D01*
X0236681Y0060337D01*
X0237518Y0058315D01*
X0239066Y0056768D01*
X0241087Y0055931D01*
X0241726Y0055931D01*
X0238743Y0052947D01*
X0237797Y0053893D01*
X0235775Y0054731D01*
X0233587Y0054731D01*
X0231566Y0053893D01*
X0230018Y0052346D01*
X0229181Y0050325D01*
X0229181Y0040337D01*
X0230018Y0038315D01*
X0231566Y0036768D01*
X0233587Y0035931D01*
X0235775Y0035931D01*
X0237797Y0036768D01*
X0239344Y0038315D01*
X0240181Y0040337D01*
X0240181Y0047076D01*
X0251572Y0058467D01*
X0251965Y0059417D01*
X0251768Y0058940D02*
X0337617Y0058940D01*
X0337617Y0057342D02*
X0250447Y0057342D01*
X0248848Y0055743D02*
X0265884Y0055743D01*
X0267430Y0056636D02*
X0264132Y0054732D01*
X0262842Y0053195D01*
X0262579Y0052931D01*
X0262486Y0052770D01*
X0261684Y0051814D01*
X0261257Y0050642D01*
X0261164Y0050480D01*
X0261067Y0050121D01*
X0260381Y0048235D01*
X0260381Y0047298D01*
X0260376Y0047286D01*
X0260376Y0031375D01*
X0260381Y0031364D01*
X0260381Y0030426D01*
X0261067Y0028541D01*
X0261164Y0028181D01*
X0261257Y0028020D01*
X0261684Y0026847D01*
X0262486Y0025892D01*
X0262579Y0025730D01*
X0262842Y0025467D01*
X0264132Y0023930D01*
X0267430Y0022025D01*
X0267430Y0022025D01*
X0269406Y0021677D01*
X0269766Y0021581D01*
X0269953Y0021581D01*
X0271181Y0021364D01*
X0271181Y0021364D01*
X0272410Y0021581D01*
X0272596Y0021581D01*
X0272956Y0021677D01*
X0274932Y0022025D01*
X0278230Y0023930D01*
X0279520Y0025467D01*
X0279783Y0025730D01*
X0279877Y0025892D01*
X0280678Y0026847D01*
X0280678Y0026847D01*
X0281105Y0028020D01*
X0281198Y0028181D01*
X0281295Y0028541D01*
X0281981Y0030426D01*
X0281981Y0031364D01*
X0281986Y0031375D01*
X0281986Y0047286D01*
X0281981Y0047298D01*
X0281981Y0048235D01*
X0281295Y0050121D01*
X0281198Y0050480D01*
X0281105Y0050642D01*
X0280678Y0051814D01*
X0279877Y0052770D01*
X0279783Y0052931D01*
X0279520Y0053195D01*
X0278230Y0054732D01*
X0274932Y0056636D01*
X0272956Y0056984D01*
X0272596Y0057081D01*
X0272410Y0057081D01*
X0271181Y0057297D01*
X0269953Y0057081D01*
X0269766Y0057081D01*
X0269406Y0056984D01*
X0267430Y0056636D01*
X0267430Y0056636D01*
X0264132Y0054732D02*
X0264132Y0054732D01*
X0263639Y0054145D02*
X0247250Y0054145D01*
X0245651Y0052546D02*
X0262298Y0052546D01*
X0261684Y0051814D02*
X0261684Y0051814D01*
X0261368Y0050948D02*
X0244053Y0050948D01*
X0242454Y0049349D02*
X0260787Y0049349D01*
X0260381Y0047751D02*
X0240856Y0047751D01*
X0240181Y0046152D02*
X0260376Y0046152D01*
X0260376Y0044554D02*
X0240181Y0044554D01*
X0240181Y0042955D02*
X0260376Y0042955D01*
X0260376Y0041356D02*
X0240181Y0041356D01*
X0239941Y0039758D02*
X0260376Y0039758D01*
X0260376Y0038159D02*
X0239188Y0038159D01*
X0237297Y0036561D02*
X0260376Y0036561D01*
X0260376Y0034962D02*
X0073986Y0034962D01*
X0073986Y0033364D02*
X0260376Y0033364D01*
X0260376Y0031765D02*
X0073986Y0031765D01*
X0073986Y0031375D02*
X0073986Y0047286D01*
X0073981Y0047298D01*
X0073981Y0048235D01*
X0073295Y0050121D01*
X0073198Y0050480D01*
X0073105Y0050642D01*
X0072678Y0051814D01*
X0071877Y0052770D01*
X0071783Y0052931D01*
X0071520Y0053195D01*
X0070230Y0054732D01*
X0066932Y0056636D01*
X0066932Y0056636D01*
X0064956Y0056984D01*
X0064596Y0057081D01*
X0064410Y0057081D01*
X0063181Y0057297D01*
X0061953Y0057081D01*
X0061766Y0057081D01*
X0061406Y0056984D01*
X0059430Y0056636D01*
X0056132Y0054732D01*
X0054842Y0053195D01*
X0054579Y0052931D01*
X0054486Y0052770D01*
X0053684Y0051814D01*
X0053257Y0050642D01*
X0053164Y0050480D01*
X0053067Y0050121D01*
X0052381Y0048235D01*
X0052381Y0047298D01*
X0052376Y0047286D01*
X0052376Y0031375D01*
X0052381Y0031364D01*
X0052381Y0030426D01*
X0053067Y0028541D01*
X0053164Y0028181D01*
X0053257Y0028020D01*
X0053684Y0026847D01*
X0054486Y0025892D01*
X0054579Y0025730D01*
X0054842Y0025467D01*
X0056132Y0023930D01*
X0059430Y0022025D01*
X0059430Y0022025D01*
X0061406Y0021677D01*
X0061766Y0021581D01*
X0061953Y0021581D01*
X0063181Y0021364D01*
X0063181Y0021364D01*
X0064410Y0021581D01*
X0064596Y0021581D01*
X0064956Y0021677D01*
X0066932Y0022025D01*
X0070230Y0023930D01*
X0071520Y0025467D01*
X0071783Y0025730D01*
X0071877Y0025892D01*
X0072678Y0026847D01*
X0072678Y0026847D01*
X0073105Y0028020D01*
X0073198Y0028181D01*
X0073295Y0028541D01*
X0073981Y0030426D01*
X0073981Y0031364D01*
X0073986Y0031375D01*
X0073887Y0030167D02*
X0260476Y0030167D01*
X0261057Y0028568D02*
X0073305Y0028568D01*
X0072723Y0026970D02*
X0261639Y0026970D01*
X0261684Y0026847D02*
X0261684Y0026847D01*
X0262922Y0025371D02*
X0071440Y0025371D01*
X0070230Y0023930D02*
X0070230Y0023930D01*
X0069958Y0023773D02*
X0264404Y0023773D01*
X0264132Y0023930D02*
X0264132Y0023930D01*
X0264132Y0023930D01*
X0267172Y0022174D02*
X0067190Y0022174D01*
X0066932Y0022025D02*
X0066932Y0022025D01*
X0059172Y0022174D02*
X0032826Y0022174D01*
X0032524Y0021047D02*
X0033280Y0023869D01*
X0033280Y0026792D01*
X0032524Y0029615D01*
X0031063Y0032146D01*
X0028996Y0034212D01*
X0026465Y0035674D01*
X0023642Y0036430D01*
X0020720Y0036430D01*
X0017897Y0035674D01*
X0015366Y0034212D01*
X0013300Y0032146D01*
X0011838Y0029615D01*
X0011082Y0026792D01*
X0011082Y0023869D01*
X0011838Y0021047D01*
X0013300Y0018516D01*
X0015366Y0016449D01*
X0017897Y0014988D01*
X0020720Y0014231D01*
X0023642Y0014231D01*
X0026465Y0014988D01*
X0028996Y0016449D01*
X0031063Y0018516D01*
X0032524Y0021047D01*
X0032252Y0020576D02*
X0316976Y0020576D01*
X0317551Y0019579D02*
X0319618Y0017512D01*
X0322149Y0016051D01*
X0323012Y0015820D01*
X0322275Y0015083D01*
X0322140Y0015218D01*
X0321825Y0015690D01*
X0321628Y0015730D01*
X0321486Y0015872D01*
X0320919Y0015872D01*
X0320363Y0015983D01*
X0320196Y0015872D01*
X0319995Y0015872D01*
X0319594Y0015470D01*
X0319589Y0015467D01*
X0319184Y0015872D01*
X0316159Y0015872D01*
X0315543Y0015256D01*
X0315104Y0014817D01*
X0314953Y0014666D01*
X0314337Y0014050D01*
X0314337Y0009489D01*
X0315104Y0008722D01*
X0316159Y0007668D01*
X0319184Y0007668D01*
X0319590Y0008073D01*
X0319995Y0007668D01*
X0321486Y0007668D01*
X0322275Y0008457D01*
X0322411Y0008321D01*
X0322726Y0007849D01*
X0322923Y0007810D01*
X0323064Y0007668D01*
X0323632Y0007668D01*
X0324188Y0007556D01*
X0324355Y0007668D01*
X0324556Y0007668D01*
X0324577Y0007689D01*
X0324599Y0007668D01*
X0329160Y0007668D01*
X0329949Y0008457D01*
X0330738Y0007668D01*
X0332229Y0007668D01*
X0333283Y0008722D01*
X0333283Y0011024D01*
X0333764Y0011504D01*
X0334818Y0012559D01*
X0334818Y0014817D01*
X0333764Y0015872D01*
X0332272Y0015872D01*
X0331483Y0015083D01*
X0330694Y0015872D01*
X0330048Y0015872D01*
X0330717Y0016051D01*
X0333248Y0017512D01*
X0335315Y0019579D01*
X0336776Y0022110D01*
X0337532Y0024932D01*
X0337532Y0027855D01*
X0336776Y0030678D01*
X0335315Y0033209D01*
X0333248Y0035275D01*
X0330717Y0036737D01*
X0327894Y0037493D01*
X0324972Y0037493D01*
X0322149Y0036737D01*
X0319618Y0035275D01*
X0317551Y0033209D01*
X0316090Y0030678D01*
X0315334Y0027855D01*
X0315334Y0024932D01*
X0316090Y0022110D01*
X0317551Y0019579D01*
X0318153Y0018977D02*
X0031329Y0018977D01*
X0029926Y0017379D02*
X0319849Y0017379D01*
X0319904Y0015780D02*
X0319276Y0015780D01*
X0321578Y0015780D02*
X0322973Y0015780D01*
X0316067Y0015780D02*
X0310068Y0015780D01*
X0309977Y0015872D02*
X0306183Y0015872D01*
X0305129Y0014817D01*
X0305129Y0014337D01*
X0302347Y0014337D01*
X0302325Y0014315D01*
X0301823Y0014817D01*
X0300769Y0015872D01*
X0297743Y0015872D01*
X0297127Y0015256D01*
X0296954Y0015083D01*
X0296932Y0015104D01*
X0296165Y0015872D01*
X0292372Y0015872D01*
X0292274Y0015774D01*
X0291961Y0015983D01*
X0290498Y0015690D01*
X0288779Y0013111D01*
X0288779Y0014050D01*
X0288011Y0014817D01*
X0286957Y0015872D01*
X0283931Y0015872D01*
X0283315Y0015256D01*
X0283142Y0015083D01*
X0282353Y0015872D01*
X0278560Y0015872D01*
X0278154Y0015466D01*
X0277749Y0015872D01*
X0274723Y0015872D01*
X0274107Y0015256D01*
X0273934Y0015083D01*
X0273913Y0015104D01*
X0273145Y0015872D01*
X0269352Y0015872D01*
X0268298Y0014817D01*
X0268298Y0008722D01*
X0269352Y0007668D01*
X0270843Y0007668D01*
X0271632Y0008457D01*
X0272421Y0007668D01*
X0273913Y0007668D01*
X0274318Y0008073D01*
X0274723Y0007668D01*
X0277749Y0007668D01*
X0278154Y0008073D01*
X0278560Y0007668D01*
X0282353Y0007668D01*
X0282969Y0008284D01*
X0283120Y0008435D01*
X0283120Y0008435D01*
X0283142Y0008457D01*
X0283931Y0007668D01*
X0286957Y0007668D01*
X0287362Y0008072D01*
X0288135Y0007556D01*
X0289597Y0007849D01*
X0291317Y0010429D01*
X0291317Y0008722D01*
X0292372Y0007668D01*
X0293863Y0007668D01*
X0294652Y0008457D01*
X0295441Y0007668D01*
X0296932Y0007668D01*
X0297338Y0008073D01*
X0297743Y0007668D01*
X0300769Y0007668D01*
X0301174Y0008073D01*
X0301580Y0007668D01*
X0305373Y0007668D01*
X0305778Y0008073D01*
X0306183Y0007668D01*
X0309977Y0007668D01*
X0310593Y0008284D01*
X0310744Y0008435D01*
X0311182Y0008873D01*
X0311798Y0009489D01*
X0311798Y0011748D01*
X0311777Y0011770D01*
X0311798Y0011791D01*
X0311798Y0014050D01*
X0310744Y0015104D01*
X0309977Y0015872D01*
X0311666Y0014182D02*
X0314469Y0014182D01*
X0315104Y0014817D02*
X0315104Y0014817D01*
X0314337Y0012583D02*
X0311798Y0012583D01*
X0311798Y0010985D02*
X0314337Y0010985D01*
X0314440Y0009386D02*
X0311695Y0009386D01*
X0310744Y0008435D02*
X0310744Y0008435D01*
X0310097Y0007788D02*
X0316039Y0007788D01*
X0319304Y0007788D02*
X0319875Y0007788D01*
X0321606Y0007788D02*
X0322944Y0007788D01*
X0329280Y0007788D02*
X0330618Y0007788D01*
X0332349Y0007788D02*
X0337617Y0007788D01*
X0337617Y0009386D02*
X0333283Y0009386D01*
X0333283Y0010985D02*
X0337617Y0010985D01*
X0337617Y0012583D02*
X0334818Y0012583D01*
X0334818Y0014182D02*
X0337617Y0014182D01*
X0337617Y0015780D02*
X0333855Y0015780D01*
X0332181Y0015780D02*
X0330786Y0015780D01*
X0333017Y0017379D02*
X0337617Y0017379D01*
X0337617Y0018977D02*
X0334713Y0018977D01*
X0335890Y0020576D02*
X0337617Y0020576D01*
X0337617Y0022174D02*
X0336793Y0022174D01*
X0337222Y0023773D02*
X0337617Y0023773D01*
X0337617Y0025371D02*
X0337532Y0025371D01*
X0337532Y0026970D02*
X0337617Y0026970D01*
X0337617Y0028568D02*
X0337341Y0028568D01*
X0337617Y0030167D02*
X0336913Y0030167D01*
X0337617Y0031765D02*
X0336148Y0031765D01*
X0335159Y0033364D02*
X0337617Y0033364D01*
X0337617Y0034962D02*
X0333561Y0034962D01*
X0331021Y0036561D02*
X0337617Y0036561D01*
X0337617Y0038159D02*
X0281986Y0038159D01*
X0281986Y0036561D02*
X0321845Y0036561D01*
X0319305Y0034962D02*
X0281986Y0034962D01*
X0281986Y0033364D02*
X0317707Y0033364D01*
X0316718Y0031765D02*
X0281986Y0031765D01*
X0281887Y0030167D02*
X0315953Y0030167D01*
X0315525Y0028568D02*
X0281305Y0028568D01*
X0280723Y0026970D02*
X0315334Y0026970D01*
X0315334Y0025371D02*
X0279440Y0025371D01*
X0278230Y0023930D02*
X0278230Y0023930D01*
X0277958Y0023773D02*
X0315645Y0023773D01*
X0316073Y0022174D02*
X0275190Y0022174D01*
X0274932Y0022025D02*
X0274932Y0022025D01*
X0274632Y0015780D02*
X0273237Y0015780D01*
X0269261Y0015780D02*
X0027838Y0015780D01*
X0033254Y0023773D02*
X0056404Y0023773D01*
X0056132Y0023930D02*
X0056132Y0023930D01*
X0056132Y0023930D01*
X0054922Y0025371D02*
X0033280Y0025371D01*
X0033233Y0026970D02*
X0053639Y0026970D01*
X0053684Y0026847D02*
X0053684Y0026847D01*
X0053057Y0028568D02*
X0032804Y0028568D01*
X0032205Y0030167D02*
X0052476Y0030167D01*
X0052376Y0031765D02*
X0031282Y0031765D01*
X0029845Y0033364D02*
X0052376Y0033364D01*
X0052376Y0034962D02*
X0027697Y0034962D01*
X0016665Y0034962D02*
X0005800Y0034962D01*
X0005800Y0033364D02*
X0014518Y0033364D01*
X0013080Y0031765D02*
X0005800Y0031765D01*
X0005800Y0030167D02*
X0012157Y0030167D01*
X0011558Y0028568D02*
X0005800Y0028568D01*
X0005800Y0026970D02*
X0011130Y0026970D01*
X0011082Y0025371D02*
X0005800Y0025371D01*
X0005800Y0023773D02*
X0011108Y0023773D01*
X0011536Y0022174D02*
X0005800Y0022174D01*
X0005800Y0020576D02*
X0012110Y0020576D01*
X0013033Y0018977D02*
X0005800Y0018977D01*
X0005800Y0017379D02*
X0014436Y0017379D01*
X0016524Y0015780D02*
X0005800Y0015780D01*
X0005800Y0014182D02*
X0268298Y0014182D01*
X0268298Y0012583D02*
X0005800Y0012583D01*
X0005800Y0010985D02*
X0268298Y0010985D01*
X0268298Y0009386D02*
X0005800Y0009386D01*
X0005800Y0007788D02*
X0269232Y0007788D01*
X0270963Y0007788D02*
X0272301Y0007788D01*
X0274033Y0007788D02*
X0274603Y0007788D01*
X0277869Y0007788D02*
X0278440Y0007788D01*
X0282473Y0007788D02*
X0283811Y0007788D01*
X0287077Y0007788D02*
X0287788Y0007788D01*
X0289292Y0007788D02*
X0292252Y0007788D01*
X0293983Y0007788D02*
X0295321Y0007788D01*
X0297052Y0007788D02*
X0297623Y0007788D01*
X0300889Y0007788D02*
X0301459Y0007788D01*
X0305493Y0007788D02*
X0306063Y0007788D01*
X0306092Y0015780D02*
X0300860Y0015780D01*
X0297652Y0015780D02*
X0296256Y0015780D01*
X0292280Y0015780D02*
X0292265Y0015780D01*
X0290948Y0015780D02*
X0287048Y0015780D01*
X0288647Y0014182D02*
X0289493Y0014182D01*
X0290622Y0009386D02*
X0291317Y0009386D01*
X0283840Y0015780D02*
X0282444Y0015780D01*
X0278469Y0015780D02*
X0277840Y0015780D01*
X0281986Y0039758D02*
X0337617Y0039758D01*
X0337617Y0041356D02*
X0281986Y0041356D01*
X0281986Y0042955D02*
X0337617Y0042955D01*
X0337617Y0044554D02*
X0281986Y0044554D01*
X0281986Y0046152D02*
X0337617Y0046152D01*
X0337617Y0047751D02*
X0281981Y0047751D01*
X0281981Y0048235D02*
X0281981Y0048235D01*
X0281576Y0049349D02*
X0337617Y0049349D01*
X0337617Y0050948D02*
X0280994Y0050948D01*
X0280678Y0051814D02*
X0280678Y0051814D01*
X0280064Y0052546D02*
X0337617Y0052546D01*
X0337617Y0054145D02*
X0278723Y0054145D01*
X0276478Y0055743D02*
X0337617Y0055743D01*
X0337617Y0092509D02*
X0315353Y0092509D01*
X0316952Y0094107D02*
X0337617Y0094107D01*
X0337617Y0105297D02*
X0255590Y0105297D01*
X0256798Y0106895D02*
X0337617Y0106895D01*
X0337617Y0108494D02*
X0257222Y0108494D01*
X0257080Y0110092D02*
X0337617Y0110092D01*
X0337617Y0111691D02*
X0256271Y0111691D01*
X0253887Y0113289D02*
X0337617Y0113289D01*
X0337617Y0114888D02*
X0082810Y0114888D01*
X0082711Y0115259D02*
X0081223Y0117836D01*
X0079119Y0119940D01*
X0078415Y0120346D01*
X0097711Y0120346D01*
X0098990Y0119067D01*
X0099717Y0118340D01*
X0100667Y0117946D01*
X0212095Y0117946D01*
X0213045Y0118340D01*
X0213772Y0119067D01*
X0218940Y0124235D01*
X0223537Y0124235D01*
X0225228Y0124935D01*
X0226522Y0126229D01*
X0227222Y0127920D01*
X0227222Y0129750D01*
X0226643Y0131146D01*
X0242601Y0131146D01*
X0242022Y0129750D01*
X0242022Y0127920D01*
X0242722Y0126229D01*
X0244016Y0124935D01*
X0245707Y0124235D01*
X0253537Y0124235D01*
X0255228Y0124935D01*
X0256522Y0126229D01*
X0257222Y0127920D01*
X0257222Y0129750D01*
X0256522Y0131440D01*
X0255228Y0132734D01*
X0253537Y0133435D01*
X0248532Y0133435D01*
X0246045Y0135922D01*
X0245095Y0136315D01*
X0214067Y0136315D01*
X0213117Y0135922D01*
X0212390Y0135195D01*
X0203311Y0126115D01*
X0199282Y0126115D01*
X0199396Y0126229D01*
X0200096Y0127920D01*
X0200096Y0129750D01*
X0199396Y0131440D01*
X0198102Y0132734D01*
X0196411Y0133435D01*
X0188581Y0133435D01*
X0186890Y0132734D01*
X0185596Y0131440D01*
X0184896Y0129750D01*
X0184896Y0127920D01*
X0185596Y0126229D01*
X0185710Y0126115D01*
X0169282Y0126115D01*
X0169396Y0126229D01*
X0170096Y0127920D01*
X0170096Y0129750D01*
X0169396Y0131440D01*
X0168102Y0132734D01*
X0166411Y0133435D01*
X0158581Y0133435D01*
X0156890Y0132734D01*
X0155596Y0131440D01*
X0154896Y0129750D01*
X0154896Y0127920D01*
X0155596Y0126229D01*
X0155710Y0126115D01*
X0143967Y0126115D01*
X0144081Y0126229D01*
X0144781Y0127920D01*
X0144781Y0129750D01*
X0144081Y0131440D01*
X0142787Y0132734D01*
X0141096Y0133435D01*
X0133266Y0133435D01*
X0131575Y0132734D01*
X0130281Y0131440D01*
X0129581Y0129750D01*
X0129581Y0127920D01*
X0130281Y0126229D01*
X0130395Y0126115D01*
X0113967Y0126115D01*
X0114081Y0126229D01*
X0114781Y0127920D01*
X0114781Y0129750D01*
X0114081Y0131440D01*
X0112787Y0132734D01*
X0111096Y0133435D01*
X0103266Y0133435D01*
X0102040Y0132927D01*
X0063348Y0171619D01*
X0063375Y0171623D01*
X0064139Y0171871D01*
X0064854Y0172236D01*
X0065504Y0172708D01*
X0066071Y0173275D01*
X0066543Y0173925D01*
X0066907Y0174640D01*
X0067156Y0175403D01*
X0067281Y0176196D01*
X0067281Y0179598D01*
X0062481Y0179598D01*
X0062481Y0180198D01*
X0061881Y0180198D01*
X0061881Y0188298D01*
X0061780Y0188298D01*
X0060987Y0188172D01*
X0060223Y0187924D01*
X0059508Y0187560D01*
X0058859Y0187088D01*
X0058291Y0186520D01*
X0057819Y0185871D01*
X0057455Y0185155D01*
X0057207Y0184392D01*
X0057081Y0183599D01*
X0057081Y0180198D01*
X0061881Y0180198D01*
X0061881Y0179598D01*
X0057081Y0179598D01*
X0057081Y0177885D01*
X0037845Y0197122D01*
X0036895Y0197515D01*
X0019902Y0197515D01*
X0019774Y0197823D01*
X0018536Y0199061D01*
X0016919Y0199731D01*
X0009569Y0199731D01*
X0007952Y0199061D01*
X0006714Y0197823D01*
X0006044Y0196206D01*
X0006044Y0194455D01*
X0006714Y0192838D01*
X0007952Y0191601D01*
X0009569Y0190931D01*
X0016919Y0190931D01*
X0018536Y0191601D01*
X0019282Y0192346D01*
X0035311Y0192346D01*
X0094942Y0132715D01*
X0019819Y0132715D01*
X0019774Y0132823D01*
X0018536Y0134061D01*
X0016919Y0134731D01*
X0009569Y0134731D01*
X0007952Y0134061D01*
X0006714Y0132823D01*
X0006044Y0131206D01*
X0006044Y0129455D01*
X0006714Y0127838D01*
X0007952Y0126601D01*
X0009569Y0125931D01*
X0016919Y0125931D01*
X0018536Y0126601D01*
X0019482Y0127546D01*
X0094711Y0127546D01*
X0096742Y0125515D01*
X0033488Y0125515D01*
X0033020Y0125983D01*
X0031697Y0126531D01*
X0030265Y0126531D01*
X0028942Y0125983D01*
X0027929Y0124970D01*
X0027381Y0123647D01*
X0027381Y0122215D01*
X0027929Y0120891D01*
X0028942Y0119879D01*
X0030265Y0119331D01*
X0031697Y0119331D01*
X0033020Y0119879D01*
X0033488Y0120346D01*
X0065947Y0120346D01*
X0065243Y0119940D01*
X0063139Y0117836D01*
X0061651Y0115259D01*
X0060881Y0112385D01*
X0060881Y0109410D01*
X0061651Y0106536D01*
X0063139Y0103959D01*
X0065243Y0101855D01*
X0067819Y0100368D01*
X0070693Y0099598D01*
X0073669Y0099598D01*
X0076543Y0100368D01*
X0079119Y0101855D01*
X0081223Y0103959D01*
X0082711Y0106536D01*
X0083481Y0109410D01*
X0083481Y0112385D01*
X0082711Y0115259D01*
X0082002Y0116487D02*
X0337617Y0116487D01*
X0337617Y0118085D02*
X0212430Y0118085D01*
X0213772Y0119067D02*
X0213772Y0119067D01*
X0214389Y0119684D02*
X0337617Y0119684D01*
X0337617Y0121282D02*
X0215987Y0121282D01*
X0217586Y0122881D02*
X0337617Y0122881D01*
X0337617Y0124479D02*
X0254127Y0124479D01*
X0256370Y0126078D02*
X0326340Y0126078D01*
X0324002Y0127676D02*
X0257121Y0127676D01*
X0257222Y0129275D02*
X0265783Y0129275D01*
X0264184Y0130873D02*
X0256757Y0130873D01*
X0255490Y0132472D02*
X0262585Y0132472D01*
X0260987Y0134070D02*
X0247896Y0134070D01*
X0246298Y0135669D02*
X0259388Y0135669D01*
X0257790Y0137267D02*
X0097699Y0137267D01*
X0096101Y0138866D02*
X0256191Y0138866D01*
X0254593Y0140464D02*
X0094502Y0140464D01*
X0092904Y0142063D02*
X0140194Y0142063D01*
X0140517Y0141740D02*
X0141467Y0141346D01*
X0229495Y0141346D01*
X0230445Y0141740D01*
X0231172Y0142467D01*
X0251052Y0162346D01*
X0324332Y0162346D01*
X0325078Y0161601D01*
X0326695Y0160931D01*
X0334045Y0160931D01*
X0335662Y0161601D01*
X0336900Y0162838D01*
X0337570Y0164455D01*
X0337570Y0166206D01*
X0336900Y0167823D01*
X0335662Y0169061D01*
X0334045Y0169731D01*
X0326695Y0169731D01*
X0325078Y0169061D01*
X0323840Y0167823D01*
X0323712Y0167515D01*
X0252020Y0167515D01*
X0267252Y0182746D01*
X0323932Y0182746D01*
X0325078Y0181601D01*
X0326695Y0180931D01*
X0334045Y0180931D01*
X0335662Y0181601D01*
X0336900Y0182838D01*
X0337570Y0184455D01*
X0337570Y0186206D01*
X0336900Y0187823D01*
X0335662Y0189061D01*
X0334045Y0189731D01*
X0326695Y0189731D01*
X0325078Y0189061D01*
X0323932Y0187915D01*
X0265667Y0187915D01*
X0264717Y0187522D01*
X0257141Y0179945D01*
X0256522Y0181440D01*
X0255228Y0182734D01*
X0253537Y0183435D01*
X0252381Y0183435D01*
X0252381Y0195137D01*
X0253007Y0195762D01*
X0253332Y0195628D01*
X0255282Y0195628D01*
X0257083Y0196374D01*
X0258461Y0197752D01*
X0259207Y0199553D01*
X0259207Y0201502D01*
X0258461Y0203303D01*
X0257083Y0204682D01*
X0255282Y0205428D01*
X0253332Y0205428D01*
X0251531Y0204682D01*
X0250153Y0203303D01*
X0249407Y0201502D01*
X0249407Y0199553D01*
X0249583Y0199127D01*
X0248987Y0198531D01*
X0226975Y0198531D01*
X0218416Y0207090D01*
X0217741Y0207765D01*
X0216858Y0208131D01*
X0202104Y0208131D01*
X0201222Y0207765D01*
X0198694Y0205237D01*
X0198235Y0205428D01*
X0196285Y0205428D01*
X0196139Y0205367D01*
X0192381Y0209125D01*
X0192381Y0254473D01*
X0193625Y0255717D01*
X0193625Y0259196D01*
X0191165Y0261657D01*
X0187685Y0261657D01*
X0185225Y0259196D01*
X0185225Y0255717D01*
X0187581Y0253361D01*
X0187581Y0207653D01*
X0187946Y0206771D01*
X0192610Y0202107D01*
X0192360Y0201502D01*
X0192360Y0199553D01*
X0192726Y0198669D01*
X0190946Y0196890D01*
X0190581Y0196008D01*
X0190581Y0183435D01*
X0188581Y0183435D01*
X0186890Y0182734D01*
X0185596Y0181440D01*
X0184896Y0179750D01*
X0184896Y0177920D01*
X0185554Y0176331D01*
X0169438Y0176331D01*
X0170096Y0177920D01*
X0170096Y0179750D01*
X0169396Y0181440D01*
X0168102Y0182734D01*
X0166411Y0183435D01*
X0161671Y0183435D01*
X0159981Y0185125D01*
X0159981Y0196351D01*
X0160035Y0196374D01*
X0161414Y0197752D01*
X0162160Y0199553D01*
X0162160Y0201502D01*
X0161414Y0203303D01*
X0160035Y0204682D01*
X0158235Y0205428D01*
X0156285Y0205428D01*
X0155998Y0205308D01*
X0149181Y0212125D01*
X0149181Y0254147D01*
X0150751Y0255717D01*
X0150751Y0259196D01*
X0148291Y0261657D01*
X0144811Y0261657D01*
X0142351Y0259196D01*
X0142351Y0255717D01*
X0144381Y0253687D01*
X0144381Y0213531D01*
X0141504Y0213531D01*
X0140622Y0213165D01*
X0139946Y0212490D01*
X0121787Y0194331D01*
X0108175Y0194331D01*
X0103199Y0199306D01*
X0103302Y0199553D01*
X0103302Y0201502D01*
X0102556Y0203303D01*
X0101177Y0204682D01*
X0099376Y0205428D01*
X0097427Y0205428D01*
X0095626Y0204682D01*
X0094248Y0203303D01*
X0093502Y0201502D01*
X0093502Y0199553D01*
X0094248Y0197752D01*
X0095626Y0196374D01*
X0097427Y0195628D01*
X0099376Y0195628D01*
X0099881Y0195837D01*
X0104781Y0190937D01*
X0104781Y0183435D01*
X0103266Y0183435D01*
X0101575Y0182734D01*
X0100281Y0181440D01*
X0099581Y0179750D01*
X0099581Y0177920D01*
X0100281Y0176229D01*
X0101575Y0174935D01*
X0103266Y0174235D01*
X0111096Y0174235D01*
X0112787Y0174935D01*
X0114081Y0176229D01*
X0114781Y0177920D01*
X0114781Y0179750D01*
X0114081Y0181440D01*
X0112787Y0182734D01*
X0111096Y0183435D01*
X0109581Y0183435D01*
X0109581Y0189531D01*
X0123258Y0189531D01*
X0124141Y0189896D01*
X0133588Y0199344D01*
X0134248Y0197752D01*
X0134781Y0197218D01*
X0134781Y0183435D01*
X0133266Y0183435D01*
X0131575Y0182734D01*
X0130281Y0181440D01*
X0129581Y0179750D01*
X0129581Y0177920D01*
X0130281Y0176229D01*
X0130483Y0176027D01*
X0128387Y0173931D01*
X0086380Y0173931D01*
X0087081Y0175623D01*
X0087081Y0181037D01*
X0087616Y0181571D01*
X0087981Y0182453D01*
X0087981Y0195821D01*
X0090318Y0198158D01*
X0090318Y0201637D01*
X0087858Y0204098D01*
X0084378Y0204098D01*
X0081918Y0201637D01*
X0081918Y0198158D01*
X0083181Y0196895D01*
X0083181Y0188087D01*
X0083156Y0188098D01*
X0081206Y0188098D01*
X0079405Y0187352D01*
X0078027Y0185973D01*
X0077281Y0184172D01*
X0077281Y0177825D01*
X0077081Y0178025D01*
X0077081Y0184172D01*
X0076335Y0185973D01*
X0074957Y0187352D01*
X0073156Y0188098D01*
X0071206Y0188098D01*
X0069405Y0187352D01*
X0068027Y0185973D01*
X0067281Y0184172D01*
X0067281Y0175623D01*
X0068027Y0173822D01*
X0069405Y0172444D01*
X0071206Y0171698D01*
X0073156Y0171698D01*
X0074957Y0172444D01*
X0075415Y0172902D01*
X0078146Y0170171D01*
X0078822Y0169496D01*
X0079704Y0169131D01*
X0129858Y0169131D01*
X0130741Y0169496D01*
X0135479Y0174235D01*
X0141096Y0174235D01*
X0142787Y0174935D01*
X0144081Y0176229D01*
X0144123Y0176331D01*
X0151787Y0176331D01*
X0155546Y0172571D01*
X0156222Y0171896D01*
X0157104Y0171531D01*
X0187458Y0171531D01*
X0188341Y0171896D01*
X0190679Y0174235D01*
X0196411Y0174235D01*
X0198102Y0174935D01*
X0199396Y0176229D01*
X0200096Y0177920D01*
X0200096Y0179750D01*
X0199396Y0181440D01*
X0198102Y0182734D01*
X0196411Y0183435D01*
X0195381Y0183435D01*
X0195381Y0194537D01*
X0196472Y0195628D01*
X0198235Y0195628D01*
X0200035Y0196374D01*
X0201414Y0197752D01*
X0202160Y0199553D01*
X0202160Y0201502D01*
X0202039Y0201794D01*
X0203575Y0203331D01*
X0210181Y0203331D01*
X0210153Y0203303D01*
X0209407Y0201502D01*
X0209407Y0199553D01*
X0210153Y0197752D01*
X0211531Y0196374D01*
X0213332Y0195628D01*
X0215282Y0195628D01*
X0215712Y0195806D01*
X0216981Y0194537D01*
X0216981Y0183435D01*
X0215707Y0183435D01*
X0214016Y0182734D01*
X0212722Y0181440D01*
X0212022Y0179750D01*
X0212022Y0177920D01*
X0212722Y0176229D01*
X0214016Y0174935D01*
X0215707Y0174235D01*
X0223537Y0174235D01*
X0225228Y0174935D01*
X0226522Y0176229D01*
X0227222Y0177920D01*
X0227222Y0179750D01*
X0226522Y0181440D01*
X0225228Y0182734D01*
X0223537Y0183435D01*
X0221781Y0183435D01*
X0221781Y0196008D01*
X0221416Y0196890D01*
X0220741Y0197565D01*
X0219074Y0199232D01*
X0219195Y0199523D01*
X0224622Y0194096D01*
X0225504Y0193731D01*
X0247581Y0193731D01*
X0247581Y0183435D01*
X0245707Y0183435D01*
X0244016Y0182734D01*
X0242722Y0181440D01*
X0242022Y0179750D01*
X0242022Y0177920D01*
X0242722Y0176229D01*
X0244016Y0174935D01*
X0245707Y0174235D01*
X0251430Y0174235D01*
X0233911Y0156715D01*
X0197267Y0156715D01*
X0196317Y0156322D01*
X0193430Y0153435D01*
X0188581Y0153435D01*
X0186890Y0152734D01*
X0185596Y0151440D01*
X0184896Y0149750D01*
X0184896Y0147920D01*
X0185478Y0146515D01*
X0169514Y0146515D01*
X0170096Y0147920D01*
X0170096Y0149750D01*
X0169396Y0151440D01*
X0168102Y0152734D01*
X0166411Y0153435D01*
X0158581Y0153435D01*
X0156890Y0152734D01*
X0155596Y0151440D01*
X0154896Y0149750D01*
X0154896Y0147920D01*
X0155478Y0146515D01*
X0144199Y0146515D01*
X0144781Y0147920D01*
X0144781Y0149750D01*
X0144081Y0151440D01*
X0142787Y0152734D01*
X0141096Y0153435D01*
X0133266Y0153435D01*
X0131575Y0152734D01*
X0130281Y0151440D01*
X0129581Y0149750D01*
X0129581Y0147920D01*
X0130281Y0146229D01*
X0131575Y0144935D01*
X0133266Y0144235D01*
X0138022Y0144235D01*
X0140517Y0141740D01*
X0138596Y0143661D02*
X0091305Y0143661D01*
X0089707Y0145260D02*
X0101251Y0145260D01*
X0101575Y0144935D02*
X0103266Y0144235D01*
X0111096Y0144235D01*
X0112787Y0144935D01*
X0114081Y0146229D01*
X0114781Y0147920D01*
X0114781Y0149750D01*
X0114081Y0151440D01*
X0112787Y0152734D01*
X0111096Y0153435D01*
X0103266Y0153435D01*
X0101575Y0152734D01*
X0100281Y0151440D01*
X0099581Y0149750D01*
X0099581Y0147920D01*
X0100281Y0146229D01*
X0101575Y0144935D01*
X0100021Y0146858D02*
X0088108Y0146858D01*
X0086510Y0148457D02*
X0099581Y0148457D01*
X0099708Y0150055D02*
X0084911Y0150055D01*
X0083313Y0151654D02*
X0100495Y0151654D01*
X0102826Y0153252D02*
X0081714Y0153252D01*
X0080116Y0154851D02*
X0194847Y0154851D01*
X0196626Y0156449D02*
X0078517Y0156449D01*
X0076919Y0158048D02*
X0235244Y0158048D01*
X0236842Y0159646D02*
X0075320Y0159646D01*
X0073722Y0161245D02*
X0238441Y0161245D01*
X0240039Y0162843D02*
X0072123Y0162843D01*
X0070525Y0164442D02*
X0241638Y0164442D01*
X0243236Y0166040D02*
X0068926Y0166040D01*
X0067328Y0167639D02*
X0244835Y0167639D01*
X0246433Y0169237D02*
X0130116Y0169237D01*
X0129381Y0171531D02*
X0136581Y0178731D01*
X0137181Y0178835D01*
X0137781Y0178731D01*
X0152781Y0178731D01*
X0157581Y0173931D01*
X0186981Y0173931D01*
X0191781Y0178731D01*
X0192496Y0178835D01*
X0192981Y0179331D01*
X0192981Y0195531D01*
X0197181Y0199731D01*
X0197260Y0200528D01*
X0197781Y0200931D01*
X0202581Y0205731D01*
X0216381Y0205731D01*
X0225981Y0196131D01*
X0249981Y0196131D01*
X0254181Y0200331D01*
X0254307Y0200528D01*
X0249947Y0202806D02*
X0222700Y0202806D01*
X0224298Y0201208D02*
X0249407Y0201208D01*
X0249407Y0199609D02*
X0225897Y0199609D01*
X0222306Y0196412D02*
X0221614Y0196412D01*
X0220741Y0197565D02*
X0220741Y0197565D01*
X0220707Y0198011D02*
X0220295Y0198011D01*
X0219381Y0195531D02*
X0214581Y0200331D01*
X0214307Y0200528D01*
X0209947Y0202806D02*
X0203051Y0202806D01*
X0202160Y0201208D02*
X0209407Y0201208D01*
X0209407Y0199609D02*
X0202160Y0199609D01*
X0201521Y0198011D02*
X0210046Y0198011D01*
X0211493Y0196412D02*
X0200074Y0196412D01*
X0197260Y0200528D02*
X0197181Y0200931D01*
X0189981Y0208131D01*
X0189981Y0257331D01*
X0189425Y0257457D01*
X0186381Y0260353D02*
X0182469Y0260353D01*
X0183625Y0259196D02*
X0181165Y0261657D01*
X0177685Y0261657D01*
X0176360Y0260331D01*
X0159617Y0260331D01*
X0158291Y0261657D01*
X0154811Y0261657D01*
X0152351Y0259196D01*
X0152351Y0255717D01*
X0154811Y0253257D01*
X0158291Y0253257D01*
X0160565Y0255531D01*
X0175411Y0255531D01*
X0177685Y0253257D01*
X0181165Y0253257D01*
X0183625Y0255717D01*
X0183625Y0259196D01*
X0183625Y0258754D02*
X0185225Y0258754D01*
X0185225Y0257156D02*
X0183625Y0257156D01*
X0183465Y0255557D02*
X0185385Y0255557D01*
X0186984Y0253958D02*
X0181867Y0253958D01*
X0179425Y0257457D02*
X0179181Y0257931D01*
X0156981Y0257931D01*
X0156551Y0257457D01*
X0153507Y0260353D02*
X0149595Y0260353D01*
X0150751Y0258754D02*
X0152351Y0258754D01*
X0152351Y0257156D02*
X0150751Y0257156D01*
X0150591Y0255557D02*
X0152511Y0255557D01*
X0154110Y0253958D02*
X0149181Y0253958D01*
X0149181Y0252360D02*
X0187581Y0252360D01*
X0187581Y0250761D02*
X0149181Y0250761D01*
X0149181Y0249163D02*
X0187581Y0249163D01*
X0187581Y0247564D02*
X0149181Y0247564D01*
X0149181Y0245966D02*
X0187581Y0245966D01*
X0187581Y0244367D02*
X0149181Y0244367D01*
X0149181Y0242769D02*
X0187581Y0242769D01*
X0187581Y0241170D02*
X0149181Y0241170D01*
X0149181Y0239572D02*
X0187581Y0239572D01*
X0187581Y0237973D02*
X0149181Y0237973D01*
X0149181Y0236375D02*
X0187581Y0236375D01*
X0187581Y0234776D02*
X0149181Y0234776D01*
X0149181Y0233178D02*
X0187581Y0233178D01*
X0187581Y0231579D02*
X0149181Y0231579D01*
X0149181Y0229981D02*
X0187581Y0229981D01*
X0187581Y0228382D02*
X0149181Y0228382D01*
X0149181Y0226784D02*
X0187581Y0226784D01*
X0187581Y0225185D02*
X0149181Y0225185D01*
X0149181Y0223587D02*
X0187581Y0223587D01*
X0187581Y0221988D02*
X0149181Y0221988D01*
X0149181Y0220390D02*
X0187581Y0220390D01*
X0187581Y0218791D02*
X0149181Y0218791D01*
X0149181Y0217193D02*
X0187581Y0217193D01*
X0187581Y0215594D02*
X0149181Y0215594D01*
X0149181Y0213996D02*
X0187581Y0213996D01*
X0187581Y0212397D02*
X0149181Y0212397D01*
X0150507Y0210799D02*
X0187581Y0210799D01*
X0187581Y0209200D02*
X0152106Y0209200D01*
X0153704Y0207602D02*
X0187602Y0207602D01*
X0188715Y0206003D02*
X0155303Y0206003D01*
X0151712Y0202806D02*
X0142761Y0202806D01*
X0142556Y0203303D02*
X0141177Y0204682D01*
X0139585Y0205341D01*
X0142975Y0208731D01*
X0145787Y0208731D01*
X0152552Y0201966D01*
X0152360Y0201502D01*
X0152360Y0199553D01*
X0153106Y0197752D01*
X0154484Y0196374D01*
X0155181Y0196085D01*
X0155181Y0183653D01*
X0155546Y0182771D01*
X0156237Y0182081D01*
X0155596Y0181440D01*
X0154972Y0179934D01*
X0154141Y0180765D01*
X0153258Y0181131D01*
X0144209Y0181131D01*
X0144081Y0181440D01*
X0142787Y0182734D01*
X0141096Y0183435D01*
X0139581Y0183435D01*
X0139581Y0195712D01*
X0141177Y0196374D01*
X0142556Y0197752D01*
X0143302Y0199553D01*
X0143302Y0201502D01*
X0142556Y0203303D01*
X0141454Y0204405D02*
X0150113Y0204405D01*
X0148515Y0206003D02*
X0140248Y0206003D01*
X0141846Y0207602D02*
X0146916Y0207602D01*
X0146781Y0211131D02*
X0141981Y0211131D01*
X0122781Y0191931D01*
X0107181Y0191931D01*
X0098781Y0200331D01*
X0098402Y0200528D01*
X0102761Y0202806D02*
X0130262Y0202806D01*
X0128664Y0201208D02*
X0103302Y0201208D01*
X0103302Y0199609D02*
X0127065Y0199609D01*
X0125467Y0198011D02*
X0104495Y0198011D01*
X0106094Y0196412D02*
X0123868Y0196412D01*
X0122270Y0194814D02*
X0107692Y0194814D01*
X0107181Y0191931D02*
X0107181Y0178835D01*
X0104781Y0183624D02*
X0087981Y0183624D01*
X0087981Y0185223D02*
X0104781Y0185223D01*
X0104781Y0186821D02*
X0087981Y0186821D01*
X0087981Y0188420D02*
X0104781Y0188420D01*
X0104781Y0190018D02*
X0087981Y0190018D01*
X0087981Y0191617D02*
X0104101Y0191617D01*
X0102503Y0193215D02*
X0087981Y0193215D01*
X0087981Y0194814D02*
X0100904Y0194814D01*
X0095587Y0196412D02*
X0088572Y0196412D01*
X0090171Y0198011D02*
X0094140Y0198011D01*
X0093502Y0199609D02*
X0090318Y0199609D01*
X0090318Y0201208D02*
X0093502Y0201208D01*
X0094042Y0202806D02*
X0089149Y0202806D01*
X0086118Y0199898D02*
X0085581Y0199731D01*
X0085581Y0182931D01*
X0082581Y0179931D01*
X0082181Y0179898D01*
X0077281Y0180427D02*
X0077081Y0180427D01*
X0077081Y0182025D02*
X0077281Y0182025D01*
X0077281Y0183624D02*
X0077081Y0183624D01*
X0076646Y0185223D02*
X0077716Y0185223D01*
X0078875Y0186821D02*
X0075487Y0186821D01*
X0068875Y0186821D02*
X0065770Y0186821D01*
X0065504Y0187088D02*
X0064854Y0187560D01*
X0064139Y0187924D01*
X0063375Y0188172D01*
X0062582Y0188298D01*
X0062481Y0188298D01*
X0062481Y0180198D01*
X0067281Y0180198D01*
X0067281Y0183599D01*
X0067156Y0184392D01*
X0066907Y0185155D01*
X0066543Y0185871D01*
X0066071Y0186520D01*
X0065504Y0187088D01*
X0066873Y0185223D02*
X0067716Y0185223D01*
X0067281Y0183624D02*
X0067277Y0183624D01*
X0067281Y0182025D02*
X0067281Y0182025D01*
X0067281Y0180427D02*
X0067281Y0180427D01*
X0067281Y0178828D02*
X0067281Y0178828D01*
X0067281Y0177230D02*
X0067281Y0177230D01*
X0067281Y0175631D02*
X0067192Y0175631D01*
X0066598Y0174033D02*
X0067940Y0174033D01*
X0069428Y0172434D02*
X0065128Y0172434D01*
X0064131Y0170836D02*
X0077482Y0170836D01*
X0075883Y0172434D02*
X0074934Y0172434D01*
X0080181Y0171531D02*
X0129381Y0171531D01*
X0128489Y0174033D02*
X0086422Y0174033D01*
X0087081Y0175631D02*
X0100879Y0175631D01*
X0099867Y0177230D02*
X0087081Y0177230D01*
X0087081Y0178828D02*
X0099581Y0178828D01*
X0099862Y0180427D02*
X0087081Y0180427D01*
X0087804Y0182025D02*
X0100867Y0182025D01*
X0109581Y0183624D02*
X0134781Y0183624D01*
X0134781Y0185223D02*
X0109581Y0185223D01*
X0109581Y0186821D02*
X0134781Y0186821D01*
X0134781Y0188420D02*
X0109581Y0188420D01*
X0113496Y0182025D02*
X0130867Y0182025D01*
X0129862Y0180427D02*
X0114501Y0180427D01*
X0114781Y0178828D02*
X0129581Y0178828D01*
X0129867Y0177230D02*
X0114495Y0177230D01*
X0113483Y0175631D02*
X0130088Y0175631D01*
X0133679Y0172434D02*
X0155683Y0172434D01*
X0154085Y0174033D02*
X0135277Y0174033D01*
X0132080Y0170836D02*
X0248032Y0170836D01*
X0249630Y0172434D02*
X0188879Y0172434D01*
X0190477Y0174033D02*
X0251229Y0174033D01*
X0249622Y0178835D02*
X0249981Y0179331D01*
X0249981Y0196131D01*
X0252381Y0194814D02*
X0323170Y0194814D01*
X0323170Y0194455D02*
X0323840Y0192838D01*
X0325078Y0191601D01*
X0326695Y0190931D01*
X0334045Y0190931D01*
X0335662Y0191601D01*
X0336900Y0192838D01*
X0337570Y0194455D01*
X0337570Y0196206D01*
X0336900Y0197823D01*
X0335662Y0199061D01*
X0334045Y0199731D01*
X0326695Y0199731D01*
X0325078Y0199061D01*
X0323840Y0197823D01*
X0323170Y0196206D01*
X0323170Y0194455D01*
X0323684Y0193215D02*
X0252381Y0193215D01*
X0252381Y0191617D02*
X0325062Y0191617D01*
X0324436Y0188420D02*
X0252381Y0188420D01*
X0252381Y0190018D02*
X0337617Y0190018D01*
X0337617Y0188420D02*
X0336304Y0188420D01*
X0337315Y0186821D02*
X0337617Y0186821D01*
X0337570Y0185223D02*
X0337617Y0185223D01*
X0337617Y0183624D02*
X0337226Y0183624D01*
X0337617Y0182025D02*
X0336087Y0182025D01*
X0337617Y0180427D02*
X0264932Y0180427D01*
X0266531Y0182025D02*
X0324653Y0182025D01*
X0325078Y0179061D02*
X0323840Y0177823D01*
X0323170Y0176206D01*
X0323170Y0174455D01*
X0323840Y0172838D01*
X0325078Y0171601D01*
X0326695Y0170931D01*
X0334045Y0170931D01*
X0335662Y0171601D01*
X0336900Y0172838D01*
X0337570Y0174455D01*
X0337570Y0176206D01*
X0336900Y0177823D01*
X0335662Y0179061D01*
X0334045Y0179731D01*
X0326695Y0179731D01*
X0325078Y0179061D01*
X0324845Y0178828D02*
X0263334Y0178828D01*
X0261735Y0177230D02*
X0323594Y0177230D01*
X0323170Y0175631D02*
X0260136Y0175631D01*
X0258538Y0174033D02*
X0323345Y0174033D01*
X0324244Y0172434D02*
X0256939Y0172434D01*
X0255341Y0170836D02*
X0337617Y0170836D01*
X0337617Y0172434D02*
X0336496Y0172434D01*
X0337395Y0174033D02*
X0337617Y0174033D01*
X0337570Y0175631D02*
X0337617Y0175631D01*
X0337617Y0177230D02*
X0337146Y0177230D01*
X0337617Y0178828D02*
X0335895Y0178828D01*
X0335236Y0169237D02*
X0337617Y0169237D01*
X0337617Y0167639D02*
X0336977Y0167639D01*
X0337570Y0166040D02*
X0337617Y0166040D01*
X0337564Y0164442D02*
X0337617Y0164442D01*
X0337617Y0162843D02*
X0336902Y0162843D01*
X0337617Y0161245D02*
X0334804Y0161245D01*
X0337617Y0159646D02*
X0248351Y0159646D01*
X0246753Y0158048D02*
X0337617Y0158048D01*
X0337617Y0156449D02*
X0245154Y0156449D01*
X0243556Y0154851D02*
X0326704Y0154851D01*
X0326493Y0154817D02*
X0327208Y0154931D01*
X0330270Y0154931D01*
X0330270Y0150431D01*
X0330470Y0150431D01*
X0330470Y0154931D01*
X0333532Y0154931D01*
X0334247Y0154817D01*
X0334936Y0154594D01*
X0335581Y0154265D01*
X0336167Y0153839D01*
X0336679Y0153327D01*
X0337104Y0152742D01*
X0337433Y0152096D01*
X0337617Y0151529D01*
X0337617Y0269110D01*
X0005800Y0269110D01*
X0005800Y0005806D01*
X0337617Y0006188D01*
X0337617Y0149132D01*
X0337433Y0148565D01*
X0337104Y0147920D01*
X0336679Y0147334D01*
X0336167Y0146822D01*
X0335581Y0146396D01*
X0334936Y0146068D01*
X0334247Y0145844D01*
X0333532Y0145731D01*
X0330470Y0145731D01*
X0330470Y0150231D01*
X0330270Y0150231D01*
X0322970Y0150231D01*
X0322970Y0149969D01*
X0323083Y0149254D01*
X0323307Y0148565D01*
X0323636Y0147920D01*
X0324061Y0147334D01*
X0324573Y0146822D01*
X0325159Y0146396D01*
X0325804Y0146068D01*
X0326493Y0145844D01*
X0327208Y0145731D01*
X0330270Y0145731D01*
X0330270Y0150231D01*
X0330270Y0150431D01*
X0322970Y0150431D01*
X0322970Y0150693D01*
X0323083Y0151408D01*
X0323307Y0152096D01*
X0323636Y0152742D01*
X0324061Y0153327D01*
X0324573Y0153839D01*
X0325159Y0154265D01*
X0325804Y0154594D01*
X0326493Y0154817D01*
X0324007Y0153252D02*
X0253977Y0153252D01*
X0256308Y0151654D02*
X0323163Y0151654D01*
X0322970Y0150055D02*
X0257095Y0150055D01*
X0257222Y0148457D02*
X0323362Y0148457D01*
X0324537Y0146858D02*
X0256782Y0146858D01*
X0257107Y0145260D02*
X0337617Y0145260D01*
X0337617Y0146858D02*
X0336203Y0146858D01*
X0337378Y0148457D02*
X0337617Y0148457D01*
X0337617Y0143661D02*
X0336062Y0143661D01*
X0337581Y0142731D02*
X0330381Y0149931D01*
X0330370Y0150331D01*
X0330270Y0150055D02*
X0330470Y0150055D01*
X0330470Y0148457D02*
X0330270Y0148457D01*
X0330270Y0146858D02*
X0330470Y0146858D01*
X0330470Y0151654D02*
X0330270Y0151654D01*
X0330270Y0153252D02*
X0330470Y0153252D01*
X0330470Y0154851D02*
X0330270Y0154851D01*
X0334037Y0154851D02*
X0337617Y0154851D01*
X0337617Y0153252D02*
X0336733Y0153252D01*
X0337577Y0151654D02*
X0337617Y0151654D01*
X0325936Y0161245D02*
X0249950Y0161245D01*
X0252144Y0167639D02*
X0323764Y0167639D01*
X0325504Y0169237D02*
X0253742Y0169237D01*
X0243320Y0175631D02*
X0225924Y0175631D01*
X0226936Y0177230D02*
X0242308Y0177230D01*
X0242022Y0178828D02*
X0227222Y0178828D01*
X0226941Y0180427D02*
X0242303Y0180427D01*
X0243308Y0182025D02*
X0225937Y0182025D01*
X0221781Y0183624D02*
X0247581Y0183624D01*
X0247581Y0185223D02*
X0221781Y0185223D01*
X0221781Y0186821D02*
X0247581Y0186821D01*
X0247581Y0188420D02*
X0221781Y0188420D01*
X0221781Y0190018D02*
X0247581Y0190018D01*
X0247581Y0191617D02*
X0221781Y0191617D01*
X0221781Y0193215D02*
X0247581Y0193215D01*
X0252381Y0186821D02*
X0264017Y0186821D01*
X0262418Y0185223D02*
X0252381Y0185223D01*
X0252381Y0183624D02*
X0260820Y0183624D01*
X0259221Y0182025D02*
X0255937Y0182025D01*
X0256941Y0180427D02*
X0257623Y0180427D01*
X0257121Y0196412D02*
X0323255Y0196412D01*
X0324027Y0198011D02*
X0258568Y0198011D01*
X0259207Y0199609D02*
X0326401Y0199609D01*
X0334339Y0199609D02*
X0337617Y0199609D01*
X0337617Y0198011D02*
X0336713Y0198011D01*
X0337485Y0196412D02*
X0337617Y0196412D01*
X0337570Y0194814D02*
X0337617Y0194814D01*
X0337617Y0193215D02*
X0337056Y0193215D01*
X0337617Y0191617D02*
X0335678Y0191617D01*
X0337617Y0201208D02*
X0259207Y0201208D01*
X0258667Y0202806D02*
X0337617Y0202806D01*
X0337617Y0204405D02*
X0257360Y0204405D01*
X0251255Y0204405D02*
X0221101Y0204405D01*
X0219503Y0206003D02*
X0337617Y0206003D01*
X0337617Y0207602D02*
X0217904Y0207602D01*
X0219381Y0195531D02*
X0219381Y0179331D01*
X0219622Y0178835D01*
X0213320Y0175631D02*
X0198798Y0175631D01*
X0199810Y0177230D02*
X0212308Y0177230D01*
X0212022Y0178828D02*
X0200096Y0178828D01*
X0199816Y0180427D02*
X0212303Y0180427D01*
X0213308Y0182025D02*
X0198811Y0182025D01*
X0195381Y0183624D02*
X0216981Y0183624D01*
X0216981Y0185223D02*
X0195381Y0185223D01*
X0195381Y0186821D02*
X0216981Y0186821D01*
X0216981Y0188420D02*
X0195381Y0188420D01*
X0195381Y0190018D02*
X0216981Y0190018D01*
X0216981Y0191617D02*
X0195381Y0191617D01*
X0195381Y0193215D02*
X0216981Y0193215D01*
X0216704Y0194814D02*
X0195658Y0194814D01*
X0192067Y0198011D02*
X0161521Y0198011D01*
X0162160Y0199609D02*
X0192360Y0199609D01*
X0192360Y0201208D02*
X0162160Y0201208D01*
X0161620Y0202806D02*
X0191912Y0202806D01*
X0190313Y0204405D02*
X0160312Y0204405D01*
X0156981Y0200931D02*
X0157260Y0200528D01*
X0157581Y0200331D01*
X0157581Y0184131D01*
X0162381Y0179331D01*
X0162496Y0178835D01*
X0161482Y0183624D02*
X0190581Y0183624D01*
X0190581Y0185223D02*
X0159981Y0185223D01*
X0159981Y0186821D02*
X0190581Y0186821D01*
X0190581Y0188420D02*
X0159981Y0188420D01*
X0159981Y0190018D02*
X0190581Y0190018D01*
X0190581Y0191617D02*
X0159981Y0191617D01*
X0159981Y0193215D02*
X0190581Y0193215D01*
X0190581Y0194814D02*
X0159981Y0194814D01*
X0160074Y0196412D02*
X0190748Y0196412D01*
X0195503Y0206003D02*
X0199459Y0206003D01*
X0201058Y0207602D02*
X0193904Y0207602D01*
X0192381Y0209200D02*
X0337617Y0209200D01*
X0337617Y0210799D02*
X0192381Y0210799D01*
X0192381Y0212397D02*
X0337617Y0212397D01*
X0337617Y0213996D02*
X0192381Y0213996D01*
X0192381Y0215594D02*
X0337617Y0215594D01*
X0337617Y0217193D02*
X0192381Y0217193D01*
X0192381Y0218791D02*
X0337617Y0218791D01*
X0337617Y0220390D02*
X0192381Y0220390D01*
X0192381Y0221988D02*
X0337617Y0221988D01*
X0337617Y0223587D02*
X0192381Y0223587D01*
X0192381Y0225185D02*
X0337617Y0225185D01*
X0337617Y0226784D02*
X0192381Y0226784D01*
X0192381Y0228382D02*
X0337617Y0228382D01*
X0337617Y0229981D02*
X0192381Y0229981D01*
X0192381Y0231579D02*
X0337617Y0231579D01*
X0337617Y0233178D02*
X0192381Y0233178D01*
X0192381Y0234776D02*
X0337617Y0234776D01*
X0337617Y0236375D02*
X0192381Y0236375D01*
X0192381Y0237973D02*
X0337617Y0237973D01*
X0337617Y0239572D02*
X0192381Y0239572D01*
X0192381Y0241170D02*
X0321815Y0241170D01*
X0321086Y0241366D02*
X0323909Y0240609D01*
X0326831Y0240609D01*
X0329654Y0241366D01*
X0332185Y0242827D01*
X0334252Y0244894D01*
X0335713Y0247425D01*
X0336469Y0250247D01*
X0336469Y0253170D01*
X0335713Y0255993D01*
X0334252Y0258524D01*
X0332185Y0260590D01*
X0329654Y0262051D01*
X0326831Y0262808D01*
X0323909Y0262808D01*
X0321086Y0262051D01*
X0318555Y0260590D01*
X0316488Y0258524D01*
X0315027Y0255993D01*
X0314271Y0253170D01*
X0314271Y0250247D01*
X0315027Y0247425D01*
X0316488Y0244894D01*
X0318555Y0242827D01*
X0321086Y0241366D01*
X0318656Y0242769D02*
X0192381Y0242769D01*
X0192381Y0244367D02*
X0249158Y0244367D01*
X0249638Y0243888D02*
X0251087Y0243888D01*
X0251330Y0244131D01*
X0251573Y0243888D01*
X0253022Y0243888D01*
X0253045Y0243911D01*
X0253068Y0243888D01*
X0255485Y0243888D01*
X0255508Y0243911D01*
X0255531Y0243888D01*
X0256980Y0243888D01*
X0257223Y0244131D01*
X0257466Y0243888D01*
X0257510Y0243888D01*
X0258477Y0242921D01*
X0260411Y0242921D01*
X0260895Y0243404D01*
X0261378Y0243888D01*
X0262859Y0243888D01*
X0263884Y0244913D01*
X0263884Y0246363D01*
X0263400Y0246847D01*
X0263400Y0249749D01*
X0262375Y0250774D01*
X0260925Y0250774D01*
X0260910Y0250759D01*
X0260895Y0250774D01*
X0259445Y0250774D01*
X0258420Y0249749D01*
X0258420Y0249323D01*
X0255531Y0249323D01*
X0255508Y0249300D01*
X0255485Y0249323D01*
X0254518Y0249323D01*
X0253990Y0249323D01*
X0253022Y0250291D01*
X0251573Y0250291D01*
X0251330Y0250048D01*
X0251087Y0250291D01*
X0249638Y0250291D01*
X0248613Y0249266D01*
X0248613Y0244913D01*
X0249638Y0243888D01*
X0248613Y0245966D02*
X0192381Y0245966D01*
X0192381Y0247564D02*
X0248613Y0247564D01*
X0248613Y0249163D02*
X0192381Y0249163D01*
X0192381Y0250761D02*
X0259432Y0250761D01*
X0258917Y0251762D02*
X0259448Y0252294D01*
X0259980Y0251762D01*
X0261471Y0251762D01*
X0262460Y0252751D01*
X0263449Y0251762D01*
X0264941Y0251762D01*
X0265038Y0251860D01*
X0265136Y0251762D01*
X0266627Y0251762D01*
X0267617Y0252751D01*
X0268606Y0251762D01*
X0270097Y0251762D01*
X0271062Y0252727D01*
X0272027Y0251762D01*
X0273519Y0251762D01*
X0274573Y0252817D01*
X0274573Y0256967D01*
X0275253Y0256967D01*
X0276308Y0258021D01*
X0276308Y0259512D01*
X0275253Y0260567D01*
X0270293Y0260567D01*
X0269761Y0260035D01*
X0269230Y0260567D01*
X0265136Y0260567D01*
X0264171Y0259601D01*
X0263206Y0260567D01*
X0261715Y0260567D01*
X0260660Y0259512D01*
X0260316Y0259168D01*
X0259971Y0259512D01*
X0258917Y0260567D01*
X0255691Y0260567D01*
X0255041Y0259917D01*
X0254726Y0259601D01*
X0253760Y0260567D01*
X0250534Y0260567D01*
X0249884Y0259917D01*
X0249480Y0259512D01*
X0249262Y0259295D01*
X0248613Y0258645D01*
X0248613Y0256286D01*
X0249168Y0255731D01*
X0248613Y0255175D01*
X0248613Y0253684D01*
X0250534Y0251762D01*
X0253760Y0251762D01*
X0254410Y0252412D01*
X0254628Y0252630D01*
X0254726Y0252727D01*
X0255691Y0251762D01*
X0258917Y0251762D01*
X0260907Y0250761D02*
X0260912Y0250761D01*
X0262388Y0250761D02*
X0314271Y0250761D01*
X0314271Y0252360D02*
X0310227Y0252360D01*
X0310684Y0252817D02*
X0310684Y0259512D01*
X0309629Y0260567D01*
X0308138Y0260567D01*
X0307149Y0259577D01*
X0306160Y0260567D01*
X0304669Y0260567D01*
X0304137Y0260035D01*
X0303606Y0260567D01*
X0300380Y0260567D01*
X0299848Y0260035D01*
X0299317Y0260567D01*
X0294356Y0260567D01*
X0294250Y0260461D01*
X0294144Y0260567D01*
X0290918Y0260567D01*
X0290820Y0260469D01*
X0290723Y0260567D01*
X0289231Y0260567D01*
X0288242Y0259577D01*
X0287253Y0260567D01*
X0285762Y0260567D01*
X0285230Y0260035D01*
X0284699Y0260567D01*
X0281473Y0260567D01*
X0280823Y0259917D01*
X0280418Y0259512D01*
X0280201Y0259295D01*
X0279551Y0258645D01*
X0279551Y0256286D01*
X0280107Y0255731D01*
X0279551Y0255175D01*
X0279551Y0253684D01*
X0281473Y0251762D01*
X0284699Y0251762D01*
X0285230Y0252294D01*
X0285762Y0251762D01*
X0287253Y0251762D01*
X0288242Y0252751D01*
X0289231Y0251762D01*
X0290723Y0251762D01*
X0290820Y0251860D01*
X0290918Y0251762D01*
X0294144Y0251762D01*
X0295117Y0252735D01*
X0296091Y0251762D01*
X0297582Y0251762D01*
X0298636Y0252817D01*
X0298636Y0253506D01*
X0299325Y0252817D01*
X0300380Y0251762D01*
X0303606Y0251762D01*
X0304137Y0252294D01*
X0304669Y0251762D01*
X0306160Y0251762D01*
X0307149Y0252751D01*
X0308138Y0251762D01*
X0309629Y0251762D01*
X0310684Y0252817D01*
X0310684Y0253958D02*
X0314482Y0253958D01*
X0314910Y0255557D02*
X0310684Y0255557D01*
X0310684Y0257156D02*
X0315699Y0257156D01*
X0316719Y0258754D02*
X0310684Y0258754D01*
X0309843Y0260353D02*
X0318317Y0260353D01*
X0320912Y0261951D02*
X0022702Y0261951D01*
X0022528Y0262051D02*
X0019705Y0262808D01*
X0016783Y0262808D01*
X0013960Y0262051D01*
X0011429Y0260590D01*
X0009363Y0258524D01*
X0007901Y0255993D01*
X0007145Y0253170D01*
X0007145Y0250247D01*
X0007901Y0247425D01*
X0009363Y0244894D01*
X0011429Y0242827D01*
X0013960Y0241366D01*
X0016783Y0240609D01*
X0019705Y0240609D01*
X0022528Y0241366D01*
X0025059Y0242827D01*
X0027126Y0244894D01*
X0028587Y0247425D01*
X0029343Y0250247D01*
X0029343Y0253170D01*
X0028587Y0255993D01*
X0027126Y0258524D01*
X0025059Y0260590D01*
X0022528Y0262051D01*
X0025297Y0260353D02*
X0045420Y0260353D01*
X0044689Y0260050D02*
X0046306Y0260720D01*
X0048056Y0260720D01*
X0049673Y0260050D01*
X0050911Y0258812D01*
X0051581Y0257195D01*
X0051581Y0249844D01*
X0050911Y0248227D01*
X0049673Y0246990D01*
X0048056Y0246320D01*
X0046306Y0246320D01*
X0044689Y0246990D01*
X0043451Y0248227D01*
X0042781Y0249844D01*
X0042781Y0257195D01*
X0043451Y0258812D01*
X0044689Y0260050D01*
X0043427Y0258754D02*
X0026895Y0258754D01*
X0027916Y0257156D02*
X0042781Y0257156D01*
X0042781Y0255557D02*
X0028704Y0255557D01*
X0029132Y0253958D02*
X0042781Y0253958D01*
X0042781Y0252360D02*
X0029343Y0252360D01*
X0029343Y0250761D02*
X0042781Y0250761D01*
X0043063Y0249163D02*
X0029053Y0249163D01*
X0028624Y0247564D02*
X0044114Y0247564D01*
X0050248Y0247564D02*
X0053781Y0247564D01*
X0053781Y0247897D02*
X0053781Y0203500D01*
X0051918Y0201637D01*
X0051918Y0198158D01*
X0054378Y0195698D01*
X0057858Y0195698D01*
X0060318Y0198158D01*
X0060318Y0201637D01*
X0058581Y0203374D01*
X0058581Y0246537D01*
X0059673Y0246990D01*
X0060911Y0248227D01*
X0061581Y0249844D01*
X0061581Y0257195D01*
X0060911Y0258812D01*
X0059673Y0260050D01*
X0058056Y0260720D01*
X0056306Y0260720D01*
X0054689Y0260050D01*
X0053451Y0258812D01*
X0052781Y0257195D01*
X0052781Y0249844D01*
X0053451Y0248227D01*
X0053781Y0247897D01*
X0053063Y0249163D02*
X0051299Y0249163D01*
X0051581Y0250761D02*
X0052781Y0250761D01*
X0052781Y0252360D02*
X0051581Y0252360D01*
X0051581Y0253958D02*
X0052781Y0253958D01*
X0052781Y0255557D02*
X0051581Y0255557D01*
X0051581Y0257156D02*
X0052781Y0257156D01*
X0053427Y0258754D02*
X0050935Y0258754D01*
X0048943Y0260353D02*
X0055420Y0260353D01*
X0058943Y0260353D02*
X0065420Y0260353D01*
X0064689Y0260050D02*
X0066306Y0260720D01*
X0068056Y0260720D01*
X0069673Y0260050D01*
X0070911Y0258812D01*
X0071581Y0257195D01*
X0071581Y0249844D01*
X0070911Y0248227D01*
X0069673Y0246990D01*
X0068056Y0246320D01*
X0066306Y0246320D01*
X0064689Y0246990D01*
X0063451Y0248227D01*
X0062781Y0249844D01*
X0062781Y0257195D01*
X0063451Y0258812D01*
X0064689Y0260050D01*
X0063427Y0258754D02*
X0060935Y0258754D01*
X0061581Y0257156D02*
X0062781Y0257156D01*
X0062781Y0255557D02*
X0061581Y0255557D01*
X0061581Y0253958D02*
X0062781Y0253958D01*
X0062781Y0252360D02*
X0061581Y0252360D01*
X0061581Y0250761D02*
X0062781Y0250761D01*
X0063063Y0249163D02*
X0061299Y0249163D01*
X0060248Y0247564D02*
X0064114Y0247564D01*
X0058581Y0245966D02*
X0144381Y0245966D01*
X0144381Y0247564D02*
X0080531Y0247564D01*
X0080690Y0247723D02*
X0081115Y0248309D01*
X0081444Y0248954D01*
X0081668Y0249643D01*
X0081781Y0250358D01*
X0081781Y0253420D01*
X0077281Y0253420D01*
X0077281Y0253620D01*
X0077081Y0253620D01*
X0077081Y0260920D01*
X0076819Y0260920D01*
X0076104Y0260806D01*
X0075415Y0260583D01*
X0074770Y0260254D01*
X0074184Y0259828D01*
X0073672Y0259316D01*
X0073247Y0258731D01*
X0072918Y0258085D01*
X0072694Y0257397D01*
X0072581Y0256682D01*
X0072581Y0253620D01*
X0077081Y0253620D01*
X0077081Y0253420D01*
X0072581Y0253420D01*
X0072581Y0250358D01*
X0072694Y0249643D01*
X0072918Y0248954D01*
X0073247Y0248309D01*
X0073672Y0247723D01*
X0074184Y0247211D01*
X0074770Y0246785D01*
X0075415Y0246457D01*
X0076104Y0246233D01*
X0076819Y0246120D01*
X0077081Y0246120D01*
X0077081Y0253420D01*
X0077281Y0253420D01*
X0077281Y0246120D01*
X0077543Y0246120D01*
X0078258Y0246233D01*
X0078947Y0246457D01*
X0079592Y0246785D01*
X0080178Y0247211D01*
X0080690Y0247723D01*
X0081512Y0249163D02*
X0144381Y0249163D01*
X0144381Y0250761D02*
X0081781Y0250761D01*
X0081781Y0252360D02*
X0144381Y0252360D01*
X0144110Y0253958D02*
X0081781Y0253958D01*
X0081781Y0253620D02*
X0081781Y0256682D01*
X0081668Y0257397D01*
X0081444Y0258085D01*
X0081115Y0258731D01*
X0080690Y0259316D01*
X0080178Y0259828D01*
X0079592Y0260254D01*
X0078947Y0260583D01*
X0078258Y0260806D01*
X0077543Y0260920D01*
X0077281Y0260920D01*
X0077281Y0253620D01*
X0081781Y0253620D01*
X0081781Y0255557D02*
X0142511Y0255557D01*
X0142351Y0257156D02*
X0081706Y0257156D01*
X0081098Y0258754D02*
X0142351Y0258754D01*
X0143507Y0260353D02*
X0079399Y0260353D01*
X0077281Y0260353D02*
X0077081Y0260353D01*
X0077081Y0258754D02*
X0077281Y0258754D01*
X0077281Y0257156D02*
X0077081Y0257156D01*
X0077081Y0255557D02*
X0077281Y0255557D01*
X0077281Y0253958D02*
X0077081Y0253958D01*
X0077181Y0253520D02*
X0077181Y0195531D01*
X0062181Y0180531D01*
X0062181Y0179898D01*
X0061881Y0180427D02*
X0062481Y0180427D01*
X0062481Y0182025D02*
X0061881Y0182025D01*
X0061881Y0183624D02*
X0062481Y0183624D01*
X0062481Y0185223D02*
X0061881Y0185223D01*
X0061881Y0186821D02*
X0062481Y0186821D01*
X0058592Y0186821D02*
X0048145Y0186821D01*
X0046547Y0188420D02*
X0083181Y0188420D01*
X0083181Y0190018D02*
X0044948Y0190018D01*
X0043350Y0191617D02*
X0083181Y0191617D01*
X0083181Y0193215D02*
X0041751Y0193215D01*
X0040153Y0194814D02*
X0083181Y0194814D01*
X0083181Y0196412D02*
X0058572Y0196412D01*
X0060171Y0198011D02*
X0082065Y0198011D01*
X0081918Y0199609D02*
X0060318Y0199609D01*
X0060318Y0201208D02*
X0081918Y0201208D01*
X0083087Y0202806D02*
X0059149Y0202806D01*
X0058581Y0204405D02*
X0095349Y0204405D01*
X0101454Y0204405D02*
X0131861Y0204405D01*
X0133459Y0206003D02*
X0058581Y0206003D01*
X0058581Y0207602D02*
X0135058Y0207602D01*
X0136656Y0209200D02*
X0058581Y0209200D01*
X0058581Y0210799D02*
X0138255Y0210799D01*
X0139853Y0212397D02*
X0058581Y0212397D01*
X0058581Y0213996D02*
X0144381Y0213996D01*
X0144381Y0215594D02*
X0058581Y0215594D01*
X0058581Y0217193D02*
X0144381Y0217193D01*
X0144381Y0218791D02*
X0058581Y0218791D01*
X0058581Y0220390D02*
X0144381Y0220390D01*
X0144381Y0221988D02*
X0058581Y0221988D01*
X0058581Y0223587D02*
X0144381Y0223587D01*
X0144381Y0225185D02*
X0058581Y0225185D01*
X0058581Y0226784D02*
X0144381Y0226784D01*
X0144381Y0228382D02*
X0058581Y0228382D01*
X0058581Y0229981D02*
X0144381Y0229981D01*
X0144381Y0231579D02*
X0058581Y0231579D01*
X0058581Y0233178D02*
X0144381Y0233178D01*
X0144381Y0234776D02*
X0058581Y0234776D01*
X0058581Y0236375D02*
X0144381Y0236375D01*
X0144381Y0237973D02*
X0058581Y0237973D01*
X0058581Y0239572D02*
X0144381Y0239572D01*
X0144381Y0241170D02*
X0058581Y0241170D01*
X0058581Y0242769D02*
X0144381Y0242769D01*
X0144381Y0244367D02*
X0058581Y0244367D01*
X0053781Y0244367D02*
X0026600Y0244367D01*
X0027745Y0245966D02*
X0053781Y0245966D01*
X0053781Y0242769D02*
X0024958Y0242769D01*
X0021799Y0241170D02*
X0053781Y0241170D01*
X0053781Y0239572D02*
X0005800Y0239572D01*
X0005800Y0241170D02*
X0014689Y0241170D01*
X0011530Y0242769D02*
X0005800Y0242769D01*
X0005800Y0244367D02*
X0009889Y0244367D01*
X0008743Y0245966D02*
X0005800Y0245966D01*
X0005800Y0247564D02*
X0007864Y0247564D01*
X0007435Y0249163D02*
X0005800Y0249163D01*
X0005800Y0250761D02*
X0007145Y0250761D01*
X0007145Y0252360D02*
X0005800Y0252360D01*
X0005800Y0253958D02*
X0007356Y0253958D01*
X0007785Y0255557D02*
X0005800Y0255557D01*
X0005800Y0257156D02*
X0008573Y0257156D01*
X0009593Y0258754D02*
X0005800Y0258754D01*
X0005800Y0260353D02*
X0011191Y0260353D01*
X0013786Y0261951D02*
X0005800Y0261951D01*
X0005800Y0263550D02*
X0337617Y0263550D01*
X0337617Y0265148D02*
X0005800Y0265148D01*
X0005800Y0266747D02*
X0337617Y0266747D01*
X0337617Y0268345D02*
X0005800Y0268345D01*
X0005800Y0237973D02*
X0053781Y0237973D01*
X0053781Y0236375D02*
X0005800Y0236375D01*
X0005800Y0234776D02*
X0053781Y0234776D01*
X0053781Y0233178D02*
X0005800Y0233178D01*
X0005800Y0231579D02*
X0053781Y0231579D01*
X0053781Y0229981D02*
X0005800Y0229981D01*
X0005800Y0228382D02*
X0053781Y0228382D01*
X0053781Y0226784D02*
X0005800Y0226784D01*
X0005800Y0225185D02*
X0053781Y0225185D01*
X0053781Y0223587D02*
X0005800Y0223587D01*
X0005800Y0221988D02*
X0053781Y0221988D01*
X0053781Y0220390D02*
X0005800Y0220390D01*
X0005800Y0218791D02*
X0053781Y0218791D01*
X0053781Y0217193D02*
X0005800Y0217193D01*
X0005800Y0215594D02*
X0053781Y0215594D01*
X0053781Y0213996D02*
X0005800Y0213996D01*
X0005800Y0212397D02*
X0053781Y0212397D01*
X0053781Y0210799D02*
X0005800Y0210799D01*
X0005800Y0209200D02*
X0053781Y0209200D01*
X0053781Y0207602D02*
X0005800Y0207602D01*
X0005800Y0206003D02*
X0053781Y0206003D01*
X0053781Y0204405D02*
X0005800Y0204405D01*
X0005800Y0202806D02*
X0053087Y0202806D01*
X0051918Y0201208D02*
X0005800Y0201208D01*
X0005800Y0199609D02*
X0009275Y0199609D01*
X0006901Y0198011D02*
X0005800Y0198011D01*
X0005800Y0196412D02*
X0006129Y0196412D01*
X0006044Y0194814D02*
X0005800Y0194814D01*
X0005800Y0193215D02*
X0006558Y0193215D01*
X0005800Y0191617D02*
X0007936Y0191617D01*
X0009569Y0189731D02*
X0007952Y0189061D01*
X0006714Y0187823D01*
X0006044Y0186206D01*
X0006044Y0184455D01*
X0006714Y0182838D01*
X0007952Y0181601D01*
X0009569Y0180931D01*
X0016919Y0180931D01*
X0018536Y0181601D01*
X0019774Y0182838D01*
X0020444Y0184455D01*
X0020444Y0186206D01*
X0019774Y0187823D01*
X0018536Y0189061D01*
X0016919Y0189731D01*
X0009569Y0189731D01*
X0007310Y0188420D02*
X0005800Y0188420D01*
X0005800Y0190018D02*
X0037639Y0190018D01*
X0036381Y0189531D02*
X0036381Y0173331D01*
X0013581Y0150531D01*
X0013244Y0150331D01*
X0013144Y0150431D02*
X0013144Y0154931D01*
X0010082Y0154931D01*
X0009367Y0154817D01*
X0008678Y0154594D01*
X0008033Y0154265D01*
X0007447Y0153839D01*
X0006935Y0153327D01*
X0006510Y0152742D01*
X0006181Y0152096D01*
X0005957Y0151408D01*
X0005844Y0150693D01*
X0005844Y0150431D01*
X0013144Y0150431D01*
X0013344Y0150431D01*
X0013344Y0154931D01*
X0016406Y0154931D01*
X0017121Y0154817D01*
X0017810Y0154594D01*
X0018455Y0154265D01*
X0019041Y0153839D01*
X0019553Y0153327D01*
X0019978Y0152742D01*
X0020307Y0152096D01*
X0020531Y0151408D01*
X0020644Y0150693D01*
X0020644Y0150431D01*
X0013344Y0150431D01*
X0013344Y0150231D01*
X0020644Y0150231D01*
X0020644Y0149969D01*
X0020531Y0149254D01*
X0020307Y0148565D01*
X0019978Y0147920D01*
X0019553Y0147334D01*
X0019041Y0146822D01*
X0018455Y0146396D01*
X0017810Y0146068D01*
X0017121Y0145844D01*
X0016406Y0145731D01*
X0013344Y0145731D01*
X0013344Y0150231D01*
X0013144Y0150231D01*
X0005844Y0150231D01*
X0005844Y0149969D01*
X0005957Y0149254D01*
X0006181Y0148565D01*
X0006510Y0147920D01*
X0006935Y0147334D01*
X0007447Y0146822D01*
X0008033Y0146396D01*
X0008678Y0146068D01*
X0009367Y0145844D01*
X0010082Y0145731D01*
X0013144Y0145731D01*
X0013144Y0150231D01*
X0013144Y0150431D01*
X0013144Y0150055D02*
X0013344Y0150055D01*
X0013344Y0148457D02*
X0013144Y0148457D01*
X0013144Y0146858D02*
X0013344Y0146858D01*
X0016919Y0144731D02*
X0009569Y0144731D01*
X0007952Y0144061D01*
X0006714Y0142823D01*
X0006044Y0141206D01*
X0006044Y0139455D01*
X0006714Y0137838D01*
X0007952Y0136601D01*
X0009569Y0135931D01*
X0016919Y0135931D01*
X0018536Y0136601D01*
X0019774Y0137838D01*
X0020444Y0139455D01*
X0020444Y0141206D01*
X0019774Y0142823D01*
X0018536Y0144061D01*
X0016919Y0144731D01*
X0018936Y0143661D02*
X0083996Y0143661D01*
X0085594Y0142063D02*
X0020089Y0142063D01*
X0020444Y0140464D02*
X0087193Y0140464D01*
X0088791Y0138866D02*
X0020200Y0138866D01*
X0019203Y0137267D02*
X0090390Y0137267D01*
X0091988Y0135669D02*
X0005800Y0135669D01*
X0005800Y0137267D02*
X0007285Y0137267D01*
X0006288Y0138866D02*
X0005800Y0138866D01*
X0005800Y0140464D02*
X0006044Y0140464D01*
X0005800Y0142063D02*
X0006399Y0142063D01*
X0005800Y0143661D02*
X0007552Y0143661D01*
X0005800Y0145260D02*
X0082397Y0145260D01*
X0080799Y0146858D02*
X0019077Y0146858D01*
X0020252Y0148457D02*
X0079200Y0148457D01*
X0077602Y0150055D02*
X0020644Y0150055D01*
X0020451Y0151654D02*
X0076003Y0151654D01*
X0074405Y0153252D02*
X0019607Y0153252D01*
X0016911Y0154851D02*
X0072806Y0154851D01*
X0071208Y0156449D02*
X0005800Y0156449D01*
X0005800Y0154851D02*
X0009578Y0154851D01*
X0006881Y0153252D02*
X0005800Y0153252D01*
X0005800Y0151654D02*
X0006037Y0151654D01*
X0005844Y0150055D02*
X0005800Y0150055D01*
X0005800Y0148457D02*
X0006236Y0148457D01*
X0005800Y0146858D02*
X0007411Y0146858D01*
X0013144Y0151654D02*
X0013344Y0151654D01*
X0013344Y0153252D02*
X0013144Y0153252D01*
X0013144Y0154851D02*
X0013344Y0154851D01*
X0016919Y0160931D02*
X0009569Y0160931D01*
X0007952Y0161601D01*
X0006714Y0162838D01*
X0006044Y0164455D01*
X0006044Y0166206D01*
X0006714Y0167823D01*
X0007952Y0169061D01*
X0009569Y0169731D01*
X0016919Y0169731D01*
X0018536Y0169061D01*
X0019774Y0167823D01*
X0020444Y0166206D01*
X0020444Y0164455D01*
X0019774Y0162838D01*
X0018536Y0161601D01*
X0016919Y0160931D01*
X0017678Y0161245D02*
X0066412Y0161245D01*
X0064814Y0162843D02*
X0019776Y0162843D01*
X0020438Y0164442D02*
X0063215Y0164442D01*
X0061617Y0166040D02*
X0020444Y0166040D01*
X0019851Y0167639D02*
X0060018Y0167639D01*
X0058420Y0169237D02*
X0018110Y0169237D01*
X0016919Y0170931D02*
X0018536Y0171601D01*
X0019774Y0172838D01*
X0020444Y0174455D01*
X0020444Y0176206D01*
X0019774Y0177823D01*
X0018536Y0179061D01*
X0016919Y0179731D01*
X0009569Y0179731D01*
X0007952Y0179061D01*
X0006714Y0177823D01*
X0006044Y0176206D01*
X0006044Y0174455D01*
X0006714Y0172838D01*
X0007952Y0171601D01*
X0009569Y0170931D01*
X0016919Y0170931D01*
X0019370Y0172434D02*
X0055223Y0172434D01*
X0056821Y0170836D02*
X0005800Y0170836D01*
X0005800Y0172434D02*
X0007118Y0172434D01*
X0006219Y0174033D02*
X0005800Y0174033D01*
X0005800Y0175631D02*
X0006044Y0175631D01*
X0005800Y0177230D02*
X0006468Y0177230D01*
X0005800Y0178828D02*
X0007719Y0178828D01*
X0005800Y0180427D02*
X0047230Y0180427D01*
X0045632Y0182025D02*
X0018961Y0182025D01*
X0020100Y0183624D02*
X0044033Y0183624D01*
X0042435Y0185223D02*
X0020444Y0185223D01*
X0020189Y0186821D02*
X0040836Y0186821D01*
X0039238Y0188420D02*
X0019178Y0188420D01*
X0018552Y0191617D02*
X0036041Y0191617D01*
X0038554Y0196412D02*
X0053664Y0196412D01*
X0052065Y0198011D02*
X0019587Y0198011D01*
X0017213Y0199609D02*
X0051918Y0199609D01*
X0056118Y0199898D02*
X0056181Y0200331D01*
X0056181Y0252531D01*
X0056781Y0253131D01*
X0057181Y0253520D01*
X0068943Y0260353D02*
X0074964Y0260353D01*
X0073264Y0258754D02*
X0070935Y0258754D01*
X0071581Y0257156D02*
X0072656Y0257156D01*
X0072581Y0255557D02*
X0071581Y0255557D01*
X0071581Y0253958D02*
X0072581Y0253958D01*
X0072581Y0252360D02*
X0071581Y0252360D01*
X0071581Y0250761D02*
X0072581Y0250761D01*
X0072850Y0249163D02*
X0071299Y0249163D01*
X0070248Y0247564D02*
X0073831Y0247564D01*
X0077081Y0247564D02*
X0077281Y0247564D01*
X0077281Y0249163D02*
X0077081Y0249163D01*
X0077081Y0250761D02*
X0077281Y0250761D01*
X0077281Y0252360D02*
X0077081Y0252360D01*
X0137181Y0199131D02*
X0138381Y0200331D01*
X0138402Y0200528D01*
X0137181Y0199131D02*
X0137181Y0178835D01*
X0139581Y0183624D02*
X0155193Y0183624D01*
X0155181Y0185223D02*
X0139581Y0185223D01*
X0139581Y0186821D02*
X0155181Y0186821D01*
X0155181Y0188420D02*
X0139581Y0188420D01*
X0139581Y0190018D02*
X0155181Y0190018D01*
X0155181Y0191617D02*
X0139581Y0191617D01*
X0139581Y0193215D02*
X0155181Y0193215D01*
X0155181Y0194814D02*
X0139581Y0194814D01*
X0141216Y0196412D02*
X0154446Y0196412D01*
X0152999Y0198011D02*
X0142663Y0198011D01*
X0143302Y0199609D02*
X0152360Y0199609D01*
X0152360Y0201208D02*
X0143302Y0201208D01*
X0134140Y0198011D02*
X0132255Y0198011D01*
X0130657Y0196412D02*
X0134781Y0196412D01*
X0134781Y0194814D02*
X0129058Y0194814D01*
X0127460Y0193215D02*
X0134781Y0193215D01*
X0134781Y0191617D02*
X0125861Y0191617D01*
X0124263Y0190018D02*
X0134781Y0190018D01*
X0143496Y0182025D02*
X0156182Y0182025D01*
X0155177Y0180427D02*
X0154479Y0180427D01*
X0152486Y0175631D02*
X0143483Y0175631D01*
X0141536Y0153252D02*
X0158141Y0153252D01*
X0155810Y0151654D02*
X0143867Y0151654D01*
X0144655Y0150055D02*
X0155023Y0150055D01*
X0154896Y0148457D02*
X0144781Y0148457D01*
X0144341Y0146858D02*
X0155336Y0146858D01*
X0166851Y0153252D02*
X0188141Y0153252D01*
X0185810Y0151654D02*
X0169182Y0151654D01*
X0169969Y0150055D02*
X0185023Y0150055D01*
X0184896Y0148457D02*
X0170096Y0148457D01*
X0169656Y0146858D02*
X0185336Y0146858D01*
X0186628Y0132472D02*
X0168364Y0132472D01*
X0169631Y0130873D02*
X0185361Y0130873D01*
X0184896Y0129275D02*
X0170096Y0129275D01*
X0169995Y0127676D02*
X0184997Y0127676D01*
X0198364Y0132472D02*
X0209667Y0132472D01*
X0211266Y0134070D02*
X0100896Y0134070D01*
X0099298Y0135669D02*
X0212864Y0135669D01*
X0208069Y0130873D02*
X0199631Y0130873D01*
X0200096Y0129275D02*
X0206470Y0129275D01*
X0204872Y0127676D02*
X0199995Y0127676D01*
X0196411Y0113435D02*
X0188581Y0113435D01*
X0186890Y0112734D01*
X0185596Y0111440D01*
X0184896Y0109750D01*
X0184896Y0107920D01*
X0185596Y0106229D01*
X0186890Y0104935D01*
X0188581Y0104235D01*
X0190397Y0104235D01*
X0190397Y0069017D01*
X0190790Y0068067D01*
X0191681Y0067176D01*
X0191681Y0060337D01*
X0192518Y0058315D01*
X0194066Y0056768D01*
X0196087Y0055931D01*
X0198275Y0055931D01*
X0200297Y0056768D01*
X0201844Y0058315D01*
X0202397Y0059650D01*
X0202397Y0054238D01*
X0201566Y0053893D01*
X0200018Y0052346D01*
X0199181Y0050325D01*
X0199181Y0040337D01*
X0200018Y0038315D01*
X0201566Y0036768D01*
X0203587Y0035931D01*
X0205775Y0035931D01*
X0207797Y0036768D01*
X0209344Y0038315D01*
X0210181Y0040337D01*
X0210181Y0050325D01*
X0209344Y0052346D01*
X0207797Y0053893D01*
X0207565Y0053989D01*
X0207565Y0058086D01*
X0207833Y0057717D01*
X0208468Y0057083D01*
X0209194Y0056556D01*
X0209993Y0056148D01*
X0210846Y0055871D01*
X0211681Y0055739D01*
X0211681Y0064831D01*
X0212681Y0064831D01*
X0212681Y0065831D01*
X0217881Y0065831D01*
X0217881Y0069679D01*
X0217741Y0070565D01*
X0217463Y0071419D01*
X0217056Y0072218D01*
X0216529Y0072944D01*
X0215894Y0073578D01*
X0215169Y0074106D01*
X0214369Y0074513D01*
X0213516Y0074790D01*
X0213326Y0074820D01*
X0221572Y0083067D01*
X0221965Y0084017D01*
X0221965Y0104235D01*
X0223537Y0104235D01*
X0225228Y0104935D01*
X0226522Y0106229D01*
X0227222Y0107920D01*
X0227222Y0109750D01*
X0226522Y0111440D01*
X0225228Y0112734D01*
X0223537Y0113435D01*
X0215707Y0113435D01*
X0214016Y0112734D01*
X0212722Y0111440D01*
X0212022Y0109750D01*
X0212022Y0107920D01*
X0212722Y0106229D01*
X0214016Y0104935D01*
X0215707Y0104235D01*
X0216797Y0104235D01*
X0216797Y0085601D01*
X0203517Y0072322D01*
X0202790Y0071595D01*
X0202473Y0070828D01*
X0201844Y0072346D01*
X0200297Y0073893D01*
X0198275Y0074731D01*
X0196087Y0074731D01*
X0195565Y0074515D01*
X0195565Y0104235D01*
X0196411Y0104235D01*
X0198102Y0104935D01*
X0199396Y0106229D01*
X0200096Y0107920D01*
X0200096Y0109750D01*
X0199396Y0111440D01*
X0198102Y0112734D01*
X0196411Y0113435D01*
X0196761Y0113289D02*
X0215357Y0113289D01*
X0212973Y0111691D02*
X0199145Y0111691D01*
X0199954Y0110092D02*
X0212164Y0110092D01*
X0212022Y0108494D02*
X0200096Y0108494D01*
X0199672Y0106895D02*
X0212446Y0106895D01*
X0213654Y0105297D02*
X0198464Y0105297D01*
X0195565Y0103698D02*
X0216797Y0103698D01*
X0216797Y0102100D02*
X0195565Y0102100D01*
X0195565Y0100501D02*
X0216797Y0100501D01*
X0216797Y0098903D02*
X0195565Y0098903D01*
X0195565Y0097304D02*
X0216797Y0097304D01*
X0216797Y0095706D02*
X0195565Y0095706D01*
X0195565Y0094107D02*
X0216797Y0094107D01*
X0216797Y0092509D02*
X0195565Y0092509D01*
X0195565Y0090910D02*
X0216797Y0090910D01*
X0216797Y0089312D02*
X0195565Y0089312D01*
X0195565Y0087713D02*
X0216797Y0087713D01*
X0216797Y0086115D02*
X0195565Y0086115D01*
X0195565Y0084516D02*
X0215712Y0084516D01*
X0214113Y0082918D02*
X0195565Y0082918D01*
X0195565Y0081319D02*
X0212515Y0081319D01*
X0210916Y0079721D02*
X0195565Y0079721D01*
X0195565Y0078122D02*
X0209318Y0078122D01*
X0207719Y0076524D02*
X0195565Y0076524D01*
X0195565Y0074925D02*
X0206121Y0074925D01*
X0204522Y0073327D02*
X0200863Y0073327D01*
X0202100Y0071728D02*
X0202924Y0071728D01*
X0213430Y0074925D02*
X0246797Y0074925D01*
X0246797Y0073327D02*
X0245863Y0073327D01*
X0246797Y0076524D02*
X0215029Y0076524D01*
X0216627Y0078122D02*
X0246797Y0078122D01*
X0246797Y0079721D02*
X0218226Y0079721D01*
X0219824Y0081319D02*
X0246797Y0081319D01*
X0246797Y0082918D02*
X0221423Y0082918D01*
X0221965Y0084516D02*
X0246797Y0084516D01*
X0246797Y0086115D02*
X0221965Y0086115D01*
X0221965Y0087713D02*
X0246797Y0087713D01*
X0246797Y0089312D02*
X0221965Y0089312D01*
X0221965Y0090910D02*
X0246797Y0090910D01*
X0246797Y0092509D02*
X0221965Y0092509D01*
X0221965Y0094107D02*
X0246797Y0094107D01*
X0246797Y0095706D02*
X0221965Y0095706D01*
X0221965Y0097304D02*
X0246797Y0097304D01*
X0246797Y0098903D02*
X0221965Y0098903D01*
X0221965Y0100501D02*
X0246797Y0100501D01*
X0246797Y0102100D02*
X0221965Y0102100D01*
X0221965Y0103698D02*
X0246797Y0103698D01*
X0243654Y0105297D02*
X0225590Y0105297D01*
X0226798Y0106895D02*
X0242446Y0106895D01*
X0242022Y0108494D02*
X0227222Y0108494D01*
X0227080Y0110092D02*
X0242164Y0110092D01*
X0242973Y0111691D02*
X0226271Y0111691D01*
X0223887Y0113289D02*
X0245357Y0113289D01*
X0245117Y0124479D02*
X0224127Y0124479D01*
X0226370Y0126078D02*
X0242874Y0126078D01*
X0242123Y0127676D02*
X0227121Y0127676D01*
X0227222Y0129275D02*
X0242022Y0129275D01*
X0242487Y0130873D02*
X0226757Y0130873D01*
X0230768Y0142063D02*
X0252994Y0142063D01*
X0251396Y0143661D02*
X0232366Y0143661D01*
X0233965Y0145260D02*
X0243692Y0145260D01*
X0242462Y0146858D02*
X0235563Y0146858D01*
X0237162Y0148457D02*
X0242022Y0148457D01*
X0242149Y0150055D02*
X0238760Y0150055D01*
X0240359Y0151654D02*
X0242936Y0151654D01*
X0241957Y0153252D02*
X0245267Y0153252D01*
X0258705Y0143661D02*
X0324678Y0143661D01*
X0323525Y0142063D02*
X0260304Y0142063D01*
X0261902Y0140464D02*
X0323170Y0140464D01*
X0323414Y0138866D02*
X0263501Y0138866D01*
X0265099Y0137267D02*
X0324411Y0137267D01*
X0335640Y0134070D02*
X0337617Y0134070D01*
X0337617Y0132472D02*
X0337046Y0132472D01*
X0337570Y0130873D02*
X0337617Y0130873D01*
X0337617Y0129275D02*
X0337495Y0129275D01*
X0337617Y0127676D02*
X0336738Y0127676D01*
X0337617Y0126078D02*
X0334400Y0126078D01*
X0304207Y0100501D02*
X0251965Y0100501D01*
X0251965Y0098903D02*
X0303808Y0098903D01*
X0303808Y0097304D02*
X0251965Y0097304D01*
X0251965Y0095706D02*
X0304725Y0095706D01*
X0278806Y0089312D02*
X0264737Y0089312D01*
X0266336Y0087713D02*
X0276613Y0087713D01*
X0275970Y0086115D02*
X0266896Y0086115D01*
X0266896Y0084516D02*
X0275970Y0084516D01*
X0276643Y0082918D02*
X0266306Y0082918D01*
X0264707Y0081319D02*
X0278879Y0081319D01*
X0277022Y0078122D02*
X0265644Y0078122D01*
X0262581Y0075531D02*
X0262496Y0075331D01*
X0262581Y0075531D02*
X0284781Y0075531D01*
X0285370Y0075331D01*
X0277892Y0071728D02*
X0264833Y0071728D01*
X0262496Y0081319D02*
X0262496Y0081319D01*
X0262496Y0082918D02*
X0262496Y0082918D01*
X0262496Y0084516D02*
X0262496Y0084516D01*
X0258686Y0082918D02*
X0251965Y0082918D01*
X0251965Y0084516D02*
X0258096Y0084516D01*
X0258096Y0086115D02*
X0251965Y0086115D01*
X0251965Y0087713D02*
X0258656Y0087713D01*
X0238499Y0073327D02*
X0230863Y0073327D01*
X0230297Y0073893D02*
X0231844Y0072346D01*
X0232681Y0070325D01*
X0232681Y0060337D01*
X0231844Y0058315D01*
X0230297Y0056768D01*
X0228275Y0055931D01*
X0226087Y0055931D01*
X0224066Y0056768D01*
X0222518Y0058315D01*
X0221681Y0060337D01*
X0221681Y0070325D01*
X0222518Y0072346D01*
X0224066Y0073893D01*
X0226087Y0074731D01*
X0228275Y0074731D01*
X0230297Y0073893D01*
X0232100Y0071728D02*
X0237262Y0071728D01*
X0236681Y0070130D02*
X0232681Y0070130D01*
X0232681Y0068531D02*
X0236681Y0068531D01*
X0236681Y0066933D02*
X0232681Y0066933D01*
X0232681Y0065334D02*
X0236681Y0065334D01*
X0236681Y0063736D02*
X0232681Y0063736D01*
X0232681Y0062137D02*
X0236681Y0062137D01*
X0236681Y0060539D02*
X0232681Y0060539D01*
X0232103Y0058940D02*
X0237260Y0058940D01*
X0238492Y0057342D02*
X0230870Y0057342D01*
X0232172Y0054145D02*
X0222592Y0054145D01*
X0222669Y0054106D02*
X0221869Y0054513D01*
X0221016Y0054790D01*
X0220181Y0054923D01*
X0220181Y0045831D01*
X0219181Y0045831D01*
X0219181Y0054923D01*
X0218346Y0054790D01*
X0217493Y0054513D01*
X0216694Y0054106D01*
X0215968Y0053578D01*
X0215333Y0052944D01*
X0214806Y0052218D01*
X0214399Y0051419D01*
X0214121Y0050565D01*
X0213981Y0049679D01*
X0213981Y0045831D01*
X0219181Y0045831D01*
X0219181Y0044831D01*
X0213981Y0044831D01*
X0213981Y0040982D01*
X0214121Y0040096D01*
X0214399Y0039243D01*
X0214806Y0038443D01*
X0215333Y0037717D01*
X0215968Y0037083D01*
X0216694Y0036556D01*
X0217493Y0036148D01*
X0218346Y0035871D01*
X0219181Y0035739D01*
X0219181Y0044831D01*
X0220181Y0044831D01*
X0220181Y0045831D01*
X0225381Y0045831D01*
X0225381Y0049679D01*
X0225241Y0050565D01*
X0224963Y0051419D01*
X0224556Y0052218D01*
X0224029Y0052944D01*
X0223394Y0053578D01*
X0222669Y0054106D01*
X0224318Y0052546D02*
X0230218Y0052546D01*
X0229439Y0050948D02*
X0225117Y0050948D01*
X0225381Y0049349D02*
X0229181Y0049349D01*
X0229181Y0047751D02*
X0225381Y0047751D01*
X0225381Y0046152D02*
X0229181Y0046152D01*
X0229181Y0044554D02*
X0225381Y0044554D01*
X0225381Y0044831D02*
X0220181Y0044831D01*
X0220181Y0035739D01*
X0221016Y0035871D01*
X0221869Y0036148D01*
X0222669Y0036556D01*
X0223394Y0037083D01*
X0224029Y0037717D01*
X0224556Y0038443D01*
X0224963Y0039243D01*
X0225241Y0040096D01*
X0225381Y0040982D01*
X0225381Y0044831D01*
X0225381Y0042955D02*
X0229181Y0042955D01*
X0229181Y0041356D02*
X0225381Y0041356D01*
X0225131Y0039758D02*
X0229421Y0039758D01*
X0230174Y0038159D02*
X0224350Y0038159D01*
X0222676Y0036561D02*
X0232066Y0036561D01*
X0220181Y0036561D02*
X0219181Y0036561D01*
X0219181Y0038159D02*
X0220181Y0038159D01*
X0220181Y0039758D02*
X0219181Y0039758D01*
X0219181Y0041356D02*
X0220181Y0041356D01*
X0220181Y0042955D02*
X0219181Y0042955D01*
X0219181Y0044554D02*
X0220181Y0044554D01*
X0219681Y0045331D02*
X0219381Y0045531D01*
X0219381Y0058131D01*
X0212181Y0065331D01*
X0212681Y0065334D02*
X0221681Y0065334D01*
X0221681Y0063736D02*
X0217881Y0063736D01*
X0217881Y0064831D02*
X0212681Y0064831D01*
X0212681Y0055739D01*
X0213516Y0055871D01*
X0214369Y0056148D01*
X0215169Y0056556D01*
X0215894Y0057083D01*
X0216529Y0057717D01*
X0217056Y0058443D01*
X0217463Y0059243D01*
X0217741Y0060096D01*
X0217881Y0060982D01*
X0217881Y0064831D01*
X0217881Y0066933D02*
X0221681Y0066933D01*
X0221681Y0068531D02*
X0217881Y0068531D01*
X0217810Y0070130D02*
X0221681Y0070130D01*
X0222262Y0071728D02*
X0217306Y0071728D01*
X0216146Y0073327D02*
X0223499Y0073327D01*
X0212681Y0063736D02*
X0211681Y0063736D01*
X0211681Y0062137D02*
X0212681Y0062137D01*
X0212681Y0060539D02*
X0211681Y0060539D01*
X0211681Y0058940D02*
X0212681Y0058940D01*
X0212681Y0057342D02*
X0211681Y0057342D01*
X0211681Y0055743D02*
X0212681Y0055743D01*
X0212708Y0055743D02*
X0241539Y0055743D01*
X0239940Y0054145D02*
X0237190Y0054145D01*
X0223492Y0057342D02*
X0216153Y0057342D01*
X0217309Y0058940D02*
X0222260Y0058940D01*
X0221681Y0060539D02*
X0217811Y0060539D01*
X0217881Y0062137D02*
X0221681Y0062137D01*
X0220181Y0054145D02*
X0219181Y0054145D01*
X0219181Y0052546D02*
X0220181Y0052546D01*
X0220181Y0050948D02*
X0219181Y0050948D01*
X0219181Y0049349D02*
X0220181Y0049349D01*
X0220181Y0047751D02*
X0219181Y0047751D01*
X0219181Y0046152D02*
X0220181Y0046152D01*
X0213981Y0046152D02*
X0210181Y0046152D01*
X0210181Y0044554D02*
X0213981Y0044554D01*
X0213981Y0042955D02*
X0210181Y0042955D01*
X0210181Y0041356D02*
X0213981Y0041356D01*
X0214231Y0039758D02*
X0209941Y0039758D01*
X0209188Y0038159D02*
X0215012Y0038159D01*
X0216686Y0036561D02*
X0207297Y0036561D01*
X0202066Y0036561D02*
X0192297Y0036561D01*
X0192797Y0036768D02*
X0190775Y0035931D01*
X0188587Y0035931D01*
X0186566Y0036768D01*
X0185018Y0038315D01*
X0184181Y0040337D01*
X0184181Y0050325D01*
X0185018Y0052346D01*
X0186566Y0053893D01*
X0188587Y0054731D01*
X0190775Y0054731D01*
X0192797Y0053893D01*
X0194344Y0052346D01*
X0195181Y0050325D01*
X0195181Y0040337D01*
X0194344Y0038315D01*
X0192797Y0036768D01*
X0194188Y0038159D02*
X0200174Y0038159D01*
X0199421Y0039758D02*
X0194941Y0039758D01*
X0195181Y0041356D02*
X0199181Y0041356D01*
X0199181Y0042955D02*
X0195181Y0042955D01*
X0195181Y0044554D02*
X0199181Y0044554D01*
X0199181Y0046152D02*
X0195181Y0046152D01*
X0195181Y0047751D02*
X0199181Y0047751D01*
X0199181Y0049349D02*
X0195181Y0049349D01*
X0194923Y0050948D02*
X0199439Y0050948D01*
X0200218Y0052546D02*
X0194144Y0052546D01*
X0192190Y0054145D02*
X0202172Y0054145D01*
X0202397Y0055743D02*
X0182708Y0055743D01*
X0182681Y0055743D02*
X0181681Y0055743D01*
X0181681Y0055739D02*
X0181681Y0064831D01*
X0176481Y0064831D01*
X0176481Y0060982D01*
X0176621Y0060096D01*
X0176899Y0059243D01*
X0177306Y0058443D01*
X0177833Y0057717D01*
X0178468Y0057083D01*
X0179194Y0056556D01*
X0179993Y0056148D01*
X0180846Y0055871D01*
X0181681Y0055739D01*
X0181654Y0055743D02*
X0152708Y0055743D01*
X0152681Y0055743D02*
X0151681Y0055743D01*
X0151681Y0055739D02*
X0151681Y0064831D01*
X0146481Y0064831D01*
X0146481Y0060982D01*
X0146621Y0060096D01*
X0146899Y0059243D01*
X0147306Y0058443D01*
X0147833Y0057717D01*
X0148468Y0057083D01*
X0149194Y0056556D01*
X0149993Y0056148D01*
X0150846Y0055871D01*
X0151681Y0055739D01*
X0151654Y0055743D02*
X0102565Y0055743D01*
X0102565Y0054145D02*
X0112172Y0054145D01*
X0111566Y0053893D02*
X0110018Y0052346D01*
X0109181Y0050325D01*
X0109181Y0040337D01*
X0110018Y0038315D01*
X0111566Y0036768D01*
X0113587Y0035931D01*
X0115775Y0035931D01*
X0117797Y0036768D01*
X0119344Y0038315D01*
X0120181Y0040337D01*
X0120181Y0050325D01*
X0119344Y0052346D01*
X0117797Y0053893D01*
X0115775Y0054731D01*
X0113587Y0054731D01*
X0111566Y0053893D01*
X0110218Y0052546D02*
X0104144Y0052546D01*
X0104344Y0052346D02*
X0102797Y0053893D01*
X0102565Y0053989D01*
X0102565Y0058268D01*
X0104066Y0056768D01*
X0106087Y0055931D01*
X0108275Y0055931D01*
X0110297Y0056768D01*
X0111844Y0058315D01*
X0112681Y0060337D01*
X0112681Y0070325D01*
X0111844Y0072346D01*
X0110297Y0073893D01*
X0108275Y0074731D01*
X0108236Y0074731D01*
X0109372Y0075867D01*
X0109765Y0076817D01*
X0109765Y0104235D01*
X0111096Y0104235D01*
X0112787Y0104935D01*
X0114081Y0106229D01*
X0114781Y0107920D01*
X0114781Y0109750D01*
X0114081Y0111440D01*
X0112787Y0112734D01*
X0111096Y0113435D01*
X0103266Y0113435D01*
X0101575Y0112734D01*
X0100281Y0111440D01*
X0099581Y0109750D01*
X0099581Y0107920D01*
X0100281Y0106229D01*
X0101575Y0104935D01*
X0103266Y0104235D01*
X0104597Y0104235D01*
X0104597Y0078401D01*
X0098517Y0072322D01*
X0097790Y0071595D01*
X0097575Y0071075D01*
X0097463Y0071419D01*
X0097056Y0072218D01*
X0096529Y0072944D01*
X0095894Y0073578D01*
X0095169Y0074106D01*
X0094369Y0074513D01*
X0093516Y0074790D01*
X0092681Y0074923D01*
X0092681Y0065831D01*
X0091681Y0065831D01*
X0091681Y0074923D01*
X0090846Y0074790D01*
X0089993Y0074513D01*
X0089194Y0074106D01*
X0088468Y0073578D01*
X0087833Y0072944D01*
X0087306Y0072218D01*
X0086899Y0071419D01*
X0086621Y0070565D01*
X0086481Y0069679D01*
X0086481Y0065831D01*
X0091681Y0065831D01*
X0091681Y0064831D01*
X0086481Y0064831D01*
X0086481Y0060982D01*
X0086621Y0060096D01*
X0086899Y0059243D01*
X0087306Y0058443D01*
X0087833Y0057717D01*
X0088468Y0057083D01*
X0089194Y0056556D01*
X0089993Y0056148D01*
X0090846Y0055871D01*
X0091681Y0055739D01*
X0091681Y0064831D01*
X0092681Y0064831D01*
X0092681Y0055739D01*
X0093516Y0055871D01*
X0094369Y0056148D01*
X0095169Y0056556D01*
X0095894Y0057083D01*
X0096529Y0057717D01*
X0097056Y0058443D01*
X0097397Y0059112D01*
X0097397Y0054238D01*
X0096566Y0053893D01*
X0095018Y0052346D01*
X0094181Y0050325D01*
X0094181Y0040337D01*
X0095018Y0038315D01*
X0096566Y0036768D01*
X0098587Y0035931D01*
X0100775Y0035931D01*
X0102797Y0036768D01*
X0104344Y0038315D01*
X0105181Y0040337D01*
X0105181Y0050325D01*
X0104344Y0052346D01*
X0104923Y0050948D02*
X0109439Y0050948D01*
X0109181Y0049349D02*
X0105181Y0049349D01*
X0105181Y0047751D02*
X0109181Y0047751D01*
X0109181Y0046152D02*
X0105181Y0046152D01*
X0105181Y0044554D02*
X0109181Y0044554D01*
X0109181Y0042955D02*
X0105181Y0042955D01*
X0105181Y0041356D02*
X0109181Y0041356D01*
X0109421Y0039758D02*
X0104941Y0039758D01*
X0104188Y0038159D02*
X0110174Y0038159D01*
X0112066Y0036561D02*
X0102297Y0036561D01*
X0097066Y0036561D02*
X0073986Y0036561D01*
X0073986Y0038159D02*
X0095174Y0038159D01*
X0094421Y0039758D02*
X0073986Y0039758D01*
X0073986Y0041356D02*
X0094181Y0041356D01*
X0094181Y0042955D02*
X0073986Y0042955D01*
X0073986Y0044554D02*
X0094181Y0044554D01*
X0094181Y0046152D02*
X0073986Y0046152D01*
X0073981Y0047751D02*
X0094181Y0047751D01*
X0094181Y0049349D02*
X0073576Y0049349D01*
X0073981Y0048235D02*
X0073981Y0048235D01*
X0072994Y0050948D02*
X0094439Y0050948D01*
X0095218Y0052546D02*
X0072064Y0052546D01*
X0072678Y0051814D02*
X0072678Y0051814D01*
X0070723Y0054145D02*
X0097172Y0054145D01*
X0097397Y0055743D02*
X0092708Y0055743D01*
X0092681Y0055743D02*
X0091681Y0055743D01*
X0091654Y0055743D02*
X0068478Y0055743D01*
X0070230Y0054732D02*
X0070230Y0054732D01*
X0070230Y0054732D01*
X0063181Y0057297D02*
X0063181Y0057297D01*
X0059430Y0056636D02*
X0059430Y0056636D01*
X0057884Y0055743D02*
X0005800Y0055743D01*
X0005800Y0054145D02*
X0055639Y0054145D01*
X0056132Y0054732D02*
X0056132Y0054732D01*
X0054298Y0052546D02*
X0005800Y0052546D01*
X0005800Y0050948D02*
X0053368Y0050948D01*
X0053684Y0051814D02*
X0053684Y0051814D01*
X0052787Y0049349D02*
X0005800Y0049349D01*
X0005800Y0047751D02*
X0052381Y0047751D01*
X0052376Y0046152D02*
X0005800Y0046152D01*
X0005800Y0044554D02*
X0052376Y0044554D01*
X0052376Y0042955D02*
X0005800Y0042955D01*
X0005800Y0041356D02*
X0052376Y0041356D01*
X0052376Y0039758D02*
X0005800Y0039758D01*
X0005800Y0038159D02*
X0052376Y0038159D01*
X0052376Y0036561D02*
X0005800Y0036561D01*
X0005800Y0057342D02*
X0088209Y0057342D01*
X0087053Y0058940D02*
X0005800Y0058940D01*
X0005800Y0060539D02*
X0086551Y0060539D01*
X0086481Y0062137D02*
X0005800Y0062137D01*
X0005800Y0063736D02*
X0086481Y0063736D01*
X0086481Y0066933D02*
X0005800Y0066933D01*
X0005800Y0068531D02*
X0086481Y0068531D01*
X0086552Y0070130D02*
X0005800Y0070130D01*
X0005800Y0071728D02*
X0087056Y0071728D01*
X0088216Y0073327D02*
X0005800Y0073327D01*
X0005800Y0074925D02*
X0101121Y0074925D01*
X0099522Y0073327D02*
X0096146Y0073327D01*
X0097306Y0071728D02*
X0097924Y0071728D01*
X0102719Y0076524D02*
X0005800Y0076524D01*
X0005800Y0078122D02*
X0104318Y0078122D01*
X0104597Y0079721D02*
X0005800Y0079721D01*
X0005800Y0081319D02*
X0104597Y0081319D01*
X0104597Y0082918D02*
X0005800Y0082918D01*
X0005800Y0084516D02*
X0104597Y0084516D01*
X0104597Y0086115D02*
X0005800Y0086115D01*
X0005800Y0087713D02*
X0104597Y0087713D01*
X0104597Y0089312D02*
X0005800Y0089312D01*
X0005800Y0090910D02*
X0104597Y0090910D01*
X0104597Y0092509D02*
X0005800Y0092509D01*
X0005800Y0094107D02*
X0104597Y0094107D01*
X0104597Y0095706D02*
X0005800Y0095706D01*
X0005800Y0097304D02*
X0104597Y0097304D01*
X0104597Y0098903D02*
X0005800Y0098903D01*
X0005800Y0100501D02*
X0067588Y0100501D01*
X0064998Y0102100D02*
X0005800Y0102100D01*
X0005800Y0103698D02*
X0063400Y0103698D01*
X0062367Y0105297D02*
X0005800Y0105297D01*
X0005800Y0106895D02*
X0061555Y0106895D01*
X0061127Y0108494D02*
X0005800Y0108494D01*
X0005800Y0110092D02*
X0060881Y0110092D01*
X0060881Y0111691D02*
X0005800Y0111691D01*
X0005800Y0113289D02*
X0061123Y0113289D01*
X0061552Y0114888D02*
X0005800Y0114888D01*
X0005800Y0116487D02*
X0062360Y0116487D01*
X0063388Y0118085D02*
X0005800Y0118085D01*
X0005800Y0119684D02*
X0029413Y0119684D01*
X0027767Y0121282D02*
X0005800Y0121282D01*
X0005800Y0122881D02*
X0027381Y0122881D01*
X0027726Y0124479D02*
X0005800Y0124479D01*
X0005800Y0126078D02*
X0009214Y0126078D01*
X0006876Y0127676D02*
X0005800Y0127676D01*
X0005800Y0129275D02*
X0006119Y0129275D01*
X0006044Y0130873D02*
X0005800Y0130873D01*
X0005800Y0132472D02*
X0006568Y0132472D01*
X0005800Y0134070D02*
X0007974Y0134070D01*
X0018514Y0134070D02*
X0093587Y0134070D01*
X0096180Y0126078D02*
X0032791Y0126078D01*
X0029171Y0126078D02*
X0017274Y0126078D01*
X0032549Y0119684D02*
X0064986Y0119684D01*
X0079376Y0119684D02*
X0098374Y0119684D01*
X0100333Y0118085D02*
X0080974Y0118085D01*
X0083239Y0113289D02*
X0102916Y0113289D01*
X0100532Y0111691D02*
X0083481Y0111691D01*
X0083481Y0110092D02*
X0099723Y0110092D01*
X0099581Y0108494D02*
X0083236Y0108494D01*
X0082807Y0106895D02*
X0100005Y0106895D01*
X0101213Y0105297D02*
X0081996Y0105297D01*
X0080963Y0103698D02*
X0104597Y0103698D01*
X0104597Y0102100D02*
X0079364Y0102100D01*
X0076774Y0100501D02*
X0104597Y0100501D01*
X0109765Y0100501D02*
X0134597Y0100501D01*
X0134597Y0098903D02*
X0109765Y0098903D01*
X0109765Y0097304D02*
X0134597Y0097304D01*
X0134597Y0095706D02*
X0109765Y0095706D01*
X0109765Y0094107D02*
X0134597Y0094107D01*
X0134597Y0092509D02*
X0109765Y0092509D01*
X0109765Y0090910D02*
X0134597Y0090910D01*
X0134597Y0089312D02*
X0109765Y0089312D01*
X0109765Y0087713D02*
X0134597Y0087713D01*
X0134597Y0086115D02*
X0109765Y0086115D01*
X0109765Y0084516D02*
X0134597Y0084516D01*
X0134597Y0082918D02*
X0109765Y0082918D01*
X0109765Y0081319D02*
X0134597Y0081319D01*
X0134597Y0079721D02*
X0109765Y0079721D01*
X0109765Y0078122D02*
X0134597Y0078122D01*
X0134597Y0076524D02*
X0109644Y0076524D01*
X0108430Y0074925D02*
X0134597Y0074925D01*
X0134597Y0074113D02*
X0134066Y0073893D01*
X0132518Y0072346D01*
X0131681Y0070325D01*
X0131681Y0060337D01*
X0132518Y0058315D01*
X0134066Y0056768D01*
X0136087Y0055931D01*
X0138275Y0055931D01*
X0140297Y0056768D01*
X0141844Y0058315D01*
X0142681Y0060337D01*
X0142681Y0070325D01*
X0141844Y0072346D01*
X0140297Y0073893D01*
X0139765Y0074113D01*
X0139765Y0104235D01*
X0141096Y0104235D01*
X0142787Y0104935D01*
X0144081Y0106229D01*
X0144781Y0107920D01*
X0144781Y0109750D01*
X0144081Y0111440D01*
X0142787Y0112734D01*
X0141096Y0113435D01*
X0133266Y0113435D01*
X0131575Y0112734D01*
X0130281Y0111440D01*
X0129581Y0109750D01*
X0129581Y0107920D01*
X0130281Y0106229D01*
X0131575Y0104935D01*
X0133266Y0104235D01*
X0134597Y0104235D01*
X0134597Y0074113D01*
X0133499Y0073327D02*
X0125863Y0073327D01*
X0125297Y0073893D02*
X0123275Y0074731D01*
X0121087Y0074731D01*
X0119066Y0073893D01*
X0117518Y0072346D01*
X0116681Y0070325D01*
X0116681Y0060337D01*
X0117518Y0058315D01*
X0119066Y0056768D01*
X0121087Y0055931D01*
X0123275Y0055931D01*
X0125297Y0056768D01*
X0126844Y0058315D01*
X0127681Y0060337D01*
X0127681Y0070325D01*
X0126844Y0072346D01*
X0125297Y0073893D01*
X0127100Y0071728D02*
X0132262Y0071728D01*
X0131681Y0070130D02*
X0127681Y0070130D01*
X0127681Y0068531D02*
X0131681Y0068531D01*
X0131681Y0066933D02*
X0127681Y0066933D01*
X0127681Y0065334D02*
X0131681Y0065334D01*
X0131681Y0063736D02*
X0127681Y0063736D01*
X0127681Y0062137D02*
X0131681Y0062137D01*
X0131681Y0060539D02*
X0127681Y0060539D01*
X0127103Y0058940D02*
X0132260Y0058940D01*
X0133492Y0057342D02*
X0125870Y0057342D01*
X0127172Y0054145D02*
X0117190Y0054145D01*
X0119144Y0052546D02*
X0125218Y0052546D01*
X0125018Y0052346D02*
X0124181Y0050325D01*
X0124181Y0040337D01*
X0125018Y0038315D01*
X0126566Y0036768D01*
X0128587Y0035931D01*
X0130775Y0035931D01*
X0132797Y0036768D01*
X0134344Y0038315D01*
X0135181Y0040337D01*
X0135181Y0050325D01*
X0134344Y0052346D01*
X0132797Y0053893D01*
X0130775Y0054731D01*
X0128587Y0054731D01*
X0126566Y0053893D01*
X0125018Y0052346D01*
X0124439Y0050948D02*
X0119923Y0050948D01*
X0120181Y0049349D02*
X0124181Y0049349D01*
X0124181Y0047751D02*
X0120181Y0047751D01*
X0120181Y0046152D02*
X0124181Y0046152D01*
X0124181Y0044554D02*
X0120181Y0044554D01*
X0120181Y0042955D02*
X0124181Y0042955D01*
X0124181Y0041356D02*
X0120181Y0041356D01*
X0119941Y0039758D02*
X0124421Y0039758D01*
X0125174Y0038159D02*
X0119188Y0038159D01*
X0117297Y0036561D02*
X0127066Y0036561D01*
X0132297Y0036561D02*
X0142066Y0036561D01*
X0141566Y0036768D02*
X0143587Y0035931D01*
X0145775Y0035931D01*
X0147797Y0036768D01*
X0149344Y0038315D01*
X0150181Y0040337D01*
X0150181Y0050325D01*
X0149344Y0052346D01*
X0147797Y0053893D01*
X0145775Y0054731D01*
X0143587Y0054731D01*
X0141566Y0053893D01*
X0140018Y0052346D01*
X0139181Y0050325D01*
X0139181Y0040337D01*
X0140018Y0038315D01*
X0141566Y0036768D01*
X0140174Y0038159D02*
X0134188Y0038159D01*
X0134941Y0039758D02*
X0139421Y0039758D01*
X0139181Y0041356D02*
X0135181Y0041356D01*
X0135181Y0042955D02*
X0139181Y0042955D01*
X0139181Y0044554D02*
X0135181Y0044554D01*
X0135181Y0046152D02*
X0139181Y0046152D01*
X0139181Y0047751D02*
X0135181Y0047751D01*
X0135181Y0049349D02*
X0139181Y0049349D01*
X0139439Y0050948D02*
X0134923Y0050948D01*
X0134144Y0052546D02*
X0140218Y0052546D01*
X0142172Y0054145D02*
X0132190Y0054145D01*
X0140870Y0057342D02*
X0148209Y0057342D01*
X0147053Y0058940D02*
X0142103Y0058940D01*
X0142681Y0060539D02*
X0146551Y0060539D01*
X0146481Y0062137D02*
X0142681Y0062137D01*
X0142681Y0063736D02*
X0146481Y0063736D01*
X0146481Y0065831D02*
X0151681Y0065831D01*
X0151681Y0074923D01*
X0150846Y0074790D01*
X0149993Y0074513D01*
X0149194Y0074106D01*
X0148468Y0073578D01*
X0147833Y0072944D01*
X0147306Y0072218D01*
X0146899Y0071419D01*
X0146621Y0070565D01*
X0146481Y0069679D01*
X0146481Y0065831D01*
X0146481Y0066933D02*
X0142681Y0066933D01*
X0142681Y0068531D02*
X0146481Y0068531D01*
X0146552Y0070130D02*
X0142681Y0070130D01*
X0142100Y0071728D02*
X0147056Y0071728D01*
X0148216Y0073327D02*
X0140863Y0073327D01*
X0139765Y0074925D02*
X0160397Y0074925D01*
X0160397Y0073327D02*
X0156146Y0073327D01*
X0155894Y0073578D02*
X0155169Y0074106D01*
X0154369Y0074513D01*
X0153516Y0074790D01*
X0152681Y0074923D01*
X0152681Y0065831D01*
X0151681Y0065831D01*
X0151681Y0064831D01*
X0152681Y0064831D01*
X0152681Y0065831D01*
X0157881Y0065831D01*
X0157881Y0069679D01*
X0157741Y0070565D01*
X0157463Y0071419D01*
X0157056Y0072218D01*
X0156529Y0072944D01*
X0155894Y0073578D01*
X0157306Y0071728D02*
X0160397Y0071728D01*
X0160397Y0070130D02*
X0157810Y0070130D01*
X0157881Y0068531D02*
X0160598Y0068531D01*
X0160790Y0068067D02*
X0161681Y0067176D01*
X0161681Y0060337D01*
X0162518Y0058315D01*
X0164066Y0056768D01*
X0166087Y0055931D01*
X0168275Y0055931D01*
X0170297Y0056768D01*
X0171844Y0058315D01*
X0172681Y0060337D01*
X0172681Y0070325D01*
X0171844Y0072346D01*
X0170297Y0073893D01*
X0168275Y0074731D01*
X0166087Y0074731D01*
X0165565Y0074515D01*
X0165565Y0104235D01*
X0166411Y0104235D01*
X0168102Y0104935D01*
X0169396Y0106229D01*
X0170096Y0107920D01*
X0170096Y0109750D01*
X0169396Y0111440D01*
X0168102Y0112734D01*
X0166411Y0113435D01*
X0158581Y0113435D01*
X0156890Y0112734D01*
X0155596Y0111440D01*
X0154896Y0109750D01*
X0154896Y0107920D01*
X0155596Y0106229D01*
X0156890Y0104935D01*
X0158581Y0104235D01*
X0160397Y0104235D01*
X0160397Y0069017D01*
X0160790Y0068067D01*
X0161681Y0066933D02*
X0157881Y0066933D01*
X0157881Y0064831D02*
X0152681Y0064831D01*
X0152681Y0055739D01*
X0153516Y0055871D01*
X0154369Y0056148D01*
X0155169Y0056556D01*
X0155894Y0057083D01*
X0156529Y0057717D01*
X0157056Y0058443D01*
X0157463Y0059243D01*
X0157741Y0060096D01*
X0157881Y0060982D01*
X0157881Y0064831D01*
X0157881Y0063736D02*
X0161681Y0063736D01*
X0161681Y0065334D02*
X0152681Y0065334D01*
X0152181Y0065331D02*
X0155181Y0065331D01*
X0164781Y0055731D01*
X0172581Y0055731D01*
X0182181Y0065331D01*
X0181681Y0065334D02*
X0172681Y0065334D01*
X0172681Y0063736D02*
X0176481Y0063736D01*
X0176481Y0062137D02*
X0172681Y0062137D01*
X0172681Y0060539D02*
X0176551Y0060539D01*
X0177053Y0058940D02*
X0172103Y0058940D01*
X0170870Y0057342D02*
X0178209Y0057342D01*
X0177190Y0054145D02*
X0187172Y0054145D01*
X0185218Y0052546D02*
X0179144Y0052546D01*
X0179344Y0052346D02*
X0177797Y0053893D01*
X0175775Y0054731D01*
X0173587Y0054731D01*
X0171566Y0053893D01*
X0170018Y0052346D01*
X0169181Y0050325D01*
X0169181Y0040337D01*
X0170018Y0038315D01*
X0171566Y0036768D01*
X0173587Y0035931D01*
X0175775Y0035931D01*
X0177797Y0036768D01*
X0179344Y0038315D01*
X0180181Y0040337D01*
X0180181Y0050325D01*
X0179344Y0052346D01*
X0179923Y0050948D02*
X0184439Y0050948D01*
X0184181Y0049349D02*
X0180181Y0049349D01*
X0180181Y0047751D02*
X0184181Y0047751D01*
X0184181Y0046152D02*
X0180181Y0046152D01*
X0180181Y0044554D02*
X0184181Y0044554D01*
X0184181Y0042955D02*
X0180181Y0042955D01*
X0180181Y0041356D02*
X0184181Y0041356D01*
X0184421Y0039758D02*
X0179941Y0039758D01*
X0179188Y0038159D02*
X0185174Y0038159D01*
X0187066Y0036561D02*
X0177297Y0036561D01*
X0172066Y0036561D02*
X0162297Y0036561D01*
X0162797Y0036768D02*
X0164344Y0038315D01*
X0165181Y0040337D01*
X0165181Y0050325D01*
X0164344Y0052346D01*
X0162797Y0053893D01*
X0160775Y0054731D01*
X0158587Y0054731D01*
X0156566Y0053893D01*
X0155018Y0052346D01*
X0154181Y0050325D01*
X0154181Y0040337D01*
X0155018Y0038315D01*
X0156566Y0036768D01*
X0158587Y0035931D01*
X0160775Y0035931D01*
X0162797Y0036768D01*
X0164188Y0038159D02*
X0170174Y0038159D01*
X0169421Y0039758D02*
X0164941Y0039758D01*
X0165181Y0041356D02*
X0169181Y0041356D01*
X0169181Y0042955D02*
X0165181Y0042955D01*
X0165181Y0044554D02*
X0169181Y0044554D01*
X0169181Y0046152D02*
X0165181Y0046152D01*
X0165181Y0047751D02*
X0169181Y0047751D01*
X0169181Y0049349D02*
X0165181Y0049349D01*
X0164923Y0050948D02*
X0169439Y0050948D01*
X0170218Y0052546D02*
X0164144Y0052546D01*
X0162190Y0054145D02*
X0172172Y0054145D01*
X0181681Y0057342D02*
X0182681Y0057342D01*
X0182681Y0058940D02*
X0181681Y0058940D01*
X0181681Y0060539D02*
X0182681Y0060539D01*
X0182681Y0062137D02*
X0181681Y0062137D01*
X0181681Y0063736D02*
X0182681Y0063736D01*
X0182681Y0064831D02*
X0182681Y0055739D01*
X0183516Y0055871D01*
X0184369Y0056148D01*
X0185169Y0056556D01*
X0185894Y0057083D01*
X0186529Y0057717D01*
X0187056Y0058443D01*
X0187463Y0059243D01*
X0187741Y0060096D01*
X0187881Y0060982D01*
X0187881Y0064831D01*
X0182681Y0064831D01*
X0182681Y0065831D01*
X0181681Y0065831D01*
X0181681Y0074923D01*
X0180846Y0074790D01*
X0179993Y0074513D01*
X0179194Y0074106D01*
X0178468Y0073578D01*
X0177833Y0072944D01*
X0177306Y0072218D01*
X0176899Y0071419D01*
X0176621Y0070565D01*
X0176481Y0069679D01*
X0176481Y0065831D01*
X0181681Y0065831D01*
X0181681Y0064831D01*
X0182681Y0064831D01*
X0182681Y0065334D02*
X0191681Y0065334D01*
X0191681Y0063736D02*
X0187881Y0063736D01*
X0187881Y0062137D02*
X0191681Y0062137D01*
X0191681Y0060539D02*
X0187811Y0060539D01*
X0187309Y0058940D02*
X0192260Y0058940D01*
X0193492Y0057342D02*
X0186153Y0057342D01*
X0187881Y0065831D02*
X0182681Y0065831D01*
X0182681Y0074923D01*
X0183516Y0074790D01*
X0184369Y0074513D01*
X0185169Y0074106D01*
X0185894Y0073578D01*
X0186529Y0072944D01*
X0187056Y0072218D01*
X0187463Y0071419D01*
X0187741Y0070565D01*
X0187881Y0069679D01*
X0187881Y0065831D01*
X0187881Y0066933D02*
X0191681Y0066933D01*
X0190598Y0068531D02*
X0187881Y0068531D01*
X0187810Y0070130D02*
X0190397Y0070130D01*
X0190397Y0071728D02*
X0187306Y0071728D01*
X0186146Y0073327D02*
X0190397Y0073327D01*
X0190397Y0074925D02*
X0165565Y0074925D01*
X0165565Y0076524D02*
X0190397Y0076524D01*
X0190397Y0078122D02*
X0165565Y0078122D01*
X0165565Y0079721D02*
X0190397Y0079721D01*
X0190397Y0081319D02*
X0165565Y0081319D01*
X0165565Y0082918D02*
X0190397Y0082918D01*
X0190397Y0084516D02*
X0165565Y0084516D01*
X0165565Y0086115D02*
X0190397Y0086115D01*
X0190397Y0087713D02*
X0165565Y0087713D01*
X0165565Y0089312D02*
X0190397Y0089312D01*
X0190397Y0090910D02*
X0165565Y0090910D01*
X0165565Y0092509D02*
X0190397Y0092509D01*
X0190397Y0094107D02*
X0165565Y0094107D01*
X0165565Y0095706D02*
X0190397Y0095706D01*
X0190397Y0097304D02*
X0165565Y0097304D01*
X0165565Y0098903D02*
X0190397Y0098903D01*
X0190397Y0100501D02*
X0165565Y0100501D01*
X0165565Y0102100D02*
X0190397Y0102100D01*
X0190397Y0103698D02*
X0165565Y0103698D01*
X0168464Y0105297D02*
X0186528Y0105297D01*
X0185320Y0106895D02*
X0169672Y0106895D01*
X0170096Y0108494D02*
X0184896Y0108494D01*
X0185038Y0110092D02*
X0169954Y0110092D01*
X0169145Y0111691D02*
X0185847Y0111691D01*
X0188231Y0113289D02*
X0166761Y0113289D01*
X0158231Y0113289D02*
X0141447Y0113289D01*
X0143830Y0111691D02*
X0155847Y0111691D01*
X0155038Y0110092D02*
X0144639Y0110092D01*
X0144781Y0108494D02*
X0154896Y0108494D01*
X0155320Y0106895D02*
X0144357Y0106895D01*
X0143149Y0105297D02*
X0156528Y0105297D01*
X0160397Y0103698D02*
X0139765Y0103698D01*
X0139765Y0102100D02*
X0160397Y0102100D01*
X0160397Y0100501D02*
X0139765Y0100501D01*
X0139765Y0098903D02*
X0160397Y0098903D01*
X0160397Y0097304D02*
X0139765Y0097304D01*
X0139765Y0095706D02*
X0160397Y0095706D01*
X0160397Y0094107D02*
X0139765Y0094107D01*
X0139765Y0092509D02*
X0160397Y0092509D01*
X0160397Y0090910D02*
X0139765Y0090910D01*
X0139765Y0089312D02*
X0160397Y0089312D01*
X0160397Y0087713D02*
X0139765Y0087713D01*
X0139765Y0086115D02*
X0160397Y0086115D01*
X0160397Y0084516D02*
X0139765Y0084516D01*
X0139765Y0082918D02*
X0160397Y0082918D01*
X0160397Y0081319D02*
X0139765Y0081319D01*
X0139765Y0079721D02*
X0160397Y0079721D01*
X0160397Y0078122D02*
X0139765Y0078122D01*
X0139765Y0076524D02*
X0160397Y0076524D01*
X0152681Y0073327D02*
X0151681Y0073327D01*
X0151681Y0071728D02*
X0152681Y0071728D01*
X0152681Y0070130D02*
X0151681Y0070130D01*
X0151681Y0068531D02*
X0152681Y0068531D01*
X0152681Y0066933D02*
X0151681Y0066933D01*
X0151681Y0065334D02*
X0142681Y0065334D01*
X0151681Y0063736D02*
X0152681Y0063736D01*
X0152681Y0062137D02*
X0151681Y0062137D01*
X0151681Y0060539D02*
X0152681Y0060539D01*
X0152681Y0058940D02*
X0151681Y0058940D01*
X0151681Y0057342D02*
X0152681Y0057342D01*
X0156153Y0057342D02*
X0163492Y0057342D01*
X0162260Y0058940D02*
X0157309Y0058940D01*
X0157811Y0060539D02*
X0161681Y0060539D01*
X0161681Y0062137D02*
X0157881Y0062137D01*
X0157172Y0054145D02*
X0147190Y0054145D01*
X0149144Y0052546D02*
X0155218Y0052546D01*
X0154439Y0050948D02*
X0149923Y0050948D01*
X0150181Y0049349D02*
X0154181Y0049349D01*
X0154181Y0047751D02*
X0150181Y0047751D01*
X0150181Y0046152D02*
X0154181Y0046152D01*
X0154181Y0044554D02*
X0150181Y0044554D01*
X0150181Y0042955D02*
X0154181Y0042955D01*
X0154181Y0041356D02*
X0150181Y0041356D01*
X0149941Y0039758D02*
X0154421Y0039758D01*
X0155174Y0038159D02*
X0149188Y0038159D01*
X0147297Y0036561D02*
X0157066Y0036561D01*
X0172681Y0066933D02*
X0176481Y0066933D01*
X0176481Y0068531D02*
X0172681Y0068531D01*
X0172681Y0070130D02*
X0176552Y0070130D01*
X0177056Y0071728D02*
X0172100Y0071728D01*
X0170863Y0073327D02*
X0178216Y0073327D01*
X0181681Y0073327D02*
X0182681Y0073327D01*
X0182681Y0071728D02*
X0181681Y0071728D01*
X0181681Y0070130D02*
X0182681Y0070130D01*
X0182681Y0068531D02*
X0181681Y0068531D01*
X0181681Y0066933D02*
X0182681Y0066933D01*
X0200870Y0057342D02*
X0202397Y0057342D01*
X0202397Y0058940D02*
X0202103Y0058940D01*
X0207565Y0057342D02*
X0208209Y0057342D01*
X0207565Y0055743D02*
X0211654Y0055743D01*
X0209144Y0052546D02*
X0215044Y0052546D01*
X0214246Y0050948D02*
X0209923Y0050948D01*
X0210181Y0049349D02*
X0213981Y0049349D01*
X0213981Y0047751D02*
X0210181Y0047751D01*
X0207565Y0054145D02*
X0216770Y0054145D01*
X0251965Y0062137D02*
X0277424Y0062137D01*
X0276285Y0063736D02*
X0251965Y0063736D01*
X0251965Y0065334D02*
X0275970Y0065334D01*
X0276288Y0066933D02*
X0251965Y0066933D01*
X0251965Y0068531D02*
X0277431Y0068531D01*
X0274932Y0056636D02*
X0274932Y0056636D01*
X0337617Y0006189D02*
X0005800Y0006189D01*
X0005800Y0065334D02*
X0091681Y0065334D01*
X0091681Y0063736D02*
X0092681Y0063736D01*
X0092681Y0062137D02*
X0091681Y0062137D01*
X0091681Y0060539D02*
X0092681Y0060539D01*
X0092681Y0058940D02*
X0091681Y0058940D01*
X0091681Y0057342D02*
X0092681Y0057342D01*
X0096153Y0057342D02*
X0097397Y0057342D01*
X0097397Y0058940D02*
X0097309Y0058940D01*
X0102565Y0057342D02*
X0103492Y0057342D01*
X0110870Y0057342D02*
X0118492Y0057342D01*
X0117260Y0058940D02*
X0112103Y0058940D01*
X0112681Y0060539D02*
X0116681Y0060539D01*
X0116681Y0062137D02*
X0112681Y0062137D01*
X0112681Y0063736D02*
X0116681Y0063736D01*
X0116681Y0065334D02*
X0112681Y0065334D01*
X0112681Y0066933D02*
X0116681Y0066933D01*
X0116681Y0068531D02*
X0112681Y0068531D01*
X0112681Y0070130D02*
X0116681Y0070130D01*
X0117262Y0071728D02*
X0112100Y0071728D01*
X0110863Y0073327D02*
X0118499Y0073327D01*
X0092681Y0073327D02*
X0091681Y0073327D01*
X0091681Y0071728D02*
X0092681Y0071728D01*
X0092681Y0070130D02*
X0091681Y0070130D01*
X0091681Y0068531D02*
X0092681Y0068531D01*
X0092681Y0066933D02*
X0091681Y0066933D01*
X0109765Y0102100D02*
X0134597Y0102100D01*
X0134597Y0103698D02*
X0109765Y0103698D01*
X0113149Y0105297D02*
X0131213Y0105297D01*
X0130005Y0106895D02*
X0114357Y0106895D01*
X0114781Y0108494D02*
X0129581Y0108494D01*
X0129723Y0110092D02*
X0114639Y0110092D01*
X0113830Y0111691D02*
X0130532Y0111691D01*
X0132916Y0113289D02*
X0111447Y0113289D01*
X0114680Y0127676D02*
X0129682Y0127676D01*
X0129581Y0129275D02*
X0114781Y0129275D01*
X0114316Y0130873D02*
X0130046Y0130873D01*
X0131313Y0132472D02*
X0113049Y0132472D01*
X0113112Y0145260D02*
X0131251Y0145260D01*
X0130021Y0146858D02*
X0114341Y0146858D01*
X0114781Y0148457D02*
X0129581Y0148457D01*
X0129708Y0150055D02*
X0114655Y0150055D01*
X0113867Y0151654D02*
X0130495Y0151654D01*
X0132826Y0153252D02*
X0111536Y0153252D01*
X0079446Y0169237D02*
X0065729Y0169237D01*
X0057081Y0178828D02*
X0056138Y0178828D01*
X0057081Y0180427D02*
X0054540Y0180427D01*
X0052941Y0182025D02*
X0057081Y0182025D01*
X0057085Y0183624D02*
X0051342Y0183624D01*
X0049744Y0185223D02*
X0057489Y0185223D01*
X0050427Y0177230D02*
X0020020Y0177230D01*
X0020444Y0175631D02*
X0052026Y0175631D01*
X0053624Y0174033D02*
X0020269Y0174033D01*
X0018769Y0178828D02*
X0048829Y0178828D01*
X0072181Y0179898D02*
X0072381Y0179331D01*
X0080181Y0171531D01*
X0077281Y0178828D02*
X0077081Y0178828D01*
X0068011Y0159646D02*
X0005800Y0159646D01*
X0005800Y0158048D02*
X0069609Y0158048D01*
X0008810Y0161245D02*
X0005800Y0161245D01*
X0005800Y0162843D02*
X0006712Y0162843D01*
X0006050Y0164442D02*
X0005800Y0164442D01*
X0005800Y0166040D02*
X0006044Y0166040D01*
X0005800Y0167639D02*
X0006638Y0167639D01*
X0005800Y0169237D02*
X0008378Y0169237D01*
X0007527Y0182025D02*
X0005800Y0182025D01*
X0005800Y0183624D02*
X0006389Y0183624D01*
X0006044Y0185223D02*
X0005800Y0185223D01*
X0005800Y0186821D02*
X0006299Y0186821D01*
X0143049Y0132472D02*
X0156628Y0132472D01*
X0155361Y0130873D02*
X0144316Y0130873D01*
X0144781Y0129275D02*
X0154896Y0129275D01*
X0154997Y0127676D02*
X0144680Y0127676D01*
X0169810Y0177230D02*
X0185182Y0177230D01*
X0184896Y0178828D02*
X0170096Y0178828D01*
X0169816Y0180427D02*
X0185177Y0180427D01*
X0186182Y0182025D02*
X0168811Y0182025D01*
X0156981Y0200931D02*
X0146781Y0211131D01*
X0146781Y0257331D01*
X0146551Y0257457D01*
X0158993Y0253958D02*
X0176984Y0253958D01*
X0176381Y0260353D02*
X0159595Y0260353D01*
X0192469Y0260353D02*
X0250320Y0260353D01*
X0249480Y0259512D02*
X0249480Y0259512D01*
X0248722Y0258754D02*
X0193625Y0258754D01*
X0193625Y0257156D02*
X0248613Y0257156D01*
X0248994Y0255557D02*
X0193465Y0255557D01*
X0192381Y0253958D02*
X0248613Y0253958D01*
X0249937Y0252360D02*
X0192381Y0252360D01*
X0254358Y0252360D02*
X0255093Y0252360D01*
X0254628Y0252630D02*
X0254628Y0252630D01*
X0254518Y0249323D02*
X0254518Y0249323D01*
X0262069Y0252360D02*
X0262852Y0252360D01*
X0263400Y0249163D02*
X0270602Y0249163D01*
X0270704Y0249266D02*
X0270220Y0248782D01*
X0270220Y0247332D01*
X0270705Y0246848D01*
X0270220Y0246363D01*
X0270220Y0244913D01*
X0271246Y0243888D01*
X0272695Y0243888D01*
X0274630Y0243888D01*
X0274653Y0243911D01*
X0274676Y0243888D01*
X0276376Y0243888D01*
X0277093Y0243888D01*
X0277093Y0243888D01*
X0277104Y0243899D01*
X0277116Y0243911D01*
X0277139Y0243888D01*
X0280523Y0243888D01*
X0280546Y0243911D01*
X0280569Y0243888D01*
X0282269Y0243888D01*
X0282986Y0243888D01*
X0282986Y0243888D01*
X0282997Y0243899D01*
X0283470Y0244372D01*
X0283730Y0244632D01*
X0284495Y0245397D01*
X0284495Y0246114D01*
X0284495Y0246847D01*
X0284495Y0248782D01*
X0283470Y0249807D01*
X0282986Y0250291D01*
X0282019Y0250291D01*
X0281301Y0250291D01*
X0280569Y0250291D01*
X0280569Y0250291D01*
X0280062Y0249784D01*
X0279556Y0250291D01*
X0278106Y0250291D01*
X0277600Y0249784D01*
X0277577Y0249807D01*
X0277093Y0250291D01*
X0276126Y0250291D01*
X0275408Y0250291D01*
X0274676Y0250291D01*
X0274676Y0250291D01*
X0274676Y0250291D01*
X0274411Y0250026D01*
X0274146Y0250291D01*
X0273179Y0250291D01*
X0272447Y0250291D01*
X0271729Y0250291D01*
X0270964Y0249525D01*
X0270704Y0249266D01*
X0270704Y0249266D01*
X0271729Y0250291D02*
X0271729Y0250291D01*
X0271729Y0250291D01*
X0273179Y0250291D02*
X0273179Y0250291D01*
X0274116Y0252360D02*
X0280875Y0252360D01*
X0279551Y0253958D02*
X0274573Y0253958D01*
X0274573Y0255557D02*
X0279933Y0255557D01*
X0279551Y0257156D02*
X0275442Y0257156D01*
X0276308Y0258754D02*
X0279660Y0258754D01*
X0280418Y0259512D02*
X0280418Y0259512D01*
X0281259Y0260353D02*
X0275467Y0260353D01*
X0270079Y0260353D02*
X0269444Y0260353D01*
X0264922Y0260353D02*
X0263420Y0260353D01*
X0261501Y0260353D02*
X0259131Y0260353D01*
X0260660Y0259512D02*
X0260660Y0259512D01*
X0255477Y0260353D02*
X0253974Y0260353D01*
X0267225Y0252360D02*
X0268008Y0252360D01*
X0270695Y0252360D02*
X0271430Y0252360D01*
X0268737Y0248839D02*
X0265352Y0248839D01*
X0264327Y0247814D01*
X0264327Y0246365D01*
X0265352Y0245339D01*
X0268737Y0245339D01*
X0269762Y0246365D01*
X0269762Y0247814D01*
X0268737Y0248839D01*
X0269762Y0247564D02*
X0270220Y0247564D01*
X0270220Y0245966D02*
X0269364Y0245966D01*
X0270766Y0244367D02*
X0263338Y0244367D01*
X0263884Y0245966D02*
X0264726Y0245966D01*
X0264327Y0247564D02*
X0263400Y0247564D01*
X0276126Y0250291D02*
X0276126Y0250291D01*
X0280569Y0250291D02*
X0280569Y0250291D01*
X0282019Y0250291D02*
X0282019Y0250291D01*
X0284114Y0249163D02*
X0314561Y0249163D01*
X0314990Y0247564D02*
X0284495Y0247564D01*
X0284495Y0246847D02*
X0284495Y0246847D01*
X0284495Y0245966D02*
X0315869Y0245966D01*
X0317015Y0244367D02*
X0283465Y0244367D01*
X0283470Y0244372D02*
X0283470Y0244372D01*
X0284495Y0245397D02*
X0284495Y0245397D01*
X0284495Y0245397D01*
X0287851Y0252360D02*
X0288634Y0252360D01*
X0294742Y0252360D02*
X0295493Y0252360D01*
X0298180Y0252360D02*
X0299782Y0252360D01*
X0306758Y0252360D02*
X0307540Y0252360D01*
X0307924Y0260353D02*
X0306374Y0260353D01*
X0304454Y0260353D02*
X0303820Y0260353D01*
X0300165Y0260353D02*
X0299531Y0260353D01*
X0289017Y0260353D02*
X0287467Y0260353D01*
X0285548Y0260353D02*
X0284913Y0260353D01*
X0329828Y0261951D02*
X0337617Y0261951D01*
X0337617Y0260353D02*
X0332423Y0260353D01*
X0334021Y0258754D02*
X0337617Y0258754D01*
X0337617Y0257156D02*
X0335042Y0257156D01*
X0335830Y0255557D02*
X0337617Y0255557D01*
X0337617Y0253958D02*
X0336258Y0253958D01*
X0336469Y0252360D02*
X0337617Y0252360D01*
X0337617Y0250761D02*
X0336469Y0250761D01*
X0336179Y0249163D02*
X0337617Y0249163D01*
X0337617Y0247564D02*
X0335750Y0247564D01*
X0334871Y0245966D02*
X0337617Y0245966D01*
X0337617Y0244367D02*
X0333725Y0244367D01*
X0332084Y0242769D02*
X0337617Y0242769D01*
X0337617Y0241170D02*
X0328925Y0241170D01*
X0223904Y0194814D02*
X0221781Y0194814D01*
D23*
X0273047Y0201000D03*
X0145882Y0191551D03*
X0143913Y0158874D03*
X0036381Y0189531D03*
X0030981Y0122931D03*
M02*
