G75*
%MOIN*%
%OFA0B0*%
%FSLAX25Y25*%
%IPPOS*%
%LPD*%
%AMOC8*
5,1,8,0,0,1.08239X$1,22.5*
%
%ADD10C,0.00000*%
%ADD11C,0.00500*%
%ADD12C,0.01200*%
%ADD13C,0.00600*%
%ADD14C,0.00400*%
%ADD15C,0.00200*%
D10*
X0002233Y0002391D02*
X0002076Y0248335D01*
X0378808Y0248257D01*
X0379083Y0002272D01*
X0002233Y0002391D01*
X0014674Y0012509D02*
X0014676Y0012667D01*
X0014682Y0012825D01*
X0014692Y0012983D01*
X0014706Y0013141D01*
X0014724Y0013298D01*
X0014745Y0013455D01*
X0014771Y0013611D01*
X0014801Y0013767D01*
X0014834Y0013922D01*
X0014872Y0014075D01*
X0014913Y0014228D01*
X0014958Y0014380D01*
X0015007Y0014531D01*
X0015060Y0014680D01*
X0015116Y0014828D01*
X0015176Y0014974D01*
X0015240Y0015119D01*
X0015308Y0015262D01*
X0015379Y0015404D01*
X0015453Y0015544D01*
X0015531Y0015681D01*
X0015613Y0015817D01*
X0015697Y0015951D01*
X0015786Y0016082D01*
X0015877Y0016211D01*
X0015972Y0016338D01*
X0016069Y0016463D01*
X0016170Y0016585D01*
X0016274Y0016704D01*
X0016381Y0016821D01*
X0016491Y0016935D01*
X0016604Y0017046D01*
X0016719Y0017155D01*
X0016837Y0017260D01*
X0016958Y0017362D01*
X0017081Y0017462D01*
X0017207Y0017558D01*
X0017335Y0017651D01*
X0017465Y0017741D01*
X0017598Y0017827D01*
X0017733Y0017911D01*
X0017869Y0017990D01*
X0018008Y0018067D01*
X0018149Y0018139D01*
X0018291Y0018209D01*
X0018435Y0018274D01*
X0018581Y0018336D01*
X0018728Y0018394D01*
X0018877Y0018449D01*
X0019027Y0018500D01*
X0019178Y0018547D01*
X0019330Y0018590D01*
X0019483Y0018629D01*
X0019638Y0018665D01*
X0019793Y0018696D01*
X0019949Y0018724D01*
X0020105Y0018748D01*
X0020262Y0018768D01*
X0020420Y0018784D01*
X0020577Y0018796D01*
X0020736Y0018804D01*
X0020894Y0018808D01*
X0021052Y0018808D01*
X0021210Y0018804D01*
X0021369Y0018796D01*
X0021526Y0018784D01*
X0021684Y0018768D01*
X0021841Y0018748D01*
X0021997Y0018724D01*
X0022153Y0018696D01*
X0022308Y0018665D01*
X0022463Y0018629D01*
X0022616Y0018590D01*
X0022768Y0018547D01*
X0022919Y0018500D01*
X0023069Y0018449D01*
X0023218Y0018394D01*
X0023365Y0018336D01*
X0023511Y0018274D01*
X0023655Y0018209D01*
X0023797Y0018139D01*
X0023938Y0018067D01*
X0024077Y0017990D01*
X0024213Y0017911D01*
X0024348Y0017827D01*
X0024481Y0017741D01*
X0024611Y0017651D01*
X0024739Y0017558D01*
X0024865Y0017462D01*
X0024988Y0017362D01*
X0025109Y0017260D01*
X0025227Y0017155D01*
X0025342Y0017046D01*
X0025455Y0016935D01*
X0025565Y0016821D01*
X0025672Y0016704D01*
X0025776Y0016585D01*
X0025877Y0016463D01*
X0025974Y0016338D01*
X0026069Y0016211D01*
X0026160Y0016082D01*
X0026249Y0015951D01*
X0026333Y0015817D01*
X0026415Y0015681D01*
X0026493Y0015544D01*
X0026567Y0015404D01*
X0026638Y0015262D01*
X0026706Y0015119D01*
X0026770Y0014974D01*
X0026830Y0014828D01*
X0026886Y0014680D01*
X0026939Y0014531D01*
X0026988Y0014380D01*
X0027033Y0014228D01*
X0027074Y0014075D01*
X0027112Y0013922D01*
X0027145Y0013767D01*
X0027175Y0013611D01*
X0027201Y0013455D01*
X0027222Y0013298D01*
X0027240Y0013141D01*
X0027254Y0012983D01*
X0027264Y0012825D01*
X0027270Y0012667D01*
X0027272Y0012509D01*
X0027270Y0012351D01*
X0027264Y0012193D01*
X0027254Y0012035D01*
X0027240Y0011877D01*
X0027222Y0011720D01*
X0027201Y0011563D01*
X0027175Y0011407D01*
X0027145Y0011251D01*
X0027112Y0011096D01*
X0027074Y0010943D01*
X0027033Y0010790D01*
X0026988Y0010638D01*
X0026939Y0010487D01*
X0026886Y0010338D01*
X0026830Y0010190D01*
X0026770Y0010044D01*
X0026706Y0009899D01*
X0026638Y0009756D01*
X0026567Y0009614D01*
X0026493Y0009474D01*
X0026415Y0009337D01*
X0026333Y0009201D01*
X0026249Y0009067D01*
X0026160Y0008936D01*
X0026069Y0008807D01*
X0025974Y0008680D01*
X0025877Y0008555D01*
X0025776Y0008433D01*
X0025672Y0008314D01*
X0025565Y0008197D01*
X0025455Y0008083D01*
X0025342Y0007972D01*
X0025227Y0007863D01*
X0025109Y0007758D01*
X0024988Y0007656D01*
X0024865Y0007556D01*
X0024739Y0007460D01*
X0024611Y0007367D01*
X0024481Y0007277D01*
X0024348Y0007191D01*
X0024213Y0007107D01*
X0024077Y0007028D01*
X0023938Y0006951D01*
X0023797Y0006879D01*
X0023655Y0006809D01*
X0023511Y0006744D01*
X0023365Y0006682D01*
X0023218Y0006624D01*
X0023069Y0006569D01*
X0022919Y0006518D01*
X0022768Y0006471D01*
X0022616Y0006428D01*
X0022463Y0006389D01*
X0022308Y0006353D01*
X0022153Y0006322D01*
X0021997Y0006294D01*
X0021841Y0006270D01*
X0021684Y0006250D01*
X0021526Y0006234D01*
X0021369Y0006222D01*
X0021210Y0006214D01*
X0021052Y0006210D01*
X0020894Y0006210D01*
X0020736Y0006214D01*
X0020577Y0006222D01*
X0020420Y0006234D01*
X0020262Y0006250D01*
X0020105Y0006270D01*
X0019949Y0006294D01*
X0019793Y0006322D01*
X0019638Y0006353D01*
X0019483Y0006389D01*
X0019330Y0006428D01*
X0019178Y0006471D01*
X0019027Y0006518D01*
X0018877Y0006569D01*
X0018728Y0006624D01*
X0018581Y0006682D01*
X0018435Y0006744D01*
X0018291Y0006809D01*
X0018149Y0006879D01*
X0018008Y0006951D01*
X0017869Y0007028D01*
X0017733Y0007107D01*
X0017598Y0007191D01*
X0017465Y0007277D01*
X0017335Y0007367D01*
X0017207Y0007460D01*
X0017081Y0007556D01*
X0016958Y0007656D01*
X0016837Y0007758D01*
X0016719Y0007863D01*
X0016604Y0007972D01*
X0016491Y0008083D01*
X0016381Y0008197D01*
X0016274Y0008314D01*
X0016170Y0008433D01*
X0016069Y0008555D01*
X0015972Y0008680D01*
X0015877Y0008807D01*
X0015786Y0008936D01*
X0015697Y0009067D01*
X0015613Y0009201D01*
X0015531Y0009337D01*
X0015453Y0009474D01*
X0015379Y0009614D01*
X0015308Y0009756D01*
X0015240Y0009899D01*
X0015176Y0010044D01*
X0015116Y0010190D01*
X0015060Y0010338D01*
X0015007Y0010487D01*
X0014958Y0010638D01*
X0014913Y0010790D01*
X0014872Y0010943D01*
X0014834Y0011096D01*
X0014801Y0011251D01*
X0014771Y0011407D01*
X0014745Y0011563D01*
X0014724Y0011720D01*
X0014706Y0011877D01*
X0014692Y0012035D01*
X0014682Y0012193D01*
X0014676Y0012351D01*
X0014674Y0012509D01*
X0014281Y0230225D02*
X0014283Y0230383D01*
X0014289Y0230541D01*
X0014299Y0230699D01*
X0014313Y0230857D01*
X0014331Y0231014D01*
X0014352Y0231171D01*
X0014378Y0231327D01*
X0014408Y0231483D01*
X0014441Y0231638D01*
X0014479Y0231791D01*
X0014520Y0231944D01*
X0014565Y0232096D01*
X0014614Y0232247D01*
X0014667Y0232396D01*
X0014723Y0232544D01*
X0014783Y0232690D01*
X0014847Y0232835D01*
X0014915Y0232978D01*
X0014986Y0233120D01*
X0015060Y0233260D01*
X0015138Y0233397D01*
X0015220Y0233533D01*
X0015304Y0233667D01*
X0015393Y0233798D01*
X0015484Y0233927D01*
X0015579Y0234054D01*
X0015676Y0234179D01*
X0015777Y0234301D01*
X0015881Y0234420D01*
X0015988Y0234537D01*
X0016098Y0234651D01*
X0016211Y0234762D01*
X0016326Y0234871D01*
X0016444Y0234976D01*
X0016565Y0235078D01*
X0016688Y0235178D01*
X0016814Y0235274D01*
X0016942Y0235367D01*
X0017072Y0235457D01*
X0017205Y0235543D01*
X0017340Y0235627D01*
X0017476Y0235706D01*
X0017615Y0235783D01*
X0017756Y0235855D01*
X0017898Y0235925D01*
X0018042Y0235990D01*
X0018188Y0236052D01*
X0018335Y0236110D01*
X0018484Y0236165D01*
X0018634Y0236216D01*
X0018785Y0236263D01*
X0018937Y0236306D01*
X0019090Y0236345D01*
X0019245Y0236381D01*
X0019400Y0236412D01*
X0019556Y0236440D01*
X0019712Y0236464D01*
X0019869Y0236484D01*
X0020027Y0236500D01*
X0020184Y0236512D01*
X0020343Y0236520D01*
X0020501Y0236524D01*
X0020659Y0236524D01*
X0020817Y0236520D01*
X0020976Y0236512D01*
X0021133Y0236500D01*
X0021291Y0236484D01*
X0021448Y0236464D01*
X0021604Y0236440D01*
X0021760Y0236412D01*
X0021915Y0236381D01*
X0022070Y0236345D01*
X0022223Y0236306D01*
X0022375Y0236263D01*
X0022526Y0236216D01*
X0022676Y0236165D01*
X0022825Y0236110D01*
X0022972Y0236052D01*
X0023118Y0235990D01*
X0023262Y0235925D01*
X0023404Y0235855D01*
X0023545Y0235783D01*
X0023684Y0235706D01*
X0023820Y0235627D01*
X0023955Y0235543D01*
X0024088Y0235457D01*
X0024218Y0235367D01*
X0024346Y0235274D01*
X0024472Y0235178D01*
X0024595Y0235078D01*
X0024716Y0234976D01*
X0024834Y0234871D01*
X0024949Y0234762D01*
X0025062Y0234651D01*
X0025172Y0234537D01*
X0025279Y0234420D01*
X0025383Y0234301D01*
X0025484Y0234179D01*
X0025581Y0234054D01*
X0025676Y0233927D01*
X0025767Y0233798D01*
X0025856Y0233667D01*
X0025940Y0233533D01*
X0026022Y0233397D01*
X0026100Y0233260D01*
X0026174Y0233120D01*
X0026245Y0232978D01*
X0026313Y0232835D01*
X0026377Y0232690D01*
X0026437Y0232544D01*
X0026493Y0232396D01*
X0026546Y0232247D01*
X0026595Y0232096D01*
X0026640Y0231944D01*
X0026681Y0231791D01*
X0026719Y0231638D01*
X0026752Y0231483D01*
X0026782Y0231327D01*
X0026808Y0231171D01*
X0026829Y0231014D01*
X0026847Y0230857D01*
X0026861Y0230699D01*
X0026871Y0230541D01*
X0026877Y0230383D01*
X0026879Y0230225D01*
X0026877Y0230067D01*
X0026871Y0229909D01*
X0026861Y0229751D01*
X0026847Y0229593D01*
X0026829Y0229436D01*
X0026808Y0229279D01*
X0026782Y0229123D01*
X0026752Y0228967D01*
X0026719Y0228812D01*
X0026681Y0228659D01*
X0026640Y0228506D01*
X0026595Y0228354D01*
X0026546Y0228203D01*
X0026493Y0228054D01*
X0026437Y0227906D01*
X0026377Y0227760D01*
X0026313Y0227615D01*
X0026245Y0227472D01*
X0026174Y0227330D01*
X0026100Y0227190D01*
X0026022Y0227053D01*
X0025940Y0226917D01*
X0025856Y0226783D01*
X0025767Y0226652D01*
X0025676Y0226523D01*
X0025581Y0226396D01*
X0025484Y0226271D01*
X0025383Y0226149D01*
X0025279Y0226030D01*
X0025172Y0225913D01*
X0025062Y0225799D01*
X0024949Y0225688D01*
X0024834Y0225579D01*
X0024716Y0225474D01*
X0024595Y0225372D01*
X0024472Y0225272D01*
X0024346Y0225176D01*
X0024218Y0225083D01*
X0024088Y0224993D01*
X0023955Y0224907D01*
X0023820Y0224823D01*
X0023684Y0224744D01*
X0023545Y0224667D01*
X0023404Y0224595D01*
X0023262Y0224525D01*
X0023118Y0224460D01*
X0022972Y0224398D01*
X0022825Y0224340D01*
X0022676Y0224285D01*
X0022526Y0224234D01*
X0022375Y0224187D01*
X0022223Y0224144D01*
X0022070Y0224105D01*
X0021915Y0224069D01*
X0021760Y0224038D01*
X0021604Y0224010D01*
X0021448Y0223986D01*
X0021291Y0223966D01*
X0021133Y0223950D01*
X0020976Y0223938D01*
X0020817Y0223930D01*
X0020659Y0223926D01*
X0020501Y0223926D01*
X0020343Y0223930D01*
X0020184Y0223938D01*
X0020027Y0223950D01*
X0019869Y0223966D01*
X0019712Y0223986D01*
X0019556Y0224010D01*
X0019400Y0224038D01*
X0019245Y0224069D01*
X0019090Y0224105D01*
X0018937Y0224144D01*
X0018785Y0224187D01*
X0018634Y0224234D01*
X0018484Y0224285D01*
X0018335Y0224340D01*
X0018188Y0224398D01*
X0018042Y0224460D01*
X0017898Y0224525D01*
X0017756Y0224595D01*
X0017615Y0224667D01*
X0017476Y0224744D01*
X0017340Y0224823D01*
X0017205Y0224907D01*
X0017072Y0224993D01*
X0016942Y0225083D01*
X0016814Y0225176D01*
X0016688Y0225272D01*
X0016565Y0225372D01*
X0016444Y0225474D01*
X0016326Y0225579D01*
X0016211Y0225688D01*
X0016098Y0225799D01*
X0015988Y0225913D01*
X0015881Y0226030D01*
X0015777Y0226149D01*
X0015676Y0226271D01*
X0015579Y0226396D01*
X0015484Y0226523D01*
X0015393Y0226652D01*
X0015304Y0226783D01*
X0015220Y0226917D01*
X0015138Y0227053D01*
X0015060Y0227190D01*
X0014986Y0227330D01*
X0014915Y0227472D01*
X0014847Y0227615D01*
X0014783Y0227760D01*
X0014723Y0227906D01*
X0014667Y0228054D01*
X0014614Y0228203D01*
X0014565Y0228354D01*
X0014520Y0228506D01*
X0014479Y0228659D01*
X0014441Y0228812D01*
X0014408Y0228967D01*
X0014378Y0229123D01*
X0014352Y0229279D01*
X0014331Y0229436D01*
X0014313Y0229593D01*
X0014299Y0229751D01*
X0014289Y0229909D01*
X0014283Y0230067D01*
X0014281Y0230225D01*
X0354832Y0230225D02*
X0354834Y0230383D01*
X0354840Y0230541D01*
X0354850Y0230699D01*
X0354864Y0230857D01*
X0354882Y0231014D01*
X0354903Y0231171D01*
X0354929Y0231327D01*
X0354959Y0231483D01*
X0354992Y0231638D01*
X0355030Y0231791D01*
X0355071Y0231944D01*
X0355116Y0232096D01*
X0355165Y0232247D01*
X0355218Y0232396D01*
X0355274Y0232544D01*
X0355334Y0232690D01*
X0355398Y0232835D01*
X0355466Y0232978D01*
X0355537Y0233120D01*
X0355611Y0233260D01*
X0355689Y0233397D01*
X0355771Y0233533D01*
X0355855Y0233667D01*
X0355944Y0233798D01*
X0356035Y0233927D01*
X0356130Y0234054D01*
X0356227Y0234179D01*
X0356328Y0234301D01*
X0356432Y0234420D01*
X0356539Y0234537D01*
X0356649Y0234651D01*
X0356762Y0234762D01*
X0356877Y0234871D01*
X0356995Y0234976D01*
X0357116Y0235078D01*
X0357239Y0235178D01*
X0357365Y0235274D01*
X0357493Y0235367D01*
X0357623Y0235457D01*
X0357756Y0235543D01*
X0357891Y0235627D01*
X0358027Y0235706D01*
X0358166Y0235783D01*
X0358307Y0235855D01*
X0358449Y0235925D01*
X0358593Y0235990D01*
X0358739Y0236052D01*
X0358886Y0236110D01*
X0359035Y0236165D01*
X0359185Y0236216D01*
X0359336Y0236263D01*
X0359488Y0236306D01*
X0359641Y0236345D01*
X0359796Y0236381D01*
X0359951Y0236412D01*
X0360107Y0236440D01*
X0360263Y0236464D01*
X0360420Y0236484D01*
X0360578Y0236500D01*
X0360735Y0236512D01*
X0360894Y0236520D01*
X0361052Y0236524D01*
X0361210Y0236524D01*
X0361368Y0236520D01*
X0361527Y0236512D01*
X0361684Y0236500D01*
X0361842Y0236484D01*
X0361999Y0236464D01*
X0362155Y0236440D01*
X0362311Y0236412D01*
X0362466Y0236381D01*
X0362621Y0236345D01*
X0362774Y0236306D01*
X0362926Y0236263D01*
X0363077Y0236216D01*
X0363227Y0236165D01*
X0363376Y0236110D01*
X0363523Y0236052D01*
X0363669Y0235990D01*
X0363813Y0235925D01*
X0363955Y0235855D01*
X0364096Y0235783D01*
X0364235Y0235706D01*
X0364371Y0235627D01*
X0364506Y0235543D01*
X0364639Y0235457D01*
X0364769Y0235367D01*
X0364897Y0235274D01*
X0365023Y0235178D01*
X0365146Y0235078D01*
X0365267Y0234976D01*
X0365385Y0234871D01*
X0365500Y0234762D01*
X0365613Y0234651D01*
X0365723Y0234537D01*
X0365830Y0234420D01*
X0365934Y0234301D01*
X0366035Y0234179D01*
X0366132Y0234054D01*
X0366227Y0233927D01*
X0366318Y0233798D01*
X0366407Y0233667D01*
X0366491Y0233533D01*
X0366573Y0233397D01*
X0366651Y0233260D01*
X0366725Y0233120D01*
X0366796Y0232978D01*
X0366864Y0232835D01*
X0366928Y0232690D01*
X0366988Y0232544D01*
X0367044Y0232396D01*
X0367097Y0232247D01*
X0367146Y0232096D01*
X0367191Y0231944D01*
X0367232Y0231791D01*
X0367270Y0231638D01*
X0367303Y0231483D01*
X0367333Y0231327D01*
X0367359Y0231171D01*
X0367380Y0231014D01*
X0367398Y0230857D01*
X0367412Y0230699D01*
X0367422Y0230541D01*
X0367428Y0230383D01*
X0367430Y0230225D01*
X0367428Y0230067D01*
X0367422Y0229909D01*
X0367412Y0229751D01*
X0367398Y0229593D01*
X0367380Y0229436D01*
X0367359Y0229279D01*
X0367333Y0229123D01*
X0367303Y0228967D01*
X0367270Y0228812D01*
X0367232Y0228659D01*
X0367191Y0228506D01*
X0367146Y0228354D01*
X0367097Y0228203D01*
X0367044Y0228054D01*
X0366988Y0227906D01*
X0366928Y0227760D01*
X0366864Y0227615D01*
X0366796Y0227472D01*
X0366725Y0227330D01*
X0366651Y0227190D01*
X0366573Y0227053D01*
X0366491Y0226917D01*
X0366407Y0226783D01*
X0366318Y0226652D01*
X0366227Y0226523D01*
X0366132Y0226396D01*
X0366035Y0226271D01*
X0365934Y0226149D01*
X0365830Y0226030D01*
X0365723Y0225913D01*
X0365613Y0225799D01*
X0365500Y0225688D01*
X0365385Y0225579D01*
X0365267Y0225474D01*
X0365146Y0225372D01*
X0365023Y0225272D01*
X0364897Y0225176D01*
X0364769Y0225083D01*
X0364639Y0224993D01*
X0364506Y0224907D01*
X0364371Y0224823D01*
X0364235Y0224744D01*
X0364096Y0224667D01*
X0363955Y0224595D01*
X0363813Y0224525D01*
X0363669Y0224460D01*
X0363523Y0224398D01*
X0363376Y0224340D01*
X0363227Y0224285D01*
X0363077Y0224234D01*
X0362926Y0224187D01*
X0362774Y0224144D01*
X0362621Y0224105D01*
X0362466Y0224069D01*
X0362311Y0224038D01*
X0362155Y0224010D01*
X0361999Y0223986D01*
X0361842Y0223966D01*
X0361684Y0223950D01*
X0361527Y0223938D01*
X0361368Y0223930D01*
X0361210Y0223926D01*
X0361052Y0223926D01*
X0360894Y0223930D01*
X0360735Y0223938D01*
X0360578Y0223950D01*
X0360420Y0223966D01*
X0360263Y0223986D01*
X0360107Y0224010D01*
X0359951Y0224038D01*
X0359796Y0224069D01*
X0359641Y0224105D01*
X0359488Y0224144D01*
X0359336Y0224187D01*
X0359185Y0224234D01*
X0359035Y0224285D01*
X0358886Y0224340D01*
X0358739Y0224398D01*
X0358593Y0224460D01*
X0358449Y0224525D01*
X0358307Y0224595D01*
X0358166Y0224667D01*
X0358027Y0224744D01*
X0357891Y0224823D01*
X0357756Y0224907D01*
X0357623Y0224993D01*
X0357493Y0225083D01*
X0357365Y0225176D01*
X0357239Y0225272D01*
X0357116Y0225372D01*
X0356995Y0225474D01*
X0356877Y0225579D01*
X0356762Y0225688D01*
X0356649Y0225799D01*
X0356539Y0225913D01*
X0356432Y0226030D01*
X0356328Y0226149D01*
X0356227Y0226271D01*
X0356130Y0226396D01*
X0356035Y0226523D01*
X0355944Y0226652D01*
X0355855Y0226783D01*
X0355771Y0226917D01*
X0355689Y0227053D01*
X0355611Y0227190D01*
X0355537Y0227330D01*
X0355466Y0227472D01*
X0355398Y0227615D01*
X0355334Y0227760D01*
X0355274Y0227906D01*
X0355218Y0228054D01*
X0355165Y0228203D01*
X0355116Y0228354D01*
X0355071Y0228506D01*
X0355030Y0228659D01*
X0354992Y0228812D01*
X0354959Y0228967D01*
X0354929Y0229123D01*
X0354903Y0229279D01*
X0354882Y0229436D01*
X0354864Y0229593D01*
X0354850Y0229751D01*
X0354840Y0229909D01*
X0354834Y0230067D01*
X0354832Y0230225D01*
X0354832Y0013296D02*
X0354834Y0013454D01*
X0354840Y0013612D01*
X0354850Y0013770D01*
X0354864Y0013928D01*
X0354882Y0014085D01*
X0354903Y0014242D01*
X0354929Y0014398D01*
X0354959Y0014554D01*
X0354992Y0014709D01*
X0355030Y0014862D01*
X0355071Y0015015D01*
X0355116Y0015167D01*
X0355165Y0015318D01*
X0355218Y0015467D01*
X0355274Y0015615D01*
X0355334Y0015761D01*
X0355398Y0015906D01*
X0355466Y0016049D01*
X0355537Y0016191D01*
X0355611Y0016331D01*
X0355689Y0016468D01*
X0355771Y0016604D01*
X0355855Y0016738D01*
X0355944Y0016869D01*
X0356035Y0016998D01*
X0356130Y0017125D01*
X0356227Y0017250D01*
X0356328Y0017372D01*
X0356432Y0017491D01*
X0356539Y0017608D01*
X0356649Y0017722D01*
X0356762Y0017833D01*
X0356877Y0017942D01*
X0356995Y0018047D01*
X0357116Y0018149D01*
X0357239Y0018249D01*
X0357365Y0018345D01*
X0357493Y0018438D01*
X0357623Y0018528D01*
X0357756Y0018614D01*
X0357891Y0018698D01*
X0358027Y0018777D01*
X0358166Y0018854D01*
X0358307Y0018926D01*
X0358449Y0018996D01*
X0358593Y0019061D01*
X0358739Y0019123D01*
X0358886Y0019181D01*
X0359035Y0019236D01*
X0359185Y0019287D01*
X0359336Y0019334D01*
X0359488Y0019377D01*
X0359641Y0019416D01*
X0359796Y0019452D01*
X0359951Y0019483D01*
X0360107Y0019511D01*
X0360263Y0019535D01*
X0360420Y0019555D01*
X0360578Y0019571D01*
X0360735Y0019583D01*
X0360894Y0019591D01*
X0361052Y0019595D01*
X0361210Y0019595D01*
X0361368Y0019591D01*
X0361527Y0019583D01*
X0361684Y0019571D01*
X0361842Y0019555D01*
X0361999Y0019535D01*
X0362155Y0019511D01*
X0362311Y0019483D01*
X0362466Y0019452D01*
X0362621Y0019416D01*
X0362774Y0019377D01*
X0362926Y0019334D01*
X0363077Y0019287D01*
X0363227Y0019236D01*
X0363376Y0019181D01*
X0363523Y0019123D01*
X0363669Y0019061D01*
X0363813Y0018996D01*
X0363955Y0018926D01*
X0364096Y0018854D01*
X0364235Y0018777D01*
X0364371Y0018698D01*
X0364506Y0018614D01*
X0364639Y0018528D01*
X0364769Y0018438D01*
X0364897Y0018345D01*
X0365023Y0018249D01*
X0365146Y0018149D01*
X0365267Y0018047D01*
X0365385Y0017942D01*
X0365500Y0017833D01*
X0365613Y0017722D01*
X0365723Y0017608D01*
X0365830Y0017491D01*
X0365934Y0017372D01*
X0366035Y0017250D01*
X0366132Y0017125D01*
X0366227Y0016998D01*
X0366318Y0016869D01*
X0366407Y0016738D01*
X0366491Y0016604D01*
X0366573Y0016468D01*
X0366651Y0016331D01*
X0366725Y0016191D01*
X0366796Y0016049D01*
X0366864Y0015906D01*
X0366928Y0015761D01*
X0366988Y0015615D01*
X0367044Y0015467D01*
X0367097Y0015318D01*
X0367146Y0015167D01*
X0367191Y0015015D01*
X0367232Y0014862D01*
X0367270Y0014709D01*
X0367303Y0014554D01*
X0367333Y0014398D01*
X0367359Y0014242D01*
X0367380Y0014085D01*
X0367398Y0013928D01*
X0367412Y0013770D01*
X0367422Y0013612D01*
X0367428Y0013454D01*
X0367430Y0013296D01*
X0367428Y0013138D01*
X0367422Y0012980D01*
X0367412Y0012822D01*
X0367398Y0012664D01*
X0367380Y0012507D01*
X0367359Y0012350D01*
X0367333Y0012194D01*
X0367303Y0012038D01*
X0367270Y0011883D01*
X0367232Y0011730D01*
X0367191Y0011577D01*
X0367146Y0011425D01*
X0367097Y0011274D01*
X0367044Y0011125D01*
X0366988Y0010977D01*
X0366928Y0010831D01*
X0366864Y0010686D01*
X0366796Y0010543D01*
X0366725Y0010401D01*
X0366651Y0010261D01*
X0366573Y0010124D01*
X0366491Y0009988D01*
X0366407Y0009854D01*
X0366318Y0009723D01*
X0366227Y0009594D01*
X0366132Y0009467D01*
X0366035Y0009342D01*
X0365934Y0009220D01*
X0365830Y0009101D01*
X0365723Y0008984D01*
X0365613Y0008870D01*
X0365500Y0008759D01*
X0365385Y0008650D01*
X0365267Y0008545D01*
X0365146Y0008443D01*
X0365023Y0008343D01*
X0364897Y0008247D01*
X0364769Y0008154D01*
X0364639Y0008064D01*
X0364506Y0007978D01*
X0364371Y0007894D01*
X0364235Y0007815D01*
X0364096Y0007738D01*
X0363955Y0007666D01*
X0363813Y0007596D01*
X0363669Y0007531D01*
X0363523Y0007469D01*
X0363376Y0007411D01*
X0363227Y0007356D01*
X0363077Y0007305D01*
X0362926Y0007258D01*
X0362774Y0007215D01*
X0362621Y0007176D01*
X0362466Y0007140D01*
X0362311Y0007109D01*
X0362155Y0007081D01*
X0361999Y0007057D01*
X0361842Y0007037D01*
X0361684Y0007021D01*
X0361527Y0007009D01*
X0361368Y0007001D01*
X0361210Y0006997D01*
X0361052Y0006997D01*
X0360894Y0007001D01*
X0360735Y0007009D01*
X0360578Y0007021D01*
X0360420Y0007037D01*
X0360263Y0007057D01*
X0360107Y0007081D01*
X0359951Y0007109D01*
X0359796Y0007140D01*
X0359641Y0007176D01*
X0359488Y0007215D01*
X0359336Y0007258D01*
X0359185Y0007305D01*
X0359035Y0007356D01*
X0358886Y0007411D01*
X0358739Y0007469D01*
X0358593Y0007531D01*
X0358449Y0007596D01*
X0358307Y0007666D01*
X0358166Y0007738D01*
X0358027Y0007815D01*
X0357891Y0007894D01*
X0357756Y0007978D01*
X0357623Y0008064D01*
X0357493Y0008154D01*
X0357365Y0008247D01*
X0357239Y0008343D01*
X0357116Y0008443D01*
X0356995Y0008545D01*
X0356877Y0008650D01*
X0356762Y0008759D01*
X0356649Y0008870D01*
X0356539Y0008984D01*
X0356432Y0009101D01*
X0356328Y0009220D01*
X0356227Y0009342D01*
X0356130Y0009467D01*
X0356035Y0009594D01*
X0355944Y0009723D01*
X0355855Y0009854D01*
X0355771Y0009988D01*
X0355689Y0010124D01*
X0355611Y0010261D01*
X0355537Y0010401D01*
X0355466Y0010543D01*
X0355398Y0010686D01*
X0355334Y0010831D01*
X0355274Y0010977D01*
X0355218Y0011125D01*
X0355165Y0011274D01*
X0355116Y0011425D01*
X0355071Y0011577D01*
X0355030Y0011730D01*
X0354992Y0011883D01*
X0354959Y0012038D01*
X0354929Y0012194D01*
X0354903Y0012350D01*
X0354882Y0012507D01*
X0354864Y0012664D01*
X0354850Y0012822D01*
X0354840Y0012980D01*
X0354834Y0013138D01*
X0354832Y0013296D01*
D11*
X0234786Y0129298D02*
X0233285Y0129298D01*
X0234036Y0129298D02*
X0234036Y0133802D01*
X0234786Y0133802D02*
X0233285Y0133802D01*
X0231717Y0133051D02*
X0231717Y0130049D01*
X0230966Y0129298D01*
X0229465Y0129298D01*
X0228714Y0130049D01*
X0227113Y0129298D02*
X0224110Y0132301D01*
X0224110Y0133051D01*
X0224861Y0133802D01*
X0226362Y0133802D01*
X0227113Y0133051D01*
X0228714Y0133051D02*
X0229465Y0133802D01*
X0230966Y0133802D01*
X0231717Y0133051D01*
X0227113Y0129298D02*
X0224110Y0129298D01*
X0223529Y0150554D02*
X0220477Y0150554D01*
X0219459Y0151571D01*
X0219459Y0155642D01*
X0220477Y0156659D01*
X0223529Y0156659D01*
X0223529Y0150554D01*
X0225537Y0150554D02*
X0225537Y0156659D01*
X0229607Y0156659D02*
X0225537Y0150554D01*
X0229607Y0150554D02*
X0229607Y0156659D01*
X0231614Y0155642D02*
X0232631Y0156659D01*
X0234666Y0156659D01*
X0235684Y0155642D01*
X0235684Y0151571D01*
X0234666Y0150554D01*
X0232631Y0150554D01*
X0231614Y0151571D01*
X0231614Y0153607D01*
X0233649Y0153607D01*
X0233649Y0161471D02*
X0233649Y0165542D01*
X0235684Y0163507D02*
X0231614Y0163507D01*
X0229607Y0163507D02*
X0227572Y0164524D01*
X0226554Y0164524D01*
X0225537Y0163507D01*
X0225537Y0161471D01*
X0226554Y0160454D01*
X0228589Y0160454D01*
X0229607Y0161471D01*
X0229607Y0163507D02*
X0229607Y0166559D01*
X0225537Y0166559D01*
X0223529Y0166559D02*
X0223529Y0162489D01*
X0221494Y0160454D01*
X0219459Y0162489D01*
X0219459Y0166559D01*
X0219459Y0170354D02*
X0223529Y0170354D01*
X0223529Y0176459D01*
X0225537Y0179236D02*
X0229607Y0179236D01*
X0231614Y0180254D02*
X0231614Y0184324D01*
X0233649Y0186359D01*
X0235684Y0184324D01*
X0235684Y0180254D01*
X0233649Y0176459D02*
X0231614Y0174424D01*
X0231614Y0170354D01*
X0229607Y0169336D02*
X0225537Y0169336D01*
X0231614Y0173407D02*
X0235684Y0173407D01*
X0235684Y0174424D02*
X0233649Y0176459D01*
X0235684Y0174424D02*
X0235684Y0170354D01*
X0223529Y0180254D02*
X0223529Y0186359D01*
X0220477Y0186359D01*
X0219459Y0185342D01*
X0219459Y0183307D01*
X0220477Y0182289D01*
X0223529Y0182289D01*
X0221494Y0182289D02*
X0219459Y0180254D01*
X0231614Y0183307D02*
X0235684Y0183307D01*
X0234666Y0190154D02*
X0235684Y0191171D01*
X0234666Y0190154D02*
X0232631Y0190154D01*
X0231614Y0191171D01*
X0231614Y0192189D01*
X0232631Y0193207D01*
X0234666Y0193207D01*
X0235684Y0194224D01*
X0235684Y0195242D01*
X0234666Y0196259D01*
X0232631Y0196259D01*
X0231614Y0195242D01*
X0229607Y0199036D02*
X0225537Y0199036D01*
X0223529Y0200054D02*
X0221494Y0200054D01*
X0222512Y0200054D02*
X0222512Y0206159D01*
X0223529Y0206159D02*
X0221494Y0206159D01*
X0219478Y0206159D02*
X0215408Y0200054D01*
X0215408Y0206159D01*
X0215408Y0209954D02*
X0215408Y0216059D01*
X0215408Y0219854D02*
X0215408Y0225959D01*
X0219478Y0225959D02*
X0215408Y0219854D01*
X0219478Y0219854D02*
X0219478Y0225959D01*
X0221494Y0225959D02*
X0223529Y0225959D01*
X0222512Y0225959D02*
X0222512Y0219854D01*
X0223529Y0219854D02*
X0221494Y0219854D01*
X0221494Y0216059D02*
X0223529Y0216059D01*
X0222512Y0216059D02*
X0222512Y0209954D01*
X0223529Y0209954D02*
X0221494Y0209954D01*
X0219478Y0209954D02*
X0219478Y0216059D01*
X0215408Y0209954D01*
X0219478Y0206159D02*
X0219478Y0200054D01*
X0219478Y0196259D02*
X0215408Y0190154D01*
X0215408Y0196259D01*
X0219478Y0196259D02*
X0219478Y0190154D01*
X0221494Y0190154D02*
X0223529Y0190154D01*
X0222512Y0190154D02*
X0222512Y0196259D01*
X0223529Y0196259D02*
X0221494Y0196259D01*
X0231614Y0201071D02*
X0232631Y0200054D01*
X0235684Y0200054D01*
X0235684Y0206159D01*
X0232631Y0206159D01*
X0231614Y0205142D01*
X0231614Y0204124D01*
X0232631Y0203107D01*
X0235684Y0203107D01*
X0232631Y0203107D02*
X0231614Y0202089D01*
X0231614Y0201071D01*
X0229607Y0208936D02*
X0225537Y0208936D01*
X0231614Y0210971D02*
X0231614Y0213007D01*
X0233649Y0213007D01*
X0235684Y0215042D02*
X0235684Y0210971D01*
X0234666Y0209954D01*
X0232631Y0209954D01*
X0231614Y0210971D01*
X0231614Y0215042D02*
X0232631Y0216059D01*
X0234666Y0216059D01*
X0235684Y0215042D01*
X0235684Y0219854D02*
X0235684Y0225959D01*
X0232631Y0225959D01*
X0231614Y0224942D01*
X0231614Y0222907D01*
X0232631Y0221889D01*
X0235684Y0221889D01*
X0233649Y0221889D02*
X0231614Y0219854D01*
X0229607Y0218836D02*
X0225537Y0218836D01*
X0225537Y0189136D02*
X0229607Y0189136D01*
X0273003Y0164303D02*
X0274020Y0165321D01*
X0277073Y0165321D01*
X0277073Y0159215D01*
X0274020Y0159215D01*
X0273003Y0160233D01*
X0273003Y0164303D01*
X0279080Y0165321D02*
X0279080Y0159215D01*
X0283150Y0165321D01*
X0283150Y0159215D01*
X0285157Y0160233D02*
X0285157Y0162268D01*
X0287192Y0162268D01*
X0285157Y0164303D02*
X0286175Y0165321D01*
X0288210Y0165321D01*
X0289227Y0164303D01*
X0289227Y0160233D01*
X0288210Y0159215D01*
X0286175Y0159215D01*
X0285157Y0160233D01*
X0286175Y0169115D02*
X0285157Y0170133D01*
X0285157Y0172168D01*
X0286175Y0173185D01*
X0287192Y0173185D01*
X0289227Y0172168D01*
X0289227Y0175221D01*
X0285157Y0175221D01*
X0283150Y0175221D02*
X0283150Y0171150D01*
X0281115Y0169115D01*
X0279080Y0171150D01*
X0279080Y0175221D01*
X0279080Y0179015D02*
X0283150Y0179015D01*
X0283150Y0185121D01*
X0285157Y0183085D02*
X0285157Y0179015D01*
X0285157Y0182068D02*
X0289227Y0182068D01*
X0289227Y0183085D02*
X0289227Y0179015D01*
X0289227Y0183085D02*
X0287192Y0185121D01*
X0285157Y0183085D01*
X0285157Y0188915D02*
X0285157Y0192985D01*
X0287192Y0195021D01*
X0289227Y0192985D01*
X0289227Y0188915D01*
X0289227Y0191968D02*
X0285157Y0191968D01*
X0283150Y0190950D02*
X0280097Y0190950D01*
X0279080Y0191968D01*
X0279080Y0194003D01*
X0280097Y0195021D01*
X0283150Y0195021D01*
X0283150Y0188915D01*
X0281115Y0190950D02*
X0279080Y0188915D01*
X0286175Y0198815D02*
X0285157Y0199833D01*
X0285157Y0200850D01*
X0286175Y0201868D01*
X0288210Y0201868D01*
X0289227Y0202885D01*
X0289227Y0203903D01*
X0288210Y0204921D01*
X0286175Y0204921D01*
X0285157Y0203903D01*
X0286175Y0208715D02*
X0285157Y0209733D01*
X0285157Y0210750D01*
X0286175Y0211768D01*
X0289227Y0211768D01*
X0286175Y0211768D02*
X0285157Y0212785D01*
X0285157Y0213803D01*
X0286175Y0214821D01*
X0289227Y0214821D01*
X0289227Y0208715D01*
X0286175Y0208715D01*
X0289227Y0199833D02*
X0288210Y0198815D01*
X0286175Y0198815D01*
X0286175Y0218615D02*
X0285157Y0219633D01*
X0285157Y0221668D01*
X0287192Y0221668D01*
X0285157Y0223703D02*
X0286175Y0224721D01*
X0288210Y0224721D01*
X0289227Y0223703D01*
X0289227Y0219633D01*
X0288210Y0218615D01*
X0286175Y0218615D01*
X0285157Y0228515D02*
X0287192Y0230550D01*
X0286175Y0230550D02*
X0289227Y0230550D01*
X0289227Y0228515D02*
X0289227Y0234621D01*
X0286175Y0234621D01*
X0285157Y0233603D01*
X0285157Y0231568D01*
X0286175Y0230550D01*
X0289227Y0170133D02*
X0288210Y0169115D01*
X0286175Y0169115D01*
X0150638Y0129792D02*
X0150640Y0129866D01*
X0150646Y0129941D01*
X0150656Y0130014D01*
X0150670Y0130088D01*
X0150687Y0130160D01*
X0150709Y0130231D01*
X0150734Y0130301D01*
X0150763Y0130370D01*
X0150795Y0130437D01*
X0150832Y0130502D01*
X0150871Y0130565D01*
X0150914Y0130626D01*
X0150960Y0130684D01*
X0151009Y0130740D01*
X0151061Y0130794D01*
X0151115Y0130844D01*
X0151173Y0130892D01*
X0151232Y0130936D01*
X0151294Y0130977D01*
X0151359Y0131015D01*
X0151425Y0131049D01*
X0151492Y0131080D01*
X0151562Y0131107D01*
X0151632Y0131130D01*
X0151704Y0131150D01*
X0151777Y0131166D01*
X0151850Y0131178D01*
X0151924Y0131186D01*
X0151999Y0131190D01*
X0152073Y0131190D01*
X0152148Y0131186D01*
X0152222Y0131178D01*
X0152295Y0131166D01*
X0152368Y0131150D01*
X0152440Y0131130D01*
X0152510Y0131107D01*
X0152580Y0131080D01*
X0152647Y0131049D01*
X0152713Y0131015D01*
X0152778Y0130977D01*
X0152840Y0130936D01*
X0152899Y0130892D01*
X0152957Y0130844D01*
X0153011Y0130794D01*
X0153063Y0130740D01*
X0153112Y0130684D01*
X0153158Y0130626D01*
X0153201Y0130565D01*
X0153240Y0130502D01*
X0153277Y0130437D01*
X0153309Y0130370D01*
X0153338Y0130301D01*
X0153363Y0130231D01*
X0153385Y0130160D01*
X0153402Y0130088D01*
X0153416Y0130014D01*
X0153426Y0129941D01*
X0153432Y0129866D01*
X0153434Y0129792D01*
X0153432Y0129718D01*
X0153426Y0129643D01*
X0153416Y0129570D01*
X0153402Y0129496D01*
X0153385Y0129424D01*
X0153363Y0129353D01*
X0153338Y0129283D01*
X0153309Y0129214D01*
X0153277Y0129147D01*
X0153240Y0129082D01*
X0153201Y0129019D01*
X0153158Y0128958D01*
X0153112Y0128900D01*
X0153063Y0128844D01*
X0153011Y0128790D01*
X0152957Y0128740D01*
X0152899Y0128692D01*
X0152840Y0128648D01*
X0152778Y0128607D01*
X0152713Y0128569D01*
X0152647Y0128535D01*
X0152580Y0128504D01*
X0152510Y0128477D01*
X0152440Y0128454D01*
X0152368Y0128434D01*
X0152295Y0128418D01*
X0152222Y0128406D01*
X0152148Y0128398D01*
X0152073Y0128394D01*
X0151999Y0128394D01*
X0151924Y0128398D01*
X0151850Y0128406D01*
X0151777Y0128418D01*
X0151704Y0128434D01*
X0151632Y0128454D01*
X0151562Y0128477D01*
X0151492Y0128504D01*
X0151425Y0128535D01*
X0151359Y0128569D01*
X0151294Y0128607D01*
X0151232Y0128648D01*
X0151173Y0128692D01*
X0151115Y0128740D01*
X0151061Y0128790D01*
X0151009Y0128844D01*
X0150960Y0128900D01*
X0150914Y0128958D01*
X0150871Y0129019D01*
X0150832Y0129082D01*
X0150795Y0129147D01*
X0150763Y0129214D01*
X0150734Y0129283D01*
X0150709Y0129353D01*
X0150687Y0129424D01*
X0150670Y0129496D01*
X0150656Y0129570D01*
X0150646Y0129643D01*
X0150640Y0129718D01*
X0150638Y0129792D01*
X0070638Y0129792D02*
X0070640Y0129866D01*
X0070646Y0129941D01*
X0070656Y0130014D01*
X0070670Y0130088D01*
X0070687Y0130160D01*
X0070709Y0130231D01*
X0070734Y0130301D01*
X0070763Y0130370D01*
X0070795Y0130437D01*
X0070832Y0130502D01*
X0070871Y0130565D01*
X0070914Y0130626D01*
X0070960Y0130684D01*
X0071009Y0130740D01*
X0071061Y0130794D01*
X0071115Y0130844D01*
X0071173Y0130892D01*
X0071232Y0130936D01*
X0071294Y0130977D01*
X0071359Y0131015D01*
X0071425Y0131049D01*
X0071492Y0131080D01*
X0071562Y0131107D01*
X0071632Y0131130D01*
X0071704Y0131150D01*
X0071777Y0131166D01*
X0071850Y0131178D01*
X0071924Y0131186D01*
X0071999Y0131190D01*
X0072073Y0131190D01*
X0072148Y0131186D01*
X0072222Y0131178D01*
X0072295Y0131166D01*
X0072368Y0131150D01*
X0072440Y0131130D01*
X0072510Y0131107D01*
X0072580Y0131080D01*
X0072647Y0131049D01*
X0072713Y0131015D01*
X0072778Y0130977D01*
X0072840Y0130936D01*
X0072899Y0130892D01*
X0072957Y0130844D01*
X0073011Y0130794D01*
X0073063Y0130740D01*
X0073112Y0130684D01*
X0073158Y0130626D01*
X0073201Y0130565D01*
X0073240Y0130502D01*
X0073277Y0130437D01*
X0073309Y0130370D01*
X0073338Y0130301D01*
X0073363Y0130231D01*
X0073385Y0130160D01*
X0073402Y0130088D01*
X0073416Y0130014D01*
X0073426Y0129941D01*
X0073432Y0129866D01*
X0073434Y0129792D01*
X0073432Y0129718D01*
X0073426Y0129643D01*
X0073416Y0129570D01*
X0073402Y0129496D01*
X0073385Y0129424D01*
X0073363Y0129353D01*
X0073338Y0129283D01*
X0073309Y0129214D01*
X0073277Y0129147D01*
X0073240Y0129082D01*
X0073201Y0129019D01*
X0073158Y0128958D01*
X0073112Y0128900D01*
X0073063Y0128844D01*
X0073011Y0128790D01*
X0072957Y0128740D01*
X0072899Y0128692D01*
X0072840Y0128648D01*
X0072778Y0128607D01*
X0072713Y0128569D01*
X0072647Y0128535D01*
X0072580Y0128504D01*
X0072510Y0128477D01*
X0072440Y0128454D01*
X0072368Y0128434D01*
X0072295Y0128418D01*
X0072222Y0128406D01*
X0072148Y0128398D01*
X0072073Y0128394D01*
X0071999Y0128394D01*
X0071924Y0128398D01*
X0071850Y0128406D01*
X0071777Y0128418D01*
X0071704Y0128434D01*
X0071632Y0128454D01*
X0071562Y0128477D01*
X0071492Y0128504D01*
X0071425Y0128535D01*
X0071359Y0128569D01*
X0071294Y0128607D01*
X0071232Y0128648D01*
X0071173Y0128692D01*
X0071115Y0128740D01*
X0071061Y0128790D01*
X0071009Y0128844D01*
X0070960Y0128900D01*
X0070914Y0128958D01*
X0070871Y0129019D01*
X0070832Y0129082D01*
X0070795Y0129147D01*
X0070763Y0129214D01*
X0070734Y0129283D01*
X0070709Y0129353D01*
X0070687Y0129424D01*
X0070670Y0129496D01*
X0070656Y0129570D01*
X0070646Y0129643D01*
X0070640Y0129718D01*
X0070638Y0129792D01*
D12*
X0071034Y0142824D02*
X0067006Y0142824D01*
X0063069Y0142824D02*
X0059041Y0142824D01*
X0055104Y0142824D02*
X0051076Y0142824D01*
X0047139Y0142824D02*
X0043111Y0142824D01*
X0039174Y0142824D02*
X0035146Y0142824D01*
X0035146Y0147441D01*
X0035146Y0151378D02*
X0035146Y0155995D01*
X0035146Y0159932D02*
X0035146Y0164549D01*
X0035146Y0168486D02*
X0035146Y0173103D01*
X0035146Y0177040D02*
X0035146Y0181657D01*
X0035146Y0185594D02*
X0035146Y0190211D01*
X0035146Y0194148D02*
X0035146Y0198765D01*
X0035146Y0202702D02*
X0035146Y0207319D01*
X0035146Y0211256D02*
X0035146Y0215873D01*
X0035146Y0219810D02*
X0035146Y0224427D01*
X0035146Y0228364D02*
X0035146Y0232981D01*
X0039174Y0232981D01*
X0043111Y0232981D02*
X0047139Y0232981D01*
X0051076Y0232981D02*
X0055104Y0232981D01*
X0059041Y0232981D02*
X0063069Y0232981D01*
X0067006Y0232981D02*
X0071034Y0232981D01*
X0074971Y0232981D02*
X0078999Y0232981D01*
X0082936Y0232981D02*
X0086964Y0232981D01*
X0090901Y0232981D02*
X0094928Y0232981D01*
X0098865Y0232981D02*
X0102893Y0232981D01*
X0106830Y0232981D02*
X0110858Y0232981D01*
X0114795Y0232981D02*
X0118823Y0232981D01*
X0122760Y0232981D02*
X0126788Y0232981D01*
X0130725Y0232981D02*
X0134753Y0232981D01*
X0138690Y0232981D02*
X0142718Y0232981D01*
X0146655Y0232981D02*
X0150682Y0232981D01*
X0154620Y0232981D02*
X0158647Y0232981D01*
X0162584Y0232981D02*
X0166612Y0232981D01*
X0170549Y0232981D02*
X0174577Y0232981D01*
X0178514Y0232981D02*
X0182542Y0232981D01*
X0186479Y0232981D02*
X0190507Y0232981D01*
X0194444Y0232981D02*
X0198472Y0232981D01*
X0202409Y0232981D02*
X0206437Y0232981D01*
X0210374Y0232981D02*
X0214401Y0232981D01*
X0218338Y0232981D02*
X0222366Y0232981D01*
X0226303Y0232981D02*
X0230331Y0232981D01*
X0234268Y0232981D02*
X0238296Y0232981D01*
X0238296Y0228364D01*
X0238296Y0224427D02*
X0238296Y0219810D01*
X0238296Y0215873D02*
X0238296Y0211256D01*
X0238296Y0207319D02*
X0238296Y0202702D01*
X0238296Y0198765D02*
X0238296Y0194148D01*
X0238296Y0190211D02*
X0238296Y0185594D01*
X0238296Y0181657D02*
X0238296Y0177040D01*
X0238296Y0173103D02*
X0238296Y0168486D01*
X0238296Y0164549D02*
X0238296Y0159932D01*
X0238296Y0155995D02*
X0238296Y0151378D01*
X0238296Y0147441D02*
X0238296Y0142824D01*
X0234268Y0142824D01*
X0230331Y0142824D02*
X0226303Y0142824D01*
X0222366Y0142824D02*
X0218338Y0142824D01*
X0214401Y0142824D02*
X0210374Y0142824D01*
X0206437Y0142824D02*
X0202409Y0142824D01*
X0198472Y0142824D02*
X0194444Y0142824D01*
X0190507Y0142824D02*
X0186479Y0142824D01*
X0182542Y0142824D02*
X0178514Y0142824D01*
X0174577Y0142824D02*
X0170549Y0142824D01*
X0166612Y0142824D02*
X0162584Y0142824D01*
X0158647Y0142824D02*
X0154620Y0142824D01*
X0150682Y0142824D02*
X0146655Y0142824D01*
X0142718Y0142824D02*
X0138690Y0142824D01*
X0134753Y0142824D02*
X0130725Y0142824D01*
X0126788Y0142824D02*
X0122760Y0142824D01*
X0118823Y0142824D02*
X0114795Y0142824D01*
X0110858Y0142824D02*
X0106830Y0142824D01*
X0102893Y0142824D02*
X0098865Y0142824D01*
X0094928Y0142824D02*
X0090901Y0142824D01*
X0086964Y0142824D02*
X0082936Y0142824D01*
X0078999Y0142824D02*
X0074971Y0142824D01*
X0269398Y0156603D02*
X0269398Y0161052D01*
X0269398Y0164989D02*
X0269398Y0169438D01*
X0269398Y0173375D02*
X0269398Y0177824D01*
X0269398Y0181761D02*
X0269398Y0186209D01*
X0269398Y0190146D02*
X0269398Y0194595D01*
X0269398Y0198532D02*
X0269398Y0202981D01*
X0269398Y0206918D02*
X0269398Y0211367D01*
X0269398Y0215304D02*
X0269398Y0219753D01*
X0269398Y0223690D02*
X0269398Y0228139D01*
X0269398Y0232076D02*
X0269398Y0236524D01*
X0274123Y0236524D01*
X0278060Y0236524D02*
X0282784Y0236524D01*
X0286721Y0236524D02*
X0291446Y0236524D01*
X0295383Y0236524D02*
X0300107Y0236524D01*
X0304044Y0236524D02*
X0308769Y0236524D01*
X0312706Y0236524D02*
X0317430Y0236524D01*
X0317430Y0232076D01*
X0317430Y0228139D02*
X0317430Y0223690D01*
X0317430Y0219753D02*
X0317430Y0215304D01*
X0317430Y0211367D02*
X0317430Y0206918D01*
X0317430Y0202981D02*
X0317430Y0198532D01*
X0317430Y0194595D02*
X0317430Y0190146D01*
X0317430Y0186209D02*
X0317430Y0181761D01*
X0317430Y0177824D02*
X0317430Y0173375D01*
X0317430Y0169438D02*
X0317430Y0164989D01*
X0317430Y0161052D02*
X0317430Y0156603D01*
X0312706Y0156603D01*
X0308769Y0156603D02*
X0304044Y0156603D01*
X0300107Y0156603D02*
X0295383Y0156603D01*
X0291446Y0156603D02*
X0286721Y0156603D01*
X0282784Y0156603D02*
X0278060Y0156603D01*
X0274123Y0156603D02*
X0269398Y0156603D01*
D13*
X0307887Y0183955D02*
X0307887Y0186090D01*
X0308955Y0187158D01*
X0313225Y0187158D01*
X0314293Y0186090D01*
X0314293Y0183955D01*
X0313225Y0182887D01*
X0308955Y0182887D01*
X0307887Y0183955D01*
X0308955Y0189333D02*
X0307887Y0190400D01*
X0307887Y0192536D01*
X0308955Y0193603D01*
X0314293Y0193603D01*
X0314293Y0195778D02*
X0314293Y0200049D01*
X0314293Y0197914D02*
X0307887Y0197914D01*
X0307887Y0202224D02*
X0314293Y0202224D01*
X0314293Y0205427D01*
X0313225Y0206494D01*
X0311090Y0206494D01*
X0310023Y0205427D01*
X0310023Y0202224D01*
X0308955Y0208669D02*
X0307887Y0209737D01*
X0307887Y0211872D01*
X0308955Y0212940D01*
X0314293Y0212940D01*
X0314293Y0215115D02*
X0314293Y0219385D01*
X0314293Y0217250D02*
X0307887Y0217250D01*
X0308955Y0208669D02*
X0314293Y0208669D01*
X0314293Y0189333D02*
X0308955Y0189333D01*
X0234736Y0126048D02*
X0234736Y0089048D01*
X0234734Y0088972D01*
X0234728Y0088896D01*
X0234719Y0088821D01*
X0234705Y0088746D01*
X0234688Y0088672D01*
X0234667Y0088599D01*
X0234643Y0088527D01*
X0234614Y0088456D01*
X0234583Y0088387D01*
X0234548Y0088320D01*
X0234509Y0088255D01*
X0234467Y0088191D01*
X0234422Y0088130D01*
X0234374Y0088071D01*
X0234323Y0088015D01*
X0234269Y0087961D01*
X0234213Y0087910D01*
X0234154Y0087862D01*
X0234093Y0087817D01*
X0234029Y0087775D01*
X0233964Y0087736D01*
X0233897Y0087701D01*
X0233828Y0087670D01*
X0233757Y0087641D01*
X0233685Y0087617D01*
X0233612Y0087596D01*
X0233538Y0087579D01*
X0233463Y0087565D01*
X0233388Y0087556D01*
X0233312Y0087550D01*
X0233236Y0087548D01*
X0220836Y0087548D01*
X0220760Y0087550D01*
X0220684Y0087556D01*
X0220609Y0087565D01*
X0220534Y0087579D01*
X0220460Y0087596D01*
X0220387Y0087617D01*
X0220315Y0087641D01*
X0220244Y0087670D01*
X0220175Y0087701D01*
X0220108Y0087736D01*
X0220043Y0087775D01*
X0219979Y0087817D01*
X0219918Y0087862D01*
X0219859Y0087910D01*
X0219803Y0087961D01*
X0219749Y0088015D01*
X0219698Y0088071D01*
X0219650Y0088130D01*
X0219605Y0088191D01*
X0219563Y0088255D01*
X0219524Y0088320D01*
X0219489Y0088387D01*
X0219458Y0088456D01*
X0219429Y0088527D01*
X0219405Y0088599D01*
X0219384Y0088672D01*
X0219367Y0088746D01*
X0219353Y0088821D01*
X0219344Y0088896D01*
X0219338Y0088972D01*
X0219336Y0089048D01*
X0219336Y0126048D01*
X0219338Y0126124D01*
X0219344Y0126200D01*
X0219353Y0126275D01*
X0219367Y0126350D01*
X0219384Y0126424D01*
X0219405Y0126497D01*
X0219429Y0126569D01*
X0219458Y0126640D01*
X0219489Y0126709D01*
X0219524Y0126776D01*
X0219563Y0126841D01*
X0219605Y0126905D01*
X0219650Y0126966D01*
X0219698Y0127025D01*
X0219749Y0127081D01*
X0219803Y0127135D01*
X0219859Y0127186D01*
X0219918Y0127234D01*
X0219979Y0127279D01*
X0220043Y0127321D01*
X0220108Y0127360D01*
X0220175Y0127395D01*
X0220244Y0127426D01*
X0220315Y0127455D01*
X0220387Y0127479D01*
X0220460Y0127500D01*
X0220534Y0127517D01*
X0220609Y0127531D01*
X0220684Y0127540D01*
X0220760Y0127546D01*
X0220836Y0127548D01*
X0225036Y0127548D01*
X0229036Y0127548D01*
X0233236Y0127548D01*
X0233312Y0127546D01*
X0233388Y0127540D01*
X0233463Y0127531D01*
X0233538Y0127517D01*
X0233612Y0127500D01*
X0233685Y0127479D01*
X0233757Y0127455D01*
X0233828Y0127426D01*
X0233897Y0127395D01*
X0233964Y0127360D01*
X0234029Y0127321D01*
X0234093Y0127279D01*
X0234154Y0127234D01*
X0234213Y0127186D01*
X0234269Y0127135D01*
X0234323Y0127081D01*
X0234374Y0127025D01*
X0234422Y0126966D01*
X0234467Y0126905D01*
X0234509Y0126841D01*
X0234548Y0126776D01*
X0234583Y0126709D01*
X0234614Y0126640D01*
X0234643Y0126569D01*
X0234667Y0126497D01*
X0234688Y0126424D01*
X0234705Y0126350D01*
X0234719Y0126275D01*
X0234728Y0126200D01*
X0234734Y0126124D01*
X0234736Y0126048D01*
X0229036Y0127548D02*
X0229034Y0127460D01*
X0229028Y0127371D01*
X0229018Y0127283D01*
X0229005Y0127196D01*
X0228987Y0127109D01*
X0228966Y0127023D01*
X0228941Y0126938D01*
X0228912Y0126855D01*
X0228879Y0126772D01*
X0228843Y0126692D01*
X0228804Y0126613D01*
X0228761Y0126535D01*
X0228714Y0126460D01*
X0228664Y0126387D01*
X0228611Y0126316D01*
X0228555Y0126247D01*
X0228496Y0126181D01*
X0228434Y0126118D01*
X0228370Y0126058D01*
X0228303Y0126000D01*
X0228233Y0125946D01*
X0228161Y0125894D01*
X0228087Y0125846D01*
X0228010Y0125801D01*
X0227932Y0125760D01*
X0227852Y0125722D01*
X0227771Y0125688D01*
X0227688Y0125657D01*
X0227603Y0125630D01*
X0227518Y0125607D01*
X0227432Y0125588D01*
X0227344Y0125572D01*
X0227257Y0125560D01*
X0227169Y0125552D01*
X0227080Y0125548D01*
X0226992Y0125548D01*
X0226903Y0125552D01*
X0226815Y0125560D01*
X0226728Y0125572D01*
X0226640Y0125588D01*
X0226554Y0125607D01*
X0226469Y0125630D01*
X0226384Y0125657D01*
X0226301Y0125688D01*
X0226220Y0125722D01*
X0226140Y0125760D01*
X0226062Y0125801D01*
X0225985Y0125846D01*
X0225911Y0125894D01*
X0225839Y0125946D01*
X0225769Y0126000D01*
X0225702Y0126058D01*
X0225638Y0126118D01*
X0225576Y0126181D01*
X0225517Y0126247D01*
X0225461Y0126316D01*
X0225408Y0126387D01*
X0225358Y0126460D01*
X0225311Y0126535D01*
X0225268Y0126613D01*
X0225229Y0126692D01*
X0225193Y0126772D01*
X0225160Y0126855D01*
X0225131Y0126938D01*
X0225106Y0127023D01*
X0225085Y0127109D01*
X0225067Y0127196D01*
X0225054Y0127283D01*
X0225044Y0127371D01*
X0225038Y0127460D01*
X0225036Y0127548D01*
X0188309Y0175407D02*
X0188309Y0177542D01*
X0188309Y0176475D02*
X0181903Y0176475D01*
X0181903Y0177542D02*
X0181903Y0175407D01*
X0181903Y0179704D02*
X0188309Y0179704D01*
X0181903Y0183974D01*
X0188309Y0183974D01*
X0188309Y0186150D02*
X0188309Y0189352D01*
X0187241Y0190420D01*
X0185106Y0190420D01*
X0184038Y0189352D01*
X0184038Y0186150D01*
X0181903Y0186150D02*
X0188309Y0186150D01*
X0188309Y0192595D02*
X0182971Y0192595D01*
X0181903Y0193663D01*
X0181903Y0195798D01*
X0182971Y0196865D01*
X0188309Y0196865D01*
X0188309Y0199041D02*
X0188309Y0203311D01*
X0188309Y0201176D02*
X0181903Y0201176D01*
D14*
X0136840Y0122946D02*
X0132236Y0122946D01*
X0134538Y0123713D02*
X0134538Y0120644D01*
X0136840Y0122946D01*
X0136073Y0119109D02*
X0136840Y0118342D01*
X0136840Y0116807D01*
X0136073Y0116040D01*
X0135305Y0116040D01*
X0134538Y0116807D01*
X0134538Y0118342D01*
X0133771Y0119109D01*
X0133004Y0119109D01*
X0132236Y0118342D01*
X0132236Y0116807D01*
X0133004Y0116040D01*
X0133004Y0114506D02*
X0136840Y0114506D01*
X0136840Y0111436D02*
X0133004Y0111436D01*
X0132236Y0112204D01*
X0132236Y0113738D01*
X0133004Y0114506D01*
X0131469Y0117575D02*
X0137607Y0117575D01*
X0057607Y0117575D02*
X0051469Y0117575D01*
X0052236Y0118342D02*
X0052236Y0116807D01*
X0053004Y0116040D01*
X0053004Y0114506D02*
X0056840Y0114506D01*
X0056073Y0116040D02*
X0056840Y0116807D01*
X0056840Y0118342D01*
X0056073Y0119109D01*
X0056073Y0120644D02*
X0056840Y0121411D01*
X0056840Y0122946D01*
X0056073Y0123713D01*
X0055305Y0123713D01*
X0052236Y0120644D01*
X0052236Y0123713D01*
X0053004Y0119109D02*
X0053771Y0119109D01*
X0054538Y0118342D01*
X0054538Y0116807D01*
X0055305Y0116040D01*
X0056073Y0116040D01*
X0053004Y0114506D02*
X0052236Y0113738D01*
X0052236Y0112204D01*
X0053004Y0111436D01*
X0056840Y0111436D01*
X0052236Y0118342D02*
X0053004Y0119109D01*
D15*
X0233336Y0127548D02*
X0233336Y0087548D01*
M02*
