%
M48
M72
T01C0.02400
T02C0.03200
T03C0.03600
T04C0.04400
T05C0.12598
%
T01
X52863Y235048
X60068Y201603
X28257Y183375
X30225Y174517
X32686Y166643
X64123Y146879
X47942Y134162
X51387Y130225
X36623Y129241
X36623Y139083
X64182Y120383
X56308Y116446
X62745Y111367
X67627Y101190
X72548Y100698
X87312Y105127
X87804Y100206
X96209Y98808
X106013Y94792
X102391Y80265
X116170Y72351
X120698Y62863
X106249Y63217
X80914Y74615
X65973Y83887
X72548Y90363
X56800Y81013
X51387Y73631
X58276Y62804
X51387Y58867
X37115Y58867
X25304Y65265
X33670Y78060
X51879Y95284
X52371Y100206
X36623Y101190
X30225Y100206
X66446Y129595
X87312Y140560
X90757Y149418
X106997Y142528
X115363Y137607
X104536Y133178
X96662Y133178
X88788Y125304
X88788Y119891
X93808Y119753
X94694Y114969
X87312Y110048
X99595Y124871
X112410Y119891
X131111Y114969
X131111Y110048
X131111Y105127
X131111Y100206
X140461Y95284
X135048Y89871
X135048Y81013
X146367Y72646
X146367Y67725
X139910Y58572
X151780Y55914
X140501Y43178
X115343Y40383
X80914Y40166
X150304Y85442
X156209Y81013
X173926Y90855
X148828Y94792
X178847Y110540
X178847Y119891
X173926Y124812
X174418Y129733
X174398Y137469
X181308Y144989
X178847Y149418
X194103Y140068
X194103Y134654
X198040Y122843
X197548Y117922
X189182Y113985
X198532Y110048
X221662Y112509
X226091Y115954
X216249Y130225
X226091Y137115
X221662Y149418
X227568Y157784
X227568Y163198
X237902Y161721
X248237Y167627
X247745Y172548
X262312Y179910
X276091Y174280
X262312Y159083
X258572Y151879
X242312Y152391
X244792Y140560
X258572Y137607
X267430Y129733
X268414Y121859
X263493Y108572
X254635Y100206
X259556Y99713
X251131Y78139
X243316Y78060
X231997Y84950
X224123Y94792
X201485Y84950
X216741Y74615
X267548Y66249
X277194Y77863
X300225Y100501
X318119Y106111
X317135Y112509
X320855Y116761
X309202Y128296
X298434Y125796
X292194Y138847
X296957Y144989
X300894Y148926
X294005Y152863
X308769Y145501
X323532Y138099
X356505Y173040
X360442Y178946
X360442Y189280
X359792Y209320
X261997Y233217
X253139Y223572
X242509Y199202
X255127Y192233
X221662Y183375
X191131Y179123
X172745Y186800
X148828Y203060
X137509Y201583
X110934Y186328
X108414Y176721
X71072Y170580
X70580Y165658
X108473Y149418
X133572Y141544
X147351Y130225
X136524Y123828
X135048Y118906
X162154Y134989
X158178Y139083
X173926Y160737
X197312Y145580
X198040Y160737
X187469Y210658
X177036Y220934
X148335Y223020
X103611Y219044
X279123Y38887
T02
X46170Y20501
X46170Y30501
X73729Y30501
X73729Y20501
X101288Y20501
X101288Y30501
X129241Y30501
X129241Y20501
X157194Y20501
X157194Y30501
X121170Y50619
X111170Y50619
X103847Y50816
X93847Y50816
X86524Y50619
X76524Y50619
X68808Y50422
X58808Y50422
X51879Y50619
X41879Y50619
X335540Y134123
X345540Y134123
X345658Y125737
X335658Y125737
X335698Y117312
X345698Y117312
X345619Y108611
X335619Y108611
X335383Y99989
X345383Y99989
T03
X126682Y68099
X156682Y68099
X212469Y67548
X242469Y67548
X342036Y157548
X332036Y157548
X332036Y167548
X342036Y167548
X342036Y177548
X332036Y177548
X332036Y187548
X342036Y187548
X342036Y197548
X332036Y197548
X332036Y207548
X342036Y207548
X342036Y217548
X332036Y217548
X332036Y227548
X342036Y227548
X77036Y67548
X47036Y67548
T04
X46052Y153335
X46052Y163335
X46052Y173335
X46052Y183335
X46052Y193335
X46052Y203335
X46052Y213335
X46052Y223335
X81052Y223335
X81052Y213335
X81052Y203335
X81052Y193335
X81052Y183335
X81052Y173335
X81052Y163335
X81052Y153335
X124202Y153335
X124202Y163335
X124202Y173335
X124202Y183335
X124202Y193335
X124202Y203335
X124202Y213335
X124202Y223335
X160776Y223335
X160776Y213335
X160776Y203335
X160776Y193335
X160776Y183335
X160776Y173335
X160776Y163335
X160776Y153335
X208257Y153335
X208257Y163335
X208257Y173335
X208257Y183335
X208257Y193335
X208257Y203335
X208257Y213335
X208257Y223335
X297036Y222548
X297036Y212548
X297036Y202548
X297036Y192548
X297036Y182548
X297036Y172548
X297036Y162548
X297036Y232548
T05
X20973Y12509
X20580Y230225
X361131Y230225
X361131Y13296
M30
