G75*
%MOIN*%
%OFA0B0*%
%FSLAX25Y25*%
%IPPOS*%
%LPD*%
%AMOC8*
5,1,8,0,0,1.08239X$1,22.5*
%
%ADD10C,0.00000*%
%ADD11C,0.00500*%
%ADD12C,0.01200*%
%ADD13C,0.00600*%
%ADD14C,0.01600*%
%ADD15C,0.00800*%
%ADD16C,0.02000*%
%ADD17C,0.00400*%
%ADD18C,0.01000*%
D10*
X0002233Y0002391D02*
X0002076Y0248335D01*
X0378808Y0248257D01*
X0379083Y0002272D01*
X0002233Y0002391D01*
X0014674Y0012509D02*
X0014676Y0012667D01*
X0014682Y0012825D01*
X0014692Y0012983D01*
X0014706Y0013141D01*
X0014724Y0013298D01*
X0014745Y0013455D01*
X0014771Y0013611D01*
X0014801Y0013767D01*
X0014834Y0013922D01*
X0014872Y0014075D01*
X0014913Y0014228D01*
X0014958Y0014380D01*
X0015007Y0014531D01*
X0015060Y0014680D01*
X0015116Y0014828D01*
X0015176Y0014974D01*
X0015240Y0015119D01*
X0015308Y0015262D01*
X0015379Y0015404D01*
X0015453Y0015544D01*
X0015531Y0015681D01*
X0015613Y0015817D01*
X0015697Y0015951D01*
X0015786Y0016082D01*
X0015877Y0016211D01*
X0015972Y0016338D01*
X0016069Y0016463D01*
X0016170Y0016585D01*
X0016274Y0016704D01*
X0016381Y0016821D01*
X0016491Y0016935D01*
X0016604Y0017046D01*
X0016719Y0017155D01*
X0016837Y0017260D01*
X0016958Y0017362D01*
X0017081Y0017462D01*
X0017207Y0017558D01*
X0017335Y0017651D01*
X0017465Y0017741D01*
X0017598Y0017827D01*
X0017733Y0017911D01*
X0017869Y0017990D01*
X0018008Y0018067D01*
X0018149Y0018139D01*
X0018291Y0018209D01*
X0018435Y0018274D01*
X0018581Y0018336D01*
X0018728Y0018394D01*
X0018877Y0018449D01*
X0019027Y0018500D01*
X0019178Y0018547D01*
X0019330Y0018590D01*
X0019483Y0018629D01*
X0019638Y0018665D01*
X0019793Y0018696D01*
X0019949Y0018724D01*
X0020105Y0018748D01*
X0020262Y0018768D01*
X0020420Y0018784D01*
X0020577Y0018796D01*
X0020736Y0018804D01*
X0020894Y0018808D01*
X0021052Y0018808D01*
X0021210Y0018804D01*
X0021369Y0018796D01*
X0021526Y0018784D01*
X0021684Y0018768D01*
X0021841Y0018748D01*
X0021997Y0018724D01*
X0022153Y0018696D01*
X0022308Y0018665D01*
X0022463Y0018629D01*
X0022616Y0018590D01*
X0022768Y0018547D01*
X0022919Y0018500D01*
X0023069Y0018449D01*
X0023218Y0018394D01*
X0023365Y0018336D01*
X0023511Y0018274D01*
X0023655Y0018209D01*
X0023797Y0018139D01*
X0023938Y0018067D01*
X0024077Y0017990D01*
X0024213Y0017911D01*
X0024348Y0017827D01*
X0024481Y0017741D01*
X0024611Y0017651D01*
X0024739Y0017558D01*
X0024865Y0017462D01*
X0024988Y0017362D01*
X0025109Y0017260D01*
X0025227Y0017155D01*
X0025342Y0017046D01*
X0025455Y0016935D01*
X0025565Y0016821D01*
X0025672Y0016704D01*
X0025776Y0016585D01*
X0025877Y0016463D01*
X0025974Y0016338D01*
X0026069Y0016211D01*
X0026160Y0016082D01*
X0026249Y0015951D01*
X0026333Y0015817D01*
X0026415Y0015681D01*
X0026493Y0015544D01*
X0026567Y0015404D01*
X0026638Y0015262D01*
X0026706Y0015119D01*
X0026770Y0014974D01*
X0026830Y0014828D01*
X0026886Y0014680D01*
X0026939Y0014531D01*
X0026988Y0014380D01*
X0027033Y0014228D01*
X0027074Y0014075D01*
X0027112Y0013922D01*
X0027145Y0013767D01*
X0027175Y0013611D01*
X0027201Y0013455D01*
X0027222Y0013298D01*
X0027240Y0013141D01*
X0027254Y0012983D01*
X0027264Y0012825D01*
X0027270Y0012667D01*
X0027272Y0012509D01*
X0027270Y0012351D01*
X0027264Y0012193D01*
X0027254Y0012035D01*
X0027240Y0011877D01*
X0027222Y0011720D01*
X0027201Y0011563D01*
X0027175Y0011407D01*
X0027145Y0011251D01*
X0027112Y0011096D01*
X0027074Y0010943D01*
X0027033Y0010790D01*
X0026988Y0010638D01*
X0026939Y0010487D01*
X0026886Y0010338D01*
X0026830Y0010190D01*
X0026770Y0010044D01*
X0026706Y0009899D01*
X0026638Y0009756D01*
X0026567Y0009614D01*
X0026493Y0009474D01*
X0026415Y0009337D01*
X0026333Y0009201D01*
X0026249Y0009067D01*
X0026160Y0008936D01*
X0026069Y0008807D01*
X0025974Y0008680D01*
X0025877Y0008555D01*
X0025776Y0008433D01*
X0025672Y0008314D01*
X0025565Y0008197D01*
X0025455Y0008083D01*
X0025342Y0007972D01*
X0025227Y0007863D01*
X0025109Y0007758D01*
X0024988Y0007656D01*
X0024865Y0007556D01*
X0024739Y0007460D01*
X0024611Y0007367D01*
X0024481Y0007277D01*
X0024348Y0007191D01*
X0024213Y0007107D01*
X0024077Y0007028D01*
X0023938Y0006951D01*
X0023797Y0006879D01*
X0023655Y0006809D01*
X0023511Y0006744D01*
X0023365Y0006682D01*
X0023218Y0006624D01*
X0023069Y0006569D01*
X0022919Y0006518D01*
X0022768Y0006471D01*
X0022616Y0006428D01*
X0022463Y0006389D01*
X0022308Y0006353D01*
X0022153Y0006322D01*
X0021997Y0006294D01*
X0021841Y0006270D01*
X0021684Y0006250D01*
X0021526Y0006234D01*
X0021369Y0006222D01*
X0021210Y0006214D01*
X0021052Y0006210D01*
X0020894Y0006210D01*
X0020736Y0006214D01*
X0020577Y0006222D01*
X0020420Y0006234D01*
X0020262Y0006250D01*
X0020105Y0006270D01*
X0019949Y0006294D01*
X0019793Y0006322D01*
X0019638Y0006353D01*
X0019483Y0006389D01*
X0019330Y0006428D01*
X0019178Y0006471D01*
X0019027Y0006518D01*
X0018877Y0006569D01*
X0018728Y0006624D01*
X0018581Y0006682D01*
X0018435Y0006744D01*
X0018291Y0006809D01*
X0018149Y0006879D01*
X0018008Y0006951D01*
X0017869Y0007028D01*
X0017733Y0007107D01*
X0017598Y0007191D01*
X0017465Y0007277D01*
X0017335Y0007367D01*
X0017207Y0007460D01*
X0017081Y0007556D01*
X0016958Y0007656D01*
X0016837Y0007758D01*
X0016719Y0007863D01*
X0016604Y0007972D01*
X0016491Y0008083D01*
X0016381Y0008197D01*
X0016274Y0008314D01*
X0016170Y0008433D01*
X0016069Y0008555D01*
X0015972Y0008680D01*
X0015877Y0008807D01*
X0015786Y0008936D01*
X0015697Y0009067D01*
X0015613Y0009201D01*
X0015531Y0009337D01*
X0015453Y0009474D01*
X0015379Y0009614D01*
X0015308Y0009756D01*
X0015240Y0009899D01*
X0015176Y0010044D01*
X0015116Y0010190D01*
X0015060Y0010338D01*
X0015007Y0010487D01*
X0014958Y0010638D01*
X0014913Y0010790D01*
X0014872Y0010943D01*
X0014834Y0011096D01*
X0014801Y0011251D01*
X0014771Y0011407D01*
X0014745Y0011563D01*
X0014724Y0011720D01*
X0014706Y0011877D01*
X0014692Y0012035D01*
X0014682Y0012193D01*
X0014676Y0012351D01*
X0014674Y0012509D01*
X0014281Y0230225D02*
X0014283Y0230383D01*
X0014289Y0230541D01*
X0014299Y0230699D01*
X0014313Y0230857D01*
X0014331Y0231014D01*
X0014352Y0231171D01*
X0014378Y0231327D01*
X0014408Y0231483D01*
X0014441Y0231638D01*
X0014479Y0231791D01*
X0014520Y0231944D01*
X0014565Y0232096D01*
X0014614Y0232247D01*
X0014667Y0232396D01*
X0014723Y0232544D01*
X0014783Y0232690D01*
X0014847Y0232835D01*
X0014915Y0232978D01*
X0014986Y0233120D01*
X0015060Y0233260D01*
X0015138Y0233397D01*
X0015220Y0233533D01*
X0015304Y0233667D01*
X0015393Y0233798D01*
X0015484Y0233927D01*
X0015579Y0234054D01*
X0015676Y0234179D01*
X0015777Y0234301D01*
X0015881Y0234420D01*
X0015988Y0234537D01*
X0016098Y0234651D01*
X0016211Y0234762D01*
X0016326Y0234871D01*
X0016444Y0234976D01*
X0016565Y0235078D01*
X0016688Y0235178D01*
X0016814Y0235274D01*
X0016942Y0235367D01*
X0017072Y0235457D01*
X0017205Y0235543D01*
X0017340Y0235627D01*
X0017476Y0235706D01*
X0017615Y0235783D01*
X0017756Y0235855D01*
X0017898Y0235925D01*
X0018042Y0235990D01*
X0018188Y0236052D01*
X0018335Y0236110D01*
X0018484Y0236165D01*
X0018634Y0236216D01*
X0018785Y0236263D01*
X0018937Y0236306D01*
X0019090Y0236345D01*
X0019245Y0236381D01*
X0019400Y0236412D01*
X0019556Y0236440D01*
X0019712Y0236464D01*
X0019869Y0236484D01*
X0020027Y0236500D01*
X0020184Y0236512D01*
X0020343Y0236520D01*
X0020501Y0236524D01*
X0020659Y0236524D01*
X0020817Y0236520D01*
X0020976Y0236512D01*
X0021133Y0236500D01*
X0021291Y0236484D01*
X0021448Y0236464D01*
X0021604Y0236440D01*
X0021760Y0236412D01*
X0021915Y0236381D01*
X0022070Y0236345D01*
X0022223Y0236306D01*
X0022375Y0236263D01*
X0022526Y0236216D01*
X0022676Y0236165D01*
X0022825Y0236110D01*
X0022972Y0236052D01*
X0023118Y0235990D01*
X0023262Y0235925D01*
X0023404Y0235855D01*
X0023545Y0235783D01*
X0023684Y0235706D01*
X0023820Y0235627D01*
X0023955Y0235543D01*
X0024088Y0235457D01*
X0024218Y0235367D01*
X0024346Y0235274D01*
X0024472Y0235178D01*
X0024595Y0235078D01*
X0024716Y0234976D01*
X0024834Y0234871D01*
X0024949Y0234762D01*
X0025062Y0234651D01*
X0025172Y0234537D01*
X0025279Y0234420D01*
X0025383Y0234301D01*
X0025484Y0234179D01*
X0025581Y0234054D01*
X0025676Y0233927D01*
X0025767Y0233798D01*
X0025856Y0233667D01*
X0025940Y0233533D01*
X0026022Y0233397D01*
X0026100Y0233260D01*
X0026174Y0233120D01*
X0026245Y0232978D01*
X0026313Y0232835D01*
X0026377Y0232690D01*
X0026437Y0232544D01*
X0026493Y0232396D01*
X0026546Y0232247D01*
X0026595Y0232096D01*
X0026640Y0231944D01*
X0026681Y0231791D01*
X0026719Y0231638D01*
X0026752Y0231483D01*
X0026782Y0231327D01*
X0026808Y0231171D01*
X0026829Y0231014D01*
X0026847Y0230857D01*
X0026861Y0230699D01*
X0026871Y0230541D01*
X0026877Y0230383D01*
X0026879Y0230225D01*
X0026877Y0230067D01*
X0026871Y0229909D01*
X0026861Y0229751D01*
X0026847Y0229593D01*
X0026829Y0229436D01*
X0026808Y0229279D01*
X0026782Y0229123D01*
X0026752Y0228967D01*
X0026719Y0228812D01*
X0026681Y0228659D01*
X0026640Y0228506D01*
X0026595Y0228354D01*
X0026546Y0228203D01*
X0026493Y0228054D01*
X0026437Y0227906D01*
X0026377Y0227760D01*
X0026313Y0227615D01*
X0026245Y0227472D01*
X0026174Y0227330D01*
X0026100Y0227190D01*
X0026022Y0227053D01*
X0025940Y0226917D01*
X0025856Y0226783D01*
X0025767Y0226652D01*
X0025676Y0226523D01*
X0025581Y0226396D01*
X0025484Y0226271D01*
X0025383Y0226149D01*
X0025279Y0226030D01*
X0025172Y0225913D01*
X0025062Y0225799D01*
X0024949Y0225688D01*
X0024834Y0225579D01*
X0024716Y0225474D01*
X0024595Y0225372D01*
X0024472Y0225272D01*
X0024346Y0225176D01*
X0024218Y0225083D01*
X0024088Y0224993D01*
X0023955Y0224907D01*
X0023820Y0224823D01*
X0023684Y0224744D01*
X0023545Y0224667D01*
X0023404Y0224595D01*
X0023262Y0224525D01*
X0023118Y0224460D01*
X0022972Y0224398D01*
X0022825Y0224340D01*
X0022676Y0224285D01*
X0022526Y0224234D01*
X0022375Y0224187D01*
X0022223Y0224144D01*
X0022070Y0224105D01*
X0021915Y0224069D01*
X0021760Y0224038D01*
X0021604Y0224010D01*
X0021448Y0223986D01*
X0021291Y0223966D01*
X0021133Y0223950D01*
X0020976Y0223938D01*
X0020817Y0223930D01*
X0020659Y0223926D01*
X0020501Y0223926D01*
X0020343Y0223930D01*
X0020184Y0223938D01*
X0020027Y0223950D01*
X0019869Y0223966D01*
X0019712Y0223986D01*
X0019556Y0224010D01*
X0019400Y0224038D01*
X0019245Y0224069D01*
X0019090Y0224105D01*
X0018937Y0224144D01*
X0018785Y0224187D01*
X0018634Y0224234D01*
X0018484Y0224285D01*
X0018335Y0224340D01*
X0018188Y0224398D01*
X0018042Y0224460D01*
X0017898Y0224525D01*
X0017756Y0224595D01*
X0017615Y0224667D01*
X0017476Y0224744D01*
X0017340Y0224823D01*
X0017205Y0224907D01*
X0017072Y0224993D01*
X0016942Y0225083D01*
X0016814Y0225176D01*
X0016688Y0225272D01*
X0016565Y0225372D01*
X0016444Y0225474D01*
X0016326Y0225579D01*
X0016211Y0225688D01*
X0016098Y0225799D01*
X0015988Y0225913D01*
X0015881Y0226030D01*
X0015777Y0226149D01*
X0015676Y0226271D01*
X0015579Y0226396D01*
X0015484Y0226523D01*
X0015393Y0226652D01*
X0015304Y0226783D01*
X0015220Y0226917D01*
X0015138Y0227053D01*
X0015060Y0227190D01*
X0014986Y0227330D01*
X0014915Y0227472D01*
X0014847Y0227615D01*
X0014783Y0227760D01*
X0014723Y0227906D01*
X0014667Y0228054D01*
X0014614Y0228203D01*
X0014565Y0228354D01*
X0014520Y0228506D01*
X0014479Y0228659D01*
X0014441Y0228812D01*
X0014408Y0228967D01*
X0014378Y0229123D01*
X0014352Y0229279D01*
X0014331Y0229436D01*
X0014313Y0229593D01*
X0014299Y0229751D01*
X0014289Y0229909D01*
X0014283Y0230067D01*
X0014281Y0230225D01*
X0354832Y0230225D02*
X0354834Y0230383D01*
X0354840Y0230541D01*
X0354850Y0230699D01*
X0354864Y0230857D01*
X0354882Y0231014D01*
X0354903Y0231171D01*
X0354929Y0231327D01*
X0354959Y0231483D01*
X0354992Y0231638D01*
X0355030Y0231791D01*
X0355071Y0231944D01*
X0355116Y0232096D01*
X0355165Y0232247D01*
X0355218Y0232396D01*
X0355274Y0232544D01*
X0355334Y0232690D01*
X0355398Y0232835D01*
X0355466Y0232978D01*
X0355537Y0233120D01*
X0355611Y0233260D01*
X0355689Y0233397D01*
X0355771Y0233533D01*
X0355855Y0233667D01*
X0355944Y0233798D01*
X0356035Y0233927D01*
X0356130Y0234054D01*
X0356227Y0234179D01*
X0356328Y0234301D01*
X0356432Y0234420D01*
X0356539Y0234537D01*
X0356649Y0234651D01*
X0356762Y0234762D01*
X0356877Y0234871D01*
X0356995Y0234976D01*
X0357116Y0235078D01*
X0357239Y0235178D01*
X0357365Y0235274D01*
X0357493Y0235367D01*
X0357623Y0235457D01*
X0357756Y0235543D01*
X0357891Y0235627D01*
X0358027Y0235706D01*
X0358166Y0235783D01*
X0358307Y0235855D01*
X0358449Y0235925D01*
X0358593Y0235990D01*
X0358739Y0236052D01*
X0358886Y0236110D01*
X0359035Y0236165D01*
X0359185Y0236216D01*
X0359336Y0236263D01*
X0359488Y0236306D01*
X0359641Y0236345D01*
X0359796Y0236381D01*
X0359951Y0236412D01*
X0360107Y0236440D01*
X0360263Y0236464D01*
X0360420Y0236484D01*
X0360578Y0236500D01*
X0360735Y0236512D01*
X0360894Y0236520D01*
X0361052Y0236524D01*
X0361210Y0236524D01*
X0361368Y0236520D01*
X0361527Y0236512D01*
X0361684Y0236500D01*
X0361842Y0236484D01*
X0361999Y0236464D01*
X0362155Y0236440D01*
X0362311Y0236412D01*
X0362466Y0236381D01*
X0362621Y0236345D01*
X0362774Y0236306D01*
X0362926Y0236263D01*
X0363077Y0236216D01*
X0363227Y0236165D01*
X0363376Y0236110D01*
X0363523Y0236052D01*
X0363669Y0235990D01*
X0363813Y0235925D01*
X0363955Y0235855D01*
X0364096Y0235783D01*
X0364235Y0235706D01*
X0364371Y0235627D01*
X0364506Y0235543D01*
X0364639Y0235457D01*
X0364769Y0235367D01*
X0364897Y0235274D01*
X0365023Y0235178D01*
X0365146Y0235078D01*
X0365267Y0234976D01*
X0365385Y0234871D01*
X0365500Y0234762D01*
X0365613Y0234651D01*
X0365723Y0234537D01*
X0365830Y0234420D01*
X0365934Y0234301D01*
X0366035Y0234179D01*
X0366132Y0234054D01*
X0366227Y0233927D01*
X0366318Y0233798D01*
X0366407Y0233667D01*
X0366491Y0233533D01*
X0366573Y0233397D01*
X0366651Y0233260D01*
X0366725Y0233120D01*
X0366796Y0232978D01*
X0366864Y0232835D01*
X0366928Y0232690D01*
X0366988Y0232544D01*
X0367044Y0232396D01*
X0367097Y0232247D01*
X0367146Y0232096D01*
X0367191Y0231944D01*
X0367232Y0231791D01*
X0367270Y0231638D01*
X0367303Y0231483D01*
X0367333Y0231327D01*
X0367359Y0231171D01*
X0367380Y0231014D01*
X0367398Y0230857D01*
X0367412Y0230699D01*
X0367422Y0230541D01*
X0367428Y0230383D01*
X0367430Y0230225D01*
X0367428Y0230067D01*
X0367422Y0229909D01*
X0367412Y0229751D01*
X0367398Y0229593D01*
X0367380Y0229436D01*
X0367359Y0229279D01*
X0367333Y0229123D01*
X0367303Y0228967D01*
X0367270Y0228812D01*
X0367232Y0228659D01*
X0367191Y0228506D01*
X0367146Y0228354D01*
X0367097Y0228203D01*
X0367044Y0228054D01*
X0366988Y0227906D01*
X0366928Y0227760D01*
X0366864Y0227615D01*
X0366796Y0227472D01*
X0366725Y0227330D01*
X0366651Y0227190D01*
X0366573Y0227053D01*
X0366491Y0226917D01*
X0366407Y0226783D01*
X0366318Y0226652D01*
X0366227Y0226523D01*
X0366132Y0226396D01*
X0366035Y0226271D01*
X0365934Y0226149D01*
X0365830Y0226030D01*
X0365723Y0225913D01*
X0365613Y0225799D01*
X0365500Y0225688D01*
X0365385Y0225579D01*
X0365267Y0225474D01*
X0365146Y0225372D01*
X0365023Y0225272D01*
X0364897Y0225176D01*
X0364769Y0225083D01*
X0364639Y0224993D01*
X0364506Y0224907D01*
X0364371Y0224823D01*
X0364235Y0224744D01*
X0364096Y0224667D01*
X0363955Y0224595D01*
X0363813Y0224525D01*
X0363669Y0224460D01*
X0363523Y0224398D01*
X0363376Y0224340D01*
X0363227Y0224285D01*
X0363077Y0224234D01*
X0362926Y0224187D01*
X0362774Y0224144D01*
X0362621Y0224105D01*
X0362466Y0224069D01*
X0362311Y0224038D01*
X0362155Y0224010D01*
X0361999Y0223986D01*
X0361842Y0223966D01*
X0361684Y0223950D01*
X0361527Y0223938D01*
X0361368Y0223930D01*
X0361210Y0223926D01*
X0361052Y0223926D01*
X0360894Y0223930D01*
X0360735Y0223938D01*
X0360578Y0223950D01*
X0360420Y0223966D01*
X0360263Y0223986D01*
X0360107Y0224010D01*
X0359951Y0224038D01*
X0359796Y0224069D01*
X0359641Y0224105D01*
X0359488Y0224144D01*
X0359336Y0224187D01*
X0359185Y0224234D01*
X0359035Y0224285D01*
X0358886Y0224340D01*
X0358739Y0224398D01*
X0358593Y0224460D01*
X0358449Y0224525D01*
X0358307Y0224595D01*
X0358166Y0224667D01*
X0358027Y0224744D01*
X0357891Y0224823D01*
X0357756Y0224907D01*
X0357623Y0224993D01*
X0357493Y0225083D01*
X0357365Y0225176D01*
X0357239Y0225272D01*
X0357116Y0225372D01*
X0356995Y0225474D01*
X0356877Y0225579D01*
X0356762Y0225688D01*
X0356649Y0225799D01*
X0356539Y0225913D01*
X0356432Y0226030D01*
X0356328Y0226149D01*
X0356227Y0226271D01*
X0356130Y0226396D01*
X0356035Y0226523D01*
X0355944Y0226652D01*
X0355855Y0226783D01*
X0355771Y0226917D01*
X0355689Y0227053D01*
X0355611Y0227190D01*
X0355537Y0227330D01*
X0355466Y0227472D01*
X0355398Y0227615D01*
X0355334Y0227760D01*
X0355274Y0227906D01*
X0355218Y0228054D01*
X0355165Y0228203D01*
X0355116Y0228354D01*
X0355071Y0228506D01*
X0355030Y0228659D01*
X0354992Y0228812D01*
X0354959Y0228967D01*
X0354929Y0229123D01*
X0354903Y0229279D01*
X0354882Y0229436D01*
X0354864Y0229593D01*
X0354850Y0229751D01*
X0354840Y0229909D01*
X0354834Y0230067D01*
X0354832Y0230225D01*
X0354832Y0013296D02*
X0354834Y0013454D01*
X0354840Y0013612D01*
X0354850Y0013770D01*
X0354864Y0013928D01*
X0354882Y0014085D01*
X0354903Y0014242D01*
X0354929Y0014398D01*
X0354959Y0014554D01*
X0354992Y0014709D01*
X0355030Y0014862D01*
X0355071Y0015015D01*
X0355116Y0015167D01*
X0355165Y0015318D01*
X0355218Y0015467D01*
X0355274Y0015615D01*
X0355334Y0015761D01*
X0355398Y0015906D01*
X0355466Y0016049D01*
X0355537Y0016191D01*
X0355611Y0016331D01*
X0355689Y0016468D01*
X0355771Y0016604D01*
X0355855Y0016738D01*
X0355944Y0016869D01*
X0356035Y0016998D01*
X0356130Y0017125D01*
X0356227Y0017250D01*
X0356328Y0017372D01*
X0356432Y0017491D01*
X0356539Y0017608D01*
X0356649Y0017722D01*
X0356762Y0017833D01*
X0356877Y0017942D01*
X0356995Y0018047D01*
X0357116Y0018149D01*
X0357239Y0018249D01*
X0357365Y0018345D01*
X0357493Y0018438D01*
X0357623Y0018528D01*
X0357756Y0018614D01*
X0357891Y0018698D01*
X0358027Y0018777D01*
X0358166Y0018854D01*
X0358307Y0018926D01*
X0358449Y0018996D01*
X0358593Y0019061D01*
X0358739Y0019123D01*
X0358886Y0019181D01*
X0359035Y0019236D01*
X0359185Y0019287D01*
X0359336Y0019334D01*
X0359488Y0019377D01*
X0359641Y0019416D01*
X0359796Y0019452D01*
X0359951Y0019483D01*
X0360107Y0019511D01*
X0360263Y0019535D01*
X0360420Y0019555D01*
X0360578Y0019571D01*
X0360735Y0019583D01*
X0360894Y0019591D01*
X0361052Y0019595D01*
X0361210Y0019595D01*
X0361368Y0019591D01*
X0361527Y0019583D01*
X0361684Y0019571D01*
X0361842Y0019555D01*
X0361999Y0019535D01*
X0362155Y0019511D01*
X0362311Y0019483D01*
X0362466Y0019452D01*
X0362621Y0019416D01*
X0362774Y0019377D01*
X0362926Y0019334D01*
X0363077Y0019287D01*
X0363227Y0019236D01*
X0363376Y0019181D01*
X0363523Y0019123D01*
X0363669Y0019061D01*
X0363813Y0018996D01*
X0363955Y0018926D01*
X0364096Y0018854D01*
X0364235Y0018777D01*
X0364371Y0018698D01*
X0364506Y0018614D01*
X0364639Y0018528D01*
X0364769Y0018438D01*
X0364897Y0018345D01*
X0365023Y0018249D01*
X0365146Y0018149D01*
X0365267Y0018047D01*
X0365385Y0017942D01*
X0365500Y0017833D01*
X0365613Y0017722D01*
X0365723Y0017608D01*
X0365830Y0017491D01*
X0365934Y0017372D01*
X0366035Y0017250D01*
X0366132Y0017125D01*
X0366227Y0016998D01*
X0366318Y0016869D01*
X0366407Y0016738D01*
X0366491Y0016604D01*
X0366573Y0016468D01*
X0366651Y0016331D01*
X0366725Y0016191D01*
X0366796Y0016049D01*
X0366864Y0015906D01*
X0366928Y0015761D01*
X0366988Y0015615D01*
X0367044Y0015467D01*
X0367097Y0015318D01*
X0367146Y0015167D01*
X0367191Y0015015D01*
X0367232Y0014862D01*
X0367270Y0014709D01*
X0367303Y0014554D01*
X0367333Y0014398D01*
X0367359Y0014242D01*
X0367380Y0014085D01*
X0367398Y0013928D01*
X0367412Y0013770D01*
X0367422Y0013612D01*
X0367428Y0013454D01*
X0367430Y0013296D01*
X0367428Y0013138D01*
X0367422Y0012980D01*
X0367412Y0012822D01*
X0367398Y0012664D01*
X0367380Y0012507D01*
X0367359Y0012350D01*
X0367333Y0012194D01*
X0367303Y0012038D01*
X0367270Y0011883D01*
X0367232Y0011730D01*
X0367191Y0011577D01*
X0367146Y0011425D01*
X0367097Y0011274D01*
X0367044Y0011125D01*
X0366988Y0010977D01*
X0366928Y0010831D01*
X0366864Y0010686D01*
X0366796Y0010543D01*
X0366725Y0010401D01*
X0366651Y0010261D01*
X0366573Y0010124D01*
X0366491Y0009988D01*
X0366407Y0009854D01*
X0366318Y0009723D01*
X0366227Y0009594D01*
X0366132Y0009467D01*
X0366035Y0009342D01*
X0365934Y0009220D01*
X0365830Y0009101D01*
X0365723Y0008984D01*
X0365613Y0008870D01*
X0365500Y0008759D01*
X0365385Y0008650D01*
X0365267Y0008545D01*
X0365146Y0008443D01*
X0365023Y0008343D01*
X0364897Y0008247D01*
X0364769Y0008154D01*
X0364639Y0008064D01*
X0364506Y0007978D01*
X0364371Y0007894D01*
X0364235Y0007815D01*
X0364096Y0007738D01*
X0363955Y0007666D01*
X0363813Y0007596D01*
X0363669Y0007531D01*
X0363523Y0007469D01*
X0363376Y0007411D01*
X0363227Y0007356D01*
X0363077Y0007305D01*
X0362926Y0007258D01*
X0362774Y0007215D01*
X0362621Y0007176D01*
X0362466Y0007140D01*
X0362311Y0007109D01*
X0362155Y0007081D01*
X0361999Y0007057D01*
X0361842Y0007037D01*
X0361684Y0007021D01*
X0361527Y0007009D01*
X0361368Y0007001D01*
X0361210Y0006997D01*
X0361052Y0006997D01*
X0360894Y0007001D01*
X0360735Y0007009D01*
X0360578Y0007021D01*
X0360420Y0007037D01*
X0360263Y0007057D01*
X0360107Y0007081D01*
X0359951Y0007109D01*
X0359796Y0007140D01*
X0359641Y0007176D01*
X0359488Y0007215D01*
X0359336Y0007258D01*
X0359185Y0007305D01*
X0359035Y0007356D01*
X0358886Y0007411D01*
X0358739Y0007469D01*
X0358593Y0007531D01*
X0358449Y0007596D01*
X0358307Y0007666D01*
X0358166Y0007738D01*
X0358027Y0007815D01*
X0357891Y0007894D01*
X0357756Y0007978D01*
X0357623Y0008064D01*
X0357493Y0008154D01*
X0357365Y0008247D01*
X0357239Y0008343D01*
X0357116Y0008443D01*
X0356995Y0008545D01*
X0356877Y0008650D01*
X0356762Y0008759D01*
X0356649Y0008870D01*
X0356539Y0008984D01*
X0356432Y0009101D01*
X0356328Y0009220D01*
X0356227Y0009342D01*
X0356130Y0009467D01*
X0356035Y0009594D01*
X0355944Y0009723D01*
X0355855Y0009854D01*
X0355771Y0009988D01*
X0355689Y0010124D01*
X0355611Y0010261D01*
X0355537Y0010401D01*
X0355466Y0010543D01*
X0355398Y0010686D01*
X0355334Y0010831D01*
X0355274Y0010977D01*
X0355218Y0011125D01*
X0355165Y0011274D01*
X0355116Y0011425D01*
X0355071Y0011577D01*
X0355030Y0011730D01*
X0354992Y0011883D01*
X0354959Y0012038D01*
X0354929Y0012194D01*
X0354903Y0012350D01*
X0354882Y0012507D01*
X0354864Y0012664D01*
X0354850Y0012822D01*
X0354840Y0012980D01*
X0354834Y0013138D01*
X0354832Y0013296D01*
D11*
X0355235Y0099839D02*
X0353734Y0101340D01*
X0354485Y0101340D02*
X0352233Y0101340D01*
X0352233Y0099839D02*
X0352233Y0104343D01*
X0354485Y0104343D01*
X0355235Y0103592D01*
X0355235Y0102091D01*
X0354485Y0101340D01*
X0356837Y0100590D02*
X0357587Y0099839D01*
X0359089Y0099839D01*
X0359839Y0100590D01*
X0359839Y0101340D01*
X0359089Y0102091D01*
X0358338Y0102091D01*
X0359089Y0102091D02*
X0359839Y0102842D01*
X0359839Y0103592D01*
X0359089Y0104343D01*
X0357587Y0104343D01*
X0356837Y0103592D01*
X0357823Y0108461D02*
X0357073Y0109212D01*
X0357073Y0110713D01*
X0359325Y0110713D01*
X0360075Y0109962D01*
X0360075Y0109212D01*
X0359325Y0108461D01*
X0357823Y0108461D01*
X0355471Y0108461D02*
X0353970Y0109962D01*
X0354721Y0109962D02*
X0352469Y0109962D01*
X0352469Y0108461D02*
X0352469Y0112965D01*
X0354721Y0112965D01*
X0355471Y0112214D01*
X0355471Y0110713D01*
X0354721Y0109962D01*
X0357073Y0110713D02*
X0358574Y0112214D01*
X0360075Y0112965D01*
X0360154Y0117162D02*
X0357152Y0117162D01*
X0358653Y0117162D02*
X0358653Y0121666D01*
X0357152Y0120164D01*
X0355550Y0119414D02*
X0354800Y0118663D01*
X0352548Y0118663D01*
X0354049Y0118663D02*
X0355550Y0117162D01*
X0355550Y0119414D02*
X0355550Y0120915D01*
X0354800Y0121666D01*
X0352548Y0121666D01*
X0352548Y0117162D01*
X0361755Y0119414D02*
X0364758Y0119414D01*
X0364007Y0121666D02*
X0361755Y0119414D01*
X0364007Y0117162D02*
X0364007Y0121666D01*
X0363968Y0125587D02*
X0362467Y0125587D01*
X0361716Y0126338D01*
X0364719Y0129340D01*
X0364719Y0126338D01*
X0363968Y0125587D01*
X0361716Y0126338D02*
X0361716Y0129340D01*
X0362467Y0130091D01*
X0363968Y0130091D01*
X0364719Y0129340D01*
X0360115Y0125587D02*
X0357112Y0125587D01*
X0358613Y0125587D02*
X0358613Y0130091D01*
X0357112Y0128590D01*
X0355511Y0129340D02*
X0355511Y0127839D01*
X0354760Y0127088D01*
X0352508Y0127088D01*
X0352508Y0125587D02*
X0352508Y0130091D01*
X0354760Y0130091D01*
X0355511Y0129340D01*
X0354010Y0127088D02*
X0355511Y0125587D01*
X0355393Y0133973D02*
X0353891Y0135474D01*
X0354642Y0135474D02*
X0352390Y0135474D01*
X0352390Y0133973D02*
X0352390Y0138477D01*
X0354642Y0138477D01*
X0355393Y0137726D01*
X0355393Y0136225D01*
X0354642Y0135474D01*
X0356994Y0133973D02*
X0359997Y0133973D01*
X0358495Y0133973D02*
X0358495Y0138477D01*
X0356994Y0136975D01*
X0361598Y0136975D02*
X0361598Y0137726D01*
X0362349Y0138477D01*
X0363850Y0138477D01*
X0364601Y0137726D01*
X0364601Y0136975D01*
X0363850Y0136225D01*
X0362349Y0136225D01*
X0361598Y0136975D01*
X0362349Y0136225D02*
X0361598Y0135474D01*
X0361598Y0134723D01*
X0362349Y0133973D01*
X0363850Y0133973D01*
X0364601Y0134723D01*
X0364601Y0135474D01*
X0363850Y0136225D01*
X0325286Y0155945D02*
X0324536Y0155194D01*
X0323785Y0155194D01*
X0323034Y0155945D01*
X0323034Y0157446D01*
X0323785Y0158197D01*
X0324536Y0158197D01*
X0325286Y0157446D01*
X0325286Y0155945D01*
X0323034Y0155945D02*
X0322284Y0155194D01*
X0321533Y0155194D01*
X0320782Y0155945D01*
X0320782Y0157446D01*
X0321533Y0158197D01*
X0322284Y0158197D01*
X0323034Y0157446D01*
X0320288Y0159215D02*
X0317236Y0159215D01*
X0317236Y0165321D01*
X0320288Y0165321D01*
X0321306Y0164303D01*
X0321306Y0160233D01*
X0320288Y0159215D01*
X0315229Y0159215D02*
X0315229Y0165321D01*
X0311159Y0165321D02*
X0315229Y0159215D01*
X0311159Y0159215D02*
X0311159Y0165321D01*
X0309152Y0164303D02*
X0308134Y0165321D01*
X0306099Y0165321D01*
X0305081Y0164303D01*
X0305081Y0160233D01*
X0306099Y0159215D01*
X0308134Y0159215D01*
X0309152Y0160233D01*
X0309152Y0162268D01*
X0307117Y0162268D01*
X0308134Y0169115D02*
X0306099Y0169115D01*
X0305081Y0170133D01*
X0305081Y0172168D02*
X0307117Y0173185D01*
X0308134Y0173185D01*
X0309152Y0172168D01*
X0309152Y0170133D01*
X0308134Y0169115D01*
X0311159Y0171150D02*
X0313194Y0169115D01*
X0315229Y0171150D01*
X0315229Y0175221D01*
X0311159Y0175221D02*
X0311159Y0171150D01*
X0309152Y0175221D02*
X0305081Y0175221D01*
X0305081Y0172168D01*
X0305081Y0179015D02*
X0305081Y0183085D01*
X0307117Y0185121D01*
X0309152Y0183085D01*
X0309152Y0179015D01*
X0311159Y0179015D02*
X0315229Y0179015D01*
X0311159Y0179015D02*
X0311159Y0185121D01*
X0309152Y0182068D02*
X0305081Y0182068D01*
X0305081Y0188915D02*
X0305081Y0192985D01*
X0307117Y0195021D01*
X0309152Y0192985D01*
X0309152Y0188915D01*
X0311159Y0188915D02*
X0311159Y0195021D01*
X0314211Y0195021D01*
X0315229Y0194003D01*
X0315229Y0191968D01*
X0314211Y0190950D01*
X0311159Y0190950D01*
X0313194Y0190950D02*
X0315229Y0188915D01*
X0309152Y0191968D02*
X0305081Y0191968D01*
X0306099Y0198815D02*
X0305081Y0199833D01*
X0306099Y0198815D02*
X0308134Y0198815D01*
X0309152Y0199833D01*
X0309152Y0200850D01*
X0308134Y0201868D01*
X0306099Y0201868D01*
X0305081Y0202885D01*
X0305081Y0203903D01*
X0306099Y0204921D01*
X0308134Y0204921D01*
X0309152Y0203903D01*
X0308134Y0208715D02*
X0305081Y0208715D01*
X0305081Y0214821D01*
X0308134Y0214821D01*
X0309152Y0213803D01*
X0309152Y0212785D01*
X0308134Y0211768D01*
X0305081Y0211768D01*
X0308134Y0211768D02*
X0309152Y0210750D01*
X0309152Y0209733D01*
X0308134Y0208715D01*
X0308134Y0218615D02*
X0309152Y0219633D01*
X0309152Y0221668D01*
X0307117Y0221668D01*
X0309152Y0223703D02*
X0308134Y0224721D01*
X0306099Y0224721D01*
X0305081Y0223703D01*
X0305081Y0219633D01*
X0306099Y0218615D01*
X0308134Y0218615D01*
X0309152Y0228515D02*
X0307117Y0230550D01*
X0308134Y0230550D02*
X0305081Y0230550D01*
X0305081Y0228515D02*
X0305081Y0234621D01*
X0308134Y0234621D01*
X0309152Y0233603D01*
X0309152Y0231568D01*
X0308134Y0230550D01*
X0307369Y0232878D02*
X0307686Y0233195D01*
X0307686Y0233512D01*
X0307369Y0233829D01*
X0305785Y0233829D01*
X0305785Y0233512D02*
X0305785Y0234146D01*
X0306735Y0235088D02*
X0306735Y0236039D01*
X0307052Y0236356D01*
X0307369Y0236356D01*
X0307686Y0236039D01*
X0307686Y0235405D01*
X0307369Y0235088D01*
X0306735Y0235088D01*
X0306102Y0235722D01*
X0305785Y0236356D01*
X0320782Y0226695D02*
X0325286Y0226695D01*
X0325286Y0225194D02*
X0325286Y0228197D01*
X0322284Y0225194D02*
X0320782Y0226695D01*
X0321533Y0218197D02*
X0320782Y0217446D01*
X0320782Y0215945D01*
X0321533Y0215194D01*
X0322284Y0218197D02*
X0325286Y0215194D01*
X0325286Y0218197D01*
X0322284Y0218197D02*
X0321533Y0218197D01*
X0321533Y0208197D02*
X0322284Y0208197D01*
X0323034Y0207446D01*
X0323785Y0208197D01*
X0324536Y0208197D01*
X0325286Y0207446D01*
X0325286Y0205945D01*
X0324536Y0205194D01*
X0323034Y0206695D02*
X0323034Y0207446D01*
X0321533Y0208197D02*
X0320782Y0207446D01*
X0320782Y0205945D01*
X0321533Y0205194D01*
X0323034Y0198197D02*
X0323034Y0195194D01*
X0320782Y0197446D01*
X0325286Y0197446D01*
X0324536Y0188197D02*
X0323034Y0188197D01*
X0322284Y0187446D01*
X0322284Y0186695D01*
X0323034Y0185194D01*
X0320782Y0185194D01*
X0320782Y0188197D01*
X0324536Y0188197D02*
X0325286Y0187446D01*
X0325286Y0185945D01*
X0324536Y0185194D01*
X0324536Y0178197D02*
X0323785Y0178197D01*
X0323034Y0177446D01*
X0323034Y0175194D01*
X0324536Y0175194D01*
X0325286Y0175945D01*
X0325286Y0177446D01*
X0324536Y0178197D01*
X0321533Y0176695D02*
X0323034Y0175194D01*
X0321533Y0176695D02*
X0320782Y0178197D01*
X0320782Y0168197D02*
X0321533Y0168197D01*
X0324536Y0165194D01*
X0325286Y0165194D01*
X0320782Y0165194D02*
X0320782Y0168197D01*
X0352036Y0218986D02*
X0352786Y0219737D01*
X0352786Y0220488D01*
X0352036Y0221238D01*
X0348282Y0221238D01*
X0348282Y0220488D02*
X0348282Y0221989D01*
X0348282Y0223590D02*
X0348282Y0225842D01*
X0349033Y0226593D01*
X0350534Y0226593D01*
X0351285Y0225842D01*
X0351285Y0223590D01*
X0352786Y0223590D02*
X0348282Y0223590D01*
X0349784Y0228194D02*
X0348282Y0229695D01*
X0352786Y0229695D01*
X0352786Y0228194D02*
X0352786Y0231197D01*
X0199507Y0152246D02*
X0199507Y0151612D01*
X0199190Y0151295D01*
X0198556Y0151295D02*
X0198239Y0151929D01*
X0198239Y0152246D01*
X0198556Y0152563D01*
X0199190Y0152563D01*
X0199507Y0152246D01*
X0198556Y0151295D02*
X0197605Y0151295D01*
X0197605Y0152563D01*
X0197605Y0150353D02*
X0197605Y0149719D01*
X0197605Y0150036D02*
X0199190Y0150036D01*
X0199507Y0149719D01*
X0199507Y0149402D01*
X0199190Y0149085D01*
X0215638Y0129792D02*
X0215640Y0129866D01*
X0215646Y0129941D01*
X0215656Y0130014D01*
X0215670Y0130088D01*
X0215687Y0130160D01*
X0215709Y0130231D01*
X0215734Y0130301D01*
X0215763Y0130370D01*
X0215795Y0130437D01*
X0215832Y0130502D01*
X0215871Y0130565D01*
X0215914Y0130626D01*
X0215960Y0130684D01*
X0216009Y0130740D01*
X0216061Y0130794D01*
X0216115Y0130844D01*
X0216173Y0130892D01*
X0216232Y0130936D01*
X0216294Y0130977D01*
X0216359Y0131015D01*
X0216425Y0131049D01*
X0216492Y0131080D01*
X0216562Y0131107D01*
X0216632Y0131130D01*
X0216704Y0131150D01*
X0216777Y0131166D01*
X0216850Y0131178D01*
X0216924Y0131186D01*
X0216999Y0131190D01*
X0217073Y0131190D01*
X0217148Y0131186D01*
X0217222Y0131178D01*
X0217295Y0131166D01*
X0217368Y0131150D01*
X0217440Y0131130D01*
X0217510Y0131107D01*
X0217580Y0131080D01*
X0217647Y0131049D01*
X0217713Y0131015D01*
X0217778Y0130977D01*
X0217840Y0130936D01*
X0217899Y0130892D01*
X0217957Y0130844D01*
X0218011Y0130794D01*
X0218063Y0130740D01*
X0218112Y0130684D01*
X0218158Y0130626D01*
X0218201Y0130565D01*
X0218240Y0130502D01*
X0218277Y0130437D01*
X0218309Y0130370D01*
X0218338Y0130301D01*
X0218363Y0130231D01*
X0218385Y0130160D01*
X0218402Y0130088D01*
X0218416Y0130014D01*
X0218426Y0129941D01*
X0218432Y0129866D01*
X0218434Y0129792D01*
X0218432Y0129718D01*
X0218426Y0129643D01*
X0218416Y0129570D01*
X0218402Y0129496D01*
X0218385Y0129424D01*
X0218363Y0129353D01*
X0218338Y0129283D01*
X0218309Y0129214D01*
X0218277Y0129147D01*
X0218240Y0129082D01*
X0218201Y0129019D01*
X0218158Y0128958D01*
X0218112Y0128900D01*
X0218063Y0128844D01*
X0218011Y0128790D01*
X0217957Y0128740D01*
X0217899Y0128692D01*
X0217840Y0128648D01*
X0217778Y0128607D01*
X0217713Y0128569D01*
X0217647Y0128535D01*
X0217580Y0128504D01*
X0217510Y0128477D01*
X0217440Y0128454D01*
X0217368Y0128434D01*
X0217295Y0128418D01*
X0217222Y0128406D01*
X0217148Y0128398D01*
X0217073Y0128394D01*
X0216999Y0128394D01*
X0216924Y0128398D01*
X0216850Y0128406D01*
X0216777Y0128418D01*
X0216704Y0128434D01*
X0216632Y0128454D01*
X0216562Y0128477D01*
X0216492Y0128504D01*
X0216425Y0128535D01*
X0216359Y0128569D01*
X0216294Y0128607D01*
X0216232Y0128648D01*
X0216173Y0128692D01*
X0216115Y0128740D01*
X0216061Y0128790D01*
X0216009Y0128844D01*
X0215960Y0128900D01*
X0215914Y0128958D01*
X0215871Y0129019D01*
X0215832Y0129082D01*
X0215795Y0129147D01*
X0215763Y0129214D01*
X0215734Y0129283D01*
X0215709Y0129353D01*
X0215687Y0129424D01*
X0215670Y0129496D01*
X0215656Y0129570D01*
X0215646Y0129643D01*
X0215640Y0129718D01*
X0215638Y0129792D01*
X0152026Y0149402D02*
X0152026Y0149719D01*
X0151709Y0150036D01*
X0150125Y0150036D01*
X0150125Y0149719D02*
X0150125Y0150353D01*
X0151076Y0151295D02*
X0151076Y0152563D01*
X0152026Y0152246D02*
X0150125Y0152246D01*
X0151076Y0151295D01*
X0152026Y0149402D02*
X0151709Y0149085D01*
X0130638Y0129792D02*
X0130640Y0129866D01*
X0130646Y0129941D01*
X0130656Y0130014D01*
X0130670Y0130088D01*
X0130687Y0130160D01*
X0130709Y0130231D01*
X0130734Y0130301D01*
X0130763Y0130370D01*
X0130795Y0130437D01*
X0130832Y0130502D01*
X0130871Y0130565D01*
X0130914Y0130626D01*
X0130960Y0130684D01*
X0131009Y0130740D01*
X0131061Y0130794D01*
X0131115Y0130844D01*
X0131173Y0130892D01*
X0131232Y0130936D01*
X0131294Y0130977D01*
X0131359Y0131015D01*
X0131425Y0131049D01*
X0131492Y0131080D01*
X0131562Y0131107D01*
X0131632Y0131130D01*
X0131704Y0131150D01*
X0131777Y0131166D01*
X0131850Y0131178D01*
X0131924Y0131186D01*
X0131999Y0131190D01*
X0132073Y0131190D01*
X0132148Y0131186D01*
X0132222Y0131178D01*
X0132295Y0131166D01*
X0132368Y0131150D01*
X0132440Y0131130D01*
X0132510Y0131107D01*
X0132580Y0131080D01*
X0132647Y0131049D01*
X0132713Y0131015D01*
X0132778Y0130977D01*
X0132840Y0130936D01*
X0132899Y0130892D01*
X0132957Y0130844D01*
X0133011Y0130794D01*
X0133063Y0130740D01*
X0133112Y0130684D01*
X0133158Y0130626D01*
X0133201Y0130565D01*
X0133240Y0130502D01*
X0133277Y0130437D01*
X0133309Y0130370D01*
X0133338Y0130301D01*
X0133363Y0130231D01*
X0133385Y0130160D01*
X0133402Y0130088D01*
X0133416Y0130014D01*
X0133426Y0129941D01*
X0133432Y0129866D01*
X0133434Y0129792D01*
X0133432Y0129718D01*
X0133426Y0129643D01*
X0133416Y0129570D01*
X0133402Y0129496D01*
X0133385Y0129424D01*
X0133363Y0129353D01*
X0133338Y0129283D01*
X0133309Y0129214D01*
X0133277Y0129147D01*
X0133240Y0129082D01*
X0133201Y0129019D01*
X0133158Y0128958D01*
X0133112Y0128900D01*
X0133063Y0128844D01*
X0133011Y0128790D01*
X0132957Y0128740D01*
X0132899Y0128692D01*
X0132840Y0128648D01*
X0132778Y0128607D01*
X0132713Y0128569D01*
X0132647Y0128535D01*
X0132580Y0128504D01*
X0132510Y0128477D01*
X0132440Y0128454D01*
X0132368Y0128434D01*
X0132295Y0128418D01*
X0132222Y0128406D01*
X0132148Y0128398D01*
X0132073Y0128394D01*
X0131999Y0128394D01*
X0131924Y0128398D01*
X0131850Y0128406D01*
X0131777Y0128418D01*
X0131704Y0128434D01*
X0131632Y0128454D01*
X0131562Y0128477D01*
X0131492Y0128504D01*
X0131425Y0128535D01*
X0131359Y0128569D01*
X0131294Y0128607D01*
X0131232Y0128648D01*
X0131173Y0128692D01*
X0131115Y0128740D01*
X0131061Y0128790D01*
X0131009Y0128844D01*
X0130960Y0128900D01*
X0130914Y0128958D01*
X0130871Y0129019D01*
X0130832Y0129082D01*
X0130795Y0129147D01*
X0130763Y0129214D01*
X0130734Y0129283D01*
X0130709Y0129353D01*
X0130687Y0129424D01*
X0130670Y0129496D01*
X0130656Y0129570D01*
X0130646Y0129643D01*
X0130640Y0129718D01*
X0130638Y0129792D01*
X0115135Y0149085D02*
X0115452Y0149402D01*
X0115452Y0149719D01*
X0115135Y0150036D01*
X0113550Y0150036D01*
X0113550Y0149719D02*
X0113550Y0150353D01*
X0113867Y0151295D02*
X0113550Y0151612D01*
X0113550Y0152246D01*
X0113867Y0152563D01*
X0114184Y0152563D01*
X0114501Y0152246D01*
X0114818Y0152563D01*
X0115135Y0152563D01*
X0115452Y0152246D01*
X0115452Y0151612D01*
X0115135Y0151295D01*
X0114501Y0151929D02*
X0114501Y0152246D01*
X0072302Y0152563D02*
X0072302Y0151295D01*
X0071034Y0152563D01*
X0070717Y0152563D01*
X0070400Y0152246D01*
X0070400Y0151612D01*
X0070717Y0151295D01*
X0070400Y0150353D02*
X0070400Y0149719D01*
X0070400Y0150036D02*
X0071985Y0150036D01*
X0072302Y0149719D01*
X0072302Y0149402D01*
X0071985Y0149085D01*
X0069501Y0151735D02*
X0066448Y0151735D01*
X0066448Y0157840D01*
X0069501Y0157840D01*
X0070519Y0156823D01*
X0070519Y0152753D01*
X0069501Y0151735D01*
X0064441Y0151735D02*
X0064441Y0157840D01*
X0063424Y0161635D02*
X0061389Y0161635D01*
X0060371Y0162653D01*
X0060371Y0164688D02*
X0062406Y0165705D01*
X0063424Y0165705D01*
X0064441Y0164688D01*
X0064441Y0162653D01*
X0063424Y0161635D01*
X0066448Y0163670D02*
X0068484Y0161635D01*
X0070519Y0163670D01*
X0070519Y0167740D01*
X0066448Y0167740D02*
X0066448Y0163670D01*
X0064441Y0167740D02*
X0060371Y0167740D01*
X0060371Y0164688D01*
X0058364Y0164688D02*
X0054294Y0164688D01*
X0056329Y0166723D02*
X0056329Y0162653D01*
X0055312Y0157840D02*
X0054294Y0156823D01*
X0054294Y0152753D01*
X0055312Y0151735D01*
X0057347Y0151735D01*
X0058364Y0152753D01*
X0058364Y0154788D01*
X0056329Y0154788D01*
X0058364Y0156823D02*
X0057347Y0157840D01*
X0055312Y0157840D01*
X0060371Y0157840D02*
X0064441Y0151735D01*
X0060371Y0151735D02*
X0060371Y0157840D01*
X0060371Y0170518D02*
X0064441Y0170518D01*
X0066448Y0171535D02*
X0070519Y0171535D01*
X0066448Y0171535D02*
X0066448Y0177640D01*
X0064441Y0180418D02*
X0060371Y0180418D01*
X0058364Y0181435D02*
X0058364Y0185505D01*
X0056329Y0187540D01*
X0054294Y0185505D01*
X0054294Y0181435D01*
X0054294Y0184488D02*
X0058364Y0184488D01*
X0066448Y0183470D02*
X0069501Y0183470D01*
X0070519Y0184488D01*
X0070519Y0186523D01*
X0069501Y0187540D01*
X0066448Y0187540D01*
X0066448Y0181435D01*
X0068484Y0183470D02*
X0070519Y0181435D01*
X0058364Y0175605D02*
X0058364Y0171535D01*
X0058364Y0174588D02*
X0054294Y0174588D01*
X0054294Y0175605D02*
X0054294Y0171535D01*
X0054294Y0175605D02*
X0056329Y0177640D01*
X0058364Y0175605D01*
X0060371Y0190318D02*
X0064441Y0190318D01*
X0066448Y0191335D02*
X0068484Y0191335D01*
X0067466Y0191335D02*
X0067466Y0197440D01*
X0066448Y0197440D02*
X0068484Y0197440D01*
X0070500Y0197440D02*
X0074570Y0191335D01*
X0074570Y0197440D01*
X0070500Y0197440D02*
X0070500Y0191335D01*
X0064441Y0200218D02*
X0060371Y0200218D01*
X0058364Y0202253D02*
X0057347Y0201235D01*
X0054294Y0201235D01*
X0054294Y0207340D01*
X0057347Y0207340D01*
X0058364Y0206323D01*
X0058364Y0205305D01*
X0057347Y0204288D01*
X0054294Y0204288D01*
X0057347Y0204288D02*
X0058364Y0203270D01*
X0058364Y0202253D01*
X0057347Y0197440D02*
X0055312Y0197440D01*
X0054294Y0196423D01*
X0054294Y0195405D01*
X0055312Y0194388D01*
X0057347Y0194388D01*
X0058364Y0193370D01*
X0058364Y0192353D01*
X0057347Y0191335D01*
X0055312Y0191335D01*
X0054294Y0192353D01*
X0058364Y0196423D02*
X0057347Y0197440D01*
X0066448Y0201235D02*
X0068484Y0201235D01*
X0067466Y0201235D02*
X0067466Y0207340D01*
X0066448Y0207340D02*
X0068484Y0207340D01*
X0070500Y0207340D02*
X0074570Y0201235D01*
X0074570Y0207340D01*
X0070500Y0207340D02*
X0070500Y0201235D01*
X0064441Y0210118D02*
X0060371Y0210118D01*
X0058364Y0212153D02*
X0058364Y0214188D01*
X0056329Y0214188D01*
X0054294Y0216223D02*
X0054294Y0212153D01*
X0055312Y0211135D01*
X0057347Y0211135D01*
X0058364Y0212153D01*
X0058364Y0216223D02*
X0057347Y0217240D01*
X0055312Y0217240D01*
X0054294Y0216223D01*
X0060371Y0220018D02*
X0064441Y0220018D01*
X0066448Y0221035D02*
X0068484Y0221035D01*
X0067466Y0221035D02*
X0067466Y0227140D01*
X0066448Y0227140D02*
X0068484Y0227140D01*
X0070500Y0227140D02*
X0074570Y0221035D01*
X0074570Y0227140D01*
X0070500Y0227140D02*
X0070500Y0221035D01*
X0070500Y0217240D02*
X0074570Y0211135D01*
X0074570Y0217240D01*
X0070500Y0217240D02*
X0070500Y0211135D01*
X0068484Y0211135D02*
X0066448Y0211135D01*
X0067466Y0211135D02*
X0067466Y0217240D01*
X0066448Y0217240D02*
X0068484Y0217240D01*
X0058364Y0221035D02*
X0056329Y0223070D01*
X0057347Y0223070D02*
X0054294Y0223070D01*
X0054294Y0221035D02*
X0054294Y0227140D01*
X0057347Y0227140D01*
X0058364Y0226123D01*
X0058364Y0224088D01*
X0057347Y0223070D01*
X0037302Y0152563D02*
X0037302Y0151295D01*
X0037302Y0151929D02*
X0035400Y0151929D01*
X0036034Y0151295D01*
X0035400Y0150353D02*
X0035400Y0149719D01*
X0035400Y0150036D02*
X0036985Y0150036D01*
X0037302Y0149719D01*
X0037302Y0149402D01*
X0036985Y0149085D01*
X0050638Y0129792D02*
X0050640Y0129866D01*
X0050646Y0129941D01*
X0050656Y0130014D01*
X0050670Y0130088D01*
X0050687Y0130160D01*
X0050709Y0130231D01*
X0050734Y0130301D01*
X0050763Y0130370D01*
X0050795Y0130437D01*
X0050832Y0130502D01*
X0050871Y0130565D01*
X0050914Y0130626D01*
X0050960Y0130684D01*
X0051009Y0130740D01*
X0051061Y0130794D01*
X0051115Y0130844D01*
X0051173Y0130892D01*
X0051232Y0130936D01*
X0051294Y0130977D01*
X0051359Y0131015D01*
X0051425Y0131049D01*
X0051492Y0131080D01*
X0051562Y0131107D01*
X0051632Y0131130D01*
X0051704Y0131150D01*
X0051777Y0131166D01*
X0051850Y0131178D01*
X0051924Y0131186D01*
X0051999Y0131190D01*
X0052073Y0131190D01*
X0052148Y0131186D01*
X0052222Y0131178D01*
X0052295Y0131166D01*
X0052368Y0131150D01*
X0052440Y0131130D01*
X0052510Y0131107D01*
X0052580Y0131080D01*
X0052647Y0131049D01*
X0052713Y0131015D01*
X0052778Y0130977D01*
X0052840Y0130936D01*
X0052899Y0130892D01*
X0052957Y0130844D01*
X0053011Y0130794D01*
X0053063Y0130740D01*
X0053112Y0130684D01*
X0053158Y0130626D01*
X0053201Y0130565D01*
X0053240Y0130502D01*
X0053277Y0130437D01*
X0053309Y0130370D01*
X0053338Y0130301D01*
X0053363Y0130231D01*
X0053385Y0130160D01*
X0053402Y0130088D01*
X0053416Y0130014D01*
X0053426Y0129941D01*
X0053432Y0129866D01*
X0053434Y0129792D01*
X0053432Y0129718D01*
X0053426Y0129643D01*
X0053416Y0129570D01*
X0053402Y0129496D01*
X0053385Y0129424D01*
X0053363Y0129353D01*
X0053338Y0129283D01*
X0053309Y0129214D01*
X0053277Y0129147D01*
X0053240Y0129082D01*
X0053201Y0129019D01*
X0053158Y0128958D01*
X0053112Y0128900D01*
X0053063Y0128844D01*
X0053011Y0128790D01*
X0052957Y0128740D01*
X0052899Y0128692D01*
X0052840Y0128648D01*
X0052778Y0128607D01*
X0052713Y0128569D01*
X0052647Y0128535D01*
X0052580Y0128504D01*
X0052510Y0128477D01*
X0052440Y0128454D01*
X0052368Y0128434D01*
X0052295Y0128418D01*
X0052222Y0128406D01*
X0052148Y0128398D01*
X0052073Y0128394D01*
X0051999Y0128394D01*
X0051924Y0128398D01*
X0051850Y0128406D01*
X0051777Y0128418D01*
X0051704Y0128434D01*
X0051632Y0128454D01*
X0051562Y0128477D01*
X0051492Y0128504D01*
X0051425Y0128535D01*
X0051359Y0128569D01*
X0051294Y0128607D01*
X0051232Y0128648D01*
X0051173Y0128692D01*
X0051115Y0128740D01*
X0051061Y0128790D01*
X0051009Y0128844D01*
X0050960Y0128900D01*
X0050914Y0128958D01*
X0050871Y0129019D01*
X0050832Y0129082D01*
X0050795Y0129147D01*
X0050763Y0129214D01*
X0050734Y0129283D01*
X0050709Y0129353D01*
X0050687Y0129424D01*
X0050670Y0129496D01*
X0050656Y0129570D01*
X0050646Y0129643D01*
X0050640Y0129718D01*
X0050638Y0129792D01*
X0122932Y0079602D02*
X0123683Y0080353D01*
X0125184Y0080353D01*
X0125934Y0079602D01*
X0127536Y0079602D02*
X0128286Y0080353D01*
X0129788Y0080353D01*
X0130538Y0079602D01*
X0130538Y0078852D01*
X0127536Y0075849D01*
X0130538Y0075849D01*
X0125934Y0076600D02*
X0125184Y0075849D01*
X0123683Y0075849D01*
X0122932Y0076600D01*
X0122932Y0079602D01*
X0122468Y0045773D02*
X0120967Y0045773D01*
X0120216Y0045022D01*
X0120216Y0042020D01*
X0123219Y0045022D01*
X0123219Y0042020D01*
X0122468Y0041269D01*
X0120967Y0041269D01*
X0120216Y0042020D01*
X0118615Y0041269D02*
X0115612Y0041269D01*
X0118615Y0044271D01*
X0118615Y0045022D01*
X0117864Y0045773D01*
X0116363Y0045773D01*
X0115612Y0045022D01*
X0114011Y0045022D02*
X0113260Y0045773D01*
X0111008Y0045773D01*
X0111008Y0041269D01*
X0111008Y0042770D02*
X0113260Y0042770D01*
X0114011Y0043521D01*
X0114011Y0045022D01*
X0112510Y0042770D02*
X0114011Y0041269D01*
X0105896Y0042216D02*
X0105896Y0042967D01*
X0105145Y0043718D01*
X0102893Y0043718D01*
X0102893Y0042216D01*
X0103644Y0041466D01*
X0105145Y0041466D01*
X0105896Y0042216D01*
X0104395Y0045219D02*
X0102893Y0043718D01*
X0104395Y0045219D02*
X0105896Y0045970D01*
X0099791Y0045970D02*
X0099791Y0041466D01*
X0101292Y0041466D02*
X0098289Y0041466D01*
X0096688Y0041466D02*
X0095187Y0042967D01*
X0095937Y0042967D02*
X0093685Y0042967D01*
X0093685Y0041466D02*
X0093685Y0045970D01*
X0095937Y0045970D01*
X0096688Y0045219D01*
X0096688Y0043718D01*
X0095937Y0042967D01*
X0098289Y0044468D02*
X0099791Y0045970D01*
X0088573Y0045022D02*
X0087822Y0045773D01*
X0086321Y0045773D01*
X0085570Y0045022D01*
X0088573Y0045022D02*
X0088573Y0044271D01*
X0085570Y0041269D01*
X0088573Y0041269D01*
X0083969Y0041269D02*
X0080967Y0041269D01*
X0082468Y0041269D02*
X0082468Y0045773D01*
X0080967Y0044271D01*
X0079365Y0043521D02*
X0078615Y0042770D01*
X0076363Y0042770D01*
X0077864Y0042770D02*
X0079365Y0041269D01*
X0079365Y0043521D02*
X0079365Y0045022D01*
X0078615Y0045773D01*
X0076363Y0045773D01*
X0076363Y0041269D01*
X0070856Y0041823D02*
X0070106Y0041072D01*
X0068605Y0041072D01*
X0067854Y0041823D01*
X0067854Y0042573D01*
X0068605Y0043324D01*
X0070106Y0043324D01*
X0070856Y0042573D01*
X0070856Y0041823D01*
X0070106Y0043324D02*
X0070856Y0044075D01*
X0070856Y0044825D01*
X0070106Y0045576D01*
X0068605Y0045576D01*
X0067854Y0044825D01*
X0067854Y0044075D01*
X0068605Y0043324D01*
X0066253Y0043324D02*
X0065502Y0042573D01*
X0063250Y0042573D01*
X0063250Y0041072D02*
X0063250Y0045576D01*
X0065502Y0045576D01*
X0066253Y0044825D01*
X0066253Y0043324D01*
X0064751Y0042573D02*
X0066253Y0041072D01*
X0053927Y0043521D02*
X0050925Y0043521D01*
X0053177Y0045773D01*
X0053177Y0041269D01*
X0049323Y0041269D02*
X0047822Y0042770D01*
X0048573Y0042770D02*
X0046321Y0042770D01*
X0046321Y0041269D02*
X0046321Y0045773D01*
X0048573Y0045773D01*
X0049323Y0045022D01*
X0049323Y0043521D01*
X0048573Y0042770D01*
X0047043Y0012131D02*
X0044791Y0012131D01*
X0044791Y0007627D01*
X0047043Y0007627D01*
X0047793Y0008378D01*
X0047793Y0011380D01*
X0047043Y0012131D01*
X0049395Y0010630D02*
X0050896Y0012131D01*
X0050896Y0007627D01*
X0049395Y0007627D02*
X0052397Y0007627D01*
X0043190Y0007627D02*
X0040187Y0007627D01*
X0040187Y0012131D01*
X0043190Y0012131D01*
X0041688Y0009879D02*
X0040187Y0009879D01*
X0038586Y0007627D02*
X0035583Y0007627D01*
X0035583Y0012131D01*
X0064323Y0012131D02*
X0064323Y0007627D01*
X0067326Y0007627D01*
X0068927Y0007627D02*
X0068927Y0012131D01*
X0071930Y0012131D01*
X0073531Y0012131D02*
X0073531Y0007627D01*
X0075783Y0007627D01*
X0076534Y0008378D01*
X0076534Y0011380D01*
X0075783Y0012131D01*
X0073531Y0012131D01*
X0070428Y0009879D02*
X0068927Y0009879D01*
X0068927Y0007627D02*
X0071930Y0007627D01*
X0078135Y0007627D02*
X0081138Y0010630D01*
X0081138Y0011380D01*
X0080387Y0012131D01*
X0078886Y0012131D01*
X0078135Y0011380D01*
X0078135Y0007627D02*
X0081138Y0007627D01*
X0091095Y0007627D02*
X0094097Y0007627D01*
X0095699Y0007627D02*
X0095699Y0012131D01*
X0098701Y0012131D01*
X0100303Y0012131D02*
X0100303Y0007627D01*
X0102555Y0007627D01*
X0103305Y0008378D01*
X0103305Y0011380D01*
X0102555Y0012131D01*
X0100303Y0012131D01*
X0097200Y0009879D02*
X0095699Y0009879D01*
X0095699Y0007627D02*
X0098701Y0007627D01*
X0104907Y0008378D02*
X0105657Y0007627D01*
X0107159Y0007627D01*
X0107909Y0008378D01*
X0107909Y0009128D01*
X0107159Y0009879D01*
X0106408Y0009879D01*
X0107159Y0009879D02*
X0107909Y0010630D01*
X0107909Y0011380D01*
X0107159Y0012131D01*
X0105657Y0012131D01*
X0104907Y0011380D01*
X0091095Y0012131D02*
X0091095Y0007627D01*
X0119048Y0008021D02*
X0122050Y0008021D01*
X0123652Y0008021D02*
X0126654Y0008021D01*
X0128255Y0008021D02*
X0130507Y0008021D01*
X0131258Y0008772D01*
X0131258Y0011774D01*
X0130507Y0012525D01*
X0128255Y0012525D01*
X0128255Y0008021D01*
X0125153Y0010273D02*
X0123652Y0010273D01*
X0123652Y0012525D02*
X0123652Y0008021D01*
X0119048Y0008021D02*
X0119048Y0012525D01*
X0123652Y0012525D02*
X0126654Y0012525D01*
X0132859Y0010273D02*
X0135862Y0010273D01*
X0135111Y0008021D02*
X0135111Y0012525D01*
X0132859Y0010273D01*
X0147394Y0012525D02*
X0147394Y0008021D01*
X0150397Y0008021D01*
X0151998Y0008021D02*
X0155001Y0008021D01*
X0156602Y0008021D02*
X0158854Y0008021D01*
X0159605Y0008772D01*
X0159605Y0011774D01*
X0158854Y0012525D01*
X0156602Y0012525D01*
X0156602Y0008021D01*
X0153499Y0010273D02*
X0151998Y0010273D01*
X0151998Y0012525D02*
X0151998Y0008021D01*
X0151998Y0012525D02*
X0155001Y0012525D01*
X0161206Y0012525D02*
X0161206Y0010273D01*
X0162707Y0011023D01*
X0163458Y0011023D01*
X0164208Y0010273D01*
X0164208Y0008772D01*
X0163458Y0008021D01*
X0161957Y0008021D01*
X0161206Y0008772D01*
X0161206Y0012525D02*
X0164208Y0012525D01*
X0123219Y0045022D02*
X0122468Y0045773D01*
X0050893Y0075298D02*
X0047890Y0075298D01*
X0049391Y0075298D02*
X0049391Y0079802D01*
X0047890Y0078301D01*
X0046289Y0079051D02*
X0045538Y0079802D01*
X0044037Y0079802D01*
X0043286Y0079051D01*
X0043286Y0076049D01*
X0044037Y0075298D01*
X0045538Y0075298D01*
X0046289Y0076049D01*
X0208719Y0076049D02*
X0209470Y0075298D01*
X0210971Y0075298D01*
X0211722Y0076049D01*
X0213323Y0076049D02*
X0214074Y0075298D01*
X0215575Y0075298D01*
X0216326Y0076049D01*
X0216326Y0076799D01*
X0215575Y0077550D01*
X0214824Y0077550D01*
X0215575Y0077550D02*
X0216326Y0078301D01*
X0216326Y0079051D01*
X0215575Y0079802D01*
X0214074Y0079802D01*
X0213323Y0079051D01*
X0211722Y0079051D02*
X0210971Y0079802D01*
X0209470Y0079802D01*
X0208719Y0079051D01*
X0208719Y0076049D01*
D12*
X0223335Y0143217D02*
X0223335Y0147799D01*
X0223335Y0151736D02*
X0223335Y0156317D01*
X0223335Y0160254D02*
X0223335Y0164835D01*
X0223335Y0168772D02*
X0223335Y0173353D01*
X0223335Y0177290D02*
X0223335Y0181872D01*
X0223335Y0185809D02*
X0223335Y0190390D01*
X0223335Y0194327D02*
X0223335Y0198908D01*
X0223335Y0202845D02*
X0223335Y0207426D01*
X0223335Y0211363D02*
X0223335Y0215945D01*
X0223335Y0219882D02*
X0223335Y0224463D01*
X0223335Y0228400D02*
X0223335Y0232981D01*
X0219267Y0232981D01*
X0215330Y0232981D02*
X0211262Y0232981D01*
X0207325Y0232981D02*
X0203257Y0232981D01*
X0199320Y0232981D02*
X0195251Y0232981D01*
X0191314Y0232981D02*
X0187246Y0232981D01*
X0183309Y0232981D02*
X0179241Y0232981D01*
X0175304Y0232981D02*
X0171236Y0232981D01*
X0167299Y0232981D02*
X0163230Y0232981D01*
X0159293Y0232981D02*
X0155225Y0232981D01*
X0151288Y0232981D02*
X0147220Y0232981D01*
X0143283Y0232981D02*
X0139215Y0232981D01*
X0135278Y0232981D02*
X0131209Y0232981D01*
X0127272Y0232981D02*
X0123204Y0232981D01*
X0119267Y0232981D02*
X0115199Y0232981D01*
X0111262Y0232981D02*
X0107194Y0232981D01*
X0103257Y0232981D02*
X0099188Y0232981D01*
X0095251Y0232981D02*
X0091183Y0232981D01*
X0087246Y0232981D02*
X0083178Y0232981D01*
X0079241Y0232981D02*
X0075173Y0232981D01*
X0071236Y0232981D02*
X0067167Y0232981D01*
X0063230Y0232981D02*
X0059162Y0232981D01*
X0055225Y0232981D02*
X0051157Y0232981D01*
X0047220Y0232981D02*
X0043152Y0232981D01*
X0039215Y0232981D02*
X0035146Y0232981D01*
X0035146Y0228400D01*
X0035146Y0224463D02*
X0035146Y0219882D01*
X0035146Y0215945D02*
X0035146Y0211363D01*
X0035146Y0207426D02*
X0035146Y0202845D01*
X0035146Y0198908D02*
X0035146Y0194327D01*
X0035146Y0190390D02*
X0035146Y0185809D01*
X0035146Y0181872D02*
X0035146Y0177290D01*
X0035146Y0173353D02*
X0035146Y0168772D01*
X0035146Y0164835D02*
X0035146Y0160254D01*
X0035146Y0156317D02*
X0035146Y0151736D01*
X0035146Y0147799D02*
X0035146Y0143217D01*
X0274910Y0156997D02*
X0274910Y0161603D01*
X0274910Y0165540D02*
X0274910Y0170146D01*
X0274910Y0174083D02*
X0274910Y0178690D01*
X0274910Y0182627D02*
X0274910Y0187233D01*
X0274910Y0191170D02*
X0274910Y0195776D01*
X0274910Y0199713D02*
X0274910Y0204320D01*
X0274910Y0208257D02*
X0274910Y0212863D01*
X0274910Y0216800D02*
X0274910Y0221406D01*
X0274910Y0225343D02*
X0274910Y0229950D01*
X0274910Y0233887D02*
X0274910Y0238493D01*
X0279832Y0238454D01*
X0283768Y0238422D02*
X0288690Y0238383D01*
X0292627Y0238351D02*
X0297548Y0238312D01*
X0301485Y0238280D02*
X0306406Y0238241D01*
X0310343Y0238209D02*
X0315265Y0238170D01*
X0319201Y0238139D02*
X0324123Y0238099D01*
X0324123Y0233493D01*
X0324123Y0229556D02*
X0324123Y0224950D01*
X0324123Y0221013D02*
X0324123Y0216406D01*
X0324123Y0212469D02*
X0324123Y0207863D01*
X0324123Y0203926D02*
X0324123Y0199320D01*
X0324123Y0195383D02*
X0324123Y0190776D01*
X0324123Y0186839D02*
X0324123Y0182233D01*
X0324123Y0178296D02*
X0324123Y0173690D01*
X0324123Y0169753D02*
X0324123Y0165146D01*
X0324123Y0161209D02*
X0324123Y0156603D01*
X0319201Y0156643D01*
X0315265Y0156674D02*
X0310343Y0156713D01*
X0306406Y0156745D02*
X0301485Y0156784D01*
X0297548Y0156816D02*
X0292627Y0156855D01*
X0288690Y0156887D02*
X0283768Y0156926D01*
X0279832Y0156957D02*
X0274910Y0156997D01*
D13*
X0280690Y0180131D02*
X0284960Y0180131D01*
X0286028Y0181199D01*
X0286028Y0183334D01*
X0284960Y0184402D01*
X0280690Y0184402D01*
X0279622Y0183334D01*
X0279622Y0181199D01*
X0280690Y0180131D01*
X0279622Y0186577D02*
X0284960Y0186577D01*
X0286028Y0187645D01*
X0286028Y0189780D01*
X0284960Y0190847D01*
X0279622Y0190847D01*
X0279622Y0193022D02*
X0279622Y0197293D01*
X0279622Y0195158D02*
X0286028Y0195158D01*
X0286028Y0199468D02*
X0279622Y0199468D01*
X0279622Y0202671D01*
X0280690Y0203738D01*
X0282825Y0203738D01*
X0283892Y0202671D01*
X0283892Y0199468D01*
X0284960Y0205913D02*
X0279622Y0205913D01*
X0279622Y0210184D02*
X0284960Y0210184D01*
X0286028Y0209116D01*
X0286028Y0206981D01*
X0284960Y0205913D01*
X0279622Y0212359D02*
X0279622Y0216629D01*
X0279622Y0214494D02*
X0286028Y0214494D01*
X0327036Y0214048D02*
X0327036Y0221048D01*
X0328536Y0222548D01*
X0327036Y0224048D01*
X0327036Y0231048D01*
X0328536Y0232548D01*
X0345536Y0232548D01*
X0347036Y0231048D01*
X0347036Y0224048D01*
X0345536Y0222548D01*
X0347036Y0221048D01*
X0347036Y0214048D01*
X0345536Y0212548D01*
X0347036Y0211048D01*
X0347036Y0204048D01*
X0345536Y0202548D01*
X0347036Y0201048D01*
X0347036Y0194048D01*
X0345536Y0192548D01*
X0347036Y0191048D01*
X0347036Y0184048D01*
X0345536Y0182548D01*
X0347036Y0181048D01*
X0347036Y0174048D01*
X0345536Y0172548D01*
X0347036Y0171048D01*
X0347036Y0164048D01*
X0345536Y0162548D01*
X0347036Y0161048D01*
X0347036Y0154048D01*
X0345536Y0152548D01*
X0328536Y0152548D01*
X0327036Y0154048D01*
X0327036Y0161048D01*
X0328536Y0162548D01*
X0327036Y0164048D01*
X0327036Y0171048D01*
X0328536Y0172548D01*
X0327036Y0174048D01*
X0327036Y0181048D01*
X0328536Y0182548D01*
X0327036Y0184048D01*
X0327036Y0191048D01*
X0328536Y0192548D01*
X0327036Y0194048D01*
X0327036Y0201048D01*
X0328536Y0202548D01*
X0327036Y0204048D01*
X0327036Y0211048D01*
X0328536Y0212548D01*
X0327036Y0214048D01*
X0188390Y0201963D02*
X0181984Y0201963D01*
X0181984Y0199828D02*
X0181984Y0204098D01*
X0181984Y0197653D02*
X0187322Y0197653D01*
X0188390Y0196585D01*
X0188390Y0194450D01*
X0187322Y0193382D01*
X0181984Y0193382D01*
X0183052Y0191207D02*
X0185187Y0191207D01*
X0186255Y0190140D01*
X0186255Y0186937D01*
X0188390Y0186937D02*
X0181984Y0186937D01*
X0181984Y0190140D01*
X0183052Y0191207D01*
X0181984Y0184762D02*
X0188390Y0184762D01*
X0181984Y0180491D01*
X0188390Y0180491D01*
X0188390Y0178330D02*
X0188390Y0176194D01*
X0188390Y0177262D02*
X0181984Y0177262D01*
X0181984Y0176194D02*
X0181984Y0178330D01*
X0160682Y0074099D02*
X0122682Y0074099D01*
X0122622Y0074097D01*
X0122561Y0074092D01*
X0122502Y0074083D01*
X0122443Y0074070D01*
X0122384Y0074054D01*
X0122327Y0074034D01*
X0122272Y0074011D01*
X0122217Y0073984D01*
X0122165Y0073955D01*
X0122114Y0073922D01*
X0122065Y0073886D01*
X0122019Y0073848D01*
X0121975Y0073806D01*
X0121933Y0073762D01*
X0121895Y0073716D01*
X0121859Y0073667D01*
X0121826Y0073616D01*
X0121797Y0073564D01*
X0121770Y0073509D01*
X0121747Y0073454D01*
X0121727Y0073397D01*
X0121711Y0073338D01*
X0121698Y0073279D01*
X0121689Y0073220D01*
X0121684Y0073159D01*
X0121682Y0073099D01*
X0121682Y0063099D01*
X0121684Y0063039D01*
X0121689Y0062978D01*
X0121698Y0062919D01*
X0121711Y0062860D01*
X0121727Y0062801D01*
X0121747Y0062744D01*
X0121770Y0062689D01*
X0121797Y0062634D01*
X0121826Y0062582D01*
X0121859Y0062531D01*
X0121895Y0062482D01*
X0121933Y0062436D01*
X0121975Y0062392D01*
X0122019Y0062350D01*
X0122065Y0062312D01*
X0122114Y0062276D01*
X0122165Y0062243D01*
X0122217Y0062214D01*
X0122272Y0062187D01*
X0122327Y0062164D01*
X0122384Y0062144D01*
X0122443Y0062128D01*
X0122502Y0062115D01*
X0122561Y0062106D01*
X0122622Y0062101D01*
X0122682Y0062099D01*
X0160682Y0062099D01*
X0160742Y0062101D01*
X0160803Y0062106D01*
X0160862Y0062115D01*
X0160921Y0062128D01*
X0160980Y0062144D01*
X0161037Y0062164D01*
X0161092Y0062187D01*
X0161147Y0062214D01*
X0161199Y0062243D01*
X0161250Y0062276D01*
X0161299Y0062312D01*
X0161345Y0062350D01*
X0161389Y0062392D01*
X0161431Y0062436D01*
X0161469Y0062482D01*
X0161505Y0062531D01*
X0161538Y0062582D01*
X0161567Y0062634D01*
X0161594Y0062689D01*
X0161617Y0062744D01*
X0161637Y0062801D01*
X0161653Y0062860D01*
X0161666Y0062919D01*
X0161675Y0062978D01*
X0161680Y0063039D01*
X0161682Y0063099D01*
X0161682Y0073099D01*
X0161680Y0073159D01*
X0161675Y0073220D01*
X0161666Y0073279D01*
X0161653Y0073338D01*
X0161637Y0073397D01*
X0161617Y0073454D01*
X0161594Y0073509D01*
X0161567Y0073564D01*
X0161538Y0073616D01*
X0161505Y0073667D01*
X0161469Y0073716D01*
X0161431Y0073762D01*
X0161389Y0073806D01*
X0161345Y0073848D01*
X0161299Y0073886D01*
X0161250Y0073922D01*
X0161199Y0073955D01*
X0161147Y0073984D01*
X0161092Y0074011D01*
X0161037Y0074034D01*
X0160980Y0074054D01*
X0160921Y0074070D01*
X0160862Y0074083D01*
X0160803Y0074092D01*
X0160742Y0074097D01*
X0160682Y0074099D01*
X0151682Y0068099D02*
X0143682Y0068099D01*
X0139682Y0068099D02*
X0131682Y0068099D01*
X0082036Y0072548D02*
X0082036Y0062548D01*
X0082034Y0062488D01*
X0082029Y0062427D01*
X0082020Y0062368D01*
X0082007Y0062309D01*
X0081991Y0062250D01*
X0081971Y0062193D01*
X0081948Y0062138D01*
X0081921Y0062083D01*
X0081892Y0062031D01*
X0081859Y0061980D01*
X0081823Y0061931D01*
X0081785Y0061885D01*
X0081743Y0061841D01*
X0081699Y0061799D01*
X0081653Y0061761D01*
X0081604Y0061725D01*
X0081553Y0061692D01*
X0081501Y0061663D01*
X0081446Y0061636D01*
X0081391Y0061613D01*
X0081334Y0061593D01*
X0081275Y0061577D01*
X0081216Y0061564D01*
X0081157Y0061555D01*
X0081096Y0061550D01*
X0081036Y0061548D01*
X0043036Y0061548D01*
X0042976Y0061550D01*
X0042915Y0061555D01*
X0042856Y0061564D01*
X0042797Y0061577D01*
X0042738Y0061593D01*
X0042681Y0061613D01*
X0042626Y0061636D01*
X0042571Y0061663D01*
X0042519Y0061692D01*
X0042468Y0061725D01*
X0042419Y0061761D01*
X0042373Y0061799D01*
X0042329Y0061841D01*
X0042287Y0061885D01*
X0042249Y0061931D01*
X0042213Y0061980D01*
X0042180Y0062031D01*
X0042151Y0062083D01*
X0042124Y0062138D01*
X0042101Y0062193D01*
X0042081Y0062250D01*
X0042065Y0062309D01*
X0042052Y0062368D01*
X0042043Y0062427D01*
X0042038Y0062488D01*
X0042036Y0062548D01*
X0042036Y0072548D01*
X0042038Y0072608D01*
X0042043Y0072669D01*
X0042052Y0072728D01*
X0042065Y0072787D01*
X0042081Y0072846D01*
X0042101Y0072903D01*
X0042124Y0072958D01*
X0042151Y0073013D01*
X0042180Y0073065D01*
X0042213Y0073116D01*
X0042249Y0073165D01*
X0042287Y0073211D01*
X0042329Y0073255D01*
X0042373Y0073297D01*
X0042419Y0073335D01*
X0042468Y0073371D01*
X0042519Y0073404D01*
X0042571Y0073433D01*
X0042626Y0073460D01*
X0042681Y0073483D01*
X0042738Y0073503D01*
X0042797Y0073519D01*
X0042856Y0073532D01*
X0042915Y0073541D01*
X0042976Y0073546D01*
X0043036Y0073548D01*
X0081036Y0073548D01*
X0081096Y0073546D01*
X0081157Y0073541D01*
X0081216Y0073532D01*
X0081275Y0073519D01*
X0081334Y0073503D01*
X0081391Y0073483D01*
X0081446Y0073460D01*
X0081501Y0073433D01*
X0081553Y0073404D01*
X0081604Y0073371D01*
X0081653Y0073335D01*
X0081699Y0073297D01*
X0081743Y0073255D01*
X0081785Y0073211D01*
X0081823Y0073165D01*
X0081859Y0073116D01*
X0081892Y0073065D01*
X0081921Y0073013D01*
X0081948Y0072958D01*
X0081971Y0072903D01*
X0081991Y0072846D01*
X0082007Y0072787D01*
X0082020Y0072728D01*
X0082029Y0072669D01*
X0082034Y0072608D01*
X0082036Y0072548D01*
X0072036Y0067548D02*
X0064036Y0067548D01*
X0060036Y0067548D02*
X0052036Y0067548D01*
X0036170Y0025501D02*
X0036173Y0025746D01*
X0036182Y0025992D01*
X0036197Y0026237D01*
X0036218Y0026481D01*
X0036245Y0026725D01*
X0036278Y0026968D01*
X0036317Y0027211D01*
X0036362Y0027452D01*
X0036413Y0027692D01*
X0036470Y0027931D01*
X0036532Y0028168D01*
X0036601Y0028404D01*
X0036675Y0028638D01*
X0036755Y0028870D01*
X0036840Y0029100D01*
X0036931Y0029328D01*
X0037028Y0029553D01*
X0037130Y0029777D01*
X0037238Y0029997D01*
X0037351Y0030215D01*
X0037469Y0030430D01*
X0037593Y0030642D01*
X0037721Y0030851D01*
X0037855Y0031057D01*
X0037994Y0031259D01*
X0038138Y0031458D01*
X0038287Y0031653D01*
X0038440Y0031845D01*
X0038598Y0032033D01*
X0038760Y0032217D01*
X0038928Y0032396D01*
X0039099Y0032572D01*
X0039275Y0032743D01*
X0039454Y0032911D01*
X0039638Y0033073D01*
X0039826Y0033231D01*
X0040018Y0033384D01*
X0040213Y0033533D01*
X0040412Y0033677D01*
X0040614Y0033816D01*
X0040820Y0033950D01*
X0041029Y0034078D01*
X0041241Y0034202D01*
X0041456Y0034320D01*
X0041674Y0034433D01*
X0041894Y0034541D01*
X0042118Y0034643D01*
X0042343Y0034740D01*
X0042571Y0034831D01*
X0042801Y0034916D01*
X0043033Y0034996D01*
X0043267Y0035070D01*
X0043503Y0035139D01*
X0043740Y0035201D01*
X0043979Y0035258D01*
X0044219Y0035309D01*
X0044460Y0035354D01*
X0044703Y0035393D01*
X0044946Y0035426D01*
X0045190Y0035453D01*
X0045434Y0035474D01*
X0045679Y0035489D01*
X0045925Y0035498D01*
X0046170Y0035501D01*
X0046415Y0035498D01*
X0046661Y0035489D01*
X0046906Y0035474D01*
X0047150Y0035453D01*
X0047394Y0035426D01*
X0047637Y0035393D01*
X0047880Y0035354D01*
X0048121Y0035309D01*
X0048361Y0035258D01*
X0048600Y0035201D01*
X0048837Y0035139D01*
X0049073Y0035070D01*
X0049307Y0034996D01*
X0049539Y0034916D01*
X0049769Y0034831D01*
X0049997Y0034740D01*
X0050222Y0034643D01*
X0050446Y0034541D01*
X0050666Y0034433D01*
X0050884Y0034320D01*
X0051099Y0034202D01*
X0051311Y0034078D01*
X0051520Y0033950D01*
X0051726Y0033816D01*
X0051928Y0033677D01*
X0052127Y0033533D01*
X0052322Y0033384D01*
X0052514Y0033231D01*
X0052702Y0033073D01*
X0052886Y0032911D01*
X0053065Y0032743D01*
X0053241Y0032572D01*
X0053412Y0032396D01*
X0053580Y0032217D01*
X0053742Y0032033D01*
X0053900Y0031845D01*
X0054053Y0031653D01*
X0054202Y0031458D01*
X0054346Y0031259D01*
X0054485Y0031057D01*
X0054619Y0030851D01*
X0054747Y0030642D01*
X0054871Y0030430D01*
X0054989Y0030215D01*
X0055102Y0029997D01*
X0055210Y0029777D01*
X0055312Y0029553D01*
X0055409Y0029328D01*
X0055500Y0029100D01*
X0055585Y0028870D01*
X0055665Y0028638D01*
X0055739Y0028404D01*
X0055808Y0028168D01*
X0055870Y0027931D01*
X0055927Y0027692D01*
X0055978Y0027452D01*
X0056023Y0027211D01*
X0056062Y0026968D01*
X0056095Y0026725D01*
X0056122Y0026481D01*
X0056143Y0026237D01*
X0056158Y0025992D01*
X0056167Y0025746D01*
X0056170Y0025501D01*
X0056167Y0025256D01*
X0056158Y0025010D01*
X0056143Y0024765D01*
X0056122Y0024521D01*
X0056095Y0024277D01*
X0056062Y0024034D01*
X0056023Y0023791D01*
X0055978Y0023550D01*
X0055927Y0023310D01*
X0055870Y0023071D01*
X0055808Y0022834D01*
X0055739Y0022598D01*
X0055665Y0022364D01*
X0055585Y0022132D01*
X0055500Y0021902D01*
X0055409Y0021674D01*
X0055312Y0021449D01*
X0055210Y0021225D01*
X0055102Y0021005D01*
X0054989Y0020787D01*
X0054871Y0020572D01*
X0054747Y0020360D01*
X0054619Y0020151D01*
X0054485Y0019945D01*
X0054346Y0019743D01*
X0054202Y0019544D01*
X0054053Y0019349D01*
X0053900Y0019157D01*
X0053742Y0018969D01*
X0053580Y0018785D01*
X0053412Y0018606D01*
X0053241Y0018430D01*
X0053065Y0018259D01*
X0052886Y0018091D01*
X0052702Y0017929D01*
X0052514Y0017771D01*
X0052322Y0017618D01*
X0052127Y0017469D01*
X0051928Y0017325D01*
X0051726Y0017186D01*
X0051520Y0017052D01*
X0051311Y0016924D01*
X0051099Y0016800D01*
X0050884Y0016682D01*
X0050666Y0016569D01*
X0050446Y0016461D01*
X0050222Y0016359D01*
X0049997Y0016262D01*
X0049769Y0016171D01*
X0049539Y0016086D01*
X0049307Y0016006D01*
X0049073Y0015932D01*
X0048837Y0015863D01*
X0048600Y0015801D01*
X0048361Y0015744D01*
X0048121Y0015693D01*
X0047880Y0015648D01*
X0047637Y0015609D01*
X0047394Y0015576D01*
X0047150Y0015549D01*
X0046906Y0015528D01*
X0046661Y0015513D01*
X0046415Y0015504D01*
X0046170Y0015501D01*
X0045925Y0015504D01*
X0045679Y0015513D01*
X0045434Y0015528D01*
X0045190Y0015549D01*
X0044946Y0015576D01*
X0044703Y0015609D01*
X0044460Y0015648D01*
X0044219Y0015693D01*
X0043979Y0015744D01*
X0043740Y0015801D01*
X0043503Y0015863D01*
X0043267Y0015932D01*
X0043033Y0016006D01*
X0042801Y0016086D01*
X0042571Y0016171D01*
X0042343Y0016262D01*
X0042118Y0016359D01*
X0041894Y0016461D01*
X0041674Y0016569D01*
X0041456Y0016682D01*
X0041241Y0016800D01*
X0041029Y0016924D01*
X0040820Y0017052D01*
X0040614Y0017186D01*
X0040412Y0017325D01*
X0040213Y0017469D01*
X0040018Y0017618D01*
X0039826Y0017771D01*
X0039638Y0017929D01*
X0039454Y0018091D01*
X0039275Y0018259D01*
X0039099Y0018430D01*
X0038928Y0018606D01*
X0038760Y0018785D01*
X0038598Y0018969D01*
X0038440Y0019157D01*
X0038287Y0019349D01*
X0038138Y0019544D01*
X0037994Y0019743D01*
X0037855Y0019945D01*
X0037721Y0020151D01*
X0037593Y0020360D01*
X0037469Y0020572D01*
X0037351Y0020787D01*
X0037238Y0021005D01*
X0037130Y0021225D01*
X0037028Y0021449D01*
X0036931Y0021674D01*
X0036840Y0021902D01*
X0036755Y0022132D01*
X0036675Y0022364D01*
X0036601Y0022598D01*
X0036532Y0022834D01*
X0036470Y0023071D01*
X0036413Y0023310D01*
X0036362Y0023550D01*
X0036317Y0023791D01*
X0036278Y0024034D01*
X0036245Y0024277D01*
X0036218Y0024521D01*
X0036197Y0024765D01*
X0036182Y0025010D01*
X0036173Y0025256D01*
X0036170Y0025501D01*
X0063729Y0025501D02*
X0063732Y0025746D01*
X0063741Y0025992D01*
X0063756Y0026237D01*
X0063777Y0026481D01*
X0063804Y0026725D01*
X0063837Y0026968D01*
X0063876Y0027211D01*
X0063921Y0027452D01*
X0063972Y0027692D01*
X0064029Y0027931D01*
X0064091Y0028168D01*
X0064160Y0028404D01*
X0064234Y0028638D01*
X0064314Y0028870D01*
X0064399Y0029100D01*
X0064490Y0029328D01*
X0064587Y0029553D01*
X0064689Y0029777D01*
X0064797Y0029997D01*
X0064910Y0030215D01*
X0065028Y0030430D01*
X0065152Y0030642D01*
X0065280Y0030851D01*
X0065414Y0031057D01*
X0065553Y0031259D01*
X0065697Y0031458D01*
X0065846Y0031653D01*
X0065999Y0031845D01*
X0066157Y0032033D01*
X0066319Y0032217D01*
X0066487Y0032396D01*
X0066658Y0032572D01*
X0066834Y0032743D01*
X0067013Y0032911D01*
X0067197Y0033073D01*
X0067385Y0033231D01*
X0067577Y0033384D01*
X0067772Y0033533D01*
X0067971Y0033677D01*
X0068173Y0033816D01*
X0068379Y0033950D01*
X0068588Y0034078D01*
X0068800Y0034202D01*
X0069015Y0034320D01*
X0069233Y0034433D01*
X0069453Y0034541D01*
X0069677Y0034643D01*
X0069902Y0034740D01*
X0070130Y0034831D01*
X0070360Y0034916D01*
X0070592Y0034996D01*
X0070826Y0035070D01*
X0071062Y0035139D01*
X0071299Y0035201D01*
X0071538Y0035258D01*
X0071778Y0035309D01*
X0072019Y0035354D01*
X0072262Y0035393D01*
X0072505Y0035426D01*
X0072749Y0035453D01*
X0072993Y0035474D01*
X0073238Y0035489D01*
X0073484Y0035498D01*
X0073729Y0035501D01*
X0073974Y0035498D01*
X0074220Y0035489D01*
X0074465Y0035474D01*
X0074709Y0035453D01*
X0074953Y0035426D01*
X0075196Y0035393D01*
X0075439Y0035354D01*
X0075680Y0035309D01*
X0075920Y0035258D01*
X0076159Y0035201D01*
X0076396Y0035139D01*
X0076632Y0035070D01*
X0076866Y0034996D01*
X0077098Y0034916D01*
X0077328Y0034831D01*
X0077556Y0034740D01*
X0077781Y0034643D01*
X0078005Y0034541D01*
X0078225Y0034433D01*
X0078443Y0034320D01*
X0078658Y0034202D01*
X0078870Y0034078D01*
X0079079Y0033950D01*
X0079285Y0033816D01*
X0079487Y0033677D01*
X0079686Y0033533D01*
X0079881Y0033384D01*
X0080073Y0033231D01*
X0080261Y0033073D01*
X0080445Y0032911D01*
X0080624Y0032743D01*
X0080800Y0032572D01*
X0080971Y0032396D01*
X0081139Y0032217D01*
X0081301Y0032033D01*
X0081459Y0031845D01*
X0081612Y0031653D01*
X0081761Y0031458D01*
X0081905Y0031259D01*
X0082044Y0031057D01*
X0082178Y0030851D01*
X0082306Y0030642D01*
X0082430Y0030430D01*
X0082548Y0030215D01*
X0082661Y0029997D01*
X0082769Y0029777D01*
X0082871Y0029553D01*
X0082968Y0029328D01*
X0083059Y0029100D01*
X0083144Y0028870D01*
X0083224Y0028638D01*
X0083298Y0028404D01*
X0083367Y0028168D01*
X0083429Y0027931D01*
X0083486Y0027692D01*
X0083537Y0027452D01*
X0083582Y0027211D01*
X0083621Y0026968D01*
X0083654Y0026725D01*
X0083681Y0026481D01*
X0083702Y0026237D01*
X0083717Y0025992D01*
X0083726Y0025746D01*
X0083729Y0025501D01*
X0083726Y0025256D01*
X0083717Y0025010D01*
X0083702Y0024765D01*
X0083681Y0024521D01*
X0083654Y0024277D01*
X0083621Y0024034D01*
X0083582Y0023791D01*
X0083537Y0023550D01*
X0083486Y0023310D01*
X0083429Y0023071D01*
X0083367Y0022834D01*
X0083298Y0022598D01*
X0083224Y0022364D01*
X0083144Y0022132D01*
X0083059Y0021902D01*
X0082968Y0021674D01*
X0082871Y0021449D01*
X0082769Y0021225D01*
X0082661Y0021005D01*
X0082548Y0020787D01*
X0082430Y0020572D01*
X0082306Y0020360D01*
X0082178Y0020151D01*
X0082044Y0019945D01*
X0081905Y0019743D01*
X0081761Y0019544D01*
X0081612Y0019349D01*
X0081459Y0019157D01*
X0081301Y0018969D01*
X0081139Y0018785D01*
X0080971Y0018606D01*
X0080800Y0018430D01*
X0080624Y0018259D01*
X0080445Y0018091D01*
X0080261Y0017929D01*
X0080073Y0017771D01*
X0079881Y0017618D01*
X0079686Y0017469D01*
X0079487Y0017325D01*
X0079285Y0017186D01*
X0079079Y0017052D01*
X0078870Y0016924D01*
X0078658Y0016800D01*
X0078443Y0016682D01*
X0078225Y0016569D01*
X0078005Y0016461D01*
X0077781Y0016359D01*
X0077556Y0016262D01*
X0077328Y0016171D01*
X0077098Y0016086D01*
X0076866Y0016006D01*
X0076632Y0015932D01*
X0076396Y0015863D01*
X0076159Y0015801D01*
X0075920Y0015744D01*
X0075680Y0015693D01*
X0075439Y0015648D01*
X0075196Y0015609D01*
X0074953Y0015576D01*
X0074709Y0015549D01*
X0074465Y0015528D01*
X0074220Y0015513D01*
X0073974Y0015504D01*
X0073729Y0015501D01*
X0073484Y0015504D01*
X0073238Y0015513D01*
X0072993Y0015528D01*
X0072749Y0015549D01*
X0072505Y0015576D01*
X0072262Y0015609D01*
X0072019Y0015648D01*
X0071778Y0015693D01*
X0071538Y0015744D01*
X0071299Y0015801D01*
X0071062Y0015863D01*
X0070826Y0015932D01*
X0070592Y0016006D01*
X0070360Y0016086D01*
X0070130Y0016171D01*
X0069902Y0016262D01*
X0069677Y0016359D01*
X0069453Y0016461D01*
X0069233Y0016569D01*
X0069015Y0016682D01*
X0068800Y0016800D01*
X0068588Y0016924D01*
X0068379Y0017052D01*
X0068173Y0017186D01*
X0067971Y0017325D01*
X0067772Y0017469D01*
X0067577Y0017618D01*
X0067385Y0017771D01*
X0067197Y0017929D01*
X0067013Y0018091D01*
X0066834Y0018259D01*
X0066658Y0018430D01*
X0066487Y0018606D01*
X0066319Y0018785D01*
X0066157Y0018969D01*
X0065999Y0019157D01*
X0065846Y0019349D01*
X0065697Y0019544D01*
X0065553Y0019743D01*
X0065414Y0019945D01*
X0065280Y0020151D01*
X0065152Y0020360D01*
X0065028Y0020572D01*
X0064910Y0020787D01*
X0064797Y0021005D01*
X0064689Y0021225D01*
X0064587Y0021449D01*
X0064490Y0021674D01*
X0064399Y0021902D01*
X0064314Y0022132D01*
X0064234Y0022364D01*
X0064160Y0022598D01*
X0064091Y0022834D01*
X0064029Y0023071D01*
X0063972Y0023310D01*
X0063921Y0023550D01*
X0063876Y0023791D01*
X0063837Y0024034D01*
X0063804Y0024277D01*
X0063777Y0024521D01*
X0063756Y0024765D01*
X0063741Y0025010D01*
X0063732Y0025256D01*
X0063729Y0025501D01*
X0091288Y0025501D02*
X0091291Y0025746D01*
X0091300Y0025992D01*
X0091315Y0026237D01*
X0091336Y0026481D01*
X0091363Y0026725D01*
X0091396Y0026968D01*
X0091435Y0027211D01*
X0091480Y0027452D01*
X0091531Y0027692D01*
X0091588Y0027931D01*
X0091650Y0028168D01*
X0091719Y0028404D01*
X0091793Y0028638D01*
X0091873Y0028870D01*
X0091958Y0029100D01*
X0092049Y0029328D01*
X0092146Y0029553D01*
X0092248Y0029777D01*
X0092356Y0029997D01*
X0092469Y0030215D01*
X0092587Y0030430D01*
X0092711Y0030642D01*
X0092839Y0030851D01*
X0092973Y0031057D01*
X0093112Y0031259D01*
X0093256Y0031458D01*
X0093405Y0031653D01*
X0093558Y0031845D01*
X0093716Y0032033D01*
X0093878Y0032217D01*
X0094046Y0032396D01*
X0094217Y0032572D01*
X0094393Y0032743D01*
X0094572Y0032911D01*
X0094756Y0033073D01*
X0094944Y0033231D01*
X0095136Y0033384D01*
X0095331Y0033533D01*
X0095530Y0033677D01*
X0095732Y0033816D01*
X0095938Y0033950D01*
X0096147Y0034078D01*
X0096359Y0034202D01*
X0096574Y0034320D01*
X0096792Y0034433D01*
X0097012Y0034541D01*
X0097236Y0034643D01*
X0097461Y0034740D01*
X0097689Y0034831D01*
X0097919Y0034916D01*
X0098151Y0034996D01*
X0098385Y0035070D01*
X0098621Y0035139D01*
X0098858Y0035201D01*
X0099097Y0035258D01*
X0099337Y0035309D01*
X0099578Y0035354D01*
X0099821Y0035393D01*
X0100064Y0035426D01*
X0100308Y0035453D01*
X0100552Y0035474D01*
X0100797Y0035489D01*
X0101043Y0035498D01*
X0101288Y0035501D01*
X0101533Y0035498D01*
X0101779Y0035489D01*
X0102024Y0035474D01*
X0102268Y0035453D01*
X0102512Y0035426D01*
X0102755Y0035393D01*
X0102998Y0035354D01*
X0103239Y0035309D01*
X0103479Y0035258D01*
X0103718Y0035201D01*
X0103955Y0035139D01*
X0104191Y0035070D01*
X0104425Y0034996D01*
X0104657Y0034916D01*
X0104887Y0034831D01*
X0105115Y0034740D01*
X0105340Y0034643D01*
X0105564Y0034541D01*
X0105784Y0034433D01*
X0106002Y0034320D01*
X0106217Y0034202D01*
X0106429Y0034078D01*
X0106638Y0033950D01*
X0106844Y0033816D01*
X0107046Y0033677D01*
X0107245Y0033533D01*
X0107440Y0033384D01*
X0107632Y0033231D01*
X0107820Y0033073D01*
X0108004Y0032911D01*
X0108183Y0032743D01*
X0108359Y0032572D01*
X0108530Y0032396D01*
X0108698Y0032217D01*
X0108860Y0032033D01*
X0109018Y0031845D01*
X0109171Y0031653D01*
X0109320Y0031458D01*
X0109464Y0031259D01*
X0109603Y0031057D01*
X0109737Y0030851D01*
X0109865Y0030642D01*
X0109989Y0030430D01*
X0110107Y0030215D01*
X0110220Y0029997D01*
X0110328Y0029777D01*
X0110430Y0029553D01*
X0110527Y0029328D01*
X0110618Y0029100D01*
X0110703Y0028870D01*
X0110783Y0028638D01*
X0110857Y0028404D01*
X0110926Y0028168D01*
X0110988Y0027931D01*
X0111045Y0027692D01*
X0111096Y0027452D01*
X0111141Y0027211D01*
X0111180Y0026968D01*
X0111213Y0026725D01*
X0111240Y0026481D01*
X0111261Y0026237D01*
X0111276Y0025992D01*
X0111285Y0025746D01*
X0111288Y0025501D01*
X0111285Y0025256D01*
X0111276Y0025010D01*
X0111261Y0024765D01*
X0111240Y0024521D01*
X0111213Y0024277D01*
X0111180Y0024034D01*
X0111141Y0023791D01*
X0111096Y0023550D01*
X0111045Y0023310D01*
X0110988Y0023071D01*
X0110926Y0022834D01*
X0110857Y0022598D01*
X0110783Y0022364D01*
X0110703Y0022132D01*
X0110618Y0021902D01*
X0110527Y0021674D01*
X0110430Y0021449D01*
X0110328Y0021225D01*
X0110220Y0021005D01*
X0110107Y0020787D01*
X0109989Y0020572D01*
X0109865Y0020360D01*
X0109737Y0020151D01*
X0109603Y0019945D01*
X0109464Y0019743D01*
X0109320Y0019544D01*
X0109171Y0019349D01*
X0109018Y0019157D01*
X0108860Y0018969D01*
X0108698Y0018785D01*
X0108530Y0018606D01*
X0108359Y0018430D01*
X0108183Y0018259D01*
X0108004Y0018091D01*
X0107820Y0017929D01*
X0107632Y0017771D01*
X0107440Y0017618D01*
X0107245Y0017469D01*
X0107046Y0017325D01*
X0106844Y0017186D01*
X0106638Y0017052D01*
X0106429Y0016924D01*
X0106217Y0016800D01*
X0106002Y0016682D01*
X0105784Y0016569D01*
X0105564Y0016461D01*
X0105340Y0016359D01*
X0105115Y0016262D01*
X0104887Y0016171D01*
X0104657Y0016086D01*
X0104425Y0016006D01*
X0104191Y0015932D01*
X0103955Y0015863D01*
X0103718Y0015801D01*
X0103479Y0015744D01*
X0103239Y0015693D01*
X0102998Y0015648D01*
X0102755Y0015609D01*
X0102512Y0015576D01*
X0102268Y0015549D01*
X0102024Y0015528D01*
X0101779Y0015513D01*
X0101533Y0015504D01*
X0101288Y0015501D01*
X0101043Y0015504D01*
X0100797Y0015513D01*
X0100552Y0015528D01*
X0100308Y0015549D01*
X0100064Y0015576D01*
X0099821Y0015609D01*
X0099578Y0015648D01*
X0099337Y0015693D01*
X0099097Y0015744D01*
X0098858Y0015801D01*
X0098621Y0015863D01*
X0098385Y0015932D01*
X0098151Y0016006D01*
X0097919Y0016086D01*
X0097689Y0016171D01*
X0097461Y0016262D01*
X0097236Y0016359D01*
X0097012Y0016461D01*
X0096792Y0016569D01*
X0096574Y0016682D01*
X0096359Y0016800D01*
X0096147Y0016924D01*
X0095938Y0017052D01*
X0095732Y0017186D01*
X0095530Y0017325D01*
X0095331Y0017469D01*
X0095136Y0017618D01*
X0094944Y0017771D01*
X0094756Y0017929D01*
X0094572Y0018091D01*
X0094393Y0018259D01*
X0094217Y0018430D01*
X0094046Y0018606D01*
X0093878Y0018785D01*
X0093716Y0018969D01*
X0093558Y0019157D01*
X0093405Y0019349D01*
X0093256Y0019544D01*
X0093112Y0019743D01*
X0092973Y0019945D01*
X0092839Y0020151D01*
X0092711Y0020360D01*
X0092587Y0020572D01*
X0092469Y0020787D01*
X0092356Y0021005D01*
X0092248Y0021225D01*
X0092146Y0021449D01*
X0092049Y0021674D01*
X0091958Y0021902D01*
X0091873Y0022132D01*
X0091793Y0022364D01*
X0091719Y0022598D01*
X0091650Y0022834D01*
X0091588Y0023071D01*
X0091531Y0023310D01*
X0091480Y0023550D01*
X0091435Y0023791D01*
X0091396Y0024034D01*
X0091363Y0024277D01*
X0091336Y0024521D01*
X0091315Y0024765D01*
X0091300Y0025010D01*
X0091291Y0025256D01*
X0091288Y0025501D01*
X0119241Y0025501D02*
X0119244Y0025746D01*
X0119253Y0025992D01*
X0119268Y0026237D01*
X0119289Y0026481D01*
X0119316Y0026725D01*
X0119349Y0026968D01*
X0119388Y0027211D01*
X0119433Y0027452D01*
X0119484Y0027692D01*
X0119541Y0027931D01*
X0119603Y0028168D01*
X0119672Y0028404D01*
X0119746Y0028638D01*
X0119826Y0028870D01*
X0119911Y0029100D01*
X0120002Y0029328D01*
X0120099Y0029553D01*
X0120201Y0029777D01*
X0120309Y0029997D01*
X0120422Y0030215D01*
X0120540Y0030430D01*
X0120664Y0030642D01*
X0120792Y0030851D01*
X0120926Y0031057D01*
X0121065Y0031259D01*
X0121209Y0031458D01*
X0121358Y0031653D01*
X0121511Y0031845D01*
X0121669Y0032033D01*
X0121831Y0032217D01*
X0121999Y0032396D01*
X0122170Y0032572D01*
X0122346Y0032743D01*
X0122525Y0032911D01*
X0122709Y0033073D01*
X0122897Y0033231D01*
X0123089Y0033384D01*
X0123284Y0033533D01*
X0123483Y0033677D01*
X0123685Y0033816D01*
X0123891Y0033950D01*
X0124100Y0034078D01*
X0124312Y0034202D01*
X0124527Y0034320D01*
X0124745Y0034433D01*
X0124965Y0034541D01*
X0125189Y0034643D01*
X0125414Y0034740D01*
X0125642Y0034831D01*
X0125872Y0034916D01*
X0126104Y0034996D01*
X0126338Y0035070D01*
X0126574Y0035139D01*
X0126811Y0035201D01*
X0127050Y0035258D01*
X0127290Y0035309D01*
X0127531Y0035354D01*
X0127774Y0035393D01*
X0128017Y0035426D01*
X0128261Y0035453D01*
X0128505Y0035474D01*
X0128750Y0035489D01*
X0128996Y0035498D01*
X0129241Y0035501D01*
X0129486Y0035498D01*
X0129732Y0035489D01*
X0129977Y0035474D01*
X0130221Y0035453D01*
X0130465Y0035426D01*
X0130708Y0035393D01*
X0130951Y0035354D01*
X0131192Y0035309D01*
X0131432Y0035258D01*
X0131671Y0035201D01*
X0131908Y0035139D01*
X0132144Y0035070D01*
X0132378Y0034996D01*
X0132610Y0034916D01*
X0132840Y0034831D01*
X0133068Y0034740D01*
X0133293Y0034643D01*
X0133517Y0034541D01*
X0133737Y0034433D01*
X0133955Y0034320D01*
X0134170Y0034202D01*
X0134382Y0034078D01*
X0134591Y0033950D01*
X0134797Y0033816D01*
X0134999Y0033677D01*
X0135198Y0033533D01*
X0135393Y0033384D01*
X0135585Y0033231D01*
X0135773Y0033073D01*
X0135957Y0032911D01*
X0136136Y0032743D01*
X0136312Y0032572D01*
X0136483Y0032396D01*
X0136651Y0032217D01*
X0136813Y0032033D01*
X0136971Y0031845D01*
X0137124Y0031653D01*
X0137273Y0031458D01*
X0137417Y0031259D01*
X0137556Y0031057D01*
X0137690Y0030851D01*
X0137818Y0030642D01*
X0137942Y0030430D01*
X0138060Y0030215D01*
X0138173Y0029997D01*
X0138281Y0029777D01*
X0138383Y0029553D01*
X0138480Y0029328D01*
X0138571Y0029100D01*
X0138656Y0028870D01*
X0138736Y0028638D01*
X0138810Y0028404D01*
X0138879Y0028168D01*
X0138941Y0027931D01*
X0138998Y0027692D01*
X0139049Y0027452D01*
X0139094Y0027211D01*
X0139133Y0026968D01*
X0139166Y0026725D01*
X0139193Y0026481D01*
X0139214Y0026237D01*
X0139229Y0025992D01*
X0139238Y0025746D01*
X0139241Y0025501D01*
X0139238Y0025256D01*
X0139229Y0025010D01*
X0139214Y0024765D01*
X0139193Y0024521D01*
X0139166Y0024277D01*
X0139133Y0024034D01*
X0139094Y0023791D01*
X0139049Y0023550D01*
X0138998Y0023310D01*
X0138941Y0023071D01*
X0138879Y0022834D01*
X0138810Y0022598D01*
X0138736Y0022364D01*
X0138656Y0022132D01*
X0138571Y0021902D01*
X0138480Y0021674D01*
X0138383Y0021449D01*
X0138281Y0021225D01*
X0138173Y0021005D01*
X0138060Y0020787D01*
X0137942Y0020572D01*
X0137818Y0020360D01*
X0137690Y0020151D01*
X0137556Y0019945D01*
X0137417Y0019743D01*
X0137273Y0019544D01*
X0137124Y0019349D01*
X0136971Y0019157D01*
X0136813Y0018969D01*
X0136651Y0018785D01*
X0136483Y0018606D01*
X0136312Y0018430D01*
X0136136Y0018259D01*
X0135957Y0018091D01*
X0135773Y0017929D01*
X0135585Y0017771D01*
X0135393Y0017618D01*
X0135198Y0017469D01*
X0134999Y0017325D01*
X0134797Y0017186D01*
X0134591Y0017052D01*
X0134382Y0016924D01*
X0134170Y0016800D01*
X0133955Y0016682D01*
X0133737Y0016569D01*
X0133517Y0016461D01*
X0133293Y0016359D01*
X0133068Y0016262D01*
X0132840Y0016171D01*
X0132610Y0016086D01*
X0132378Y0016006D01*
X0132144Y0015932D01*
X0131908Y0015863D01*
X0131671Y0015801D01*
X0131432Y0015744D01*
X0131192Y0015693D01*
X0130951Y0015648D01*
X0130708Y0015609D01*
X0130465Y0015576D01*
X0130221Y0015549D01*
X0129977Y0015528D01*
X0129732Y0015513D01*
X0129486Y0015504D01*
X0129241Y0015501D01*
X0128996Y0015504D01*
X0128750Y0015513D01*
X0128505Y0015528D01*
X0128261Y0015549D01*
X0128017Y0015576D01*
X0127774Y0015609D01*
X0127531Y0015648D01*
X0127290Y0015693D01*
X0127050Y0015744D01*
X0126811Y0015801D01*
X0126574Y0015863D01*
X0126338Y0015932D01*
X0126104Y0016006D01*
X0125872Y0016086D01*
X0125642Y0016171D01*
X0125414Y0016262D01*
X0125189Y0016359D01*
X0124965Y0016461D01*
X0124745Y0016569D01*
X0124527Y0016682D01*
X0124312Y0016800D01*
X0124100Y0016924D01*
X0123891Y0017052D01*
X0123685Y0017186D01*
X0123483Y0017325D01*
X0123284Y0017469D01*
X0123089Y0017618D01*
X0122897Y0017771D01*
X0122709Y0017929D01*
X0122525Y0018091D01*
X0122346Y0018259D01*
X0122170Y0018430D01*
X0121999Y0018606D01*
X0121831Y0018785D01*
X0121669Y0018969D01*
X0121511Y0019157D01*
X0121358Y0019349D01*
X0121209Y0019544D01*
X0121065Y0019743D01*
X0120926Y0019945D01*
X0120792Y0020151D01*
X0120664Y0020360D01*
X0120540Y0020572D01*
X0120422Y0020787D01*
X0120309Y0021005D01*
X0120201Y0021225D01*
X0120099Y0021449D01*
X0120002Y0021674D01*
X0119911Y0021902D01*
X0119826Y0022132D01*
X0119746Y0022364D01*
X0119672Y0022598D01*
X0119603Y0022834D01*
X0119541Y0023071D01*
X0119484Y0023310D01*
X0119433Y0023550D01*
X0119388Y0023791D01*
X0119349Y0024034D01*
X0119316Y0024277D01*
X0119289Y0024521D01*
X0119268Y0024765D01*
X0119253Y0025010D01*
X0119244Y0025256D01*
X0119241Y0025501D01*
X0147194Y0025501D02*
X0147197Y0025746D01*
X0147206Y0025992D01*
X0147221Y0026237D01*
X0147242Y0026481D01*
X0147269Y0026725D01*
X0147302Y0026968D01*
X0147341Y0027211D01*
X0147386Y0027452D01*
X0147437Y0027692D01*
X0147494Y0027931D01*
X0147556Y0028168D01*
X0147625Y0028404D01*
X0147699Y0028638D01*
X0147779Y0028870D01*
X0147864Y0029100D01*
X0147955Y0029328D01*
X0148052Y0029553D01*
X0148154Y0029777D01*
X0148262Y0029997D01*
X0148375Y0030215D01*
X0148493Y0030430D01*
X0148617Y0030642D01*
X0148745Y0030851D01*
X0148879Y0031057D01*
X0149018Y0031259D01*
X0149162Y0031458D01*
X0149311Y0031653D01*
X0149464Y0031845D01*
X0149622Y0032033D01*
X0149784Y0032217D01*
X0149952Y0032396D01*
X0150123Y0032572D01*
X0150299Y0032743D01*
X0150478Y0032911D01*
X0150662Y0033073D01*
X0150850Y0033231D01*
X0151042Y0033384D01*
X0151237Y0033533D01*
X0151436Y0033677D01*
X0151638Y0033816D01*
X0151844Y0033950D01*
X0152053Y0034078D01*
X0152265Y0034202D01*
X0152480Y0034320D01*
X0152698Y0034433D01*
X0152918Y0034541D01*
X0153142Y0034643D01*
X0153367Y0034740D01*
X0153595Y0034831D01*
X0153825Y0034916D01*
X0154057Y0034996D01*
X0154291Y0035070D01*
X0154527Y0035139D01*
X0154764Y0035201D01*
X0155003Y0035258D01*
X0155243Y0035309D01*
X0155484Y0035354D01*
X0155727Y0035393D01*
X0155970Y0035426D01*
X0156214Y0035453D01*
X0156458Y0035474D01*
X0156703Y0035489D01*
X0156949Y0035498D01*
X0157194Y0035501D01*
X0157439Y0035498D01*
X0157685Y0035489D01*
X0157930Y0035474D01*
X0158174Y0035453D01*
X0158418Y0035426D01*
X0158661Y0035393D01*
X0158904Y0035354D01*
X0159145Y0035309D01*
X0159385Y0035258D01*
X0159624Y0035201D01*
X0159861Y0035139D01*
X0160097Y0035070D01*
X0160331Y0034996D01*
X0160563Y0034916D01*
X0160793Y0034831D01*
X0161021Y0034740D01*
X0161246Y0034643D01*
X0161470Y0034541D01*
X0161690Y0034433D01*
X0161908Y0034320D01*
X0162123Y0034202D01*
X0162335Y0034078D01*
X0162544Y0033950D01*
X0162750Y0033816D01*
X0162952Y0033677D01*
X0163151Y0033533D01*
X0163346Y0033384D01*
X0163538Y0033231D01*
X0163726Y0033073D01*
X0163910Y0032911D01*
X0164089Y0032743D01*
X0164265Y0032572D01*
X0164436Y0032396D01*
X0164604Y0032217D01*
X0164766Y0032033D01*
X0164924Y0031845D01*
X0165077Y0031653D01*
X0165226Y0031458D01*
X0165370Y0031259D01*
X0165509Y0031057D01*
X0165643Y0030851D01*
X0165771Y0030642D01*
X0165895Y0030430D01*
X0166013Y0030215D01*
X0166126Y0029997D01*
X0166234Y0029777D01*
X0166336Y0029553D01*
X0166433Y0029328D01*
X0166524Y0029100D01*
X0166609Y0028870D01*
X0166689Y0028638D01*
X0166763Y0028404D01*
X0166832Y0028168D01*
X0166894Y0027931D01*
X0166951Y0027692D01*
X0167002Y0027452D01*
X0167047Y0027211D01*
X0167086Y0026968D01*
X0167119Y0026725D01*
X0167146Y0026481D01*
X0167167Y0026237D01*
X0167182Y0025992D01*
X0167191Y0025746D01*
X0167194Y0025501D01*
X0167191Y0025256D01*
X0167182Y0025010D01*
X0167167Y0024765D01*
X0167146Y0024521D01*
X0167119Y0024277D01*
X0167086Y0024034D01*
X0167047Y0023791D01*
X0167002Y0023550D01*
X0166951Y0023310D01*
X0166894Y0023071D01*
X0166832Y0022834D01*
X0166763Y0022598D01*
X0166689Y0022364D01*
X0166609Y0022132D01*
X0166524Y0021902D01*
X0166433Y0021674D01*
X0166336Y0021449D01*
X0166234Y0021225D01*
X0166126Y0021005D01*
X0166013Y0020787D01*
X0165895Y0020572D01*
X0165771Y0020360D01*
X0165643Y0020151D01*
X0165509Y0019945D01*
X0165370Y0019743D01*
X0165226Y0019544D01*
X0165077Y0019349D01*
X0164924Y0019157D01*
X0164766Y0018969D01*
X0164604Y0018785D01*
X0164436Y0018606D01*
X0164265Y0018430D01*
X0164089Y0018259D01*
X0163910Y0018091D01*
X0163726Y0017929D01*
X0163538Y0017771D01*
X0163346Y0017618D01*
X0163151Y0017469D01*
X0162952Y0017325D01*
X0162750Y0017186D01*
X0162544Y0017052D01*
X0162335Y0016924D01*
X0162123Y0016800D01*
X0161908Y0016682D01*
X0161690Y0016569D01*
X0161470Y0016461D01*
X0161246Y0016359D01*
X0161021Y0016262D01*
X0160793Y0016171D01*
X0160563Y0016086D01*
X0160331Y0016006D01*
X0160097Y0015932D01*
X0159861Y0015863D01*
X0159624Y0015801D01*
X0159385Y0015744D01*
X0159145Y0015693D01*
X0158904Y0015648D01*
X0158661Y0015609D01*
X0158418Y0015576D01*
X0158174Y0015549D01*
X0157930Y0015528D01*
X0157685Y0015513D01*
X0157439Y0015504D01*
X0157194Y0015501D01*
X0156949Y0015504D01*
X0156703Y0015513D01*
X0156458Y0015528D01*
X0156214Y0015549D01*
X0155970Y0015576D01*
X0155727Y0015609D01*
X0155484Y0015648D01*
X0155243Y0015693D01*
X0155003Y0015744D01*
X0154764Y0015801D01*
X0154527Y0015863D01*
X0154291Y0015932D01*
X0154057Y0016006D01*
X0153825Y0016086D01*
X0153595Y0016171D01*
X0153367Y0016262D01*
X0153142Y0016359D01*
X0152918Y0016461D01*
X0152698Y0016569D01*
X0152480Y0016682D01*
X0152265Y0016800D01*
X0152053Y0016924D01*
X0151844Y0017052D01*
X0151638Y0017186D01*
X0151436Y0017325D01*
X0151237Y0017469D01*
X0151042Y0017618D01*
X0150850Y0017771D01*
X0150662Y0017929D01*
X0150478Y0018091D01*
X0150299Y0018259D01*
X0150123Y0018430D01*
X0149952Y0018606D01*
X0149784Y0018785D01*
X0149622Y0018969D01*
X0149464Y0019157D01*
X0149311Y0019349D01*
X0149162Y0019544D01*
X0149018Y0019743D01*
X0148879Y0019945D01*
X0148745Y0020151D01*
X0148617Y0020360D01*
X0148493Y0020572D01*
X0148375Y0020787D01*
X0148262Y0021005D01*
X0148154Y0021225D01*
X0148052Y0021449D01*
X0147955Y0021674D01*
X0147864Y0021902D01*
X0147779Y0022132D01*
X0147699Y0022364D01*
X0147625Y0022598D01*
X0147556Y0022834D01*
X0147494Y0023071D01*
X0147437Y0023310D01*
X0147386Y0023550D01*
X0147341Y0023791D01*
X0147302Y0024034D01*
X0147269Y0024277D01*
X0147242Y0024521D01*
X0147221Y0024765D01*
X0147206Y0025010D01*
X0147197Y0025256D01*
X0147194Y0025501D01*
X0207469Y0062548D02*
X0207469Y0072548D01*
X0207471Y0072608D01*
X0207476Y0072669D01*
X0207485Y0072728D01*
X0207498Y0072787D01*
X0207514Y0072846D01*
X0207534Y0072903D01*
X0207557Y0072958D01*
X0207584Y0073013D01*
X0207613Y0073065D01*
X0207646Y0073116D01*
X0207682Y0073165D01*
X0207720Y0073211D01*
X0207762Y0073255D01*
X0207806Y0073297D01*
X0207852Y0073335D01*
X0207901Y0073371D01*
X0207952Y0073404D01*
X0208004Y0073433D01*
X0208059Y0073460D01*
X0208114Y0073483D01*
X0208171Y0073503D01*
X0208230Y0073519D01*
X0208289Y0073532D01*
X0208348Y0073541D01*
X0208409Y0073546D01*
X0208469Y0073548D01*
X0246469Y0073548D01*
X0246529Y0073546D01*
X0246590Y0073541D01*
X0246649Y0073532D01*
X0246708Y0073519D01*
X0246767Y0073503D01*
X0246824Y0073483D01*
X0246879Y0073460D01*
X0246934Y0073433D01*
X0246986Y0073404D01*
X0247037Y0073371D01*
X0247086Y0073335D01*
X0247132Y0073297D01*
X0247176Y0073255D01*
X0247218Y0073211D01*
X0247256Y0073165D01*
X0247292Y0073116D01*
X0247325Y0073065D01*
X0247354Y0073013D01*
X0247381Y0072958D01*
X0247404Y0072903D01*
X0247424Y0072846D01*
X0247440Y0072787D01*
X0247453Y0072728D01*
X0247462Y0072669D01*
X0247467Y0072608D01*
X0247469Y0072548D01*
X0247469Y0062548D01*
X0247467Y0062488D01*
X0247462Y0062427D01*
X0247453Y0062368D01*
X0247440Y0062309D01*
X0247424Y0062250D01*
X0247404Y0062193D01*
X0247381Y0062138D01*
X0247354Y0062083D01*
X0247325Y0062031D01*
X0247292Y0061980D01*
X0247256Y0061931D01*
X0247218Y0061885D01*
X0247176Y0061841D01*
X0247132Y0061799D01*
X0247086Y0061761D01*
X0247037Y0061725D01*
X0246986Y0061692D01*
X0246934Y0061663D01*
X0246879Y0061636D01*
X0246824Y0061613D01*
X0246767Y0061593D01*
X0246708Y0061577D01*
X0246649Y0061564D01*
X0246590Y0061555D01*
X0246529Y0061550D01*
X0246469Y0061548D01*
X0208469Y0061548D01*
X0208409Y0061550D01*
X0208348Y0061555D01*
X0208289Y0061564D01*
X0208230Y0061577D01*
X0208171Y0061593D01*
X0208114Y0061613D01*
X0208059Y0061636D01*
X0208004Y0061663D01*
X0207952Y0061692D01*
X0207901Y0061725D01*
X0207852Y0061761D01*
X0207806Y0061799D01*
X0207762Y0061841D01*
X0207720Y0061885D01*
X0207682Y0061931D01*
X0207646Y0061980D01*
X0207613Y0062031D01*
X0207584Y0062083D01*
X0207557Y0062138D01*
X0207534Y0062193D01*
X0207514Y0062250D01*
X0207498Y0062309D01*
X0207485Y0062368D01*
X0207476Y0062427D01*
X0207471Y0062488D01*
X0207469Y0062548D01*
X0217469Y0067548D02*
X0225469Y0067548D01*
X0229469Y0067548D02*
X0237469Y0067548D01*
D14*
X0229469Y0067548D02*
X0229469Y0071048D01*
X0225469Y0071048D02*
X0225469Y0067548D01*
X0225469Y0064048D01*
X0229469Y0064048D02*
X0229469Y0067548D01*
X0143682Y0068099D02*
X0143682Y0064599D01*
X0139682Y0064599D02*
X0139682Y0068099D01*
X0139682Y0071599D01*
X0143682Y0071599D02*
X0143682Y0068099D01*
X0064036Y0067548D02*
X0064036Y0064048D01*
X0064036Y0067548D02*
X0064036Y0071048D01*
X0060036Y0071048D02*
X0060036Y0067548D01*
X0060036Y0064048D01*
D15*
X0066229Y0015501D02*
X0081229Y0015501D01*
X0093788Y0015501D02*
X0108788Y0015501D01*
X0121741Y0015501D02*
X0136741Y0015501D01*
X0149694Y0015501D02*
X0164694Y0015501D01*
X0053670Y0015501D02*
X0038670Y0015501D01*
X0043552Y0148335D02*
X0048552Y0148335D01*
X0078552Y0148335D02*
X0083552Y0148335D01*
X0121702Y0148335D02*
X0126702Y0148335D01*
X0158276Y0148335D02*
X0163276Y0148335D01*
X0205757Y0148335D02*
X0210757Y0148335D01*
X0294536Y0157548D02*
X0299536Y0157548D01*
X0210757Y0228335D02*
X0205757Y0228335D01*
X0163276Y0228335D02*
X0158276Y0228335D01*
X0126702Y0228335D02*
X0121702Y0228335D01*
X0083552Y0228335D02*
X0078552Y0228335D01*
X0048552Y0228335D02*
X0043552Y0228335D01*
X0294536Y0237548D02*
X0299536Y0237548D01*
D16*
X0340040Y0134123D02*
X0341040Y0134123D01*
X0341158Y0125737D02*
X0340158Y0125737D01*
X0340198Y0117312D02*
X0341198Y0117312D01*
X0341119Y0108611D02*
X0340119Y0108611D01*
X0339883Y0099989D02*
X0340883Y0099989D01*
X0116670Y0050619D02*
X0115670Y0050619D01*
X0099347Y0050816D02*
X0098347Y0050816D01*
X0082024Y0050619D02*
X0081024Y0050619D01*
X0064308Y0050422D02*
X0063308Y0050422D01*
X0047379Y0050619D02*
X0046379Y0050619D01*
D17*
X0067232Y0111436D02*
X0071069Y0111436D01*
X0071836Y0112204D01*
X0071836Y0113738D01*
X0071069Y0114506D01*
X0067232Y0114506D01*
X0068000Y0116040D02*
X0067232Y0116807D01*
X0067232Y0118342D01*
X0068000Y0119109D01*
X0069534Y0118342D02*
X0069534Y0116807D01*
X0068767Y0116040D01*
X0068000Y0116040D01*
X0066465Y0117575D02*
X0072604Y0117575D01*
X0071836Y0118342D02*
X0071069Y0119109D01*
X0070302Y0119109D01*
X0069534Y0118342D01*
X0071836Y0118342D02*
X0071836Y0116807D01*
X0071069Y0116040D01*
X0071836Y0120644D02*
X0071836Y0123713D01*
X0071836Y0122179D02*
X0067232Y0122179D01*
X0068767Y0120644D01*
X0146465Y0117575D02*
X0152604Y0117575D01*
X0151836Y0118342D02*
X0151069Y0119109D01*
X0150302Y0119109D01*
X0149534Y0118342D01*
X0149534Y0116807D01*
X0148767Y0116040D01*
X0148000Y0116040D01*
X0147232Y0116807D01*
X0147232Y0118342D01*
X0148000Y0119109D01*
X0148000Y0120644D02*
X0147232Y0121411D01*
X0147232Y0122946D01*
X0148000Y0123713D01*
X0148767Y0123713D01*
X0149534Y0122946D01*
X0150302Y0123713D01*
X0151069Y0123713D01*
X0151836Y0122946D01*
X0151836Y0121411D01*
X0151069Y0120644D01*
X0149534Y0122179D02*
X0149534Y0122946D01*
X0151836Y0118342D02*
X0151836Y0116807D01*
X0151069Y0116040D01*
X0151069Y0114506D02*
X0147232Y0114506D01*
X0147232Y0111436D02*
X0151069Y0111436D01*
X0151836Y0112204D01*
X0151836Y0113738D01*
X0151069Y0114506D01*
X0231465Y0117575D02*
X0237604Y0117575D01*
X0236836Y0118342D02*
X0236836Y0116807D01*
X0236069Y0116040D01*
X0236069Y0114506D02*
X0232232Y0114506D01*
X0233000Y0116040D02*
X0232232Y0116807D01*
X0232232Y0118342D01*
X0233000Y0119109D01*
X0234534Y0118342D02*
X0234534Y0116807D01*
X0233767Y0116040D01*
X0233000Y0116040D01*
X0234534Y0118342D02*
X0235302Y0119109D01*
X0236069Y0119109D01*
X0236836Y0118342D01*
X0236069Y0120644D02*
X0236836Y0121411D01*
X0236836Y0122946D01*
X0236069Y0123713D01*
X0234534Y0123713D01*
X0233767Y0122946D01*
X0233767Y0122179D01*
X0234534Y0120644D01*
X0232232Y0120644D01*
X0232232Y0123713D01*
X0236069Y0114506D02*
X0236836Y0113738D01*
X0236836Y0112204D01*
X0236069Y0111436D01*
X0232232Y0111436D01*
D18*
X0164694Y0015501D02*
X0164937Y0015688D01*
X0165175Y0015880D01*
X0165408Y0016079D01*
X0165636Y0016283D01*
X0165859Y0016492D01*
X0166077Y0016707D01*
X0166290Y0016927D01*
X0166497Y0017152D01*
X0166699Y0017383D01*
X0166895Y0017618D01*
X0167085Y0017858D01*
X0167269Y0018102D01*
X0167447Y0018351D01*
X0167619Y0018605D01*
X0167785Y0018862D01*
X0167945Y0019123D01*
X0168098Y0019388D01*
X0168244Y0019657D01*
X0168384Y0019930D01*
X0168517Y0020205D01*
X0168643Y0020484D01*
X0168763Y0020766D01*
X0168875Y0021051D01*
X0168980Y0021338D01*
X0169079Y0021628D01*
X0169170Y0021920D01*
X0169254Y0022215D01*
X0169331Y0022511D01*
X0169401Y0022809D01*
X0169463Y0023109D01*
X0169518Y0023410D01*
X0169565Y0023712D01*
X0169605Y0024016D01*
X0169638Y0024320D01*
X0169663Y0024625D01*
X0169681Y0024931D01*
X0169691Y0025237D01*
X0169694Y0025543D01*
X0169689Y0025849D01*
X0169677Y0026155D01*
X0169657Y0026461D01*
X0169630Y0026765D01*
X0169595Y0027070D01*
X0169553Y0027373D01*
X0169504Y0027675D01*
X0169447Y0027976D01*
X0169382Y0028275D01*
X0169311Y0028573D01*
X0169232Y0028868D01*
X0169146Y0029162D01*
X0169053Y0029454D01*
X0168952Y0029743D01*
X0168845Y0030030D01*
X0168730Y0030314D01*
X0168609Y0030595D01*
X0168481Y0030873D01*
X0168346Y0031148D01*
X0168204Y0031419D01*
X0168056Y0031687D01*
X0167901Y0031951D01*
X0167740Y0032211D01*
X0167573Y0032467D01*
X0167399Y0032720D01*
X0167219Y0032967D01*
X0167033Y0033211D01*
X0166842Y0033449D01*
X0166644Y0033683D01*
X0166441Y0033912D01*
X0166232Y0034136D01*
X0166018Y0034355D01*
X0165798Y0034568D01*
X0165574Y0034776D01*
X0165344Y0034979D01*
X0165110Y0035175D01*
X0164870Y0035366D01*
X0164627Y0035551D01*
X0164378Y0035730D01*
X0164126Y0035903D01*
X0163869Y0036070D01*
X0163608Y0036230D01*
X0163343Y0036384D01*
X0163075Y0036531D01*
X0162803Y0036672D01*
X0162528Y0036806D01*
X0162249Y0036933D01*
X0161968Y0037054D01*
X0161683Y0037167D01*
X0161396Y0037273D01*
X0161107Y0037373D01*
X0160815Y0037465D01*
X0160521Y0037550D01*
X0160225Y0037628D01*
X0159927Y0037699D01*
X0159627Y0037762D01*
X0159326Y0037818D01*
X0159024Y0037866D01*
X0158721Y0037907D01*
X0158417Y0037941D01*
X0158112Y0037967D01*
X0157806Y0037986D01*
X0157500Y0037997D01*
X0157194Y0038001D01*
X0156888Y0037997D01*
X0156582Y0037986D01*
X0156276Y0037967D01*
X0155971Y0037941D01*
X0155667Y0037907D01*
X0155364Y0037866D01*
X0155062Y0037818D01*
X0154761Y0037762D01*
X0154461Y0037699D01*
X0154163Y0037628D01*
X0153867Y0037550D01*
X0153573Y0037465D01*
X0153281Y0037373D01*
X0152992Y0037273D01*
X0152705Y0037167D01*
X0152420Y0037054D01*
X0152139Y0036933D01*
X0151860Y0036806D01*
X0151585Y0036672D01*
X0151313Y0036531D01*
X0151045Y0036384D01*
X0150780Y0036230D01*
X0150519Y0036070D01*
X0150262Y0035903D01*
X0150010Y0035730D01*
X0149761Y0035551D01*
X0149518Y0035366D01*
X0149278Y0035175D01*
X0149044Y0034979D01*
X0148814Y0034776D01*
X0148590Y0034568D01*
X0148370Y0034355D01*
X0148156Y0034136D01*
X0147947Y0033912D01*
X0147744Y0033683D01*
X0147546Y0033449D01*
X0147355Y0033211D01*
X0147169Y0032967D01*
X0146989Y0032720D01*
X0146815Y0032467D01*
X0146648Y0032211D01*
X0146487Y0031951D01*
X0146332Y0031687D01*
X0146184Y0031419D01*
X0146042Y0031148D01*
X0145907Y0030873D01*
X0145779Y0030595D01*
X0145658Y0030314D01*
X0145543Y0030030D01*
X0145436Y0029743D01*
X0145335Y0029454D01*
X0145242Y0029162D01*
X0145156Y0028868D01*
X0145077Y0028573D01*
X0145006Y0028275D01*
X0144941Y0027976D01*
X0144884Y0027675D01*
X0144835Y0027373D01*
X0144793Y0027070D01*
X0144758Y0026765D01*
X0144731Y0026461D01*
X0144711Y0026155D01*
X0144699Y0025849D01*
X0144694Y0025543D01*
X0144697Y0025237D01*
X0144707Y0024931D01*
X0144725Y0024625D01*
X0144750Y0024320D01*
X0144783Y0024016D01*
X0144823Y0023712D01*
X0144870Y0023410D01*
X0144925Y0023109D01*
X0144987Y0022809D01*
X0145057Y0022511D01*
X0145134Y0022215D01*
X0145218Y0021920D01*
X0145309Y0021628D01*
X0145408Y0021338D01*
X0145513Y0021051D01*
X0145625Y0020766D01*
X0145745Y0020484D01*
X0145871Y0020205D01*
X0146004Y0019930D01*
X0146144Y0019657D01*
X0146290Y0019388D01*
X0146443Y0019123D01*
X0146603Y0018862D01*
X0146769Y0018605D01*
X0146941Y0018351D01*
X0147119Y0018102D01*
X0147303Y0017858D01*
X0147493Y0017618D01*
X0147689Y0017383D01*
X0147891Y0017152D01*
X0148098Y0016927D01*
X0148311Y0016707D01*
X0148529Y0016492D01*
X0148752Y0016283D01*
X0148980Y0016079D01*
X0149213Y0015880D01*
X0149451Y0015688D01*
X0149694Y0015501D01*
X0136741Y0015501D02*
X0136984Y0015688D01*
X0137222Y0015880D01*
X0137455Y0016079D01*
X0137683Y0016283D01*
X0137906Y0016492D01*
X0138124Y0016707D01*
X0138337Y0016927D01*
X0138544Y0017152D01*
X0138746Y0017383D01*
X0138942Y0017618D01*
X0139132Y0017858D01*
X0139316Y0018102D01*
X0139494Y0018351D01*
X0139666Y0018605D01*
X0139832Y0018862D01*
X0139992Y0019123D01*
X0140145Y0019388D01*
X0140291Y0019657D01*
X0140431Y0019930D01*
X0140564Y0020205D01*
X0140690Y0020484D01*
X0140810Y0020766D01*
X0140922Y0021051D01*
X0141027Y0021338D01*
X0141126Y0021628D01*
X0141217Y0021920D01*
X0141301Y0022215D01*
X0141378Y0022511D01*
X0141448Y0022809D01*
X0141510Y0023109D01*
X0141565Y0023410D01*
X0141612Y0023712D01*
X0141652Y0024016D01*
X0141685Y0024320D01*
X0141710Y0024625D01*
X0141728Y0024931D01*
X0141738Y0025237D01*
X0141741Y0025543D01*
X0141736Y0025849D01*
X0141724Y0026155D01*
X0141704Y0026461D01*
X0141677Y0026765D01*
X0141642Y0027070D01*
X0141600Y0027373D01*
X0141551Y0027675D01*
X0141494Y0027976D01*
X0141429Y0028275D01*
X0141358Y0028573D01*
X0141279Y0028868D01*
X0141193Y0029162D01*
X0141100Y0029454D01*
X0140999Y0029743D01*
X0140892Y0030030D01*
X0140777Y0030314D01*
X0140656Y0030595D01*
X0140528Y0030873D01*
X0140393Y0031148D01*
X0140251Y0031419D01*
X0140103Y0031687D01*
X0139948Y0031951D01*
X0139787Y0032211D01*
X0139620Y0032467D01*
X0139446Y0032720D01*
X0139266Y0032967D01*
X0139080Y0033211D01*
X0138889Y0033449D01*
X0138691Y0033683D01*
X0138488Y0033912D01*
X0138279Y0034136D01*
X0138065Y0034355D01*
X0137845Y0034568D01*
X0137621Y0034776D01*
X0137391Y0034979D01*
X0137157Y0035175D01*
X0136917Y0035366D01*
X0136674Y0035551D01*
X0136425Y0035730D01*
X0136173Y0035903D01*
X0135916Y0036070D01*
X0135655Y0036230D01*
X0135390Y0036384D01*
X0135122Y0036531D01*
X0134850Y0036672D01*
X0134575Y0036806D01*
X0134296Y0036933D01*
X0134015Y0037054D01*
X0133730Y0037167D01*
X0133443Y0037273D01*
X0133154Y0037373D01*
X0132862Y0037465D01*
X0132568Y0037550D01*
X0132272Y0037628D01*
X0131974Y0037699D01*
X0131674Y0037762D01*
X0131373Y0037818D01*
X0131071Y0037866D01*
X0130768Y0037907D01*
X0130464Y0037941D01*
X0130159Y0037967D01*
X0129853Y0037986D01*
X0129547Y0037997D01*
X0129241Y0038001D01*
X0128935Y0037997D01*
X0128629Y0037986D01*
X0128323Y0037967D01*
X0128018Y0037941D01*
X0127714Y0037907D01*
X0127411Y0037866D01*
X0127109Y0037818D01*
X0126808Y0037762D01*
X0126508Y0037699D01*
X0126210Y0037628D01*
X0125914Y0037550D01*
X0125620Y0037465D01*
X0125328Y0037373D01*
X0125039Y0037273D01*
X0124752Y0037167D01*
X0124467Y0037054D01*
X0124186Y0036933D01*
X0123907Y0036806D01*
X0123632Y0036672D01*
X0123360Y0036531D01*
X0123092Y0036384D01*
X0122827Y0036230D01*
X0122566Y0036070D01*
X0122309Y0035903D01*
X0122057Y0035730D01*
X0121808Y0035551D01*
X0121565Y0035366D01*
X0121325Y0035175D01*
X0121091Y0034979D01*
X0120861Y0034776D01*
X0120637Y0034568D01*
X0120417Y0034355D01*
X0120203Y0034136D01*
X0119994Y0033912D01*
X0119791Y0033683D01*
X0119593Y0033449D01*
X0119402Y0033211D01*
X0119216Y0032967D01*
X0119036Y0032720D01*
X0118862Y0032467D01*
X0118695Y0032211D01*
X0118534Y0031951D01*
X0118379Y0031687D01*
X0118231Y0031419D01*
X0118089Y0031148D01*
X0117954Y0030873D01*
X0117826Y0030595D01*
X0117705Y0030314D01*
X0117590Y0030030D01*
X0117483Y0029743D01*
X0117382Y0029454D01*
X0117289Y0029162D01*
X0117203Y0028868D01*
X0117124Y0028573D01*
X0117053Y0028275D01*
X0116988Y0027976D01*
X0116931Y0027675D01*
X0116882Y0027373D01*
X0116840Y0027070D01*
X0116805Y0026765D01*
X0116778Y0026461D01*
X0116758Y0026155D01*
X0116746Y0025849D01*
X0116741Y0025543D01*
X0116744Y0025237D01*
X0116754Y0024931D01*
X0116772Y0024625D01*
X0116797Y0024320D01*
X0116830Y0024016D01*
X0116870Y0023712D01*
X0116917Y0023410D01*
X0116972Y0023109D01*
X0117034Y0022809D01*
X0117104Y0022511D01*
X0117181Y0022215D01*
X0117265Y0021920D01*
X0117356Y0021628D01*
X0117455Y0021338D01*
X0117560Y0021051D01*
X0117672Y0020766D01*
X0117792Y0020484D01*
X0117918Y0020205D01*
X0118051Y0019930D01*
X0118191Y0019657D01*
X0118337Y0019388D01*
X0118490Y0019123D01*
X0118650Y0018862D01*
X0118816Y0018605D01*
X0118988Y0018351D01*
X0119166Y0018102D01*
X0119350Y0017858D01*
X0119540Y0017618D01*
X0119736Y0017383D01*
X0119938Y0017152D01*
X0120145Y0016927D01*
X0120358Y0016707D01*
X0120576Y0016492D01*
X0120799Y0016283D01*
X0121027Y0016079D01*
X0121260Y0015880D01*
X0121498Y0015688D01*
X0121741Y0015501D01*
X0108788Y0015501D02*
X0109031Y0015688D01*
X0109269Y0015880D01*
X0109502Y0016079D01*
X0109730Y0016283D01*
X0109953Y0016492D01*
X0110171Y0016707D01*
X0110384Y0016927D01*
X0110591Y0017152D01*
X0110793Y0017383D01*
X0110989Y0017618D01*
X0111179Y0017858D01*
X0111363Y0018102D01*
X0111541Y0018351D01*
X0111713Y0018605D01*
X0111879Y0018862D01*
X0112039Y0019123D01*
X0112192Y0019388D01*
X0112338Y0019657D01*
X0112478Y0019930D01*
X0112611Y0020205D01*
X0112737Y0020484D01*
X0112857Y0020766D01*
X0112969Y0021051D01*
X0113074Y0021338D01*
X0113173Y0021628D01*
X0113264Y0021920D01*
X0113348Y0022215D01*
X0113425Y0022511D01*
X0113495Y0022809D01*
X0113557Y0023109D01*
X0113612Y0023410D01*
X0113659Y0023712D01*
X0113699Y0024016D01*
X0113732Y0024320D01*
X0113757Y0024625D01*
X0113775Y0024931D01*
X0113785Y0025237D01*
X0113788Y0025543D01*
X0113783Y0025849D01*
X0113771Y0026155D01*
X0113751Y0026461D01*
X0113724Y0026765D01*
X0113689Y0027070D01*
X0113647Y0027373D01*
X0113598Y0027675D01*
X0113541Y0027976D01*
X0113476Y0028275D01*
X0113405Y0028573D01*
X0113326Y0028868D01*
X0113240Y0029162D01*
X0113147Y0029454D01*
X0113046Y0029743D01*
X0112939Y0030030D01*
X0112824Y0030314D01*
X0112703Y0030595D01*
X0112575Y0030873D01*
X0112440Y0031148D01*
X0112298Y0031419D01*
X0112150Y0031687D01*
X0111995Y0031951D01*
X0111834Y0032211D01*
X0111667Y0032467D01*
X0111493Y0032720D01*
X0111313Y0032967D01*
X0111127Y0033211D01*
X0110936Y0033449D01*
X0110738Y0033683D01*
X0110535Y0033912D01*
X0110326Y0034136D01*
X0110112Y0034355D01*
X0109892Y0034568D01*
X0109668Y0034776D01*
X0109438Y0034979D01*
X0109204Y0035175D01*
X0108964Y0035366D01*
X0108721Y0035551D01*
X0108472Y0035730D01*
X0108220Y0035903D01*
X0107963Y0036070D01*
X0107702Y0036230D01*
X0107437Y0036384D01*
X0107169Y0036531D01*
X0106897Y0036672D01*
X0106622Y0036806D01*
X0106343Y0036933D01*
X0106062Y0037054D01*
X0105777Y0037167D01*
X0105490Y0037273D01*
X0105201Y0037373D01*
X0104909Y0037465D01*
X0104615Y0037550D01*
X0104319Y0037628D01*
X0104021Y0037699D01*
X0103721Y0037762D01*
X0103420Y0037818D01*
X0103118Y0037866D01*
X0102815Y0037907D01*
X0102511Y0037941D01*
X0102206Y0037967D01*
X0101900Y0037986D01*
X0101594Y0037997D01*
X0101288Y0038001D01*
X0100982Y0037997D01*
X0100676Y0037986D01*
X0100370Y0037967D01*
X0100065Y0037941D01*
X0099761Y0037907D01*
X0099458Y0037866D01*
X0099156Y0037818D01*
X0098855Y0037762D01*
X0098555Y0037699D01*
X0098257Y0037628D01*
X0097961Y0037550D01*
X0097667Y0037465D01*
X0097375Y0037373D01*
X0097086Y0037273D01*
X0096799Y0037167D01*
X0096514Y0037054D01*
X0096233Y0036933D01*
X0095954Y0036806D01*
X0095679Y0036672D01*
X0095407Y0036531D01*
X0095139Y0036384D01*
X0094874Y0036230D01*
X0094613Y0036070D01*
X0094356Y0035903D01*
X0094104Y0035730D01*
X0093855Y0035551D01*
X0093612Y0035366D01*
X0093372Y0035175D01*
X0093138Y0034979D01*
X0092908Y0034776D01*
X0092684Y0034568D01*
X0092464Y0034355D01*
X0092250Y0034136D01*
X0092041Y0033912D01*
X0091838Y0033683D01*
X0091640Y0033449D01*
X0091449Y0033211D01*
X0091263Y0032967D01*
X0091083Y0032720D01*
X0090909Y0032467D01*
X0090742Y0032211D01*
X0090581Y0031951D01*
X0090426Y0031687D01*
X0090278Y0031419D01*
X0090136Y0031148D01*
X0090001Y0030873D01*
X0089873Y0030595D01*
X0089752Y0030314D01*
X0089637Y0030030D01*
X0089530Y0029743D01*
X0089429Y0029454D01*
X0089336Y0029162D01*
X0089250Y0028868D01*
X0089171Y0028573D01*
X0089100Y0028275D01*
X0089035Y0027976D01*
X0088978Y0027675D01*
X0088929Y0027373D01*
X0088887Y0027070D01*
X0088852Y0026765D01*
X0088825Y0026461D01*
X0088805Y0026155D01*
X0088793Y0025849D01*
X0088788Y0025543D01*
X0088791Y0025237D01*
X0088801Y0024931D01*
X0088819Y0024625D01*
X0088844Y0024320D01*
X0088877Y0024016D01*
X0088917Y0023712D01*
X0088964Y0023410D01*
X0089019Y0023109D01*
X0089081Y0022809D01*
X0089151Y0022511D01*
X0089228Y0022215D01*
X0089312Y0021920D01*
X0089403Y0021628D01*
X0089502Y0021338D01*
X0089607Y0021051D01*
X0089719Y0020766D01*
X0089839Y0020484D01*
X0089965Y0020205D01*
X0090098Y0019930D01*
X0090238Y0019657D01*
X0090384Y0019388D01*
X0090537Y0019123D01*
X0090697Y0018862D01*
X0090863Y0018605D01*
X0091035Y0018351D01*
X0091213Y0018102D01*
X0091397Y0017858D01*
X0091587Y0017618D01*
X0091783Y0017383D01*
X0091985Y0017152D01*
X0092192Y0016927D01*
X0092405Y0016707D01*
X0092623Y0016492D01*
X0092846Y0016283D01*
X0093074Y0016079D01*
X0093307Y0015880D01*
X0093545Y0015688D01*
X0093788Y0015501D01*
X0081229Y0015501D02*
X0081472Y0015688D01*
X0081710Y0015880D01*
X0081943Y0016079D01*
X0082171Y0016283D01*
X0082394Y0016492D01*
X0082612Y0016707D01*
X0082825Y0016927D01*
X0083032Y0017152D01*
X0083234Y0017383D01*
X0083430Y0017618D01*
X0083620Y0017858D01*
X0083804Y0018102D01*
X0083982Y0018351D01*
X0084154Y0018605D01*
X0084320Y0018862D01*
X0084480Y0019123D01*
X0084633Y0019388D01*
X0084779Y0019657D01*
X0084919Y0019930D01*
X0085052Y0020205D01*
X0085178Y0020484D01*
X0085298Y0020766D01*
X0085410Y0021051D01*
X0085515Y0021338D01*
X0085614Y0021628D01*
X0085705Y0021920D01*
X0085789Y0022215D01*
X0085866Y0022511D01*
X0085936Y0022809D01*
X0085998Y0023109D01*
X0086053Y0023410D01*
X0086100Y0023712D01*
X0086140Y0024016D01*
X0086173Y0024320D01*
X0086198Y0024625D01*
X0086216Y0024931D01*
X0086226Y0025237D01*
X0086229Y0025543D01*
X0086224Y0025849D01*
X0086212Y0026155D01*
X0086192Y0026461D01*
X0086165Y0026765D01*
X0086130Y0027070D01*
X0086088Y0027373D01*
X0086039Y0027675D01*
X0085982Y0027976D01*
X0085917Y0028275D01*
X0085846Y0028573D01*
X0085767Y0028868D01*
X0085681Y0029162D01*
X0085588Y0029454D01*
X0085487Y0029743D01*
X0085380Y0030030D01*
X0085265Y0030314D01*
X0085144Y0030595D01*
X0085016Y0030873D01*
X0084881Y0031148D01*
X0084739Y0031419D01*
X0084591Y0031687D01*
X0084436Y0031951D01*
X0084275Y0032211D01*
X0084108Y0032467D01*
X0083934Y0032720D01*
X0083754Y0032967D01*
X0083568Y0033211D01*
X0083377Y0033449D01*
X0083179Y0033683D01*
X0082976Y0033912D01*
X0082767Y0034136D01*
X0082553Y0034355D01*
X0082333Y0034568D01*
X0082109Y0034776D01*
X0081879Y0034979D01*
X0081645Y0035175D01*
X0081405Y0035366D01*
X0081162Y0035551D01*
X0080913Y0035730D01*
X0080661Y0035903D01*
X0080404Y0036070D01*
X0080143Y0036230D01*
X0079878Y0036384D01*
X0079610Y0036531D01*
X0079338Y0036672D01*
X0079063Y0036806D01*
X0078784Y0036933D01*
X0078503Y0037054D01*
X0078218Y0037167D01*
X0077931Y0037273D01*
X0077642Y0037373D01*
X0077350Y0037465D01*
X0077056Y0037550D01*
X0076760Y0037628D01*
X0076462Y0037699D01*
X0076162Y0037762D01*
X0075861Y0037818D01*
X0075559Y0037866D01*
X0075256Y0037907D01*
X0074952Y0037941D01*
X0074647Y0037967D01*
X0074341Y0037986D01*
X0074035Y0037997D01*
X0073729Y0038001D01*
X0073423Y0037997D01*
X0073117Y0037986D01*
X0072811Y0037967D01*
X0072506Y0037941D01*
X0072202Y0037907D01*
X0071899Y0037866D01*
X0071597Y0037818D01*
X0071296Y0037762D01*
X0070996Y0037699D01*
X0070698Y0037628D01*
X0070402Y0037550D01*
X0070108Y0037465D01*
X0069816Y0037373D01*
X0069527Y0037273D01*
X0069240Y0037167D01*
X0068955Y0037054D01*
X0068674Y0036933D01*
X0068395Y0036806D01*
X0068120Y0036672D01*
X0067848Y0036531D01*
X0067580Y0036384D01*
X0067315Y0036230D01*
X0067054Y0036070D01*
X0066797Y0035903D01*
X0066545Y0035730D01*
X0066296Y0035551D01*
X0066053Y0035366D01*
X0065813Y0035175D01*
X0065579Y0034979D01*
X0065349Y0034776D01*
X0065125Y0034568D01*
X0064905Y0034355D01*
X0064691Y0034136D01*
X0064482Y0033912D01*
X0064279Y0033683D01*
X0064081Y0033449D01*
X0063890Y0033211D01*
X0063704Y0032967D01*
X0063524Y0032720D01*
X0063350Y0032467D01*
X0063183Y0032211D01*
X0063022Y0031951D01*
X0062867Y0031687D01*
X0062719Y0031419D01*
X0062577Y0031148D01*
X0062442Y0030873D01*
X0062314Y0030595D01*
X0062193Y0030314D01*
X0062078Y0030030D01*
X0061971Y0029743D01*
X0061870Y0029454D01*
X0061777Y0029162D01*
X0061691Y0028868D01*
X0061612Y0028573D01*
X0061541Y0028275D01*
X0061476Y0027976D01*
X0061419Y0027675D01*
X0061370Y0027373D01*
X0061328Y0027070D01*
X0061293Y0026765D01*
X0061266Y0026461D01*
X0061246Y0026155D01*
X0061234Y0025849D01*
X0061229Y0025543D01*
X0061232Y0025237D01*
X0061242Y0024931D01*
X0061260Y0024625D01*
X0061285Y0024320D01*
X0061318Y0024016D01*
X0061358Y0023712D01*
X0061405Y0023410D01*
X0061460Y0023109D01*
X0061522Y0022809D01*
X0061592Y0022511D01*
X0061669Y0022215D01*
X0061753Y0021920D01*
X0061844Y0021628D01*
X0061943Y0021338D01*
X0062048Y0021051D01*
X0062160Y0020766D01*
X0062280Y0020484D01*
X0062406Y0020205D01*
X0062539Y0019930D01*
X0062679Y0019657D01*
X0062825Y0019388D01*
X0062978Y0019123D01*
X0063138Y0018862D01*
X0063304Y0018605D01*
X0063476Y0018351D01*
X0063654Y0018102D01*
X0063838Y0017858D01*
X0064028Y0017618D01*
X0064224Y0017383D01*
X0064426Y0017152D01*
X0064633Y0016927D01*
X0064846Y0016707D01*
X0065064Y0016492D01*
X0065287Y0016283D01*
X0065515Y0016079D01*
X0065748Y0015880D01*
X0065986Y0015688D01*
X0066229Y0015501D01*
X0053670Y0015501D02*
X0053913Y0015688D01*
X0054151Y0015880D01*
X0054384Y0016079D01*
X0054612Y0016283D01*
X0054835Y0016492D01*
X0055053Y0016707D01*
X0055266Y0016927D01*
X0055473Y0017152D01*
X0055675Y0017383D01*
X0055871Y0017618D01*
X0056061Y0017858D01*
X0056245Y0018102D01*
X0056423Y0018351D01*
X0056595Y0018605D01*
X0056761Y0018862D01*
X0056921Y0019123D01*
X0057074Y0019388D01*
X0057220Y0019657D01*
X0057360Y0019930D01*
X0057493Y0020205D01*
X0057619Y0020484D01*
X0057739Y0020766D01*
X0057851Y0021051D01*
X0057956Y0021338D01*
X0058055Y0021628D01*
X0058146Y0021920D01*
X0058230Y0022215D01*
X0058307Y0022511D01*
X0058377Y0022809D01*
X0058439Y0023109D01*
X0058494Y0023410D01*
X0058541Y0023712D01*
X0058581Y0024016D01*
X0058614Y0024320D01*
X0058639Y0024625D01*
X0058657Y0024931D01*
X0058667Y0025237D01*
X0058670Y0025543D01*
X0058665Y0025849D01*
X0058653Y0026155D01*
X0058633Y0026461D01*
X0058606Y0026765D01*
X0058571Y0027070D01*
X0058529Y0027373D01*
X0058480Y0027675D01*
X0058423Y0027976D01*
X0058358Y0028275D01*
X0058287Y0028573D01*
X0058208Y0028868D01*
X0058122Y0029162D01*
X0058029Y0029454D01*
X0057928Y0029743D01*
X0057821Y0030030D01*
X0057706Y0030314D01*
X0057585Y0030595D01*
X0057457Y0030873D01*
X0057322Y0031148D01*
X0057180Y0031419D01*
X0057032Y0031687D01*
X0056877Y0031951D01*
X0056716Y0032211D01*
X0056549Y0032467D01*
X0056375Y0032720D01*
X0056195Y0032967D01*
X0056009Y0033211D01*
X0055818Y0033449D01*
X0055620Y0033683D01*
X0055417Y0033912D01*
X0055208Y0034136D01*
X0054994Y0034355D01*
X0054774Y0034568D01*
X0054550Y0034776D01*
X0054320Y0034979D01*
X0054086Y0035175D01*
X0053846Y0035366D01*
X0053603Y0035551D01*
X0053354Y0035730D01*
X0053102Y0035903D01*
X0052845Y0036070D01*
X0052584Y0036230D01*
X0052319Y0036384D01*
X0052051Y0036531D01*
X0051779Y0036672D01*
X0051504Y0036806D01*
X0051225Y0036933D01*
X0050944Y0037054D01*
X0050659Y0037167D01*
X0050372Y0037273D01*
X0050083Y0037373D01*
X0049791Y0037465D01*
X0049497Y0037550D01*
X0049201Y0037628D01*
X0048903Y0037699D01*
X0048603Y0037762D01*
X0048302Y0037818D01*
X0048000Y0037866D01*
X0047697Y0037907D01*
X0047393Y0037941D01*
X0047088Y0037967D01*
X0046782Y0037986D01*
X0046476Y0037997D01*
X0046170Y0038001D01*
X0045864Y0037997D01*
X0045558Y0037986D01*
X0045252Y0037967D01*
X0044947Y0037941D01*
X0044643Y0037907D01*
X0044340Y0037866D01*
X0044038Y0037818D01*
X0043737Y0037762D01*
X0043437Y0037699D01*
X0043139Y0037628D01*
X0042843Y0037550D01*
X0042549Y0037465D01*
X0042257Y0037373D01*
X0041968Y0037273D01*
X0041681Y0037167D01*
X0041396Y0037054D01*
X0041115Y0036933D01*
X0040836Y0036806D01*
X0040561Y0036672D01*
X0040289Y0036531D01*
X0040021Y0036384D01*
X0039756Y0036230D01*
X0039495Y0036070D01*
X0039238Y0035903D01*
X0038986Y0035730D01*
X0038737Y0035551D01*
X0038494Y0035366D01*
X0038254Y0035175D01*
X0038020Y0034979D01*
X0037790Y0034776D01*
X0037566Y0034568D01*
X0037346Y0034355D01*
X0037132Y0034136D01*
X0036923Y0033912D01*
X0036720Y0033683D01*
X0036522Y0033449D01*
X0036331Y0033211D01*
X0036145Y0032967D01*
X0035965Y0032720D01*
X0035791Y0032467D01*
X0035624Y0032211D01*
X0035463Y0031951D01*
X0035308Y0031687D01*
X0035160Y0031419D01*
X0035018Y0031148D01*
X0034883Y0030873D01*
X0034755Y0030595D01*
X0034634Y0030314D01*
X0034519Y0030030D01*
X0034412Y0029743D01*
X0034311Y0029454D01*
X0034218Y0029162D01*
X0034132Y0028868D01*
X0034053Y0028573D01*
X0033982Y0028275D01*
X0033917Y0027976D01*
X0033860Y0027675D01*
X0033811Y0027373D01*
X0033769Y0027070D01*
X0033734Y0026765D01*
X0033707Y0026461D01*
X0033687Y0026155D01*
X0033675Y0025849D01*
X0033670Y0025543D01*
X0033673Y0025237D01*
X0033683Y0024931D01*
X0033701Y0024625D01*
X0033726Y0024320D01*
X0033759Y0024016D01*
X0033799Y0023712D01*
X0033846Y0023410D01*
X0033901Y0023109D01*
X0033963Y0022809D01*
X0034033Y0022511D01*
X0034110Y0022215D01*
X0034194Y0021920D01*
X0034285Y0021628D01*
X0034384Y0021338D01*
X0034489Y0021051D01*
X0034601Y0020766D01*
X0034721Y0020484D01*
X0034847Y0020205D01*
X0034980Y0019930D01*
X0035120Y0019657D01*
X0035266Y0019388D01*
X0035419Y0019123D01*
X0035579Y0018862D01*
X0035745Y0018605D01*
X0035917Y0018351D01*
X0036095Y0018102D01*
X0036279Y0017858D01*
X0036469Y0017618D01*
X0036665Y0017383D01*
X0036867Y0017152D01*
X0037074Y0016927D01*
X0037287Y0016707D01*
X0037505Y0016492D01*
X0037728Y0016283D01*
X0037956Y0016079D01*
X0038189Y0015880D01*
X0038427Y0015688D01*
X0038670Y0015501D01*
M02*
