G75*
%MOIN*%
%OFA0B0*%
%FSLAX25Y25*%
%IPPOS*%
%LPD*%
%AMOC8*
5,1,8,0,0,1.08239X$1,22.5*
%
%ADD10C,0.00000*%
%ADD11OC8,0.05600*%
%ADD12C,0.07400*%
%ADD13OC8,0.05200*%
%ADD14R,0.08661X0.02362*%
%ADD15C,0.01600*%
%ADD16C,0.04000*%
D10*
X0002233Y0002391D02*
X0002076Y0248335D01*
X0378808Y0248257D01*
X0379083Y0002272D01*
X0002233Y0002391D01*
X0014674Y0012509D02*
X0014676Y0012667D01*
X0014682Y0012825D01*
X0014692Y0012983D01*
X0014706Y0013141D01*
X0014724Y0013298D01*
X0014745Y0013455D01*
X0014771Y0013611D01*
X0014801Y0013767D01*
X0014834Y0013922D01*
X0014872Y0014075D01*
X0014913Y0014228D01*
X0014958Y0014380D01*
X0015007Y0014531D01*
X0015060Y0014680D01*
X0015116Y0014828D01*
X0015176Y0014974D01*
X0015240Y0015119D01*
X0015308Y0015262D01*
X0015379Y0015404D01*
X0015453Y0015544D01*
X0015531Y0015681D01*
X0015613Y0015817D01*
X0015697Y0015951D01*
X0015786Y0016082D01*
X0015877Y0016211D01*
X0015972Y0016338D01*
X0016069Y0016463D01*
X0016170Y0016585D01*
X0016274Y0016704D01*
X0016381Y0016821D01*
X0016491Y0016935D01*
X0016604Y0017046D01*
X0016719Y0017155D01*
X0016837Y0017260D01*
X0016958Y0017362D01*
X0017081Y0017462D01*
X0017207Y0017558D01*
X0017335Y0017651D01*
X0017465Y0017741D01*
X0017598Y0017827D01*
X0017733Y0017911D01*
X0017869Y0017990D01*
X0018008Y0018067D01*
X0018149Y0018139D01*
X0018291Y0018209D01*
X0018435Y0018274D01*
X0018581Y0018336D01*
X0018728Y0018394D01*
X0018877Y0018449D01*
X0019027Y0018500D01*
X0019178Y0018547D01*
X0019330Y0018590D01*
X0019483Y0018629D01*
X0019638Y0018665D01*
X0019793Y0018696D01*
X0019949Y0018724D01*
X0020105Y0018748D01*
X0020262Y0018768D01*
X0020420Y0018784D01*
X0020577Y0018796D01*
X0020736Y0018804D01*
X0020894Y0018808D01*
X0021052Y0018808D01*
X0021210Y0018804D01*
X0021369Y0018796D01*
X0021526Y0018784D01*
X0021684Y0018768D01*
X0021841Y0018748D01*
X0021997Y0018724D01*
X0022153Y0018696D01*
X0022308Y0018665D01*
X0022463Y0018629D01*
X0022616Y0018590D01*
X0022768Y0018547D01*
X0022919Y0018500D01*
X0023069Y0018449D01*
X0023218Y0018394D01*
X0023365Y0018336D01*
X0023511Y0018274D01*
X0023655Y0018209D01*
X0023797Y0018139D01*
X0023938Y0018067D01*
X0024077Y0017990D01*
X0024213Y0017911D01*
X0024348Y0017827D01*
X0024481Y0017741D01*
X0024611Y0017651D01*
X0024739Y0017558D01*
X0024865Y0017462D01*
X0024988Y0017362D01*
X0025109Y0017260D01*
X0025227Y0017155D01*
X0025342Y0017046D01*
X0025455Y0016935D01*
X0025565Y0016821D01*
X0025672Y0016704D01*
X0025776Y0016585D01*
X0025877Y0016463D01*
X0025974Y0016338D01*
X0026069Y0016211D01*
X0026160Y0016082D01*
X0026249Y0015951D01*
X0026333Y0015817D01*
X0026415Y0015681D01*
X0026493Y0015544D01*
X0026567Y0015404D01*
X0026638Y0015262D01*
X0026706Y0015119D01*
X0026770Y0014974D01*
X0026830Y0014828D01*
X0026886Y0014680D01*
X0026939Y0014531D01*
X0026988Y0014380D01*
X0027033Y0014228D01*
X0027074Y0014075D01*
X0027112Y0013922D01*
X0027145Y0013767D01*
X0027175Y0013611D01*
X0027201Y0013455D01*
X0027222Y0013298D01*
X0027240Y0013141D01*
X0027254Y0012983D01*
X0027264Y0012825D01*
X0027270Y0012667D01*
X0027272Y0012509D01*
X0027270Y0012351D01*
X0027264Y0012193D01*
X0027254Y0012035D01*
X0027240Y0011877D01*
X0027222Y0011720D01*
X0027201Y0011563D01*
X0027175Y0011407D01*
X0027145Y0011251D01*
X0027112Y0011096D01*
X0027074Y0010943D01*
X0027033Y0010790D01*
X0026988Y0010638D01*
X0026939Y0010487D01*
X0026886Y0010338D01*
X0026830Y0010190D01*
X0026770Y0010044D01*
X0026706Y0009899D01*
X0026638Y0009756D01*
X0026567Y0009614D01*
X0026493Y0009474D01*
X0026415Y0009337D01*
X0026333Y0009201D01*
X0026249Y0009067D01*
X0026160Y0008936D01*
X0026069Y0008807D01*
X0025974Y0008680D01*
X0025877Y0008555D01*
X0025776Y0008433D01*
X0025672Y0008314D01*
X0025565Y0008197D01*
X0025455Y0008083D01*
X0025342Y0007972D01*
X0025227Y0007863D01*
X0025109Y0007758D01*
X0024988Y0007656D01*
X0024865Y0007556D01*
X0024739Y0007460D01*
X0024611Y0007367D01*
X0024481Y0007277D01*
X0024348Y0007191D01*
X0024213Y0007107D01*
X0024077Y0007028D01*
X0023938Y0006951D01*
X0023797Y0006879D01*
X0023655Y0006809D01*
X0023511Y0006744D01*
X0023365Y0006682D01*
X0023218Y0006624D01*
X0023069Y0006569D01*
X0022919Y0006518D01*
X0022768Y0006471D01*
X0022616Y0006428D01*
X0022463Y0006389D01*
X0022308Y0006353D01*
X0022153Y0006322D01*
X0021997Y0006294D01*
X0021841Y0006270D01*
X0021684Y0006250D01*
X0021526Y0006234D01*
X0021369Y0006222D01*
X0021210Y0006214D01*
X0021052Y0006210D01*
X0020894Y0006210D01*
X0020736Y0006214D01*
X0020577Y0006222D01*
X0020420Y0006234D01*
X0020262Y0006250D01*
X0020105Y0006270D01*
X0019949Y0006294D01*
X0019793Y0006322D01*
X0019638Y0006353D01*
X0019483Y0006389D01*
X0019330Y0006428D01*
X0019178Y0006471D01*
X0019027Y0006518D01*
X0018877Y0006569D01*
X0018728Y0006624D01*
X0018581Y0006682D01*
X0018435Y0006744D01*
X0018291Y0006809D01*
X0018149Y0006879D01*
X0018008Y0006951D01*
X0017869Y0007028D01*
X0017733Y0007107D01*
X0017598Y0007191D01*
X0017465Y0007277D01*
X0017335Y0007367D01*
X0017207Y0007460D01*
X0017081Y0007556D01*
X0016958Y0007656D01*
X0016837Y0007758D01*
X0016719Y0007863D01*
X0016604Y0007972D01*
X0016491Y0008083D01*
X0016381Y0008197D01*
X0016274Y0008314D01*
X0016170Y0008433D01*
X0016069Y0008555D01*
X0015972Y0008680D01*
X0015877Y0008807D01*
X0015786Y0008936D01*
X0015697Y0009067D01*
X0015613Y0009201D01*
X0015531Y0009337D01*
X0015453Y0009474D01*
X0015379Y0009614D01*
X0015308Y0009756D01*
X0015240Y0009899D01*
X0015176Y0010044D01*
X0015116Y0010190D01*
X0015060Y0010338D01*
X0015007Y0010487D01*
X0014958Y0010638D01*
X0014913Y0010790D01*
X0014872Y0010943D01*
X0014834Y0011096D01*
X0014801Y0011251D01*
X0014771Y0011407D01*
X0014745Y0011563D01*
X0014724Y0011720D01*
X0014706Y0011877D01*
X0014692Y0012035D01*
X0014682Y0012193D01*
X0014676Y0012351D01*
X0014674Y0012509D01*
X0014281Y0230225D02*
X0014283Y0230383D01*
X0014289Y0230541D01*
X0014299Y0230699D01*
X0014313Y0230857D01*
X0014331Y0231014D01*
X0014352Y0231171D01*
X0014378Y0231327D01*
X0014408Y0231483D01*
X0014441Y0231638D01*
X0014479Y0231791D01*
X0014520Y0231944D01*
X0014565Y0232096D01*
X0014614Y0232247D01*
X0014667Y0232396D01*
X0014723Y0232544D01*
X0014783Y0232690D01*
X0014847Y0232835D01*
X0014915Y0232978D01*
X0014986Y0233120D01*
X0015060Y0233260D01*
X0015138Y0233397D01*
X0015220Y0233533D01*
X0015304Y0233667D01*
X0015393Y0233798D01*
X0015484Y0233927D01*
X0015579Y0234054D01*
X0015676Y0234179D01*
X0015777Y0234301D01*
X0015881Y0234420D01*
X0015988Y0234537D01*
X0016098Y0234651D01*
X0016211Y0234762D01*
X0016326Y0234871D01*
X0016444Y0234976D01*
X0016565Y0235078D01*
X0016688Y0235178D01*
X0016814Y0235274D01*
X0016942Y0235367D01*
X0017072Y0235457D01*
X0017205Y0235543D01*
X0017340Y0235627D01*
X0017476Y0235706D01*
X0017615Y0235783D01*
X0017756Y0235855D01*
X0017898Y0235925D01*
X0018042Y0235990D01*
X0018188Y0236052D01*
X0018335Y0236110D01*
X0018484Y0236165D01*
X0018634Y0236216D01*
X0018785Y0236263D01*
X0018937Y0236306D01*
X0019090Y0236345D01*
X0019245Y0236381D01*
X0019400Y0236412D01*
X0019556Y0236440D01*
X0019712Y0236464D01*
X0019869Y0236484D01*
X0020027Y0236500D01*
X0020184Y0236512D01*
X0020343Y0236520D01*
X0020501Y0236524D01*
X0020659Y0236524D01*
X0020817Y0236520D01*
X0020976Y0236512D01*
X0021133Y0236500D01*
X0021291Y0236484D01*
X0021448Y0236464D01*
X0021604Y0236440D01*
X0021760Y0236412D01*
X0021915Y0236381D01*
X0022070Y0236345D01*
X0022223Y0236306D01*
X0022375Y0236263D01*
X0022526Y0236216D01*
X0022676Y0236165D01*
X0022825Y0236110D01*
X0022972Y0236052D01*
X0023118Y0235990D01*
X0023262Y0235925D01*
X0023404Y0235855D01*
X0023545Y0235783D01*
X0023684Y0235706D01*
X0023820Y0235627D01*
X0023955Y0235543D01*
X0024088Y0235457D01*
X0024218Y0235367D01*
X0024346Y0235274D01*
X0024472Y0235178D01*
X0024595Y0235078D01*
X0024716Y0234976D01*
X0024834Y0234871D01*
X0024949Y0234762D01*
X0025062Y0234651D01*
X0025172Y0234537D01*
X0025279Y0234420D01*
X0025383Y0234301D01*
X0025484Y0234179D01*
X0025581Y0234054D01*
X0025676Y0233927D01*
X0025767Y0233798D01*
X0025856Y0233667D01*
X0025940Y0233533D01*
X0026022Y0233397D01*
X0026100Y0233260D01*
X0026174Y0233120D01*
X0026245Y0232978D01*
X0026313Y0232835D01*
X0026377Y0232690D01*
X0026437Y0232544D01*
X0026493Y0232396D01*
X0026546Y0232247D01*
X0026595Y0232096D01*
X0026640Y0231944D01*
X0026681Y0231791D01*
X0026719Y0231638D01*
X0026752Y0231483D01*
X0026782Y0231327D01*
X0026808Y0231171D01*
X0026829Y0231014D01*
X0026847Y0230857D01*
X0026861Y0230699D01*
X0026871Y0230541D01*
X0026877Y0230383D01*
X0026879Y0230225D01*
X0026877Y0230067D01*
X0026871Y0229909D01*
X0026861Y0229751D01*
X0026847Y0229593D01*
X0026829Y0229436D01*
X0026808Y0229279D01*
X0026782Y0229123D01*
X0026752Y0228967D01*
X0026719Y0228812D01*
X0026681Y0228659D01*
X0026640Y0228506D01*
X0026595Y0228354D01*
X0026546Y0228203D01*
X0026493Y0228054D01*
X0026437Y0227906D01*
X0026377Y0227760D01*
X0026313Y0227615D01*
X0026245Y0227472D01*
X0026174Y0227330D01*
X0026100Y0227190D01*
X0026022Y0227053D01*
X0025940Y0226917D01*
X0025856Y0226783D01*
X0025767Y0226652D01*
X0025676Y0226523D01*
X0025581Y0226396D01*
X0025484Y0226271D01*
X0025383Y0226149D01*
X0025279Y0226030D01*
X0025172Y0225913D01*
X0025062Y0225799D01*
X0024949Y0225688D01*
X0024834Y0225579D01*
X0024716Y0225474D01*
X0024595Y0225372D01*
X0024472Y0225272D01*
X0024346Y0225176D01*
X0024218Y0225083D01*
X0024088Y0224993D01*
X0023955Y0224907D01*
X0023820Y0224823D01*
X0023684Y0224744D01*
X0023545Y0224667D01*
X0023404Y0224595D01*
X0023262Y0224525D01*
X0023118Y0224460D01*
X0022972Y0224398D01*
X0022825Y0224340D01*
X0022676Y0224285D01*
X0022526Y0224234D01*
X0022375Y0224187D01*
X0022223Y0224144D01*
X0022070Y0224105D01*
X0021915Y0224069D01*
X0021760Y0224038D01*
X0021604Y0224010D01*
X0021448Y0223986D01*
X0021291Y0223966D01*
X0021133Y0223950D01*
X0020976Y0223938D01*
X0020817Y0223930D01*
X0020659Y0223926D01*
X0020501Y0223926D01*
X0020343Y0223930D01*
X0020184Y0223938D01*
X0020027Y0223950D01*
X0019869Y0223966D01*
X0019712Y0223986D01*
X0019556Y0224010D01*
X0019400Y0224038D01*
X0019245Y0224069D01*
X0019090Y0224105D01*
X0018937Y0224144D01*
X0018785Y0224187D01*
X0018634Y0224234D01*
X0018484Y0224285D01*
X0018335Y0224340D01*
X0018188Y0224398D01*
X0018042Y0224460D01*
X0017898Y0224525D01*
X0017756Y0224595D01*
X0017615Y0224667D01*
X0017476Y0224744D01*
X0017340Y0224823D01*
X0017205Y0224907D01*
X0017072Y0224993D01*
X0016942Y0225083D01*
X0016814Y0225176D01*
X0016688Y0225272D01*
X0016565Y0225372D01*
X0016444Y0225474D01*
X0016326Y0225579D01*
X0016211Y0225688D01*
X0016098Y0225799D01*
X0015988Y0225913D01*
X0015881Y0226030D01*
X0015777Y0226149D01*
X0015676Y0226271D01*
X0015579Y0226396D01*
X0015484Y0226523D01*
X0015393Y0226652D01*
X0015304Y0226783D01*
X0015220Y0226917D01*
X0015138Y0227053D01*
X0015060Y0227190D01*
X0014986Y0227330D01*
X0014915Y0227472D01*
X0014847Y0227615D01*
X0014783Y0227760D01*
X0014723Y0227906D01*
X0014667Y0228054D01*
X0014614Y0228203D01*
X0014565Y0228354D01*
X0014520Y0228506D01*
X0014479Y0228659D01*
X0014441Y0228812D01*
X0014408Y0228967D01*
X0014378Y0229123D01*
X0014352Y0229279D01*
X0014331Y0229436D01*
X0014313Y0229593D01*
X0014299Y0229751D01*
X0014289Y0229909D01*
X0014283Y0230067D01*
X0014281Y0230225D01*
X0354832Y0230225D02*
X0354834Y0230383D01*
X0354840Y0230541D01*
X0354850Y0230699D01*
X0354864Y0230857D01*
X0354882Y0231014D01*
X0354903Y0231171D01*
X0354929Y0231327D01*
X0354959Y0231483D01*
X0354992Y0231638D01*
X0355030Y0231791D01*
X0355071Y0231944D01*
X0355116Y0232096D01*
X0355165Y0232247D01*
X0355218Y0232396D01*
X0355274Y0232544D01*
X0355334Y0232690D01*
X0355398Y0232835D01*
X0355466Y0232978D01*
X0355537Y0233120D01*
X0355611Y0233260D01*
X0355689Y0233397D01*
X0355771Y0233533D01*
X0355855Y0233667D01*
X0355944Y0233798D01*
X0356035Y0233927D01*
X0356130Y0234054D01*
X0356227Y0234179D01*
X0356328Y0234301D01*
X0356432Y0234420D01*
X0356539Y0234537D01*
X0356649Y0234651D01*
X0356762Y0234762D01*
X0356877Y0234871D01*
X0356995Y0234976D01*
X0357116Y0235078D01*
X0357239Y0235178D01*
X0357365Y0235274D01*
X0357493Y0235367D01*
X0357623Y0235457D01*
X0357756Y0235543D01*
X0357891Y0235627D01*
X0358027Y0235706D01*
X0358166Y0235783D01*
X0358307Y0235855D01*
X0358449Y0235925D01*
X0358593Y0235990D01*
X0358739Y0236052D01*
X0358886Y0236110D01*
X0359035Y0236165D01*
X0359185Y0236216D01*
X0359336Y0236263D01*
X0359488Y0236306D01*
X0359641Y0236345D01*
X0359796Y0236381D01*
X0359951Y0236412D01*
X0360107Y0236440D01*
X0360263Y0236464D01*
X0360420Y0236484D01*
X0360578Y0236500D01*
X0360735Y0236512D01*
X0360894Y0236520D01*
X0361052Y0236524D01*
X0361210Y0236524D01*
X0361368Y0236520D01*
X0361527Y0236512D01*
X0361684Y0236500D01*
X0361842Y0236484D01*
X0361999Y0236464D01*
X0362155Y0236440D01*
X0362311Y0236412D01*
X0362466Y0236381D01*
X0362621Y0236345D01*
X0362774Y0236306D01*
X0362926Y0236263D01*
X0363077Y0236216D01*
X0363227Y0236165D01*
X0363376Y0236110D01*
X0363523Y0236052D01*
X0363669Y0235990D01*
X0363813Y0235925D01*
X0363955Y0235855D01*
X0364096Y0235783D01*
X0364235Y0235706D01*
X0364371Y0235627D01*
X0364506Y0235543D01*
X0364639Y0235457D01*
X0364769Y0235367D01*
X0364897Y0235274D01*
X0365023Y0235178D01*
X0365146Y0235078D01*
X0365267Y0234976D01*
X0365385Y0234871D01*
X0365500Y0234762D01*
X0365613Y0234651D01*
X0365723Y0234537D01*
X0365830Y0234420D01*
X0365934Y0234301D01*
X0366035Y0234179D01*
X0366132Y0234054D01*
X0366227Y0233927D01*
X0366318Y0233798D01*
X0366407Y0233667D01*
X0366491Y0233533D01*
X0366573Y0233397D01*
X0366651Y0233260D01*
X0366725Y0233120D01*
X0366796Y0232978D01*
X0366864Y0232835D01*
X0366928Y0232690D01*
X0366988Y0232544D01*
X0367044Y0232396D01*
X0367097Y0232247D01*
X0367146Y0232096D01*
X0367191Y0231944D01*
X0367232Y0231791D01*
X0367270Y0231638D01*
X0367303Y0231483D01*
X0367333Y0231327D01*
X0367359Y0231171D01*
X0367380Y0231014D01*
X0367398Y0230857D01*
X0367412Y0230699D01*
X0367422Y0230541D01*
X0367428Y0230383D01*
X0367430Y0230225D01*
X0367428Y0230067D01*
X0367422Y0229909D01*
X0367412Y0229751D01*
X0367398Y0229593D01*
X0367380Y0229436D01*
X0367359Y0229279D01*
X0367333Y0229123D01*
X0367303Y0228967D01*
X0367270Y0228812D01*
X0367232Y0228659D01*
X0367191Y0228506D01*
X0367146Y0228354D01*
X0367097Y0228203D01*
X0367044Y0228054D01*
X0366988Y0227906D01*
X0366928Y0227760D01*
X0366864Y0227615D01*
X0366796Y0227472D01*
X0366725Y0227330D01*
X0366651Y0227190D01*
X0366573Y0227053D01*
X0366491Y0226917D01*
X0366407Y0226783D01*
X0366318Y0226652D01*
X0366227Y0226523D01*
X0366132Y0226396D01*
X0366035Y0226271D01*
X0365934Y0226149D01*
X0365830Y0226030D01*
X0365723Y0225913D01*
X0365613Y0225799D01*
X0365500Y0225688D01*
X0365385Y0225579D01*
X0365267Y0225474D01*
X0365146Y0225372D01*
X0365023Y0225272D01*
X0364897Y0225176D01*
X0364769Y0225083D01*
X0364639Y0224993D01*
X0364506Y0224907D01*
X0364371Y0224823D01*
X0364235Y0224744D01*
X0364096Y0224667D01*
X0363955Y0224595D01*
X0363813Y0224525D01*
X0363669Y0224460D01*
X0363523Y0224398D01*
X0363376Y0224340D01*
X0363227Y0224285D01*
X0363077Y0224234D01*
X0362926Y0224187D01*
X0362774Y0224144D01*
X0362621Y0224105D01*
X0362466Y0224069D01*
X0362311Y0224038D01*
X0362155Y0224010D01*
X0361999Y0223986D01*
X0361842Y0223966D01*
X0361684Y0223950D01*
X0361527Y0223938D01*
X0361368Y0223930D01*
X0361210Y0223926D01*
X0361052Y0223926D01*
X0360894Y0223930D01*
X0360735Y0223938D01*
X0360578Y0223950D01*
X0360420Y0223966D01*
X0360263Y0223986D01*
X0360107Y0224010D01*
X0359951Y0224038D01*
X0359796Y0224069D01*
X0359641Y0224105D01*
X0359488Y0224144D01*
X0359336Y0224187D01*
X0359185Y0224234D01*
X0359035Y0224285D01*
X0358886Y0224340D01*
X0358739Y0224398D01*
X0358593Y0224460D01*
X0358449Y0224525D01*
X0358307Y0224595D01*
X0358166Y0224667D01*
X0358027Y0224744D01*
X0357891Y0224823D01*
X0357756Y0224907D01*
X0357623Y0224993D01*
X0357493Y0225083D01*
X0357365Y0225176D01*
X0357239Y0225272D01*
X0357116Y0225372D01*
X0356995Y0225474D01*
X0356877Y0225579D01*
X0356762Y0225688D01*
X0356649Y0225799D01*
X0356539Y0225913D01*
X0356432Y0226030D01*
X0356328Y0226149D01*
X0356227Y0226271D01*
X0356130Y0226396D01*
X0356035Y0226523D01*
X0355944Y0226652D01*
X0355855Y0226783D01*
X0355771Y0226917D01*
X0355689Y0227053D01*
X0355611Y0227190D01*
X0355537Y0227330D01*
X0355466Y0227472D01*
X0355398Y0227615D01*
X0355334Y0227760D01*
X0355274Y0227906D01*
X0355218Y0228054D01*
X0355165Y0228203D01*
X0355116Y0228354D01*
X0355071Y0228506D01*
X0355030Y0228659D01*
X0354992Y0228812D01*
X0354959Y0228967D01*
X0354929Y0229123D01*
X0354903Y0229279D01*
X0354882Y0229436D01*
X0354864Y0229593D01*
X0354850Y0229751D01*
X0354840Y0229909D01*
X0354834Y0230067D01*
X0354832Y0230225D01*
X0354832Y0013296D02*
X0354834Y0013454D01*
X0354840Y0013612D01*
X0354850Y0013770D01*
X0354864Y0013928D01*
X0354882Y0014085D01*
X0354903Y0014242D01*
X0354929Y0014398D01*
X0354959Y0014554D01*
X0354992Y0014709D01*
X0355030Y0014862D01*
X0355071Y0015015D01*
X0355116Y0015167D01*
X0355165Y0015318D01*
X0355218Y0015467D01*
X0355274Y0015615D01*
X0355334Y0015761D01*
X0355398Y0015906D01*
X0355466Y0016049D01*
X0355537Y0016191D01*
X0355611Y0016331D01*
X0355689Y0016468D01*
X0355771Y0016604D01*
X0355855Y0016738D01*
X0355944Y0016869D01*
X0356035Y0016998D01*
X0356130Y0017125D01*
X0356227Y0017250D01*
X0356328Y0017372D01*
X0356432Y0017491D01*
X0356539Y0017608D01*
X0356649Y0017722D01*
X0356762Y0017833D01*
X0356877Y0017942D01*
X0356995Y0018047D01*
X0357116Y0018149D01*
X0357239Y0018249D01*
X0357365Y0018345D01*
X0357493Y0018438D01*
X0357623Y0018528D01*
X0357756Y0018614D01*
X0357891Y0018698D01*
X0358027Y0018777D01*
X0358166Y0018854D01*
X0358307Y0018926D01*
X0358449Y0018996D01*
X0358593Y0019061D01*
X0358739Y0019123D01*
X0358886Y0019181D01*
X0359035Y0019236D01*
X0359185Y0019287D01*
X0359336Y0019334D01*
X0359488Y0019377D01*
X0359641Y0019416D01*
X0359796Y0019452D01*
X0359951Y0019483D01*
X0360107Y0019511D01*
X0360263Y0019535D01*
X0360420Y0019555D01*
X0360578Y0019571D01*
X0360735Y0019583D01*
X0360894Y0019591D01*
X0361052Y0019595D01*
X0361210Y0019595D01*
X0361368Y0019591D01*
X0361527Y0019583D01*
X0361684Y0019571D01*
X0361842Y0019555D01*
X0361999Y0019535D01*
X0362155Y0019511D01*
X0362311Y0019483D01*
X0362466Y0019452D01*
X0362621Y0019416D01*
X0362774Y0019377D01*
X0362926Y0019334D01*
X0363077Y0019287D01*
X0363227Y0019236D01*
X0363376Y0019181D01*
X0363523Y0019123D01*
X0363669Y0019061D01*
X0363813Y0018996D01*
X0363955Y0018926D01*
X0364096Y0018854D01*
X0364235Y0018777D01*
X0364371Y0018698D01*
X0364506Y0018614D01*
X0364639Y0018528D01*
X0364769Y0018438D01*
X0364897Y0018345D01*
X0365023Y0018249D01*
X0365146Y0018149D01*
X0365267Y0018047D01*
X0365385Y0017942D01*
X0365500Y0017833D01*
X0365613Y0017722D01*
X0365723Y0017608D01*
X0365830Y0017491D01*
X0365934Y0017372D01*
X0366035Y0017250D01*
X0366132Y0017125D01*
X0366227Y0016998D01*
X0366318Y0016869D01*
X0366407Y0016738D01*
X0366491Y0016604D01*
X0366573Y0016468D01*
X0366651Y0016331D01*
X0366725Y0016191D01*
X0366796Y0016049D01*
X0366864Y0015906D01*
X0366928Y0015761D01*
X0366988Y0015615D01*
X0367044Y0015467D01*
X0367097Y0015318D01*
X0367146Y0015167D01*
X0367191Y0015015D01*
X0367232Y0014862D01*
X0367270Y0014709D01*
X0367303Y0014554D01*
X0367333Y0014398D01*
X0367359Y0014242D01*
X0367380Y0014085D01*
X0367398Y0013928D01*
X0367412Y0013770D01*
X0367422Y0013612D01*
X0367428Y0013454D01*
X0367430Y0013296D01*
X0367428Y0013138D01*
X0367422Y0012980D01*
X0367412Y0012822D01*
X0367398Y0012664D01*
X0367380Y0012507D01*
X0367359Y0012350D01*
X0367333Y0012194D01*
X0367303Y0012038D01*
X0367270Y0011883D01*
X0367232Y0011730D01*
X0367191Y0011577D01*
X0367146Y0011425D01*
X0367097Y0011274D01*
X0367044Y0011125D01*
X0366988Y0010977D01*
X0366928Y0010831D01*
X0366864Y0010686D01*
X0366796Y0010543D01*
X0366725Y0010401D01*
X0366651Y0010261D01*
X0366573Y0010124D01*
X0366491Y0009988D01*
X0366407Y0009854D01*
X0366318Y0009723D01*
X0366227Y0009594D01*
X0366132Y0009467D01*
X0366035Y0009342D01*
X0365934Y0009220D01*
X0365830Y0009101D01*
X0365723Y0008984D01*
X0365613Y0008870D01*
X0365500Y0008759D01*
X0365385Y0008650D01*
X0365267Y0008545D01*
X0365146Y0008443D01*
X0365023Y0008343D01*
X0364897Y0008247D01*
X0364769Y0008154D01*
X0364639Y0008064D01*
X0364506Y0007978D01*
X0364371Y0007894D01*
X0364235Y0007815D01*
X0364096Y0007738D01*
X0363955Y0007666D01*
X0363813Y0007596D01*
X0363669Y0007531D01*
X0363523Y0007469D01*
X0363376Y0007411D01*
X0363227Y0007356D01*
X0363077Y0007305D01*
X0362926Y0007258D01*
X0362774Y0007215D01*
X0362621Y0007176D01*
X0362466Y0007140D01*
X0362311Y0007109D01*
X0362155Y0007081D01*
X0361999Y0007057D01*
X0361842Y0007037D01*
X0361684Y0007021D01*
X0361527Y0007009D01*
X0361368Y0007001D01*
X0361210Y0006997D01*
X0361052Y0006997D01*
X0360894Y0007001D01*
X0360735Y0007009D01*
X0360578Y0007021D01*
X0360420Y0007037D01*
X0360263Y0007057D01*
X0360107Y0007081D01*
X0359951Y0007109D01*
X0359796Y0007140D01*
X0359641Y0007176D01*
X0359488Y0007215D01*
X0359336Y0007258D01*
X0359185Y0007305D01*
X0359035Y0007356D01*
X0358886Y0007411D01*
X0358739Y0007469D01*
X0358593Y0007531D01*
X0358449Y0007596D01*
X0358307Y0007666D01*
X0358166Y0007738D01*
X0358027Y0007815D01*
X0357891Y0007894D01*
X0357756Y0007978D01*
X0357623Y0008064D01*
X0357493Y0008154D01*
X0357365Y0008247D01*
X0357239Y0008343D01*
X0357116Y0008443D01*
X0356995Y0008545D01*
X0356877Y0008650D01*
X0356762Y0008759D01*
X0356649Y0008870D01*
X0356539Y0008984D01*
X0356432Y0009101D01*
X0356328Y0009220D01*
X0356227Y0009342D01*
X0356130Y0009467D01*
X0356035Y0009594D01*
X0355944Y0009723D01*
X0355855Y0009854D01*
X0355771Y0009988D01*
X0355689Y0010124D01*
X0355611Y0010261D01*
X0355537Y0010401D01*
X0355466Y0010543D01*
X0355398Y0010686D01*
X0355334Y0010831D01*
X0355274Y0010977D01*
X0355218Y0011125D01*
X0355165Y0011274D01*
X0355116Y0011425D01*
X0355071Y0011577D01*
X0355030Y0011730D01*
X0354992Y0011883D01*
X0354959Y0012038D01*
X0354929Y0012194D01*
X0354903Y0012350D01*
X0354882Y0012507D01*
X0354864Y0012664D01*
X0354850Y0012822D01*
X0354840Y0012980D01*
X0354834Y0013138D01*
X0354832Y0013296D01*
D11*
X0242469Y0067548D03*
X0212469Y0067548D03*
X0156682Y0068099D03*
X0126682Y0068099D03*
X0077036Y0067548D03*
X0047036Y0067548D03*
X0332036Y0157548D03*
X0342036Y0157548D03*
X0342036Y0167548D03*
X0332036Y0167548D03*
X0332036Y0177548D03*
X0342036Y0177548D03*
X0342036Y0187548D03*
X0332036Y0187548D03*
X0332036Y0197548D03*
X0342036Y0197548D03*
X0342036Y0207548D03*
X0332036Y0207548D03*
X0332036Y0217548D03*
X0342036Y0217548D03*
X0342036Y0227548D03*
X0332036Y0227548D03*
D12*
X0300736Y0222548D02*
X0293336Y0222548D01*
X0293336Y0212548D02*
X0300736Y0212548D01*
X0300736Y0202548D02*
X0293336Y0202548D01*
X0293336Y0192548D02*
X0300736Y0192548D01*
X0300736Y0182548D02*
X0293336Y0182548D01*
X0293336Y0172548D02*
X0300736Y0172548D01*
X0300736Y0162548D02*
X0293336Y0162548D01*
X0211957Y0163335D02*
X0204557Y0163335D01*
X0204557Y0153335D02*
X0211957Y0153335D01*
X0211957Y0173335D02*
X0204557Y0173335D01*
X0204557Y0183335D02*
X0211957Y0183335D01*
X0211957Y0193335D02*
X0204557Y0193335D01*
X0204557Y0203335D02*
X0211957Y0203335D01*
X0211957Y0213335D02*
X0204557Y0213335D01*
X0204557Y0223335D02*
X0211957Y0223335D01*
X0164476Y0223335D02*
X0157076Y0223335D01*
X0157076Y0213335D02*
X0164476Y0213335D01*
X0164476Y0203335D02*
X0157076Y0203335D01*
X0157076Y0193335D02*
X0164476Y0193335D01*
X0164476Y0183335D02*
X0157076Y0183335D01*
X0157076Y0173335D02*
X0164476Y0173335D01*
X0164476Y0163335D02*
X0157076Y0163335D01*
X0157076Y0153335D02*
X0164476Y0153335D01*
X0127902Y0153335D02*
X0120502Y0153335D01*
X0120502Y0163335D02*
X0127902Y0163335D01*
X0127902Y0173335D02*
X0120502Y0173335D01*
X0120502Y0183335D02*
X0127902Y0183335D01*
X0127902Y0193335D02*
X0120502Y0193335D01*
X0120502Y0203335D02*
X0127902Y0203335D01*
X0127902Y0213335D02*
X0120502Y0213335D01*
X0120502Y0223335D02*
X0127902Y0223335D01*
X0084752Y0223335D02*
X0077352Y0223335D01*
X0077352Y0213335D02*
X0084752Y0213335D01*
X0084752Y0203335D02*
X0077352Y0203335D01*
X0077352Y0193335D02*
X0084752Y0193335D01*
X0084752Y0183335D02*
X0077352Y0183335D01*
X0077352Y0173335D02*
X0084752Y0173335D01*
X0084752Y0163335D02*
X0077352Y0163335D01*
X0077352Y0153335D02*
X0084752Y0153335D01*
X0049752Y0153335D02*
X0042352Y0153335D01*
X0042352Y0163335D02*
X0049752Y0163335D01*
X0049752Y0173335D02*
X0042352Y0173335D01*
X0042352Y0183335D02*
X0049752Y0183335D01*
X0049752Y0193335D02*
X0042352Y0193335D01*
X0042352Y0203335D02*
X0049752Y0203335D01*
X0049752Y0213335D02*
X0042352Y0213335D01*
X0042352Y0223335D02*
X0049752Y0223335D01*
X0293336Y0232548D02*
X0300736Y0232548D01*
D13*
X0335540Y0134123D03*
X0345540Y0134123D03*
X0345658Y0125737D03*
X0335658Y0125737D03*
X0335698Y0117312D03*
X0345698Y0117312D03*
X0345619Y0108611D03*
X0335619Y0108611D03*
X0335383Y0099989D03*
X0345383Y0099989D03*
X0157194Y0030501D03*
X0157194Y0020501D03*
X0129241Y0020501D03*
X0129241Y0030501D03*
X0101288Y0030501D03*
X0101288Y0020501D03*
X0073729Y0020501D03*
X0073729Y0030501D03*
X0046170Y0030501D03*
X0046170Y0020501D03*
X0041879Y0050619D03*
X0051879Y0050619D03*
X0058808Y0050422D03*
X0068808Y0050422D03*
X0076524Y0050619D03*
X0086524Y0050619D03*
X0093847Y0050816D03*
X0103847Y0050816D03*
X0111170Y0050619D03*
X0121170Y0050619D03*
D14*
X0123926Y0085048D03*
X0123926Y0090048D03*
X0123926Y0095048D03*
X0123926Y0100048D03*
X0123926Y0105048D03*
X0123926Y0110048D03*
X0123926Y0115048D03*
X0123926Y0120048D03*
X0123926Y0125048D03*
X0123926Y0130048D03*
X0160146Y0130048D03*
X0160146Y0125048D03*
X0160146Y0120048D03*
X0160146Y0115048D03*
X0160146Y0110048D03*
X0160146Y0105048D03*
X0160146Y0100048D03*
X0160146Y0095048D03*
X0160146Y0090048D03*
X0160146Y0085048D03*
X0208926Y0085048D03*
X0208926Y0090048D03*
X0208926Y0095048D03*
X0208926Y0100048D03*
X0208926Y0105048D03*
X0208926Y0110048D03*
X0208926Y0115048D03*
X0208926Y0120048D03*
X0208926Y0125048D03*
X0208926Y0130048D03*
X0245146Y0130048D03*
X0245146Y0125048D03*
X0245146Y0120048D03*
X0245146Y0115048D03*
X0245146Y0110048D03*
X0245146Y0105048D03*
X0245146Y0100048D03*
X0245146Y0095048D03*
X0245146Y0090048D03*
X0245146Y0085048D03*
X0080146Y0085048D03*
X0080146Y0090048D03*
X0080146Y0095048D03*
X0080146Y0100048D03*
X0080146Y0105048D03*
X0080146Y0110048D03*
X0080146Y0115048D03*
X0080146Y0120048D03*
X0080146Y0125048D03*
X0080146Y0130048D03*
X0043926Y0130048D03*
X0043926Y0125048D03*
X0043926Y0120048D03*
X0043926Y0115048D03*
X0043926Y0110048D03*
X0043926Y0105048D03*
X0043926Y0100048D03*
X0043926Y0095048D03*
X0043926Y0090048D03*
X0043926Y0085048D03*
D15*
X0044005Y0084950D01*
X0072056Y0084950D01*
X0078454Y0078552D01*
X0082391Y0078552D01*
X0084851Y0076091D01*
X0084851Y0073139D01*
X0079438Y0067725D01*
X0079930Y0067233D01*
X0079930Y0053454D01*
X0080914Y0052469D01*
X0080914Y0040166D01*
X0075567Y0037096D02*
X0063008Y0049656D01*
X0063008Y0052162D01*
X0060548Y0054622D01*
X0057068Y0054622D01*
X0055442Y0052996D01*
X0053618Y0054819D01*
X0050139Y0054819D01*
X0047679Y0052359D01*
X0047679Y0048879D01*
X0050139Y0046419D01*
X0053618Y0046419D01*
X0055245Y0048045D01*
X0057068Y0046222D01*
X0059653Y0046222D01*
X0071132Y0034743D01*
X0071132Y0033844D01*
X0069529Y0032240D01*
X0069529Y0028761D01*
X0069996Y0028294D01*
X0049903Y0028294D01*
X0050370Y0028761D01*
X0050370Y0032240D01*
X0048373Y0034237D01*
X0048373Y0047041D01*
X0048008Y0047923D01*
X0046079Y0049852D01*
X0046079Y0052359D01*
X0043618Y0054819D01*
X0040139Y0054819D01*
X0037679Y0052359D01*
X0037679Y0048879D01*
X0040139Y0046419D01*
X0042724Y0046419D01*
X0043573Y0045570D01*
X0043573Y0033844D01*
X0041970Y0032240D01*
X0041970Y0031815D01*
X0023767Y0050019D01*
X0023767Y0062005D01*
X0024588Y0061665D01*
X0026020Y0061665D01*
X0027343Y0062213D01*
X0028356Y0063225D01*
X0028904Y0064548D01*
X0028904Y0065470D01*
X0034228Y0070795D01*
X0034409Y0071231D01*
X0044496Y0071231D01*
X0042636Y0069371D01*
X0042636Y0065725D01*
X0045214Y0063148D01*
X0048141Y0063148D01*
X0049363Y0061925D01*
X0049347Y0061919D01*
X0048695Y0061267D01*
X0039806Y0061267D01*
X0039154Y0061919D01*
X0037831Y0062467D01*
X0036399Y0062467D01*
X0035076Y0061919D01*
X0034063Y0060906D01*
X0033515Y0059583D01*
X0033515Y0058151D01*
X0034063Y0056828D01*
X0035076Y0055815D01*
X0036399Y0055267D01*
X0037831Y0055267D01*
X0039154Y0055815D01*
X0039806Y0056467D01*
X0048695Y0056467D01*
X0049347Y0055815D01*
X0050671Y0055267D01*
X0052103Y0055267D01*
X0053426Y0055815D01*
X0054439Y0056828D01*
X0054987Y0058151D01*
X0054987Y0059583D01*
X0054647Y0060404D01*
X0055585Y0060404D01*
X0056237Y0059752D01*
X0057560Y0059204D01*
X0058992Y0059204D01*
X0060316Y0059752D01*
X0061328Y0060765D01*
X0061876Y0062088D01*
X0061876Y0063520D01*
X0061328Y0064843D01*
X0060316Y0065856D01*
X0058992Y0066404D01*
X0057560Y0066404D01*
X0056237Y0065856D01*
X0055585Y0065204D01*
X0052873Y0065204D01*
X0051436Y0066641D01*
X0051436Y0069371D01*
X0050776Y0070031D01*
X0052103Y0070031D01*
X0053426Y0070579D01*
X0054439Y0071591D01*
X0054791Y0072442D01*
X0055338Y0072215D01*
X0078223Y0072215D01*
X0078290Y0072148D01*
X0077136Y0072148D01*
X0077136Y0067648D01*
X0076936Y0067648D01*
X0076936Y0067448D01*
X0072436Y0067448D01*
X0072436Y0065643D01*
X0075131Y0062948D01*
X0076936Y0062948D01*
X0076936Y0067448D01*
X0077136Y0067448D01*
X0077136Y0062948D01*
X0078942Y0062948D01*
X0081636Y0065643D01*
X0081636Y0067448D01*
X0077136Y0067448D01*
X0077136Y0067648D01*
X0081636Y0067648D01*
X0081636Y0069453D01*
X0079987Y0071102D01*
X0080198Y0071015D01*
X0081630Y0071015D01*
X0082953Y0071563D01*
X0083966Y0072576D01*
X0084514Y0073899D01*
X0084514Y0075331D01*
X0083966Y0076654D01*
X0082953Y0077667D01*
X0081630Y0078215D01*
X0080198Y0078215D01*
X0078875Y0077667D01*
X0078223Y0077015D01*
X0056810Y0077015D01*
X0056412Y0077413D01*
X0057516Y0077413D01*
X0058839Y0077961D01*
X0059852Y0078973D01*
X0060400Y0080297D01*
X0060400Y0081729D01*
X0059852Y0083052D01*
X0058839Y0084065D01*
X0057516Y0084613D01*
X0056084Y0084613D01*
X0054761Y0084065D01*
X0054109Y0083413D01*
X0049998Y0083413D01*
X0050057Y0083630D01*
X0050057Y0085048D01*
X0050057Y0086466D01*
X0049934Y0086924D01*
X0049697Y0087334D01*
X0049362Y0087669D01*
X0049337Y0087684D01*
X0049857Y0088204D01*
X0049857Y0091892D01*
X0049201Y0092548D01*
X0049362Y0092710D01*
X0049839Y0092232D01*
X0051163Y0091684D01*
X0052595Y0091684D01*
X0053918Y0092232D01*
X0054570Y0092884D01*
X0069978Y0092884D01*
X0069496Y0092402D01*
X0068948Y0091079D01*
X0068948Y0089647D01*
X0069496Y0088324D01*
X0070509Y0087311D01*
X0071832Y0086763D01*
X0073264Y0086763D01*
X0074587Y0087311D01*
X0074848Y0087572D01*
X0074872Y0087548D01*
X0074216Y0086892D01*
X0074216Y0083204D01*
X0075153Y0082267D01*
X0085140Y0082267D01*
X0086077Y0083204D01*
X0086077Y0086892D01*
X0085421Y0087548D01*
X0086077Y0088204D01*
X0086077Y0091892D01*
X0085577Y0092392D01*
X0103321Y0092392D01*
X0103973Y0091740D01*
X0105297Y0091192D01*
X0106218Y0091192D01*
X0118427Y0078983D01*
X0111933Y0078983D01*
X0111051Y0078618D01*
X0087252Y0054819D01*
X0084785Y0054819D01*
X0082324Y0052359D01*
X0082324Y0048879D01*
X0084785Y0046419D01*
X0088264Y0046419D01*
X0090284Y0048439D01*
X0092108Y0046616D01*
X0095587Y0046616D01*
X0097072Y0048101D01*
X0097144Y0048101D01*
X0115789Y0029456D01*
X0116464Y0028781D01*
X0117346Y0028416D01*
X0125386Y0028416D01*
X0125508Y0028294D01*
X0105022Y0028294D01*
X0105488Y0028761D01*
X0105488Y0032240D01*
X0103028Y0034701D01*
X0099548Y0034701D01*
X0097088Y0032240D01*
X0097088Y0028761D01*
X0097555Y0028294D01*
X0077463Y0028294D01*
X0077929Y0028761D01*
X0077929Y0032240D01*
X0075932Y0034237D01*
X0075932Y0036214D01*
X0075567Y0037096D01*
X0075224Y0037440D02*
X0107806Y0037440D01*
X0109404Y0035841D02*
X0075932Y0035841D01*
X0075932Y0034243D02*
X0099090Y0034243D01*
X0097492Y0032644D02*
X0077525Y0032644D01*
X0077929Y0031046D02*
X0097088Y0031046D01*
X0097088Y0029447D02*
X0077929Y0029447D01*
X0073729Y0030501D02*
X0073532Y0030816D01*
X0073532Y0035737D01*
X0059261Y0050009D01*
X0058808Y0050422D01*
X0061745Y0053425D02*
X0065871Y0053425D01*
X0067068Y0054622D02*
X0064608Y0052162D01*
X0064608Y0048682D01*
X0067068Y0046222D01*
X0070548Y0046222D01*
X0072765Y0048439D01*
X0074785Y0046419D01*
X0078264Y0046419D01*
X0080724Y0048879D01*
X0080724Y0052359D01*
X0078264Y0054819D01*
X0074785Y0054819D01*
X0072568Y0052602D01*
X0070548Y0054622D01*
X0067068Y0054622D01*
X0064608Y0051826D02*
X0063008Y0051826D01*
X0063008Y0050228D02*
X0064608Y0050228D01*
X0064661Y0048629D02*
X0064034Y0048629D01*
X0065633Y0047031D02*
X0066259Y0047031D01*
X0067231Y0045432D02*
X0099813Y0045432D01*
X0101412Y0043834D02*
X0068830Y0043834D01*
X0070428Y0042235D02*
X0103010Y0042235D01*
X0104609Y0040637D02*
X0072027Y0040637D01*
X0073625Y0039038D02*
X0106207Y0039038D01*
X0109798Y0042235D02*
X0143566Y0042235D01*
X0145164Y0043834D02*
X0108200Y0043834D01*
X0106601Y0045432D02*
X0146763Y0045432D01*
X0148361Y0047031D02*
X0123522Y0047031D01*
X0122910Y0046419D02*
X0125084Y0048593D01*
X0149923Y0048593D01*
X0133441Y0032111D01*
X0133441Y0032240D01*
X0130981Y0034701D01*
X0127501Y0034701D01*
X0126016Y0033216D01*
X0118818Y0033216D01*
X0105418Y0046616D01*
X0105587Y0046616D01*
X0107410Y0048439D01*
X0109430Y0046419D01*
X0112910Y0046419D01*
X0115370Y0048879D01*
X0115370Y0052359D01*
X0112910Y0054819D01*
X0110280Y0054819D01*
X0122282Y0066821D01*
X0122282Y0066277D01*
X0124859Y0063699D01*
X0128504Y0063699D01*
X0130130Y0065325D01*
X0143676Y0065325D01*
X0144328Y0064673D01*
X0145651Y0064125D01*
X0147083Y0064125D01*
X0148406Y0064673D01*
X0149380Y0065647D01*
X0149380Y0058605D01*
X0148728Y0057953D01*
X0148180Y0056630D01*
X0148180Y0055198D01*
X0148728Y0053875D01*
X0149210Y0053393D01*
X0124336Y0053393D01*
X0122910Y0054819D01*
X0119430Y0054819D01*
X0116970Y0052359D01*
X0116970Y0048879D01*
X0119430Y0046419D01*
X0122910Y0046419D01*
X0118819Y0047031D02*
X0113522Y0047031D01*
X0115120Y0048629D02*
X0117220Y0048629D01*
X0116970Y0050228D02*
X0115370Y0050228D01*
X0115370Y0051826D02*
X0116970Y0051826D01*
X0118036Y0053425D02*
X0114304Y0053425D01*
X0112083Y0056622D02*
X0148180Y0056622D01*
X0148253Y0055023D02*
X0110484Y0055023D01*
X0113681Y0058220D02*
X0148995Y0058220D01*
X0149380Y0059819D02*
X0115280Y0059819D01*
X0116878Y0061417D02*
X0149380Y0061417D01*
X0149380Y0063016D02*
X0118477Y0063016D01*
X0120075Y0064614D02*
X0123944Y0064614D01*
X0122346Y0066213D02*
X0121674Y0066213D01*
X0118083Y0069410D02*
X0108631Y0069410D01*
X0110229Y0071008D02*
X0119681Y0071008D01*
X0121280Y0072607D02*
X0111828Y0072607D01*
X0113404Y0074183D02*
X0122856Y0074183D01*
X0103689Y0055016D01*
X0102108Y0055016D01*
X0099647Y0052555D01*
X0099647Y0052386D01*
X0099498Y0052535D01*
X0098616Y0052901D01*
X0097702Y0052901D01*
X0095587Y0055016D01*
X0094237Y0055016D01*
X0113404Y0074183D01*
X0112410Y0076583D02*
X0086820Y0050993D01*
X0086524Y0050619D01*
X0083391Y0053425D02*
X0079658Y0053425D01*
X0080724Y0051826D02*
X0082324Y0051826D01*
X0082324Y0050228D02*
X0080724Y0050228D01*
X0080474Y0048629D02*
X0082574Y0048629D01*
X0084173Y0047031D02*
X0078876Y0047031D01*
X0074173Y0047031D02*
X0071356Y0047031D01*
X0065238Y0040637D02*
X0048373Y0040637D01*
X0048373Y0042235D02*
X0063640Y0042235D01*
X0062041Y0043834D02*
X0048373Y0043834D01*
X0048373Y0045432D02*
X0060443Y0045432D01*
X0056259Y0047031D02*
X0054230Y0047031D01*
X0049527Y0047031D02*
X0048373Y0047031D01*
X0047929Y0048629D02*
X0047302Y0048629D01*
X0047679Y0050228D02*
X0046079Y0050228D01*
X0046079Y0051826D02*
X0047679Y0051826D01*
X0048745Y0053425D02*
X0045013Y0053425D01*
X0042036Y0050501D02*
X0041879Y0050619D01*
X0042036Y0050501D02*
X0045973Y0046564D01*
X0045973Y0030816D01*
X0046170Y0030501D01*
X0050370Y0031046D02*
X0069529Y0031046D01*
X0069529Y0029447D02*
X0050370Y0029447D01*
X0049966Y0032644D02*
X0069933Y0032644D01*
X0071132Y0034243D02*
X0048373Y0034243D01*
X0048373Y0035841D02*
X0070034Y0035841D01*
X0068435Y0037440D02*
X0048373Y0037440D01*
X0048373Y0039038D02*
X0066837Y0039038D01*
X0071745Y0053425D02*
X0073391Y0053425D01*
X0087456Y0055023D02*
X0023767Y0055023D01*
X0023767Y0053425D02*
X0038745Y0053425D01*
X0037679Y0051826D02*
X0023767Y0051826D01*
X0023767Y0050228D02*
X0037679Y0050228D01*
X0037929Y0048629D02*
X0025156Y0048629D01*
X0026755Y0047031D02*
X0039527Y0047031D01*
X0043573Y0045432D02*
X0028353Y0045432D01*
X0029952Y0043834D02*
X0043573Y0043834D01*
X0043573Y0042235D02*
X0031550Y0042235D01*
X0033149Y0040637D02*
X0043573Y0040637D01*
X0043573Y0039038D02*
X0034747Y0039038D01*
X0036346Y0037440D02*
X0043573Y0037440D01*
X0043573Y0035841D02*
X0037944Y0035841D01*
X0039543Y0034243D02*
X0043573Y0034243D01*
X0042374Y0032644D02*
X0041141Y0032644D01*
X0035952Y0031046D02*
X0007015Y0031046D01*
X0007014Y0032644D02*
X0034353Y0032644D01*
X0032755Y0034243D02*
X0007013Y0034243D01*
X0007012Y0035841D02*
X0031156Y0035841D01*
X0029558Y0037440D02*
X0007011Y0037440D01*
X0007010Y0039038D02*
X0027959Y0039038D01*
X0026361Y0040637D02*
X0007009Y0040637D01*
X0007008Y0042235D02*
X0024762Y0042235D01*
X0023163Y0043834D02*
X0007007Y0043834D01*
X0007005Y0045432D02*
X0021565Y0045432D01*
X0020007Y0046990D02*
X0043137Y0023860D01*
X0043257Y0023810D01*
X0041770Y0022323D01*
X0041770Y0020501D01*
X0046170Y0020501D01*
X0046170Y0020501D01*
X0046465Y0020973D01*
X0073532Y0020973D01*
X0073729Y0020501D01*
X0073729Y0020501D01*
X0069329Y0020501D01*
X0069329Y0022323D01*
X0070500Y0023494D01*
X0049399Y0023494D01*
X0050570Y0022323D01*
X0050570Y0020501D01*
X0046170Y0020501D01*
X0046170Y0020501D01*
X0041770Y0020501D01*
X0041770Y0018678D01*
X0044348Y0016101D01*
X0046170Y0016101D01*
X0046170Y0020501D01*
X0050570Y0020501D01*
X0050570Y0018678D01*
X0047993Y0016101D01*
X0046170Y0016101D01*
X0046170Y0020501D01*
X0046170Y0020501D01*
X0046170Y0019856D02*
X0046170Y0019856D01*
X0046170Y0018258D02*
X0046170Y0018258D01*
X0046170Y0016659D02*
X0046170Y0016659D01*
X0043789Y0016659D02*
X0031352Y0016659D01*
X0031316Y0016793D02*
X0029855Y0019324D01*
X0027788Y0021390D01*
X0025257Y0022851D01*
X0022434Y0023608D01*
X0019512Y0023608D01*
X0016689Y0022851D01*
X0014158Y0021390D01*
X0012092Y0019324D01*
X0010630Y0016793D01*
X0009874Y0013970D01*
X0009874Y0011047D01*
X0010630Y0008225D01*
X0011229Y0007188D01*
X0007030Y0007189D01*
X0006879Y0243534D01*
X0374013Y0243458D01*
X0374278Y0007074D01*
X0370355Y0007075D01*
X0371474Y0009012D01*
X0372230Y0011835D01*
X0372230Y0014757D01*
X0371474Y0017580D01*
X0370012Y0020111D01*
X0367946Y0022178D01*
X0365415Y0023639D01*
X0362592Y0024395D01*
X0359669Y0024395D01*
X0356847Y0023639D01*
X0354316Y0022178D01*
X0352249Y0020111D01*
X0350788Y0017580D01*
X0350031Y0014757D01*
X0350031Y0011835D01*
X0350788Y0009012D01*
X0351903Y0007081D01*
X0030714Y0007182D01*
X0031316Y0008225D01*
X0032072Y0011047D01*
X0032072Y0013970D01*
X0031316Y0016793D01*
X0030470Y0018258D02*
X0042191Y0018258D01*
X0041770Y0019856D02*
X0029322Y0019856D01*
X0027677Y0021455D02*
X0041770Y0021455D01*
X0042500Y0023053D02*
X0024505Y0023053D01*
X0017442Y0023053D02*
X0007020Y0023053D01*
X0007021Y0021455D02*
X0014270Y0021455D01*
X0012624Y0019856D02*
X0007022Y0019856D01*
X0007023Y0018258D02*
X0011476Y0018258D01*
X0010595Y0016659D02*
X0007024Y0016659D01*
X0007025Y0015061D02*
X0010166Y0015061D01*
X0009874Y0013462D02*
X0007026Y0013462D01*
X0007027Y0011864D02*
X0009874Y0011864D01*
X0010084Y0010265D02*
X0007028Y0010265D01*
X0007029Y0008666D02*
X0010512Y0008666D01*
X0007019Y0024652D02*
X0042346Y0024652D01*
X0040747Y0026250D02*
X0007018Y0026250D01*
X0007017Y0027849D02*
X0039149Y0027849D01*
X0037550Y0029447D02*
X0007016Y0029447D01*
X0007004Y0047031D02*
X0019966Y0047031D01*
X0020007Y0046990D02*
X0019332Y0047665D01*
X0018967Y0048547D01*
X0018967Y0210427D01*
X0019332Y0211309D01*
X0048368Y0240345D01*
X0049043Y0241020D01*
X0049925Y0241385D01*
X0054817Y0241385D01*
X0055699Y0241020D01*
X0066034Y0230685D01*
X0066709Y0230010D01*
X0067074Y0229128D01*
X0067074Y0194090D01*
X0073088Y0200104D01*
X0072859Y0200333D01*
X0072052Y0202281D01*
X0072052Y0204390D01*
X0072859Y0206338D01*
X0074350Y0207829D01*
X0075573Y0208335D01*
X0074350Y0208842D01*
X0072859Y0210333D01*
X0072052Y0212281D01*
X0072052Y0214390D01*
X0072859Y0216338D01*
X0074350Y0217829D01*
X0075573Y0218335D01*
X0074350Y0218842D01*
X0072859Y0220333D01*
X0072052Y0222281D01*
X0072052Y0224390D01*
X0072859Y0226338D01*
X0074350Y0227829D01*
X0076298Y0228635D01*
X0085806Y0228635D01*
X0087754Y0227829D01*
X0089245Y0226338D01*
X0090052Y0224390D01*
X0090052Y0222281D01*
X0089245Y0220333D01*
X0087754Y0218842D01*
X0086530Y0218335D01*
X0087754Y0217829D01*
X0089245Y0216338D01*
X0090052Y0214390D01*
X0090052Y0212281D01*
X0089245Y0210333D01*
X0087754Y0208842D01*
X0086530Y0208335D01*
X0087754Y0207829D01*
X0089245Y0206338D01*
X0090052Y0204390D01*
X0090052Y0202281D01*
X0089245Y0200333D01*
X0087754Y0198842D01*
X0086530Y0198335D01*
X0087754Y0197829D01*
X0089245Y0196338D01*
X0090052Y0194390D01*
X0090052Y0192281D01*
X0089245Y0190333D01*
X0087754Y0188842D01*
X0086530Y0188335D01*
X0087754Y0187829D01*
X0089245Y0186338D01*
X0090052Y0184390D01*
X0090052Y0182281D01*
X0089245Y0180333D01*
X0087754Y0178842D01*
X0086530Y0178335D01*
X0087754Y0177829D01*
X0089245Y0176338D01*
X0090052Y0174390D01*
X0090052Y0172281D01*
X0089245Y0170333D01*
X0087754Y0168842D01*
X0086530Y0168335D01*
X0087754Y0167829D01*
X0089245Y0166338D01*
X0090052Y0164390D01*
X0090052Y0162281D01*
X0089245Y0160333D01*
X0087754Y0158842D01*
X0086808Y0158450D01*
X0086863Y0158432D01*
X0087635Y0158039D01*
X0088335Y0157531D01*
X0088947Y0156918D01*
X0089456Y0156218D01*
X0089849Y0155447D01*
X0090117Y0154623D01*
X0090252Y0153768D01*
X0090252Y0153635D01*
X0081352Y0153635D01*
X0081352Y0153035D01*
X0081352Y0147835D01*
X0085185Y0147835D01*
X0086040Y0147971D01*
X0086863Y0148238D01*
X0087264Y0148443D01*
X0087705Y0147379D01*
X0088717Y0146366D01*
X0088844Y0146314D01*
X0088839Y0143824D01*
X0088028Y0144160D01*
X0086596Y0144160D01*
X0085273Y0143612D01*
X0084260Y0142599D01*
X0083712Y0141276D01*
X0083712Y0139844D01*
X0084260Y0138521D01*
X0085273Y0137508D01*
X0086388Y0137046D01*
X0086388Y0135035D01*
X0080980Y0140443D01*
X0080305Y0141118D01*
X0079423Y0141483D01*
X0039314Y0141483D01*
X0038662Y0142135D01*
X0037339Y0142683D01*
X0035907Y0142683D01*
X0035086Y0142343D01*
X0035086Y0163951D01*
X0035738Y0164603D01*
X0036286Y0165926D01*
X0036286Y0167359D01*
X0035738Y0168682D01*
X0034725Y0169694D01*
X0033402Y0170243D01*
X0031970Y0170243D01*
X0031149Y0169902D01*
X0031149Y0171003D01*
X0032264Y0171465D01*
X0033277Y0172477D01*
X0033825Y0173800D01*
X0033825Y0175233D01*
X0033277Y0176556D01*
X0032264Y0177568D01*
X0031553Y0177863D01*
X0037052Y0183363D01*
X0037052Y0182281D01*
X0037859Y0180333D01*
X0039350Y0178842D01*
X0040573Y0178335D01*
X0039350Y0177829D01*
X0037859Y0176338D01*
X0037052Y0174390D01*
X0037052Y0172281D01*
X0037859Y0170333D01*
X0039350Y0168842D01*
X0040573Y0168335D01*
X0039350Y0167829D01*
X0037859Y0166338D01*
X0037052Y0164390D01*
X0037052Y0162281D01*
X0037859Y0160333D01*
X0039350Y0158842D01*
X0040296Y0158450D01*
X0040241Y0158432D01*
X0039469Y0158039D01*
X0038769Y0157531D01*
X0038157Y0156918D01*
X0037648Y0156218D01*
X0037255Y0155447D01*
X0036987Y0154623D01*
X0036852Y0153768D01*
X0036852Y0153635D01*
X0045752Y0153635D01*
X0045752Y0153035D01*
X0046352Y0153035D01*
X0046352Y0147835D01*
X0050185Y0147835D01*
X0051040Y0147971D01*
X0051863Y0148238D01*
X0052635Y0148631D01*
X0053335Y0149140D01*
X0053947Y0149752D01*
X0054456Y0150453D01*
X0054849Y0151224D01*
X0055117Y0152048D01*
X0055252Y0152903D01*
X0055252Y0153035D01*
X0046352Y0153035D01*
X0046352Y0153635D01*
X0055252Y0153635D01*
X0055252Y0153768D01*
X0055117Y0154623D01*
X0054849Y0155447D01*
X0054456Y0156218D01*
X0053947Y0156918D01*
X0053335Y0157531D01*
X0052635Y0158039D01*
X0051863Y0158432D01*
X0051808Y0158450D01*
X0052754Y0158842D01*
X0054245Y0160333D01*
X0055052Y0162281D01*
X0055052Y0164390D01*
X0054245Y0166338D01*
X0054114Y0166468D01*
X0057358Y0169712D01*
X0057724Y0170594D01*
X0057724Y0226175D01*
X0057358Y0227057D01*
X0056683Y0227732D01*
X0055263Y0229152D01*
X0055263Y0232357D01*
X0055915Y0233009D01*
X0056210Y0233721D01*
X0062274Y0227656D01*
X0062274Y0165673D01*
X0062639Y0164791D01*
X0067069Y0160362D01*
X0067744Y0159687D01*
X0068626Y0159321D01*
X0073871Y0159321D01*
X0074350Y0158842D01*
X0075296Y0158450D01*
X0075241Y0158432D01*
X0074469Y0158039D01*
X0073769Y0157531D01*
X0073157Y0156918D01*
X0072648Y0156218D01*
X0072255Y0155447D01*
X0071987Y0154623D01*
X0071852Y0153768D01*
X0071852Y0153635D01*
X0080752Y0153635D01*
X0080752Y0153035D01*
X0081352Y0153035D01*
X0090252Y0153035D01*
X0090252Y0153018D01*
X0091473Y0153018D01*
X0092796Y0152470D01*
X0093809Y0151457D01*
X0094357Y0150134D01*
X0094357Y0148702D01*
X0093809Y0147379D01*
X0093646Y0147216D01*
X0093623Y0135230D01*
X0094623Y0136230D01*
X0095946Y0136778D01*
X0097378Y0136778D01*
X0098701Y0136230D01*
X0099353Y0135578D01*
X0101845Y0135578D01*
X0102497Y0136230D01*
X0103820Y0136778D01*
X0105252Y0136778D01*
X0106073Y0136438D01*
X0106073Y0139014D01*
X0104958Y0139476D01*
X0103945Y0140489D01*
X0103397Y0141812D01*
X0103397Y0143244D01*
X0103945Y0144568D01*
X0104958Y0145580D01*
X0106281Y0146128D01*
X0107008Y0146128D01*
X0106434Y0146366D01*
X0105421Y0147379D01*
X0104873Y0148702D01*
X0104873Y0150134D01*
X0105421Y0151457D01*
X0106434Y0152470D01*
X0107757Y0153018D01*
X0109189Y0153018D01*
X0110512Y0152470D01*
X0111525Y0151457D01*
X0112073Y0150134D01*
X0112073Y0149212D01*
X0112968Y0148317D01*
X0113334Y0147435D01*
X0113334Y0140663D01*
X0114647Y0141207D01*
X0116079Y0141207D01*
X0117402Y0140659D01*
X0118415Y0139646D01*
X0118710Y0138935D01*
X0127611Y0147835D01*
X0124502Y0147835D01*
X0124502Y0153035D01*
X0123902Y0153035D01*
X0123902Y0147835D01*
X0120069Y0147835D01*
X0119214Y0147971D01*
X0118390Y0148238D01*
X0117619Y0148631D01*
X0116919Y0149140D01*
X0116306Y0149752D01*
X0115798Y0150453D01*
X0115405Y0151224D01*
X0115137Y0152048D01*
X0115002Y0152903D01*
X0115002Y0153035D01*
X0123901Y0153035D01*
X0123901Y0153635D01*
X0115002Y0153635D01*
X0115002Y0153768D01*
X0115137Y0154623D01*
X0115405Y0155447D01*
X0115798Y0156218D01*
X0116306Y0156918D01*
X0116919Y0157531D01*
X0117619Y0158039D01*
X0118390Y0158432D01*
X0118446Y0158450D01*
X0117499Y0158842D01*
X0116008Y0160333D01*
X0115202Y0162281D01*
X0115202Y0164390D01*
X0116008Y0166338D01*
X0116110Y0166439D01*
X0112836Y0169712D01*
X0112471Y0170594D01*
X0112471Y0183068D01*
X0111650Y0182728D01*
X0110218Y0182728D01*
X0108895Y0183276D01*
X0107882Y0184288D01*
X0107334Y0185611D01*
X0107334Y0187044D01*
X0107882Y0188367D01*
X0108534Y0189019D01*
X0108534Y0225191D01*
X0108899Y0226073D01*
X0115297Y0232471D01*
X0115972Y0233146D01*
X0116854Y0233511D01*
X0222140Y0233511D01*
X0223022Y0233146D01*
X0260540Y0195627D01*
X0285207Y0220294D01*
X0285207Y0225191D01*
X0285572Y0226073D01*
X0288944Y0229445D01*
X0288843Y0229546D01*
X0288036Y0231494D01*
X0288036Y0233602D01*
X0288843Y0235550D01*
X0290334Y0237041D01*
X0292282Y0237848D01*
X0301790Y0237848D01*
X0303738Y0237041D01*
X0305229Y0235550D01*
X0306036Y0233602D01*
X0306036Y0231494D01*
X0305229Y0229546D01*
X0303738Y0228055D01*
X0302515Y0227548D01*
X0303738Y0227041D01*
X0305229Y0225550D01*
X0306036Y0223602D01*
X0306036Y0221494D01*
X0305229Y0219546D01*
X0303738Y0218055D01*
X0302515Y0217548D01*
X0303738Y0217041D01*
X0305229Y0215550D01*
X0306036Y0213602D01*
X0306036Y0211494D01*
X0305229Y0209546D01*
X0303738Y0208055D01*
X0302515Y0207548D01*
X0303738Y0207041D01*
X0305229Y0205550D01*
X0306036Y0203602D01*
X0306036Y0201494D01*
X0305872Y0201096D01*
X0329006Y0224231D01*
X0329006Y0224355D01*
X0327636Y0225725D01*
X0327636Y0229371D01*
X0330214Y0231948D01*
X0333859Y0231948D01*
X0335741Y0230066D01*
X0338332Y0230066D01*
X0340214Y0231948D01*
X0343859Y0231948D01*
X0346436Y0229371D01*
X0346436Y0225725D01*
X0343859Y0223148D01*
X0340214Y0223148D01*
X0338096Y0225266D01*
X0335977Y0225266D01*
X0333859Y0223148D01*
X0333806Y0223148D01*
X0333806Y0222760D01*
X0333470Y0221948D01*
X0333859Y0221948D01*
X0336436Y0219371D01*
X0336436Y0215725D01*
X0333859Y0213148D01*
X0330214Y0213148D01*
X0327636Y0215725D01*
X0327636Y0216073D01*
X0308708Y0197144D01*
X0308708Y0184791D01*
X0328571Y0184791D01*
X0327636Y0185725D01*
X0327636Y0189371D01*
X0330214Y0191948D01*
X0333859Y0191948D01*
X0336436Y0189371D01*
X0336436Y0185725D01*
X0335501Y0184791D01*
X0338571Y0184791D01*
X0337636Y0185725D01*
X0337636Y0189371D01*
X0340214Y0191948D01*
X0343859Y0191948D01*
X0346436Y0189371D01*
X0346436Y0186503D01*
X0356299Y0176640D01*
X0357221Y0176640D01*
X0357964Y0176332D01*
X0357390Y0176906D01*
X0356842Y0178230D01*
X0356842Y0179152D01*
X0342845Y0193148D01*
X0340214Y0193148D01*
X0337636Y0195725D01*
X0337636Y0199371D01*
X0340214Y0201948D01*
X0343859Y0201948D01*
X0346436Y0199371D01*
X0346436Y0196345D01*
X0360236Y0182546D01*
X0361158Y0182546D01*
X0362481Y0181998D01*
X0363494Y0180985D01*
X0364042Y0179662D01*
X0364042Y0178230D01*
X0363494Y0176906D01*
X0362481Y0175894D01*
X0361158Y0175346D01*
X0359726Y0175346D01*
X0358983Y0175653D01*
X0359557Y0175079D01*
X0360105Y0173756D01*
X0360105Y0172324D01*
X0359557Y0171001D01*
X0358544Y0169988D01*
X0357221Y0169440D01*
X0355789Y0169440D01*
X0354465Y0169988D01*
X0353453Y0171001D01*
X0352905Y0172324D01*
X0352905Y0173246D01*
X0351523Y0174628D01*
X0351523Y0154354D01*
X0351157Y0153472D01*
X0350482Y0152797D01*
X0348570Y0150885D01*
X0348570Y0137033D01*
X0349740Y0135863D01*
X0349740Y0132383D01*
X0348078Y0130721D01*
X0348078Y0129257D01*
X0349858Y0127477D01*
X0349858Y0123997D01*
X0348078Y0122217D01*
X0348078Y0120871D01*
X0349898Y0119052D01*
X0349898Y0115572D01*
X0348078Y0113752D01*
X0348078Y0112092D01*
X0349819Y0110351D01*
X0349819Y0106871D01*
X0348078Y0105130D01*
X0348078Y0103233D01*
X0349583Y0101729D01*
X0349583Y0098249D01*
X0347122Y0095789D01*
X0343643Y0095789D01*
X0341183Y0098249D01*
X0341183Y0101729D01*
X0343278Y0103824D01*
X0343278Y0105012D01*
X0341419Y0106871D01*
X0341419Y0110351D01*
X0343278Y0112210D01*
X0343278Y0113792D01*
X0342495Y0114575D01*
X0342299Y0114102D01*
X0341624Y0113427D01*
X0341624Y0113427D01*
X0339183Y0110986D01*
X0339819Y0110351D01*
X0339819Y0106871D01*
X0337359Y0104411D01*
X0333879Y0104411D01*
X0331419Y0106871D01*
X0331419Y0107159D01*
X0297024Y0072763D01*
X0297024Y0072763D01*
X0296348Y0072088D01*
X0295466Y0071723D01*
X0244800Y0071723D01*
X0247069Y0069453D01*
X0247069Y0067648D01*
X0242569Y0067648D01*
X0242569Y0067448D01*
X0242569Y0062948D01*
X0244375Y0062948D01*
X0247069Y0065643D01*
X0247069Y0067448D01*
X0242569Y0067448D01*
X0242369Y0067448D01*
X0237869Y0067448D01*
X0237869Y0065643D01*
X0240564Y0062948D01*
X0242369Y0062948D01*
X0242369Y0067448D01*
X0242369Y0067648D01*
X0237869Y0067648D01*
X0237869Y0069453D01*
X0240353Y0071937D01*
X0239988Y0072088D01*
X0239313Y0072763D01*
X0235924Y0076152D01*
X0220001Y0076152D01*
X0220341Y0075331D01*
X0220341Y0073899D01*
X0219793Y0072576D01*
X0218780Y0071563D01*
X0217457Y0071015D01*
X0216025Y0071015D01*
X0214702Y0071563D01*
X0214050Y0072215D01*
X0180333Y0072215D01*
X0132654Y0024535D01*
X0132041Y0023923D01*
X0133641Y0022323D01*
X0133641Y0020501D01*
X0129241Y0020501D01*
X0129241Y0020501D01*
X0129635Y0020973D01*
X0157194Y0020973D01*
X0157194Y0020501D01*
X0161594Y0020501D01*
X0161594Y0022323D01*
X0159016Y0024901D01*
X0157194Y0024901D01*
X0157194Y0020501D01*
X0157194Y0020501D01*
X0157194Y0020501D01*
X0161594Y0020501D01*
X0161594Y0018678D01*
X0159016Y0016101D01*
X0157194Y0016101D01*
X0157194Y0020501D01*
X0157686Y0021465D01*
X0196564Y0021465D01*
X0242331Y0067233D01*
X0242469Y0067548D01*
X0242369Y0066213D02*
X0242569Y0066213D01*
X0242569Y0064614D02*
X0242369Y0064614D01*
X0242369Y0063016D02*
X0242569Y0063016D01*
X0244443Y0063016D02*
X0374215Y0063016D01*
X0374214Y0064614D02*
X0246041Y0064614D01*
X0247069Y0066213D02*
X0374212Y0066213D01*
X0374210Y0067811D02*
X0247069Y0067811D01*
X0247069Y0069410D02*
X0374208Y0069410D01*
X0374206Y0071008D02*
X0245514Y0071008D01*
X0241347Y0074123D02*
X0294989Y0074123D01*
X0333867Y0113001D01*
X0337804Y0113001D01*
X0340265Y0115461D01*
X0340265Y0152863D01*
X0294005Y0152863D01*
X0290633Y0154131D02*
X0280458Y0154131D01*
X0278860Y0152533D02*
X0290405Y0152533D01*
X0290405Y0152147D02*
X0290953Y0150824D01*
X0291965Y0149811D01*
X0292677Y0149516D01*
X0268620Y0125459D01*
X0267698Y0125459D01*
X0266375Y0124911D01*
X0265893Y0124429D01*
X0265893Y0126473D01*
X0266714Y0126133D01*
X0268146Y0126133D01*
X0269469Y0126681D01*
X0270482Y0127694D01*
X0271030Y0129017D01*
X0271030Y0130449D01*
X0270482Y0131772D01*
X0269830Y0132424D01*
X0269830Y0143503D01*
X0287919Y0161592D01*
X0287972Y0161260D01*
X0288239Y0160437D01*
X0288632Y0159665D01*
X0289141Y0158965D01*
X0289753Y0158353D01*
X0290454Y0157844D01*
X0291225Y0157451D01*
X0292048Y0157183D01*
X0292903Y0157048D01*
X0296736Y0157048D01*
X0296736Y0162248D01*
X0297336Y0162248D01*
X0297336Y0157048D01*
X0301169Y0157048D01*
X0302024Y0157183D01*
X0302847Y0157451D01*
X0303619Y0157844D01*
X0304319Y0158353D01*
X0304931Y0158965D01*
X0305440Y0159665D01*
X0305833Y0160437D01*
X0306101Y0161260D01*
X0306236Y0162115D01*
X0306236Y0162248D01*
X0297336Y0162248D01*
X0297336Y0162848D01*
X0306236Y0162848D01*
X0306236Y0162981D01*
X0306101Y0163836D01*
X0305833Y0164659D01*
X0305440Y0165431D01*
X0304931Y0166131D01*
X0304319Y0166743D01*
X0303619Y0167252D01*
X0302847Y0167645D01*
X0302792Y0167663D01*
X0303738Y0168055D01*
X0305229Y0169546D01*
X0306036Y0171494D01*
X0306036Y0173602D01*
X0305229Y0175550D01*
X0305030Y0175750D01*
X0308342Y0179063D01*
X0308708Y0179945D01*
X0308708Y0179991D01*
X0328256Y0179991D01*
X0327636Y0179371D01*
X0327636Y0175725D01*
X0330214Y0173148D01*
X0333859Y0173148D01*
X0336436Y0175725D01*
X0336436Y0179371D01*
X0335816Y0179991D01*
X0338256Y0179991D01*
X0337636Y0179371D01*
X0337636Y0175725D01*
X0340214Y0173148D01*
X0343160Y0173148D01*
X0344262Y0172046D01*
X0344262Y0171545D01*
X0343859Y0171948D01*
X0340214Y0171948D01*
X0337636Y0169371D01*
X0337636Y0165725D01*
X0340214Y0163148D01*
X0343859Y0163148D01*
X0344262Y0163552D01*
X0344262Y0161827D01*
X0343942Y0162148D01*
X0342136Y0162148D01*
X0342136Y0157648D01*
X0341936Y0157648D01*
X0341936Y0157448D01*
X0337436Y0157448D01*
X0337436Y0155643D01*
X0337816Y0155263D01*
X0336257Y0155263D01*
X0336636Y0155643D01*
X0336636Y0157448D01*
X0332136Y0157448D01*
X0332136Y0157648D01*
X0331936Y0157648D01*
X0331936Y0157448D01*
X0327436Y0157448D01*
X0327436Y0155643D01*
X0327816Y0155263D01*
X0296696Y0155263D01*
X0296044Y0155915D01*
X0294721Y0156463D01*
X0293289Y0156463D01*
X0291965Y0155915D01*
X0290953Y0154902D01*
X0290405Y0153579D01*
X0290405Y0152147D01*
X0290907Y0150934D02*
X0277261Y0150934D01*
X0275663Y0149335D02*
X0292497Y0149335D01*
X0290898Y0147737D02*
X0274064Y0147737D01*
X0272466Y0146138D02*
X0289299Y0146138D01*
X0287701Y0144540D02*
X0270867Y0144540D01*
X0269830Y0142941D02*
X0286102Y0142941D01*
X0284504Y0141343D02*
X0269830Y0141343D01*
X0269830Y0139744D02*
X0282905Y0139744D01*
X0281307Y0138146D02*
X0269830Y0138146D01*
X0269830Y0136547D02*
X0279708Y0136547D01*
X0278110Y0134949D02*
X0269830Y0134949D01*
X0269830Y0133350D02*
X0276511Y0133350D01*
X0274913Y0131752D02*
X0270490Y0131752D01*
X0271030Y0130153D02*
X0273314Y0130153D01*
X0271716Y0128555D02*
X0270838Y0128555D01*
X0270117Y0126956D02*
X0269744Y0126956D01*
X0267454Y0125358D02*
X0265893Y0125358D01*
X0267430Y0129733D02*
X0267430Y0144497D01*
X0294989Y0172056D01*
X0296465Y0172056D01*
X0297036Y0172548D01*
X0298434Y0172548D01*
X0306308Y0180422D01*
X0306308Y0182391D01*
X0343709Y0182391D01*
X0349123Y0176977D01*
X0349123Y0154831D01*
X0346170Y0151879D01*
X0346170Y0134654D01*
X0345540Y0134123D01*
X0345678Y0133670D01*
X0345678Y0125796D01*
X0345658Y0125737D01*
X0345678Y0125304D01*
X0345678Y0117430D01*
X0345698Y0117312D01*
X0345678Y0116938D01*
X0345678Y0109064D01*
X0345619Y0108611D01*
X0345678Y0108572D01*
X0345678Y0100206D01*
X0345383Y0099989D01*
X0349583Y0099782D02*
X0374174Y0099782D01*
X0374172Y0101380D02*
X0349583Y0101380D01*
X0348333Y0102979D02*
X0374171Y0102979D01*
X0374169Y0104577D02*
X0348078Y0104577D01*
X0349123Y0106176D02*
X0374167Y0106176D01*
X0374165Y0107774D02*
X0349819Y0107774D01*
X0349819Y0109373D02*
X0374163Y0109373D01*
X0374162Y0110971D02*
X0349198Y0110971D01*
X0348078Y0112570D02*
X0374160Y0112570D01*
X0374158Y0114168D02*
X0348494Y0114168D01*
X0349898Y0115767D02*
X0374156Y0115767D01*
X0374155Y0117365D02*
X0349898Y0117365D01*
X0349898Y0118964D02*
X0374153Y0118964D01*
X0374151Y0120562D02*
X0348387Y0120562D01*
X0348078Y0122161D02*
X0374149Y0122161D01*
X0374147Y0123759D02*
X0349620Y0123759D01*
X0349858Y0125358D02*
X0374146Y0125358D01*
X0374144Y0126956D02*
X0349858Y0126956D01*
X0348780Y0128555D02*
X0374142Y0128555D01*
X0374140Y0130153D02*
X0348078Y0130153D01*
X0349109Y0131752D02*
X0374138Y0131752D01*
X0374137Y0133350D02*
X0349740Y0133350D01*
X0349740Y0134949D02*
X0374135Y0134949D01*
X0374133Y0136547D02*
X0349055Y0136547D01*
X0348570Y0138146D02*
X0374131Y0138146D01*
X0374129Y0139744D02*
X0348570Y0139744D01*
X0348570Y0141343D02*
X0374128Y0141343D01*
X0374126Y0142941D02*
X0348570Y0142941D01*
X0348570Y0144540D02*
X0374124Y0144540D01*
X0374122Y0146138D02*
X0348570Y0146138D01*
X0348570Y0147737D02*
X0374120Y0147737D01*
X0374119Y0149335D02*
X0348570Y0149335D01*
X0348619Y0150934D02*
X0374117Y0150934D01*
X0374115Y0152533D02*
X0350218Y0152533D01*
X0351430Y0154131D02*
X0374113Y0154131D01*
X0374112Y0155730D02*
X0351523Y0155730D01*
X0351523Y0157328D02*
X0374110Y0157328D01*
X0374108Y0158927D02*
X0351523Y0158927D01*
X0351523Y0160525D02*
X0374106Y0160525D01*
X0374104Y0162124D02*
X0351523Y0162124D01*
X0351523Y0163722D02*
X0374103Y0163722D01*
X0374101Y0165321D02*
X0351523Y0165321D01*
X0351523Y0166919D02*
X0374099Y0166919D01*
X0374097Y0168518D02*
X0351523Y0168518D01*
X0351523Y0170116D02*
X0354338Y0170116D01*
X0353157Y0171715D02*
X0351523Y0171715D01*
X0351523Y0173313D02*
X0352838Y0173313D01*
X0356505Y0173040D02*
X0342233Y0187312D01*
X0342036Y0187548D01*
X0337636Y0187700D02*
X0336436Y0187700D01*
X0336436Y0189298D02*
X0337636Y0189298D01*
X0339162Y0190897D02*
X0334910Y0190897D01*
X0333859Y0193148D02*
X0330214Y0193148D01*
X0327636Y0195725D01*
X0327636Y0199371D01*
X0330214Y0201948D01*
X0333859Y0201948D01*
X0336436Y0199371D01*
X0336436Y0195725D01*
X0333859Y0193148D01*
X0334805Y0194094D02*
X0339268Y0194094D01*
X0337669Y0195692D02*
X0336403Y0195692D01*
X0336436Y0197291D02*
X0337636Y0197291D01*
X0337636Y0198889D02*
X0336436Y0198889D01*
X0335319Y0200488D02*
X0338754Y0200488D01*
X0340214Y0203148D02*
X0343180Y0203148D01*
X0356842Y0189486D01*
X0356842Y0188564D01*
X0357390Y0187241D01*
X0358402Y0186228D01*
X0359726Y0185680D01*
X0361158Y0185680D01*
X0362481Y0186228D01*
X0363494Y0187241D01*
X0364042Y0188564D01*
X0364042Y0189996D01*
X0363494Y0191320D01*
X0362481Y0192332D01*
X0361158Y0192880D01*
X0360236Y0192880D01*
X0346436Y0206680D01*
X0346436Y0209371D01*
X0343859Y0211948D01*
X0340214Y0211948D01*
X0337636Y0209371D01*
X0337636Y0205725D01*
X0340214Y0203148D01*
X0339677Y0203685D02*
X0334396Y0203685D01*
X0333859Y0203148D02*
X0336436Y0205725D01*
X0336436Y0209371D01*
X0333859Y0211948D01*
X0330214Y0211948D01*
X0327636Y0209371D01*
X0327636Y0205725D01*
X0330214Y0203148D01*
X0333859Y0203148D01*
X0335994Y0205283D02*
X0338078Y0205283D01*
X0337636Y0206882D02*
X0336436Y0206882D01*
X0336436Y0208480D02*
X0337636Y0208480D01*
X0338345Y0210079D02*
X0335728Y0210079D01*
X0334129Y0211677D02*
X0339943Y0211677D01*
X0340214Y0213148D02*
X0343859Y0213148D01*
X0346436Y0215725D01*
X0346436Y0219371D01*
X0343859Y0221948D01*
X0340214Y0221948D01*
X0337636Y0219371D01*
X0337636Y0215725D01*
X0340214Y0213148D01*
X0340086Y0213276D02*
X0333987Y0213276D01*
X0335585Y0214874D02*
X0338487Y0214874D01*
X0337636Y0216473D02*
X0336436Y0216473D01*
X0336436Y0218071D02*
X0337636Y0218071D01*
X0337936Y0219670D02*
X0336137Y0219670D01*
X0334538Y0221268D02*
X0339534Y0221268D01*
X0338896Y0224466D02*
X0335176Y0224466D01*
X0333806Y0222867D02*
X0352792Y0222867D01*
X0352249Y0223410D02*
X0354316Y0221344D01*
X0356847Y0219882D01*
X0359669Y0219126D01*
X0362592Y0219126D01*
X0365415Y0219882D01*
X0367946Y0221344D01*
X0370012Y0223410D01*
X0371474Y0225941D01*
X0372230Y0228764D01*
X0372230Y0231686D01*
X0371474Y0234509D01*
X0370012Y0237040D01*
X0367946Y0239107D01*
X0365415Y0240568D01*
X0362592Y0241324D01*
X0359669Y0241324D01*
X0356847Y0240568D01*
X0354316Y0239107D01*
X0352249Y0237040D01*
X0350788Y0234509D01*
X0350031Y0231686D01*
X0350031Y0228764D01*
X0350788Y0225941D01*
X0352249Y0223410D01*
X0351640Y0224466D02*
X0345176Y0224466D01*
X0346436Y0226064D02*
X0350755Y0226064D01*
X0350327Y0227663D02*
X0346436Y0227663D01*
X0346436Y0229261D02*
X0350031Y0229261D01*
X0350031Y0230860D02*
X0344947Y0230860D01*
X0339125Y0230860D02*
X0334947Y0230860D01*
X0332391Y0227666D02*
X0332036Y0227548D01*
X0331406Y0227174D01*
X0331406Y0223237D01*
X0306308Y0198139D01*
X0306308Y0182391D01*
X0308609Y0179707D02*
X0327973Y0179707D01*
X0327636Y0178109D02*
X0307389Y0178109D01*
X0305790Y0176510D02*
X0327636Y0176510D01*
X0328450Y0174912D02*
X0305494Y0174912D01*
X0306036Y0173313D02*
X0330049Y0173313D01*
X0330214Y0171948D02*
X0327636Y0169371D01*
X0327636Y0165725D01*
X0330214Y0163148D01*
X0333859Y0163148D01*
X0336436Y0165725D01*
X0336436Y0169371D01*
X0333859Y0171948D01*
X0330214Y0171948D01*
X0329980Y0171715D02*
X0306036Y0171715D01*
X0305466Y0170116D02*
X0328382Y0170116D01*
X0327636Y0168518D02*
X0304201Y0168518D01*
X0304077Y0166919D02*
X0327636Y0166919D01*
X0328041Y0165321D02*
X0305496Y0165321D01*
X0306119Y0163722D02*
X0329640Y0163722D01*
X0330131Y0162148D02*
X0327436Y0159453D01*
X0327436Y0157648D01*
X0331936Y0157648D01*
X0331936Y0162148D01*
X0330131Y0162148D01*
X0330106Y0162124D02*
X0306236Y0162124D01*
X0305862Y0160525D02*
X0328508Y0160525D01*
X0327436Y0158927D02*
X0304893Y0158927D01*
X0302469Y0157328D02*
X0327436Y0157328D01*
X0327436Y0155730D02*
X0296229Y0155730D01*
X0296736Y0157328D02*
X0297336Y0157328D01*
X0297336Y0158927D02*
X0296736Y0158927D01*
X0296736Y0160525D02*
X0297336Y0160525D01*
X0297336Y0162124D02*
X0296736Y0162124D01*
X0297036Y0162548D02*
X0297450Y0162213D01*
X0301879Y0157784D01*
X0331406Y0157784D01*
X0332036Y0157548D01*
X0332391Y0157784D01*
X0341741Y0157784D01*
X0342036Y0157548D01*
X0341936Y0157648D02*
X0337436Y0157648D01*
X0337436Y0159453D01*
X0340131Y0162148D01*
X0341936Y0162148D01*
X0341936Y0157648D01*
X0341936Y0158927D02*
X0342136Y0158927D01*
X0342136Y0160525D02*
X0341936Y0160525D01*
X0341936Y0162124D02*
X0342136Y0162124D01*
X0343966Y0162124D02*
X0344262Y0162124D01*
X0340106Y0162124D02*
X0333966Y0162124D01*
X0333942Y0162148D02*
X0332136Y0162148D01*
X0332136Y0157648D01*
X0336636Y0157648D01*
X0336636Y0159453D01*
X0333942Y0162148D01*
X0334433Y0163722D02*
X0339640Y0163722D01*
X0338041Y0165321D02*
X0336031Y0165321D01*
X0336436Y0166919D02*
X0337636Y0166919D01*
X0337636Y0168518D02*
X0336436Y0168518D01*
X0335691Y0170116D02*
X0338382Y0170116D01*
X0339980Y0171715D02*
X0334092Y0171715D01*
X0334024Y0173313D02*
X0340049Y0173313D01*
X0338450Y0174912D02*
X0335622Y0174912D01*
X0336436Y0176510D02*
X0337636Y0176510D01*
X0337636Y0178109D02*
X0336436Y0178109D01*
X0336100Y0179707D02*
X0337973Y0179707D01*
X0342036Y0177548D02*
X0342233Y0177469D01*
X0346662Y0173040D01*
X0346662Y0155816D01*
X0343709Y0152863D01*
X0340265Y0152863D01*
X0337865Y0150463D02*
X0337865Y0137738D01*
X0337280Y0138323D01*
X0333800Y0138323D01*
X0331340Y0135863D01*
X0331340Y0133685D01*
X0327132Y0137893D01*
X0327132Y0138815D01*
X0326584Y0140138D01*
X0325572Y0141151D01*
X0324248Y0141699D01*
X0322816Y0141699D01*
X0321493Y0141151D01*
X0320480Y0140138D01*
X0319932Y0138815D01*
X0319932Y0137383D01*
X0320480Y0136060D01*
X0321493Y0135047D01*
X0322816Y0134499D01*
X0323738Y0134499D01*
X0331458Y0126779D01*
X0331458Y0124813D01*
X0321554Y0114909D01*
X0319826Y0114909D01*
X0319174Y0115561D01*
X0317851Y0116109D01*
X0316419Y0116109D01*
X0315095Y0115561D01*
X0314083Y0114548D01*
X0313788Y0113836D01*
X0302034Y0125590D01*
X0302034Y0126512D01*
X0301486Y0127835D01*
X0300473Y0128848D01*
X0299150Y0129396D01*
X0298046Y0129396D01*
X0298317Y0129667D01*
X0298992Y0130342D01*
X0299357Y0131224D01*
X0299357Y0142298D01*
X0300009Y0142950D01*
X0300557Y0144273D01*
X0300557Y0145326D01*
X0301611Y0145326D01*
X0302934Y0145874D01*
X0303946Y0146887D01*
X0304494Y0148210D01*
X0304494Y0149642D01*
X0304154Y0150463D01*
X0337865Y0150463D01*
X0337865Y0149335D02*
X0304494Y0149335D01*
X0304299Y0147737D02*
X0337865Y0147737D01*
X0337865Y0146138D02*
X0303198Y0146138D01*
X0300557Y0144540D02*
X0337865Y0144540D01*
X0337865Y0142941D02*
X0300001Y0142941D01*
X0299357Y0141343D02*
X0321956Y0141343D01*
X0320317Y0139744D02*
X0299357Y0139744D01*
X0299357Y0138146D02*
X0319932Y0138146D01*
X0320278Y0136547D02*
X0299357Y0136547D01*
X0299357Y0134949D02*
X0321731Y0134949D01*
X0324887Y0133350D02*
X0299357Y0133350D01*
X0299357Y0131752D02*
X0326486Y0131752D01*
X0328084Y0130153D02*
X0298803Y0130153D01*
X0296957Y0131702D02*
X0296957Y0144989D01*
X0293611Y0143662D02*
X0293906Y0142950D01*
X0294557Y0142298D01*
X0294557Y0132696D01*
X0262903Y0101041D01*
X0262608Y0101753D01*
X0261956Y0102405D01*
X0261956Y0105312D01*
X0262777Y0104972D01*
X0264209Y0104972D01*
X0265532Y0105520D01*
X0266545Y0106532D01*
X0267093Y0107856D01*
X0267093Y0109288D01*
X0266545Y0110611D01*
X0265893Y0111263D01*
X0265893Y0119289D01*
X0266375Y0118807D01*
X0267698Y0118259D01*
X0269130Y0118259D01*
X0270453Y0118807D01*
X0271466Y0119820D01*
X0272014Y0121143D01*
X0272014Y0122065D01*
X0293611Y0143662D01*
X0293914Y0142941D02*
X0292891Y0142941D01*
X0291292Y0141343D02*
X0294557Y0141343D01*
X0294557Y0139744D02*
X0289694Y0139744D01*
X0288095Y0138146D02*
X0294557Y0138146D01*
X0294557Y0136547D02*
X0286497Y0136547D01*
X0284898Y0134949D02*
X0294557Y0134949D01*
X0294557Y0133350D02*
X0283300Y0133350D01*
X0281701Y0131752D02*
X0293614Y0131752D01*
X0292015Y0130153D02*
X0280103Y0130153D01*
X0278504Y0128555D02*
X0290417Y0128555D01*
X0288818Y0126956D02*
X0276906Y0126956D01*
X0275307Y0125358D02*
X0287220Y0125358D01*
X0285621Y0123759D02*
X0273709Y0123759D01*
X0272110Y0122161D02*
X0284023Y0122161D01*
X0282424Y0120562D02*
X0271774Y0120562D01*
X0270610Y0118964D02*
X0280826Y0118964D01*
X0279227Y0117365D02*
X0265893Y0117365D01*
X0265893Y0115767D02*
X0277629Y0115767D01*
X0276030Y0114168D02*
X0265893Y0114168D01*
X0265893Y0112570D02*
X0274432Y0112570D01*
X0272833Y0110971D02*
X0266185Y0110971D01*
X0267058Y0109373D02*
X0271235Y0109373D01*
X0269636Y0107774D02*
X0267059Y0107774D01*
X0266188Y0106176D02*
X0268037Y0106176D01*
X0266439Y0104577D02*
X0261956Y0104577D01*
X0261956Y0102979D02*
X0264840Y0102979D01*
X0263242Y0101380D02*
X0262762Y0101380D01*
X0259556Y0099713D02*
X0259556Y0133178D01*
X0262509Y0136131D01*
X0262509Y0139083D01*
X0255127Y0146465D01*
X0254635Y0146465D01*
X0254635Y0111524D01*
X0248237Y0105127D01*
X0245284Y0105127D01*
X0245146Y0105048D01*
X0244792Y0100206D02*
X0241839Y0100206D01*
X0226091Y0115954D01*
X0222779Y0117365D02*
X0214383Y0117365D01*
X0214201Y0117548D02*
X0214857Y0118204D01*
X0214857Y0119533D01*
X0217608Y0122285D01*
X0218283Y0122960D01*
X0218649Y0123842D01*
X0218649Y0127534D01*
X0219301Y0128186D01*
X0219596Y0128898D01*
X0235066Y0113427D01*
X0235949Y0113061D01*
X0239359Y0113061D01*
X0239872Y0112548D01*
X0239216Y0111892D01*
X0239216Y0108204D01*
X0239872Y0107548D01*
X0239216Y0106892D01*
X0239216Y0106223D01*
X0229691Y0115748D01*
X0229691Y0116670D01*
X0229143Y0117993D01*
X0228131Y0119005D01*
X0226807Y0119554D01*
X0225375Y0119554D01*
X0224052Y0119005D01*
X0223039Y0117993D01*
X0222491Y0116670D01*
X0222491Y0115237D01*
X0223039Y0113914D01*
X0224052Y0112902D01*
X0225375Y0112354D01*
X0226297Y0112354D01*
X0239216Y0099435D01*
X0239216Y0098204D01*
X0239872Y0097548D01*
X0239216Y0096892D01*
X0239216Y0093204D01*
X0239872Y0092548D01*
X0239216Y0091892D01*
X0239216Y0088204D01*
X0239872Y0087548D01*
X0239216Y0086892D01*
X0239216Y0086538D01*
X0228927Y0096827D01*
X0228045Y0097192D01*
X0226814Y0097192D01*
X0226162Y0097844D01*
X0224839Y0098392D01*
X0223407Y0098392D01*
X0222084Y0097844D01*
X0221071Y0096831D01*
X0220523Y0095508D01*
X0220523Y0094076D01*
X0221071Y0092753D01*
X0222084Y0091740D01*
X0223407Y0091192D01*
X0224839Y0091192D01*
X0226162Y0091740D01*
X0226694Y0092272D01*
X0235553Y0083413D01*
X0214998Y0083413D01*
X0215057Y0083630D01*
X0215057Y0085048D01*
X0215057Y0086466D01*
X0214934Y0086924D01*
X0214697Y0087334D01*
X0214362Y0087669D01*
X0214337Y0087684D01*
X0214857Y0088204D01*
X0214857Y0091892D01*
X0214201Y0092548D01*
X0214857Y0093204D01*
X0214857Y0096892D01*
X0214201Y0097548D01*
X0214857Y0098204D01*
X0214857Y0101892D01*
X0214201Y0102548D01*
X0214857Y0103204D01*
X0214857Y0106892D01*
X0214201Y0107548D01*
X0214857Y0108204D01*
X0214857Y0111892D01*
X0214201Y0112548D01*
X0214857Y0113204D01*
X0214857Y0116892D01*
X0214201Y0117548D01*
X0214857Y0118964D02*
X0224010Y0118964D01*
X0222491Y0115767D02*
X0214857Y0115767D01*
X0214857Y0114168D02*
X0222934Y0114168D01*
X0221662Y0112509D02*
X0221662Y0097745D01*
X0220186Y0096269D01*
X0220186Y0084950D01*
X0209359Y0084950D01*
X0208926Y0085048D01*
X0208375Y0084950D01*
X0201485Y0084950D01*
X0202795Y0085048D02*
X0202795Y0086466D01*
X0202918Y0086924D01*
X0203155Y0087334D01*
X0203490Y0087669D01*
X0203515Y0087684D01*
X0202995Y0088204D01*
X0202995Y0091892D01*
X0203651Y0092548D01*
X0202995Y0093204D01*
X0202995Y0096892D01*
X0203651Y0097548D01*
X0203394Y0097806D01*
X0202484Y0097806D01*
X0201602Y0098171D01*
X0189388Y0110385D01*
X0188466Y0110385D01*
X0187143Y0110933D01*
X0186130Y0111946D01*
X0185582Y0113269D01*
X0185582Y0113881D01*
X0182447Y0110746D01*
X0182447Y0109824D01*
X0181899Y0108501D01*
X0180886Y0107488D01*
X0179563Y0106940D01*
X0178131Y0106940D01*
X0176808Y0107488D01*
X0175795Y0108501D01*
X0175247Y0109824D01*
X0175247Y0111256D01*
X0175795Y0112579D01*
X0176277Y0113061D01*
X0165934Y0113061D01*
X0165421Y0112548D01*
X0166077Y0111892D01*
X0166077Y0108204D01*
X0165421Y0107548D01*
X0165934Y0107035D01*
X0176864Y0107035D01*
X0177746Y0106669D01*
X0201003Y0083413D01*
X0202854Y0083413D01*
X0202795Y0083630D01*
X0202795Y0085048D01*
X0208926Y0085048D01*
X0208926Y0085048D01*
X0215057Y0085048D01*
X0208926Y0085048D01*
X0208926Y0085048D01*
X0202795Y0085048D01*
X0202795Y0085395D02*
X0199020Y0085395D01*
X0197422Y0086994D02*
X0202958Y0086994D01*
X0202995Y0088592D02*
X0195823Y0088592D01*
X0194225Y0090191D02*
X0202995Y0090191D01*
X0202995Y0091789D02*
X0192626Y0091789D01*
X0191028Y0093388D02*
X0202995Y0093388D01*
X0202995Y0094986D02*
X0189429Y0094986D01*
X0187831Y0096585D02*
X0202995Y0096585D01*
X0201590Y0098183D02*
X0186232Y0098183D01*
X0184634Y0099782D02*
X0199991Y0099782D01*
X0198393Y0101380D02*
X0183035Y0101380D01*
X0181437Y0102979D02*
X0196794Y0102979D01*
X0195196Y0104577D02*
X0179838Y0104577D01*
X0178240Y0106176D02*
X0193597Y0106176D01*
X0191999Y0107774D02*
X0181172Y0107774D01*
X0182260Y0109373D02*
X0190400Y0109373D01*
X0187105Y0110971D02*
X0182672Y0110971D01*
X0184271Y0112570D02*
X0185872Y0112570D01*
X0189182Y0113985D02*
X0202961Y0100206D01*
X0208867Y0100206D01*
X0208926Y0100048D01*
X0208926Y0105048D02*
X0208867Y0105127D01*
X0203454Y0105127D01*
X0198532Y0110048D01*
X0205422Y0110048D02*
X0197548Y0117922D01*
X0198040Y0122843D02*
X0205422Y0115461D01*
X0208867Y0115461D01*
X0208926Y0115048D01*
X0208926Y0110048D02*
X0205422Y0110048D01*
X0214222Y0112570D02*
X0224853Y0112570D01*
X0227680Y0110971D02*
X0214857Y0110971D01*
X0214857Y0109373D02*
X0229278Y0109373D01*
X0230877Y0107774D02*
X0214427Y0107774D01*
X0214857Y0106176D02*
X0232475Y0106176D01*
X0234074Y0104577D02*
X0214857Y0104577D01*
X0214631Y0102979D02*
X0235672Y0102979D01*
X0237271Y0101380D02*
X0214857Y0101380D01*
X0214857Y0099782D02*
X0238869Y0099782D01*
X0239237Y0098183D02*
X0225343Y0098183D01*
X0222902Y0098183D02*
X0214836Y0098183D01*
X0214857Y0096585D02*
X0220969Y0096585D01*
X0220523Y0094986D02*
X0214857Y0094986D01*
X0214857Y0093388D02*
X0220808Y0093388D01*
X0222035Y0091789D02*
X0214857Y0091789D01*
X0214857Y0090191D02*
X0228775Y0090191D01*
X0227177Y0091789D02*
X0226211Y0091789D01*
X0227568Y0094792D02*
X0224123Y0094792D01*
X0227568Y0094792D02*
X0240363Y0081997D01*
X0299418Y0081997D01*
X0334359Y0116938D01*
X0335343Y0116938D01*
X0335698Y0117312D01*
X0342327Y0114168D02*
X0342902Y0114168D01*
X0343278Y0112570D02*
X0340767Y0112570D01*
X0342039Y0110971D02*
X0339198Y0110971D01*
X0339819Y0109373D02*
X0341419Y0109373D01*
X0341419Y0107774D02*
X0339819Y0107774D01*
X0339123Y0106176D02*
X0342115Y0106176D01*
X0343278Y0104577D02*
X0337525Y0104577D01*
X0337122Y0104189D02*
X0333643Y0104189D01*
X0331183Y0101729D01*
X0331183Y0098249D01*
X0333643Y0095789D01*
X0337122Y0095789D01*
X0339583Y0098249D01*
X0339583Y0101729D01*
X0337122Y0104189D01*
X0338333Y0102979D02*
X0342433Y0102979D01*
X0341183Y0101380D02*
X0339583Y0101380D01*
X0339583Y0099782D02*
X0341183Y0099782D01*
X0341249Y0098183D02*
X0339517Y0098183D01*
X0337918Y0096585D02*
X0342847Y0096585D01*
X0347918Y0096585D02*
X0374178Y0096585D01*
X0374176Y0098183D02*
X0349517Y0098183D01*
X0332847Y0096585D02*
X0320845Y0096585D01*
X0322443Y0098183D02*
X0331249Y0098183D01*
X0331183Y0099782D02*
X0324042Y0099782D01*
X0325640Y0101380D02*
X0331183Y0101380D01*
X0332433Y0102979D02*
X0327239Y0102979D01*
X0328837Y0104577D02*
X0333713Y0104577D01*
X0332115Y0106176D02*
X0330436Y0106176D01*
X0322548Y0112509D02*
X0335343Y0125304D01*
X0335658Y0125737D01*
X0335343Y0126288D01*
X0323532Y0138099D01*
X0327132Y0138146D02*
X0333624Y0138146D01*
X0332025Y0136547D02*
X0328478Y0136547D01*
X0330077Y0134949D02*
X0331340Y0134949D01*
X0329683Y0128555D02*
X0300766Y0128555D01*
X0301850Y0126956D02*
X0331281Y0126956D01*
X0331458Y0125358D02*
X0302266Y0125358D01*
X0303865Y0123759D02*
X0330405Y0123759D01*
X0328806Y0122161D02*
X0305463Y0122161D01*
X0307062Y0120562D02*
X0327208Y0120562D01*
X0325609Y0118964D02*
X0308660Y0118964D01*
X0310259Y0117365D02*
X0324011Y0117365D01*
X0322412Y0115767D02*
X0318676Y0115767D01*
X0315593Y0115767D02*
X0311857Y0115767D01*
X0313456Y0114168D02*
X0313925Y0114168D01*
X0317135Y0112509D02*
X0322548Y0112509D01*
X0318119Y0106111D02*
X0298434Y0125796D01*
X0294834Y0126184D02*
X0294834Y0125080D01*
X0295382Y0123757D01*
X0296395Y0122744D01*
X0297718Y0122196D01*
X0298640Y0122196D01*
X0314519Y0106317D01*
X0314519Y0105395D01*
X0315067Y0104072D01*
X0316080Y0103059D01*
X0316791Y0102764D01*
X0298424Y0084397D01*
X0251077Y0084397D01*
X0251077Y0086892D01*
X0250421Y0087548D01*
X0251077Y0088204D01*
X0251077Y0091892D01*
X0250421Y0092548D01*
X0250757Y0092884D01*
X0261018Y0092884D01*
X0261900Y0093250D01*
X0294834Y0126184D01*
X0294834Y0125358D02*
X0294008Y0125358D01*
X0295381Y0123759D02*
X0292409Y0123759D01*
X0290811Y0122161D02*
X0298675Y0122161D01*
X0300274Y0120562D02*
X0289212Y0120562D01*
X0287614Y0118964D02*
X0301872Y0118964D01*
X0303471Y0117365D02*
X0286015Y0117365D01*
X0284417Y0115767D02*
X0305069Y0115767D01*
X0306668Y0114168D02*
X0282818Y0114168D01*
X0281220Y0112570D02*
X0308266Y0112570D01*
X0309865Y0110971D02*
X0279621Y0110971D01*
X0278023Y0109373D02*
X0311463Y0109373D01*
X0313062Y0107774D02*
X0276424Y0107774D01*
X0274826Y0106176D02*
X0314519Y0106176D01*
X0314858Y0104577D02*
X0273227Y0104577D01*
X0271629Y0102979D02*
X0316274Y0102979D01*
X0315407Y0101380D02*
X0270030Y0101380D01*
X0268432Y0099782D02*
X0313809Y0099782D01*
X0312210Y0098183D02*
X0266833Y0098183D01*
X0265235Y0096585D02*
X0310612Y0096585D01*
X0309013Y0094986D02*
X0263636Y0094986D01*
X0262038Y0093388D02*
X0307415Y0093388D01*
X0305816Y0091789D02*
X0251077Y0091789D01*
X0251077Y0090191D02*
X0304218Y0090191D01*
X0302619Y0088592D02*
X0251077Y0088592D01*
X0250975Y0086994D02*
X0301021Y0086994D01*
X0299422Y0085395D02*
X0251077Y0085395D01*
X0246576Y0079597D02*
X0297069Y0079597D01*
X0293995Y0076523D01*
X0246576Y0076523D01*
X0246916Y0077344D01*
X0246916Y0078776D01*
X0246576Y0079597D01*
X0246823Y0079001D02*
X0296473Y0079001D01*
X0294875Y0077402D02*
X0246916Y0077402D01*
X0243316Y0078060D02*
X0240855Y0078060D01*
X0237902Y0081013D01*
X0200009Y0081013D01*
X0176387Y0104635D01*
X0160639Y0104635D01*
X0160146Y0105048D01*
X0160146Y0105127D01*
X0131111Y0105127D01*
X0131111Y0100206D02*
X0160146Y0100206D01*
X0160146Y0100048D01*
X0165421Y0097548D02*
X0166077Y0098204D01*
X0166077Y0101892D01*
X0165734Y0102235D01*
X0175392Y0102235D01*
X0196675Y0080952D01*
X0179354Y0080952D01*
X0178472Y0080587D01*
X0177797Y0079911D01*
X0155127Y0057242D01*
X0154832Y0057953D01*
X0154180Y0058605D01*
X0154180Y0064095D01*
X0154777Y0063499D01*
X0156582Y0063499D01*
X0156582Y0067999D01*
X0156782Y0067999D01*
X0156782Y0063499D01*
X0158587Y0063499D01*
X0161282Y0066194D01*
X0161282Y0067999D01*
X0156782Y0067999D01*
X0156782Y0068199D01*
X0161282Y0068199D01*
X0161282Y0070005D01*
X0158587Y0072699D01*
X0156782Y0072699D01*
X0156782Y0068199D01*
X0156582Y0068199D01*
X0156582Y0072699D01*
X0154777Y0072699D01*
X0152488Y0070411D01*
X0149967Y0072933D01*
X0149967Y0073363D01*
X0149627Y0074183D01*
X0160132Y0074183D01*
X0161014Y0074549D01*
X0161689Y0075224D01*
X0173720Y0087255D01*
X0174642Y0087255D01*
X0175965Y0087803D01*
X0176978Y0088816D01*
X0177526Y0090139D01*
X0177526Y0091571D01*
X0176978Y0092894D01*
X0175965Y0093907D01*
X0174642Y0094455D01*
X0173210Y0094455D01*
X0171887Y0093907D01*
X0170874Y0092894D01*
X0170326Y0091571D01*
X0170326Y0090649D01*
X0166077Y0086400D01*
X0166077Y0086892D01*
X0165421Y0087548D01*
X0166077Y0088204D01*
X0166077Y0091892D01*
X0165421Y0092548D01*
X0166077Y0093204D01*
X0166077Y0096892D01*
X0165421Y0097548D01*
X0166056Y0098183D02*
X0179444Y0098183D01*
X0181043Y0096585D02*
X0166077Y0096585D01*
X0166077Y0094986D02*
X0182641Y0094986D01*
X0184240Y0093388D02*
X0176485Y0093388D01*
X0177436Y0091789D02*
X0185838Y0091789D01*
X0187437Y0090191D02*
X0177526Y0090191D01*
X0176754Y0088592D02*
X0189035Y0088592D01*
X0190634Y0086994D02*
X0173459Y0086994D01*
X0171860Y0085395D02*
X0192232Y0085395D01*
X0193831Y0083797D02*
X0170261Y0083797D01*
X0168663Y0082198D02*
X0195429Y0082198D01*
X0200619Y0083797D02*
X0202795Y0083797D01*
X0215057Y0083797D02*
X0235169Y0083797D01*
X0233571Y0085395D02*
X0215057Y0085395D01*
X0214894Y0086994D02*
X0231972Y0086994D01*
X0231997Y0084950D02*
X0220186Y0084950D01*
X0214857Y0088592D02*
X0230374Y0088592D01*
X0233965Y0091789D02*
X0239216Y0091789D01*
X0239216Y0090191D02*
X0235563Y0090191D01*
X0237162Y0088592D02*
X0239216Y0088592D01*
X0239317Y0086994D02*
X0238760Y0086994D01*
X0239216Y0093388D02*
X0232366Y0093388D01*
X0230768Y0094986D02*
X0239216Y0094986D01*
X0239216Y0096585D02*
X0229169Y0096585D01*
X0244792Y0100206D02*
X0245146Y0100048D01*
X0245284Y0095284D02*
X0245146Y0095048D01*
X0245284Y0095284D02*
X0260540Y0095284D01*
X0296957Y0131702D01*
X0295481Y0148926D02*
X0300894Y0148926D01*
X0295481Y0148926D02*
X0268414Y0121859D01*
X0266218Y0118964D02*
X0265893Y0118964D01*
X0257095Y0110540D02*
X0257095Y0136131D01*
X0258572Y0137607D01*
X0263493Y0133670D02*
X0264969Y0135146D01*
X0264969Y0145481D01*
X0258572Y0151879D01*
X0257035Y0155139D02*
X0257035Y0160727D01*
X0288036Y0191729D01*
X0288036Y0191494D01*
X0288843Y0189546D01*
X0290334Y0188055D01*
X0291558Y0187548D01*
X0290334Y0187041D01*
X0288843Y0185550D01*
X0288036Y0183602D01*
X0288036Y0181494D01*
X0288843Y0179546D01*
X0290334Y0178055D01*
X0291558Y0177548D01*
X0290334Y0177041D01*
X0288843Y0175550D01*
X0288036Y0173602D01*
X0288036Y0171494D01*
X0288843Y0169546D01*
X0288964Y0169425D01*
X0266692Y0147153D01*
X0262172Y0151673D01*
X0262172Y0152595D01*
X0261624Y0153918D01*
X0260611Y0154931D01*
X0259288Y0155479D01*
X0257856Y0155479D01*
X0257035Y0155139D01*
X0257035Y0155730D02*
X0275269Y0155730D01*
X0276867Y0157328D02*
X0257035Y0157328D01*
X0257035Y0158927D02*
X0278466Y0158927D01*
X0280064Y0160525D02*
X0257035Y0160525D01*
X0258431Y0162124D02*
X0281663Y0162124D01*
X0283261Y0163722D02*
X0260030Y0163722D01*
X0261628Y0165321D02*
X0284860Y0165321D01*
X0286458Y0166919D02*
X0263227Y0166919D01*
X0264825Y0168518D02*
X0288057Y0168518D01*
X0288607Y0170116D02*
X0266424Y0170116D01*
X0268022Y0171715D02*
X0288036Y0171715D01*
X0288036Y0173313D02*
X0269621Y0173313D01*
X0271219Y0174912D02*
X0288579Y0174912D01*
X0289803Y0176510D02*
X0272818Y0176510D01*
X0274416Y0178109D02*
X0290280Y0178109D01*
X0288776Y0179707D02*
X0276015Y0179707D01*
X0277613Y0181306D02*
X0288114Y0181306D01*
X0288036Y0182904D02*
X0279212Y0182904D01*
X0280810Y0184503D02*
X0288409Y0184503D01*
X0289394Y0186101D02*
X0282409Y0186101D01*
X0284007Y0187700D02*
X0291191Y0187700D01*
X0289091Y0189298D02*
X0285606Y0189298D01*
X0287204Y0190897D02*
X0288284Y0190897D01*
X0283613Y0194094D02*
X0270716Y0194094D01*
X0269118Y0192495D02*
X0282015Y0192495D01*
X0280416Y0190897D02*
X0267519Y0190897D01*
X0265921Y0189298D02*
X0278818Y0189298D01*
X0277219Y0187700D02*
X0264322Y0187700D01*
X0262724Y0186101D02*
X0275621Y0186101D01*
X0274022Y0184503D02*
X0261125Y0184503D01*
X0259527Y0182904D02*
X0272424Y0182904D01*
X0270825Y0181306D02*
X0257928Y0181306D01*
X0256330Y0179707D02*
X0269226Y0179707D01*
X0267628Y0178109D02*
X0254731Y0178109D01*
X0254574Y0177952D02*
X0254574Y0165055D01*
X0288954Y0199435D01*
X0288843Y0199546D01*
X0288036Y0201494D01*
X0288036Y0203602D01*
X0288843Y0205550D01*
X0290334Y0207041D01*
X0291558Y0207548D01*
X0290334Y0208055D01*
X0288843Y0209546D01*
X0288060Y0211437D01*
X0254574Y0177952D01*
X0254574Y0176510D02*
X0266029Y0176510D01*
X0264431Y0174912D02*
X0254574Y0174912D01*
X0254574Y0173313D02*
X0262832Y0173313D01*
X0261234Y0171715D02*
X0254574Y0171715D01*
X0254574Y0170116D02*
X0259635Y0170116D01*
X0258037Y0168518D02*
X0254574Y0168518D01*
X0254574Y0166919D02*
X0256438Y0166919D01*
X0254840Y0165321D02*
X0254574Y0165321D01*
X0248729Y0167135D02*
X0248237Y0167627D01*
X0248729Y0167135D02*
X0248729Y0139083D01*
X0245284Y0135639D01*
X0245284Y0130225D01*
X0245146Y0130048D01*
X0244792Y0125304D02*
X0241839Y0125304D01*
X0238887Y0128257D01*
X0238887Y0134654D01*
X0244792Y0140560D01*
X0246329Y0143820D02*
X0245508Y0144160D01*
X0244076Y0144160D01*
X0242753Y0143612D01*
X0241740Y0142599D01*
X0241192Y0141276D01*
X0241192Y0140354D01*
X0236852Y0136014D01*
X0236487Y0135132D01*
X0236487Y0129130D01*
X0236365Y0129251D01*
X0236365Y0158461D01*
X0237186Y0158121D01*
X0238618Y0158121D01*
X0239942Y0158669D01*
X0240954Y0159682D01*
X0241502Y0161005D01*
X0241502Y0162437D01*
X0241363Y0162773D01*
X0244890Y0166299D01*
X0245185Y0165588D01*
X0246198Y0164575D01*
X0246329Y0164520D01*
X0246329Y0143820D01*
X0246329Y0144540D02*
X0236365Y0144540D01*
X0236365Y0146138D02*
X0246329Y0146138D01*
X0246329Y0147737D02*
X0236365Y0147737D01*
X0236365Y0149335D02*
X0246329Y0149335D01*
X0246329Y0150934D02*
X0236365Y0150934D01*
X0236365Y0152533D02*
X0246329Y0152533D01*
X0246329Y0154131D02*
X0236365Y0154131D01*
X0236365Y0155730D02*
X0246329Y0155730D01*
X0246329Y0157328D02*
X0236365Y0157328D01*
X0240199Y0158927D02*
X0246329Y0158927D01*
X0246329Y0160525D02*
X0241303Y0160525D01*
X0241502Y0162124D02*
X0246329Y0162124D01*
X0246329Y0163722D02*
X0242313Y0163722D01*
X0243912Y0165321D02*
X0245452Y0165321D01*
X0247745Y0172548D02*
X0237902Y0162706D01*
X0237902Y0161721D01*
X0233965Y0165658D02*
X0260540Y0192233D01*
X0221662Y0231111D01*
X0117331Y0231111D01*
X0110934Y0224713D01*
X0110934Y0186328D01*
X0107606Y0187700D02*
X0087883Y0187700D01*
X0088210Y0189298D02*
X0108534Y0189298D01*
X0108534Y0190897D02*
X0089479Y0190897D01*
X0090052Y0192495D02*
X0108534Y0192495D01*
X0108534Y0194094D02*
X0090052Y0194094D01*
X0089512Y0195692D02*
X0108534Y0195692D01*
X0108534Y0197291D02*
X0088292Y0197291D01*
X0087801Y0198889D02*
X0108534Y0198889D01*
X0108534Y0200488D02*
X0089309Y0200488D01*
X0089971Y0202086D02*
X0108534Y0202086D01*
X0108534Y0203685D02*
X0090052Y0203685D01*
X0089682Y0205283D02*
X0108534Y0205283D01*
X0108534Y0206882D02*
X0088701Y0206882D01*
X0086880Y0208480D02*
X0108534Y0208480D01*
X0108534Y0210079D02*
X0088991Y0210079D01*
X0089802Y0211677D02*
X0108534Y0211677D01*
X0108534Y0213276D02*
X0090052Y0213276D01*
X0089851Y0214874D02*
X0108534Y0214874D01*
X0108534Y0216473D02*
X0089110Y0216473D01*
X0087168Y0218071D02*
X0108534Y0218071D01*
X0108534Y0219670D02*
X0088582Y0219670D01*
X0089632Y0221268D02*
X0108534Y0221268D01*
X0108534Y0222867D02*
X0090052Y0222867D01*
X0090021Y0224466D02*
X0108534Y0224466D01*
X0108896Y0226064D02*
X0089358Y0226064D01*
X0087920Y0227663D02*
X0110489Y0227663D01*
X0112087Y0229261D02*
X0067019Y0229261D01*
X0067074Y0227663D02*
X0074184Y0227663D01*
X0072746Y0226064D02*
X0067074Y0226064D01*
X0067074Y0224466D02*
X0072083Y0224466D01*
X0072052Y0222867D02*
X0067074Y0222867D01*
X0067074Y0221268D02*
X0072471Y0221268D01*
X0073522Y0219670D02*
X0067074Y0219670D01*
X0067074Y0218071D02*
X0074936Y0218071D01*
X0072994Y0216473D02*
X0067074Y0216473D01*
X0067074Y0214874D02*
X0072253Y0214874D01*
X0072052Y0213276D02*
X0067074Y0213276D01*
X0067074Y0211677D02*
X0072302Y0211677D01*
X0073113Y0210079D02*
X0067074Y0210079D01*
X0067074Y0208480D02*
X0075223Y0208480D01*
X0073403Y0206882D02*
X0067074Y0206882D01*
X0067074Y0205283D02*
X0072422Y0205283D01*
X0072052Y0203685D02*
X0067074Y0203685D01*
X0067074Y0202086D02*
X0072133Y0202086D01*
X0072795Y0200488D02*
X0067074Y0200488D01*
X0067074Y0198889D02*
X0071873Y0198889D01*
X0070275Y0197291D02*
X0067074Y0197291D01*
X0067074Y0195692D02*
X0068676Y0195692D01*
X0067078Y0194094D02*
X0067074Y0194094D01*
X0067135Y0190757D02*
X0079438Y0203060D01*
X0080914Y0203060D01*
X0081052Y0203335D01*
X0081052Y0193335D02*
X0080914Y0193217D01*
X0079438Y0193217D01*
X0071072Y0184851D01*
X0071072Y0170580D01*
X0067135Y0169103D02*
X0067135Y0190757D01*
X0062274Y0190897D02*
X0057724Y0190897D01*
X0057724Y0192495D02*
X0062274Y0192495D01*
X0062274Y0194094D02*
X0057724Y0194094D01*
X0057724Y0195692D02*
X0062274Y0195692D01*
X0062274Y0197291D02*
X0057724Y0197291D01*
X0057724Y0198889D02*
X0062274Y0198889D01*
X0062274Y0200488D02*
X0057724Y0200488D01*
X0057724Y0202086D02*
X0062274Y0202086D01*
X0062274Y0203685D02*
X0057724Y0203685D01*
X0057724Y0205283D02*
X0062274Y0205283D01*
X0062274Y0206882D02*
X0057724Y0206882D01*
X0057724Y0208480D02*
X0062274Y0208480D01*
X0062274Y0210079D02*
X0057724Y0210079D01*
X0057724Y0211677D02*
X0062274Y0211677D01*
X0062274Y0213276D02*
X0057724Y0213276D01*
X0057724Y0214874D02*
X0062274Y0214874D01*
X0062274Y0216473D02*
X0057724Y0216473D01*
X0057724Y0218071D02*
X0062274Y0218071D01*
X0062274Y0219670D02*
X0057724Y0219670D01*
X0057724Y0221268D02*
X0062274Y0221268D01*
X0062274Y0222867D02*
X0057724Y0222867D01*
X0057724Y0224466D02*
X0062274Y0224466D01*
X0062274Y0226064D02*
X0057724Y0226064D01*
X0056753Y0227663D02*
X0062268Y0227663D01*
X0060669Y0229261D02*
X0055263Y0229261D01*
X0055263Y0230860D02*
X0059071Y0230860D01*
X0057472Y0232458D02*
X0055364Y0232458D01*
X0052863Y0235048D02*
X0052863Y0228158D01*
X0055324Y0225698D01*
X0055324Y0171072D01*
X0047942Y0163690D01*
X0046465Y0163690D01*
X0046052Y0163335D01*
X0040134Y0168518D02*
X0035806Y0168518D01*
X0036286Y0166919D02*
X0038440Y0166919D01*
X0037438Y0165321D02*
X0036035Y0165321D01*
X0035086Y0163722D02*
X0037052Y0163722D01*
X0037117Y0162124D02*
X0035086Y0162124D01*
X0035086Y0160525D02*
X0037779Y0160525D01*
X0039266Y0158927D02*
X0035086Y0158927D01*
X0035086Y0157328D02*
X0038566Y0157328D01*
X0037399Y0155730D02*
X0035086Y0155730D01*
X0035086Y0154131D02*
X0036909Y0154131D01*
X0036852Y0153035D02*
X0036852Y0152903D01*
X0036987Y0152048D01*
X0037255Y0151224D01*
X0037648Y0150453D01*
X0038157Y0149752D01*
X0038769Y0149140D01*
X0039469Y0148631D01*
X0040241Y0148238D01*
X0041064Y0147971D01*
X0041919Y0147835D01*
X0045752Y0147835D01*
X0045752Y0153035D01*
X0036852Y0153035D01*
X0036911Y0152533D02*
X0035086Y0152533D01*
X0035086Y0150934D02*
X0037403Y0150934D01*
X0038574Y0149335D02*
X0035086Y0149335D01*
X0035086Y0147737D02*
X0087556Y0147737D01*
X0088844Y0146138D02*
X0035086Y0146138D01*
X0035086Y0144540D02*
X0088841Y0144540D01*
X0087312Y0140560D02*
X0088788Y0139083D01*
X0088788Y0125304D01*
X0092089Y0123865D02*
X0096195Y0119759D01*
X0096202Y0118241D01*
X0095410Y0118569D01*
X0093978Y0118569D01*
X0092654Y0118021D01*
X0092003Y0117369D01*
X0091358Y0117369D01*
X0091840Y0117851D01*
X0092388Y0119174D01*
X0092388Y0120607D01*
X0091840Y0121930D01*
X0091173Y0122597D01*
X0091840Y0123265D01*
X0092089Y0123865D01*
X0092045Y0123759D02*
X0092195Y0123759D01*
X0091609Y0122161D02*
X0093793Y0122161D01*
X0092388Y0120562D02*
X0095392Y0120562D01*
X0096199Y0118964D02*
X0092301Y0118964D01*
X0088788Y0119891D02*
X0080914Y0119891D01*
X0080146Y0120048D01*
X0079930Y0120383D01*
X0064182Y0120383D01*
X0060873Y0118964D02*
X0058881Y0118964D01*
X0058708Y0119137D02*
X0058708Y0131762D01*
X0074216Y0131762D01*
X0074216Y0128204D01*
X0074872Y0127548D01*
X0074216Y0126892D01*
X0074216Y0123204D01*
X0074637Y0122783D01*
X0066873Y0122783D01*
X0066221Y0123435D01*
X0064898Y0123983D01*
X0063466Y0123983D01*
X0062143Y0123435D01*
X0061130Y0122422D01*
X0060582Y0121099D01*
X0060582Y0119667D01*
X0061130Y0118343D01*
X0062143Y0117331D01*
X0063466Y0116783D01*
X0064898Y0116783D01*
X0066221Y0117331D01*
X0066873Y0117983D01*
X0074437Y0117983D01*
X0074872Y0117548D01*
X0074216Y0116892D01*
X0074216Y0116586D01*
X0073958Y0116329D01*
X0060235Y0102605D01*
X0055062Y0102605D01*
X0054410Y0103257D01*
X0053560Y0103610D01*
X0053787Y0104157D01*
X0053787Y0113876D01*
X0054269Y0113394D01*
X0055592Y0112846D01*
X0057024Y0112846D01*
X0058347Y0113394D01*
X0059360Y0114406D01*
X0059908Y0115730D01*
X0059908Y0117162D01*
X0059360Y0118485D01*
X0058708Y0119137D01*
X0058708Y0120562D02*
X0060582Y0120562D01*
X0061022Y0122161D02*
X0058708Y0122161D01*
X0058708Y0123759D02*
X0062927Y0123759D01*
X0065437Y0123759D02*
X0074216Y0123759D01*
X0074216Y0125358D02*
X0058708Y0125358D01*
X0058708Y0126956D02*
X0074280Y0126956D01*
X0074216Y0128555D02*
X0058708Y0128555D01*
X0058708Y0130153D02*
X0074216Y0130153D01*
X0074216Y0131752D02*
X0058708Y0131752D01*
X0056308Y0134162D02*
X0056308Y0116446D01*
X0059122Y0114168D02*
X0071798Y0114168D01*
X0073396Y0115767D02*
X0059908Y0115767D01*
X0059824Y0117365D02*
X0062108Y0117365D01*
X0066256Y0117365D02*
X0074689Y0117365D01*
X0075993Y0114969D02*
X0079930Y0114969D01*
X0080146Y0115048D01*
X0080914Y0114969D01*
X0094694Y0114969D01*
X0098631Y0111032D02*
X0098591Y0120757D01*
X0091209Y0128139D01*
X0091249Y0148926D01*
X0090757Y0149418D01*
X0094357Y0149335D02*
X0104873Y0149335D01*
X0105205Y0150934D02*
X0094025Y0150934D01*
X0092645Y0152533D02*
X0106585Y0152533D01*
X0108473Y0149418D02*
X0110934Y0146957D01*
X0110934Y0130717D01*
X0106013Y0125796D01*
X0106013Y0115461D01*
X0116347Y0105127D01*
X0123729Y0105127D01*
X0123926Y0105048D01*
X0123729Y0100206D02*
X0123926Y0100048D01*
X0123729Y0100206D02*
X0117824Y0100206D01*
X0103552Y0114477D01*
X0103552Y0126780D01*
X0108473Y0131702D01*
X0108473Y0141052D01*
X0106997Y0142528D01*
X0103591Y0141343D02*
X0093634Y0141343D01*
X0093637Y0142941D02*
X0103397Y0142941D01*
X0103933Y0144540D02*
X0093640Y0144540D01*
X0093644Y0146138D02*
X0106984Y0146138D01*
X0105273Y0147737D02*
X0093957Y0147737D01*
X0090195Y0154131D02*
X0115059Y0154131D01*
X0115060Y0152533D02*
X0110362Y0152533D01*
X0111742Y0150934D02*
X0115552Y0150934D01*
X0116723Y0149335D02*
X0112073Y0149335D01*
X0113209Y0147737D02*
X0127512Y0147737D01*
X0125914Y0146138D02*
X0113334Y0146138D01*
X0113334Y0144540D02*
X0124315Y0144540D01*
X0122717Y0142941D02*
X0113334Y0142941D01*
X0113334Y0141343D02*
X0121118Y0141343D01*
X0119520Y0139744D02*
X0118317Y0139744D01*
X0115363Y0137607D02*
X0115363Y0131702D01*
X0108473Y0124812D01*
X0108473Y0118414D01*
X0116839Y0110048D01*
X0123926Y0110048D01*
X0123926Y0115048D02*
X0123729Y0115461D01*
X0116839Y0115461D01*
X0112410Y0119891D01*
X0120776Y0125304D02*
X0117824Y0128257D01*
X0117824Y0134654D01*
X0133572Y0150402D01*
X0133572Y0215363D01*
X0125698Y0223237D01*
X0124221Y0223237D01*
X0124202Y0223335D01*
X0118316Y0228650D02*
X0114871Y0225206D01*
X0114871Y0171072D01*
X0122253Y0163690D01*
X0123729Y0163690D01*
X0124202Y0163335D01*
X0117415Y0158927D02*
X0087838Y0158927D01*
X0088538Y0157328D02*
X0116716Y0157328D01*
X0115549Y0155730D02*
X0089705Y0155730D01*
X0089325Y0160525D02*
X0115929Y0160525D01*
X0115267Y0162124D02*
X0089987Y0162124D01*
X0090052Y0163722D02*
X0115202Y0163722D01*
X0115587Y0165321D02*
X0089666Y0165321D01*
X0088664Y0166919D02*
X0115629Y0166919D01*
X0114031Y0168518D02*
X0086970Y0168518D01*
X0089028Y0170116D02*
X0112669Y0170116D01*
X0112471Y0171715D02*
X0089817Y0171715D01*
X0090052Y0173313D02*
X0112471Y0173313D01*
X0112471Y0174912D02*
X0089836Y0174912D01*
X0089073Y0176510D02*
X0112471Y0176510D01*
X0112471Y0178109D02*
X0087078Y0178109D01*
X0088619Y0179707D02*
X0112471Y0179707D01*
X0112471Y0181306D02*
X0089648Y0181306D01*
X0090052Y0182904D02*
X0109791Y0182904D01*
X0112076Y0182904D02*
X0112471Y0182904D01*
X0107793Y0184503D02*
X0090005Y0184503D01*
X0089343Y0186101D02*
X0107334Y0186101D01*
X0135972Y0204843D02*
X0135972Y0215840D01*
X0135606Y0216722D01*
X0132195Y0220134D01*
X0132395Y0220333D01*
X0133202Y0222281D01*
X0133202Y0224390D01*
X0132431Y0226250D01*
X0152547Y0226250D01*
X0151776Y0224390D01*
X0151776Y0222281D01*
X0152583Y0220333D01*
X0154074Y0218842D01*
X0155298Y0218335D01*
X0154074Y0217829D01*
X0152583Y0216338D01*
X0151776Y0214390D01*
X0151776Y0212281D01*
X0152583Y0210333D01*
X0152645Y0210271D01*
X0149033Y0206660D01*
X0148111Y0206660D01*
X0146788Y0206112D01*
X0145776Y0205099D01*
X0145228Y0203776D01*
X0145228Y0202344D01*
X0145776Y0201021D01*
X0146788Y0200008D01*
X0148111Y0199460D01*
X0149544Y0199460D01*
X0150867Y0200008D01*
X0151879Y0201021D01*
X0152089Y0201526D01*
X0152583Y0200333D01*
X0154074Y0198842D01*
X0155298Y0198335D01*
X0154074Y0197829D01*
X0152583Y0196338D01*
X0151776Y0194390D01*
X0151776Y0192281D01*
X0152583Y0190333D01*
X0154074Y0188842D01*
X0155298Y0188335D01*
X0154074Y0187829D01*
X0152583Y0186338D01*
X0151776Y0184390D01*
X0151776Y0182281D01*
X0152583Y0180333D01*
X0154074Y0178842D01*
X0155298Y0178335D01*
X0154074Y0177829D01*
X0152583Y0176338D01*
X0151776Y0174390D01*
X0151776Y0172281D01*
X0152583Y0170333D01*
X0154074Y0168842D01*
X0155298Y0168335D01*
X0154074Y0167829D01*
X0152583Y0166338D01*
X0151776Y0164390D01*
X0151776Y0162281D01*
X0152583Y0160333D01*
X0154074Y0158842D01*
X0155020Y0158450D01*
X0154965Y0158432D01*
X0154194Y0158039D01*
X0153493Y0157531D01*
X0152881Y0156918D01*
X0152372Y0156218D01*
X0151979Y0155447D01*
X0151712Y0154623D01*
X0151576Y0153768D01*
X0151576Y0153635D01*
X0160476Y0153635D01*
X0160476Y0153035D01*
X0161076Y0153035D01*
X0161076Y0147835D01*
X0163536Y0147835D01*
X0158384Y0142683D01*
X0157462Y0142683D01*
X0156139Y0142135D01*
X0155126Y0141123D01*
X0154578Y0139800D01*
X0154578Y0138367D01*
X0155126Y0137044D01*
X0156139Y0136032D01*
X0157462Y0135483D01*
X0158894Y0135483D01*
X0160217Y0136032D01*
X0161230Y0137044D01*
X0161778Y0138367D01*
X0161778Y0139289D01*
X0172510Y0150022D01*
X0172510Y0145496D01*
X0172876Y0144614D01*
X0173551Y0143939D01*
X0176447Y0141042D01*
X0176447Y0132789D01*
X0175134Y0133333D01*
X0173702Y0133333D01*
X0172379Y0132785D01*
X0171727Y0132133D01*
X0165836Y0132133D01*
X0165140Y0132829D01*
X0155153Y0132829D01*
X0154949Y0132625D01*
X0150042Y0132625D01*
X0149390Y0133277D01*
X0148067Y0133825D01*
X0146635Y0133825D01*
X0145312Y0133277D01*
X0144299Y0132264D01*
X0143751Y0130941D01*
X0143751Y0129509D01*
X0144299Y0128186D01*
X0145312Y0127173D01*
X0146635Y0126625D01*
X0148067Y0126625D01*
X0149390Y0127173D01*
X0150042Y0127825D01*
X0154595Y0127825D01*
X0154872Y0127548D01*
X0154216Y0126892D01*
X0154216Y0126028D01*
X0153734Y0126228D01*
X0139216Y0126228D01*
X0138564Y0126879D01*
X0137240Y0127428D01*
X0135808Y0127428D01*
X0134485Y0126879D01*
X0133472Y0125867D01*
X0132924Y0124544D01*
X0132924Y0123111D01*
X0133472Y0121788D01*
X0134485Y0120776D01*
X0135808Y0120228D01*
X0137240Y0120228D01*
X0138564Y0120776D01*
X0139216Y0121428D01*
X0152263Y0121428D01*
X0154216Y0119474D01*
X0154216Y0118204D01*
X0154872Y0117548D01*
X0154693Y0117369D01*
X0133802Y0117369D01*
X0133150Y0118021D01*
X0131827Y0118569D01*
X0130395Y0118569D01*
X0129857Y0118346D01*
X0129857Y0119671D01*
X0131486Y0121301D01*
X0132161Y0121976D01*
X0132527Y0122858D01*
X0132527Y0140053D01*
X0132161Y0140935D01*
X0132035Y0141062D01*
X0132035Y0142026D01*
X0138868Y0148860D01*
X0139543Y0149535D01*
X0139909Y0150417D01*
X0139909Y0198892D01*
X0140561Y0199544D01*
X0141109Y0200867D01*
X0141109Y0202300D01*
X0140561Y0203623D01*
X0139548Y0204635D01*
X0138225Y0205183D01*
X0136793Y0205183D01*
X0135972Y0204843D01*
X0135972Y0205283D02*
X0145960Y0205283D01*
X0145228Y0203685D02*
X0140498Y0203685D01*
X0141109Y0202086D02*
X0145334Y0202086D01*
X0146308Y0200488D02*
X0140951Y0200488D01*
X0139909Y0198889D02*
X0154027Y0198889D01*
X0153536Y0197291D02*
X0139909Y0197291D01*
X0139909Y0195692D02*
X0152316Y0195692D01*
X0151776Y0194094D02*
X0139909Y0194094D01*
X0139909Y0192495D02*
X0151776Y0192495D01*
X0152350Y0190897D02*
X0139909Y0190897D01*
X0139909Y0189298D02*
X0153618Y0189298D01*
X0153945Y0187700D02*
X0139909Y0187700D01*
X0139909Y0186101D02*
X0152485Y0186101D01*
X0151823Y0184503D02*
X0139909Y0184503D01*
X0139909Y0182904D02*
X0151776Y0182904D01*
X0152180Y0181306D02*
X0139909Y0181306D01*
X0139909Y0179707D02*
X0153209Y0179707D01*
X0154751Y0178109D02*
X0139909Y0178109D01*
X0139909Y0176510D02*
X0152756Y0176510D01*
X0151993Y0174912D02*
X0139909Y0174912D01*
X0139909Y0173313D02*
X0151776Y0173313D01*
X0152011Y0171715D02*
X0139909Y0171715D01*
X0139909Y0170116D02*
X0152800Y0170116D01*
X0154858Y0168518D02*
X0139909Y0168518D01*
X0139909Y0166919D02*
X0153165Y0166919D01*
X0152162Y0165321D02*
X0139909Y0165321D01*
X0139909Y0163722D02*
X0151776Y0163722D01*
X0151842Y0162124D02*
X0139909Y0162124D01*
X0139909Y0160525D02*
X0152504Y0160525D01*
X0153990Y0158927D02*
X0139909Y0158927D01*
X0139909Y0157328D02*
X0153291Y0157328D01*
X0152123Y0155730D02*
X0139909Y0155730D01*
X0139909Y0154131D02*
X0151634Y0154131D01*
X0151576Y0153035D02*
X0151576Y0152903D01*
X0151712Y0152048D01*
X0151979Y0151224D01*
X0152372Y0150453D01*
X0152881Y0149752D01*
X0153493Y0149140D01*
X0154194Y0148631D01*
X0154965Y0148238D01*
X0155788Y0147971D01*
X0156644Y0147835D01*
X0160476Y0147835D01*
X0160476Y0153035D01*
X0151576Y0153035D01*
X0151635Y0152533D02*
X0139909Y0152533D01*
X0139909Y0150934D02*
X0152127Y0150934D01*
X0153298Y0149335D02*
X0139344Y0149335D01*
X0137745Y0147737D02*
X0163437Y0147737D01*
X0161839Y0146138D02*
X0136147Y0146138D01*
X0134548Y0144540D02*
X0160240Y0144540D01*
X0158642Y0142941D02*
X0132950Y0142941D01*
X0133572Y0141544D02*
X0133080Y0141052D01*
X0133080Y0125796D01*
X0132587Y0125304D01*
X0132587Y0121367D01*
X0135048Y0118906D01*
X0135000Y0120562D02*
X0130748Y0120562D01*
X0131486Y0121301D02*
X0131486Y0121301D01*
X0132238Y0122161D02*
X0133318Y0122161D01*
X0132924Y0123759D02*
X0132527Y0123759D01*
X0132527Y0125358D02*
X0133262Y0125358D01*
X0132527Y0126956D02*
X0134671Y0126956D01*
X0132527Y0128555D02*
X0144146Y0128555D01*
X0143751Y0130153D02*
X0132527Y0130153D01*
X0132527Y0131752D02*
X0144087Y0131752D01*
X0145489Y0133350D02*
X0132527Y0133350D01*
X0132527Y0134949D02*
X0176447Y0134949D01*
X0176447Y0136547D02*
X0160733Y0136547D01*
X0161686Y0138146D02*
X0176447Y0138146D01*
X0176447Y0139744D02*
X0162233Y0139744D01*
X0163832Y0141343D02*
X0176146Y0141343D01*
X0174548Y0142941D02*
X0165430Y0142941D01*
X0167029Y0144540D02*
X0172949Y0144540D01*
X0172510Y0146138D02*
X0168627Y0146138D01*
X0170226Y0147737D02*
X0172510Y0147737D01*
X0172510Y0149335D02*
X0171824Y0149335D01*
X0174910Y0150894D02*
X0174910Y0145973D01*
X0178847Y0142036D01*
X0178847Y0119891D01*
X0180324Y0115461D02*
X0160639Y0115461D01*
X0160146Y0115048D01*
X0160146Y0114969D01*
X0131111Y0114969D01*
X0129857Y0118964D02*
X0154216Y0118964D01*
X0153128Y0120562D02*
X0138049Y0120562D01*
X0136524Y0123828D02*
X0153257Y0123828D01*
X0156702Y0120383D01*
X0160146Y0120383D01*
X0160146Y0120048D01*
X0160146Y0124812D02*
X0160146Y0125048D01*
X0160146Y0124812D02*
X0173926Y0124812D01*
X0174418Y0129733D02*
X0160639Y0129733D01*
X0160146Y0130048D01*
X0160146Y0130225D01*
X0147351Y0130225D01*
X0149214Y0133350D02*
X0176447Y0133350D01*
X0181308Y0144989D02*
X0191643Y0134654D01*
X0194103Y0134654D01*
X0197450Y0135982D02*
X0197155Y0136694D01*
X0196488Y0137361D01*
X0197155Y0138028D01*
X0197703Y0139352D01*
X0197703Y0140784D01*
X0197155Y0142107D01*
X0196142Y0143120D01*
X0194819Y0143668D01*
X0193387Y0143668D01*
X0192064Y0143120D01*
X0192024Y0143080D01*
X0184327Y0150778D01*
X0183652Y0151453D01*
X0182770Y0151818D01*
X0181538Y0151818D01*
X0180886Y0152470D01*
X0180175Y0152765D01*
X0195640Y0168230D01*
X0195640Y0163428D01*
X0194988Y0162776D01*
X0194440Y0161453D01*
X0194440Y0160021D01*
X0194988Y0158698D01*
X0196001Y0157685D01*
X0197324Y0157137D01*
X0198756Y0157137D01*
X0200079Y0157685D01*
X0201092Y0158698D01*
X0201270Y0159127D01*
X0201554Y0158842D01*
X0202501Y0158450D01*
X0202445Y0158432D01*
X0201674Y0158039D01*
X0200974Y0157531D01*
X0200362Y0156918D01*
X0199853Y0156218D01*
X0199460Y0155447D01*
X0199192Y0154623D01*
X0199057Y0153768D01*
X0199057Y0153635D01*
X0207957Y0153635D01*
X0207957Y0153035D01*
X0208557Y0153035D01*
X0208557Y0147835D01*
X0212390Y0147835D01*
X0213245Y0147971D01*
X0214068Y0148238D01*
X0214839Y0148631D01*
X0215540Y0149140D01*
X0216152Y0149752D01*
X0216661Y0150453D01*
X0217054Y0151224D01*
X0217321Y0152048D01*
X0217457Y0152903D01*
X0217457Y0153035D01*
X0208557Y0153035D01*
X0208557Y0153635D01*
X0217457Y0153635D01*
X0217457Y0153768D01*
X0217321Y0154623D01*
X0217054Y0155447D01*
X0216661Y0156218D01*
X0216152Y0156918D01*
X0215540Y0157531D01*
X0214839Y0158039D01*
X0214068Y0158432D01*
X0214013Y0158450D01*
X0214959Y0158842D01*
X0216450Y0160333D01*
X0217257Y0162281D01*
X0217257Y0164390D01*
X0216450Y0166338D01*
X0214959Y0167829D01*
X0213735Y0168335D01*
X0214959Y0168842D01*
X0216450Y0170333D01*
X0217257Y0172281D01*
X0217257Y0174390D01*
X0216450Y0176338D01*
X0214959Y0177829D01*
X0213735Y0178335D01*
X0214959Y0178842D01*
X0216450Y0180333D01*
X0217257Y0182281D01*
X0217257Y0184390D01*
X0216450Y0186338D01*
X0214959Y0187829D01*
X0213735Y0188335D01*
X0214959Y0188842D01*
X0216450Y0190333D01*
X0217257Y0192281D01*
X0217257Y0194390D01*
X0216450Y0196338D01*
X0214959Y0197829D01*
X0213735Y0198335D01*
X0214959Y0198842D01*
X0216450Y0200333D01*
X0217257Y0202281D01*
X0217257Y0204390D01*
X0216450Y0206338D01*
X0214959Y0207829D01*
X0213735Y0208335D01*
X0214959Y0208842D01*
X0216450Y0210333D01*
X0217257Y0212281D01*
X0217257Y0214390D01*
X0216450Y0216338D01*
X0214959Y0217829D01*
X0213735Y0218335D01*
X0214959Y0218842D01*
X0216450Y0220333D01*
X0217256Y0222280D01*
X0219262Y0220274D01*
X0219262Y0186066D01*
X0218610Y0185414D01*
X0218062Y0184091D01*
X0218062Y0182659D01*
X0218610Y0181336D01*
X0219623Y0180323D01*
X0220946Y0179775D01*
X0222378Y0179775D01*
X0223701Y0180323D01*
X0224714Y0181336D01*
X0225262Y0182659D01*
X0225262Y0184091D01*
X0224714Y0185414D01*
X0224062Y0186066D01*
X0224062Y0221746D01*
X0223697Y0222628D01*
X0217614Y0228711D01*
X0220668Y0228711D01*
X0253799Y0195580D01*
X0253088Y0195285D01*
X0252075Y0194272D01*
X0251527Y0192949D01*
X0251527Y0192027D01*
X0229470Y0169971D01*
X0229105Y0169088D01*
X0229105Y0161044D01*
X0228284Y0161384D01*
X0226852Y0161384D01*
X0225528Y0160836D01*
X0224516Y0159823D01*
X0223968Y0158500D01*
X0223968Y0157068D01*
X0224516Y0155745D01*
X0225168Y0155093D01*
X0225168Y0144999D01*
X0216731Y0136562D01*
X0198547Y0136562D01*
X0197665Y0136197D01*
X0197450Y0135982D01*
X0197216Y0136547D02*
X0198511Y0136547D01*
X0197204Y0138146D02*
X0218315Y0138146D01*
X0219913Y0139744D02*
X0197703Y0139744D01*
X0197472Y0141343D02*
X0221512Y0141343D01*
X0223110Y0142941D02*
X0196321Y0142941D01*
X0190564Y0144540D02*
X0224709Y0144540D01*
X0225168Y0146138D02*
X0188966Y0146138D01*
X0187367Y0147737D02*
X0225168Y0147737D01*
X0225168Y0149335D02*
X0215735Y0149335D01*
X0216906Y0150934D02*
X0225168Y0150934D01*
X0225168Y0152533D02*
X0217398Y0152533D01*
X0217725Y0153355D02*
X0221662Y0149418D01*
X0217725Y0153355D02*
X0227568Y0163198D01*
X0229105Y0163722D02*
X0217257Y0163722D01*
X0217191Y0162124D02*
X0229105Y0162124D01*
X0225217Y0160525D02*
X0216529Y0160525D01*
X0215043Y0158927D02*
X0224144Y0158927D01*
X0223968Y0157328D02*
X0215742Y0157328D01*
X0216910Y0155730D02*
X0224531Y0155730D01*
X0225168Y0154131D02*
X0217399Y0154131D01*
X0217725Y0153355D02*
X0208375Y0153355D01*
X0208257Y0153335D01*
X0207957Y0153035D02*
X0207957Y0147835D01*
X0204124Y0147835D01*
X0203269Y0147971D01*
X0202445Y0148238D01*
X0201674Y0148631D01*
X0200974Y0149140D01*
X0200362Y0149752D01*
X0199853Y0150453D01*
X0199460Y0151224D01*
X0199192Y0152048D01*
X0199057Y0152903D01*
X0199057Y0153035D01*
X0207957Y0153035D01*
X0207957Y0152533D02*
X0208557Y0152533D01*
X0208557Y0150934D02*
X0207957Y0150934D01*
X0207957Y0149335D02*
X0208557Y0149335D01*
X0200778Y0149335D02*
X0185769Y0149335D01*
X0184170Y0150934D02*
X0199607Y0150934D01*
X0199115Y0152533D02*
X0180736Y0152533D01*
X0181541Y0154131D02*
X0199114Y0154131D01*
X0199604Y0155730D02*
X0183139Y0155730D01*
X0184738Y0157328D02*
X0196863Y0157328D01*
X0199217Y0157328D02*
X0200771Y0157328D01*
X0201187Y0158927D02*
X0201470Y0158927D01*
X0198040Y0160737D02*
X0198040Y0184359D01*
X0206898Y0193217D01*
X0207883Y0193217D01*
X0208257Y0193335D01*
X0215415Y0189298D02*
X0219262Y0189298D01*
X0219262Y0187700D02*
X0215088Y0187700D01*
X0216548Y0186101D02*
X0219262Y0186101D01*
X0218233Y0184503D02*
X0217210Y0184503D01*
X0217257Y0182904D02*
X0218062Y0182904D01*
X0218640Y0181306D02*
X0216853Y0181306D01*
X0215824Y0179707D02*
X0239207Y0179707D01*
X0240805Y0181306D02*
X0224684Y0181306D01*
X0225262Y0182904D02*
X0242404Y0182904D01*
X0244002Y0184503D02*
X0225092Y0184503D01*
X0224062Y0186101D02*
X0245601Y0186101D01*
X0247199Y0187700D02*
X0224062Y0187700D01*
X0224062Y0189298D02*
X0248798Y0189298D01*
X0250396Y0190897D02*
X0224062Y0190897D01*
X0224062Y0192495D02*
X0251527Y0192495D01*
X0252001Y0194094D02*
X0224062Y0194094D01*
X0224062Y0195692D02*
X0253687Y0195692D01*
X0252088Y0197291D02*
X0224062Y0197291D01*
X0224062Y0198889D02*
X0250490Y0198889D01*
X0248891Y0200488D02*
X0224062Y0200488D01*
X0224062Y0202086D02*
X0247293Y0202086D01*
X0245694Y0203685D02*
X0224062Y0203685D01*
X0224062Y0205283D02*
X0244096Y0205283D01*
X0242497Y0206882D02*
X0224062Y0206882D01*
X0224062Y0208480D02*
X0240899Y0208480D01*
X0239300Y0210079D02*
X0224062Y0210079D01*
X0224062Y0211677D02*
X0237702Y0211677D01*
X0236103Y0213276D02*
X0224062Y0213276D01*
X0224062Y0214874D02*
X0234505Y0214874D01*
X0232906Y0216473D02*
X0224062Y0216473D01*
X0224062Y0218071D02*
X0231308Y0218071D01*
X0229709Y0219670D02*
X0224062Y0219670D01*
X0224062Y0221268D02*
X0228111Y0221268D01*
X0226512Y0222867D02*
X0223458Y0222867D01*
X0224914Y0224466D02*
X0221859Y0224466D01*
X0223315Y0226064D02*
X0220261Y0226064D01*
X0221717Y0227663D02*
X0218662Y0227663D01*
X0214280Y0228650D02*
X0118316Y0228650D01*
X0115284Y0232458D02*
X0064260Y0232458D01*
X0062662Y0234057D02*
X0288224Y0234057D01*
X0288036Y0232458D02*
X0223709Y0232458D01*
X0225308Y0230860D02*
X0288299Y0230860D01*
X0288761Y0229261D02*
X0226906Y0229261D01*
X0228505Y0227663D02*
X0287162Y0227663D01*
X0285569Y0226064D02*
X0230103Y0226064D01*
X0231702Y0224466D02*
X0285207Y0224466D01*
X0285207Y0222867D02*
X0233300Y0222867D01*
X0234899Y0221268D02*
X0285207Y0221268D01*
X0284583Y0219670D02*
X0236497Y0219670D01*
X0238096Y0218071D02*
X0282984Y0218071D01*
X0281386Y0216473D02*
X0239694Y0216473D01*
X0241293Y0214874D02*
X0279787Y0214874D01*
X0278189Y0213276D02*
X0242891Y0213276D01*
X0244490Y0211677D02*
X0276590Y0211677D01*
X0274992Y0210079D02*
X0246088Y0210079D01*
X0247687Y0208480D02*
X0273393Y0208480D01*
X0271795Y0206882D02*
X0249285Y0206882D01*
X0250884Y0205283D02*
X0270196Y0205283D01*
X0268598Y0203685D02*
X0252482Y0203685D01*
X0254081Y0202086D02*
X0266999Y0202086D01*
X0265401Y0200488D02*
X0255679Y0200488D01*
X0257278Y0198889D02*
X0263802Y0198889D01*
X0262204Y0197291D02*
X0258877Y0197291D01*
X0260475Y0195692D02*
X0260605Y0195692D01*
X0260540Y0192233D02*
X0287607Y0219300D01*
X0287607Y0224713D01*
X0294989Y0232095D01*
X0296957Y0232095D01*
X0297036Y0232548D01*
X0302791Y0227663D02*
X0327636Y0227663D01*
X0327636Y0229261D02*
X0304945Y0229261D01*
X0305773Y0230860D02*
X0329125Y0230860D01*
X0332391Y0227666D02*
X0341741Y0227666D01*
X0342036Y0227548D01*
X0344538Y0221268D02*
X0354446Y0221268D01*
X0357639Y0219670D02*
X0346137Y0219670D01*
X0346436Y0218071D02*
X0374042Y0218071D01*
X0374043Y0216473D02*
X0346436Y0216473D01*
X0345585Y0214874D02*
X0374045Y0214874D01*
X0374047Y0213276D02*
X0343987Y0213276D01*
X0344129Y0211677D02*
X0374049Y0211677D01*
X0374051Y0210079D02*
X0345728Y0210079D01*
X0346436Y0208480D02*
X0374052Y0208480D01*
X0374054Y0206882D02*
X0346436Y0206882D01*
X0347833Y0205283D02*
X0374056Y0205283D01*
X0374058Y0203685D02*
X0349431Y0203685D01*
X0351030Y0202086D02*
X0374060Y0202086D01*
X0374061Y0200488D02*
X0352628Y0200488D01*
X0354227Y0198889D02*
X0374063Y0198889D01*
X0374065Y0197291D02*
X0355825Y0197291D01*
X0357424Y0195692D02*
X0374067Y0195692D01*
X0374069Y0194094D02*
X0359022Y0194094D01*
X0362087Y0192495D02*
X0374070Y0192495D01*
X0374072Y0190897D02*
X0363669Y0190897D01*
X0364042Y0189298D02*
X0374074Y0189298D01*
X0374076Y0187700D02*
X0363684Y0187700D01*
X0362174Y0186101D02*
X0374078Y0186101D01*
X0374079Y0184503D02*
X0358279Y0184503D01*
X0358709Y0186101D02*
X0356680Y0186101D01*
X0357200Y0187700D02*
X0355082Y0187700D01*
X0353483Y0189298D02*
X0356842Y0189298D01*
X0355431Y0190897D02*
X0351885Y0190897D01*
X0350286Y0192495D02*
X0353833Y0192495D01*
X0352234Y0194094D02*
X0348688Y0194094D01*
X0347089Y0195692D02*
X0350636Y0195692D01*
X0349037Y0197291D02*
X0346436Y0197291D01*
X0346436Y0198889D02*
X0347439Y0198889D01*
X0345840Y0200488D02*
X0345319Y0200488D01*
X0344242Y0202086D02*
X0313650Y0202086D01*
X0312051Y0200488D02*
X0328754Y0200488D01*
X0327636Y0198889D02*
X0310453Y0198889D01*
X0308854Y0197291D02*
X0327636Y0197291D01*
X0327669Y0195692D02*
X0308708Y0195692D01*
X0308708Y0194094D02*
X0329268Y0194094D01*
X0329162Y0190897D02*
X0308708Y0190897D01*
X0308708Y0192495D02*
X0343498Y0192495D01*
X0344910Y0190897D02*
X0345097Y0190897D01*
X0346436Y0189298D02*
X0346695Y0189298D01*
X0346436Y0187700D02*
X0348294Y0187700D01*
X0346838Y0186101D02*
X0349892Y0186101D01*
X0348436Y0184503D02*
X0351491Y0184503D01*
X0350035Y0182904D02*
X0353089Y0182904D01*
X0351633Y0181306D02*
X0354688Y0181306D01*
X0353232Y0179707D02*
X0356286Y0179707D01*
X0356892Y0178109D02*
X0354830Y0178109D01*
X0357535Y0176510D02*
X0357786Y0176510D01*
X0359626Y0174912D02*
X0374090Y0174912D01*
X0374088Y0176510D02*
X0363097Y0176510D01*
X0363992Y0178109D02*
X0374086Y0178109D01*
X0374085Y0179707D02*
X0364023Y0179707D01*
X0363173Y0181306D02*
X0374083Y0181306D01*
X0374081Y0182904D02*
X0359877Y0182904D01*
X0360442Y0178946D02*
X0342233Y0197154D01*
X0342036Y0197548D01*
X0329677Y0203685D02*
X0315248Y0203685D01*
X0316847Y0205283D02*
X0328078Y0205283D01*
X0327636Y0206882D02*
X0318445Y0206882D01*
X0320044Y0208480D02*
X0327636Y0208480D01*
X0328345Y0210079D02*
X0321642Y0210079D01*
X0323241Y0211677D02*
X0329943Y0211677D01*
X0330086Y0213276D02*
X0324839Y0213276D01*
X0326438Y0214874D02*
X0328487Y0214874D01*
X0324445Y0219670D02*
X0305281Y0219670D01*
X0305943Y0221268D02*
X0326044Y0221268D01*
X0327642Y0222867D02*
X0306036Y0222867D01*
X0305679Y0224466D02*
X0328896Y0224466D01*
X0327636Y0226064D02*
X0304716Y0226064D01*
X0306036Y0232458D02*
X0350238Y0232458D01*
X0350667Y0234057D02*
X0305848Y0234057D01*
X0305124Y0235655D02*
X0351449Y0235655D01*
X0352462Y0237254D02*
X0303226Y0237254D01*
X0290847Y0237254D02*
X0059465Y0237254D01*
X0057866Y0238852D02*
X0354061Y0238852D01*
X0356643Y0240451D02*
X0056268Y0240451D01*
X0054339Y0238985D02*
X0050402Y0238985D01*
X0021367Y0209950D01*
X0021367Y0049024D01*
X0044497Y0025894D01*
X0130619Y0025894D01*
X0179339Y0074615D01*
X0216741Y0074615D01*
X0220145Y0075804D02*
X0236272Y0075804D01*
X0237871Y0074205D02*
X0220341Y0074205D01*
X0219806Y0072607D02*
X0239469Y0072607D01*
X0239424Y0071008D02*
X0215231Y0071008D01*
X0214292Y0071948D02*
X0210647Y0071948D01*
X0208069Y0069371D01*
X0208069Y0065725D01*
X0210647Y0063148D01*
X0214292Y0063148D01*
X0216869Y0065725D01*
X0216869Y0069371D01*
X0214292Y0071948D01*
X0216830Y0069410D02*
X0237869Y0069410D01*
X0237869Y0067811D02*
X0216869Y0067811D01*
X0216869Y0066213D02*
X0237869Y0066213D01*
X0238898Y0064614D02*
X0215758Y0064614D01*
X0209180Y0064614D02*
X0172733Y0064614D01*
X0171134Y0063016D02*
X0240496Y0063016D01*
X0241347Y0074123D02*
X0236918Y0078552D01*
X0179831Y0078552D01*
X0152272Y0050993D01*
X0121269Y0050993D01*
X0121170Y0050619D01*
X0124304Y0053425D02*
X0149179Y0053425D01*
X0151780Y0055914D02*
X0151780Y0067725D01*
X0146859Y0072646D01*
X0146367Y0072646D01*
X0124713Y0072646D01*
X0104044Y0051977D01*
X0104044Y0050993D01*
X0103847Y0050816D01*
X0103696Y0055023D02*
X0094244Y0055023D01*
X0095843Y0056622D02*
X0105295Y0056622D01*
X0106893Y0058220D02*
X0097441Y0058220D01*
X0099040Y0059819D02*
X0108492Y0059819D01*
X0110090Y0061417D02*
X0100638Y0061417D01*
X0102237Y0063016D02*
X0111689Y0063016D01*
X0113287Y0064614D02*
X0103835Y0064614D01*
X0105434Y0066213D02*
X0114886Y0066213D01*
X0116484Y0067811D02*
X0107032Y0067811D01*
X0103441Y0071008D02*
X0080081Y0071008D01*
X0081636Y0069410D02*
X0101843Y0069410D01*
X0100244Y0067811D02*
X0081636Y0067811D01*
X0081636Y0066213D02*
X0098646Y0066213D01*
X0097047Y0064614D02*
X0080608Y0064614D01*
X0079009Y0063016D02*
X0095449Y0063016D01*
X0093850Y0061417D02*
X0061599Y0061417D01*
X0061876Y0063016D02*
X0075063Y0063016D01*
X0076936Y0063016D02*
X0077136Y0063016D01*
X0077136Y0064614D02*
X0076936Y0064614D01*
X0076936Y0066213D02*
X0077136Y0066213D01*
X0077036Y0067548D02*
X0077469Y0067725D01*
X0079438Y0067725D01*
X0077136Y0067811D02*
X0076936Y0067811D01*
X0076936Y0067648D02*
X0076936Y0072148D01*
X0075131Y0072148D01*
X0072436Y0069453D01*
X0072436Y0067648D01*
X0076936Y0067648D01*
X0076936Y0069410D02*
X0077136Y0069410D01*
X0077136Y0071008D02*
X0076936Y0071008D01*
X0073991Y0071008D02*
X0053855Y0071008D01*
X0051397Y0069410D02*
X0072436Y0069410D01*
X0072436Y0067811D02*
X0051436Y0067811D01*
X0051864Y0066213D02*
X0057099Y0066213D01*
X0059454Y0066213D02*
X0072436Y0066213D01*
X0073464Y0064614D02*
X0061423Y0064614D01*
X0058276Y0062804D02*
X0051879Y0062804D01*
X0047450Y0067233D01*
X0047036Y0067548D01*
X0043747Y0064614D02*
X0028904Y0064614D01*
X0029646Y0066213D02*
X0042636Y0066213D01*
X0042636Y0067811D02*
X0031245Y0067811D01*
X0032843Y0069410D02*
X0042676Y0069410D01*
X0044274Y0071008D02*
X0034317Y0071008D01*
X0032194Y0072154D02*
X0032194Y0073139D01*
X0032686Y0073631D01*
X0051387Y0073631D01*
X0052371Y0078060D02*
X0055816Y0074615D01*
X0080914Y0074615D01*
X0084318Y0075804D02*
X0108237Y0075804D01*
X0109835Y0077402D02*
X0083218Y0077402D01*
X0084514Y0074205D02*
X0106638Y0074205D01*
X0105040Y0072607D02*
X0083979Y0072607D01*
X0078611Y0077402D02*
X0056422Y0077402D01*
X0059863Y0079001D02*
X0118410Y0079001D01*
X0116811Y0080599D02*
X0060400Y0080599D01*
X0060206Y0082198D02*
X0115213Y0082198D01*
X0113614Y0083797D02*
X0086077Y0083797D01*
X0086077Y0085395D02*
X0112016Y0085395D01*
X0110417Y0086994D02*
X0085975Y0086994D01*
X0086077Y0088592D02*
X0108819Y0088592D01*
X0107220Y0090191D02*
X0086077Y0090191D01*
X0086077Y0091789D02*
X0103924Y0091789D01*
X0106013Y0094792D02*
X0119792Y0081013D01*
X0135048Y0081013D01*
X0132357Y0083413D02*
X0129998Y0083413D01*
X0130057Y0083630D01*
X0130057Y0085048D01*
X0130057Y0086466D01*
X0129934Y0086924D01*
X0129697Y0087334D01*
X0129362Y0087669D01*
X0129337Y0087684D01*
X0129857Y0088204D01*
X0129857Y0091892D01*
X0129201Y0092548D01*
X0129857Y0093204D01*
X0129857Y0096828D01*
X0130395Y0096606D01*
X0131827Y0096606D01*
X0133150Y0097154D01*
X0133802Y0097806D01*
X0137892Y0097806D01*
X0137409Y0097323D01*
X0136861Y0096000D01*
X0136861Y0094568D01*
X0137409Y0093245D01*
X0138422Y0092232D01*
X0139745Y0091684D01*
X0140667Y0091684D01*
X0146704Y0085648D01*
X0146704Y0084726D01*
X0147252Y0083402D01*
X0148265Y0082390D01*
X0149588Y0081842D01*
X0151020Y0081842D01*
X0152343Y0082390D01*
X0153356Y0083402D01*
X0153904Y0084726D01*
X0153904Y0086158D01*
X0153356Y0087481D01*
X0152343Y0088494D01*
X0151020Y0089042D01*
X0150098Y0089042D01*
X0147832Y0091308D01*
X0148111Y0091192D01*
X0149544Y0091192D01*
X0150867Y0091740D01*
X0151519Y0092392D01*
X0154716Y0092392D01*
X0154216Y0091892D01*
X0154216Y0088204D01*
X0154872Y0087548D01*
X0154216Y0086892D01*
X0154216Y0083204D01*
X0155153Y0082267D01*
X0161944Y0082267D01*
X0158660Y0078983D01*
X0138104Y0078983D01*
X0138648Y0080297D01*
X0138648Y0081729D01*
X0138100Y0083052D01*
X0137087Y0084065D01*
X0135764Y0084613D01*
X0134332Y0084613D01*
X0133009Y0084065D01*
X0132357Y0083413D01*
X0132741Y0083797D02*
X0130057Y0083797D01*
X0130057Y0085048D02*
X0123926Y0085048D01*
X0124221Y0084950D01*
X0135048Y0084950D01*
X0135048Y0089871D01*
X0139492Y0091789D02*
X0129857Y0091789D01*
X0129857Y0090191D02*
X0142161Y0090191D01*
X0143760Y0088592D02*
X0129857Y0088592D01*
X0129894Y0086994D02*
X0145358Y0086994D01*
X0145383Y0084950D02*
X0149320Y0081013D01*
X0156209Y0081013D01*
X0158678Y0079001D02*
X0138111Y0079001D01*
X0138648Y0080599D02*
X0160276Y0080599D01*
X0161875Y0082198D02*
X0151880Y0082198D01*
X0153519Y0083797D02*
X0154216Y0083797D01*
X0154216Y0085395D02*
X0153904Y0085395D01*
X0153558Y0086994D02*
X0154317Y0086994D01*
X0154216Y0088592D02*
X0152106Y0088592D01*
X0154216Y0090191D02*
X0148949Y0090191D01*
X0150916Y0091789D02*
X0154216Y0091789D01*
X0148828Y0094792D02*
X0160146Y0094792D01*
X0160146Y0095048D01*
X0166077Y0093388D02*
X0171367Y0093388D01*
X0170416Y0091789D02*
X0166077Y0091789D01*
X0166077Y0090191D02*
X0169867Y0090191D01*
X0168269Y0088592D02*
X0166077Y0088592D01*
X0165975Y0086994D02*
X0166670Y0086994D01*
X0167064Y0080599D02*
X0178503Y0080599D01*
X0176886Y0079001D02*
X0165466Y0079001D01*
X0163867Y0077402D02*
X0175288Y0077402D01*
X0173689Y0075804D02*
X0162269Y0075804D01*
X0160185Y0074205D02*
X0172091Y0074205D01*
X0170492Y0072607D02*
X0158680Y0072607D01*
X0156782Y0072607D02*
X0156582Y0072607D01*
X0156582Y0071008D02*
X0156782Y0071008D01*
X0156782Y0069410D02*
X0156582Y0069410D01*
X0156582Y0067811D02*
X0156782Y0067811D01*
X0156782Y0066213D02*
X0156582Y0066213D01*
X0156582Y0064614D02*
X0156782Y0064614D01*
X0159702Y0064614D02*
X0162500Y0064614D01*
X0161282Y0066213D02*
X0164098Y0066213D01*
X0165697Y0067811D02*
X0161282Y0067811D01*
X0161282Y0069410D02*
X0167295Y0069410D01*
X0168894Y0071008D02*
X0160278Y0071008D01*
X0159654Y0076583D02*
X0112410Y0076583D01*
X0123926Y0085048D02*
X0123926Y0085048D01*
X0130057Y0085048D01*
X0130057Y0085395D02*
X0146704Y0085395D01*
X0145383Y0084950D02*
X0135048Y0084950D01*
X0137355Y0083797D02*
X0147089Y0083797D01*
X0148728Y0082198D02*
X0138454Y0082198D01*
X0150304Y0085442D02*
X0140461Y0095284D01*
X0137103Y0096585D02*
X0129857Y0096585D01*
X0129857Y0094986D02*
X0136861Y0094986D01*
X0137350Y0093388D02*
X0129857Y0093388D01*
X0118651Y0092548D02*
X0117995Y0091892D01*
X0117995Y0088204D01*
X0118515Y0087684D01*
X0118490Y0087669D01*
X0118155Y0087334D01*
X0117918Y0086924D01*
X0117795Y0086466D01*
X0117795Y0086404D01*
X0109613Y0094586D01*
X0109613Y0095508D01*
X0109065Y0096831D01*
X0108052Y0097844D01*
X0106729Y0098392D01*
X0105297Y0098392D01*
X0103973Y0097844D01*
X0103321Y0097192D01*
X0089882Y0097192D01*
X0090856Y0098166D01*
X0091404Y0099489D01*
X0091404Y0100411D01*
X0099994Y0109001D01*
X0099998Y0109003D01*
X0100330Y0109338D01*
X0100665Y0109673D01*
X0100667Y0109677D01*
X0100671Y0109681D01*
X0100849Y0110117D01*
X0101031Y0110555D01*
X0101031Y0110560D01*
X0101033Y0110565D01*
X0101031Y0111036D01*
X0101031Y0111510D01*
X0101029Y0111514D01*
X0100991Y0120761D01*
X0100991Y0121234D01*
X0100989Y0121239D01*
X0100989Y0121244D01*
X0100807Y0121678D01*
X0100626Y0122116D01*
X0100622Y0122120D01*
X0100620Y0122124D01*
X0100286Y0122456D01*
X0093611Y0129131D01*
X0093615Y0131134D01*
X0094623Y0130126D01*
X0095946Y0129578D01*
X0097378Y0129578D01*
X0098701Y0130126D01*
X0099353Y0130778D01*
X0101845Y0130778D01*
X0102497Y0130126D01*
X0103209Y0129831D01*
X0101517Y0128140D01*
X0101152Y0127258D01*
X0101152Y0126303D01*
X0101152Y0114000D01*
X0101517Y0113118D01*
X0102192Y0112443D01*
X0116464Y0098171D01*
X0117346Y0097806D01*
X0118394Y0097806D01*
X0118651Y0097548D01*
X0117995Y0096892D01*
X0117995Y0093204D01*
X0118651Y0092548D01*
X0117995Y0091789D02*
X0112410Y0091789D01*
X0114008Y0090191D02*
X0117995Y0090191D01*
X0117995Y0088592D02*
X0115607Y0088592D01*
X0117205Y0086994D02*
X0117958Y0086994D01*
X0117995Y0093388D02*
X0110811Y0093388D01*
X0109613Y0094986D02*
X0117995Y0094986D01*
X0117995Y0096585D02*
X0109167Y0096585D01*
X0107233Y0098183D02*
X0116452Y0098183D01*
X0114853Y0099782D02*
X0091404Y0099782D01*
X0090863Y0098183D02*
X0104792Y0098183D01*
X0106013Y0094792D02*
X0080914Y0094792D01*
X0080146Y0095048D01*
X0079930Y0094792D01*
X0076977Y0094792D01*
X0072548Y0090363D01*
X0069242Y0091789D02*
X0052848Y0091789D01*
X0050910Y0091789D02*
X0049857Y0091789D01*
X0049857Y0090191D02*
X0068948Y0090191D01*
X0069385Y0088592D02*
X0049857Y0088592D01*
X0049894Y0086994D02*
X0071275Y0086994D01*
X0073821Y0086994D02*
X0074317Y0086994D01*
X0074216Y0085395D02*
X0050057Y0085395D01*
X0050057Y0085048D02*
X0043926Y0085048D01*
X0043926Y0085048D01*
X0050057Y0085048D01*
X0050057Y0083797D02*
X0054493Y0083797D01*
X0056800Y0081013D02*
X0040068Y0081013D01*
X0036623Y0084457D01*
X0036623Y0101190D01*
X0039576Y0105127D02*
X0023828Y0120875D01*
X0023828Y0178946D01*
X0028257Y0183375D01*
X0033397Y0179707D02*
X0038485Y0179707D01*
X0037456Y0181306D02*
X0034995Y0181306D01*
X0036594Y0182904D02*
X0037052Y0182904D01*
X0040026Y0178109D02*
X0031798Y0178109D01*
X0033296Y0176510D02*
X0038031Y0176510D01*
X0037268Y0174912D02*
X0033825Y0174912D01*
X0033623Y0173313D02*
X0037052Y0173313D01*
X0037287Y0171715D02*
X0032514Y0171715D01*
X0031665Y0170116D02*
X0031149Y0170116D01*
X0033707Y0170116D02*
X0038076Y0170116D01*
X0032686Y0166643D02*
X0032686Y0127765D01*
X0040068Y0120383D01*
X0043513Y0120383D01*
X0043926Y0120048D01*
X0043513Y0115461D02*
X0040560Y0115461D01*
X0028749Y0127272D01*
X0028749Y0173040D01*
X0030225Y0174517D01*
X0026288Y0175993D02*
X0043513Y0193217D01*
X0045973Y0193217D01*
X0046052Y0193335D01*
X0057724Y0189298D02*
X0062274Y0189298D01*
X0062274Y0187700D02*
X0057724Y0187700D01*
X0057724Y0186101D02*
X0062274Y0186101D01*
X0062274Y0184503D02*
X0057724Y0184503D01*
X0057724Y0182904D02*
X0062274Y0182904D01*
X0062274Y0181306D02*
X0057724Y0181306D01*
X0057724Y0179707D02*
X0062274Y0179707D01*
X0062274Y0178109D02*
X0057724Y0178109D01*
X0057724Y0176510D02*
X0062274Y0176510D01*
X0062274Y0174912D02*
X0057724Y0174912D01*
X0057724Y0173313D02*
X0062274Y0173313D01*
X0062274Y0171715D02*
X0057724Y0171715D01*
X0057526Y0170116D02*
X0062274Y0170116D01*
X0062274Y0168518D02*
X0056164Y0168518D01*
X0054565Y0166919D02*
X0062274Y0166919D01*
X0062420Y0165321D02*
X0054666Y0165321D01*
X0055052Y0163722D02*
X0063708Y0163722D01*
X0065307Y0162124D02*
X0054987Y0162124D01*
X0054325Y0160525D02*
X0066905Y0160525D01*
X0069103Y0161721D02*
X0079438Y0161721D01*
X0081052Y0163335D01*
X0074266Y0158927D02*
X0052838Y0158927D01*
X0053538Y0157328D02*
X0073566Y0157328D01*
X0072399Y0155730D02*
X0054705Y0155730D01*
X0055195Y0154131D02*
X0071909Y0154131D01*
X0071852Y0153035D02*
X0071852Y0152903D01*
X0071987Y0152048D01*
X0072255Y0151224D01*
X0072648Y0150453D01*
X0073157Y0149752D01*
X0073769Y0149140D01*
X0074469Y0148631D01*
X0075241Y0148238D01*
X0076064Y0147971D01*
X0076919Y0147835D01*
X0080752Y0147835D01*
X0080752Y0153035D01*
X0071852Y0153035D01*
X0071911Y0152533D02*
X0055193Y0152533D01*
X0054701Y0150934D02*
X0072403Y0150934D01*
X0073574Y0149335D02*
X0053530Y0149335D01*
X0046352Y0149335D02*
X0045752Y0149335D01*
X0045752Y0150934D02*
X0046352Y0150934D01*
X0046352Y0152533D02*
X0045752Y0152533D01*
X0046052Y0153335D02*
X0046465Y0153355D01*
X0080914Y0153355D01*
X0081052Y0153335D01*
X0081406Y0153355D01*
X0123729Y0153355D01*
X0124202Y0153335D01*
X0123902Y0152533D02*
X0124502Y0152533D01*
X0124502Y0150934D02*
X0123902Y0150934D01*
X0123902Y0149335D02*
X0124502Y0149335D01*
X0129635Y0143020D02*
X0137509Y0150894D01*
X0137509Y0201583D01*
X0135972Y0206882D02*
X0149256Y0206882D01*
X0150854Y0208480D02*
X0135972Y0208480D01*
X0135972Y0210079D02*
X0152453Y0210079D01*
X0152026Y0211677D02*
X0135972Y0211677D01*
X0135972Y0213276D02*
X0151776Y0213276D01*
X0151977Y0214874D02*
X0135972Y0214874D01*
X0135710Y0216473D02*
X0152719Y0216473D01*
X0154661Y0218071D02*
X0134257Y0218071D01*
X0132659Y0219670D02*
X0153246Y0219670D01*
X0152196Y0221268D02*
X0132782Y0221268D01*
X0133202Y0222867D02*
X0151776Y0222867D01*
X0151808Y0224466D02*
X0133170Y0224466D01*
X0132508Y0226064D02*
X0152470Y0226064D01*
X0160776Y0223335D02*
X0161131Y0223237D01*
X0162115Y0223237D01*
X0177863Y0207489D01*
X0177863Y0158769D01*
X0158178Y0139083D01*
X0155623Y0136547D02*
X0132527Y0136547D01*
X0132527Y0138146D02*
X0154670Y0138146D01*
X0154578Y0139744D02*
X0132527Y0139744D01*
X0132035Y0141343D02*
X0155346Y0141343D01*
X0160476Y0149335D02*
X0161076Y0149335D01*
X0161076Y0150934D02*
X0160476Y0150934D01*
X0160476Y0152533D02*
X0161076Y0152533D01*
X0160639Y0152863D02*
X0160776Y0153335D01*
X0160639Y0152863D02*
X0144891Y0152863D01*
X0133572Y0141544D01*
X0130127Y0139576D02*
X0129635Y0140068D01*
X0129635Y0143020D01*
X0130127Y0139576D02*
X0130127Y0123335D01*
X0127174Y0120383D01*
X0124221Y0120383D01*
X0123926Y0120048D01*
X0123926Y0125048D02*
X0123729Y0125304D01*
X0120776Y0125304D01*
X0104536Y0133178D02*
X0096662Y0133178D01*
X0095390Y0136547D02*
X0093625Y0136547D01*
X0093628Y0138146D02*
X0106073Y0138146D01*
X0106073Y0136547D02*
X0105809Y0136547D01*
X0103264Y0136547D02*
X0097935Y0136547D01*
X0093631Y0139744D02*
X0104690Y0139744D01*
X0102470Y0130153D02*
X0098729Y0130153D01*
X0101932Y0128555D02*
X0094187Y0128555D01*
X0094596Y0130153D02*
X0093613Y0130153D01*
X0095786Y0126956D02*
X0101152Y0126956D01*
X0101152Y0125358D02*
X0097384Y0125358D01*
X0098983Y0123759D02*
X0101152Y0123759D01*
X0101152Y0122161D02*
X0100584Y0122161D01*
X0100992Y0120562D02*
X0101152Y0120562D01*
X0101152Y0118964D02*
X0100999Y0118964D01*
X0101005Y0117365D02*
X0101152Y0117365D01*
X0101152Y0115767D02*
X0101012Y0115767D01*
X0101018Y0114168D02*
X0101152Y0114168D01*
X0101024Y0112570D02*
X0102065Y0112570D01*
X0101031Y0110971D02*
X0103664Y0110971D01*
X0105262Y0109373D02*
X0100365Y0109373D01*
X0098767Y0107774D02*
X0106861Y0107774D01*
X0108459Y0106176D02*
X0097168Y0106176D01*
X0095570Y0104577D02*
X0110058Y0104577D01*
X0111656Y0102979D02*
X0093971Y0102979D01*
X0092373Y0101380D02*
X0113255Y0101380D01*
X0098631Y0111032D02*
X0087804Y0100206D01*
X0087312Y0105127D02*
X0080914Y0105127D01*
X0080146Y0105048D01*
X0079930Y0104635D01*
X0076485Y0104635D01*
X0072548Y0100698D01*
X0076977Y0099713D02*
X0079930Y0099713D01*
X0080146Y0100048D01*
X0076977Y0099713D02*
X0072548Y0095284D01*
X0051879Y0095284D01*
X0052371Y0100206D02*
X0061229Y0100206D01*
X0075993Y0114969D01*
X0070199Y0112570D02*
X0053787Y0112570D01*
X0053787Y0110971D02*
X0068601Y0110971D01*
X0067002Y0109373D02*
X0053787Y0109373D01*
X0053787Y0107774D02*
X0065404Y0107774D01*
X0063805Y0106176D02*
X0053787Y0106176D01*
X0053787Y0104577D02*
X0062207Y0104577D01*
X0060608Y0102979D02*
X0054689Y0102979D01*
X0051387Y0104635D02*
X0051387Y0130225D01*
X0047942Y0134162D02*
X0056308Y0134162D01*
X0075993Y0134162D01*
X0079930Y0130225D01*
X0080146Y0130048D01*
X0080422Y0125304D02*
X0080146Y0125048D01*
X0080422Y0125304D02*
X0083375Y0125304D01*
X0086328Y0128257D01*
X0086328Y0131702D01*
X0078946Y0139083D01*
X0036623Y0139083D01*
X0035086Y0142941D02*
X0084602Y0142941D01*
X0083740Y0141343D02*
X0079762Y0141343D01*
X0081679Y0139744D02*
X0083753Y0139744D01*
X0083277Y0138146D02*
X0084635Y0138146D01*
X0084876Y0136547D02*
X0086388Y0136547D01*
X0081352Y0149335D02*
X0080752Y0149335D01*
X0080752Y0150934D02*
X0081352Y0150934D01*
X0081352Y0152533D02*
X0080752Y0152533D01*
X0069103Y0161721D02*
X0064674Y0166150D01*
X0064674Y0228650D01*
X0054339Y0238985D01*
X0048474Y0240451D02*
X0025067Y0240451D01*
X0024864Y0240568D02*
X0022041Y0241324D01*
X0019118Y0241324D01*
X0016295Y0240568D01*
X0013764Y0239107D01*
X0011698Y0237040D01*
X0010237Y0234509D01*
X0009480Y0231686D01*
X0009480Y0228764D01*
X0010237Y0225941D01*
X0011698Y0223410D01*
X0013764Y0221344D01*
X0016295Y0219882D01*
X0019118Y0219126D01*
X0022041Y0219126D01*
X0024864Y0219882D01*
X0027395Y0221344D01*
X0029461Y0223410D01*
X0030922Y0225941D01*
X0031679Y0228764D01*
X0031679Y0231686D01*
X0030922Y0234509D01*
X0029461Y0237040D01*
X0027395Y0239107D01*
X0024864Y0240568D01*
X0027649Y0238852D02*
X0046875Y0238852D01*
X0045277Y0237254D02*
X0029248Y0237254D01*
X0030261Y0235655D02*
X0043678Y0235655D01*
X0042080Y0234057D02*
X0031044Y0234057D01*
X0031472Y0232458D02*
X0040481Y0232458D01*
X0038883Y0230860D02*
X0031679Y0230860D01*
X0031679Y0229261D02*
X0037284Y0229261D01*
X0035686Y0227663D02*
X0031384Y0227663D01*
X0030955Y0226064D02*
X0034087Y0226064D01*
X0032489Y0224466D02*
X0030070Y0224466D01*
X0030890Y0222867D02*
X0028918Y0222867D01*
X0029292Y0221268D02*
X0027264Y0221268D01*
X0027693Y0219670D02*
X0024071Y0219670D01*
X0026095Y0218071D02*
X0006895Y0218071D01*
X0006896Y0216473D02*
X0024496Y0216473D01*
X0022898Y0214874D02*
X0006897Y0214874D01*
X0006898Y0213276D02*
X0021299Y0213276D01*
X0019701Y0211677D02*
X0006899Y0211677D01*
X0006900Y0210079D02*
X0018967Y0210079D01*
X0018967Y0208480D02*
X0006901Y0208480D01*
X0006902Y0206882D02*
X0018967Y0206882D01*
X0018967Y0205283D02*
X0006903Y0205283D01*
X0006904Y0203685D02*
X0018967Y0203685D01*
X0018967Y0202086D02*
X0006905Y0202086D01*
X0006906Y0200488D02*
X0018967Y0200488D01*
X0018967Y0198889D02*
X0006907Y0198889D01*
X0006908Y0197291D02*
X0018967Y0197291D01*
X0018967Y0195692D02*
X0006909Y0195692D01*
X0006910Y0194094D02*
X0018967Y0194094D01*
X0018967Y0192495D02*
X0006911Y0192495D01*
X0006912Y0190897D02*
X0018967Y0190897D01*
X0018967Y0189298D02*
X0006913Y0189298D01*
X0006914Y0187700D02*
X0018967Y0187700D01*
X0018967Y0186101D02*
X0006915Y0186101D01*
X0006916Y0184503D02*
X0018967Y0184503D01*
X0018967Y0182904D02*
X0006917Y0182904D01*
X0006918Y0181306D02*
X0018967Y0181306D01*
X0018967Y0179707D02*
X0006920Y0179707D01*
X0006921Y0178109D02*
X0018967Y0178109D01*
X0018967Y0176510D02*
X0006922Y0176510D01*
X0006923Y0174912D02*
X0018967Y0174912D01*
X0018967Y0173313D02*
X0006924Y0173313D01*
X0006925Y0171715D02*
X0018967Y0171715D01*
X0018967Y0170116D02*
X0006926Y0170116D01*
X0006927Y0168518D02*
X0018967Y0168518D01*
X0018967Y0166919D02*
X0006928Y0166919D01*
X0006929Y0165321D02*
X0018967Y0165321D01*
X0018967Y0163722D02*
X0006930Y0163722D01*
X0006931Y0162124D02*
X0018967Y0162124D01*
X0018967Y0160525D02*
X0006932Y0160525D01*
X0006933Y0158927D02*
X0018967Y0158927D01*
X0018967Y0157328D02*
X0006934Y0157328D01*
X0006935Y0155730D02*
X0018967Y0155730D01*
X0018967Y0154131D02*
X0006936Y0154131D01*
X0006937Y0152533D02*
X0018967Y0152533D01*
X0018967Y0150934D02*
X0006938Y0150934D01*
X0006939Y0149335D02*
X0018967Y0149335D01*
X0018967Y0147737D02*
X0006940Y0147737D01*
X0006941Y0146138D02*
X0018967Y0146138D01*
X0018967Y0144540D02*
X0006942Y0144540D01*
X0006943Y0142941D02*
X0018967Y0142941D01*
X0018967Y0141343D02*
X0006944Y0141343D01*
X0006945Y0139744D02*
X0018967Y0139744D01*
X0018967Y0138146D02*
X0006946Y0138146D01*
X0006947Y0136547D02*
X0018967Y0136547D01*
X0018967Y0134949D02*
X0006948Y0134949D01*
X0006949Y0133350D02*
X0018967Y0133350D01*
X0018967Y0131752D02*
X0006950Y0131752D01*
X0006951Y0130153D02*
X0018967Y0130153D01*
X0018967Y0128555D02*
X0006952Y0128555D01*
X0006953Y0126956D02*
X0018967Y0126956D01*
X0018967Y0125358D02*
X0006954Y0125358D01*
X0006955Y0123759D02*
X0018967Y0123759D01*
X0018967Y0122161D02*
X0006956Y0122161D01*
X0006957Y0120562D02*
X0018967Y0120562D01*
X0018967Y0118964D02*
X0006958Y0118964D01*
X0006959Y0117365D02*
X0018967Y0117365D01*
X0018967Y0115767D02*
X0006960Y0115767D01*
X0006961Y0114168D02*
X0018967Y0114168D01*
X0018967Y0112570D02*
X0006963Y0112570D01*
X0006964Y0110971D02*
X0018967Y0110971D01*
X0018967Y0109373D02*
X0006965Y0109373D01*
X0006966Y0107774D02*
X0018967Y0107774D01*
X0018967Y0106176D02*
X0006967Y0106176D01*
X0006968Y0104577D02*
X0018967Y0104577D01*
X0018967Y0102979D02*
X0006969Y0102979D01*
X0006970Y0101380D02*
X0018967Y0101380D01*
X0018967Y0099782D02*
X0006971Y0099782D01*
X0006972Y0098183D02*
X0018967Y0098183D01*
X0018967Y0096585D02*
X0006973Y0096585D01*
X0006974Y0094986D02*
X0018967Y0094986D01*
X0018967Y0093388D02*
X0006975Y0093388D01*
X0006976Y0091789D02*
X0018967Y0091789D01*
X0018967Y0090191D02*
X0006977Y0090191D01*
X0006978Y0088592D02*
X0018967Y0088592D01*
X0018967Y0086994D02*
X0006979Y0086994D01*
X0006980Y0085395D02*
X0018967Y0085395D01*
X0018967Y0083797D02*
X0006981Y0083797D01*
X0006982Y0082198D02*
X0018967Y0082198D01*
X0018967Y0080599D02*
X0006983Y0080599D01*
X0006984Y0079001D02*
X0018967Y0079001D01*
X0018967Y0077402D02*
X0006985Y0077402D01*
X0006986Y0075804D02*
X0018967Y0075804D01*
X0018967Y0074205D02*
X0006987Y0074205D01*
X0006988Y0072607D02*
X0018967Y0072607D01*
X0018967Y0071008D02*
X0006989Y0071008D01*
X0006990Y0069410D02*
X0018967Y0069410D01*
X0018967Y0067811D02*
X0006991Y0067811D01*
X0006992Y0066213D02*
X0018967Y0066213D01*
X0018967Y0064614D02*
X0006993Y0064614D01*
X0006994Y0063016D02*
X0018967Y0063016D01*
X0018967Y0061417D02*
X0006995Y0061417D01*
X0006996Y0059819D02*
X0018967Y0059819D01*
X0018967Y0058220D02*
X0006997Y0058220D01*
X0006998Y0056622D02*
X0018967Y0056622D01*
X0018967Y0055023D02*
X0006999Y0055023D01*
X0007000Y0053425D02*
X0018967Y0053425D01*
X0018967Y0051826D02*
X0007001Y0051826D01*
X0007002Y0050228D02*
X0018967Y0050228D01*
X0018967Y0048629D02*
X0007003Y0048629D01*
X0023767Y0056622D02*
X0034269Y0056622D01*
X0033515Y0058220D02*
X0023767Y0058220D01*
X0023767Y0059819D02*
X0033613Y0059819D01*
X0034574Y0061417D02*
X0023767Y0061417D01*
X0028146Y0063016D02*
X0048273Y0063016D01*
X0048846Y0061417D02*
X0039656Y0061417D01*
X0037115Y0058867D02*
X0051387Y0058867D01*
X0054233Y0056622D02*
X0089054Y0056622D01*
X0090653Y0058220D02*
X0054987Y0058220D01*
X0054889Y0059819D02*
X0056170Y0059819D01*
X0060382Y0059819D02*
X0092252Y0059819D01*
X0097178Y0053425D02*
X0100517Y0053425D01*
X0098139Y0050501D02*
X0117824Y0030816D01*
X0129143Y0030816D01*
X0129241Y0030501D01*
X0131439Y0034243D02*
X0135573Y0034243D01*
X0137171Y0035841D02*
X0116192Y0035841D01*
X0114594Y0037440D02*
X0138770Y0037440D01*
X0140369Y0039038D02*
X0112995Y0039038D01*
X0111397Y0040637D02*
X0141967Y0040637D01*
X0147157Y0039038D02*
X0374242Y0039038D01*
X0374244Y0037440D02*
X0145558Y0037440D01*
X0143960Y0035841D02*
X0374246Y0035841D01*
X0374248Y0034243D02*
X0159391Y0034243D01*
X0158933Y0034701D02*
X0155454Y0034701D01*
X0152994Y0032240D01*
X0152994Y0028761D01*
X0155454Y0026301D01*
X0158933Y0026301D01*
X0161394Y0028761D01*
X0161394Y0032240D01*
X0158933Y0034701D01*
X0160990Y0032644D02*
X0374249Y0032644D01*
X0374251Y0031046D02*
X0161394Y0031046D01*
X0161394Y0029447D02*
X0374253Y0029447D01*
X0374255Y0027849D02*
X0160481Y0027849D01*
X0159265Y0024652D02*
X0374258Y0024652D01*
X0374257Y0026250D02*
X0134369Y0026250D01*
X0135967Y0027849D02*
X0153906Y0027849D01*
X0152994Y0029447D02*
X0137566Y0029447D01*
X0139164Y0031046D02*
X0152994Y0031046D01*
X0153397Y0032644D02*
X0140763Y0032644D01*
X0142361Y0034243D02*
X0154996Y0034243D01*
X0148755Y0040637D02*
X0374240Y0040637D01*
X0374239Y0042235D02*
X0150354Y0042235D01*
X0151952Y0043834D02*
X0374237Y0043834D01*
X0374235Y0045432D02*
X0153551Y0045432D01*
X0155149Y0047031D02*
X0374233Y0047031D01*
X0374232Y0048629D02*
X0156748Y0048629D01*
X0158346Y0050228D02*
X0374230Y0050228D01*
X0374228Y0051826D02*
X0159945Y0051826D01*
X0161543Y0053425D02*
X0374226Y0053425D01*
X0374224Y0055023D02*
X0163142Y0055023D01*
X0164740Y0056622D02*
X0374223Y0056622D01*
X0374221Y0058220D02*
X0166339Y0058220D01*
X0167937Y0059819D02*
X0374219Y0059819D01*
X0374217Y0061417D02*
X0169536Y0061417D01*
X0174331Y0066213D02*
X0208069Y0066213D01*
X0208069Y0067811D02*
X0175930Y0067811D01*
X0177528Y0069410D02*
X0208109Y0069410D01*
X0209707Y0071008D02*
X0179127Y0071008D01*
X0160901Y0063016D02*
X0154180Y0063016D01*
X0154180Y0061417D02*
X0159303Y0061417D01*
X0157704Y0059819D02*
X0154180Y0059819D01*
X0154565Y0058220D02*
X0156106Y0058220D01*
X0149380Y0064614D02*
X0148264Y0064614D01*
X0144470Y0064614D02*
X0129420Y0064614D01*
X0126682Y0067725D02*
X0126682Y0068099D01*
X0126682Y0067725D02*
X0146367Y0067725D01*
X0150293Y0072607D02*
X0154684Y0072607D01*
X0153086Y0071008D02*
X0151891Y0071008D01*
X0159654Y0076583D02*
X0173926Y0090855D01*
X0177846Y0099782D02*
X0166077Y0099782D01*
X0166077Y0101380D02*
X0176247Y0101380D01*
X0176522Y0107774D02*
X0165647Y0107774D01*
X0166077Y0109373D02*
X0175434Y0109373D01*
X0175247Y0110971D02*
X0166077Y0110971D01*
X0165443Y0112570D02*
X0175791Y0112570D01*
X0178847Y0110540D02*
X0195087Y0126780D01*
X0199517Y0126780D01*
X0200993Y0125304D01*
X0208867Y0125304D01*
X0208926Y0125048D01*
X0209359Y0120383D02*
X0208926Y0120048D01*
X0209359Y0120383D02*
X0212312Y0120383D01*
X0216249Y0124320D01*
X0216249Y0130225D01*
X0219454Y0128555D02*
X0219938Y0128555D01*
X0218649Y0126956D02*
X0221537Y0126956D01*
X0223135Y0125358D02*
X0218649Y0125358D01*
X0218614Y0123759D02*
X0224734Y0123759D01*
X0226332Y0122161D02*
X0217484Y0122161D01*
X0215886Y0120562D02*
X0227931Y0120562D01*
X0228172Y0118964D02*
X0229530Y0118964D01*
X0229403Y0117365D02*
X0231128Y0117365D01*
X0229691Y0115767D02*
X0232727Y0115767D01*
X0231271Y0114168D02*
X0234325Y0114168D01*
X0232869Y0112570D02*
X0239850Y0112570D01*
X0239216Y0110971D02*
X0234468Y0110971D01*
X0236066Y0109373D02*
X0239216Y0109373D01*
X0239646Y0107774D02*
X0237665Y0107774D01*
X0245146Y0110048D02*
X0248237Y0110048D01*
X0252174Y0113985D01*
X0252174Y0178946D01*
X0295481Y0222253D01*
X0296957Y0222253D01*
X0297036Y0222548D01*
X0303755Y0218071D02*
X0322847Y0218071D01*
X0321248Y0216473D02*
X0304307Y0216473D01*
X0305509Y0214874D02*
X0319650Y0214874D01*
X0318051Y0213276D02*
X0306036Y0213276D01*
X0306036Y0211677D02*
X0316453Y0211677D01*
X0314854Y0210079D02*
X0305450Y0210079D01*
X0304164Y0208480D02*
X0313256Y0208480D01*
X0311657Y0206882D02*
X0303898Y0206882D01*
X0305340Y0205283D02*
X0310059Y0205283D01*
X0308460Y0203685D02*
X0306002Y0203685D01*
X0306036Y0202086D02*
X0306862Y0202086D01*
X0297036Y0202548D02*
X0296957Y0202076D01*
X0294989Y0202076D01*
X0254635Y0161721D01*
X0254635Y0146465D01*
X0262172Y0152533D02*
X0272071Y0152533D01*
X0273670Y0154131D02*
X0261411Y0154131D01*
X0262910Y0150934D02*
X0270473Y0150934D01*
X0268874Y0149335D02*
X0264509Y0149335D01*
X0266108Y0147737D02*
X0267276Y0147737D01*
X0282057Y0155730D02*
X0291780Y0155730D01*
X0291603Y0157328D02*
X0283655Y0157328D01*
X0285254Y0158927D02*
X0289180Y0158927D01*
X0288210Y0160525D02*
X0286852Y0160525D01*
X0308708Y0186101D02*
X0327636Y0186101D01*
X0327636Y0187700D02*
X0308708Y0187700D01*
X0308708Y0189298D02*
X0327636Y0189298D01*
X0336436Y0186101D02*
X0337636Y0186101D01*
X0344092Y0171715D02*
X0344262Y0171715D01*
X0338508Y0160525D02*
X0335565Y0160525D01*
X0336636Y0158927D02*
X0337436Y0158927D01*
X0337436Y0157328D02*
X0336636Y0157328D01*
X0336636Y0155730D02*
X0337436Y0155730D01*
X0332136Y0158927D02*
X0331936Y0158927D01*
X0331936Y0160525D02*
X0332136Y0160525D01*
X0332136Y0162124D02*
X0331936Y0162124D01*
X0358672Y0170116D02*
X0374095Y0170116D01*
X0374094Y0171715D02*
X0359852Y0171715D01*
X0360105Y0173313D02*
X0374092Y0173313D01*
X0360442Y0189280D02*
X0342233Y0207489D01*
X0342036Y0207548D01*
X0364622Y0219670D02*
X0374040Y0219670D01*
X0374038Y0221268D02*
X0367816Y0221268D01*
X0369469Y0222867D02*
X0374036Y0222867D01*
X0374035Y0224466D02*
X0370622Y0224466D01*
X0371506Y0226064D02*
X0374033Y0226064D01*
X0374031Y0227663D02*
X0371935Y0227663D01*
X0372230Y0229261D02*
X0374029Y0229261D01*
X0374027Y0230860D02*
X0372230Y0230860D01*
X0372023Y0232458D02*
X0374026Y0232458D01*
X0374024Y0234057D02*
X0371595Y0234057D01*
X0370812Y0235655D02*
X0374022Y0235655D01*
X0374020Y0237254D02*
X0369799Y0237254D01*
X0368200Y0238852D02*
X0374018Y0238852D01*
X0374017Y0240451D02*
X0365618Y0240451D01*
X0374015Y0242049D02*
X0006880Y0242049D01*
X0006881Y0240451D02*
X0016092Y0240451D01*
X0013510Y0238852D02*
X0006882Y0238852D01*
X0006883Y0237254D02*
X0011911Y0237254D01*
X0010898Y0235655D02*
X0006884Y0235655D01*
X0006885Y0234057D02*
X0010115Y0234057D01*
X0009687Y0232458D02*
X0006886Y0232458D01*
X0006887Y0230860D02*
X0009480Y0230860D01*
X0009480Y0229261D02*
X0006888Y0229261D01*
X0006889Y0227663D02*
X0009775Y0227663D01*
X0010204Y0226064D02*
X0006890Y0226064D01*
X0006891Y0224466D02*
X0011089Y0224466D01*
X0012241Y0222867D02*
X0006892Y0222867D01*
X0006893Y0221268D02*
X0013895Y0221268D01*
X0017088Y0219670D02*
X0006894Y0219670D01*
X0061063Y0235655D02*
X0288948Y0235655D01*
X0288622Y0210079D02*
X0286701Y0210079D01*
X0285103Y0208480D02*
X0289909Y0208480D01*
X0290175Y0206882D02*
X0283504Y0206882D01*
X0281906Y0205283D02*
X0288733Y0205283D01*
X0288070Y0203685D02*
X0280307Y0203685D01*
X0278709Y0202086D02*
X0288036Y0202086D01*
X0288453Y0200488D02*
X0277110Y0200488D01*
X0275512Y0198889D02*
X0288409Y0198889D01*
X0286810Y0197291D02*
X0273913Y0197291D01*
X0272315Y0195692D02*
X0285212Y0195692D01*
X0255127Y0192233D02*
X0231505Y0168611D01*
X0231505Y0144497D01*
X0226091Y0139083D01*
X0226091Y0137115D01*
X0227568Y0144005D02*
X0217725Y0134162D01*
X0199024Y0134162D01*
X0180324Y0115461D01*
X0160146Y0110048D02*
X0131111Y0110048D01*
X0138378Y0126956D02*
X0145836Y0126956D01*
X0148867Y0126956D02*
X0154280Y0126956D01*
X0178847Y0149418D02*
X0182292Y0149418D01*
X0191643Y0140068D01*
X0194103Y0140068D01*
X0174910Y0150894D02*
X0195580Y0171564D01*
X0195580Y0211918D01*
X0206898Y0223237D01*
X0207883Y0223237D01*
X0208257Y0223335D01*
X0214280Y0228650D02*
X0221662Y0221269D01*
X0221662Y0183375D01*
X0214283Y0178109D02*
X0237608Y0178109D01*
X0236010Y0176510D02*
X0216277Y0176510D01*
X0217040Y0174912D02*
X0234411Y0174912D01*
X0232813Y0173313D02*
X0217257Y0173313D01*
X0217022Y0171715D02*
X0231214Y0171715D01*
X0229616Y0170116D02*
X0216233Y0170116D01*
X0214175Y0168518D02*
X0229105Y0168518D01*
X0229105Y0166919D02*
X0215868Y0166919D01*
X0216871Y0165321D02*
X0229105Y0165321D01*
X0233965Y0165658D02*
X0233965Y0128257D01*
X0241839Y0120383D01*
X0244792Y0120383D01*
X0245146Y0120048D01*
X0244792Y0115461D02*
X0245146Y0115048D01*
X0244792Y0115461D02*
X0236426Y0115461D01*
X0217725Y0134162D01*
X0227568Y0144005D02*
X0227568Y0157784D01*
X0236365Y0142941D02*
X0242083Y0142941D01*
X0241220Y0141343D02*
X0236365Y0141343D01*
X0236365Y0139744D02*
X0240583Y0139744D01*
X0238984Y0138146D02*
X0236365Y0138146D01*
X0236365Y0136547D02*
X0237386Y0136547D01*
X0236487Y0134949D02*
X0236365Y0134949D01*
X0236365Y0133350D02*
X0236487Y0133350D01*
X0236487Y0131752D02*
X0236365Y0131752D01*
X0236365Y0130153D02*
X0236487Y0130153D01*
X0244792Y0125304D02*
X0245146Y0125048D01*
X0257095Y0110540D02*
X0254635Y0108080D01*
X0254635Y0100206D01*
X0263493Y0108572D02*
X0263493Y0133670D01*
X0325108Y0141343D02*
X0337865Y0141343D01*
X0337865Y0139744D02*
X0326747Y0139744D01*
X0337457Y0138146D02*
X0337865Y0138146D01*
X0319246Y0094986D02*
X0374180Y0094986D01*
X0374181Y0093388D02*
X0317648Y0093388D01*
X0316049Y0091789D02*
X0374183Y0091789D01*
X0374185Y0090191D02*
X0314451Y0090191D01*
X0312852Y0088592D02*
X0374187Y0088592D01*
X0374189Y0086994D02*
X0311254Y0086994D01*
X0309655Y0085395D02*
X0374190Y0085395D01*
X0374192Y0083797D02*
X0308057Y0083797D01*
X0306458Y0082198D02*
X0374194Y0082198D01*
X0374196Y0080599D02*
X0304860Y0080599D01*
X0303261Y0079001D02*
X0374198Y0079001D01*
X0374199Y0077402D02*
X0301663Y0077402D01*
X0300064Y0075804D02*
X0374201Y0075804D01*
X0374203Y0074205D02*
X0298466Y0074205D01*
X0296867Y0072607D02*
X0374205Y0072607D01*
X0374260Y0023053D02*
X0366429Y0023053D01*
X0368669Y0021455D02*
X0374262Y0021455D01*
X0374264Y0019856D02*
X0370160Y0019856D01*
X0371082Y0018258D02*
X0374266Y0018258D01*
X0374267Y0016659D02*
X0371720Y0016659D01*
X0372149Y0015061D02*
X0374269Y0015061D01*
X0374271Y0013462D02*
X0372230Y0013462D01*
X0372230Y0011864D02*
X0374273Y0011864D01*
X0374275Y0010265D02*
X0371809Y0010265D01*
X0371274Y0008666D02*
X0374276Y0008666D01*
X0350987Y0008666D02*
X0031434Y0008666D01*
X0031863Y0010265D02*
X0350452Y0010265D01*
X0350031Y0011864D02*
X0032072Y0011864D01*
X0032072Y0013462D02*
X0350031Y0013462D01*
X0350113Y0015061D02*
X0031780Y0015061D01*
X0048551Y0016659D02*
X0071348Y0016659D01*
X0071907Y0016101D02*
X0073729Y0016101D01*
X0073729Y0020501D01*
X0074517Y0020481D01*
X0101091Y0020481D01*
X0101288Y0020501D01*
X0101288Y0020501D01*
X0096888Y0020501D01*
X0096888Y0022323D01*
X0098059Y0023494D01*
X0076958Y0023494D01*
X0078129Y0022323D01*
X0078129Y0020501D01*
X0073729Y0020501D01*
X0069329Y0020501D01*
X0069329Y0018678D01*
X0071907Y0016101D01*
X0073729Y0016101D02*
X0075552Y0016101D01*
X0078129Y0018678D01*
X0078129Y0020501D01*
X0073729Y0020501D01*
X0073729Y0020501D01*
X0073729Y0020501D01*
X0073729Y0016101D01*
X0073729Y0016659D02*
X0073729Y0016659D01*
X0073729Y0018258D02*
X0073729Y0018258D01*
X0073729Y0019856D02*
X0073729Y0019856D01*
X0076110Y0016659D02*
X0098907Y0016659D01*
X0099466Y0016101D02*
X0096888Y0018678D01*
X0096888Y0020501D01*
X0101288Y0020501D01*
X0102076Y0020481D01*
X0129143Y0020481D01*
X0129241Y0020501D01*
X0129241Y0020501D01*
X0124841Y0020501D01*
X0124841Y0022323D01*
X0126012Y0023494D01*
X0104517Y0023494D01*
X0105688Y0022323D01*
X0105688Y0020501D01*
X0101288Y0020501D01*
X0101288Y0020501D01*
X0101288Y0020501D01*
X0101288Y0016101D01*
X0099466Y0016101D01*
X0101288Y0016101D02*
X0103111Y0016101D01*
X0105688Y0018678D01*
X0105688Y0020501D01*
X0101288Y0020501D01*
X0101288Y0016101D01*
X0101288Y0016659D02*
X0101288Y0016659D01*
X0101288Y0018258D02*
X0101288Y0018258D01*
X0101288Y0019856D02*
X0101288Y0019856D01*
X0103669Y0016659D02*
X0126860Y0016659D01*
X0127418Y0016101D02*
X0129241Y0016101D01*
X0131063Y0016101D01*
X0133641Y0018678D01*
X0133641Y0020501D01*
X0129241Y0020501D01*
X0124841Y0020501D01*
X0124841Y0018678D01*
X0127418Y0016101D01*
X0129241Y0016101D02*
X0129241Y0020501D01*
X0129241Y0016101D01*
X0129241Y0016659D02*
X0129241Y0016659D01*
X0129241Y0018258D02*
X0129241Y0018258D01*
X0129241Y0019856D02*
X0129241Y0019856D01*
X0129241Y0020501D02*
X0129241Y0020501D01*
X0124841Y0019856D02*
X0105688Y0019856D01*
X0105688Y0021455D02*
X0124841Y0021455D01*
X0125571Y0023053D02*
X0104958Y0023053D01*
X0105267Y0018258D02*
X0125262Y0018258D01*
X0131622Y0016659D02*
X0154813Y0016659D01*
X0155371Y0016101D02*
X0152794Y0018678D01*
X0152794Y0020501D01*
X0157194Y0020501D01*
X0157194Y0024901D01*
X0155371Y0024901D01*
X0152794Y0022323D01*
X0152794Y0020501D01*
X0157194Y0020501D01*
X0157194Y0020501D01*
X0157194Y0020501D01*
X0157194Y0016101D01*
X0155371Y0016101D01*
X0157194Y0016659D02*
X0157194Y0016659D01*
X0157194Y0018258D02*
X0157194Y0018258D01*
X0157194Y0019856D02*
X0157194Y0019856D01*
X0157194Y0021455D02*
X0157194Y0021455D01*
X0157194Y0023053D02*
X0157194Y0023053D01*
X0157194Y0024652D02*
X0157194Y0024652D01*
X0155122Y0024652D02*
X0132770Y0024652D01*
X0132911Y0023053D02*
X0153523Y0023053D01*
X0152794Y0021455D02*
X0133641Y0021455D01*
X0133641Y0019856D02*
X0152794Y0019856D01*
X0153214Y0018258D02*
X0133220Y0018258D01*
X0115798Y0029447D02*
X0105488Y0029447D01*
X0105488Y0031046D02*
X0114200Y0031046D01*
X0112601Y0032644D02*
X0105084Y0032644D01*
X0103486Y0034243D02*
X0111003Y0034243D01*
X0117791Y0034243D02*
X0127043Y0034243D01*
X0133037Y0032644D02*
X0133974Y0032644D01*
X0160864Y0023053D02*
X0355832Y0023053D01*
X0353593Y0021455D02*
X0161594Y0021455D01*
X0161594Y0019856D02*
X0352102Y0019856D01*
X0351179Y0018258D02*
X0161173Y0018258D01*
X0159574Y0016659D02*
X0350541Y0016659D01*
X0194893Y0158927D02*
X0186336Y0158927D01*
X0187935Y0160525D02*
X0194440Y0160525D01*
X0194718Y0162124D02*
X0189533Y0162124D01*
X0191132Y0163722D02*
X0195640Y0163722D01*
X0195640Y0165321D02*
X0192730Y0165321D01*
X0194329Y0166919D02*
X0195640Y0166919D01*
X0190738Y0170116D02*
X0180263Y0170116D01*
X0180263Y0168518D02*
X0189139Y0168518D01*
X0187541Y0166919D02*
X0180263Y0166919D01*
X0180263Y0165321D02*
X0185942Y0165321D01*
X0184344Y0163722D02*
X0180263Y0163722D01*
X0180263Y0162124D02*
X0182745Y0162124D01*
X0181147Y0160525D02*
X0180263Y0160525D01*
X0180263Y0159641D02*
X0180263Y0207012D01*
X0180263Y0207966D01*
X0179898Y0208848D01*
X0168691Y0220055D01*
X0168969Y0220333D01*
X0169776Y0222281D01*
X0169776Y0224390D01*
X0169006Y0226250D01*
X0200027Y0226250D01*
X0199257Y0224390D01*
X0199257Y0222281D01*
X0200064Y0220333D01*
X0200332Y0220065D01*
X0193545Y0213278D01*
X0193180Y0212395D01*
X0193180Y0172558D01*
X0180263Y0159641D01*
X0173926Y0160737D02*
X0163591Y0160737D01*
X0161131Y0163198D01*
X0160776Y0163335D01*
X0166255Y0168335D02*
X0167479Y0168842D01*
X0168969Y0170333D01*
X0169776Y0172281D01*
X0169776Y0174390D01*
X0168969Y0176338D01*
X0167479Y0177829D01*
X0166255Y0178335D01*
X0167479Y0178842D01*
X0168969Y0180333D01*
X0169776Y0182281D01*
X0169776Y0184390D01*
X0168969Y0186338D01*
X0167479Y0187829D01*
X0166255Y0188335D01*
X0167479Y0188842D01*
X0168969Y0190333D01*
X0169776Y0192281D01*
X0169776Y0194390D01*
X0168969Y0196338D01*
X0167479Y0197829D01*
X0166255Y0198335D01*
X0167479Y0198842D01*
X0168969Y0200333D01*
X0169776Y0202281D01*
X0169776Y0204390D01*
X0168969Y0206338D01*
X0167479Y0207829D01*
X0166255Y0208335D01*
X0167479Y0208842D01*
X0168969Y0210333D01*
X0169747Y0212211D01*
X0175463Y0206495D01*
X0175463Y0163997D01*
X0174642Y0164337D01*
X0173210Y0164337D01*
X0171887Y0163789D01*
X0171235Y0163137D01*
X0169776Y0163137D01*
X0169776Y0164390D01*
X0168969Y0166338D01*
X0167479Y0167829D01*
X0166255Y0168335D01*
X0166695Y0168518D02*
X0175463Y0168518D01*
X0175463Y0170116D02*
X0168752Y0170116D01*
X0169542Y0171715D02*
X0175463Y0171715D01*
X0175463Y0173313D02*
X0169776Y0173313D01*
X0169560Y0174912D02*
X0175463Y0174912D01*
X0175463Y0176510D02*
X0168797Y0176510D01*
X0166802Y0178109D02*
X0175463Y0178109D01*
X0175463Y0179707D02*
X0168343Y0179707D01*
X0169372Y0181306D02*
X0175463Y0181306D01*
X0175463Y0182904D02*
X0169776Y0182904D01*
X0169730Y0184503D02*
X0175463Y0184503D01*
X0175463Y0186101D02*
X0169067Y0186101D01*
X0167607Y0187700D02*
X0175463Y0187700D01*
X0175463Y0189298D02*
X0167935Y0189298D01*
X0169203Y0190897D02*
X0175463Y0190897D01*
X0175463Y0192495D02*
X0169776Y0192495D01*
X0169776Y0194094D02*
X0175463Y0194094D01*
X0175463Y0195692D02*
X0169237Y0195692D01*
X0168016Y0197291D02*
X0175463Y0197291D01*
X0175463Y0198889D02*
X0167526Y0198889D01*
X0169034Y0200488D02*
X0175463Y0200488D01*
X0175463Y0202086D02*
X0169696Y0202086D01*
X0169776Y0203685D02*
X0175463Y0203685D01*
X0175463Y0205283D02*
X0169406Y0205283D01*
X0168425Y0206882D02*
X0175076Y0206882D01*
X0173477Y0208480D02*
X0166605Y0208480D01*
X0168715Y0210079D02*
X0171879Y0210079D01*
X0170280Y0211677D02*
X0169526Y0211677D01*
X0173872Y0214874D02*
X0195142Y0214874D01*
X0193544Y0213276D02*
X0175470Y0213276D01*
X0177069Y0211677D02*
X0193180Y0211677D01*
X0193180Y0210079D02*
X0178667Y0210079D01*
X0180050Y0208480D02*
X0193180Y0208480D01*
X0193180Y0206882D02*
X0180263Y0206882D01*
X0180263Y0205283D02*
X0193180Y0205283D01*
X0193180Y0203685D02*
X0180263Y0203685D01*
X0180263Y0202086D02*
X0193180Y0202086D01*
X0193180Y0200488D02*
X0180263Y0200488D01*
X0180263Y0198889D02*
X0193180Y0198889D01*
X0193180Y0197291D02*
X0180263Y0197291D01*
X0180263Y0195692D02*
X0193180Y0195692D01*
X0193180Y0194094D02*
X0180263Y0194094D01*
X0180263Y0192495D02*
X0193180Y0192495D01*
X0193180Y0190897D02*
X0180263Y0190897D01*
X0180263Y0189298D02*
X0193180Y0189298D01*
X0193180Y0187700D02*
X0180263Y0187700D01*
X0180263Y0186101D02*
X0193180Y0186101D01*
X0193180Y0184503D02*
X0180263Y0184503D01*
X0180263Y0182904D02*
X0193180Y0182904D01*
X0193180Y0181306D02*
X0180263Y0181306D01*
X0180263Y0179707D02*
X0193180Y0179707D01*
X0193180Y0178109D02*
X0180263Y0178109D01*
X0180263Y0176510D02*
X0193180Y0176510D01*
X0193180Y0174912D02*
X0180263Y0174912D01*
X0180263Y0173313D02*
X0193180Y0173313D01*
X0192336Y0171715D02*
X0180263Y0171715D01*
X0175463Y0166919D02*
X0168388Y0166919D01*
X0169391Y0165321D02*
X0175463Y0165321D01*
X0171820Y0163722D02*
X0169776Y0163722D01*
X0216683Y0190897D02*
X0219262Y0190897D01*
X0219262Y0192495D02*
X0217257Y0192495D01*
X0217257Y0194094D02*
X0219262Y0194094D01*
X0219262Y0195692D02*
X0216717Y0195692D01*
X0215497Y0197291D02*
X0219262Y0197291D01*
X0219262Y0198889D02*
X0215006Y0198889D01*
X0216514Y0200488D02*
X0219262Y0200488D01*
X0219262Y0202086D02*
X0217176Y0202086D01*
X0217257Y0203685D02*
X0219262Y0203685D01*
X0219262Y0205283D02*
X0216887Y0205283D01*
X0215906Y0206882D02*
X0219262Y0206882D01*
X0219262Y0208480D02*
X0214085Y0208480D01*
X0216195Y0210079D02*
X0219262Y0210079D01*
X0219262Y0211677D02*
X0217007Y0211677D01*
X0217257Y0213276D02*
X0219262Y0213276D01*
X0219262Y0214874D02*
X0217056Y0214874D01*
X0216314Y0216473D02*
X0219262Y0216473D01*
X0219262Y0218071D02*
X0214372Y0218071D01*
X0215787Y0219670D02*
X0219262Y0219670D01*
X0218268Y0221268D02*
X0216837Y0221268D01*
X0199937Y0219670D02*
X0169076Y0219670D01*
X0169357Y0221268D02*
X0199676Y0221268D01*
X0199257Y0222867D02*
X0169776Y0222867D01*
X0169745Y0224466D02*
X0199288Y0224466D01*
X0199950Y0226064D02*
X0169083Y0226064D01*
X0170675Y0218071D02*
X0198339Y0218071D01*
X0196740Y0216473D02*
X0172273Y0216473D01*
X0160776Y0213335D02*
X0160639Y0212902D01*
X0158670Y0212902D01*
X0148828Y0203060D01*
X0151347Y0200488D02*
X0152519Y0200488D01*
X0113686Y0230860D02*
X0065859Y0230860D01*
X0026288Y0175993D02*
X0026288Y0124320D01*
X0040560Y0110048D01*
X0043926Y0110048D01*
X0043513Y0105127D02*
X0039576Y0105127D01*
X0043513Y0105127D02*
X0043926Y0105048D01*
X0044005Y0100206D02*
X0043926Y0100048D01*
X0044005Y0100206D02*
X0046957Y0100206D01*
X0051387Y0104635D01*
X0043926Y0115048D02*
X0043513Y0115461D01*
X0043926Y0125048D02*
X0043513Y0125304D01*
X0040560Y0125304D01*
X0036623Y0129241D01*
X0030225Y0100206D02*
X0030225Y0080028D01*
X0029733Y0079536D01*
X0029733Y0076583D01*
X0032686Y0073631D01*
X0032194Y0072154D02*
X0025304Y0065265D01*
X0033670Y0078060D02*
X0052371Y0078060D01*
X0059107Y0083797D02*
X0074216Y0083797D01*
X0067627Y0101190D02*
X0076485Y0110048D01*
X0080146Y0110048D01*
X0087312Y0110048D01*
X0055871Y0053425D02*
X0055013Y0053425D01*
X0088876Y0047031D02*
X0091693Y0047031D01*
X0096002Y0047031D02*
X0098214Y0047031D01*
X0098139Y0050501D02*
X0094202Y0050501D01*
X0093847Y0050816D01*
X0106002Y0047031D02*
X0108819Y0047031D01*
X0097618Y0023053D02*
X0077399Y0023053D01*
X0078129Y0021455D02*
X0096888Y0021455D01*
X0096888Y0019856D02*
X0078129Y0019856D01*
X0077708Y0018258D02*
X0097309Y0018258D01*
X0069750Y0018258D02*
X0050149Y0018258D01*
X0050570Y0019856D02*
X0069329Y0019856D01*
X0069329Y0021455D02*
X0050570Y0021455D01*
X0049840Y0023053D02*
X0070059Y0023053D01*
X0070580Y0165658D02*
X0067135Y0169103D01*
D16*
X0071072Y0170580D03*
X0070580Y0165658D03*
X0090757Y0149418D03*
X0087312Y0140560D03*
X0096662Y0133178D03*
X0104536Y0133178D03*
X0106997Y0142528D03*
X0115363Y0137607D03*
X0108473Y0149418D03*
X0133572Y0141544D03*
X0147351Y0130225D03*
X0136524Y0123828D03*
X0135048Y0118906D03*
X0131111Y0114969D03*
X0131111Y0110048D03*
X0131111Y0105127D03*
X0131111Y0100206D03*
X0140461Y0095284D03*
X0135048Y0089871D03*
X0135048Y0081013D03*
X0146367Y0072646D03*
X0146367Y0067725D03*
X0139910Y0058572D03*
X0151780Y0055914D03*
X0140501Y0043178D03*
X0115343Y0040383D03*
X0120698Y0062863D03*
X0116170Y0072351D03*
X0106249Y0063217D03*
X0080914Y0074615D03*
X0065973Y0083887D03*
X0072548Y0090363D03*
X0072548Y0100698D03*
X0067627Y0101190D03*
X0062745Y0111367D03*
X0056308Y0116446D03*
X0064182Y0120383D03*
X0066446Y0129595D03*
X0051387Y0130225D03*
X0047942Y0134162D03*
X0036623Y0129241D03*
X0036623Y0139083D03*
X0064123Y0146879D03*
X0088788Y0125304D03*
X0088788Y0119891D03*
X0093808Y0119753D03*
X0094694Y0114969D03*
X0087312Y0110048D03*
X0087312Y0105127D03*
X0087804Y0100206D03*
X0096209Y0098808D03*
X0106013Y0094792D03*
X0102391Y0080265D03*
X0058276Y0062804D03*
X0051387Y0058867D03*
X0037115Y0058867D03*
X0025304Y0065265D03*
X0033670Y0078060D03*
X0051387Y0073631D03*
X0056800Y0081013D03*
X0051879Y0095284D03*
X0052371Y0100206D03*
X0036623Y0101190D03*
X0030225Y0100206D03*
X0099595Y0124871D03*
X0112410Y0119891D03*
X0148828Y0094792D03*
X0150304Y0085442D03*
X0156209Y0081013D03*
X0173926Y0090855D03*
X0201485Y0084950D03*
X0216741Y0074615D03*
X0231997Y0084950D03*
X0243316Y0078060D03*
X0251131Y0078139D03*
X0267548Y0066249D03*
X0277194Y0077863D03*
X0259556Y0099713D03*
X0254635Y0100206D03*
X0263493Y0108572D03*
X0268414Y0121859D03*
X0267430Y0129733D03*
X0258572Y0137607D03*
X0244792Y0140560D03*
X0242312Y0152391D03*
X0237902Y0161721D03*
X0227568Y0163198D03*
X0227568Y0157784D03*
X0221662Y0149418D03*
X0226091Y0137115D03*
X0216249Y0130225D03*
X0198040Y0122843D03*
X0197548Y0117922D03*
X0189182Y0113985D03*
X0198532Y0110048D03*
X0178847Y0110540D03*
X0178847Y0119891D03*
X0173926Y0124812D03*
X0174418Y0129733D03*
X0174398Y0137469D03*
X0181308Y0144989D03*
X0178847Y0149418D03*
X0194103Y0140068D03*
X0194103Y0134654D03*
X0197312Y0145580D03*
X0198040Y0160737D03*
X0191131Y0179123D03*
X0172745Y0186800D03*
X0148828Y0203060D03*
X0137509Y0201583D03*
X0110934Y0186328D03*
X0108414Y0176721D03*
X0060068Y0201603D03*
X0028257Y0183375D03*
X0030225Y0174517D03*
X0032686Y0166643D03*
X0103611Y0219044D03*
X0148335Y0223020D03*
X0177036Y0220934D03*
X0187469Y0210658D03*
X0221662Y0183375D03*
X0242509Y0199202D03*
X0255127Y0192233D03*
X0262312Y0179910D03*
X0247745Y0172548D03*
X0248237Y0167627D03*
X0262312Y0159083D03*
X0258572Y0151879D03*
X0276091Y0174280D03*
X0294005Y0152863D03*
X0300894Y0148926D03*
X0296957Y0144989D03*
X0292194Y0138847D03*
X0298434Y0125796D03*
X0309202Y0128296D03*
X0323532Y0138099D03*
X0308769Y0145501D03*
X0320855Y0116761D03*
X0317135Y0112509D03*
X0318119Y0106111D03*
X0300225Y0100501D03*
X0226091Y0115954D03*
X0221662Y0112509D03*
X0224123Y0094792D03*
X0162154Y0134989D03*
X0158178Y0139083D03*
X0173926Y0160737D03*
X0253139Y0223572D03*
X0261997Y0233217D03*
X0356505Y0173040D03*
X0360442Y0178946D03*
X0360442Y0189280D03*
X0359792Y0209320D03*
X0279123Y0038887D03*
X0080914Y0040166D03*
X0052863Y0235048D03*
M02*
