%
M48
M72
T01C0.02400
T02C0.03200
T03C0.03600
T04C0.04000
T05C0.04400
T06C0.05200
T07C0.11900
T08C0.12598
%
T01
X57102Y148835
X43323Y162909
X36433Y188500
X30331Y189386
X14189Y207890
X47260Y244110
X80724Y198835
X92535Y198835
X104346Y198835
X127969Y218520
X135350Y206217
X120094Y238205
X131906Y253953
X93520Y252476
X90075Y262319
X84661Y244110
X175213Y202772
X225902Y90075
X175213Y96472
X135843Y41354
T02
X51984Y285488
X51984Y275488
X67575Y293126
X97575Y293126
X139780Y272890
X139780Y242890
X139780Y229583
X139780Y199583
X139780Y190213
X139780Y160213
X139780Y146906
X139780Y116906
X112220Y138717
X112220Y148717
X100409Y148717
X100409Y138717
X88598Y138717
X88598Y148717
X76787Y148717
X76787Y138717
X76787Y169150
X88598Y169150
X100409Y169150
X112220Y169150
X112220Y189150
X100409Y189150
X99661Y206709
X88598Y189150
X76787Y189150
X69661Y206709
X81472Y218520
X111472Y218520
X88598Y91787
X72102Y76039
X72102Y66039
X72102Y56039
X72102Y46039
X88598Y48480
X88598Y61787
X88598Y18480
X42102Y46039
X42102Y56039
X42102Y66039
X42102Y76039
T03
X18559Y313205
X18559Y303205
X18559Y293205
X37417Y313756
X37417Y343756
X18047Y162378
X18047Y152378
X18047Y142378
X18047Y132378
X18047Y114622
X18047Y104622
X18047Y94622
X46039Y92535
X76039Y92535
X112969Y37417
X112969Y17732
X142969Y17732
X142969Y37417
X72102Y21669
X42102Y21669
T04
X70724Y328756
X90724Y328756
X33756Y240488
X33756Y230488
X33756Y220488
X33756Y210488
X33756Y200488
X23756Y200488
X23756Y210488
X23756Y220488
X23756Y230488
X23756Y240488
T05
X238205Y107535
X238205Y92535
X238205Y77535
X238205Y52417
X238205Y37417
X238205Y22417
T06
X189543Y151551
X189543Y166551
X189543Y181551
X189543Y196551
X189543Y211551
X189543Y226551
X189543Y241551
X189543Y256551
X189543Y271551
X189543Y286551
X189543Y301551
X209543Y294051
X209543Y279051
X209543Y264051
X209543Y249051
X209543Y234051
X209543Y219051
X209543Y204051
X209543Y189051
X209543Y174051
X209543Y159051
T07
X208543Y330551
X222543Y330551
X208543Y122551
X222543Y122551
T08
X13795Y17732
X206709Y13795
X242142Y352378
X13795Y352378
M30
