G75*
%MOIN*%
%OFA0B0*%
%FSLAX25Y25*%
%IPPOS*%
%LPD*%
%AMOC8*
5,1,8,0,0,1.08239X$1,22.5*
%
%ADD10C,0.00000*%
%ADD11C,0.00600*%
%ADD12C,0.00500*%
%ADD13C,0.01600*%
%ADD14C,0.00700*%
%ADD15C,0.00800*%
%ADD16C,0.00400*%
%ADD17R,0.02000X0.01500*%
%ADD18C,0.00200*%
%ADD19R,0.04000X0.01500*%
%ADD20R,0.01500X0.02000*%
%ADD21C,0.00100*%
%ADD22R,0.02000X0.10000*%
%ADD23R,0.07500X0.03000*%
%ADD24C,0.01000*%
D10*
X0001394Y0001000D02*
X0001000Y0262024D01*
X0324858Y0262024D01*
X0325252Y0001000D01*
X0001394Y0001000D01*
X0006355Y0014780D02*
X0006357Y0014938D01*
X0006363Y0015096D01*
X0006373Y0015254D01*
X0006387Y0015412D01*
X0006405Y0015569D01*
X0006426Y0015726D01*
X0006452Y0015882D01*
X0006482Y0016038D01*
X0006515Y0016193D01*
X0006553Y0016346D01*
X0006594Y0016499D01*
X0006639Y0016651D01*
X0006688Y0016802D01*
X0006741Y0016951D01*
X0006797Y0017099D01*
X0006857Y0017245D01*
X0006921Y0017390D01*
X0006989Y0017533D01*
X0007060Y0017675D01*
X0007134Y0017815D01*
X0007212Y0017952D01*
X0007294Y0018088D01*
X0007378Y0018222D01*
X0007467Y0018353D01*
X0007558Y0018482D01*
X0007653Y0018609D01*
X0007750Y0018734D01*
X0007851Y0018856D01*
X0007955Y0018975D01*
X0008062Y0019092D01*
X0008172Y0019206D01*
X0008285Y0019317D01*
X0008400Y0019426D01*
X0008518Y0019531D01*
X0008639Y0019633D01*
X0008762Y0019733D01*
X0008888Y0019829D01*
X0009016Y0019922D01*
X0009146Y0020012D01*
X0009279Y0020098D01*
X0009414Y0020182D01*
X0009550Y0020261D01*
X0009689Y0020338D01*
X0009830Y0020410D01*
X0009972Y0020480D01*
X0010116Y0020545D01*
X0010262Y0020607D01*
X0010409Y0020665D01*
X0010558Y0020720D01*
X0010708Y0020771D01*
X0010859Y0020818D01*
X0011011Y0020861D01*
X0011164Y0020900D01*
X0011319Y0020936D01*
X0011474Y0020967D01*
X0011630Y0020995D01*
X0011786Y0021019D01*
X0011943Y0021039D01*
X0012101Y0021055D01*
X0012258Y0021067D01*
X0012417Y0021075D01*
X0012575Y0021079D01*
X0012733Y0021079D01*
X0012891Y0021075D01*
X0013050Y0021067D01*
X0013207Y0021055D01*
X0013365Y0021039D01*
X0013522Y0021019D01*
X0013678Y0020995D01*
X0013834Y0020967D01*
X0013989Y0020936D01*
X0014144Y0020900D01*
X0014297Y0020861D01*
X0014449Y0020818D01*
X0014600Y0020771D01*
X0014750Y0020720D01*
X0014899Y0020665D01*
X0015046Y0020607D01*
X0015192Y0020545D01*
X0015336Y0020480D01*
X0015478Y0020410D01*
X0015619Y0020338D01*
X0015758Y0020261D01*
X0015894Y0020182D01*
X0016029Y0020098D01*
X0016162Y0020012D01*
X0016292Y0019922D01*
X0016420Y0019829D01*
X0016546Y0019733D01*
X0016669Y0019633D01*
X0016790Y0019531D01*
X0016908Y0019426D01*
X0017023Y0019317D01*
X0017136Y0019206D01*
X0017246Y0019092D01*
X0017353Y0018975D01*
X0017457Y0018856D01*
X0017558Y0018734D01*
X0017655Y0018609D01*
X0017750Y0018482D01*
X0017841Y0018353D01*
X0017930Y0018222D01*
X0018014Y0018088D01*
X0018096Y0017952D01*
X0018174Y0017815D01*
X0018248Y0017675D01*
X0018319Y0017533D01*
X0018387Y0017390D01*
X0018451Y0017245D01*
X0018511Y0017099D01*
X0018567Y0016951D01*
X0018620Y0016802D01*
X0018669Y0016651D01*
X0018714Y0016499D01*
X0018755Y0016346D01*
X0018793Y0016193D01*
X0018826Y0016038D01*
X0018856Y0015882D01*
X0018882Y0015726D01*
X0018903Y0015569D01*
X0018921Y0015412D01*
X0018935Y0015254D01*
X0018945Y0015096D01*
X0018951Y0014938D01*
X0018953Y0014780D01*
X0018951Y0014622D01*
X0018945Y0014464D01*
X0018935Y0014306D01*
X0018921Y0014148D01*
X0018903Y0013991D01*
X0018882Y0013834D01*
X0018856Y0013678D01*
X0018826Y0013522D01*
X0018793Y0013367D01*
X0018755Y0013214D01*
X0018714Y0013061D01*
X0018669Y0012909D01*
X0018620Y0012758D01*
X0018567Y0012609D01*
X0018511Y0012461D01*
X0018451Y0012315D01*
X0018387Y0012170D01*
X0018319Y0012027D01*
X0018248Y0011885D01*
X0018174Y0011745D01*
X0018096Y0011608D01*
X0018014Y0011472D01*
X0017930Y0011338D01*
X0017841Y0011207D01*
X0017750Y0011078D01*
X0017655Y0010951D01*
X0017558Y0010826D01*
X0017457Y0010704D01*
X0017353Y0010585D01*
X0017246Y0010468D01*
X0017136Y0010354D01*
X0017023Y0010243D01*
X0016908Y0010134D01*
X0016790Y0010029D01*
X0016669Y0009927D01*
X0016546Y0009827D01*
X0016420Y0009731D01*
X0016292Y0009638D01*
X0016162Y0009548D01*
X0016029Y0009462D01*
X0015894Y0009378D01*
X0015758Y0009299D01*
X0015619Y0009222D01*
X0015478Y0009150D01*
X0015336Y0009080D01*
X0015192Y0009015D01*
X0015046Y0008953D01*
X0014899Y0008895D01*
X0014750Y0008840D01*
X0014600Y0008789D01*
X0014449Y0008742D01*
X0014297Y0008699D01*
X0014144Y0008660D01*
X0013989Y0008624D01*
X0013834Y0008593D01*
X0013678Y0008565D01*
X0013522Y0008541D01*
X0013365Y0008521D01*
X0013207Y0008505D01*
X0013050Y0008493D01*
X0012891Y0008485D01*
X0012733Y0008481D01*
X0012575Y0008481D01*
X0012417Y0008485D01*
X0012258Y0008493D01*
X0012101Y0008505D01*
X0011943Y0008521D01*
X0011786Y0008541D01*
X0011630Y0008565D01*
X0011474Y0008593D01*
X0011319Y0008624D01*
X0011164Y0008660D01*
X0011011Y0008699D01*
X0010859Y0008742D01*
X0010708Y0008789D01*
X0010558Y0008840D01*
X0010409Y0008895D01*
X0010262Y0008953D01*
X0010116Y0009015D01*
X0009972Y0009080D01*
X0009830Y0009150D01*
X0009689Y0009222D01*
X0009550Y0009299D01*
X0009414Y0009378D01*
X0009279Y0009462D01*
X0009146Y0009548D01*
X0009016Y0009638D01*
X0008888Y0009731D01*
X0008762Y0009827D01*
X0008639Y0009927D01*
X0008518Y0010029D01*
X0008400Y0010134D01*
X0008285Y0010243D01*
X0008172Y0010354D01*
X0008062Y0010468D01*
X0007955Y0010585D01*
X0007851Y0010704D01*
X0007750Y0010826D01*
X0007653Y0010951D01*
X0007558Y0011078D01*
X0007467Y0011207D01*
X0007378Y0011338D01*
X0007294Y0011472D01*
X0007212Y0011608D01*
X0007134Y0011745D01*
X0007060Y0011885D01*
X0006989Y0012027D01*
X0006921Y0012170D01*
X0006857Y0012315D01*
X0006797Y0012461D01*
X0006741Y0012609D01*
X0006688Y0012758D01*
X0006639Y0012909D01*
X0006594Y0013061D01*
X0006553Y0013214D01*
X0006515Y0013367D01*
X0006482Y0013522D01*
X0006452Y0013678D01*
X0006426Y0013834D01*
X0006405Y0013991D01*
X0006387Y0014148D01*
X0006373Y0014306D01*
X0006363Y0014464D01*
X0006357Y0014622D01*
X0006355Y0014780D01*
X0007536Y0250213D02*
X0007538Y0250371D01*
X0007544Y0250529D01*
X0007554Y0250687D01*
X0007568Y0250845D01*
X0007586Y0251002D01*
X0007607Y0251159D01*
X0007633Y0251315D01*
X0007663Y0251471D01*
X0007696Y0251626D01*
X0007734Y0251779D01*
X0007775Y0251932D01*
X0007820Y0252084D01*
X0007869Y0252235D01*
X0007922Y0252384D01*
X0007978Y0252532D01*
X0008038Y0252678D01*
X0008102Y0252823D01*
X0008170Y0252966D01*
X0008241Y0253108D01*
X0008315Y0253248D01*
X0008393Y0253385D01*
X0008475Y0253521D01*
X0008559Y0253655D01*
X0008648Y0253786D01*
X0008739Y0253915D01*
X0008834Y0254042D01*
X0008931Y0254167D01*
X0009032Y0254289D01*
X0009136Y0254408D01*
X0009243Y0254525D01*
X0009353Y0254639D01*
X0009466Y0254750D01*
X0009581Y0254859D01*
X0009699Y0254964D01*
X0009820Y0255066D01*
X0009943Y0255166D01*
X0010069Y0255262D01*
X0010197Y0255355D01*
X0010327Y0255445D01*
X0010460Y0255531D01*
X0010595Y0255615D01*
X0010731Y0255694D01*
X0010870Y0255771D01*
X0011011Y0255843D01*
X0011153Y0255913D01*
X0011297Y0255978D01*
X0011443Y0256040D01*
X0011590Y0256098D01*
X0011739Y0256153D01*
X0011889Y0256204D01*
X0012040Y0256251D01*
X0012192Y0256294D01*
X0012345Y0256333D01*
X0012500Y0256369D01*
X0012655Y0256400D01*
X0012811Y0256428D01*
X0012967Y0256452D01*
X0013124Y0256472D01*
X0013282Y0256488D01*
X0013439Y0256500D01*
X0013598Y0256508D01*
X0013756Y0256512D01*
X0013914Y0256512D01*
X0014072Y0256508D01*
X0014231Y0256500D01*
X0014388Y0256488D01*
X0014546Y0256472D01*
X0014703Y0256452D01*
X0014859Y0256428D01*
X0015015Y0256400D01*
X0015170Y0256369D01*
X0015325Y0256333D01*
X0015478Y0256294D01*
X0015630Y0256251D01*
X0015781Y0256204D01*
X0015931Y0256153D01*
X0016080Y0256098D01*
X0016227Y0256040D01*
X0016373Y0255978D01*
X0016517Y0255913D01*
X0016659Y0255843D01*
X0016800Y0255771D01*
X0016939Y0255694D01*
X0017075Y0255615D01*
X0017210Y0255531D01*
X0017343Y0255445D01*
X0017473Y0255355D01*
X0017601Y0255262D01*
X0017727Y0255166D01*
X0017850Y0255066D01*
X0017971Y0254964D01*
X0018089Y0254859D01*
X0018204Y0254750D01*
X0018317Y0254639D01*
X0018427Y0254525D01*
X0018534Y0254408D01*
X0018638Y0254289D01*
X0018739Y0254167D01*
X0018836Y0254042D01*
X0018931Y0253915D01*
X0019022Y0253786D01*
X0019111Y0253655D01*
X0019195Y0253521D01*
X0019277Y0253385D01*
X0019355Y0253248D01*
X0019429Y0253108D01*
X0019500Y0252966D01*
X0019568Y0252823D01*
X0019632Y0252678D01*
X0019692Y0252532D01*
X0019748Y0252384D01*
X0019801Y0252235D01*
X0019850Y0252084D01*
X0019895Y0251932D01*
X0019936Y0251779D01*
X0019974Y0251626D01*
X0020007Y0251471D01*
X0020037Y0251315D01*
X0020063Y0251159D01*
X0020084Y0251002D01*
X0020102Y0250845D01*
X0020116Y0250687D01*
X0020126Y0250529D01*
X0020132Y0250371D01*
X0020134Y0250213D01*
X0020132Y0250055D01*
X0020126Y0249897D01*
X0020116Y0249739D01*
X0020102Y0249581D01*
X0020084Y0249424D01*
X0020063Y0249267D01*
X0020037Y0249111D01*
X0020007Y0248955D01*
X0019974Y0248800D01*
X0019936Y0248647D01*
X0019895Y0248494D01*
X0019850Y0248342D01*
X0019801Y0248191D01*
X0019748Y0248042D01*
X0019692Y0247894D01*
X0019632Y0247748D01*
X0019568Y0247603D01*
X0019500Y0247460D01*
X0019429Y0247318D01*
X0019355Y0247178D01*
X0019277Y0247041D01*
X0019195Y0246905D01*
X0019111Y0246771D01*
X0019022Y0246640D01*
X0018931Y0246511D01*
X0018836Y0246384D01*
X0018739Y0246259D01*
X0018638Y0246137D01*
X0018534Y0246018D01*
X0018427Y0245901D01*
X0018317Y0245787D01*
X0018204Y0245676D01*
X0018089Y0245567D01*
X0017971Y0245462D01*
X0017850Y0245360D01*
X0017727Y0245260D01*
X0017601Y0245164D01*
X0017473Y0245071D01*
X0017343Y0244981D01*
X0017210Y0244895D01*
X0017075Y0244811D01*
X0016939Y0244732D01*
X0016800Y0244655D01*
X0016659Y0244583D01*
X0016517Y0244513D01*
X0016373Y0244448D01*
X0016227Y0244386D01*
X0016080Y0244328D01*
X0015931Y0244273D01*
X0015781Y0244222D01*
X0015630Y0244175D01*
X0015478Y0244132D01*
X0015325Y0244093D01*
X0015170Y0244057D01*
X0015015Y0244026D01*
X0014859Y0243998D01*
X0014703Y0243974D01*
X0014546Y0243954D01*
X0014388Y0243938D01*
X0014231Y0243926D01*
X0014072Y0243918D01*
X0013914Y0243914D01*
X0013756Y0243914D01*
X0013598Y0243918D01*
X0013439Y0243926D01*
X0013282Y0243938D01*
X0013124Y0243954D01*
X0012967Y0243974D01*
X0012811Y0243998D01*
X0012655Y0244026D01*
X0012500Y0244057D01*
X0012345Y0244093D01*
X0012192Y0244132D01*
X0012040Y0244175D01*
X0011889Y0244222D01*
X0011739Y0244273D01*
X0011590Y0244328D01*
X0011443Y0244386D01*
X0011297Y0244448D01*
X0011153Y0244513D01*
X0011011Y0244583D01*
X0010870Y0244655D01*
X0010731Y0244732D01*
X0010595Y0244811D01*
X0010460Y0244895D01*
X0010327Y0244981D01*
X0010197Y0245071D01*
X0010069Y0245164D01*
X0009943Y0245260D01*
X0009820Y0245360D01*
X0009699Y0245462D01*
X0009581Y0245567D01*
X0009466Y0245676D01*
X0009353Y0245787D01*
X0009243Y0245901D01*
X0009136Y0246018D01*
X0009032Y0246137D01*
X0008931Y0246259D01*
X0008834Y0246384D01*
X0008739Y0246511D01*
X0008648Y0246640D01*
X0008559Y0246771D01*
X0008475Y0246905D01*
X0008393Y0247041D01*
X0008315Y0247178D01*
X0008241Y0247318D01*
X0008170Y0247460D01*
X0008102Y0247603D01*
X0008038Y0247748D01*
X0007978Y0247894D01*
X0007922Y0248042D01*
X0007869Y0248191D01*
X0007820Y0248342D01*
X0007775Y0248494D01*
X0007734Y0248647D01*
X0007696Y0248800D01*
X0007663Y0248955D01*
X0007633Y0249111D01*
X0007607Y0249267D01*
X0007586Y0249424D01*
X0007568Y0249581D01*
X0007554Y0249739D01*
X0007544Y0249897D01*
X0007538Y0250055D01*
X0007536Y0250213D01*
X0251630Y0250213D02*
X0251632Y0250371D01*
X0251638Y0250529D01*
X0251648Y0250687D01*
X0251662Y0250845D01*
X0251680Y0251002D01*
X0251701Y0251159D01*
X0251727Y0251315D01*
X0251757Y0251471D01*
X0251790Y0251626D01*
X0251828Y0251779D01*
X0251869Y0251932D01*
X0251914Y0252084D01*
X0251963Y0252235D01*
X0252016Y0252384D01*
X0252072Y0252532D01*
X0252132Y0252678D01*
X0252196Y0252823D01*
X0252264Y0252966D01*
X0252335Y0253108D01*
X0252409Y0253248D01*
X0252487Y0253385D01*
X0252569Y0253521D01*
X0252653Y0253655D01*
X0252742Y0253786D01*
X0252833Y0253915D01*
X0252928Y0254042D01*
X0253025Y0254167D01*
X0253126Y0254289D01*
X0253230Y0254408D01*
X0253337Y0254525D01*
X0253447Y0254639D01*
X0253560Y0254750D01*
X0253675Y0254859D01*
X0253793Y0254964D01*
X0253914Y0255066D01*
X0254037Y0255166D01*
X0254163Y0255262D01*
X0254291Y0255355D01*
X0254421Y0255445D01*
X0254554Y0255531D01*
X0254689Y0255615D01*
X0254825Y0255694D01*
X0254964Y0255771D01*
X0255105Y0255843D01*
X0255247Y0255913D01*
X0255391Y0255978D01*
X0255537Y0256040D01*
X0255684Y0256098D01*
X0255833Y0256153D01*
X0255983Y0256204D01*
X0256134Y0256251D01*
X0256286Y0256294D01*
X0256439Y0256333D01*
X0256594Y0256369D01*
X0256749Y0256400D01*
X0256905Y0256428D01*
X0257061Y0256452D01*
X0257218Y0256472D01*
X0257376Y0256488D01*
X0257533Y0256500D01*
X0257692Y0256508D01*
X0257850Y0256512D01*
X0258008Y0256512D01*
X0258166Y0256508D01*
X0258325Y0256500D01*
X0258482Y0256488D01*
X0258640Y0256472D01*
X0258797Y0256452D01*
X0258953Y0256428D01*
X0259109Y0256400D01*
X0259264Y0256369D01*
X0259419Y0256333D01*
X0259572Y0256294D01*
X0259724Y0256251D01*
X0259875Y0256204D01*
X0260025Y0256153D01*
X0260174Y0256098D01*
X0260321Y0256040D01*
X0260467Y0255978D01*
X0260611Y0255913D01*
X0260753Y0255843D01*
X0260894Y0255771D01*
X0261033Y0255694D01*
X0261169Y0255615D01*
X0261304Y0255531D01*
X0261437Y0255445D01*
X0261567Y0255355D01*
X0261695Y0255262D01*
X0261821Y0255166D01*
X0261944Y0255066D01*
X0262065Y0254964D01*
X0262183Y0254859D01*
X0262298Y0254750D01*
X0262411Y0254639D01*
X0262521Y0254525D01*
X0262628Y0254408D01*
X0262732Y0254289D01*
X0262833Y0254167D01*
X0262930Y0254042D01*
X0263025Y0253915D01*
X0263116Y0253786D01*
X0263205Y0253655D01*
X0263289Y0253521D01*
X0263371Y0253385D01*
X0263449Y0253248D01*
X0263523Y0253108D01*
X0263594Y0252966D01*
X0263662Y0252823D01*
X0263726Y0252678D01*
X0263786Y0252532D01*
X0263842Y0252384D01*
X0263895Y0252235D01*
X0263944Y0252084D01*
X0263989Y0251932D01*
X0264030Y0251779D01*
X0264068Y0251626D01*
X0264101Y0251471D01*
X0264131Y0251315D01*
X0264157Y0251159D01*
X0264178Y0251002D01*
X0264196Y0250845D01*
X0264210Y0250687D01*
X0264220Y0250529D01*
X0264226Y0250371D01*
X0264228Y0250213D01*
X0264226Y0250055D01*
X0264220Y0249897D01*
X0264210Y0249739D01*
X0264196Y0249581D01*
X0264178Y0249424D01*
X0264157Y0249267D01*
X0264131Y0249111D01*
X0264101Y0248955D01*
X0264068Y0248800D01*
X0264030Y0248647D01*
X0263989Y0248494D01*
X0263944Y0248342D01*
X0263895Y0248191D01*
X0263842Y0248042D01*
X0263786Y0247894D01*
X0263726Y0247748D01*
X0263662Y0247603D01*
X0263594Y0247460D01*
X0263523Y0247318D01*
X0263449Y0247178D01*
X0263371Y0247041D01*
X0263289Y0246905D01*
X0263205Y0246771D01*
X0263116Y0246640D01*
X0263025Y0246511D01*
X0262930Y0246384D01*
X0262833Y0246259D01*
X0262732Y0246137D01*
X0262628Y0246018D01*
X0262521Y0245901D01*
X0262411Y0245787D01*
X0262298Y0245676D01*
X0262183Y0245567D01*
X0262065Y0245462D01*
X0261944Y0245360D01*
X0261821Y0245260D01*
X0261695Y0245164D01*
X0261567Y0245071D01*
X0261437Y0244981D01*
X0261304Y0244895D01*
X0261169Y0244811D01*
X0261033Y0244732D01*
X0260894Y0244655D01*
X0260753Y0244583D01*
X0260611Y0244513D01*
X0260467Y0244448D01*
X0260321Y0244386D01*
X0260174Y0244328D01*
X0260025Y0244273D01*
X0259875Y0244222D01*
X0259724Y0244175D01*
X0259572Y0244132D01*
X0259419Y0244093D01*
X0259264Y0244057D01*
X0259109Y0244026D01*
X0258953Y0243998D01*
X0258797Y0243974D01*
X0258640Y0243954D01*
X0258482Y0243938D01*
X0258325Y0243926D01*
X0258166Y0243918D01*
X0258008Y0243914D01*
X0257850Y0243914D01*
X0257692Y0243918D01*
X0257533Y0243926D01*
X0257376Y0243938D01*
X0257218Y0243954D01*
X0257061Y0243974D01*
X0256905Y0243998D01*
X0256749Y0244026D01*
X0256594Y0244057D01*
X0256439Y0244093D01*
X0256286Y0244132D01*
X0256134Y0244175D01*
X0255983Y0244222D01*
X0255833Y0244273D01*
X0255684Y0244328D01*
X0255537Y0244386D01*
X0255391Y0244448D01*
X0255247Y0244513D01*
X0255105Y0244583D01*
X0254964Y0244655D01*
X0254825Y0244732D01*
X0254689Y0244811D01*
X0254554Y0244895D01*
X0254421Y0244981D01*
X0254291Y0245071D01*
X0254163Y0245164D01*
X0254037Y0245260D01*
X0253914Y0245360D01*
X0253793Y0245462D01*
X0253675Y0245567D01*
X0253560Y0245676D01*
X0253447Y0245787D01*
X0253337Y0245901D01*
X0253230Y0246018D01*
X0253126Y0246137D01*
X0253025Y0246259D01*
X0252928Y0246384D01*
X0252833Y0246511D01*
X0252742Y0246640D01*
X0252653Y0246771D01*
X0252569Y0246905D01*
X0252487Y0247041D01*
X0252409Y0247178D01*
X0252335Y0247318D01*
X0252264Y0247460D01*
X0252196Y0247603D01*
X0252132Y0247748D01*
X0252072Y0247894D01*
X0252016Y0248042D01*
X0251963Y0248191D01*
X0251914Y0248342D01*
X0251869Y0248494D01*
X0251828Y0248647D01*
X0251790Y0248800D01*
X0251757Y0248955D01*
X0251727Y0249111D01*
X0251701Y0249267D01*
X0251680Y0249424D01*
X0251662Y0249581D01*
X0251648Y0249739D01*
X0251638Y0249897D01*
X0251632Y0250055D01*
X0251630Y0250213D01*
X0304780Y0013992D02*
X0304782Y0014150D01*
X0304788Y0014308D01*
X0304798Y0014466D01*
X0304812Y0014624D01*
X0304830Y0014781D01*
X0304851Y0014938D01*
X0304877Y0015094D01*
X0304907Y0015250D01*
X0304940Y0015405D01*
X0304978Y0015558D01*
X0305019Y0015711D01*
X0305064Y0015863D01*
X0305113Y0016014D01*
X0305166Y0016163D01*
X0305222Y0016311D01*
X0305282Y0016457D01*
X0305346Y0016602D01*
X0305414Y0016745D01*
X0305485Y0016887D01*
X0305559Y0017027D01*
X0305637Y0017164D01*
X0305719Y0017300D01*
X0305803Y0017434D01*
X0305892Y0017565D01*
X0305983Y0017694D01*
X0306078Y0017821D01*
X0306175Y0017946D01*
X0306276Y0018068D01*
X0306380Y0018187D01*
X0306487Y0018304D01*
X0306597Y0018418D01*
X0306710Y0018529D01*
X0306825Y0018638D01*
X0306943Y0018743D01*
X0307064Y0018845D01*
X0307187Y0018945D01*
X0307313Y0019041D01*
X0307441Y0019134D01*
X0307571Y0019224D01*
X0307704Y0019310D01*
X0307839Y0019394D01*
X0307975Y0019473D01*
X0308114Y0019550D01*
X0308255Y0019622D01*
X0308397Y0019692D01*
X0308541Y0019757D01*
X0308687Y0019819D01*
X0308834Y0019877D01*
X0308983Y0019932D01*
X0309133Y0019983D01*
X0309284Y0020030D01*
X0309436Y0020073D01*
X0309589Y0020112D01*
X0309744Y0020148D01*
X0309899Y0020179D01*
X0310055Y0020207D01*
X0310211Y0020231D01*
X0310368Y0020251D01*
X0310526Y0020267D01*
X0310683Y0020279D01*
X0310842Y0020287D01*
X0311000Y0020291D01*
X0311158Y0020291D01*
X0311316Y0020287D01*
X0311475Y0020279D01*
X0311632Y0020267D01*
X0311790Y0020251D01*
X0311947Y0020231D01*
X0312103Y0020207D01*
X0312259Y0020179D01*
X0312414Y0020148D01*
X0312569Y0020112D01*
X0312722Y0020073D01*
X0312874Y0020030D01*
X0313025Y0019983D01*
X0313175Y0019932D01*
X0313324Y0019877D01*
X0313471Y0019819D01*
X0313617Y0019757D01*
X0313761Y0019692D01*
X0313903Y0019622D01*
X0314044Y0019550D01*
X0314183Y0019473D01*
X0314319Y0019394D01*
X0314454Y0019310D01*
X0314587Y0019224D01*
X0314717Y0019134D01*
X0314845Y0019041D01*
X0314971Y0018945D01*
X0315094Y0018845D01*
X0315215Y0018743D01*
X0315333Y0018638D01*
X0315448Y0018529D01*
X0315561Y0018418D01*
X0315671Y0018304D01*
X0315778Y0018187D01*
X0315882Y0018068D01*
X0315983Y0017946D01*
X0316080Y0017821D01*
X0316175Y0017694D01*
X0316266Y0017565D01*
X0316355Y0017434D01*
X0316439Y0017300D01*
X0316521Y0017164D01*
X0316599Y0017027D01*
X0316673Y0016887D01*
X0316744Y0016745D01*
X0316812Y0016602D01*
X0316876Y0016457D01*
X0316936Y0016311D01*
X0316992Y0016163D01*
X0317045Y0016014D01*
X0317094Y0015863D01*
X0317139Y0015711D01*
X0317180Y0015558D01*
X0317218Y0015405D01*
X0317251Y0015250D01*
X0317281Y0015094D01*
X0317307Y0014938D01*
X0317328Y0014781D01*
X0317346Y0014624D01*
X0317360Y0014466D01*
X0317370Y0014308D01*
X0317376Y0014150D01*
X0317378Y0013992D01*
X0317376Y0013834D01*
X0317370Y0013676D01*
X0317360Y0013518D01*
X0317346Y0013360D01*
X0317328Y0013203D01*
X0317307Y0013046D01*
X0317281Y0012890D01*
X0317251Y0012734D01*
X0317218Y0012579D01*
X0317180Y0012426D01*
X0317139Y0012273D01*
X0317094Y0012121D01*
X0317045Y0011970D01*
X0316992Y0011821D01*
X0316936Y0011673D01*
X0316876Y0011527D01*
X0316812Y0011382D01*
X0316744Y0011239D01*
X0316673Y0011097D01*
X0316599Y0010957D01*
X0316521Y0010820D01*
X0316439Y0010684D01*
X0316355Y0010550D01*
X0316266Y0010419D01*
X0316175Y0010290D01*
X0316080Y0010163D01*
X0315983Y0010038D01*
X0315882Y0009916D01*
X0315778Y0009797D01*
X0315671Y0009680D01*
X0315561Y0009566D01*
X0315448Y0009455D01*
X0315333Y0009346D01*
X0315215Y0009241D01*
X0315094Y0009139D01*
X0314971Y0009039D01*
X0314845Y0008943D01*
X0314717Y0008850D01*
X0314587Y0008760D01*
X0314454Y0008674D01*
X0314319Y0008590D01*
X0314183Y0008511D01*
X0314044Y0008434D01*
X0313903Y0008362D01*
X0313761Y0008292D01*
X0313617Y0008227D01*
X0313471Y0008165D01*
X0313324Y0008107D01*
X0313175Y0008052D01*
X0313025Y0008001D01*
X0312874Y0007954D01*
X0312722Y0007911D01*
X0312569Y0007872D01*
X0312414Y0007836D01*
X0312259Y0007805D01*
X0312103Y0007777D01*
X0311947Y0007753D01*
X0311790Y0007733D01*
X0311632Y0007717D01*
X0311475Y0007705D01*
X0311316Y0007697D01*
X0311158Y0007693D01*
X0311000Y0007693D01*
X0310842Y0007697D01*
X0310683Y0007705D01*
X0310526Y0007717D01*
X0310368Y0007733D01*
X0310211Y0007753D01*
X0310055Y0007777D01*
X0309899Y0007805D01*
X0309744Y0007836D01*
X0309589Y0007872D01*
X0309436Y0007911D01*
X0309284Y0007954D01*
X0309133Y0008001D01*
X0308983Y0008052D01*
X0308834Y0008107D01*
X0308687Y0008165D01*
X0308541Y0008227D01*
X0308397Y0008292D01*
X0308255Y0008362D01*
X0308114Y0008434D01*
X0307975Y0008511D01*
X0307839Y0008590D01*
X0307704Y0008674D01*
X0307571Y0008760D01*
X0307441Y0008850D01*
X0307313Y0008943D01*
X0307187Y0009039D01*
X0307064Y0009139D01*
X0306943Y0009241D01*
X0306825Y0009346D01*
X0306710Y0009455D01*
X0306597Y0009566D01*
X0306487Y0009680D01*
X0306380Y0009797D01*
X0306276Y0009916D01*
X0306175Y0010038D01*
X0306078Y0010163D01*
X0305983Y0010290D01*
X0305892Y0010419D01*
X0305803Y0010550D01*
X0305719Y0010684D01*
X0305637Y0010820D01*
X0305559Y0010957D01*
X0305485Y0011097D01*
X0305414Y0011239D01*
X0305346Y0011382D01*
X0305282Y0011527D01*
X0305222Y0011673D01*
X0305166Y0011821D01*
X0305113Y0011970D01*
X0305064Y0012121D01*
X0305019Y0012273D01*
X0304978Y0012426D01*
X0304940Y0012579D01*
X0304907Y0012734D01*
X0304877Y0012890D01*
X0304851Y0013046D01*
X0304830Y0013203D01*
X0304812Y0013360D01*
X0304798Y0013518D01*
X0304788Y0013676D01*
X0304782Y0013834D01*
X0304780Y0013992D01*
D11*
X0307362Y0028677D02*
X0299362Y0028677D01*
X0298362Y0029677D01*
X0297362Y0028677D01*
X0289362Y0028677D01*
X0288362Y0029677D01*
X0287362Y0028677D01*
X0279362Y0028677D01*
X0278362Y0029677D01*
X0278362Y0037677D01*
X0279362Y0038677D01*
X0287362Y0038677D01*
X0288362Y0037677D01*
X0289362Y0038677D01*
X0297362Y0038677D01*
X0298362Y0037677D01*
X0299362Y0038677D01*
X0307362Y0038677D01*
X0308362Y0037677D01*
X0308362Y0029677D01*
X0307362Y0028677D01*
X0267142Y0023110D02*
X0267142Y0015110D01*
X0266142Y0014110D01*
X0258142Y0014110D01*
X0257142Y0015110D01*
X0256142Y0014110D01*
X0248142Y0014110D01*
X0247142Y0015110D01*
X0247142Y0023110D01*
X0248142Y0024110D01*
X0256142Y0024110D01*
X0257142Y0023110D01*
X0258142Y0024110D01*
X0266142Y0024110D01*
X0267142Y0023110D01*
X0268000Y0093323D02*
X0274000Y0093323D01*
X0274060Y0093325D01*
X0274121Y0093330D01*
X0274180Y0093339D01*
X0274239Y0093352D01*
X0274298Y0093368D01*
X0274355Y0093388D01*
X0274410Y0093411D01*
X0274465Y0093438D01*
X0274517Y0093467D01*
X0274568Y0093500D01*
X0274617Y0093536D01*
X0274663Y0093574D01*
X0274707Y0093616D01*
X0274749Y0093660D01*
X0274787Y0093706D01*
X0274823Y0093755D01*
X0274856Y0093806D01*
X0274885Y0093858D01*
X0274912Y0093913D01*
X0274935Y0093968D01*
X0274955Y0094025D01*
X0274971Y0094084D01*
X0274984Y0094143D01*
X0274993Y0094202D01*
X0274998Y0094263D01*
X0275000Y0094323D01*
X0275000Y0095823D01*
X0274500Y0096323D01*
X0274500Y0110323D01*
X0275000Y0110823D01*
X0275000Y0112323D01*
X0274998Y0112383D01*
X0274993Y0112444D01*
X0274984Y0112503D01*
X0274971Y0112562D01*
X0274955Y0112621D01*
X0274935Y0112678D01*
X0274912Y0112733D01*
X0274885Y0112788D01*
X0274856Y0112840D01*
X0274823Y0112891D01*
X0274787Y0112940D01*
X0274749Y0112986D01*
X0274707Y0113030D01*
X0274663Y0113072D01*
X0274617Y0113110D01*
X0274568Y0113146D01*
X0274517Y0113179D01*
X0274465Y0113208D01*
X0274410Y0113235D01*
X0274355Y0113258D01*
X0274298Y0113278D01*
X0274239Y0113294D01*
X0274180Y0113307D01*
X0274121Y0113316D01*
X0274060Y0113321D01*
X0274000Y0113323D01*
X0268000Y0113323D01*
X0267940Y0113321D01*
X0267879Y0113316D01*
X0267820Y0113307D01*
X0267761Y0113294D01*
X0267702Y0113278D01*
X0267645Y0113258D01*
X0267590Y0113235D01*
X0267535Y0113208D01*
X0267483Y0113179D01*
X0267432Y0113146D01*
X0267383Y0113110D01*
X0267337Y0113072D01*
X0267293Y0113030D01*
X0267251Y0112986D01*
X0267213Y0112940D01*
X0267177Y0112891D01*
X0267144Y0112840D01*
X0267115Y0112788D01*
X0267088Y0112733D01*
X0267065Y0112678D01*
X0267045Y0112621D01*
X0267029Y0112562D01*
X0267016Y0112503D01*
X0267007Y0112444D01*
X0267002Y0112383D01*
X0267000Y0112323D01*
X0267000Y0110823D01*
X0267500Y0110323D01*
X0267500Y0096323D01*
X0267000Y0095823D01*
X0267000Y0094323D01*
X0267002Y0094263D01*
X0267007Y0094202D01*
X0267016Y0094143D01*
X0267029Y0094084D01*
X0267045Y0094025D01*
X0267065Y0093968D01*
X0267088Y0093913D01*
X0267115Y0093858D01*
X0267144Y0093806D01*
X0267177Y0093755D01*
X0267213Y0093706D01*
X0267251Y0093660D01*
X0267293Y0093616D01*
X0267337Y0093574D01*
X0267383Y0093536D01*
X0267432Y0093500D01*
X0267483Y0093467D01*
X0267535Y0093438D01*
X0267590Y0093411D01*
X0267645Y0093388D01*
X0267702Y0093368D01*
X0267761Y0093352D01*
X0267820Y0093339D01*
X0267879Y0093330D01*
X0267940Y0093325D01*
X0268000Y0093323D01*
X0283000Y0105323D02*
X0284000Y0105323D01*
X0284000Y0104323D01*
X0283000Y0105323D02*
X0283000Y0111323D01*
X0284000Y0111323D01*
X0284000Y0112323D01*
X0287500Y0120323D02*
X0291000Y0120323D01*
X0301000Y0120323D01*
X0304500Y0120323D01*
X0308000Y0112323D02*
X0308000Y0111323D01*
X0309000Y0111323D01*
X0309000Y0105323D01*
X0308000Y0105323D01*
X0308000Y0104323D01*
X0304500Y0096323D02*
X0300500Y0096323D01*
X0291000Y0096323D01*
X0287500Y0096323D01*
X0295000Y0108323D02*
X0295002Y0108386D01*
X0295008Y0108448D01*
X0295018Y0108510D01*
X0295031Y0108572D01*
X0295049Y0108632D01*
X0295070Y0108691D01*
X0295095Y0108749D01*
X0295124Y0108805D01*
X0295156Y0108859D01*
X0295191Y0108911D01*
X0295229Y0108960D01*
X0295271Y0109008D01*
X0295315Y0109052D01*
X0295363Y0109094D01*
X0295412Y0109132D01*
X0295464Y0109167D01*
X0295518Y0109199D01*
X0295574Y0109228D01*
X0295632Y0109253D01*
X0295691Y0109274D01*
X0295751Y0109292D01*
X0295813Y0109305D01*
X0295875Y0109315D01*
X0295937Y0109321D01*
X0296000Y0109323D01*
X0296063Y0109321D01*
X0296125Y0109315D01*
X0296187Y0109305D01*
X0296249Y0109292D01*
X0296309Y0109274D01*
X0296368Y0109253D01*
X0296426Y0109228D01*
X0296482Y0109199D01*
X0296536Y0109167D01*
X0296588Y0109132D01*
X0296637Y0109094D01*
X0296685Y0109052D01*
X0296729Y0109008D01*
X0296771Y0108960D01*
X0296809Y0108911D01*
X0296844Y0108859D01*
X0296876Y0108805D01*
X0296905Y0108749D01*
X0296930Y0108691D01*
X0296951Y0108632D01*
X0296969Y0108572D01*
X0296982Y0108510D01*
X0296992Y0108448D01*
X0296998Y0108386D01*
X0297000Y0108323D01*
X0296998Y0108260D01*
X0296992Y0108198D01*
X0296982Y0108136D01*
X0296969Y0108074D01*
X0296951Y0108014D01*
X0296930Y0107955D01*
X0296905Y0107897D01*
X0296876Y0107841D01*
X0296844Y0107787D01*
X0296809Y0107735D01*
X0296771Y0107686D01*
X0296729Y0107638D01*
X0296685Y0107594D01*
X0296637Y0107552D01*
X0296588Y0107514D01*
X0296536Y0107479D01*
X0296482Y0107447D01*
X0296426Y0107418D01*
X0296368Y0107393D01*
X0296309Y0107372D01*
X0296249Y0107354D01*
X0296187Y0107341D01*
X0296125Y0107331D01*
X0296063Y0107325D01*
X0296000Y0107323D01*
X0295937Y0107325D01*
X0295875Y0107331D01*
X0295813Y0107341D01*
X0295751Y0107354D01*
X0295691Y0107372D01*
X0295632Y0107393D01*
X0295574Y0107418D01*
X0295518Y0107447D01*
X0295464Y0107479D01*
X0295412Y0107514D01*
X0295363Y0107552D01*
X0295315Y0107594D01*
X0295271Y0107638D01*
X0295229Y0107686D01*
X0295191Y0107735D01*
X0295156Y0107787D01*
X0295124Y0107841D01*
X0295095Y0107897D01*
X0295070Y0107955D01*
X0295049Y0108014D01*
X0295031Y0108074D01*
X0295018Y0108136D01*
X0295008Y0108198D01*
X0295002Y0108260D01*
X0295000Y0108323D01*
X0289000Y0108323D02*
X0289002Y0108495D01*
X0289008Y0108666D01*
X0289019Y0108838D01*
X0289034Y0109009D01*
X0289053Y0109180D01*
X0289076Y0109350D01*
X0289103Y0109520D01*
X0289135Y0109689D01*
X0289170Y0109857D01*
X0289210Y0110024D01*
X0289254Y0110190D01*
X0289301Y0110355D01*
X0289353Y0110519D01*
X0289409Y0110681D01*
X0289469Y0110842D01*
X0289533Y0111002D01*
X0289601Y0111160D01*
X0289672Y0111316D01*
X0289747Y0111470D01*
X0289827Y0111623D01*
X0289909Y0111773D01*
X0289996Y0111922D01*
X0290086Y0112068D01*
X0290180Y0112212D01*
X0290277Y0112354D01*
X0290378Y0112493D01*
X0290482Y0112630D01*
X0290589Y0112764D01*
X0290700Y0112895D01*
X0290813Y0113024D01*
X0290930Y0113150D01*
X0291050Y0113273D01*
X0291173Y0113393D01*
X0291299Y0113510D01*
X0291428Y0113623D01*
X0291559Y0113734D01*
X0291693Y0113841D01*
X0291830Y0113945D01*
X0291969Y0114046D01*
X0292111Y0114143D01*
X0292255Y0114237D01*
X0292401Y0114327D01*
X0292550Y0114414D01*
X0292700Y0114496D01*
X0292853Y0114576D01*
X0293007Y0114651D01*
X0293163Y0114722D01*
X0293321Y0114790D01*
X0293481Y0114854D01*
X0293642Y0114914D01*
X0293804Y0114970D01*
X0293968Y0115022D01*
X0294133Y0115069D01*
X0294299Y0115113D01*
X0294466Y0115153D01*
X0294634Y0115188D01*
X0294803Y0115220D01*
X0294973Y0115247D01*
X0295143Y0115270D01*
X0295314Y0115289D01*
X0295485Y0115304D01*
X0295657Y0115315D01*
X0295828Y0115321D01*
X0296000Y0115323D01*
X0296172Y0115321D01*
X0296343Y0115315D01*
X0296515Y0115304D01*
X0296686Y0115289D01*
X0296857Y0115270D01*
X0297027Y0115247D01*
X0297197Y0115220D01*
X0297366Y0115188D01*
X0297534Y0115153D01*
X0297701Y0115113D01*
X0297867Y0115069D01*
X0298032Y0115022D01*
X0298196Y0114970D01*
X0298358Y0114914D01*
X0298519Y0114854D01*
X0298679Y0114790D01*
X0298837Y0114722D01*
X0298993Y0114651D01*
X0299147Y0114576D01*
X0299300Y0114496D01*
X0299450Y0114414D01*
X0299599Y0114327D01*
X0299745Y0114237D01*
X0299889Y0114143D01*
X0300031Y0114046D01*
X0300170Y0113945D01*
X0300307Y0113841D01*
X0300441Y0113734D01*
X0300572Y0113623D01*
X0300701Y0113510D01*
X0300827Y0113393D01*
X0300950Y0113273D01*
X0301070Y0113150D01*
X0301187Y0113024D01*
X0301300Y0112895D01*
X0301411Y0112764D01*
X0301518Y0112630D01*
X0301622Y0112493D01*
X0301723Y0112354D01*
X0301820Y0112212D01*
X0301914Y0112068D01*
X0302004Y0111922D01*
X0302091Y0111773D01*
X0302173Y0111623D01*
X0302253Y0111470D01*
X0302328Y0111316D01*
X0302399Y0111160D01*
X0302467Y0111002D01*
X0302531Y0110842D01*
X0302591Y0110681D01*
X0302647Y0110519D01*
X0302699Y0110355D01*
X0302746Y0110190D01*
X0302790Y0110024D01*
X0302830Y0109857D01*
X0302865Y0109689D01*
X0302897Y0109520D01*
X0302924Y0109350D01*
X0302947Y0109180D01*
X0302966Y0109009D01*
X0302981Y0108838D01*
X0302992Y0108666D01*
X0302998Y0108495D01*
X0303000Y0108323D01*
X0302998Y0108151D01*
X0302992Y0107980D01*
X0302981Y0107808D01*
X0302966Y0107637D01*
X0302947Y0107466D01*
X0302924Y0107296D01*
X0302897Y0107126D01*
X0302865Y0106957D01*
X0302830Y0106789D01*
X0302790Y0106622D01*
X0302746Y0106456D01*
X0302699Y0106291D01*
X0302647Y0106127D01*
X0302591Y0105965D01*
X0302531Y0105804D01*
X0302467Y0105644D01*
X0302399Y0105486D01*
X0302328Y0105330D01*
X0302253Y0105176D01*
X0302173Y0105023D01*
X0302091Y0104873D01*
X0302004Y0104724D01*
X0301914Y0104578D01*
X0301820Y0104434D01*
X0301723Y0104292D01*
X0301622Y0104153D01*
X0301518Y0104016D01*
X0301411Y0103882D01*
X0301300Y0103751D01*
X0301187Y0103622D01*
X0301070Y0103496D01*
X0300950Y0103373D01*
X0300827Y0103253D01*
X0300701Y0103136D01*
X0300572Y0103023D01*
X0300441Y0102912D01*
X0300307Y0102805D01*
X0300170Y0102701D01*
X0300031Y0102600D01*
X0299889Y0102503D01*
X0299745Y0102409D01*
X0299599Y0102319D01*
X0299450Y0102232D01*
X0299300Y0102150D01*
X0299147Y0102070D01*
X0298993Y0101995D01*
X0298837Y0101924D01*
X0298679Y0101856D01*
X0298519Y0101792D01*
X0298358Y0101732D01*
X0298196Y0101676D01*
X0298032Y0101624D01*
X0297867Y0101577D01*
X0297701Y0101533D01*
X0297534Y0101493D01*
X0297366Y0101458D01*
X0297197Y0101426D01*
X0297027Y0101399D01*
X0296857Y0101376D01*
X0296686Y0101357D01*
X0296515Y0101342D01*
X0296343Y0101331D01*
X0296172Y0101325D01*
X0296000Y0101323D01*
X0295828Y0101325D01*
X0295657Y0101331D01*
X0295485Y0101342D01*
X0295314Y0101357D01*
X0295143Y0101376D01*
X0294973Y0101399D01*
X0294803Y0101426D01*
X0294634Y0101458D01*
X0294466Y0101493D01*
X0294299Y0101533D01*
X0294133Y0101577D01*
X0293968Y0101624D01*
X0293804Y0101676D01*
X0293642Y0101732D01*
X0293481Y0101792D01*
X0293321Y0101856D01*
X0293163Y0101924D01*
X0293007Y0101995D01*
X0292853Y0102070D01*
X0292700Y0102150D01*
X0292550Y0102232D01*
X0292401Y0102319D01*
X0292255Y0102409D01*
X0292111Y0102503D01*
X0291969Y0102600D01*
X0291830Y0102701D01*
X0291693Y0102805D01*
X0291559Y0102912D01*
X0291428Y0103023D01*
X0291299Y0103136D01*
X0291173Y0103253D01*
X0291050Y0103373D01*
X0290930Y0103496D01*
X0290813Y0103622D01*
X0290700Y0103751D01*
X0290589Y0103882D01*
X0290482Y0104016D01*
X0290378Y0104153D01*
X0290277Y0104292D01*
X0290180Y0104434D01*
X0290086Y0104578D01*
X0289996Y0104724D01*
X0289909Y0104873D01*
X0289827Y0105023D01*
X0289747Y0105176D01*
X0289672Y0105330D01*
X0289601Y0105486D01*
X0289533Y0105644D01*
X0289469Y0105804D01*
X0289409Y0105965D01*
X0289353Y0106127D01*
X0289301Y0106291D01*
X0289254Y0106456D01*
X0289210Y0106622D01*
X0289170Y0106789D01*
X0289135Y0106957D01*
X0289103Y0107126D01*
X0289076Y0107296D01*
X0289053Y0107466D01*
X0289034Y0107637D01*
X0289019Y0107808D01*
X0289008Y0107980D01*
X0289002Y0108151D01*
X0289000Y0108323D01*
X0287500Y0141323D02*
X0291000Y0141323D01*
X0300500Y0141323D01*
X0304500Y0141323D01*
X0308000Y0149323D02*
X0308000Y0150323D01*
X0309000Y0150323D01*
X0309000Y0156323D01*
X0308000Y0156323D01*
X0308000Y0157323D01*
X0304500Y0165323D02*
X0301000Y0165323D01*
X0291000Y0165323D01*
X0287500Y0165323D01*
X0284000Y0157323D02*
X0284000Y0156323D01*
X0283000Y0156323D01*
X0283000Y0150323D01*
X0284000Y0150323D01*
X0284000Y0149323D01*
X0275000Y0145823D02*
X0275000Y0144323D01*
X0274998Y0144263D01*
X0274993Y0144202D01*
X0274984Y0144143D01*
X0274971Y0144084D01*
X0274955Y0144025D01*
X0274935Y0143968D01*
X0274912Y0143913D01*
X0274885Y0143858D01*
X0274856Y0143806D01*
X0274823Y0143755D01*
X0274787Y0143706D01*
X0274749Y0143660D01*
X0274707Y0143616D01*
X0274663Y0143574D01*
X0274617Y0143536D01*
X0274568Y0143500D01*
X0274517Y0143467D01*
X0274465Y0143438D01*
X0274410Y0143411D01*
X0274355Y0143388D01*
X0274298Y0143368D01*
X0274239Y0143352D01*
X0274180Y0143339D01*
X0274121Y0143330D01*
X0274060Y0143325D01*
X0274000Y0143323D01*
X0268000Y0143323D01*
X0267940Y0143325D01*
X0267879Y0143330D01*
X0267820Y0143339D01*
X0267761Y0143352D01*
X0267702Y0143368D01*
X0267645Y0143388D01*
X0267590Y0143411D01*
X0267535Y0143438D01*
X0267483Y0143467D01*
X0267432Y0143500D01*
X0267383Y0143536D01*
X0267337Y0143574D01*
X0267293Y0143616D01*
X0267251Y0143660D01*
X0267213Y0143706D01*
X0267177Y0143755D01*
X0267144Y0143806D01*
X0267115Y0143858D01*
X0267088Y0143913D01*
X0267065Y0143968D01*
X0267045Y0144025D01*
X0267029Y0144084D01*
X0267016Y0144143D01*
X0267007Y0144202D01*
X0267002Y0144263D01*
X0267000Y0144323D01*
X0267000Y0145823D01*
X0267500Y0146323D01*
X0267500Y0160323D01*
X0267000Y0160823D01*
X0267000Y0162323D01*
X0267002Y0162383D01*
X0267007Y0162444D01*
X0267016Y0162503D01*
X0267029Y0162562D01*
X0267045Y0162621D01*
X0267065Y0162678D01*
X0267088Y0162733D01*
X0267115Y0162788D01*
X0267144Y0162840D01*
X0267177Y0162891D01*
X0267213Y0162940D01*
X0267251Y0162986D01*
X0267293Y0163030D01*
X0267337Y0163072D01*
X0267383Y0163110D01*
X0267432Y0163146D01*
X0267483Y0163179D01*
X0267535Y0163208D01*
X0267590Y0163235D01*
X0267645Y0163258D01*
X0267702Y0163278D01*
X0267761Y0163294D01*
X0267820Y0163307D01*
X0267879Y0163316D01*
X0267940Y0163321D01*
X0268000Y0163323D01*
X0274000Y0163323D01*
X0274060Y0163321D01*
X0274121Y0163316D01*
X0274180Y0163307D01*
X0274239Y0163294D01*
X0274298Y0163278D01*
X0274355Y0163258D01*
X0274410Y0163235D01*
X0274465Y0163208D01*
X0274517Y0163179D01*
X0274568Y0163146D01*
X0274617Y0163110D01*
X0274663Y0163072D01*
X0274707Y0163030D01*
X0274749Y0162986D01*
X0274787Y0162940D01*
X0274823Y0162891D01*
X0274856Y0162840D01*
X0274885Y0162788D01*
X0274912Y0162733D01*
X0274935Y0162678D01*
X0274955Y0162621D01*
X0274971Y0162562D01*
X0274984Y0162503D01*
X0274993Y0162444D01*
X0274998Y0162383D01*
X0275000Y0162323D01*
X0275000Y0160823D01*
X0274500Y0160323D01*
X0274500Y0146323D01*
X0275000Y0145823D01*
X0295000Y0153323D02*
X0295002Y0153386D01*
X0295008Y0153448D01*
X0295018Y0153510D01*
X0295031Y0153572D01*
X0295049Y0153632D01*
X0295070Y0153691D01*
X0295095Y0153749D01*
X0295124Y0153805D01*
X0295156Y0153859D01*
X0295191Y0153911D01*
X0295229Y0153960D01*
X0295271Y0154008D01*
X0295315Y0154052D01*
X0295363Y0154094D01*
X0295412Y0154132D01*
X0295464Y0154167D01*
X0295518Y0154199D01*
X0295574Y0154228D01*
X0295632Y0154253D01*
X0295691Y0154274D01*
X0295751Y0154292D01*
X0295813Y0154305D01*
X0295875Y0154315D01*
X0295937Y0154321D01*
X0296000Y0154323D01*
X0296063Y0154321D01*
X0296125Y0154315D01*
X0296187Y0154305D01*
X0296249Y0154292D01*
X0296309Y0154274D01*
X0296368Y0154253D01*
X0296426Y0154228D01*
X0296482Y0154199D01*
X0296536Y0154167D01*
X0296588Y0154132D01*
X0296637Y0154094D01*
X0296685Y0154052D01*
X0296729Y0154008D01*
X0296771Y0153960D01*
X0296809Y0153911D01*
X0296844Y0153859D01*
X0296876Y0153805D01*
X0296905Y0153749D01*
X0296930Y0153691D01*
X0296951Y0153632D01*
X0296969Y0153572D01*
X0296982Y0153510D01*
X0296992Y0153448D01*
X0296998Y0153386D01*
X0297000Y0153323D01*
X0296998Y0153260D01*
X0296992Y0153198D01*
X0296982Y0153136D01*
X0296969Y0153074D01*
X0296951Y0153014D01*
X0296930Y0152955D01*
X0296905Y0152897D01*
X0296876Y0152841D01*
X0296844Y0152787D01*
X0296809Y0152735D01*
X0296771Y0152686D01*
X0296729Y0152638D01*
X0296685Y0152594D01*
X0296637Y0152552D01*
X0296588Y0152514D01*
X0296536Y0152479D01*
X0296482Y0152447D01*
X0296426Y0152418D01*
X0296368Y0152393D01*
X0296309Y0152372D01*
X0296249Y0152354D01*
X0296187Y0152341D01*
X0296125Y0152331D01*
X0296063Y0152325D01*
X0296000Y0152323D01*
X0295937Y0152325D01*
X0295875Y0152331D01*
X0295813Y0152341D01*
X0295751Y0152354D01*
X0295691Y0152372D01*
X0295632Y0152393D01*
X0295574Y0152418D01*
X0295518Y0152447D01*
X0295464Y0152479D01*
X0295412Y0152514D01*
X0295363Y0152552D01*
X0295315Y0152594D01*
X0295271Y0152638D01*
X0295229Y0152686D01*
X0295191Y0152735D01*
X0295156Y0152787D01*
X0295124Y0152841D01*
X0295095Y0152897D01*
X0295070Y0152955D01*
X0295049Y0153014D01*
X0295031Y0153074D01*
X0295018Y0153136D01*
X0295008Y0153198D01*
X0295002Y0153260D01*
X0295000Y0153323D01*
X0289000Y0153323D02*
X0289002Y0153495D01*
X0289008Y0153666D01*
X0289019Y0153838D01*
X0289034Y0154009D01*
X0289053Y0154180D01*
X0289076Y0154350D01*
X0289103Y0154520D01*
X0289135Y0154689D01*
X0289170Y0154857D01*
X0289210Y0155024D01*
X0289254Y0155190D01*
X0289301Y0155355D01*
X0289353Y0155519D01*
X0289409Y0155681D01*
X0289469Y0155842D01*
X0289533Y0156002D01*
X0289601Y0156160D01*
X0289672Y0156316D01*
X0289747Y0156470D01*
X0289827Y0156623D01*
X0289909Y0156773D01*
X0289996Y0156922D01*
X0290086Y0157068D01*
X0290180Y0157212D01*
X0290277Y0157354D01*
X0290378Y0157493D01*
X0290482Y0157630D01*
X0290589Y0157764D01*
X0290700Y0157895D01*
X0290813Y0158024D01*
X0290930Y0158150D01*
X0291050Y0158273D01*
X0291173Y0158393D01*
X0291299Y0158510D01*
X0291428Y0158623D01*
X0291559Y0158734D01*
X0291693Y0158841D01*
X0291830Y0158945D01*
X0291969Y0159046D01*
X0292111Y0159143D01*
X0292255Y0159237D01*
X0292401Y0159327D01*
X0292550Y0159414D01*
X0292700Y0159496D01*
X0292853Y0159576D01*
X0293007Y0159651D01*
X0293163Y0159722D01*
X0293321Y0159790D01*
X0293481Y0159854D01*
X0293642Y0159914D01*
X0293804Y0159970D01*
X0293968Y0160022D01*
X0294133Y0160069D01*
X0294299Y0160113D01*
X0294466Y0160153D01*
X0294634Y0160188D01*
X0294803Y0160220D01*
X0294973Y0160247D01*
X0295143Y0160270D01*
X0295314Y0160289D01*
X0295485Y0160304D01*
X0295657Y0160315D01*
X0295828Y0160321D01*
X0296000Y0160323D01*
X0296172Y0160321D01*
X0296343Y0160315D01*
X0296515Y0160304D01*
X0296686Y0160289D01*
X0296857Y0160270D01*
X0297027Y0160247D01*
X0297197Y0160220D01*
X0297366Y0160188D01*
X0297534Y0160153D01*
X0297701Y0160113D01*
X0297867Y0160069D01*
X0298032Y0160022D01*
X0298196Y0159970D01*
X0298358Y0159914D01*
X0298519Y0159854D01*
X0298679Y0159790D01*
X0298837Y0159722D01*
X0298993Y0159651D01*
X0299147Y0159576D01*
X0299300Y0159496D01*
X0299450Y0159414D01*
X0299599Y0159327D01*
X0299745Y0159237D01*
X0299889Y0159143D01*
X0300031Y0159046D01*
X0300170Y0158945D01*
X0300307Y0158841D01*
X0300441Y0158734D01*
X0300572Y0158623D01*
X0300701Y0158510D01*
X0300827Y0158393D01*
X0300950Y0158273D01*
X0301070Y0158150D01*
X0301187Y0158024D01*
X0301300Y0157895D01*
X0301411Y0157764D01*
X0301518Y0157630D01*
X0301622Y0157493D01*
X0301723Y0157354D01*
X0301820Y0157212D01*
X0301914Y0157068D01*
X0302004Y0156922D01*
X0302091Y0156773D01*
X0302173Y0156623D01*
X0302253Y0156470D01*
X0302328Y0156316D01*
X0302399Y0156160D01*
X0302467Y0156002D01*
X0302531Y0155842D01*
X0302591Y0155681D01*
X0302647Y0155519D01*
X0302699Y0155355D01*
X0302746Y0155190D01*
X0302790Y0155024D01*
X0302830Y0154857D01*
X0302865Y0154689D01*
X0302897Y0154520D01*
X0302924Y0154350D01*
X0302947Y0154180D01*
X0302966Y0154009D01*
X0302981Y0153838D01*
X0302992Y0153666D01*
X0302998Y0153495D01*
X0303000Y0153323D01*
X0302998Y0153151D01*
X0302992Y0152980D01*
X0302981Y0152808D01*
X0302966Y0152637D01*
X0302947Y0152466D01*
X0302924Y0152296D01*
X0302897Y0152126D01*
X0302865Y0151957D01*
X0302830Y0151789D01*
X0302790Y0151622D01*
X0302746Y0151456D01*
X0302699Y0151291D01*
X0302647Y0151127D01*
X0302591Y0150965D01*
X0302531Y0150804D01*
X0302467Y0150644D01*
X0302399Y0150486D01*
X0302328Y0150330D01*
X0302253Y0150176D01*
X0302173Y0150023D01*
X0302091Y0149873D01*
X0302004Y0149724D01*
X0301914Y0149578D01*
X0301820Y0149434D01*
X0301723Y0149292D01*
X0301622Y0149153D01*
X0301518Y0149016D01*
X0301411Y0148882D01*
X0301300Y0148751D01*
X0301187Y0148622D01*
X0301070Y0148496D01*
X0300950Y0148373D01*
X0300827Y0148253D01*
X0300701Y0148136D01*
X0300572Y0148023D01*
X0300441Y0147912D01*
X0300307Y0147805D01*
X0300170Y0147701D01*
X0300031Y0147600D01*
X0299889Y0147503D01*
X0299745Y0147409D01*
X0299599Y0147319D01*
X0299450Y0147232D01*
X0299300Y0147150D01*
X0299147Y0147070D01*
X0298993Y0146995D01*
X0298837Y0146924D01*
X0298679Y0146856D01*
X0298519Y0146792D01*
X0298358Y0146732D01*
X0298196Y0146676D01*
X0298032Y0146624D01*
X0297867Y0146577D01*
X0297701Y0146533D01*
X0297534Y0146493D01*
X0297366Y0146458D01*
X0297197Y0146426D01*
X0297027Y0146399D01*
X0296857Y0146376D01*
X0296686Y0146357D01*
X0296515Y0146342D01*
X0296343Y0146331D01*
X0296172Y0146325D01*
X0296000Y0146323D01*
X0295828Y0146325D01*
X0295657Y0146331D01*
X0295485Y0146342D01*
X0295314Y0146357D01*
X0295143Y0146376D01*
X0294973Y0146399D01*
X0294803Y0146426D01*
X0294634Y0146458D01*
X0294466Y0146493D01*
X0294299Y0146533D01*
X0294133Y0146577D01*
X0293968Y0146624D01*
X0293804Y0146676D01*
X0293642Y0146732D01*
X0293481Y0146792D01*
X0293321Y0146856D01*
X0293163Y0146924D01*
X0293007Y0146995D01*
X0292853Y0147070D01*
X0292700Y0147150D01*
X0292550Y0147232D01*
X0292401Y0147319D01*
X0292255Y0147409D01*
X0292111Y0147503D01*
X0291969Y0147600D01*
X0291830Y0147701D01*
X0291693Y0147805D01*
X0291559Y0147912D01*
X0291428Y0148023D01*
X0291299Y0148136D01*
X0291173Y0148253D01*
X0291050Y0148373D01*
X0290930Y0148496D01*
X0290813Y0148622D01*
X0290700Y0148751D01*
X0290589Y0148882D01*
X0290482Y0149016D01*
X0290378Y0149153D01*
X0290277Y0149292D01*
X0290180Y0149434D01*
X0290086Y0149578D01*
X0289996Y0149724D01*
X0289909Y0149873D01*
X0289827Y0150023D01*
X0289747Y0150176D01*
X0289672Y0150330D01*
X0289601Y0150486D01*
X0289533Y0150644D01*
X0289469Y0150804D01*
X0289409Y0150965D01*
X0289353Y0151127D01*
X0289301Y0151291D01*
X0289254Y0151456D01*
X0289210Y0151622D01*
X0289170Y0151789D01*
X0289135Y0151957D01*
X0289103Y0152126D01*
X0289076Y0152296D01*
X0289053Y0152466D01*
X0289034Y0152637D01*
X0289019Y0152808D01*
X0289008Y0152980D01*
X0289002Y0153151D01*
X0289000Y0153323D01*
X0272063Y0177260D02*
X0262063Y0177260D01*
X0262003Y0177262D01*
X0261942Y0177267D01*
X0261883Y0177276D01*
X0261824Y0177289D01*
X0261765Y0177305D01*
X0261708Y0177325D01*
X0261653Y0177348D01*
X0261598Y0177375D01*
X0261546Y0177404D01*
X0261495Y0177437D01*
X0261446Y0177473D01*
X0261400Y0177511D01*
X0261356Y0177553D01*
X0261314Y0177597D01*
X0261276Y0177643D01*
X0261240Y0177692D01*
X0261207Y0177743D01*
X0261178Y0177795D01*
X0261151Y0177850D01*
X0261128Y0177905D01*
X0261108Y0177962D01*
X0261092Y0178021D01*
X0261079Y0178080D01*
X0261070Y0178139D01*
X0261065Y0178200D01*
X0261063Y0178260D01*
X0261063Y0216260D01*
X0261065Y0216320D01*
X0261070Y0216381D01*
X0261079Y0216440D01*
X0261092Y0216499D01*
X0261108Y0216558D01*
X0261128Y0216615D01*
X0261151Y0216670D01*
X0261178Y0216725D01*
X0261207Y0216777D01*
X0261240Y0216828D01*
X0261276Y0216877D01*
X0261314Y0216923D01*
X0261356Y0216967D01*
X0261400Y0217009D01*
X0261446Y0217047D01*
X0261495Y0217083D01*
X0261546Y0217116D01*
X0261598Y0217145D01*
X0261653Y0217172D01*
X0261708Y0217195D01*
X0261765Y0217215D01*
X0261824Y0217231D01*
X0261883Y0217244D01*
X0261942Y0217253D01*
X0262003Y0217258D01*
X0262063Y0217260D01*
X0272063Y0217260D01*
X0272123Y0217258D01*
X0272184Y0217253D01*
X0272243Y0217244D01*
X0272302Y0217231D01*
X0272361Y0217215D01*
X0272418Y0217195D01*
X0272473Y0217172D01*
X0272528Y0217145D01*
X0272580Y0217116D01*
X0272631Y0217083D01*
X0272680Y0217047D01*
X0272726Y0217009D01*
X0272770Y0216967D01*
X0272812Y0216923D01*
X0272850Y0216877D01*
X0272886Y0216828D01*
X0272919Y0216777D01*
X0272948Y0216725D01*
X0272975Y0216670D01*
X0272998Y0216615D01*
X0273018Y0216558D01*
X0273034Y0216499D01*
X0273047Y0216440D01*
X0273056Y0216381D01*
X0273061Y0216320D01*
X0273063Y0216260D01*
X0273063Y0178260D01*
X0273061Y0178200D01*
X0273056Y0178139D01*
X0273047Y0178080D01*
X0273034Y0178021D01*
X0273018Y0177962D01*
X0272998Y0177905D01*
X0272975Y0177850D01*
X0272948Y0177795D01*
X0272919Y0177743D01*
X0272886Y0177692D01*
X0272850Y0177643D01*
X0272812Y0177597D01*
X0272770Y0177553D01*
X0272726Y0177511D01*
X0272680Y0177473D01*
X0272631Y0177437D01*
X0272580Y0177404D01*
X0272528Y0177375D01*
X0272473Y0177348D01*
X0272418Y0177325D01*
X0272361Y0177305D01*
X0272302Y0177289D01*
X0272243Y0177276D01*
X0272184Y0177267D01*
X0272123Y0177262D01*
X0272063Y0177260D01*
X0267063Y0187260D02*
X0267063Y0195260D01*
X0267063Y0199260D02*
X0267063Y0207260D01*
X0256055Y0199717D02*
X0256055Y0237717D01*
X0256053Y0237777D01*
X0256048Y0237838D01*
X0256039Y0237897D01*
X0256026Y0237956D01*
X0256010Y0238015D01*
X0255990Y0238072D01*
X0255967Y0238127D01*
X0255940Y0238182D01*
X0255911Y0238234D01*
X0255878Y0238285D01*
X0255842Y0238334D01*
X0255804Y0238380D01*
X0255762Y0238424D01*
X0255718Y0238466D01*
X0255672Y0238504D01*
X0255623Y0238540D01*
X0255572Y0238573D01*
X0255520Y0238602D01*
X0255465Y0238629D01*
X0255410Y0238652D01*
X0255353Y0238672D01*
X0255294Y0238688D01*
X0255235Y0238701D01*
X0255176Y0238710D01*
X0255115Y0238715D01*
X0255055Y0238717D01*
X0245055Y0238717D01*
X0244995Y0238715D01*
X0244934Y0238710D01*
X0244875Y0238701D01*
X0244816Y0238688D01*
X0244757Y0238672D01*
X0244700Y0238652D01*
X0244645Y0238629D01*
X0244590Y0238602D01*
X0244538Y0238573D01*
X0244487Y0238540D01*
X0244438Y0238504D01*
X0244392Y0238466D01*
X0244348Y0238424D01*
X0244306Y0238380D01*
X0244268Y0238334D01*
X0244232Y0238285D01*
X0244199Y0238234D01*
X0244170Y0238182D01*
X0244143Y0238127D01*
X0244120Y0238072D01*
X0244100Y0238015D01*
X0244084Y0237956D01*
X0244071Y0237897D01*
X0244062Y0237838D01*
X0244057Y0237777D01*
X0244055Y0237717D01*
X0244055Y0199717D01*
X0244057Y0199657D01*
X0244062Y0199596D01*
X0244071Y0199537D01*
X0244084Y0199478D01*
X0244100Y0199419D01*
X0244120Y0199362D01*
X0244143Y0199307D01*
X0244170Y0199252D01*
X0244199Y0199200D01*
X0244232Y0199149D01*
X0244268Y0199100D01*
X0244306Y0199054D01*
X0244348Y0199010D01*
X0244392Y0198968D01*
X0244438Y0198930D01*
X0244487Y0198894D01*
X0244538Y0198861D01*
X0244590Y0198832D01*
X0244645Y0198805D01*
X0244700Y0198782D01*
X0244757Y0198762D01*
X0244816Y0198746D01*
X0244875Y0198733D01*
X0244934Y0198724D01*
X0244995Y0198719D01*
X0245055Y0198717D01*
X0255055Y0198717D01*
X0255115Y0198719D01*
X0255176Y0198724D01*
X0255235Y0198733D01*
X0255294Y0198746D01*
X0255353Y0198762D01*
X0255410Y0198782D01*
X0255465Y0198805D01*
X0255520Y0198832D01*
X0255572Y0198861D01*
X0255623Y0198894D01*
X0255672Y0198930D01*
X0255718Y0198968D01*
X0255762Y0199010D01*
X0255804Y0199054D01*
X0255842Y0199100D01*
X0255878Y0199149D01*
X0255911Y0199200D01*
X0255940Y0199252D01*
X0255967Y0199307D01*
X0255990Y0199362D01*
X0256010Y0199419D01*
X0256026Y0199478D01*
X0256039Y0199537D01*
X0256048Y0199596D01*
X0256053Y0199657D01*
X0256055Y0199717D01*
X0250055Y0208717D02*
X0250055Y0216717D01*
X0250055Y0220717D02*
X0250055Y0228717D01*
X0289299Y0207969D02*
X0289299Y0197969D01*
X0305299Y0197969D01*
X0305299Y0207969D01*
X0289299Y0207969D01*
X0294799Y0202969D02*
X0297299Y0202969D01*
X0297299Y0200469D01*
X0297299Y0202969D02*
X0297299Y0205469D01*
X0297299Y0202969D02*
X0301299Y0205469D01*
X0301299Y0200469D01*
X0297299Y0202969D01*
X0303299Y0202969D01*
X0304937Y0194575D02*
X0304937Y0191575D01*
X0303437Y0193075D02*
X0306437Y0193075D01*
X0291437Y0182575D02*
X0291441Y0182906D01*
X0291453Y0183237D01*
X0291474Y0183568D01*
X0291502Y0183898D01*
X0291539Y0184228D01*
X0291583Y0184556D01*
X0291636Y0184883D01*
X0291696Y0185209D01*
X0291765Y0185533D01*
X0291842Y0185855D01*
X0291926Y0186176D01*
X0292018Y0186494D01*
X0292118Y0186810D01*
X0292226Y0187123D01*
X0292342Y0187434D01*
X0292465Y0187741D01*
X0292595Y0188046D01*
X0292733Y0188347D01*
X0292878Y0188645D01*
X0293031Y0188939D01*
X0293191Y0189229D01*
X0293358Y0189515D01*
X0293531Y0189797D01*
X0293712Y0190075D01*
X0293900Y0190348D01*
X0294094Y0190617D01*
X0294294Y0190881D01*
X0294501Y0191139D01*
X0294715Y0191393D01*
X0294934Y0191641D01*
X0295160Y0191884D01*
X0295391Y0192121D01*
X0295628Y0192352D01*
X0295871Y0192578D01*
X0296119Y0192797D01*
X0296373Y0193011D01*
X0296631Y0193218D01*
X0296895Y0193418D01*
X0297164Y0193612D01*
X0297437Y0193800D01*
X0297715Y0193981D01*
X0297997Y0194154D01*
X0298283Y0194321D01*
X0298573Y0194481D01*
X0298867Y0194634D01*
X0299165Y0194779D01*
X0299466Y0194917D01*
X0299771Y0195047D01*
X0300078Y0195170D01*
X0300389Y0195286D01*
X0300702Y0195394D01*
X0301018Y0195494D01*
X0301336Y0195586D01*
X0301657Y0195670D01*
X0301979Y0195747D01*
X0302303Y0195816D01*
X0302629Y0195876D01*
X0302956Y0195929D01*
X0303284Y0195973D01*
X0303614Y0196010D01*
X0303944Y0196038D01*
X0304275Y0196059D01*
X0304606Y0196071D01*
X0304937Y0196075D01*
X0305268Y0196071D01*
X0305599Y0196059D01*
X0305930Y0196038D01*
X0306260Y0196010D01*
X0306590Y0195973D01*
X0306918Y0195929D01*
X0307245Y0195876D01*
X0307571Y0195816D01*
X0307895Y0195747D01*
X0308217Y0195670D01*
X0308538Y0195586D01*
X0308856Y0195494D01*
X0309172Y0195394D01*
X0309485Y0195286D01*
X0309796Y0195170D01*
X0310103Y0195047D01*
X0310408Y0194917D01*
X0310709Y0194779D01*
X0311007Y0194634D01*
X0311301Y0194481D01*
X0311591Y0194321D01*
X0311877Y0194154D01*
X0312159Y0193981D01*
X0312437Y0193800D01*
X0312710Y0193612D01*
X0312979Y0193418D01*
X0313243Y0193218D01*
X0313501Y0193011D01*
X0313755Y0192797D01*
X0314003Y0192578D01*
X0314246Y0192352D01*
X0314483Y0192121D01*
X0314714Y0191884D01*
X0314940Y0191641D01*
X0315159Y0191393D01*
X0315373Y0191139D01*
X0315580Y0190881D01*
X0315780Y0190617D01*
X0315974Y0190348D01*
X0316162Y0190075D01*
X0316343Y0189797D01*
X0316516Y0189515D01*
X0316683Y0189229D01*
X0316843Y0188939D01*
X0316996Y0188645D01*
X0317141Y0188347D01*
X0317279Y0188046D01*
X0317409Y0187741D01*
X0317532Y0187434D01*
X0317648Y0187123D01*
X0317756Y0186810D01*
X0317856Y0186494D01*
X0317948Y0186176D01*
X0318032Y0185855D01*
X0318109Y0185533D01*
X0318178Y0185209D01*
X0318238Y0184883D01*
X0318291Y0184556D01*
X0318335Y0184228D01*
X0318372Y0183898D01*
X0318400Y0183568D01*
X0318421Y0183237D01*
X0318433Y0182906D01*
X0318437Y0182575D01*
X0318433Y0182244D01*
X0318421Y0181913D01*
X0318400Y0181582D01*
X0318372Y0181252D01*
X0318335Y0180922D01*
X0318291Y0180594D01*
X0318238Y0180267D01*
X0318178Y0179941D01*
X0318109Y0179617D01*
X0318032Y0179295D01*
X0317948Y0178974D01*
X0317856Y0178656D01*
X0317756Y0178340D01*
X0317648Y0178027D01*
X0317532Y0177716D01*
X0317409Y0177409D01*
X0317279Y0177104D01*
X0317141Y0176803D01*
X0316996Y0176505D01*
X0316843Y0176211D01*
X0316683Y0175921D01*
X0316516Y0175635D01*
X0316343Y0175353D01*
X0316162Y0175075D01*
X0315974Y0174802D01*
X0315780Y0174533D01*
X0315580Y0174269D01*
X0315373Y0174011D01*
X0315159Y0173757D01*
X0314940Y0173509D01*
X0314714Y0173266D01*
X0314483Y0173029D01*
X0314246Y0172798D01*
X0314003Y0172572D01*
X0313755Y0172353D01*
X0313501Y0172139D01*
X0313243Y0171932D01*
X0312979Y0171732D01*
X0312710Y0171538D01*
X0312437Y0171350D01*
X0312159Y0171169D01*
X0311877Y0170996D01*
X0311591Y0170829D01*
X0311301Y0170669D01*
X0311007Y0170516D01*
X0310709Y0170371D01*
X0310408Y0170233D01*
X0310103Y0170103D01*
X0309796Y0169980D01*
X0309485Y0169864D01*
X0309172Y0169756D01*
X0308856Y0169656D01*
X0308538Y0169564D01*
X0308217Y0169480D01*
X0307895Y0169403D01*
X0307571Y0169334D01*
X0307245Y0169274D01*
X0306918Y0169221D01*
X0306590Y0169177D01*
X0306260Y0169140D01*
X0305930Y0169112D01*
X0305599Y0169091D01*
X0305268Y0169079D01*
X0304937Y0169075D01*
X0304606Y0169079D01*
X0304275Y0169091D01*
X0303944Y0169112D01*
X0303614Y0169140D01*
X0303284Y0169177D01*
X0302956Y0169221D01*
X0302629Y0169274D01*
X0302303Y0169334D01*
X0301979Y0169403D01*
X0301657Y0169480D01*
X0301336Y0169564D01*
X0301018Y0169656D01*
X0300702Y0169756D01*
X0300389Y0169864D01*
X0300078Y0169980D01*
X0299771Y0170103D01*
X0299466Y0170233D01*
X0299165Y0170371D01*
X0298867Y0170516D01*
X0298573Y0170669D01*
X0298283Y0170829D01*
X0297997Y0170996D01*
X0297715Y0171169D01*
X0297437Y0171350D01*
X0297164Y0171538D01*
X0296895Y0171732D01*
X0296631Y0171932D01*
X0296373Y0172139D01*
X0296119Y0172353D01*
X0295871Y0172572D01*
X0295628Y0172798D01*
X0295391Y0173029D01*
X0295160Y0173266D01*
X0294934Y0173509D01*
X0294715Y0173757D01*
X0294501Y0174011D01*
X0294294Y0174269D01*
X0294094Y0174533D01*
X0293900Y0174802D01*
X0293712Y0175075D01*
X0293531Y0175353D01*
X0293358Y0175635D01*
X0293191Y0175921D01*
X0293031Y0176211D01*
X0292878Y0176505D01*
X0292733Y0176803D01*
X0292595Y0177104D01*
X0292465Y0177409D01*
X0292342Y0177716D01*
X0292226Y0178027D01*
X0292118Y0178340D01*
X0292018Y0178656D01*
X0291926Y0178974D01*
X0291842Y0179295D01*
X0291765Y0179617D01*
X0291696Y0179941D01*
X0291636Y0180267D01*
X0291583Y0180594D01*
X0291539Y0180922D01*
X0291502Y0181252D01*
X0291474Y0181582D01*
X0291453Y0181913D01*
X0291441Y0182244D01*
X0291437Y0182575D01*
X0251000Y0183323D02*
X0251000Y0178323D01*
X0250860Y0178321D01*
X0250720Y0178315D01*
X0250580Y0178305D01*
X0250440Y0178292D01*
X0250301Y0178274D01*
X0250162Y0178252D01*
X0250025Y0178227D01*
X0249887Y0178198D01*
X0249751Y0178165D01*
X0249616Y0178128D01*
X0249482Y0178087D01*
X0249349Y0178042D01*
X0249217Y0177994D01*
X0249087Y0177942D01*
X0248958Y0177887D01*
X0248831Y0177828D01*
X0248705Y0177765D01*
X0248581Y0177699D01*
X0248460Y0177630D01*
X0248340Y0177557D01*
X0248222Y0177480D01*
X0248107Y0177401D01*
X0247993Y0177318D01*
X0247883Y0177232D01*
X0247774Y0177143D01*
X0247668Y0177051D01*
X0247565Y0176956D01*
X0247464Y0176859D01*
X0247367Y0176758D01*
X0247272Y0176655D01*
X0247180Y0176549D01*
X0247091Y0176440D01*
X0247005Y0176330D01*
X0246922Y0176216D01*
X0246843Y0176101D01*
X0246766Y0175983D01*
X0246693Y0175863D01*
X0246624Y0175742D01*
X0246558Y0175618D01*
X0246495Y0175492D01*
X0246436Y0175365D01*
X0246381Y0175236D01*
X0246329Y0175106D01*
X0246281Y0174974D01*
X0246236Y0174841D01*
X0246195Y0174707D01*
X0246158Y0174572D01*
X0246125Y0174436D01*
X0246096Y0174298D01*
X0246071Y0174161D01*
X0246049Y0174022D01*
X0246031Y0173883D01*
X0246018Y0173743D01*
X0246008Y0173603D01*
X0246002Y0173463D01*
X0246000Y0173323D01*
X0246002Y0173183D01*
X0246008Y0173043D01*
X0246018Y0172903D01*
X0246031Y0172763D01*
X0246049Y0172624D01*
X0246071Y0172485D01*
X0246096Y0172348D01*
X0246125Y0172210D01*
X0246158Y0172074D01*
X0246195Y0171939D01*
X0246236Y0171805D01*
X0246281Y0171672D01*
X0246329Y0171540D01*
X0246381Y0171410D01*
X0246436Y0171281D01*
X0246495Y0171154D01*
X0246558Y0171028D01*
X0246624Y0170904D01*
X0246693Y0170783D01*
X0246766Y0170663D01*
X0246843Y0170545D01*
X0246922Y0170430D01*
X0247005Y0170316D01*
X0247091Y0170206D01*
X0247180Y0170097D01*
X0247272Y0169991D01*
X0247367Y0169888D01*
X0247464Y0169787D01*
X0247565Y0169690D01*
X0247668Y0169595D01*
X0247774Y0169503D01*
X0247883Y0169414D01*
X0247993Y0169328D01*
X0248107Y0169245D01*
X0248222Y0169166D01*
X0248340Y0169089D01*
X0248460Y0169016D01*
X0248581Y0168947D01*
X0248705Y0168881D01*
X0248831Y0168818D01*
X0248958Y0168759D01*
X0249087Y0168704D01*
X0249217Y0168652D01*
X0249349Y0168604D01*
X0249482Y0168559D01*
X0249616Y0168518D01*
X0249751Y0168481D01*
X0249887Y0168448D01*
X0250025Y0168419D01*
X0250162Y0168394D01*
X0250301Y0168372D01*
X0250440Y0168354D01*
X0250580Y0168341D01*
X0250720Y0168331D01*
X0250860Y0168325D01*
X0251000Y0168323D01*
X0251000Y0163323D01*
X0111000Y0163323D01*
X0111000Y0183323D01*
X0250500Y0183323D01*
X0189189Y0142976D02*
X0189189Y0136976D01*
X0189187Y0136916D01*
X0189182Y0136855D01*
X0189173Y0136796D01*
X0189160Y0136737D01*
X0189144Y0136678D01*
X0189124Y0136621D01*
X0189101Y0136566D01*
X0189074Y0136511D01*
X0189045Y0136459D01*
X0189012Y0136408D01*
X0188976Y0136359D01*
X0188938Y0136313D01*
X0188896Y0136269D01*
X0188852Y0136227D01*
X0188806Y0136189D01*
X0188757Y0136153D01*
X0188706Y0136120D01*
X0188654Y0136091D01*
X0188599Y0136064D01*
X0188544Y0136041D01*
X0188487Y0136021D01*
X0188428Y0136005D01*
X0188369Y0135992D01*
X0188310Y0135983D01*
X0188249Y0135978D01*
X0188189Y0135976D01*
X0186689Y0135976D01*
X0186189Y0136476D01*
X0172189Y0136476D01*
X0171689Y0135976D01*
X0170189Y0135976D01*
X0170129Y0135978D01*
X0170068Y0135983D01*
X0170009Y0135992D01*
X0169950Y0136005D01*
X0169891Y0136021D01*
X0169834Y0136041D01*
X0169779Y0136064D01*
X0169724Y0136091D01*
X0169672Y0136120D01*
X0169621Y0136153D01*
X0169572Y0136189D01*
X0169526Y0136227D01*
X0169482Y0136269D01*
X0169440Y0136313D01*
X0169402Y0136359D01*
X0169366Y0136408D01*
X0169333Y0136459D01*
X0169304Y0136511D01*
X0169277Y0136566D01*
X0169254Y0136621D01*
X0169234Y0136678D01*
X0169218Y0136737D01*
X0169205Y0136796D01*
X0169196Y0136855D01*
X0169191Y0136916D01*
X0169189Y0136976D01*
X0169189Y0142976D01*
X0169191Y0143036D01*
X0169196Y0143097D01*
X0169205Y0143156D01*
X0169218Y0143215D01*
X0169234Y0143274D01*
X0169254Y0143331D01*
X0169277Y0143386D01*
X0169304Y0143441D01*
X0169333Y0143493D01*
X0169366Y0143544D01*
X0169402Y0143593D01*
X0169440Y0143639D01*
X0169482Y0143683D01*
X0169526Y0143725D01*
X0169572Y0143763D01*
X0169621Y0143799D01*
X0169672Y0143832D01*
X0169724Y0143861D01*
X0169779Y0143888D01*
X0169834Y0143911D01*
X0169891Y0143931D01*
X0169950Y0143947D01*
X0170009Y0143960D01*
X0170068Y0143969D01*
X0170129Y0143974D01*
X0170189Y0143976D01*
X0171689Y0143976D01*
X0172189Y0143476D01*
X0186189Y0143476D01*
X0186689Y0143976D01*
X0188189Y0143976D01*
X0188249Y0143974D01*
X0188310Y0143969D01*
X0188369Y0143960D01*
X0188428Y0143947D01*
X0188487Y0143931D01*
X0188544Y0143911D01*
X0188599Y0143888D01*
X0188654Y0143861D01*
X0188706Y0143832D01*
X0188757Y0143799D01*
X0188806Y0143763D01*
X0188852Y0143725D01*
X0188896Y0143683D01*
X0188938Y0143639D01*
X0188976Y0143593D01*
X0189012Y0143544D01*
X0189045Y0143493D01*
X0189074Y0143441D01*
X0189101Y0143386D01*
X0189124Y0143331D01*
X0189144Y0143274D01*
X0189160Y0143215D01*
X0189173Y0143156D01*
X0189182Y0143097D01*
X0189187Y0143036D01*
X0189189Y0142976D01*
X0183500Y0132165D02*
X0182000Y0132165D01*
X0181940Y0132163D01*
X0181879Y0132158D01*
X0181820Y0132149D01*
X0181761Y0132136D01*
X0181702Y0132120D01*
X0181645Y0132100D01*
X0181590Y0132077D01*
X0181535Y0132050D01*
X0181483Y0132021D01*
X0181432Y0131988D01*
X0181383Y0131952D01*
X0181337Y0131914D01*
X0181293Y0131872D01*
X0181251Y0131828D01*
X0181213Y0131782D01*
X0181177Y0131733D01*
X0181144Y0131682D01*
X0181115Y0131630D01*
X0181088Y0131575D01*
X0181065Y0131520D01*
X0181045Y0131463D01*
X0181029Y0131404D01*
X0181016Y0131345D01*
X0181007Y0131286D01*
X0181002Y0131225D01*
X0181000Y0131165D01*
X0181000Y0125165D01*
X0181002Y0125105D01*
X0181007Y0125044D01*
X0181016Y0124985D01*
X0181029Y0124926D01*
X0181045Y0124867D01*
X0181065Y0124810D01*
X0181088Y0124755D01*
X0181115Y0124700D01*
X0181144Y0124648D01*
X0181177Y0124597D01*
X0181213Y0124548D01*
X0181251Y0124502D01*
X0181293Y0124458D01*
X0181337Y0124416D01*
X0181383Y0124378D01*
X0181432Y0124342D01*
X0181483Y0124309D01*
X0181535Y0124280D01*
X0181590Y0124253D01*
X0181645Y0124230D01*
X0181702Y0124210D01*
X0181761Y0124194D01*
X0181820Y0124181D01*
X0181879Y0124172D01*
X0181940Y0124167D01*
X0182000Y0124165D01*
X0183500Y0124165D01*
X0184000Y0124665D01*
X0198000Y0124665D01*
X0198500Y0124165D01*
X0200000Y0124165D01*
X0200060Y0124167D01*
X0200121Y0124172D01*
X0200180Y0124181D01*
X0200239Y0124194D01*
X0200298Y0124210D01*
X0200355Y0124230D01*
X0200410Y0124253D01*
X0200465Y0124280D01*
X0200517Y0124309D01*
X0200568Y0124342D01*
X0200617Y0124378D01*
X0200663Y0124416D01*
X0200707Y0124458D01*
X0200749Y0124502D01*
X0200787Y0124548D01*
X0200823Y0124597D01*
X0200856Y0124648D01*
X0200885Y0124700D01*
X0200912Y0124755D01*
X0200935Y0124810D01*
X0200955Y0124867D01*
X0200971Y0124926D01*
X0200984Y0124985D01*
X0200993Y0125044D01*
X0200998Y0125105D01*
X0201000Y0125165D01*
X0201000Y0131165D01*
X0200998Y0131225D01*
X0200993Y0131286D01*
X0200984Y0131345D01*
X0200971Y0131404D01*
X0200955Y0131463D01*
X0200935Y0131520D01*
X0200912Y0131575D01*
X0200885Y0131630D01*
X0200856Y0131682D01*
X0200823Y0131733D01*
X0200787Y0131782D01*
X0200749Y0131828D01*
X0200707Y0131872D01*
X0200663Y0131914D01*
X0200617Y0131952D01*
X0200568Y0131988D01*
X0200517Y0132021D01*
X0200465Y0132050D01*
X0200410Y0132077D01*
X0200355Y0132100D01*
X0200298Y0132120D01*
X0200239Y0132136D01*
X0200180Y0132149D01*
X0200121Y0132158D01*
X0200060Y0132163D01*
X0200000Y0132165D01*
X0198500Y0132165D01*
X0198000Y0131665D01*
X0184000Y0131665D01*
X0183500Y0132165D01*
X0193811Y0120354D02*
X0195311Y0120354D01*
X0195811Y0119854D01*
X0209811Y0119854D01*
X0210311Y0120354D01*
X0211811Y0120354D01*
X0211871Y0120352D01*
X0211932Y0120347D01*
X0211991Y0120338D01*
X0212050Y0120325D01*
X0212109Y0120309D01*
X0212166Y0120289D01*
X0212221Y0120266D01*
X0212276Y0120239D01*
X0212328Y0120210D01*
X0212379Y0120177D01*
X0212428Y0120141D01*
X0212474Y0120103D01*
X0212518Y0120061D01*
X0212560Y0120017D01*
X0212598Y0119971D01*
X0212634Y0119922D01*
X0212667Y0119871D01*
X0212696Y0119819D01*
X0212723Y0119764D01*
X0212746Y0119709D01*
X0212766Y0119652D01*
X0212782Y0119593D01*
X0212795Y0119534D01*
X0212804Y0119475D01*
X0212809Y0119414D01*
X0212811Y0119354D01*
X0212811Y0113354D01*
X0212809Y0113294D01*
X0212804Y0113233D01*
X0212795Y0113174D01*
X0212782Y0113115D01*
X0212766Y0113056D01*
X0212746Y0112999D01*
X0212723Y0112944D01*
X0212696Y0112889D01*
X0212667Y0112837D01*
X0212634Y0112786D01*
X0212598Y0112737D01*
X0212560Y0112691D01*
X0212518Y0112647D01*
X0212474Y0112605D01*
X0212428Y0112567D01*
X0212379Y0112531D01*
X0212328Y0112498D01*
X0212276Y0112469D01*
X0212221Y0112442D01*
X0212166Y0112419D01*
X0212109Y0112399D01*
X0212050Y0112383D01*
X0211991Y0112370D01*
X0211932Y0112361D01*
X0211871Y0112356D01*
X0211811Y0112354D01*
X0210311Y0112354D01*
X0209811Y0112854D01*
X0195811Y0112854D01*
X0195311Y0112354D01*
X0193811Y0112354D01*
X0193751Y0112356D01*
X0193690Y0112361D01*
X0193631Y0112370D01*
X0193572Y0112383D01*
X0193513Y0112399D01*
X0193456Y0112419D01*
X0193401Y0112442D01*
X0193346Y0112469D01*
X0193294Y0112498D01*
X0193243Y0112531D01*
X0193194Y0112567D01*
X0193148Y0112605D01*
X0193104Y0112647D01*
X0193062Y0112691D01*
X0193024Y0112737D01*
X0192988Y0112786D01*
X0192955Y0112837D01*
X0192926Y0112889D01*
X0192899Y0112944D01*
X0192876Y0112999D01*
X0192856Y0113056D01*
X0192840Y0113115D01*
X0192827Y0113174D01*
X0192818Y0113233D01*
X0192813Y0113294D01*
X0192811Y0113354D01*
X0192811Y0119354D01*
X0192813Y0119414D01*
X0192818Y0119475D01*
X0192827Y0119534D01*
X0192840Y0119593D01*
X0192856Y0119652D01*
X0192876Y0119709D01*
X0192899Y0119764D01*
X0192926Y0119819D01*
X0192955Y0119871D01*
X0192988Y0119922D01*
X0193024Y0119971D01*
X0193062Y0120017D01*
X0193104Y0120061D01*
X0193148Y0120103D01*
X0193194Y0120141D01*
X0193243Y0120177D01*
X0193294Y0120210D01*
X0193346Y0120239D01*
X0193401Y0120266D01*
X0193456Y0120289D01*
X0193513Y0120309D01*
X0193572Y0120325D01*
X0193631Y0120338D01*
X0193690Y0120347D01*
X0193751Y0120352D01*
X0193811Y0120354D01*
X0136520Y0049161D02*
X0136520Y0036161D01*
X0136520Y0023161D01*
X0134520Y0023161D01*
X0134520Y0036161D01*
X0136520Y0036161D01*
X0131520Y0037161D02*
X0131520Y0022161D01*
X0125520Y0022161D01*
X0125520Y0037161D01*
X0131520Y0037161D01*
X0121520Y0037161D02*
X0121520Y0022161D01*
X0115520Y0022161D01*
X0115520Y0037161D01*
X0121520Y0037161D01*
X0111520Y0037161D02*
X0111520Y0022161D01*
X0105520Y0022161D01*
X0105520Y0037161D01*
X0111520Y0037161D01*
X0102520Y0036161D02*
X0100520Y0036161D01*
X0100520Y0023161D01*
X0100520Y0010161D01*
X0136520Y0010161D01*
X0136520Y0023161D01*
X0136520Y0049161D02*
X0100520Y0049161D01*
X0100520Y0036161D01*
X0102520Y0036161D02*
X0102520Y0023161D01*
X0100520Y0023161D01*
X0073835Y0012268D02*
X0073835Y0006268D01*
X0073833Y0006208D01*
X0073828Y0006147D01*
X0073819Y0006088D01*
X0073806Y0006029D01*
X0073790Y0005970D01*
X0073770Y0005913D01*
X0073747Y0005858D01*
X0073720Y0005803D01*
X0073691Y0005751D01*
X0073658Y0005700D01*
X0073622Y0005651D01*
X0073584Y0005605D01*
X0073542Y0005561D01*
X0073498Y0005519D01*
X0073452Y0005481D01*
X0073403Y0005445D01*
X0073352Y0005412D01*
X0073300Y0005383D01*
X0073245Y0005356D01*
X0073190Y0005333D01*
X0073133Y0005313D01*
X0073074Y0005297D01*
X0073015Y0005284D01*
X0072956Y0005275D01*
X0072895Y0005270D01*
X0072835Y0005268D01*
X0071335Y0005268D01*
X0070835Y0005768D01*
X0056835Y0005768D01*
X0056335Y0005268D01*
X0054835Y0005268D01*
X0054775Y0005270D01*
X0054714Y0005275D01*
X0054655Y0005284D01*
X0054596Y0005297D01*
X0054537Y0005313D01*
X0054480Y0005333D01*
X0054425Y0005356D01*
X0054370Y0005383D01*
X0054318Y0005412D01*
X0054267Y0005445D01*
X0054218Y0005481D01*
X0054172Y0005519D01*
X0054128Y0005561D01*
X0054086Y0005605D01*
X0054048Y0005651D01*
X0054012Y0005700D01*
X0053979Y0005751D01*
X0053950Y0005803D01*
X0053923Y0005858D01*
X0053900Y0005913D01*
X0053880Y0005970D01*
X0053864Y0006029D01*
X0053851Y0006088D01*
X0053842Y0006147D01*
X0053837Y0006208D01*
X0053835Y0006268D01*
X0053835Y0012268D01*
X0053837Y0012328D01*
X0053842Y0012389D01*
X0053851Y0012448D01*
X0053864Y0012507D01*
X0053880Y0012566D01*
X0053900Y0012623D01*
X0053923Y0012678D01*
X0053950Y0012733D01*
X0053979Y0012785D01*
X0054012Y0012836D01*
X0054048Y0012885D01*
X0054086Y0012931D01*
X0054128Y0012975D01*
X0054172Y0013017D01*
X0054218Y0013055D01*
X0054267Y0013091D01*
X0054318Y0013124D01*
X0054370Y0013153D01*
X0054425Y0013180D01*
X0054480Y0013203D01*
X0054537Y0013223D01*
X0054596Y0013239D01*
X0054655Y0013252D01*
X0054714Y0013261D01*
X0054775Y0013266D01*
X0054835Y0013268D01*
X0056335Y0013268D01*
X0056835Y0012768D01*
X0070835Y0012768D01*
X0071335Y0013268D01*
X0072835Y0013268D01*
X0072895Y0013266D01*
X0072956Y0013261D01*
X0073015Y0013252D01*
X0073074Y0013239D01*
X0073133Y0013223D01*
X0073190Y0013203D01*
X0073245Y0013180D01*
X0073300Y0013153D01*
X0073352Y0013124D01*
X0073403Y0013091D01*
X0073452Y0013055D01*
X0073498Y0013017D01*
X0073542Y0012975D01*
X0073584Y0012931D01*
X0073622Y0012885D01*
X0073658Y0012836D01*
X0073691Y0012785D01*
X0073720Y0012733D01*
X0073747Y0012678D01*
X0073770Y0012623D01*
X0073790Y0012566D01*
X0073806Y0012507D01*
X0073819Y0012448D01*
X0073828Y0012389D01*
X0073833Y0012328D01*
X0073835Y0012268D01*
X0072835Y0045425D02*
X0071335Y0045425D01*
X0070835Y0045925D01*
X0056835Y0045925D01*
X0056335Y0045425D01*
X0054835Y0045425D01*
X0054775Y0045427D01*
X0054714Y0045432D01*
X0054655Y0045441D01*
X0054596Y0045454D01*
X0054537Y0045470D01*
X0054480Y0045490D01*
X0054425Y0045513D01*
X0054370Y0045540D01*
X0054318Y0045569D01*
X0054267Y0045602D01*
X0054218Y0045638D01*
X0054172Y0045676D01*
X0054128Y0045718D01*
X0054086Y0045762D01*
X0054048Y0045808D01*
X0054012Y0045857D01*
X0053979Y0045908D01*
X0053950Y0045960D01*
X0053923Y0046015D01*
X0053900Y0046070D01*
X0053880Y0046127D01*
X0053864Y0046186D01*
X0053851Y0046245D01*
X0053842Y0046304D01*
X0053837Y0046365D01*
X0053835Y0046425D01*
X0053835Y0052425D01*
X0053837Y0052485D01*
X0053842Y0052546D01*
X0053851Y0052605D01*
X0053864Y0052664D01*
X0053880Y0052723D01*
X0053900Y0052780D01*
X0053923Y0052835D01*
X0053950Y0052890D01*
X0053979Y0052942D01*
X0054012Y0052993D01*
X0054048Y0053042D01*
X0054086Y0053088D01*
X0054128Y0053132D01*
X0054172Y0053174D01*
X0054218Y0053212D01*
X0054267Y0053248D01*
X0054318Y0053281D01*
X0054370Y0053310D01*
X0054425Y0053337D01*
X0054480Y0053360D01*
X0054537Y0053380D01*
X0054596Y0053396D01*
X0054655Y0053409D01*
X0054714Y0053418D01*
X0054775Y0053423D01*
X0054835Y0053425D01*
X0056335Y0053425D01*
X0056835Y0052925D01*
X0070835Y0052925D01*
X0071335Y0053425D01*
X0072835Y0053425D01*
X0072895Y0053423D01*
X0072956Y0053418D01*
X0073015Y0053409D01*
X0073074Y0053396D01*
X0073133Y0053380D01*
X0073190Y0053360D01*
X0073245Y0053337D01*
X0073300Y0053310D01*
X0073352Y0053281D01*
X0073403Y0053248D01*
X0073452Y0053212D01*
X0073498Y0053174D01*
X0073542Y0053132D01*
X0073584Y0053088D01*
X0073622Y0053042D01*
X0073658Y0052993D01*
X0073691Y0052942D01*
X0073720Y0052890D01*
X0073747Y0052835D01*
X0073770Y0052780D01*
X0073790Y0052723D01*
X0073806Y0052664D01*
X0073819Y0052605D01*
X0073828Y0052546D01*
X0073833Y0052485D01*
X0073835Y0052425D01*
X0073835Y0046425D01*
X0073833Y0046365D01*
X0073828Y0046304D01*
X0073819Y0046245D01*
X0073806Y0046186D01*
X0073790Y0046127D01*
X0073770Y0046070D01*
X0073747Y0046015D01*
X0073720Y0045960D01*
X0073691Y0045908D01*
X0073658Y0045857D01*
X0073622Y0045808D01*
X0073584Y0045762D01*
X0073542Y0045718D01*
X0073498Y0045676D01*
X0073452Y0045638D01*
X0073403Y0045602D01*
X0073352Y0045569D01*
X0073300Y0045540D01*
X0073245Y0045513D01*
X0073190Y0045490D01*
X0073133Y0045470D01*
X0073074Y0045454D01*
X0073015Y0045441D01*
X0072956Y0045432D01*
X0072895Y0045427D01*
X0072835Y0045425D01*
X0072441Y0085976D02*
X0070941Y0085976D01*
X0070441Y0086476D01*
X0056441Y0086476D01*
X0055941Y0085976D01*
X0054441Y0085976D01*
X0054381Y0085978D01*
X0054320Y0085983D01*
X0054261Y0085992D01*
X0054202Y0086005D01*
X0054143Y0086021D01*
X0054086Y0086041D01*
X0054031Y0086064D01*
X0053976Y0086091D01*
X0053924Y0086120D01*
X0053873Y0086153D01*
X0053824Y0086189D01*
X0053778Y0086227D01*
X0053734Y0086269D01*
X0053692Y0086313D01*
X0053654Y0086359D01*
X0053618Y0086408D01*
X0053585Y0086459D01*
X0053556Y0086511D01*
X0053529Y0086566D01*
X0053506Y0086621D01*
X0053486Y0086678D01*
X0053470Y0086737D01*
X0053457Y0086796D01*
X0053448Y0086855D01*
X0053443Y0086916D01*
X0053441Y0086976D01*
X0053441Y0092976D01*
X0053443Y0093036D01*
X0053448Y0093097D01*
X0053457Y0093156D01*
X0053470Y0093215D01*
X0053486Y0093274D01*
X0053506Y0093331D01*
X0053529Y0093386D01*
X0053556Y0093441D01*
X0053585Y0093493D01*
X0053618Y0093544D01*
X0053654Y0093593D01*
X0053692Y0093639D01*
X0053734Y0093683D01*
X0053778Y0093725D01*
X0053824Y0093763D01*
X0053873Y0093799D01*
X0053924Y0093832D01*
X0053976Y0093861D01*
X0054031Y0093888D01*
X0054086Y0093911D01*
X0054143Y0093931D01*
X0054202Y0093947D01*
X0054261Y0093960D01*
X0054320Y0093969D01*
X0054381Y0093974D01*
X0054441Y0093976D01*
X0055941Y0093976D01*
X0056441Y0093476D01*
X0070441Y0093476D01*
X0070941Y0093976D01*
X0072441Y0093976D01*
X0072501Y0093974D01*
X0072562Y0093969D01*
X0072621Y0093960D01*
X0072680Y0093947D01*
X0072739Y0093931D01*
X0072796Y0093911D01*
X0072851Y0093888D01*
X0072906Y0093861D01*
X0072958Y0093832D01*
X0073009Y0093799D01*
X0073058Y0093763D01*
X0073104Y0093725D01*
X0073148Y0093683D01*
X0073190Y0093639D01*
X0073228Y0093593D01*
X0073264Y0093544D01*
X0073297Y0093493D01*
X0073326Y0093441D01*
X0073353Y0093386D01*
X0073376Y0093331D01*
X0073396Y0093274D01*
X0073412Y0093215D01*
X0073425Y0093156D01*
X0073434Y0093097D01*
X0073439Y0093036D01*
X0073441Y0092976D01*
X0073441Y0086976D01*
X0073439Y0086916D01*
X0073434Y0086855D01*
X0073425Y0086796D01*
X0073412Y0086737D01*
X0073396Y0086678D01*
X0073376Y0086621D01*
X0073353Y0086566D01*
X0073326Y0086511D01*
X0073297Y0086459D01*
X0073264Y0086408D01*
X0073228Y0086359D01*
X0073190Y0086313D01*
X0073148Y0086269D01*
X0073104Y0086227D01*
X0073058Y0086189D01*
X0073009Y0086153D01*
X0072958Y0086120D01*
X0072906Y0086091D01*
X0072851Y0086064D01*
X0072796Y0086041D01*
X0072739Y0086021D01*
X0072680Y0086005D01*
X0072621Y0085992D01*
X0072562Y0085983D01*
X0072501Y0085978D01*
X0072441Y0085976D01*
X0072835Y0126134D02*
X0071335Y0126134D01*
X0070835Y0126634D01*
X0056835Y0126634D01*
X0056335Y0126134D01*
X0054835Y0126134D01*
X0054775Y0126136D01*
X0054714Y0126141D01*
X0054655Y0126150D01*
X0054596Y0126163D01*
X0054537Y0126179D01*
X0054480Y0126199D01*
X0054425Y0126222D01*
X0054370Y0126249D01*
X0054318Y0126278D01*
X0054267Y0126311D01*
X0054218Y0126347D01*
X0054172Y0126385D01*
X0054128Y0126427D01*
X0054086Y0126471D01*
X0054048Y0126517D01*
X0054012Y0126566D01*
X0053979Y0126617D01*
X0053950Y0126669D01*
X0053923Y0126724D01*
X0053900Y0126779D01*
X0053880Y0126836D01*
X0053864Y0126895D01*
X0053851Y0126954D01*
X0053842Y0127013D01*
X0053837Y0127074D01*
X0053835Y0127134D01*
X0053835Y0133134D01*
X0053837Y0133194D01*
X0053842Y0133255D01*
X0053851Y0133314D01*
X0053864Y0133373D01*
X0053880Y0133432D01*
X0053900Y0133489D01*
X0053923Y0133544D01*
X0053950Y0133599D01*
X0053979Y0133651D01*
X0054012Y0133702D01*
X0054048Y0133751D01*
X0054086Y0133797D01*
X0054128Y0133841D01*
X0054172Y0133883D01*
X0054218Y0133921D01*
X0054267Y0133957D01*
X0054318Y0133990D01*
X0054370Y0134019D01*
X0054425Y0134046D01*
X0054480Y0134069D01*
X0054537Y0134089D01*
X0054596Y0134105D01*
X0054655Y0134118D01*
X0054714Y0134127D01*
X0054775Y0134132D01*
X0054835Y0134134D01*
X0056335Y0134134D01*
X0056835Y0133634D01*
X0070835Y0133634D01*
X0071335Y0134134D01*
X0072835Y0134134D01*
X0072895Y0134132D01*
X0072956Y0134127D01*
X0073015Y0134118D01*
X0073074Y0134105D01*
X0073133Y0134089D01*
X0073190Y0134069D01*
X0073245Y0134046D01*
X0073300Y0134019D01*
X0073352Y0133990D01*
X0073403Y0133957D01*
X0073452Y0133921D01*
X0073498Y0133883D01*
X0073542Y0133841D01*
X0073584Y0133797D01*
X0073622Y0133751D01*
X0073658Y0133702D01*
X0073691Y0133651D01*
X0073720Y0133599D01*
X0073747Y0133544D01*
X0073770Y0133489D01*
X0073790Y0133432D01*
X0073806Y0133373D01*
X0073819Y0133314D01*
X0073828Y0133255D01*
X0073833Y0133194D01*
X0073835Y0133134D01*
X0073835Y0127134D01*
X0073833Y0127074D01*
X0073828Y0127013D01*
X0073819Y0126954D01*
X0073806Y0126895D01*
X0073790Y0126836D01*
X0073770Y0126779D01*
X0073747Y0126724D01*
X0073720Y0126669D01*
X0073691Y0126617D01*
X0073658Y0126566D01*
X0073622Y0126517D01*
X0073584Y0126471D01*
X0073542Y0126427D01*
X0073498Y0126385D01*
X0073452Y0126347D01*
X0073403Y0126311D01*
X0073352Y0126278D01*
X0073300Y0126249D01*
X0073245Y0126222D01*
X0073190Y0126199D01*
X0073133Y0126179D01*
X0073074Y0126163D01*
X0073015Y0126150D01*
X0072956Y0126141D01*
X0072895Y0126136D01*
X0072835Y0126134D01*
X0072441Y0166291D02*
X0070941Y0166291D01*
X0070441Y0166791D01*
X0056441Y0166791D01*
X0055941Y0166291D01*
X0054441Y0166291D01*
X0054381Y0166293D01*
X0054320Y0166298D01*
X0054261Y0166307D01*
X0054202Y0166320D01*
X0054143Y0166336D01*
X0054086Y0166356D01*
X0054031Y0166379D01*
X0053976Y0166406D01*
X0053924Y0166435D01*
X0053873Y0166468D01*
X0053824Y0166504D01*
X0053778Y0166542D01*
X0053734Y0166584D01*
X0053692Y0166628D01*
X0053654Y0166674D01*
X0053618Y0166723D01*
X0053585Y0166774D01*
X0053556Y0166826D01*
X0053529Y0166881D01*
X0053506Y0166936D01*
X0053486Y0166993D01*
X0053470Y0167052D01*
X0053457Y0167111D01*
X0053448Y0167170D01*
X0053443Y0167231D01*
X0053441Y0167291D01*
X0053441Y0173291D01*
X0053443Y0173351D01*
X0053448Y0173412D01*
X0053457Y0173471D01*
X0053470Y0173530D01*
X0053486Y0173589D01*
X0053506Y0173646D01*
X0053529Y0173701D01*
X0053556Y0173756D01*
X0053585Y0173808D01*
X0053618Y0173859D01*
X0053654Y0173908D01*
X0053692Y0173954D01*
X0053734Y0173998D01*
X0053778Y0174040D01*
X0053824Y0174078D01*
X0053873Y0174114D01*
X0053924Y0174147D01*
X0053976Y0174176D01*
X0054031Y0174203D01*
X0054086Y0174226D01*
X0054143Y0174246D01*
X0054202Y0174262D01*
X0054261Y0174275D01*
X0054320Y0174284D01*
X0054381Y0174289D01*
X0054441Y0174291D01*
X0055941Y0174291D01*
X0056441Y0173791D01*
X0070441Y0173791D01*
X0070941Y0174291D01*
X0072441Y0174291D01*
X0072501Y0174289D01*
X0072562Y0174284D01*
X0072621Y0174275D01*
X0072680Y0174262D01*
X0072739Y0174246D01*
X0072796Y0174226D01*
X0072851Y0174203D01*
X0072906Y0174176D01*
X0072958Y0174147D01*
X0073009Y0174114D01*
X0073058Y0174078D01*
X0073104Y0174040D01*
X0073148Y0173998D01*
X0073190Y0173954D01*
X0073228Y0173908D01*
X0073264Y0173859D01*
X0073297Y0173808D01*
X0073326Y0173756D01*
X0073353Y0173701D01*
X0073376Y0173646D01*
X0073396Y0173589D01*
X0073412Y0173530D01*
X0073425Y0173471D01*
X0073434Y0173412D01*
X0073439Y0173351D01*
X0073441Y0173291D01*
X0073441Y0167291D01*
X0073439Y0167231D01*
X0073434Y0167170D01*
X0073425Y0167111D01*
X0073412Y0167052D01*
X0073396Y0166993D01*
X0073376Y0166936D01*
X0073353Y0166881D01*
X0073326Y0166826D01*
X0073297Y0166774D01*
X0073264Y0166723D01*
X0073228Y0166674D01*
X0073190Y0166628D01*
X0073148Y0166584D01*
X0073104Y0166542D01*
X0073058Y0166504D01*
X0073009Y0166468D01*
X0072958Y0166435D01*
X0072906Y0166406D01*
X0072851Y0166379D01*
X0072796Y0166356D01*
X0072739Y0166336D01*
X0072680Y0166320D01*
X0072621Y0166307D01*
X0072562Y0166298D01*
X0072501Y0166293D01*
X0072441Y0166291D01*
X0072835Y0207236D02*
X0071335Y0207236D01*
X0070835Y0207736D01*
X0056835Y0207736D01*
X0056335Y0207236D01*
X0054835Y0207236D01*
X0054775Y0207238D01*
X0054714Y0207243D01*
X0054655Y0207252D01*
X0054596Y0207265D01*
X0054537Y0207281D01*
X0054480Y0207301D01*
X0054425Y0207324D01*
X0054370Y0207351D01*
X0054318Y0207380D01*
X0054267Y0207413D01*
X0054218Y0207449D01*
X0054172Y0207487D01*
X0054128Y0207529D01*
X0054086Y0207573D01*
X0054048Y0207619D01*
X0054012Y0207668D01*
X0053979Y0207719D01*
X0053950Y0207771D01*
X0053923Y0207826D01*
X0053900Y0207881D01*
X0053880Y0207938D01*
X0053864Y0207997D01*
X0053851Y0208056D01*
X0053842Y0208115D01*
X0053837Y0208176D01*
X0053835Y0208236D01*
X0053835Y0214236D01*
X0053837Y0214296D01*
X0053842Y0214357D01*
X0053851Y0214416D01*
X0053864Y0214475D01*
X0053880Y0214534D01*
X0053900Y0214591D01*
X0053923Y0214646D01*
X0053950Y0214701D01*
X0053979Y0214753D01*
X0054012Y0214804D01*
X0054048Y0214853D01*
X0054086Y0214899D01*
X0054128Y0214943D01*
X0054172Y0214985D01*
X0054218Y0215023D01*
X0054267Y0215059D01*
X0054318Y0215092D01*
X0054370Y0215121D01*
X0054425Y0215148D01*
X0054480Y0215171D01*
X0054537Y0215191D01*
X0054596Y0215207D01*
X0054655Y0215220D01*
X0054714Y0215229D01*
X0054775Y0215234D01*
X0054835Y0215236D01*
X0056335Y0215236D01*
X0056835Y0214736D01*
X0070835Y0214736D01*
X0071335Y0215236D01*
X0072835Y0215236D01*
X0072895Y0215234D01*
X0072956Y0215229D01*
X0073015Y0215220D01*
X0073074Y0215207D01*
X0073133Y0215191D01*
X0073190Y0215171D01*
X0073245Y0215148D01*
X0073300Y0215121D01*
X0073352Y0215092D01*
X0073403Y0215059D01*
X0073452Y0215023D01*
X0073498Y0214985D01*
X0073542Y0214943D01*
X0073584Y0214899D01*
X0073622Y0214853D01*
X0073658Y0214804D01*
X0073691Y0214753D01*
X0073720Y0214701D01*
X0073747Y0214646D01*
X0073770Y0214591D01*
X0073790Y0214534D01*
X0073806Y0214475D01*
X0073819Y0214416D01*
X0073828Y0214357D01*
X0073833Y0214296D01*
X0073835Y0214236D01*
X0073835Y0208236D01*
X0073833Y0208176D01*
X0073828Y0208115D01*
X0073819Y0208056D01*
X0073806Y0207997D01*
X0073790Y0207938D01*
X0073770Y0207881D01*
X0073747Y0207826D01*
X0073720Y0207771D01*
X0073691Y0207719D01*
X0073658Y0207668D01*
X0073622Y0207619D01*
X0073584Y0207573D01*
X0073542Y0207529D01*
X0073498Y0207487D01*
X0073452Y0207449D01*
X0073403Y0207413D01*
X0073352Y0207380D01*
X0073300Y0207351D01*
X0073245Y0207324D01*
X0073190Y0207301D01*
X0073133Y0207281D01*
X0073074Y0207265D01*
X0073015Y0207252D01*
X0072956Y0207243D01*
X0072895Y0207238D01*
X0072835Y0207236D01*
X0092512Y0225465D02*
X0092512Y0226965D01*
X0093012Y0227465D01*
X0093012Y0241465D01*
X0092512Y0241965D01*
X0092512Y0243465D01*
X0092514Y0243525D01*
X0092519Y0243586D01*
X0092528Y0243645D01*
X0092541Y0243704D01*
X0092557Y0243763D01*
X0092577Y0243820D01*
X0092600Y0243875D01*
X0092627Y0243930D01*
X0092656Y0243982D01*
X0092689Y0244033D01*
X0092725Y0244082D01*
X0092763Y0244128D01*
X0092805Y0244172D01*
X0092849Y0244214D01*
X0092895Y0244252D01*
X0092944Y0244288D01*
X0092995Y0244321D01*
X0093047Y0244350D01*
X0093102Y0244377D01*
X0093157Y0244400D01*
X0093214Y0244420D01*
X0093273Y0244436D01*
X0093332Y0244449D01*
X0093391Y0244458D01*
X0093452Y0244463D01*
X0093512Y0244465D01*
X0099512Y0244465D01*
X0099572Y0244463D01*
X0099633Y0244458D01*
X0099692Y0244449D01*
X0099751Y0244436D01*
X0099810Y0244420D01*
X0099867Y0244400D01*
X0099922Y0244377D01*
X0099977Y0244350D01*
X0100029Y0244321D01*
X0100080Y0244288D01*
X0100129Y0244252D01*
X0100175Y0244214D01*
X0100219Y0244172D01*
X0100261Y0244128D01*
X0100299Y0244082D01*
X0100335Y0244033D01*
X0100368Y0243982D01*
X0100397Y0243930D01*
X0100424Y0243875D01*
X0100447Y0243820D01*
X0100467Y0243763D01*
X0100483Y0243704D01*
X0100496Y0243645D01*
X0100505Y0243586D01*
X0100510Y0243525D01*
X0100512Y0243465D01*
X0100512Y0241965D01*
X0100012Y0241465D01*
X0100012Y0227465D01*
X0100512Y0226965D01*
X0100512Y0225465D01*
X0100510Y0225405D01*
X0100505Y0225344D01*
X0100496Y0225285D01*
X0100483Y0225226D01*
X0100467Y0225167D01*
X0100447Y0225110D01*
X0100424Y0225055D01*
X0100397Y0225000D01*
X0100368Y0224948D01*
X0100335Y0224897D01*
X0100299Y0224848D01*
X0100261Y0224802D01*
X0100219Y0224758D01*
X0100175Y0224716D01*
X0100129Y0224678D01*
X0100080Y0224642D01*
X0100029Y0224609D01*
X0099977Y0224580D01*
X0099922Y0224553D01*
X0099867Y0224530D01*
X0099810Y0224510D01*
X0099751Y0224494D01*
X0099692Y0224481D01*
X0099633Y0224472D01*
X0099572Y0224467D01*
X0099512Y0224465D01*
X0093512Y0224465D01*
X0093452Y0224467D01*
X0093391Y0224472D01*
X0093332Y0224481D01*
X0093273Y0224494D01*
X0093214Y0224510D01*
X0093157Y0224530D01*
X0093102Y0224553D01*
X0093047Y0224580D01*
X0092995Y0224609D01*
X0092944Y0224642D01*
X0092895Y0224678D01*
X0092849Y0224716D01*
X0092805Y0224758D01*
X0092763Y0224802D01*
X0092725Y0224848D01*
X0092689Y0224897D01*
X0092656Y0224948D01*
X0092627Y0225000D01*
X0092600Y0225055D01*
X0092577Y0225110D01*
X0092557Y0225167D01*
X0092541Y0225226D01*
X0092528Y0225285D01*
X0092519Y0225344D01*
X0092514Y0225405D01*
X0092512Y0225465D01*
X0110134Y0242339D02*
X0110137Y0242584D01*
X0110146Y0242830D01*
X0110161Y0243075D01*
X0110182Y0243319D01*
X0110209Y0243563D01*
X0110242Y0243806D01*
X0110281Y0244049D01*
X0110326Y0244290D01*
X0110377Y0244530D01*
X0110434Y0244769D01*
X0110496Y0245006D01*
X0110565Y0245242D01*
X0110639Y0245476D01*
X0110719Y0245708D01*
X0110804Y0245938D01*
X0110895Y0246166D01*
X0110992Y0246391D01*
X0111094Y0246615D01*
X0111202Y0246835D01*
X0111315Y0247053D01*
X0111433Y0247268D01*
X0111557Y0247480D01*
X0111685Y0247689D01*
X0111819Y0247895D01*
X0111958Y0248097D01*
X0112102Y0248296D01*
X0112251Y0248491D01*
X0112404Y0248683D01*
X0112562Y0248871D01*
X0112724Y0249055D01*
X0112892Y0249234D01*
X0113063Y0249410D01*
X0113239Y0249581D01*
X0113418Y0249749D01*
X0113602Y0249911D01*
X0113790Y0250069D01*
X0113982Y0250222D01*
X0114177Y0250371D01*
X0114376Y0250515D01*
X0114578Y0250654D01*
X0114784Y0250788D01*
X0114993Y0250916D01*
X0115205Y0251040D01*
X0115420Y0251158D01*
X0115638Y0251271D01*
X0115858Y0251379D01*
X0116082Y0251481D01*
X0116307Y0251578D01*
X0116535Y0251669D01*
X0116765Y0251754D01*
X0116997Y0251834D01*
X0117231Y0251908D01*
X0117467Y0251977D01*
X0117704Y0252039D01*
X0117943Y0252096D01*
X0118183Y0252147D01*
X0118424Y0252192D01*
X0118667Y0252231D01*
X0118910Y0252264D01*
X0119154Y0252291D01*
X0119398Y0252312D01*
X0119643Y0252327D01*
X0119889Y0252336D01*
X0120134Y0252339D01*
X0120379Y0252336D01*
X0120625Y0252327D01*
X0120870Y0252312D01*
X0121114Y0252291D01*
X0121358Y0252264D01*
X0121601Y0252231D01*
X0121844Y0252192D01*
X0122085Y0252147D01*
X0122325Y0252096D01*
X0122564Y0252039D01*
X0122801Y0251977D01*
X0123037Y0251908D01*
X0123271Y0251834D01*
X0123503Y0251754D01*
X0123733Y0251669D01*
X0123961Y0251578D01*
X0124186Y0251481D01*
X0124410Y0251379D01*
X0124630Y0251271D01*
X0124848Y0251158D01*
X0125063Y0251040D01*
X0125275Y0250916D01*
X0125484Y0250788D01*
X0125690Y0250654D01*
X0125892Y0250515D01*
X0126091Y0250371D01*
X0126286Y0250222D01*
X0126478Y0250069D01*
X0126666Y0249911D01*
X0126850Y0249749D01*
X0127029Y0249581D01*
X0127205Y0249410D01*
X0127376Y0249234D01*
X0127544Y0249055D01*
X0127706Y0248871D01*
X0127864Y0248683D01*
X0128017Y0248491D01*
X0128166Y0248296D01*
X0128310Y0248097D01*
X0128449Y0247895D01*
X0128583Y0247689D01*
X0128711Y0247480D01*
X0128835Y0247268D01*
X0128953Y0247053D01*
X0129066Y0246835D01*
X0129174Y0246615D01*
X0129276Y0246391D01*
X0129373Y0246166D01*
X0129464Y0245938D01*
X0129549Y0245708D01*
X0129629Y0245476D01*
X0129703Y0245242D01*
X0129772Y0245006D01*
X0129834Y0244769D01*
X0129891Y0244530D01*
X0129942Y0244290D01*
X0129987Y0244049D01*
X0130026Y0243806D01*
X0130059Y0243563D01*
X0130086Y0243319D01*
X0130107Y0243075D01*
X0130122Y0242830D01*
X0130131Y0242584D01*
X0130134Y0242339D01*
X0130131Y0242094D01*
X0130122Y0241848D01*
X0130107Y0241603D01*
X0130086Y0241359D01*
X0130059Y0241115D01*
X0130026Y0240872D01*
X0129987Y0240629D01*
X0129942Y0240388D01*
X0129891Y0240148D01*
X0129834Y0239909D01*
X0129772Y0239672D01*
X0129703Y0239436D01*
X0129629Y0239202D01*
X0129549Y0238970D01*
X0129464Y0238740D01*
X0129373Y0238512D01*
X0129276Y0238287D01*
X0129174Y0238063D01*
X0129066Y0237843D01*
X0128953Y0237625D01*
X0128835Y0237410D01*
X0128711Y0237198D01*
X0128583Y0236989D01*
X0128449Y0236783D01*
X0128310Y0236581D01*
X0128166Y0236382D01*
X0128017Y0236187D01*
X0127864Y0235995D01*
X0127706Y0235807D01*
X0127544Y0235623D01*
X0127376Y0235444D01*
X0127205Y0235268D01*
X0127029Y0235097D01*
X0126850Y0234929D01*
X0126666Y0234767D01*
X0126478Y0234609D01*
X0126286Y0234456D01*
X0126091Y0234307D01*
X0125892Y0234163D01*
X0125690Y0234024D01*
X0125484Y0233890D01*
X0125275Y0233762D01*
X0125063Y0233638D01*
X0124848Y0233520D01*
X0124630Y0233407D01*
X0124410Y0233299D01*
X0124186Y0233197D01*
X0123961Y0233100D01*
X0123733Y0233009D01*
X0123503Y0232924D01*
X0123271Y0232844D01*
X0123037Y0232770D01*
X0122801Y0232701D01*
X0122564Y0232639D01*
X0122325Y0232582D01*
X0122085Y0232531D01*
X0121844Y0232486D01*
X0121601Y0232447D01*
X0121358Y0232414D01*
X0121114Y0232387D01*
X0120870Y0232366D01*
X0120625Y0232351D01*
X0120379Y0232342D01*
X0120134Y0232339D01*
X0119889Y0232342D01*
X0119643Y0232351D01*
X0119398Y0232366D01*
X0119154Y0232387D01*
X0118910Y0232414D01*
X0118667Y0232447D01*
X0118424Y0232486D01*
X0118183Y0232531D01*
X0117943Y0232582D01*
X0117704Y0232639D01*
X0117467Y0232701D01*
X0117231Y0232770D01*
X0116997Y0232844D01*
X0116765Y0232924D01*
X0116535Y0233009D01*
X0116307Y0233100D01*
X0116082Y0233197D01*
X0115858Y0233299D01*
X0115638Y0233407D01*
X0115420Y0233520D01*
X0115205Y0233638D01*
X0114993Y0233762D01*
X0114784Y0233890D01*
X0114578Y0234024D01*
X0114376Y0234163D01*
X0114177Y0234307D01*
X0113982Y0234456D01*
X0113790Y0234609D01*
X0113602Y0234767D01*
X0113418Y0234929D01*
X0113239Y0235097D01*
X0113063Y0235268D01*
X0112892Y0235444D01*
X0112724Y0235623D01*
X0112562Y0235807D01*
X0112404Y0235995D01*
X0112251Y0236187D01*
X0112102Y0236382D01*
X0111958Y0236581D01*
X0111819Y0236783D01*
X0111685Y0236989D01*
X0111557Y0237198D01*
X0111433Y0237410D01*
X0111315Y0237625D01*
X0111202Y0237843D01*
X0111094Y0238063D01*
X0110992Y0238287D01*
X0110895Y0238512D01*
X0110804Y0238740D01*
X0110719Y0238970D01*
X0110639Y0239202D01*
X0110565Y0239436D01*
X0110496Y0239672D01*
X0110434Y0239909D01*
X0110377Y0240148D01*
X0110326Y0240388D01*
X0110281Y0240629D01*
X0110242Y0240872D01*
X0110209Y0241115D01*
X0110182Y0241359D01*
X0110161Y0241603D01*
X0110146Y0241848D01*
X0110137Y0242094D01*
X0110134Y0242339D01*
D12*
X0118174Y0255939D02*
X0119125Y0255939D01*
X0119442Y0256256D01*
X0119442Y0257523D01*
X0119125Y0257840D01*
X0118174Y0257840D01*
X0118174Y0255939D01*
X0120384Y0255939D02*
X0121652Y0255939D01*
X0121018Y0255939D02*
X0121018Y0257840D01*
X0120384Y0257206D01*
X0159040Y0209574D02*
X0159040Y0209258D01*
X0159674Y0208624D01*
X0159674Y0207673D01*
X0159674Y0208624D02*
X0160308Y0209258D01*
X0160308Y0209574D01*
X0161250Y0208941D02*
X0161884Y0209574D01*
X0161884Y0207673D01*
X0161250Y0207673D02*
X0162518Y0207673D01*
X0184622Y0241276D02*
X0184622Y0251276D01*
X0244622Y0251276D01*
X0244622Y0241276D01*
X0184622Y0241276D01*
X0185872Y0252526D02*
X0187223Y0252526D01*
X0187674Y0252976D01*
X0187674Y0254778D01*
X0187223Y0255228D01*
X0185872Y0255228D01*
X0185872Y0252526D01*
X0189719Y0252526D02*
X0189719Y0255228D01*
X0188819Y0255228D02*
X0190620Y0255228D01*
X0191765Y0255228D02*
X0191765Y0252526D01*
X0191765Y0253426D02*
X0193116Y0253426D01*
X0193567Y0253877D01*
X0193567Y0254778D01*
X0193116Y0255228D01*
X0191765Y0255228D01*
X0192666Y0253426D02*
X0193567Y0252526D01*
X0196773Y0252526D02*
X0196773Y0255228D01*
X0195872Y0255228D02*
X0197674Y0255228D01*
X0198819Y0255228D02*
X0200620Y0252526D01*
X0201765Y0252976D02*
X0202215Y0252526D01*
X0203116Y0252526D01*
X0203567Y0252976D01*
X0203567Y0254778D01*
X0203116Y0255228D01*
X0202215Y0255228D01*
X0201765Y0254778D01*
X0201765Y0252976D01*
X0200620Y0255228D02*
X0198819Y0252526D01*
X0205872Y0252526D02*
X0205872Y0255228D01*
X0207223Y0255228D01*
X0207674Y0254778D01*
X0207674Y0253877D01*
X0207223Y0253426D01*
X0205872Y0253426D01*
X0206773Y0253426D02*
X0207674Y0252526D01*
X0208819Y0252526D02*
X0210620Y0255228D01*
X0211765Y0255228D02*
X0212666Y0255228D01*
X0212215Y0255228D02*
X0212215Y0252526D01*
X0211765Y0252526D02*
X0212666Y0252526D01*
X0210620Y0252526D02*
X0208819Y0255228D01*
X0215872Y0255228D02*
X0215872Y0253426D01*
X0216773Y0252526D01*
X0217674Y0253426D01*
X0217674Y0255228D01*
X0218819Y0254778D02*
X0218819Y0252976D01*
X0219269Y0252526D01*
X0220170Y0252526D01*
X0220620Y0252976D01*
X0221765Y0252976D02*
X0222215Y0252526D01*
X0223116Y0252526D01*
X0223567Y0252976D01*
X0223567Y0254778D02*
X0223116Y0255228D01*
X0222215Y0255228D01*
X0221765Y0254778D01*
X0221765Y0252976D01*
X0220620Y0254778D02*
X0220170Y0255228D01*
X0219269Y0255228D01*
X0218819Y0254778D01*
X0225872Y0254778D02*
X0225872Y0252976D01*
X0226322Y0252526D01*
X0227223Y0252526D01*
X0227674Y0252976D01*
X0227674Y0254778D02*
X0227223Y0255228D01*
X0226322Y0255228D01*
X0225872Y0254778D01*
X0228819Y0255228D02*
X0230620Y0255228D01*
X0229719Y0255228D02*
X0229719Y0252526D01*
X0231765Y0252976D02*
X0232215Y0252526D01*
X0233116Y0252526D01*
X0233567Y0252976D01*
X0233567Y0253426D01*
X0233116Y0253877D01*
X0232215Y0253877D01*
X0231765Y0254327D01*
X0231765Y0254778D01*
X0232215Y0255228D01*
X0233116Y0255228D01*
X0233567Y0254778D01*
X0235872Y0254778D02*
X0236322Y0255228D01*
X0237223Y0255228D01*
X0237674Y0254778D01*
X0237674Y0253877D02*
X0236773Y0253877D01*
X0237674Y0253877D02*
X0237674Y0252976D01*
X0237223Y0252526D01*
X0236322Y0252526D01*
X0235872Y0252976D01*
X0235872Y0254778D01*
X0238819Y0255228D02*
X0240620Y0252526D01*
X0240620Y0255228D01*
X0241765Y0255228D02*
X0243116Y0255228D01*
X0243567Y0254778D01*
X0243567Y0252976D01*
X0243116Y0252526D01*
X0241765Y0252526D01*
X0241765Y0255228D01*
X0238819Y0255228D02*
X0238819Y0252526D01*
X0257801Y0235615D02*
X0258552Y0236365D01*
X0259303Y0236365D01*
X0260053Y0235615D01*
X0260804Y0236365D01*
X0261554Y0236365D01*
X0262305Y0235615D01*
X0262305Y0234113D01*
X0261554Y0233363D01*
X0261554Y0231761D02*
X0262305Y0231011D01*
X0262305Y0229509D01*
X0261554Y0228759D01*
X0258552Y0228759D01*
X0257801Y0229509D01*
X0257801Y0231011D01*
X0258552Y0231761D01*
X0258552Y0233363D02*
X0257801Y0234113D01*
X0257801Y0235615D01*
X0260053Y0235615D02*
X0260053Y0234864D01*
X0275560Y0214908D02*
X0274809Y0214158D01*
X0274809Y0212657D01*
X0275560Y0211906D01*
X0275560Y0210305D02*
X0274809Y0209554D01*
X0274809Y0208053D01*
X0275560Y0207302D01*
X0278562Y0207302D01*
X0279313Y0208053D01*
X0279313Y0209554D01*
X0278562Y0210305D01*
X0279313Y0211906D02*
X0276310Y0214908D01*
X0275560Y0214908D01*
X0279313Y0214908D02*
X0279313Y0211906D01*
X0289549Y0209719D02*
X0291801Y0209719D01*
X0292552Y0210469D01*
X0292552Y0213472D01*
X0291801Y0214222D01*
X0289549Y0214222D01*
X0289549Y0209719D01*
X0294153Y0209719D02*
X0297156Y0212721D01*
X0297156Y0213472D01*
X0296405Y0214222D01*
X0294904Y0214222D01*
X0294153Y0213472D01*
X0294153Y0209719D02*
X0297156Y0209719D01*
X0317687Y0184971D02*
X0317687Y0181969D01*
X0317687Y0183470D02*
X0313183Y0183470D01*
X0314684Y0181969D01*
X0313934Y0180368D02*
X0313183Y0179617D01*
X0313183Y0178116D01*
X0313934Y0177365D01*
X0316936Y0177365D01*
X0317687Y0178116D01*
X0317687Y0179617D01*
X0316936Y0180368D01*
X0290355Y0172577D02*
X0290355Y0168073D01*
X0288854Y0168073D02*
X0291856Y0168073D01*
X0287253Y0168823D02*
X0286502Y0168073D01*
X0285001Y0168073D01*
X0284250Y0168823D01*
X0285001Y0170325D02*
X0286502Y0170325D01*
X0287253Y0169574D01*
X0287253Y0168823D01*
X0285001Y0170325D02*
X0284250Y0171075D01*
X0284250Y0171826D01*
X0285001Y0172577D01*
X0286502Y0172577D01*
X0287253Y0171826D01*
X0288854Y0171075D02*
X0290355Y0172577D01*
X0289605Y0127577D02*
X0288854Y0126826D01*
X0289605Y0127577D02*
X0291106Y0127577D01*
X0291856Y0126826D01*
X0291856Y0126075D01*
X0288854Y0123073D01*
X0291856Y0123073D01*
X0287253Y0123823D02*
X0286502Y0123073D01*
X0285001Y0123073D01*
X0284250Y0123823D01*
X0285001Y0125325D02*
X0286502Y0125325D01*
X0287253Y0124574D01*
X0287253Y0123823D01*
X0285001Y0125325D02*
X0284250Y0126075D01*
X0284250Y0126826D01*
X0285001Y0127577D01*
X0286502Y0127577D01*
X0287253Y0126826D01*
X0286468Y0044931D02*
X0284216Y0044931D01*
X0284216Y0040427D01*
X0284216Y0041928D02*
X0286468Y0041928D01*
X0287219Y0042679D01*
X0287219Y0044180D01*
X0286468Y0044931D01*
X0288820Y0043430D02*
X0290321Y0044931D01*
X0290321Y0040427D01*
X0288820Y0040427D02*
X0291823Y0040427D01*
X0282615Y0044931D02*
X0281113Y0044931D01*
X0281864Y0044931D02*
X0281864Y0041178D01*
X0281113Y0040427D01*
X0280363Y0040427D01*
X0279612Y0041178D01*
X0284747Y0026830D02*
X0284747Y0023427D01*
X0285881Y0023427D02*
X0283612Y0023427D01*
X0283612Y0025696D02*
X0284747Y0026830D01*
X0293612Y0026263D02*
X0294179Y0026830D01*
X0295314Y0026830D01*
X0295881Y0026263D01*
X0295881Y0025696D01*
X0293612Y0023427D01*
X0295881Y0023427D01*
X0303612Y0023994D02*
X0304179Y0023427D01*
X0305314Y0023427D01*
X0305881Y0023994D01*
X0305881Y0024561D01*
X0305314Y0025129D01*
X0304747Y0025129D01*
X0305314Y0025129D02*
X0305881Y0025696D01*
X0305881Y0026263D01*
X0305314Y0026830D01*
X0304179Y0026830D01*
X0303612Y0026263D01*
X0259602Y0026611D02*
X0258852Y0025860D01*
X0257350Y0025860D01*
X0256600Y0026611D01*
X0257350Y0028112D02*
X0259602Y0028112D01*
X0259602Y0026611D02*
X0259602Y0029613D01*
X0258852Y0030364D01*
X0257350Y0030364D01*
X0256600Y0029613D01*
X0256600Y0028863D01*
X0257350Y0028112D01*
X0254998Y0028112D02*
X0254998Y0029613D01*
X0254248Y0030364D01*
X0251996Y0030364D01*
X0251996Y0025860D01*
X0251996Y0027362D02*
X0254248Y0027362D01*
X0254998Y0028112D01*
X0250394Y0030364D02*
X0248893Y0030364D01*
X0249644Y0030364D02*
X0249644Y0026611D01*
X0248893Y0025860D01*
X0248142Y0025860D01*
X0247392Y0026611D01*
X0208846Y0008004D02*
X0199346Y0008004D01*
X0204346Y0029504D02*
X0204346Y0031004D01*
X0205346Y0031004D01*
X0156878Y0008398D02*
X0147378Y0008398D01*
X0152378Y0029898D02*
X0152378Y0031398D01*
X0153378Y0031398D01*
X0112980Y0050911D02*
X0109978Y0050911D01*
X0111479Y0050911D02*
X0111479Y0055415D01*
X0109978Y0053914D01*
X0108376Y0055415D02*
X0108376Y0050911D01*
X0106875Y0052413D01*
X0105374Y0050911D01*
X0105374Y0055415D01*
X0103772Y0054665D02*
X0103022Y0055415D01*
X0101520Y0055415D01*
X0100770Y0054665D01*
X0100770Y0053914D01*
X0101520Y0053163D01*
X0103022Y0053163D01*
X0103772Y0052413D01*
X0103772Y0051662D01*
X0103022Y0050911D01*
X0101520Y0050911D01*
X0100770Y0051662D01*
X0126830Y0075990D02*
X0127147Y0075673D01*
X0127464Y0075673D01*
X0127781Y0075990D01*
X0127781Y0077574D01*
X0127464Y0077574D02*
X0128098Y0077574D01*
X0129040Y0077258D02*
X0129357Y0077574D01*
X0129991Y0077574D01*
X0130308Y0077258D01*
X0130308Y0076941D01*
X0129040Y0075673D01*
X0130308Y0075673D01*
X0043098Y0061547D02*
X0033598Y0061547D01*
X0038598Y0043996D02*
X0039598Y0043996D01*
X0038598Y0043996D02*
X0038598Y0042496D01*
X0043098Y0020996D02*
X0033598Y0020996D01*
X0038598Y0083047D02*
X0038598Y0084547D01*
X0039598Y0084547D01*
X0043098Y0101705D02*
X0033598Y0101705D01*
X0038598Y0123205D02*
X0038598Y0124705D01*
X0039598Y0124705D01*
X0043098Y0141862D02*
X0033598Y0141862D01*
X0038598Y0163362D02*
X0038598Y0164862D01*
X0039598Y0164862D01*
X0043098Y0182413D02*
X0033598Y0182413D01*
X0038598Y0203913D02*
X0038598Y0205413D01*
X0039598Y0205413D01*
X0043492Y0222965D02*
X0033992Y0222965D01*
X0038992Y0244465D02*
X0038992Y0245965D01*
X0039992Y0245965D01*
X0312474Y0245965D02*
X0314376Y0245965D01*
X0314376Y0246598D02*
X0314376Y0245331D01*
X0313108Y0245331D02*
X0312474Y0245965D01*
X0312474Y0244389D02*
X0312474Y0243755D01*
X0312474Y0244072D02*
X0314059Y0244072D01*
X0314376Y0243755D01*
X0314376Y0243438D01*
X0314059Y0243121D01*
D13*
X0270563Y0199260D02*
X0267063Y0199260D01*
X0263563Y0199260D01*
X0263563Y0195260D02*
X0267063Y0195260D01*
X0270563Y0195260D01*
X0253555Y0216717D02*
X0250055Y0216717D01*
X0246555Y0216717D01*
X0246555Y0220717D02*
X0250055Y0220717D01*
X0253555Y0220717D01*
D14*
X0258150Y0181431D02*
X0258150Y0177227D01*
X0258150Y0179329D02*
X0251845Y0179329D01*
X0253946Y0177227D01*
X0252896Y0174985D02*
X0251845Y0173935D01*
X0251845Y0171833D01*
X0252896Y0170782D01*
X0257099Y0170782D01*
X0258150Y0171833D01*
X0258150Y0173935D01*
X0257099Y0174985D01*
X0258150Y0168587D02*
X0258150Y0166485D01*
X0258150Y0167536D02*
X0251845Y0167536D01*
X0251845Y0166485D02*
X0251845Y0168587D01*
X0079212Y0150806D02*
X0076343Y0150806D01*
X0077777Y0150806D02*
X0077777Y0155110D01*
X0076343Y0153675D01*
X0032212Y0153158D02*
X0029343Y0153158D01*
X0031494Y0155310D01*
X0031494Y0151006D01*
X0031494Y0115152D02*
X0029343Y0113001D01*
X0032212Y0113001D01*
X0031494Y0115152D02*
X0031494Y0110849D01*
X0076343Y0110649D02*
X0079212Y0110649D01*
X0077777Y0110649D02*
X0077777Y0114952D01*
X0076343Y0113518D01*
X0077777Y0074795D02*
X0077777Y0070491D01*
X0076343Y0070491D02*
X0079212Y0070491D01*
X0076343Y0073360D02*
X0077777Y0074795D01*
X0032212Y0072843D02*
X0029343Y0072843D01*
X0031494Y0074995D01*
X0031494Y0070691D01*
X0031494Y0034444D02*
X0029343Y0032292D01*
X0032212Y0032292D01*
X0031494Y0030140D02*
X0031494Y0034444D01*
X0076343Y0032809D02*
X0077777Y0034244D01*
X0077777Y0029940D01*
X0076343Y0029940D02*
X0079212Y0029940D01*
X0143122Y0019694D02*
X0145991Y0019694D01*
X0145274Y0021845D02*
X0145274Y0017542D01*
X0143122Y0019694D02*
X0145274Y0021845D01*
X0190122Y0020211D02*
X0191557Y0021645D01*
X0191557Y0017342D01*
X0192991Y0017342D02*
X0190122Y0017342D01*
X0195091Y0019300D02*
X0197242Y0021452D01*
X0197242Y0017148D01*
X0197960Y0019300D02*
X0195091Y0019300D01*
X0242091Y0019817D02*
X0243525Y0021252D01*
X0243525Y0016948D01*
X0242091Y0016948D02*
X0244960Y0016948D01*
X0079212Y0191357D02*
X0076343Y0191357D01*
X0077777Y0191357D02*
X0077777Y0195661D01*
X0076343Y0194227D01*
X0032212Y0193709D02*
X0029343Y0193709D01*
X0031494Y0195861D01*
X0031494Y0191557D01*
X0031888Y0232109D02*
X0031888Y0236412D01*
X0029736Y0234260D01*
X0032605Y0234260D01*
X0076736Y0234778D02*
X0078171Y0236212D01*
X0078171Y0231909D01*
X0079605Y0231909D02*
X0076736Y0231909D01*
D15*
X0130134Y0234839D02*
X0130134Y0249839D01*
X0152000Y0211323D02*
X0153795Y0211142D01*
X0155593Y0211002D01*
X0157394Y0210901D01*
X0159196Y0210841D01*
X0161000Y0210821D01*
X0162804Y0210841D01*
X0164606Y0210901D01*
X0166407Y0211002D01*
X0168205Y0211142D01*
X0170000Y0211323D01*
X0170171Y0211352D01*
X0170341Y0211385D01*
X0170510Y0211421D01*
X0170678Y0211462D01*
X0170845Y0211508D01*
X0171011Y0211557D01*
X0171176Y0211610D01*
X0171339Y0211667D01*
X0171501Y0211728D01*
X0171662Y0211793D01*
X0171820Y0211862D01*
X0171977Y0211935D01*
X0172132Y0212012D01*
X0172286Y0212092D01*
X0172437Y0212177D01*
X0172586Y0212264D01*
X0172733Y0212356D01*
X0172878Y0212451D01*
X0173020Y0212549D01*
X0173160Y0212651D01*
X0173297Y0212757D01*
X0173432Y0212865D01*
X0173564Y0212977D01*
X0173693Y0213092D01*
X0173819Y0213211D01*
X0173943Y0213332D01*
X0174063Y0213456D01*
X0174181Y0213583D01*
X0174295Y0213713D01*
X0174406Y0213846D01*
X0174514Y0213982D01*
X0174618Y0214120D01*
X0174719Y0214260D01*
X0174817Y0214403D01*
X0174911Y0214549D01*
X0175001Y0214696D01*
X0175088Y0214846D01*
X0175171Y0214998D01*
X0175250Y0215151D01*
X0175326Y0215307D01*
X0175398Y0215465D01*
X0175466Y0215624D01*
X0175530Y0215785D01*
X0175590Y0215947D01*
X0175646Y0216111D01*
X0175698Y0216276D01*
X0175746Y0216442D01*
X0175790Y0216609D01*
X0175829Y0216778D01*
X0175865Y0216947D01*
X0175897Y0217117D01*
X0175924Y0217288D01*
X0175947Y0217460D01*
X0175966Y0217632D01*
X0175981Y0217804D01*
X0175992Y0217977D01*
X0175998Y0218150D01*
X0176000Y0218323D01*
X0175998Y0218496D01*
X0175992Y0218669D01*
X0175981Y0218842D01*
X0175966Y0219014D01*
X0175947Y0219186D01*
X0175924Y0219358D01*
X0175897Y0219529D01*
X0175865Y0219699D01*
X0175829Y0219868D01*
X0175790Y0220037D01*
X0175746Y0220204D01*
X0175698Y0220370D01*
X0175646Y0220535D01*
X0175590Y0220699D01*
X0175530Y0220861D01*
X0175466Y0221022D01*
X0175398Y0221181D01*
X0175326Y0221339D01*
X0175250Y0221495D01*
X0175171Y0221648D01*
X0175088Y0221800D01*
X0175001Y0221950D01*
X0174911Y0222097D01*
X0174817Y0222243D01*
X0174719Y0222386D01*
X0174618Y0222526D01*
X0174514Y0222664D01*
X0174406Y0222800D01*
X0174295Y0222933D01*
X0174181Y0223063D01*
X0174063Y0223190D01*
X0173943Y0223314D01*
X0173819Y0223435D01*
X0173693Y0223554D01*
X0173564Y0223669D01*
X0173432Y0223781D01*
X0173297Y0223889D01*
X0173160Y0223995D01*
X0173020Y0224097D01*
X0172878Y0224195D01*
X0172733Y0224290D01*
X0172586Y0224382D01*
X0172437Y0224469D01*
X0172286Y0224554D01*
X0172132Y0224634D01*
X0171977Y0224711D01*
X0171820Y0224784D01*
X0171662Y0224853D01*
X0171501Y0224918D01*
X0171339Y0224979D01*
X0171176Y0225036D01*
X0171011Y0225089D01*
X0170845Y0225138D01*
X0170678Y0225184D01*
X0170510Y0225225D01*
X0170341Y0225261D01*
X0170171Y0225294D01*
X0170000Y0225323D01*
X0152000Y0225323D02*
X0151829Y0225294D01*
X0151659Y0225261D01*
X0151490Y0225225D01*
X0151322Y0225184D01*
X0151155Y0225138D01*
X0150989Y0225089D01*
X0150824Y0225036D01*
X0150661Y0224979D01*
X0150499Y0224918D01*
X0150338Y0224853D01*
X0150180Y0224784D01*
X0150023Y0224711D01*
X0149868Y0224634D01*
X0149714Y0224554D01*
X0149563Y0224469D01*
X0149414Y0224382D01*
X0149267Y0224290D01*
X0149122Y0224195D01*
X0148980Y0224097D01*
X0148840Y0223995D01*
X0148703Y0223889D01*
X0148568Y0223781D01*
X0148436Y0223669D01*
X0148307Y0223554D01*
X0148181Y0223435D01*
X0148057Y0223314D01*
X0147937Y0223190D01*
X0147819Y0223063D01*
X0147705Y0222933D01*
X0147594Y0222800D01*
X0147486Y0222664D01*
X0147382Y0222526D01*
X0147281Y0222386D01*
X0147183Y0222243D01*
X0147089Y0222097D01*
X0146999Y0221950D01*
X0146912Y0221800D01*
X0146829Y0221648D01*
X0146750Y0221495D01*
X0146674Y0221339D01*
X0146602Y0221181D01*
X0146534Y0221022D01*
X0146470Y0220861D01*
X0146410Y0220699D01*
X0146354Y0220535D01*
X0146302Y0220370D01*
X0146254Y0220204D01*
X0146210Y0220037D01*
X0146171Y0219868D01*
X0146135Y0219699D01*
X0146103Y0219529D01*
X0146076Y0219358D01*
X0146053Y0219186D01*
X0146034Y0219014D01*
X0146019Y0218842D01*
X0146008Y0218669D01*
X0146002Y0218496D01*
X0146000Y0218323D01*
X0146002Y0218150D01*
X0146008Y0217977D01*
X0146019Y0217804D01*
X0146034Y0217632D01*
X0146053Y0217460D01*
X0146076Y0217288D01*
X0146103Y0217117D01*
X0146135Y0216947D01*
X0146171Y0216778D01*
X0146210Y0216609D01*
X0146254Y0216442D01*
X0146302Y0216276D01*
X0146354Y0216111D01*
X0146410Y0215947D01*
X0146470Y0215785D01*
X0146534Y0215624D01*
X0146602Y0215465D01*
X0146674Y0215307D01*
X0146750Y0215151D01*
X0146829Y0214998D01*
X0146912Y0214846D01*
X0146999Y0214696D01*
X0147089Y0214549D01*
X0147183Y0214403D01*
X0147281Y0214260D01*
X0147382Y0214120D01*
X0147486Y0213982D01*
X0147594Y0213846D01*
X0147705Y0213713D01*
X0147819Y0213583D01*
X0147937Y0213456D01*
X0148057Y0213332D01*
X0148181Y0213211D01*
X0148307Y0213092D01*
X0148436Y0212977D01*
X0148568Y0212865D01*
X0148703Y0212757D01*
X0148840Y0212651D01*
X0148980Y0212549D01*
X0149122Y0212451D01*
X0149267Y0212356D01*
X0149414Y0212264D01*
X0149563Y0212177D01*
X0149714Y0212092D01*
X0149868Y0212012D01*
X0150023Y0211935D01*
X0150180Y0211862D01*
X0150338Y0211793D01*
X0150499Y0211728D01*
X0150661Y0211667D01*
X0150824Y0211610D01*
X0150989Y0211557D01*
X0151155Y0211508D01*
X0151322Y0211462D01*
X0151490Y0211421D01*
X0151659Y0211385D01*
X0151829Y0211352D01*
X0152000Y0211323D01*
X0179719Y0243176D02*
X0182521Y0243176D01*
X0183222Y0243876D01*
X0183222Y0245277D01*
X0182521Y0245978D01*
X0181120Y0245978D01*
X0181120Y0244577D01*
X0179719Y0245978D02*
X0179018Y0245277D01*
X0179018Y0243876D01*
X0179719Y0243176D01*
X0179018Y0247780D02*
X0179018Y0249881D01*
X0179719Y0250582D01*
X0181120Y0250582D01*
X0181821Y0249881D01*
X0181821Y0247780D01*
X0181821Y0249181D02*
X0183222Y0250582D01*
X0183222Y0252383D02*
X0179018Y0252383D01*
X0183222Y0255186D01*
X0179018Y0255186D01*
X0179018Y0247780D02*
X0183222Y0247780D01*
X0246018Y0247780D02*
X0250222Y0247780D01*
X0250222Y0250582D01*
X0250222Y0252383D02*
X0246018Y0252383D01*
X0248120Y0253084D02*
X0250222Y0255186D01*
X0248821Y0252383D02*
X0246018Y0255186D01*
X0246719Y0245978D02*
X0247420Y0245978D01*
X0248120Y0245277D01*
X0248120Y0243176D01*
X0248120Y0245277D02*
X0248821Y0245978D01*
X0249521Y0245978D01*
X0250222Y0245277D01*
X0250222Y0243176D01*
X0246018Y0243176D01*
X0246018Y0245277D01*
X0246719Y0245978D01*
X0274863Y0242772D02*
X0274863Y0250439D01*
X0279819Y0250439D01*
X0298323Y0250439D02*
X0318189Y0250439D01*
X0318189Y0216206D01*
X0274863Y0216206D01*
X0274863Y0223874D01*
X0170000Y0225323D02*
X0168205Y0225503D01*
X0166407Y0225643D01*
X0164606Y0225743D01*
X0162804Y0225803D01*
X0161000Y0225823D01*
X0159196Y0225803D01*
X0157394Y0225743D01*
X0155593Y0225643D01*
X0153795Y0225503D01*
X0152000Y0225323D01*
D16*
X0105312Y0233891D02*
X0101809Y0233891D01*
X0101809Y0235643D01*
X0102393Y0236227D01*
X0103560Y0236227D01*
X0104144Y0235643D01*
X0104144Y0233891D01*
X0104144Y0235059D02*
X0105312Y0236227D01*
X0105312Y0237482D02*
X0105312Y0239818D01*
X0105312Y0238650D02*
X0101809Y0238650D01*
X0102976Y0237482D01*
X0102393Y0241073D02*
X0101809Y0241657D01*
X0101809Y0242825D01*
X0102393Y0243409D01*
X0102976Y0243409D01*
X0105312Y0241073D01*
X0105312Y0243409D01*
X0087346Y0213026D02*
X0086178Y0212442D01*
X0085011Y0211274D01*
X0086762Y0211274D01*
X0087346Y0210690D01*
X0087346Y0210107D01*
X0086762Y0209523D01*
X0085594Y0209523D01*
X0085011Y0210107D01*
X0085011Y0211274D01*
X0083755Y0211274D02*
X0083171Y0210690D01*
X0081419Y0210690D01*
X0081419Y0209523D02*
X0081419Y0213026D01*
X0083171Y0213026D01*
X0083755Y0212442D01*
X0083755Y0211274D01*
X0082587Y0210690D02*
X0083755Y0209523D01*
X0043673Y0209410D02*
X0041271Y0207007D01*
X0043673Y0207007D01*
X0043673Y0209410D02*
X0043673Y0210010D01*
X0043072Y0210611D01*
X0041871Y0210611D01*
X0041271Y0210010D01*
X0039990Y0210611D02*
X0039990Y0207007D01*
X0039990Y0208809D02*
X0037587Y0208809D01*
X0036306Y0207608D02*
X0035706Y0207007D01*
X0034505Y0207007D01*
X0033904Y0207608D01*
X0033904Y0210010D01*
X0034505Y0210611D01*
X0035706Y0210611D01*
X0036306Y0210010D01*
X0037587Y0210611D02*
X0037587Y0207007D01*
X0081419Y0171687D02*
X0083171Y0171687D01*
X0083755Y0171103D01*
X0083755Y0169936D01*
X0083171Y0169352D01*
X0081419Y0169352D01*
X0081419Y0168184D02*
X0081419Y0171687D01*
X0082587Y0169352D02*
X0083755Y0168184D01*
X0085011Y0168184D02*
X0085011Y0168768D01*
X0087346Y0171103D01*
X0087346Y0171687D01*
X0085011Y0171687D01*
X0043673Y0169459D02*
X0043673Y0168858D01*
X0043072Y0168258D01*
X0043673Y0167657D01*
X0043673Y0167057D01*
X0043072Y0166456D01*
X0041871Y0166456D01*
X0041271Y0167057D01*
X0039990Y0166456D02*
X0039990Y0170059D01*
X0041271Y0169459D02*
X0041871Y0170059D01*
X0043072Y0170059D01*
X0043673Y0169459D01*
X0043072Y0168258D02*
X0042472Y0168258D01*
X0039990Y0168258D02*
X0037587Y0168258D01*
X0036306Y0169459D02*
X0035706Y0170059D01*
X0034505Y0170059D01*
X0033904Y0169459D01*
X0033904Y0167057D01*
X0034505Y0166456D01*
X0035706Y0166456D01*
X0036306Y0167057D01*
X0037587Y0166456D02*
X0037587Y0170059D01*
X0037587Y0129902D02*
X0037587Y0126299D01*
X0036306Y0126899D02*
X0035706Y0126299D01*
X0034505Y0126299D01*
X0033904Y0126899D01*
X0033904Y0129301D01*
X0034505Y0129902D01*
X0035706Y0129902D01*
X0036306Y0129301D01*
X0037587Y0128100D02*
X0039990Y0128100D01*
X0041271Y0128100D02*
X0043072Y0129902D01*
X0043072Y0126299D01*
X0043673Y0128100D02*
X0041271Y0128100D01*
X0039990Y0129902D02*
X0039990Y0126299D01*
X0081419Y0127239D02*
X0081419Y0130742D01*
X0083171Y0130742D01*
X0083755Y0130159D01*
X0083755Y0128991D01*
X0083171Y0128407D01*
X0081419Y0128407D01*
X0082587Y0128407D02*
X0083755Y0127239D01*
X0085011Y0127823D02*
X0085011Y0128407D01*
X0085594Y0128991D01*
X0086762Y0128991D01*
X0087346Y0128407D01*
X0087346Y0127823D01*
X0086762Y0127239D01*
X0085594Y0127239D01*
X0085011Y0127823D01*
X0085594Y0128991D02*
X0085011Y0129575D01*
X0085011Y0130159D01*
X0085594Y0130742D01*
X0086762Y0130742D01*
X0087346Y0130159D01*
X0087346Y0129575D01*
X0086762Y0128991D01*
X0086368Y0090585D02*
X0085201Y0090585D01*
X0084617Y0090001D01*
X0084617Y0089417D01*
X0085201Y0088833D01*
X0086952Y0088833D01*
X0086952Y0087666D02*
X0086952Y0090001D01*
X0086368Y0090585D01*
X0086952Y0087666D02*
X0086368Y0087082D01*
X0085201Y0087082D01*
X0084617Y0087666D01*
X0083361Y0087082D02*
X0082193Y0088250D01*
X0082777Y0088250D02*
X0081026Y0088250D01*
X0081026Y0087082D02*
X0081026Y0090585D01*
X0082777Y0090585D01*
X0083361Y0090001D01*
X0083361Y0088833D01*
X0082777Y0088250D01*
X0043673Y0087943D02*
X0043673Y0086742D01*
X0043072Y0086141D01*
X0041871Y0086141D01*
X0041271Y0086742D01*
X0041271Y0087943D02*
X0042472Y0088543D01*
X0043072Y0088543D01*
X0043673Y0087943D01*
X0043673Y0089744D02*
X0041271Y0089744D01*
X0041271Y0087943D01*
X0039990Y0087943D02*
X0037587Y0087943D01*
X0036306Y0089144D02*
X0035706Y0089744D01*
X0034505Y0089744D01*
X0033904Y0089144D01*
X0033904Y0086742D01*
X0034505Y0086141D01*
X0035706Y0086141D01*
X0036306Y0086742D01*
X0037587Y0086141D02*
X0037587Y0089744D01*
X0039990Y0089744D02*
X0039990Y0086141D01*
X0080584Y0050427D02*
X0082336Y0050427D01*
X0082920Y0049844D01*
X0082920Y0048676D01*
X0082336Y0048092D01*
X0080584Y0048092D01*
X0080584Y0046924D02*
X0080584Y0050427D01*
X0081752Y0048092D02*
X0082920Y0046924D01*
X0084175Y0046924D02*
X0086511Y0046924D01*
X0085343Y0046924D02*
X0085343Y0050427D01*
X0084175Y0049260D01*
X0087766Y0049844D02*
X0088350Y0050427D01*
X0089518Y0050427D01*
X0090102Y0049844D01*
X0087766Y0047508D01*
X0088350Y0046924D01*
X0089518Y0046924D01*
X0090102Y0047508D01*
X0090102Y0049844D01*
X0087766Y0049844D02*
X0087766Y0047508D01*
X0043673Y0046791D02*
X0043072Y0047392D01*
X0041271Y0047392D01*
X0041271Y0046191D01*
X0041871Y0045590D01*
X0043072Y0045590D01*
X0043673Y0046191D01*
X0043673Y0046791D01*
X0042472Y0048593D02*
X0041271Y0047392D01*
X0039990Y0047392D02*
X0037587Y0047392D01*
X0036306Y0048593D02*
X0035706Y0049193D01*
X0034505Y0049193D01*
X0033904Y0048593D01*
X0033904Y0046191D01*
X0034505Y0045590D01*
X0035706Y0045590D01*
X0036306Y0046191D01*
X0037587Y0045590D02*
X0037587Y0049193D01*
X0039990Y0049193D02*
X0039990Y0045590D01*
X0042472Y0048593D02*
X0043673Y0049193D01*
X0080584Y0009876D02*
X0082336Y0009876D01*
X0082920Y0009292D01*
X0082920Y0008125D01*
X0082336Y0007541D01*
X0080584Y0007541D01*
X0080584Y0006373D02*
X0080584Y0009876D01*
X0081752Y0007541D02*
X0082920Y0006373D01*
X0084175Y0006373D02*
X0086511Y0006373D01*
X0085343Y0006373D02*
X0085343Y0009876D01*
X0084175Y0008709D01*
X0087766Y0008709D02*
X0088934Y0009876D01*
X0088934Y0006373D01*
X0087766Y0006373D02*
X0090102Y0006373D01*
X0147684Y0032992D02*
X0148885Y0032992D01*
X0148284Y0032992D02*
X0148284Y0036595D01*
X0147684Y0036595D02*
X0148885Y0036595D01*
X0150139Y0035994D02*
X0150740Y0036595D01*
X0151941Y0036595D01*
X0152541Y0035994D01*
X0152541Y0035394D01*
X0150139Y0032992D01*
X0152541Y0032992D01*
X0153822Y0033592D02*
X0154423Y0032992D01*
X0155624Y0032992D01*
X0156224Y0033592D01*
X0157506Y0034793D02*
X0159908Y0034793D01*
X0161189Y0035394D02*
X0162390Y0036595D01*
X0162390Y0032992D01*
X0161189Y0032992D02*
X0163591Y0032992D01*
X0156224Y0035994D02*
X0155624Y0036595D01*
X0154423Y0036595D01*
X0153822Y0035994D01*
X0153822Y0033592D01*
X0199652Y0032598D02*
X0200853Y0032598D01*
X0200253Y0032598D02*
X0200253Y0036201D01*
X0200853Y0036201D02*
X0199652Y0036201D01*
X0202108Y0035601D02*
X0202708Y0036201D01*
X0203909Y0036201D01*
X0204510Y0035601D01*
X0204510Y0035000D01*
X0202108Y0032598D01*
X0204510Y0032598D01*
X0205791Y0033199D02*
X0205791Y0035601D01*
X0206391Y0036201D01*
X0207592Y0036201D01*
X0208193Y0035601D01*
X0209474Y0034400D02*
X0211876Y0034400D01*
X0213157Y0035601D02*
X0213758Y0036201D01*
X0214959Y0036201D01*
X0215559Y0035601D01*
X0215559Y0035000D01*
X0213157Y0032598D01*
X0215559Y0032598D01*
X0208193Y0033199D02*
X0207592Y0032598D01*
X0206391Y0032598D01*
X0205791Y0033199D01*
X0262197Y0093523D02*
X0262197Y0095274D01*
X0262781Y0095858D01*
X0263949Y0095858D01*
X0264532Y0095274D01*
X0264532Y0093523D01*
X0264532Y0094690D02*
X0265700Y0095858D01*
X0265700Y0097114D02*
X0263365Y0099449D01*
X0262781Y0099449D01*
X0262197Y0098865D01*
X0262197Y0097698D01*
X0262781Y0097114D01*
X0265700Y0097114D02*
X0265700Y0099449D01*
X0265700Y0093523D02*
X0262197Y0093523D01*
X0227503Y0116012D02*
X0226919Y0115428D01*
X0225752Y0115428D01*
X0225168Y0116012D01*
X0225168Y0117180D02*
X0226336Y0117764D01*
X0226919Y0117764D01*
X0227503Y0117180D01*
X0227503Y0116012D01*
X0225168Y0117180D02*
X0225168Y0118931D01*
X0227503Y0118931D01*
X0223912Y0118348D02*
X0223912Y0117180D01*
X0223328Y0116596D01*
X0221577Y0116596D01*
X0222745Y0116596D02*
X0223912Y0115428D01*
X0221577Y0115428D02*
X0221577Y0118931D01*
X0223328Y0118931D01*
X0223912Y0118348D01*
X0215108Y0127239D02*
X0215108Y0130742D01*
X0213357Y0128991D01*
X0215692Y0128991D01*
X0212101Y0128991D02*
X0211517Y0128407D01*
X0209766Y0128407D01*
X0210934Y0128407D02*
X0212101Y0127239D01*
X0212101Y0128991D02*
X0212101Y0130159D01*
X0211517Y0130742D01*
X0209766Y0130742D01*
X0209766Y0127239D01*
X0203297Y0139050D02*
X0202130Y0139050D01*
X0201546Y0139634D01*
X0200290Y0139050D02*
X0199123Y0140218D01*
X0199706Y0140218D02*
X0197955Y0140218D01*
X0197955Y0139050D02*
X0197955Y0142553D01*
X0199706Y0142553D01*
X0200290Y0141970D01*
X0200290Y0140802D01*
X0199706Y0140218D01*
X0201546Y0141970D02*
X0202130Y0142553D01*
X0203297Y0142553D01*
X0203881Y0141970D01*
X0203881Y0141386D01*
X0203297Y0140802D01*
X0203881Y0140218D01*
X0203881Y0139634D01*
X0203297Y0139050D01*
X0203297Y0140802D02*
X0202714Y0140802D01*
X0262197Y0143523D02*
X0262197Y0145274D01*
X0262781Y0145858D01*
X0263949Y0145858D01*
X0264532Y0145274D01*
X0264532Y0143523D01*
X0264532Y0144690D02*
X0265700Y0145858D01*
X0265700Y0147114D02*
X0265700Y0149449D01*
X0265700Y0148282D02*
X0262197Y0148282D01*
X0263365Y0147114D01*
X0262197Y0143523D02*
X0265700Y0143523D01*
X0044066Y0247559D02*
X0041664Y0247559D01*
X0042865Y0247559D02*
X0042865Y0251162D01*
X0041664Y0249961D01*
X0040383Y0249360D02*
X0037981Y0249360D01*
X0036700Y0248159D02*
X0036100Y0247559D01*
X0034899Y0247559D01*
X0034298Y0248159D01*
X0034298Y0250561D01*
X0034899Y0251162D01*
X0036100Y0251162D01*
X0036700Y0250561D01*
X0037981Y0251162D02*
X0037981Y0247559D01*
X0040383Y0247559D02*
X0040383Y0251162D01*
D17*
X0096512Y0245215D03*
X0096512Y0223715D03*
X0271000Y0164073D03*
X0271000Y0142573D03*
X0271000Y0114073D03*
X0271000Y0092573D03*
D18*
X0291000Y0096323D02*
X0291000Y0097323D01*
X0300500Y0097323D01*
X0300500Y0096323D01*
X0301000Y0119323D02*
X0291000Y0119323D01*
X0291000Y0120323D01*
X0301000Y0120323D02*
X0301000Y0119323D01*
X0300500Y0141323D02*
X0300500Y0142323D01*
X0291000Y0142323D01*
X0291000Y0141323D01*
X0291000Y0164323D02*
X0301000Y0164323D01*
X0301000Y0165323D01*
X0291000Y0165323D02*
X0291000Y0164323D01*
D19*
X0128520Y0028911D03*
X0128520Y0026411D03*
X0128520Y0023911D03*
X0118520Y0023911D03*
X0118520Y0026411D03*
X0118520Y0028911D03*
X0108520Y0028911D03*
X0108520Y0026411D03*
X0108520Y0023911D03*
D20*
X0074585Y0009268D03*
X0053085Y0009268D03*
X0053085Y0049425D03*
X0074585Y0049425D03*
X0074191Y0089976D03*
X0052691Y0089976D03*
X0053085Y0130134D03*
X0074585Y0130134D03*
X0074191Y0170291D03*
X0052691Y0170291D03*
X0053085Y0211236D03*
X0074585Y0211236D03*
X0168439Y0139976D03*
X0180250Y0128165D03*
X0192061Y0116354D03*
X0201750Y0128165D03*
X0213561Y0116354D03*
X0189939Y0139976D03*
D21*
X0130463Y0250148D02*
X0129743Y0249608D01*
X0129744Y0249609D02*
X0129563Y0249842D01*
X0129377Y0250070D01*
X0129185Y0250294D01*
X0128988Y0250513D01*
X0128786Y0250727D01*
X0128578Y0250936D01*
X0128365Y0251139D01*
X0128148Y0251338D01*
X0127925Y0251531D01*
X0127698Y0251719D01*
X0127467Y0251901D01*
X0127231Y0252078D01*
X0126990Y0252248D01*
X0126746Y0252413D01*
X0126498Y0252571D01*
X0126246Y0252724D01*
X0125990Y0252870D01*
X0125731Y0253010D01*
X0125468Y0253144D01*
X0125203Y0253271D01*
X0124934Y0253392D01*
X0124662Y0253506D01*
X0124388Y0253613D01*
X0124111Y0253714D01*
X0123832Y0253808D01*
X0123550Y0253895D01*
X0123267Y0253975D01*
X0122981Y0254048D01*
X0122694Y0254114D01*
X0122405Y0254173D01*
X0122115Y0254225D01*
X0121824Y0254270D01*
X0121532Y0254308D01*
X0121239Y0254338D01*
X0120945Y0254362D01*
X0120651Y0254378D01*
X0120357Y0254387D01*
X0120062Y0254389D01*
X0119767Y0254383D01*
X0119473Y0254371D01*
X0119179Y0254351D01*
X0118886Y0254324D01*
X0118593Y0254290D01*
X0118301Y0254249D01*
X0118011Y0254200D01*
X0117721Y0254145D01*
X0117434Y0254083D01*
X0117147Y0254013D01*
X0116863Y0253936D01*
X0116580Y0253853D01*
X0116300Y0253763D01*
X0116022Y0253666D01*
X0115746Y0253562D01*
X0115473Y0253451D01*
X0115203Y0253334D01*
X0114935Y0253210D01*
X0114671Y0253080D01*
X0114410Y0252943D01*
X0114153Y0252800D01*
X0113899Y0252650D01*
X0113648Y0252495D01*
X0113402Y0252333D01*
X0113160Y0252166D01*
X0112922Y0251992D01*
X0112688Y0251813D01*
X0112458Y0251628D01*
X0112234Y0251438D01*
X0112013Y0251242D01*
X0111798Y0251041D01*
X0111588Y0250834D01*
X0111383Y0250623D01*
X0111183Y0250406D01*
X0110988Y0250185D01*
X0110799Y0249959D01*
X0110616Y0249729D01*
X0110438Y0249494D01*
X0110266Y0249254D01*
X0110100Y0249011D01*
X0109940Y0248764D01*
X0109786Y0248513D01*
X0109638Y0248258D01*
X0109496Y0247999D01*
X0109361Y0247738D01*
X0109232Y0247473D01*
X0109110Y0247205D01*
X0108994Y0246934D01*
X0108885Y0246660D01*
X0108783Y0246384D01*
X0108688Y0246105D01*
X0108599Y0245824D01*
X0108517Y0245541D01*
X0108442Y0245256D01*
X0108375Y0244969D01*
X0108314Y0244681D01*
X0108260Y0244391D01*
X0108213Y0244100D01*
X0108174Y0243808D01*
X0108142Y0243516D01*
X0108116Y0243222D01*
X0108098Y0242928D01*
X0108088Y0242634D01*
X0108084Y0242339D01*
X0108088Y0242044D01*
X0108098Y0241750D01*
X0108116Y0241456D01*
X0108142Y0241162D01*
X0108174Y0240870D01*
X0108213Y0240578D01*
X0108260Y0240287D01*
X0108314Y0239997D01*
X0108375Y0239709D01*
X0108442Y0239422D01*
X0108517Y0239137D01*
X0108599Y0238854D01*
X0108688Y0238573D01*
X0108783Y0238294D01*
X0108885Y0238018D01*
X0108994Y0237744D01*
X0109110Y0237473D01*
X0109232Y0237205D01*
X0109361Y0236940D01*
X0109496Y0236679D01*
X0109638Y0236420D01*
X0109786Y0236165D01*
X0109940Y0235914D01*
X0110100Y0235667D01*
X0110266Y0235424D01*
X0110438Y0235184D01*
X0110616Y0234949D01*
X0110799Y0234719D01*
X0110988Y0234493D01*
X0111183Y0234272D01*
X0111383Y0234055D01*
X0111588Y0233844D01*
X0111798Y0233637D01*
X0112013Y0233436D01*
X0112234Y0233240D01*
X0112458Y0233050D01*
X0112688Y0232865D01*
X0112922Y0232686D01*
X0113160Y0232512D01*
X0113402Y0232345D01*
X0113648Y0232183D01*
X0113899Y0232028D01*
X0114153Y0231878D01*
X0114410Y0231735D01*
X0114671Y0231598D01*
X0114935Y0231468D01*
X0115203Y0231344D01*
X0115473Y0231227D01*
X0115746Y0231116D01*
X0116022Y0231012D01*
X0116300Y0230915D01*
X0116580Y0230825D01*
X0116863Y0230742D01*
X0117147Y0230665D01*
X0117434Y0230595D01*
X0117721Y0230533D01*
X0118011Y0230478D01*
X0118301Y0230429D01*
X0118593Y0230388D01*
X0118886Y0230354D01*
X0119179Y0230327D01*
X0119473Y0230307D01*
X0119767Y0230295D01*
X0120062Y0230289D01*
X0120357Y0230291D01*
X0120651Y0230300D01*
X0120945Y0230316D01*
X0121239Y0230340D01*
X0121532Y0230370D01*
X0121824Y0230408D01*
X0122115Y0230453D01*
X0122405Y0230505D01*
X0122694Y0230564D01*
X0122981Y0230630D01*
X0123267Y0230703D01*
X0123550Y0230783D01*
X0123832Y0230870D01*
X0124111Y0230964D01*
X0124388Y0231065D01*
X0124662Y0231172D01*
X0124934Y0231286D01*
X0125203Y0231407D01*
X0125468Y0231534D01*
X0125731Y0231668D01*
X0125990Y0231808D01*
X0126246Y0231954D01*
X0126498Y0232107D01*
X0126746Y0232265D01*
X0126990Y0232430D01*
X0127231Y0232600D01*
X0127467Y0232777D01*
X0127698Y0232959D01*
X0127925Y0233147D01*
X0128148Y0233340D01*
X0128365Y0233539D01*
X0128578Y0233742D01*
X0128786Y0233951D01*
X0128988Y0234165D01*
X0129185Y0234384D01*
X0129377Y0234608D01*
X0129563Y0234836D01*
X0129744Y0235069D01*
X0130463Y0234530D01*
X0130464Y0234529D01*
X0130270Y0234279D01*
X0130070Y0234033D01*
X0129864Y0233793D01*
X0129652Y0233558D01*
X0129434Y0233328D01*
X0129211Y0233103D01*
X0128983Y0232884D01*
X0128749Y0232670D01*
X0128510Y0232462D01*
X0128266Y0232260D01*
X0128017Y0232065D01*
X0127763Y0231875D01*
X0127505Y0231692D01*
X0127243Y0231515D01*
X0126976Y0231344D01*
X0126705Y0231180D01*
X0126430Y0231023D01*
X0126152Y0230872D01*
X0125869Y0230728D01*
X0125584Y0230592D01*
X0125295Y0230462D01*
X0125003Y0230339D01*
X0124708Y0230224D01*
X0124411Y0230116D01*
X0124110Y0230015D01*
X0123808Y0229921D01*
X0123503Y0229835D01*
X0123196Y0229756D01*
X0122888Y0229685D01*
X0122578Y0229622D01*
X0122266Y0229566D01*
X0121953Y0229517D01*
X0121639Y0229477D01*
X0121324Y0229444D01*
X0121008Y0229419D01*
X0120692Y0229401D01*
X0120376Y0229391D01*
X0120059Y0229389D01*
X0119742Y0229395D01*
X0119426Y0229408D01*
X0119110Y0229430D01*
X0118795Y0229458D01*
X0118480Y0229495D01*
X0118167Y0229539D01*
X0117854Y0229591D01*
X0117543Y0229651D01*
X0117234Y0229718D01*
X0116926Y0229793D01*
X0116620Y0229875D01*
X0116317Y0229964D01*
X0116015Y0230061D01*
X0115716Y0230166D01*
X0115420Y0230278D01*
X0115126Y0230396D01*
X0114836Y0230522D01*
X0114549Y0230655D01*
X0114264Y0230796D01*
X0113984Y0230943D01*
X0113707Y0231096D01*
X0113434Y0231257D01*
X0113165Y0231424D01*
X0112900Y0231598D01*
X0112640Y0231778D01*
X0112384Y0231964D01*
X0112133Y0232157D01*
X0111886Y0232355D01*
X0111644Y0232560D01*
X0111408Y0232770D01*
X0111176Y0232987D01*
X0110951Y0233209D01*
X0110730Y0233436D01*
X0110515Y0233668D01*
X0110306Y0233906D01*
X0110103Y0234149D01*
X0109905Y0234397D01*
X0109714Y0234649D01*
X0109529Y0234906D01*
X0109351Y0235168D01*
X0109179Y0235434D01*
X0109013Y0235703D01*
X0108854Y0235977D01*
X0108702Y0236255D01*
X0108557Y0236536D01*
X0108418Y0236821D01*
X0108287Y0237109D01*
X0108163Y0237401D01*
X0108045Y0237695D01*
X0107935Y0237992D01*
X0107833Y0238291D01*
X0107738Y0238593D01*
X0107650Y0238897D01*
X0107569Y0239204D01*
X0107496Y0239512D01*
X0107431Y0239822D01*
X0107373Y0240133D01*
X0107323Y0240446D01*
X0107281Y0240760D01*
X0107246Y0241074D01*
X0107219Y0241390D01*
X0107199Y0241706D01*
X0107188Y0242022D01*
X0107184Y0242339D01*
X0107188Y0242656D01*
X0107199Y0242972D01*
X0107219Y0243288D01*
X0107246Y0243604D01*
X0107281Y0243918D01*
X0107323Y0244232D01*
X0107373Y0244545D01*
X0107431Y0244856D01*
X0107496Y0245166D01*
X0107569Y0245474D01*
X0107650Y0245781D01*
X0107738Y0246085D01*
X0107833Y0246387D01*
X0107935Y0246686D01*
X0108045Y0246983D01*
X0108163Y0247277D01*
X0108287Y0247569D01*
X0108418Y0247857D01*
X0108557Y0248142D01*
X0108702Y0248423D01*
X0108854Y0248701D01*
X0109013Y0248975D01*
X0109179Y0249244D01*
X0109351Y0249510D01*
X0109529Y0249772D01*
X0109714Y0250029D01*
X0109905Y0250281D01*
X0110103Y0250529D01*
X0110306Y0250772D01*
X0110515Y0251010D01*
X0110730Y0251242D01*
X0110951Y0251469D01*
X0111176Y0251691D01*
X0111408Y0251908D01*
X0111644Y0252118D01*
X0111886Y0252323D01*
X0112133Y0252521D01*
X0112384Y0252714D01*
X0112640Y0252900D01*
X0112900Y0253080D01*
X0113165Y0253254D01*
X0113434Y0253421D01*
X0113707Y0253582D01*
X0113984Y0253735D01*
X0114264Y0253882D01*
X0114549Y0254023D01*
X0114836Y0254156D01*
X0115126Y0254282D01*
X0115420Y0254400D01*
X0115716Y0254512D01*
X0116015Y0254617D01*
X0116317Y0254714D01*
X0116620Y0254803D01*
X0116926Y0254885D01*
X0117234Y0254960D01*
X0117543Y0255027D01*
X0117854Y0255087D01*
X0118167Y0255139D01*
X0118480Y0255183D01*
X0118795Y0255220D01*
X0119110Y0255248D01*
X0119426Y0255270D01*
X0119742Y0255283D01*
X0120059Y0255289D01*
X0120376Y0255287D01*
X0120692Y0255277D01*
X0121008Y0255259D01*
X0121324Y0255234D01*
X0121639Y0255201D01*
X0121953Y0255161D01*
X0122266Y0255112D01*
X0122578Y0255056D01*
X0122888Y0254993D01*
X0123196Y0254922D01*
X0123503Y0254843D01*
X0123808Y0254757D01*
X0124110Y0254663D01*
X0124411Y0254562D01*
X0124708Y0254454D01*
X0125003Y0254339D01*
X0125295Y0254216D01*
X0125584Y0254086D01*
X0125869Y0253950D01*
X0126152Y0253806D01*
X0126430Y0253655D01*
X0126705Y0253498D01*
X0126976Y0253334D01*
X0127243Y0253163D01*
X0127505Y0252986D01*
X0127763Y0252803D01*
X0128017Y0252613D01*
X0128266Y0252418D01*
X0128510Y0252216D01*
X0128749Y0252008D01*
X0128983Y0251794D01*
X0129211Y0251575D01*
X0129434Y0251350D01*
X0129652Y0251120D01*
X0129864Y0250885D01*
X0130070Y0250645D01*
X0130270Y0250399D01*
X0130464Y0250149D01*
X0130389Y0250093D01*
X0130196Y0250341D01*
X0129997Y0250585D01*
X0129793Y0250823D01*
X0129583Y0251057D01*
X0129367Y0251285D01*
X0129145Y0251508D01*
X0128918Y0251726D01*
X0128686Y0251938D01*
X0128449Y0252144D01*
X0128207Y0252345D01*
X0127959Y0252539D01*
X0127708Y0252727D01*
X0127451Y0252909D01*
X0127191Y0253085D01*
X0126926Y0253254D01*
X0126657Y0253417D01*
X0126384Y0253573D01*
X0126108Y0253723D01*
X0125828Y0253865D01*
X0125544Y0254001D01*
X0125257Y0254130D01*
X0124967Y0254252D01*
X0124675Y0254366D01*
X0124379Y0254474D01*
X0124081Y0254574D01*
X0123781Y0254667D01*
X0123478Y0254752D01*
X0123174Y0254830D01*
X0122868Y0254901D01*
X0122560Y0254964D01*
X0122250Y0255020D01*
X0121940Y0255068D01*
X0121628Y0255108D01*
X0121315Y0255141D01*
X0121002Y0255166D01*
X0120688Y0255183D01*
X0120374Y0255193D01*
X0120059Y0255195D01*
X0119745Y0255189D01*
X0119431Y0255176D01*
X0119117Y0255155D01*
X0118804Y0255126D01*
X0118492Y0255090D01*
X0118181Y0255046D01*
X0117871Y0254994D01*
X0117562Y0254935D01*
X0117255Y0254868D01*
X0116949Y0254794D01*
X0116646Y0254713D01*
X0116344Y0254624D01*
X0116045Y0254527D01*
X0115748Y0254424D01*
X0115454Y0254313D01*
X0115163Y0254195D01*
X0114874Y0254070D01*
X0114589Y0253938D01*
X0114307Y0253799D01*
X0114029Y0253653D01*
X0113754Y0253500D01*
X0113483Y0253341D01*
X0113216Y0253175D01*
X0112953Y0253002D01*
X0112694Y0252824D01*
X0112440Y0252639D01*
X0112191Y0252447D01*
X0111946Y0252250D01*
X0111706Y0252047D01*
X0111471Y0251838D01*
X0111241Y0251623D01*
X0111017Y0251403D01*
X0110798Y0251178D01*
X0110585Y0250947D01*
X0110377Y0250711D01*
X0110175Y0250469D01*
X0109980Y0250224D01*
X0109790Y0249973D01*
X0109606Y0249718D01*
X0109429Y0249458D01*
X0109258Y0249194D01*
X0109094Y0248926D01*
X0108936Y0248654D01*
X0108785Y0248379D01*
X0108641Y0248099D01*
X0108503Y0247817D01*
X0108373Y0247531D01*
X0108249Y0247242D01*
X0108133Y0246949D01*
X0108024Y0246655D01*
X0107922Y0246357D01*
X0107828Y0246058D01*
X0107740Y0245755D01*
X0107660Y0245451D01*
X0107588Y0245146D01*
X0107523Y0244838D01*
X0107466Y0244529D01*
X0107416Y0244218D01*
X0107374Y0243907D01*
X0107339Y0243594D01*
X0107313Y0243281D01*
X0107293Y0242967D01*
X0107282Y0242653D01*
X0107278Y0242339D01*
X0107282Y0242025D01*
X0107293Y0241711D01*
X0107313Y0241397D01*
X0107339Y0241084D01*
X0107374Y0240771D01*
X0107416Y0240460D01*
X0107466Y0240149D01*
X0107523Y0239840D01*
X0107588Y0239532D01*
X0107660Y0239227D01*
X0107740Y0238923D01*
X0107828Y0238620D01*
X0107922Y0238321D01*
X0108024Y0238023D01*
X0108133Y0237729D01*
X0108249Y0237436D01*
X0108373Y0237147D01*
X0108503Y0236861D01*
X0108641Y0236579D01*
X0108785Y0236299D01*
X0108936Y0236024D01*
X0109094Y0235752D01*
X0109258Y0235484D01*
X0109429Y0235220D01*
X0109606Y0234960D01*
X0109790Y0234705D01*
X0109980Y0234454D01*
X0110175Y0234209D01*
X0110377Y0233967D01*
X0110585Y0233731D01*
X0110798Y0233500D01*
X0111017Y0233275D01*
X0111241Y0233055D01*
X0111471Y0232840D01*
X0111706Y0232631D01*
X0111946Y0232428D01*
X0112191Y0232231D01*
X0112440Y0232039D01*
X0112694Y0231854D01*
X0112953Y0231676D01*
X0113216Y0231503D01*
X0113483Y0231337D01*
X0113754Y0231178D01*
X0114029Y0231025D01*
X0114307Y0230879D01*
X0114589Y0230740D01*
X0114874Y0230608D01*
X0115163Y0230483D01*
X0115454Y0230365D01*
X0115748Y0230254D01*
X0116045Y0230151D01*
X0116344Y0230054D01*
X0116646Y0229965D01*
X0116949Y0229884D01*
X0117255Y0229810D01*
X0117562Y0229743D01*
X0117871Y0229684D01*
X0118181Y0229632D01*
X0118492Y0229588D01*
X0118804Y0229552D01*
X0119117Y0229523D01*
X0119431Y0229502D01*
X0119745Y0229489D01*
X0120059Y0229483D01*
X0120374Y0229485D01*
X0120688Y0229495D01*
X0121002Y0229512D01*
X0121315Y0229537D01*
X0121628Y0229570D01*
X0121940Y0229610D01*
X0122250Y0229658D01*
X0122560Y0229714D01*
X0122868Y0229777D01*
X0123174Y0229848D01*
X0123478Y0229926D01*
X0123781Y0230011D01*
X0124081Y0230104D01*
X0124379Y0230204D01*
X0124675Y0230312D01*
X0124967Y0230426D01*
X0125257Y0230548D01*
X0125544Y0230677D01*
X0125828Y0230813D01*
X0126108Y0230955D01*
X0126384Y0231105D01*
X0126657Y0231261D01*
X0126926Y0231424D01*
X0127191Y0231593D01*
X0127451Y0231769D01*
X0127708Y0231951D01*
X0127959Y0232139D01*
X0128207Y0232333D01*
X0128449Y0232534D01*
X0128686Y0232740D01*
X0128918Y0232952D01*
X0129145Y0233170D01*
X0129367Y0233393D01*
X0129583Y0233621D01*
X0129793Y0233855D01*
X0129997Y0234093D01*
X0130196Y0234337D01*
X0130389Y0234585D01*
X0130314Y0234642D01*
X0130122Y0234395D01*
X0129925Y0234153D01*
X0129722Y0233916D01*
X0129513Y0233685D01*
X0129299Y0233458D01*
X0129079Y0233236D01*
X0128854Y0233020D01*
X0128623Y0232810D01*
X0128388Y0232605D01*
X0128147Y0232406D01*
X0127902Y0232213D01*
X0127652Y0232027D01*
X0127398Y0231846D01*
X0127139Y0231671D01*
X0126876Y0231503D01*
X0126609Y0231342D01*
X0126338Y0231187D01*
X0126064Y0231038D01*
X0125786Y0230897D01*
X0125504Y0230762D01*
X0125220Y0230634D01*
X0124932Y0230513D01*
X0124641Y0230399D01*
X0124348Y0230293D01*
X0124052Y0230193D01*
X0123754Y0230101D01*
X0123454Y0230016D01*
X0123151Y0229939D01*
X0122847Y0229869D01*
X0122542Y0229806D01*
X0122235Y0229751D01*
X0121926Y0229703D01*
X0121617Y0229663D01*
X0121306Y0229631D01*
X0120995Y0229606D01*
X0120684Y0229589D01*
X0120372Y0229579D01*
X0120060Y0229577D01*
X0119748Y0229583D01*
X0119436Y0229596D01*
X0119125Y0229617D01*
X0118814Y0229645D01*
X0118504Y0229682D01*
X0118195Y0229725D01*
X0117887Y0229776D01*
X0117580Y0229835D01*
X0117276Y0229901D01*
X0116972Y0229975D01*
X0116671Y0230056D01*
X0116372Y0230144D01*
X0116075Y0230240D01*
X0115780Y0230343D01*
X0115488Y0230453D01*
X0115199Y0230570D01*
X0114912Y0230694D01*
X0114629Y0230825D01*
X0114349Y0230963D01*
X0114073Y0231108D01*
X0113800Y0231260D01*
X0113531Y0231418D01*
X0113266Y0231583D01*
X0113005Y0231754D01*
X0112749Y0231931D01*
X0112496Y0232115D01*
X0112249Y0232305D01*
X0112006Y0232500D01*
X0111767Y0232702D01*
X0111534Y0232910D01*
X0111306Y0233123D01*
X0111084Y0233341D01*
X0110866Y0233565D01*
X0110655Y0233794D01*
X0110449Y0234029D01*
X0110248Y0234268D01*
X0110054Y0234512D01*
X0109866Y0234761D01*
X0109683Y0235014D01*
X0109507Y0235272D01*
X0109338Y0235534D01*
X0109175Y0235800D01*
X0109018Y0236070D01*
X0108868Y0236344D01*
X0108725Y0236621D01*
X0108588Y0236901D01*
X0108459Y0237185D01*
X0108336Y0237472D01*
X0108221Y0237762D01*
X0108113Y0238055D01*
X0108011Y0238350D01*
X0107917Y0238648D01*
X0107831Y0238948D01*
X0107752Y0239249D01*
X0107680Y0239553D01*
X0107615Y0239858D01*
X0107558Y0240165D01*
X0107509Y0240473D01*
X0107467Y0240783D01*
X0107433Y0241093D01*
X0107406Y0241404D01*
X0107387Y0241715D01*
X0107376Y0242027D01*
X0107372Y0242339D01*
X0107376Y0242651D01*
X0107387Y0242963D01*
X0107406Y0243274D01*
X0107433Y0243585D01*
X0107467Y0243895D01*
X0107509Y0244205D01*
X0107558Y0244513D01*
X0107615Y0244820D01*
X0107680Y0245125D01*
X0107752Y0245429D01*
X0107831Y0245730D01*
X0107917Y0246030D01*
X0108011Y0246328D01*
X0108113Y0246623D01*
X0108221Y0246916D01*
X0108336Y0247206D01*
X0108459Y0247493D01*
X0108588Y0247777D01*
X0108725Y0248057D01*
X0108868Y0248334D01*
X0109018Y0248608D01*
X0109175Y0248878D01*
X0109338Y0249144D01*
X0109507Y0249406D01*
X0109683Y0249664D01*
X0109866Y0249917D01*
X0110054Y0250166D01*
X0110248Y0250410D01*
X0110449Y0250649D01*
X0110655Y0250884D01*
X0110866Y0251113D01*
X0111084Y0251337D01*
X0111306Y0251555D01*
X0111534Y0251768D01*
X0111767Y0251976D01*
X0112006Y0252178D01*
X0112249Y0252373D01*
X0112496Y0252563D01*
X0112749Y0252747D01*
X0113005Y0252924D01*
X0113266Y0253095D01*
X0113531Y0253260D01*
X0113800Y0253418D01*
X0114073Y0253570D01*
X0114349Y0253715D01*
X0114629Y0253853D01*
X0114912Y0253984D01*
X0115199Y0254108D01*
X0115488Y0254225D01*
X0115780Y0254335D01*
X0116075Y0254438D01*
X0116372Y0254534D01*
X0116671Y0254622D01*
X0116972Y0254703D01*
X0117276Y0254777D01*
X0117580Y0254843D01*
X0117887Y0254902D01*
X0118195Y0254953D01*
X0118504Y0254996D01*
X0118814Y0255033D01*
X0119125Y0255061D01*
X0119436Y0255082D01*
X0119748Y0255095D01*
X0120060Y0255101D01*
X0120372Y0255099D01*
X0120684Y0255089D01*
X0120995Y0255072D01*
X0121306Y0255047D01*
X0121617Y0255015D01*
X0121926Y0254975D01*
X0122235Y0254927D01*
X0122542Y0254872D01*
X0122847Y0254809D01*
X0123151Y0254739D01*
X0123454Y0254662D01*
X0123754Y0254577D01*
X0124052Y0254485D01*
X0124348Y0254385D01*
X0124641Y0254279D01*
X0124932Y0254165D01*
X0125220Y0254044D01*
X0125504Y0253916D01*
X0125786Y0253781D01*
X0126064Y0253640D01*
X0126338Y0253491D01*
X0126609Y0253336D01*
X0126876Y0253175D01*
X0127139Y0253007D01*
X0127398Y0252832D01*
X0127652Y0252651D01*
X0127902Y0252465D01*
X0128147Y0252272D01*
X0128388Y0252073D01*
X0128623Y0251868D01*
X0128854Y0251658D01*
X0129079Y0251442D01*
X0129299Y0251220D01*
X0129513Y0250993D01*
X0129722Y0250762D01*
X0129925Y0250525D01*
X0130122Y0250283D01*
X0130314Y0250036D01*
X0130238Y0249980D01*
X0130048Y0250225D01*
X0129853Y0250465D01*
X0129651Y0250700D01*
X0129444Y0250930D01*
X0129231Y0251155D01*
X0129013Y0251375D01*
X0128789Y0251589D01*
X0128560Y0251798D01*
X0128327Y0252001D01*
X0128088Y0252199D01*
X0127845Y0252390D01*
X0127596Y0252576D01*
X0127344Y0252755D01*
X0127087Y0252928D01*
X0126826Y0253095D01*
X0126561Y0253256D01*
X0126292Y0253409D01*
X0126020Y0253557D01*
X0125744Y0253697D01*
X0125464Y0253831D01*
X0125182Y0253958D01*
X0124896Y0254078D01*
X0124608Y0254191D01*
X0124317Y0254297D01*
X0124023Y0254395D01*
X0123727Y0254487D01*
X0123429Y0254571D01*
X0123129Y0254648D01*
X0122827Y0254717D01*
X0122524Y0254780D01*
X0122219Y0254834D01*
X0121913Y0254882D01*
X0121605Y0254921D01*
X0121297Y0254953D01*
X0120989Y0254978D01*
X0120679Y0254995D01*
X0120370Y0255005D01*
X0120060Y0255007D01*
X0119750Y0255001D01*
X0119441Y0254988D01*
X0119132Y0254967D01*
X0118823Y0254939D01*
X0118516Y0254903D01*
X0118209Y0254860D01*
X0117903Y0254809D01*
X0117599Y0254751D01*
X0117296Y0254685D01*
X0116995Y0254612D01*
X0116696Y0254532D01*
X0116399Y0254444D01*
X0116104Y0254349D01*
X0115812Y0254247D01*
X0115522Y0254138D01*
X0115235Y0254021D01*
X0114951Y0253898D01*
X0114670Y0253768D01*
X0114392Y0253631D01*
X0114118Y0253487D01*
X0113847Y0253337D01*
X0113580Y0253180D01*
X0113317Y0253016D01*
X0113058Y0252846D01*
X0112803Y0252670D01*
X0112552Y0252488D01*
X0112307Y0252299D01*
X0112065Y0252105D01*
X0111829Y0251905D01*
X0111598Y0251699D01*
X0111371Y0251487D01*
X0111150Y0251270D01*
X0110935Y0251048D01*
X0110724Y0250821D01*
X0110520Y0250588D01*
X0110321Y0250350D01*
X0110128Y0250108D01*
X0109941Y0249861D01*
X0109760Y0249610D01*
X0109586Y0249354D01*
X0109417Y0249094D01*
X0109255Y0248830D01*
X0109100Y0248562D01*
X0108951Y0248290D01*
X0108809Y0248015D01*
X0108673Y0247736D01*
X0108545Y0247455D01*
X0108423Y0247170D01*
X0108309Y0246882D01*
X0108201Y0246591D01*
X0108101Y0246298D01*
X0108007Y0246003D01*
X0107921Y0245705D01*
X0107843Y0245406D01*
X0107772Y0245104D01*
X0107708Y0244801D01*
X0107651Y0244497D01*
X0107602Y0244191D01*
X0107561Y0243884D01*
X0107527Y0243576D01*
X0107500Y0243267D01*
X0107481Y0242958D01*
X0107470Y0242649D01*
X0107466Y0242339D01*
X0107470Y0242029D01*
X0107481Y0241720D01*
X0107500Y0241411D01*
X0107527Y0241102D01*
X0107561Y0240794D01*
X0107602Y0240487D01*
X0107651Y0240181D01*
X0107708Y0239877D01*
X0107772Y0239574D01*
X0107843Y0239272D01*
X0107921Y0238973D01*
X0108007Y0238675D01*
X0108101Y0238380D01*
X0108201Y0238087D01*
X0108309Y0237796D01*
X0108423Y0237508D01*
X0108545Y0237223D01*
X0108673Y0236942D01*
X0108809Y0236663D01*
X0108951Y0236388D01*
X0109100Y0236116D01*
X0109255Y0235848D01*
X0109417Y0235584D01*
X0109586Y0235324D01*
X0109760Y0235068D01*
X0109941Y0234817D01*
X0110128Y0234570D01*
X0110321Y0234328D01*
X0110520Y0234090D01*
X0110724Y0233857D01*
X0110935Y0233630D01*
X0111150Y0233408D01*
X0111371Y0233191D01*
X0111598Y0232979D01*
X0111829Y0232773D01*
X0112065Y0232573D01*
X0112307Y0232379D01*
X0112552Y0232190D01*
X0112803Y0232008D01*
X0113058Y0231832D01*
X0113317Y0231662D01*
X0113580Y0231498D01*
X0113847Y0231341D01*
X0114118Y0231191D01*
X0114392Y0231047D01*
X0114670Y0230910D01*
X0114951Y0230780D01*
X0115235Y0230657D01*
X0115522Y0230540D01*
X0115812Y0230431D01*
X0116104Y0230329D01*
X0116399Y0230234D01*
X0116696Y0230146D01*
X0116995Y0230066D01*
X0117296Y0229993D01*
X0117599Y0229927D01*
X0117903Y0229869D01*
X0118209Y0229818D01*
X0118516Y0229775D01*
X0118823Y0229739D01*
X0119132Y0229711D01*
X0119441Y0229690D01*
X0119750Y0229677D01*
X0120060Y0229671D01*
X0120370Y0229673D01*
X0120679Y0229683D01*
X0120989Y0229700D01*
X0121297Y0229725D01*
X0121605Y0229757D01*
X0121913Y0229796D01*
X0122219Y0229844D01*
X0122524Y0229898D01*
X0122827Y0229961D01*
X0123129Y0230030D01*
X0123429Y0230107D01*
X0123727Y0230191D01*
X0124023Y0230283D01*
X0124317Y0230381D01*
X0124608Y0230487D01*
X0124896Y0230600D01*
X0125182Y0230720D01*
X0125464Y0230847D01*
X0125744Y0230981D01*
X0126020Y0231121D01*
X0126292Y0231269D01*
X0126561Y0231422D01*
X0126826Y0231583D01*
X0127087Y0231750D01*
X0127344Y0231923D01*
X0127596Y0232102D01*
X0127845Y0232288D01*
X0128088Y0232479D01*
X0128327Y0232677D01*
X0128560Y0232880D01*
X0128789Y0233089D01*
X0129013Y0233303D01*
X0129231Y0233523D01*
X0129444Y0233748D01*
X0129651Y0233978D01*
X0129853Y0234213D01*
X0130048Y0234453D01*
X0130238Y0234698D01*
X0130163Y0234755D01*
X0129975Y0234512D01*
X0129780Y0234273D01*
X0129580Y0234040D01*
X0129375Y0233812D01*
X0129163Y0233588D01*
X0128947Y0233370D01*
X0128725Y0233157D01*
X0128498Y0232950D01*
X0128266Y0232748D01*
X0128029Y0232552D01*
X0127787Y0232362D01*
X0127541Y0232178D01*
X0127290Y0232000D01*
X0127035Y0231828D01*
X0126776Y0231663D01*
X0126513Y0231503D01*
X0126246Y0231351D01*
X0125976Y0231204D01*
X0125702Y0231065D01*
X0125425Y0230932D01*
X0125144Y0230806D01*
X0124861Y0230687D01*
X0124574Y0230575D01*
X0124285Y0230470D01*
X0123994Y0230372D01*
X0123700Y0230281D01*
X0123404Y0230198D01*
X0123107Y0230121D01*
X0122807Y0230052D01*
X0122506Y0229991D01*
X0122203Y0229936D01*
X0121899Y0229890D01*
X0121594Y0229850D01*
X0121289Y0229818D01*
X0120982Y0229794D01*
X0120675Y0229777D01*
X0120368Y0229767D01*
X0120060Y0229765D01*
X0119753Y0229771D01*
X0119446Y0229784D01*
X0119139Y0229804D01*
X0118833Y0229833D01*
X0118527Y0229868D01*
X0118223Y0229911D01*
X0117920Y0229962D01*
X0117618Y0230019D01*
X0117317Y0230085D01*
X0117018Y0230157D01*
X0116722Y0230237D01*
X0116427Y0230324D01*
X0116134Y0230418D01*
X0115844Y0230520D01*
X0115556Y0230628D01*
X0115271Y0230743D01*
X0114989Y0230866D01*
X0114710Y0230995D01*
X0114434Y0231131D01*
X0114162Y0231274D01*
X0113893Y0231423D01*
X0113628Y0231579D01*
X0113367Y0231741D01*
X0113110Y0231910D01*
X0112857Y0232085D01*
X0112609Y0232266D01*
X0112365Y0232453D01*
X0112125Y0232646D01*
X0111891Y0232844D01*
X0111661Y0233049D01*
X0111436Y0233259D01*
X0111217Y0233474D01*
X0111003Y0233695D01*
X0110794Y0233920D01*
X0110591Y0234151D01*
X0110394Y0234387D01*
X0110202Y0234628D01*
X0110017Y0234873D01*
X0109837Y0235122D01*
X0109664Y0235376D01*
X0109497Y0235634D01*
X0109336Y0235896D01*
X0109182Y0236162D01*
X0109034Y0236432D01*
X0108893Y0236705D01*
X0108758Y0236982D01*
X0108631Y0237261D01*
X0108510Y0237544D01*
X0108396Y0237830D01*
X0108290Y0238118D01*
X0108190Y0238409D01*
X0108097Y0238702D01*
X0108012Y0238998D01*
X0107934Y0239295D01*
X0107863Y0239594D01*
X0107800Y0239895D01*
X0107744Y0240197D01*
X0107695Y0240501D01*
X0107654Y0240806D01*
X0107620Y0241111D01*
X0107594Y0241417D01*
X0107575Y0241724D01*
X0107564Y0242032D01*
X0107560Y0242339D01*
X0107564Y0242646D01*
X0107575Y0242954D01*
X0107594Y0243261D01*
X0107620Y0243567D01*
X0107654Y0243872D01*
X0107695Y0244177D01*
X0107744Y0244481D01*
X0107800Y0244783D01*
X0107863Y0245084D01*
X0107934Y0245383D01*
X0108012Y0245680D01*
X0108097Y0245976D01*
X0108190Y0246269D01*
X0108290Y0246560D01*
X0108396Y0246848D01*
X0108510Y0247134D01*
X0108631Y0247417D01*
X0108758Y0247696D01*
X0108893Y0247973D01*
X0109034Y0248246D01*
X0109182Y0248516D01*
X0109336Y0248782D01*
X0109497Y0249044D01*
X0109664Y0249302D01*
X0109837Y0249556D01*
X0110017Y0249805D01*
X0110202Y0250050D01*
X0110394Y0250291D01*
X0110591Y0250527D01*
X0110794Y0250758D01*
X0111003Y0250983D01*
X0111217Y0251204D01*
X0111436Y0251419D01*
X0111661Y0251629D01*
X0111891Y0251834D01*
X0112125Y0252032D01*
X0112365Y0252225D01*
X0112609Y0252412D01*
X0112857Y0252593D01*
X0113110Y0252768D01*
X0113367Y0252937D01*
X0113628Y0253099D01*
X0113893Y0253255D01*
X0114162Y0253404D01*
X0114434Y0253547D01*
X0114710Y0253683D01*
X0114989Y0253812D01*
X0115271Y0253935D01*
X0115556Y0254050D01*
X0115844Y0254158D01*
X0116134Y0254260D01*
X0116427Y0254354D01*
X0116722Y0254441D01*
X0117018Y0254521D01*
X0117317Y0254593D01*
X0117618Y0254659D01*
X0117920Y0254716D01*
X0118223Y0254767D01*
X0118527Y0254810D01*
X0118833Y0254845D01*
X0119139Y0254874D01*
X0119446Y0254894D01*
X0119753Y0254907D01*
X0120060Y0254913D01*
X0120368Y0254911D01*
X0120675Y0254901D01*
X0120982Y0254884D01*
X0121289Y0254860D01*
X0121594Y0254828D01*
X0121899Y0254788D01*
X0122203Y0254742D01*
X0122506Y0254687D01*
X0122807Y0254626D01*
X0123107Y0254557D01*
X0123404Y0254480D01*
X0123700Y0254397D01*
X0123994Y0254306D01*
X0124285Y0254208D01*
X0124574Y0254103D01*
X0124861Y0253991D01*
X0125144Y0253872D01*
X0125425Y0253746D01*
X0125702Y0253613D01*
X0125976Y0253474D01*
X0126246Y0253327D01*
X0126513Y0253175D01*
X0126776Y0253015D01*
X0127035Y0252850D01*
X0127290Y0252678D01*
X0127541Y0252500D01*
X0127787Y0252316D01*
X0128029Y0252126D01*
X0128266Y0251930D01*
X0128498Y0251728D01*
X0128725Y0251521D01*
X0128947Y0251308D01*
X0129163Y0251090D01*
X0129375Y0250866D01*
X0129580Y0250638D01*
X0129780Y0250405D01*
X0129975Y0250166D01*
X0130163Y0249923D01*
X0130088Y0249867D01*
X0129901Y0250108D01*
X0129708Y0250345D01*
X0129509Y0250576D01*
X0129305Y0250803D01*
X0129096Y0251025D01*
X0128881Y0251241D01*
X0128660Y0251452D01*
X0128435Y0251658D01*
X0128205Y0251858D01*
X0127969Y0252053D01*
X0127730Y0252241D01*
X0127485Y0252424D01*
X0127236Y0252601D01*
X0126983Y0252771D01*
X0126726Y0252936D01*
X0126465Y0253094D01*
X0126200Y0253245D01*
X0125932Y0253390D01*
X0125660Y0253529D01*
X0125385Y0253661D01*
X0125106Y0253786D01*
X0124825Y0253904D01*
X0124541Y0254015D01*
X0124254Y0254119D01*
X0123965Y0254217D01*
X0123673Y0254307D01*
X0123380Y0254390D01*
X0123084Y0254465D01*
X0122787Y0254534D01*
X0122488Y0254595D01*
X0122187Y0254649D01*
X0121886Y0254695D01*
X0121583Y0254735D01*
X0121280Y0254766D01*
X0120975Y0254791D01*
X0120671Y0254807D01*
X0120366Y0254817D01*
X0120061Y0254819D01*
X0119756Y0254813D01*
X0119451Y0254800D01*
X0119146Y0254780D01*
X0118842Y0254752D01*
X0118539Y0254717D01*
X0118237Y0254674D01*
X0117936Y0254624D01*
X0117636Y0254567D01*
X0117338Y0254502D01*
X0117042Y0254430D01*
X0116747Y0254351D01*
X0116454Y0254264D01*
X0116164Y0254171D01*
X0115876Y0254070D01*
X0115590Y0253962D01*
X0115307Y0253848D01*
X0115027Y0253726D01*
X0114750Y0253598D01*
X0114477Y0253463D01*
X0114207Y0253322D01*
X0113940Y0253173D01*
X0113677Y0253019D01*
X0113418Y0252858D01*
X0113162Y0252690D01*
X0112911Y0252517D01*
X0112665Y0252337D01*
X0112423Y0252151D01*
X0112185Y0251960D01*
X0111952Y0251763D01*
X0111724Y0251560D01*
X0111501Y0251351D01*
X0111283Y0251138D01*
X0111071Y0250919D01*
X0110864Y0250695D01*
X0110662Y0250465D01*
X0110466Y0250231D01*
X0110276Y0249993D01*
X0110092Y0249749D01*
X0109914Y0249502D01*
X0109742Y0249250D01*
X0109576Y0248993D01*
X0109417Y0248733D01*
X0109263Y0248469D01*
X0109117Y0248202D01*
X0108977Y0247931D01*
X0108843Y0247656D01*
X0108717Y0247379D01*
X0108597Y0247098D01*
X0108484Y0246814D01*
X0108378Y0246528D01*
X0108279Y0246240D01*
X0108187Y0245949D01*
X0108103Y0245655D01*
X0108025Y0245360D01*
X0107955Y0245063D01*
X0107892Y0244765D01*
X0107836Y0244465D01*
X0107788Y0244163D01*
X0107747Y0243861D01*
X0107714Y0243558D01*
X0107688Y0243254D01*
X0107669Y0242949D01*
X0107658Y0242644D01*
X0107654Y0242339D01*
X0107658Y0242034D01*
X0107669Y0241729D01*
X0107688Y0241424D01*
X0107714Y0241120D01*
X0107747Y0240817D01*
X0107788Y0240515D01*
X0107836Y0240213D01*
X0107892Y0239913D01*
X0107955Y0239615D01*
X0108025Y0239318D01*
X0108103Y0239023D01*
X0108187Y0238729D01*
X0108279Y0238438D01*
X0108378Y0238150D01*
X0108484Y0237864D01*
X0108597Y0237580D01*
X0108717Y0237299D01*
X0108843Y0237022D01*
X0108977Y0236747D01*
X0109117Y0236476D01*
X0109263Y0236209D01*
X0109417Y0235945D01*
X0109576Y0235685D01*
X0109742Y0235428D01*
X0109914Y0235176D01*
X0110092Y0234929D01*
X0110276Y0234685D01*
X0110466Y0234447D01*
X0110662Y0234213D01*
X0110864Y0233983D01*
X0111071Y0233759D01*
X0111283Y0233540D01*
X0111501Y0233327D01*
X0111724Y0233118D01*
X0111952Y0232915D01*
X0112185Y0232718D01*
X0112423Y0232527D01*
X0112665Y0232341D01*
X0112911Y0232161D01*
X0113162Y0231988D01*
X0113418Y0231820D01*
X0113677Y0231659D01*
X0113940Y0231505D01*
X0114207Y0231356D01*
X0114477Y0231215D01*
X0114750Y0231080D01*
X0115027Y0230952D01*
X0115307Y0230830D01*
X0115590Y0230716D01*
X0115876Y0230608D01*
X0116164Y0230507D01*
X0116454Y0230414D01*
X0116747Y0230327D01*
X0117042Y0230248D01*
X0117338Y0230176D01*
X0117636Y0230111D01*
X0117936Y0230054D01*
X0118237Y0230004D01*
X0118539Y0229961D01*
X0118842Y0229926D01*
X0119146Y0229898D01*
X0119451Y0229878D01*
X0119756Y0229865D01*
X0120061Y0229859D01*
X0120366Y0229861D01*
X0120671Y0229871D01*
X0120975Y0229887D01*
X0121280Y0229912D01*
X0121583Y0229943D01*
X0121886Y0229983D01*
X0122187Y0230029D01*
X0122488Y0230083D01*
X0122787Y0230144D01*
X0123084Y0230213D01*
X0123380Y0230288D01*
X0123673Y0230371D01*
X0123965Y0230461D01*
X0124254Y0230559D01*
X0124541Y0230663D01*
X0124825Y0230774D01*
X0125106Y0230892D01*
X0125385Y0231017D01*
X0125660Y0231149D01*
X0125932Y0231288D01*
X0126200Y0231433D01*
X0126465Y0231584D01*
X0126726Y0231742D01*
X0126983Y0231907D01*
X0127236Y0232077D01*
X0127485Y0232254D01*
X0127730Y0232437D01*
X0127969Y0232625D01*
X0128205Y0232820D01*
X0128435Y0233020D01*
X0128660Y0233226D01*
X0128881Y0233437D01*
X0129096Y0233653D01*
X0129305Y0233875D01*
X0129509Y0234102D01*
X0129708Y0234333D01*
X0129901Y0234570D01*
X0130088Y0234811D01*
X0130013Y0234867D01*
X0129827Y0234628D01*
X0129636Y0234393D01*
X0129439Y0234164D01*
X0129236Y0233939D01*
X0129028Y0233718D01*
X0128814Y0233504D01*
X0128596Y0233294D01*
X0128372Y0233090D01*
X0128144Y0232891D01*
X0127910Y0232698D01*
X0127672Y0232511D01*
X0127430Y0232330D01*
X0127183Y0232154D01*
X0126932Y0231985D01*
X0126676Y0231822D01*
X0126417Y0231665D01*
X0126154Y0231515D01*
X0125888Y0231371D01*
X0125618Y0231233D01*
X0125345Y0231102D01*
X0125069Y0230978D01*
X0124789Y0230861D01*
X0124507Y0230751D01*
X0124223Y0230647D01*
X0123936Y0230551D01*
X0123646Y0230461D01*
X0123355Y0230379D01*
X0123062Y0230304D01*
X0122766Y0230236D01*
X0122470Y0230175D01*
X0122172Y0230122D01*
X0121872Y0230076D01*
X0121572Y0230037D01*
X0121271Y0230005D01*
X0120969Y0229981D01*
X0120666Y0229964D01*
X0120364Y0229955D01*
X0120061Y0229953D01*
X0119758Y0229959D01*
X0119456Y0229972D01*
X0119153Y0229992D01*
X0118852Y0230020D01*
X0118551Y0230055D01*
X0118251Y0230097D01*
X0117952Y0230147D01*
X0117655Y0230204D01*
X0117359Y0230268D01*
X0117065Y0230339D01*
X0116772Y0230418D01*
X0116482Y0230504D01*
X0116193Y0230597D01*
X0115908Y0230696D01*
X0115624Y0230803D01*
X0115344Y0230917D01*
X0115066Y0231037D01*
X0114791Y0231165D01*
X0114519Y0231299D01*
X0114251Y0231439D01*
X0113986Y0231586D01*
X0113725Y0231740D01*
X0113468Y0231900D01*
X0113215Y0232066D01*
X0112966Y0232238D01*
X0112721Y0232416D01*
X0112480Y0232601D01*
X0112245Y0232791D01*
X0112014Y0232986D01*
X0111787Y0233188D01*
X0111566Y0233394D01*
X0111350Y0233607D01*
X0111139Y0233824D01*
X0110934Y0234046D01*
X0110734Y0234274D01*
X0110539Y0234506D01*
X0110351Y0234743D01*
X0110168Y0234985D01*
X0109991Y0235230D01*
X0109820Y0235481D01*
X0109656Y0235735D01*
X0109497Y0235993D01*
X0109345Y0236255D01*
X0109200Y0236520D01*
X0109061Y0236789D01*
X0108928Y0237062D01*
X0108803Y0237337D01*
X0108684Y0237616D01*
X0108572Y0237897D01*
X0108467Y0238181D01*
X0108368Y0238468D01*
X0108277Y0238757D01*
X0108193Y0239048D01*
X0108116Y0239341D01*
X0108047Y0239635D01*
X0107984Y0239932D01*
X0107929Y0240229D01*
X0107881Y0240528D01*
X0107840Y0240828D01*
X0107807Y0241130D01*
X0107781Y0241431D01*
X0107763Y0241734D01*
X0107752Y0242036D01*
X0107748Y0242339D01*
X0107752Y0242642D01*
X0107763Y0242944D01*
X0107781Y0243247D01*
X0107807Y0243548D01*
X0107840Y0243850D01*
X0107881Y0244150D01*
X0107929Y0244449D01*
X0107984Y0244746D01*
X0108047Y0245043D01*
X0108116Y0245337D01*
X0108193Y0245630D01*
X0108277Y0245921D01*
X0108368Y0246210D01*
X0108467Y0246497D01*
X0108572Y0246781D01*
X0108684Y0247062D01*
X0108803Y0247341D01*
X0108928Y0247616D01*
X0109061Y0247889D01*
X0109200Y0248158D01*
X0109345Y0248423D01*
X0109497Y0248685D01*
X0109656Y0248943D01*
X0109820Y0249197D01*
X0109991Y0249448D01*
X0110168Y0249693D01*
X0110351Y0249935D01*
X0110539Y0250172D01*
X0110734Y0250404D01*
X0110934Y0250632D01*
X0111139Y0250854D01*
X0111350Y0251071D01*
X0111566Y0251284D01*
X0111787Y0251490D01*
X0112014Y0251692D01*
X0112245Y0251887D01*
X0112480Y0252077D01*
X0112721Y0252262D01*
X0112966Y0252440D01*
X0113215Y0252612D01*
X0113468Y0252778D01*
X0113725Y0252938D01*
X0113986Y0253092D01*
X0114251Y0253239D01*
X0114519Y0253379D01*
X0114791Y0253513D01*
X0115066Y0253641D01*
X0115344Y0253761D01*
X0115624Y0253875D01*
X0115908Y0253982D01*
X0116193Y0254081D01*
X0116482Y0254174D01*
X0116772Y0254260D01*
X0117065Y0254339D01*
X0117359Y0254410D01*
X0117655Y0254474D01*
X0117952Y0254531D01*
X0118251Y0254581D01*
X0118551Y0254623D01*
X0118852Y0254658D01*
X0119153Y0254686D01*
X0119456Y0254706D01*
X0119758Y0254719D01*
X0120061Y0254725D01*
X0120364Y0254723D01*
X0120666Y0254714D01*
X0120969Y0254697D01*
X0121271Y0254673D01*
X0121572Y0254641D01*
X0121872Y0254602D01*
X0122172Y0254556D01*
X0122470Y0254503D01*
X0122766Y0254442D01*
X0123062Y0254374D01*
X0123355Y0254299D01*
X0123646Y0254217D01*
X0123936Y0254127D01*
X0124223Y0254031D01*
X0124507Y0253927D01*
X0124789Y0253817D01*
X0125069Y0253700D01*
X0125345Y0253576D01*
X0125618Y0253445D01*
X0125888Y0253307D01*
X0126154Y0253163D01*
X0126417Y0253013D01*
X0126676Y0252856D01*
X0126932Y0252693D01*
X0127183Y0252524D01*
X0127430Y0252348D01*
X0127672Y0252167D01*
X0127910Y0251980D01*
X0128144Y0251787D01*
X0128372Y0251588D01*
X0128596Y0251384D01*
X0128814Y0251174D01*
X0129028Y0250960D01*
X0129236Y0250739D01*
X0129439Y0250514D01*
X0129636Y0250285D01*
X0129827Y0250050D01*
X0130013Y0249811D01*
X0129938Y0249754D01*
X0129753Y0249992D01*
X0129563Y0250224D01*
X0129368Y0250453D01*
X0129167Y0250676D01*
X0128960Y0250894D01*
X0128748Y0251108D01*
X0128531Y0251316D01*
X0128309Y0251518D01*
X0128082Y0251715D01*
X0127851Y0251907D01*
X0127615Y0252093D01*
X0127374Y0252273D01*
X0127129Y0252447D01*
X0126880Y0252615D01*
X0126626Y0252777D01*
X0126369Y0252932D01*
X0126108Y0253081D01*
X0125844Y0253224D01*
X0125576Y0253361D01*
X0125305Y0253490D01*
X0125031Y0253613D01*
X0124754Y0253730D01*
X0124474Y0253839D01*
X0124191Y0253942D01*
X0123907Y0254038D01*
X0123619Y0254126D01*
X0123330Y0254208D01*
X0123039Y0254283D01*
X0122746Y0254350D01*
X0122452Y0254411D01*
X0122156Y0254464D01*
X0121859Y0254509D01*
X0121561Y0254548D01*
X0121262Y0254579D01*
X0120962Y0254603D01*
X0120662Y0254620D01*
X0120362Y0254629D01*
X0120061Y0254631D01*
X0119761Y0254625D01*
X0119460Y0254613D01*
X0119161Y0254592D01*
X0118861Y0254565D01*
X0118563Y0254530D01*
X0118265Y0254488D01*
X0117969Y0254439D01*
X0117674Y0254382D01*
X0117380Y0254318D01*
X0117088Y0254248D01*
X0116798Y0254170D01*
X0116509Y0254084D01*
X0116223Y0253992D01*
X0115939Y0253893D01*
X0115658Y0253787D01*
X0115380Y0253674D01*
X0115104Y0253555D01*
X0114831Y0253428D01*
X0114562Y0253295D01*
X0114296Y0253156D01*
X0114033Y0253010D01*
X0113774Y0252858D01*
X0113518Y0252699D01*
X0113267Y0252534D01*
X0113020Y0252363D01*
X0112777Y0252186D01*
X0112538Y0252003D01*
X0112304Y0251815D01*
X0112075Y0251621D01*
X0111851Y0251421D01*
X0111631Y0251216D01*
X0111417Y0251005D01*
X0111207Y0250789D01*
X0111003Y0250569D01*
X0110805Y0250343D01*
X0110612Y0250112D01*
X0110425Y0249877D01*
X0110243Y0249638D01*
X0110068Y0249394D01*
X0109898Y0249145D01*
X0109735Y0248893D01*
X0109578Y0248637D01*
X0109427Y0248377D01*
X0109283Y0248113D01*
X0109145Y0247846D01*
X0109013Y0247576D01*
X0108889Y0247303D01*
X0108771Y0247026D01*
X0108660Y0246747D01*
X0108555Y0246465D01*
X0108458Y0246181D01*
X0108367Y0245894D01*
X0108284Y0245605D01*
X0108208Y0245315D01*
X0108138Y0245022D01*
X0108076Y0244728D01*
X0108022Y0244433D01*
X0107974Y0244136D01*
X0107934Y0243838D01*
X0107901Y0243539D01*
X0107875Y0243240D01*
X0107857Y0242940D01*
X0107846Y0242640D01*
X0107842Y0242339D01*
X0107846Y0242038D01*
X0107857Y0241738D01*
X0107875Y0241438D01*
X0107901Y0241139D01*
X0107934Y0240840D01*
X0107974Y0240542D01*
X0108022Y0240245D01*
X0108076Y0239950D01*
X0108138Y0239656D01*
X0108208Y0239363D01*
X0108284Y0239073D01*
X0108367Y0238784D01*
X0108458Y0238497D01*
X0108555Y0238213D01*
X0108660Y0237931D01*
X0108771Y0237652D01*
X0108889Y0237375D01*
X0109013Y0237102D01*
X0109145Y0236832D01*
X0109283Y0236565D01*
X0109427Y0236301D01*
X0109578Y0236041D01*
X0109735Y0235785D01*
X0109898Y0235533D01*
X0110068Y0235284D01*
X0110243Y0235040D01*
X0110425Y0234801D01*
X0110612Y0234566D01*
X0110805Y0234335D01*
X0111003Y0234109D01*
X0111207Y0233889D01*
X0111417Y0233673D01*
X0111631Y0233462D01*
X0111851Y0233257D01*
X0112075Y0233057D01*
X0112304Y0232863D01*
X0112538Y0232675D01*
X0112777Y0232492D01*
X0113020Y0232315D01*
X0113267Y0232144D01*
X0113518Y0231979D01*
X0113774Y0231820D01*
X0114033Y0231668D01*
X0114296Y0231522D01*
X0114562Y0231383D01*
X0114831Y0231250D01*
X0115104Y0231123D01*
X0115380Y0231004D01*
X0115658Y0230891D01*
X0115939Y0230785D01*
X0116223Y0230686D01*
X0116509Y0230594D01*
X0116798Y0230508D01*
X0117088Y0230430D01*
X0117380Y0230360D01*
X0117674Y0230296D01*
X0117969Y0230239D01*
X0118265Y0230190D01*
X0118563Y0230148D01*
X0118861Y0230113D01*
X0119161Y0230086D01*
X0119460Y0230065D01*
X0119761Y0230053D01*
X0120061Y0230047D01*
X0120362Y0230049D01*
X0120662Y0230058D01*
X0120962Y0230075D01*
X0121262Y0230099D01*
X0121561Y0230130D01*
X0121859Y0230169D01*
X0122156Y0230214D01*
X0122452Y0230267D01*
X0122746Y0230328D01*
X0123039Y0230395D01*
X0123330Y0230470D01*
X0123619Y0230552D01*
X0123907Y0230640D01*
X0124191Y0230736D01*
X0124474Y0230839D01*
X0124754Y0230948D01*
X0125031Y0231065D01*
X0125305Y0231188D01*
X0125576Y0231317D01*
X0125844Y0231454D01*
X0126108Y0231597D01*
X0126369Y0231746D01*
X0126626Y0231901D01*
X0126880Y0232063D01*
X0127129Y0232231D01*
X0127374Y0232405D01*
X0127615Y0232585D01*
X0127851Y0232771D01*
X0128082Y0232963D01*
X0128309Y0233160D01*
X0128531Y0233362D01*
X0128748Y0233570D01*
X0128960Y0233784D01*
X0129167Y0234002D01*
X0129368Y0234225D01*
X0129563Y0234454D01*
X0129753Y0234686D01*
X0129938Y0234924D01*
X0129862Y0234980D01*
X0129680Y0234745D01*
X0129491Y0234514D01*
X0129297Y0234287D01*
X0129097Y0234065D01*
X0128892Y0233849D01*
X0128682Y0233637D01*
X0128467Y0233431D01*
X0128247Y0233230D01*
X0128021Y0233034D01*
X0127792Y0232844D01*
X0127557Y0232660D01*
X0127318Y0232481D01*
X0127075Y0232308D01*
X0126828Y0232142D01*
X0126576Y0231981D01*
X0126321Y0231827D01*
X0126062Y0231679D01*
X0125800Y0231537D01*
X0125534Y0231402D01*
X0125265Y0231273D01*
X0124993Y0231151D01*
X0124718Y0231035D01*
X0124440Y0230926D01*
X0124160Y0230825D01*
X0123877Y0230730D01*
X0123592Y0230642D01*
X0123305Y0230561D01*
X0123017Y0230486D01*
X0122726Y0230420D01*
X0122434Y0230360D01*
X0122140Y0230307D01*
X0121845Y0230262D01*
X0121550Y0230223D01*
X0121253Y0230192D01*
X0120956Y0230169D01*
X0120658Y0230152D01*
X0120360Y0230143D01*
X0120062Y0230141D01*
X0119763Y0230147D01*
X0119465Y0230159D01*
X0119168Y0230179D01*
X0118871Y0230207D01*
X0118575Y0230241D01*
X0118279Y0230283D01*
X0117985Y0230332D01*
X0117692Y0230388D01*
X0117401Y0230451D01*
X0117111Y0230522D01*
X0116823Y0230599D01*
X0116537Y0230683D01*
X0116253Y0230775D01*
X0115971Y0230873D01*
X0115692Y0230978D01*
X0115416Y0231090D01*
X0115142Y0231209D01*
X0114872Y0231334D01*
X0114604Y0231466D01*
X0114340Y0231605D01*
X0114079Y0231750D01*
X0113822Y0231901D01*
X0113569Y0232058D01*
X0113320Y0232222D01*
X0113074Y0232392D01*
X0112833Y0232567D01*
X0112596Y0232749D01*
X0112364Y0232936D01*
X0112137Y0233128D01*
X0111914Y0233327D01*
X0111696Y0233530D01*
X0111483Y0233739D01*
X0111275Y0233953D01*
X0111073Y0234173D01*
X0110876Y0234396D01*
X0110685Y0234625D01*
X0110499Y0234859D01*
X0110319Y0235096D01*
X0110145Y0235338D01*
X0109977Y0235585D01*
X0109815Y0235835D01*
X0109659Y0236089D01*
X0109509Y0236347D01*
X0109366Y0236609D01*
X0109229Y0236874D01*
X0109098Y0237142D01*
X0108975Y0237413D01*
X0108858Y0237688D01*
X0108747Y0237965D01*
X0108644Y0238245D01*
X0108547Y0238527D01*
X0108457Y0238811D01*
X0108375Y0239098D01*
X0108299Y0239386D01*
X0108230Y0239676D01*
X0108169Y0239968D01*
X0108114Y0240261D01*
X0108067Y0240556D01*
X0108027Y0240851D01*
X0107994Y0241148D01*
X0107969Y0241445D01*
X0107951Y0241743D01*
X0107940Y0242041D01*
X0107936Y0242339D01*
X0107940Y0242637D01*
X0107951Y0242935D01*
X0107969Y0243233D01*
X0107994Y0243530D01*
X0108027Y0243827D01*
X0108067Y0244122D01*
X0108114Y0244417D01*
X0108169Y0244710D01*
X0108230Y0245002D01*
X0108299Y0245292D01*
X0108375Y0245580D01*
X0108457Y0245867D01*
X0108547Y0246151D01*
X0108644Y0246433D01*
X0108747Y0246713D01*
X0108858Y0246990D01*
X0108975Y0247265D01*
X0109098Y0247536D01*
X0109229Y0247804D01*
X0109366Y0248069D01*
X0109509Y0248331D01*
X0109659Y0248589D01*
X0109815Y0248843D01*
X0109977Y0249093D01*
X0110145Y0249340D01*
X0110319Y0249582D01*
X0110499Y0249819D01*
X0110685Y0250053D01*
X0110876Y0250282D01*
X0111073Y0250505D01*
X0111275Y0250725D01*
X0111483Y0250939D01*
X0111696Y0251148D01*
X0111914Y0251351D01*
X0112137Y0251550D01*
X0112364Y0251742D01*
X0112596Y0251929D01*
X0112833Y0252111D01*
X0113074Y0252286D01*
X0113320Y0252456D01*
X0113569Y0252620D01*
X0113822Y0252777D01*
X0114079Y0252928D01*
X0114340Y0253073D01*
X0114604Y0253212D01*
X0114872Y0253344D01*
X0115142Y0253469D01*
X0115416Y0253588D01*
X0115692Y0253700D01*
X0115971Y0253805D01*
X0116253Y0253903D01*
X0116537Y0253995D01*
X0116823Y0254079D01*
X0117111Y0254156D01*
X0117401Y0254227D01*
X0117692Y0254290D01*
X0117985Y0254346D01*
X0118279Y0254395D01*
X0118575Y0254437D01*
X0118871Y0254471D01*
X0119168Y0254499D01*
X0119465Y0254519D01*
X0119763Y0254531D01*
X0120062Y0254537D01*
X0120360Y0254535D01*
X0120658Y0254526D01*
X0120956Y0254509D01*
X0121253Y0254486D01*
X0121550Y0254455D01*
X0121845Y0254416D01*
X0122140Y0254371D01*
X0122434Y0254318D01*
X0122726Y0254258D01*
X0123017Y0254192D01*
X0123305Y0254117D01*
X0123592Y0254036D01*
X0123877Y0253948D01*
X0124160Y0253853D01*
X0124440Y0253752D01*
X0124718Y0253643D01*
X0124993Y0253527D01*
X0125265Y0253405D01*
X0125534Y0253276D01*
X0125800Y0253141D01*
X0126062Y0252999D01*
X0126321Y0252851D01*
X0126576Y0252697D01*
X0126828Y0252536D01*
X0127075Y0252370D01*
X0127318Y0252197D01*
X0127557Y0252018D01*
X0127792Y0251834D01*
X0128021Y0251644D01*
X0128247Y0251448D01*
X0128467Y0251247D01*
X0128682Y0251041D01*
X0128892Y0250829D01*
X0129097Y0250613D01*
X0129297Y0250391D01*
X0129491Y0250164D01*
X0129680Y0249933D01*
X0129862Y0249698D01*
X0129787Y0249641D01*
X0129606Y0249875D01*
X0129419Y0250104D01*
X0129226Y0250329D01*
X0129028Y0250549D01*
X0128825Y0250764D01*
X0128616Y0250974D01*
X0128402Y0251179D01*
X0128184Y0251378D01*
X0127960Y0251572D01*
X0127732Y0251761D01*
X0127500Y0251944D01*
X0127263Y0252121D01*
X0127021Y0252292D01*
X0126776Y0252458D01*
X0126527Y0252617D01*
X0126273Y0252770D01*
X0126017Y0252917D01*
X0125756Y0253058D01*
X0125492Y0253192D01*
X0125225Y0253320D01*
X0124955Y0253441D01*
X0124683Y0253556D01*
X0124407Y0253664D01*
X0124129Y0253765D01*
X0123848Y0253859D01*
X0123566Y0253946D01*
X0123281Y0254027D01*
X0122994Y0254100D01*
X0122706Y0254167D01*
X0122416Y0254226D01*
X0122124Y0254278D01*
X0121832Y0254323D01*
X0121538Y0254361D01*
X0121244Y0254392D01*
X0120949Y0254416D01*
X0120654Y0254432D01*
X0120358Y0254441D01*
X0120062Y0254443D01*
X0119766Y0254437D01*
X0119470Y0254425D01*
X0119175Y0254405D01*
X0118880Y0254378D01*
X0118586Y0254344D01*
X0118293Y0254302D01*
X0118001Y0254254D01*
X0117711Y0254198D01*
X0117422Y0254135D01*
X0117134Y0254065D01*
X0116848Y0253988D01*
X0116564Y0253905D01*
X0116283Y0253814D01*
X0116003Y0253716D01*
X0115726Y0253612D01*
X0115452Y0253501D01*
X0115181Y0253383D01*
X0114912Y0253259D01*
X0114647Y0253128D01*
X0114385Y0252990D01*
X0114126Y0252847D01*
X0113871Y0252697D01*
X0113619Y0252540D01*
X0113372Y0252378D01*
X0113129Y0252210D01*
X0112889Y0252035D01*
X0112654Y0251855D01*
X0112424Y0251670D01*
X0112198Y0251478D01*
X0111977Y0251282D01*
X0111761Y0251080D01*
X0111550Y0250872D01*
X0111344Y0250660D01*
X0111143Y0250442D01*
X0110947Y0250220D01*
X0110757Y0249993D01*
X0110573Y0249762D01*
X0110395Y0249526D01*
X0110222Y0249286D01*
X0110055Y0249041D01*
X0109894Y0248793D01*
X0109739Y0248540D01*
X0109591Y0248284D01*
X0109449Y0248025D01*
X0109313Y0247762D01*
X0109183Y0247496D01*
X0109061Y0247227D01*
X0108944Y0246954D01*
X0108835Y0246679D01*
X0108732Y0246402D01*
X0108636Y0246122D01*
X0108547Y0245840D01*
X0108465Y0245555D01*
X0108390Y0245269D01*
X0108322Y0244981D01*
X0108261Y0244692D01*
X0108207Y0244401D01*
X0108160Y0244108D01*
X0108120Y0243815D01*
X0108088Y0243521D01*
X0108063Y0243226D01*
X0108044Y0242931D01*
X0108034Y0242635D01*
X0108030Y0242339D01*
X0108034Y0242043D01*
X0108044Y0241747D01*
X0108063Y0241452D01*
X0108088Y0241157D01*
X0108120Y0240863D01*
X0108160Y0240570D01*
X0108207Y0240277D01*
X0108261Y0239986D01*
X0108322Y0239697D01*
X0108390Y0239409D01*
X0108465Y0239123D01*
X0108547Y0238838D01*
X0108636Y0238556D01*
X0108732Y0238276D01*
X0108835Y0237999D01*
X0108944Y0237724D01*
X0109061Y0237451D01*
X0109183Y0237182D01*
X0109313Y0236916D01*
X0109449Y0236653D01*
X0109591Y0236394D01*
X0109739Y0236138D01*
X0109894Y0235885D01*
X0110055Y0235637D01*
X0110222Y0235392D01*
X0110395Y0235152D01*
X0110573Y0234916D01*
X0110757Y0234685D01*
X0110947Y0234458D01*
X0111143Y0234236D01*
X0111344Y0234018D01*
X0111550Y0233806D01*
X0111761Y0233598D01*
X0111977Y0233396D01*
X0112198Y0233200D01*
X0112424Y0233008D01*
X0112654Y0232823D01*
X0112889Y0232643D01*
X0113129Y0232468D01*
X0113372Y0232300D01*
X0113619Y0232138D01*
X0113871Y0231981D01*
X0114126Y0231831D01*
X0114385Y0231688D01*
X0114647Y0231550D01*
X0114912Y0231419D01*
X0115181Y0231295D01*
X0115452Y0231177D01*
X0115726Y0231066D01*
X0116003Y0230962D01*
X0116283Y0230864D01*
X0116564Y0230773D01*
X0116848Y0230690D01*
X0117134Y0230613D01*
X0117422Y0230543D01*
X0117711Y0230480D01*
X0118001Y0230424D01*
X0118293Y0230376D01*
X0118586Y0230334D01*
X0118880Y0230300D01*
X0119175Y0230273D01*
X0119470Y0230253D01*
X0119766Y0230241D01*
X0120062Y0230235D01*
X0120358Y0230237D01*
X0120654Y0230246D01*
X0120949Y0230262D01*
X0121244Y0230286D01*
X0121538Y0230317D01*
X0121832Y0230355D01*
X0122124Y0230400D01*
X0122416Y0230452D01*
X0122706Y0230511D01*
X0122994Y0230578D01*
X0123281Y0230651D01*
X0123566Y0230732D01*
X0123848Y0230819D01*
X0124129Y0230913D01*
X0124407Y0231014D01*
X0124683Y0231122D01*
X0124955Y0231237D01*
X0125225Y0231358D01*
X0125492Y0231486D01*
X0125756Y0231620D01*
X0126017Y0231761D01*
X0126273Y0231908D01*
X0126527Y0232061D01*
X0126776Y0232220D01*
X0127021Y0232386D01*
X0127263Y0232557D01*
X0127500Y0232734D01*
X0127732Y0232917D01*
X0127960Y0233106D01*
X0128184Y0233300D01*
X0128402Y0233499D01*
X0128616Y0233704D01*
X0128825Y0233914D01*
X0129028Y0234129D01*
X0129226Y0234349D01*
X0129419Y0234574D01*
X0129606Y0234803D01*
X0129787Y0235037D01*
D22*
X0291799Y0202969D03*
D23*
X0285549Y0202969D03*
X0309049Y0202969D03*
D24*
X0239346Y0031004D02*
X0209346Y0031004D01*
X0204346Y0031004D01*
X0204346Y0027004D01*
X0205346Y0025004D01*
X0233346Y0025004D01*
X0234346Y0027004D01*
X0234346Y0031004D01*
X0233346Y0031004D02*
X0233346Y0027004D01*
X0234346Y0027004D01*
X0233346Y0027004D02*
X0205346Y0027004D01*
X0205346Y0031004D01*
X0204346Y0031004D02*
X0199346Y0031004D01*
X0199346Y0019504D01*
X0199346Y0008004D01*
X0200346Y0008004D02*
X0201846Y0008004D01*
X0216846Y0008004D01*
X0221846Y0008004D01*
X0221846Y0010504D01*
X0226846Y0010504D01*
X0226846Y0008004D01*
X0231846Y0008004D01*
X0231846Y0010504D01*
X0236846Y0010504D01*
X0236846Y0008004D01*
X0239346Y0008004D01*
X0208846Y0008004D01*
X0206846Y0008004D02*
X0211846Y0008004D01*
X0211846Y0010504D01*
X0216846Y0010504D01*
X0216846Y0008004D01*
X0206846Y0008004D02*
X0206846Y0010504D01*
X0201846Y0010504D01*
X0201846Y0008004D01*
X0187378Y0008398D02*
X0184878Y0008398D01*
X0184878Y0010898D01*
X0179878Y0010898D01*
X0179878Y0008398D01*
X0174878Y0008398D01*
X0174878Y0010898D01*
X0169878Y0010898D01*
X0169878Y0008398D01*
X0164878Y0008398D01*
X0149878Y0008398D01*
X0149878Y0010898D01*
X0154878Y0010898D01*
X0154878Y0008398D01*
X0159878Y0008398D01*
X0159878Y0010898D01*
X0164878Y0010898D01*
X0164878Y0008398D01*
X0156878Y0008398D02*
X0187378Y0008398D01*
X0187378Y0019898D01*
X0187378Y0031398D01*
X0157378Y0031398D01*
X0152378Y0031398D01*
X0152378Y0027398D01*
X0153378Y0025398D01*
X0181378Y0025398D01*
X0182378Y0027398D01*
X0182378Y0031398D01*
X0181378Y0031398D02*
X0181378Y0027398D01*
X0182378Y0027398D01*
X0181378Y0027398D02*
X0153378Y0027398D01*
X0153378Y0031398D01*
X0152378Y0031398D02*
X0147378Y0031398D01*
X0147378Y0019898D01*
X0147378Y0008398D01*
X0148378Y0008398D02*
X0149878Y0008398D01*
X0152378Y0027398D02*
X0153378Y0027398D01*
X0204346Y0027004D02*
X0205346Y0027004D01*
X0239346Y0031004D02*
X0239346Y0019504D01*
X0239346Y0008004D01*
X0073598Y0020996D02*
X0071098Y0020996D01*
X0071098Y0023496D01*
X0066098Y0023496D01*
X0066098Y0020996D01*
X0061098Y0020996D01*
X0061098Y0023496D01*
X0056098Y0023496D01*
X0056098Y0020996D01*
X0051098Y0020996D01*
X0036098Y0020996D01*
X0036098Y0023496D01*
X0041098Y0023496D01*
X0041098Y0020996D01*
X0046098Y0020996D01*
X0046098Y0023496D01*
X0051098Y0023496D01*
X0051098Y0020996D01*
X0043098Y0020996D02*
X0073598Y0020996D01*
X0073598Y0032496D01*
X0073598Y0043996D01*
X0043598Y0043996D01*
X0038598Y0043996D01*
X0038598Y0039996D01*
X0039598Y0037996D01*
X0067598Y0037996D01*
X0068598Y0039996D01*
X0068598Y0043996D01*
X0067598Y0043996D02*
X0067598Y0039996D01*
X0068598Y0039996D01*
X0067598Y0039996D02*
X0039598Y0039996D01*
X0039598Y0043996D01*
X0038598Y0043996D02*
X0033598Y0043996D01*
X0033598Y0032496D01*
X0033598Y0020996D01*
X0034598Y0020996D02*
X0036098Y0020996D01*
X0038598Y0039996D02*
X0039598Y0039996D01*
X0041098Y0061547D02*
X0046098Y0061547D01*
X0046098Y0064047D01*
X0051098Y0064047D01*
X0051098Y0061547D01*
X0056098Y0061547D01*
X0056098Y0064047D01*
X0061098Y0064047D01*
X0061098Y0061547D01*
X0066098Y0061547D01*
X0066098Y0064047D01*
X0071098Y0064047D01*
X0071098Y0061547D01*
X0073598Y0061547D01*
X0043098Y0061547D01*
X0041098Y0061547D02*
X0041098Y0064047D01*
X0036098Y0064047D01*
X0036098Y0061547D01*
X0051098Y0061547D01*
X0036098Y0061547D02*
X0034598Y0061547D01*
X0033598Y0061547D02*
X0033598Y0073047D01*
X0033598Y0084547D01*
X0038598Y0084547D01*
X0038598Y0080547D01*
X0039598Y0078547D01*
X0067598Y0078547D01*
X0068598Y0080547D01*
X0068598Y0084547D01*
X0067598Y0084547D02*
X0067598Y0080547D01*
X0068598Y0080547D01*
X0067598Y0080547D02*
X0039598Y0080547D01*
X0039598Y0084547D01*
X0038598Y0084547D02*
X0043598Y0084547D01*
X0073598Y0084547D01*
X0073598Y0073047D01*
X0073598Y0061547D01*
X0039598Y0080547D02*
X0038598Y0080547D01*
X0036098Y0101705D02*
X0051098Y0101705D01*
X0056098Y0101705D01*
X0056098Y0104205D01*
X0061098Y0104205D01*
X0061098Y0101705D01*
X0066098Y0101705D01*
X0066098Y0104205D01*
X0071098Y0104205D01*
X0071098Y0101705D01*
X0073598Y0101705D01*
X0043098Y0101705D01*
X0041098Y0101705D02*
X0046098Y0101705D01*
X0046098Y0104205D01*
X0051098Y0104205D01*
X0051098Y0101705D01*
X0041098Y0101705D02*
X0041098Y0104205D01*
X0036098Y0104205D01*
X0036098Y0101705D01*
X0034598Y0101705D01*
X0033598Y0101705D02*
X0033598Y0113205D01*
X0033598Y0124705D01*
X0038598Y0124705D01*
X0038598Y0120705D01*
X0039598Y0118705D01*
X0067598Y0118705D01*
X0068598Y0120705D01*
X0068598Y0124705D01*
X0067598Y0124705D02*
X0067598Y0120705D01*
X0068598Y0120705D01*
X0067598Y0120705D02*
X0039598Y0120705D01*
X0039598Y0124705D01*
X0038598Y0124705D02*
X0043598Y0124705D01*
X0073598Y0124705D01*
X0073598Y0113205D01*
X0073598Y0101705D01*
X0039598Y0120705D02*
X0038598Y0120705D01*
X0036098Y0141862D02*
X0051098Y0141862D01*
X0056098Y0141862D01*
X0056098Y0144362D01*
X0061098Y0144362D01*
X0061098Y0141862D01*
X0066098Y0141862D01*
X0066098Y0144362D01*
X0071098Y0144362D01*
X0071098Y0141862D01*
X0073598Y0141862D01*
X0043098Y0141862D01*
X0041098Y0141862D02*
X0046098Y0141862D01*
X0046098Y0144362D01*
X0051098Y0144362D01*
X0051098Y0141862D01*
X0041098Y0141862D02*
X0041098Y0144362D01*
X0036098Y0144362D01*
X0036098Y0141862D01*
X0034598Y0141862D01*
X0033598Y0141862D02*
X0033598Y0153362D01*
X0033598Y0164862D01*
X0038598Y0164862D01*
X0038598Y0160862D01*
X0039598Y0158862D01*
X0067598Y0158862D01*
X0068598Y0160862D01*
X0068598Y0164862D01*
X0067598Y0164862D02*
X0067598Y0160862D01*
X0068598Y0160862D01*
X0067598Y0160862D02*
X0039598Y0160862D01*
X0039598Y0164862D01*
X0038598Y0164862D02*
X0043598Y0164862D01*
X0073598Y0164862D01*
X0073598Y0153362D01*
X0073598Y0141862D01*
X0039598Y0160862D02*
X0038598Y0160862D01*
X0036098Y0182413D02*
X0051098Y0182413D01*
X0056098Y0182413D01*
X0056098Y0184913D01*
X0061098Y0184913D01*
X0061098Y0182413D01*
X0066098Y0182413D01*
X0066098Y0184913D01*
X0071098Y0184913D01*
X0071098Y0182413D01*
X0073598Y0182413D01*
X0043098Y0182413D01*
X0041098Y0182413D02*
X0046098Y0182413D01*
X0046098Y0184913D01*
X0051098Y0184913D01*
X0051098Y0182413D01*
X0041098Y0182413D02*
X0041098Y0184913D01*
X0036098Y0184913D01*
X0036098Y0182413D01*
X0034598Y0182413D01*
X0033598Y0182413D02*
X0033598Y0193913D01*
X0033598Y0205413D01*
X0038598Y0205413D01*
X0038598Y0201413D01*
X0039598Y0199413D01*
X0067598Y0199413D01*
X0068598Y0201413D01*
X0068598Y0205413D01*
X0067598Y0205413D02*
X0067598Y0201413D01*
X0068598Y0201413D01*
X0067598Y0201413D02*
X0039598Y0201413D01*
X0039598Y0205413D01*
X0038598Y0205413D02*
X0043598Y0205413D01*
X0073598Y0205413D01*
X0073598Y0193913D01*
X0073598Y0182413D01*
X0039598Y0201413D02*
X0038598Y0201413D01*
X0036492Y0222965D02*
X0051492Y0222965D01*
X0056492Y0222965D01*
X0056492Y0225465D01*
X0061492Y0225465D01*
X0061492Y0222965D01*
X0066492Y0222965D01*
X0066492Y0225465D01*
X0071492Y0225465D01*
X0071492Y0222965D01*
X0073992Y0222965D01*
X0043492Y0222965D01*
X0041492Y0222965D02*
X0046492Y0222965D01*
X0046492Y0225465D01*
X0051492Y0225465D01*
X0051492Y0222965D01*
X0041492Y0222965D02*
X0041492Y0225465D01*
X0036492Y0225465D01*
X0036492Y0222965D01*
X0034992Y0222965D01*
X0033992Y0222965D02*
X0033992Y0234465D01*
X0033992Y0245965D01*
X0038992Y0245965D01*
X0038992Y0241965D01*
X0039992Y0239965D01*
X0067992Y0239965D01*
X0068992Y0241965D01*
X0068992Y0245965D01*
X0067992Y0245965D02*
X0067992Y0241965D01*
X0068992Y0241965D01*
X0067992Y0241965D02*
X0039992Y0241965D01*
X0039992Y0245965D01*
X0038992Y0245965D02*
X0043992Y0245965D01*
X0073992Y0245965D01*
X0073992Y0234465D01*
X0073992Y0222965D01*
X0039992Y0241965D02*
X0038992Y0241965D01*
M02*
