G75*
%MOIN*%
%OFA0B0*%
%FSLAX25Y25*%
%IPPOS*%
%LPD*%
%AMOC8*
5,1,8,0,0,1.08239X$1,22.5*
%
%ADD10C,0.00000*%
%ADD11OC8,0.06300*%
%ADD12C,0.06300*%
%ADD13OC8,0.05600*%
%ADD14C,0.05200*%
%ADD15C,0.16598*%
%ADD16C,0.16200*%
%ADD17OC8,0.05200*%
%ADD18C,0.06000*%
%ADD19C,0.07400*%
%ADD20C,0.05600*%
%ADD21C,0.06600*%
%ADD22C,0.04000*%
%ADD23C,0.01969*%
%ADD24C,0.02559*%
D10*
X0001394Y0001000D02*
X0001000Y0262024D01*
X0324858Y0262024D01*
X0325252Y0001000D01*
X0001394Y0001000D01*
X0006355Y0014780D02*
X0006357Y0014938D01*
X0006363Y0015096D01*
X0006373Y0015254D01*
X0006387Y0015412D01*
X0006405Y0015569D01*
X0006426Y0015726D01*
X0006452Y0015882D01*
X0006482Y0016038D01*
X0006515Y0016193D01*
X0006553Y0016346D01*
X0006594Y0016499D01*
X0006639Y0016651D01*
X0006688Y0016802D01*
X0006741Y0016951D01*
X0006797Y0017099D01*
X0006857Y0017245D01*
X0006921Y0017390D01*
X0006989Y0017533D01*
X0007060Y0017675D01*
X0007134Y0017815D01*
X0007212Y0017952D01*
X0007294Y0018088D01*
X0007378Y0018222D01*
X0007467Y0018353D01*
X0007558Y0018482D01*
X0007653Y0018609D01*
X0007750Y0018734D01*
X0007851Y0018856D01*
X0007955Y0018975D01*
X0008062Y0019092D01*
X0008172Y0019206D01*
X0008285Y0019317D01*
X0008400Y0019426D01*
X0008518Y0019531D01*
X0008639Y0019633D01*
X0008762Y0019733D01*
X0008888Y0019829D01*
X0009016Y0019922D01*
X0009146Y0020012D01*
X0009279Y0020098D01*
X0009414Y0020182D01*
X0009550Y0020261D01*
X0009689Y0020338D01*
X0009830Y0020410D01*
X0009972Y0020480D01*
X0010116Y0020545D01*
X0010262Y0020607D01*
X0010409Y0020665D01*
X0010558Y0020720D01*
X0010708Y0020771D01*
X0010859Y0020818D01*
X0011011Y0020861D01*
X0011164Y0020900D01*
X0011319Y0020936D01*
X0011474Y0020967D01*
X0011630Y0020995D01*
X0011786Y0021019D01*
X0011943Y0021039D01*
X0012101Y0021055D01*
X0012258Y0021067D01*
X0012417Y0021075D01*
X0012575Y0021079D01*
X0012733Y0021079D01*
X0012891Y0021075D01*
X0013050Y0021067D01*
X0013207Y0021055D01*
X0013365Y0021039D01*
X0013522Y0021019D01*
X0013678Y0020995D01*
X0013834Y0020967D01*
X0013989Y0020936D01*
X0014144Y0020900D01*
X0014297Y0020861D01*
X0014449Y0020818D01*
X0014600Y0020771D01*
X0014750Y0020720D01*
X0014899Y0020665D01*
X0015046Y0020607D01*
X0015192Y0020545D01*
X0015336Y0020480D01*
X0015478Y0020410D01*
X0015619Y0020338D01*
X0015758Y0020261D01*
X0015894Y0020182D01*
X0016029Y0020098D01*
X0016162Y0020012D01*
X0016292Y0019922D01*
X0016420Y0019829D01*
X0016546Y0019733D01*
X0016669Y0019633D01*
X0016790Y0019531D01*
X0016908Y0019426D01*
X0017023Y0019317D01*
X0017136Y0019206D01*
X0017246Y0019092D01*
X0017353Y0018975D01*
X0017457Y0018856D01*
X0017558Y0018734D01*
X0017655Y0018609D01*
X0017750Y0018482D01*
X0017841Y0018353D01*
X0017930Y0018222D01*
X0018014Y0018088D01*
X0018096Y0017952D01*
X0018174Y0017815D01*
X0018248Y0017675D01*
X0018319Y0017533D01*
X0018387Y0017390D01*
X0018451Y0017245D01*
X0018511Y0017099D01*
X0018567Y0016951D01*
X0018620Y0016802D01*
X0018669Y0016651D01*
X0018714Y0016499D01*
X0018755Y0016346D01*
X0018793Y0016193D01*
X0018826Y0016038D01*
X0018856Y0015882D01*
X0018882Y0015726D01*
X0018903Y0015569D01*
X0018921Y0015412D01*
X0018935Y0015254D01*
X0018945Y0015096D01*
X0018951Y0014938D01*
X0018953Y0014780D01*
X0018951Y0014622D01*
X0018945Y0014464D01*
X0018935Y0014306D01*
X0018921Y0014148D01*
X0018903Y0013991D01*
X0018882Y0013834D01*
X0018856Y0013678D01*
X0018826Y0013522D01*
X0018793Y0013367D01*
X0018755Y0013214D01*
X0018714Y0013061D01*
X0018669Y0012909D01*
X0018620Y0012758D01*
X0018567Y0012609D01*
X0018511Y0012461D01*
X0018451Y0012315D01*
X0018387Y0012170D01*
X0018319Y0012027D01*
X0018248Y0011885D01*
X0018174Y0011745D01*
X0018096Y0011608D01*
X0018014Y0011472D01*
X0017930Y0011338D01*
X0017841Y0011207D01*
X0017750Y0011078D01*
X0017655Y0010951D01*
X0017558Y0010826D01*
X0017457Y0010704D01*
X0017353Y0010585D01*
X0017246Y0010468D01*
X0017136Y0010354D01*
X0017023Y0010243D01*
X0016908Y0010134D01*
X0016790Y0010029D01*
X0016669Y0009927D01*
X0016546Y0009827D01*
X0016420Y0009731D01*
X0016292Y0009638D01*
X0016162Y0009548D01*
X0016029Y0009462D01*
X0015894Y0009378D01*
X0015758Y0009299D01*
X0015619Y0009222D01*
X0015478Y0009150D01*
X0015336Y0009080D01*
X0015192Y0009015D01*
X0015046Y0008953D01*
X0014899Y0008895D01*
X0014750Y0008840D01*
X0014600Y0008789D01*
X0014449Y0008742D01*
X0014297Y0008699D01*
X0014144Y0008660D01*
X0013989Y0008624D01*
X0013834Y0008593D01*
X0013678Y0008565D01*
X0013522Y0008541D01*
X0013365Y0008521D01*
X0013207Y0008505D01*
X0013050Y0008493D01*
X0012891Y0008485D01*
X0012733Y0008481D01*
X0012575Y0008481D01*
X0012417Y0008485D01*
X0012258Y0008493D01*
X0012101Y0008505D01*
X0011943Y0008521D01*
X0011786Y0008541D01*
X0011630Y0008565D01*
X0011474Y0008593D01*
X0011319Y0008624D01*
X0011164Y0008660D01*
X0011011Y0008699D01*
X0010859Y0008742D01*
X0010708Y0008789D01*
X0010558Y0008840D01*
X0010409Y0008895D01*
X0010262Y0008953D01*
X0010116Y0009015D01*
X0009972Y0009080D01*
X0009830Y0009150D01*
X0009689Y0009222D01*
X0009550Y0009299D01*
X0009414Y0009378D01*
X0009279Y0009462D01*
X0009146Y0009548D01*
X0009016Y0009638D01*
X0008888Y0009731D01*
X0008762Y0009827D01*
X0008639Y0009927D01*
X0008518Y0010029D01*
X0008400Y0010134D01*
X0008285Y0010243D01*
X0008172Y0010354D01*
X0008062Y0010468D01*
X0007955Y0010585D01*
X0007851Y0010704D01*
X0007750Y0010826D01*
X0007653Y0010951D01*
X0007558Y0011078D01*
X0007467Y0011207D01*
X0007378Y0011338D01*
X0007294Y0011472D01*
X0007212Y0011608D01*
X0007134Y0011745D01*
X0007060Y0011885D01*
X0006989Y0012027D01*
X0006921Y0012170D01*
X0006857Y0012315D01*
X0006797Y0012461D01*
X0006741Y0012609D01*
X0006688Y0012758D01*
X0006639Y0012909D01*
X0006594Y0013061D01*
X0006553Y0013214D01*
X0006515Y0013367D01*
X0006482Y0013522D01*
X0006452Y0013678D01*
X0006426Y0013834D01*
X0006405Y0013991D01*
X0006387Y0014148D01*
X0006373Y0014306D01*
X0006363Y0014464D01*
X0006357Y0014622D01*
X0006355Y0014780D01*
X0007536Y0250213D02*
X0007538Y0250371D01*
X0007544Y0250529D01*
X0007554Y0250687D01*
X0007568Y0250845D01*
X0007586Y0251002D01*
X0007607Y0251159D01*
X0007633Y0251315D01*
X0007663Y0251471D01*
X0007696Y0251626D01*
X0007734Y0251779D01*
X0007775Y0251932D01*
X0007820Y0252084D01*
X0007869Y0252235D01*
X0007922Y0252384D01*
X0007978Y0252532D01*
X0008038Y0252678D01*
X0008102Y0252823D01*
X0008170Y0252966D01*
X0008241Y0253108D01*
X0008315Y0253248D01*
X0008393Y0253385D01*
X0008475Y0253521D01*
X0008559Y0253655D01*
X0008648Y0253786D01*
X0008739Y0253915D01*
X0008834Y0254042D01*
X0008931Y0254167D01*
X0009032Y0254289D01*
X0009136Y0254408D01*
X0009243Y0254525D01*
X0009353Y0254639D01*
X0009466Y0254750D01*
X0009581Y0254859D01*
X0009699Y0254964D01*
X0009820Y0255066D01*
X0009943Y0255166D01*
X0010069Y0255262D01*
X0010197Y0255355D01*
X0010327Y0255445D01*
X0010460Y0255531D01*
X0010595Y0255615D01*
X0010731Y0255694D01*
X0010870Y0255771D01*
X0011011Y0255843D01*
X0011153Y0255913D01*
X0011297Y0255978D01*
X0011443Y0256040D01*
X0011590Y0256098D01*
X0011739Y0256153D01*
X0011889Y0256204D01*
X0012040Y0256251D01*
X0012192Y0256294D01*
X0012345Y0256333D01*
X0012500Y0256369D01*
X0012655Y0256400D01*
X0012811Y0256428D01*
X0012967Y0256452D01*
X0013124Y0256472D01*
X0013282Y0256488D01*
X0013439Y0256500D01*
X0013598Y0256508D01*
X0013756Y0256512D01*
X0013914Y0256512D01*
X0014072Y0256508D01*
X0014231Y0256500D01*
X0014388Y0256488D01*
X0014546Y0256472D01*
X0014703Y0256452D01*
X0014859Y0256428D01*
X0015015Y0256400D01*
X0015170Y0256369D01*
X0015325Y0256333D01*
X0015478Y0256294D01*
X0015630Y0256251D01*
X0015781Y0256204D01*
X0015931Y0256153D01*
X0016080Y0256098D01*
X0016227Y0256040D01*
X0016373Y0255978D01*
X0016517Y0255913D01*
X0016659Y0255843D01*
X0016800Y0255771D01*
X0016939Y0255694D01*
X0017075Y0255615D01*
X0017210Y0255531D01*
X0017343Y0255445D01*
X0017473Y0255355D01*
X0017601Y0255262D01*
X0017727Y0255166D01*
X0017850Y0255066D01*
X0017971Y0254964D01*
X0018089Y0254859D01*
X0018204Y0254750D01*
X0018317Y0254639D01*
X0018427Y0254525D01*
X0018534Y0254408D01*
X0018638Y0254289D01*
X0018739Y0254167D01*
X0018836Y0254042D01*
X0018931Y0253915D01*
X0019022Y0253786D01*
X0019111Y0253655D01*
X0019195Y0253521D01*
X0019277Y0253385D01*
X0019355Y0253248D01*
X0019429Y0253108D01*
X0019500Y0252966D01*
X0019568Y0252823D01*
X0019632Y0252678D01*
X0019692Y0252532D01*
X0019748Y0252384D01*
X0019801Y0252235D01*
X0019850Y0252084D01*
X0019895Y0251932D01*
X0019936Y0251779D01*
X0019974Y0251626D01*
X0020007Y0251471D01*
X0020037Y0251315D01*
X0020063Y0251159D01*
X0020084Y0251002D01*
X0020102Y0250845D01*
X0020116Y0250687D01*
X0020126Y0250529D01*
X0020132Y0250371D01*
X0020134Y0250213D01*
X0020132Y0250055D01*
X0020126Y0249897D01*
X0020116Y0249739D01*
X0020102Y0249581D01*
X0020084Y0249424D01*
X0020063Y0249267D01*
X0020037Y0249111D01*
X0020007Y0248955D01*
X0019974Y0248800D01*
X0019936Y0248647D01*
X0019895Y0248494D01*
X0019850Y0248342D01*
X0019801Y0248191D01*
X0019748Y0248042D01*
X0019692Y0247894D01*
X0019632Y0247748D01*
X0019568Y0247603D01*
X0019500Y0247460D01*
X0019429Y0247318D01*
X0019355Y0247178D01*
X0019277Y0247041D01*
X0019195Y0246905D01*
X0019111Y0246771D01*
X0019022Y0246640D01*
X0018931Y0246511D01*
X0018836Y0246384D01*
X0018739Y0246259D01*
X0018638Y0246137D01*
X0018534Y0246018D01*
X0018427Y0245901D01*
X0018317Y0245787D01*
X0018204Y0245676D01*
X0018089Y0245567D01*
X0017971Y0245462D01*
X0017850Y0245360D01*
X0017727Y0245260D01*
X0017601Y0245164D01*
X0017473Y0245071D01*
X0017343Y0244981D01*
X0017210Y0244895D01*
X0017075Y0244811D01*
X0016939Y0244732D01*
X0016800Y0244655D01*
X0016659Y0244583D01*
X0016517Y0244513D01*
X0016373Y0244448D01*
X0016227Y0244386D01*
X0016080Y0244328D01*
X0015931Y0244273D01*
X0015781Y0244222D01*
X0015630Y0244175D01*
X0015478Y0244132D01*
X0015325Y0244093D01*
X0015170Y0244057D01*
X0015015Y0244026D01*
X0014859Y0243998D01*
X0014703Y0243974D01*
X0014546Y0243954D01*
X0014388Y0243938D01*
X0014231Y0243926D01*
X0014072Y0243918D01*
X0013914Y0243914D01*
X0013756Y0243914D01*
X0013598Y0243918D01*
X0013439Y0243926D01*
X0013282Y0243938D01*
X0013124Y0243954D01*
X0012967Y0243974D01*
X0012811Y0243998D01*
X0012655Y0244026D01*
X0012500Y0244057D01*
X0012345Y0244093D01*
X0012192Y0244132D01*
X0012040Y0244175D01*
X0011889Y0244222D01*
X0011739Y0244273D01*
X0011590Y0244328D01*
X0011443Y0244386D01*
X0011297Y0244448D01*
X0011153Y0244513D01*
X0011011Y0244583D01*
X0010870Y0244655D01*
X0010731Y0244732D01*
X0010595Y0244811D01*
X0010460Y0244895D01*
X0010327Y0244981D01*
X0010197Y0245071D01*
X0010069Y0245164D01*
X0009943Y0245260D01*
X0009820Y0245360D01*
X0009699Y0245462D01*
X0009581Y0245567D01*
X0009466Y0245676D01*
X0009353Y0245787D01*
X0009243Y0245901D01*
X0009136Y0246018D01*
X0009032Y0246137D01*
X0008931Y0246259D01*
X0008834Y0246384D01*
X0008739Y0246511D01*
X0008648Y0246640D01*
X0008559Y0246771D01*
X0008475Y0246905D01*
X0008393Y0247041D01*
X0008315Y0247178D01*
X0008241Y0247318D01*
X0008170Y0247460D01*
X0008102Y0247603D01*
X0008038Y0247748D01*
X0007978Y0247894D01*
X0007922Y0248042D01*
X0007869Y0248191D01*
X0007820Y0248342D01*
X0007775Y0248494D01*
X0007734Y0248647D01*
X0007696Y0248800D01*
X0007663Y0248955D01*
X0007633Y0249111D01*
X0007607Y0249267D01*
X0007586Y0249424D01*
X0007568Y0249581D01*
X0007554Y0249739D01*
X0007544Y0249897D01*
X0007538Y0250055D01*
X0007536Y0250213D01*
X0251630Y0250213D02*
X0251632Y0250371D01*
X0251638Y0250529D01*
X0251648Y0250687D01*
X0251662Y0250845D01*
X0251680Y0251002D01*
X0251701Y0251159D01*
X0251727Y0251315D01*
X0251757Y0251471D01*
X0251790Y0251626D01*
X0251828Y0251779D01*
X0251869Y0251932D01*
X0251914Y0252084D01*
X0251963Y0252235D01*
X0252016Y0252384D01*
X0252072Y0252532D01*
X0252132Y0252678D01*
X0252196Y0252823D01*
X0252264Y0252966D01*
X0252335Y0253108D01*
X0252409Y0253248D01*
X0252487Y0253385D01*
X0252569Y0253521D01*
X0252653Y0253655D01*
X0252742Y0253786D01*
X0252833Y0253915D01*
X0252928Y0254042D01*
X0253025Y0254167D01*
X0253126Y0254289D01*
X0253230Y0254408D01*
X0253337Y0254525D01*
X0253447Y0254639D01*
X0253560Y0254750D01*
X0253675Y0254859D01*
X0253793Y0254964D01*
X0253914Y0255066D01*
X0254037Y0255166D01*
X0254163Y0255262D01*
X0254291Y0255355D01*
X0254421Y0255445D01*
X0254554Y0255531D01*
X0254689Y0255615D01*
X0254825Y0255694D01*
X0254964Y0255771D01*
X0255105Y0255843D01*
X0255247Y0255913D01*
X0255391Y0255978D01*
X0255537Y0256040D01*
X0255684Y0256098D01*
X0255833Y0256153D01*
X0255983Y0256204D01*
X0256134Y0256251D01*
X0256286Y0256294D01*
X0256439Y0256333D01*
X0256594Y0256369D01*
X0256749Y0256400D01*
X0256905Y0256428D01*
X0257061Y0256452D01*
X0257218Y0256472D01*
X0257376Y0256488D01*
X0257533Y0256500D01*
X0257692Y0256508D01*
X0257850Y0256512D01*
X0258008Y0256512D01*
X0258166Y0256508D01*
X0258325Y0256500D01*
X0258482Y0256488D01*
X0258640Y0256472D01*
X0258797Y0256452D01*
X0258953Y0256428D01*
X0259109Y0256400D01*
X0259264Y0256369D01*
X0259419Y0256333D01*
X0259572Y0256294D01*
X0259724Y0256251D01*
X0259875Y0256204D01*
X0260025Y0256153D01*
X0260174Y0256098D01*
X0260321Y0256040D01*
X0260467Y0255978D01*
X0260611Y0255913D01*
X0260753Y0255843D01*
X0260894Y0255771D01*
X0261033Y0255694D01*
X0261169Y0255615D01*
X0261304Y0255531D01*
X0261437Y0255445D01*
X0261567Y0255355D01*
X0261695Y0255262D01*
X0261821Y0255166D01*
X0261944Y0255066D01*
X0262065Y0254964D01*
X0262183Y0254859D01*
X0262298Y0254750D01*
X0262411Y0254639D01*
X0262521Y0254525D01*
X0262628Y0254408D01*
X0262732Y0254289D01*
X0262833Y0254167D01*
X0262930Y0254042D01*
X0263025Y0253915D01*
X0263116Y0253786D01*
X0263205Y0253655D01*
X0263289Y0253521D01*
X0263371Y0253385D01*
X0263449Y0253248D01*
X0263523Y0253108D01*
X0263594Y0252966D01*
X0263662Y0252823D01*
X0263726Y0252678D01*
X0263786Y0252532D01*
X0263842Y0252384D01*
X0263895Y0252235D01*
X0263944Y0252084D01*
X0263989Y0251932D01*
X0264030Y0251779D01*
X0264068Y0251626D01*
X0264101Y0251471D01*
X0264131Y0251315D01*
X0264157Y0251159D01*
X0264178Y0251002D01*
X0264196Y0250845D01*
X0264210Y0250687D01*
X0264220Y0250529D01*
X0264226Y0250371D01*
X0264228Y0250213D01*
X0264226Y0250055D01*
X0264220Y0249897D01*
X0264210Y0249739D01*
X0264196Y0249581D01*
X0264178Y0249424D01*
X0264157Y0249267D01*
X0264131Y0249111D01*
X0264101Y0248955D01*
X0264068Y0248800D01*
X0264030Y0248647D01*
X0263989Y0248494D01*
X0263944Y0248342D01*
X0263895Y0248191D01*
X0263842Y0248042D01*
X0263786Y0247894D01*
X0263726Y0247748D01*
X0263662Y0247603D01*
X0263594Y0247460D01*
X0263523Y0247318D01*
X0263449Y0247178D01*
X0263371Y0247041D01*
X0263289Y0246905D01*
X0263205Y0246771D01*
X0263116Y0246640D01*
X0263025Y0246511D01*
X0262930Y0246384D01*
X0262833Y0246259D01*
X0262732Y0246137D01*
X0262628Y0246018D01*
X0262521Y0245901D01*
X0262411Y0245787D01*
X0262298Y0245676D01*
X0262183Y0245567D01*
X0262065Y0245462D01*
X0261944Y0245360D01*
X0261821Y0245260D01*
X0261695Y0245164D01*
X0261567Y0245071D01*
X0261437Y0244981D01*
X0261304Y0244895D01*
X0261169Y0244811D01*
X0261033Y0244732D01*
X0260894Y0244655D01*
X0260753Y0244583D01*
X0260611Y0244513D01*
X0260467Y0244448D01*
X0260321Y0244386D01*
X0260174Y0244328D01*
X0260025Y0244273D01*
X0259875Y0244222D01*
X0259724Y0244175D01*
X0259572Y0244132D01*
X0259419Y0244093D01*
X0259264Y0244057D01*
X0259109Y0244026D01*
X0258953Y0243998D01*
X0258797Y0243974D01*
X0258640Y0243954D01*
X0258482Y0243938D01*
X0258325Y0243926D01*
X0258166Y0243918D01*
X0258008Y0243914D01*
X0257850Y0243914D01*
X0257692Y0243918D01*
X0257533Y0243926D01*
X0257376Y0243938D01*
X0257218Y0243954D01*
X0257061Y0243974D01*
X0256905Y0243998D01*
X0256749Y0244026D01*
X0256594Y0244057D01*
X0256439Y0244093D01*
X0256286Y0244132D01*
X0256134Y0244175D01*
X0255983Y0244222D01*
X0255833Y0244273D01*
X0255684Y0244328D01*
X0255537Y0244386D01*
X0255391Y0244448D01*
X0255247Y0244513D01*
X0255105Y0244583D01*
X0254964Y0244655D01*
X0254825Y0244732D01*
X0254689Y0244811D01*
X0254554Y0244895D01*
X0254421Y0244981D01*
X0254291Y0245071D01*
X0254163Y0245164D01*
X0254037Y0245260D01*
X0253914Y0245360D01*
X0253793Y0245462D01*
X0253675Y0245567D01*
X0253560Y0245676D01*
X0253447Y0245787D01*
X0253337Y0245901D01*
X0253230Y0246018D01*
X0253126Y0246137D01*
X0253025Y0246259D01*
X0252928Y0246384D01*
X0252833Y0246511D01*
X0252742Y0246640D01*
X0252653Y0246771D01*
X0252569Y0246905D01*
X0252487Y0247041D01*
X0252409Y0247178D01*
X0252335Y0247318D01*
X0252264Y0247460D01*
X0252196Y0247603D01*
X0252132Y0247748D01*
X0252072Y0247894D01*
X0252016Y0248042D01*
X0251963Y0248191D01*
X0251914Y0248342D01*
X0251869Y0248494D01*
X0251828Y0248647D01*
X0251790Y0248800D01*
X0251757Y0248955D01*
X0251727Y0249111D01*
X0251701Y0249267D01*
X0251680Y0249424D01*
X0251662Y0249581D01*
X0251648Y0249739D01*
X0251638Y0249897D01*
X0251632Y0250055D01*
X0251630Y0250213D01*
X0304780Y0013992D02*
X0304782Y0014150D01*
X0304788Y0014308D01*
X0304798Y0014466D01*
X0304812Y0014624D01*
X0304830Y0014781D01*
X0304851Y0014938D01*
X0304877Y0015094D01*
X0304907Y0015250D01*
X0304940Y0015405D01*
X0304978Y0015558D01*
X0305019Y0015711D01*
X0305064Y0015863D01*
X0305113Y0016014D01*
X0305166Y0016163D01*
X0305222Y0016311D01*
X0305282Y0016457D01*
X0305346Y0016602D01*
X0305414Y0016745D01*
X0305485Y0016887D01*
X0305559Y0017027D01*
X0305637Y0017164D01*
X0305719Y0017300D01*
X0305803Y0017434D01*
X0305892Y0017565D01*
X0305983Y0017694D01*
X0306078Y0017821D01*
X0306175Y0017946D01*
X0306276Y0018068D01*
X0306380Y0018187D01*
X0306487Y0018304D01*
X0306597Y0018418D01*
X0306710Y0018529D01*
X0306825Y0018638D01*
X0306943Y0018743D01*
X0307064Y0018845D01*
X0307187Y0018945D01*
X0307313Y0019041D01*
X0307441Y0019134D01*
X0307571Y0019224D01*
X0307704Y0019310D01*
X0307839Y0019394D01*
X0307975Y0019473D01*
X0308114Y0019550D01*
X0308255Y0019622D01*
X0308397Y0019692D01*
X0308541Y0019757D01*
X0308687Y0019819D01*
X0308834Y0019877D01*
X0308983Y0019932D01*
X0309133Y0019983D01*
X0309284Y0020030D01*
X0309436Y0020073D01*
X0309589Y0020112D01*
X0309744Y0020148D01*
X0309899Y0020179D01*
X0310055Y0020207D01*
X0310211Y0020231D01*
X0310368Y0020251D01*
X0310526Y0020267D01*
X0310683Y0020279D01*
X0310842Y0020287D01*
X0311000Y0020291D01*
X0311158Y0020291D01*
X0311316Y0020287D01*
X0311475Y0020279D01*
X0311632Y0020267D01*
X0311790Y0020251D01*
X0311947Y0020231D01*
X0312103Y0020207D01*
X0312259Y0020179D01*
X0312414Y0020148D01*
X0312569Y0020112D01*
X0312722Y0020073D01*
X0312874Y0020030D01*
X0313025Y0019983D01*
X0313175Y0019932D01*
X0313324Y0019877D01*
X0313471Y0019819D01*
X0313617Y0019757D01*
X0313761Y0019692D01*
X0313903Y0019622D01*
X0314044Y0019550D01*
X0314183Y0019473D01*
X0314319Y0019394D01*
X0314454Y0019310D01*
X0314587Y0019224D01*
X0314717Y0019134D01*
X0314845Y0019041D01*
X0314971Y0018945D01*
X0315094Y0018845D01*
X0315215Y0018743D01*
X0315333Y0018638D01*
X0315448Y0018529D01*
X0315561Y0018418D01*
X0315671Y0018304D01*
X0315778Y0018187D01*
X0315882Y0018068D01*
X0315983Y0017946D01*
X0316080Y0017821D01*
X0316175Y0017694D01*
X0316266Y0017565D01*
X0316355Y0017434D01*
X0316439Y0017300D01*
X0316521Y0017164D01*
X0316599Y0017027D01*
X0316673Y0016887D01*
X0316744Y0016745D01*
X0316812Y0016602D01*
X0316876Y0016457D01*
X0316936Y0016311D01*
X0316992Y0016163D01*
X0317045Y0016014D01*
X0317094Y0015863D01*
X0317139Y0015711D01*
X0317180Y0015558D01*
X0317218Y0015405D01*
X0317251Y0015250D01*
X0317281Y0015094D01*
X0317307Y0014938D01*
X0317328Y0014781D01*
X0317346Y0014624D01*
X0317360Y0014466D01*
X0317370Y0014308D01*
X0317376Y0014150D01*
X0317378Y0013992D01*
X0317376Y0013834D01*
X0317370Y0013676D01*
X0317360Y0013518D01*
X0317346Y0013360D01*
X0317328Y0013203D01*
X0317307Y0013046D01*
X0317281Y0012890D01*
X0317251Y0012734D01*
X0317218Y0012579D01*
X0317180Y0012426D01*
X0317139Y0012273D01*
X0317094Y0012121D01*
X0317045Y0011970D01*
X0316992Y0011821D01*
X0316936Y0011673D01*
X0316876Y0011527D01*
X0316812Y0011382D01*
X0316744Y0011239D01*
X0316673Y0011097D01*
X0316599Y0010957D01*
X0316521Y0010820D01*
X0316439Y0010684D01*
X0316355Y0010550D01*
X0316266Y0010419D01*
X0316175Y0010290D01*
X0316080Y0010163D01*
X0315983Y0010038D01*
X0315882Y0009916D01*
X0315778Y0009797D01*
X0315671Y0009680D01*
X0315561Y0009566D01*
X0315448Y0009455D01*
X0315333Y0009346D01*
X0315215Y0009241D01*
X0315094Y0009139D01*
X0314971Y0009039D01*
X0314845Y0008943D01*
X0314717Y0008850D01*
X0314587Y0008760D01*
X0314454Y0008674D01*
X0314319Y0008590D01*
X0314183Y0008511D01*
X0314044Y0008434D01*
X0313903Y0008362D01*
X0313761Y0008292D01*
X0313617Y0008227D01*
X0313471Y0008165D01*
X0313324Y0008107D01*
X0313175Y0008052D01*
X0313025Y0008001D01*
X0312874Y0007954D01*
X0312722Y0007911D01*
X0312569Y0007872D01*
X0312414Y0007836D01*
X0312259Y0007805D01*
X0312103Y0007777D01*
X0311947Y0007753D01*
X0311790Y0007733D01*
X0311632Y0007717D01*
X0311475Y0007705D01*
X0311316Y0007697D01*
X0311158Y0007693D01*
X0311000Y0007693D01*
X0310842Y0007697D01*
X0310683Y0007705D01*
X0310526Y0007717D01*
X0310368Y0007733D01*
X0310211Y0007753D01*
X0310055Y0007777D01*
X0309899Y0007805D01*
X0309744Y0007836D01*
X0309589Y0007872D01*
X0309436Y0007911D01*
X0309284Y0007954D01*
X0309133Y0008001D01*
X0308983Y0008052D01*
X0308834Y0008107D01*
X0308687Y0008165D01*
X0308541Y0008227D01*
X0308397Y0008292D01*
X0308255Y0008362D01*
X0308114Y0008434D01*
X0307975Y0008511D01*
X0307839Y0008590D01*
X0307704Y0008674D01*
X0307571Y0008760D01*
X0307441Y0008850D01*
X0307313Y0008943D01*
X0307187Y0009039D01*
X0307064Y0009139D01*
X0306943Y0009241D01*
X0306825Y0009346D01*
X0306710Y0009455D01*
X0306597Y0009566D01*
X0306487Y0009680D01*
X0306380Y0009797D01*
X0306276Y0009916D01*
X0306175Y0010038D01*
X0306078Y0010163D01*
X0305983Y0010290D01*
X0305892Y0010419D01*
X0305803Y0010550D01*
X0305719Y0010684D01*
X0305637Y0010820D01*
X0305559Y0010957D01*
X0305485Y0011097D01*
X0305414Y0011239D01*
X0305346Y0011382D01*
X0305282Y0011527D01*
X0305222Y0011673D01*
X0305166Y0011821D01*
X0305113Y0011970D01*
X0305064Y0012121D01*
X0305019Y0012273D01*
X0304978Y0012426D01*
X0304940Y0012579D01*
X0304907Y0012734D01*
X0304877Y0012890D01*
X0304851Y0013046D01*
X0304830Y0013203D01*
X0304812Y0013360D01*
X0304798Y0013518D01*
X0304788Y0013676D01*
X0304782Y0013834D01*
X0304780Y0013992D01*
D11*
X0304937Y0177575D03*
D12*
X0304937Y0187575D03*
D13*
X0267063Y0182260D03*
X0250055Y0203717D03*
X0267063Y0212260D03*
X0250055Y0233717D03*
D14*
X0246000Y0190923D02*
X0246000Y0185723D01*
X0236000Y0185723D02*
X0236000Y0190923D01*
X0226000Y0190923D02*
X0226000Y0185723D01*
X0216000Y0185723D02*
X0216000Y0190923D01*
X0206000Y0190923D02*
X0206000Y0185723D01*
X0196000Y0185723D02*
X0196000Y0190923D01*
X0186000Y0190923D02*
X0186000Y0185723D01*
X0176000Y0185723D02*
X0176000Y0190923D01*
X0166000Y0190923D02*
X0166000Y0185723D01*
X0156000Y0185723D02*
X0156000Y0190923D01*
X0146000Y0190923D02*
X0146000Y0185723D01*
X0136000Y0185723D02*
X0136000Y0190923D01*
X0126000Y0190923D02*
X0126000Y0185723D01*
X0116000Y0185723D02*
X0116000Y0190923D01*
X0116000Y0160923D02*
X0116000Y0155723D01*
X0126000Y0155723D02*
X0126000Y0160923D01*
X0136000Y0160923D02*
X0136000Y0155723D01*
X0146000Y0155723D02*
X0146000Y0160923D01*
X0156000Y0160923D02*
X0156000Y0155723D01*
X0166000Y0155723D02*
X0166000Y0160923D01*
X0176000Y0160923D02*
X0176000Y0155723D01*
X0186000Y0155723D02*
X0186000Y0160923D01*
X0196000Y0160923D02*
X0196000Y0155723D01*
X0206000Y0155723D02*
X0206000Y0160923D01*
X0216000Y0160923D02*
X0216000Y0155723D01*
X0226000Y0155723D02*
X0226000Y0160923D01*
X0236000Y0160923D02*
X0236000Y0155723D01*
X0246000Y0155723D02*
X0246000Y0160923D01*
X0128520Y0047261D02*
X0128520Y0042061D01*
X0118520Y0042061D02*
X0118520Y0047261D01*
X0108520Y0047261D02*
X0108520Y0042061D01*
X0108520Y0017261D02*
X0108520Y0012061D01*
X0118520Y0012061D02*
X0118520Y0017261D01*
X0128520Y0017261D02*
X0128520Y0012061D01*
D15*
X0276363Y0233323D03*
D16*
X0288874Y0248132D03*
X0305185Y0233423D03*
D17*
X0271000Y0168323D03*
X0271000Y0138323D03*
X0271000Y0118323D03*
X0271000Y0088323D03*
X0217811Y0116354D03*
X0206000Y0128165D03*
X0194189Y0139976D03*
X0176000Y0128165D03*
X0187811Y0116354D03*
X0164189Y0139976D03*
X0078835Y0130134D03*
X0048835Y0130134D03*
X0048441Y0170291D03*
X0078441Y0170291D03*
X0078835Y0211236D03*
X0096512Y0219465D03*
X0096512Y0249465D03*
X0048835Y0211236D03*
X0048441Y0089976D03*
X0078441Y0089976D03*
X0078835Y0049425D03*
X0048835Y0049425D03*
X0048835Y0009268D03*
X0078835Y0009268D03*
D18*
X0068598Y0029496D02*
X0068598Y0035496D01*
X0058598Y0035496D02*
X0058598Y0029496D01*
X0048598Y0029496D02*
X0048598Y0035496D01*
X0038598Y0035496D02*
X0038598Y0029496D01*
X0038598Y0070047D02*
X0038598Y0076047D01*
X0048598Y0076047D02*
X0048598Y0070047D01*
X0058598Y0070047D02*
X0058598Y0076047D01*
X0068598Y0076047D02*
X0068598Y0070047D01*
X0068598Y0110205D02*
X0068598Y0116205D01*
X0058598Y0116205D02*
X0058598Y0110205D01*
X0048598Y0110205D02*
X0048598Y0116205D01*
X0038598Y0116205D02*
X0038598Y0110205D01*
X0038598Y0150362D02*
X0038598Y0156362D01*
X0048598Y0156362D02*
X0048598Y0150362D01*
X0058598Y0150362D02*
X0058598Y0156362D01*
X0068598Y0156362D02*
X0068598Y0150362D01*
X0068598Y0190913D02*
X0068598Y0196913D01*
X0058598Y0196913D02*
X0058598Y0190913D01*
X0048598Y0190913D02*
X0048598Y0196913D01*
X0038598Y0196913D02*
X0038598Y0190913D01*
X0038992Y0231465D02*
X0038992Y0237465D01*
X0048992Y0237465D02*
X0048992Y0231465D01*
X0058992Y0231465D02*
X0058992Y0237465D01*
X0068992Y0237465D02*
X0068992Y0231465D01*
X0280200Y0162223D02*
X0286200Y0162223D01*
X0305800Y0162223D02*
X0311800Y0162223D01*
X0311800Y0144423D02*
X0305800Y0144423D01*
X0286200Y0144423D02*
X0280200Y0144423D01*
X0280200Y0117223D02*
X0286200Y0117223D01*
X0305800Y0117223D02*
X0311800Y0117223D01*
X0311800Y0099423D02*
X0305800Y0099423D01*
X0286200Y0099423D02*
X0280200Y0099423D01*
X0234346Y0022504D02*
X0234346Y0016504D01*
X0224346Y0016504D02*
X0224346Y0022504D01*
X0214346Y0022504D02*
X0214346Y0016504D01*
X0204346Y0016504D02*
X0204346Y0022504D01*
X0182378Y0022898D02*
X0182378Y0016898D01*
X0172378Y0016898D02*
X0172378Y0022898D01*
X0162378Y0022898D02*
X0162378Y0016898D01*
X0152378Y0016898D02*
X0152378Y0022898D01*
D19*
X0126000Y0083323D03*
X0116000Y0083323D03*
X0106000Y0083323D03*
X0106000Y0093323D03*
X0116000Y0093323D03*
X0126000Y0093323D03*
X0151000Y0218323D03*
X0161000Y0218323D03*
X0171000Y0218323D03*
X0189622Y0246276D03*
X0199622Y0246276D03*
X0209622Y0246276D03*
X0219622Y0246276D03*
X0229622Y0246276D03*
X0239622Y0246276D03*
X0125134Y0242339D03*
X0115134Y0242339D03*
D20*
X0283362Y0036477D02*
X0283362Y0030877D01*
X0293362Y0030877D02*
X0293362Y0036477D01*
X0303362Y0036477D02*
X0303362Y0030877D01*
X0262142Y0021910D02*
X0262142Y0016310D01*
X0252142Y0016310D02*
X0252142Y0021910D01*
D21*
X0277299Y0202969D03*
X0317299Y0202969D03*
D22*
X0159504Y0124228D03*
X0116224Y0118458D03*
X0105843Y0119150D03*
X0096512Y0128165D03*
D23*
X0096153Y0128148D01*
X0083694Y0128148D01*
X0078850Y0123303D01*
X0069160Y0132993D01*
X0069160Y0153065D01*
X0068598Y0153362D01*
X0068583Y0153346D02*
X0068614Y0153346D01*
X0068614Y0145378D01*
X0068991Y0145378D01*
X0069766Y0145501D01*
X0070512Y0145743D01*
X0071211Y0146099D01*
X0071845Y0146560D01*
X0072400Y0147115D01*
X0072861Y0147750D01*
X0073218Y0148449D01*
X0073460Y0149195D01*
X0073583Y0149970D01*
X0073583Y0153346D01*
X0068614Y0153346D01*
X0068614Y0153378D01*
X0068583Y0153378D01*
X0068583Y0161346D01*
X0068206Y0161346D01*
X0067431Y0161224D01*
X0066685Y0160981D01*
X0066391Y0160832D01*
X0066391Y0160915D01*
X0074057Y0168581D01*
X0074057Y0168475D01*
X0075786Y0166746D01*
X0075786Y0133285D01*
X0074450Y0131950D01*
X0074450Y0128318D01*
X0077019Y0125750D01*
X0080651Y0125750D01*
X0083219Y0128318D01*
X0083219Y0131950D01*
X0081913Y0133255D01*
X0081913Y0167564D01*
X0082825Y0168475D01*
X0082825Y0172107D01*
X0082488Y0172444D01*
X0112622Y0172444D01*
X0113640Y0172866D01*
X0123148Y0182374D01*
X0123517Y0182006D01*
X0125128Y0181339D01*
X0125356Y0181339D01*
X0098737Y0154719D01*
X0097958Y0153941D01*
X0097537Y0152923D01*
X0097537Y0124450D01*
X0057210Y0084123D01*
X0056431Y0083344D01*
X0056009Y0082326D01*
X0056009Y0080153D01*
X0055888Y0080103D01*
X0054543Y0078757D01*
X0053814Y0076999D01*
X0053814Y0069096D01*
X0054543Y0067337D01*
X0055888Y0065991D01*
X0057647Y0065263D01*
X0059550Y0065263D01*
X0061308Y0065991D01*
X0062654Y0067337D01*
X0063383Y0069096D01*
X0063383Y0076999D01*
X0062654Y0078757D01*
X0061546Y0079865D01*
X0061546Y0080629D01*
X0094769Y0113851D01*
X0094769Y0083301D01*
X0095190Y0082284D01*
X0095969Y0081505D01*
X0100248Y0077226D01*
X0095345Y0077226D01*
X0082825Y0089746D01*
X0082825Y0091792D01*
X0080257Y0094361D01*
X0076625Y0094361D01*
X0074057Y0091792D01*
X0074057Y0088160D01*
X0076625Y0085592D01*
X0078314Y0085592D01*
X0092341Y0071565D01*
X0093467Y0071098D01*
X0116142Y0071098D01*
X0117268Y0071565D01*
X0118130Y0072427D01*
X0123942Y0078239D01*
X0124909Y0077839D01*
X0124983Y0077839D01*
X0116646Y0069501D01*
X0116224Y0068484D01*
X0116224Y0051056D01*
X0116036Y0050978D01*
X0114803Y0049745D01*
X0114135Y0048134D01*
X0114135Y0042792D01*
X0112904Y0044023D01*
X0112904Y0048134D01*
X0112236Y0049745D01*
X0111003Y0050978D01*
X0109392Y0051646D01*
X0107648Y0051646D01*
X0106036Y0050978D01*
X0104803Y0049745D01*
X0104135Y0048134D01*
X0104135Y0041189D01*
X0104803Y0039578D01*
X0106036Y0038345D01*
X0107648Y0037677D01*
X0109392Y0037677D01*
X0110826Y0038271D01*
X0113185Y0035911D01*
X0113964Y0035133D01*
X0114982Y0034711D01*
X0120928Y0034711D01*
X0121945Y0035133D01*
X0125406Y0038593D01*
X0125597Y0038784D01*
X0126036Y0038345D01*
X0127648Y0037677D01*
X0129392Y0037677D01*
X0131003Y0038345D01*
X0132236Y0039578D01*
X0132904Y0041189D01*
X0132904Y0048134D01*
X0132236Y0049745D01*
X0131003Y0050978D01*
X0129392Y0051646D01*
X0127648Y0051646D01*
X0126606Y0051214D01*
X0126606Y0067478D01*
X0182160Y0123033D01*
X0182939Y0123811D01*
X0183361Y0124829D01*
X0183361Y0130775D01*
X0182939Y0131793D01*
X0178278Y0136454D01*
X0193739Y0151914D01*
X0195128Y0151339D01*
X0196872Y0151339D01*
X0198483Y0152006D01*
X0199717Y0153239D01*
X0200384Y0154851D01*
X0200384Y0161795D01*
X0199717Y0163406D01*
X0198483Y0164640D01*
X0196872Y0165307D01*
X0195128Y0165307D01*
X0193517Y0164640D01*
X0192283Y0163406D01*
X0191616Y0161795D01*
X0191616Y0157622D01*
X0190584Y0156590D01*
X0190584Y0158323D01*
X0190584Y0161284D01*
X0190471Y0161996D01*
X0190248Y0162683D01*
X0189921Y0163326D01*
X0189497Y0163909D01*
X0188986Y0164420D01*
X0188403Y0164844D01*
X0187760Y0165171D01*
X0187073Y0165394D01*
X0186361Y0165507D01*
X0186000Y0165507D01*
X0186000Y0158323D01*
X0186000Y0158323D01*
X0186000Y0165507D01*
X0185639Y0165507D01*
X0184927Y0165394D01*
X0184240Y0165171D01*
X0183597Y0164844D01*
X0183014Y0164420D01*
X0182503Y0163909D01*
X0182079Y0163326D01*
X0181752Y0162683D01*
X0181529Y0161996D01*
X0181416Y0161284D01*
X0181416Y0158323D01*
X0186000Y0158323D01*
X0190584Y0158323D01*
X0186000Y0158323D01*
X0186000Y0158323D01*
X0186129Y0158602D01*
X0193050Y0165523D01*
X0197895Y0165523D01*
X0200664Y0162754D01*
X0200664Y0153757D01*
X0195127Y0148220D01*
X0195127Y0140606D01*
X0194189Y0139976D01*
X0194189Y0135392D01*
X0196088Y0135392D01*
X0198773Y0138078D01*
X0198773Y0139976D01*
X0194189Y0139976D01*
X0194189Y0139976D01*
X0194189Y0135392D01*
X0192290Y0135392D01*
X0189605Y0138078D01*
X0189605Y0139976D01*
X0194189Y0139976D01*
X0194189Y0139976D01*
X0194189Y0139976D01*
X0194435Y0139914D01*
X0205509Y0128840D01*
X0206000Y0128165D01*
X0206000Y0123581D01*
X0207899Y0123581D01*
X0210584Y0126266D01*
X0210584Y0128165D01*
X0206000Y0128165D01*
X0206000Y0128165D01*
X0206000Y0123581D01*
X0204101Y0123581D01*
X0201416Y0126266D01*
X0201416Y0128165D01*
X0206000Y0128165D01*
X0206000Y0128165D01*
X0206000Y0128165D01*
X0210584Y0128165D01*
X0210584Y0130064D01*
X0207899Y0132750D01*
X0206000Y0132750D01*
X0204101Y0132750D01*
X0201416Y0130064D01*
X0201416Y0128165D01*
X0206000Y0128165D01*
X0206000Y0132750D01*
X0206000Y0128165D01*
X0206000Y0128165D01*
X0206000Y0128070D02*
X0206000Y0128070D01*
X0206000Y0126103D02*
X0206000Y0126103D01*
X0206000Y0124136D02*
X0206000Y0124136D01*
X0208454Y0124136D02*
X0227657Y0124136D01*
X0227657Y0122169D02*
X0181297Y0122169D01*
X0183074Y0124136D02*
X0203546Y0124136D01*
X0201579Y0126103D02*
X0183361Y0126103D01*
X0183361Y0128070D02*
X0201416Y0128070D01*
X0201416Y0130037D02*
X0183361Y0130037D01*
X0182728Y0132004D02*
X0203356Y0132004D01*
X0206000Y0132004D02*
X0206000Y0132004D01*
X0206000Y0130037D02*
X0206000Y0130037D01*
X0208644Y0132004D02*
X0227657Y0132004D01*
X0227657Y0130037D02*
X0210584Y0130037D01*
X0210584Y0128070D02*
X0227657Y0128070D01*
X0227657Y0126103D02*
X0210421Y0126103D01*
X0215912Y0120939D02*
X0213227Y0118253D01*
X0213227Y0116354D01*
X0213227Y0114455D01*
X0215912Y0111770D01*
X0217811Y0111770D01*
X0217811Y0116354D01*
X0217811Y0116354D01*
X0217811Y0111770D01*
X0219710Y0111770D01*
X0222395Y0114455D01*
X0222395Y0116354D01*
X0217811Y0116354D01*
X0213227Y0116354D01*
X0217811Y0116354D01*
X0217811Y0116354D01*
X0217811Y0116354D01*
X0217275Y0115690D01*
X0197203Y0095618D01*
X0197203Y0028482D01*
X0196511Y0027790D01*
X0204124Y0020176D01*
X0204346Y0019504D01*
X0204331Y0019520D02*
X0204331Y0019488D01*
X0199362Y0019488D01*
X0199362Y0016112D01*
X0199485Y0015337D01*
X0199727Y0014591D01*
X0200055Y0013947D01*
X0186193Y0013947D01*
X0186434Y0014188D01*
X0187162Y0015946D01*
X0187162Y0023849D01*
X0186434Y0025608D01*
X0185088Y0026954D01*
X0183330Y0027682D01*
X0181426Y0027682D01*
X0179668Y0026954D01*
X0178322Y0025608D01*
X0177594Y0023849D01*
X0177594Y0015946D01*
X0178322Y0014188D01*
X0178562Y0013947D01*
X0176193Y0013947D01*
X0176434Y0014188D01*
X0177162Y0015946D01*
X0177162Y0023849D01*
X0176434Y0025608D01*
X0175088Y0026954D01*
X0173330Y0027682D01*
X0171426Y0027682D01*
X0169668Y0026954D01*
X0168322Y0025608D01*
X0167594Y0023849D01*
X0167594Y0018403D01*
X0167162Y0018834D01*
X0167162Y0023849D01*
X0166434Y0025608D01*
X0165088Y0026954D01*
X0163330Y0027682D01*
X0161426Y0027682D01*
X0159668Y0026954D01*
X0158322Y0025608D01*
X0157594Y0023849D01*
X0157594Y0015946D01*
X0158322Y0014188D01*
X0159668Y0012842D01*
X0161426Y0012113D01*
X0163330Y0012113D01*
X0165088Y0012842D01*
X0165206Y0012960D01*
X0169334Y0008832D01*
X0170352Y0008410D01*
X0206751Y0008410D01*
X0207769Y0008832D01*
X0211511Y0012574D01*
X0211636Y0012448D01*
X0213395Y0011720D01*
X0215298Y0011720D01*
X0217057Y0012448D01*
X0218402Y0013794D01*
X0219131Y0015552D01*
X0219131Y0020886D01*
X0219562Y0021317D01*
X0219562Y0015552D01*
X0220291Y0013794D01*
X0221636Y0012448D01*
X0223395Y0011720D01*
X0225298Y0011720D01*
X0227057Y0012448D01*
X0228402Y0013794D01*
X0229131Y0015552D01*
X0229131Y0020504D01*
X0229562Y0020935D01*
X0229562Y0015552D01*
X0230291Y0013794D01*
X0231636Y0012448D01*
X0233395Y0011720D01*
X0235298Y0011720D01*
X0237057Y0012448D01*
X0238402Y0013794D01*
X0239131Y0015552D01*
X0239131Y0020396D01*
X0242768Y0024034D01*
X0248059Y0024034D01*
X0247557Y0022822D01*
X0247557Y0015398D01*
X0248255Y0013713D01*
X0249545Y0012424D01*
X0251230Y0011726D01*
X0253054Y0011726D01*
X0254738Y0012424D01*
X0256028Y0013713D01*
X0256726Y0015398D01*
X0256726Y0022822D01*
X0256224Y0024034D01*
X0256841Y0024034D01*
X0257703Y0023172D01*
X0257557Y0022822D01*
X0257557Y0015398D01*
X0258255Y0013713D01*
X0259545Y0012424D01*
X0261230Y0011726D01*
X0263054Y0011726D01*
X0264738Y0012424D01*
X0266028Y0013713D01*
X0266726Y0015398D01*
X0266726Y0022822D01*
X0266028Y0024507D01*
X0264738Y0025797D01*
X0263054Y0026494D01*
X0263046Y0026494D01*
X0262443Y0027098D01*
X0280298Y0044953D01*
X0280298Y0039896D01*
X0279476Y0039074D01*
X0278778Y0037389D01*
X0278778Y0029965D01*
X0279476Y0028280D01*
X0280765Y0026991D01*
X0282450Y0026293D01*
X0284274Y0026293D01*
X0285959Y0026991D01*
X0287249Y0028280D01*
X0287946Y0029965D01*
X0287946Y0037389D01*
X0287249Y0039074D01*
X0286426Y0039896D01*
X0286426Y0048224D01*
X0285960Y0049350D01*
X0285327Y0049982D01*
X0285624Y0050279D01*
X0286091Y0051405D01*
X0286091Y0094639D01*
X0287152Y0094639D01*
X0288910Y0095367D01*
X0290256Y0096713D01*
X0290984Y0098471D01*
X0290984Y0100374D01*
X0290256Y0102133D01*
X0288910Y0103479D01*
X0287152Y0104207D01*
X0279248Y0104207D01*
X0277490Y0103479D01*
X0276144Y0102133D01*
X0275416Y0100374D01*
X0275416Y0098471D01*
X0276144Y0096713D01*
X0277490Y0095367D01*
X0279248Y0094639D01*
X0279963Y0094639D01*
X0279963Y0053283D01*
X0279259Y0052579D01*
X0278397Y0051717D01*
X0256841Y0030161D01*
X0240890Y0030161D01*
X0239764Y0029695D01*
X0236754Y0026685D01*
X0235734Y0027107D01*
X0238309Y0029682D01*
X0238731Y0030700D01*
X0238731Y0152253D01*
X0239717Y0153239D01*
X0240384Y0154851D01*
X0240384Y0159954D01*
X0241616Y0158723D01*
X0241616Y0154851D01*
X0242283Y0153239D01*
X0243517Y0152006D01*
X0245128Y0151339D01*
X0246872Y0151339D01*
X0248483Y0152006D01*
X0249717Y0153239D01*
X0250384Y0154851D01*
X0250384Y0161795D01*
X0249717Y0163406D01*
X0248483Y0164640D01*
X0246872Y0165307D01*
X0245128Y0165307D01*
X0243525Y0164643D01*
X0241078Y0167091D01*
X0240299Y0167870D01*
X0239281Y0168291D01*
X0233335Y0168291D01*
X0232318Y0167870D01*
X0228857Y0164409D01*
X0228785Y0164338D01*
X0228483Y0164640D01*
X0226872Y0165307D01*
X0225128Y0165307D01*
X0223517Y0164640D01*
X0222283Y0163406D01*
X0221616Y0161795D01*
X0221616Y0154851D01*
X0222283Y0153239D01*
X0223517Y0152006D01*
X0225128Y0151339D01*
X0226872Y0151339D01*
X0227657Y0151664D01*
X0227657Y0037242D01*
X0216999Y0026584D01*
X0215298Y0027288D01*
X0213395Y0027288D01*
X0211636Y0026560D01*
X0210291Y0025214D01*
X0209562Y0023456D01*
X0209562Y0018455D01*
X0209331Y0018224D01*
X0209331Y0019488D01*
X0204362Y0019488D01*
X0204362Y0019520D01*
X0204331Y0019520D01*
X0204331Y0027488D01*
X0203954Y0027488D01*
X0203179Y0027365D01*
X0202433Y0027123D01*
X0201734Y0026767D01*
X0201099Y0026306D01*
X0200545Y0025751D01*
X0200084Y0025116D01*
X0199727Y0024417D01*
X0199485Y0023671D01*
X0199362Y0022896D01*
X0199362Y0019520D01*
X0204331Y0019520D01*
X0204362Y0019520D02*
X0204362Y0027488D01*
X0204739Y0027488D01*
X0205514Y0027365D01*
X0206260Y0027123D01*
X0206959Y0026767D01*
X0207593Y0026306D01*
X0208148Y0025751D01*
X0208609Y0025116D01*
X0208966Y0024417D01*
X0209208Y0023671D01*
X0209331Y0022896D01*
X0209331Y0019520D01*
X0204362Y0019520D01*
X0204362Y0019884D02*
X0204331Y0019884D01*
X0204331Y0021851D02*
X0204362Y0021851D01*
X0204331Y0023818D02*
X0204362Y0023818D01*
X0204331Y0025785D02*
X0204362Y0025785D01*
X0208114Y0025785D02*
X0210862Y0025785D01*
X0209712Y0023818D02*
X0209160Y0023818D01*
X0209331Y0021851D02*
X0209562Y0021851D01*
X0209562Y0019884D02*
X0209331Y0019884D01*
X0213814Y0018792D02*
X0214346Y0019504D01*
X0214506Y0020176D01*
X0230425Y0036095D01*
X0230425Y0162062D01*
X0233886Y0165523D01*
X0238731Y0165523D01*
X0245652Y0158602D01*
X0246000Y0158323D01*
X0250384Y0157575D02*
X0268197Y0157575D01*
X0268197Y0155608D02*
X0250384Y0155608D01*
X0249883Y0153641D02*
X0268197Y0153641D01*
X0268197Y0151674D02*
X0247682Y0151674D01*
X0244317Y0151674D02*
X0238731Y0151674D01*
X0238731Y0149707D02*
X0268197Y0149707D01*
X0268197Y0147740D02*
X0238731Y0147740D01*
X0238731Y0145773D02*
X0268197Y0145773D01*
X0268197Y0143806D02*
X0238731Y0143806D01*
X0238731Y0141839D02*
X0268197Y0141839D01*
X0268197Y0141720D02*
X0266616Y0140139D01*
X0266616Y0136507D01*
X0269184Y0133939D01*
X0272816Y0133939D01*
X0275384Y0136507D01*
X0275384Y0140139D01*
X0274324Y0141199D01*
X0274324Y0160101D01*
X0275439Y0161215D01*
X0276144Y0159513D01*
X0277490Y0158167D01*
X0279248Y0157439D01*
X0287152Y0157439D01*
X0288910Y0158167D01*
X0290256Y0159513D01*
X0290984Y0161271D01*
X0290984Y0163174D01*
X0290256Y0164933D01*
X0288910Y0166279D01*
X0287152Y0167007D01*
X0279861Y0167007D01*
X0279861Y0198527D01*
X0280179Y0198658D01*
X0281609Y0200088D01*
X0282383Y0201957D01*
X0282383Y0203980D01*
X0281609Y0205848D01*
X0280179Y0207279D01*
X0278311Y0208053D01*
X0276288Y0208053D01*
X0274419Y0207279D01*
X0272989Y0205848D01*
X0272215Y0203980D01*
X0272215Y0201957D01*
X0272989Y0200088D01*
X0273734Y0199344D01*
X0273734Y0171789D01*
X0272816Y0172707D01*
X0269184Y0172707D01*
X0266616Y0170139D01*
X0266616Y0166507D01*
X0269184Y0163939D01*
X0269496Y0163939D01*
X0268663Y0163106D01*
X0268197Y0161980D01*
X0268197Y0141720D01*
X0266616Y0139872D02*
X0238731Y0139872D01*
X0238731Y0137905D02*
X0266616Y0137905D01*
X0267184Y0135938D02*
X0238731Y0135938D01*
X0238731Y0133971D02*
X0269151Y0133971D01*
X0272849Y0133971D02*
X0320067Y0133971D01*
X0320070Y0132004D02*
X0238731Y0132004D01*
X0238731Y0130037D02*
X0320073Y0130037D01*
X0320076Y0128070D02*
X0238731Y0128070D01*
X0238731Y0126103D02*
X0320079Y0126103D01*
X0320082Y0124136D02*
X0238731Y0124136D01*
X0238731Y0122169D02*
X0268646Y0122169D01*
X0269184Y0122707D02*
X0266616Y0120139D01*
X0266616Y0116507D01*
X0269184Y0113939D01*
X0272816Y0113939D01*
X0275384Y0116507D01*
X0275384Y0120139D01*
X0272816Y0122707D01*
X0269184Y0122707D01*
X0266679Y0120202D02*
X0238731Y0120202D01*
X0238731Y0118235D02*
X0266616Y0118235D01*
X0266855Y0116268D02*
X0238731Y0116268D01*
X0238731Y0114301D02*
X0268822Y0114301D01*
X0271261Y0112229D02*
X0275413Y0116382D01*
X0275413Y0136454D01*
X0283027Y0144067D01*
X0283200Y0144423D01*
X0299425Y0112450D01*
X0303362Y0033677D01*
X0298578Y0033677D01*
X0298578Y0030501D01*
X0298696Y0029757D01*
X0298928Y0029041D01*
X0299270Y0028370D01*
X0299713Y0027760D01*
X0300245Y0027228D01*
X0300855Y0026785D01*
X0301526Y0026443D01*
X0302242Y0026211D01*
X0302986Y0026093D01*
X0303362Y0026093D01*
X0303362Y0033677D01*
X0303362Y0033677D01*
X0303362Y0033677D01*
X0298578Y0033677D01*
X0298578Y0036854D01*
X0298696Y0037597D01*
X0298928Y0038314D01*
X0299270Y0038985D01*
X0299713Y0039594D01*
X0300245Y0040126D01*
X0300855Y0040569D01*
X0301526Y0040911D01*
X0302242Y0041144D01*
X0302986Y0041261D01*
X0303362Y0041261D01*
X0303362Y0033677D01*
X0293362Y0033677D01*
X0288578Y0033677D01*
X0288578Y0030501D01*
X0288696Y0029757D01*
X0288928Y0029041D01*
X0289270Y0028370D01*
X0289713Y0027760D01*
X0290245Y0027228D01*
X0290855Y0026785D01*
X0291526Y0026443D01*
X0292242Y0026211D01*
X0292986Y0026093D01*
X0293362Y0026093D01*
X0293362Y0033677D01*
X0293362Y0033677D01*
X0293362Y0033677D01*
X0288578Y0033677D01*
X0288578Y0036854D01*
X0288696Y0037597D01*
X0288928Y0038314D01*
X0289270Y0038985D01*
X0289713Y0039594D01*
X0290245Y0040126D01*
X0290855Y0040569D01*
X0291526Y0040911D01*
X0292242Y0041144D01*
X0292986Y0041261D01*
X0293362Y0041261D01*
X0293362Y0033677D01*
X0293362Y0026093D01*
X0293739Y0026093D01*
X0294483Y0026211D01*
X0295199Y0026443D01*
X0295870Y0026785D01*
X0296479Y0027228D01*
X0297011Y0027760D01*
X0297454Y0028370D01*
X0297796Y0029041D01*
X0298029Y0029757D01*
X0298146Y0030501D01*
X0298146Y0033677D01*
X0293362Y0033677D01*
X0293362Y0033677D01*
X0293362Y0033677D01*
X0298146Y0033677D01*
X0298146Y0036854D01*
X0298029Y0037597D01*
X0297796Y0038314D01*
X0297454Y0038985D01*
X0297011Y0039594D01*
X0296479Y0040126D01*
X0295870Y0040569D01*
X0295199Y0040911D01*
X0294483Y0041144D01*
X0293739Y0041261D01*
X0293362Y0041261D01*
X0293362Y0033677D01*
X0293362Y0033653D02*
X0293362Y0033653D01*
X0293362Y0031686D02*
X0293362Y0031686D01*
X0293362Y0029719D02*
X0293362Y0029719D01*
X0293362Y0027752D02*
X0293362Y0027752D01*
X0289721Y0027752D02*
X0286720Y0027752D01*
X0287845Y0029719D02*
X0288708Y0029719D01*
X0288578Y0031686D02*
X0287946Y0031686D01*
X0287946Y0033653D02*
X0288578Y0033653D01*
X0288578Y0035620D02*
X0287946Y0035620D01*
X0287864Y0037587D02*
X0288694Y0037587D01*
X0289684Y0039554D02*
X0286768Y0039554D01*
X0286426Y0041521D02*
X0320207Y0041521D01*
X0320210Y0039554D02*
X0307040Y0039554D01*
X0307011Y0039594D02*
X0306479Y0040126D01*
X0305870Y0040569D01*
X0305199Y0040911D01*
X0304483Y0041144D01*
X0303739Y0041261D01*
X0303362Y0041261D01*
X0303362Y0033677D01*
X0303362Y0026093D01*
X0303739Y0026093D01*
X0304483Y0026211D01*
X0305199Y0026443D01*
X0305870Y0026785D01*
X0306479Y0027228D01*
X0307011Y0027760D01*
X0307454Y0028370D01*
X0307796Y0029041D01*
X0308029Y0029757D01*
X0308146Y0030501D01*
X0308146Y0033677D01*
X0303362Y0033677D01*
X0303362Y0033677D01*
X0303362Y0033677D01*
X0308146Y0033677D01*
X0308146Y0036854D01*
X0308029Y0037597D01*
X0307796Y0038314D01*
X0307454Y0038985D01*
X0307011Y0039594D01*
X0308030Y0037587D02*
X0320213Y0037587D01*
X0320216Y0035620D02*
X0308146Y0035620D01*
X0308146Y0033653D02*
X0320218Y0033653D01*
X0320221Y0031686D02*
X0308146Y0031686D01*
X0308016Y0029719D02*
X0320224Y0029719D01*
X0320227Y0027752D02*
X0307003Y0027752D01*
X0306723Y0024507D02*
X0304151Y0023021D01*
X0302050Y0020920D01*
X0300564Y0018347D01*
X0299795Y0015478D01*
X0299795Y0012507D01*
X0300564Y0009637D01*
X0302050Y0007064D01*
X0303129Y0005984D01*
X0081751Y0005984D01*
X0083219Y0007452D01*
X0083219Y0011084D01*
X0080651Y0013652D01*
X0077019Y0013652D01*
X0076225Y0012858D01*
X0062123Y0012858D01*
X0050059Y0024923D01*
X0051308Y0025440D01*
X0052654Y0026786D01*
X0053383Y0028544D01*
X0053383Y0034115D01*
X0053814Y0033683D01*
X0053814Y0028544D01*
X0054543Y0026786D01*
X0055888Y0025440D01*
X0057647Y0024712D01*
X0059550Y0024712D01*
X0061308Y0025440D01*
X0062654Y0026786D01*
X0063383Y0028544D01*
X0063383Y0036448D01*
X0062654Y0038206D01*
X0061308Y0039552D01*
X0059550Y0040280D01*
X0057647Y0040280D01*
X0055888Y0039552D01*
X0055832Y0039496D01*
X0050287Y0045041D01*
X0050651Y0045041D01*
X0053219Y0047609D01*
X0053219Y0051241D01*
X0050651Y0053809D01*
X0047019Y0053809D01*
X0046320Y0053110D01*
X0046320Y0065813D01*
X0047647Y0065263D01*
X0049550Y0065263D01*
X0051308Y0065991D01*
X0052654Y0067337D01*
X0053383Y0069096D01*
X0053383Y0076999D01*
X0052654Y0078757D01*
X0051308Y0080103D01*
X0049856Y0080705D01*
X0065970Y0096818D01*
X0066391Y0097836D01*
X0066391Y0105735D01*
X0066685Y0105586D01*
X0067431Y0105343D01*
X0068206Y0105220D01*
X0068583Y0105220D01*
X0068583Y0113189D01*
X0068614Y0113189D01*
X0068614Y0105220D01*
X0068991Y0105220D01*
X0069766Y0105343D01*
X0070512Y0105586D01*
X0071211Y0105942D01*
X0071845Y0106403D01*
X0072400Y0106958D01*
X0072861Y0107592D01*
X0073218Y0108291D01*
X0073460Y0109038D01*
X0073583Y0109812D01*
X0073583Y0113189D01*
X0068614Y0113189D01*
X0068614Y0113220D01*
X0073583Y0113220D01*
X0073583Y0116597D01*
X0073460Y0117372D01*
X0073218Y0118118D01*
X0072861Y0118817D01*
X0072400Y0119452D01*
X0071845Y0120006D01*
X0071211Y0120468D01*
X0070512Y0120824D01*
X0069766Y0121066D01*
X0068991Y0121189D01*
X0068614Y0121189D01*
X0068614Y0113221D01*
X0068583Y0113221D01*
X0068583Y0121189D01*
X0068206Y0121189D01*
X0067431Y0121066D01*
X0066685Y0120824D01*
X0066391Y0120674D01*
X0066391Y0145893D01*
X0066685Y0145743D01*
X0067431Y0145501D01*
X0068206Y0145378D01*
X0068583Y0145378D01*
X0068583Y0153346D01*
X0068614Y0153378D02*
X0068614Y0161346D01*
X0068991Y0161346D01*
X0069766Y0161224D01*
X0070512Y0160981D01*
X0071211Y0160625D01*
X0071845Y0160164D01*
X0072400Y0159609D01*
X0072861Y0158975D01*
X0073218Y0158275D01*
X0073460Y0157529D01*
X0073583Y0156754D01*
X0073583Y0153378D01*
X0068614Y0153378D01*
X0068614Y0153641D02*
X0068583Y0153641D01*
X0068583Y0151674D02*
X0068614Y0151674D01*
X0068583Y0149707D02*
X0068614Y0149707D01*
X0068583Y0147740D02*
X0068614Y0147740D01*
X0068583Y0145773D02*
X0068614Y0145773D01*
X0070571Y0145773D02*
X0075786Y0145773D01*
X0075786Y0143806D02*
X0066391Y0143806D01*
X0066391Y0141839D02*
X0075786Y0141839D01*
X0075786Y0139872D02*
X0066391Y0139872D01*
X0066391Y0137905D02*
X0075786Y0137905D01*
X0075786Y0135938D02*
X0066391Y0135938D01*
X0066391Y0133971D02*
X0075786Y0133971D01*
X0074505Y0132004D02*
X0066391Y0132004D01*
X0066391Y0130037D02*
X0074450Y0130037D01*
X0074698Y0128070D02*
X0066391Y0128070D01*
X0066391Y0126103D02*
X0076665Y0126103D01*
X0078850Y0123303D02*
X0069160Y0113613D01*
X0068598Y0113205D01*
X0068583Y0112334D02*
X0068614Y0112334D01*
X0068583Y0114301D02*
X0068614Y0114301D01*
X0068583Y0116268D02*
X0068614Y0116268D01*
X0068583Y0118235D02*
X0068614Y0118235D01*
X0068583Y0120202D02*
X0068614Y0120202D01*
X0071576Y0120202D02*
X0093289Y0120202D01*
X0091322Y0118235D02*
X0073158Y0118235D01*
X0073583Y0116268D02*
X0089355Y0116268D01*
X0087388Y0114301D02*
X0073583Y0114301D01*
X0073583Y0112334D02*
X0085421Y0112334D01*
X0083454Y0110367D02*
X0073583Y0110367D01*
X0073253Y0108400D02*
X0081487Y0108400D01*
X0079520Y0106433D02*
X0071875Y0106433D01*
X0068614Y0106433D02*
X0068583Y0106433D01*
X0068583Y0108400D02*
X0068614Y0108400D01*
X0068583Y0110367D02*
X0068614Y0110367D01*
X0066391Y0104466D02*
X0077553Y0104466D01*
X0075586Y0102499D02*
X0066391Y0102499D01*
X0066391Y0100532D02*
X0073619Y0100532D01*
X0071652Y0098565D02*
X0066391Y0098565D01*
X0065749Y0096598D02*
X0069685Y0096598D01*
X0067718Y0094631D02*
X0063782Y0094631D01*
X0061815Y0092664D02*
X0065751Y0092664D01*
X0063784Y0090697D02*
X0059848Y0090697D01*
X0057881Y0088730D02*
X0061817Y0088730D01*
X0059850Y0086763D02*
X0055914Y0086763D01*
X0053947Y0084796D02*
X0057883Y0084796D01*
X0056218Y0082829D02*
X0051980Y0082829D01*
X0050013Y0080862D02*
X0056009Y0080862D01*
X0054680Y0078895D02*
X0052517Y0078895D01*
X0053383Y0076928D02*
X0053814Y0076928D01*
X0053814Y0074961D02*
X0053383Y0074961D01*
X0053383Y0072994D02*
X0053814Y0072994D01*
X0053814Y0071027D02*
X0053383Y0071027D01*
X0053368Y0069060D02*
X0053829Y0069060D01*
X0054787Y0067093D02*
X0052410Y0067093D01*
X0046320Y0065126D02*
X0067811Y0065126D01*
X0067431Y0065186D02*
X0068206Y0065063D01*
X0068583Y0065063D01*
X0068583Y0073031D01*
X0068614Y0073031D01*
X0068614Y0065063D01*
X0068991Y0065063D01*
X0069766Y0065186D01*
X0070512Y0065428D01*
X0071211Y0065784D01*
X0071845Y0066245D01*
X0072400Y0066800D01*
X0072861Y0067435D01*
X0073218Y0068134D01*
X0073460Y0068880D01*
X0073583Y0069655D01*
X0073583Y0073031D01*
X0068614Y0073031D01*
X0068614Y0073063D01*
X0068583Y0073063D01*
X0068583Y0081031D01*
X0068206Y0081031D01*
X0067431Y0080909D01*
X0066685Y0080666D01*
X0065986Y0080310D01*
X0065351Y0079849D01*
X0064797Y0079294D01*
X0064336Y0078660D01*
X0063979Y0077961D01*
X0063737Y0077214D01*
X0063614Y0076440D01*
X0063614Y0073063D01*
X0068583Y0073063D01*
X0068583Y0073031D01*
X0063614Y0073031D01*
X0063614Y0069655D01*
X0063737Y0068880D01*
X0063979Y0068134D01*
X0064336Y0067435D01*
X0064797Y0066800D01*
X0065351Y0066245D01*
X0065986Y0065784D01*
X0066685Y0065428D01*
X0067431Y0065186D01*
X0068583Y0065126D02*
X0068614Y0065126D01*
X0069386Y0065126D02*
X0116224Y0065126D01*
X0116224Y0067093D02*
X0072613Y0067093D01*
X0073488Y0069060D02*
X0116463Y0069060D01*
X0118171Y0071027D02*
X0073583Y0071027D01*
X0073583Y0072994D02*
X0090912Y0072994D01*
X0088945Y0074961D02*
X0073583Y0074961D01*
X0073583Y0076440D02*
X0073583Y0073063D01*
X0068614Y0073063D01*
X0068614Y0081031D01*
X0068991Y0081031D01*
X0069766Y0080909D01*
X0070512Y0080666D01*
X0071211Y0080310D01*
X0071845Y0079849D01*
X0072400Y0079294D01*
X0072861Y0078660D01*
X0073218Y0077961D01*
X0073460Y0077214D01*
X0073583Y0076440D01*
X0073505Y0076928D02*
X0086978Y0076928D01*
X0085011Y0078895D02*
X0072690Y0078895D01*
X0069910Y0080862D02*
X0083044Y0080862D01*
X0081077Y0082829D02*
X0063746Y0082829D01*
X0061779Y0080862D02*
X0067286Y0080862D01*
X0068583Y0080862D02*
X0068614Y0080862D01*
X0068583Y0078895D02*
X0068614Y0078895D01*
X0068583Y0076928D02*
X0068614Y0076928D01*
X0068583Y0074961D02*
X0068614Y0074961D01*
X0068583Y0072994D02*
X0068614Y0072994D01*
X0068583Y0071027D02*
X0068614Y0071027D01*
X0068583Y0069060D02*
X0068614Y0069060D01*
X0068583Y0067093D02*
X0068614Y0067093D01*
X0064584Y0067093D02*
X0062410Y0067093D01*
X0063368Y0069060D02*
X0063708Y0069060D01*
X0063614Y0071027D02*
X0063383Y0071027D01*
X0063383Y0072994D02*
X0063614Y0072994D01*
X0063614Y0074961D02*
X0063383Y0074961D01*
X0063383Y0076928D02*
X0063691Y0076928D01*
X0064506Y0078895D02*
X0062517Y0078895D01*
X0058778Y0081776D02*
X0058778Y0073470D01*
X0058598Y0073047D01*
X0058778Y0081776D02*
X0100306Y0123303D01*
X0100306Y0152372D01*
X0135604Y0187671D01*
X0136000Y0188323D01*
X0140384Y0189048D02*
X0141616Y0189048D01*
X0141616Y0191015D02*
X0140384Y0191015D01*
X0140384Y0191795D02*
X0139717Y0193406D01*
X0138483Y0194640D01*
X0136872Y0195307D01*
X0135128Y0195307D01*
X0133517Y0194640D01*
X0132283Y0193406D01*
X0131616Y0191795D01*
X0131616Y0187598D01*
X0130384Y0186366D01*
X0130384Y0191795D01*
X0129717Y0193406D01*
X0128483Y0194640D01*
X0126872Y0195307D01*
X0125128Y0195307D01*
X0123517Y0194640D01*
X0122283Y0193406D01*
X0121616Y0191795D01*
X0121616Y0188672D01*
X0120384Y0187440D01*
X0120384Y0191795D01*
X0119717Y0193406D01*
X0118483Y0194640D01*
X0116872Y0195307D01*
X0115128Y0195307D01*
X0113517Y0194640D01*
X0112283Y0193406D01*
X0111616Y0191795D01*
X0111616Y0184851D01*
X0112283Y0183239D01*
X0113517Y0182006D01*
X0114530Y0181586D01*
X0110925Y0177981D01*
X0076223Y0177981D01*
X0075205Y0177560D01*
X0066391Y0168746D01*
X0066391Y0186444D01*
X0066685Y0186294D01*
X0067431Y0186052D01*
X0068206Y0185929D01*
X0068583Y0185929D01*
X0068583Y0193898D01*
X0068614Y0193898D01*
X0068614Y0193929D01*
X0073583Y0193929D01*
X0073583Y0197306D01*
X0073460Y0198081D01*
X0073218Y0198827D01*
X0072907Y0199437D01*
X0180830Y0199437D01*
X0185009Y0195258D01*
X0183517Y0194640D01*
X0182283Y0193406D01*
X0181616Y0191795D01*
X0181616Y0188182D01*
X0180584Y0187151D01*
X0180584Y0188323D01*
X0180584Y0191284D01*
X0180471Y0191996D01*
X0180248Y0192683D01*
X0179921Y0193326D01*
X0179497Y0193909D01*
X0178986Y0194420D01*
X0178403Y0194844D01*
X0177760Y0195171D01*
X0177073Y0195394D01*
X0176361Y0195507D01*
X0176000Y0195507D01*
X0176000Y0188323D01*
X0176000Y0188323D01*
X0176000Y0195507D01*
X0175639Y0195507D01*
X0174927Y0195394D01*
X0174240Y0195171D01*
X0173597Y0194844D01*
X0173014Y0194420D01*
X0172503Y0193909D01*
X0172079Y0193326D01*
X0171752Y0192683D01*
X0171529Y0191996D01*
X0171416Y0191284D01*
X0171416Y0188323D01*
X0176000Y0188323D01*
X0180584Y0188323D01*
X0176000Y0188323D01*
X0176000Y0188323D01*
X0175747Y0188363D01*
X0168134Y0195976D01*
X0140449Y0195976D01*
X0140449Y0153757D01*
X0105843Y0119150D01*
X0100306Y0113613D01*
X0100306Y0090773D01*
X0105843Y0085236D01*
X0105843Y0083852D01*
X0106000Y0083323D01*
X0101473Y0086763D02*
X0100305Y0086763D01*
X0101138Y0086302D02*
X0100732Y0085505D01*
X0100503Y0084801D01*
X0100305Y0084999D01*
X0100305Y0115235D01*
X0136409Y0151339D01*
X0136872Y0151339D01*
X0138483Y0152006D01*
X0139717Y0153239D01*
X0140384Y0154851D01*
X0140384Y0161795D01*
X0139717Y0163406D01*
X0138483Y0164640D01*
X0136872Y0165307D01*
X0135128Y0165307D01*
X0133517Y0164640D01*
X0132283Y0163406D01*
X0131616Y0161795D01*
X0131616Y0154851D01*
X0131755Y0154515D01*
X0103074Y0125834D01*
X0103074Y0151226D01*
X0111616Y0159767D01*
X0111616Y0154851D01*
X0112283Y0153239D01*
X0113517Y0152006D01*
X0115128Y0151339D01*
X0116872Y0151339D01*
X0118483Y0152006D01*
X0119717Y0153239D01*
X0120384Y0154851D01*
X0120384Y0161795D01*
X0119717Y0163406D01*
X0118483Y0164640D01*
X0117072Y0165224D01*
X0133755Y0181907D01*
X0135128Y0181339D01*
X0136872Y0181339D01*
X0138483Y0182006D01*
X0139717Y0183239D01*
X0140384Y0184851D01*
X0140384Y0191795D01*
X0141616Y0191795D02*
X0142283Y0193406D01*
X0143517Y0194640D01*
X0145128Y0195307D01*
X0146872Y0195307D01*
X0148483Y0194640D01*
X0149717Y0193406D01*
X0150384Y0191795D01*
X0150384Y0184851D01*
X0149717Y0183239D01*
X0148483Y0182006D01*
X0146872Y0181339D01*
X0145128Y0181339D01*
X0143517Y0182006D01*
X0142283Y0183239D01*
X0141616Y0184851D01*
X0141616Y0191795D01*
X0142107Y0192982D02*
X0139893Y0192982D01*
X0137738Y0194949D02*
X0144262Y0194949D01*
X0147738Y0194949D02*
X0154262Y0194949D01*
X0153517Y0194640D02*
X0152283Y0193406D01*
X0151616Y0191795D01*
X0151616Y0184851D01*
X0152283Y0183239D01*
X0153517Y0182006D01*
X0155128Y0181339D01*
X0156872Y0181339D01*
X0158483Y0182006D01*
X0159717Y0183239D01*
X0160384Y0184851D01*
X0160384Y0191795D01*
X0159717Y0193406D01*
X0158483Y0194640D01*
X0156872Y0195307D01*
X0155128Y0195307D01*
X0153517Y0194640D01*
X0152107Y0192982D02*
X0149893Y0192982D01*
X0150384Y0191015D02*
X0151616Y0191015D01*
X0151616Y0189048D02*
X0150384Y0189048D01*
X0150384Y0187081D02*
X0151616Y0187081D01*
X0151616Y0185114D02*
X0150384Y0185114D01*
X0149624Y0183147D02*
X0152376Y0183147D01*
X0159624Y0183147D02*
X0162376Y0183147D01*
X0162283Y0183239D02*
X0163517Y0182006D01*
X0165128Y0181339D01*
X0166872Y0181339D01*
X0168483Y0182006D01*
X0169717Y0183239D01*
X0170384Y0184851D01*
X0170384Y0191795D01*
X0169717Y0193406D01*
X0168483Y0194640D01*
X0166872Y0195307D01*
X0165128Y0195307D01*
X0163517Y0194640D01*
X0162283Y0193406D01*
X0161616Y0191795D01*
X0161616Y0184851D01*
X0162283Y0183239D01*
X0161616Y0185114D02*
X0160384Y0185114D01*
X0160384Y0187081D02*
X0161616Y0187081D01*
X0161616Y0189048D02*
X0160384Y0189048D01*
X0160384Y0191015D02*
X0161616Y0191015D01*
X0162107Y0192982D02*
X0159893Y0192982D01*
X0157738Y0194949D02*
X0164262Y0194949D01*
X0167738Y0194949D02*
X0173803Y0194949D01*
X0176000Y0194949D02*
X0176000Y0194949D01*
X0176000Y0192982D02*
X0176000Y0192982D01*
X0176000Y0191015D02*
X0176000Y0191015D01*
X0176000Y0189048D02*
X0176000Y0189048D01*
X0176000Y0188323D02*
X0176000Y0188323D01*
X0171416Y0188323D01*
X0171416Y0185362D01*
X0171529Y0184649D01*
X0171752Y0183963D01*
X0172079Y0183320D01*
X0172503Y0182736D01*
X0173014Y0182226D01*
X0173597Y0181802D01*
X0174240Y0181474D01*
X0174744Y0181311D01*
X0163460Y0170027D01*
X0162994Y0168901D01*
X0162994Y0164117D01*
X0162283Y0163406D01*
X0161616Y0161795D01*
X0161616Y0154851D01*
X0162283Y0153239D01*
X0162302Y0153221D01*
X0162302Y0149489D01*
X0148754Y0135941D01*
X0148754Y0152277D01*
X0149717Y0153239D01*
X0150384Y0154851D01*
X0150384Y0161795D01*
X0149717Y0163406D01*
X0148483Y0164640D01*
X0146872Y0165307D01*
X0145128Y0165307D01*
X0143517Y0164640D01*
X0142283Y0163406D01*
X0141616Y0161795D01*
X0141616Y0154851D01*
X0142283Y0153239D01*
X0143217Y0152305D01*
X0143217Y0114068D01*
X0127703Y0098554D01*
X0127091Y0098807D01*
X0124909Y0098807D01*
X0122893Y0097972D01*
X0121351Y0096429D01*
X0121000Y0095583D01*
X0120649Y0096429D01*
X0119107Y0097972D01*
X0118993Y0098019D01*
X0118993Y0115875D01*
X0119433Y0116315D01*
X0120009Y0117706D01*
X0120009Y0119211D01*
X0119433Y0120602D01*
X0118368Y0121666D01*
X0116977Y0122243D01*
X0115472Y0122243D01*
X0114081Y0121666D01*
X0113016Y0120602D01*
X0112440Y0119211D01*
X0112440Y0117706D01*
X0113016Y0116315D01*
X0113456Y0115875D01*
X0113456Y0098205D01*
X0112893Y0097972D01*
X0111351Y0096429D01*
X0111000Y0095583D01*
X0110649Y0096429D01*
X0109107Y0097972D01*
X0107091Y0098807D01*
X0104909Y0098807D01*
X0102893Y0097972D01*
X0101351Y0096429D01*
X0100516Y0094414D01*
X0100516Y0092232D01*
X0101351Y0090216D01*
X0102893Y0088674D01*
X0103493Y0088425D01*
X0103021Y0088184D01*
X0102297Y0087659D01*
X0101664Y0087026D01*
X0101138Y0086302D01*
X0100305Y0088730D02*
X0102837Y0088730D01*
X0101152Y0090697D02*
X0100305Y0090697D01*
X0100305Y0092664D02*
X0100516Y0092664D01*
X0100606Y0094631D02*
X0100305Y0094631D01*
X0100305Y0096598D02*
X0101519Y0096598D01*
X0100305Y0098565D02*
X0104324Y0098565D01*
X0107676Y0098565D02*
X0113456Y0098565D01*
X0113456Y0100532D02*
X0100305Y0100532D01*
X0100305Y0102499D02*
X0113456Y0102499D01*
X0113456Y0104466D02*
X0100305Y0104466D01*
X0100305Y0106433D02*
X0113456Y0106433D01*
X0113456Y0108400D02*
X0100305Y0108400D01*
X0100305Y0110367D02*
X0113456Y0110367D01*
X0113456Y0112334D02*
X0100305Y0112334D01*
X0100305Y0114301D02*
X0113456Y0114301D01*
X0113063Y0116268D02*
X0101338Y0116268D01*
X0103305Y0118235D02*
X0112440Y0118235D01*
X0112851Y0120202D02*
X0105272Y0120202D01*
X0107239Y0122169D02*
X0115294Y0122169D01*
X0117155Y0122169D02*
X0143217Y0122169D01*
X0143217Y0120202D02*
X0119598Y0120202D01*
X0120009Y0118235D02*
X0143217Y0118235D01*
X0143217Y0116268D02*
X0119386Y0116268D01*
X0118993Y0114301D02*
X0143217Y0114301D01*
X0141483Y0112334D02*
X0118993Y0112334D01*
X0118993Y0110367D02*
X0139516Y0110367D01*
X0137549Y0108400D02*
X0118993Y0108400D01*
X0118993Y0106433D02*
X0135582Y0106433D01*
X0133615Y0104466D02*
X0118993Y0104466D01*
X0118993Y0102499D02*
X0131648Y0102499D01*
X0129681Y0100532D02*
X0118993Y0100532D01*
X0118993Y0098565D02*
X0124324Y0098565D01*
X0127676Y0098565D02*
X0127714Y0098565D01*
X0126606Y0093542D02*
X0126000Y0093323D01*
X0126606Y0093542D02*
X0145986Y0112921D01*
X0145986Y0157909D01*
X0146000Y0158323D01*
X0150384Y0157575D02*
X0151616Y0157575D01*
X0151616Y0155608D02*
X0150384Y0155608D01*
X0151616Y0154851D02*
X0152283Y0153239D01*
X0153517Y0152006D01*
X0155128Y0151339D01*
X0156872Y0151339D01*
X0158483Y0152006D01*
X0159717Y0153239D01*
X0160384Y0154851D01*
X0160384Y0161795D01*
X0159717Y0163406D01*
X0158483Y0164640D01*
X0156872Y0165307D01*
X0155128Y0165307D01*
X0153517Y0164640D01*
X0152283Y0163406D01*
X0151616Y0161795D01*
X0151616Y0154851D01*
X0152117Y0153641D02*
X0149883Y0153641D01*
X0148754Y0151674D02*
X0154317Y0151674D01*
X0157682Y0151674D02*
X0162302Y0151674D01*
X0162302Y0149707D02*
X0148754Y0149707D01*
X0148754Y0147740D02*
X0160553Y0147740D01*
X0158586Y0145773D02*
X0148754Y0145773D01*
X0148754Y0143806D02*
X0156619Y0143806D01*
X0154652Y0141839D02*
X0148754Y0141839D01*
X0148754Y0139872D02*
X0152685Y0139872D01*
X0150718Y0137905D02*
X0148754Y0137905D01*
X0143217Y0137905D02*
X0122976Y0137905D01*
X0124943Y0139872D02*
X0143217Y0139872D01*
X0143217Y0141839D02*
X0126910Y0141839D01*
X0128877Y0143806D02*
X0143217Y0143806D01*
X0143217Y0145773D02*
X0130844Y0145773D01*
X0132811Y0147740D02*
X0143217Y0147740D01*
X0143217Y0149707D02*
X0134778Y0149707D01*
X0137682Y0151674D02*
X0143217Y0151674D01*
X0142117Y0153641D02*
X0139883Y0153641D01*
X0140384Y0155608D02*
X0141616Y0155608D01*
X0141616Y0157575D02*
X0140384Y0157575D01*
X0140384Y0159542D02*
X0141616Y0159542D01*
X0141616Y0161509D02*
X0140384Y0161509D01*
X0139647Y0163476D02*
X0142353Y0163476D01*
X0149647Y0163476D02*
X0152353Y0163476D01*
X0151616Y0161509D02*
X0150384Y0161509D01*
X0150384Y0159542D02*
X0151616Y0159542D01*
X0160384Y0159542D02*
X0161616Y0159542D01*
X0161616Y0157575D02*
X0160384Y0157575D01*
X0160384Y0155608D02*
X0161616Y0155608D01*
X0162117Y0153641D02*
X0159883Y0153641D01*
X0160384Y0161509D02*
X0161616Y0161509D01*
X0162353Y0163476D02*
X0159647Y0163476D01*
X0162994Y0165443D02*
X0117292Y0165443D01*
X0119259Y0167410D02*
X0162994Y0167410D01*
X0163191Y0169377D02*
X0121226Y0169377D01*
X0123193Y0171344D02*
X0164778Y0171344D01*
X0166745Y0173311D02*
X0125160Y0173311D01*
X0127127Y0175278D02*
X0168712Y0175278D01*
X0170679Y0177245D02*
X0129094Y0177245D01*
X0131061Y0179212D02*
X0172646Y0179212D01*
X0174613Y0181179D02*
X0133028Y0181179D01*
X0139624Y0183147D02*
X0142376Y0183147D01*
X0141616Y0185114D02*
X0140384Y0185114D01*
X0140384Y0187081D02*
X0141616Y0187081D01*
X0140449Y0195976D02*
X0114840Y0195976D01*
X0113456Y0194592D01*
X0069160Y0194592D01*
X0068598Y0193913D01*
X0068614Y0193898D02*
X0068614Y0185929D01*
X0068991Y0185929D01*
X0069766Y0186052D01*
X0070512Y0186294D01*
X0071211Y0186650D01*
X0071845Y0187112D01*
X0072400Y0187666D01*
X0072861Y0188301D01*
X0073218Y0189000D01*
X0073460Y0189746D01*
X0073583Y0190521D01*
X0073583Y0193898D01*
X0068614Y0193898D01*
X0068583Y0192982D02*
X0068614Y0192982D01*
X0068583Y0191015D02*
X0068614Y0191015D01*
X0068583Y0189048D02*
X0068614Y0189048D01*
X0068583Y0187081D02*
X0068614Y0187081D01*
X0066391Y0185114D02*
X0111616Y0185114D01*
X0111616Y0187081D02*
X0071803Y0187081D01*
X0073233Y0189048D02*
X0111616Y0189048D01*
X0111616Y0191015D02*
X0073583Y0191015D01*
X0073583Y0192982D02*
X0112107Y0192982D01*
X0114262Y0194949D02*
X0073583Y0194949D01*
X0073583Y0196916D02*
X0183351Y0196916D01*
X0184262Y0194949D02*
X0178197Y0194949D01*
X0180096Y0192982D02*
X0182107Y0192982D01*
X0181616Y0191015D02*
X0180584Y0191015D01*
X0180584Y0189048D02*
X0181616Y0189048D01*
X0183933Y0181834D02*
X0185128Y0181339D01*
X0186872Y0181339D01*
X0188483Y0182006D01*
X0189717Y0183239D01*
X0190384Y0184851D01*
X0190384Y0189882D01*
X0191616Y0188651D01*
X0191616Y0184851D01*
X0192283Y0183239D01*
X0193517Y0182006D01*
X0195128Y0181339D01*
X0196872Y0181339D01*
X0198483Y0182006D01*
X0199717Y0183239D01*
X0200384Y0184851D01*
X0200384Y0191795D01*
X0199717Y0193406D01*
X0198483Y0194640D01*
X0196872Y0195307D01*
X0195128Y0195307D01*
X0193517Y0194640D01*
X0193487Y0194610D01*
X0185892Y0202206D01*
X0196806Y0202206D01*
X0203147Y0195865D01*
X0203164Y0194287D01*
X0202283Y0193406D01*
X0201616Y0191795D01*
X0201616Y0184851D01*
X0202283Y0183239D01*
X0203517Y0182006D01*
X0205128Y0181339D01*
X0206872Y0181339D01*
X0208483Y0182006D01*
X0209717Y0183239D01*
X0210384Y0184851D01*
X0210384Y0191795D01*
X0209717Y0193406D01*
X0208700Y0194423D01*
X0208671Y0197040D01*
X0208671Y0197575D01*
X0208665Y0197590D01*
X0208665Y0197606D01*
X0208454Y0198099D01*
X0208249Y0198593D01*
X0208238Y0198604D01*
X0208232Y0198619D01*
X0207849Y0198993D01*
X0200300Y0206542D01*
X0199521Y0207321D01*
X0198503Y0207743D01*
X0081541Y0207743D01*
X0083219Y0209420D01*
X0083219Y0213052D01*
X0080651Y0215620D01*
X0077019Y0215620D01*
X0075665Y0214267D01*
X0055400Y0214267D01*
X0055357Y0214249D01*
X0065353Y0224245D01*
X0065515Y0224083D01*
X0066533Y0223661D01*
X0076579Y0223661D01*
X0089607Y0210634D01*
X0089992Y0210246D01*
X0089997Y0210244D01*
X0090000Y0210240D01*
X0090505Y0210031D01*
X0091008Y0209821D01*
X0091013Y0209821D01*
X0091018Y0209819D01*
X0091565Y0209819D01*
X0205975Y0209429D01*
X0213041Y0202224D01*
X0213088Y0194211D01*
X0212283Y0193406D01*
X0211616Y0191795D01*
X0211616Y0184851D01*
X0212283Y0183239D01*
X0213517Y0182006D01*
X0215128Y0181339D01*
X0216872Y0181339D01*
X0218483Y0182006D01*
X0219717Y0183239D01*
X0220384Y0184851D01*
X0220384Y0191795D01*
X0219717Y0193406D01*
X0218623Y0194500D01*
X0218572Y0203356D01*
X0218577Y0203886D01*
X0218569Y0203907D01*
X0218568Y0203929D01*
X0218363Y0204416D01*
X0218165Y0204908D01*
X0218150Y0204924D01*
X0218141Y0204944D01*
X0217765Y0205316D01*
X0209498Y0213746D01*
X0209494Y0213754D01*
X0209113Y0214138D01*
X0208733Y0214525D01*
X0208724Y0214529D01*
X0208718Y0214535D01*
X0208219Y0214744D01*
X0207719Y0214957D01*
X0207710Y0214957D01*
X0207702Y0214960D01*
X0207161Y0214962D01*
X0206618Y0214967D01*
X0206610Y0214964D01*
X0175503Y0215070D01*
X0175649Y0215216D01*
X0176484Y0217232D01*
X0176484Y0219414D01*
X0175649Y0221429D01*
X0174107Y0222972D01*
X0172091Y0223807D01*
X0169909Y0223807D01*
X0167893Y0222972D01*
X0166351Y0221429D01*
X0166102Y0220830D01*
X0165862Y0221302D01*
X0165336Y0222026D01*
X0164703Y0222659D01*
X0163979Y0223184D01*
X0163182Y0223591D01*
X0162331Y0223867D01*
X0161447Y0224007D01*
X0161000Y0224007D01*
X0161000Y0218323D01*
X0161000Y0218323D01*
X0161000Y0224007D01*
X0160553Y0224007D01*
X0159669Y0223867D01*
X0158818Y0223591D01*
X0158021Y0223184D01*
X0157297Y0222659D01*
X0156664Y0222026D01*
X0156138Y0221302D01*
X0155898Y0220830D01*
X0155649Y0221429D01*
X0154107Y0222972D01*
X0152091Y0223807D01*
X0149909Y0223807D01*
X0147893Y0222972D01*
X0146351Y0221429D01*
X0145516Y0219414D01*
X0145516Y0217232D01*
X0146351Y0215216D01*
X0146398Y0215169D01*
X0098580Y0215332D01*
X0100896Y0217649D01*
X0100896Y0221281D01*
X0098328Y0223849D01*
X0094696Y0223849D01*
X0092128Y0221281D01*
X0092128Y0217649D01*
X0094430Y0215346D01*
X0092719Y0215352D01*
X0080073Y0227998D01*
X0080073Y0227998D01*
X0079294Y0228777D01*
X0078277Y0229198D01*
X0073431Y0229198D01*
X0073611Y0229551D01*
X0073854Y0230297D01*
X0073976Y0231072D01*
X0073976Y0234449D01*
X0069008Y0234449D01*
X0069008Y0234480D01*
X0073976Y0234480D01*
X0073976Y0237857D01*
X0073854Y0238632D01*
X0073611Y0239378D01*
X0073255Y0240077D01*
X0072794Y0240712D01*
X0072239Y0241266D01*
X0071604Y0241727D01*
X0070905Y0242084D01*
X0070159Y0242326D01*
X0069384Y0242449D01*
X0069008Y0242449D01*
X0069008Y0234480D01*
X0068976Y0234480D01*
X0068976Y0234449D01*
X0064008Y0234449D01*
X0064008Y0233421D01*
X0063776Y0233652D01*
X0063776Y0238416D01*
X0063048Y0240175D01*
X0061702Y0241520D01*
X0059944Y0242249D01*
X0058040Y0242249D01*
X0056282Y0241520D01*
X0054936Y0240175D01*
X0054208Y0238416D01*
X0054208Y0230513D01*
X0054936Y0228755D01*
X0056282Y0227409D01*
X0058040Y0226680D01*
X0059944Y0226680D01*
X0059968Y0226690D01*
X0048898Y0215620D01*
X0047019Y0215620D01*
X0044450Y0213052D01*
X0044450Y0209420D01*
X0047019Y0206852D01*
X0047325Y0206852D01*
X0045743Y0205269D01*
X0045710Y0205269D01*
X0044584Y0204803D01*
X0040914Y0201133D01*
X0039550Y0201698D01*
X0037647Y0201698D01*
X0035888Y0200969D01*
X0034543Y0199623D01*
X0033814Y0197865D01*
X0033814Y0189962D01*
X0034543Y0188203D01*
X0035888Y0186857D01*
X0037647Y0186129D01*
X0039550Y0186129D01*
X0041308Y0186857D01*
X0042654Y0188203D01*
X0043383Y0189962D01*
X0043383Y0194936D01*
X0043814Y0195367D01*
X0043814Y0189962D01*
X0044543Y0188203D01*
X0045888Y0186857D01*
X0047254Y0186292D01*
X0046741Y0185778D01*
X0046320Y0184761D01*
X0046320Y0174370D01*
X0044057Y0172107D01*
X0044057Y0168475D01*
X0046625Y0165907D01*
X0050257Y0165907D01*
X0052825Y0168475D01*
X0052825Y0172107D01*
X0051857Y0173076D01*
X0051857Y0183063D01*
X0055770Y0186976D01*
X0055888Y0186857D01*
X0057647Y0186129D01*
X0059550Y0186129D01*
X0060854Y0186669D01*
X0060854Y0167362D01*
X0057210Y0163717D01*
X0056431Y0162938D01*
X0056009Y0161921D01*
X0056009Y0160468D01*
X0055888Y0160418D01*
X0054543Y0159072D01*
X0053814Y0157314D01*
X0053814Y0149411D01*
X0054543Y0147652D01*
X0055888Y0146306D01*
X0057647Y0145578D01*
X0059550Y0145578D01*
X0060854Y0146118D01*
X0060854Y0120449D01*
X0059550Y0120989D01*
X0057647Y0120989D01*
X0055888Y0120261D01*
X0054543Y0118915D01*
X0053814Y0117156D01*
X0053814Y0109253D01*
X0054543Y0107495D01*
X0055888Y0106149D01*
X0057647Y0105420D01*
X0059550Y0105420D01*
X0060854Y0105961D01*
X0060854Y0099533D01*
X0052825Y0091504D01*
X0052825Y0091792D01*
X0050257Y0094361D01*
X0046625Y0094361D01*
X0044057Y0091792D01*
X0044057Y0088160D01*
X0046625Y0085592D01*
X0046913Y0085592D01*
X0041983Y0080662D01*
X0041366Y0080045D01*
X0041308Y0080103D01*
X0039550Y0080831D01*
X0037647Y0080831D01*
X0035888Y0080103D01*
X0034543Y0078757D01*
X0033814Y0076999D01*
X0033814Y0069096D01*
X0034543Y0067337D01*
X0035888Y0065991D01*
X0037647Y0065263D01*
X0039550Y0065263D01*
X0040783Y0065774D01*
X0040783Y0047311D01*
X0041204Y0046293D01*
X0047343Y0040154D01*
X0045888Y0039552D01*
X0044543Y0038206D01*
X0043814Y0036448D01*
X0043814Y0031167D01*
X0043383Y0031599D01*
X0043383Y0036448D01*
X0042654Y0038206D01*
X0041308Y0039552D01*
X0039550Y0040280D01*
X0037647Y0040280D01*
X0035888Y0039552D01*
X0034543Y0038206D01*
X0033814Y0036448D01*
X0033814Y0028544D01*
X0034543Y0026786D01*
X0035888Y0025440D01*
X0037647Y0024712D01*
X0039550Y0024712D01*
X0041003Y0025313D01*
X0058257Y0008059D01*
X0059119Y0007197D01*
X0060245Y0006731D01*
X0075171Y0006731D01*
X0075918Y0005984D01*
X0051751Y0005984D01*
X0053219Y0007452D01*
X0053219Y0011084D01*
X0050651Y0013652D01*
X0047019Y0013652D01*
X0044450Y0011084D01*
X0044450Y0007452D01*
X0045918Y0005984D01*
X0019815Y0005984D01*
X0021683Y0007851D01*
X0023168Y0010424D01*
X0023937Y0013294D01*
X0023937Y0016265D01*
X0023168Y0019135D01*
X0021683Y0021708D01*
X0019582Y0023809D01*
X0017009Y0025294D01*
X0014139Y0026063D01*
X0011168Y0026063D01*
X0008298Y0025294D01*
X0006343Y0024165D01*
X0006014Y0242076D01*
X0006906Y0241184D01*
X0009479Y0239698D01*
X0012349Y0238929D01*
X0015320Y0238929D01*
X0018190Y0239698D01*
X0020763Y0241184D01*
X0022864Y0243284D01*
X0024349Y0245857D01*
X0025118Y0248727D01*
X0025118Y0251698D01*
X0024349Y0254568D01*
X0022922Y0257039D01*
X0248842Y0257039D01*
X0247415Y0254568D01*
X0246646Y0251698D01*
X0246646Y0248727D01*
X0247415Y0245857D01*
X0248900Y0243284D01*
X0251001Y0241184D01*
X0253574Y0239698D01*
X0256444Y0238929D01*
X0259415Y0238929D01*
X0262284Y0239698D01*
X0264857Y0241184D01*
X0266958Y0243284D01*
X0268444Y0245857D01*
X0269213Y0248727D01*
X0269213Y0251698D01*
X0268444Y0254568D01*
X0267017Y0257039D01*
X0284128Y0257039D01*
X0283988Y0256972D01*
X0283029Y0256370D01*
X0282144Y0255663D01*
X0281343Y0254862D01*
X0280637Y0253977D01*
X0280034Y0253018D01*
X0279543Y0251997D01*
X0279169Y0250928D01*
X0278917Y0249824D01*
X0278837Y0249117D01*
X0287890Y0249117D01*
X0287890Y0247148D01*
X0289858Y0247148D01*
X0289858Y0238095D01*
X0290566Y0238175D01*
X0291670Y0238427D01*
X0292739Y0238801D01*
X0293760Y0239292D01*
X0294719Y0239895D01*
X0295604Y0240601D01*
X0296405Y0241402D01*
X0297111Y0242288D01*
X0297714Y0243247D01*
X0298205Y0244267D01*
X0298579Y0245336D01*
X0298831Y0246440D01*
X0298911Y0247148D01*
X0289858Y0247148D01*
X0289858Y0249117D01*
X0298911Y0249117D01*
X0298831Y0249824D01*
X0298579Y0250928D01*
X0298205Y0251997D01*
X0297714Y0253018D01*
X0297111Y0253977D01*
X0296405Y0254862D01*
X0295604Y0255663D01*
X0294719Y0256370D01*
X0293760Y0256972D01*
X0293620Y0257039D01*
X0319882Y0257039D01*
X0319956Y0207371D01*
X0318311Y0208053D01*
X0316288Y0208053D01*
X0314419Y0207279D01*
X0312989Y0205848D01*
X0312215Y0203980D01*
X0312215Y0201957D01*
X0312989Y0200088D01*
X0314419Y0198658D01*
X0316288Y0197884D01*
X0318311Y0197884D01*
X0319970Y0198572D01*
X0320238Y0020695D01*
X0320108Y0020920D01*
X0318007Y0023021D01*
X0315434Y0024507D01*
X0312564Y0025276D01*
X0309593Y0025276D01*
X0306723Y0024507D01*
X0305531Y0023818D02*
X0266313Y0023818D01*
X0266726Y0021851D02*
X0302981Y0021851D01*
X0301452Y0019884D02*
X0266726Y0019884D01*
X0266726Y0017917D02*
X0300449Y0017917D01*
X0299922Y0015950D02*
X0266726Y0015950D01*
X0266140Y0013983D02*
X0299795Y0013983D01*
X0299927Y0012016D02*
X0263754Y0012016D01*
X0260529Y0012016D02*
X0253754Y0012016D01*
X0256140Y0013983D02*
X0258144Y0013983D01*
X0257557Y0015950D02*
X0256726Y0015950D01*
X0256726Y0017917D02*
X0257557Y0017917D01*
X0257557Y0019884D02*
X0256726Y0019884D01*
X0256726Y0021851D02*
X0257557Y0021851D01*
X0257057Y0023818D02*
X0256313Y0023818D01*
X0263098Y0027752D02*
X0280004Y0027752D01*
X0278880Y0029719D02*
X0265065Y0029719D01*
X0267032Y0031686D02*
X0278778Y0031686D01*
X0278778Y0033653D02*
X0268999Y0033653D01*
X0270966Y0035620D02*
X0278778Y0035620D01*
X0278860Y0037587D02*
X0272933Y0037587D01*
X0274900Y0039554D02*
X0279956Y0039554D01*
X0280298Y0041521D02*
X0276867Y0041521D01*
X0278834Y0043488D02*
X0280298Y0043488D01*
X0286426Y0043488D02*
X0320204Y0043488D01*
X0320201Y0045455D02*
X0286426Y0045455D01*
X0286426Y0047422D02*
X0320198Y0047422D01*
X0320195Y0049389D02*
X0285920Y0049389D01*
X0286071Y0051356D02*
X0320192Y0051356D01*
X0320189Y0053323D02*
X0286091Y0053323D01*
X0286091Y0055291D02*
X0320186Y0055291D01*
X0320183Y0057258D02*
X0286091Y0057258D01*
X0286091Y0059225D02*
X0320180Y0059225D01*
X0320177Y0061192D02*
X0286091Y0061192D01*
X0286091Y0063159D02*
X0320174Y0063159D01*
X0320171Y0065126D02*
X0286091Y0065126D01*
X0286091Y0067093D02*
X0320168Y0067093D01*
X0320165Y0069060D02*
X0286091Y0069060D01*
X0286091Y0071027D02*
X0320162Y0071027D01*
X0320159Y0072994D02*
X0286091Y0072994D01*
X0286091Y0074961D02*
X0320156Y0074961D01*
X0320153Y0076928D02*
X0286091Y0076928D01*
X0286091Y0078895D02*
X0320150Y0078895D01*
X0320147Y0080862D02*
X0286091Y0080862D01*
X0286091Y0082829D02*
X0320144Y0082829D01*
X0320141Y0084796D02*
X0286091Y0084796D01*
X0286091Y0086763D02*
X0320138Y0086763D01*
X0320135Y0088730D02*
X0286091Y0088730D01*
X0286091Y0090697D02*
X0320132Y0090697D01*
X0320129Y0092664D02*
X0286091Y0092664D01*
X0286091Y0094631D02*
X0320126Y0094631D01*
X0320124Y0096598D02*
X0315741Y0096598D01*
X0315856Y0096713D02*
X0314510Y0095367D01*
X0312752Y0094639D01*
X0304848Y0094639D01*
X0303090Y0095367D01*
X0301744Y0096713D01*
X0301016Y0098471D01*
X0301016Y0100374D01*
X0301744Y0102133D01*
X0303090Y0103479D01*
X0304848Y0104207D01*
X0312752Y0104207D01*
X0314510Y0103479D01*
X0315856Y0102133D01*
X0316584Y0100374D01*
X0316584Y0098471D01*
X0315856Y0096713D01*
X0316584Y0098565D02*
X0320121Y0098565D01*
X0320118Y0100532D02*
X0316519Y0100532D01*
X0315490Y0102499D02*
X0320115Y0102499D01*
X0320112Y0104466D02*
X0238731Y0104466D01*
X0238731Y0106433D02*
X0320109Y0106433D01*
X0320106Y0108400D02*
X0238731Y0108400D01*
X0238731Y0110367D02*
X0320103Y0110367D01*
X0320100Y0112334D02*
X0238731Y0112334D01*
X0238731Y0102499D02*
X0276510Y0102499D01*
X0275481Y0100532D02*
X0238731Y0100532D01*
X0238731Y0098565D02*
X0275416Y0098565D01*
X0276259Y0096598D02*
X0238731Y0096598D01*
X0238731Y0094631D02*
X0279963Y0094631D01*
X0279963Y0092664D02*
X0273142Y0092664D01*
X0272899Y0092907D02*
X0271000Y0092907D01*
X0271000Y0088323D01*
X0271000Y0088323D01*
X0271000Y0092907D01*
X0269101Y0092907D01*
X0266416Y0090222D01*
X0266416Y0088323D01*
X0271000Y0088323D01*
X0275584Y0088323D01*
X0275584Y0090222D01*
X0272899Y0092907D01*
X0271000Y0092664D02*
X0271000Y0092664D01*
X0271000Y0090697D02*
X0271000Y0090697D01*
X0271000Y0088730D02*
X0271000Y0088730D01*
X0271261Y0088697D02*
X0271000Y0088323D01*
X0271000Y0088323D01*
X0271000Y0088323D01*
X0266416Y0088323D01*
X0266416Y0086424D01*
X0269101Y0083739D01*
X0271000Y0083739D01*
X0272899Y0083739D01*
X0275584Y0086424D01*
X0275584Y0088323D01*
X0271000Y0088323D01*
X0271000Y0083739D01*
X0271000Y0088323D01*
X0271000Y0088323D01*
X0271261Y0088697D02*
X0271261Y0112229D01*
X0273178Y0114301D02*
X0276356Y0114301D01*
X0276144Y0114513D02*
X0277490Y0113167D01*
X0279248Y0112439D01*
X0287152Y0112439D01*
X0288910Y0113167D01*
X0290256Y0114513D01*
X0290984Y0116271D01*
X0290984Y0118174D01*
X0290256Y0119933D01*
X0288910Y0121279D01*
X0287152Y0122007D01*
X0279248Y0122007D01*
X0277490Y0121279D01*
X0276144Y0119933D01*
X0275416Y0118174D01*
X0275416Y0116271D01*
X0276144Y0114513D01*
X0275417Y0116268D02*
X0275145Y0116268D01*
X0275384Y0118235D02*
X0275441Y0118235D01*
X0275321Y0120202D02*
X0276413Y0120202D01*
X0273354Y0122169D02*
X0320085Y0122169D01*
X0320088Y0120202D02*
X0315587Y0120202D01*
X0315856Y0119933D02*
X0314510Y0121279D01*
X0312752Y0122007D01*
X0304848Y0122007D01*
X0303090Y0121279D01*
X0301744Y0119933D01*
X0301016Y0118174D01*
X0301016Y0116271D01*
X0301744Y0114513D01*
X0303090Y0113167D01*
X0304848Y0112439D01*
X0312752Y0112439D01*
X0314510Y0113167D01*
X0315856Y0114513D01*
X0316584Y0116271D01*
X0316584Y0118174D01*
X0315856Y0119933D01*
X0316559Y0118235D02*
X0320091Y0118235D01*
X0320094Y0116268D02*
X0316583Y0116268D01*
X0315644Y0114301D02*
X0320097Y0114301D01*
X0301956Y0114301D02*
X0290044Y0114301D01*
X0290983Y0116268D02*
X0301017Y0116268D01*
X0301041Y0118235D02*
X0290959Y0118235D01*
X0289987Y0120202D02*
X0302013Y0120202D01*
X0320064Y0135938D02*
X0274816Y0135938D01*
X0275384Y0137905D02*
X0320061Y0137905D01*
X0320058Y0139872D02*
X0313316Y0139872D01*
X0312752Y0139639D02*
X0314510Y0140367D01*
X0315856Y0141713D01*
X0316584Y0143471D01*
X0316584Y0145374D01*
X0315856Y0147133D01*
X0314510Y0148479D01*
X0312752Y0149207D01*
X0304848Y0149207D01*
X0303090Y0148479D01*
X0301744Y0147133D01*
X0301016Y0145374D01*
X0301016Y0143471D01*
X0301744Y0141713D01*
X0303090Y0140367D01*
X0304848Y0139639D01*
X0312752Y0139639D01*
X0315908Y0141839D02*
X0320055Y0141839D01*
X0320052Y0143806D02*
X0316584Y0143806D01*
X0316419Y0145773D02*
X0320049Y0145773D01*
X0320046Y0147740D02*
X0315249Y0147740D01*
X0320043Y0149707D02*
X0274324Y0149707D01*
X0274324Y0147740D02*
X0276469Y0147740D01*
X0276398Y0147670D02*
X0275937Y0147035D01*
X0275581Y0146336D01*
X0275338Y0145590D01*
X0275216Y0144815D01*
X0275216Y0144439D01*
X0283184Y0144439D01*
X0283184Y0149407D01*
X0279808Y0149407D01*
X0279033Y0149284D01*
X0278287Y0149042D01*
X0277588Y0148686D01*
X0276953Y0148225D01*
X0276398Y0147670D01*
X0275398Y0145773D02*
X0274324Y0145773D01*
X0275216Y0144407D02*
X0275216Y0144031D01*
X0275338Y0143256D01*
X0275581Y0142510D01*
X0275937Y0141811D01*
X0276398Y0141176D01*
X0276953Y0140621D01*
X0277588Y0140160D01*
X0278287Y0139804D01*
X0279033Y0139561D01*
X0279808Y0139439D01*
X0283184Y0139439D01*
X0283184Y0144407D01*
X0275216Y0144407D01*
X0275251Y0143806D02*
X0274324Y0143806D01*
X0274324Y0141839D02*
X0275922Y0141839D01*
X0275384Y0139872D02*
X0278152Y0139872D01*
X0283184Y0139872D02*
X0283216Y0139872D01*
X0283216Y0139439D02*
X0286592Y0139439D01*
X0287367Y0139561D01*
X0288113Y0139804D01*
X0288812Y0140160D01*
X0289447Y0140621D01*
X0290002Y0141176D01*
X0290463Y0141811D01*
X0290819Y0142510D01*
X0291062Y0143256D01*
X0291184Y0144031D01*
X0291184Y0144407D01*
X0283216Y0144407D01*
X0283216Y0144439D01*
X0283184Y0144439D01*
X0283184Y0144407D01*
X0283216Y0144407D01*
X0283216Y0139439D01*
X0283184Y0141839D02*
X0283216Y0141839D01*
X0283184Y0143806D02*
X0283216Y0143806D01*
X0283216Y0144439D02*
X0291184Y0144439D01*
X0291184Y0144815D01*
X0291062Y0145590D01*
X0290819Y0146336D01*
X0290463Y0147035D01*
X0290002Y0147670D01*
X0289447Y0148225D01*
X0288812Y0148686D01*
X0288113Y0149042D01*
X0287367Y0149284D01*
X0286592Y0149407D01*
X0283216Y0149407D01*
X0283216Y0144439D01*
X0283184Y0145773D02*
X0283216Y0145773D01*
X0283184Y0147740D02*
X0283216Y0147740D01*
X0289931Y0147740D02*
X0302351Y0147740D01*
X0301181Y0145773D02*
X0291002Y0145773D01*
X0291149Y0143806D02*
X0301016Y0143806D01*
X0301692Y0141839D02*
X0290478Y0141839D01*
X0288248Y0139872D02*
X0304284Y0139872D01*
X0320040Y0151674D02*
X0274324Y0151674D01*
X0274324Y0153641D02*
X0320037Y0153641D01*
X0320035Y0155608D02*
X0274324Y0155608D01*
X0274324Y0157575D02*
X0278918Y0157575D01*
X0276132Y0159542D02*
X0274324Y0159542D01*
X0268197Y0159542D02*
X0250384Y0159542D01*
X0250384Y0161509D02*
X0268197Y0161509D01*
X0269034Y0163476D02*
X0249647Y0163476D01*
X0242725Y0165443D02*
X0267679Y0165443D01*
X0266616Y0167410D02*
X0240758Y0167410D01*
X0231858Y0167410D02*
X0169509Y0167410D01*
X0169121Y0167022D02*
X0183933Y0181834D01*
X0183278Y0181179D02*
X0262279Y0181179D01*
X0262279Y0180278D02*
X0265081Y0177476D01*
X0267063Y0177476D01*
X0269045Y0177476D01*
X0271847Y0180278D01*
X0271847Y0182260D01*
X0271847Y0184242D01*
X0269045Y0187044D01*
X0267063Y0187044D01*
X0267063Y0182260D01*
X0267063Y0182260D01*
X0267063Y0187044D01*
X0265081Y0187044D01*
X0262279Y0184242D01*
X0262279Y0182260D01*
X0267063Y0182260D01*
X0271847Y0182260D01*
X0267063Y0182260D01*
X0267063Y0182260D01*
X0266416Y0182826D01*
X0262263Y0186979D01*
X0262263Y0238888D01*
X0253265Y0238888D01*
X0246344Y0245809D01*
X0240115Y0245809D01*
X0239622Y0246276D01*
X0239606Y0246291D02*
X0239606Y0251960D01*
X0239175Y0251960D01*
X0238291Y0251820D01*
X0237440Y0251543D01*
X0236643Y0251137D01*
X0235919Y0250611D01*
X0235286Y0249979D01*
X0234760Y0249255D01*
X0234520Y0248782D01*
X0234271Y0249382D01*
X0232729Y0250925D01*
X0230713Y0251760D01*
X0228531Y0251760D01*
X0226515Y0250925D01*
X0224973Y0249382D01*
X0224622Y0248536D01*
X0224271Y0249382D01*
X0222729Y0250925D01*
X0220713Y0251760D01*
X0218531Y0251760D01*
X0216515Y0250925D01*
X0214973Y0249382D01*
X0214622Y0248536D01*
X0214271Y0249382D01*
X0212729Y0250925D01*
X0210713Y0251760D01*
X0208531Y0251760D01*
X0206515Y0250925D01*
X0204973Y0249382D01*
X0204622Y0248536D01*
X0204271Y0249382D01*
X0202729Y0250925D01*
X0200713Y0251760D01*
X0198531Y0251760D01*
X0196515Y0250925D01*
X0194973Y0249382D01*
X0194622Y0248536D01*
X0194271Y0249382D01*
X0192729Y0250925D01*
X0190713Y0251760D01*
X0188531Y0251760D01*
X0186515Y0250925D01*
X0184973Y0249382D01*
X0184138Y0247366D01*
X0184138Y0245185D01*
X0184973Y0243169D01*
X0186515Y0241626D01*
X0188531Y0240791D01*
X0190713Y0240791D01*
X0192729Y0241626D01*
X0194271Y0243169D01*
X0194622Y0244016D01*
X0194973Y0243169D01*
X0196515Y0241626D01*
X0198531Y0240791D01*
X0200713Y0240791D01*
X0200969Y0240897D01*
X0233194Y0208672D01*
X0233194Y0194317D01*
X0232283Y0193406D01*
X0231616Y0191795D01*
X0231616Y0184851D01*
X0232283Y0183239D01*
X0233517Y0182006D01*
X0235128Y0181339D01*
X0236872Y0181339D01*
X0238483Y0182006D01*
X0239717Y0183239D01*
X0240384Y0184851D01*
X0240384Y0191795D01*
X0239717Y0193406D01*
X0238731Y0194392D01*
X0238731Y0210370D01*
X0238309Y0211387D01*
X0208905Y0240791D01*
X0210713Y0240791D01*
X0212729Y0241626D01*
X0214271Y0243169D01*
X0214622Y0244016D01*
X0214973Y0243169D01*
X0216515Y0241626D01*
X0218531Y0240791D01*
X0220713Y0240791D01*
X0222729Y0241626D01*
X0224271Y0243169D01*
X0224622Y0244016D01*
X0224973Y0243169D01*
X0226515Y0241626D01*
X0228531Y0240791D01*
X0230713Y0240791D01*
X0232729Y0241626D01*
X0234271Y0243169D01*
X0234520Y0243769D01*
X0234760Y0243296D01*
X0235286Y0242573D01*
X0235919Y0241940D01*
X0236643Y0241414D01*
X0237440Y0241008D01*
X0238291Y0240731D01*
X0239175Y0240591D01*
X0239606Y0240591D01*
X0239606Y0246260D01*
X0239638Y0246260D01*
X0239638Y0246291D01*
X0245306Y0246291D01*
X0245306Y0246723D01*
X0245166Y0247607D01*
X0244890Y0248458D01*
X0244484Y0249255D01*
X0243958Y0249979D01*
X0243325Y0250611D01*
X0242601Y0251137D01*
X0241804Y0251543D01*
X0240953Y0251820D01*
X0240069Y0251960D01*
X0239638Y0251960D01*
X0239638Y0246291D01*
X0239606Y0246291D01*
X0239638Y0246260D02*
X0239638Y0240591D01*
X0240069Y0240591D01*
X0240953Y0240731D01*
X0241804Y0241008D01*
X0242601Y0241414D01*
X0243325Y0241940D01*
X0243958Y0242573D01*
X0244484Y0243296D01*
X0244890Y0244094D01*
X0245166Y0244945D01*
X0245306Y0245828D01*
X0245306Y0246260D01*
X0239638Y0246260D01*
X0239638Y0246091D02*
X0239606Y0246091D01*
X0239606Y0244124D02*
X0239638Y0244124D01*
X0239606Y0242157D02*
X0239638Y0242157D01*
X0243542Y0242157D02*
X0250028Y0242157D01*
X0248415Y0244124D02*
X0244900Y0244124D01*
X0245306Y0246091D02*
X0247352Y0246091D01*
X0246825Y0248058D02*
X0245020Y0248058D01*
X0243911Y0250025D02*
X0246646Y0250025D01*
X0246724Y0251992D02*
X0100185Y0251992D01*
X0100896Y0251281D02*
X0098328Y0253849D01*
X0094696Y0253849D01*
X0092128Y0251281D01*
X0092128Y0247649D01*
X0094696Y0245080D01*
X0098328Y0245080D01*
X0100896Y0247649D01*
X0100896Y0251281D01*
X0100896Y0250025D02*
X0185616Y0250025D01*
X0184424Y0248058D02*
X0100896Y0248058D01*
X0099338Y0246091D02*
X0111130Y0246091D01*
X0110485Y0245445D02*
X0112027Y0246988D01*
X0114043Y0247823D01*
X0116225Y0247823D01*
X0118240Y0246988D01*
X0119783Y0245445D01*
X0120032Y0244845D01*
X0120272Y0245318D01*
X0120798Y0246042D01*
X0121431Y0246674D01*
X0122155Y0247200D01*
X0122952Y0247606D01*
X0123803Y0247883D01*
X0124686Y0248023D01*
X0125134Y0248023D01*
X0125581Y0248023D01*
X0126465Y0247883D01*
X0127316Y0247606D01*
X0128113Y0247200D01*
X0128837Y0246674D01*
X0129470Y0246042D01*
X0129995Y0245318D01*
X0130402Y0244521D01*
X0130678Y0243670D01*
X0130818Y0242786D01*
X0130818Y0242339D01*
X0125134Y0242339D01*
X0125134Y0242339D01*
X0125134Y0248023D01*
X0125134Y0242339D01*
X0125134Y0242339D01*
X0125914Y0242349D01*
X0134912Y0242349D01*
X0158444Y0218817D01*
X0160520Y0218817D01*
X0161000Y0218323D01*
X0161000Y0218553D02*
X0161000Y0218553D01*
X0161000Y0220520D02*
X0161000Y0220520D01*
X0161000Y0222487D02*
X0161000Y0222487D01*
X0157125Y0222487D02*
X0154592Y0222487D01*
X0147408Y0222487D02*
X0099690Y0222487D01*
X0100896Y0220520D02*
X0145974Y0220520D01*
X0145516Y0218553D02*
X0100896Y0218553D01*
X0099833Y0216586D02*
X0145783Y0216586D01*
X0164875Y0222487D02*
X0167408Y0222487D01*
X0174592Y0222487D02*
X0219379Y0222487D01*
X0217412Y0224454D02*
X0083617Y0224454D01*
X0081650Y0226421D02*
X0215445Y0226421D01*
X0213478Y0228388D02*
X0079683Y0228388D01*
X0077726Y0226430D02*
X0067083Y0226430D01*
X0065353Y0228160D01*
X0049088Y0211895D01*
X0048835Y0211236D01*
X0046017Y0214619D02*
X0006056Y0214619D01*
X0006053Y0216586D02*
X0049863Y0216586D01*
X0051830Y0218553D02*
X0006050Y0218553D01*
X0006047Y0220520D02*
X0053797Y0220520D01*
X0055764Y0222487D02*
X0006044Y0222487D01*
X0006041Y0224454D02*
X0057732Y0224454D01*
X0059699Y0226421D02*
X0006038Y0226421D01*
X0006035Y0228388D02*
X0035303Y0228388D01*
X0034936Y0228755D02*
X0036282Y0227409D01*
X0038040Y0226680D01*
X0039944Y0226680D01*
X0041702Y0227409D01*
X0043048Y0228755D01*
X0043776Y0230513D01*
X0043776Y0238416D01*
X0043048Y0240175D01*
X0041702Y0241520D01*
X0039944Y0242249D01*
X0038040Y0242249D01*
X0036282Y0241520D01*
X0034936Y0240175D01*
X0034208Y0238416D01*
X0034208Y0230513D01*
X0034936Y0228755D01*
X0034273Y0230355D02*
X0006032Y0230355D01*
X0006029Y0232322D02*
X0034208Y0232322D01*
X0034208Y0234289D02*
X0006026Y0234289D01*
X0006023Y0236256D02*
X0034208Y0236256D01*
X0034208Y0238223D02*
X0006020Y0238223D01*
X0006017Y0240190D02*
X0008627Y0240190D01*
X0019042Y0240190D02*
X0034952Y0240190D01*
X0037819Y0242157D02*
X0021736Y0242157D01*
X0023348Y0244124D02*
X0109937Y0244124D01*
X0109650Y0243429D02*
X0109650Y0241248D01*
X0110485Y0239232D01*
X0112027Y0237689D01*
X0114043Y0236854D01*
X0116225Y0236854D01*
X0118240Y0237689D01*
X0119783Y0239232D01*
X0120032Y0239832D01*
X0120272Y0239359D01*
X0120798Y0238636D01*
X0121431Y0238003D01*
X0122155Y0237477D01*
X0122952Y0237071D01*
X0123803Y0236794D01*
X0124686Y0236654D01*
X0125134Y0236654D01*
X0125581Y0236654D01*
X0126465Y0236794D01*
X0127316Y0237071D01*
X0128113Y0237477D01*
X0128837Y0238003D01*
X0129470Y0238636D01*
X0129995Y0239359D01*
X0130402Y0240157D01*
X0130678Y0241008D01*
X0130818Y0241891D01*
X0130818Y0242339D01*
X0125134Y0242339D01*
X0124530Y0241657D01*
X0117609Y0234735D01*
X0069160Y0234735D01*
X0068992Y0234465D01*
X0068976Y0234480D02*
X0064008Y0234480D01*
X0064008Y0237857D01*
X0064131Y0238632D01*
X0064373Y0239378D01*
X0064729Y0240077D01*
X0065190Y0240712D01*
X0065745Y0241266D01*
X0066380Y0241727D01*
X0067079Y0242084D01*
X0067825Y0242326D01*
X0068600Y0242449D01*
X0068976Y0242449D01*
X0068976Y0234480D01*
X0068976Y0236256D02*
X0069008Y0236256D01*
X0068976Y0238223D02*
X0069008Y0238223D01*
X0068976Y0240190D02*
X0069008Y0240190D01*
X0068976Y0242157D02*
X0069008Y0242157D01*
X0070680Y0242157D02*
X0109650Y0242157D01*
X0109650Y0243429D02*
X0110485Y0245445D01*
X0110088Y0240190D02*
X0073173Y0240190D01*
X0073918Y0238223D02*
X0111494Y0238223D01*
X0118774Y0238223D02*
X0121211Y0238223D01*
X0125134Y0238223D02*
X0125134Y0238223D01*
X0125134Y0236654D02*
X0125134Y0242338D01*
X0125134Y0242338D01*
X0125134Y0236654D01*
X0129057Y0238223D02*
X0203643Y0238223D01*
X0205610Y0236256D02*
X0073976Y0236256D01*
X0073976Y0234289D02*
X0207577Y0234289D01*
X0209544Y0232322D02*
X0073976Y0232322D01*
X0073863Y0230355D02*
X0211511Y0230355D01*
X0215407Y0234289D02*
X0245471Y0234289D01*
X0245471Y0235615D02*
X0245471Y0231818D01*
X0248156Y0229132D01*
X0251954Y0229132D01*
X0254639Y0231818D01*
X0254639Y0235615D01*
X0251954Y0238301D01*
X0248156Y0238301D01*
X0245471Y0235615D01*
X0246111Y0236256D02*
X0213440Y0236256D01*
X0211473Y0238223D02*
X0248078Y0238223D01*
X0252032Y0238223D02*
X0267549Y0238223D01*
X0267108Y0238888D02*
X0276106Y0247886D01*
X0288564Y0247886D01*
X0288874Y0248132D01*
X0289256Y0247194D01*
X0302406Y0234043D01*
X0305175Y0234043D01*
X0305185Y0233423D01*
X0304201Y0234289D02*
X0286446Y0234289D01*
X0286446Y0234650D02*
X0285759Y0237215D01*
X0284780Y0238911D01*
X0285009Y0238801D01*
X0286078Y0238427D01*
X0287182Y0238175D01*
X0287890Y0238095D01*
X0287890Y0247148D01*
X0278837Y0247148D01*
X0278917Y0246440D01*
X0279169Y0245336D01*
X0279543Y0244267D01*
X0280034Y0243247D01*
X0280429Y0242619D01*
X0280255Y0242719D01*
X0277691Y0243406D01*
X0275035Y0243406D01*
X0272471Y0242719D01*
X0270172Y0241392D01*
X0268294Y0239514D01*
X0266967Y0237215D01*
X0266280Y0234650D01*
X0266280Y0231995D01*
X0266967Y0229431D01*
X0268294Y0227131D01*
X0270172Y0225254D01*
X0272471Y0223927D01*
X0275035Y0223239D01*
X0277691Y0223239D01*
X0280255Y0223927D01*
X0282554Y0225254D01*
X0284432Y0227131D01*
X0285759Y0229431D01*
X0286446Y0231995D01*
X0286446Y0234650D01*
X0286016Y0236256D02*
X0295493Y0236256D01*
X0295480Y0236219D02*
X0295228Y0235115D01*
X0295148Y0234407D01*
X0304201Y0234407D01*
X0304201Y0243460D01*
X0303493Y0243380D01*
X0302389Y0243128D01*
X0301320Y0242754D01*
X0300299Y0242263D01*
X0299340Y0241660D01*
X0298455Y0240954D01*
X0297654Y0240153D01*
X0296948Y0239267D01*
X0296345Y0238308D01*
X0295854Y0237288D01*
X0295480Y0236219D01*
X0296304Y0238223D02*
X0290777Y0238223D01*
X0289858Y0238223D02*
X0287890Y0238223D01*
X0286972Y0238223D02*
X0285177Y0238223D01*
X0287890Y0240190D02*
X0289858Y0240190D01*
X0289858Y0242157D02*
X0287890Y0242157D01*
X0287890Y0244124D02*
X0289858Y0244124D01*
X0289858Y0246091D02*
X0287890Y0246091D01*
X0287890Y0248058D02*
X0269033Y0248058D01*
X0269213Y0250025D02*
X0278962Y0250025D01*
X0279541Y0251992D02*
X0269134Y0251992D01*
X0268607Y0253959D02*
X0280626Y0253959D01*
X0282473Y0255926D02*
X0267659Y0255926D01*
X0268506Y0246091D02*
X0278996Y0246091D01*
X0279612Y0244124D02*
X0267443Y0244124D01*
X0265831Y0242157D02*
X0271497Y0242157D01*
X0268970Y0240190D02*
X0263136Y0240190D01*
X0262263Y0238888D02*
X0267108Y0238888D01*
X0266710Y0236256D02*
X0253999Y0236256D01*
X0254639Y0234289D02*
X0266280Y0234289D01*
X0266280Y0232322D02*
X0254639Y0232322D01*
X0253177Y0230355D02*
X0266719Y0230355D01*
X0267569Y0228388D02*
X0221308Y0228388D01*
X0219341Y0230355D02*
X0246934Y0230355D01*
X0245471Y0232322D02*
X0217374Y0232322D01*
X0223275Y0226421D02*
X0269005Y0226421D01*
X0271558Y0224454D02*
X0225243Y0224454D01*
X0227210Y0222487D02*
X0319934Y0222487D01*
X0319931Y0224454D02*
X0309803Y0224454D01*
X0310071Y0224583D02*
X0311030Y0225186D01*
X0311915Y0225892D01*
X0312716Y0226693D01*
X0313422Y0227578D01*
X0314025Y0228537D01*
X0314516Y0229558D01*
X0314890Y0230627D01*
X0315142Y0231731D01*
X0315222Y0232439D01*
X0306169Y0232439D01*
X0306169Y0234407D01*
X0304201Y0234407D01*
X0304201Y0232439D01*
X0295148Y0232439D01*
X0295228Y0231731D01*
X0295480Y0230627D01*
X0295854Y0229558D01*
X0296345Y0228537D01*
X0296948Y0227578D01*
X0297654Y0226693D01*
X0298455Y0225892D01*
X0299340Y0225186D01*
X0300299Y0224583D01*
X0301320Y0224092D01*
X0302389Y0223717D01*
X0303493Y0223465D01*
X0304201Y0223386D01*
X0304201Y0232439D01*
X0306169Y0232439D01*
X0306169Y0223386D01*
X0306877Y0223465D01*
X0307981Y0223717D01*
X0309050Y0224092D01*
X0310071Y0224583D01*
X0312444Y0226421D02*
X0319928Y0226421D01*
X0319925Y0228388D02*
X0313931Y0228388D01*
X0314795Y0230355D02*
X0319922Y0230355D01*
X0319919Y0232322D02*
X0315209Y0232322D01*
X0315222Y0234407D02*
X0315142Y0235115D01*
X0314890Y0236219D01*
X0314516Y0237288D01*
X0314025Y0238308D01*
X0313422Y0239267D01*
X0312716Y0240153D01*
X0311915Y0240954D01*
X0311030Y0241660D01*
X0310071Y0242263D01*
X0309050Y0242754D01*
X0307981Y0243128D01*
X0306877Y0243380D01*
X0306169Y0243460D01*
X0306169Y0234407D01*
X0315222Y0234407D01*
X0314877Y0236256D02*
X0319913Y0236256D01*
X0319910Y0238223D02*
X0314066Y0238223D01*
X0312679Y0240190D02*
X0319907Y0240190D01*
X0319904Y0242157D02*
X0310239Y0242157D01*
X0306169Y0242157D02*
X0304201Y0242157D01*
X0304201Y0240190D02*
X0306169Y0240190D01*
X0306169Y0238223D02*
X0304201Y0238223D01*
X0304201Y0236256D02*
X0306169Y0236256D01*
X0306169Y0234289D02*
X0319916Y0234289D01*
X0319901Y0244124D02*
X0298136Y0244124D01*
X0298752Y0246091D02*
X0319898Y0246091D01*
X0319895Y0248058D02*
X0289858Y0248058D01*
X0298786Y0250025D02*
X0319892Y0250025D01*
X0319889Y0251992D02*
X0298207Y0251992D01*
X0297123Y0253959D02*
X0319886Y0253959D01*
X0319883Y0255926D02*
X0295275Y0255926D01*
X0297007Y0242157D02*
X0300131Y0242157D01*
X0297691Y0240190D02*
X0295089Y0240190D01*
X0295161Y0232322D02*
X0286446Y0232322D01*
X0286007Y0230355D02*
X0295575Y0230355D01*
X0296439Y0228388D02*
X0285157Y0228388D01*
X0283721Y0226421D02*
X0297926Y0226421D01*
X0300568Y0224454D02*
X0281168Y0224454D01*
X0271647Y0214159D02*
X0268962Y0216844D01*
X0265164Y0216844D01*
X0262479Y0214159D01*
X0262479Y0210361D01*
X0265164Y0207676D01*
X0268962Y0207676D01*
X0271647Y0210361D01*
X0271647Y0214159D01*
X0271187Y0214619D02*
X0319946Y0214619D01*
X0319943Y0216586D02*
X0269220Y0216586D01*
X0264906Y0216586D02*
X0233111Y0216586D01*
X0235078Y0214619D02*
X0262939Y0214619D01*
X0262479Y0212652D02*
X0237045Y0212652D01*
X0238600Y0210685D02*
X0262479Y0210685D01*
X0264122Y0208718D02*
X0238731Y0208718D01*
X0238731Y0206751D02*
X0246606Y0206751D01*
X0245471Y0205615D02*
X0245471Y0201818D01*
X0248156Y0199132D01*
X0251954Y0199132D01*
X0254639Y0201818D01*
X0254639Y0205615D01*
X0251954Y0208301D01*
X0248156Y0208301D01*
X0245471Y0205615D01*
X0245471Y0204784D02*
X0238731Y0204784D01*
X0238731Y0202817D02*
X0245471Y0202817D01*
X0246439Y0200850D02*
X0238731Y0200850D01*
X0238731Y0198883D02*
X0273734Y0198883D01*
X0273734Y0196916D02*
X0238731Y0196916D01*
X0238731Y0194949D02*
X0244262Y0194949D01*
X0243517Y0194640D02*
X0242283Y0193406D01*
X0241616Y0191795D01*
X0241616Y0184851D01*
X0242283Y0183239D01*
X0243517Y0182006D01*
X0245128Y0181339D01*
X0246872Y0181339D01*
X0248483Y0182006D01*
X0249717Y0183239D01*
X0250384Y0184851D01*
X0250384Y0191795D01*
X0249717Y0193406D01*
X0248483Y0194640D01*
X0246872Y0195307D01*
X0245128Y0195307D01*
X0243517Y0194640D01*
X0242107Y0192982D02*
X0239893Y0192982D01*
X0240384Y0191015D02*
X0241616Y0191015D01*
X0241616Y0189048D02*
X0240384Y0189048D01*
X0240384Y0187081D02*
X0241616Y0187081D01*
X0241616Y0185114D02*
X0240384Y0185114D01*
X0239624Y0183147D02*
X0242376Y0183147D01*
X0249624Y0183147D02*
X0262279Y0183147D01*
X0262279Y0182260D02*
X0262279Y0180278D01*
X0263344Y0179212D02*
X0181311Y0179212D01*
X0179344Y0177245D02*
X0273734Y0177245D01*
X0273734Y0175278D02*
X0177377Y0175278D01*
X0175410Y0173311D02*
X0273734Y0173311D01*
X0279861Y0173311D02*
X0301939Y0173311D01*
X0302810Y0172441D02*
X0299803Y0175448D01*
X0299803Y0177575D01*
X0304937Y0177575D01*
X0304937Y0177575D01*
X0310071Y0177575D01*
X0310071Y0179701D01*
X0307064Y0182709D01*
X0306084Y0182709D01*
X0307732Y0183392D01*
X0309120Y0184780D01*
X0309871Y0186593D01*
X0309871Y0188556D01*
X0309120Y0190370D01*
X0307732Y0191758D01*
X0305918Y0192509D01*
X0303956Y0192509D01*
X0302142Y0191758D01*
X0300754Y0190370D01*
X0300003Y0188556D01*
X0300003Y0186593D01*
X0300754Y0184780D01*
X0302142Y0183392D01*
X0303790Y0182709D01*
X0302810Y0182709D01*
X0299803Y0179701D01*
X0299803Y0177575D01*
X0304937Y0177575D01*
X0304937Y0177575D01*
X0310071Y0177575D01*
X0310071Y0175448D01*
X0307064Y0172441D01*
X0304937Y0172441D01*
X0304937Y0177575D01*
X0304937Y0177575D01*
X0304937Y0172441D01*
X0302810Y0172441D01*
X0304937Y0173311D02*
X0304937Y0173311D01*
X0304937Y0175278D02*
X0304937Y0175278D01*
X0304937Y0177245D02*
X0304937Y0177245D01*
X0299803Y0177245D02*
X0279861Y0177245D01*
X0279861Y0175278D02*
X0299972Y0175278D01*
X0299803Y0179212D02*
X0279861Y0179212D01*
X0279861Y0181179D02*
X0301281Y0181179D01*
X0302734Y0183147D02*
X0279861Y0183147D01*
X0279861Y0185114D02*
X0300616Y0185114D01*
X0300003Y0187081D02*
X0279861Y0187081D01*
X0279861Y0189048D02*
X0300206Y0189048D01*
X0301399Y0191015D02*
X0279861Y0191015D01*
X0279861Y0192982D02*
X0319978Y0192982D01*
X0319975Y0194949D02*
X0279861Y0194949D01*
X0279861Y0196916D02*
X0319972Y0196916D01*
X0319981Y0191015D02*
X0308475Y0191015D01*
X0309668Y0189048D02*
X0319984Y0189048D01*
X0319987Y0187081D02*
X0309871Y0187081D01*
X0309258Y0185114D02*
X0319990Y0185114D01*
X0319993Y0183147D02*
X0307140Y0183147D01*
X0308593Y0181179D02*
X0319996Y0181179D01*
X0319999Y0179212D02*
X0310071Y0179212D01*
X0310071Y0177245D02*
X0320002Y0177245D01*
X0320005Y0175278D02*
X0309902Y0175278D01*
X0307935Y0173311D02*
X0320008Y0173311D01*
X0320011Y0171344D02*
X0279861Y0171344D01*
X0279861Y0169377D02*
X0320014Y0169377D01*
X0320017Y0167410D02*
X0279861Y0167410D01*
X0289745Y0165443D02*
X0302255Y0165443D01*
X0301744Y0164933D02*
X0301016Y0163174D01*
X0301016Y0161271D01*
X0301744Y0159513D01*
X0303090Y0158167D01*
X0304848Y0157439D01*
X0312752Y0157439D01*
X0314510Y0158167D01*
X0315856Y0159513D01*
X0316584Y0161271D01*
X0316584Y0163174D01*
X0315856Y0164933D01*
X0314510Y0166279D01*
X0312752Y0167007D01*
X0304848Y0167007D01*
X0303090Y0166279D01*
X0301744Y0164933D01*
X0301141Y0163476D02*
X0290859Y0163476D01*
X0290984Y0161509D02*
X0301016Y0161509D01*
X0301732Y0159542D02*
X0290268Y0159542D01*
X0287482Y0157575D02*
X0304518Y0157575D01*
X0313082Y0157575D02*
X0320032Y0157575D01*
X0320029Y0159542D02*
X0315868Y0159542D01*
X0316584Y0161509D02*
X0320026Y0161509D01*
X0320023Y0163476D02*
X0316459Y0163476D01*
X0315345Y0165443D02*
X0320020Y0165443D01*
X0314195Y0198883D02*
X0280404Y0198883D01*
X0281925Y0200850D02*
X0312674Y0200850D01*
X0312215Y0202817D02*
X0282383Y0202817D01*
X0282050Y0204784D02*
X0312548Y0204784D01*
X0313891Y0206751D02*
X0280707Y0206751D01*
X0273891Y0206751D02*
X0253504Y0206751D01*
X0254639Y0204784D02*
X0272548Y0204784D01*
X0272215Y0202817D02*
X0254639Y0202817D01*
X0253671Y0200850D02*
X0272674Y0200850D01*
X0273734Y0194949D02*
X0247738Y0194949D01*
X0249893Y0192982D02*
X0273734Y0192982D01*
X0273734Y0191015D02*
X0250384Y0191015D01*
X0250384Y0189048D02*
X0273734Y0189048D01*
X0273734Y0187081D02*
X0250384Y0187081D01*
X0250384Y0185114D02*
X0263151Y0185114D01*
X0262279Y0182260D02*
X0267063Y0182260D01*
X0267063Y0182260D01*
X0267063Y0177476D01*
X0267063Y0182260D01*
X0267063Y0182260D01*
X0267063Y0183147D02*
X0267063Y0183147D01*
X0267063Y0185114D02*
X0267063Y0185114D01*
X0270975Y0185114D02*
X0273734Y0185114D01*
X0273734Y0183147D02*
X0271847Y0183147D01*
X0271847Y0181179D02*
X0273734Y0181179D01*
X0273734Y0179212D02*
X0270782Y0179212D01*
X0267063Y0179212D02*
X0267063Y0179212D01*
X0267063Y0181179D02*
X0267063Y0181179D01*
X0267821Y0171344D02*
X0173443Y0171344D01*
X0171476Y0169377D02*
X0266616Y0169377D01*
X0242117Y0153641D02*
X0239883Y0153641D01*
X0240384Y0155608D02*
X0241616Y0155608D01*
X0241616Y0157575D02*
X0240384Y0157575D01*
X0240384Y0159542D02*
X0240796Y0159542D01*
X0236000Y0158323D02*
X0235962Y0157909D01*
X0235962Y0031250D01*
X0224888Y0020176D01*
X0224346Y0019504D01*
X0219562Y0019884D02*
X0219131Y0019884D01*
X0219131Y0017917D02*
X0219562Y0017917D01*
X0219562Y0015950D02*
X0219131Y0015950D01*
X0218481Y0013983D02*
X0220212Y0013983D01*
X0222679Y0012016D02*
X0216014Y0012016D01*
X0212679Y0012016D02*
X0210953Y0012016D01*
X0208986Y0010049D02*
X0300454Y0010049D01*
X0301462Y0008082D02*
X0130369Y0008082D01*
X0131003Y0008345D02*
X0132236Y0009578D01*
X0132904Y0011189D01*
X0132904Y0018134D01*
X0132236Y0019745D01*
X0131003Y0020978D01*
X0129392Y0021646D01*
X0127648Y0021646D01*
X0126036Y0020978D01*
X0124803Y0019745D01*
X0124135Y0018134D01*
X0124135Y0011189D01*
X0124803Y0009578D01*
X0126036Y0008345D01*
X0127648Y0007677D01*
X0129392Y0007677D01*
X0131003Y0008345D01*
X0132432Y0010049D02*
X0168117Y0010049D01*
X0166150Y0012016D02*
X0153419Y0012016D01*
X0153545Y0012036D02*
X0154291Y0012279D01*
X0154990Y0012635D01*
X0155625Y0013096D01*
X0156180Y0013651D01*
X0156641Y0014285D01*
X0156997Y0014984D01*
X0157239Y0015730D01*
X0157362Y0016505D01*
X0157362Y0019882D01*
X0152394Y0019882D01*
X0152394Y0019913D01*
X0157362Y0019913D01*
X0157362Y0023290D01*
X0157239Y0024065D01*
X0156997Y0024811D01*
X0156641Y0025510D01*
X0156180Y0026145D01*
X0155625Y0026699D01*
X0154990Y0027161D01*
X0154291Y0027517D01*
X0153545Y0027759D01*
X0152770Y0027882D01*
X0152394Y0027882D01*
X0152394Y0019913D01*
X0152362Y0019913D01*
X0152362Y0019882D01*
X0147394Y0019882D01*
X0147394Y0016505D01*
X0147516Y0015730D01*
X0147759Y0014984D01*
X0148115Y0014285D01*
X0148576Y0013651D01*
X0149131Y0013096D01*
X0149766Y0012635D01*
X0150465Y0012279D01*
X0151211Y0012036D01*
X0151986Y0011913D01*
X0152362Y0011913D01*
X0152362Y0019882D01*
X0152394Y0019882D01*
X0152394Y0011913D01*
X0152770Y0011913D01*
X0153545Y0012036D01*
X0152394Y0012016D02*
X0152362Y0012016D01*
X0151337Y0012016D02*
X0132904Y0012016D01*
X0132904Y0013983D02*
X0148335Y0013983D01*
X0147482Y0015950D02*
X0132904Y0015950D01*
X0132904Y0017917D02*
X0147394Y0017917D01*
X0147394Y0019913D02*
X0152362Y0019913D01*
X0152362Y0027882D01*
X0151986Y0027882D01*
X0151211Y0027759D01*
X0150465Y0027517D01*
X0149766Y0027161D01*
X0149131Y0026699D01*
X0148576Y0026145D01*
X0148115Y0025510D01*
X0147759Y0024811D01*
X0147516Y0024065D01*
X0147394Y0023290D01*
X0147394Y0019913D01*
X0147394Y0021851D02*
X0053130Y0021851D01*
X0051163Y0023818D02*
X0147477Y0023818D01*
X0148315Y0025785D02*
X0071936Y0025785D01*
X0071845Y0025694D02*
X0072400Y0026249D01*
X0072861Y0026884D01*
X0073218Y0027583D01*
X0073460Y0028329D01*
X0073583Y0029104D01*
X0073583Y0032480D01*
X0068614Y0032480D01*
X0068614Y0024512D01*
X0068991Y0024512D01*
X0069766Y0024635D01*
X0070512Y0024877D01*
X0071211Y0025233D01*
X0071845Y0025694D01*
X0073273Y0027752D02*
X0151190Y0027752D01*
X0152362Y0027752D02*
X0152394Y0027752D01*
X0153566Y0027752D02*
X0218167Y0027752D01*
X0220134Y0029719D02*
X0073583Y0029719D01*
X0073583Y0031686D02*
X0222101Y0031686D01*
X0224068Y0033653D02*
X0073583Y0033653D01*
X0073583Y0032512D02*
X0073583Y0035888D01*
X0073460Y0036663D01*
X0073218Y0037409D01*
X0072861Y0038108D01*
X0072400Y0038743D01*
X0071845Y0039298D01*
X0071211Y0039759D01*
X0070512Y0040115D01*
X0069766Y0040358D01*
X0068991Y0040480D01*
X0068614Y0040480D01*
X0068614Y0032512D01*
X0068583Y0032512D01*
X0068583Y0040480D01*
X0068206Y0040480D01*
X0067431Y0040358D01*
X0066685Y0040115D01*
X0065986Y0039759D01*
X0065351Y0039298D01*
X0064797Y0038743D01*
X0064336Y0038108D01*
X0063979Y0037409D01*
X0063737Y0036663D01*
X0063614Y0035888D01*
X0063614Y0032512D01*
X0068583Y0032512D01*
X0068583Y0032480D01*
X0068614Y0032480D01*
X0068614Y0032512D01*
X0073583Y0032512D01*
X0073583Y0035620D02*
X0113476Y0035620D01*
X0115532Y0037480D02*
X0120377Y0037480D01*
X0123838Y0040940D01*
X0123838Y0068625D01*
X0180592Y0125380D01*
X0180592Y0130224D01*
X0174363Y0136454D01*
X0195819Y0157909D01*
X0196000Y0158323D01*
X0200384Y0157575D02*
X0201616Y0157575D01*
X0201616Y0155608D02*
X0200384Y0155608D01*
X0201616Y0154851D02*
X0202283Y0153239D01*
X0203517Y0152006D01*
X0205128Y0151339D01*
X0206872Y0151339D01*
X0208483Y0152006D01*
X0209717Y0153239D01*
X0210384Y0154851D01*
X0210384Y0161795D01*
X0209717Y0163406D01*
X0208483Y0164640D01*
X0206872Y0165307D01*
X0205128Y0165307D01*
X0203517Y0164640D01*
X0202283Y0163406D01*
X0201616Y0161795D01*
X0201616Y0154851D01*
X0202117Y0153641D02*
X0199883Y0153641D01*
X0197682Y0151674D02*
X0204317Y0151674D01*
X0207682Y0151674D02*
X0214317Y0151674D01*
X0213517Y0152006D02*
X0215128Y0151339D01*
X0216872Y0151339D01*
X0218483Y0152006D01*
X0219717Y0153239D01*
X0220384Y0154851D01*
X0220384Y0161795D01*
X0219717Y0163406D01*
X0218483Y0164640D01*
X0216872Y0165307D01*
X0215128Y0165307D01*
X0213517Y0164640D01*
X0212283Y0163406D01*
X0211616Y0161795D01*
X0211616Y0154851D01*
X0212283Y0153239D01*
X0213517Y0152006D01*
X0212117Y0153641D02*
X0209883Y0153641D01*
X0210384Y0155608D02*
X0211616Y0155608D01*
X0211616Y0157575D02*
X0210384Y0157575D01*
X0210384Y0159542D02*
X0211616Y0159542D01*
X0211616Y0161509D02*
X0210384Y0161509D01*
X0209647Y0163476D02*
X0212353Y0163476D01*
X0219647Y0163476D02*
X0222353Y0163476D01*
X0221616Y0161509D02*
X0220384Y0161509D01*
X0220384Y0159542D02*
X0221616Y0159542D01*
X0221616Y0157575D02*
X0220384Y0157575D01*
X0220384Y0155608D02*
X0221616Y0155608D01*
X0222117Y0153641D02*
X0219883Y0153641D01*
X0217682Y0151674D02*
X0224317Y0151674D01*
X0227657Y0149707D02*
X0191532Y0149707D01*
X0189565Y0147740D02*
X0227657Y0147740D01*
X0227657Y0145773D02*
X0187598Y0145773D01*
X0185631Y0143806D02*
X0191536Y0143806D01*
X0192290Y0144561D02*
X0189605Y0141875D01*
X0189605Y0139976D01*
X0194189Y0139976D01*
X0198773Y0139976D01*
X0198773Y0141875D01*
X0196088Y0144561D01*
X0194189Y0144561D01*
X0194189Y0139977D01*
X0194189Y0144561D01*
X0192290Y0144561D01*
X0194189Y0143806D02*
X0194189Y0143806D01*
X0194189Y0141839D02*
X0194189Y0141839D01*
X0194189Y0139977D02*
X0194189Y0139977D01*
X0194189Y0139872D02*
X0194189Y0139872D01*
X0194189Y0137905D02*
X0194189Y0137905D01*
X0194189Y0135938D02*
X0194189Y0135938D01*
X0196634Y0135938D02*
X0227657Y0135938D01*
X0227657Y0133971D02*
X0180761Y0133971D01*
X0178794Y0135938D02*
X0191744Y0135938D01*
X0189777Y0137905D02*
X0179730Y0137905D01*
X0181697Y0139872D02*
X0189605Y0139872D01*
X0189605Y0141839D02*
X0183664Y0141839D01*
X0179767Y0145773D02*
X0167252Y0145773D01*
X0167963Y0146484D02*
X0168429Y0147610D01*
X0168429Y0151984D01*
X0168483Y0152006D01*
X0169717Y0153239D01*
X0170384Y0154851D01*
X0170384Y0161795D01*
X0169717Y0163406D01*
X0169121Y0164002D01*
X0169121Y0167022D01*
X0169121Y0165443D02*
X0185237Y0165443D01*
X0186000Y0165443D02*
X0186000Y0165443D01*
X0186763Y0165443D02*
X0229891Y0165443D01*
X0226872Y0181339D02*
X0228483Y0182006D01*
X0229717Y0183239D01*
X0230384Y0184851D01*
X0230384Y0191795D01*
X0229717Y0193406D01*
X0228483Y0194640D01*
X0226872Y0195307D01*
X0225128Y0195307D01*
X0223517Y0194640D01*
X0222283Y0193406D01*
X0221616Y0191795D01*
X0221616Y0184851D01*
X0222283Y0183239D01*
X0223517Y0182006D01*
X0225128Y0181339D01*
X0226872Y0181339D01*
X0229624Y0183147D02*
X0232376Y0183147D01*
X0231616Y0185114D02*
X0230384Y0185114D01*
X0230384Y0187081D02*
X0231616Y0187081D01*
X0231616Y0189048D02*
X0230384Y0189048D01*
X0230384Y0191015D02*
X0231616Y0191015D01*
X0232107Y0192982D02*
X0229893Y0192982D01*
X0227738Y0194949D02*
X0233194Y0194949D01*
X0233194Y0196916D02*
X0218609Y0196916D01*
X0218598Y0198883D02*
X0233194Y0198883D01*
X0233194Y0200850D02*
X0218586Y0200850D01*
X0218575Y0202817D02*
X0233194Y0202817D01*
X0233194Y0204784D02*
X0218215Y0204784D01*
X0216358Y0206751D02*
X0233194Y0206751D01*
X0233148Y0208718D02*
X0214429Y0208718D01*
X0212499Y0210685D02*
X0231181Y0210685D01*
X0229214Y0212652D02*
X0210570Y0212652D01*
X0208519Y0214619D02*
X0227247Y0214619D01*
X0225280Y0216586D02*
X0176217Y0216586D01*
X0176484Y0218553D02*
X0223313Y0218553D01*
X0221346Y0220520D02*
X0176026Y0220520D01*
X0197953Y0204974D02*
X0065699Y0204974D01*
X0059470Y0198745D01*
X0059470Y0194592D01*
X0058598Y0193913D01*
X0058778Y0193900D01*
X0049088Y0184210D01*
X0049088Y0170368D01*
X0048441Y0170291D01*
X0045261Y0173311D02*
X0006118Y0173311D01*
X0006121Y0171344D02*
X0044057Y0171344D01*
X0044057Y0169377D02*
X0006124Y0169377D01*
X0006127Y0167410D02*
X0045122Y0167410D01*
X0051760Y0167410D02*
X0060854Y0167410D01*
X0060854Y0169377D02*
X0052825Y0169377D01*
X0052825Y0171344D02*
X0060854Y0171344D01*
X0060854Y0173311D02*
X0051857Y0173311D01*
X0051857Y0175278D02*
X0060854Y0175278D01*
X0060854Y0177245D02*
X0051857Y0177245D01*
X0051857Y0179212D02*
X0060854Y0179212D01*
X0060854Y0181179D02*
X0051857Y0181179D01*
X0051940Y0183147D02*
X0060854Y0183147D01*
X0060854Y0185114D02*
X0053907Y0185114D01*
X0046466Y0185114D02*
X0006100Y0185114D01*
X0006097Y0187081D02*
X0035665Y0187081D01*
X0034193Y0189048D02*
X0006094Y0189048D01*
X0006091Y0191015D02*
X0033814Y0191015D01*
X0033814Y0192982D02*
X0006088Y0192982D01*
X0006085Y0194949D02*
X0033814Y0194949D01*
X0033814Y0196916D02*
X0006082Y0196916D01*
X0006079Y0198883D02*
X0034236Y0198883D01*
X0035769Y0200850D02*
X0006077Y0200850D01*
X0006074Y0202817D02*
X0042598Y0202817D01*
X0044565Y0204784D02*
X0006071Y0204784D01*
X0006068Y0206751D02*
X0047224Y0206751D01*
X0045153Y0208718D02*
X0006065Y0208718D01*
X0006062Y0210685D02*
X0044450Y0210685D01*
X0044450Y0212652D02*
X0006059Y0212652D01*
X0006103Y0183147D02*
X0046320Y0183147D01*
X0046320Y0181179D02*
X0006106Y0181179D01*
X0006109Y0179212D02*
X0046320Y0179212D01*
X0046320Y0177245D02*
X0006112Y0177245D01*
X0006115Y0175278D02*
X0046320Y0175278D01*
X0056969Y0163476D02*
X0006133Y0163476D01*
X0006136Y0161509D02*
X0056009Y0161509D01*
X0055013Y0159542D02*
X0052184Y0159542D01*
X0052654Y0159072D02*
X0051308Y0160418D01*
X0049550Y0161146D01*
X0047647Y0161146D01*
X0045888Y0160418D01*
X0044543Y0159072D01*
X0043814Y0157314D01*
X0043814Y0149411D01*
X0044543Y0147652D01*
X0045888Y0146306D01*
X0047647Y0145578D01*
X0049550Y0145578D01*
X0051308Y0146306D01*
X0052654Y0147652D01*
X0053383Y0149411D01*
X0053383Y0157314D01*
X0052654Y0159072D01*
X0053274Y0157575D02*
X0053922Y0157575D01*
X0053814Y0155608D02*
X0053383Y0155608D01*
X0053383Y0153641D02*
X0053814Y0153641D01*
X0053814Y0151674D02*
X0053383Y0151674D01*
X0053383Y0149707D02*
X0053814Y0149707D01*
X0054506Y0147740D02*
X0052691Y0147740D01*
X0050021Y0145773D02*
X0057175Y0145773D01*
X0060021Y0145773D02*
X0060854Y0145773D01*
X0060854Y0143806D02*
X0006163Y0143806D01*
X0006166Y0141839D02*
X0060854Y0141839D01*
X0060854Y0139872D02*
X0006168Y0139872D01*
X0006171Y0137905D02*
X0060854Y0137905D01*
X0060854Y0135938D02*
X0006174Y0135938D01*
X0006177Y0133971D02*
X0046472Y0133971D01*
X0047019Y0134518D02*
X0044450Y0131950D01*
X0044450Y0128318D01*
X0047019Y0125750D01*
X0050651Y0125750D01*
X0053219Y0128318D01*
X0053219Y0131950D01*
X0050651Y0134518D01*
X0047019Y0134518D01*
X0044505Y0132004D02*
X0006180Y0132004D01*
X0006183Y0130037D02*
X0044450Y0130037D01*
X0044698Y0128070D02*
X0006186Y0128070D01*
X0006189Y0126103D02*
X0046665Y0126103D01*
X0051004Y0126103D02*
X0060854Y0126103D01*
X0060854Y0124136D02*
X0006192Y0124136D01*
X0006195Y0122169D02*
X0060854Y0122169D01*
X0066391Y0122169D02*
X0095256Y0122169D01*
X0097223Y0124136D02*
X0066391Y0124136D01*
X0060854Y0128070D02*
X0052971Y0128070D01*
X0053219Y0130037D02*
X0060854Y0130037D01*
X0060854Y0132004D02*
X0053165Y0132004D01*
X0051198Y0133971D02*
X0060854Y0133971D01*
X0066391Y0145773D02*
X0066626Y0145773D01*
X0072854Y0147740D02*
X0075786Y0147740D01*
X0075786Y0149707D02*
X0073541Y0149707D01*
X0073583Y0151674D02*
X0075786Y0151674D01*
X0075786Y0153641D02*
X0073583Y0153641D01*
X0073583Y0155608D02*
X0075786Y0155608D01*
X0075786Y0157575D02*
X0073445Y0157575D01*
X0072449Y0159542D02*
X0075786Y0159542D01*
X0075786Y0161509D02*
X0066985Y0161509D01*
X0068583Y0159542D02*
X0068614Y0159542D01*
X0068583Y0157575D02*
X0068614Y0157575D01*
X0068583Y0155608D02*
X0068614Y0155608D01*
X0063623Y0162062D02*
X0063623Y0098387D01*
X0043551Y0078315D01*
X0043551Y0047861D01*
X0058778Y0032635D01*
X0058598Y0032496D01*
X0053814Y0031686D02*
X0053383Y0031686D01*
X0053383Y0029719D02*
X0053814Y0029719D01*
X0054142Y0027752D02*
X0053055Y0027752D01*
X0051654Y0025785D02*
X0055543Y0025785D01*
X0055097Y0019884D02*
X0104942Y0019884D01*
X0104803Y0019745D02*
X0104135Y0018134D01*
X0104135Y0011189D01*
X0104803Y0009578D01*
X0106036Y0008345D01*
X0107648Y0007677D01*
X0109392Y0007677D01*
X0111003Y0008345D01*
X0112236Y0009578D01*
X0112904Y0011189D01*
X0112904Y0018134D01*
X0112236Y0019745D01*
X0111003Y0020978D01*
X0109392Y0021646D01*
X0107648Y0021646D01*
X0106036Y0020978D01*
X0104803Y0019745D01*
X0104135Y0017917D02*
X0057064Y0017917D01*
X0059031Y0015950D02*
X0104135Y0015950D01*
X0104135Y0013983D02*
X0060998Y0013983D01*
X0056267Y0010049D02*
X0053219Y0010049D01*
X0053219Y0008082D02*
X0058234Y0008082D01*
X0054300Y0012016D02*
X0052286Y0012016D01*
X0052333Y0013983D02*
X0023937Y0013983D01*
X0023937Y0015950D02*
X0050366Y0015950D01*
X0048399Y0017917D02*
X0023494Y0017917D01*
X0022735Y0019884D02*
X0046432Y0019884D01*
X0044465Y0021851D02*
X0021539Y0021851D01*
X0019565Y0023818D02*
X0042498Y0023818D01*
X0035543Y0025785D02*
X0015175Y0025785D01*
X0010132Y0025785D02*
X0006341Y0025785D01*
X0006338Y0027752D02*
X0034142Y0027752D01*
X0033814Y0029719D02*
X0006335Y0029719D01*
X0006332Y0031686D02*
X0033814Y0031686D01*
X0033814Y0033653D02*
X0006329Y0033653D01*
X0006326Y0035620D02*
X0033814Y0035620D01*
X0034286Y0037587D02*
X0006323Y0037587D01*
X0006320Y0039554D02*
X0035894Y0039554D01*
X0041303Y0039554D02*
X0045894Y0039554D01*
X0045976Y0041521D02*
X0006317Y0041521D01*
X0006314Y0043488D02*
X0044009Y0043488D01*
X0042042Y0045455D02*
X0006311Y0045455D01*
X0006308Y0047422D02*
X0040783Y0047422D01*
X0040783Y0049389D02*
X0006305Y0049389D01*
X0006302Y0051356D02*
X0040783Y0051356D01*
X0040783Y0053323D02*
X0006299Y0053323D01*
X0006296Y0055291D02*
X0040783Y0055291D01*
X0040783Y0057258D02*
X0006293Y0057258D01*
X0006290Y0059225D02*
X0040783Y0059225D01*
X0040783Y0061192D02*
X0006287Y0061192D01*
X0006284Y0063159D02*
X0040783Y0063159D01*
X0040783Y0065126D02*
X0006281Y0065126D01*
X0006278Y0067093D02*
X0034787Y0067093D01*
X0033829Y0069060D02*
X0006275Y0069060D01*
X0006272Y0071027D02*
X0033814Y0071027D01*
X0033814Y0072994D02*
X0006269Y0072994D01*
X0006266Y0074961D02*
X0033814Y0074961D01*
X0033814Y0076928D02*
X0006263Y0076928D01*
X0006260Y0078895D02*
X0034680Y0078895D01*
X0042183Y0080862D02*
X0006257Y0080862D01*
X0006255Y0082829D02*
X0044150Y0082829D01*
X0046117Y0084796D02*
X0006252Y0084796D01*
X0006249Y0086763D02*
X0045454Y0086763D01*
X0044057Y0088730D02*
X0006246Y0088730D01*
X0006243Y0090697D02*
X0044057Y0090697D01*
X0044928Y0092664D02*
X0006240Y0092664D01*
X0006237Y0094631D02*
X0055952Y0094631D01*
X0057919Y0096598D02*
X0006234Y0096598D01*
X0006231Y0098565D02*
X0059886Y0098565D01*
X0060854Y0100532D02*
X0006228Y0100532D01*
X0006225Y0102499D02*
X0060854Y0102499D01*
X0060854Y0104466D02*
X0006222Y0104466D01*
X0006219Y0106433D02*
X0035604Y0106433D01*
X0035888Y0106149D02*
X0037647Y0105420D01*
X0039550Y0105420D01*
X0041308Y0106149D01*
X0042654Y0107495D01*
X0043383Y0109253D01*
X0043383Y0117156D01*
X0042654Y0118915D01*
X0041308Y0120261D01*
X0039550Y0120989D01*
X0037647Y0120989D01*
X0035888Y0120261D01*
X0034543Y0118915D01*
X0033814Y0117156D01*
X0033814Y0109253D01*
X0034543Y0107495D01*
X0035888Y0106149D01*
X0034168Y0108400D02*
X0006216Y0108400D01*
X0006213Y0110367D02*
X0033814Y0110367D01*
X0033814Y0112334D02*
X0006210Y0112334D01*
X0006207Y0114301D02*
X0033814Y0114301D01*
X0033814Y0116268D02*
X0006204Y0116268D01*
X0006201Y0118235D02*
X0034261Y0118235D01*
X0035830Y0120202D02*
X0006198Y0120202D01*
X0006160Y0145773D02*
X0037175Y0145773D01*
X0037647Y0145578D02*
X0039550Y0145578D01*
X0041308Y0146306D01*
X0042654Y0147652D01*
X0043383Y0149411D01*
X0043383Y0157314D01*
X0042654Y0159072D01*
X0041308Y0160418D01*
X0039550Y0161146D01*
X0037647Y0161146D01*
X0035888Y0160418D01*
X0034543Y0159072D01*
X0033814Y0157314D01*
X0033814Y0149411D01*
X0034543Y0147652D01*
X0035888Y0146306D01*
X0037647Y0145578D01*
X0040021Y0145773D02*
X0047175Y0145773D01*
X0044506Y0147740D02*
X0042691Y0147740D01*
X0043383Y0149707D02*
X0043814Y0149707D01*
X0043814Y0151674D02*
X0043383Y0151674D01*
X0043383Y0153641D02*
X0043814Y0153641D01*
X0043814Y0155608D02*
X0043383Y0155608D01*
X0043274Y0157575D02*
X0043922Y0157575D01*
X0045013Y0159542D02*
X0042184Y0159542D01*
X0035013Y0159542D02*
X0006139Y0159542D01*
X0006142Y0157575D02*
X0033922Y0157575D01*
X0033814Y0155608D02*
X0006145Y0155608D01*
X0006148Y0153641D02*
X0033814Y0153641D01*
X0033814Y0151674D02*
X0006151Y0151674D01*
X0006154Y0149707D02*
X0033814Y0149707D01*
X0034506Y0147740D02*
X0006157Y0147740D01*
X0006130Y0165443D02*
X0058936Y0165443D01*
X0058778Y0161370D02*
X0058778Y0153757D01*
X0058598Y0153362D01*
X0058778Y0161370D02*
X0063623Y0166215D01*
X0063623Y0198745D01*
X0067083Y0202206D01*
X0181976Y0202206D01*
X0195819Y0188363D01*
X0196000Y0188323D01*
X0200384Y0189048D02*
X0201616Y0189048D01*
X0201616Y0191015D02*
X0200384Y0191015D01*
X0199893Y0192982D02*
X0202107Y0192982D01*
X0203157Y0194949D02*
X0197738Y0194949D01*
X0194262Y0194949D02*
X0193149Y0194949D01*
X0191181Y0196916D02*
X0202096Y0196916D01*
X0200129Y0198883D02*
X0189214Y0198883D01*
X0187247Y0200850D02*
X0198162Y0200850D01*
X0197953Y0204974D02*
X0205902Y0197024D01*
X0206000Y0188323D01*
X0210384Y0189048D02*
X0211616Y0189048D01*
X0211616Y0191015D02*
X0210384Y0191015D01*
X0209893Y0192982D02*
X0212107Y0192982D01*
X0213084Y0194949D02*
X0208694Y0194949D01*
X0208672Y0196916D02*
X0213072Y0196916D01*
X0213061Y0198883D02*
X0207962Y0198883D01*
X0205992Y0200850D02*
X0213049Y0200850D01*
X0212460Y0202817D02*
X0204025Y0202817D01*
X0202058Y0204784D02*
X0210531Y0204784D01*
X0208602Y0206751D02*
X0200091Y0206751D01*
X0206673Y0208718D02*
X0082516Y0208718D01*
X0083219Y0210685D02*
X0089556Y0210685D01*
X0091569Y0212587D02*
X0077726Y0226430D01*
X0077754Y0222487D02*
X0063595Y0222487D01*
X0061628Y0220520D02*
X0079721Y0220520D01*
X0081688Y0218553D02*
X0059661Y0218553D01*
X0057694Y0216586D02*
X0083655Y0216586D01*
X0085622Y0214619D02*
X0081652Y0214619D01*
X0083219Y0212652D02*
X0087589Y0212652D01*
X0091569Y0212587D02*
X0207142Y0212194D01*
X0215803Y0203362D01*
X0215891Y0188363D01*
X0216000Y0188323D01*
X0220384Y0189048D02*
X0221616Y0189048D01*
X0221616Y0191015D02*
X0220384Y0191015D01*
X0219893Y0192982D02*
X0222107Y0192982D01*
X0224262Y0194949D02*
X0218621Y0194949D01*
X0220384Y0187081D02*
X0221616Y0187081D01*
X0221616Y0185114D02*
X0220384Y0185114D01*
X0219624Y0183147D02*
X0222376Y0183147D01*
X0212376Y0183147D02*
X0209624Y0183147D01*
X0210384Y0185114D02*
X0211616Y0185114D01*
X0211616Y0187081D02*
X0210384Y0187081D01*
X0201616Y0187081D02*
X0200384Y0187081D01*
X0200384Y0185114D02*
X0201616Y0185114D01*
X0202376Y0183147D02*
X0199624Y0183147D01*
X0192376Y0183147D02*
X0189624Y0183147D01*
X0190384Y0185114D02*
X0191616Y0185114D01*
X0191616Y0187081D02*
X0190384Y0187081D01*
X0190384Y0189048D02*
X0191219Y0189048D01*
X0181384Y0198883D02*
X0073189Y0198883D01*
X0076017Y0214619D02*
X0055727Y0214619D01*
X0049944Y0226680D02*
X0051702Y0227409D01*
X0053048Y0228755D01*
X0053776Y0230513D01*
X0053776Y0238416D01*
X0053048Y0240175D01*
X0051702Y0241520D01*
X0049944Y0242249D01*
X0048040Y0242249D01*
X0046282Y0241520D01*
X0044936Y0240175D01*
X0044208Y0238416D01*
X0044208Y0230513D01*
X0044936Y0228755D01*
X0046282Y0227409D01*
X0048040Y0226680D01*
X0049944Y0226680D01*
X0052681Y0228388D02*
X0055303Y0228388D01*
X0054273Y0230355D02*
X0053711Y0230355D01*
X0053776Y0232322D02*
X0054208Y0232322D01*
X0054208Y0234289D02*
X0053776Y0234289D01*
X0053776Y0236256D02*
X0054208Y0236256D01*
X0054208Y0238223D02*
X0053776Y0238223D01*
X0053033Y0240190D02*
X0054952Y0240190D01*
X0057819Y0242157D02*
X0050166Y0242157D01*
X0047819Y0242157D02*
X0040166Y0242157D01*
X0043033Y0240190D02*
X0044952Y0240190D01*
X0044208Y0238223D02*
X0043776Y0238223D01*
X0043776Y0236256D02*
X0044208Y0236256D01*
X0044208Y0234289D02*
X0043776Y0234289D01*
X0043776Y0232322D02*
X0044208Y0232322D01*
X0044273Y0230355D02*
X0043711Y0230355D01*
X0042681Y0228388D02*
X0045303Y0228388D01*
X0058992Y0234465D02*
X0059470Y0234043D01*
X0065353Y0228160D01*
X0064008Y0234289D02*
X0063776Y0234289D01*
X0063776Y0236256D02*
X0064008Y0236256D01*
X0064066Y0238223D02*
X0063776Y0238223D01*
X0063033Y0240190D02*
X0064811Y0240190D01*
X0067304Y0242157D02*
X0060166Y0242157D01*
X0085584Y0222487D02*
X0093334Y0222487D01*
X0092128Y0220520D02*
X0087551Y0220520D01*
X0089518Y0218553D02*
X0092128Y0218553D01*
X0091485Y0216586D02*
X0093190Y0216586D01*
X0117738Y0194949D02*
X0124262Y0194949D01*
X0122107Y0192982D02*
X0119893Y0192982D01*
X0120384Y0191015D02*
X0121616Y0191015D01*
X0121616Y0189048D02*
X0120384Y0189048D01*
X0124530Y0187671D02*
X0112072Y0175213D01*
X0076773Y0175213D01*
X0063623Y0162062D01*
X0068952Y0163476D02*
X0075786Y0163476D01*
X0075786Y0165443D02*
X0070919Y0165443D01*
X0072886Y0167410D02*
X0075122Y0167410D01*
X0081913Y0167410D02*
X0111428Y0167410D01*
X0109461Y0165443D02*
X0081913Y0165443D01*
X0081913Y0163476D02*
X0107494Y0163476D01*
X0105527Y0161509D02*
X0081913Y0161509D01*
X0081913Y0159542D02*
X0103560Y0159542D01*
X0101593Y0157575D02*
X0081913Y0157575D01*
X0081913Y0155608D02*
X0099626Y0155608D01*
X0097834Y0153641D02*
X0081913Y0153641D01*
X0081913Y0151674D02*
X0097537Y0151674D01*
X0097537Y0149707D02*
X0081913Y0149707D01*
X0081913Y0147740D02*
X0097537Y0147740D01*
X0097537Y0145773D02*
X0081913Y0145773D01*
X0081913Y0143806D02*
X0097537Y0143806D01*
X0097537Y0141839D02*
X0081913Y0141839D01*
X0081913Y0139872D02*
X0097537Y0139872D01*
X0097537Y0137905D02*
X0081913Y0137905D01*
X0081913Y0135938D02*
X0097537Y0135938D01*
X0097537Y0133971D02*
X0081913Y0133971D01*
X0083165Y0132004D02*
X0097537Y0132004D01*
X0097537Y0130037D02*
X0083219Y0130037D01*
X0082971Y0128070D02*
X0097537Y0128070D01*
X0097537Y0126103D02*
X0081004Y0126103D01*
X0093252Y0112334D02*
X0094769Y0112334D01*
X0094769Y0110367D02*
X0091285Y0110367D01*
X0089318Y0108400D02*
X0094769Y0108400D01*
X0094769Y0106433D02*
X0087351Y0106433D01*
X0085383Y0104466D02*
X0094769Y0104466D01*
X0094769Y0102499D02*
X0083416Y0102499D01*
X0081449Y0100532D02*
X0094769Y0100532D01*
X0094769Y0098565D02*
X0079482Y0098565D01*
X0077515Y0096598D02*
X0094769Y0096598D01*
X0094769Y0094631D02*
X0075548Y0094631D01*
X0074928Y0092664D02*
X0073581Y0092664D01*
X0074057Y0090697D02*
X0071614Y0090697D01*
X0069647Y0088730D02*
X0074057Y0088730D01*
X0075454Y0086763D02*
X0067680Y0086763D01*
X0065713Y0084796D02*
X0079110Y0084796D01*
X0083842Y0088730D02*
X0094769Y0088730D01*
X0094769Y0090697D02*
X0082825Y0090697D01*
X0081954Y0092664D02*
X0094769Y0092664D01*
X0094769Y0086763D02*
X0085809Y0086763D01*
X0087776Y0084796D02*
X0094769Y0084796D01*
X0094964Y0082829D02*
X0089743Y0082829D01*
X0091710Y0080862D02*
X0096612Y0080862D01*
X0098579Y0078895D02*
X0093677Y0078895D01*
X0097537Y0083852D02*
X0097537Y0116382D01*
X0135604Y0154449D01*
X0135604Y0157909D01*
X0136000Y0158323D01*
X0131616Y0157575D02*
X0130384Y0157575D01*
X0130384Y0155608D02*
X0131616Y0155608D01*
X0130384Y0154851D02*
X0129717Y0153239D01*
X0128483Y0152006D01*
X0126872Y0151339D01*
X0125128Y0151339D01*
X0123517Y0152006D01*
X0122283Y0153239D01*
X0121616Y0154851D01*
X0121616Y0161795D01*
X0122283Y0163406D01*
X0123517Y0164640D01*
X0125128Y0165307D01*
X0126872Y0165307D01*
X0128483Y0164640D01*
X0129717Y0163406D01*
X0130384Y0161795D01*
X0130384Y0154851D01*
X0130881Y0153641D02*
X0129883Y0153641D01*
X0128914Y0151674D02*
X0127682Y0151674D01*
X0126947Y0149707D02*
X0103074Y0149707D01*
X0103074Y0147740D02*
X0124980Y0147740D01*
X0123013Y0145773D02*
X0103074Y0145773D01*
X0103074Y0143806D02*
X0121046Y0143806D01*
X0119079Y0141839D02*
X0103074Y0141839D01*
X0103074Y0139872D02*
X0117112Y0139872D01*
X0115145Y0137905D02*
X0103074Y0137905D01*
X0103074Y0135938D02*
X0113178Y0135938D01*
X0111211Y0133971D02*
X0103074Y0133971D01*
X0103074Y0132004D02*
X0109244Y0132004D01*
X0107277Y0130037D02*
X0103074Y0130037D01*
X0103074Y0128070D02*
X0105310Y0128070D01*
X0103343Y0126103D02*
X0103074Y0126103D01*
X0109206Y0124136D02*
X0143217Y0124136D01*
X0143217Y0126103D02*
X0111173Y0126103D01*
X0113140Y0128070D02*
X0143217Y0128070D01*
X0143217Y0130037D02*
X0115107Y0130037D01*
X0117074Y0132004D02*
X0143217Y0132004D01*
X0143217Y0133971D02*
X0119041Y0133971D01*
X0121009Y0135938D02*
X0143217Y0135938D01*
X0152510Y0131032D02*
X0159805Y0138326D01*
X0159805Y0138160D01*
X0162373Y0135592D01*
X0166005Y0135592D01*
X0167559Y0137146D01*
X0169756Y0137146D01*
X0172016Y0134885D01*
X0172795Y0134107D01*
X0174352Y0132550D01*
X0174184Y0132550D01*
X0171616Y0129981D01*
X0171616Y0126349D01*
X0172555Y0125410D01*
X0131484Y0084340D01*
X0131484Y0084414D01*
X0131084Y0085381D01*
X0152044Y0106341D01*
X0152510Y0107467D01*
X0152510Y0131032D01*
X0152510Y0130037D02*
X0171671Y0130037D01*
X0171616Y0128070D02*
X0152510Y0128070D01*
X0152510Y0126103D02*
X0171862Y0126103D01*
X0171281Y0124136D02*
X0152510Y0124136D01*
X0152510Y0122169D02*
X0169314Y0122169D01*
X0167347Y0120202D02*
X0152510Y0120202D01*
X0152510Y0118235D02*
X0165380Y0118235D01*
X0163413Y0116268D02*
X0152510Y0116268D01*
X0152510Y0114301D02*
X0161446Y0114301D01*
X0159479Y0112334D02*
X0152510Y0112334D01*
X0152510Y0110367D02*
X0157512Y0110367D01*
X0155545Y0108400D02*
X0152510Y0108400D01*
X0152082Y0106433D02*
X0153578Y0106433D01*
X0151611Y0104466D02*
X0150169Y0104466D01*
X0149643Y0102499D02*
X0148202Y0102499D01*
X0147676Y0100532D02*
X0146235Y0100532D01*
X0145709Y0098565D02*
X0144268Y0098565D01*
X0143742Y0096598D02*
X0142301Y0096598D01*
X0141775Y0094631D02*
X0140334Y0094631D01*
X0139808Y0092664D02*
X0138367Y0092664D01*
X0137841Y0090697D02*
X0136400Y0090697D01*
X0135874Y0088730D02*
X0134433Y0088730D01*
X0133907Y0086763D02*
X0132466Y0086763D01*
X0131940Y0084796D02*
X0131326Y0084796D01*
X0139990Y0080862D02*
X0227657Y0080862D01*
X0227657Y0082829D02*
X0141957Y0082829D01*
X0143924Y0084796D02*
X0227657Y0084796D01*
X0227657Y0086763D02*
X0145891Y0086763D01*
X0147858Y0088730D02*
X0227657Y0088730D01*
X0227657Y0090697D02*
X0149825Y0090697D01*
X0151792Y0092664D02*
X0227657Y0092664D01*
X0227657Y0094631D02*
X0153759Y0094631D01*
X0155726Y0096598D02*
X0227657Y0096598D01*
X0227657Y0098565D02*
X0157693Y0098565D01*
X0159660Y0100532D02*
X0227657Y0100532D01*
X0227657Y0102499D02*
X0161627Y0102499D01*
X0163594Y0104466D02*
X0227657Y0104466D01*
X0227657Y0106433D02*
X0165561Y0106433D01*
X0167528Y0108400D02*
X0227657Y0108400D01*
X0227657Y0110367D02*
X0169495Y0110367D01*
X0171462Y0112334D02*
X0185631Y0112334D01*
X0185995Y0111970D02*
X0189627Y0111970D01*
X0192195Y0114538D01*
X0192195Y0118170D01*
X0189627Y0120739D01*
X0185995Y0120739D01*
X0183427Y0118170D01*
X0183427Y0114538D01*
X0185995Y0111970D01*
X0183664Y0114301D02*
X0173429Y0114301D01*
X0175396Y0116268D02*
X0183427Y0116268D01*
X0183491Y0118235D02*
X0177363Y0118235D01*
X0179330Y0120202D02*
X0185458Y0120202D01*
X0190164Y0120202D02*
X0215176Y0120202D01*
X0215912Y0120939D02*
X0217811Y0120939D01*
X0219710Y0120939D01*
X0222395Y0118253D01*
X0222395Y0116354D01*
X0217811Y0116354D01*
X0217811Y0120939D01*
X0217811Y0116354D01*
X0217811Y0116354D01*
X0217811Y0116268D02*
X0217811Y0116268D01*
X0217811Y0118235D02*
X0217811Y0118235D01*
X0217811Y0120202D02*
X0217811Y0120202D01*
X0220446Y0120202D02*
X0227657Y0120202D01*
X0227657Y0118235D02*
X0222395Y0118235D01*
X0222395Y0116268D02*
X0227657Y0116268D01*
X0227657Y0114301D02*
X0222241Y0114301D01*
X0220274Y0112334D02*
X0227657Y0112334D01*
X0217811Y0112334D02*
X0217811Y0112334D01*
X0217811Y0114301D02*
X0217811Y0114301D01*
X0215348Y0112334D02*
X0189991Y0112334D01*
X0191958Y0114301D02*
X0213381Y0114301D01*
X0213227Y0116268D02*
X0192195Y0116268D01*
X0192131Y0118235D02*
X0213227Y0118235D01*
X0227657Y0137905D02*
X0198601Y0137905D01*
X0198773Y0139872D02*
X0227657Y0139872D01*
X0227657Y0141839D02*
X0198773Y0141839D01*
X0196842Y0143806D02*
X0227657Y0143806D01*
X0201616Y0159542D02*
X0200384Y0159542D01*
X0200384Y0161509D02*
X0201616Y0161509D01*
X0202353Y0163476D02*
X0199647Y0163476D01*
X0192353Y0163476D02*
X0189811Y0163476D01*
X0190548Y0161509D02*
X0191616Y0161509D01*
X0191616Y0159542D02*
X0190584Y0159542D01*
X0190584Y0157575D02*
X0191570Y0157575D01*
X0186000Y0158323D02*
X0181416Y0158323D01*
X0181416Y0155362D01*
X0181529Y0154649D01*
X0181752Y0153963D01*
X0182079Y0153320D01*
X0182503Y0152736D01*
X0183014Y0152226D01*
X0183597Y0151802D01*
X0184240Y0151474D01*
X0184927Y0151251D01*
X0185202Y0151208D01*
X0174363Y0140369D01*
X0173249Y0141482D01*
X0172471Y0142261D01*
X0171453Y0142683D01*
X0167683Y0142683D01*
X0166005Y0144361D01*
X0165839Y0144361D01*
X0167963Y0146484D01*
X0168429Y0147740D02*
X0181734Y0147740D01*
X0183701Y0149707D02*
X0168429Y0149707D01*
X0168429Y0151674D02*
X0174317Y0151674D01*
X0173517Y0152006D02*
X0175128Y0151339D01*
X0176872Y0151339D01*
X0178483Y0152006D01*
X0179717Y0153239D01*
X0180384Y0154851D01*
X0180384Y0161795D01*
X0179717Y0163406D01*
X0178483Y0164640D01*
X0176872Y0165307D01*
X0175128Y0165307D01*
X0173517Y0164640D01*
X0172283Y0163406D01*
X0171616Y0161795D01*
X0171616Y0154851D01*
X0172283Y0153239D01*
X0173517Y0152006D01*
X0172117Y0153641D02*
X0169883Y0153641D01*
X0170384Y0155608D02*
X0171616Y0155608D01*
X0171616Y0157575D02*
X0170384Y0157575D01*
X0170384Y0159542D02*
X0171616Y0159542D01*
X0171616Y0161509D02*
X0170384Y0161509D01*
X0169647Y0163476D02*
X0172353Y0163476D01*
X0179647Y0163476D02*
X0182189Y0163476D01*
X0181452Y0161509D02*
X0180384Y0161509D01*
X0180384Y0159542D02*
X0181416Y0159542D01*
X0181416Y0157575D02*
X0180384Y0157575D01*
X0180384Y0155608D02*
X0181416Y0155608D01*
X0181916Y0153641D02*
X0179883Y0153641D01*
X0177682Y0151674D02*
X0183848Y0151674D01*
X0186000Y0158323D02*
X0186000Y0158323D01*
X0186000Y0159542D02*
X0186000Y0159542D01*
X0186000Y0161509D02*
X0186000Y0161509D01*
X0186000Y0163476D02*
X0186000Y0163476D01*
X0193499Y0151674D02*
X0194317Y0151674D01*
X0177800Y0143806D02*
X0166559Y0143806D01*
X0164673Y0139914D02*
X0164189Y0139976D01*
X0164673Y0139914D02*
X0170902Y0139914D01*
X0174363Y0136454D01*
X0172016Y0134885D02*
X0172016Y0134885D01*
X0172795Y0134107D02*
X0172795Y0134107D01*
X0172930Y0133971D02*
X0155450Y0133971D01*
X0157417Y0135938D02*
X0162027Y0135938D01*
X0160060Y0137905D02*
X0159384Y0137905D01*
X0166351Y0135938D02*
X0170963Y0135938D01*
X0173638Y0132004D02*
X0153483Y0132004D01*
X0172893Y0141839D02*
X0175833Y0141839D01*
X0176000Y0128165D02*
X0175747Y0128148D01*
X0175747Y0124687D01*
X0118993Y0067933D01*
X0118993Y0045093D01*
X0118520Y0044661D01*
X0114135Y0045455D02*
X0112904Y0045455D01*
X0112904Y0047422D02*
X0114135Y0047422D01*
X0114656Y0049389D02*
X0112384Y0049389D01*
X0110090Y0051356D02*
X0116224Y0051356D01*
X0116224Y0053323D02*
X0081137Y0053323D01*
X0080651Y0053809D02*
X0077019Y0053809D01*
X0074450Y0051241D01*
X0074450Y0047609D01*
X0077019Y0045041D01*
X0080651Y0045041D01*
X0083219Y0047609D01*
X0083219Y0051241D01*
X0080651Y0053809D01*
X0083104Y0051356D02*
X0106949Y0051356D01*
X0104656Y0049389D02*
X0083219Y0049389D01*
X0083032Y0047422D02*
X0104135Y0047422D01*
X0104135Y0045455D02*
X0081065Y0045455D01*
X0076604Y0045455D02*
X0051065Y0045455D01*
X0051839Y0043488D02*
X0104135Y0043488D01*
X0104135Y0041521D02*
X0053806Y0041521D01*
X0055773Y0039554D02*
X0055894Y0039554D01*
X0061303Y0039554D02*
X0065705Y0039554D01*
X0064070Y0037587D02*
X0062911Y0037587D01*
X0063383Y0035620D02*
X0063614Y0035620D01*
X0063614Y0033653D02*
X0063383Y0033653D01*
X0063614Y0032480D02*
X0063614Y0029104D01*
X0063737Y0028329D01*
X0063979Y0027583D01*
X0064336Y0026884D01*
X0064797Y0026249D01*
X0065351Y0025694D01*
X0065986Y0025233D01*
X0066685Y0024877D01*
X0067431Y0024635D01*
X0068206Y0024512D01*
X0068583Y0024512D01*
X0068583Y0032480D01*
X0063614Y0032480D01*
X0063614Y0031686D02*
X0063383Y0031686D01*
X0063383Y0029719D02*
X0063614Y0029719D01*
X0063924Y0027752D02*
X0063055Y0027752D01*
X0061654Y0025785D02*
X0065260Y0025785D01*
X0068583Y0025785D02*
X0068614Y0025785D01*
X0068583Y0027752D02*
X0068614Y0027752D01*
X0068583Y0029719D02*
X0068614Y0029719D01*
X0068583Y0031686D02*
X0068614Y0031686D01*
X0069160Y0031943D02*
X0068598Y0032496D01*
X0069160Y0031943D02*
X0139757Y0031943D01*
X0151523Y0020176D01*
X0152378Y0019898D01*
X0152907Y0020176D01*
X0157060Y0024329D01*
X0157060Y0025021D01*
X0159828Y0027790D01*
X0196511Y0027790D01*
X0200579Y0025785D02*
X0186256Y0025785D01*
X0187162Y0023818D02*
X0199533Y0023818D01*
X0199362Y0021851D02*
X0187162Y0021851D01*
X0187162Y0019884D02*
X0199362Y0019884D01*
X0199362Y0017917D02*
X0187162Y0017917D01*
X0187162Y0015950D02*
X0199388Y0015950D01*
X0200037Y0013983D02*
X0186229Y0013983D01*
X0178526Y0013983D02*
X0176229Y0013983D01*
X0177162Y0015950D02*
X0177594Y0015950D01*
X0177594Y0017917D02*
X0177162Y0017917D01*
X0177162Y0019884D02*
X0177594Y0019884D01*
X0177594Y0021851D02*
X0177162Y0021851D01*
X0177162Y0023818D02*
X0177594Y0023818D01*
X0178500Y0025785D02*
X0176256Y0025785D01*
X0168500Y0025785D02*
X0166256Y0025785D01*
X0167162Y0023818D02*
X0167594Y0023818D01*
X0167594Y0021851D02*
X0167162Y0021851D01*
X0167162Y0019884D02*
X0167594Y0019884D01*
X0162597Y0019484D02*
X0162378Y0019898D01*
X0162597Y0019484D02*
X0170902Y0011179D01*
X0206201Y0011179D01*
X0213814Y0018792D01*
X0226014Y0012016D02*
X0232679Y0012016D01*
X0230212Y0013983D02*
X0228481Y0013983D01*
X0229131Y0015950D02*
X0229562Y0015950D01*
X0229562Y0017917D02*
X0229131Y0017917D01*
X0229131Y0019884D02*
X0229562Y0019884D01*
X0238481Y0013983D02*
X0248144Y0013983D01*
X0247557Y0015950D02*
X0239131Y0015950D01*
X0239131Y0017917D02*
X0247557Y0017917D01*
X0247557Y0019884D02*
X0239131Y0019884D01*
X0240586Y0021851D02*
X0247557Y0021851D01*
X0247970Y0023818D02*
X0242553Y0023818D01*
X0237821Y0027752D02*
X0236379Y0027752D01*
X0238325Y0029719D02*
X0239822Y0029719D01*
X0238731Y0031686D02*
X0258366Y0031686D01*
X0260333Y0033653D02*
X0238731Y0033653D01*
X0238731Y0035620D02*
X0262300Y0035620D01*
X0264267Y0037587D02*
X0238731Y0037587D01*
X0238731Y0039554D02*
X0266234Y0039554D01*
X0268201Y0041521D02*
X0238731Y0041521D01*
X0238731Y0043488D02*
X0270168Y0043488D01*
X0272135Y0045455D02*
X0238731Y0045455D01*
X0238731Y0047422D02*
X0274102Y0047422D01*
X0276069Y0049389D02*
X0238731Y0049389D01*
X0238731Y0051356D02*
X0278036Y0051356D01*
X0278397Y0051717D02*
X0278397Y0051717D01*
X0279963Y0053323D02*
X0238731Y0053323D01*
X0238731Y0055291D02*
X0279963Y0055291D01*
X0279963Y0057258D02*
X0238731Y0057258D01*
X0238731Y0059225D02*
X0279963Y0059225D01*
X0279963Y0061192D02*
X0238731Y0061192D01*
X0238731Y0063159D02*
X0279963Y0063159D01*
X0279963Y0065126D02*
X0238731Y0065126D01*
X0238731Y0067093D02*
X0279963Y0067093D01*
X0279963Y0069060D02*
X0238731Y0069060D01*
X0238731Y0071027D02*
X0279963Y0071027D01*
X0279963Y0072994D02*
X0238731Y0072994D01*
X0238731Y0074961D02*
X0279963Y0074961D01*
X0279963Y0076928D02*
X0238731Y0076928D01*
X0238731Y0078895D02*
X0279963Y0078895D01*
X0279963Y0080862D02*
X0238731Y0080862D01*
X0238731Y0082829D02*
X0279963Y0082829D01*
X0279963Y0084796D02*
X0273956Y0084796D01*
X0275584Y0086763D02*
X0279963Y0086763D01*
X0279963Y0088730D02*
X0275584Y0088730D01*
X0275109Y0090697D02*
X0279963Y0090697D01*
X0271000Y0086763D02*
X0271000Y0086763D01*
X0271000Y0084796D02*
X0271000Y0084796D01*
X0268044Y0084796D02*
X0238731Y0084796D01*
X0238731Y0086763D02*
X0266416Y0086763D01*
X0266416Y0088730D02*
X0238731Y0088730D01*
X0238731Y0090697D02*
X0266891Y0090697D01*
X0268858Y0092664D02*
X0238731Y0092664D01*
X0227657Y0078895D02*
X0138023Y0078895D01*
X0136056Y0076928D02*
X0227657Y0076928D01*
X0227657Y0074961D02*
X0134089Y0074961D01*
X0132121Y0072994D02*
X0227657Y0072994D01*
X0227657Y0071027D02*
X0130154Y0071027D01*
X0128187Y0069060D02*
X0227657Y0069060D01*
X0227657Y0067093D02*
X0126606Y0067093D01*
X0126606Y0065126D02*
X0227657Y0065126D01*
X0227657Y0063159D02*
X0126606Y0063159D01*
X0126606Y0061192D02*
X0227657Y0061192D01*
X0227657Y0059225D02*
X0126606Y0059225D01*
X0126606Y0057258D02*
X0227657Y0057258D01*
X0227657Y0055291D02*
X0126606Y0055291D01*
X0126606Y0053323D02*
X0227657Y0053323D01*
X0227657Y0051356D02*
X0130090Y0051356D01*
X0132384Y0049389D02*
X0227657Y0049389D01*
X0227657Y0047422D02*
X0132904Y0047422D01*
X0132904Y0045455D02*
X0227657Y0045455D01*
X0227657Y0043488D02*
X0132904Y0043488D01*
X0132904Y0041521D02*
X0227657Y0041521D01*
X0227657Y0039554D02*
X0132213Y0039554D01*
X0124400Y0037587D02*
X0227657Y0037587D01*
X0226035Y0035620D02*
X0122433Y0035620D01*
X0115532Y0037480D02*
X0108611Y0044401D01*
X0108520Y0044661D01*
X0113439Y0043488D02*
X0114135Y0043488D01*
X0111509Y0037587D02*
X0073127Y0037587D01*
X0071492Y0039554D02*
X0104826Y0039554D01*
X0116224Y0055291D02*
X0046320Y0055291D01*
X0046320Y0057258D02*
X0116224Y0057258D01*
X0116224Y0059225D02*
X0046320Y0059225D01*
X0046320Y0061192D02*
X0116224Y0061192D01*
X0116224Y0063159D02*
X0046320Y0063159D01*
X0046320Y0053323D02*
X0046533Y0053323D01*
X0051137Y0053323D02*
X0076533Y0053323D01*
X0074566Y0051356D02*
X0053104Y0051356D01*
X0053219Y0049389D02*
X0074450Y0049389D01*
X0074637Y0047422D02*
X0053032Y0047422D01*
X0044286Y0037587D02*
X0042911Y0037587D01*
X0043383Y0035620D02*
X0043814Y0035620D01*
X0043814Y0033653D02*
X0043383Y0033653D01*
X0043383Y0031686D02*
X0043814Y0031686D01*
X0053383Y0033653D02*
X0053814Y0033653D01*
X0068583Y0033653D02*
X0068614Y0033653D01*
X0068583Y0035620D02*
X0068614Y0035620D01*
X0068583Y0037587D02*
X0068614Y0037587D01*
X0068583Y0039554D02*
X0068614Y0039554D01*
X0082286Y0012016D02*
X0104135Y0012016D01*
X0104608Y0010049D02*
X0083219Y0010049D01*
X0083219Y0008082D02*
X0106670Y0008082D01*
X0110369Y0008082D02*
X0116670Y0008082D01*
X0116036Y0008345D02*
X0117648Y0007677D01*
X0119392Y0007677D01*
X0121003Y0008345D01*
X0122236Y0009578D01*
X0122904Y0011189D01*
X0122904Y0018134D01*
X0122236Y0019745D01*
X0121003Y0020978D01*
X0119392Y0021646D01*
X0117648Y0021646D01*
X0116036Y0020978D01*
X0114803Y0019745D01*
X0114135Y0018134D01*
X0114135Y0011189D01*
X0114803Y0009578D01*
X0116036Y0008345D01*
X0114608Y0010049D02*
X0112432Y0010049D01*
X0112904Y0012016D02*
X0114135Y0012016D01*
X0114135Y0013983D02*
X0112904Y0013983D01*
X0112904Y0015950D02*
X0114135Y0015950D01*
X0114135Y0017917D02*
X0112904Y0017917D01*
X0112097Y0019884D02*
X0114942Y0019884D01*
X0122097Y0019884D02*
X0124942Y0019884D01*
X0124135Y0017917D02*
X0122904Y0017917D01*
X0122904Y0015950D02*
X0124135Y0015950D01*
X0124135Y0013983D02*
X0122904Y0013983D01*
X0122904Y0012016D02*
X0124135Y0012016D01*
X0124608Y0010049D02*
X0122432Y0010049D01*
X0120369Y0008082D02*
X0126670Y0008082D01*
X0132097Y0019884D02*
X0152362Y0019884D01*
X0152394Y0019884D02*
X0157594Y0019884D01*
X0157594Y0017917D02*
X0157362Y0017917D01*
X0157274Y0015950D02*
X0157594Y0015950D01*
X0158526Y0013983D02*
X0156421Y0013983D01*
X0152394Y0013983D02*
X0152362Y0013983D01*
X0152362Y0015950D02*
X0152394Y0015950D01*
X0152362Y0017917D02*
X0152394Y0017917D01*
X0152362Y0021851D02*
X0152394Y0021851D01*
X0152362Y0023818D02*
X0152394Y0023818D01*
X0152362Y0025785D02*
X0152394Y0025785D01*
X0156441Y0025785D02*
X0158500Y0025785D01*
X0157594Y0023818D02*
X0157279Y0023818D01*
X0157362Y0021851D02*
X0157594Y0021851D01*
X0126949Y0051356D02*
X0126606Y0051356D01*
X0120138Y0072994D02*
X0118697Y0072994D01*
X0120664Y0074961D02*
X0122105Y0074961D01*
X0122631Y0076928D02*
X0124072Y0076928D01*
X0116000Y0083323D02*
X0115532Y0083160D01*
X0114148Y0083160D01*
X0108611Y0077623D01*
X0103766Y0077623D01*
X0097537Y0083852D01*
X0110481Y0096598D02*
X0111519Y0096598D01*
X0116000Y0093323D02*
X0116224Y0093542D01*
X0116224Y0118458D01*
X0120481Y0096598D02*
X0121519Y0096598D01*
X0055604Y0106433D02*
X0051593Y0106433D01*
X0051308Y0106149D02*
X0052654Y0107495D01*
X0053383Y0109253D01*
X0053383Y0117156D01*
X0052654Y0118915D01*
X0051308Y0120261D01*
X0049550Y0120989D01*
X0047647Y0120989D01*
X0045888Y0120261D01*
X0044543Y0118915D01*
X0043814Y0117156D01*
X0043814Y0109253D01*
X0044543Y0107495D01*
X0045888Y0106149D01*
X0047647Y0105420D01*
X0049550Y0105420D01*
X0051308Y0106149D01*
X0053029Y0108400D02*
X0054168Y0108400D01*
X0053814Y0110367D02*
X0053383Y0110367D01*
X0053383Y0112334D02*
X0053814Y0112334D01*
X0053814Y0114301D02*
X0053383Y0114301D01*
X0053383Y0116268D02*
X0053814Y0116268D01*
X0054261Y0118235D02*
X0052936Y0118235D01*
X0051367Y0120202D02*
X0055830Y0120202D01*
X0045830Y0120202D02*
X0041367Y0120202D01*
X0042936Y0118235D02*
X0044261Y0118235D01*
X0043814Y0116268D02*
X0043383Y0116268D01*
X0043383Y0114301D02*
X0043814Y0114301D01*
X0043814Y0112334D02*
X0043383Y0112334D01*
X0043383Y0110367D02*
X0043814Y0110367D01*
X0044168Y0108400D02*
X0043029Y0108400D01*
X0041593Y0106433D02*
X0045604Y0106433D01*
X0051954Y0092664D02*
X0053985Y0092664D01*
X0103523Y0151674D02*
X0114317Y0151674D01*
X0112117Y0153641D02*
X0105490Y0153641D01*
X0107457Y0155608D02*
X0111616Y0155608D01*
X0111616Y0157575D02*
X0109424Y0157575D01*
X0111391Y0159542D02*
X0111616Y0159542D01*
X0120384Y0159542D02*
X0121616Y0159542D01*
X0121616Y0157575D02*
X0120384Y0157575D01*
X0120384Y0155608D02*
X0121616Y0155608D01*
X0122117Y0153641D02*
X0119883Y0153641D01*
X0117682Y0151674D02*
X0124317Y0151674D01*
X0130384Y0159542D02*
X0131616Y0159542D01*
X0131616Y0161509D02*
X0130384Y0161509D01*
X0129647Y0163476D02*
X0132353Y0163476D01*
X0122353Y0163476D02*
X0119647Y0163476D01*
X0120384Y0161509D02*
X0121616Y0161509D01*
X0113395Y0169377D02*
X0082825Y0169377D01*
X0082825Y0171344D02*
X0115362Y0171344D01*
X0114086Y0173311D02*
X0117329Y0173311D01*
X0116053Y0175278D02*
X0119296Y0175278D01*
X0118020Y0177245D02*
X0121263Y0177245D01*
X0119987Y0179212D02*
X0123230Y0179212D01*
X0121954Y0181179D02*
X0125197Y0181179D01*
X0124530Y0187671D02*
X0125914Y0187671D01*
X0126000Y0188323D01*
X0130384Y0189048D02*
X0131616Y0189048D01*
X0131616Y0191015D02*
X0130384Y0191015D01*
X0129893Y0192982D02*
X0132107Y0192982D01*
X0134262Y0194949D02*
X0127738Y0194949D01*
X0130384Y0187081D02*
X0131098Y0187081D01*
X0114123Y0181179D02*
X0066391Y0181179D01*
X0066391Y0179212D02*
X0112156Y0179212D01*
X0112376Y0183147D02*
X0066391Y0183147D01*
X0066391Y0177245D02*
X0074891Y0177245D01*
X0072924Y0175278D02*
X0066391Y0175278D01*
X0066391Y0173311D02*
X0070957Y0173311D01*
X0068990Y0171344D02*
X0066391Y0171344D01*
X0066391Y0169377D02*
X0067023Y0169377D01*
X0045665Y0187081D02*
X0041532Y0187081D01*
X0043004Y0189048D02*
X0044193Y0189048D01*
X0043814Y0191015D02*
X0043383Y0191015D01*
X0043383Y0192982D02*
X0043814Y0192982D01*
X0043814Y0194949D02*
X0043396Y0194949D01*
X0024412Y0246091D02*
X0093685Y0246091D01*
X0092128Y0248058D02*
X0024939Y0248058D01*
X0025118Y0250025D02*
X0092128Y0250025D01*
X0092839Y0251992D02*
X0025039Y0251992D01*
X0024512Y0253959D02*
X0247252Y0253959D01*
X0248199Y0255926D02*
X0023565Y0255926D01*
X0119137Y0246091D02*
X0120848Y0246091D01*
X0125134Y0246091D02*
X0125134Y0246091D01*
X0125134Y0244124D02*
X0125134Y0244124D01*
X0125134Y0242157D02*
X0125134Y0242157D01*
X0125134Y0240190D02*
X0125134Y0240190D01*
X0130412Y0240190D02*
X0201676Y0240190D01*
X0199972Y0245809D02*
X0199622Y0246276D01*
X0199972Y0245809D02*
X0235962Y0209819D01*
X0235962Y0188363D01*
X0236000Y0188323D01*
X0270004Y0208718D02*
X0319954Y0208718D01*
X0319951Y0210685D02*
X0271647Y0210685D01*
X0271647Y0212652D02*
X0319948Y0212652D01*
X0319940Y0218553D02*
X0231144Y0218553D01*
X0229177Y0220520D02*
X0319937Y0220520D01*
X0306169Y0224454D02*
X0304201Y0224454D01*
X0304201Y0226421D02*
X0306169Y0226421D01*
X0306169Y0228388D02*
X0304201Y0228388D01*
X0304201Y0230355D02*
X0306169Y0230355D01*
X0306169Y0232322D02*
X0304201Y0232322D01*
X0252722Y0240190D02*
X0209506Y0240190D01*
X0213259Y0242157D02*
X0215985Y0242157D01*
X0223259Y0242157D02*
X0225985Y0242157D01*
X0233259Y0242157D02*
X0235702Y0242157D01*
X0239606Y0248058D02*
X0239638Y0248058D01*
X0239606Y0250025D02*
X0239638Y0250025D01*
X0235333Y0250025D02*
X0233628Y0250025D01*
X0225616Y0250025D02*
X0223628Y0250025D01*
X0215616Y0250025D02*
X0213628Y0250025D01*
X0205616Y0250025D02*
X0203628Y0250025D01*
X0195616Y0250025D02*
X0193628Y0250025D01*
X0193259Y0242157D02*
X0195985Y0242157D01*
X0185985Y0242157D02*
X0130818Y0242157D01*
X0130531Y0244124D02*
X0184577Y0244124D01*
X0184138Y0246091D02*
X0129420Y0246091D01*
X0169893Y0192982D02*
X0171904Y0192982D01*
X0171416Y0191015D02*
X0170384Y0191015D01*
X0170384Y0189048D02*
X0171416Y0189048D01*
X0171416Y0187081D02*
X0170384Y0187081D01*
X0170384Y0185114D02*
X0171455Y0185114D01*
X0172205Y0183147D02*
X0169624Y0183147D01*
X0289890Y0102499D02*
X0302110Y0102499D01*
X0301081Y0100532D02*
X0290919Y0100532D01*
X0290984Y0098565D02*
X0301016Y0098565D01*
X0301859Y0096598D02*
X0290141Y0096598D01*
X0293362Y0039554D02*
X0293362Y0039554D01*
X0293362Y0037587D02*
X0293362Y0037587D01*
X0293362Y0035620D02*
X0293362Y0035620D01*
X0298146Y0035620D02*
X0298578Y0035620D01*
X0298578Y0033653D02*
X0298146Y0033653D01*
X0298146Y0031686D02*
X0298578Y0031686D01*
X0298708Y0029719D02*
X0298016Y0029719D01*
X0297003Y0027752D02*
X0299721Y0027752D01*
X0303362Y0027752D02*
X0303362Y0027752D01*
X0303362Y0029719D02*
X0303362Y0029719D01*
X0303362Y0031686D02*
X0303362Y0031686D01*
X0303362Y0033653D02*
X0303362Y0033653D01*
X0303362Y0035620D02*
X0303362Y0035620D01*
X0303362Y0037587D02*
X0303362Y0037587D01*
X0303362Y0039554D02*
X0303362Y0039554D01*
X0299684Y0039554D02*
X0297040Y0039554D01*
X0298030Y0037587D02*
X0298694Y0037587D01*
X0316626Y0023818D02*
X0320233Y0023818D01*
X0320236Y0021851D02*
X0319177Y0021851D01*
X0320230Y0025785D02*
X0264750Y0025785D01*
X0250529Y0012016D02*
X0236014Y0012016D01*
X0302998Y0006115D02*
X0081882Y0006115D01*
X0075787Y0006115D02*
X0051882Y0006115D01*
X0045787Y0006115D02*
X0019946Y0006115D01*
X0021816Y0008082D02*
X0044450Y0008082D01*
X0044450Y0010049D02*
X0022951Y0010049D01*
X0023595Y0012016D02*
X0045383Y0012016D01*
D24*
X0060854Y0009794D02*
X0078157Y0009794D01*
X0078835Y0009268D01*
X0060854Y0009794D02*
X0038706Y0031943D01*
X0038598Y0032496D01*
X0094076Y0074162D02*
X0078850Y0089389D01*
X0078441Y0089976D01*
X0094076Y0074162D02*
X0115532Y0074162D01*
X0124530Y0083160D01*
X0125914Y0083160D01*
X0126000Y0083323D01*
X0125914Y0084544D01*
X0149446Y0108076D01*
X0149446Y0132301D01*
X0165365Y0148220D01*
X0165365Y0157217D01*
X0166000Y0158323D01*
X0166057Y0158602D01*
X0166057Y0168291D01*
X0185437Y0187671D01*
X0186000Y0188323D01*
X0271261Y0161370D02*
X0271261Y0138530D01*
X0271000Y0138323D01*
X0271261Y0161370D02*
X0276798Y0166907D01*
X0276798Y0202898D01*
X0277299Y0202969D01*
X0283200Y0099423D02*
X0283027Y0099079D01*
X0283027Y0052014D01*
X0280994Y0049982D01*
X0283362Y0047614D01*
X0283362Y0033677D01*
X0261787Y0023421D02*
X0262142Y0019110D01*
X0261787Y0023421D02*
X0258110Y0027098D01*
X0280994Y0049982D01*
X0258110Y0027098D02*
X0241499Y0027098D01*
X0234578Y0020176D01*
X0234346Y0019504D01*
X0078835Y0130134D02*
X0078850Y0130224D01*
X0078850Y0169676D01*
X0078441Y0170291D01*
X0047012Y0202206D02*
X0046320Y0202206D01*
X0038706Y0194592D01*
X0038598Y0193913D01*
X0047012Y0202206D02*
X0056009Y0211203D01*
X0078157Y0211203D01*
X0078835Y0211236D01*
M02*
