G75*
%MOIN*%
%OFA0B0*%
%FSLAX25Y25*%
%IPPOS*%
%LPD*%
%AMOC8*
5,1,8,0,0,1.08239X$1,22.5*
%
%ADD10C,0.00000*%
D10*
X0001394Y0001000D02*
X0001000Y0262024D01*
X0324858Y0262024D01*
X0325252Y0001000D01*
X0001394Y0001000D01*
X0006355Y0014780D02*
X0006357Y0014938D01*
X0006363Y0015096D01*
X0006373Y0015254D01*
X0006387Y0015412D01*
X0006405Y0015569D01*
X0006426Y0015726D01*
X0006452Y0015882D01*
X0006482Y0016038D01*
X0006515Y0016193D01*
X0006553Y0016346D01*
X0006594Y0016499D01*
X0006639Y0016651D01*
X0006688Y0016802D01*
X0006741Y0016951D01*
X0006797Y0017099D01*
X0006857Y0017245D01*
X0006921Y0017390D01*
X0006989Y0017533D01*
X0007060Y0017675D01*
X0007134Y0017815D01*
X0007212Y0017952D01*
X0007294Y0018088D01*
X0007378Y0018222D01*
X0007467Y0018353D01*
X0007558Y0018482D01*
X0007653Y0018609D01*
X0007750Y0018734D01*
X0007851Y0018856D01*
X0007955Y0018975D01*
X0008062Y0019092D01*
X0008172Y0019206D01*
X0008285Y0019317D01*
X0008400Y0019426D01*
X0008518Y0019531D01*
X0008639Y0019633D01*
X0008762Y0019733D01*
X0008888Y0019829D01*
X0009016Y0019922D01*
X0009146Y0020012D01*
X0009279Y0020098D01*
X0009414Y0020182D01*
X0009550Y0020261D01*
X0009689Y0020338D01*
X0009830Y0020410D01*
X0009972Y0020480D01*
X0010116Y0020545D01*
X0010262Y0020607D01*
X0010409Y0020665D01*
X0010558Y0020720D01*
X0010708Y0020771D01*
X0010859Y0020818D01*
X0011011Y0020861D01*
X0011164Y0020900D01*
X0011319Y0020936D01*
X0011474Y0020967D01*
X0011630Y0020995D01*
X0011786Y0021019D01*
X0011943Y0021039D01*
X0012101Y0021055D01*
X0012258Y0021067D01*
X0012417Y0021075D01*
X0012575Y0021079D01*
X0012733Y0021079D01*
X0012891Y0021075D01*
X0013050Y0021067D01*
X0013207Y0021055D01*
X0013365Y0021039D01*
X0013522Y0021019D01*
X0013678Y0020995D01*
X0013834Y0020967D01*
X0013989Y0020936D01*
X0014144Y0020900D01*
X0014297Y0020861D01*
X0014449Y0020818D01*
X0014600Y0020771D01*
X0014750Y0020720D01*
X0014899Y0020665D01*
X0015046Y0020607D01*
X0015192Y0020545D01*
X0015336Y0020480D01*
X0015478Y0020410D01*
X0015619Y0020338D01*
X0015758Y0020261D01*
X0015894Y0020182D01*
X0016029Y0020098D01*
X0016162Y0020012D01*
X0016292Y0019922D01*
X0016420Y0019829D01*
X0016546Y0019733D01*
X0016669Y0019633D01*
X0016790Y0019531D01*
X0016908Y0019426D01*
X0017023Y0019317D01*
X0017136Y0019206D01*
X0017246Y0019092D01*
X0017353Y0018975D01*
X0017457Y0018856D01*
X0017558Y0018734D01*
X0017655Y0018609D01*
X0017750Y0018482D01*
X0017841Y0018353D01*
X0017930Y0018222D01*
X0018014Y0018088D01*
X0018096Y0017952D01*
X0018174Y0017815D01*
X0018248Y0017675D01*
X0018319Y0017533D01*
X0018387Y0017390D01*
X0018451Y0017245D01*
X0018511Y0017099D01*
X0018567Y0016951D01*
X0018620Y0016802D01*
X0018669Y0016651D01*
X0018714Y0016499D01*
X0018755Y0016346D01*
X0018793Y0016193D01*
X0018826Y0016038D01*
X0018856Y0015882D01*
X0018882Y0015726D01*
X0018903Y0015569D01*
X0018921Y0015412D01*
X0018935Y0015254D01*
X0018945Y0015096D01*
X0018951Y0014938D01*
X0018953Y0014780D01*
X0018951Y0014622D01*
X0018945Y0014464D01*
X0018935Y0014306D01*
X0018921Y0014148D01*
X0018903Y0013991D01*
X0018882Y0013834D01*
X0018856Y0013678D01*
X0018826Y0013522D01*
X0018793Y0013367D01*
X0018755Y0013214D01*
X0018714Y0013061D01*
X0018669Y0012909D01*
X0018620Y0012758D01*
X0018567Y0012609D01*
X0018511Y0012461D01*
X0018451Y0012315D01*
X0018387Y0012170D01*
X0018319Y0012027D01*
X0018248Y0011885D01*
X0018174Y0011745D01*
X0018096Y0011608D01*
X0018014Y0011472D01*
X0017930Y0011338D01*
X0017841Y0011207D01*
X0017750Y0011078D01*
X0017655Y0010951D01*
X0017558Y0010826D01*
X0017457Y0010704D01*
X0017353Y0010585D01*
X0017246Y0010468D01*
X0017136Y0010354D01*
X0017023Y0010243D01*
X0016908Y0010134D01*
X0016790Y0010029D01*
X0016669Y0009927D01*
X0016546Y0009827D01*
X0016420Y0009731D01*
X0016292Y0009638D01*
X0016162Y0009548D01*
X0016029Y0009462D01*
X0015894Y0009378D01*
X0015758Y0009299D01*
X0015619Y0009222D01*
X0015478Y0009150D01*
X0015336Y0009080D01*
X0015192Y0009015D01*
X0015046Y0008953D01*
X0014899Y0008895D01*
X0014750Y0008840D01*
X0014600Y0008789D01*
X0014449Y0008742D01*
X0014297Y0008699D01*
X0014144Y0008660D01*
X0013989Y0008624D01*
X0013834Y0008593D01*
X0013678Y0008565D01*
X0013522Y0008541D01*
X0013365Y0008521D01*
X0013207Y0008505D01*
X0013050Y0008493D01*
X0012891Y0008485D01*
X0012733Y0008481D01*
X0012575Y0008481D01*
X0012417Y0008485D01*
X0012258Y0008493D01*
X0012101Y0008505D01*
X0011943Y0008521D01*
X0011786Y0008541D01*
X0011630Y0008565D01*
X0011474Y0008593D01*
X0011319Y0008624D01*
X0011164Y0008660D01*
X0011011Y0008699D01*
X0010859Y0008742D01*
X0010708Y0008789D01*
X0010558Y0008840D01*
X0010409Y0008895D01*
X0010262Y0008953D01*
X0010116Y0009015D01*
X0009972Y0009080D01*
X0009830Y0009150D01*
X0009689Y0009222D01*
X0009550Y0009299D01*
X0009414Y0009378D01*
X0009279Y0009462D01*
X0009146Y0009548D01*
X0009016Y0009638D01*
X0008888Y0009731D01*
X0008762Y0009827D01*
X0008639Y0009927D01*
X0008518Y0010029D01*
X0008400Y0010134D01*
X0008285Y0010243D01*
X0008172Y0010354D01*
X0008062Y0010468D01*
X0007955Y0010585D01*
X0007851Y0010704D01*
X0007750Y0010826D01*
X0007653Y0010951D01*
X0007558Y0011078D01*
X0007467Y0011207D01*
X0007378Y0011338D01*
X0007294Y0011472D01*
X0007212Y0011608D01*
X0007134Y0011745D01*
X0007060Y0011885D01*
X0006989Y0012027D01*
X0006921Y0012170D01*
X0006857Y0012315D01*
X0006797Y0012461D01*
X0006741Y0012609D01*
X0006688Y0012758D01*
X0006639Y0012909D01*
X0006594Y0013061D01*
X0006553Y0013214D01*
X0006515Y0013367D01*
X0006482Y0013522D01*
X0006452Y0013678D01*
X0006426Y0013834D01*
X0006405Y0013991D01*
X0006387Y0014148D01*
X0006373Y0014306D01*
X0006363Y0014464D01*
X0006357Y0014622D01*
X0006355Y0014780D01*
X0007536Y0250213D02*
X0007538Y0250371D01*
X0007544Y0250529D01*
X0007554Y0250687D01*
X0007568Y0250845D01*
X0007586Y0251002D01*
X0007607Y0251159D01*
X0007633Y0251315D01*
X0007663Y0251471D01*
X0007696Y0251626D01*
X0007734Y0251779D01*
X0007775Y0251932D01*
X0007820Y0252084D01*
X0007869Y0252235D01*
X0007922Y0252384D01*
X0007978Y0252532D01*
X0008038Y0252678D01*
X0008102Y0252823D01*
X0008170Y0252966D01*
X0008241Y0253108D01*
X0008315Y0253248D01*
X0008393Y0253385D01*
X0008475Y0253521D01*
X0008559Y0253655D01*
X0008648Y0253786D01*
X0008739Y0253915D01*
X0008834Y0254042D01*
X0008931Y0254167D01*
X0009032Y0254289D01*
X0009136Y0254408D01*
X0009243Y0254525D01*
X0009353Y0254639D01*
X0009466Y0254750D01*
X0009581Y0254859D01*
X0009699Y0254964D01*
X0009820Y0255066D01*
X0009943Y0255166D01*
X0010069Y0255262D01*
X0010197Y0255355D01*
X0010327Y0255445D01*
X0010460Y0255531D01*
X0010595Y0255615D01*
X0010731Y0255694D01*
X0010870Y0255771D01*
X0011011Y0255843D01*
X0011153Y0255913D01*
X0011297Y0255978D01*
X0011443Y0256040D01*
X0011590Y0256098D01*
X0011739Y0256153D01*
X0011889Y0256204D01*
X0012040Y0256251D01*
X0012192Y0256294D01*
X0012345Y0256333D01*
X0012500Y0256369D01*
X0012655Y0256400D01*
X0012811Y0256428D01*
X0012967Y0256452D01*
X0013124Y0256472D01*
X0013282Y0256488D01*
X0013439Y0256500D01*
X0013598Y0256508D01*
X0013756Y0256512D01*
X0013914Y0256512D01*
X0014072Y0256508D01*
X0014231Y0256500D01*
X0014388Y0256488D01*
X0014546Y0256472D01*
X0014703Y0256452D01*
X0014859Y0256428D01*
X0015015Y0256400D01*
X0015170Y0256369D01*
X0015325Y0256333D01*
X0015478Y0256294D01*
X0015630Y0256251D01*
X0015781Y0256204D01*
X0015931Y0256153D01*
X0016080Y0256098D01*
X0016227Y0256040D01*
X0016373Y0255978D01*
X0016517Y0255913D01*
X0016659Y0255843D01*
X0016800Y0255771D01*
X0016939Y0255694D01*
X0017075Y0255615D01*
X0017210Y0255531D01*
X0017343Y0255445D01*
X0017473Y0255355D01*
X0017601Y0255262D01*
X0017727Y0255166D01*
X0017850Y0255066D01*
X0017971Y0254964D01*
X0018089Y0254859D01*
X0018204Y0254750D01*
X0018317Y0254639D01*
X0018427Y0254525D01*
X0018534Y0254408D01*
X0018638Y0254289D01*
X0018739Y0254167D01*
X0018836Y0254042D01*
X0018931Y0253915D01*
X0019022Y0253786D01*
X0019111Y0253655D01*
X0019195Y0253521D01*
X0019277Y0253385D01*
X0019355Y0253248D01*
X0019429Y0253108D01*
X0019500Y0252966D01*
X0019568Y0252823D01*
X0019632Y0252678D01*
X0019692Y0252532D01*
X0019748Y0252384D01*
X0019801Y0252235D01*
X0019850Y0252084D01*
X0019895Y0251932D01*
X0019936Y0251779D01*
X0019974Y0251626D01*
X0020007Y0251471D01*
X0020037Y0251315D01*
X0020063Y0251159D01*
X0020084Y0251002D01*
X0020102Y0250845D01*
X0020116Y0250687D01*
X0020126Y0250529D01*
X0020132Y0250371D01*
X0020134Y0250213D01*
X0020132Y0250055D01*
X0020126Y0249897D01*
X0020116Y0249739D01*
X0020102Y0249581D01*
X0020084Y0249424D01*
X0020063Y0249267D01*
X0020037Y0249111D01*
X0020007Y0248955D01*
X0019974Y0248800D01*
X0019936Y0248647D01*
X0019895Y0248494D01*
X0019850Y0248342D01*
X0019801Y0248191D01*
X0019748Y0248042D01*
X0019692Y0247894D01*
X0019632Y0247748D01*
X0019568Y0247603D01*
X0019500Y0247460D01*
X0019429Y0247318D01*
X0019355Y0247178D01*
X0019277Y0247041D01*
X0019195Y0246905D01*
X0019111Y0246771D01*
X0019022Y0246640D01*
X0018931Y0246511D01*
X0018836Y0246384D01*
X0018739Y0246259D01*
X0018638Y0246137D01*
X0018534Y0246018D01*
X0018427Y0245901D01*
X0018317Y0245787D01*
X0018204Y0245676D01*
X0018089Y0245567D01*
X0017971Y0245462D01*
X0017850Y0245360D01*
X0017727Y0245260D01*
X0017601Y0245164D01*
X0017473Y0245071D01*
X0017343Y0244981D01*
X0017210Y0244895D01*
X0017075Y0244811D01*
X0016939Y0244732D01*
X0016800Y0244655D01*
X0016659Y0244583D01*
X0016517Y0244513D01*
X0016373Y0244448D01*
X0016227Y0244386D01*
X0016080Y0244328D01*
X0015931Y0244273D01*
X0015781Y0244222D01*
X0015630Y0244175D01*
X0015478Y0244132D01*
X0015325Y0244093D01*
X0015170Y0244057D01*
X0015015Y0244026D01*
X0014859Y0243998D01*
X0014703Y0243974D01*
X0014546Y0243954D01*
X0014388Y0243938D01*
X0014231Y0243926D01*
X0014072Y0243918D01*
X0013914Y0243914D01*
X0013756Y0243914D01*
X0013598Y0243918D01*
X0013439Y0243926D01*
X0013282Y0243938D01*
X0013124Y0243954D01*
X0012967Y0243974D01*
X0012811Y0243998D01*
X0012655Y0244026D01*
X0012500Y0244057D01*
X0012345Y0244093D01*
X0012192Y0244132D01*
X0012040Y0244175D01*
X0011889Y0244222D01*
X0011739Y0244273D01*
X0011590Y0244328D01*
X0011443Y0244386D01*
X0011297Y0244448D01*
X0011153Y0244513D01*
X0011011Y0244583D01*
X0010870Y0244655D01*
X0010731Y0244732D01*
X0010595Y0244811D01*
X0010460Y0244895D01*
X0010327Y0244981D01*
X0010197Y0245071D01*
X0010069Y0245164D01*
X0009943Y0245260D01*
X0009820Y0245360D01*
X0009699Y0245462D01*
X0009581Y0245567D01*
X0009466Y0245676D01*
X0009353Y0245787D01*
X0009243Y0245901D01*
X0009136Y0246018D01*
X0009032Y0246137D01*
X0008931Y0246259D01*
X0008834Y0246384D01*
X0008739Y0246511D01*
X0008648Y0246640D01*
X0008559Y0246771D01*
X0008475Y0246905D01*
X0008393Y0247041D01*
X0008315Y0247178D01*
X0008241Y0247318D01*
X0008170Y0247460D01*
X0008102Y0247603D01*
X0008038Y0247748D01*
X0007978Y0247894D01*
X0007922Y0248042D01*
X0007869Y0248191D01*
X0007820Y0248342D01*
X0007775Y0248494D01*
X0007734Y0248647D01*
X0007696Y0248800D01*
X0007663Y0248955D01*
X0007633Y0249111D01*
X0007607Y0249267D01*
X0007586Y0249424D01*
X0007568Y0249581D01*
X0007554Y0249739D01*
X0007544Y0249897D01*
X0007538Y0250055D01*
X0007536Y0250213D01*
X0251630Y0250213D02*
X0251632Y0250371D01*
X0251638Y0250529D01*
X0251648Y0250687D01*
X0251662Y0250845D01*
X0251680Y0251002D01*
X0251701Y0251159D01*
X0251727Y0251315D01*
X0251757Y0251471D01*
X0251790Y0251626D01*
X0251828Y0251779D01*
X0251869Y0251932D01*
X0251914Y0252084D01*
X0251963Y0252235D01*
X0252016Y0252384D01*
X0252072Y0252532D01*
X0252132Y0252678D01*
X0252196Y0252823D01*
X0252264Y0252966D01*
X0252335Y0253108D01*
X0252409Y0253248D01*
X0252487Y0253385D01*
X0252569Y0253521D01*
X0252653Y0253655D01*
X0252742Y0253786D01*
X0252833Y0253915D01*
X0252928Y0254042D01*
X0253025Y0254167D01*
X0253126Y0254289D01*
X0253230Y0254408D01*
X0253337Y0254525D01*
X0253447Y0254639D01*
X0253560Y0254750D01*
X0253675Y0254859D01*
X0253793Y0254964D01*
X0253914Y0255066D01*
X0254037Y0255166D01*
X0254163Y0255262D01*
X0254291Y0255355D01*
X0254421Y0255445D01*
X0254554Y0255531D01*
X0254689Y0255615D01*
X0254825Y0255694D01*
X0254964Y0255771D01*
X0255105Y0255843D01*
X0255247Y0255913D01*
X0255391Y0255978D01*
X0255537Y0256040D01*
X0255684Y0256098D01*
X0255833Y0256153D01*
X0255983Y0256204D01*
X0256134Y0256251D01*
X0256286Y0256294D01*
X0256439Y0256333D01*
X0256594Y0256369D01*
X0256749Y0256400D01*
X0256905Y0256428D01*
X0257061Y0256452D01*
X0257218Y0256472D01*
X0257376Y0256488D01*
X0257533Y0256500D01*
X0257692Y0256508D01*
X0257850Y0256512D01*
X0258008Y0256512D01*
X0258166Y0256508D01*
X0258325Y0256500D01*
X0258482Y0256488D01*
X0258640Y0256472D01*
X0258797Y0256452D01*
X0258953Y0256428D01*
X0259109Y0256400D01*
X0259264Y0256369D01*
X0259419Y0256333D01*
X0259572Y0256294D01*
X0259724Y0256251D01*
X0259875Y0256204D01*
X0260025Y0256153D01*
X0260174Y0256098D01*
X0260321Y0256040D01*
X0260467Y0255978D01*
X0260611Y0255913D01*
X0260753Y0255843D01*
X0260894Y0255771D01*
X0261033Y0255694D01*
X0261169Y0255615D01*
X0261304Y0255531D01*
X0261437Y0255445D01*
X0261567Y0255355D01*
X0261695Y0255262D01*
X0261821Y0255166D01*
X0261944Y0255066D01*
X0262065Y0254964D01*
X0262183Y0254859D01*
X0262298Y0254750D01*
X0262411Y0254639D01*
X0262521Y0254525D01*
X0262628Y0254408D01*
X0262732Y0254289D01*
X0262833Y0254167D01*
X0262930Y0254042D01*
X0263025Y0253915D01*
X0263116Y0253786D01*
X0263205Y0253655D01*
X0263289Y0253521D01*
X0263371Y0253385D01*
X0263449Y0253248D01*
X0263523Y0253108D01*
X0263594Y0252966D01*
X0263662Y0252823D01*
X0263726Y0252678D01*
X0263786Y0252532D01*
X0263842Y0252384D01*
X0263895Y0252235D01*
X0263944Y0252084D01*
X0263989Y0251932D01*
X0264030Y0251779D01*
X0264068Y0251626D01*
X0264101Y0251471D01*
X0264131Y0251315D01*
X0264157Y0251159D01*
X0264178Y0251002D01*
X0264196Y0250845D01*
X0264210Y0250687D01*
X0264220Y0250529D01*
X0264226Y0250371D01*
X0264228Y0250213D01*
X0264226Y0250055D01*
X0264220Y0249897D01*
X0264210Y0249739D01*
X0264196Y0249581D01*
X0264178Y0249424D01*
X0264157Y0249267D01*
X0264131Y0249111D01*
X0264101Y0248955D01*
X0264068Y0248800D01*
X0264030Y0248647D01*
X0263989Y0248494D01*
X0263944Y0248342D01*
X0263895Y0248191D01*
X0263842Y0248042D01*
X0263786Y0247894D01*
X0263726Y0247748D01*
X0263662Y0247603D01*
X0263594Y0247460D01*
X0263523Y0247318D01*
X0263449Y0247178D01*
X0263371Y0247041D01*
X0263289Y0246905D01*
X0263205Y0246771D01*
X0263116Y0246640D01*
X0263025Y0246511D01*
X0262930Y0246384D01*
X0262833Y0246259D01*
X0262732Y0246137D01*
X0262628Y0246018D01*
X0262521Y0245901D01*
X0262411Y0245787D01*
X0262298Y0245676D01*
X0262183Y0245567D01*
X0262065Y0245462D01*
X0261944Y0245360D01*
X0261821Y0245260D01*
X0261695Y0245164D01*
X0261567Y0245071D01*
X0261437Y0244981D01*
X0261304Y0244895D01*
X0261169Y0244811D01*
X0261033Y0244732D01*
X0260894Y0244655D01*
X0260753Y0244583D01*
X0260611Y0244513D01*
X0260467Y0244448D01*
X0260321Y0244386D01*
X0260174Y0244328D01*
X0260025Y0244273D01*
X0259875Y0244222D01*
X0259724Y0244175D01*
X0259572Y0244132D01*
X0259419Y0244093D01*
X0259264Y0244057D01*
X0259109Y0244026D01*
X0258953Y0243998D01*
X0258797Y0243974D01*
X0258640Y0243954D01*
X0258482Y0243938D01*
X0258325Y0243926D01*
X0258166Y0243918D01*
X0258008Y0243914D01*
X0257850Y0243914D01*
X0257692Y0243918D01*
X0257533Y0243926D01*
X0257376Y0243938D01*
X0257218Y0243954D01*
X0257061Y0243974D01*
X0256905Y0243998D01*
X0256749Y0244026D01*
X0256594Y0244057D01*
X0256439Y0244093D01*
X0256286Y0244132D01*
X0256134Y0244175D01*
X0255983Y0244222D01*
X0255833Y0244273D01*
X0255684Y0244328D01*
X0255537Y0244386D01*
X0255391Y0244448D01*
X0255247Y0244513D01*
X0255105Y0244583D01*
X0254964Y0244655D01*
X0254825Y0244732D01*
X0254689Y0244811D01*
X0254554Y0244895D01*
X0254421Y0244981D01*
X0254291Y0245071D01*
X0254163Y0245164D01*
X0254037Y0245260D01*
X0253914Y0245360D01*
X0253793Y0245462D01*
X0253675Y0245567D01*
X0253560Y0245676D01*
X0253447Y0245787D01*
X0253337Y0245901D01*
X0253230Y0246018D01*
X0253126Y0246137D01*
X0253025Y0246259D01*
X0252928Y0246384D01*
X0252833Y0246511D01*
X0252742Y0246640D01*
X0252653Y0246771D01*
X0252569Y0246905D01*
X0252487Y0247041D01*
X0252409Y0247178D01*
X0252335Y0247318D01*
X0252264Y0247460D01*
X0252196Y0247603D01*
X0252132Y0247748D01*
X0252072Y0247894D01*
X0252016Y0248042D01*
X0251963Y0248191D01*
X0251914Y0248342D01*
X0251869Y0248494D01*
X0251828Y0248647D01*
X0251790Y0248800D01*
X0251757Y0248955D01*
X0251727Y0249111D01*
X0251701Y0249267D01*
X0251680Y0249424D01*
X0251662Y0249581D01*
X0251648Y0249739D01*
X0251638Y0249897D01*
X0251632Y0250055D01*
X0251630Y0250213D01*
X0304780Y0013992D02*
X0304782Y0014150D01*
X0304788Y0014308D01*
X0304798Y0014466D01*
X0304812Y0014624D01*
X0304830Y0014781D01*
X0304851Y0014938D01*
X0304877Y0015094D01*
X0304907Y0015250D01*
X0304940Y0015405D01*
X0304978Y0015558D01*
X0305019Y0015711D01*
X0305064Y0015863D01*
X0305113Y0016014D01*
X0305166Y0016163D01*
X0305222Y0016311D01*
X0305282Y0016457D01*
X0305346Y0016602D01*
X0305414Y0016745D01*
X0305485Y0016887D01*
X0305559Y0017027D01*
X0305637Y0017164D01*
X0305719Y0017300D01*
X0305803Y0017434D01*
X0305892Y0017565D01*
X0305983Y0017694D01*
X0306078Y0017821D01*
X0306175Y0017946D01*
X0306276Y0018068D01*
X0306380Y0018187D01*
X0306487Y0018304D01*
X0306597Y0018418D01*
X0306710Y0018529D01*
X0306825Y0018638D01*
X0306943Y0018743D01*
X0307064Y0018845D01*
X0307187Y0018945D01*
X0307313Y0019041D01*
X0307441Y0019134D01*
X0307571Y0019224D01*
X0307704Y0019310D01*
X0307839Y0019394D01*
X0307975Y0019473D01*
X0308114Y0019550D01*
X0308255Y0019622D01*
X0308397Y0019692D01*
X0308541Y0019757D01*
X0308687Y0019819D01*
X0308834Y0019877D01*
X0308983Y0019932D01*
X0309133Y0019983D01*
X0309284Y0020030D01*
X0309436Y0020073D01*
X0309589Y0020112D01*
X0309744Y0020148D01*
X0309899Y0020179D01*
X0310055Y0020207D01*
X0310211Y0020231D01*
X0310368Y0020251D01*
X0310526Y0020267D01*
X0310683Y0020279D01*
X0310842Y0020287D01*
X0311000Y0020291D01*
X0311158Y0020291D01*
X0311316Y0020287D01*
X0311475Y0020279D01*
X0311632Y0020267D01*
X0311790Y0020251D01*
X0311947Y0020231D01*
X0312103Y0020207D01*
X0312259Y0020179D01*
X0312414Y0020148D01*
X0312569Y0020112D01*
X0312722Y0020073D01*
X0312874Y0020030D01*
X0313025Y0019983D01*
X0313175Y0019932D01*
X0313324Y0019877D01*
X0313471Y0019819D01*
X0313617Y0019757D01*
X0313761Y0019692D01*
X0313903Y0019622D01*
X0314044Y0019550D01*
X0314183Y0019473D01*
X0314319Y0019394D01*
X0314454Y0019310D01*
X0314587Y0019224D01*
X0314717Y0019134D01*
X0314845Y0019041D01*
X0314971Y0018945D01*
X0315094Y0018845D01*
X0315215Y0018743D01*
X0315333Y0018638D01*
X0315448Y0018529D01*
X0315561Y0018418D01*
X0315671Y0018304D01*
X0315778Y0018187D01*
X0315882Y0018068D01*
X0315983Y0017946D01*
X0316080Y0017821D01*
X0316175Y0017694D01*
X0316266Y0017565D01*
X0316355Y0017434D01*
X0316439Y0017300D01*
X0316521Y0017164D01*
X0316599Y0017027D01*
X0316673Y0016887D01*
X0316744Y0016745D01*
X0316812Y0016602D01*
X0316876Y0016457D01*
X0316936Y0016311D01*
X0316992Y0016163D01*
X0317045Y0016014D01*
X0317094Y0015863D01*
X0317139Y0015711D01*
X0317180Y0015558D01*
X0317218Y0015405D01*
X0317251Y0015250D01*
X0317281Y0015094D01*
X0317307Y0014938D01*
X0317328Y0014781D01*
X0317346Y0014624D01*
X0317360Y0014466D01*
X0317370Y0014308D01*
X0317376Y0014150D01*
X0317378Y0013992D01*
X0317376Y0013834D01*
X0317370Y0013676D01*
X0317360Y0013518D01*
X0317346Y0013360D01*
X0317328Y0013203D01*
X0317307Y0013046D01*
X0317281Y0012890D01*
X0317251Y0012734D01*
X0317218Y0012579D01*
X0317180Y0012426D01*
X0317139Y0012273D01*
X0317094Y0012121D01*
X0317045Y0011970D01*
X0316992Y0011821D01*
X0316936Y0011673D01*
X0316876Y0011527D01*
X0316812Y0011382D01*
X0316744Y0011239D01*
X0316673Y0011097D01*
X0316599Y0010957D01*
X0316521Y0010820D01*
X0316439Y0010684D01*
X0316355Y0010550D01*
X0316266Y0010419D01*
X0316175Y0010290D01*
X0316080Y0010163D01*
X0315983Y0010038D01*
X0315882Y0009916D01*
X0315778Y0009797D01*
X0315671Y0009680D01*
X0315561Y0009566D01*
X0315448Y0009455D01*
X0315333Y0009346D01*
X0315215Y0009241D01*
X0315094Y0009139D01*
X0314971Y0009039D01*
X0314845Y0008943D01*
X0314717Y0008850D01*
X0314587Y0008760D01*
X0314454Y0008674D01*
X0314319Y0008590D01*
X0314183Y0008511D01*
X0314044Y0008434D01*
X0313903Y0008362D01*
X0313761Y0008292D01*
X0313617Y0008227D01*
X0313471Y0008165D01*
X0313324Y0008107D01*
X0313175Y0008052D01*
X0313025Y0008001D01*
X0312874Y0007954D01*
X0312722Y0007911D01*
X0312569Y0007872D01*
X0312414Y0007836D01*
X0312259Y0007805D01*
X0312103Y0007777D01*
X0311947Y0007753D01*
X0311790Y0007733D01*
X0311632Y0007717D01*
X0311475Y0007705D01*
X0311316Y0007697D01*
X0311158Y0007693D01*
X0311000Y0007693D01*
X0310842Y0007697D01*
X0310683Y0007705D01*
X0310526Y0007717D01*
X0310368Y0007733D01*
X0310211Y0007753D01*
X0310055Y0007777D01*
X0309899Y0007805D01*
X0309744Y0007836D01*
X0309589Y0007872D01*
X0309436Y0007911D01*
X0309284Y0007954D01*
X0309133Y0008001D01*
X0308983Y0008052D01*
X0308834Y0008107D01*
X0308687Y0008165D01*
X0308541Y0008227D01*
X0308397Y0008292D01*
X0308255Y0008362D01*
X0308114Y0008434D01*
X0307975Y0008511D01*
X0307839Y0008590D01*
X0307704Y0008674D01*
X0307571Y0008760D01*
X0307441Y0008850D01*
X0307313Y0008943D01*
X0307187Y0009039D01*
X0307064Y0009139D01*
X0306943Y0009241D01*
X0306825Y0009346D01*
X0306710Y0009455D01*
X0306597Y0009566D01*
X0306487Y0009680D01*
X0306380Y0009797D01*
X0306276Y0009916D01*
X0306175Y0010038D01*
X0306078Y0010163D01*
X0305983Y0010290D01*
X0305892Y0010419D01*
X0305803Y0010550D01*
X0305719Y0010684D01*
X0305637Y0010820D01*
X0305559Y0010957D01*
X0305485Y0011097D01*
X0305414Y0011239D01*
X0305346Y0011382D01*
X0305282Y0011527D01*
X0305222Y0011673D01*
X0305166Y0011821D01*
X0305113Y0011970D01*
X0305064Y0012121D01*
X0305019Y0012273D01*
X0304978Y0012426D01*
X0304940Y0012579D01*
X0304907Y0012734D01*
X0304877Y0012890D01*
X0304851Y0013046D01*
X0304830Y0013203D01*
X0304812Y0013360D01*
X0304798Y0013518D01*
X0304788Y0013676D01*
X0304782Y0013834D01*
X0304780Y0013992D01*
M02*
