%
M48
M72
T01C0.02400
T02C0.03150
T03C0.03200
T04C0.03600
T05C0.04000
T06C0.04400
T07C0.11800
T08C0.12598
%
T01
X105843Y119150
X116224Y118458
X96512Y128165
X159504Y124228
T02
X151000Y218323
X161000Y218323
X171000Y218323
T03
X48835Y9268
X78835Y9268
X108520Y14661
X118520Y14661
X128520Y14661
X128520Y44661
X118520Y44661
X108520Y44661
X78835Y49425
X48835Y49425
X48441Y89976
X78441Y89976
X78835Y130134
X48835Y130134
X48441Y170291
X78441Y170291
X116000Y158323
X126000Y158323
X136000Y158323
X146000Y158323
X156000Y158323
X166000Y158323
X176000Y158323
X186000Y158323
X196000Y158323
X206000Y158323
X216000Y158323
X226000Y158323
X236000Y158323
X246000Y158323
X271000Y168323
X246000Y188323
X236000Y188323
X226000Y188323
X216000Y188323
X206000Y188323
X196000Y188323
X186000Y188323
X176000Y188323
X166000Y188323
X156000Y188323
X146000Y188323
X136000Y188323
X126000Y188323
X116000Y188323
X78835Y211236
X96512Y219465
X115134Y242339
X125134Y242339
X96512Y249465
X48835Y211236
X164189Y139976
X176000Y128165
X187811Y116354
X206000Y128165
X217811Y116354
X194189Y139976
X271000Y138323
X271000Y118323
X271000Y88323
X304937Y177575
X304937Y187575
T04
X250055Y233717
X267063Y212260
X250055Y203717
X267063Y182260
X283362Y33677
X293362Y33677
X303362Y33677
X262142Y19110
X252142Y19110
T05
X38598Y32496
X48598Y32496
X58598Y32496
X68598Y32496
X68598Y73047
X58598Y73047
X48598Y73047
X38598Y73047
X38598Y113205
X48598Y113205
X58598Y113205
X68598Y113205
X106000Y93323
X116000Y93323
X126000Y93323
X126000Y83323
X116000Y83323
X106000Y83323
X152378Y19898
X162378Y19898
X172378Y19898
X182378Y19898
X204346Y19504
X214346Y19504
X224346Y19504
X234346Y19504
X308800Y99423
X308800Y117223
X283200Y117223
X283200Y99423
X283200Y144423
X283200Y162223
X308800Y162223
X308800Y144423
X239622Y246276
X229622Y246276
X219622Y246276
X209622Y246276
X199622Y246276
X189622Y246276
X68992Y234465
X58992Y234465
X48992Y234465
X38992Y234465
X38598Y193913
X48598Y193913
X58598Y193913
X68598Y193913
X68598Y153362
X58598Y153362
X48598Y153362
X38598Y153362
T06
X277299Y202969
X317299Y202969
T07
X288874Y248132
X305185Y233423
T08
X12654Y14780
X276363Y233323
X257929Y250213
X13835Y250213
X311079Y13992
M30
