G75*
%MOIN*%
%OFA0B0*%
%FSLAX25Y25*%
%IPPOS*%
%LPD*%
%AMOC8*
5,1,8,0,0,1.08239X$1,22.5*
%
%ADD10C,0.00000*%
%ADD11C,0.05600*%
%ADD12OC8,0.05200*%
%ADD13C,0.00009*%
%ADD14C,0.07800*%
%ADD15OC8,0.05543*%
%ADD16C,0.06600*%
%ADD17C,0.05200*%
%ADD18OC8,0.07500*%
%ADD19OC8,0.07400*%
%ADD20C,0.10000*%
%ADD21OC8,0.10000*%
%ADD22C,0.01969*%
%ADD23C,0.04000*%
%ADD24C,0.01000*%
D10*
X0001984Y0001000D02*
X0001984Y0355331D01*
X0186472Y0355331D01*
X0186472Y0001000D01*
X0001984Y0001000D01*
X0007496Y0011118D02*
X0007498Y0011276D01*
X0007504Y0011434D01*
X0007514Y0011592D01*
X0007528Y0011750D01*
X0007546Y0011907D01*
X0007567Y0012064D01*
X0007593Y0012220D01*
X0007623Y0012376D01*
X0007656Y0012531D01*
X0007694Y0012684D01*
X0007735Y0012837D01*
X0007780Y0012989D01*
X0007829Y0013140D01*
X0007882Y0013289D01*
X0007938Y0013437D01*
X0007998Y0013583D01*
X0008062Y0013728D01*
X0008130Y0013871D01*
X0008201Y0014013D01*
X0008275Y0014153D01*
X0008353Y0014290D01*
X0008435Y0014426D01*
X0008519Y0014560D01*
X0008608Y0014691D01*
X0008699Y0014820D01*
X0008794Y0014947D01*
X0008891Y0015072D01*
X0008992Y0015194D01*
X0009096Y0015313D01*
X0009203Y0015430D01*
X0009313Y0015544D01*
X0009426Y0015655D01*
X0009541Y0015764D01*
X0009659Y0015869D01*
X0009780Y0015971D01*
X0009903Y0016071D01*
X0010029Y0016167D01*
X0010157Y0016260D01*
X0010287Y0016350D01*
X0010420Y0016436D01*
X0010555Y0016520D01*
X0010691Y0016599D01*
X0010830Y0016676D01*
X0010971Y0016748D01*
X0011113Y0016818D01*
X0011257Y0016883D01*
X0011403Y0016945D01*
X0011550Y0017003D01*
X0011699Y0017058D01*
X0011849Y0017109D01*
X0012000Y0017156D01*
X0012152Y0017199D01*
X0012305Y0017238D01*
X0012460Y0017274D01*
X0012615Y0017305D01*
X0012771Y0017333D01*
X0012927Y0017357D01*
X0013084Y0017377D01*
X0013242Y0017393D01*
X0013399Y0017405D01*
X0013558Y0017413D01*
X0013716Y0017417D01*
X0013874Y0017417D01*
X0014032Y0017413D01*
X0014191Y0017405D01*
X0014348Y0017393D01*
X0014506Y0017377D01*
X0014663Y0017357D01*
X0014819Y0017333D01*
X0014975Y0017305D01*
X0015130Y0017274D01*
X0015285Y0017238D01*
X0015438Y0017199D01*
X0015590Y0017156D01*
X0015741Y0017109D01*
X0015891Y0017058D01*
X0016040Y0017003D01*
X0016187Y0016945D01*
X0016333Y0016883D01*
X0016477Y0016818D01*
X0016619Y0016748D01*
X0016760Y0016676D01*
X0016899Y0016599D01*
X0017035Y0016520D01*
X0017170Y0016436D01*
X0017303Y0016350D01*
X0017433Y0016260D01*
X0017561Y0016167D01*
X0017687Y0016071D01*
X0017810Y0015971D01*
X0017931Y0015869D01*
X0018049Y0015764D01*
X0018164Y0015655D01*
X0018277Y0015544D01*
X0018387Y0015430D01*
X0018494Y0015313D01*
X0018598Y0015194D01*
X0018699Y0015072D01*
X0018796Y0014947D01*
X0018891Y0014820D01*
X0018982Y0014691D01*
X0019071Y0014560D01*
X0019155Y0014426D01*
X0019237Y0014290D01*
X0019315Y0014153D01*
X0019389Y0014013D01*
X0019460Y0013871D01*
X0019528Y0013728D01*
X0019592Y0013583D01*
X0019652Y0013437D01*
X0019708Y0013289D01*
X0019761Y0013140D01*
X0019810Y0012989D01*
X0019855Y0012837D01*
X0019896Y0012684D01*
X0019934Y0012531D01*
X0019967Y0012376D01*
X0019997Y0012220D01*
X0020023Y0012064D01*
X0020044Y0011907D01*
X0020062Y0011750D01*
X0020076Y0011592D01*
X0020086Y0011434D01*
X0020092Y0011276D01*
X0020094Y0011118D01*
X0020092Y0010960D01*
X0020086Y0010802D01*
X0020076Y0010644D01*
X0020062Y0010486D01*
X0020044Y0010329D01*
X0020023Y0010172D01*
X0019997Y0010016D01*
X0019967Y0009860D01*
X0019934Y0009705D01*
X0019896Y0009552D01*
X0019855Y0009399D01*
X0019810Y0009247D01*
X0019761Y0009096D01*
X0019708Y0008947D01*
X0019652Y0008799D01*
X0019592Y0008653D01*
X0019528Y0008508D01*
X0019460Y0008365D01*
X0019389Y0008223D01*
X0019315Y0008083D01*
X0019237Y0007946D01*
X0019155Y0007810D01*
X0019071Y0007676D01*
X0018982Y0007545D01*
X0018891Y0007416D01*
X0018796Y0007289D01*
X0018699Y0007164D01*
X0018598Y0007042D01*
X0018494Y0006923D01*
X0018387Y0006806D01*
X0018277Y0006692D01*
X0018164Y0006581D01*
X0018049Y0006472D01*
X0017931Y0006367D01*
X0017810Y0006265D01*
X0017687Y0006165D01*
X0017561Y0006069D01*
X0017433Y0005976D01*
X0017303Y0005886D01*
X0017170Y0005800D01*
X0017035Y0005716D01*
X0016899Y0005637D01*
X0016760Y0005560D01*
X0016619Y0005488D01*
X0016477Y0005418D01*
X0016333Y0005353D01*
X0016187Y0005291D01*
X0016040Y0005233D01*
X0015891Y0005178D01*
X0015741Y0005127D01*
X0015590Y0005080D01*
X0015438Y0005037D01*
X0015285Y0004998D01*
X0015130Y0004962D01*
X0014975Y0004931D01*
X0014819Y0004903D01*
X0014663Y0004879D01*
X0014506Y0004859D01*
X0014348Y0004843D01*
X0014191Y0004831D01*
X0014032Y0004823D01*
X0013874Y0004819D01*
X0013716Y0004819D01*
X0013558Y0004823D01*
X0013399Y0004831D01*
X0013242Y0004843D01*
X0013084Y0004859D01*
X0012927Y0004879D01*
X0012771Y0004903D01*
X0012615Y0004931D01*
X0012460Y0004962D01*
X0012305Y0004998D01*
X0012152Y0005037D01*
X0012000Y0005080D01*
X0011849Y0005127D01*
X0011699Y0005178D01*
X0011550Y0005233D01*
X0011403Y0005291D01*
X0011257Y0005353D01*
X0011113Y0005418D01*
X0010971Y0005488D01*
X0010830Y0005560D01*
X0010691Y0005637D01*
X0010555Y0005716D01*
X0010420Y0005800D01*
X0010287Y0005886D01*
X0010157Y0005976D01*
X0010029Y0006069D01*
X0009903Y0006165D01*
X0009780Y0006265D01*
X0009659Y0006367D01*
X0009541Y0006472D01*
X0009426Y0006581D01*
X0009313Y0006692D01*
X0009203Y0006806D01*
X0009096Y0006923D01*
X0008992Y0007042D01*
X0008891Y0007164D01*
X0008794Y0007289D01*
X0008699Y0007416D01*
X0008608Y0007545D01*
X0008519Y0007676D01*
X0008435Y0007810D01*
X0008353Y0007946D01*
X0008275Y0008083D01*
X0008201Y0008223D01*
X0008130Y0008365D01*
X0008062Y0008508D01*
X0007998Y0008653D01*
X0007938Y0008799D01*
X0007882Y0008947D01*
X0007829Y0009096D01*
X0007780Y0009247D01*
X0007735Y0009399D01*
X0007694Y0009552D01*
X0007656Y0009705D01*
X0007623Y0009860D01*
X0007593Y0010016D01*
X0007567Y0010172D01*
X0007546Y0010329D01*
X0007528Y0010486D01*
X0007514Y0010644D01*
X0007504Y0010802D01*
X0007498Y0010960D01*
X0007496Y0011118D01*
X0135664Y0119874D02*
X0135666Y0120028D01*
X0135672Y0120182D01*
X0135682Y0120335D01*
X0135696Y0120488D01*
X0135714Y0120641D01*
X0135735Y0120793D01*
X0135761Y0120945D01*
X0135791Y0121096D01*
X0135824Y0121246D01*
X0135862Y0121395D01*
X0135903Y0121544D01*
X0135948Y0121691D01*
X0135997Y0121837D01*
X0136050Y0121981D01*
X0136106Y0122124D01*
X0136166Y0122266D01*
X0136230Y0122406D01*
X0136297Y0122544D01*
X0136368Y0122681D01*
X0136442Y0122816D01*
X0136520Y0122948D01*
X0136601Y0123079D01*
X0136686Y0123208D01*
X0136773Y0123334D01*
X0136864Y0123458D01*
X0136959Y0123579D01*
X0137056Y0123699D01*
X0137156Y0123815D01*
X0137260Y0123929D01*
X0137366Y0124040D01*
X0137475Y0124149D01*
X0137587Y0124254D01*
X0137702Y0124357D01*
X0137819Y0124457D01*
X0137939Y0124553D01*
X0138061Y0124647D01*
X0138185Y0124737D01*
X0138312Y0124824D01*
X0138441Y0124908D01*
X0138573Y0124988D01*
X0138706Y0125065D01*
X0138841Y0125138D01*
X0138978Y0125208D01*
X0139117Y0125275D01*
X0139257Y0125337D01*
X0139399Y0125396D01*
X0139543Y0125452D01*
X0139688Y0125504D01*
X0139834Y0125551D01*
X0139981Y0125596D01*
X0140130Y0125636D01*
X0140279Y0125672D01*
X0140430Y0125705D01*
X0140581Y0125734D01*
X0140733Y0125758D01*
X0140885Y0125779D01*
X0141038Y0125796D01*
X0141191Y0125809D01*
X0141345Y0125818D01*
X0141499Y0125823D01*
X0141652Y0125824D01*
X0141806Y0125821D01*
X0141960Y0125814D01*
X0142113Y0125803D01*
X0142267Y0125788D01*
X0142419Y0125769D01*
X0142571Y0125746D01*
X0142723Y0125720D01*
X0142874Y0125689D01*
X0143024Y0125655D01*
X0143173Y0125616D01*
X0143320Y0125574D01*
X0143467Y0125528D01*
X0143613Y0125478D01*
X0143757Y0125425D01*
X0143900Y0125367D01*
X0144041Y0125306D01*
X0144181Y0125242D01*
X0144319Y0125174D01*
X0144455Y0125102D01*
X0144589Y0125027D01*
X0144721Y0124948D01*
X0144851Y0124866D01*
X0144979Y0124781D01*
X0145105Y0124692D01*
X0145228Y0124600D01*
X0145349Y0124505D01*
X0145468Y0124407D01*
X0145584Y0124306D01*
X0145697Y0124202D01*
X0145808Y0124095D01*
X0145915Y0123985D01*
X0146020Y0123872D01*
X0146122Y0123757D01*
X0146221Y0123639D01*
X0146317Y0123519D01*
X0146410Y0123396D01*
X0146499Y0123271D01*
X0146585Y0123144D01*
X0146668Y0123014D01*
X0146748Y0122882D01*
X0146824Y0122749D01*
X0146896Y0122613D01*
X0146965Y0122475D01*
X0147031Y0122336D01*
X0147093Y0122195D01*
X0147151Y0122053D01*
X0147205Y0121909D01*
X0147256Y0121764D01*
X0147303Y0121617D01*
X0147346Y0121470D01*
X0147385Y0121321D01*
X0147421Y0121171D01*
X0147452Y0121021D01*
X0147480Y0120869D01*
X0147504Y0120717D01*
X0147524Y0120565D01*
X0147540Y0120412D01*
X0147552Y0120258D01*
X0147560Y0120105D01*
X0147564Y0119951D01*
X0147564Y0119797D01*
X0147560Y0119643D01*
X0147552Y0119490D01*
X0147540Y0119336D01*
X0147524Y0119183D01*
X0147504Y0119031D01*
X0147480Y0118879D01*
X0147452Y0118727D01*
X0147421Y0118577D01*
X0147385Y0118427D01*
X0147346Y0118278D01*
X0147303Y0118131D01*
X0147256Y0117984D01*
X0147205Y0117839D01*
X0147151Y0117695D01*
X0147093Y0117553D01*
X0147031Y0117412D01*
X0146965Y0117273D01*
X0146896Y0117135D01*
X0146824Y0116999D01*
X0146748Y0116866D01*
X0146668Y0116734D01*
X0146585Y0116604D01*
X0146499Y0116477D01*
X0146410Y0116352D01*
X0146317Y0116229D01*
X0146221Y0116109D01*
X0146122Y0115991D01*
X0146020Y0115876D01*
X0145915Y0115763D01*
X0145808Y0115653D01*
X0145697Y0115546D01*
X0145584Y0115442D01*
X0145468Y0115341D01*
X0145349Y0115243D01*
X0145228Y0115148D01*
X0145105Y0115056D01*
X0144979Y0114967D01*
X0144851Y0114882D01*
X0144721Y0114800D01*
X0144589Y0114721D01*
X0144455Y0114646D01*
X0144319Y0114574D01*
X0144181Y0114506D01*
X0144041Y0114442D01*
X0143900Y0114381D01*
X0143757Y0114323D01*
X0143613Y0114270D01*
X0143467Y0114220D01*
X0143320Y0114174D01*
X0143173Y0114132D01*
X0143024Y0114093D01*
X0142874Y0114059D01*
X0142723Y0114028D01*
X0142571Y0114002D01*
X0142419Y0113979D01*
X0142267Y0113960D01*
X0142113Y0113945D01*
X0141960Y0113934D01*
X0141806Y0113927D01*
X0141652Y0113924D01*
X0141499Y0113925D01*
X0141345Y0113930D01*
X0141191Y0113939D01*
X0141038Y0113952D01*
X0140885Y0113969D01*
X0140733Y0113990D01*
X0140581Y0114014D01*
X0140430Y0114043D01*
X0140279Y0114076D01*
X0140130Y0114112D01*
X0139981Y0114152D01*
X0139834Y0114197D01*
X0139688Y0114244D01*
X0139543Y0114296D01*
X0139399Y0114352D01*
X0139257Y0114411D01*
X0139117Y0114473D01*
X0138978Y0114540D01*
X0138841Y0114610D01*
X0138706Y0114683D01*
X0138573Y0114760D01*
X0138441Y0114840D01*
X0138312Y0114924D01*
X0138185Y0115011D01*
X0138061Y0115101D01*
X0137939Y0115195D01*
X0137819Y0115291D01*
X0137702Y0115391D01*
X0137587Y0115494D01*
X0137475Y0115599D01*
X0137366Y0115708D01*
X0137260Y0115819D01*
X0137156Y0115933D01*
X0137056Y0116049D01*
X0136959Y0116169D01*
X0136864Y0116290D01*
X0136773Y0116414D01*
X0136686Y0116540D01*
X0136601Y0116669D01*
X0136520Y0116800D01*
X0136442Y0116932D01*
X0136368Y0117067D01*
X0136297Y0117204D01*
X0136230Y0117342D01*
X0136166Y0117482D01*
X0136106Y0117624D01*
X0136050Y0117767D01*
X0135997Y0117911D01*
X0135948Y0118057D01*
X0135903Y0118204D01*
X0135862Y0118353D01*
X0135824Y0118502D01*
X0135791Y0118652D01*
X0135761Y0118803D01*
X0135735Y0118955D01*
X0135714Y0119107D01*
X0135696Y0119260D01*
X0135682Y0119413D01*
X0135672Y0119566D01*
X0135666Y0119720D01*
X0135664Y0119874D01*
X0141614Y0125874D02*
X0141461Y0125872D01*
X0141308Y0125866D01*
X0141155Y0125856D01*
X0141002Y0125843D01*
X0140850Y0125825D01*
X0140698Y0125804D01*
X0140547Y0125778D01*
X0140397Y0125749D01*
X0140247Y0125716D01*
X0140098Y0125679D01*
X0139950Y0125639D01*
X0139804Y0125594D01*
X0139658Y0125546D01*
X0139514Y0125494D01*
X0139371Y0125439D01*
X0139230Y0125380D01*
X0139090Y0125317D01*
X0138952Y0125251D01*
X0138815Y0125181D01*
X0138681Y0125108D01*
X0138548Y0125031D01*
X0138417Y0124951D01*
X0138289Y0124868D01*
X0138162Y0124782D01*
X0138038Y0124692D01*
X0137916Y0124599D01*
X0137797Y0124503D01*
X0137680Y0124404D01*
X0137565Y0124302D01*
X0137453Y0124197D01*
X0137344Y0124089D01*
X0137238Y0123979D01*
X0137135Y0123866D01*
X0137034Y0123750D01*
X0136937Y0123632D01*
X0136842Y0123511D01*
X0136751Y0123388D01*
X0136663Y0123263D01*
X0136578Y0123135D01*
X0136496Y0123006D01*
X0136418Y0122874D01*
X0136343Y0122740D01*
X0136271Y0122605D01*
X0136203Y0122467D01*
X0136139Y0122328D01*
X0136078Y0122188D01*
X0136021Y0122046D01*
X0135967Y0121902D01*
X0135917Y0121757D01*
X0135871Y0121611D01*
X0135828Y0121464D01*
X0135790Y0121316D01*
X0135755Y0121166D01*
X0135724Y0121016D01*
X0135696Y0120866D01*
X0135673Y0120714D01*
X0135654Y0120562D01*
X0135638Y0120410D01*
X0135626Y0120257D01*
X0135618Y0120104D01*
X0135614Y0119951D01*
X0135614Y0119797D01*
X0135618Y0119644D01*
X0135626Y0119491D01*
X0135638Y0119338D01*
X0135654Y0119186D01*
X0135673Y0119034D01*
X0135696Y0118882D01*
X0135724Y0118732D01*
X0135755Y0118582D01*
X0135790Y0118432D01*
X0135828Y0118284D01*
X0135871Y0118137D01*
X0135917Y0117991D01*
X0135967Y0117846D01*
X0136021Y0117702D01*
X0136078Y0117560D01*
X0136139Y0117420D01*
X0136203Y0117281D01*
X0136271Y0117143D01*
X0136343Y0117008D01*
X0136418Y0116874D01*
X0136496Y0116742D01*
X0136578Y0116613D01*
X0136663Y0116485D01*
X0136751Y0116360D01*
X0136842Y0116237D01*
X0136937Y0116116D01*
X0137034Y0115998D01*
X0137135Y0115882D01*
X0137238Y0115769D01*
X0137344Y0115659D01*
X0137453Y0115551D01*
X0137565Y0115446D01*
X0137680Y0115344D01*
X0137797Y0115245D01*
X0137916Y0115149D01*
X0138038Y0115056D01*
X0138162Y0114966D01*
X0138289Y0114880D01*
X0138417Y0114797D01*
X0138548Y0114717D01*
X0138681Y0114640D01*
X0138815Y0114567D01*
X0138952Y0114497D01*
X0139090Y0114431D01*
X0139230Y0114368D01*
X0139371Y0114309D01*
X0139514Y0114254D01*
X0139658Y0114202D01*
X0139804Y0114154D01*
X0139950Y0114109D01*
X0140098Y0114069D01*
X0140247Y0114032D01*
X0140397Y0113999D01*
X0140547Y0113970D01*
X0140698Y0113944D01*
X0140850Y0113923D01*
X0141002Y0113905D01*
X0141155Y0113892D01*
X0141308Y0113882D01*
X0141461Y0113876D01*
X0141614Y0113874D01*
X0149664Y0119874D02*
X0149666Y0120028D01*
X0149672Y0120182D01*
X0149682Y0120335D01*
X0149696Y0120488D01*
X0149714Y0120641D01*
X0149735Y0120793D01*
X0149761Y0120945D01*
X0149791Y0121096D01*
X0149824Y0121246D01*
X0149862Y0121395D01*
X0149903Y0121544D01*
X0149948Y0121691D01*
X0149997Y0121837D01*
X0150050Y0121981D01*
X0150106Y0122124D01*
X0150166Y0122266D01*
X0150230Y0122406D01*
X0150297Y0122544D01*
X0150368Y0122681D01*
X0150442Y0122816D01*
X0150520Y0122948D01*
X0150601Y0123079D01*
X0150686Y0123208D01*
X0150773Y0123334D01*
X0150864Y0123458D01*
X0150959Y0123579D01*
X0151056Y0123699D01*
X0151156Y0123815D01*
X0151260Y0123929D01*
X0151366Y0124040D01*
X0151475Y0124149D01*
X0151587Y0124254D01*
X0151702Y0124357D01*
X0151819Y0124457D01*
X0151939Y0124553D01*
X0152061Y0124647D01*
X0152185Y0124737D01*
X0152312Y0124824D01*
X0152441Y0124908D01*
X0152573Y0124988D01*
X0152706Y0125065D01*
X0152841Y0125138D01*
X0152978Y0125208D01*
X0153117Y0125275D01*
X0153257Y0125337D01*
X0153399Y0125396D01*
X0153543Y0125452D01*
X0153688Y0125504D01*
X0153834Y0125551D01*
X0153981Y0125596D01*
X0154130Y0125636D01*
X0154279Y0125672D01*
X0154430Y0125705D01*
X0154581Y0125734D01*
X0154733Y0125758D01*
X0154885Y0125779D01*
X0155038Y0125796D01*
X0155191Y0125809D01*
X0155345Y0125818D01*
X0155499Y0125823D01*
X0155652Y0125824D01*
X0155806Y0125821D01*
X0155960Y0125814D01*
X0156113Y0125803D01*
X0156267Y0125788D01*
X0156419Y0125769D01*
X0156571Y0125746D01*
X0156723Y0125720D01*
X0156874Y0125689D01*
X0157024Y0125655D01*
X0157173Y0125616D01*
X0157320Y0125574D01*
X0157467Y0125528D01*
X0157613Y0125478D01*
X0157757Y0125425D01*
X0157900Y0125367D01*
X0158041Y0125306D01*
X0158181Y0125242D01*
X0158319Y0125174D01*
X0158455Y0125102D01*
X0158589Y0125027D01*
X0158721Y0124948D01*
X0158851Y0124866D01*
X0158979Y0124781D01*
X0159105Y0124692D01*
X0159228Y0124600D01*
X0159349Y0124505D01*
X0159468Y0124407D01*
X0159584Y0124306D01*
X0159697Y0124202D01*
X0159808Y0124095D01*
X0159915Y0123985D01*
X0160020Y0123872D01*
X0160122Y0123757D01*
X0160221Y0123639D01*
X0160317Y0123519D01*
X0160410Y0123396D01*
X0160499Y0123271D01*
X0160585Y0123144D01*
X0160668Y0123014D01*
X0160748Y0122882D01*
X0160824Y0122749D01*
X0160896Y0122613D01*
X0160965Y0122475D01*
X0161031Y0122336D01*
X0161093Y0122195D01*
X0161151Y0122053D01*
X0161205Y0121909D01*
X0161256Y0121764D01*
X0161303Y0121617D01*
X0161346Y0121470D01*
X0161385Y0121321D01*
X0161421Y0121171D01*
X0161452Y0121021D01*
X0161480Y0120869D01*
X0161504Y0120717D01*
X0161524Y0120565D01*
X0161540Y0120412D01*
X0161552Y0120258D01*
X0161560Y0120105D01*
X0161564Y0119951D01*
X0161564Y0119797D01*
X0161560Y0119643D01*
X0161552Y0119490D01*
X0161540Y0119336D01*
X0161524Y0119183D01*
X0161504Y0119031D01*
X0161480Y0118879D01*
X0161452Y0118727D01*
X0161421Y0118577D01*
X0161385Y0118427D01*
X0161346Y0118278D01*
X0161303Y0118131D01*
X0161256Y0117984D01*
X0161205Y0117839D01*
X0161151Y0117695D01*
X0161093Y0117553D01*
X0161031Y0117412D01*
X0160965Y0117273D01*
X0160896Y0117135D01*
X0160824Y0116999D01*
X0160748Y0116866D01*
X0160668Y0116734D01*
X0160585Y0116604D01*
X0160499Y0116477D01*
X0160410Y0116352D01*
X0160317Y0116229D01*
X0160221Y0116109D01*
X0160122Y0115991D01*
X0160020Y0115876D01*
X0159915Y0115763D01*
X0159808Y0115653D01*
X0159697Y0115546D01*
X0159584Y0115442D01*
X0159468Y0115341D01*
X0159349Y0115243D01*
X0159228Y0115148D01*
X0159105Y0115056D01*
X0158979Y0114967D01*
X0158851Y0114882D01*
X0158721Y0114800D01*
X0158589Y0114721D01*
X0158455Y0114646D01*
X0158319Y0114574D01*
X0158181Y0114506D01*
X0158041Y0114442D01*
X0157900Y0114381D01*
X0157757Y0114323D01*
X0157613Y0114270D01*
X0157467Y0114220D01*
X0157320Y0114174D01*
X0157173Y0114132D01*
X0157024Y0114093D01*
X0156874Y0114059D01*
X0156723Y0114028D01*
X0156571Y0114002D01*
X0156419Y0113979D01*
X0156267Y0113960D01*
X0156113Y0113945D01*
X0155960Y0113934D01*
X0155806Y0113927D01*
X0155652Y0113924D01*
X0155499Y0113925D01*
X0155345Y0113930D01*
X0155191Y0113939D01*
X0155038Y0113952D01*
X0154885Y0113969D01*
X0154733Y0113990D01*
X0154581Y0114014D01*
X0154430Y0114043D01*
X0154279Y0114076D01*
X0154130Y0114112D01*
X0153981Y0114152D01*
X0153834Y0114197D01*
X0153688Y0114244D01*
X0153543Y0114296D01*
X0153399Y0114352D01*
X0153257Y0114411D01*
X0153117Y0114473D01*
X0152978Y0114540D01*
X0152841Y0114610D01*
X0152706Y0114683D01*
X0152573Y0114760D01*
X0152441Y0114840D01*
X0152312Y0114924D01*
X0152185Y0115011D01*
X0152061Y0115101D01*
X0151939Y0115195D01*
X0151819Y0115291D01*
X0151702Y0115391D01*
X0151587Y0115494D01*
X0151475Y0115599D01*
X0151366Y0115708D01*
X0151260Y0115819D01*
X0151156Y0115933D01*
X0151056Y0116049D01*
X0150959Y0116169D01*
X0150864Y0116290D01*
X0150773Y0116414D01*
X0150686Y0116540D01*
X0150601Y0116669D01*
X0150520Y0116800D01*
X0150442Y0116932D01*
X0150368Y0117067D01*
X0150297Y0117204D01*
X0150230Y0117342D01*
X0150166Y0117482D01*
X0150106Y0117624D01*
X0150050Y0117767D01*
X0149997Y0117911D01*
X0149948Y0118057D01*
X0149903Y0118204D01*
X0149862Y0118353D01*
X0149824Y0118502D01*
X0149791Y0118652D01*
X0149761Y0118803D01*
X0149735Y0118955D01*
X0149714Y0119107D01*
X0149696Y0119260D01*
X0149682Y0119413D01*
X0149672Y0119566D01*
X0149666Y0119720D01*
X0149664Y0119874D01*
X0155614Y0113874D02*
X0155767Y0113876D01*
X0155920Y0113882D01*
X0156073Y0113892D01*
X0156226Y0113905D01*
X0156378Y0113923D01*
X0156530Y0113944D01*
X0156681Y0113970D01*
X0156831Y0113999D01*
X0156981Y0114032D01*
X0157130Y0114069D01*
X0157278Y0114109D01*
X0157424Y0114154D01*
X0157570Y0114202D01*
X0157714Y0114254D01*
X0157857Y0114309D01*
X0157998Y0114368D01*
X0158138Y0114431D01*
X0158276Y0114497D01*
X0158413Y0114567D01*
X0158547Y0114640D01*
X0158680Y0114717D01*
X0158811Y0114797D01*
X0158939Y0114880D01*
X0159066Y0114966D01*
X0159190Y0115056D01*
X0159312Y0115149D01*
X0159431Y0115245D01*
X0159548Y0115344D01*
X0159663Y0115446D01*
X0159775Y0115551D01*
X0159884Y0115659D01*
X0159990Y0115769D01*
X0160093Y0115882D01*
X0160194Y0115998D01*
X0160291Y0116116D01*
X0160386Y0116237D01*
X0160477Y0116360D01*
X0160565Y0116485D01*
X0160650Y0116613D01*
X0160732Y0116742D01*
X0160810Y0116874D01*
X0160885Y0117008D01*
X0160957Y0117143D01*
X0161025Y0117281D01*
X0161089Y0117420D01*
X0161150Y0117560D01*
X0161207Y0117702D01*
X0161261Y0117846D01*
X0161311Y0117991D01*
X0161357Y0118137D01*
X0161400Y0118284D01*
X0161438Y0118432D01*
X0161473Y0118582D01*
X0161504Y0118732D01*
X0161532Y0118882D01*
X0161555Y0119034D01*
X0161574Y0119186D01*
X0161590Y0119338D01*
X0161602Y0119491D01*
X0161610Y0119644D01*
X0161614Y0119797D01*
X0161614Y0119951D01*
X0161610Y0120104D01*
X0161602Y0120257D01*
X0161590Y0120410D01*
X0161574Y0120562D01*
X0161555Y0120714D01*
X0161532Y0120866D01*
X0161504Y0121016D01*
X0161473Y0121166D01*
X0161438Y0121316D01*
X0161400Y0121464D01*
X0161357Y0121611D01*
X0161311Y0121757D01*
X0161261Y0121902D01*
X0161207Y0122046D01*
X0161150Y0122188D01*
X0161089Y0122328D01*
X0161025Y0122467D01*
X0160957Y0122605D01*
X0160885Y0122740D01*
X0160810Y0122874D01*
X0160732Y0123006D01*
X0160650Y0123135D01*
X0160565Y0123263D01*
X0160477Y0123388D01*
X0160386Y0123511D01*
X0160291Y0123632D01*
X0160194Y0123750D01*
X0160093Y0123866D01*
X0159990Y0123979D01*
X0159884Y0124089D01*
X0159775Y0124197D01*
X0159663Y0124302D01*
X0159548Y0124404D01*
X0159431Y0124503D01*
X0159312Y0124599D01*
X0159190Y0124692D01*
X0159066Y0124782D01*
X0158939Y0124868D01*
X0158811Y0124951D01*
X0158680Y0125031D01*
X0158547Y0125108D01*
X0158413Y0125181D01*
X0158276Y0125251D01*
X0158138Y0125317D01*
X0157998Y0125380D01*
X0157857Y0125439D01*
X0157714Y0125494D01*
X0157570Y0125546D01*
X0157424Y0125594D01*
X0157278Y0125639D01*
X0157130Y0125679D01*
X0156981Y0125716D01*
X0156831Y0125749D01*
X0156681Y0125778D01*
X0156530Y0125804D01*
X0156378Y0125825D01*
X0156226Y0125843D01*
X0156073Y0125856D01*
X0155920Y0125866D01*
X0155767Y0125872D01*
X0155614Y0125874D01*
X0161630Y0085449D02*
X0161632Y0085580D01*
X0161638Y0085712D01*
X0161648Y0085843D01*
X0161662Y0085974D01*
X0161680Y0086104D01*
X0161702Y0086233D01*
X0161727Y0086362D01*
X0161757Y0086490D01*
X0161791Y0086617D01*
X0161828Y0086744D01*
X0161869Y0086868D01*
X0161914Y0086992D01*
X0161963Y0087114D01*
X0162015Y0087235D01*
X0162071Y0087353D01*
X0162131Y0087471D01*
X0162194Y0087586D01*
X0162261Y0087699D01*
X0162331Y0087811D01*
X0162404Y0087920D01*
X0162480Y0088026D01*
X0162560Y0088131D01*
X0162643Y0088233D01*
X0162729Y0088332D01*
X0162818Y0088429D01*
X0162910Y0088523D01*
X0163005Y0088614D01*
X0163102Y0088703D01*
X0163202Y0088788D01*
X0163305Y0088870D01*
X0163410Y0088949D01*
X0163517Y0089025D01*
X0163627Y0089097D01*
X0163739Y0089166D01*
X0163853Y0089232D01*
X0163968Y0089294D01*
X0164086Y0089353D01*
X0164205Y0089408D01*
X0164326Y0089460D01*
X0164449Y0089507D01*
X0164573Y0089551D01*
X0164698Y0089592D01*
X0164824Y0089628D01*
X0164952Y0089661D01*
X0165080Y0089689D01*
X0165209Y0089714D01*
X0165339Y0089735D01*
X0165469Y0089752D01*
X0165600Y0089765D01*
X0165731Y0089774D01*
X0165862Y0089779D01*
X0165994Y0089780D01*
X0166125Y0089777D01*
X0166257Y0089770D01*
X0166388Y0089759D01*
X0166518Y0089744D01*
X0166648Y0089725D01*
X0166778Y0089702D01*
X0166906Y0089676D01*
X0167034Y0089645D01*
X0167161Y0089610D01*
X0167287Y0089572D01*
X0167411Y0089530D01*
X0167535Y0089484D01*
X0167656Y0089434D01*
X0167776Y0089381D01*
X0167895Y0089324D01*
X0168012Y0089264D01*
X0168126Y0089200D01*
X0168239Y0089132D01*
X0168350Y0089061D01*
X0168459Y0088987D01*
X0168565Y0088910D01*
X0168669Y0088829D01*
X0168770Y0088746D01*
X0168869Y0088659D01*
X0168965Y0088569D01*
X0169058Y0088476D01*
X0169149Y0088381D01*
X0169236Y0088283D01*
X0169321Y0088182D01*
X0169402Y0088079D01*
X0169480Y0087973D01*
X0169555Y0087865D01*
X0169627Y0087755D01*
X0169695Y0087643D01*
X0169760Y0087529D01*
X0169821Y0087412D01*
X0169879Y0087294D01*
X0169933Y0087174D01*
X0169984Y0087053D01*
X0170031Y0086930D01*
X0170074Y0086806D01*
X0170113Y0086681D01*
X0170149Y0086554D01*
X0170180Y0086426D01*
X0170208Y0086298D01*
X0170232Y0086169D01*
X0170252Y0086039D01*
X0170268Y0085908D01*
X0170280Y0085777D01*
X0170288Y0085646D01*
X0170292Y0085515D01*
X0170292Y0085383D01*
X0170288Y0085252D01*
X0170280Y0085121D01*
X0170268Y0084990D01*
X0170252Y0084859D01*
X0170232Y0084729D01*
X0170208Y0084600D01*
X0170180Y0084472D01*
X0170149Y0084344D01*
X0170113Y0084217D01*
X0170074Y0084092D01*
X0170031Y0083968D01*
X0169984Y0083845D01*
X0169933Y0083724D01*
X0169879Y0083604D01*
X0169821Y0083486D01*
X0169760Y0083369D01*
X0169695Y0083255D01*
X0169627Y0083143D01*
X0169555Y0083033D01*
X0169480Y0082925D01*
X0169402Y0082819D01*
X0169321Y0082716D01*
X0169236Y0082615D01*
X0169149Y0082517D01*
X0169058Y0082422D01*
X0168965Y0082329D01*
X0168869Y0082239D01*
X0168770Y0082152D01*
X0168669Y0082069D01*
X0168565Y0081988D01*
X0168459Y0081911D01*
X0168350Y0081837D01*
X0168239Y0081766D01*
X0168127Y0081698D01*
X0168012Y0081634D01*
X0167895Y0081574D01*
X0167776Y0081517D01*
X0167656Y0081464D01*
X0167535Y0081414D01*
X0167411Y0081368D01*
X0167287Y0081326D01*
X0167161Y0081288D01*
X0167034Y0081253D01*
X0166906Y0081222D01*
X0166778Y0081196D01*
X0166648Y0081173D01*
X0166518Y0081154D01*
X0166388Y0081139D01*
X0166257Y0081128D01*
X0166125Y0081121D01*
X0165994Y0081118D01*
X0165862Y0081119D01*
X0165731Y0081124D01*
X0165600Y0081133D01*
X0165469Y0081146D01*
X0165339Y0081163D01*
X0165209Y0081184D01*
X0165080Y0081209D01*
X0164952Y0081237D01*
X0164824Y0081270D01*
X0164698Y0081306D01*
X0164573Y0081347D01*
X0164449Y0081391D01*
X0164326Y0081438D01*
X0164205Y0081490D01*
X0164086Y0081545D01*
X0163968Y0081604D01*
X0163853Y0081666D01*
X0163739Y0081732D01*
X0163627Y0081801D01*
X0163517Y0081873D01*
X0163410Y0081949D01*
X0163305Y0082028D01*
X0163202Y0082110D01*
X0163102Y0082195D01*
X0163005Y0082284D01*
X0162910Y0082375D01*
X0162818Y0082469D01*
X0162729Y0082566D01*
X0162643Y0082665D01*
X0162560Y0082767D01*
X0162480Y0082872D01*
X0162404Y0082978D01*
X0162331Y0083087D01*
X0162261Y0083199D01*
X0162194Y0083312D01*
X0162131Y0083427D01*
X0162071Y0083545D01*
X0162015Y0083663D01*
X0161963Y0083784D01*
X0161914Y0083906D01*
X0161869Y0084030D01*
X0161828Y0084154D01*
X0161791Y0084281D01*
X0161757Y0084408D01*
X0161727Y0084536D01*
X0161702Y0084665D01*
X0161680Y0084794D01*
X0161662Y0084924D01*
X0161648Y0085055D01*
X0161638Y0085186D01*
X0161632Y0085318D01*
X0161630Y0085449D01*
X0164779Y0058874D02*
X0164781Y0059005D01*
X0164787Y0059137D01*
X0164797Y0059268D01*
X0164811Y0059399D01*
X0164829Y0059529D01*
X0164851Y0059658D01*
X0164876Y0059787D01*
X0164906Y0059915D01*
X0164940Y0060042D01*
X0164977Y0060169D01*
X0165018Y0060293D01*
X0165063Y0060417D01*
X0165112Y0060539D01*
X0165164Y0060660D01*
X0165220Y0060778D01*
X0165280Y0060896D01*
X0165343Y0061011D01*
X0165410Y0061124D01*
X0165480Y0061236D01*
X0165553Y0061345D01*
X0165629Y0061451D01*
X0165709Y0061556D01*
X0165792Y0061658D01*
X0165878Y0061757D01*
X0165967Y0061854D01*
X0166059Y0061948D01*
X0166154Y0062039D01*
X0166251Y0062128D01*
X0166351Y0062213D01*
X0166454Y0062295D01*
X0166559Y0062374D01*
X0166666Y0062450D01*
X0166776Y0062522D01*
X0166888Y0062591D01*
X0167002Y0062657D01*
X0167117Y0062719D01*
X0167235Y0062778D01*
X0167354Y0062833D01*
X0167475Y0062885D01*
X0167598Y0062932D01*
X0167722Y0062976D01*
X0167847Y0063017D01*
X0167973Y0063053D01*
X0168101Y0063086D01*
X0168229Y0063114D01*
X0168358Y0063139D01*
X0168488Y0063160D01*
X0168618Y0063177D01*
X0168749Y0063190D01*
X0168880Y0063199D01*
X0169011Y0063204D01*
X0169143Y0063205D01*
X0169274Y0063202D01*
X0169406Y0063195D01*
X0169537Y0063184D01*
X0169667Y0063169D01*
X0169797Y0063150D01*
X0169927Y0063127D01*
X0170055Y0063101D01*
X0170183Y0063070D01*
X0170310Y0063035D01*
X0170436Y0062997D01*
X0170560Y0062955D01*
X0170684Y0062909D01*
X0170805Y0062859D01*
X0170925Y0062806D01*
X0171044Y0062749D01*
X0171161Y0062689D01*
X0171275Y0062625D01*
X0171388Y0062557D01*
X0171499Y0062486D01*
X0171608Y0062412D01*
X0171714Y0062335D01*
X0171818Y0062254D01*
X0171919Y0062171D01*
X0172018Y0062084D01*
X0172114Y0061994D01*
X0172207Y0061901D01*
X0172298Y0061806D01*
X0172385Y0061708D01*
X0172470Y0061607D01*
X0172551Y0061504D01*
X0172629Y0061398D01*
X0172704Y0061290D01*
X0172776Y0061180D01*
X0172844Y0061068D01*
X0172909Y0060954D01*
X0172970Y0060837D01*
X0173028Y0060719D01*
X0173082Y0060599D01*
X0173133Y0060478D01*
X0173180Y0060355D01*
X0173223Y0060231D01*
X0173262Y0060106D01*
X0173298Y0059979D01*
X0173329Y0059851D01*
X0173357Y0059723D01*
X0173381Y0059594D01*
X0173401Y0059464D01*
X0173417Y0059333D01*
X0173429Y0059202D01*
X0173437Y0059071D01*
X0173441Y0058940D01*
X0173441Y0058808D01*
X0173437Y0058677D01*
X0173429Y0058546D01*
X0173417Y0058415D01*
X0173401Y0058284D01*
X0173381Y0058154D01*
X0173357Y0058025D01*
X0173329Y0057897D01*
X0173298Y0057769D01*
X0173262Y0057642D01*
X0173223Y0057517D01*
X0173180Y0057393D01*
X0173133Y0057270D01*
X0173082Y0057149D01*
X0173028Y0057029D01*
X0172970Y0056911D01*
X0172909Y0056794D01*
X0172844Y0056680D01*
X0172776Y0056568D01*
X0172704Y0056458D01*
X0172629Y0056350D01*
X0172551Y0056244D01*
X0172470Y0056141D01*
X0172385Y0056040D01*
X0172298Y0055942D01*
X0172207Y0055847D01*
X0172114Y0055754D01*
X0172018Y0055664D01*
X0171919Y0055577D01*
X0171818Y0055494D01*
X0171714Y0055413D01*
X0171608Y0055336D01*
X0171499Y0055262D01*
X0171388Y0055191D01*
X0171276Y0055123D01*
X0171161Y0055059D01*
X0171044Y0054999D01*
X0170925Y0054942D01*
X0170805Y0054889D01*
X0170684Y0054839D01*
X0170560Y0054793D01*
X0170436Y0054751D01*
X0170310Y0054713D01*
X0170183Y0054678D01*
X0170055Y0054647D01*
X0169927Y0054621D01*
X0169797Y0054598D01*
X0169667Y0054579D01*
X0169537Y0054564D01*
X0169406Y0054553D01*
X0169274Y0054546D01*
X0169143Y0054543D01*
X0169011Y0054544D01*
X0168880Y0054549D01*
X0168749Y0054558D01*
X0168618Y0054571D01*
X0168488Y0054588D01*
X0168358Y0054609D01*
X0168229Y0054634D01*
X0168101Y0054662D01*
X0167973Y0054695D01*
X0167847Y0054731D01*
X0167722Y0054772D01*
X0167598Y0054816D01*
X0167475Y0054863D01*
X0167354Y0054915D01*
X0167235Y0054970D01*
X0167117Y0055029D01*
X0167002Y0055091D01*
X0166888Y0055157D01*
X0166776Y0055226D01*
X0166666Y0055298D01*
X0166559Y0055374D01*
X0166454Y0055453D01*
X0166351Y0055535D01*
X0166251Y0055620D01*
X0166154Y0055709D01*
X0166059Y0055800D01*
X0165967Y0055894D01*
X0165878Y0055991D01*
X0165792Y0056090D01*
X0165709Y0056192D01*
X0165629Y0056297D01*
X0165553Y0056403D01*
X0165480Y0056512D01*
X0165410Y0056624D01*
X0165343Y0056737D01*
X0165280Y0056852D01*
X0165220Y0056970D01*
X0165164Y0057088D01*
X0165112Y0057209D01*
X0165063Y0057331D01*
X0165018Y0057455D01*
X0164977Y0057579D01*
X0164940Y0057706D01*
X0164906Y0057833D01*
X0164876Y0057961D01*
X0164851Y0058090D01*
X0164829Y0058219D01*
X0164811Y0058349D01*
X0164797Y0058480D01*
X0164787Y0058611D01*
X0164781Y0058743D01*
X0164779Y0058874D01*
X0161630Y0032299D02*
X0161632Y0032430D01*
X0161638Y0032562D01*
X0161648Y0032693D01*
X0161662Y0032824D01*
X0161680Y0032954D01*
X0161702Y0033083D01*
X0161727Y0033212D01*
X0161757Y0033340D01*
X0161791Y0033467D01*
X0161828Y0033594D01*
X0161869Y0033718D01*
X0161914Y0033842D01*
X0161963Y0033964D01*
X0162015Y0034085D01*
X0162071Y0034203D01*
X0162131Y0034321D01*
X0162194Y0034436D01*
X0162261Y0034549D01*
X0162331Y0034661D01*
X0162404Y0034770D01*
X0162480Y0034876D01*
X0162560Y0034981D01*
X0162643Y0035083D01*
X0162729Y0035182D01*
X0162818Y0035279D01*
X0162910Y0035373D01*
X0163005Y0035464D01*
X0163102Y0035553D01*
X0163202Y0035638D01*
X0163305Y0035720D01*
X0163410Y0035799D01*
X0163517Y0035875D01*
X0163627Y0035947D01*
X0163739Y0036016D01*
X0163853Y0036082D01*
X0163968Y0036144D01*
X0164086Y0036203D01*
X0164205Y0036258D01*
X0164326Y0036310D01*
X0164449Y0036357D01*
X0164573Y0036401D01*
X0164698Y0036442D01*
X0164824Y0036478D01*
X0164952Y0036511D01*
X0165080Y0036539D01*
X0165209Y0036564D01*
X0165339Y0036585D01*
X0165469Y0036602D01*
X0165600Y0036615D01*
X0165731Y0036624D01*
X0165862Y0036629D01*
X0165994Y0036630D01*
X0166125Y0036627D01*
X0166257Y0036620D01*
X0166388Y0036609D01*
X0166518Y0036594D01*
X0166648Y0036575D01*
X0166778Y0036552D01*
X0166906Y0036526D01*
X0167034Y0036495D01*
X0167161Y0036460D01*
X0167287Y0036422D01*
X0167411Y0036380D01*
X0167535Y0036334D01*
X0167656Y0036284D01*
X0167776Y0036231D01*
X0167895Y0036174D01*
X0168012Y0036114D01*
X0168126Y0036050D01*
X0168239Y0035982D01*
X0168350Y0035911D01*
X0168459Y0035837D01*
X0168565Y0035760D01*
X0168669Y0035679D01*
X0168770Y0035596D01*
X0168869Y0035509D01*
X0168965Y0035419D01*
X0169058Y0035326D01*
X0169149Y0035231D01*
X0169236Y0035133D01*
X0169321Y0035032D01*
X0169402Y0034929D01*
X0169480Y0034823D01*
X0169555Y0034715D01*
X0169627Y0034605D01*
X0169695Y0034493D01*
X0169760Y0034379D01*
X0169821Y0034262D01*
X0169879Y0034144D01*
X0169933Y0034024D01*
X0169984Y0033903D01*
X0170031Y0033780D01*
X0170074Y0033656D01*
X0170113Y0033531D01*
X0170149Y0033404D01*
X0170180Y0033276D01*
X0170208Y0033148D01*
X0170232Y0033019D01*
X0170252Y0032889D01*
X0170268Y0032758D01*
X0170280Y0032627D01*
X0170288Y0032496D01*
X0170292Y0032365D01*
X0170292Y0032233D01*
X0170288Y0032102D01*
X0170280Y0031971D01*
X0170268Y0031840D01*
X0170252Y0031709D01*
X0170232Y0031579D01*
X0170208Y0031450D01*
X0170180Y0031322D01*
X0170149Y0031194D01*
X0170113Y0031067D01*
X0170074Y0030942D01*
X0170031Y0030818D01*
X0169984Y0030695D01*
X0169933Y0030574D01*
X0169879Y0030454D01*
X0169821Y0030336D01*
X0169760Y0030219D01*
X0169695Y0030105D01*
X0169627Y0029993D01*
X0169555Y0029883D01*
X0169480Y0029775D01*
X0169402Y0029669D01*
X0169321Y0029566D01*
X0169236Y0029465D01*
X0169149Y0029367D01*
X0169058Y0029272D01*
X0168965Y0029179D01*
X0168869Y0029089D01*
X0168770Y0029002D01*
X0168669Y0028919D01*
X0168565Y0028838D01*
X0168459Y0028761D01*
X0168350Y0028687D01*
X0168239Y0028616D01*
X0168127Y0028548D01*
X0168012Y0028484D01*
X0167895Y0028424D01*
X0167776Y0028367D01*
X0167656Y0028314D01*
X0167535Y0028264D01*
X0167411Y0028218D01*
X0167287Y0028176D01*
X0167161Y0028138D01*
X0167034Y0028103D01*
X0166906Y0028072D01*
X0166778Y0028046D01*
X0166648Y0028023D01*
X0166518Y0028004D01*
X0166388Y0027989D01*
X0166257Y0027978D01*
X0166125Y0027971D01*
X0165994Y0027968D01*
X0165862Y0027969D01*
X0165731Y0027974D01*
X0165600Y0027983D01*
X0165469Y0027996D01*
X0165339Y0028013D01*
X0165209Y0028034D01*
X0165080Y0028059D01*
X0164952Y0028087D01*
X0164824Y0028120D01*
X0164698Y0028156D01*
X0164573Y0028197D01*
X0164449Y0028241D01*
X0164326Y0028288D01*
X0164205Y0028340D01*
X0164086Y0028395D01*
X0163968Y0028454D01*
X0163853Y0028516D01*
X0163739Y0028582D01*
X0163627Y0028651D01*
X0163517Y0028723D01*
X0163410Y0028799D01*
X0163305Y0028878D01*
X0163202Y0028960D01*
X0163102Y0029045D01*
X0163005Y0029134D01*
X0162910Y0029225D01*
X0162818Y0029319D01*
X0162729Y0029416D01*
X0162643Y0029515D01*
X0162560Y0029617D01*
X0162480Y0029722D01*
X0162404Y0029828D01*
X0162331Y0029937D01*
X0162261Y0030049D01*
X0162194Y0030162D01*
X0162131Y0030277D01*
X0162071Y0030395D01*
X0162015Y0030513D01*
X0161963Y0030634D01*
X0161914Y0030756D01*
X0161869Y0030880D01*
X0161828Y0031004D01*
X0161791Y0031131D01*
X0161757Y0031258D01*
X0161727Y0031386D01*
X0161702Y0031515D01*
X0161680Y0031644D01*
X0161662Y0031774D01*
X0161648Y0031905D01*
X0161638Y0032036D01*
X0161632Y0032168D01*
X0161630Y0032299D01*
X0164977Y0011118D02*
X0164979Y0011276D01*
X0164985Y0011434D01*
X0164995Y0011592D01*
X0165009Y0011750D01*
X0165027Y0011907D01*
X0165048Y0012064D01*
X0165074Y0012220D01*
X0165104Y0012376D01*
X0165137Y0012531D01*
X0165175Y0012684D01*
X0165216Y0012837D01*
X0165261Y0012989D01*
X0165310Y0013140D01*
X0165363Y0013289D01*
X0165419Y0013437D01*
X0165479Y0013583D01*
X0165543Y0013728D01*
X0165611Y0013871D01*
X0165682Y0014013D01*
X0165756Y0014153D01*
X0165834Y0014290D01*
X0165916Y0014426D01*
X0166000Y0014560D01*
X0166089Y0014691D01*
X0166180Y0014820D01*
X0166275Y0014947D01*
X0166372Y0015072D01*
X0166473Y0015194D01*
X0166577Y0015313D01*
X0166684Y0015430D01*
X0166794Y0015544D01*
X0166907Y0015655D01*
X0167022Y0015764D01*
X0167140Y0015869D01*
X0167261Y0015971D01*
X0167384Y0016071D01*
X0167510Y0016167D01*
X0167638Y0016260D01*
X0167768Y0016350D01*
X0167901Y0016436D01*
X0168036Y0016520D01*
X0168172Y0016599D01*
X0168311Y0016676D01*
X0168452Y0016748D01*
X0168594Y0016818D01*
X0168738Y0016883D01*
X0168884Y0016945D01*
X0169031Y0017003D01*
X0169180Y0017058D01*
X0169330Y0017109D01*
X0169481Y0017156D01*
X0169633Y0017199D01*
X0169786Y0017238D01*
X0169941Y0017274D01*
X0170096Y0017305D01*
X0170252Y0017333D01*
X0170408Y0017357D01*
X0170565Y0017377D01*
X0170723Y0017393D01*
X0170880Y0017405D01*
X0171039Y0017413D01*
X0171197Y0017417D01*
X0171355Y0017417D01*
X0171513Y0017413D01*
X0171672Y0017405D01*
X0171829Y0017393D01*
X0171987Y0017377D01*
X0172144Y0017357D01*
X0172300Y0017333D01*
X0172456Y0017305D01*
X0172611Y0017274D01*
X0172766Y0017238D01*
X0172919Y0017199D01*
X0173071Y0017156D01*
X0173222Y0017109D01*
X0173372Y0017058D01*
X0173521Y0017003D01*
X0173668Y0016945D01*
X0173814Y0016883D01*
X0173958Y0016818D01*
X0174100Y0016748D01*
X0174241Y0016676D01*
X0174380Y0016599D01*
X0174516Y0016520D01*
X0174651Y0016436D01*
X0174784Y0016350D01*
X0174914Y0016260D01*
X0175042Y0016167D01*
X0175168Y0016071D01*
X0175291Y0015971D01*
X0175412Y0015869D01*
X0175530Y0015764D01*
X0175645Y0015655D01*
X0175758Y0015544D01*
X0175868Y0015430D01*
X0175975Y0015313D01*
X0176079Y0015194D01*
X0176180Y0015072D01*
X0176277Y0014947D01*
X0176372Y0014820D01*
X0176463Y0014691D01*
X0176552Y0014560D01*
X0176636Y0014426D01*
X0176718Y0014290D01*
X0176796Y0014153D01*
X0176870Y0014013D01*
X0176941Y0013871D01*
X0177009Y0013728D01*
X0177073Y0013583D01*
X0177133Y0013437D01*
X0177189Y0013289D01*
X0177242Y0013140D01*
X0177291Y0012989D01*
X0177336Y0012837D01*
X0177377Y0012684D01*
X0177415Y0012531D01*
X0177448Y0012376D01*
X0177478Y0012220D01*
X0177504Y0012064D01*
X0177525Y0011907D01*
X0177543Y0011750D01*
X0177557Y0011592D01*
X0177567Y0011434D01*
X0177573Y0011276D01*
X0177575Y0011118D01*
X0177573Y0010960D01*
X0177567Y0010802D01*
X0177557Y0010644D01*
X0177543Y0010486D01*
X0177525Y0010329D01*
X0177504Y0010172D01*
X0177478Y0010016D01*
X0177448Y0009860D01*
X0177415Y0009705D01*
X0177377Y0009552D01*
X0177336Y0009399D01*
X0177291Y0009247D01*
X0177242Y0009096D01*
X0177189Y0008947D01*
X0177133Y0008799D01*
X0177073Y0008653D01*
X0177009Y0008508D01*
X0176941Y0008365D01*
X0176870Y0008223D01*
X0176796Y0008083D01*
X0176718Y0007946D01*
X0176636Y0007810D01*
X0176552Y0007676D01*
X0176463Y0007545D01*
X0176372Y0007416D01*
X0176277Y0007289D01*
X0176180Y0007164D01*
X0176079Y0007042D01*
X0175975Y0006923D01*
X0175868Y0006806D01*
X0175758Y0006692D01*
X0175645Y0006581D01*
X0175530Y0006472D01*
X0175412Y0006367D01*
X0175291Y0006265D01*
X0175168Y0006165D01*
X0175042Y0006069D01*
X0174914Y0005976D01*
X0174784Y0005886D01*
X0174651Y0005800D01*
X0174516Y0005716D01*
X0174380Y0005637D01*
X0174241Y0005560D01*
X0174100Y0005488D01*
X0173958Y0005418D01*
X0173814Y0005353D01*
X0173668Y0005291D01*
X0173521Y0005233D01*
X0173372Y0005178D01*
X0173222Y0005127D01*
X0173071Y0005080D01*
X0172919Y0005037D01*
X0172766Y0004998D01*
X0172611Y0004962D01*
X0172456Y0004931D01*
X0172300Y0004903D01*
X0172144Y0004879D01*
X0171987Y0004859D01*
X0171829Y0004843D01*
X0171672Y0004831D01*
X0171513Y0004823D01*
X0171355Y0004819D01*
X0171197Y0004819D01*
X0171039Y0004823D01*
X0170880Y0004831D01*
X0170723Y0004843D01*
X0170565Y0004859D01*
X0170408Y0004879D01*
X0170252Y0004903D01*
X0170096Y0004931D01*
X0169941Y0004962D01*
X0169786Y0004998D01*
X0169633Y0005037D01*
X0169481Y0005080D01*
X0169330Y0005127D01*
X0169180Y0005178D01*
X0169031Y0005233D01*
X0168884Y0005291D01*
X0168738Y0005353D01*
X0168594Y0005418D01*
X0168452Y0005488D01*
X0168311Y0005560D01*
X0168172Y0005637D01*
X0168036Y0005716D01*
X0167901Y0005800D01*
X0167768Y0005886D01*
X0167638Y0005976D01*
X0167510Y0006069D01*
X0167384Y0006165D01*
X0167261Y0006265D01*
X0167140Y0006367D01*
X0167022Y0006472D01*
X0166907Y0006581D01*
X0166794Y0006692D01*
X0166684Y0006806D01*
X0166577Y0006923D01*
X0166473Y0007042D01*
X0166372Y0007164D01*
X0166275Y0007289D01*
X0166180Y0007416D01*
X0166089Y0007545D01*
X0166000Y0007676D01*
X0165916Y0007810D01*
X0165834Y0007946D01*
X0165756Y0008083D01*
X0165682Y0008223D01*
X0165611Y0008365D01*
X0165543Y0008508D01*
X0165479Y0008653D01*
X0165419Y0008799D01*
X0165363Y0008947D01*
X0165310Y0009096D01*
X0165261Y0009247D01*
X0165216Y0009399D01*
X0165175Y0009552D01*
X0165137Y0009705D01*
X0165104Y0009860D01*
X0165074Y0010016D01*
X0165048Y0010172D01*
X0165027Y0010329D01*
X0165009Y0010486D01*
X0164995Y0010644D01*
X0164985Y0010802D01*
X0164979Y0010960D01*
X0164977Y0011118D01*
X0149664Y0327874D02*
X0149666Y0328028D01*
X0149672Y0328182D01*
X0149682Y0328335D01*
X0149696Y0328488D01*
X0149714Y0328641D01*
X0149735Y0328793D01*
X0149761Y0328945D01*
X0149791Y0329096D01*
X0149824Y0329246D01*
X0149862Y0329395D01*
X0149903Y0329544D01*
X0149948Y0329691D01*
X0149997Y0329837D01*
X0150050Y0329981D01*
X0150106Y0330124D01*
X0150166Y0330266D01*
X0150230Y0330406D01*
X0150297Y0330544D01*
X0150368Y0330681D01*
X0150442Y0330816D01*
X0150520Y0330948D01*
X0150601Y0331079D01*
X0150686Y0331208D01*
X0150773Y0331334D01*
X0150864Y0331458D01*
X0150959Y0331579D01*
X0151056Y0331699D01*
X0151156Y0331815D01*
X0151260Y0331929D01*
X0151366Y0332040D01*
X0151475Y0332149D01*
X0151587Y0332254D01*
X0151702Y0332357D01*
X0151819Y0332457D01*
X0151939Y0332553D01*
X0152061Y0332647D01*
X0152185Y0332737D01*
X0152312Y0332824D01*
X0152441Y0332908D01*
X0152573Y0332988D01*
X0152706Y0333065D01*
X0152841Y0333138D01*
X0152978Y0333208D01*
X0153117Y0333275D01*
X0153257Y0333337D01*
X0153399Y0333396D01*
X0153543Y0333452D01*
X0153688Y0333504D01*
X0153834Y0333551D01*
X0153981Y0333596D01*
X0154130Y0333636D01*
X0154279Y0333672D01*
X0154430Y0333705D01*
X0154581Y0333734D01*
X0154733Y0333758D01*
X0154885Y0333779D01*
X0155038Y0333796D01*
X0155191Y0333809D01*
X0155345Y0333818D01*
X0155499Y0333823D01*
X0155652Y0333824D01*
X0155806Y0333821D01*
X0155960Y0333814D01*
X0156113Y0333803D01*
X0156267Y0333788D01*
X0156419Y0333769D01*
X0156571Y0333746D01*
X0156723Y0333720D01*
X0156874Y0333689D01*
X0157024Y0333655D01*
X0157173Y0333616D01*
X0157320Y0333574D01*
X0157467Y0333528D01*
X0157613Y0333478D01*
X0157757Y0333425D01*
X0157900Y0333367D01*
X0158041Y0333306D01*
X0158181Y0333242D01*
X0158319Y0333174D01*
X0158455Y0333102D01*
X0158589Y0333027D01*
X0158721Y0332948D01*
X0158851Y0332866D01*
X0158979Y0332781D01*
X0159105Y0332692D01*
X0159228Y0332600D01*
X0159349Y0332505D01*
X0159468Y0332407D01*
X0159584Y0332306D01*
X0159697Y0332202D01*
X0159808Y0332095D01*
X0159915Y0331985D01*
X0160020Y0331872D01*
X0160122Y0331757D01*
X0160221Y0331639D01*
X0160317Y0331519D01*
X0160410Y0331396D01*
X0160499Y0331271D01*
X0160585Y0331144D01*
X0160668Y0331014D01*
X0160748Y0330882D01*
X0160824Y0330749D01*
X0160896Y0330613D01*
X0160965Y0330475D01*
X0161031Y0330336D01*
X0161093Y0330195D01*
X0161151Y0330053D01*
X0161205Y0329909D01*
X0161256Y0329764D01*
X0161303Y0329617D01*
X0161346Y0329470D01*
X0161385Y0329321D01*
X0161421Y0329171D01*
X0161452Y0329021D01*
X0161480Y0328869D01*
X0161504Y0328717D01*
X0161524Y0328565D01*
X0161540Y0328412D01*
X0161552Y0328258D01*
X0161560Y0328105D01*
X0161564Y0327951D01*
X0161564Y0327797D01*
X0161560Y0327643D01*
X0161552Y0327490D01*
X0161540Y0327336D01*
X0161524Y0327183D01*
X0161504Y0327031D01*
X0161480Y0326879D01*
X0161452Y0326727D01*
X0161421Y0326577D01*
X0161385Y0326427D01*
X0161346Y0326278D01*
X0161303Y0326131D01*
X0161256Y0325984D01*
X0161205Y0325839D01*
X0161151Y0325695D01*
X0161093Y0325553D01*
X0161031Y0325412D01*
X0160965Y0325273D01*
X0160896Y0325135D01*
X0160824Y0324999D01*
X0160748Y0324866D01*
X0160668Y0324734D01*
X0160585Y0324604D01*
X0160499Y0324477D01*
X0160410Y0324352D01*
X0160317Y0324229D01*
X0160221Y0324109D01*
X0160122Y0323991D01*
X0160020Y0323876D01*
X0159915Y0323763D01*
X0159808Y0323653D01*
X0159697Y0323546D01*
X0159584Y0323442D01*
X0159468Y0323341D01*
X0159349Y0323243D01*
X0159228Y0323148D01*
X0159105Y0323056D01*
X0158979Y0322967D01*
X0158851Y0322882D01*
X0158721Y0322800D01*
X0158589Y0322721D01*
X0158455Y0322646D01*
X0158319Y0322574D01*
X0158181Y0322506D01*
X0158041Y0322442D01*
X0157900Y0322381D01*
X0157757Y0322323D01*
X0157613Y0322270D01*
X0157467Y0322220D01*
X0157320Y0322174D01*
X0157173Y0322132D01*
X0157024Y0322093D01*
X0156874Y0322059D01*
X0156723Y0322028D01*
X0156571Y0322002D01*
X0156419Y0321979D01*
X0156267Y0321960D01*
X0156113Y0321945D01*
X0155960Y0321934D01*
X0155806Y0321927D01*
X0155652Y0321924D01*
X0155499Y0321925D01*
X0155345Y0321930D01*
X0155191Y0321939D01*
X0155038Y0321952D01*
X0154885Y0321969D01*
X0154733Y0321990D01*
X0154581Y0322014D01*
X0154430Y0322043D01*
X0154279Y0322076D01*
X0154130Y0322112D01*
X0153981Y0322152D01*
X0153834Y0322197D01*
X0153688Y0322244D01*
X0153543Y0322296D01*
X0153399Y0322352D01*
X0153257Y0322411D01*
X0153117Y0322473D01*
X0152978Y0322540D01*
X0152841Y0322610D01*
X0152706Y0322683D01*
X0152573Y0322760D01*
X0152441Y0322840D01*
X0152312Y0322924D01*
X0152185Y0323011D01*
X0152061Y0323101D01*
X0151939Y0323195D01*
X0151819Y0323291D01*
X0151702Y0323391D01*
X0151587Y0323494D01*
X0151475Y0323599D01*
X0151366Y0323708D01*
X0151260Y0323819D01*
X0151156Y0323933D01*
X0151056Y0324049D01*
X0150959Y0324169D01*
X0150864Y0324290D01*
X0150773Y0324414D01*
X0150686Y0324540D01*
X0150601Y0324669D01*
X0150520Y0324800D01*
X0150442Y0324932D01*
X0150368Y0325067D01*
X0150297Y0325204D01*
X0150230Y0325342D01*
X0150166Y0325482D01*
X0150106Y0325624D01*
X0150050Y0325767D01*
X0149997Y0325911D01*
X0149948Y0326057D01*
X0149903Y0326204D01*
X0149862Y0326353D01*
X0149824Y0326502D01*
X0149791Y0326652D01*
X0149761Y0326803D01*
X0149735Y0326955D01*
X0149714Y0327107D01*
X0149696Y0327260D01*
X0149682Y0327413D01*
X0149672Y0327566D01*
X0149666Y0327720D01*
X0149664Y0327874D01*
X0155614Y0321874D02*
X0155767Y0321876D01*
X0155920Y0321882D01*
X0156073Y0321892D01*
X0156226Y0321905D01*
X0156378Y0321923D01*
X0156530Y0321944D01*
X0156681Y0321970D01*
X0156831Y0321999D01*
X0156981Y0322032D01*
X0157130Y0322069D01*
X0157278Y0322109D01*
X0157424Y0322154D01*
X0157570Y0322202D01*
X0157714Y0322254D01*
X0157857Y0322309D01*
X0157998Y0322368D01*
X0158138Y0322431D01*
X0158276Y0322497D01*
X0158413Y0322567D01*
X0158547Y0322640D01*
X0158680Y0322717D01*
X0158811Y0322797D01*
X0158939Y0322880D01*
X0159066Y0322966D01*
X0159190Y0323056D01*
X0159312Y0323149D01*
X0159431Y0323245D01*
X0159548Y0323344D01*
X0159663Y0323446D01*
X0159775Y0323551D01*
X0159884Y0323659D01*
X0159990Y0323769D01*
X0160093Y0323882D01*
X0160194Y0323998D01*
X0160291Y0324116D01*
X0160386Y0324237D01*
X0160477Y0324360D01*
X0160565Y0324485D01*
X0160650Y0324613D01*
X0160732Y0324742D01*
X0160810Y0324874D01*
X0160885Y0325008D01*
X0160957Y0325143D01*
X0161025Y0325281D01*
X0161089Y0325420D01*
X0161150Y0325560D01*
X0161207Y0325702D01*
X0161261Y0325846D01*
X0161311Y0325991D01*
X0161357Y0326137D01*
X0161400Y0326284D01*
X0161438Y0326432D01*
X0161473Y0326582D01*
X0161504Y0326732D01*
X0161532Y0326882D01*
X0161555Y0327034D01*
X0161574Y0327186D01*
X0161590Y0327338D01*
X0161602Y0327491D01*
X0161610Y0327644D01*
X0161614Y0327797D01*
X0161614Y0327951D01*
X0161610Y0328104D01*
X0161602Y0328257D01*
X0161590Y0328410D01*
X0161574Y0328562D01*
X0161555Y0328714D01*
X0161532Y0328866D01*
X0161504Y0329016D01*
X0161473Y0329166D01*
X0161438Y0329316D01*
X0161400Y0329464D01*
X0161357Y0329611D01*
X0161311Y0329757D01*
X0161261Y0329902D01*
X0161207Y0330046D01*
X0161150Y0330188D01*
X0161089Y0330328D01*
X0161025Y0330467D01*
X0160957Y0330605D01*
X0160885Y0330740D01*
X0160810Y0330874D01*
X0160732Y0331006D01*
X0160650Y0331135D01*
X0160565Y0331263D01*
X0160477Y0331388D01*
X0160386Y0331511D01*
X0160291Y0331632D01*
X0160194Y0331750D01*
X0160093Y0331866D01*
X0159990Y0331979D01*
X0159884Y0332089D01*
X0159775Y0332197D01*
X0159663Y0332302D01*
X0159548Y0332404D01*
X0159431Y0332503D01*
X0159312Y0332599D01*
X0159190Y0332692D01*
X0159066Y0332782D01*
X0158939Y0332868D01*
X0158811Y0332951D01*
X0158680Y0333031D01*
X0158547Y0333108D01*
X0158413Y0333181D01*
X0158276Y0333251D01*
X0158138Y0333317D01*
X0157998Y0333380D01*
X0157857Y0333439D01*
X0157714Y0333494D01*
X0157570Y0333546D01*
X0157424Y0333594D01*
X0157278Y0333639D01*
X0157130Y0333679D01*
X0156981Y0333716D01*
X0156831Y0333749D01*
X0156681Y0333778D01*
X0156530Y0333804D01*
X0156378Y0333825D01*
X0156226Y0333843D01*
X0156073Y0333856D01*
X0155920Y0333866D01*
X0155767Y0333872D01*
X0155614Y0333874D01*
X0135664Y0327874D02*
X0135666Y0328028D01*
X0135672Y0328182D01*
X0135682Y0328335D01*
X0135696Y0328488D01*
X0135714Y0328641D01*
X0135735Y0328793D01*
X0135761Y0328945D01*
X0135791Y0329096D01*
X0135824Y0329246D01*
X0135862Y0329395D01*
X0135903Y0329544D01*
X0135948Y0329691D01*
X0135997Y0329837D01*
X0136050Y0329981D01*
X0136106Y0330124D01*
X0136166Y0330266D01*
X0136230Y0330406D01*
X0136297Y0330544D01*
X0136368Y0330681D01*
X0136442Y0330816D01*
X0136520Y0330948D01*
X0136601Y0331079D01*
X0136686Y0331208D01*
X0136773Y0331334D01*
X0136864Y0331458D01*
X0136959Y0331579D01*
X0137056Y0331699D01*
X0137156Y0331815D01*
X0137260Y0331929D01*
X0137366Y0332040D01*
X0137475Y0332149D01*
X0137587Y0332254D01*
X0137702Y0332357D01*
X0137819Y0332457D01*
X0137939Y0332553D01*
X0138061Y0332647D01*
X0138185Y0332737D01*
X0138312Y0332824D01*
X0138441Y0332908D01*
X0138573Y0332988D01*
X0138706Y0333065D01*
X0138841Y0333138D01*
X0138978Y0333208D01*
X0139117Y0333275D01*
X0139257Y0333337D01*
X0139399Y0333396D01*
X0139543Y0333452D01*
X0139688Y0333504D01*
X0139834Y0333551D01*
X0139981Y0333596D01*
X0140130Y0333636D01*
X0140279Y0333672D01*
X0140430Y0333705D01*
X0140581Y0333734D01*
X0140733Y0333758D01*
X0140885Y0333779D01*
X0141038Y0333796D01*
X0141191Y0333809D01*
X0141345Y0333818D01*
X0141499Y0333823D01*
X0141652Y0333824D01*
X0141806Y0333821D01*
X0141960Y0333814D01*
X0142113Y0333803D01*
X0142267Y0333788D01*
X0142419Y0333769D01*
X0142571Y0333746D01*
X0142723Y0333720D01*
X0142874Y0333689D01*
X0143024Y0333655D01*
X0143173Y0333616D01*
X0143320Y0333574D01*
X0143467Y0333528D01*
X0143613Y0333478D01*
X0143757Y0333425D01*
X0143900Y0333367D01*
X0144041Y0333306D01*
X0144181Y0333242D01*
X0144319Y0333174D01*
X0144455Y0333102D01*
X0144589Y0333027D01*
X0144721Y0332948D01*
X0144851Y0332866D01*
X0144979Y0332781D01*
X0145105Y0332692D01*
X0145228Y0332600D01*
X0145349Y0332505D01*
X0145468Y0332407D01*
X0145584Y0332306D01*
X0145697Y0332202D01*
X0145808Y0332095D01*
X0145915Y0331985D01*
X0146020Y0331872D01*
X0146122Y0331757D01*
X0146221Y0331639D01*
X0146317Y0331519D01*
X0146410Y0331396D01*
X0146499Y0331271D01*
X0146585Y0331144D01*
X0146668Y0331014D01*
X0146748Y0330882D01*
X0146824Y0330749D01*
X0146896Y0330613D01*
X0146965Y0330475D01*
X0147031Y0330336D01*
X0147093Y0330195D01*
X0147151Y0330053D01*
X0147205Y0329909D01*
X0147256Y0329764D01*
X0147303Y0329617D01*
X0147346Y0329470D01*
X0147385Y0329321D01*
X0147421Y0329171D01*
X0147452Y0329021D01*
X0147480Y0328869D01*
X0147504Y0328717D01*
X0147524Y0328565D01*
X0147540Y0328412D01*
X0147552Y0328258D01*
X0147560Y0328105D01*
X0147564Y0327951D01*
X0147564Y0327797D01*
X0147560Y0327643D01*
X0147552Y0327490D01*
X0147540Y0327336D01*
X0147524Y0327183D01*
X0147504Y0327031D01*
X0147480Y0326879D01*
X0147452Y0326727D01*
X0147421Y0326577D01*
X0147385Y0326427D01*
X0147346Y0326278D01*
X0147303Y0326131D01*
X0147256Y0325984D01*
X0147205Y0325839D01*
X0147151Y0325695D01*
X0147093Y0325553D01*
X0147031Y0325412D01*
X0146965Y0325273D01*
X0146896Y0325135D01*
X0146824Y0324999D01*
X0146748Y0324866D01*
X0146668Y0324734D01*
X0146585Y0324604D01*
X0146499Y0324477D01*
X0146410Y0324352D01*
X0146317Y0324229D01*
X0146221Y0324109D01*
X0146122Y0323991D01*
X0146020Y0323876D01*
X0145915Y0323763D01*
X0145808Y0323653D01*
X0145697Y0323546D01*
X0145584Y0323442D01*
X0145468Y0323341D01*
X0145349Y0323243D01*
X0145228Y0323148D01*
X0145105Y0323056D01*
X0144979Y0322967D01*
X0144851Y0322882D01*
X0144721Y0322800D01*
X0144589Y0322721D01*
X0144455Y0322646D01*
X0144319Y0322574D01*
X0144181Y0322506D01*
X0144041Y0322442D01*
X0143900Y0322381D01*
X0143757Y0322323D01*
X0143613Y0322270D01*
X0143467Y0322220D01*
X0143320Y0322174D01*
X0143173Y0322132D01*
X0143024Y0322093D01*
X0142874Y0322059D01*
X0142723Y0322028D01*
X0142571Y0322002D01*
X0142419Y0321979D01*
X0142267Y0321960D01*
X0142113Y0321945D01*
X0141960Y0321934D01*
X0141806Y0321927D01*
X0141652Y0321924D01*
X0141499Y0321925D01*
X0141345Y0321930D01*
X0141191Y0321939D01*
X0141038Y0321952D01*
X0140885Y0321969D01*
X0140733Y0321990D01*
X0140581Y0322014D01*
X0140430Y0322043D01*
X0140279Y0322076D01*
X0140130Y0322112D01*
X0139981Y0322152D01*
X0139834Y0322197D01*
X0139688Y0322244D01*
X0139543Y0322296D01*
X0139399Y0322352D01*
X0139257Y0322411D01*
X0139117Y0322473D01*
X0138978Y0322540D01*
X0138841Y0322610D01*
X0138706Y0322683D01*
X0138573Y0322760D01*
X0138441Y0322840D01*
X0138312Y0322924D01*
X0138185Y0323011D01*
X0138061Y0323101D01*
X0137939Y0323195D01*
X0137819Y0323291D01*
X0137702Y0323391D01*
X0137587Y0323494D01*
X0137475Y0323599D01*
X0137366Y0323708D01*
X0137260Y0323819D01*
X0137156Y0323933D01*
X0137056Y0324049D01*
X0136959Y0324169D01*
X0136864Y0324290D01*
X0136773Y0324414D01*
X0136686Y0324540D01*
X0136601Y0324669D01*
X0136520Y0324800D01*
X0136442Y0324932D01*
X0136368Y0325067D01*
X0136297Y0325204D01*
X0136230Y0325342D01*
X0136166Y0325482D01*
X0136106Y0325624D01*
X0136050Y0325767D01*
X0135997Y0325911D01*
X0135948Y0326057D01*
X0135903Y0326204D01*
X0135862Y0326353D01*
X0135824Y0326502D01*
X0135791Y0326652D01*
X0135761Y0326803D01*
X0135735Y0326955D01*
X0135714Y0327107D01*
X0135696Y0327260D01*
X0135682Y0327413D01*
X0135672Y0327566D01*
X0135666Y0327720D01*
X0135664Y0327874D01*
X0141614Y0333874D02*
X0141461Y0333872D01*
X0141308Y0333866D01*
X0141155Y0333856D01*
X0141002Y0333843D01*
X0140850Y0333825D01*
X0140698Y0333804D01*
X0140547Y0333778D01*
X0140397Y0333749D01*
X0140247Y0333716D01*
X0140098Y0333679D01*
X0139950Y0333639D01*
X0139804Y0333594D01*
X0139658Y0333546D01*
X0139514Y0333494D01*
X0139371Y0333439D01*
X0139230Y0333380D01*
X0139090Y0333317D01*
X0138952Y0333251D01*
X0138815Y0333181D01*
X0138681Y0333108D01*
X0138548Y0333031D01*
X0138417Y0332951D01*
X0138289Y0332868D01*
X0138162Y0332782D01*
X0138038Y0332692D01*
X0137916Y0332599D01*
X0137797Y0332503D01*
X0137680Y0332404D01*
X0137565Y0332302D01*
X0137453Y0332197D01*
X0137344Y0332089D01*
X0137238Y0331979D01*
X0137135Y0331866D01*
X0137034Y0331750D01*
X0136937Y0331632D01*
X0136842Y0331511D01*
X0136751Y0331388D01*
X0136663Y0331263D01*
X0136578Y0331135D01*
X0136496Y0331006D01*
X0136418Y0330874D01*
X0136343Y0330740D01*
X0136271Y0330605D01*
X0136203Y0330467D01*
X0136139Y0330328D01*
X0136078Y0330188D01*
X0136021Y0330046D01*
X0135967Y0329902D01*
X0135917Y0329757D01*
X0135871Y0329611D01*
X0135828Y0329464D01*
X0135790Y0329316D01*
X0135755Y0329166D01*
X0135724Y0329016D01*
X0135696Y0328866D01*
X0135673Y0328714D01*
X0135654Y0328562D01*
X0135638Y0328410D01*
X0135626Y0328257D01*
X0135618Y0328104D01*
X0135614Y0327951D01*
X0135614Y0327797D01*
X0135618Y0327644D01*
X0135626Y0327491D01*
X0135638Y0327338D01*
X0135654Y0327186D01*
X0135673Y0327034D01*
X0135696Y0326882D01*
X0135724Y0326732D01*
X0135755Y0326582D01*
X0135790Y0326432D01*
X0135828Y0326284D01*
X0135871Y0326137D01*
X0135917Y0325991D01*
X0135967Y0325846D01*
X0136021Y0325702D01*
X0136078Y0325560D01*
X0136139Y0325420D01*
X0136203Y0325281D01*
X0136271Y0325143D01*
X0136343Y0325008D01*
X0136418Y0324874D01*
X0136496Y0324742D01*
X0136578Y0324613D01*
X0136663Y0324485D01*
X0136751Y0324360D01*
X0136842Y0324237D01*
X0136937Y0324116D01*
X0137034Y0323998D01*
X0137135Y0323882D01*
X0137238Y0323769D01*
X0137344Y0323659D01*
X0137453Y0323551D01*
X0137565Y0323446D01*
X0137680Y0323344D01*
X0137797Y0323245D01*
X0137916Y0323149D01*
X0138038Y0323056D01*
X0138162Y0322966D01*
X0138289Y0322880D01*
X0138417Y0322797D01*
X0138548Y0322717D01*
X0138681Y0322640D01*
X0138815Y0322567D01*
X0138952Y0322497D01*
X0139090Y0322431D01*
X0139230Y0322368D01*
X0139371Y0322309D01*
X0139514Y0322254D01*
X0139658Y0322202D01*
X0139804Y0322154D01*
X0139950Y0322109D01*
X0140098Y0322069D01*
X0140247Y0322032D01*
X0140397Y0321999D01*
X0140547Y0321970D01*
X0140698Y0321944D01*
X0140850Y0321923D01*
X0141002Y0321905D01*
X0141155Y0321892D01*
X0141308Y0321882D01*
X0141461Y0321876D01*
X0141614Y0321874D01*
X0164977Y0345764D02*
X0164979Y0345922D01*
X0164985Y0346080D01*
X0164995Y0346238D01*
X0165009Y0346396D01*
X0165027Y0346553D01*
X0165048Y0346710D01*
X0165074Y0346866D01*
X0165104Y0347022D01*
X0165137Y0347177D01*
X0165175Y0347330D01*
X0165216Y0347483D01*
X0165261Y0347635D01*
X0165310Y0347786D01*
X0165363Y0347935D01*
X0165419Y0348083D01*
X0165479Y0348229D01*
X0165543Y0348374D01*
X0165611Y0348517D01*
X0165682Y0348659D01*
X0165756Y0348799D01*
X0165834Y0348936D01*
X0165916Y0349072D01*
X0166000Y0349206D01*
X0166089Y0349337D01*
X0166180Y0349466D01*
X0166275Y0349593D01*
X0166372Y0349718D01*
X0166473Y0349840D01*
X0166577Y0349959D01*
X0166684Y0350076D01*
X0166794Y0350190D01*
X0166907Y0350301D01*
X0167022Y0350410D01*
X0167140Y0350515D01*
X0167261Y0350617D01*
X0167384Y0350717D01*
X0167510Y0350813D01*
X0167638Y0350906D01*
X0167768Y0350996D01*
X0167901Y0351082D01*
X0168036Y0351166D01*
X0168172Y0351245D01*
X0168311Y0351322D01*
X0168452Y0351394D01*
X0168594Y0351464D01*
X0168738Y0351529D01*
X0168884Y0351591D01*
X0169031Y0351649D01*
X0169180Y0351704D01*
X0169330Y0351755D01*
X0169481Y0351802D01*
X0169633Y0351845D01*
X0169786Y0351884D01*
X0169941Y0351920D01*
X0170096Y0351951D01*
X0170252Y0351979D01*
X0170408Y0352003D01*
X0170565Y0352023D01*
X0170723Y0352039D01*
X0170880Y0352051D01*
X0171039Y0352059D01*
X0171197Y0352063D01*
X0171355Y0352063D01*
X0171513Y0352059D01*
X0171672Y0352051D01*
X0171829Y0352039D01*
X0171987Y0352023D01*
X0172144Y0352003D01*
X0172300Y0351979D01*
X0172456Y0351951D01*
X0172611Y0351920D01*
X0172766Y0351884D01*
X0172919Y0351845D01*
X0173071Y0351802D01*
X0173222Y0351755D01*
X0173372Y0351704D01*
X0173521Y0351649D01*
X0173668Y0351591D01*
X0173814Y0351529D01*
X0173958Y0351464D01*
X0174100Y0351394D01*
X0174241Y0351322D01*
X0174380Y0351245D01*
X0174516Y0351166D01*
X0174651Y0351082D01*
X0174784Y0350996D01*
X0174914Y0350906D01*
X0175042Y0350813D01*
X0175168Y0350717D01*
X0175291Y0350617D01*
X0175412Y0350515D01*
X0175530Y0350410D01*
X0175645Y0350301D01*
X0175758Y0350190D01*
X0175868Y0350076D01*
X0175975Y0349959D01*
X0176079Y0349840D01*
X0176180Y0349718D01*
X0176277Y0349593D01*
X0176372Y0349466D01*
X0176463Y0349337D01*
X0176552Y0349206D01*
X0176636Y0349072D01*
X0176718Y0348936D01*
X0176796Y0348799D01*
X0176870Y0348659D01*
X0176941Y0348517D01*
X0177009Y0348374D01*
X0177073Y0348229D01*
X0177133Y0348083D01*
X0177189Y0347935D01*
X0177242Y0347786D01*
X0177291Y0347635D01*
X0177336Y0347483D01*
X0177377Y0347330D01*
X0177415Y0347177D01*
X0177448Y0347022D01*
X0177478Y0346866D01*
X0177504Y0346710D01*
X0177525Y0346553D01*
X0177543Y0346396D01*
X0177557Y0346238D01*
X0177567Y0346080D01*
X0177573Y0345922D01*
X0177575Y0345764D01*
X0177573Y0345606D01*
X0177567Y0345448D01*
X0177557Y0345290D01*
X0177543Y0345132D01*
X0177525Y0344975D01*
X0177504Y0344818D01*
X0177478Y0344662D01*
X0177448Y0344506D01*
X0177415Y0344351D01*
X0177377Y0344198D01*
X0177336Y0344045D01*
X0177291Y0343893D01*
X0177242Y0343742D01*
X0177189Y0343593D01*
X0177133Y0343445D01*
X0177073Y0343299D01*
X0177009Y0343154D01*
X0176941Y0343011D01*
X0176870Y0342869D01*
X0176796Y0342729D01*
X0176718Y0342592D01*
X0176636Y0342456D01*
X0176552Y0342322D01*
X0176463Y0342191D01*
X0176372Y0342062D01*
X0176277Y0341935D01*
X0176180Y0341810D01*
X0176079Y0341688D01*
X0175975Y0341569D01*
X0175868Y0341452D01*
X0175758Y0341338D01*
X0175645Y0341227D01*
X0175530Y0341118D01*
X0175412Y0341013D01*
X0175291Y0340911D01*
X0175168Y0340811D01*
X0175042Y0340715D01*
X0174914Y0340622D01*
X0174784Y0340532D01*
X0174651Y0340446D01*
X0174516Y0340362D01*
X0174380Y0340283D01*
X0174241Y0340206D01*
X0174100Y0340134D01*
X0173958Y0340064D01*
X0173814Y0339999D01*
X0173668Y0339937D01*
X0173521Y0339879D01*
X0173372Y0339824D01*
X0173222Y0339773D01*
X0173071Y0339726D01*
X0172919Y0339683D01*
X0172766Y0339644D01*
X0172611Y0339608D01*
X0172456Y0339577D01*
X0172300Y0339549D01*
X0172144Y0339525D01*
X0171987Y0339505D01*
X0171829Y0339489D01*
X0171672Y0339477D01*
X0171513Y0339469D01*
X0171355Y0339465D01*
X0171197Y0339465D01*
X0171039Y0339469D01*
X0170880Y0339477D01*
X0170723Y0339489D01*
X0170565Y0339505D01*
X0170408Y0339525D01*
X0170252Y0339549D01*
X0170096Y0339577D01*
X0169941Y0339608D01*
X0169786Y0339644D01*
X0169633Y0339683D01*
X0169481Y0339726D01*
X0169330Y0339773D01*
X0169180Y0339824D01*
X0169031Y0339879D01*
X0168884Y0339937D01*
X0168738Y0339999D01*
X0168594Y0340064D01*
X0168452Y0340134D01*
X0168311Y0340206D01*
X0168172Y0340283D01*
X0168036Y0340362D01*
X0167901Y0340446D01*
X0167768Y0340532D01*
X0167638Y0340622D01*
X0167510Y0340715D01*
X0167384Y0340811D01*
X0167261Y0340911D01*
X0167140Y0341013D01*
X0167022Y0341118D01*
X0166907Y0341227D01*
X0166794Y0341338D01*
X0166684Y0341452D01*
X0166577Y0341569D01*
X0166473Y0341688D01*
X0166372Y0341810D01*
X0166275Y0341935D01*
X0166180Y0342062D01*
X0166089Y0342191D01*
X0166000Y0342322D01*
X0165916Y0342456D01*
X0165834Y0342592D01*
X0165756Y0342729D01*
X0165682Y0342869D01*
X0165611Y0343011D01*
X0165543Y0343154D01*
X0165479Y0343299D01*
X0165419Y0343445D01*
X0165363Y0343593D01*
X0165310Y0343742D01*
X0165261Y0343893D01*
X0165216Y0344045D01*
X0165175Y0344198D01*
X0165137Y0344351D01*
X0165104Y0344506D01*
X0165074Y0344662D01*
X0165048Y0344818D01*
X0165027Y0344975D01*
X0165009Y0345132D01*
X0164995Y0345290D01*
X0164985Y0345448D01*
X0164979Y0345606D01*
X0164977Y0345764D01*
X0007496Y0345764D02*
X0007498Y0345922D01*
X0007504Y0346080D01*
X0007514Y0346238D01*
X0007528Y0346396D01*
X0007546Y0346553D01*
X0007567Y0346710D01*
X0007593Y0346866D01*
X0007623Y0347022D01*
X0007656Y0347177D01*
X0007694Y0347330D01*
X0007735Y0347483D01*
X0007780Y0347635D01*
X0007829Y0347786D01*
X0007882Y0347935D01*
X0007938Y0348083D01*
X0007998Y0348229D01*
X0008062Y0348374D01*
X0008130Y0348517D01*
X0008201Y0348659D01*
X0008275Y0348799D01*
X0008353Y0348936D01*
X0008435Y0349072D01*
X0008519Y0349206D01*
X0008608Y0349337D01*
X0008699Y0349466D01*
X0008794Y0349593D01*
X0008891Y0349718D01*
X0008992Y0349840D01*
X0009096Y0349959D01*
X0009203Y0350076D01*
X0009313Y0350190D01*
X0009426Y0350301D01*
X0009541Y0350410D01*
X0009659Y0350515D01*
X0009780Y0350617D01*
X0009903Y0350717D01*
X0010029Y0350813D01*
X0010157Y0350906D01*
X0010287Y0350996D01*
X0010420Y0351082D01*
X0010555Y0351166D01*
X0010691Y0351245D01*
X0010830Y0351322D01*
X0010971Y0351394D01*
X0011113Y0351464D01*
X0011257Y0351529D01*
X0011403Y0351591D01*
X0011550Y0351649D01*
X0011699Y0351704D01*
X0011849Y0351755D01*
X0012000Y0351802D01*
X0012152Y0351845D01*
X0012305Y0351884D01*
X0012460Y0351920D01*
X0012615Y0351951D01*
X0012771Y0351979D01*
X0012927Y0352003D01*
X0013084Y0352023D01*
X0013242Y0352039D01*
X0013399Y0352051D01*
X0013558Y0352059D01*
X0013716Y0352063D01*
X0013874Y0352063D01*
X0014032Y0352059D01*
X0014191Y0352051D01*
X0014348Y0352039D01*
X0014506Y0352023D01*
X0014663Y0352003D01*
X0014819Y0351979D01*
X0014975Y0351951D01*
X0015130Y0351920D01*
X0015285Y0351884D01*
X0015438Y0351845D01*
X0015590Y0351802D01*
X0015741Y0351755D01*
X0015891Y0351704D01*
X0016040Y0351649D01*
X0016187Y0351591D01*
X0016333Y0351529D01*
X0016477Y0351464D01*
X0016619Y0351394D01*
X0016760Y0351322D01*
X0016899Y0351245D01*
X0017035Y0351166D01*
X0017170Y0351082D01*
X0017303Y0350996D01*
X0017433Y0350906D01*
X0017561Y0350813D01*
X0017687Y0350717D01*
X0017810Y0350617D01*
X0017931Y0350515D01*
X0018049Y0350410D01*
X0018164Y0350301D01*
X0018277Y0350190D01*
X0018387Y0350076D01*
X0018494Y0349959D01*
X0018598Y0349840D01*
X0018699Y0349718D01*
X0018796Y0349593D01*
X0018891Y0349466D01*
X0018982Y0349337D01*
X0019071Y0349206D01*
X0019155Y0349072D01*
X0019237Y0348936D01*
X0019315Y0348799D01*
X0019389Y0348659D01*
X0019460Y0348517D01*
X0019528Y0348374D01*
X0019592Y0348229D01*
X0019652Y0348083D01*
X0019708Y0347935D01*
X0019761Y0347786D01*
X0019810Y0347635D01*
X0019855Y0347483D01*
X0019896Y0347330D01*
X0019934Y0347177D01*
X0019967Y0347022D01*
X0019997Y0346866D01*
X0020023Y0346710D01*
X0020044Y0346553D01*
X0020062Y0346396D01*
X0020076Y0346238D01*
X0020086Y0346080D01*
X0020092Y0345922D01*
X0020094Y0345764D01*
X0020092Y0345606D01*
X0020086Y0345448D01*
X0020076Y0345290D01*
X0020062Y0345132D01*
X0020044Y0344975D01*
X0020023Y0344818D01*
X0019997Y0344662D01*
X0019967Y0344506D01*
X0019934Y0344351D01*
X0019896Y0344198D01*
X0019855Y0344045D01*
X0019810Y0343893D01*
X0019761Y0343742D01*
X0019708Y0343593D01*
X0019652Y0343445D01*
X0019592Y0343299D01*
X0019528Y0343154D01*
X0019460Y0343011D01*
X0019389Y0342869D01*
X0019315Y0342729D01*
X0019237Y0342592D01*
X0019155Y0342456D01*
X0019071Y0342322D01*
X0018982Y0342191D01*
X0018891Y0342062D01*
X0018796Y0341935D01*
X0018699Y0341810D01*
X0018598Y0341688D01*
X0018494Y0341569D01*
X0018387Y0341452D01*
X0018277Y0341338D01*
X0018164Y0341227D01*
X0018049Y0341118D01*
X0017931Y0341013D01*
X0017810Y0340911D01*
X0017687Y0340811D01*
X0017561Y0340715D01*
X0017433Y0340622D01*
X0017303Y0340532D01*
X0017170Y0340446D01*
X0017035Y0340362D01*
X0016899Y0340283D01*
X0016760Y0340206D01*
X0016619Y0340134D01*
X0016477Y0340064D01*
X0016333Y0339999D01*
X0016187Y0339937D01*
X0016040Y0339879D01*
X0015891Y0339824D01*
X0015741Y0339773D01*
X0015590Y0339726D01*
X0015438Y0339683D01*
X0015285Y0339644D01*
X0015130Y0339608D01*
X0014975Y0339577D01*
X0014819Y0339549D01*
X0014663Y0339525D01*
X0014506Y0339505D01*
X0014348Y0339489D01*
X0014191Y0339477D01*
X0014032Y0339469D01*
X0013874Y0339465D01*
X0013716Y0339465D01*
X0013558Y0339469D01*
X0013399Y0339477D01*
X0013242Y0339489D01*
X0013084Y0339505D01*
X0012927Y0339525D01*
X0012771Y0339549D01*
X0012615Y0339577D01*
X0012460Y0339608D01*
X0012305Y0339644D01*
X0012152Y0339683D01*
X0012000Y0339726D01*
X0011849Y0339773D01*
X0011699Y0339824D01*
X0011550Y0339879D01*
X0011403Y0339937D01*
X0011257Y0339999D01*
X0011113Y0340064D01*
X0010971Y0340134D01*
X0010830Y0340206D01*
X0010691Y0340283D01*
X0010555Y0340362D01*
X0010420Y0340446D01*
X0010287Y0340532D01*
X0010157Y0340622D01*
X0010029Y0340715D01*
X0009903Y0340811D01*
X0009780Y0340911D01*
X0009659Y0341013D01*
X0009541Y0341118D01*
X0009426Y0341227D01*
X0009313Y0341338D01*
X0009203Y0341452D01*
X0009096Y0341569D01*
X0008992Y0341688D01*
X0008891Y0341810D01*
X0008794Y0341935D01*
X0008699Y0342062D01*
X0008608Y0342191D01*
X0008519Y0342322D01*
X0008435Y0342456D01*
X0008353Y0342592D01*
X0008275Y0342729D01*
X0008201Y0342869D01*
X0008130Y0343011D01*
X0008062Y0343154D01*
X0007998Y0343299D01*
X0007938Y0343445D01*
X0007882Y0343593D01*
X0007829Y0343742D01*
X0007780Y0343893D01*
X0007735Y0344045D01*
X0007694Y0344198D01*
X0007656Y0344351D01*
X0007623Y0344506D01*
X0007593Y0344662D01*
X0007567Y0344818D01*
X0007546Y0344975D01*
X0007528Y0345132D01*
X0007514Y0345290D01*
X0007504Y0345448D01*
X0007498Y0345606D01*
X0007496Y0345764D01*
D11*
X0015759Y0306591D02*
X0021359Y0306591D01*
X0021359Y0296591D02*
X0015759Y0296591D01*
X0015759Y0286591D02*
X0021359Y0286591D01*
X0020847Y0155764D02*
X0015247Y0155764D01*
X0015247Y0145764D02*
X0020847Y0145764D01*
X0020847Y0135764D02*
X0015247Y0135764D01*
X0015247Y0125764D02*
X0020847Y0125764D01*
X0020847Y0108008D02*
X0015247Y0108008D01*
X0015247Y0098008D02*
X0020847Y0098008D01*
X0020847Y0088008D02*
X0015247Y0088008D01*
D12*
X0088598Y0085173D03*
X0088598Y0055173D03*
X0088598Y0041866D03*
X0088598Y0011866D03*
X0076984Y0257811D03*
X0076984Y0287811D03*
X0051984Y0278874D03*
X0051984Y0268874D03*
D13*
X0141614Y0321874D02*
X0155614Y0321874D01*
X0155614Y0333874D02*
X0141614Y0333874D01*
X0141614Y0125874D02*
X0155614Y0125874D01*
X0155614Y0113874D02*
X0141614Y0113874D01*
D14*
X0126514Y0148874D02*
X0118714Y0148874D01*
X0118714Y0163874D02*
X0126514Y0163874D01*
X0126514Y0178874D02*
X0118714Y0178874D01*
X0118714Y0193874D02*
X0126514Y0193874D01*
X0126514Y0208874D02*
X0118714Y0208874D01*
X0118714Y0223874D02*
X0126514Y0223874D01*
X0126514Y0238874D02*
X0118714Y0238874D01*
X0118714Y0253874D02*
X0126514Y0253874D01*
X0126514Y0268874D02*
X0118714Y0268874D01*
X0118714Y0283874D02*
X0126514Y0283874D01*
X0126514Y0298874D02*
X0118714Y0298874D01*
X0138714Y0291374D02*
X0146514Y0291374D01*
X0146514Y0276374D02*
X0138714Y0276374D01*
X0138714Y0261374D02*
X0146514Y0261374D01*
X0146514Y0246374D02*
X0138714Y0246374D01*
X0138714Y0231374D02*
X0146514Y0231374D01*
X0146514Y0216374D02*
X0138714Y0216374D01*
X0138714Y0201374D02*
X0146514Y0201374D01*
X0146514Y0186374D02*
X0138714Y0186374D01*
X0138714Y0171374D02*
X0146514Y0171374D01*
X0146514Y0156374D02*
X0138714Y0156374D01*
D15*
X0144307Y0072260D03*
X0144307Y0063992D03*
X0144307Y0056118D03*
X0144307Y0045488D03*
X0154150Y0045488D03*
X0154150Y0053756D03*
X0154150Y0063992D03*
X0154150Y0072260D03*
D16*
X0150843Y0018355D02*
X0150843Y0011755D01*
X0135843Y0011755D02*
X0135843Y0018355D01*
X0120843Y0018355D02*
X0120843Y0011755D01*
D17*
X0074702Y0039425D02*
X0069502Y0039425D01*
X0069502Y0049425D02*
X0074702Y0049425D01*
X0074702Y0059425D02*
X0069502Y0059425D01*
X0069502Y0069425D02*
X0074702Y0069425D01*
X0044702Y0069425D02*
X0039502Y0069425D01*
X0039502Y0059425D02*
X0044702Y0059425D01*
X0044702Y0049425D02*
X0039502Y0049425D01*
X0039502Y0039425D02*
X0044702Y0039425D01*
D18*
X0042102Y0015055D03*
X0072102Y0015055D03*
X0076039Y0085921D03*
X0046039Y0085921D03*
X0037417Y0307142D03*
X0037417Y0337142D03*
D19*
X0033756Y0233874D03*
X0033756Y0223874D03*
X0033756Y0213874D03*
X0033756Y0203874D03*
X0033756Y0193874D03*
X0023756Y0193874D03*
X0023756Y0203874D03*
X0023756Y0213874D03*
X0023756Y0223874D03*
X0023756Y0233874D03*
D20*
X0070724Y0322142D03*
D21*
X0090724Y0322142D03*
D22*
X0090634Y0321957D01*
X0077134Y0308457D01*
X0077134Y0307107D01*
X0037984Y0307107D01*
X0037417Y0307142D01*
X0037417Y0307142D01*
X0031683Y0307142D01*
X0031683Y0309517D01*
X0035042Y0312876D01*
X0037417Y0312876D01*
X0037417Y0307142D01*
X0037417Y0307142D01*
X0031683Y0307142D01*
X0031683Y0304767D01*
X0035042Y0301407D01*
X0037417Y0301407D01*
X0037417Y0307142D01*
X0037417Y0312876D01*
X0039793Y0312876D01*
X0043152Y0309517D01*
X0043152Y0307142D01*
X0037417Y0307142D01*
X0037084Y0307107D01*
X0036634Y0306657D01*
X0019534Y0306657D01*
X0018559Y0306591D01*
X0018559Y0311375D01*
X0015383Y0311375D01*
X0014639Y0311257D01*
X0013923Y0311024D01*
X0013252Y0310682D01*
X0012642Y0310240D01*
X0012110Y0309707D01*
X0011667Y0309098D01*
X0011325Y0308427D01*
X0011093Y0307711D01*
X0010975Y0306967D01*
X0010975Y0306591D01*
X0018559Y0306591D01*
X0018559Y0306591D01*
X0018559Y0311375D01*
X0021736Y0311375D01*
X0022479Y0311257D01*
X0023196Y0311024D01*
X0023867Y0310682D01*
X0024476Y0310240D01*
X0025008Y0309707D01*
X0025451Y0309098D01*
X0025793Y0308427D01*
X0026025Y0307711D01*
X0026143Y0306967D01*
X0026143Y0306591D01*
X0018559Y0306591D01*
X0018559Y0306590D01*
X0018559Y0301806D01*
X0018559Y0306590D01*
X0018559Y0306590D01*
X0010975Y0306590D01*
X0010975Y0306214D01*
X0011093Y0305470D01*
X0011325Y0304754D01*
X0011667Y0304083D01*
X0012110Y0303474D01*
X0012642Y0302941D01*
X0013252Y0302499D01*
X0013923Y0302157D01*
X0014639Y0301924D01*
X0015383Y0301806D01*
X0018559Y0301806D01*
X0021736Y0301806D01*
X0022479Y0301924D01*
X0023196Y0302157D01*
X0023867Y0302499D01*
X0024476Y0302941D01*
X0025008Y0303474D01*
X0025451Y0304083D01*
X0025793Y0304754D01*
X0026025Y0305470D01*
X0026143Y0306214D01*
X0026143Y0306590D01*
X0018559Y0306590D01*
X0018559Y0306591D01*
X0018634Y0306207D01*
X0018634Y0296757D01*
X0018559Y0296591D01*
X0018559Y0301375D01*
X0015383Y0301375D01*
X0014639Y0301257D01*
X0013923Y0301024D01*
X0013252Y0300682D01*
X0012642Y0300240D01*
X0012110Y0299707D01*
X0011667Y0299098D01*
X0011325Y0298427D01*
X0011093Y0297711D01*
X0010975Y0296967D01*
X0010975Y0296591D01*
X0018559Y0296591D01*
X0018559Y0296591D01*
X0018559Y0301375D01*
X0021736Y0301375D01*
X0022479Y0301257D01*
X0023196Y0301024D01*
X0023867Y0300682D01*
X0024476Y0300240D01*
X0025008Y0299707D01*
X0025451Y0299098D01*
X0025793Y0298427D01*
X0026025Y0297711D01*
X0026143Y0296967D01*
X0026143Y0296591D01*
X0018559Y0296591D01*
X0018559Y0296590D01*
X0018559Y0291806D01*
X0018559Y0296590D01*
X0018559Y0296590D01*
X0010975Y0296590D01*
X0010975Y0296214D01*
X0011093Y0295470D01*
X0011325Y0294754D01*
X0011667Y0294083D01*
X0012110Y0293474D01*
X0012642Y0292941D01*
X0013252Y0292499D01*
X0013923Y0292157D01*
X0014639Y0291924D01*
X0015383Y0291806D01*
X0018559Y0291806D01*
X0021736Y0291806D01*
X0022479Y0291924D01*
X0023196Y0292157D01*
X0023867Y0292499D01*
X0024476Y0292941D01*
X0025008Y0293474D01*
X0025451Y0294083D01*
X0025793Y0294754D01*
X0026025Y0295470D01*
X0026143Y0296214D01*
X0026143Y0296590D01*
X0018559Y0296590D01*
X0018559Y0296591D01*
X0018559Y0296326D02*
X0018559Y0296326D01*
X0018559Y0294359D02*
X0018559Y0294359D01*
X0018559Y0292392D02*
X0018559Y0292392D01*
X0018559Y0298293D02*
X0018559Y0298293D01*
X0018559Y0300260D02*
X0018559Y0300260D01*
X0018559Y0302227D02*
X0018559Y0302227D01*
X0018559Y0304194D02*
X0018559Y0304194D01*
X0018559Y0306161D02*
X0018559Y0306161D01*
X0018559Y0308128D02*
X0018559Y0308128D01*
X0018559Y0310095D02*
X0018559Y0310095D01*
X0012498Y0310095D02*
X0006968Y0310095D01*
X0006968Y0308128D02*
X0011228Y0308128D01*
X0010983Y0306161D02*
X0006968Y0306161D01*
X0006968Y0304194D02*
X0011610Y0304194D01*
X0013784Y0302227D02*
X0006968Y0302227D01*
X0006968Y0300260D02*
X0012671Y0300260D01*
X0011282Y0298293D02*
X0006968Y0298293D01*
X0006968Y0296326D02*
X0010975Y0296326D01*
X0011526Y0294359D02*
X0006968Y0294359D01*
X0006968Y0292392D02*
X0013460Y0292392D01*
X0014847Y0291175D02*
X0013162Y0290477D01*
X0011873Y0289187D01*
X0011175Y0287502D01*
X0011175Y0285679D01*
X0011873Y0283994D01*
X0013162Y0282704D01*
X0014847Y0282006D01*
X0019120Y0282006D01*
X0034166Y0266960D01*
X0035184Y0266539D01*
X0048119Y0266539D01*
X0050168Y0264490D01*
X0053800Y0264490D01*
X0056368Y0267058D01*
X0056368Y0270690D01*
X0053800Y0273258D01*
X0050168Y0273258D01*
X0048986Y0272076D01*
X0036881Y0272076D01*
X0025104Y0283852D01*
X0025245Y0283994D01*
X0025943Y0285679D01*
X0025943Y0287502D01*
X0025245Y0289187D01*
X0023956Y0290477D01*
X0022271Y0291175D01*
X0014847Y0291175D01*
X0013111Y0290425D02*
X0006968Y0290425D01*
X0006968Y0288458D02*
X0011571Y0288458D01*
X0011175Y0286491D02*
X0006968Y0286491D01*
X0006968Y0284524D02*
X0011653Y0284524D01*
X0013517Y0282557D02*
X0006968Y0282557D01*
X0006968Y0280590D02*
X0020536Y0280590D01*
X0022503Y0278623D02*
X0006968Y0278623D01*
X0006968Y0276656D02*
X0024470Y0276656D01*
X0026437Y0274689D02*
X0006968Y0274689D01*
X0006968Y0272722D02*
X0028404Y0272722D01*
X0030371Y0270755D02*
X0006968Y0270755D01*
X0006968Y0268788D02*
X0032338Y0268788D01*
X0034501Y0266821D02*
X0006968Y0266821D01*
X0006968Y0264854D02*
X0049804Y0264854D01*
X0051984Y0268874D02*
X0051934Y0269307D01*
X0035734Y0269307D01*
X0018634Y0286407D01*
X0018559Y0286591D01*
X0024007Y0290425D02*
X0073115Y0290425D01*
X0072400Y0289710D02*
X0072400Y0287811D01*
X0072400Y0285912D01*
X0075085Y0283227D01*
X0076984Y0283227D01*
X0076984Y0287811D01*
X0072400Y0287811D01*
X0076984Y0287811D01*
X0076984Y0287811D01*
X0076984Y0287811D01*
X0076984Y0292395D01*
X0075085Y0292395D01*
X0072400Y0289710D01*
X0072400Y0288458D02*
X0025547Y0288458D01*
X0025943Y0286491D02*
X0072400Y0286491D01*
X0073788Y0284524D02*
X0025465Y0284524D01*
X0026399Y0282557D02*
X0049467Y0282557D01*
X0050168Y0283258D02*
X0047600Y0280690D01*
X0047600Y0277058D01*
X0050168Y0274490D01*
X0053800Y0274490D01*
X0055068Y0275758D01*
X0072600Y0258226D01*
X0072600Y0255995D01*
X0075028Y0253567D01*
X0066988Y0245526D01*
X0018534Y0245526D01*
X0017516Y0245104D01*
X0010853Y0238441D01*
X0010232Y0238441D01*
X0008841Y0237865D01*
X0007776Y0236801D01*
X0007200Y0235410D01*
X0007200Y0233904D01*
X0007776Y0232513D01*
X0008841Y0231449D01*
X0009138Y0231326D01*
X0008637Y0230825D01*
X0008216Y0229808D01*
X0008216Y0210706D01*
X0008637Y0209689D01*
X0009416Y0208910D01*
X0014966Y0203360D01*
X0014966Y0160348D01*
X0014335Y0160348D01*
X0012650Y0159650D01*
X0011361Y0158361D01*
X0010663Y0156676D01*
X0010663Y0155901D01*
X0006968Y0152207D01*
X0006968Y0336676D01*
X0009440Y0335249D01*
X0012310Y0334480D01*
X0015281Y0334480D01*
X0018151Y0335249D01*
X0020723Y0336735D01*
X0022824Y0338836D01*
X0024310Y0341409D01*
X0025079Y0344278D01*
X0025079Y0347249D01*
X0024310Y0350119D01*
X0024178Y0350346D01*
X0160892Y0350346D01*
X0160761Y0350119D01*
X0159992Y0347249D01*
X0159992Y0344278D01*
X0160761Y0341409D01*
X0162247Y0338836D01*
X0164347Y0336735D01*
X0166920Y0335249D01*
X0169790Y0334480D01*
X0172761Y0334480D01*
X0175631Y0335249D01*
X0178204Y0336735D01*
X0180305Y0338836D01*
X0181488Y0340886D01*
X0181488Y0063584D01*
X0181181Y0064325D01*
X0172181Y0073325D01*
X0172181Y0073325D01*
X0171402Y0074104D01*
X0170385Y0074526D01*
X0158327Y0074526D01*
X0156853Y0076000D01*
X0156853Y0083096D01*
X0158064Y0080172D01*
X0160684Y0077552D01*
X0164108Y0076134D01*
X0167813Y0076134D01*
X0171237Y0077552D01*
X0173857Y0080172D01*
X0175276Y0083596D01*
X0175276Y0087302D01*
X0173857Y0090725D01*
X0171237Y0093346D01*
X0167813Y0094764D01*
X0164108Y0094764D01*
X0160684Y0093346D01*
X0158064Y0090725D01*
X0156853Y0087802D01*
X0156853Y0092108D01*
X0156431Y0093125D01*
X0140672Y0108885D01*
X0156607Y0108885D01*
X0156618Y0108890D01*
X0157551Y0108890D01*
X0159459Y0109584D01*
X0159835Y0109685D01*
X0160003Y0109782D01*
X0161191Y0110215D01*
X0162159Y0111027D01*
X0162328Y0111124D01*
X0162603Y0111399D01*
X0164158Y0112705D01*
X0166095Y0116059D01*
X0166448Y0118059D01*
X0166548Y0118434D01*
X0166548Y0118629D01*
X0166768Y0119874D01*
X0166548Y0121119D01*
X0166548Y0121314D01*
X0166448Y0121689D01*
X0166095Y0123689D01*
X0164158Y0127043D01*
X0162603Y0128349D01*
X0162328Y0128624D01*
X0162159Y0128721D01*
X0161191Y0129533D01*
X0161191Y0129533D01*
X0160003Y0129966D01*
X0159835Y0130063D01*
X0159459Y0130164D01*
X0157551Y0130858D01*
X0156618Y0130858D01*
X0156607Y0130863D01*
X0140622Y0130863D01*
X0140610Y0130858D01*
X0139677Y0130858D01*
X0137769Y0130164D01*
X0137394Y0130063D01*
X0137225Y0129966D01*
X0136037Y0129533D01*
X0135069Y0128721D01*
X0134900Y0128624D01*
X0134626Y0128349D01*
X0133070Y0127043D01*
X0133003Y0126927D01*
X0133003Y0143060D01*
X0140632Y0150690D01*
X0147645Y0150690D01*
X0149734Y0151555D01*
X0151333Y0153154D01*
X0152198Y0155243D01*
X0152198Y0157505D01*
X0151333Y0159594D01*
X0149734Y0161193D01*
X0147645Y0162058D01*
X0137584Y0162058D01*
X0135494Y0161193D01*
X0133895Y0159594D01*
X0133030Y0157505D01*
X0133030Y0155243D01*
X0133895Y0153154D01*
X0134581Y0152469D01*
X0132269Y0150157D01*
X0132254Y0150252D01*
X0131967Y0151133D01*
X0131547Y0151958D01*
X0131002Y0152707D01*
X0130348Y0153362D01*
X0129598Y0153907D01*
X0128773Y0154327D01*
X0127892Y0154613D01*
X0126977Y0154758D01*
X0122930Y0154758D01*
X0122930Y0149190D01*
X0122298Y0149190D01*
X0122298Y0148558D01*
X0112830Y0148558D01*
X0112830Y0148411D01*
X0112975Y0147496D01*
X0113261Y0146615D01*
X0113682Y0145790D01*
X0114226Y0145041D01*
X0114881Y0144386D01*
X0115630Y0143841D01*
X0116455Y0143421D01*
X0117336Y0143135D01*
X0118251Y0142990D01*
X0122298Y0142990D01*
X0122298Y0148558D01*
X0122930Y0148558D01*
X0122930Y0142990D01*
X0126977Y0142990D01*
X0127466Y0143067D01*
X0127466Y0114856D01*
X0127887Y0113839D01*
X0128666Y0113060D01*
X0151316Y0090410D01*
X0151316Y0075869D01*
X0149594Y0074147D01*
X0149594Y0070373D01*
X0151840Y0068126D01*
X0149594Y0065879D01*
X0149594Y0062105D01*
X0151766Y0059933D01*
X0151766Y0059506D01*
X0152187Y0058489D01*
X0152364Y0058312D01*
X0152262Y0058312D01*
X0150026Y0056076D01*
X0148863Y0056076D01*
X0148863Y0058005D01*
X0146954Y0059914D01*
X0149063Y0062022D01*
X0149063Y0063992D01*
X0144307Y0063992D01*
X0139551Y0063992D01*
X0139551Y0062022D01*
X0141660Y0059914D01*
X0140972Y0059226D01*
X0139931Y0059226D01*
X0129268Y0069889D01*
X0140235Y0069889D01*
X0141857Y0068267D01*
X0139551Y0065962D01*
X0139551Y0063992D01*
X0144307Y0063992D01*
X0144307Y0063992D01*
X0144307Y0063992D01*
X0149063Y0063992D01*
X0149063Y0065962D01*
X0146758Y0068267D01*
X0148863Y0070373D01*
X0148863Y0074147D01*
X0146194Y0076816D01*
X0142420Y0076816D01*
X0141030Y0075426D01*
X0127781Y0075426D01*
X0056081Y0147125D01*
X0055302Y0147904D01*
X0054285Y0148326D01*
X0045253Y0148326D01*
X0045253Y0201536D01*
X0045411Y0201719D01*
X0094481Y0250789D01*
X0113840Y0250789D01*
X0113895Y0250654D01*
X0115494Y0249055D01*
X0117584Y0248190D01*
X0127645Y0248190D01*
X0129734Y0249055D01*
X0131333Y0250654D01*
X0132198Y0252743D01*
X0132198Y0255005D01*
X0131333Y0257094D01*
X0129734Y0258693D01*
X0127645Y0259558D01*
X0117584Y0259558D01*
X0115494Y0258693D01*
X0113895Y0257094D01*
X0113577Y0256326D01*
X0092784Y0256326D01*
X0091766Y0255904D01*
X0042709Y0206847D01*
X0038597Y0210959D01*
X0039240Y0211602D01*
X0039240Y0216146D01*
X0036512Y0218874D01*
X0039240Y0221602D01*
X0039240Y0225698D01*
X0041681Y0228139D01*
X0042103Y0229156D01*
X0042103Y0237008D01*
X0041681Y0238025D01*
X0040902Y0238804D01*
X0039718Y0239989D01*
X0068685Y0239989D01*
X0069702Y0240410D01*
X0101231Y0271939D01*
X0113672Y0271939D01*
X0113261Y0271133D01*
X0112975Y0270252D01*
X0112830Y0269337D01*
X0112830Y0269190D01*
X0122298Y0269190D01*
X0122298Y0268558D01*
X0112830Y0268558D01*
X0112830Y0268411D01*
X0112975Y0267496D01*
X0113261Y0266615D01*
X0113682Y0265790D01*
X0114226Y0265041D01*
X0114881Y0264386D01*
X0115630Y0263841D01*
X0116455Y0263421D01*
X0117336Y0263135D01*
X0118251Y0262990D01*
X0122298Y0262990D01*
X0122298Y0268558D01*
X0122930Y0268558D01*
X0122930Y0262990D01*
X0126977Y0262990D01*
X0127892Y0263135D01*
X0128773Y0263421D01*
X0129598Y0263841D01*
X0130348Y0264386D01*
X0131002Y0265041D01*
X0131547Y0265790D01*
X0131967Y0266615D01*
X0132254Y0267496D01*
X0132305Y0267821D01*
X0134714Y0265412D01*
X0133895Y0264594D01*
X0133030Y0262505D01*
X0133030Y0260243D01*
X0133895Y0258154D01*
X0135494Y0256555D01*
X0137584Y0255690D01*
X0147645Y0255690D01*
X0149734Y0256555D01*
X0151333Y0258154D01*
X0152198Y0260243D01*
X0152198Y0262505D01*
X0151333Y0264594D01*
X0149734Y0266193D01*
X0147645Y0267058D01*
X0140898Y0267058D01*
X0137315Y0270642D01*
X0137336Y0270635D01*
X0138251Y0270490D01*
X0142298Y0270490D01*
X0142298Y0276058D01*
X0132830Y0276058D01*
X0132830Y0275911D01*
X0132975Y0274996D01*
X0132982Y0274975D01*
X0131681Y0276275D01*
X0130902Y0277054D01*
X0129885Y0277476D01*
X0099534Y0277476D01*
X0098516Y0277054D01*
X0081229Y0259767D01*
X0078800Y0262195D01*
X0076461Y0262195D01*
X0057552Y0281104D01*
X0056535Y0281526D01*
X0055533Y0281526D01*
X0053800Y0283258D01*
X0050168Y0283258D01*
X0052384Y0278757D02*
X0055984Y0278757D01*
X0076684Y0258057D01*
X0073576Y0255019D02*
X0006968Y0255019D01*
X0006968Y0253052D02*
X0074514Y0253052D01*
X0072547Y0251085D02*
X0006968Y0251085D01*
X0006968Y0249118D02*
X0070580Y0249118D01*
X0068613Y0247151D02*
X0006968Y0247151D01*
X0006968Y0245184D02*
X0017709Y0245184D01*
X0019084Y0242757D02*
X0010984Y0234657D01*
X0008291Y0237316D02*
X0006968Y0237316D01*
X0006968Y0239283D02*
X0011695Y0239283D01*
X0013662Y0241250D02*
X0006968Y0241250D01*
X0006968Y0243217D02*
X0015629Y0243217D01*
X0019084Y0242757D02*
X0068134Y0242757D01*
X0100084Y0274707D01*
X0129334Y0274707D01*
X0142384Y0261657D01*
X0142614Y0261374D01*
X0148217Y0266821D02*
X0181488Y0266821D01*
X0181488Y0264854D02*
X0151073Y0264854D01*
X0152040Y0262887D02*
X0181488Y0262887D01*
X0181488Y0260920D02*
X0152198Y0260920D01*
X0151664Y0258953D02*
X0181488Y0258953D01*
X0181488Y0256986D02*
X0150165Y0256986D01*
X0147645Y0252058D02*
X0137584Y0252058D01*
X0135494Y0251193D01*
X0133895Y0249594D01*
X0133030Y0247505D01*
X0133030Y0245243D01*
X0133895Y0243154D01*
X0135494Y0241555D01*
X0137584Y0240690D01*
X0147645Y0240690D01*
X0149734Y0241555D01*
X0151333Y0243154D01*
X0152198Y0245243D01*
X0152198Y0247505D01*
X0151333Y0249594D01*
X0149734Y0251193D01*
X0147645Y0252058D01*
X0149842Y0251085D02*
X0181488Y0251085D01*
X0181488Y0249118D02*
X0151530Y0249118D01*
X0152198Y0247151D02*
X0181488Y0247151D01*
X0181488Y0245184D02*
X0152174Y0245184D01*
X0151359Y0243217D02*
X0181488Y0243217D01*
X0181488Y0241250D02*
X0148997Y0241250D01*
X0147645Y0237058D02*
X0137584Y0237058D01*
X0135494Y0236193D01*
X0133895Y0234594D01*
X0133030Y0232505D01*
X0133030Y0230243D01*
X0133895Y0228154D01*
X0135494Y0226555D01*
X0137584Y0225690D01*
X0147645Y0225690D01*
X0149734Y0226555D01*
X0151333Y0228154D01*
X0152198Y0230243D01*
X0152198Y0232505D01*
X0151333Y0234594D01*
X0149734Y0236193D01*
X0147645Y0237058D01*
X0150578Y0235349D02*
X0181488Y0235349D01*
X0181488Y0237316D02*
X0132195Y0237316D01*
X0132254Y0237496D02*
X0132398Y0238411D01*
X0132398Y0238558D01*
X0122930Y0238558D01*
X0122930Y0232990D01*
X0126977Y0232990D01*
X0127892Y0233135D01*
X0128773Y0233421D01*
X0129598Y0233841D01*
X0130348Y0234386D01*
X0131002Y0235041D01*
X0131547Y0235790D01*
X0131967Y0236615D01*
X0132254Y0237496D01*
X0132398Y0239190D02*
X0132398Y0239337D01*
X0132254Y0240252D01*
X0131967Y0241133D01*
X0131547Y0241958D01*
X0131002Y0242707D01*
X0130348Y0243362D01*
X0129598Y0243907D01*
X0128773Y0244327D01*
X0127892Y0244613D01*
X0126977Y0244758D01*
X0122930Y0244758D01*
X0122930Y0239190D01*
X0122298Y0239190D01*
X0122298Y0238558D01*
X0112830Y0238558D01*
X0112830Y0238411D01*
X0112975Y0237496D01*
X0113261Y0236615D01*
X0113682Y0235790D01*
X0114226Y0235041D01*
X0114881Y0234386D01*
X0115630Y0233841D01*
X0116455Y0233421D01*
X0117336Y0233135D01*
X0118251Y0232990D01*
X0122298Y0232990D01*
X0122298Y0238558D01*
X0122930Y0238558D01*
X0122930Y0239190D01*
X0132398Y0239190D01*
X0132398Y0239283D02*
X0181488Y0239283D01*
X0181488Y0233382D02*
X0151835Y0233382D01*
X0152198Y0231415D02*
X0181488Y0231415D01*
X0181488Y0229448D02*
X0151869Y0229448D01*
X0150660Y0227481D02*
X0181488Y0227481D01*
X0181488Y0225514D02*
X0131988Y0225514D01*
X0132198Y0225005D02*
X0131333Y0227094D01*
X0129734Y0228693D01*
X0127645Y0229558D01*
X0117584Y0229558D01*
X0115494Y0228693D01*
X0113895Y0227094D01*
X0113030Y0225005D01*
X0113030Y0222743D01*
X0113895Y0220654D01*
X0115494Y0219055D01*
X0117584Y0218190D01*
X0127645Y0218190D01*
X0129734Y0219055D01*
X0131333Y0220654D01*
X0132198Y0222743D01*
X0132198Y0225005D01*
X0132484Y0226107D02*
X0132484Y0218457D01*
X0123484Y0209457D01*
X0122614Y0208874D01*
X0123034Y0208557D01*
X0123034Y0205407D01*
X0132484Y0195957D01*
X0132484Y0188757D01*
X0123484Y0179757D01*
X0122614Y0178874D01*
X0123034Y0178857D01*
X0136534Y0165357D01*
X0123034Y0151857D01*
X0123034Y0149157D01*
X0122614Y0148874D01*
X0122298Y0148800D02*
X0045253Y0148800D01*
X0045253Y0150767D02*
X0113142Y0150767D01*
X0113261Y0151133D02*
X0112975Y0150252D01*
X0112830Y0149337D01*
X0112830Y0149190D01*
X0122298Y0149190D01*
X0122298Y0154758D01*
X0118251Y0154758D01*
X0117336Y0154613D01*
X0116455Y0154327D01*
X0115630Y0153907D01*
X0114881Y0153362D01*
X0114226Y0152707D01*
X0113682Y0151958D01*
X0113261Y0151133D01*
X0114253Y0152734D02*
X0045253Y0152734D01*
X0045253Y0154701D02*
X0117891Y0154701D01*
X0117584Y0158190D02*
X0115494Y0159055D01*
X0113895Y0160654D01*
X0113030Y0162743D01*
X0113030Y0165005D01*
X0113895Y0167094D01*
X0115494Y0168693D01*
X0117584Y0169558D01*
X0127645Y0169558D01*
X0129734Y0168693D01*
X0131333Y0167094D01*
X0132198Y0165005D01*
X0132198Y0162743D01*
X0131333Y0160654D01*
X0129734Y0159055D01*
X0127645Y0158190D01*
X0117584Y0158190D01*
X0116508Y0158635D02*
X0045253Y0158635D01*
X0045253Y0156668D02*
X0133030Y0156668D01*
X0133254Y0154701D02*
X0127337Y0154701D01*
X0130975Y0152734D02*
X0134315Y0152734D01*
X0132879Y0150767D02*
X0132086Y0150767D01*
X0131302Y0149190D02*
X0130670Y0148558D01*
X0122930Y0148558D01*
X0122930Y0149190D01*
X0131302Y0149190D01*
X0130912Y0148800D02*
X0122930Y0148800D01*
X0122930Y0146833D02*
X0122298Y0146833D01*
X0122298Y0144866D02*
X0122930Y0144866D01*
X0122930Y0150767D02*
X0122298Y0150767D01*
X0122298Y0152734D02*
X0122930Y0152734D01*
X0122930Y0154701D02*
X0122298Y0154701D01*
X0128720Y0158635D02*
X0133498Y0158635D01*
X0134904Y0160602D02*
X0131281Y0160602D01*
X0132126Y0162569D02*
X0181488Y0162569D01*
X0181488Y0160602D02*
X0150325Y0160602D01*
X0151730Y0158635D02*
X0181488Y0158635D01*
X0181488Y0156668D02*
X0152198Y0156668D01*
X0151974Y0154701D02*
X0181488Y0154701D01*
X0181488Y0152734D02*
X0150913Y0152734D01*
X0147832Y0150767D02*
X0181488Y0150767D01*
X0181488Y0148800D02*
X0138743Y0148800D01*
X0136776Y0146833D02*
X0181488Y0146833D01*
X0181488Y0144866D02*
X0134809Y0144866D01*
X0133003Y0142899D02*
X0181488Y0142899D01*
X0181488Y0140932D02*
X0133003Y0140932D01*
X0133003Y0138965D02*
X0181488Y0138965D01*
X0181488Y0136998D02*
X0133003Y0136998D01*
X0133003Y0135031D02*
X0181488Y0135031D01*
X0181488Y0133064D02*
X0133003Y0133064D01*
X0133003Y0131097D02*
X0181488Y0131097D01*
X0181488Y0129130D02*
X0161672Y0129130D01*
X0164016Y0127163D02*
X0181488Y0127163D01*
X0181488Y0125196D02*
X0165225Y0125196D01*
X0166095Y0123689D02*
X0166095Y0123689D01*
X0166176Y0123229D02*
X0181488Y0123229D01*
X0181488Y0121262D02*
X0166548Y0121262D01*
X0166768Y0119874D02*
X0166768Y0119874D01*
X0166666Y0119295D02*
X0181488Y0119295D01*
X0181488Y0117328D02*
X0166319Y0117328D01*
X0166095Y0116059D02*
X0166095Y0116059D01*
X0165692Y0115361D02*
X0181488Y0115361D01*
X0181488Y0113394D02*
X0164556Y0113394D01*
X0164158Y0112705D02*
X0164158Y0112705D01*
X0164158Y0112705D01*
X0162636Y0111427D02*
X0181488Y0111427D01*
X0181488Y0109460D02*
X0159118Y0109460D01*
X0161191Y0110215D02*
X0161191Y0110215D01*
X0153866Y0095691D02*
X0181488Y0095691D01*
X0181488Y0097658D02*
X0151899Y0097658D01*
X0149932Y0099625D02*
X0181488Y0099625D01*
X0181488Y0101592D02*
X0147965Y0101592D01*
X0145998Y0103559D02*
X0181488Y0103559D01*
X0181488Y0105526D02*
X0144031Y0105526D01*
X0142064Y0107493D02*
X0181488Y0107493D01*
X0181488Y0093724D02*
X0170324Y0093724D01*
X0172826Y0091757D02*
X0181488Y0091757D01*
X0181488Y0089790D02*
X0174245Y0089790D01*
X0175060Y0087823D02*
X0181488Y0087823D01*
X0181488Y0085856D02*
X0175276Y0085856D01*
X0175276Y0083889D02*
X0181488Y0083889D01*
X0181488Y0081922D02*
X0174582Y0081922D01*
X0173640Y0079955D02*
X0181488Y0079955D01*
X0181488Y0077988D02*
X0171673Y0077988D01*
X0171453Y0074054D02*
X0181488Y0074054D01*
X0181488Y0076021D02*
X0156853Y0076021D01*
X0156853Y0077988D02*
X0160248Y0077988D01*
X0158281Y0079955D02*
X0156853Y0079955D01*
X0156853Y0081922D02*
X0157339Y0081922D01*
X0156853Y0087823D02*
X0156862Y0087823D01*
X0156853Y0089790D02*
X0157676Y0089790D01*
X0156853Y0091757D02*
X0159095Y0091757D01*
X0161597Y0093724D02*
X0155833Y0093724D01*
X0154084Y0091557D02*
X0130234Y0115407D01*
X0130234Y0144207D01*
X0142384Y0156357D01*
X0142614Y0156374D01*
X0142298Y0165490D02*
X0138251Y0165490D01*
X0137336Y0165635D01*
X0136455Y0165921D01*
X0135630Y0166341D01*
X0134881Y0166886D01*
X0134226Y0167541D01*
X0133682Y0168290D01*
X0133261Y0169115D01*
X0132975Y0169996D01*
X0132830Y0170911D01*
X0132830Y0171058D01*
X0142298Y0171058D01*
X0142298Y0171690D01*
X0132830Y0171690D01*
X0132830Y0171837D01*
X0132975Y0172752D01*
X0133261Y0173633D01*
X0133682Y0174458D01*
X0134226Y0175207D01*
X0134881Y0175862D01*
X0135630Y0176407D01*
X0136455Y0176827D01*
X0137336Y0177113D01*
X0138251Y0177258D01*
X0142298Y0177258D01*
X0142298Y0171690D01*
X0142930Y0171690D01*
X0142930Y0177258D01*
X0146977Y0177258D01*
X0147892Y0177113D01*
X0148773Y0176827D01*
X0149598Y0176407D01*
X0150348Y0175862D01*
X0151002Y0175207D01*
X0151547Y0174458D01*
X0151967Y0173633D01*
X0152254Y0172752D01*
X0152398Y0171837D01*
X0152398Y0171690D01*
X0142930Y0171690D01*
X0142930Y0171058D01*
X0142930Y0165490D01*
X0146977Y0165490D01*
X0147892Y0165635D01*
X0148773Y0165921D01*
X0149598Y0166341D01*
X0150348Y0166886D01*
X0151002Y0167541D01*
X0151547Y0168290D01*
X0151967Y0169115D01*
X0152254Y0169996D01*
X0152398Y0170911D01*
X0152398Y0171058D01*
X0142930Y0171058D01*
X0142298Y0171058D01*
X0142298Y0165490D01*
X0142298Y0166503D02*
X0142930Y0166503D01*
X0142930Y0168470D02*
X0142298Y0168470D01*
X0142298Y0170437D02*
X0142930Y0170437D01*
X0142384Y0171207D02*
X0142614Y0171374D01*
X0142384Y0171207D02*
X0136534Y0165357D01*
X0135407Y0166503D02*
X0131578Y0166503D01*
X0132198Y0164536D02*
X0181488Y0164536D01*
X0181488Y0166503D02*
X0149821Y0166503D01*
X0151639Y0168470D02*
X0181488Y0168470D01*
X0181488Y0170437D02*
X0152323Y0170437D01*
X0152309Y0172404D02*
X0181488Y0172404D01*
X0181488Y0174371D02*
X0151591Y0174371D01*
X0149692Y0176338D02*
X0181488Y0176338D01*
X0181488Y0178305D02*
X0132382Y0178305D01*
X0132398Y0178411D02*
X0132398Y0178558D01*
X0122930Y0178558D01*
X0122930Y0172990D01*
X0126977Y0172990D01*
X0127892Y0173135D01*
X0128773Y0173421D01*
X0129598Y0173841D01*
X0130348Y0174386D01*
X0131002Y0175041D01*
X0131547Y0175790D01*
X0131967Y0176615D01*
X0132254Y0177496D01*
X0132398Y0178411D01*
X0132398Y0179190D02*
X0132398Y0179337D01*
X0132254Y0180252D01*
X0131967Y0181133D01*
X0131547Y0181958D01*
X0131002Y0182707D01*
X0130348Y0183362D01*
X0129598Y0183907D01*
X0128773Y0184327D01*
X0127892Y0184613D01*
X0126977Y0184758D01*
X0122930Y0184758D01*
X0122930Y0179190D01*
X0122298Y0179190D01*
X0122298Y0178558D01*
X0112830Y0178558D01*
X0112830Y0178411D01*
X0112975Y0177496D01*
X0113261Y0176615D01*
X0113682Y0175790D01*
X0114226Y0175041D01*
X0114881Y0174386D01*
X0115630Y0173841D01*
X0116455Y0173421D01*
X0117336Y0173135D01*
X0118251Y0172990D01*
X0122298Y0172990D01*
X0122298Y0178558D01*
X0122930Y0178558D01*
X0122930Y0179190D01*
X0132398Y0179190D01*
X0132247Y0180272D02*
X0181488Y0180272D01*
X0181488Y0182240D02*
X0150418Y0182240D01*
X0149734Y0181555D02*
X0151333Y0183154D01*
X0152198Y0185243D01*
X0152198Y0187505D01*
X0151333Y0189594D01*
X0149734Y0191193D01*
X0147645Y0192058D01*
X0137584Y0192058D01*
X0135494Y0191193D01*
X0133895Y0189594D01*
X0133030Y0187505D01*
X0133030Y0185243D01*
X0133895Y0183154D01*
X0135494Y0181555D01*
X0137584Y0180690D01*
X0147645Y0180690D01*
X0149734Y0181555D01*
X0151769Y0184207D02*
X0181488Y0184207D01*
X0181488Y0186174D02*
X0152198Y0186174D01*
X0151935Y0188141D02*
X0181488Y0188141D01*
X0181488Y0190108D02*
X0150819Y0190108D01*
X0148415Y0196009D02*
X0181488Y0196009D01*
X0181488Y0197976D02*
X0151155Y0197976D01*
X0151333Y0198154D02*
X0152198Y0200243D01*
X0152198Y0202505D01*
X0151333Y0204594D01*
X0149734Y0206193D01*
X0147645Y0207058D01*
X0137584Y0207058D01*
X0135494Y0206193D01*
X0133895Y0204594D01*
X0133030Y0202505D01*
X0133030Y0200243D01*
X0133895Y0198154D01*
X0135494Y0196555D01*
X0137584Y0195690D01*
X0147645Y0195690D01*
X0149734Y0196555D01*
X0151333Y0198154D01*
X0152074Y0199943D02*
X0181488Y0199943D01*
X0181488Y0201910D02*
X0152198Y0201910D01*
X0151630Y0203877D02*
X0181488Y0203877D01*
X0181488Y0205844D02*
X0150083Y0205844D01*
X0147645Y0210690D02*
X0149734Y0211555D01*
X0151333Y0213154D01*
X0152198Y0215243D01*
X0152198Y0217505D01*
X0151333Y0219594D01*
X0149734Y0221193D01*
X0147645Y0222058D01*
X0137584Y0222058D01*
X0135494Y0221193D01*
X0133895Y0219594D01*
X0133030Y0217505D01*
X0133030Y0215243D01*
X0133895Y0213154D01*
X0135494Y0211555D01*
X0137584Y0210690D01*
X0147645Y0210690D01*
X0149924Y0211745D02*
X0181488Y0211745D01*
X0181488Y0213712D02*
X0151564Y0213712D01*
X0152198Y0215679D02*
X0181488Y0215679D01*
X0181488Y0217646D02*
X0152140Y0217646D01*
X0151314Y0219613D02*
X0181488Y0219613D01*
X0181488Y0221580D02*
X0148800Y0221580D01*
X0136428Y0221580D02*
X0131716Y0221580D01*
X0132198Y0223547D02*
X0181488Y0223547D01*
X0181488Y0209778D02*
X0132329Y0209778D01*
X0132398Y0209337D02*
X0132254Y0210252D01*
X0131967Y0211133D01*
X0131547Y0211958D01*
X0131002Y0212707D01*
X0130348Y0213362D01*
X0129598Y0213907D01*
X0128773Y0214327D01*
X0127892Y0214613D01*
X0126977Y0214758D01*
X0122930Y0214758D01*
X0122930Y0209190D01*
X0122298Y0209190D01*
X0122298Y0208558D01*
X0112830Y0208558D01*
X0112830Y0208411D01*
X0112975Y0207496D01*
X0113261Y0206615D01*
X0113682Y0205790D01*
X0114226Y0205041D01*
X0114881Y0204386D01*
X0115630Y0203841D01*
X0116455Y0203421D01*
X0117336Y0203135D01*
X0118251Y0202990D01*
X0122298Y0202990D01*
X0122298Y0208558D01*
X0122930Y0208558D01*
X0122930Y0202990D01*
X0126977Y0202990D01*
X0127892Y0203135D01*
X0128773Y0203421D01*
X0129598Y0203841D01*
X0130348Y0204386D01*
X0131002Y0205041D01*
X0131547Y0205790D01*
X0131967Y0206615D01*
X0132254Y0207496D01*
X0132398Y0208411D01*
X0132398Y0208558D01*
X0122930Y0208558D01*
X0122930Y0209190D01*
X0132398Y0209190D01*
X0132398Y0209337D01*
X0132303Y0207811D02*
X0181488Y0207811D01*
X0181488Y0194042D02*
X0132198Y0194042D01*
X0132198Y0195005D02*
X0131333Y0197094D01*
X0129734Y0198693D01*
X0127645Y0199558D01*
X0117584Y0199558D01*
X0115494Y0198693D01*
X0113895Y0197094D01*
X0113030Y0195005D01*
X0113030Y0192743D01*
X0113895Y0190654D01*
X0115494Y0189055D01*
X0117584Y0188190D01*
X0127645Y0188190D01*
X0129734Y0189055D01*
X0131333Y0190654D01*
X0132198Y0192743D01*
X0132198Y0195005D01*
X0131783Y0196009D02*
X0136814Y0196009D01*
X0134074Y0197976D02*
X0130451Y0197976D01*
X0133154Y0199943D02*
X0045253Y0199943D01*
X0045253Y0197976D02*
X0114777Y0197976D01*
X0113446Y0196009D02*
X0045253Y0196009D01*
X0045253Y0194042D02*
X0113030Y0194042D01*
X0113307Y0192075D02*
X0045253Y0192075D01*
X0045253Y0190108D02*
X0114442Y0190108D01*
X0116455Y0184327D02*
X0115630Y0183907D01*
X0114881Y0183362D01*
X0114226Y0182707D01*
X0113682Y0181958D01*
X0113261Y0181133D01*
X0112975Y0180252D01*
X0112830Y0179337D01*
X0112830Y0179190D01*
X0122298Y0179190D01*
X0122298Y0184758D01*
X0118251Y0184758D01*
X0117336Y0184613D01*
X0116455Y0184327D01*
X0116219Y0184207D02*
X0045253Y0184207D01*
X0045253Y0186174D02*
X0133030Y0186174D01*
X0133293Y0188141D02*
X0045253Y0188141D01*
X0045253Y0182240D02*
X0113886Y0182240D01*
X0112982Y0180272D02*
X0045253Y0180272D01*
X0045253Y0178305D02*
X0112847Y0178305D01*
X0113402Y0176338D02*
X0045253Y0176338D01*
X0045253Y0174371D02*
X0114901Y0174371D01*
X0115272Y0168470D02*
X0045253Y0168470D01*
X0045253Y0166503D02*
X0113651Y0166503D01*
X0113030Y0164536D02*
X0045253Y0164536D01*
X0045253Y0162569D02*
X0113102Y0162569D01*
X0113947Y0160602D02*
X0045253Y0160602D01*
X0045253Y0170437D02*
X0132905Y0170437D01*
X0132920Y0172404D02*
X0045253Y0172404D01*
X0036566Y0172404D02*
X0020503Y0172404D01*
X0020503Y0170437D02*
X0036566Y0170437D01*
X0036566Y0168470D02*
X0020503Y0168470D01*
X0020503Y0166503D02*
X0036566Y0166503D01*
X0036566Y0164536D02*
X0020503Y0164536D01*
X0020503Y0162569D02*
X0036566Y0162569D01*
X0036566Y0160602D02*
X0020503Y0160602D01*
X0020503Y0160348D02*
X0020503Y0189371D01*
X0021484Y0188390D01*
X0026028Y0188390D01*
X0028756Y0191118D01*
X0031484Y0188390D01*
X0036028Y0188390D01*
X0036566Y0188928D01*
X0036566Y0156943D01*
X0032899Y0153276D01*
X0024779Y0153276D01*
X0025431Y0154852D01*
X0025431Y0156676D01*
X0024734Y0158361D01*
X0023444Y0159650D01*
X0021759Y0160348D01*
X0020503Y0160348D01*
X0018047Y0155764D02*
X0016834Y0155457D01*
X0014134Y0155457D01*
X0007384Y0148707D01*
X0007384Y0065007D01*
X0042034Y0030357D01*
X0042034Y0015057D01*
X0042102Y0015055D01*
X0039266Y0020045D02*
X0036568Y0017347D01*
X0036568Y0012763D01*
X0039810Y0009521D01*
X0044395Y0009521D01*
X0047637Y0012763D01*
X0047637Y0017347D01*
X0044803Y0020181D01*
X0044803Y0030908D01*
X0044381Y0031925D01*
X0041266Y0035041D01*
X0045574Y0035041D01*
X0047186Y0035708D01*
X0048419Y0036942D01*
X0049087Y0038553D01*
X0049087Y0040297D01*
X0048419Y0041909D01*
X0047186Y0043142D01*
X0045574Y0043809D01*
X0038630Y0043809D01*
X0037019Y0043142D01*
X0035786Y0041909D01*
X0035379Y0040927D01*
X0010153Y0066154D01*
X0010153Y0140223D01*
X0011688Y0138688D01*
X0011361Y0138361D01*
X0010663Y0136676D01*
X0010663Y0134852D01*
X0011361Y0133167D01*
X0012650Y0131877D01*
X0014335Y0131180D01*
X0021759Y0131180D01*
X0023444Y0131877D01*
X0024455Y0132889D01*
X0058437Y0132889D01*
X0090701Y0100626D01*
X0024713Y0100626D01*
X0023444Y0101894D01*
X0021759Y0102592D01*
X0014335Y0102592D01*
X0012650Y0101894D01*
X0011361Y0100605D01*
X0010663Y0098920D01*
X0010663Y0097096D01*
X0011361Y0095411D01*
X0012650Y0094122D01*
X0014335Y0093424D01*
X0019286Y0093424D01*
X0018454Y0092592D01*
X0014335Y0092592D01*
X0012650Y0091894D01*
X0011361Y0090605D01*
X0010663Y0088920D01*
X0010663Y0087096D01*
X0011361Y0085411D01*
X0012650Y0084122D01*
X0014335Y0083424D01*
X0021759Y0083424D01*
X0023444Y0084122D01*
X0024734Y0085411D01*
X0025431Y0087096D01*
X0025431Y0088789D01*
X0041080Y0088789D01*
X0040505Y0088214D01*
X0040505Y0083629D01*
X0043747Y0080387D01*
X0046466Y0080387D01*
X0046466Y0073440D01*
X0045574Y0073809D01*
X0038630Y0073809D01*
X0037019Y0073142D01*
X0035786Y0071909D01*
X0035118Y0070297D01*
X0035118Y0068553D01*
X0035786Y0066942D01*
X0037019Y0065708D01*
X0038630Y0065041D01*
X0042653Y0065041D01*
X0041421Y0063809D01*
X0038630Y0063809D01*
X0037019Y0063142D01*
X0035786Y0061909D01*
X0035118Y0060297D01*
X0035118Y0058553D01*
X0035786Y0056942D01*
X0037019Y0055708D01*
X0038630Y0055041D01*
X0045574Y0055041D01*
X0047186Y0055708D01*
X0048419Y0056942D01*
X0049087Y0058553D01*
X0049087Y0060297D01*
X0048419Y0061909D01*
X0047885Y0062443D01*
X0050802Y0065360D01*
X0051581Y0066139D01*
X0052003Y0067156D01*
X0052003Y0077539D01*
X0079035Y0077539D01*
X0080052Y0077960D01*
X0080831Y0078739D01*
X0084131Y0082039D01*
X0085533Y0082039D01*
X0086782Y0080789D01*
X0090414Y0080789D01*
X0092983Y0083357D01*
X0092983Y0083493D01*
X0138116Y0038360D01*
X0139134Y0037939D01*
X0154151Y0037939D01*
X0153987Y0037775D01*
X0153566Y0036758D01*
X0153566Y0022730D01*
X0151854Y0023439D01*
X0149831Y0023439D01*
X0147963Y0022665D01*
X0147377Y0022080D01*
X0125502Y0043954D01*
X0124485Y0044376D01*
X0092289Y0044376D01*
X0090414Y0046250D01*
X0086782Y0046250D01*
X0084214Y0043682D01*
X0084214Y0040050D01*
X0086782Y0037482D01*
X0090414Y0037482D01*
X0091771Y0038839D01*
X0122787Y0038839D01*
X0145758Y0015868D01*
X0145758Y0013348D01*
X0142152Y0016954D01*
X0141135Y0017376D01*
X0140927Y0017376D01*
X0140927Y0019366D01*
X0140153Y0021235D01*
X0138723Y0022665D01*
X0136854Y0023439D01*
X0134831Y0023439D01*
X0132963Y0022665D01*
X0131532Y0021235D01*
X0130758Y0019366D01*
X0130758Y0010744D01*
X0131532Y0008875D01*
X0132963Y0007445D01*
X0134831Y0006671D01*
X0136854Y0006671D01*
X0138723Y0007445D01*
X0140153Y0008875D01*
X0140811Y0010465D01*
X0145292Y0005984D01*
X0023860Y0005984D01*
X0024310Y0006763D01*
X0025079Y0009633D01*
X0025079Y0012604D01*
X0024310Y0015473D01*
X0022824Y0018046D01*
X0020723Y0020147D01*
X0018151Y0021633D01*
X0015281Y0022402D01*
X0012310Y0022402D01*
X0009440Y0021633D01*
X0006968Y0020206D01*
X0006968Y0061508D01*
X0039266Y0029210D01*
X0039266Y0020045D01*
X0039266Y0020944D02*
X0019343Y0020944D01*
X0021893Y0018977D02*
X0038198Y0018977D01*
X0036568Y0017010D02*
X0023422Y0017010D01*
X0024425Y0015043D02*
X0036568Y0015043D01*
X0036568Y0013076D02*
X0024952Y0013076D01*
X0025079Y0011109D02*
X0038222Y0011109D01*
X0039266Y0022911D02*
X0006968Y0022911D01*
X0006968Y0020944D02*
X0008248Y0020944D01*
X0006968Y0024878D02*
X0039266Y0024878D01*
X0039266Y0026845D02*
X0006968Y0026845D01*
X0006968Y0028812D02*
X0039266Y0028812D01*
X0037697Y0030779D02*
X0006968Y0030779D01*
X0006968Y0032746D02*
X0035730Y0032746D01*
X0033763Y0034713D02*
X0006968Y0034713D01*
X0006968Y0036680D02*
X0031796Y0036680D01*
X0029829Y0038647D02*
X0006968Y0038647D01*
X0006968Y0040614D02*
X0027862Y0040614D01*
X0025895Y0042581D02*
X0006968Y0042581D01*
X0006968Y0044548D02*
X0023928Y0044548D01*
X0021961Y0046515D02*
X0006968Y0046515D01*
X0006968Y0048482D02*
X0019994Y0048482D01*
X0018027Y0050449D02*
X0006968Y0050449D01*
X0006968Y0052416D02*
X0016060Y0052416D01*
X0014093Y0054384D02*
X0006968Y0054384D01*
X0006968Y0056351D02*
X0012126Y0056351D01*
X0010159Y0058318D02*
X0006968Y0058318D01*
X0006968Y0060285D02*
X0008192Y0060285D01*
X0012088Y0064219D02*
X0041831Y0064219D01*
X0042484Y0060957D02*
X0049234Y0067707D01*
X0049234Y0080307D01*
X0078484Y0080307D01*
X0082984Y0084807D01*
X0088384Y0084807D01*
X0088598Y0085173D01*
X0085650Y0081922D02*
X0084014Y0081922D01*
X0082047Y0079955D02*
X0096521Y0079955D01*
X0094554Y0081922D02*
X0091547Y0081922D01*
X0088834Y0091557D02*
X0021334Y0091557D01*
X0018184Y0088407D01*
X0018047Y0088008D01*
X0022882Y0083889D02*
X0040505Y0083889D01*
X0040505Y0085856D02*
X0024918Y0085856D01*
X0025431Y0087823D02*
X0040505Y0087823D01*
X0046039Y0085921D02*
X0046084Y0085707D01*
X0049234Y0082557D01*
X0049234Y0080307D01*
X0046466Y0079955D02*
X0010153Y0079955D01*
X0010153Y0081922D02*
X0042212Y0081922D01*
X0046466Y0077988D02*
X0010153Y0077988D01*
X0010153Y0076021D02*
X0046466Y0076021D01*
X0046466Y0074054D02*
X0010153Y0074054D01*
X0010153Y0072087D02*
X0035964Y0072087D01*
X0035118Y0070120D02*
X0010153Y0070120D01*
X0010153Y0068153D02*
X0035284Y0068153D01*
X0036542Y0066186D02*
X0010153Y0066186D01*
X0014055Y0062252D02*
X0036128Y0062252D01*
X0035118Y0060285D02*
X0016022Y0060285D01*
X0017989Y0058318D02*
X0035216Y0058318D01*
X0036377Y0056351D02*
X0019956Y0056351D01*
X0021923Y0054384D02*
X0084014Y0054384D01*
X0084014Y0055173D02*
X0084014Y0053274D01*
X0086700Y0050589D01*
X0088598Y0050589D01*
X0088598Y0055173D01*
X0084014Y0055173D01*
X0088598Y0055173D01*
X0088598Y0055173D01*
X0088598Y0055173D01*
X0088598Y0050589D01*
X0090497Y0050589D01*
X0093183Y0053274D01*
X0093183Y0055173D01*
X0088599Y0055173D01*
X0088599Y0055173D01*
X0093183Y0055173D01*
X0093183Y0057072D01*
X0090497Y0059757D01*
X0088598Y0059757D01*
X0086700Y0059757D01*
X0084014Y0057072D01*
X0084014Y0055173D01*
X0084014Y0056351D02*
X0077828Y0056351D01*
X0078419Y0056942D02*
X0079087Y0058553D01*
X0079087Y0060297D01*
X0078419Y0061909D01*
X0077186Y0063142D01*
X0075574Y0063809D01*
X0068630Y0063809D01*
X0067019Y0063142D01*
X0065786Y0061909D01*
X0065118Y0060297D01*
X0065118Y0058553D01*
X0065786Y0056942D01*
X0067019Y0055708D01*
X0068630Y0055041D01*
X0075574Y0055041D01*
X0077186Y0055708D01*
X0078419Y0056942D01*
X0078989Y0058318D02*
X0085260Y0058318D01*
X0088598Y0058318D02*
X0088598Y0058318D01*
X0088598Y0059757D02*
X0088598Y0055173D01*
X0088598Y0059757D01*
X0088598Y0056351D02*
X0088598Y0056351D01*
X0088598Y0055173D02*
X0088598Y0055173D01*
X0088598Y0054384D02*
X0088598Y0054384D01*
X0088598Y0052416D02*
X0088598Y0052416D01*
X0084872Y0052416D02*
X0077911Y0052416D01*
X0078419Y0051909D02*
X0077186Y0053142D01*
X0075574Y0053809D01*
X0068630Y0053809D01*
X0067019Y0053142D01*
X0065786Y0051909D01*
X0065118Y0050297D01*
X0065118Y0048553D01*
X0065786Y0046942D01*
X0066320Y0046408D01*
X0063416Y0043504D01*
X0062637Y0042725D01*
X0062216Y0041708D01*
X0062216Y0021256D01*
X0062637Y0020239D01*
X0066568Y0016308D01*
X0066568Y0012763D01*
X0069810Y0009521D01*
X0074395Y0009521D01*
X0077637Y0012763D01*
X0077637Y0017347D01*
X0074395Y0020589D01*
X0070117Y0020589D01*
X0067753Y0022954D01*
X0067753Y0035404D01*
X0068630Y0035041D01*
X0069416Y0035041D01*
X0069416Y0027556D01*
X0069837Y0026539D01*
X0084214Y0012162D01*
X0084214Y0010050D01*
X0086782Y0007482D01*
X0090414Y0007482D01*
X0092983Y0010050D01*
X0092983Y0013682D01*
X0090414Y0016250D01*
X0087956Y0016250D01*
X0074953Y0029254D01*
X0074953Y0035041D01*
X0075574Y0035041D01*
X0077186Y0035708D01*
X0078419Y0036942D01*
X0079087Y0038553D01*
X0079087Y0040297D01*
X0078419Y0041909D01*
X0077186Y0043142D01*
X0075574Y0043809D01*
X0071552Y0043809D01*
X0072783Y0045041D01*
X0075574Y0045041D01*
X0077186Y0045708D01*
X0078419Y0046942D01*
X0079087Y0048553D01*
X0079087Y0050297D01*
X0078419Y0051909D01*
X0079024Y0050449D02*
X0126027Y0050449D01*
X0127994Y0048482D02*
X0079057Y0048482D01*
X0077993Y0046515D02*
X0129961Y0046515D01*
X0131928Y0044548D02*
X0092116Y0044548D01*
X0088834Y0041607D02*
X0088598Y0041866D01*
X0088834Y0041607D02*
X0123934Y0041607D01*
X0150484Y0015057D01*
X0150843Y0015055D01*
X0153129Y0022911D02*
X0153566Y0022911D01*
X0153566Y0024878D02*
X0144578Y0024878D01*
X0142611Y0026845D02*
X0153566Y0026845D01*
X0153566Y0028812D02*
X0140644Y0028812D01*
X0138677Y0030779D02*
X0153566Y0030779D01*
X0153566Y0032746D02*
X0136710Y0032746D01*
X0134743Y0034713D02*
X0153566Y0034713D01*
X0153566Y0036680D02*
X0132776Y0036680D01*
X0130809Y0038647D02*
X0137829Y0038647D01*
X0139684Y0040707D02*
X0088834Y0091557D01*
X0091984Y0093807D02*
X0140134Y0045657D01*
X0144184Y0045657D01*
X0144307Y0045488D01*
X0146434Y0051507D02*
X0139684Y0051507D01*
X0093334Y0097857D01*
X0018184Y0097857D01*
X0018047Y0098008D01*
X0018047Y0103224D02*
X0021224Y0103224D01*
X0021968Y0103341D01*
X0022684Y0103574D01*
X0023355Y0103916D01*
X0023964Y0104359D01*
X0024496Y0104891D01*
X0024939Y0105500D01*
X0025281Y0106171D01*
X0025514Y0106888D01*
X0025631Y0107631D01*
X0025631Y0108008D01*
X0025631Y0108384D01*
X0025514Y0109128D01*
X0025281Y0109844D01*
X0024939Y0110515D01*
X0024496Y0111125D01*
X0023964Y0111657D01*
X0023355Y0112100D01*
X0022684Y0112442D01*
X0021968Y0112674D01*
X0021224Y0112792D01*
X0018047Y0112792D01*
X0014871Y0112792D01*
X0014127Y0112674D01*
X0013411Y0112442D01*
X0012740Y0112100D01*
X0012131Y0111657D01*
X0011598Y0111125D01*
X0011155Y0110515D01*
X0010814Y0109844D01*
X0010581Y0109128D01*
X0010463Y0108384D01*
X0010463Y0108008D01*
X0018047Y0108008D01*
X0018047Y0108008D01*
X0018047Y0112792D01*
X0018047Y0108008D01*
X0018047Y0108008D01*
X0010463Y0108008D01*
X0010463Y0107631D01*
X0010581Y0106888D01*
X0010814Y0106171D01*
X0011155Y0105500D01*
X0011598Y0104891D01*
X0012131Y0104359D01*
X0012740Y0103916D01*
X0013411Y0103574D01*
X0014127Y0103341D01*
X0014871Y0103224D01*
X0018047Y0103224D01*
X0018047Y0108008D01*
X0018047Y0108008D01*
X0025631Y0108008D01*
X0018047Y0108008D01*
X0018047Y0108008D01*
X0018047Y0103224D01*
X0018047Y0103559D02*
X0018047Y0103559D01*
X0018047Y0105526D02*
X0018047Y0105526D01*
X0018047Y0107493D02*
X0018047Y0107493D01*
X0018047Y0109460D02*
X0018047Y0109460D01*
X0018047Y0111427D02*
X0018047Y0111427D01*
X0022637Y0103559D02*
X0087767Y0103559D01*
X0085800Y0105526D02*
X0024952Y0105526D01*
X0025610Y0107493D02*
X0083833Y0107493D01*
X0081866Y0109460D02*
X0025406Y0109460D01*
X0024194Y0111427D02*
X0079899Y0111427D01*
X0077932Y0113394D02*
X0010153Y0113394D01*
X0010153Y0115361D02*
X0075965Y0115361D01*
X0073998Y0117328D02*
X0010153Y0117328D01*
X0010153Y0119295D02*
X0072031Y0119295D01*
X0070064Y0121262D02*
X0021958Y0121262D01*
X0021759Y0121180D02*
X0023444Y0121877D01*
X0024734Y0123167D01*
X0025431Y0124852D01*
X0025431Y0126676D01*
X0024734Y0128361D01*
X0023444Y0129650D01*
X0021759Y0130348D01*
X0014335Y0130348D01*
X0012650Y0129650D01*
X0011361Y0128361D01*
X0010663Y0126676D01*
X0010663Y0124852D01*
X0011361Y0123167D01*
X0012650Y0121877D01*
X0014335Y0121180D01*
X0021759Y0121180D01*
X0024759Y0123229D02*
X0068097Y0123229D01*
X0066130Y0125196D02*
X0025431Y0125196D01*
X0025230Y0127163D02*
X0064163Y0127163D01*
X0062196Y0129130D02*
X0023964Y0129130D01*
X0024669Y0138426D02*
X0023444Y0139650D01*
X0021759Y0140348D01*
X0017859Y0140348D01*
X0017027Y0141180D01*
X0021759Y0141180D01*
X0023444Y0141877D01*
X0024355Y0142789D01*
X0052587Y0142789D01*
X0056951Y0138426D01*
X0024669Y0138426D01*
X0024129Y0138965D02*
X0056411Y0138965D01*
X0054444Y0140932D02*
X0017274Y0140932D01*
X0017734Y0136557D02*
X0018047Y0135764D01*
X0018184Y0135657D01*
X0059584Y0135657D01*
X0138784Y0056457D01*
X0144184Y0056457D01*
X0144307Y0056118D01*
X0141289Y0060285D02*
X0138872Y0060285D01*
X0139551Y0062252D02*
X0136905Y0062252D01*
X0134938Y0064219D02*
X0139551Y0064219D01*
X0139775Y0066186D02*
X0132971Y0066186D01*
X0131004Y0068153D02*
X0141742Y0068153D01*
X0144307Y0072260D02*
X0144184Y0072657D01*
X0126634Y0072657D01*
X0053734Y0145557D01*
X0042484Y0145557D01*
X0042484Y0203157D01*
X0043384Y0203607D01*
X0093334Y0253557D01*
X0122584Y0253557D01*
X0122614Y0253874D01*
X0116123Y0258953D02*
X0088246Y0258953D01*
X0090213Y0260920D02*
X0133030Y0260920D01*
X0133188Y0262887D02*
X0092180Y0262887D01*
X0094147Y0264854D02*
X0114412Y0264854D01*
X0113194Y0266821D02*
X0096114Y0266821D01*
X0098081Y0268788D02*
X0122298Y0268788D01*
X0122614Y0268874D02*
X0123034Y0268857D01*
X0123034Y0265707D01*
X0132484Y0256257D01*
X0132484Y0248607D01*
X0123484Y0239607D01*
X0122614Y0238874D01*
X0123034Y0238707D01*
X0123034Y0235557D01*
X0132484Y0226107D01*
X0130946Y0227481D02*
X0134569Y0227481D01*
X0133359Y0229448D02*
X0127911Y0229448D01*
X0128653Y0233382D02*
X0133393Y0233382D01*
X0133030Y0231415D02*
X0075107Y0231415D01*
X0073140Y0229448D02*
X0117317Y0229448D01*
X0114282Y0227481D02*
X0071173Y0227481D01*
X0069206Y0225514D02*
X0113241Y0225514D01*
X0113030Y0223547D02*
X0067239Y0223547D01*
X0065272Y0221580D02*
X0113512Y0221580D01*
X0114937Y0219613D02*
X0063305Y0219613D01*
X0061338Y0217646D02*
X0133088Y0217646D01*
X0133030Y0215679D02*
X0059371Y0215679D01*
X0057404Y0213712D02*
X0115362Y0213712D01*
X0115630Y0213907D02*
X0114881Y0213362D01*
X0114226Y0212707D01*
X0113682Y0211958D01*
X0113261Y0211133D01*
X0112975Y0210252D01*
X0112830Y0209337D01*
X0112830Y0209190D01*
X0122298Y0209190D01*
X0122298Y0214758D01*
X0118251Y0214758D01*
X0117336Y0214613D01*
X0116455Y0214327D01*
X0115630Y0213907D01*
X0113573Y0211745D02*
X0055437Y0211745D01*
X0053470Y0209778D02*
X0112900Y0209778D01*
X0112925Y0207811D02*
X0051503Y0207811D01*
X0049536Y0205844D02*
X0113654Y0205844D01*
X0115582Y0203877D02*
X0047569Y0203877D01*
X0045602Y0201910D02*
X0133030Y0201910D01*
X0133598Y0203877D02*
X0129647Y0203877D01*
X0131574Y0205844D02*
X0135145Y0205844D01*
X0135305Y0211745D02*
X0131656Y0211745D01*
X0129866Y0213712D02*
X0133664Y0213712D01*
X0133914Y0219613D02*
X0130292Y0219613D01*
X0122930Y0213712D02*
X0122298Y0213712D01*
X0122298Y0211745D02*
X0122930Y0211745D01*
X0122930Y0209778D02*
X0122298Y0209778D01*
X0122298Y0207811D02*
X0122930Y0207811D01*
X0122930Y0205844D02*
X0122298Y0205844D01*
X0122298Y0203877D02*
X0122930Y0203877D01*
X0130786Y0190108D02*
X0134409Y0190108D01*
X0131921Y0192075D02*
X0181488Y0192075D01*
X0181488Y0253052D02*
X0132198Y0253052D01*
X0132192Y0255019D02*
X0181488Y0255019D01*
X0181488Y0268788D02*
X0139168Y0268788D01*
X0142298Y0270755D02*
X0142930Y0270755D01*
X0142930Y0270490D02*
X0146977Y0270490D01*
X0147892Y0270635D01*
X0148773Y0270921D01*
X0149598Y0271341D01*
X0150348Y0271886D01*
X0151002Y0272541D01*
X0151547Y0273290D01*
X0151967Y0274115D01*
X0152254Y0274996D01*
X0152398Y0275911D01*
X0152398Y0276058D01*
X0142930Y0276058D01*
X0142930Y0270490D01*
X0142930Y0272722D02*
X0142298Y0272722D01*
X0142298Y0274689D02*
X0142930Y0274689D01*
X0142930Y0276058D02*
X0142298Y0276058D01*
X0142298Y0276690D01*
X0132830Y0276690D01*
X0132830Y0276837D01*
X0132975Y0277752D01*
X0133261Y0278633D01*
X0133682Y0279458D01*
X0134226Y0280207D01*
X0134881Y0280862D01*
X0135630Y0281407D01*
X0136455Y0281827D01*
X0137336Y0282113D01*
X0138251Y0282258D01*
X0142298Y0282258D01*
X0142298Y0276690D01*
X0142930Y0276690D01*
X0142930Y0282258D01*
X0146977Y0282258D01*
X0147892Y0282113D01*
X0148773Y0281827D01*
X0149598Y0281407D01*
X0150348Y0280862D01*
X0151002Y0280207D01*
X0151547Y0279458D01*
X0151967Y0278633D01*
X0152254Y0277752D01*
X0152398Y0276837D01*
X0152398Y0276690D01*
X0142930Y0276690D01*
X0142930Y0276058D01*
X0142930Y0276656D02*
X0181488Y0276656D01*
X0181488Y0274689D02*
X0152154Y0274689D01*
X0151134Y0272722D02*
X0181488Y0272722D01*
X0181488Y0270755D02*
X0148263Y0270755D01*
X0142298Y0276656D02*
X0131300Y0276656D01*
X0133258Y0278623D02*
X0128691Y0278623D01*
X0129734Y0279055D02*
X0127645Y0278190D01*
X0117584Y0278190D01*
X0115494Y0279055D01*
X0113895Y0280654D01*
X0113030Y0282743D01*
X0113030Y0285005D01*
X0113895Y0287094D01*
X0115494Y0288693D01*
X0117584Y0289558D01*
X0127645Y0289558D01*
X0129734Y0288693D01*
X0131333Y0287094D01*
X0132198Y0285005D01*
X0132198Y0282743D01*
X0131333Y0280654D01*
X0129734Y0279055D01*
X0131269Y0280590D02*
X0134609Y0280590D01*
X0132121Y0282557D02*
X0181488Y0282557D01*
X0181488Y0280590D02*
X0150620Y0280590D01*
X0151970Y0278623D02*
X0181488Y0278623D01*
X0181488Y0284524D02*
X0132198Y0284524D01*
X0131583Y0286491D02*
X0135648Y0286491D01*
X0135494Y0286555D02*
X0137584Y0285690D01*
X0147645Y0285690D01*
X0149734Y0286555D01*
X0151333Y0288154D01*
X0152198Y0290243D01*
X0152198Y0292505D01*
X0151333Y0294594D01*
X0149734Y0296193D01*
X0147645Y0297058D01*
X0137584Y0297058D01*
X0135494Y0296193D01*
X0133895Y0294594D01*
X0133030Y0292505D01*
X0133030Y0290243D01*
X0133895Y0288154D01*
X0135494Y0286555D01*
X0133769Y0288458D02*
X0129969Y0288458D01*
X0133030Y0290425D02*
X0080853Y0290425D01*
X0081568Y0289710D02*
X0078883Y0292395D01*
X0076984Y0292395D01*
X0076984Y0287811D01*
X0076984Y0287811D01*
X0077134Y0288207D01*
X0077134Y0307107D01*
X0073617Y0315997D02*
X0086992Y0315997D01*
X0087831Y0315157D02*
X0090709Y0315157D01*
X0090709Y0322126D01*
X0090740Y0322126D01*
X0090740Y0315157D01*
X0093617Y0315157D01*
X0097709Y0319249D01*
X0097709Y0322126D01*
X0090740Y0322126D01*
X0090740Y0322157D01*
X0097709Y0322157D01*
X0097709Y0325035D01*
X0093617Y0329126D01*
X0090740Y0329126D01*
X0090740Y0322158D01*
X0090709Y0322158D01*
X0090709Y0329126D01*
X0087831Y0329126D01*
X0083740Y0325035D01*
X0083740Y0322157D01*
X0090709Y0322157D01*
X0090709Y0322126D01*
X0083740Y0322126D01*
X0083740Y0319249D01*
X0087831Y0315157D01*
X0085025Y0317964D02*
X0076141Y0317964D01*
X0076476Y0318299D02*
X0077509Y0320792D01*
X0077509Y0323491D01*
X0076476Y0325985D01*
X0074567Y0327893D01*
X0072074Y0328926D01*
X0069375Y0328926D01*
X0068248Y0328459D01*
X0057552Y0339154D01*
X0056535Y0339576D01*
X0042810Y0339576D01*
X0039710Y0342676D01*
X0035125Y0342676D01*
X0031883Y0339434D01*
X0031883Y0334849D01*
X0035125Y0331607D01*
X0039710Y0331607D01*
X0042141Y0334039D01*
X0054837Y0334039D01*
X0064363Y0324513D01*
X0063940Y0323491D01*
X0063940Y0320792D01*
X0064973Y0318299D01*
X0066881Y0316390D01*
X0069375Y0315357D01*
X0072074Y0315357D01*
X0074567Y0316390D01*
X0076476Y0318299D01*
X0077152Y0319931D02*
X0083740Y0319931D01*
X0083740Y0321898D02*
X0077509Y0321898D01*
X0077354Y0323865D02*
X0083740Y0323865D01*
X0084537Y0325832D02*
X0076539Y0325832D01*
X0074662Y0327799D02*
X0086504Y0327799D01*
X0090709Y0327799D02*
X0090740Y0327799D01*
X0090709Y0325832D02*
X0090740Y0325832D01*
X0090709Y0323865D02*
X0090740Y0323865D01*
X0090709Y0321898D02*
X0090740Y0321898D01*
X0090709Y0319931D02*
X0090740Y0319931D01*
X0090709Y0317964D02*
X0090740Y0317964D01*
X0090709Y0315997D02*
X0090740Y0315997D01*
X0094456Y0315997D02*
X0181488Y0315997D01*
X0181488Y0317964D02*
X0160501Y0317964D01*
X0160003Y0317782D02*
X0161191Y0318215D01*
X0162159Y0319027D01*
X0162328Y0319124D01*
X0162603Y0319399D01*
X0164158Y0320705D01*
X0166095Y0324059D01*
X0166448Y0326059D01*
X0166548Y0326434D01*
X0166548Y0326629D01*
X0166768Y0327874D01*
X0166548Y0329119D01*
X0166548Y0329314D01*
X0166448Y0329689D01*
X0166095Y0331689D01*
X0164158Y0335043D01*
X0164158Y0335043D01*
X0162603Y0336349D01*
X0162328Y0336624D01*
X0162159Y0336721D01*
X0161191Y0337533D01*
X0160003Y0337966D01*
X0159835Y0338063D01*
X0159459Y0338164D01*
X0157551Y0338858D01*
X0156618Y0338858D01*
X0156607Y0338863D01*
X0140622Y0338863D01*
X0140610Y0338858D01*
X0139677Y0338858D01*
X0137769Y0338164D01*
X0137394Y0338063D01*
X0137225Y0337966D01*
X0136037Y0337533D01*
X0135069Y0336721D01*
X0134900Y0336624D01*
X0134626Y0336349D01*
X0133070Y0335043D01*
X0131133Y0331689D01*
X0131133Y0331689D01*
X0130780Y0329689D01*
X0130680Y0329314D01*
X0130680Y0329119D01*
X0130460Y0327874D01*
X0130680Y0326629D01*
X0130680Y0326434D01*
X0130780Y0326059D01*
X0131133Y0324059D01*
X0133070Y0320705D01*
X0133070Y0320705D01*
X0134626Y0319399D01*
X0134900Y0319124D01*
X0135069Y0319027D01*
X0136037Y0318215D01*
X0136037Y0318215D01*
X0137225Y0317782D01*
X0137394Y0317685D01*
X0137769Y0317584D01*
X0139677Y0316890D01*
X0140610Y0316890D01*
X0140622Y0316885D01*
X0156607Y0316885D01*
X0156618Y0316890D01*
X0157551Y0316890D01*
X0159459Y0317584D01*
X0159835Y0317685D01*
X0160003Y0317782D01*
X0161191Y0318215D02*
X0161191Y0318215D01*
X0163236Y0319931D02*
X0181488Y0319931D01*
X0181488Y0321898D02*
X0164847Y0321898D01*
X0164158Y0320705D02*
X0164158Y0320705D01*
X0164158Y0320705D01*
X0165983Y0323865D02*
X0181488Y0323865D01*
X0181488Y0325832D02*
X0166408Y0325832D01*
X0166095Y0324059D02*
X0166095Y0324059D01*
X0166755Y0327799D02*
X0181488Y0327799D01*
X0181488Y0329766D02*
X0166434Y0329766D01*
X0166768Y0327874D02*
X0166768Y0327874D01*
X0166095Y0331689D02*
X0166095Y0331689D01*
X0166070Y0331733D02*
X0181488Y0331733D01*
X0181488Y0333700D02*
X0164934Y0333700D01*
X0166197Y0335667D02*
X0163416Y0335667D01*
X0163448Y0337634D02*
X0160915Y0337634D01*
X0161191Y0337533D02*
X0161191Y0337533D01*
X0161805Y0339601D02*
X0042785Y0339601D01*
X0040818Y0341568D02*
X0160718Y0341568D01*
X0160191Y0343535D02*
X0024880Y0343535D01*
X0025079Y0345502D02*
X0159992Y0345502D01*
X0160051Y0347469D02*
X0025020Y0347469D01*
X0024493Y0349436D02*
X0160578Y0349436D01*
X0176354Y0335667D02*
X0181488Y0335667D01*
X0181488Y0337634D02*
X0179103Y0337634D01*
X0180746Y0339601D02*
X0181488Y0339601D01*
X0181488Y0314030D02*
X0006968Y0314030D01*
X0006968Y0315997D02*
X0067832Y0315997D01*
X0065308Y0317964D02*
X0006968Y0317964D01*
X0006968Y0319931D02*
X0064297Y0319931D01*
X0063940Y0321898D02*
X0006968Y0321898D01*
X0006968Y0323865D02*
X0064095Y0323865D01*
X0063044Y0325832D02*
X0006968Y0325832D01*
X0006968Y0327799D02*
X0061077Y0327799D01*
X0059110Y0329766D02*
X0006968Y0329766D01*
X0006968Y0331733D02*
X0035000Y0331733D01*
X0033033Y0333700D02*
X0006968Y0333700D01*
X0006968Y0335667D02*
X0008717Y0335667D01*
X0018874Y0335667D02*
X0031883Y0335667D01*
X0031883Y0337634D02*
X0021622Y0337634D01*
X0023266Y0339601D02*
X0032050Y0339601D01*
X0034017Y0341568D02*
X0024352Y0341568D01*
X0037417Y0337142D02*
X0037534Y0336807D01*
X0055984Y0336807D01*
X0070384Y0322407D01*
X0070724Y0322142D01*
X0066941Y0329766D02*
X0130794Y0329766D01*
X0130460Y0327874D02*
X0130460Y0327874D01*
X0130474Y0327799D02*
X0094945Y0327799D01*
X0096912Y0325832D02*
X0130821Y0325832D01*
X0131133Y0324059D02*
X0131133Y0324059D01*
X0131245Y0323865D02*
X0097709Y0323865D01*
X0097709Y0321898D02*
X0132381Y0321898D01*
X0133992Y0319931D02*
X0097709Y0319931D01*
X0096423Y0317964D02*
X0136727Y0317964D01*
X0131158Y0331733D02*
X0064974Y0331733D01*
X0063007Y0333700D02*
X0132294Y0333700D01*
X0133070Y0335043D02*
X0133070Y0335043D01*
X0133070Y0335043D01*
X0133813Y0335667D02*
X0061040Y0335667D01*
X0059073Y0337634D02*
X0136313Y0337634D01*
X0136037Y0337533D02*
X0136037Y0337533D01*
X0139677Y0338858D02*
X0139677Y0338858D01*
X0127645Y0304558D02*
X0117584Y0304558D01*
X0115494Y0303693D01*
X0113895Y0302094D01*
X0113030Y0300005D01*
X0113030Y0297743D01*
X0113895Y0295654D01*
X0115494Y0294055D01*
X0117584Y0293190D01*
X0127645Y0293190D01*
X0129734Y0294055D01*
X0131333Y0295654D01*
X0132198Y0297743D01*
X0132198Y0300005D01*
X0131333Y0302094D01*
X0129734Y0303693D01*
X0127645Y0304558D01*
X0128523Y0304194D02*
X0181488Y0304194D01*
X0181488Y0302227D02*
X0131199Y0302227D01*
X0132092Y0300260D02*
X0181488Y0300260D01*
X0181488Y0298293D02*
X0132198Y0298293D01*
X0131611Y0296326D02*
X0135817Y0296326D01*
X0133798Y0294359D02*
X0130038Y0294359D01*
X0133030Y0292392D02*
X0078886Y0292392D01*
X0076984Y0292392D02*
X0076984Y0292392D01*
X0075082Y0292392D02*
X0023658Y0292392D01*
X0025592Y0294359D02*
X0115190Y0294359D01*
X0113617Y0296326D02*
X0026143Y0296326D01*
X0025836Y0298293D02*
X0113030Y0298293D01*
X0113136Y0300260D02*
X0024447Y0300260D01*
X0023334Y0302227D02*
X0034222Y0302227D01*
X0032255Y0304194D02*
X0025508Y0304194D01*
X0026135Y0306161D02*
X0031683Y0306161D01*
X0031683Y0308128D02*
X0025890Y0308128D01*
X0024620Y0310095D02*
X0032262Y0310095D01*
X0034229Y0312063D02*
X0006968Y0312063D01*
X0028366Y0280590D02*
X0047600Y0280590D01*
X0047600Y0278623D02*
X0030333Y0278623D01*
X0032300Y0276656D02*
X0048002Y0276656D01*
X0049969Y0274689D02*
X0034267Y0274689D01*
X0036234Y0272722D02*
X0049632Y0272722D01*
X0054336Y0272722D02*
X0058104Y0272722D01*
X0056303Y0270755D02*
X0060071Y0270755D01*
X0062038Y0268788D02*
X0056368Y0268788D01*
X0056132Y0266821D02*
X0064005Y0266821D01*
X0065972Y0264854D02*
X0054165Y0264854D01*
X0054000Y0274689D02*
X0056137Y0274689D01*
X0058066Y0280590D02*
X0113959Y0280590D01*
X0113107Y0282557D02*
X0054501Y0282557D01*
X0060033Y0278623D02*
X0116537Y0278623D01*
X0113030Y0284524D02*
X0080181Y0284524D01*
X0078883Y0283227D02*
X0081568Y0285912D01*
X0081568Y0287811D01*
X0081568Y0289710D01*
X0081568Y0288458D02*
X0115260Y0288458D01*
X0113646Y0286491D02*
X0081568Y0286491D01*
X0081568Y0287811D02*
X0076984Y0287811D01*
X0076984Y0283227D01*
X0078883Y0283227D01*
X0076984Y0284524D02*
X0076984Y0284524D01*
X0076984Y0286491D02*
X0076984Y0286491D01*
X0076984Y0287811D02*
X0076984Y0287811D01*
X0081568Y0287811D01*
X0076984Y0288458D02*
X0076984Y0288458D01*
X0076984Y0290425D02*
X0076984Y0290425D01*
X0065934Y0272722D02*
X0094184Y0272722D01*
X0092217Y0270755D02*
X0067901Y0270755D01*
X0069868Y0268788D02*
X0090250Y0268788D01*
X0088283Y0266821D02*
X0071835Y0266821D01*
X0073802Y0264854D02*
X0086316Y0264854D01*
X0084349Y0262887D02*
X0075769Y0262887D01*
X0080075Y0260920D02*
X0082382Y0260920D01*
X0086278Y0256986D02*
X0113851Y0256986D01*
X0115431Y0249118D02*
X0092810Y0249118D01*
X0090843Y0247151D02*
X0133030Y0247151D01*
X0133055Y0245184D02*
X0088876Y0245184D01*
X0086909Y0243217D02*
X0114736Y0243217D01*
X0114881Y0243362D02*
X0114226Y0242707D01*
X0113682Y0241958D01*
X0113261Y0241133D01*
X0112975Y0240252D01*
X0112830Y0239337D01*
X0112830Y0239190D01*
X0122298Y0239190D01*
X0122298Y0244758D01*
X0118251Y0244758D01*
X0117336Y0244613D01*
X0116455Y0244327D01*
X0115630Y0243907D01*
X0114881Y0243362D01*
X0113321Y0241250D02*
X0084942Y0241250D01*
X0082975Y0239283D02*
X0112830Y0239283D01*
X0113033Y0237316D02*
X0081008Y0237316D01*
X0079041Y0235349D02*
X0114002Y0235349D01*
X0116575Y0233382D02*
X0077074Y0233382D01*
X0075145Y0239283D02*
X0040424Y0239283D01*
X0041975Y0237316D02*
X0073178Y0237316D01*
X0071211Y0235349D02*
X0042103Y0235349D01*
X0042103Y0233382D02*
X0069244Y0233382D01*
X0067277Y0231415D02*
X0042103Y0231415D01*
X0042103Y0229448D02*
X0065310Y0229448D01*
X0063343Y0227481D02*
X0041023Y0227481D01*
X0039240Y0225514D02*
X0061376Y0225514D01*
X0059409Y0223547D02*
X0039240Y0223547D01*
X0039218Y0221580D02*
X0057442Y0221580D01*
X0055475Y0219613D02*
X0037251Y0219613D01*
X0037740Y0217646D02*
X0053508Y0217646D01*
X0051541Y0215679D02*
X0039240Y0215679D01*
X0039240Y0213712D02*
X0049574Y0213712D01*
X0047607Y0211745D02*
X0039240Y0211745D01*
X0039779Y0209778D02*
X0045640Y0209778D01*
X0043673Y0207811D02*
X0041746Y0207811D01*
X0042484Y0203157D02*
X0033934Y0211707D01*
X0033934Y0213507D01*
X0033756Y0213874D01*
X0033756Y0223874D02*
X0033934Y0224307D01*
X0039334Y0229707D01*
X0039334Y0236457D01*
X0036184Y0239607D01*
X0021334Y0239607D01*
X0010984Y0229257D01*
X0010984Y0211257D01*
X0017734Y0204507D01*
X0017734Y0155907D01*
X0018047Y0155764D01*
X0014966Y0160602D02*
X0006968Y0160602D01*
X0006968Y0158635D02*
X0011636Y0158635D01*
X0010663Y0156668D02*
X0006968Y0156668D01*
X0006968Y0154701D02*
X0009463Y0154701D01*
X0007496Y0152734D02*
X0006968Y0152734D01*
X0010534Y0147807D02*
X0010534Y0143757D01*
X0017734Y0136557D01*
X0018184Y0145557D02*
X0018047Y0145764D01*
X0018184Y0145557D02*
X0042484Y0145557D01*
X0034045Y0150507D02*
X0039334Y0155796D01*
X0039334Y0196407D01*
X0033934Y0201807D01*
X0033934Y0203607D01*
X0033756Y0203874D01*
X0029766Y0190108D02*
X0027745Y0190108D01*
X0023756Y0193874D02*
X0024034Y0194157D01*
X0024034Y0203607D01*
X0023756Y0203874D01*
X0023134Y0204507D01*
X0015034Y0212607D01*
X0010515Y0207811D02*
X0006968Y0207811D01*
X0006968Y0209778D02*
X0008600Y0209778D01*
X0009416Y0208910D02*
X0009416Y0208910D01*
X0008216Y0211745D02*
X0006968Y0211745D01*
X0006968Y0213712D02*
X0008216Y0213712D01*
X0008216Y0215679D02*
X0006968Y0215679D01*
X0006968Y0217646D02*
X0008216Y0217646D01*
X0008216Y0219613D02*
X0006968Y0219613D01*
X0006968Y0221580D02*
X0008216Y0221580D01*
X0008216Y0223547D02*
X0006968Y0223547D01*
X0006968Y0225514D02*
X0008216Y0225514D01*
X0008216Y0227481D02*
X0006968Y0227481D01*
X0006968Y0229448D02*
X0008216Y0229448D01*
X0008923Y0231415D02*
X0006968Y0231415D01*
X0006968Y0233382D02*
X0007416Y0233382D01*
X0007200Y0235349D02*
X0006968Y0235349D01*
X0006968Y0256986D02*
X0072600Y0256986D01*
X0071873Y0258953D02*
X0006968Y0258953D01*
X0006968Y0260920D02*
X0069906Y0260920D01*
X0067939Y0262887D02*
X0006968Y0262887D01*
X0023772Y0233890D02*
X0029440Y0233890D01*
X0033740Y0233890D01*
X0033740Y0233858D01*
X0023772Y0233858D01*
X0023772Y0233890D01*
X0023756Y0233874D02*
X0024034Y0233757D01*
X0033484Y0233757D01*
X0033756Y0233874D01*
X0014449Y0203877D02*
X0006968Y0203877D01*
X0006968Y0205844D02*
X0012482Y0205844D01*
X0014966Y0201910D02*
X0006968Y0201910D01*
X0006968Y0199943D02*
X0014966Y0199943D01*
X0014966Y0197976D02*
X0006968Y0197976D01*
X0006968Y0196009D02*
X0014966Y0196009D01*
X0014966Y0194042D02*
X0006968Y0194042D01*
X0006968Y0192075D02*
X0014966Y0192075D01*
X0014966Y0190108D02*
X0006968Y0190108D01*
X0006968Y0188141D02*
X0014966Y0188141D01*
X0014966Y0186174D02*
X0006968Y0186174D01*
X0006968Y0184207D02*
X0014966Y0184207D01*
X0014966Y0182240D02*
X0006968Y0182240D01*
X0006968Y0180272D02*
X0014966Y0180272D01*
X0014966Y0178305D02*
X0006968Y0178305D01*
X0006968Y0176338D02*
X0014966Y0176338D01*
X0014966Y0174371D02*
X0006968Y0174371D01*
X0006968Y0172404D02*
X0014966Y0172404D01*
X0014966Y0170437D02*
X0006968Y0170437D01*
X0006968Y0168470D02*
X0014966Y0168470D01*
X0014966Y0166503D02*
X0006968Y0166503D01*
X0006968Y0164536D02*
X0014966Y0164536D01*
X0014966Y0162569D02*
X0006968Y0162569D01*
X0013234Y0150507D02*
X0010534Y0147807D01*
X0013234Y0150507D02*
X0034045Y0150507D01*
X0034324Y0154701D02*
X0025369Y0154701D01*
X0025431Y0156668D02*
X0036291Y0156668D01*
X0036566Y0158635D02*
X0024459Y0158635D01*
X0020503Y0174371D02*
X0036566Y0174371D01*
X0036566Y0176338D02*
X0020503Y0176338D01*
X0020503Y0178305D02*
X0036566Y0178305D01*
X0036566Y0180272D02*
X0020503Y0180272D01*
X0020503Y0182240D02*
X0036566Y0182240D01*
X0036566Y0184207D02*
X0020503Y0184207D01*
X0020503Y0186174D02*
X0036566Y0186174D01*
X0036566Y0188141D02*
X0020503Y0188141D01*
X0011411Y0138965D02*
X0010153Y0138965D01*
X0010153Y0136998D02*
X0010797Y0136998D01*
X0010663Y0135031D02*
X0010153Y0135031D01*
X0010153Y0133064D02*
X0011464Y0133064D01*
X0010153Y0131097D02*
X0060229Y0131097D01*
X0064241Y0138965D02*
X0127466Y0138965D01*
X0127466Y0136998D02*
X0066208Y0136998D01*
X0068175Y0135031D02*
X0127466Y0135031D01*
X0127466Y0133064D02*
X0070142Y0133064D01*
X0072109Y0131097D02*
X0127466Y0131097D01*
X0127466Y0129130D02*
X0074076Y0129130D01*
X0076043Y0127163D02*
X0127466Y0127163D01*
X0127466Y0125196D02*
X0078011Y0125196D01*
X0079978Y0123229D02*
X0127466Y0123229D01*
X0127466Y0121262D02*
X0081945Y0121262D01*
X0083912Y0119295D02*
X0127466Y0119295D01*
X0127466Y0117328D02*
X0085879Y0117328D01*
X0087846Y0115361D02*
X0127466Y0115361D01*
X0128332Y0113394D02*
X0089813Y0113394D01*
X0091780Y0111427D02*
X0130299Y0111427D01*
X0132266Y0109460D02*
X0093747Y0109460D01*
X0095714Y0107493D02*
X0134233Y0107493D01*
X0136200Y0105526D02*
X0097681Y0105526D01*
X0099648Y0103559D02*
X0138167Y0103559D01*
X0140134Y0101592D02*
X0101615Y0101592D01*
X0103582Y0099625D02*
X0142101Y0099625D01*
X0144068Y0097658D02*
X0105549Y0097658D01*
X0107516Y0095691D02*
X0146035Y0095691D01*
X0148002Y0093724D02*
X0109483Y0093724D01*
X0111450Y0091757D02*
X0149969Y0091757D01*
X0151316Y0089790D02*
X0113417Y0089790D01*
X0115384Y0087823D02*
X0151316Y0087823D01*
X0151316Y0085856D02*
X0117351Y0085856D01*
X0119318Y0083889D02*
X0151316Y0083889D01*
X0151316Y0081922D02*
X0121285Y0081922D01*
X0123252Y0079955D02*
X0151316Y0079955D01*
X0151316Y0077988D02*
X0125219Y0077988D01*
X0127186Y0076021D02*
X0141625Y0076021D01*
X0146989Y0076021D02*
X0151316Y0076021D01*
X0149594Y0074054D02*
X0148863Y0074054D01*
X0148863Y0072087D02*
X0149594Y0072087D01*
X0149847Y0070120D02*
X0148610Y0070120D01*
X0146872Y0068153D02*
X0151814Y0068153D01*
X0149900Y0066186D02*
X0148839Y0066186D01*
X0149063Y0064219D02*
X0149594Y0064219D01*
X0149594Y0062252D02*
X0149063Y0062252D01*
X0147325Y0060285D02*
X0151414Y0060285D01*
X0152359Y0058318D02*
X0148551Y0058318D01*
X0148863Y0056351D02*
X0150301Y0056351D01*
X0148234Y0053307D02*
X0154084Y0053307D01*
X0154150Y0053756D01*
X0159034Y0055557D02*
X0154534Y0060057D01*
X0154534Y0063657D01*
X0154150Y0063992D01*
X0159034Y0055557D02*
X0159034Y0043857D01*
X0155884Y0040707D01*
X0139684Y0040707D01*
X0135862Y0040614D02*
X0128842Y0040614D01*
X0126875Y0042581D02*
X0133895Y0042581D01*
X0128880Y0032746D02*
X0074953Y0032746D01*
X0074953Y0030779D02*
X0130847Y0030779D01*
X0132814Y0028812D02*
X0075394Y0028812D01*
X0077361Y0026845D02*
X0134781Y0026845D01*
X0136748Y0024878D02*
X0079328Y0024878D01*
X0081295Y0022911D02*
X0118556Y0022911D01*
X0117963Y0022665D02*
X0116532Y0021235D01*
X0115758Y0019366D01*
X0115758Y0010744D01*
X0116532Y0008875D01*
X0117963Y0007445D01*
X0119831Y0006671D01*
X0121854Y0006671D01*
X0123723Y0007445D01*
X0125153Y0008875D01*
X0125927Y0010744D01*
X0125927Y0019366D01*
X0125153Y0021235D01*
X0123723Y0022665D01*
X0121854Y0023439D01*
X0119831Y0023439D01*
X0117963Y0022665D01*
X0116412Y0020944D02*
X0083262Y0020944D01*
X0085229Y0018977D02*
X0115758Y0018977D01*
X0115758Y0017010D02*
X0087196Y0017010D01*
X0088384Y0011907D02*
X0088598Y0011866D01*
X0088384Y0011907D02*
X0072184Y0028107D01*
X0072184Y0039357D01*
X0072102Y0039425D01*
X0072291Y0044548D02*
X0085080Y0044548D01*
X0084214Y0042581D02*
X0077746Y0042581D01*
X0078955Y0040614D02*
X0084214Y0040614D01*
X0085617Y0038647D02*
X0079087Y0038647D01*
X0078158Y0036680D02*
X0124946Y0036680D01*
X0126913Y0034713D02*
X0074953Y0034713D01*
X0069416Y0034713D02*
X0067753Y0034713D01*
X0067753Y0032746D02*
X0069416Y0032746D01*
X0069416Y0030779D02*
X0067753Y0030779D01*
X0067753Y0028812D02*
X0069416Y0028812D01*
X0069710Y0026845D02*
X0067753Y0026845D01*
X0067753Y0024878D02*
X0071498Y0024878D01*
X0073465Y0022911D02*
X0067795Y0022911D01*
X0069762Y0020944D02*
X0075432Y0020944D01*
X0076007Y0018977D02*
X0077399Y0018977D01*
X0077637Y0017010D02*
X0079366Y0017010D01*
X0077637Y0015043D02*
X0081333Y0015043D01*
X0083300Y0013076D02*
X0077637Y0013076D01*
X0075983Y0011109D02*
X0084214Y0011109D01*
X0085122Y0009142D02*
X0024947Y0009142D01*
X0024420Y0007175D02*
X0118614Y0007175D01*
X0116422Y0009142D02*
X0092075Y0009142D01*
X0092983Y0011109D02*
X0115758Y0011109D01*
X0115758Y0013076D02*
X0092983Y0013076D01*
X0091622Y0015043D02*
X0115758Y0015043D01*
X0123071Y0007175D02*
X0133614Y0007175D01*
X0131422Y0009142D02*
X0125263Y0009142D01*
X0125927Y0011109D02*
X0130758Y0011109D01*
X0130758Y0013076D02*
X0125927Y0013076D01*
X0125927Y0015043D02*
X0130758Y0015043D01*
X0130758Y0017010D02*
X0125927Y0017010D01*
X0125927Y0018977D02*
X0130758Y0018977D01*
X0131412Y0020944D02*
X0125273Y0020944D01*
X0123129Y0022911D02*
X0133556Y0022911D01*
X0138129Y0022911D02*
X0138715Y0022911D01*
X0140273Y0020944D02*
X0140682Y0020944D01*
X0140927Y0018977D02*
X0142649Y0018977D01*
X0142017Y0017010D02*
X0144616Y0017010D01*
X0144063Y0015043D02*
X0145758Y0015043D01*
X0142134Y0009142D02*
X0140263Y0009142D01*
X0138071Y0007175D02*
X0144101Y0007175D01*
X0148684Y0006507D02*
X0140584Y0014607D01*
X0136084Y0014607D01*
X0135843Y0015055D01*
X0146545Y0022911D02*
X0148556Y0022911D01*
X0156334Y0009657D02*
X0156334Y0036207D01*
X0169384Y0049257D01*
X0172984Y0049257D01*
X0178834Y0055107D01*
X0178834Y0062757D01*
X0169834Y0071757D01*
X0154984Y0071757D01*
X0154150Y0072260D01*
X0154084Y0072657D01*
X0154084Y0091557D01*
X0164158Y0127043D02*
X0164158Y0127043D01*
X0142930Y0172404D02*
X0142298Y0172404D01*
X0142298Y0174371D02*
X0142930Y0174371D01*
X0142930Y0176338D02*
X0142298Y0176338D01*
X0135536Y0176338D02*
X0131826Y0176338D01*
X0130328Y0174371D02*
X0133637Y0174371D01*
X0133590Y0168470D02*
X0129957Y0168470D01*
X0122930Y0174371D02*
X0122298Y0174371D01*
X0122298Y0176338D02*
X0122930Y0176338D01*
X0122930Y0178305D02*
X0122298Y0178305D01*
X0122298Y0180272D02*
X0122930Y0180272D01*
X0122930Y0182240D02*
X0122298Y0182240D01*
X0122298Y0184207D02*
X0122930Y0184207D01*
X0129010Y0184207D02*
X0133459Y0184207D01*
X0134810Y0182240D02*
X0131342Y0182240D01*
X0113190Y0146833D02*
X0056373Y0146833D01*
X0058340Y0144866D02*
X0114400Y0144866D01*
X0127466Y0142899D02*
X0060307Y0142899D01*
X0062274Y0140932D02*
X0127466Y0140932D01*
X0133003Y0129130D02*
X0135557Y0129130D01*
X0136037Y0129533D02*
X0136037Y0129533D01*
X0133213Y0127163D02*
X0133003Y0127163D01*
X0133070Y0127043D02*
X0133070Y0127043D01*
X0133070Y0127043D01*
X0104389Y0072087D02*
X0078435Y0072087D01*
X0078623Y0071828D02*
X0078199Y0072412D01*
X0077689Y0072922D01*
X0077105Y0073346D01*
X0076462Y0073674D01*
X0075776Y0073897D01*
X0075063Y0074009D01*
X0072102Y0074009D01*
X0069142Y0074009D01*
X0068429Y0073897D01*
X0067743Y0073674D01*
X0067100Y0073346D01*
X0066516Y0072922D01*
X0066006Y0072412D01*
X0065582Y0071828D01*
X0065254Y0071185D01*
X0065031Y0070499D01*
X0064918Y0069786D01*
X0064918Y0069425D01*
X0064918Y0069064D01*
X0065031Y0068352D01*
X0065254Y0067665D01*
X0065582Y0067023D01*
X0066006Y0066439D01*
X0066516Y0065929D01*
X0067100Y0065504D01*
X0067743Y0065177D01*
X0068429Y0064954D01*
X0069142Y0064841D01*
X0072102Y0064841D01*
X0072102Y0069425D01*
X0064918Y0069425D01*
X0072102Y0069425D01*
X0072102Y0069425D01*
X0072102Y0069425D01*
X0072102Y0064841D01*
X0075063Y0064841D01*
X0075776Y0064954D01*
X0076462Y0065177D01*
X0077105Y0065504D01*
X0077689Y0065929D01*
X0078199Y0066439D01*
X0078623Y0067023D01*
X0078951Y0067665D01*
X0079174Y0068352D01*
X0079287Y0069064D01*
X0079287Y0069425D01*
X0072102Y0069425D01*
X0072102Y0074009D01*
X0072102Y0069425D01*
X0072102Y0069425D01*
X0072102Y0069425D01*
X0079287Y0069425D01*
X0079287Y0069786D01*
X0079174Y0070499D01*
X0078951Y0071185D01*
X0078623Y0071828D01*
X0079234Y0070120D02*
X0106356Y0070120D01*
X0108323Y0068153D02*
X0079109Y0068153D01*
X0077946Y0066186D02*
X0110290Y0066186D01*
X0112257Y0064219D02*
X0049661Y0064219D01*
X0048076Y0062252D02*
X0066128Y0062252D01*
X0065118Y0060285D02*
X0049087Y0060285D01*
X0048989Y0058318D02*
X0065216Y0058318D01*
X0066377Y0056351D02*
X0047828Y0056351D01*
X0047186Y0053142D02*
X0045574Y0053809D01*
X0038630Y0053809D01*
X0037019Y0053142D01*
X0035786Y0051909D01*
X0035118Y0050297D01*
X0035118Y0048553D01*
X0035786Y0046942D01*
X0037019Y0045708D01*
X0038630Y0045041D01*
X0045574Y0045041D01*
X0047186Y0045708D01*
X0048419Y0046942D01*
X0049087Y0048553D01*
X0049087Y0050297D01*
X0048419Y0051909D01*
X0047186Y0053142D01*
X0047911Y0052416D02*
X0066293Y0052416D01*
X0065181Y0050449D02*
X0049024Y0050449D01*
X0049057Y0048482D02*
X0065147Y0048482D01*
X0066212Y0046515D02*
X0047993Y0046515D01*
X0047746Y0042581D02*
X0062578Y0042581D01*
X0062216Y0040614D02*
X0048955Y0040614D01*
X0049087Y0038647D02*
X0062216Y0038647D01*
X0062216Y0036680D02*
X0048158Y0036680D01*
X0044803Y0030779D02*
X0062216Y0030779D01*
X0062216Y0028812D02*
X0044803Y0028812D01*
X0044803Y0026845D02*
X0062216Y0026845D01*
X0062216Y0024878D02*
X0044803Y0024878D01*
X0044803Y0022911D02*
X0062216Y0022911D01*
X0062345Y0020944D02*
X0044803Y0020944D01*
X0046007Y0018977D02*
X0063899Y0018977D01*
X0065866Y0017010D02*
X0047637Y0017010D01*
X0047637Y0015043D02*
X0066568Y0015043D01*
X0066568Y0013076D02*
X0047637Y0013076D01*
X0045983Y0011109D02*
X0068222Y0011109D01*
X0071734Y0015057D02*
X0072102Y0015055D01*
X0071734Y0015057D02*
X0064984Y0021807D01*
X0064984Y0041157D01*
X0071734Y0047907D01*
X0071734Y0049257D01*
X0072102Y0049425D01*
X0064460Y0044548D02*
X0031758Y0044548D01*
X0033725Y0042581D02*
X0036458Y0042581D01*
X0036212Y0046515D02*
X0029791Y0046515D01*
X0027824Y0048482D02*
X0035147Y0048482D01*
X0035181Y0050449D02*
X0025857Y0050449D01*
X0023890Y0052416D02*
X0036293Y0052416D01*
X0042102Y0059425D02*
X0042484Y0059607D01*
X0042484Y0060957D01*
X0051601Y0066186D02*
X0066259Y0066186D01*
X0065096Y0068153D02*
X0052003Y0068153D01*
X0052003Y0070120D02*
X0064971Y0070120D01*
X0065770Y0072087D02*
X0052003Y0072087D01*
X0052003Y0074054D02*
X0102422Y0074054D01*
X0100455Y0076021D02*
X0052003Y0076021D01*
X0052003Y0083076D02*
X0052003Y0083108D01*
X0051581Y0084125D01*
X0051574Y0084133D01*
X0051574Y0088214D01*
X0050999Y0088789D01*
X0070797Y0088789D01*
X0070305Y0088296D01*
X0070305Y0085921D01*
X0070305Y0083546D01*
X0070776Y0083076D01*
X0052003Y0083076D01*
X0051679Y0083889D02*
X0070305Y0083889D01*
X0070305Y0085856D02*
X0051574Y0085856D01*
X0051574Y0087823D02*
X0070305Y0087823D01*
X0070305Y0085921D02*
X0076039Y0085921D01*
X0070305Y0085921D01*
X0076039Y0085921D02*
X0076039Y0085921D01*
X0080080Y0077988D02*
X0098488Y0077988D01*
X0091937Y0058318D02*
X0118159Y0058318D01*
X0120126Y0056351D02*
X0093183Y0056351D01*
X0093183Y0054384D02*
X0122093Y0054384D01*
X0124060Y0052416D02*
X0092325Y0052416D01*
X0091580Y0038647D02*
X0122979Y0038647D01*
X0116192Y0060285D02*
X0079087Y0060285D01*
X0078076Y0062252D02*
X0114225Y0062252D01*
X0089734Y0101592D02*
X0023746Y0101592D01*
X0013611Y0093724D02*
X0010153Y0093724D01*
X0010153Y0095691D02*
X0011245Y0095691D01*
X0010663Y0097658D02*
X0010153Y0097658D01*
X0010153Y0099625D02*
X0010955Y0099625D01*
X0010153Y0101592D02*
X0012348Y0101592D01*
X0013458Y0103559D02*
X0010153Y0103559D01*
X0010153Y0105526D02*
X0011142Y0105526D01*
X0010485Y0107493D02*
X0010153Y0107493D01*
X0010153Y0109460D02*
X0010689Y0109460D01*
X0010153Y0111427D02*
X0011900Y0111427D01*
X0010153Y0121262D02*
X0014136Y0121262D01*
X0011335Y0123229D02*
X0010153Y0123229D01*
X0010153Y0125196D02*
X0010663Y0125196D01*
X0010865Y0127163D02*
X0010153Y0127163D01*
X0010153Y0129130D02*
X0012130Y0129130D01*
X0012513Y0091757D02*
X0010153Y0091757D01*
X0010153Y0089790D02*
X0011023Y0089790D01*
X0010663Y0087823D02*
X0010153Y0087823D01*
X0010153Y0085856D02*
X0011177Y0085856D01*
X0010153Y0083889D02*
X0013212Y0083889D01*
X0041593Y0034713D02*
X0062216Y0034713D01*
X0062216Y0032746D02*
X0043560Y0032746D01*
X0072102Y0066186D02*
X0072102Y0066186D01*
X0072102Y0068153D02*
X0072102Y0068153D01*
X0072102Y0070120D02*
X0072102Y0070120D01*
X0072102Y0072087D02*
X0072102Y0072087D01*
X0146434Y0051507D02*
X0148234Y0053307D01*
X0156334Y0009657D02*
X0153184Y0006507D01*
X0148684Y0006507D01*
X0181225Y0064219D02*
X0181488Y0064219D01*
X0181488Y0066186D02*
X0179321Y0066186D01*
X0177354Y0068153D02*
X0181488Y0068153D01*
X0181488Y0070120D02*
X0175387Y0070120D01*
X0173420Y0072087D02*
X0181488Y0072087D01*
X0122930Y0233382D02*
X0122298Y0233382D01*
X0122298Y0235349D02*
X0122930Y0235349D01*
X0122930Y0237316D02*
X0122298Y0237316D01*
X0122298Y0239283D02*
X0122930Y0239283D01*
X0122930Y0241250D02*
X0122298Y0241250D01*
X0122298Y0243217D02*
X0122930Y0243217D01*
X0130493Y0243217D02*
X0133869Y0243217D01*
X0131908Y0241250D02*
X0136231Y0241250D01*
X0134650Y0235349D02*
X0131226Y0235349D01*
X0129797Y0249118D02*
X0133698Y0249118D01*
X0135386Y0251085D02*
X0131512Y0251085D01*
X0131378Y0256986D02*
X0135063Y0256986D01*
X0133564Y0258953D02*
X0129106Y0258953D01*
X0130816Y0264854D02*
X0134156Y0264854D01*
X0133305Y0266821D02*
X0132034Y0266821D01*
X0131568Y0268558D02*
X0130936Y0269190D01*
X0122930Y0269190D01*
X0122930Y0268558D01*
X0131568Y0268558D01*
X0131338Y0268788D02*
X0122930Y0268788D01*
X0122930Y0266821D02*
X0122298Y0266821D01*
X0122298Y0264854D02*
X0122930Y0264854D01*
X0113138Y0270755D02*
X0100048Y0270755D01*
X0096151Y0274689D02*
X0063967Y0274689D01*
X0062000Y0276656D02*
X0098118Y0276656D01*
X0090881Y0255019D02*
X0084311Y0255019D01*
X0082344Y0253052D02*
X0088914Y0253052D01*
X0086947Y0251085D02*
X0080377Y0251085D01*
X0078410Y0249118D02*
X0084980Y0249118D01*
X0083013Y0247151D02*
X0076443Y0247151D01*
X0074476Y0245184D02*
X0081046Y0245184D01*
X0079079Y0243217D02*
X0072509Y0243217D01*
X0070542Y0241250D02*
X0077112Y0241250D01*
X0039793Y0301407D02*
X0043152Y0304767D01*
X0043152Y0307142D01*
X0037417Y0307142D01*
X0037417Y0307142D01*
X0037417Y0307142D01*
X0037417Y0301407D01*
X0039793Y0301407D01*
X0040612Y0302227D02*
X0114029Y0302227D01*
X0116705Y0304194D02*
X0042579Y0304194D01*
X0043152Y0306161D02*
X0181488Y0306161D01*
X0181488Y0308128D02*
X0043152Y0308128D01*
X0042573Y0310095D02*
X0181488Y0310095D01*
X0181488Y0312063D02*
X0040606Y0312063D01*
X0037417Y0312063D02*
X0037417Y0312063D01*
X0037417Y0310095D02*
X0037417Y0310095D01*
X0037417Y0308128D02*
X0037417Y0308128D01*
X0037417Y0306161D02*
X0037417Y0306161D01*
X0037417Y0304194D02*
X0037417Y0304194D01*
X0037417Y0302227D02*
X0037417Y0302227D01*
X0039835Y0331733D02*
X0057143Y0331733D01*
X0055176Y0333700D02*
X0041802Y0333700D01*
X0142298Y0280590D02*
X0142930Y0280590D01*
X0142930Y0278623D02*
X0142298Y0278623D01*
X0149580Y0286491D02*
X0181488Y0286491D01*
X0181488Y0288458D02*
X0151459Y0288458D01*
X0152198Y0290425D02*
X0181488Y0290425D01*
X0181488Y0292392D02*
X0152198Y0292392D01*
X0151430Y0294359D02*
X0181488Y0294359D01*
X0181488Y0296326D02*
X0149412Y0296326D01*
D23*
X0045291Y0141039D03*
X0025606Y0141039D03*
X0025606Y0184346D03*
X0015034Y0212607D03*
X0010984Y0234657D03*
X0091984Y0093807D03*
D24*
X0076984Y0257811D02*
X0076684Y0258057D01*
X0052384Y0278757D02*
X0051984Y0278874D01*
M02*
