%
M48
M72
T01C0.02400
T02C0.03200
T03C0.03543
T04C0.03600
T05C0.04000
T06C0.04400
T07C0.11024
%
T01
X152784Y62781
X178769Y45065
X217745Y64356
X222076Y76167
X217745Y89946
X242942Y91915
X253965Y102939
X236619Y120600
X218532Y131285
X206721Y126954
X147619Y107600
X185068Y79317
X87824Y68687
T02
X140619Y51600
X140619Y61600
X140619Y71600
X140619Y81600
X140619Y91600
X140619Y101600
X140619Y111600
X170619Y111600
X170619Y101600
X170619Y91600
X170619Y81600
X170619Y71600
X170619Y61600
X170619Y51600
X200619Y51600
X200619Y61600
X200619Y71600
X200619Y81600
X200619Y91600
X200619Y101600
X200619Y111600
X230619Y111600
X230619Y101600
X230619Y91600
X230619Y81600
X230619Y71600
X230619Y61600
X230619Y51600
X245619Y51600
X245619Y21600
X230619Y16600
X220619Y16600
T03
X70619Y50057
X80619Y54557
X70619Y59057
X80619Y63557
X70619Y68057
X80619Y72557
X70619Y77057
X80619Y81557
X70619Y86057
X80619Y90557
X60619Y90557
X60619Y81557
X60619Y72557
X60619Y63557
X60619Y54557
X270619Y52643
X280619Y57143
X290619Y52643
X290619Y61643
X280619Y66143
X270619Y70643
X280619Y75143
X290619Y70643
X270619Y61643
X270619Y79643
X280619Y84143
X290619Y79643
X290619Y88643
X280619Y93143
X270619Y88643
T04
X115619Y141600
X115619Y111600
T05
X140619Y136600
X150619Y136600
X175619Y136600
X185619Y136600
X195619Y136600
X205619Y136600
X230619Y136600
X240619Y136600
X250619Y136600
T06
X100619Y16600
X115619Y16600
X130619Y16600
X150619Y16600
X165619Y16600
X180619Y16600
T07
X70619Y22387
X280619Y22387
X280619Y120813
X70619Y120813
M30
