G75*
%MOIN*%
%OFA0B0*%
%FSLAX25Y25*%
%IPPOS*%
%LPD*%
%AMOC8*
5,1,8,0,0,1.08239X$1,22.5*
%
%ADD10C,0.00000*%
%ADD11OC8,0.05600*%
%ADD12C,0.05200*%
%ADD13C,0.06000*%
%ADD14OC8,0.05200*%
%ADD15C,0.06600*%
%ADD16C,0.07000*%
%ADD17OC8,0.07000*%
%ADD18C,0.20000*%
%ADD19C,0.01200*%
%ADD20C,0.04000*%
D10*
X0025619Y0001600D02*
X0025619Y0155301D01*
X0325540Y0155301D01*
X0325540Y0001600D01*
X0025619Y0001600D01*
D11*
X0115619Y0111600D03*
X0115619Y0141600D03*
D12*
X0138019Y0111600D02*
X0143219Y0111600D01*
X0143219Y0101600D02*
X0138019Y0101600D01*
X0138019Y0091600D02*
X0143219Y0091600D01*
X0143219Y0081600D02*
X0138019Y0081600D01*
X0138019Y0071600D02*
X0143219Y0071600D01*
X0143219Y0061600D02*
X0138019Y0061600D01*
X0138019Y0051600D02*
X0143219Y0051600D01*
X0168019Y0051600D02*
X0173219Y0051600D01*
X0173219Y0061600D02*
X0168019Y0061600D01*
X0168019Y0071600D02*
X0173219Y0071600D01*
X0173219Y0081600D02*
X0168019Y0081600D01*
X0168019Y0091600D02*
X0173219Y0091600D01*
X0173219Y0101600D02*
X0168019Y0101600D01*
X0168019Y0111600D02*
X0173219Y0111600D01*
X0198019Y0111600D02*
X0203219Y0111600D01*
X0203219Y0101600D02*
X0198019Y0101600D01*
X0198019Y0091600D02*
X0203219Y0091600D01*
X0203219Y0081600D02*
X0198019Y0081600D01*
X0198019Y0071600D02*
X0203219Y0071600D01*
X0203219Y0061600D02*
X0198019Y0061600D01*
X0198019Y0051600D02*
X0203219Y0051600D01*
X0228019Y0051600D02*
X0233219Y0051600D01*
X0233219Y0061600D02*
X0228019Y0061600D01*
X0228019Y0071600D02*
X0233219Y0071600D01*
X0233219Y0081600D02*
X0228019Y0081600D01*
X0228019Y0091600D02*
X0233219Y0091600D01*
X0233219Y0101600D02*
X0228019Y0101600D01*
X0228019Y0111600D02*
X0233219Y0111600D01*
D13*
X0230619Y0133600D02*
X0230619Y0139600D01*
X0240619Y0139600D02*
X0240619Y0133600D01*
X0250619Y0133600D02*
X0250619Y0139600D01*
X0205619Y0139600D02*
X0205619Y0133600D01*
X0195619Y0133600D02*
X0195619Y0139600D01*
X0185619Y0139600D02*
X0185619Y0133600D01*
X0175619Y0133600D02*
X0175619Y0139600D01*
X0150619Y0139600D02*
X0150619Y0133600D01*
X0140619Y0133600D02*
X0140619Y0139600D01*
D14*
X0245619Y0051600D03*
X0245619Y0021600D03*
X0230619Y0016600D03*
X0220619Y0016600D03*
D15*
X0180619Y0013300D02*
X0180619Y0019900D01*
X0165619Y0019900D02*
X0165619Y0013300D01*
X0150619Y0013300D02*
X0150619Y0019900D01*
X0130619Y0019900D02*
X0130619Y0013300D01*
X0115619Y0013300D02*
X0115619Y0019900D01*
X0100619Y0019900D02*
X0100619Y0013300D01*
D16*
X0070619Y0050057D03*
X0060619Y0054557D03*
X0070619Y0059057D03*
X0080619Y0063557D03*
X0070619Y0068057D03*
X0080619Y0072557D03*
X0070619Y0077057D03*
X0080619Y0081557D03*
X0070619Y0086057D03*
X0080619Y0090557D03*
X0060619Y0090557D03*
X0060619Y0081557D03*
X0060619Y0072557D03*
X0060619Y0063557D03*
X0270619Y0061643D03*
X0280619Y0057143D03*
X0290619Y0052643D03*
X0270619Y0052643D03*
X0290619Y0061643D03*
X0280619Y0066143D03*
X0270619Y0070643D03*
X0280619Y0075143D03*
X0290619Y0070643D03*
X0290619Y0079643D03*
X0280619Y0084143D03*
X0270619Y0079643D03*
X0290619Y0088643D03*
X0280619Y0093143D03*
D17*
X0270619Y0088643D03*
X0080619Y0054557D03*
D18*
X0070619Y0022387D03*
X0280619Y0022387D03*
X0280619Y0120813D03*
X0070619Y0120813D03*
D19*
X0080555Y0115222D02*
X0089413Y0115222D01*
X0088214Y0114024D02*
X0079863Y0114024D01*
X0079741Y0113813D02*
X0081242Y0116412D01*
X0082019Y0119312D01*
X0082019Y0122313D01*
X0081242Y0125213D01*
X0079741Y0127812D01*
X0077619Y0129935D01*
X0075019Y0131436D01*
X0072120Y0132213D01*
X0069118Y0132213D01*
X0066219Y0131436D01*
X0063619Y0129935D01*
X0061497Y0127812D01*
X0059996Y0125213D01*
X0059219Y0122313D01*
X0059219Y0119312D01*
X0059996Y0116412D01*
X0061497Y0113813D01*
X0063619Y0111690D01*
X0066219Y0110189D01*
X0069118Y0109413D01*
X0072120Y0109413D01*
X0075019Y0110189D01*
X0077619Y0111690D01*
X0079741Y0113813D01*
X0078754Y0112825D02*
X0087016Y0112825D01*
X0085817Y0111627D02*
X0077509Y0111627D01*
X0075433Y0110428D02*
X0084619Y0110428D01*
X0083420Y0109230D02*
X0030219Y0109230D01*
X0030219Y0110428D02*
X0065805Y0110428D01*
X0063729Y0111627D02*
X0030219Y0111627D01*
X0030219Y0112825D02*
X0062484Y0112825D01*
X0061375Y0114024D02*
X0030219Y0114024D01*
X0030219Y0115222D02*
X0060683Y0115222D01*
X0059994Y0116421D02*
X0030219Y0116421D01*
X0030219Y0117619D02*
X0059672Y0117619D01*
X0059351Y0118818D02*
X0030219Y0118818D01*
X0030219Y0120016D02*
X0059219Y0120016D01*
X0059219Y0121215D02*
X0030219Y0121215D01*
X0030219Y0122413D02*
X0059246Y0122413D01*
X0059567Y0123612D02*
X0030219Y0123612D01*
X0030219Y0124810D02*
X0059888Y0124810D01*
X0060455Y0126009D02*
X0030219Y0126009D01*
X0030219Y0127207D02*
X0061147Y0127207D01*
X0062090Y0128406D02*
X0030219Y0128406D01*
X0030219Y0129604D02*
X0063289Y0129604D01*
X0065123Y0130803D02*
X0030219Y0130803D01*
X0030219Y0132002D02*
X0068330Y0132002D01*
X0072907Y0132002D02*
X0106192Y0132002D01*
X0107391Y0133200D02*
X0030219Y0133200D01*
X0030219Y0134399D02*
X0108589Y0134399D01*
X0109788Y0135597D02*
X0030219Y0135597D01*
X0030219Y0136796D02*
X0110986Y0136796D01*
X0111619Y0137428D02*
X0065519Y0091328D01*
X0065519Y0091531D01*
X0064773Y0093332D01*
X0063395Y0094711D01*
X0061594Y0095457D01*
X0059644Y0095457D01*
X0057843Y0094711D01*
X0056465Y0093332D01*
X0055719Y0091531D01*
X0055719Y0089582D01*
X0056465Y0087781D01*
X0057843Y0086403D01*
X0058679Y0086057D01*
X0057843Y0085711D01*
X0056465Y0084332D01*
X0055719Y0082531D01*
X0055719Y0080582D01*
X0056465Y0078781D01*
X0057843Y0077403D01*
X0058679Y0077057D01*
X0057843Y0076711D01*
X0056465Y0075332D01*
X0055719Y0073531D01*
X0055719Y0071582D01*
X0056465Y0069781D01*
X0057843Y0068403D01*
X0058679Y0068057D01*
X0057843Y0067711D01*
X0056465Y0066332D01*
X0055719Y0064531D01*
X0055719Y0062582D01*
X0056465Y0060781D01*
X0057843Y0059403D01*
X0058679Y0059057D01*
X0057843Y0058711D01*
X0056465Y0057332D01*
X0055719Y0055531D01*
X0055719Y0053582D01*
X0056465Y0051781D01*
X0057843Y0050403D01*
X0059644Y0049657D01*
X0061594Y0049657D01*
X0063395Y0050403D01*
X0063619Y0050627D01*
X0063619Y0046772D01*
X0064790Y0045600D01*
X0067790Y0042600D01*
X0096790Y0042600D01*
X0114790Y0024600D01*
X0114684Y0024600D01*
X0112957Y0023884D01*
X0111634Y0022562D01*
X0110919Y0020835D01*
X0110919Y0012365D01*
X0111634Y0010638D01*
X0112957Y0009316D01*
X0114684Y0008600D01*
X0116554Y0008600D01*
X0118281Y0009316D01*
X0119178Y0010212D01*
X0122790Y0006600D01*
X0133447Y0006600D01*
X0134619Y0007772D01*
X0145919Y0019072D01*
X0145919Y0012365D01*
X0146634Y0010638D01*
X0147957Y0009316D01*
X0149684Y0008600D01*
X0151554Y0008600D01*
X0153281Y0009316D01*
X0154603Y0010638D01*
X0155319Y0012365D01*
X0155319Y0014600D01*
X0156447Y0014600D01*
X0160919Y0019072D01*
X0160919Y0012365D01*
X0161634Y0010638D01*
X0162957Y0009316D01*
X0164684Y0008600D01*
X0166554Y0008600D01*
X0168281Y0009316D01*
X0169603Y0010638D01*
X0170319Y0012365D01*
X0170319Y0020835D01*
X0169603Y0022562D01*
X0168281Y0023884D01*
X0166554Y0024600D01*
X0166447Y0024600D01*
X0194019Y0052172D01*
X0194019Y0050804D01*
X0194628Y0049334D01*
X0195753Y0048209D01*
X0197223Y0047600D01*
X0204015Y0047600D01*
X0205485Y0048209D01*
X0206610Y0049334D01*
X0207219Y0050804D01*
X0207219Y0052396D01*
X0206720Y0053600D01*
X0224518Y0053600D01*
X0224019Y0052396D01*
X0224019Y0050804D01*
X0224628Y0049334D01*
X0225753Y0048209D01*
X0227223Y0047600D01*
X0234015Y0047600D01*
X0235485Y0048209D01*
X0236610Y0049334D01*
X0236720Y0049600D01*
X0238790Y0049600D01*
X0243619Y0044772D01*
X0244790Y0043600D01*
X0277447Y0043600D01*
X0285719Y0051872D01*
X0285719Y0051669D01*
X0286465Y0049868D01*
X0287843Y0048489D01*
X0289644Y0047743D01*
X0291594Y0047743D01*
X0293395Y0048489D01*
X0294773Y0049868D01*
X0295519Y0051669D01*
X0295519Y0053618D01*
X0294773Y0055419D01*
X0293395Y0056797D01*
X0292559Y0057143D01*
X0293395Y0057489D01*
X0294773Y0058868D01*
X0295519Y0060669D01*
X0295519Y0062618D01*
X0294773Y0064419D01*
X0293395Y0065797D01*
X0292559Y0066143D01*
X0293395Y0066489D01*
X0294773Y0067868D01*
X0295519Y0069669D01*
X0295519Y0071618D01*
X0294773Y0073419D01*
X0293395Y0074797D01*
X0292559Y0075143D01*
X0293395Y0075489D01*
X0294773Y0076868D01*
X0295519Y0078669D01*
X0295519Y0080618D01*
X0294773Y0082419D01*
X0293395Y0083797D01*
X0292559Y0084143D01*
X0293395Y0084489D01*
X0294773Y0085868D01*
X0295519Y0087669D01*
X0295519Y0089618D01*
X0294773Y0091419D01*
X0293395Y0092797D01*
X0291594Y0093543D01*
X0289644Y0093543D01*
X0287843Y0092797D01*
X0287619Y0092573D01*
X0287619Y0096428D01*
X0286447Y0097600D01*
X0283447Y0100600D01*
X0279447Y0100600D01*
X0250847Y0129200D01*
X0251494Y0129200D01*
X0253111Y0129870D01*
X0254349Y0131108D01*
X0255019Y0132725D01*
X0255019Y0140475D01*
X0254349Y0142092D01*
X0253111Y0143330D01*
X0251494Y0144000D01*
X0249744Y0144000D01*
X0249251Y0143796D01*
X0242447Y0150600D01*
X0141790Y0150600D01*
X0140619Y0149428D01*
X0129790Y0138600D01*
X0118841Y0138600D01*
X0120019Y0139777D01*
X0120019Y0141300D01*
X0115919Y0141300D01*
X0115919Y0141900D01*
X0120019Y0141900D01*
X0120019Y0143423D01*
X0117441Y0146000D01*
X0115919Y0146000D01*
X0115919Y0141900D01*
X0115319Y0141900D01*
X0115319Y0146000D01*
X0113796Y0146000D01*
X0111219Y0143423D01*
X0111219Y0141900D01*
X0115319Y0141900D01*
X0115319Y0141300D01*
X0111219Y0141300D01*
X0111219Y0139777D01*
X0112593Y0138403D01*
X0111619Y0137428D01*
X0112185Y0137994D02*
X0030219Y0137994D01*
X0030219Y0139193D02*
X0111804Y0139193D01*
X0111219Y0140391D02*
X0030219Y0140391D01*
X0030219Y0141590D02*
X0115319Y0141590D01*
X0115919Y0141590D02*
X0132780Y0141590D01*
X0133979Y0142788D02*
X0120019Y0142788D01*
X0119455Y0143987D02*
X0135177Y0143987D01*
X0136376Y0145185D02*
X0118256Y0145185D01*
X0115919Y0145185D02*
X0115319Y0145185D01*
X0115319Y0143987D02*
X0115919Y0143987D01*
X0115919Y0142788D02*
X0115319Y0142788D01*
X0111783Y0143987D02*
X0030219Y0143987D01*
X0030219Y0145185D02*
X0112982Y0145185D01*
X0111219Y0142788D02*
X0030219Y0142788D01*
X0030219Y0146384D02*
X0137574Y0146384D01*
X0138773Y0147582D02*
X0030219Y0147582D01*
X0030219Y0148781D02*
X0139971Y0148781D01*
X0141170Y0149979D02*
X0030219Y0149979D01*
X0030219Y0150701D02*
X0320940Y0150701D01*
X0320940Y0006200D01*
X0030219Y0006200D01*
X0030219Y0150701D01*
X0076115Y0130803D02*
X0104993Y0130803D01*
X0103795Y0129604D02*
X0077949Y0129604D01*
X0079148Y0128406D02*
X0102596Y0128406D01*
X0101398Y0127207D02*
X0080090Y0127207D01*
X0080782Y0126009D02*
X0100199Y0126009D01*
X0099001Y0124810D02*
X0081350Y0124810D01*
X0081671Y0123612D02*
X0097802Y0123612D01*
X0096604Y0122413D02*
X0081992Y0122413D01*
X0082019Y0121215D02*
X0095405Y0121215D01*
X0094207Y0120016D02*
X0082019Y0120016D01*
X0081887Y0118818D02*
X0093008Y0118818D01*
X0091810Y0117619D02*
X0081565Y0117619D01*
X0081244Y0116421D02*
X0090611Y0116421D01*
X0093871Y0114024D02*
X0112103Y0114024D01*
X0111419Y0113340D02*
X0111419Y0109860D01*
X0113879Y0107400D01*
X0117359Y0107400D01*
X0119819Y0109860D01*
X0119819Y0113340D01*
X0117359Y0115800D01*
X0113879Y0115800D01*
X0111419Y0113340D01*
X0111419Y0112825D02*
X0092673Y0112825D01*
X0091474Y0111627D02*
X0111419Y0111627D01*
X0111419Y0110428D02*
X0090276Y0110428D01*
X0089077Y0109230D02*
X0112049Y0109230D01*
X0113248Y0108031D02*
X0087879Y0108031D01*
X0086680Y0106833D02*
X0144257Y0106833D01*
X0144219Y0106924D02*
X0144737Y0105674D01*
X0145009Y0105402D01*
X0144831Y0105492D01*
X0144202Y0105697D01*
X0143549Y0105800D01*
X0140819Y0105800D01*
X0140819Y0101800D01*
X0147419Y0101800D01*
X0147419Y0101931D01*
X0147315Y0102584D01*
X0147111Y0103212D01*
X0146811Y0103801D01*
X0146422Y0104336D01*
X0146287Y0104472D01*
X0146943Y0104200D01*
X0148295Y0104200D01*
X0149545Y0104718D01*
X0150501Y0105674D01*
X0151019Y0106924D01*
X0151019Y0108276D01*
X0150501Y0109526D01*
X0149619Y0110408D01*
X0149619Y0117772D01*
X0171019Y0139172D01*
X0171019Y0137000D01*
X0175219Y0137000D01*
X0175219Y0136200D01*
X0176019Y0136200D01*
X0176019Y0137000D01*
X0180219Y0137000D01*
X0180219Y0139962D01*
X0180106Y0140677D01*
X0179882Y0141366D01*
X0179553Y0142011D01*
X0179128Y0142597D01*
X0178616Y0143109D01*
X0178030Y0143534D01*
X0177385Y0143863D01*
X0176696Y0144087D01*
X0176038Y0144191D01*
X0176447Y0144600D01*
X0200790Y0144600D01*
X0198816Y0142625D01*
X0198111Y0143330D01*
X0196494Y0144000D01*
X0194744Y0144000D01*
X0193126Y0143330D01*
X0191889Y0142092D01*
X0191219Y0140475D01*
X0191219Y0135028D01*
X0190019Y0133828D01*
X0190019Y0140475D01*
X0189349Y0142092D01*
X0188111Y0143330D01*
X0186494Y0144000D01*
X0184744Y0144000D01*
X0183126Y0143330D01*
X0181889Y0142092D01*
X0181219Y0140475D01*
X0181219Y0132725D01*
X0181889Y0131108D01*
X0183126Y0129870D01*
X0184744Y0129200D01*
X0186494Y0129200D01*
X0188111Y0129870D01*
X0189349Y0131108D01*
X0189619Y0131759D01*
X0189619Y0123428D01*
X0177411Y0111221D01*
X0177419Y0111269D01*
X0177419Y0111400D01*
X0170819Y0111400D01*
X0170819Y0111800D01*
X0177419Y0111800D01*
X0177419Y0111931D01*
X0177315Y0112584D01*
X0177111Y0113212D01*
X0176811Y0113801D01*
X0176422Y0114336D01*
X0175955Y0114804D01*
X0175420Y0115192D01*
X0174831Y0115492D01*
X0174202Y0115697D01*
X0173549Y0115800D01*
X0170819Y0115800D01*
X0170819Y0111800D01*
X0170419Y0111800D01*
X0170419Y0115800D01*
X0167688Y0115800D01*
X0167035Y0115697D01*
X0166407Y0115492D01*
X0165818Y0115192D01*
X0165283Y0114804D01*
X0164815Y0114336D01*
X0164427Y0113801D01*
X0164127Y0113212D01*
X0163922Y0112584D01*
X0163819Y0111931D01*
X0163819Y0111800D01*
X0170419Y0111800D01*
X0170419Y0111400D01*
X0170819Y0111400D01*
X0170819Y0107400D01*
X0173549Y0107400D01*
X0173598Y0107408D01*
X0171790Y0105600D01*
X0167223Y0105600D01*
X0165753Y0104991D01*
X0164628Y0103866D01*
X0164019Y0102396D01*
X0164019Y0100804D01*
X0164518Y0099600D01*
X0146914Y0099600D01*
X0147111Y0099988D01*
X0147315Y0100616D01*
X0147419Y0101269D01*
X0147419Y0101400D01*
X0140819Y0101400D01*
X0140819Y0101800D01*
X0140419Y0101800D01*
X0140419Y0105800D01*
X0137688Y0105800D01*
X0137035Y0105697D01*
X0136407Y0105492D01*
X0135818Y0105192D01*
X0135283Y0104804D01*
X0134815Y0104336D01*
X0134427Y0103801D01*
X0134127Y0103212D01*
X0133922Y0102584D01*
X0133819Y0101931D01*
X0133819Y0101800D01*
X0140419Y0101800D01*
X0140419Y0101400D01*
X0133819Y0101400D01*
X0133819Y0101269D01*
X0133922Y0100616D01*
X0134127Y0099988D01*
X0134427Y0099399D01*
X0134815Y0098864D01*
X0135283Y0098396D01*
X0135459Y0098268D01*
X0102790Y0065600D01*
X0085076Y0065600D01*
X0084773Y0066332D01*
X0083395Y0067711D01*
X0082559Y0068057D01*
X0083395Y0068403D01*
X0084773Y0069781D01*
X0085519Y0071582D01*
X0085519Y0073531D01*
X0084773Y0075332D01*
X0083395Y0076711D01*
X0082559Y0077057D01*
X0083395Y0077403D01*
X0084773Y0078781D01*
X0085519Y0080582D01*
X0085519Y0082531D01*
X0084773Y0084332D01*
X0083395Y0085711D01*
X0082814Y0085951D01*
X0083292Y0086195D01*
X0083941Y0086667D01*
X0084509Y0087234D01*
X0084981Y0087884D01*
X0085345Y0088599D01*
X0085593Y0089362D01*
X0085719Y0090155D01*
X0085719Y0090271D01*
X0080905Y0090271D01*
X0080905Y0090843D01*
X0080333Y0090843D01*
X0080333Y0095657D01*
X0080218Y0095657D01*
X0079425Y0095531D01*
X0078661Y0095283D01*
X0077946Y0094919D01*
X0077296Y0094447D01*
X0076729Y0093879D01*
X0076257Y0093230D01*
X0075893Y0092514D01*
X0075644Y0091751D01*
X0075519Y0090958D01*
X0075519Y0090843D01*
X0080333Y0090843D01*
X0080333Y0090271D01*
X0075519Y0090271D01*
X0075519Y0090155D01*
X0075644Y0089362D01*
X0075893Y0088599D01*
X0076257Y0087884D01*
X0076729Y0087234D01*
X0077296Y0086667D01*
X0077946Y0086195D01*
X0078424Y0085951D01*
X0077843Y0085711D01*
X0076465Y0084332D01*
X0075719Y0082531D01*
X0075719Y0080582D01*
X0076465Y0078781D01*
X0077843Y0077403D01*
X0078679Y0077057D01*
X0077843Y0076711D01*
X0076465Y0075332D01*
X0075952Y0074095D01*
X0075064Y0074983D01*
X0075519Y0076082D01*
X0075519Y0078031D01*
X0074773Y0079832D01*
X0073395Y0081211D01*
X0072814Y0081451D01*
X0073292Y0081695D01*
X0073941Y0082167D01*
X0074509Y0082734D01*
X0074981Y0083384D01*
X0075345Y0084099D01*
X0075593Y0084862D01*
X0075719Y0085655D01*
X0075719Y0085771D01*
X0070905Y0085771D01*
X0070905Y0086343D01*
X0070905Y0091057D01*
X0070333Y0090486D01*
X0070333Y0086343D01*
X0070905Y0086343D01*
X0075719Y0086343D01*
X0075719Y0086458D01*
X0075593Y0087251D01*
X0075345Y0088014D01*
X0074981Y0088730D01*
X0074509Y0089379D01*
X0073941Y0089947D01*
X0073292Y0090419D01*
X0072577Y0090783D01*
X0071813Y0091031D01*
X0071020Y0091157D01*
X0071004Y0091157D01*
X0114447Y0134600D01*
X0131447Y0134600D01*
X0136019Y0139172D01*
X0136019Y0137000D01*
X0140219Y0137000D01*
X0140219Y0136200D01*
X0141019Y0136200D01*
X0141019Y0137000D01*
X0145219Y0137000D01*
X0145219Y0139962D01*
X0145106Y0140677D01*
X0144882Y0141366D01*
X0144553Y0142011D01*
X0144128Y0142597D01*
X0143616Y0143109D01*
X0143030Y0143534D01*
X0142385Y0143863D01*
X0141696Y0144087D01*
X0141038Y0144191D01*
X0143447Y0146600D01*
X0172790Y0146600D01*
X0145619Y0119428D01*
X0145619Y0114857D01*
X0145485Y0114991D01*
X0144015Y0115600D01*
X0137223Y0115600D01*
X0135753Y0114991D01*
X0134628Y0113866D01*
X0134019Y0112396D01*
X0134019Y0110804D01*
X0134628Y0109334D01*
X0135753Y0108209D01*
X0137223Y0107600D01*
X0144015Y0107600D01*
X0144219Y0107685D01*
X0144219Y0106924D01*
X0144394Y0105634D02*
X0144776Y0105634D01*
X0146323Y0104436D02*
X0146373Y0104436D01*
X0147098Y0103237D02*
X0164368Y0103237D01*
X0164019Y0102039D02*
X0147402Y0102039D01*
X0147351Y0100840D02*
X0164019Y0100840D01*
X0164500Y0099642D02*
X0146935Y0099642D01*
X0140819Y0102039D02*
X0140419Y0102039D01*
X0140619Y0101600D02*
X0138619Y0101600D01*
X0133619Y0106600D01*
X0133619Y0113600D01*
X0140619Y0120600D01*
X0140619Y0136600D01*
X0141019Y0136796D02*
X0146219Y0136796D01*
X0145219Y0136200D02*
X0141019Y0136200D01*
X0141019Y0129006D01*
X0141696Y0129113D01*
X0142385Y0129337D01*
X0143030Y0129666D01*
X0143616Y0130091D01*
X0144128Y0130603D01*
X0144553Y0131189D01*
X0144882Y0131834D01*
X0145106Y0132523D01*
X0145219Y0133238D01*
X0145219Y0136200D01*
X0145219Y0135597D02*
X0146219Y0135597D01*
X0146219Y0134399D02*
X0145219Y0134399D01*
X0145213Y0133200D02*
X0146219Y0133200D01*
X0146219Y0132725D02*
X0146889Y0131108D01*
X0148126Y0129870D01*
X0149744Y0129200D01*
X0151494Y0129200D01*
X0153111Y0129870D01*
X0154349Y0131108D01*
X0155019Y0132725D01*
X0155019Y0140475D01*
X0154349Y0142092D01*
X0153111Y0143330D01*
X0151494Y0144000D01*
X0149744Y0144000D01*
X0148126Y0143330D01*
X0146889Y0142092D01*
X0146219Y0140475D01*
X0146219Y0132725D01*
X0146518Y0132002D02*
X0144936Y0132002D01*
X0144273Y0130803D02*
X0147193Y0130803D01*
X0148767Y0129604D02*
X0142910Y0129604D01*
X0141019Y0129604D02*
X0140219Y0129604D01*
X0140219Y0129006D02*
X0140219Y0136200D01*
X0136019Y0136200D01*
X0136019Y0133238D01*
X0136132Y0132523D01*
X0136356Y0131834D01*
X0136685Y0131189D01*
X0137110Y0130603D01*
X0137622Y0130091D01*
X0138208Y0129666D01*
X0138853Y0129337D01*
X0139542Y0129113D01*
X0140219Y0129006D01*
X0140219Y0130803D02*
X0141019Y0130803D01*
X0141019Y0132002D02*
X0140219Y0132002D01*
X0140219Y0133200D02*
X0141019Y0133200D01*
X0141019Y0134399D02*
X0140219Y0134399D01*
X0140219Y0135597D02*
X0141019Y0135597D01*
X0140219Y0136796D02*
X0133643Y0136796D01*
X0134841Y0137994D02*
X0136019Y0137994D01*
X0136019Y0135597D02*
X0132444Y0135597D01*
X0130619Y0136600D02*
X0142619Y0148600D01*
X0241619Y0148600D01*
X0250619Y0139600D01*
X0250619Y0136600D01*
X0255019Y0136796D02*
X0320940Y0136796D01*
X0320940Y0137994D02*
X0255019Y0137994D01*
X0255019Y0139193D02*
X0320940Y0139193D01*
X0320940Y0140391D02*
X0255019Y0140391D01*
X0254557Y0141590D02*
X0320940Y0141590D01*
X0320940Y0142788D02*
X0253653Y0142788D01*
X0251526Y0143987D02*
X0320940Y0143987D01*
X0320940Y0145185D02*
X0247862Y0145185D01*
X0246664Y0146384D02*
X0320940Y0146384D01*
X0320940Y0147582D02*
X0245465Y0147582D01*
X0244267Y0148781D02*
X0320940Y0148781D01*
X0320940Y0149979D02*
X0243068Y0149979D01*
X0240619Y0146600D02*
X0245619Y0141600D01*
X0245619Y0131600D01*
X0278619Y0098600D01*
X0282619Y0098600D01*
X0285619Y0095600D01*
X0285619Y0089600D01*
X0280619Y0084600D01*
X0280619Y0084143D01*
X0268333Y0084000D02*
X0267843Y0083797D01*
X0266465Y0082419D01*
X0265719Y0080618D01*
X0265719Y0078669D01*
X0266465Y0076868D01*
X0267843Y0075489D01*
X0268679Y0075143D01*
X0267843Y0074797D01*
X0266465Y0073419D01*
X0265719Y0071618D01*
X0265719Y0069669D01*
X0266465Y0067868D01*
X0267843Y0066489D01*
X0268679Y0066143D01*
X0267843Y0065797D01*
X0266465Y0064419D01*
X0265719Y0062618D01*
X0265719Y0060669D01*
X0266465Y0058868D01*
X0267843Y0057489D01*
X0268424Y0057249D01*
X0267946Y0057005D01*
X0267296Y0056533D01*
X0266729Y0055966D01*
X0266257Y0055316D01*
X0265893Y0054601D01*
X0265644Y0053838D01*
X0265519Y0053045D01*
X0265519Y0052929D01*
X0270333Y0052929D01*
X0270333Y0052357D01*
X0265519Y0052357D01*
X0265519Y0052242D01*
X0265644Y0051449D01*
X0265893Y0050686D01*
X0266257Y0049970D01*
X0266526Y0049600D01*
X0250447Y0049600D01*
X0249619Y0050428D01*
X0249619Y0053257D01*
X0247276Y0055600D01*
X0244447Y0055600D01*
X0242447Y0057600D01*
X0239619Y0057600D01*
X0239619Y0075428D01*
X0238447Y0076600D01*
X0236162Y0078886D01*
X0236610Y0079334D01*
X0237219Y0080804D01*
X0237219Y0082396D01*
X0236610Y0083866D01*
X0235485Y0084991D01*
X0234015Y0085600D01*
X0228447Y0085600D01*
X0228447Y0085600D01*
X0263447Y0085600D01*
X0265719Y0087872D01*
X0265719Y0086614D01*
X0268333Y0084000D01*
X0268271Y0084061D02*
X0236415Y0084061D01*
X0237025Y0082863D02*
X0266909Y0082863D01*
X0266152Y0081664D02*
X0237219Y0081664D01*
X0237079Y0080466D02*
X0265719Y0080466D01*
X0265719Y0079267D02*
X0236543Y0079267D01*
X0236979Y0078069D02*
X0265967Y0078069D01*
X0266464Y0076870D02*
X0238177Y0076870D01*
X0239376Y0075671D02*
X0267661Y0075671D01*
X0267519Y0074473D02*
X0239619Y0074473D01*
X0239619Y0073274D02*
X0266405Y0073274D01*
X0265909Y0072076D02*
X0239619Y0072076D01*
X0239619Y0070877D02*
X0265719Y0070877D01*
X0265719Y0069679D02*
X0239619Y0069679D01*
X0239619Y0068480D02*
X0266211Y0068480D01*
X0267051Y0067282D02*
X0239619Y0067282D01*
X0239619Y0066083D02*
X0268534Y0066083D01*
X0266931Y0064885D02*
X0239619Y0064885D01*
X0239619Y0063686D02*
X0266161Y0063686D01*
X0265719Y0062488D02*
X0239619Y0062488D01*
X0239619Y0061289D02*
X0265719Y0061289D01*
X0265958Y0060091D02*
X0239619Y0060091D01*
X0239619Y0058892D02*
X0266455Y0058892D01*
X0267639Y0057694D02*
X0239619Y0057694D01*
X0241619Y0055600D02*
X0237619Y0055600D01*
X0237619Y0074600D01*
X0230619Y0081600D01*
X0231790Y0077600D02*
X0227223Y0077600D01*
X0225753Y0078209D01*
X0224628Y0079334D01*
X0224019Y0080804D01*
X0224019Y0081172D01*
X0218447Y0075600D01*
X0198447Y0075600D01*
X0198447Y0075600D01*
X0204015Y0075600D01*
X0205485Y0074991D01*
X0206610Y0073866D01*
X0207219Y0072396D01*
X0207219Y0072028D01*
X0208790Y0073600D01*
X0224518Y0073600D01*
X0224628Y0073866D01*
X0225753Y0074991D01*
X0227223Y0075600D01*
X0233790Y0075600D01*
X0231790Y0077600D01*
X0232520Y0076870D02*
X0219717Y0076870D01*
X0218519Y0075671D02*
X0233719Y0075671D01*
X0226092Y0078069D02*
X0220916Y0078069D01*
X0222114Y0079267D02*
X0224695Y0079267D01*
X0224159Y0080466D02*
X0223313Y0080466D01*
X0220053Y0082863D02*
X0207025Y0082863D01*
X0207219Y0082396D02*
X0206610Y0083866D01*
X0206162Y0084314D01*
X0224019Y0102172D01*
X0224019Y0100804D01*
X0224628Y0099334D01*
X0225753Y0098209D01*
X0227223Y0097600D01*
X0234015Y0097600D01*
X0235485Y0098209D01*
X0236610Y0099334D01*
X0237219Y0100804D01*
X0237219Y0102396D01*
X0236610Y0103866D01*
X0235485Y0104991D01*
X0234015Y0105600D01*
X0227447Y0105600D01*
X0227447Y0105600D01*
X0236447Y0105600D01*
X0241447Y0110600D01*
X0242619Y0111772D01*
X0242619Y0129666D01*
X0243111Y0129870D01*
X0243816Y0130575D01*
X0276619Y0097772D01*
X0277468Y0096922D01*
X0276465Y0095919D01*
X0276333Y0095600D01*
X0267790Y0095600D01*
X0266619Y0094428D01*
X0261790Y0089600D01*
X0236720Y0089600D01*
X0237219Y0090804D01*
X0237219Y0092396D01*
X0236610Y0093866D01*
X0235485Y0094991D01*
X0234015Y0095600D01*
X0227223Y0095600D01*
X0225753Y0094991D01*
X0224628Y0093866D01*
X0224019Y0092396D01*
X0224019Y0090804D01*
X0224628Y0089334D01*
X0225576Y0088386D01*
X0216790Y0079600D01*
X0206720Y0079600D01*
X0207219Y0080804D01*
X0207219Y0082396D01*
X0207219Y0081664D02*
X0218855Y0081664D01*
X0217656Y0080466D02*
X0207079Y0080466D01*
X0200619Y0081600D02*
X0226619Y0107600D01*
X0235619Y0107600D01*
X0240619Y0112600D01*
X0240619Y0136600D01*
X0235619Y0141600D02*
X0235619Y0131600D01*
X0236619Y0130600D01*
X0236619Y0120600D01*
X0233677Y0118818D02*
X0195619Y0118818D01*
X0195619Y0120016D02*
X0233219Y0120016D01*
X0233219Y0119924D02*
X0233737Y0118674D01*
X0234693Y0117718D01*
X0235943Y0117200D01*
X0237295Y0117200D01*
X0238545Y0117718D01*
X0238619Y0117792D01*
X0238619Y0113428D01*
X0237378Y0112188D01*
X0237315Y0112584D01*
X0237111Y0113212D01*
X0236811Y0113801D01*
X0236422Y0114336D01*
X0235955Y0114804D01*
X0235420Y0115192D01*
X0234831Y0115492D01*
X0234202Y0115697D01*
X0233549Y0115800D01*
X0230819Y0115800D01*
X0230819Y0111800D01*
X0230419Y0111800D01*
X0230419Y0115800D01*
X0227688Y0115800D01*
X0227035Y0115697D01*
X0226407Y0115492D01*
X0225818Y0115192D01*
X0225283Y0114804D01*
X0224815Y0114336D01*
X0224427Y0113801D01*
X0224127Y0113212D01*
X0223922Y0112584D01*
X0223819Y0111931D01*
X0223819Y0111800D01*
X0230419Y0111800D01*
X0230419Y0111400D01*
X0223819Y0111400D01*
X0223819Y0111269D01*
X0223922Y0110616D01*
X0224127Y0109988D01*
X0224427Y0109399D01*
X0224815Y0108864D01*
X0224935Y0108744D01*
X0224619Y0108428D01*
X0207219Y0091028D01*
X0207219Y0092396D01*
X0206610Y0093866D01*
X0205485Y0094991D01*
X0204015Y0095600D01*
X0197223Y0095600D01*
X0195753Y0094991D01*
X0195619Y0094857D01*
X0195619Y0098343D01*
X0195753Y0098209D01*
X0197223Y0097600D01*
X0204015Y0097600D01*
X0205485Y0098209D01*
X0206610Y0099334D01*
X0207219Y0100804D01*
X0207219Y0102396D01*
X0206610Y0103866D01*
X0205485Y0104991D01*
X0204015Y0105600D01*
X0197223Y0105600D01*
X0195753Y0104991D01*
X0195619Y0104857D01*
X0195619Y0108343D01*
X0195753Y0108209D01*
X0197223Y0107600D01*
X0204015Y0107600D01*
X0205485Y0108209D01*
X0206610Y0109334D01*
X0207219Y0110804D01*
X0207219Y0112396D01*
X0206610Y0113866D01*
X0205485Y0114991D01*
X0204015Y0115600D01*
X0197223Y0115600D01*
X0195753Y0114991D01*
X0195619Y0114857D01*
X0195619Y0123772D01*
X0202422Y0130575D01*
X0203126Y0129870D01*
X0204744Y0129200D01*
X0206494Y0129200D01*
X0208111Y0129870D01*
X0209349Y0131108D01*
X0210019Y0132725D01*
X0210019Y0140475D01*
X0209349Y0142092D01*
X0208841Y0142600D01*
X0227114Y0142600D01*
X0227110Y0142597D01*
X0226685Y0142011D01*
X0226356Y0141366D01*
X0226132Y0140677D01*
X0226019Y0139962D01*
X0226019Y0137000D01*
X0230219Y0137000D01*
X0230219Y0136200D01*
X0231019Y0136200D01*
X0231019Y0129006D01*
X0231696Y0129113D01*
X0232385Y0129337D01*
X0233030Y0129666D01*
X0233616Y0130091D01*
X0233957Y0130433D01*
X0234619Y0129772D01*
X0234619Y0123408D01*
X0233737Y0122526D01*
X0233219Y0121276D01*
X0233219Y0119924D01*
X0233219Y0121215D02*
X0195619Y0121215D01*
X0195619Y0122413D02*
X0233690Y0122413D01*
X0234619Y0123612D02*
X0195619Y0123612D01*
X0196658Y0124810D02*
X0234619Y0124810D01*
X0234619Y0126009D02*
X0197856Y0126009D01*
X0199055Y0127207D02*
X0234619Y0127207D01*
X0234619Y0128406D02*
X0200253Y0128406D01*
X0201452Y0129604D02*
X0203767Y0129604D01*
X0207471Y0129604D02*
X0228328Y0129604D01*
X0228208Y0129666D02*
X0228853Y0129337D01*
X0229542Y0129113D01*
X0230219Y0129006D01*
X0230219Y0136200D01*
X0226019Y0136200D01*
X0226019Y0133238D01*
X0226132Y0132523D01*
X0226356Y0131834D01*
X0226685Y0131189D01*
X0227110Y0130603D01*
X0227622Y0130091D01*
X0228208Y0129666D01*
X0226965Y0130803D02*
X0209044Y0130803D01*
X0209719Y0132002D02*
X0226302Y0132002D01*
X0226025Y0133200D02*
X0210019Y0133200D01*
X0210019Y0134399D02*
X0226019Y0134399D01*
X0226019Y0135597D02*
X0210019Y0135597D01*
X0210019Y0136796D02*
X0230219Y0136796D01*
X0230619Y0136600D02*
X0230619Y0111600D01*
X0230419Y0111627D02*
X0207219Y0111627D01*
X0207063Y0110428D02*
X0223983Y0110428D01*
X0224549Y0109230D02*
X0206506Y0109230D01*
X0205056Y0108031D02*
X0224222Y0108031D01*
X0223023Y0106833D02*
X0195619Y0106833D01*
X0195619Y0108031D02*
X0196182Y0108031D01*
X0195619Y0105634D02*
X0221825Y0105634D01*
X0220626Y0104436D02*
X0206040Y0104436D01*
X0206870Y0103237D02*
X0219428Y0103237D01*
X0218229Y0102039D02*
X0207219Y0102039D01*
X0207219Y0100840D02*
X0217031Y0100840D01*
X0215832Y0099642D02*
X0206737Y0099642D01*
X0205719Y0098443D02*
X0214634Y0098443D01*
X0213435Y0097245D02*
X0195619Y0097245D01*
X0195619Y0096046D02*
X0212237Y0096046D01*
X0211038Y0094848D02*
X0205628Y0094848D01*
X0206700Y0093649D02*
X0209840Y0093649D01*
X0208641Y0092451D02*
X0207196Y0092451D01*
X0207219Y0091252D02*
X0207443Y0091252D01*
X0211901Y0090054D02*
X0224330Y0090054D01*
X0224019Y0091252D02*
X0213099Y0091252D01*
X0214298Y0092451D02*
X0224042Y0092451D01*
X0224538Y0093649D02*
X0215496Y0093649D01*
X0216695Y0094848D02*
X0225610Y0094848D01*
X0225519Y0098443D02*
X0220291Y0098443D01*
X0221489Y0099642D02*
X0224500Y0099642D01*
X0224019Y0100840D02*
X0222688Y0100840D01*
X0223886Y0102039D02*
X0224019Y0102039D01*
X0219092Y0097245D02*
X0277146Y0097245D01*
X0276592Y0096046D02*
X0217893Y0096046D01*
X0210702Y0088855D02*
X0225107Y0088855D01*
X0224847Y0087657D02*
X0209504Y0087657D01*
X0208305Y0086458D02*
X0223649Y0086458D01*
X0222450Y0085260D02*
X0207107Y0085260D01*
X0206415Y0084061D02*
X0221252Y0084061D01*
X0227619Y0087600D02*
X0262619Y0087600D01*
X0268619Y0093600D01*
X0280619Y0093600D01*
X0280619Y0093143D01*
X0287619Y0093649D02*
X0320940Y0093649D01*
X0320940Y0092451D02*
X0293741Y0092451D01*
X0294842Y0091252D02*
X0320940Y0091252D01*
X0320940Y0090054D02*
X0295338Y0090054D01*
X0295519Y0088855D02*
X0320940Y0088855D01*
X0320940Y0087657D02*
X0295514Y0087657D01*
X0295017Y0086458D02*
X0320940Y0086458D01*
X0320940Y0085260D02*
X0294165Y0085260D01*
X0292758Y0084061D02*
X0320940Y0084061D01*
X0320940Y0082863D02*
X0294329Y0082863D01*
X0295086Y0081664D02*
X0320940Y0081664D01*
X0320940Y0080466D02*
X0295519Y0080466D01*
X0295519Y0079267D02*
X0320940Y0079267D01*
X0320940Y0078069D02*
X0295270Y0078069D01*
X0294774Y0076870D02*
X0320940Y0076870D01*
X0320940Y0075671D02*
X0293577Y0075671D01*
X0293719Y0074473D02*
X0320940Y0074473D01*
X0320940Y0073274D02*
X0294833Y0073274D01*
X0295329Y0072076D02*
X0320940Y0072076D01*
X0320940Y0070877D02*
X0295519Y0070877D01*
X0295519Y0069679D02*
X0320940Y0069679D01*
X0320940Y0068480D02*
X0295027Y0068480D01*
X0294187Y0067282D02*
X0320940Y0067282D01*
X0320940Y0066083D02*
X0292704Y0066083D01*
X0294307Y0064885D02*
X0320940Y0064885D01*
X0320940Y0063686D02*
X0295076Y0063686D01*
X0295519Y0062488D02*
X0320940Y0062488D01*
X0320940Y0061289D02*
X0295519Y0061289D01*
X0295280Y0060091D02*
X0320940Y0060091D01*
X0320940Y0058892D02*
X0294783Y0058892D01*
X0293599Y0057694D02*
X0320940Y0057694D01*
X0320940Y0056495D02*
X0293697Y0056495D01*
X0294823Y0055297D02*
X0320940Y0055297D01*
X0320940Y0054098D02*
X0295320Y0054098D01*
X0295519Y0052900D02*
X0320940Y0052900D01*
X0320940Y0051701D02*
X0295519Y0051701D01*
X0295036Y0050503D02*
X0320940Y0050503D01*
X0320940Y0049304D02*
X0294209Y0049304D01*
X0292469Y0048106D02*
X0320940Y0048106D01*
X0320940Y0046907D02*
X0280755Y0046907D01*
X0281953Y0048106D02*
X0288769Y0048106D01*
X0287028Y0049304D02*
X0283152Y0049304D01*
X0284350Y0050503D02*
X0286202Y0050503D01*
X0285719Y0051701D02*
X0285549Y0051701D01*
X0279556Y0045709D02*
X0320940Y0045709D01*
X0320940Y0044510D02*
X0278357Y0044510D01*
X0276619Y0045600D02*
X0290619Y0059600D01*
X0290619Y0061643D01*
X0280619Y0065600D02*
X0280619Y0066143D01*
X0280619Y0065600D02*
X0275619Y0060600D01*
X0275619Y0050600D01*
X0272619Y0047600D01*
X0249619Y0047600D01*
X0245619Y0051600D01*
X0241619Y0055600D01*
X0243552Y0056495D02*
X0267258Y0056495D01*
X0266247Y0055297D02*
X0247579Y0055297D01*
X0248777Y0054098D02*
X0265729Y0054098D01*
X0270333Y0052900D02*
X0249619Y0052900D01*
X0249619Y0051701D02*
X0265605Y0051701D01*
X0265986Y0050503D02*
X0249619Y0050503D01*
X0245619Y0045600D02*
X0276619Y0045600D01*
X0279118Y0033787D02*
X0276219Y0033010D01*
X0273619Y0031510D01*
X0271497Y0029387D01*
X0269996Y0026788D01*
X0269219Y0023888D01*
X0269219Y0020887D01*
X0269996Y0017987D01*
X0271497Y0015388D01*
X0273619Y0013265D01*
X0276219Y0011764D01*
X0279118Y0010987D01*
X0282120Y0010987D01*
X0285019Y0011764D01*
X0287619Y0013265D01*
X0289741Y0015388D01*
X0291242Y0017987D01*
X0292019Y0020887D01*
X0292019Y0023888D01*
X0291242Y0026788D01*
X0289741Y0029387D01*
X0287619Y0031510D01*
X0285019Y0033010D01*
X0282120Y0033787D01*
X0279118Y0033787D01*
X0278880Y0033724D02*
X0175571Y0033724D01*
X0176769Y0034922D02*
X0320940Y0034922D01*
X0320940Y0033724D02*
X0282358Y0033724D01*
X0285860Y0032525D02*
X0320940Y0032525D01*
X0320940Y0031327D02*
X0287802Y0031327D01*
X0289000Y0030128D02*
X0320940Y0030128D01*
X0320940Y0028930D02*
X0290005Y0028930D01*
X0290697Y0027731D02*
X0320940Y0027731D01*
X0320940Y0026533D02*
X0291310Y0026533D01*
X0291631Y0025334D02*
X0320940Y0025334D01*
X0320940Y0024135D02*
X0291953Y0024135D01*
X0292019Y0022937D02*
X0320940Y0022937D01*
X0320940Y0021738D02*
X0292019Y0021738D01*
X0291926Y0020540D02*
X0320940Y0020540D01*
X0320940Y0019341D02*
X0291605Y0019341D01*
X0291284Y0018143D02*
X0320940Y0018143D01*
X0320940Y0016944D02*
X0290640Y0016944D01*
X0289948Y0015746D02*
X0320940Y0015746D01*
X0320940Y0014547D02*
X0288901Y0014547D01*
X0287702Y0013349D02*
X0320940Y0013349D01*
X0320940Y0012150D02*
X0285688Y0012150D01*
X0275550Y0012150D02*
X0185230Y0012150D01*
X0185319Y0012365D02*
X0185319Y0020835D01*
X0184603Y0022562D01*
X0183281Y0023884D01*
X0181554Y0024600D01*
X0179684Y0024600D01*
X0177957Y0023884D01*
X0176634Y0022562D01*
X0175919Y0020835D01*
X0175919Y0012365D01*
X0176634Y0010638D01*
X0177957Y0009316D01*
X0179684Y0008600D01*
X0181554Y0008600D01*
X0183281Y0009316D01*
X0184603Y0010638D01*
X0185319Y0012365D01*
X0185319Y0013349D02*
X0217930Y0013349D01*
X0218879Y0012400D02*
X0216419Y0014860D01*
X0216419Y0016400D01*
X0220419Y0016400D01*
X0220819Y0016400D01*
X0220819Y0016800D01*
X0224819Y0016800D01*
X0224819Y0018340D01*
X0222359Y0020800D01*
X0220819Y0020800D01*
X0220819Y0016800D01*
X0220419Y0016800D01*
X0220419Y0020800D01*
X0218879Y0020800D01*
X0216419Y0018340D01*
X0216419Y0016800D01*
X0220419Y0016800D01*
X0220419Y0016400D01*
X0220419Y0012400D01*
X0218879Y0012400D01*
X0220419Y0013349D02*
X0220819Y0013349D01*
X0220819Y0012400D02*
X0222359Y0012400D01*
X0224819Y0014860D01*
X0224819Y0016400D01*
X0220819Y0016400D01*
X0220819Y0012400D01*
X0223307Y0013349D02*
X0228213Y0013349D01*
X0228962Y0012600D02*
X0226619Y0014943D01*
X0226619Y0018257D01*
X0228962Y0020600D01*
X0232276Y0020600D01*
X0234619Y0018257D01*
X0234619Y0014943D01*
X0232276Y0012600D01*
X0228962Y0012600D01*
X0227015Y0014547D02*
X0224506Y0014547D01*
X0224819Y0015746D02*
X0226619Y0015746D01*
X0226619Y0016944D02*
X0224819Y0016944D01*
X0224819Y0018143D02*
X0226619Y0018143D01*
X0227704Y0019341D02*
X0223817Y0019341D01*
X0222619Y0020540D02*
X0228902Y0020540D01*
X0232336Y0020540D02*
X0241619Y0020540D01*
X0241619Y0019943D02*
X0243962Y0017600D01*
X0247276Y0017600D01*
X0249619Y0019943D01*
X0249619Y0023257D01*
X0247276Y0025600D01*
X0243962Y0025600D01*
X0241619Y0023257D01*
X0241619Y0019943D01*
X0242221Y0019341D02*
X0233534Y0019341D01*
X0234619Y0018143D02*
X0243419Y0018143D01*
X0247819Y0018143D02*
X0269954Y0018143D01*
X0269633Y0019341D02*
X0249017Y0019341D01*
X0249619Y0020540D02*
X0269312Y0020540D01*
X0269219Y0021738D02*
X0249619Y0021738D01*
X0249619Y0022937D02*
X0269219Y0022937D01*
X0269285Y0024135D02*
X0248740Y0024135D01*
X0247542Y0025334D02*
X0269606Y0025334D01*
X0269927Y0026533D02*
X0168380Y0026533D01*
X0169578Y0027731D02*
X0270540Y0027731D01*
X0271232Y0028930D02*
X0170777Y0028930D01*
X0171975Y0030128D02*
X0272238Y0030128D01*
X0273436Y0031327D02*
X0173174Y0031327D01*
X0174372Y0032525D02*
X0275378Y0032525D01*
X0243696Y0025334D02*
X0167181Y0025334D01*
X0167675Y0024135D02*
X0178563Y0024135D01*
X0177009Y0022937D02*
X0169229Y0022937D01*
X0169945Y0021738D02*
X0176293Y0021738D01*
X0175919Y0020540D02*
X0170319Y0020540D01*
X0170319Y0019341D02*
X0175919Y0019341D01*
X0175919Y0018143D02*
X0170319Y0018143D01*
X0170319Y0016944D02*
X0175919Y0016944D01*
X0175919Y0015746D02*
X0170319Y0015746D01*
X0170319Y0014547D02*
X0175919Y0014547D01*
X0175919Y0013349D02*
X0170319Y0013349D01*
X0170230Y0012150D02*
X0176008Y0012150D01*
X0176504Y0010952D02*
X0169734Y0010952D01*
X0168719Y0009753D02*
X0177519Y0009753D01*
X0183719Y0009753D02*
X0320940Y0009753D01*
X0320940Y0008555D02*
X0135402Y0008555D01*
X0134204Y0007356D02*
X0320940Y0007356D01*
X0320940Y0010952D02*
X0184734Y0010952D01*
X0185319Y0014547D02*
X0216732Y0014547D01*
X0216419Y0015746D02*
X0185319Y0015746D01*
X0185319Y0016944D02*
X0216419Y0016944D01*
X0216419Y0018143D02*
X0185319Y0018143D01*
X0185319Y0019341D02*
X0217421Y0019341D01*
X0218619Y0020540D02*
X0185319Y0020540D01*
X0184945Y0021738D02*
X0241619Y0021738D01*
X0241619Y0022937D02*
X0184229Y0022937D01*
X0182675Y0024135D02*
X0242498Y0024135D01*
X0234619Y0016944D02*
X0270598Y0016944D01*
X0271290Y0015746D02*
X0234619Y0015746D01*
X0234223Y0014547D02*
X0272337Y0014547D01*
X0273535Y0013349D02*
X0233025Y0013349D01*
X0220819Y0014547D02*
X0220419Y0014547D01*
X0220419Y0015746D02*
X0220819Y0015746D01*
X0220819Y0016944D02*
X0220419Y0016944D01*
X0220419Y0018143D02*
X0220819Y0018143D01*
X0220819Y0019341D02*
X0220419Y0019341D01*
X0220419Y0020540D02*
X0220819Y0020540D01*
X0180365Y0038518D02*
X0320940Y0038518D01*
X0320940Y0039716D02*
X0181563Y0039716D01*
X0182762Y0040915D02*
X0320940Y0040915D01*
X0320940Y0042113D02*
X0183960Y0042113D01*
X0185159Y0043312D02*
X0320940Y0043312D01*
X0320940Y0037319D02*
X0179166Y0037319D01*
X0177968Y0036121D02*
X0320940Y0036121D01*
X0245619Y0045600D02*
X0239619Y0051600D01*
X0230619Y0051600D01*
X0235235Y0048106D02*
X0240285Y0048106D01*
X0239086Y0049304D02*
X0236580Y0049304D01*
X0241483Y0046907D02*
X0188755Y0046907D01*
X0189953Y0048106D02*
X0196002Y0048106D01*
X0194658Y0049304D02*
X0191152Y0049304D01*
X0192350Y0050503D02*
X0194144Y0050503D01*
X0194019Y0051701D02*
X0193549Y0051701D01*
X0190289Y0054098D02*
X0184946Y0054098D01*
X0186144Y0055297D02*
X0191487Y0055297D01*
X0192686Y0056495D02*
X0187343Y0056495D01*
X0188541Y0057694D02*
X0193884Y0057694D01*
X0194619Y0058428D02*
X0155319Y0019128D01*
X0155319Y0020835D01*
X0154603Y0022562D01*
X0154006Y0023159D01*
X0154619Y0023772D01*
X0194447Y0063600D01*
X0194518Y0063600D01*
X0194019Y0062396D01*
X0194019Y0060804D01*
X0194628Y0059334D01*
X0195076Y0058886D01*
X0194619Y0058428D01*
X0195070Y0058892D02*
X0189740Y0058892D01*
X0190938Y0060091D02*
X0194314Y0060091D01*
X0194019Y0061289D02*
X0192137Y0061289D01*
X0193335Y0062488D02*
X0194057Y0062488D01*
X0193619Y0065600D02*
X0152619Y0024600D01*
X0148619Y0024600D01*
X0132619Y0008600D01*
X0123619Y0008600D01*
X0115619Y0016600D01*
X0110919Y0016944D02*
X0105319Y0016944D01*
X0105319Y0015746D02*
X0110919Y0015746D01*
X0110919Y0014547D02*
X0105319Y0014547D01*
X0105319Y0013349D02*
X0110919Y0013349D01*
X0111008Y0012150D02*
X0105230Y0012150D01*
X0105319Y0012365D02*
X0105319Y0020835D01*
X0104603Y0022562D01*
X0103281Y0023884D01*
X0101554Y0024600D01*
X0099684Y0024600D01*
X0097957Y0023884D01*
X0096634Y0022562D01*
X0095919Y0020835D01*
X0095919Y0012365D01*
X0096634Y0010638D01*
X0097957Y0009316D01*
X0099684Y0008600D01*
X0101554Y0008600D01*
X0103281Y0009316D01*
X0104603Y0010638D01*
X0105319Y0012365D01*
X0104734Y0010952D02*
X0111504Y0010952D01*
X0112519Y0009753D02*
X0103719Y0009753D01*
X0097519Y0009753D02*
X0030219Y0009753D01*
X0030219Y0008555D02*
X0120836Y0008555D01*
X0122034Y0007356D02*
X0030219Y0007356D01*
X0030219Y0010952D02*
X0096504Y0010952D01*
X0096008Y0012150D02*
X0075688Y0012150D01*
X0075019Y0011764D02*
X0077619Y0013265D01*
X0079741Y0015388D01*
X0081242Y0017987D01*
X0082019Y0020887D01*
X0082019Y0023888D01*
X0081242Y0026788D01*
X0079741Y0029387D01*
X0077619Y0031510D01*
X0075019Y0033010D01*
X0072120Y0033787D01*
X0069118Y0033787D01*
X0066219Y0033010D01*
X0063619Y0031510D01*
X0061497Y0029387D01*
X0059996Y0026788D01*
X0059219Y0023888D01*
X0059219Y0020887D01*
X0059996Y0017987D01*
X0061497Y0015388D01*
X0063619Y0013265D01*
X0066219Y0011764D01*
X0069118Y0010987D01*
X0072120Y0010987D01*
X0075019Y0011764D01*
X0077702Y0013349D02*
X0095919Y0013349D01*
X0095919Y0014547D02*
X0078901Y0014547D01*
X0079948Y0015746D02*
X0095919Y0015746D01*
X0095919Y0016944D02*
X0080640Y0016944D01*
X0081284Y0018143D02*
X0095919Y0018143D01*
X0095919Y0019341D02*
X0081605Y0019341D01*
X0081926Y0020540D02*
X0095919Y0020540D01*
X0096293Y0021738D02*
X0082019Y0021738D01*
X0082019Y0022937D02*
X0097009Y0022937D01*
X0098563Y0024135D02*
X0081953Y0024135D01*
X0081631Y0025334D02*
X0114056Y0025334D01*
X0113563Y0024135D02*
X0102675Y0024135D01*
X0104229Y0022937D02*
X0112009Y0022937D01*
X0111293Y0021738D02*
X0104945Y0021738D01*
X0105319Y0020540D02*
X0110919Y0020540D01*
X0110919Y0019341D02*
X0105319Y0019341D01*
X0105319Y0018143D02*
X0110919Y0018143D01*
X0122110Y0022937D02*
X0127009Y0022937D01*
X0126634Y0022562D02*
X0125919Y0020835D01*
X0125919Y0019128D01*
X0099619Y0045428D01*
X0099447Y0045600D01*
X0148447Y0045600D01*
X0163860Y0061012D01*
X0163922Y0060616D01*
X0164127Y0059988D01*
X0164427Y0059399D01*
X0164815Y0058864D01*
X0165283Y0058396D01*
X0165818Y0058008D01*
X0166407Y0057708D01*
X0167035Y0057503D01*
X0167688Y0057400D01*
X0170419Y0057400D01*
X0170419Y0061400D01*
X0170819Y0061400D01*
X0170819Y0061800D01*
X0177419Y0061800D01*
X0177419Y0061931D01*
X0177315Y0062584D01*
X0177111Y0063212D01*
X0176914Y0063600D01*
X0186447Y0063600D01*
X0194019Y0071172D01*
X0194019Y0070804D01*
X0194628Y0069334D01*
X0195753Y0068209D01*
X0197223Y0067600D01*
X0202790Y0067600D01*
X0192790Y0067600D01*
X0177219Y0052028D01*
X0177219Y0052396D01*
X0176610Y0053866D01*
X0175485Y0054991D01*
X0174015Y0055600D01*
X0167223Y0055600D01*
X0165753Y0054991D01*
X0164628Y0053866D01*
X0164019Y0052396D01*
X0164019Y0050804D01*
X0164628Y0049334D01*
X0165753Y0048209D01*
X0167223Y0047600D01*
X0172790Y0047600D01*
X0151790Y0026600D01*
X0147790Y0026600D01*
X0135319Y0014128D01*
X0135319Y0020835D01*
X0134603Y0022562D01*
X0133281Y0023884D01*
X0131554Y0024600D01*
X0129684Y0024600D01*
X0127957Y0023884D01*
X0126634Y0022562D01*
X0126293Y0021738D02*
X0123309Y0021738D01*
X0124507Y0020540D02*
X0125919Y0020540D01*
X0125919Y0019341D02*
X0125706Y0019341D01*
X0125619Y0016600D02*
X0097619Y0044600D01*
X0068619Y0044600D01*
X0065619Y0047600D01*
X0065619Y0066600D01*
X0060619Y0071600D01*
X0060619Y0072557D01*
X0056109Y0074473D02*
X0030219Y0074473D01*
X0030219Y0075671D02*
X0056804Y0075671D01*
X0058228Y0076870D02*
X0030219Y0076870D01*
X0030219Y0078069D02*
X0057177Y0078069D01*
X0056264Y0079267D02*
X0030219Y0079267D01*
X0030219Y0080466D02*
X0055767Y0080466D01*
X0055719Y0081664D02*
X0030219Y0081664D01*
X0030219Y0082863D02*
X0055856Y0082863D01*
X0056353Y0084061D02*
X0030219Y0084061D01*
X0030219Y0085260D02*
X0057392Y0085260D01*
X0057788Y0086458D02*
X0030219Y0086458D01*
X0030219Y0087657D02*
X0056589Y0087657D01*
X0056020Y0088855D02*
X0030219Y0088855D01*
X0030219Y0090054D02*
X0055719Y0090054D01*
X0055719Y0091252D02*
X0030219Y0091252D01*
X0030219Y0092451D02*
X0056100Y0092451D01*
X0056782Y0093649D02*
X0030219Y0093649D01*
X0030219Y0094848D02*
X0058174Y0094848D01*
X0063064Y0094848D02*
X0069038Y0094848D01*
X0070237Y0096046D02*
X0030219Y0096046D01*
X0030219Y0097245D02*
X0071435Y0097245D01*
X0072634Y0098443D02*
X0030219Y0098443D01*
X0030219Y0099642D02*
X0073832Y0099642D01*
X0075031Y0100840D02*
X0030219Y0100840D01*
X0030219Y0102039D02*
X0076229Y0102039D01*
X0077428Y0103237D02*
X0030219Y0103237D01*
X0030219Y0104436D02*
X0078626Y0104436D01*
X0079825Y0105634D02*
X0030219Y0105634D01*
X0030219Y0106833D02*
X0081023Y0106833D01*
X0082222Y0108031D02*
X0030219Y0108031D01*
X0064456Y0093649D02*
X0067840Y0093649D01*
X0066641Y0092451D02*
X0065138Y0092451D01*
X0070333Y0090054D02*
X0070905Y0090054D01*
X0070905Y0088855D02*
X0070333Y0088855D01*
X0070333Y0087657D02*
X0070905Y0087657D01*
X0070619Y0086600D02*
X0070619Y0086057D01*
X0070333Y0086458D02*
X0070905Y0086458D01*
X0070619Y0086600D02*
X0077619Y0086600D01*
X0080619Y0089600D01*
X0080619Y0090557D01*
X0080619Y0090600D01*
X0127619Y0090600D01*
X0138619Y0101600D01*
X0140419Y0103237D02*
X0140819Y0103237D01*
X0140819Y0104436D02*
X0140419Y0104436D01*
X0140419Y0105634D02*
X0140819Y0105634D01*
X0136844Y0105634D02*
X0085482Y0105634D01*
X0084283Y0104436D02*
X0134915Y0104436D01*
X0134139Y0103237D02*
X0083085Y0103237D01*
X0081886Y0102039D02*
X0133836Y0102039D01*
X0133887Y0100840D02*
X0080688Y0100840D01*
X0079489Y0099642D02*
X0134303Y0099642D01*
X0135236Y0098443D02*
X0078291Y0098443D01*
X0077092Y0097245D02*
X0134435Y0097245D01*
X0133237Y0096046D02*
X0075893Y0096046D01*
X0074695Y0094848D02*
X0077848Y0094848D01*
X0076562Y0093649D02*
X0073496Y0093649D01*
X0072298Y0092451D02*
X0075872Y0092451D01*
X0075565Y0091252D02*
X0071099Y0091252D01*
X0073794Y0090054D02*
X0075535Y0090054D01*
X0075809Y0088855D02*
X0074890Y0088855D01*
X0075462Y0087657D02*
X0076422Y0087657D01*
X0075719Y0086458D02*
X0077584Y0086458D01*
X0077392Y0085260D02*
X0075656Y0085260D01*
X0075326Y0084061D02*
X0076353Y0084061D01*
X0075856Y0082863D02*
X0074602Y0082863D01*
X0075719Y0081664D02*
X0073232Y0081664D01*
X0074140Y0080466D02*
X0075767Y0080466D01*
X0076264Y0079267D02*
X0075007Y0079267D01*
X0075504Y0078069D02*
X0077177Y0078069D01*
X0078228Y0076870D02*
X0075519Y0076870D01*
X0075349Y0075671D02*
X0076804Y0075671D01*
X0076109Y0074473D02*
X0075574Y0074473D01*
X0075619Y0071600D02*
X0070619Y0076600D01*
X0070619Y0077057D01*
X0060619Y0081557D02*
X0060619Y0083600D01*
X0113619Y0136600D01*
X0130619Y0136600D01*
X0136019Y0134399D02*
X0114246Y0134399D01*
X0113047Y0133200D02*
X0136025Y0133200D01*
X0136302Y0132002D02*
X0111849Y0132002D01*
X0110650Y0130803D02*
X0136965Y0130803D01*
X0138328Y0129604D02*
X0109452Y0129604D01*
X0108253Y0128406D02*
X0154596Y0128406D01*
X0153398Y0127207D02*
X0107055Y0127207D01*
X0105856Y0126009D02*
X0152199Y0126009D01*
X0151001Y0124810D02*
X0104658Y0124810D01*
X0103459Y0123612D02*
X0149802Y0123612D01*
X0148604Y0122413D02*
X0102261Y0122413D01*
X0101062Y0121215D02*
X0147405Y0121215D01*
X0146207Y0120016D02*
X0099864Y0120016D01*
X0098665Y0118818D02*
X0145619Y0118818D01*
X0145619Y0117619D02*
X0097467Y0117619D01*
X0096268Y0116421D02*
X0145619Y0116421D01*
X0145619Y0115222D02*
X0144926Y0115222D01*
X0149619Y0115222D02*
X0165877Y0115222D01*
X0164588Y0114024D02*
X0149619Y0114024D01*
X0149619Y0112825D02*
X0164001Y0112825D01*
X0163819Y0111400D02*
X0163819Y0111269D01*
X0163922Y0110616D01*
X0164127Y0109988D01*
X0164427Y0109399D01*
X0164815Y0108864D01*
X0165283Y0108396D01*
X0165818Y0108008D01*
X0166407Y0107708D01*
X0167035Y0107503D01*
X0167688Y0107400D01*
X0170419Y0107400D01*
X0170419Y0111400D01*
X0163819Y0111400D01*
X0163983Y0110428D02*
X0149619Y0110428D01*
X0149619Y0111627D02*
X0170419Y0111627D01*
X0170619Y0111600D02*
X0175619Y0116600D01*
X0175619Y0136600D01*
X0176019Y0136796D02*
X0181219Y0136796D01*
X0180219Y0136200D02*
X0176019Y0136200D01*
X0176019Y0129006D01*
X0176696Y0129113D01*
X0177385Y0129337D01*
X0178030Y0129666D01*
X0178616Y0130091D01*
X0179128Y0130603D01*
X0179553Y0131189D01*
X0179882Y0131834D01*
X0180106Y0132523D01*
X0180219Y0133238D01*
X0180219Y0136200D01*
X0180219Y0135597D02*
X0181219Y0135597D01*
X0181219Y0134399D02*
X0180219Y0134399D01*
X0180213Y0133200D02*
X0181219Y0133200D01*
X0181518Y0132002D02*
X0179936Y0132002D01*
X0179273Y0130803D02*
X0182193Y0130803D01*
X0183767Y0129604D02*
X0177910Y0129604D01*
X0176019Y0129604D02*
X0175219Y0129604D01*
X0175219Y0129006D02*
X0175219Y0136200D01*
X0171019Y0136200D01*
X0171019Y0133238D01*
X0171132Y0132523D01*
X0171356Y0131834D01*
X0171685Y0131189D01*
X0172110Y0130603D01*
X0172622Y0130091D01*
X0173208Y0129666D01*
X0173853Y0129337D01*
X0174542Y0129113D01*
X0175219Y0129006D01*
X0175219Y0130803D02*
X0176019Y0130803D01*
X0176019Y0132002D02*
X0175219Y0132002D01*
X0175219Y0133200D02*
X0176019Y0133200D01*
X0176019Y0134399D02*
X0175219Y0134399D01*
X0175219Y0135597D02*
X0176019Y0135597D01*
X0175219Y0136796D02*
X0168643Y0136796D01*
X0169841Y0137994D02*
X0171019Y0137994D01*
X0171019Y0135597D02*
X0167444Y0135597D01*
X0166246Y0134399D02*
X0171019Y0134399D01*
X0171025Y0133200D02*
X0165047Y0133200D01*
X0163849Y0132002D02*
X0171302Y0132002D01*
X0171965Y0130803D02*
X0162650Y0130803D01*
X0161452Y0129604D02*
X0173328Y0129604D01*
X0161788Y0135597D02*
X0155019Y0135597D01*
X0155019Y0134399D02*
X0160589Y0134399D01*
X0159391Y0133200D02*
X0155019Y0133200D01*
X0154719Y0132002D02*
X0158192Y0132002D01*
X0156993Y0130803D02*
X0154044Y0130803D01*
X0152471Y0129604D02*
X0155795Y0129604D01*
X0160253Y0128406D02*
X0189619Y0128406D01*
X0189619Y0129604D02*
X0187471Y0129604D01*
X0189044Y0130803D02*
X0189619Y0130803D01*
X0191619Y0132600D02*
X0195619Y0136600D01*
X0203619Y0144600D01*
X0232619Y0144600D01*
X0235619Y0141600D01*
X0240619Y0146600D02*
X0175619Y0146600D01*
X0147619Y0118600D01*
X0147619Y0107600D01*
X0150624Y0109230D02*
X0164549Y0109230D01*
X0165785Y0108031D02*
X0151019Y0108031D01*
X0150981Y0106833D02*
X0173023Y0106833D01*
X0171825Y0105634D02*
X0150461Y0105634D01*
X0148864Y0104436D02*
X0165198Y0104436D01*
X0170619Y0101600D02*
X0166619Y0097600D01*
X0137619Y0097600D01*
X0103619Y0063600D01*
X0080619Y0063600D01*
X0080619Y0063557D01*
X0084083Y0060091D02*
X0127281Y0060091D01*
X0126083Y0058892D02*
X0083213Y0058892D01*
X0082905Y0059200D02*
X0083395Y0059403D01*
X0084773Y0060781D01*
X0085112Y0061600D01*
X0104447Y0061600D01*
X0134019Y0091172D01*
X0134019Y0090804D01*
X0134628Y0089334D01*
X0135753Y0088209D01*
X0137223Y0087600D01*
X0144015Y0087600D01*
X0145485Y0088209D01*
X0146610Y0089334D01*
X0147219Y0090804D01*
X0147219Y0092396D01*
X0146610Y0093866D01*
X0145485Y0094991D01*
X0144015Y0095600D01*
X0138447Y0095600D01*
X0138447Y0095600D01*
X0166738Y0095600D01*
X0166407Y0095492D01*
X0165818Y0095192D01*
X0165283Y0094804D01*
X0164815Y0094336D01*
X0164427Y0093801D01*
X0164127Y0093212D01*
X0163922Y0092584D01*
X0163819Y0091931D01*
X0163819Y0091800D01*
X0170419Y0091800D01*
X0170419Y0095800D01*
X0167688Y0095800D01*
X0167640Y0095792D01*
X0169447Y0097600D01*
X0174015Y0097600D01*
X0175485Y0098209D01*
X0176610Y0099334D01*
X0177219Y0100804D01*
X0177219Y0102396D01*
X0176610Y0103866D01*
X0176162Y0104314D01*
X0191619Y0119772D01*
X0191619Y0095428D01*
X0177219Y0081028D01*
X0177219Y0082396D01*
X0176610Y0083866D01*
X0175485Y0084991D01*
X0174015Y0085600D01*
X0167223Y0085600D01*
X0165753Y0084991D01*
X0164628Y0083866D01*
X0164019Y0082396D01*
X0164019Y0080804D01*
X0164628Y0079334D01*
X0165753Y0078209D01*
X0167223Y0077600D01*
X0173790Y0077600D01*
X0171790Y0075600D01*
X0167223Y0075600D01*
X0165753Y0074991D01*
X0164628Y0073866D01*
X0164019Y0072396D01*
X0164019Y0070804D01*
X0164518Y0069600D01*
X0146720Y0069600D01*
X0147219Y0070804D01*
X0147219Y0072396D01*
X0146610Y0073866D01*
X0145485Y0074991D01*
X0144015Y0075600D01*
X0137223Y0075600D01*
X0135753Y0074991D01*
X0134628Y0073866D01*
X0134019Y0072396D01*
X0134019Y0070804D01*
X0134628Y0069334D01*
X0135576Y0068386D01*
X0123790Y0056600D01*
X0085505Y0056600D01*
X0082905Y0059200D01*
X0084411Y0057694D02*
X0124884Y0057694D01*
X0128144Y0055297D02*
X0136491Y0055297D01*
X0137223Y0055600D02*
X0135753Y0054991D01*
X0134628Y0053866D01*
X0134518Y0053600D01*
X0126447Y0053600D01*
X0134019Y0061172D01*
X0134019Y0060804D01*
X0134628Y0059334D01*
X0135753Y0058209D01*
X0137223Y0057600D01*
X0144015Y0057600D01*
X0145485Y0058209D01*
X0146610Y0059334D01*
X0147219Y0060804D01*
X0147219Y0062396D01*
X0146610Y0063866D01*
X0145485Y0064991D01*
X0144015Y0065600D01*
X0138447Y0065600D01*
X0138447Y0065600D01*
X0162790Y0065600D01*
X0146790Y0049600D01*
X0146720Y0049600D01*
X0147219Y0050804D01*
X0147219Y0052396D01*
X0146610Y0053866D01*
X0145485Y0054991D01*
X0144015Y0055600D01*
X0137223Y0055600D01*
X0136997Y0057694D02*
X0130541Y0057694D01*
X0131740Y0058892D02*
X0135070Y0058892D01*
X0134314Y0060091D02*
X0132938Y0060091D01*
X0129678Y0062488D02*
X0105335Y0062488D01*
X0106534Y0063686D02*
X0130877Y0063686D01*
X0132075Y0064885D02*
X0107732Y0064885D01*
X0108931Y0066083D02*
X0133274Y0066083D01*
X0134472Y0067282D02*
X0110129Y0067282D01*
X0111328Y0068480D02*
X0135482Y0068480D01*
X0134485Y0069679D02*
X0112526Y0069679D01*
X0113725Y0070877D02*
X0134019Y0070877D01*
X0134019Y0072076D02*
X0114923Y0072076D01*
X0116122Y0073274D02*
X0134383Y0073274D01*
X0135235Y0074473D02*
X0117320Y0074473D01*
X0118519Y0075671D02*
X0171862Y0075671D01*
X0173060Y0076870D02*
X0119717Y0076870D01*
X0120916Y0078069D02*
X0136092Y0078069D01*
X0135753Y0078209D02*
X0137223Y0077600D01*
X0144015Y0077600D01*
X0145485Y0078209D01*
X0146610Y0079334D01*
X0147219Y0080804D01*
X0147219Y0082396D01*
X0146610Y0083866D01*
X0145485Y0084991D01*
X0144015Y0085600D01*
X0137223Y0085600D01*
X0135753Y0084991D01*
X0134628Y0083866D01*
X0134019Y0082396D01*
X0134019Y0080804D01*
X0134628Y0079334D01*
X0135753Y0078209D01*
X0134695Y0079267D02*
X0122114Y0079267D01*
X0123313Y0080466D02*
X0134159Y0080466D01*
X0134019Y0081664D02*
X0124511Y0081664D01*
X0125710Y0082863D02*
X0134212Y0082863D01*
X0134823Y0084061D02*
X0126908Y0084061D01*
X0128107Y0085260D02*
X0136401Y0085260D01*
X0137087Y0087657D02*
X0130504Y0087657D01*
X0131702Y0088855D02*
X0135107Y0088855D01*
X0134330Y0090054D02*
X0132901Y0090054D01*
X0129641Y0092451D02*
X0085366Y0092451D01*
X0085345Y0092514D02*
X0084981Y0093230D01*
X0084509Y0093879D01*
X0083941Y0094447D01*
X0083292Y0094919D01*
X0082577Y0095283D01*
X0081813Y0095531D01*
X0081020Y0095657D01*
X0080905Y0095657D01*
X0080905Y0090843D01*
X0085719Y0090843D01*
X0085719Y0090958D01*
X0085593Y0091751D01*
X0085345Y0092514D01*
X0085672Y0091252D02*
X0128443Y0091252D01*
X0127244Y0090054D02*
X0085703Y0090054D01*
X0085428Y0088855D02*
X0126046Y0088855D01*
X0124847Y0087657D02*
X0084816Y0087657D01*
X0083654Y0086458D02*
X0123649Y0086458D01*
X0122450Y0085260D02*
X0083846Y0085260D01*
X0084885Y0084061D02*
X0121252Y0084061D01*
X0120053Y0082863D02*
X0085382Y0082863D01*
X0085519Y0081664D02*
X0118855Y0081664D01*
X0117656Y0080466D02*
X0085471Y0080466D01*
X0084974Y0079267D02*
X0116458Y0079267D01*
X0115259Y0078069D02*
X0084060Y0078069D01*
X0083010Y0076870D02*
X0114060Y0076870D01*
X0112862Y0075671D02*
X0084434Y0075671D01*
X0085129Y0074473D02*
X0111663Y0074473D01*
X0110465Y0073274D02*
X0085519Y0073274D01*
X0085519Y0072076D02*
X0109266Y0072076D01*
X0108068Y0070877D02*
X0085227Y0070877D01*
X0084671Y0069679D02*
X0106869Y0069679D01*
X0105671Y0068480D02*
X0083472Y0068480D01*
X0083823Y0067282D02*
X0104472Y0067282D01*
X0103274Y0066083D02*
X0084876Y0066083D01*
X0084983Y0061289D02*
X0128480Y0061289D01*
X0129343Y0056495D02*
X0153686Y0056495D01*
X0152487Y0055297D02*
X0144747Y0055297D01*
X0146377Y0054098D02*
X0151289Y0054098D01*
X0150090Y0052900D02*
X0147010Y0052900D01*
X0147219Y0051701D02*
X0148892Y0051701D01*
X0147693Y0050503D02*
X0147094Y0050503D01*
X0140619Y0051600D02*
X0084619Y0051600D01*
X0082619Y0049600D01*
X0078619Y0049600D01*
X0075619Y0052600D01*
X0075619Y0071600D01*
X0057766Y0068480D02*
X0030219Y0068480D01*
X0030219Y0067282D02*
X0057414Y0067282D01*
X0056362Y0066083D02*
X0030219Y0066083D01*
X0030219Y0064885D02*
X0055865Y0064885D01*
X0055719Y0063686D02*
X0030219Y0063686D01*
X0030219Y0062488D02*
X0055758Y0062488D01*
X0056254Y0061289D02*
X0030219Y0061289D01*
X0030219Y0060091D02*
X0057155Y0060091D01*
X0058282Y0058892D02*
X0030219Y0058892D01*
X0030219Y0057694D02*
X0056826Y0057694D01*
X0056118Y0056495D02*
X0030219Y0056495D01*
X0030219Y0055297D02*
X0055719Y0055297D01*
X0055719Y0054098D02*
X0030219Y0054098D01*
X0030219Y0052900D02*
X0056001Y0052900D01*
X0056545Y0051701D02*
X0030219Y0051701D01*
X0030219Y0050503D02*
X0057743Y0050503D01*
X0063495Y0050503D02*
X0063619Y0050503D01*
X0063619Y0049304D02*
X0030219Y0049304D01*
X0030219Y0048106D02*
X0063619Y0048106D01*
X0063619Y0046907D02*
X0030219Y0046907D01*
X0030219Y0045709D02*
X0064682Y0045709D01*
X0065880Y0044510D02*
X0030219Y0044510D01*
X0030219Y0043312D02*
X0067079Y0043312D01*
X0075619Y0049600D02*
X0077619Y0047600D01*
X0147619Y0047600D01*
X0165619Y0065600D01*
X0185619Y0065600D01*
X0197619Y0077600D01*
X0217619Y0077600D01*
X0227619Y0087600D01*
X0234836Y0085260D02*
X0267073Y0085260D01*
X0265874Y0086458D02*
X0264305Y0086458D01*
X0265504Y0087657D02*
X0265719Y0087657D01*
X0262244Y0090054D02*
X0236908Y0090054D01*
X0237219Y0091252D02*
X0263443Y0091252D01*
X0264641Y0092451D02*
X0237196Y0092451D01*
X0236700Y0093649D02*
X0265840Y0093649D01*
X0267038Y0094848D02*
X0235628Y0094848D01*
X0235719Y0098443D02*
X0275947Y0098443D01*
X0274749Y0099642D02*
X0236737Y0099642D01*
X0237219Y0100840D02*
X0273550Y0100840D01*
X0272352Y0102039D02*
X0237219Y0102039D01*
X0236870Y0103237D02*
X0271153Y0103237D01*
X0269955Y0104436D02*
X0236040Y0104436D01*
X0236482Y0105634D02*
X0268756Y0105634D01*
X0267558Y0106833D02*
X0237680Y0106833D01*
X0238879Y0108031D02*
X0266359Y0108031D01*
X0265161Y0109230D02*
X0240077Y0109230D01*
X0241276Y0110428D02*
X0263962Y0110428D01*
X0262764Y0111627D02*
X0242474Y0111627D01*
X0242619Y0112825D02*
X0261565Y0112825D01*
X0260367Y0114024D02*
X0242619Y0114024D01*
X0242619Y0115222D02*
X0259168Y0115222D01*
X0257970Y0116421D02*
X0242619Y0116421D01*
X0242619Y0117619D02*
X0256771Y0117619D01*
X0255573Y0118818D02*
X0242619Y0118818D01*
X0242619Y0120016D02*
X0254374Y0120016D01*
X0253176Y0121215D02*
X0242619Y0121215D01*
X0242619Y0122413D02*
X0251977Y0122413D01*
X0250779Y0123612D02*
X0242619Y0123612D01*
X0242619Y0124810D02*
X0249580Y0124810D01*
X0248382Y0126009D02*
X0242619Y0126009D01*
X0242619Y0127207D02*
X0247183Y0127207D01*
X0245984Y0128406D02*
X0242619Y0128406D01*
X0242619Y0129604D02*
X0244786Y0129604D01*
X0251641Y0128406D02*
X0272090Y0128406D01*
X0271497Y0127812D02*
X0269996Y0125213D01*
X0269219Y0122313D01*
X0269219Y0119312D01*
X0269996Y0116412D01*
X0271497Y0113813D01*
X0273619Y0111690D01*
X0276219Y0110189D01*
X0279118Y0109413D01*
X0282120Y0109413D01*
X0285019Y0110189D01*
X0287619Y0111690D01*
X0289741Y0113813D01*
X0291242Y0116412D01*
X0292019Y0119312D01*
X0292019Y0122313D01*
X0291242Y0125213D01*
X0289741Y0127812D01*
X0287619Y0129935D01*
X0285019Y0131436D01*
X0282120Y0132213D01*
X0279118Y0132213D01*
X0276219Y0131436D01*
X0273619Y0129935D01*
X0271497Y0127812D01*
X0271147Y0127207D02*
X0252840Y0127207D01*
X0254038Y0126009D02*
X0270455Y0126009D01*
X0269888Y0124810D02*
X0255237Y0124810D01*
X0256435Y0123612D02*
X0269567Y0123612D01*
X0269246Y0122413D02*
X0257634Y0122413D01*
X0258832Y0121215D02*
X0269219Y0121215D01*
X0269219Y0120016D02*
X0260031Y0120016D01*
X0261229Y0118818D02*
X0269351Y0118818D01*
X0269672Y0117619D02*
X0262428Y0117619D01*
X0263626Y0116421D02*
X0269994Y0116421D01*
X0270683Y0115222D02*
X0264825Y0115222D01*
X0266023Y0114024D02*
X0271375Y0114024D01*
X0272484Y0112825D02*
X0267222Y0112825D01*
X0268420Y0111627D02*
X0273729Y0111627D01*
X0275805Y0110428D02*
X0269619Y0110428D01*
X0270818Y0109230D02*
X0320940Y0109230D01*
X0320940Y0110428D02*
X0285433Y0110428D01*
X0287509Y0111627D02*
X0320940Y0111627D01*
X0320940Y0112825D02*
X0288754Y0112825D01*
X0289863Y0114024D02*
X0320940Y0114024D01*
X0320940Y0115222D02*
X0290555Y0115222D01*
X0291244Y0116421D02*
X0320940Y0116421D01*
X0320940Y0117619D02*
X0291565Y0117619D01*
X0291887Y0118818D02*
X0320940Y0118818D01*
X0320940Y0120016D02*
X0292019Y0120016D01*
X0292019Y0121215D02*
X0320940Y0121215D01*
X0320940Y0122413D02*
X0291992Y0122413D01*
X0291671Y0123612D02*
X0320940Y0123612D01*
X0320940Y0124810D02*
X0291350Y0124810D01*
X0290782Y0126009D02*
X0320940Y0126009D01*
X0320940Y0127207D02*
X0290090Y0127207D01*
X0289148Y0128406D02*
X0320940Y0128406D01*
X0320940Y0129604D02*
X0287949Y0129604D01*
X0286115Y0130803D02*
X0320940Y0130803D01*
X0320940Y0132002D02*
X0282907Y0132002D01*
X0278330Y0132002D02*
X0254719Y0132002D01*
X0255019Y0133200D02*
X0320940Y0133200D01*
X0320940Y0134399D02*
X0255019Y0134399D01*
X0255019Y0135597D02*
X0320940Y0135597D01*
X0275123Y0130803D02*
X0254044Y0130803D01*
X0252471Y0129604D02*
X0273289Y0129604D01*
X0249711Y0143987D02*
X0249061Y0143987D01*
X0231019Y0135597D02*
X0230219Y0135597D01*
X0230219Y0134399D02*
X0231019Y0134399D01*
X0231019Y0133200D02*
X0230219Y0133200D01*
X0230219Y0132002D02*
X0231019Y0132002D01*
X0231019Y0130803D02*
X0230219Y0130803D01*
X0230219Y0129604D02*
X0231019Y0129604D01*
X0232910Y0129604D02*
X0234619Y0129604D01*
X0226019Y0137994D02*
X0210019Y0137994D01*
X0210019Y0139193D02*
X0226019Y0139193D01*
X0226087Y0140391D02*
X0210019Y0140391D01*
X0209557Y0141590D02*
X0226470Y0141590D01*
X0205619Y0136600D02*
X0193619Y0124600D01*
X0193619Y0094600D01*
X0170619Y0071600D01*
X0166619Y0067600D01*
X0137619Y0067600D01*
X0124619Y0054600D01*
X0080619Y0054600D01*
X0080619Y0054557D01*
X0075619Y0049600D02*
X0070619Y0049600D01*
X0070619Y0050057D01*
X0097277Y0042113D02*
X0030219Y0042113D01*
X0030219Y0040915D02*
X0098476Y0040915D01*
X0099674Y0039716D02*
X0030219Y0039716D01*
X0030219Y0038518D02*
X0100873Y0038518D01*
X0102071Y0037319D02*
X0030219Y0037319D01*
X0030219Y0036121D02*
X0103270Y0036121D01*
X0104468Y0034922D02*
X0030219Y0034922D01*
X0030219Y0033724D02*
X0068880Y0033724D01*
X0072358Y0033724D02*
X0105667Y0033724D01*
X0106865Y0032525D02*
X0075860Y0032525D01*
X0077802Y0031327D02*
X0108064Y0031327D01*
X0109262Y0030128D02*
X0079000Y0030128D01*
X0080005Y0028930D02*
X0110461Y0028930D01*
X0111659Y0027731D02*
X0080697Y0027731D01*
X0081310Y0026533D02*
X0112858Y0026533D01*
X0117316Y0027731D02*
X0152922Y0027731D01*
X0154120Y0028930D02*
X0116118Y0028930D01*
X0114919Y0030128D02*
X0155319Y0030128D01*
X0156517Y0031327D02*
X0113721Y0031327D01*
X0112522Y0032525D02*
X0157716Y0032525D01*
X0158914Y0033724D02*
X0111324Y0033724D01*
X0110125Y0034922D02*
X0160113Y0034922D01*
X0161311Y0036121D02*
X0108927Y0036121D01*
X0107728Y0037319D02*
X0162510Y0037319D01*
X0163708Y0038518D02*
X0106530Y0038518D01*
X0105331Y0039716D02*
X0164907Y0039716D01*
X0166105Y0040915D02*
X0104133Y0040915D01*
X0102934Y0042113D02*
X0167304Y0042113D01*
X0168502Y0043312D02*
X0101736Y0043312D01*
X0100537Y0044510D02*
X0169701Y0044510D01*
X0170899Y0045709D02*
X0148556Y0045709D01*
X0149755Y0046907D02*
X0172098Y0046907D01*
X0175358Y0044510D02*
X0180701Y0044510D01*
X0181899Y0045709D02*
X0176556Y0045709D01*
X0177755Y0046907D02*
X0183098Y0046907D01*
X0184296Y0048106D02*
X0178953Y0048106D01*
X0180152Y0049304D02*
X0185495Y0049304D01*
X0186693Y0050503D02*
X0181350Y0050503D01*
X0182549Y0051701D02*
X0187892Y0051701D01*
X0189090Y0052900D02*
X0183747Y0052900D01*
X0179289Y0054098D02*
X0176377Y0054098D01*
X0177010Y0052900D02*
X0178090Y0052900D01*
X0180487Y0055297D02*
X0174747Y0055297D01*
X0174202Y0057503D02*
X0174831Y0057708D01*
X0175420Y0058008D01*
X0175955Y0058396D01*
X0176422Y0058864D01*
X0176811Y0059399D01*
X0177111Y0059988D01*
X0177315Y0060616D01*
X0177419Y0061269D01*
X0177419Y0061400D01*
X0170819Y0061400D01*
X0170819Y0057400D01*
X0173549Y0057400D01*
X0174202Y0057503D01*
X0174788Y0057694D02*
X0182884Y0057694D01*
X0181686Y0056495D02*
X0159343Y0056495D01*
X0160541Y0057694D02*
X0166449Y0057694D01*
X0164795Y0058892D02*
X0161740Y0058892D01*
X0162938Y0060091D02*
X0164093Y0060091D01*
X0159678Y0062488D02*
X0147181Y0062488D01*
X0147219Y0061289D02*
X0158480Y0061289D01*
X0157281Y0060091D02*
X0146923Y0060091D01*
X0146168Y0058892D02*
X0156083Y0058892D01*
X0154884Y0057694D02*
X0144241Y0057694D01*
X0134860Y0054098D02*
X0126946Y0054098D01*
X0146684Y0063686D02*
X0160877Y0063686D01*
X0162075Y0064885D02*
X0145591Y0064885D01*
X0146753Y0069679D02*
X0164485Y0069679D01*
X0164019Y0070877D02*
X0147219Y0070877D01*
X0147219Y0072076D02*
X0164019Y0072076D01*
X0164383Y0073274D02*
X0146855Y0073274D01*
X0146003Y0074473D02*
X0165235Y0074473D01*
X0166092Y0078069D02*
X0145146Y0078069D01*
X0146543Y0079267D02*
X0164695Y0079267D01*
X0164159Y0080466D02*
X0147079Y0080466D01*
X0147219Y0081664D02*
X0164019Y0081664D01*
X0164212Y0082863D02*
X0147025Y0082863D01*
X0146415Y0084061D02*
X0164823Y0084061D01*
X0166401Y0085260D02*
X0144836Y0085260D01*
X0144151Y0087657D02*
X0166564Y0087657D01*
X0166407Y0087708D02*
X0167035Y0087503D01*
X0167688Y0087400D01*
X0170419Y0087400D01*
X0170419Y0091400D01*
X0170819Y0091400D01*
X0170819Y0091800D01*
X0177419Y0091800D01*
X0177419Y0091931D01*
X0177315Y0092584D01*
X0177111Y0093212D01*
X0176811Y0093801D01*
X0176422Y0094336D01*
X0175955Y0094804D01*
X0175420Y0095192D01*
X0174831Y0095492D01*
X0174202Y0095697D01*
X0173549Y0095800D01*
X0170819Y0095800D01*
X0170819Y0091800D01*
X0170419Y0091800D01*
X0170419Y0091400D01*
X0163819Y0091400D01*
X0163819Y0091269D01*
X0163922Y0090616D01*
X0164127Y0089988D01*
X0164427Y0089399D01*
X0164815Y0088864D01*
X0165283Y0088396D01*
X0165818Y0088008D01*
X0166407Y0087708D01*
X0164824Y0088855D02*
X0146131Y0088855D01*
X0146908Y0090054D02*
X0164105Y0090054D01*
X0163822Y0091252D02*
X0147219Y0091252D01*
X0147196Y0092451D02*
X0163901Y0092451D01*
X0164349Y0093649D02*
X0146700Y0093649D01*
X0145628Y0094848D02*
X0165343Y0094848D01*
X0167893Y0096046D02*
X0191619Y0096046D01*
X0191619Y0097245D02*
X0169092Y0097245D01*
X0170419Y0094848D02*
X0170819Y0094848D01*
X0170819Y0093649D02*
X0170419Y0093649D01*
X0170419Y0092451D02*
X0170819Y0092451D01*
X0170819Y0091400D02*
X0177419Y0091400D01*
X0177419Y0091269D01*
X0177315Y0090616D01*
X0177111Y0089988D01*
X0176811Y0089399D01*
X0176422Y0088864D01*
X0175955Y0088396D01*
X0175420Y0088008D01*
X0174831Y0087708D01*
X0174202Y0087503D01*
X0173549Y0087400D01*
X0170819Y0087400D01*
X0170819Y0091400D01*
X0170819Y0091252D02*
X0170419Y0091252D01*
X0170419Y0090054D02*
X0170819Y0090054D01*
X0170819Y0088855D02*
X0170419Y0088855D01*
X0170419Y0087657D02*
X0170819Y0087657D01*
X0174674Y0087657D02*
X0183847Y0087657D01*
X0185046Y0088855D02*
X0176414Y0088855D01*
X0177133Y0090054D02*
X0186244Y0090054D01*
X0187443Y0091252D02*
X0177416Y0091252D01*
X0177337Y0092451D02*
X0188641Y0092451D01*
X0189840Y0093649D02*
X0176889Y0093649D01*
X0175894Y0094848D02*
X0191038Y0094848D01*
X0191619Y0098443D02*
X0175719Y0098443D01*
X0176737Y0099642D02*
X0191619Y0099642D01*
X0191619Y0100840D02*
X0177219Y0100840D01*
X0177219Y0102039D02*
X0191619Y0102039D01*
X0191619Y0103237D02*
X0176870Y0103237D01*
X0176283Y0104436D02*
X0191619Y0104436D01*
X0191619Y0105634D02*
X0177482Y0105634D01*
X0178680Y0106833D02*
X0191619Y0106833D01*
X0191619Y0108031D02*
X0179879Y0108031D01*
X0181077Y0109230D02*
X0191619Y0109230D01*
X0191619Y0110428D02*
X0182276Y0110428D01*
X0183474Y0111627D02*
X0191619Y0111627D01*
X0191619Y0112825D02*
X0184673Y0112825D01*
X0185871Y0114024D02*
X0191619Y0114024D01*
X0191619Y0115222D02*
X0187070Y0115222D01*
X0188268Y0116421D02*
X0191619Y0116421D01*
X0191619Y0117619D02*
X0189467Y0117619D01*
X0190665Y0118818D02*
X0191619Y0118818D01*
X0195619Y0117619D02*
X0234930Y0117619D01*
X0235361Y0115222D02*
X0238619Y0115222D01*
X0238619Y0114024D02*
X0236649Y0114024D01*
X0237237Y0112825D02*
X0238016Y0112825D01*
X0230819Y0112825D02*
X0230419Y0112825D01*
X0230419Y0114024D02*
X0230819Y0114024D01*
X0230819Y0115222D02*
X0230419Y0115222D01*
X0225877Y0115222D02*
X0204926Y0115222D01*
X0206452Y0114024D02*
X0224588Y0114024D01*
X0224001Y0112825D02*
X0207041Y0112825D01*
X0196312Y0115222D02*
X0195619Y0115222D01*
X0195619Y0116421D02*
X0238619Y0116421D01*
X0238619Y0117619D02*
X0238308Y0117619D01*
X0272016Y0108031D02*
X0320940Y0108031D01*
X0320940Y0106833D02*
X0273215Y0106833D01*
X0274413Y0105634D02*
X0320940Y0105634D01*
X0320940Y0104436D02*
X0275612Y0104436D01*
X0276810Y0103237D02*
X0320940Y0103237D01*
X0320940Y0102039D02*
X0278009Y0102039D01*
X0279207Y0100840D02*
X0320940Y0100840D01*
X0320940Y0099642D02*
X0284406Y0099642D01*
X0285604Y0098443D02*
X0320940Y0098443D01*
X0320940Y0097245D02*
X0286803Y0097245D01*
X0287619Y0096046D02*
X0320940Y0096046D01*
X0320940Y0094848D02*
X0287619Y0094848D01*
X0230619Y0071600D02*
X0209619Y0071600D01*
X0203619Y0065600D01*
X0193619Y0065600D01*
X0192472Y0067282D02*
X0190129Y0067282D01*
X0191274Y0066083D02*
X0188931Y0066083D01*
X0190075Y0064885D02*
X0187732Y0064885D01*
X0188877Y0063686D02*
X0186534Y0063686D01*
X0187678Y0062488D02*
X0177331Y0062488D01*
X0177419Y0061289D02*
X0186480Y0061289D01*
X0185281Y0060091D02*
X0177145Y0060091D01*
X0176443Y0058892D02*
X0184083Y0058892D01*
X0196619Y0057600D02*
X0226619Y0057600D01*
X0230619Y0061600D01*
X0234015Y0065600D02*
X0227223Y0065600D01*
X0225753Y0064991D01*
X0224628Y0063866D01*
X0224019Y0062396D01*
X0224019Y0060804D01*
X0224518Y0059600D01*
X0206720Y0059600D01*
X0207219Y0060804D01*
X0207219Y0062396D01*
X0206610Y0063866D01*
X0205662Y0064814D01*
X0210447Y0069600D01*
X0224518Y0069600D01*
X0224628Y0069334D01*
X0225753Y0068209D01*
X0227223Y0067600D01*
X0234015Y0067600D01*
X0235485Y0068209D01*
X0235619Y0068343D01*
X0235619Y0064857D01*
X0235485Y0064991D01*
X0234015Y0065600D01*
X0235619Y0066083D02*
X0206931Y0066083D01*
X0205732Y0064885D02*
X0225647Y0064885D01*
X0224554Y0063686D02*
X0206684Y0063686D01*
X0207181Y0062488D02*
X0224057Y0062488D01*
X0224019Y0061289D02*
X0207219Y0061289D01*
X0206923Y0060091D02*
X0224314Y0060091D01*
X0235591Y0064885D02*
X0235619Y0064885D01*
X0235619Y0067282D02*
X0208129Y0067282D01*
X0209328Y0068480D02*
X0225482Y0068480D01*
X0225235Y0074473D02*
X0206003Y0074473D01*
X0206855Y0073274D02*
X0208465Y0073274D01*
X0207266Y0072076D02*
X0207219Y0072076D01*
X0202790Y0067600D02*
X0202790Y0067600D01*
X0195482Y0068480D02*
X0191328Y0068480D01*
X0192526Y0069679D02*
X0194485Y0069679D01*
X0194019Y0070877D02*
X0193725Y0070877D01*
X0190465Y0073274D02*
X0176855Y0073274D01*
X0176610Y0073866D02*
X0177219Y0072396D01*
X0177219Y0070804D01*
X0176610Y0069334D01*
X0175485Y0068209D01*
X0174015Y0067600D01*
X0169447Y0067600D01*
X0184790Y0067600D01*
X0195576Y0078386D01*
X0194628Y0079334D01*
X0194019Y0080804D01*
X0194019Y0082396D01*
X0194628Y0083866D01*
X0195753Y0084991D01*
X0197223Y0085600D01*
X0201790Y0085600D01*
X0203790Y0087600D01*
X0197223Y0087600D01*
X0195753Y0088209D01*
X0194628Y0089334D01*
X0194019Y0090804D01*
X0194019Y0092172D01*
X0176162Y0074314D01*
X0176610Y0073866D01*
X0176320Y0074473D02*
X0191663Y0074473D01*
X0192862Y0075671D02*
X0177519Y0075671D01*
X0178717Y0076870D02*
X0194060Y0076870D01*
X0195259Y0078069D02*
X0179916Y0078069D01*
X0181114Y0079267D02*
X0194695Y0079267D01*
X0194159Y0080466D02*
X0182313Y0080466D01*
X0183511Y0081664D02*
X0194019Y0081664D01*
X0194212Y0082863D02*
X0184710Y0082863D01*
X0185908Y0084061D02*
X0194823Y0084061D01*
X0196401Y0085260D02*
X0187107Y0085260D01*
X0188305Y0086458D02*
X0202649Y0086458D01*
X0197087Y0087657D02*
X0189504Y0087657D01*
X0190702Y0088855D02*
X0195107Y0088855D01*
X0194330Y0090054D02*
X0191901Y0090054D01*
X0193099Y0091252D02*
X0194019Y0091252D01*
X0182649Y0086458D02*
X0129305Y0086458D01*
X0130840Y0093649D02*
X0084676Y0093649D01*
X0083390Y0094848D02*
X0132038Y0094848D01*
X0136182Y0108031D02*
X0117990Y0108031D01*
X0119188Y0109230D02*
X0134732Y0109230D01*
X0134175Y0110428D02*
X0119819Y0110428D01*
X0119819Y0111627D02*
X0134019Y0111627D01*
X0134197Y0112825D02*
X0119819Y0112825D01*
X0119135Y0114024D02*
X0134786Y0114024D01*
X0136312Y0115222D02*
X0117936Y0115222D01*
X0113302Y0115222D02*
X0095070Y0115222D01*
X0080905Y0094848D02*
X0080333Y0094848D01*
X0080333Y0093649D02*
X0080905Y0093649D01*
X0080905Y0092451D02*
X0080333Y0092451D01*
X0080333Y0091252D02*
X0080905Y0091252D01*
X0080905Y0090271D02*
X0080333Y0090271D01*
X0080333Y0086457D01*
X0080905Y0086457D01*
X0080905Y0090271D01*
X0080905Y0090054D02*
X0080333Y0090054D01*
X0080333Y0088855D02*
X0080905Y0088855D01*
X0080905Y0087657D02*
X0080333Y0087657D01*
X0080333Y0086458D02*
X0080905Y0086458D01*
X0055719Y0073274D02*
X0030219Y0073274D01*
X0030219Y0072076D02*
X0055719Y0072076D01*
X0056011Y0070877D02*
X0030219Y0070877D01*
X0030219Y0069679D02*
X0056567Y0069679D01*
X0065378Y0032525D02*
X0030219Y0032525D01*
X0030219Y0031327D02*
X0063436Y0031327D01*
X0062238Y0030128D02*
X0030219Y0030128D01*
X0030219Y0028930D02*
X0061232Y0028930D01*
X0060540Y0027731D02*
X0030219Y0027731D01*
X0030219Y0026533D02*
X0059927Y0026533D01*
X0059606Y0025334D02*
X0030219Y0025334D01*
X0030219Y0024135D02*
X0059285Y0024135D01*
X0059219Y0022937D02*
X0030219Y0022937D01*
X0030219Y0021738D02*
X0059219Y0021738D01*
X0059312Y0020540D02*
X0030219Y0020540D01*
X0030219Y0019341D02*
X0059633Y0019341D01*
X0059954Y0018143D02*
X0030219Y0018143D01*
X0030219Y0016944D02*
X0060598Y0016944D01*
X0061290Y0015746D02*
X0030219Y0015746D01*
X0030219Y0014547D02*
X0062337Y0014547D01*
X0063535Y0013349D02*
X0030219Y0013349D01*
X0030219Y0012150D02*
X0065550Y0012150D01*
X0118719Y0009753D02*
X0119637Y0009753D01*
X0125619Y0016600D02*
X0130619Y0016600D01*
X0135319Y0016944D02*
X0138135Y0016944D01*
X0136936Y0015746D02*
X0135319Y0015746D01*
X0135319Y0014547D02*
X0135738Y0014547D01*
X0140196Y0013349D02*
X0145919Y0013349D01*
X0145919Y0014547D02*
X0141395Y0014547D01*
X0142593Y0015746D02*
X0145919Y0015746D01*
X0145919Y0016944D02*
X0143792Y0016944D01*
X0144990Y0018143D02*
X0145919Y0018143D01*
X0150619Y0016600D02*
X0155619Y0016600D01*
X0196619Y0057600D01*
X0200359Y0051600D02*
X0204359Y0055600D01*
X0237619Y0055600D01*
X0224228Y0052900D02*
X0207010Y0052900D01*
X0207219Y0051701D02*
X0224019Y0051701D01*
X0224144Y0050503D02*
X0207094Y0050503D01*
X0206580Y0049304D02*
X0224658Y0049304D01*
X0226002Y0048106D02*
X0205235Y0048106D01*
X0200619Y0051600D02*
X0200359Y0051600D01*
X0187556Y0045709D02*
X0242682Y0045709D01*
X0243880Y0044510D02*
X0186357Y0044510D01*
X0179502Y0043312D02*
X0174159Y0043312D01*
X0172960Y0042113D02*
X0178304Y0042113D01*
X0177105Y0040915D02*
X0171762Y0040915D01*
X0170563Y0039716D02*
X0175907Y0039716D01*
X0174708Y0038518D02*
X0169365Y0038518D01*
X0168166Y0037319D02*
X0173510Y0037319D01*
X0172311Y0036121D02*
X0166968Y0036121D01*
X0165769Y0034922D02*
X0171113Y0034922D01*
X0169914Y0033724D02*
X0164571Y0033724D01*
X0163372Y0032525D02*
X0168716Y0032525D01*
X0167517Y0031327D02*
X0162174Y0031327D01*
X0160975Y0030128D02*
X0166319Y0030128D01*
X0165120Y0028930D02*
X0159777Y0028930D01*
X0158578Y0027731D02*
X0163922Y0027731D01*
X0162723Y0026533D02*
X0157380Y0026533D01*
X0156181Y0025334D02*
X0161524Y0025334D01*
X0160326Y0024135D02*
X0154983Y0024135D01*
X0154229Y0022937D02*
X0159127Y0022937D01*
X0157929Y0021738D02*
X0154945Y0021738D01*
X0155319Y0020540D02*
X0156730Y0020540D01*
X0155532Y0019341D02*
X0155319Y0019341D01*
X0159990Y0018143D02*
X0160919Y0018143D01*
X0160919Y0016944D02*
X0158792Y0016944D01*
X0157593Y0015746D02*
X0160919Y0015746D01*
X0160919Y0014547D02*
X0155319Y0014547D01*
X0155319Y0013349D02*
X0160919Y0013349D01*
X0161008Y0012150D02*
X0155230Y0012150D01*
X0154734Y0010952D02*
X0161504Y0010952D01*
X0162519Y0009753D02*
X0153719Y0009753D01*
X0147519Y0009753D02*
X0136601Y0009753D01*
X0137799Y0010952D02*
X0146504Y0010952D01*
X0146008Y0012150D02*
X0138998Y0012150D01*
X0139333Y0018143D02*
X0135319Y0018143D01*
X0135319Y0019341D02*
X0140532Y0019341D01*
X0141730Y0020540D02*
X0135319Y0020540D01*
X0134945Y0021738D02*
X0142929Y0021738D01*
X0144127Y0022937D02*
X0134229Y0022937D01*
X0132675Y0024135D02*
X0145326Y0024135D01*
X0146524Y0025334D02*
X0119713Y0025334D01*
X0118515Y0026533D02*
X0147723Y0026533D01*
X0128563Y0024135D02*
X0120912Y0024135D01*
X0150953Y0048106D02*
X0166002Y0048106D01*
X0164658Y0049304D02*
X0152152Y0049304D01*
X0153350Y0050503D02*
X0164144Y0050503D01*
X0164019Y0051701D02*
X0154549Y0051701D01*
X0155747Y0052900D02*
X0164228Y0052900D01*
X0164860Y0054098D02*
X0156946Y0054098D01*
X0158144Y0055297D02*
X0166491Y0055297D01*
X0170419Y0057694D02*
X0170819Y0057694D01*
X0170819Y0058892D02*
X0170419Y0058892D01*
X0170419Y0060091D02*
X0170819Y0060091D01*
X0170819Y0061289D02*
X0170419Y0061289D01*
X0169447Y0067600D02*
X0169447Y0067600D01*
X0175756Y0068480D02*
X0185671Y0068480D01*
X0186869Y0069679D02*
X0176753Y0069679D01*
X0177219Y0070877D02*
X0188068Y0070877D01*
X0189266Y0072076D02*
X0177219Y0072076D01*
X0177219Y0081664D02*
X0177855Y0081664D01*
X0177025Y0082863D02*
X0179053Y0082863D01*
X0180252Y0084061D02*
X0176415Y0084061D01*
X0174836Y0085260D02*
X0181450Y0085260D01*
X0170619Y0101600D02*
X0191619Y0122600D01*
X0191619Y0132600D01*
X0190589Y0134399D02*
X0190019Y0134399D01*
X0190019Y0135597D02*
X0191219Y0135597D01*
X0191219Y0136796D02*
X0190019Y0136796D01*
X0190019Y0137994D02*
X0191219Y0137994D01*
X0191219Y0139193D02*
X0190019Y0139193D01*
X0190019Y0140391D02*
X0191219Y0140391D01*
X0191680Y0141590D02*
X0189557Y0141590D01*
X0188653Y0142788D02*
X0192584Y0142788D01*
X0194711Y0143987D02*
X0186526Y0143987D01*
X0184711Y0143987D02*
X0177004Y0143987D01*
X0178936Y0142788D02*
X0182584Y0142788D01*
X0181680Y0141590D02*
X0179768Y0141590D01*
X0180151Y0140391D02*
X0181219Y0140391D01*
X0181219Y0139193D02*
X0180219Y0139193D01*
X0180219Y0137994D02*
X0181219Y0137994D01*
X0168979Y0142788D02*
X0153653Y0142788D01*
X0154557Y0141590D02*
X0167780Y0141590D01*
X0166582Y0140391D02*
X0155019Y0140391D01*
X0155019Y0139193D02*
X0165383Y0139193D01*
X0164185Y0137994D02*
X0155019Y0137994D01*
X0155019Y0136796D02*
X0162986Y0136796D01*
X0170177Y0143987D02*
X0151526Y0143987D01*
X0149711Y0143987D02*
X0142004Y0143987D01*
X0142032Y0145185D02*
X0171376Y0145185D01*
X0172574Y0146384D02*
X0143231Y0146384D01*
X0143936Y0142788D02*
X0147584Y0142788D01*
X0146680Y0141590D02*
X0144768Y0141590D01*
X0145151Y0140391D02*
X0146219Y0140391D01*
X0146219Y0139193D02*
X0145219Y0139193D01*
X0145219Y0137994D02*
X0146219Y0137994D01*
X0131582Y0140391D02*
X0120019Y0140391D01*
X0119434Y0139193D02*
X0130383Y0139193D01*
X0157856Y0126009D02*
X0189619Y0126009D01*
X0189619Y0127207D02*
X0159055Y0127207D01*
X0156658Y0124810D02*
X0189619Y0124810D01*
X0189619Y0123612D02*
X0155459Y0123612D01*
X0154261Y0122413D02*
X0188604Y0122413D01*
X0187405Y0121215D02*
X0153062Y0121215D01*
X0151864Y0120016D02*
X0186207Y0120016D01*
X0185008Y0118818D02*
X0150665Y0118818D01*
X0149619Y0117619D02*
X0183810Y0117619D01*
X0182611Y0116421D02*
X0149619Y0116421D01*
X0170419Y0115222D02*
X0170819Y0115222D01*
X0170819Y0114024D02*
X0170419Y0114024D01*
X0170419Y0112825D02*
X0170819Y0112825D01*
X0170819Y0111627D02*
X0177817Y0111627D01*
X0177237Y0112825D02*
X0179016Y0112825D01*
X0180214Y0114024D02*
X0176649Y0114024D01*
X0175361Y0115222D02*
X0181413Y0115222D01*
X0170819Y0110428D02*
X0170419Y0110428D01*
X0170419Y0109230D02*
X0170819Y0109230D01*
X0170819Y0108031D02*
X0170419Y0108031D01*
X0198653Y0142788D02*
X0198979Y0142788D01*
X0200177Y0143987D02*
X0196526Y0143987D01*
D20*
X0218532Y0131285D03*
X0206721Y0126954D03*
X0236619Y0120600D03*
X0253965Y0102939D03*
X0242942Y0091915D03*
X0217745Y0089946D03*
X0222076Y0076167D03*
X0217745Y0064356D03*
X0185068Y0079317D03*
X0152784Y0062781D03*
X0178769Y0045065D03*
X0087824Y0068687D03*
X0147619Y0107600D03*
M02*
