G75*
%MOIN*%
%OFA0B0*%
%FSLAX25Y25*%
%IPPOS*%
%LPD*%
%AMOC8*
5,1,8,0,0,1.08239X$1,22.5*
%
%ADD10C,0.00000*%
%ADD11OC8,0.06400*%
%ADD12C,0.06000*%
%ADD13C,0.06800*%
%ADD14OC8,0.06000*%
%ADD15C,0.07400*%
%ADD16C,0.07800*%
%ADD17OC8,0.07800*%
%ADD18C,0.20800*%
%ADD19C,0.04800*%
D10*
X0025619Y0001600D02*
X0025619Y0155301D01*
X0325540Y0155301D01*
X0325540Y0001600D01*
X0025619Y0001600D01*
D11*
X0115619Y0111600D03*
X0115619Y0141600D03*
D12*
X0138019Y0111600D02*
X0143219Y0111600D01*
X0143219Y0101600D02*
X0138019Y0101600D01*
X0138019Y0091600D02*
X0143219Y0091600D01*
X0143219Y0081600D02*
X0138019Y0081600D01*
X0138019Y0071600D02*
X0143219Y0071600D01*
X0143219Y0061600D02*
X0138019Y0061600D01*
X0138019Y0051600D02*
X0143219Y0051600D01*
X0168019Y0051600D02*
X0173219Y0051600D01*
X0173219Y0061600D02*
X0168019Y0061600D01*
X0168019Y0071600D02*
X0173219Y0071600D01*
X0173219Y0081600D02*
X0168019Y0081600D01*
X0168019Y0091600D02*
X0173219Y0091600D01*
X0173219Y0101600D02*
X0168019Y0101600D01*
X0168019Y0111600D02*
X0173219Y0111600D01*
X0198019Y0111600D02*
X0203219Y0111600D01*
X0203219Y0101600D02*
X0198019Y0101600D01*
X0198019Y0091600D02*
X0203219Y0091600D01*
X0203219Y0081600D02*
X0198019Y0081600D01*
X0198019Y0071600D02*
X0203219Y0071600D01*
X0203219Y0061600D02*
X0198019Y0061600D01*
X0198019Y0051600D02*
X0203219Y0051600D01*
X0228019Y0051600D02*
X0233219Y0051600D01*
X0233219Y0061600D02*
X0228019Y0061600D01*
X0228019Y0071600D02*
X0233219Y0071600D01*
X0233219Y0081600D02*
X0228019Y0081600D01*
X0228019Y0091600D02*
X0233219Y0091600D01*
X0233219Y0101600D02*
X0228019Y0101600D01*
X0228019Y0111600D02*
X0233219Y0111600D01*
D13*
X0230619Y0133600D02*
X0230619Y0139600D01*
X0240619Y0139600D02*
X0240619Y0133600D01*
X0250619Y0133600D02*
X0250619Y0139600D01*
X0205619Y0139600D02*
X0205619Y0133600D01*
X0195619Y0133600D02*
X0195619Y0139600D01*
X0185619Y0139600D02*
X0185619Y0133600D01*
X0175619Y0133600D02*
X0175619Y0139600D01*
X0150619Y0139600D02*
X0150619Y0133600D01*
X0140619Y0133600D02*
X0140619Y0139600D01*
D14*
X0245619Y0051600D03*
X0245619Y0021600D03*
X0230619Y0016600D03*
X0220619Y0016600D03*
D15*
X0180619Y0013300D02*
X0180619Y0019900D01*
X0165619Y0019900D02*
X0165619Y0013300D01*
X0150619Y0013300D02*
X0150619Y0019900D01*
X0130619Y0019900D02*
X0130619Y0013300D01*
X0115619Y0013300D02*
X0115619Y0019900D01*
X0100619Y0019900D02*
X0100619Y0013300D01*
D16*
X0070619Y0050057D03*
X0060619Y0054557D03*
X0070619Y0059057D03*
X0080619Y0063557D03*
X0070619Y0068057D03*
X0080619Y0072557D03*
X0070619Y0077057D03*
X0080619Y0081557D03*
X0070619Y0086057D03*
X0080619Y0090557D03*
X0060619Y0090557D03*
X0060619Y0081557D03*
X0060619Y0072557D03*
X0060619Y0063557D03*
X0270619Y0061643D03*
X0280619Y0057143D03*
X0290619Y0052643D03*
X0270619Y0052643D03*
X0290619Y0061643D03*
X0280619Y0066143D03*
X0270619Y0070643D03*
X0280619Y0075143D03*
X0290619Y0070643D03*
X0290619Y0079643D03*
X0280619Y0084143D03*
X0270619Y0079643D03*
X0290619Y0088643D03*
X0280619Y0093143D03*
D17*
X0270619Y0088643D03*
X0080619Y0054557D03*
D18*
X0070619Y0022387D03*
X0280619Y0022387D03*
X0280619Y0120813D03*
X0070619Y0120813D03*
D19*
X0147619Y0107600D03*
X0206721Y0126954D03*
X0218532Y0131285D03*
X0236619Y0120600D03*
X0253965Y0102939D03*
X0242942Y0091915D03*
X0217745Y0089946D03*
X0222076Y0076167D03*
X0217745Y0064356D03*
X0185068Y0079317D03*
X0152784Y0062781D03*
X0178769Y0045065D03*
X0087824Y0068687D03*
M02*
