%
M48
M72
T01C0.02400
T02C0.03150
T03C0.03200
T04C0.03600
T05C0.04000
T06C0.04400
T07C0.05200
T08C0.11800
T09C0.11900
T10C0.12598
%
T01
X142241Y341060
X165934Y301006
X174918Y279249
X194209Y264682
X209170Y286729
X232378Y274706
X230036Y247753
X250115Y241454
X264288Y238698
X280036Y256414
X264288Y264682
X301139Y263658
X316611Y272753
X305548Y273658
X326507Y285780
X350115Y263107
X380493Y276090
X382713Y269839
X388798Y269169
X392951Y271937
X397104Y278858
X419252Y295469
X420636Y307928
X449328Y323343
X391847Y348146
X379109Y343918
X379109Y359145
X361926Y350509
X341060Y384367
X285942Y385154
X290666Y364682
X290517Y354992
X312713Y348146
X266257Y336335
X248934Y345784
X230430Y332005
X207202Y312320
X239299Y301006
X248265Y310627
X153476Y277474
X142083Y281572
X164550Y230409
X163501Y222162
X173737Y220981
X159013Y208261
X154860Y211030
X154860Y217951
X167318Y201340
X159013Y193035
X154860Y197187
X186698Y165350
X192235Y165350
X197772Y165350
X203309Y165350
X199156Y145970
X188082Y144586
X203265Y132792
X218619Y137517
X214383Y145970
X246220Y165350
X251757Y165350
X261139Y159957
X282005Y155627
X296054Y165350
X300206Y150123
X309896Y141817
X314049Y145970
X332044Y145970
X336197Y152891
X339485Y169013
X323739Y177808
X300206Y194419
X320970Y195803
X356808Y174131
X380430Y180824
X392951Y175039
X402641Y180576
X408178Y168118
X427557Y161197
X437123Y159957
X448321Y169502
X432792Y178855
X472398Y210942
X514765Y187498
X535529Y194419
X494209Y140666
X474131Y127280
X499539Y112748
X495391Y104446
X548934Y66650
X502438Y52556
X504839Y30036
X423343Y93816
X340350Y112748
X332044Y134896
X245430Y174446
X233762Y111364
X223343Y78461
X90666Y208776
X360627Y226257
X399328Y256020
X425233Y225036
X447753Y256808
X552477Y339091
T02
X319957Y159328
X309957Y159328
X329957Y159328
T03
X54170Y366257
X64170Y366257
X72280Y344603
X82280Y344603
X198146Y279603
X218265Y290233
X228265Y290233
X238265Y290233
X248265Y290233
X258265Y290233
X268265Y290233
X278265Y290233
X288265Y290233
X298501Y274288
X268501Y274288
X248540Y265824
X228146Y279603
X218540Y265824
X235351Y215902
X245351Y215902
X255351Y215902
X265351Y215902
X275351Y215902
X285351Y215902
X295351Y215902
X305351Y215902
X315351Y215902
X325351Y215902
X335351Y215902
X345351Y215902
X355351Y215902
X365351Y215902
X381099Y207320
X396099Y207556
X410706Y207005
X437792Y206414
X447792Y206414
X457792Y206414
X488068Y213461
X488068Y223461
X457792Y236414
X447792Y236414
X437792Y236414
X410706Y237005
X396099Y237556
X381099Y237320
X365351Y185902
X355351Y185902
X345351Y185902
X335351Y185902
X325351Y185902
X315351Y185902
X305351Y185902
X295351Y185902
X285351Y185902
X275351Y185902
X265351Y185902
X255351Y185902
X245351Y185902
X235351Y185902
X239603Y87517
X249603Y87517
X249446Y65076
X259446Y65076
X501808Y88698
X511808Y88698
X512044Y66257
X522044Y66257
X554446Y236296
X584446Y236296
X584957Y291020
X573304Y312792
X563304Y312792
X559013Y334131
X589013Y334131
X554957Y291020
X342517Y343028
X332517Y343028
X325981Y365863
X315981Y365863
X258186Y360706
X278265Y359918
X278265Y329918
X278265Y320233
X288265Y320233
X268265Y320233
X258265Y320233
X248265Y320233
X238265Y320233
X228265Y320233
X218265Y320233
X258186Y330706
X83973Y134643
X83973Y124643
X63501Y111020
X63501Y101020
T04
X211414Y207556
X211414Y237556
X145036Y251690
X115036Y251690
X185548Y293383
X185548Y323383
X436335Y317871
X436335Y287871
X536572Y211335
X536572Y201335
X570548Y172359
X570548Y162359
X570548Y152359
X495036Y178737
X465036Y178737
X360351Y153698
X360351Y123698
X246965Y117792
X246965Y147792
T05
X187792Y187792
X187792Y197792
X187792Y207792
X187792Y217792
X187792Y227792
X187792Y237792
X315706Y303343
X325706Y303343
X335706Y303343
X335706Y313343
X325706Y313343
X315706Y313343
X565391Y43776
X575391Y43776
X575391Y53776
X565391Y53776
X565391Y63776
X575391Y63776
X575391Y73776
X565391Y73776
X565391Y83776
X575391Y83776
X546847Y125627
X536847Y125627
X526847Y125627
X516847Y125627
X516060Y169957
X526060Y169957
X536060Y169957
X546060Y169957
X558929Y197396
X558929Y215196
X584529Y215196
X584529Y197396
X584923Y252002
X584923Y269802
X559323Y269802
X559323Y252002
T06
X535233Y333894
X535233Y293894
T07
X81690Y64800
X96690Y64800
X111690Y64800
X126690Y64800
X141690Y64800
X156690Y64800
X171690Y64800
X186690Y64800
X201690Y64800
X216690Y64800
X231690Y64800
X224190Y44800
X209190Y44800
X194190Y44800
X179190Y44800
X164190Y44800
X149190Y44800
X134190Y44800
X119190Y44800
X104190Y44800
X89190Y44800
X64800Y147083
X44800Y154583
X64800Y162083
X64800Y177083
X44800Y169583
X44800Y184583
X64800Y192083
X64800Y207083
X44800Y199583
X44800Y214583
X44800Y229583
X64800Y222083
X64800Y237083
X44800Y244583
X44800Y259583
X64800Y252083
X64800Y267083
X44800Y274583
X44800Y289583
X64800Y282083
X64800Y297083
X88087Y388619
X103087Y388619
X118087Y388619
X133087Y388619
X148087Y388619
X163087Y388619
X178087Y388619
X193087Y388619
X208087Y388619
X223087Y388619
X215587Y368619
X200587Y368619
X185587Y368619
X170587Y368619
X155587Y368619
X140587Y368619
X125587Y368619
X110587Y368619
X95587Y368619
X80587Y368619
X230587Y368619
X349820Y388619
X364820Y388619
X379820Y388619
X394820Y388619
X409820Y388619
X424820Y388619
X439820Y388619
X454820Y388619
X469820Y388619
X484820Y388619
X492320Y368619
X477320Y368619
X462320Y368619
X447320Y368619
X432320Y368619
X417320Y368619
X402320Y368619
X387320Y368619
X372320Y368619
X357320Y368619
X342320Y368619
X494367Y64800
X479367Y64800
X464367Y64800
X449367Y64800
X434367Y64800
X419367Y64800
X404367Y64800
X389367Y64800
X374367Y64800
X359367Y64800
X344367Y64800
X351867Y44800
X366867Y44800
X381867Y44800
X396867Y44800
X411867Y44800
X426867Y44800
X441867Y44800
X456867Y44800
X471867Y44800
X486867Y44800
T08
X552202Y373507
X568513Y358798
T09
X51587Y387619
X51587Y401619
X31800Y326083
X45800Y326083
X259587Y387619
X259587Y401619
X313320Y387619
X313320Y401619
X521320Y387619
X521320Y401619
X523367Y45800
X523367Y31800
X315367Y45800
X315367Y31800
X260690Y45800
X260690Y31800
X52690Y45800
X52690Y31800
X45800Y118083
X31800Y118083
T10
X41099Y74288
X288973Y62831
X568107Y119328
X302635Y327950
X34957Y365981
X570824Y394052
X539691Y358698
M30
