%
M48
M72
T01C0.02400
T02C0.03200
T03C0.03600
T04C0.04000
T05C0.04400
T06C0.12598
%
T01
X82102Y131020
X151197Y170882
X175213Y186236
X165370Y194504
X238205Y186630
X238205Y176394
X274031Y208283
X263402Y210646
X273244Y226787
X318323Y171866
X247260Y110252
X238598Y108874
X224622Y108874
X200213Y104937
X194799Y116256
X181512Y116748
X163795Y105921
X190862Y131512
X184957Y29642
T02
X37378Y42535
X56827Y22457
X66827Y22457
X67378Y42535
X98559Y24425
X108559Y24425
X119307Y62969
X128756Y62969
X138205Y62969
X147654Y62969
X147654Y92969
X138205Y92969
X128756Y92969
X119307Y92969
X104386Y159031
X94386Y159031
X84386Y159031
X74386Y159031
X74386Y189031
X84386Y189031
X94386Y189031
X104386Y189031
X79976Y227969
X49976Y227969
X31906Y189425
X31906Y159425
X229543Y114622
X238598Y114622
X260488Y116157
X260488Y104346
X280488Y104346
X280488Y116157
X280488Y127575
X280488Y138992
X260488Y138992
X260488Y127575
X238598Y84622
X229543Y84622
X252654Y206709
X242654Y206709
X242654Y215370
X252654Y215370
X252654Y223638
X242654Y223638
X242654Y231906
X252654Y231906
T03
X51157Y209071
X49622Y189425
X81157Y209071
X126315Y189701
X126315Y159701
X49622Y159425
X178717Y84661
X208717Y84661
X220488Y59504
X220488Y29504
X324780Y52378
X354780Y52378
X334071Y156866
X324071Y156866
X324071Y166866
X334071Y166866
X334071Y176866
X324071Y176866
X324071Y186866
X334071Y186866
X334071Y196866
X324071Y196866
X324071Y206866
X334071Y206866
X334071Y216866
X324071Y216866
X324071Y226866
X334071Y226866
T04
X315606Y19701
X325606Y19701
X335606Y19701
X351591Y153008
X351591Y163008
X351591Y173008
X351591Y183008
X351591Y193008
X351591Y203008
X351591Y213008
T05
X17732Y139819
X17732Y124819
X17732Y109819
X17732Y93362
X17732Y78362
X17732Y63362
X186906Y160921
X186906Y170921
X186906Y180921
X186906Y190921
X186906Y200921
X186906Y210921
X186906Y220921
X186906Y230921
X289071Y231866
X289071Y221866
X289071Y211866
X289071Y201866
X289071Y191866
X289071Y181866
X289071Y171866
X289071Y161866
X299228Y58598
X299228Y18598
T06
X13008Y11827
X12614Y229543
X353165Y229543
X353165Y12614
M30
