G75*
%MOIN*%
%OFA0B0*%
%FSLAX25Y25*%
%IPPOS*%
%LPD*%
%AMOC8*
5,1,8,0,0,1.08239X$1,22.5*
%
%ADD10C,0.00000*%
%ADD11C,0.00500*%
%ADD12C,0.01600*%
%ADD13C,0.00600*%
%ADD14C,0.00800*%
%ADD15C,0.00400*%
%ADD16R,0.02000X0.01500*%
%ADD17R,0.01500X0.02000*%
%ADD18C,0.00100*%
%ADD19R,0.10000X0.02000*%
%ADD20R,0.03000X0.07500*%
%ADD21C,0.01000*%
%ADD22C,0.00700*%
%ADD23C,0.01200*%
%ADD24C,0.02000*%
D10*
X0001984Y0001866D02*
X0001984Y0240567D01*
X0363992Y0240567D01*
X0363992Y0001866D01*
X0001984Y0001866D01*
X0006709Y0011827D02*
X0006711Y0011985D01*
X0006717Y0012143D01*
X0006727Y0012301D01*
X0006741Y0012459D01*
X0006759Y0012616D01*
X0006780Y0012773D01*
X0006806Y0012929D01*
X0006836Y0013085D01*
X0006869Y0013240D01*
X0006907Y0013393D01*
X0006948Y0013546D01*
X0006993Y0013698D01*
X0007042Y0013849D01*
X0007095Y0013998D01*
X0007151Y0014146D01*
X0007211Y0014292D01*
X0007275Y0014437D01*
X0007343Y0014580D01*
X0007414Y0014722D01*
X0007488Y0014862D01*
X0007566Y0014999D01*
X0007648Y0015135D01*
X0007732Y0015269D01*
X0007821Y0015400D01*
X0007912Y0015529D01*
X0008007Y0015656D01*
X0008104Y0015781D01*
X0008205Y0015903D01*
X0008309Y0016022D01*
X0008416Y0016139D01*
X0008526Y0016253D01*
X0008639Y0016364D01*
X0008754Y0016473D01*
X0008872Y0016578D01*
X0008993Y0016680D01*
X0009116Y0016780D01*
X0009242Y0016876D01*
X0009370Y0016969D01*
X0009500Y0017059D01*
X0009633Y0017145D01*
X0009768Y0017229D01*
X0009904Y0017308D01*
X0010043Y0017385D01*
X0010184Y0017457D01*
X0010326Y0017527D01*
X0010470Y0017592D01*
X0010616Y0017654D01*
X0010763Y0017712D01*
X0010912Y0017767D01*
X0011062Y0017818D01*
X0011213Y0017865D01*
X0011365Y0017908D01*
X0011518Y0017947D01*
X0011673Y0017983D01*
X0011828Y0018014D01*
X0011984Y0018042D01*
X0012140Y0018066D01*
X0012297Y0018086D01*
X0012455Y0018102D01*
X0012612Y0018114D01*
X0012771Y0018122D01*
X0012929Y0018126D01*
X0013087Y0018126D01*
X0013245Y0018122D01*
X0013404Y0018114D01*
X0013561Y0018102D01*
X0013719Y0018086D01*
X0013876Y0018066D01*
X0014032Y0018042D01*
X0014188Y0018014D01*
X0014343Y0017983D01*
X0014498Y0017947D01*
X0014651Y0017908D01*
X0014803Y0017865D01*
X0014954Y0017818D01*
X0015104Y0017767D01*
X0015253Y0017712D01*
X0015400Y0017654D01*
X0015546Y0017592D01*
X0015690Y0017527D01*
X0015832Y0017457D01*
X0015973Y0017385D01*
X0016112Y0017308D01*
X0016248Y0017229D01*
X0016383Y0017145D01*
X0016516Y0017059D01*
X0016646Y0016969D01*
X0016774Y0016876D01*
X0016900Y0016780D01*
X0017023Y0016680D01*
X0017144Y0016578D01*
X0017262Y0016473D01*
X0017377Y0016364D01*
X0017490Y0016253D01*
X0017600Y0016139D01*
X0017707Y0016022D01*
X0017811Y0015903D01*
X0017912Y0015781D01*
X0018009Y0015656D01*
X0018104Y0015529D01*
X0018195Y0015400D01*
X0018284Y0015269D01*
X0018368Y0015135D01*
X0018450Y0014999D01*
X0018528Y0014862D01*
X0018602Y0014722D01*
X0018673Y0014580D01*
X0018741Y0014437D01*
X0018805Y0014292D01*
X0018865Y0014146D01*
X0018921Y0013998D01*
X0018974Y0013849D01*
X0019023Y0013698D01*
X0019068Y0013546D01*
X0019109Y0013393D01*
X0019147Y0013240D01*
X0019180Y0013085D01*
X0019210Y0012929D01*
X0019236Y0012773D01*
X0019257Y0012616D01*
X0019275Y0012459D01*
X0019289Y0012301D01*
X0019299Y0012143D01*
X0019305Y0011985D01*
X0019307Y0011827D01*
X0019305Y0011669D01*
X0019299Y0011511D01*
X0019289Y0011353D01*
X0019275Y0011195D01*
X0019257Y0011038D01*
X0019236Y0010881D01*
X0019210Y0010725D01*
X0019180Y0010569D01*
X0019147Y0010414D01*
X0019109Y0010261D01*
X0019068Y0010108D01*
X0019023Y0009956D01*
X0018974Y0009805D01*
X0018921Y0009656D01*
X0018865Y0009508D01*
X0018805Y0009362D01*
X0018741Y0009217D01*
X0018673Y0009074D01*
X0018602Y0008932D01*
X0018528Y0008792D01*
X0018450Y0008655D01*
X0018368Y0008519D01*
X0018284Y0008385D01*
X0018195Y0008254D01*
X0018104Y0008125D01*
X0018009Y0007998D01*
X0017912Y0007873D01*
X0017811Y0007751D01*
X0017707Y0007632D01*
X0017600Y0007515D01*
X0017490Y0007401D01*
X0017377Y0007290D01*
X0017262Y0007181D01*
X0017144Y0007076D01*
X0017023Y0006974D01*
X0016900Y0006874D01*
X0016774Y0006778D01*
X0016646Y0006685D01*
X0016516Y0006595D01*
X0016383Y0006509D01*
X0016248Y0006425D01*
X0016112Y0006346D01*
X0015973Y0006269D01*
X0015832Y0006197D01*
X0015690Y0006127D01*
X0015546Y0006062D01*
X0015400Y0006000D01*
X0015253Y0005942D01*
X0015104Y0005887D01*
X0014954Y0005836D01*
X0014803Y0005789D01*
X0014651Y0005746D01*
X0014498Y0005707D01*
X0014343Y0005671D01*
X0014188Y0005640D01*
X0014032Y0005612D01*
X0013876Y0005588D01*
X0013719Y0005568D01*
X0013561Y0005552D01*
X0013404Y0005540D01*
X0013245Y0005532D01*
X0013087Y0005528D01*
X0012929Y0005528D01*
X0012771Y0005532D01*
X0012612Y0005540D01*
X0012455Y0005552D01*
X0012297Y0005568D01*
X0012140Y0005588D01*
X0011984Y0005612D01*
X0011828Y0005640D01*
X0011673Y0005671D01*
X0011518Y0005707D01*
X0011365Y0005746D01*
X0011213Y0005789D01*
X0011062Y0005836D01*
X0010912Y0005887D01*
X0010763Y0005942D01*
X0010616Y0006000D01*
X0010470Y0006062D01*
X0010326Y0006127D01*
X0010184Y0006197D01*
X0010043Y0006269D01*
X0009904Y0006346D01*
X0009768Y0006425D01*
X0009633Y0006509D01*
X0009500Y0006595D01*
X0009370Y0006685D01*
X0009242Y0006778D01*
X0009116Y0006874D01*
X0008993Y0006974D01*
X0008872Y0007076D01*
X0008754Y0007181D01*
X0008639Y0007290D01*
X0008526Y0007401D01*
X0008416Y0007515D01*
X0008309Y0007632D01*
X0008205Y0007751D01*
X0008104Y0007873D01*
X0008007Y0007998D01*
X0007912Y0008125D01*
X0007821Y0008254D01*
X0007732Y0008385D01*
X0007648Y0008519D01*
X0007566Y0008655D01*
X0007488Y0008792D01*
X0007414Y0008932D01*
X0007343Y0009074D01*
X0007275Y0009217D01*
X0007211Y0009362D01*
X0007151Y0009508D01*
X0007095Y0009656D01*
X0007042Y0009805D01*
X0006993Y0009956D01*
X0006948Y0010108D01*
X0006907Y0010261D01*
X0006869Y0010414D01*
X0006836Y0010569D01*
X0006806Y0010725D01*
X0006780Y0010881D01*
X0006759Y0011038D01*
X0006741Y0011195D01*
X0006727Y0011353D01*
X0006717Y0011511D01*
X0006711Y0011669D01*
X0006709Y0011827D01*
X0006315Y0229543D02*
X0006317Y0229701D01*
X0006323Y0229859D01*
X0006333Y0230017D01*
X0006347Y0230175D01*
X0006365Y0230332D01*
X0006386Y0230489D01*
X0006412Y0230645D01*
X0006442Y0230801D01*
X0006475Y0230956D01*
X0006513Y0231109D01*
X0006554Y0231262D01*
X0006599Y0231414D01*
X0006648Y0231565D01*
X0006701Y0231714D01*
X0006757Y0231862D01*
X0006817Y0232008D01*
X0006881Y0232153D01*
X0006949Y0232296D01*
X0007020Y0232438D01*
X0007094Y0232578D01*
X0007172Y0232715D01*
X0007254Y0232851D01*
X0007338Y0232985D01*
X0007427Y0233116D01*
X0007518Y0233245D01*
X0007613Y0233372D01*
X0007710Y0233497D01*
X0007811Y0233619D01*
X0007915Y0233738D01*
X0008022Y0233855D01*
X0008132Y0233969D01*
X0008245Y0234080D01*
X0008360Y0234189D01*
X0008478Y0234294D01*
X0008599Y0234396D01*
X0008722Y0234496D01*
X0008848Y0234592D01*
X0008976Y0234685D01*
X0009106Y0234775D01*
X0009239Y0234861D01*
X0009374Y0234945D01*
X0009510Y0235024D01*
X0009649Y0235101D01*
X0009790Y0235173D01*
X0009932Y0235243D01*
X0010076Y0235308D01*
X0010222Y0235370D01*
X0010369Y0235428D01*
X0010518Y0235483D01*
X0010668Y0235534D01*
X0010819Y0235581D01*
X0010971Y0235624D01*
X0011124Y0235663D01*
X0011279Y0235699D01*
X0011434Y0235730D01*
X0011590Y0235758D01*
X0011746Y0235782D01*
X0011903Y0235802D01*
X0012061Y0235818D01*
X0012218Y0235830D01*
X0012377Y0235838D01*
X0012535Y0235842D01*
X0012693Y0235842D01*
X0012851Y0235838D01*
X0013010Y0235830D01*
X0013167Y0235818D01*
X0013325Y0235802D01*
X0013482Y0235782D01*
X0013638Y0235758D01*
X0013794Y0235730D01*
X0013949Y0235699D01*
X0014104Y0235663D01*
X0014257Y0235624D01*
X0014409Y0235581D01*
X0014560Y0235534D01*
X0014710Y0235483D01*
X0014859Y0235428D01*
X0015006Y0235370D01*
X0015152Y0235308D01*
X0015296Y0235243D01*
X0015438Y0235173D01*
X0015579Y0235101D01*
X0015718Y0235024D01*
X0015854Y0234945D01*
X0015989Y0234861D01*
X0016122Y0234775D01*
X0016252Y0234685D01*
X0016380Y0234592D01*
X0016506Y0234496D01*
X0016629Y0234396D01*
X0016750Y0234294D01*
X0016868Y0234189D01*
X0016983Y0234080D01*
X0017096Y0233969D01*
X0017206Y0233855D01*
X0017313Y0233738D01*
X0017417Y0233619D01*
X0017518Y0233497D01*
X0017615Y0233372D01*
X0017710Y0233245D01*
X0017801Y0233116D01*
X0017890Y0232985D01*
X0017974Y0232851D01*
X0018056Y0232715D01*
X0018134Y0232578D01*
X0018208Y0232438D01*
X0018279Y0232296D01*
X0018347Y0232153D01*
X0018411Y0232008D01*
X0018471Y0231862D01*
X0018527Y0231714D01*
X0018580Y0231565D01*
X0018629Y0231414D01*
X0018674Y0231262D01*
X0018715Y0231109D01*
X0018753Y0230956D01*
X0018786Y0230801D01*
X0018816Y0230645D01*
X0018842Y0230489D01*
X0018863Y0230332D01*
X0018881Y0230175D01*
X0018895Y0230017D01*
X0018905Y0229859D01*
X0018911Y0229701D01*
X0018913Y0229543D01*
X0018911Y0229385D01*
X0018905Y0229227D01*
X0018895Y0229069D01*
X0018881Y0228911D01*
X0018863Y0228754D01*
X0018842Y0228597D01*
X0018816Y0228441D01*
X0018786Y0228285D01*
X0018753Y0228130D01*
X0018715Y0227977D01*
X0018674Y0227824D01*
X0018629Y0227672D01*
X0018580Y0227521D01*
X0018527Y0227372D01*
X0018471Y0227224D01*
X0018411Y0227078D01*
X0018347Y0226933D01*
X0018279Y0226790D01*
X0018208Y0226648D01*
X0018134Y0226508D01*
X0018056Y0226371D01*
X0017974Y0226235D01*
X0017890Y0226101D01*
X0017801Y0225970D01*
X0017710Y0225841D01*
X0017615Y0225714D01*
X0017518Y0225589D01*
X0017417Y0225467D01*
X0017313Y0225348D01*
X0017206Y0225231D01*
X0017096Y0225117D01*
X0016983Y0225006D01*
X0016868Y0224897D01*
X0016750Y0224792D01*
X0016629Y0224690D01*
X0016506Y0224590D01*
X0016380Y0224494D01*
X0016252Y0224401D01*
X0016122Y0224311D01*
X0015989Y0224225D01*
X0015854Y0224141D01*
X0015718Y0224062D01*
X0015579Y0223985D01*
X0015438Y0223913D01*
X0015296Y0223843D01*
X0015152Y0223778D01*
X0015006Y0223716D01*
X0014859Y0223658D01*
X0014710Y0223603D01*
X0014560Y0223552D01*
X0014409Y0223505D01*
X0014257Y0223462D01*
X0014104Y0223423D01*
X0013949Y0223387D01*
X0013794Y0223356D01*
X0013638Y0223328D01*
X0013482Y0223304D01*
X0013325Y0223284D01*
X0013167Y0223268D01*
X0013010Y0223256D01*
X0012851Y0223248D01*
X0012693Y0223244D01*
X0012535Y0223244D01*
X0012377Y0223248D01*
X0012218Y0223256D01*
X0012061Y0223268D01*
X0011903Y0223284D01*
X0011746Y0223304D01*
X0011590Y0223328D01*
X0011434Y0223356D01*
X0011279Y0223387D01*
X0011124Y0223423D01*
X0010971Y0223462D01*
X0010819Y0223505D01*
X0010668Y0223552D01*
X0010518Y0223603D01*
X0010369Y0223658D01*
X0010222Y0223716D01*
X0010076Y0223778D01*
X0009932Y0223843D01*
X0009790Y0223913D01*
X0009649Y0223985D01*
X0009510Y0224062D01*
X0009374Y0224141D01*
X0009239Y0224225D01*
X0009106Y0224311D01*
X0008976Y0224401D01*
X0008848Y0224494D01*
X0008722Y0224590D01*
X0008599Y0224690D01*
X0008478Y0224792D01*
X0008360Y0224897D01*
X0008245Y0225006D01*
X0008132Y0225117D01*
X0008022Y0225231D01*
X0007915Y0225348D01*
X0007811Y0225467D01*
X0007710Y0225589D01*
X0007613Y0225714D01*
X0007518Y0225841D01*
X0007427Y0225970D01*
X0007338Y0226101D01*
X0007254Y0226235D01*
X0007172Y0226371D01*
X0007094Y0226508D01*
X0007020Y0226648D01*
X0006949Y0226790D01*
X0006881Y0226933D01*
X0006817Y0227078D01*
X0006757Y0227224D01*
X0006701Y0227372D01*
X0006648Y0227521D01*
X0006599Y0227672D01*
X0006554Y0227824D01*
X0006513Y0227977D01*
X0006475Y0228130D01*
X0006442Y0228285D01*
X0006412Y0228441D01*
X0006386Y0228597D01*
X0006365Y0228754D01*
X0006347Y0228911D01*
X0006333Y0229069D01*
X0006323Y0229227D01*
X0006317Y0229385D01*
X0006315Y0229543D01*
X0346866Y0229543D02*
X0346868Y0229701D01*
X0346874Y0229859D01*
X0346884Y0230017D01*
X0346898Y0230175D01*
X0346916Y0230332D01*
X0346937Y0230489D01*
X0346963Y0230645D01*
X0346993Y0230801D01*
X0347026Y0230956D01*
X0347064Y0231109D01*
X0347105Y0231262D01*
X0347150Y0231414D01*
X0347199Y0231565D01*
X0347252Y0231714D01*
X0347308Y0231862D01*
X0347368Y0232008D01*
X0347432Y0232153D01*
X0347500Y0232296D01*
X0347571Y0232438D01*
X0347645Y0232578D01*
X0347723Y0232715D01*
X0347805Y0232851D01*
X0347889Y0232985D01*
X0347978Y0233116D01*
X0348069Y0233245D01*
X0348164Y0233372D01*
X0348261Y0233497D01*
X0348362Y0233619D01*
X0348466Y0233738D01*
X0348573Y0233855D01*
X0348683Y0233969D01*
X0348796Y0234080D01*
X0348911Y0234189D01*
X0349029Y0234294D01*
X0349150Y0234396D01*
X0349273Y0234496D01*
X0349399Y0234592D01*
X0349527Y0234685D01*
X0349657Y0234775D01*
X0349790Y0234861D01*
X0349925Y0234945D01*
X0350061Y0235024D01*
X0350200Y0235101D01*
X0350341Y0235173D01*
X0350483Y0235243D01*
X0350627Y0235308D01*
X0350773Y0235370D01*
X0350920Y0235428D01*
X0351069Y0235483D01*
X0351219Y0235534D01*
X0351370Y0235581D01*
X0351522Y0235624D01*
X0351675Y0235663D01*
X0351830Y0235699D01*
X0351985Y0235730D01*
X0352141Y0235758D01*
X0352297Y0235782D01*
X0352454Y0235802D01*
X0352612Y0235818D01*
X0352769Y0235830D01*
X0352928Y0235838D01*
X0353086Y0235842D01*
X0353244Y0235842D01*
X0353402Y0235838D01*
X0353561Y0235830D01*
X0353718Y0235818D01*
X0353876Y0235802D01*
X0354033Y0235782D01*
X0354189Y0235758D01*
X0354345Y0235730D01*
X0354500Y0235699D01*
X0354655Y0235663D01*
X0354808Y0235624D01*
X0354960Y0235581D01*
X0355111Y0235534D01*
X0355261Y0235483D01*
X0355410Y0235428D01*
X0355557Y0235370D01*
X0355703Y0235308D01*
X0355847Y0235243D01*
X0355989Y0235173D01*
X0356130Y0235101D01*
X0356269Y0235024D01*
X0356405Y0234945D01*
X0356540Y0234861D01*
X0356673Y0234775D01*
X0356803Y0234685D01*
X0356931Y0234592D01*
X0357057Y0234496D01*
X0357180Y0234396D01*
X0357301Y0234294D01*
X0357419Y0234189D01*
X0357534Y0234080D01*
X0357647Y0233969D01*
X0357757Y0233855D01*
X0357864Y0233738D01*
X0357968Y0233619D01*
X0358069Y0233497D01*
X0358166Y0233372D01*
X0358261Y0233245D01*
X0358352Y0233116D01*
X0358441Y0232985D01*
X0358525Y0232851D01*
X0358607Y0232715D01*
X0358685Y0232578D01*
X0358759Y0232438D01*
X0358830Y0232296D01*
X0358898Y0232153D01*
X0358962Y0232008D01*
X0359022Y0231862D01*
X0359078Y0231714D01*
X0359131Y0231565D01*
X0359180Y0231414D01*
X0359225Y0231262D01*
X0359266Y0231109D01*
X0359304Y0230956D01*
X0359337Y0230801D01*
X0359367Y0230645D01*
X0359393Y0230489D01*
X0359414Y0230332D01*
X0359432Y0230175D01*
X0359446Y0230017D01*
X0359456Y0229859D01*
X0359462Y0229701D01*
X0359464Y0229543D01*
X0359462Y0229385D01*
X0359456Y0229227D01*
X0359446Y0229069D01*
X0359432Y0228911D01*
X0359414Y0228754D01*
X0359393Y0228597D01*
X0359367Y0228441D01*
X0359337Y0228285D01*
X0359304Y0228130D01*
X0359266Y0227977D01*
X0359225Y0227824D01*
X0359180Y0227672D01*
X0359131Y0227521D01*
X0359078Y0227372D01*
X0359022Y0227224D01*
X0358962Y0227078D01*
X0358898Y0226933D01*
X0358830Y0226790D01*
X0358759Y0226648D01*
X0358685Y0226508D01*
X0358607Y0226371D01*
X0358525Y0226235D01*
X0358441Y0226101D01*
X0358352Y0225970D01*
X0358261Y0225841D01*
X0358166Y0225714D01*
X0358069Y0225589D01*
X0357968Y0225467D01*
X0357864Y0225348D01*
X0357757Y0225231D01*
X0357647Y0225117D01*
X0357534Y0225006D01*
X0357419Y0224897D01*
X0357301Y0224792D01*
X0357180Y0224690D01*
X0357057Y0224590D01*
X0356931Y0224494D01*
X0356803Y0224401D01*
X0356673Y0224311D01*
X0356540Y0224225D01*
X0356405Y0224141D01*
X0356269Y0224062D01*
X0356130Y0223985D01*
X0355989Y0223913D01*
X0355847Y0223843D01*
X0355703Y0223778D01*
X0355557Y0223716D01*
X0355410Y0223658D01*
X0355261Y0223603D01*
X0355111Y0223552D01*
X0354960Y0223505D01*
X0354808Y0223462D01*
X0354655Y0223423D01*
X0354500Y0223387D01*
X0354345Y0223356D01*
X0354189Y0223328D01*
X0354033Y0223304D01*
X0353876Y0223284D01*
X0353718Y0223268D01*
X0353561Y0223256D01*
X0353402Y0223248D01*
X0353244Y0223244D01*
X0353086Y0223244D01*
X0352928Y0223248D01*
X0352769Y0223256D01*
X0352612Y0223268D01*
X0352454Y0223284D01*
X0352297Y0223304D01*
X0352141Y0223328D01*
X0351985Y0223356D01*
X0351830Y0223387D01*
X0351675Y0223423D01*
X0351522Y0223462D01*
X0351370Y0223505D01*
X0351219Y0223552D01*
X0351069Y0223603D01*
X0350920Y0223658D01*
X0350773Y0223716D01*
X0350627Y0223778D01*
X0350483Y0223843D01*
X0350341Y0223913D01*
X0350200Y0223985D01*
X0350061Y0224062D01*
X0349925Y0224141D01*
X0349790Y0224225D01*
X0349657Y0224311D01*
X0349527Y0224401D01*
X0349399Y0224494D01*
X0349273Y0224590D01*
X0349150Y0224690D01*
X0349029Y0224792D01*
X0348911Y0224897D01*
X0348796Y0225006D01*
X0348683Y0225117D01*
X0348573Y0225231D01*
X0348466Y0225348D01*
X0348362Y0225467D01*
X0348261Y0225589D01*
X0348164Y0225714D01*
X0348069Y0225841D01*
X0347978Y0225970D01*
X0347889Y0226101D01*
X0347805Y0226235D01*
X0347723Y0226371D01*
X0347645Y0226508D01*
X0347571Y0226648D01*
X0347500Y0226790D01*
X0347432Y0226933D01*
X0347368Y0227078D01*
X0347308Y0227224D01*
X0347252Y0227372D01*
X0347199Y0227521D01*
X0347150Y0227672D01*
X0347105Y0227824D01*
X0347064Y0227977D01*
X0347026Y0228130D01*
X0346993Y0228285D01*
X0346963Y0228441D01*
X0346937Y0228597D01*
X0346916Y0228754D01*
X0346898Y0228911D01*
X0346884Y0229069D01*
X0346874Y0229227D01*
X0346868Y0229385D01*
X0346866Y0229543D01*
X0346866Y0012614D02*
X0346868Y0012772D01*
X0346874Y0012930D01*
X0346884Y0013088D01*
X0346898Y0013246D01*
X0346916Y0013403D01*
X0346937Y0013560D01*
X0346963Y0013716D01*
X0346993Y0013872D01*
X0347026Y0014027D01*
X0347064Y0014180D01*
X0347105Y0014333D01*
X0347150Y0014485D01*
X0347199Y0014636D01*
X0347252Y0014785D01*
X0347308Y0014933D01*
X0347368Y0015079D01*
X0347432Y0015224D01*
X0347500Y0015367D01*
X0347571Y0015509D01*
X0347645Y0015649D01*
X0347723Y0015786D01*
X0347805Y0015922D01*
X0347889Y0016056D01*
X0347978Y0016187D01*
X0348069Y0016316D01*
X0348164Y0016443D01*
X0348261Y0016568D01*
X0348362Y0016690D01*
X0348466Y0016809D01*
X0348573Y0016926D01*
X0348683Y0017040D01*
X0348796Y0017151D01*
X0348911Y0017260D01*
X0349029Y0017365D01*
X0349150Y0017467D01*
X0349273Y0017567D01*
X0349399Y0017663D01*
X0349527Y0017756D01*
X0349657Y0017846D01*
X0349790Y0017932D01*
X0349925Y0018016D01*
X0350061Y0018095D01*
X0350200Y0018172D01*
X0350341Y0018244D01*
X0350483Y0018314D01*
X0350627Y0018379D01*
X0350773Y0018441D01*
X0350920Y0018499D01*
X0351069Y0018554D01*
X0351219Y0018605D01*
X0351370Y0018652D01*
X0351522Y0018695D01*
X0351675Y0018734D01*
X0351830Y0018770D01*
X0351985Y0018801D01*
X0352141Y0018829D01*
X0352297Y0018853D01*
X0352454Y0018873D01*
X0352612Y0018889D01*
X0352769Y0018901D01*
X0352928Y0018909D01*
X0353086Y0018913D01*
X0353244Y0018913D01*
X0353402Y0018909D01*
X0353561Y0018901D01*
X0353718Y0018889D01*
X0353876Y0018873D01*
X0354033Y0018853D01*
X0354189Y0018829D01*
X0354345Y0018801D01*
X0354500Y0018770D01*
X0354655Y0018734D01*
X0354808Y0018695D01*
X0354960Y0018652D01*
X0355111Y0018605D01*
X0355261Y0018554D01*
X0355410Y0018499D01*
X0355557Y0018441D01*
X0355703Y0018379D01*
X0355847Y0018314D01*
X0355989Y0018244D01*
X0356130Y0018172D01*
X0356269Y0018095D01*
X0356405Y0018016D01*
X0356540Y0017932D01*
X0356673Y0017846D01*
X0356803Y0017756D01*
X0356931Y0017663D01*
X0357057Y0017567D01*
X0357180Y0017467D01*
X0357301Y0017365D01*
X0357419Y0017260D01*
X0357534Y0017151D01*
X0357647Y0017040D01*
X0357757Y0016926D01*
X0357864Y0016809D01*
X0357968Y0016690D01*
X0358069Y0016568D01*
X0358166Y0016443D01*
X0358261Y0016316D01*
X0358352Y0016187D01*
X0358441Y0016056D01*
X0358525Y0015922D01*
X0358607Y0015786D01*
X0358685Y0015649D01*
X0358759Y0015509D01*
X0358830Y0015367D01*
X0358898Y0015224D01*
X0358962Y0015079D01*
X0359022Y0014933D01*
X0359078Y0014785D01*
X0359131Y0014636D01*
X0359180Y0014485D01*
X0359225Y0014333D01*
X0359266Y0014180D01*
X0359304Y0014027D01*
X0359337Y0013872D01*
X0359367Y0013716D01*
X0359393Y0013560D01*
X0359414Y0013403D01*
X0359432Y0013246D01*
X0359446Y0013088D01*
X0359456Y0012930D01*
X0359462Y0012772D01*
X0359464Y0012614D01*
X0359462Y0012456D01*
X0359456Y0012298D01*
X0359446Y0012140D01*
X0359432Y0011982D01*
X0359414Y0011825D01*
X0359393Y0011668D01*
X0359367Y0011512D01*
X0359337Y0011356D01*
X0359304Y0011201D01*
X0359266Y0011048D01*
X0359225Y0010895D01*
X0359180Y0010743D01*
X0359131Y0010592D01*
X0359078Y0010443D01*
X0359022Y0010295D01*
X0358962Y0010149D01*
X0358898Y0010004D01*
X0358830Y0009861D01*
X0358759Y0009719D01*
X0358685Y0009579D01*
X0358607Y0009442D01*
X0358525Y0009306D01*
X0358441Y0009172D01*
X0358352Y0009041D01*
X0358261Y0008912D01*
X0358166Y0008785D01*
X0358069Y0008660D01*
X0357968Y0008538D01*
X0357864Y0008419D01*
X0357757Y0008302D01*
X0357647Y0008188D01*
X0357534Y0008077D01*
X0357419Y0007968D01*
X0357301Y0007863D01*
X0357180Y0007761D01*
X0357057Y0007661D01*
X0356931Y0007565D01*
X0356803Y0007472D01*
X0356673Y0007382D01*
X0356540Y0007296D01*
X0356405Y0007212D01*
X0356269Y0007133D01*
X0356130Y0007056D01*
X0355989Y0006984D01*
X0355847Y0006914D01*
X0355703Y0006849D01*
X0355557Y0006787D01*
X0355410Y0006729D01*
X0355261Y0006674D01*
X0355111Y0006623D01*
X0354960Y0006576D01*
X0354808Y0006533D01*
X0354655Y0006494D01*
X0354500Y0006458D01*
X0354345Y0006427D01*
X0354189Y0006399D01*
X0354033Y0006375D01*
X0353876Y0006355D01*
X0353718Y0006339D01*
X0353561Y0006327D01*
X0353402Y0006319D01*
X0353244Y0006315D01*
X0353086Y0006315D01*
X0352928Y0006319D01*
X0352769Y0006327D01*
X0352612Y0006339D01*
X0352454Y0006355D01*
X0352297Y0006375D01*
X0352141Y0006399D01*
X0351985Y0006427D01*
X0351830Y0006458D01*
X0351675Y0006494D01*
X0351522Y0006533D01*
X0351370Y0006576D01*
X0351219Y0006623D01*
X0351069Y0006674D01*
X0350920Y0006729D01*
X0350773Y0006787D01*
X0350627Y0006849D01*
X0350483Y0006914D01*
X0350341Y0006984D01*
X0350200Y0007056D01*
X0350061Y0007133D01*
X0349925Y0007212D01*
X0349790Y0007296D01*
X0349657Y0007382D01*
X0349527Y0007472D01*
X0349399Y0007565D01*
X0349273Y0007661D01*
X0349150Y0007761D01*
X0349029Y0007863D01*
X0348911Y0007968D01*
X0348796Y0008077D01*
X0348683Y0008188D01*
X0348573Y0008302D01*
X0348466Y0008419D01*
X0348362Y0008538D01*
X0348261Y0008660D01*
X0348164Y0008785D01*
X0348069Y0008912D01*
X0347978Y0009041D01*
X0347889Y0009172D01*
X0347805Y0009306D01*
X0347723Y0009442D01*
X0347645Y0009579D01*
X0347571Y0009719D01*
X0347500Y0009861D01*
X0347432Y0010004D01*
X0347368Y0010149D01*
X0347308Y0010295D01*
X0347252Y0010443D01*
X0347199Y0010592D01*
X0347150Y0010743D01*
X0347105Y0010895D01*
X0347064Y0011048D01*
X0347026Y0011201D01*
X0346993Y0011356D01*
X0346963Y0011512D01*
X0346937Y0011668D01*
X0346916Y0011825D01*
X0346898Y0011982D01*
X0346884Y0012140D01*
X0346874Y0012298D01*
X0346868Y0012456D01*
X0346866Y0012614D01*
D11*
X0335606Y0009701D02*
X0335606Y0008201D01*
X0334606Y0008201D01*
X0330606Y0031201D02*
X0328106Y0031201D01*
X0330606Y0031201D02*
X0340606Y0031201D01*
X0310478Y0037641D02*
X0310478Y0039892D01*
X0309728Y0040643D01*
X0306725Y0040643D01*
X0305975Y0039892D01*
X0305975Y0037641D01*
X0310478Y0037641D01*
X0310478Y0042244D02*
X0307476Y0045247D01*
X0306725Y0045247D01*
X0305975Y0044496D01*
X0305975Y0042995D01*
X0306725Y0042244D01*
X0310478Y0042244D02*
X0310478Y0045247D01*
X0321780Y0060128D02*
X0323281Y0060128D01*
X0324032Y0060879D01*
X0325633Y0060879D02*
X0325633Y0060128D01*
X0325633Y0060879D02*
X0328636Y0063881D01*
X0328636Y0064632D01*
X0325633Y0064632D01*
X0324032Y0063881D02*
X0323281Y0064632D01*
X0321780Y0064632D01*
X0321030Y0063881D01*
X0321030Y0060879D01*
X0321780Y0060128D01*
X0299013Y0102435D02*
X0297512Y0102435D01*
X0296761Y0103186D01*
X0299764Y0106188D01*
X0299764Y0103186D01*
X0299013Y0102435D01*
X0296761Y0103186D02*
X0296761Y0106188D01*
X0297512Y0106939D01*
X0299013Y0106939D01*
X0299764Y0106188D01*
X0295160Y0102435D02*
X0292157Y0102435D01*
X0293658Y0102435D02*
X0293658Y0106939D01*
X0292157Y0105438D01*
X0290556Y0106188D02*
X0289805Y0106939D01*
X0288304Y0106939D01*
X0287553Y0106188D01*
X0287553Y0103186D01*
X0288304Y0102435D01*
X0289805Y0102435D01*
X0290556Y0103186D01*
X0289411Y0114246D02*
X0287910Y0114246D01*
X0287159Y0114997D01*
X0287159Y0117999D01*
X0287910Y0118750D01*
X0289411Y0118750D01*
X0290162Y0117999D01*
X0291763Y0117999D02*
X0291763Y0117249D01*
X0292514Y0116498D01*
X0294766Y0116498D01*
X0294766Y0117999D02*
X0294015Y0118750D01*
X0292514Y0118750D01*
X0291763Y0117999D01*
X0291763Y0114997D02*
X0292514Y0114246D01*
X0294015Y0114246D01*
X0294766Y0114997D01*
X0294766Y0117999D01*
X0290162Y0114997D02*
X0289411Y0114246D01*
X0289018Y0125270D02*
X0289768Y0126020D01*
X0289018Y0125270D02*
X0287516Y0125270D01*
X0286766Y0126020D01*
X0286766Y0129023D01*
X0287516Y0129774D01*
X0289018Y0129774D01*
X0289768Y0129023D01*
X0291370Y0129023D02*
X0292120Y0129774D01*
X0293622Y0129774D01*
X0294372Y0129023D01*
X0294372Y0128272D01*
X0291370Y0125270D01*
X0294372Y0125270D01*
X0293622Y0136687D02*
X0292120Y0136687D01*
X0291370Y0137438D01*
X0289768Y0137438D02*
X0289018Y0136687D01*
X0287516Y0136687D01*
X0286766Y0137438D01*
X0286766Y0140440D01*
X0287516Y0141191D01*
X0289018Y0141191D01*
X0289768Y0140440D01*
X0291370Y0140440D02*
X0292120Y0141191D01*
X0293622Y0141191D01*
X0294372Y0140440D01*
X0294372Y0139690D01*
X0293622Y0138939D01*
X0294372Y0138188D01*
X0294372Y0137438D01*
X0293622Y0136687D01*
X0293622Y0138939D02*
X0292871Y0138939D01*
X0312817Y0155263D02*
X0313568Y0154512D01*
X0314318Y0154512D01*
X0315069Y0155263D01*
X0315069Y0156764D01*
X0315820Y0157515D01*
X0316570Y0157515D01*
X0317321Y0156764D01*
X0317321Y0155263D01*
X0316570Y0154512D01*
X0315820Y0154512D01*
X0315069Y0155263D01*
X0315069Y0156764D02*
X0314318Y0157515D01*
X0313568Y0157515D01*
X0312817Y0156764D01*
X0312817Y0155263D01*
X0312717Y0159715D02*
X0309664Y0159715D01*
X0309664Y0165820D01*
X0312717Y0165820D01*
X0313734Y0164802D01*
X0313734Y0160732D01*
X0312717Y0159715D01*
X0307657Y0159715D02*
X0307657Y0165820D01*
X0306640Y0169615D02*
X0304605Y0169615D01*
X0303587Y0170632D01*
X0303587Y0172667D02*
X0305622Y0173685D01*
X0306640Y0173685D01*
X0307657Y0172667D01*
X0307657Y0170632D01*
X0306640Y0169615D01*
X0309664Y0171650D02*
X0311699Y0169615D01*
X0313734Y0171650D01*
X0313734Y0175720D01*
X0313568Y0176013D02*
X0315069Y0174512D01*
X0315069Y0176764D01*
X0315820Y0177515D01*
X0316570Y0177515D01*
X0317321Y0176764D01*
X0317321Y0175263D01*
X0316570Y0174512D01*
X0315069Y0174512D01*
X0313568Y0176013D02*
X0312817Y0177515D01*
X0313734Y0179515D02*
X0309664Y0179515D01*
X0309664Y0185620D01*
X0312817Y0184512D02*
X0312817Y0187515D01*
X0314318Y0186764D02*
X0315069Y0187515D01*
X0316570Y0187515D01*
X0317321Y0186764D01*
X0317321Y0185263D01*
X0316570Y0184512D01*
X0315069Y0184512D02*
X0314318Y0186013D01*
X0314318Y0186764D01*
X0315069Y0184512D02*
X0312817Y0184512D01*
X0307657Y0188397D02*
X0303587Y0188397D01*
X0301580Y0189415D02*
X0301580Y0193485D01*
X0299545Y0195520D01*
X0297510Y0193485D01*
X0297510Y0189415D01*
X0297510Y0192467D02*
X0301580Y0192467D01*
X0309664Y0191450D02*
X0312717Y0191450D01*
X0313734Y0192467D01*
X0313734Y0194502D01*
X0312717Y0195520D01*
X0309664Y0195520D01*
X0309664Y0189415D01*
X0311699Y0191450D02*
X0313734Y0189415D01*
X0315069Y0194512D02*
X0315069Y0197515D01*
X0317321Y0196764D02*
X0312817Y0196764D01*
X0315069Y0194512D01*
X0316570Y0204512D02*
X0317321Y0205263D01*
X0317321Y0206764D01*
X0316570Y0207515D01*
X0315820Y0207515D01*
X0315069Y0206764D01*
X0315069Y0206013D01*
X0315069Y0206764D02*
X0314318Y0207515D01*
X0313568Y0207515D01*
X0312817Y0206764D01*
X0312817Y0205263D01*
X0313568Y0204512D01*
X0301580Y0204402D02*
X0300562Y0205420D01*
X0298527Y0205420D01*
X0297510Y0204402D01*
X0297510Y0203385D01*
X0298527Y0202367D01*
X0300562Y0202367D01*
X0301580Y0201350D01*
X0301580Y0200332D01*
X0300562Y0199315D01*
X0298527Y0199315D01*
X0297510Y0200332D01*
X0297510Y0209215D02*
X0300562Y0209215D01*
X0301580Y0210232D01*
X0301580Y0211250D01*
X0300562Y0212267D01*
X0297510Y0212267D01*
X0297510Y0209215D02*
X0297510Y0215320D01*
X0300562Y0215320D01*
X0301580Y0214302D01*
X0301580Y0213285D01*
X0300562Y0212267D01*
X0300562Y0219115D02*
X0298527Y0219115D01*
X0297510Y0220132D01*
X0297510Y0224202D01*
X0298527Y0225220D01*
X0300562Y0225220D01*
X0301580Y0224202D01*
X0301580Y0222167D02*
X0299545Y0222167D01*
X0301580Y0222167D02*
X0301580Y0220132D01*
X0300562Y0219115D01*
X0312817Y0216764D02*
X0312817Y0215263D01*
X0313568Y0214512D01*
X0312817Y0216764D02*
X0313568Y0217515D01*
X0314318Y0217515D01*
X0317321Y0214512D01*
X0317321Y0217515D01*
X0317321Y0224512D02*
X0317321Y0227515D01*
X0317321Y0226013D02*
X0312817Y0226013D01*
X0314318Y0224512D01*
X0301580Y0229015D02*
X0299545Y0231050D01*
X0300562Y0231050D02*
X0297510Y0231050D01*
X0297819Y0232830D02*
X0297819Y0233464D01*
X0297819Y0233147D02*
X0299404Y0233147D01*
X0299721Y0232830D01*
X0299721Y0232513D01*
X0299404Y0232196D01*
X0300562Y0231050D02*
X0301580Y0232067D01*
X0301580Y0234102D01*
X0300562Y0235120D01*
X0297510Y0235120D01*
X0297510Y0229015D01*
X0298770Y0234406D02*
X0298770Y0235357D01*
X0299087Y0235674D01*
X0299404Y0235674D01*
X0299721Y0235357D01*
X0299721Y0234723D01*
X0299404Y0234406D01*
X0298770Y0234406D01*
X0298136Y0235040D01*
X0297819Y0235674D01*
X0273188Y0212839D02*
X0273188Y0208769D01*
X0273188Y0206762D02*
X0278276Y0206762D01*
X0279293Y0205745D01*
X0279293Y0203710D01*
X0278276Y0202692D01*
X0273188Y0202692D01*
X0274206Y0200685D02*
X0276241Y0200685D01*
X0277258Y0199667D01*
X0277258Y0196615D01*
X0279293Y0196615D02*
X0273188Y0196615D01*
X0273188Y0199667D01*
X0274206Y0200685D01*
X0273188Y0194608D02*
X0279293Y0194608D01*
X0273188Y0190538D01*
X0279293Y0190538D01*
X0279293Y0188521D02*
X0279293Y0186486D01*
X0279293Y0187504D02*
X0273188Y0187504D01*
X0273188Y0188521D02*
X0273188Y0186486D01*
X0297510Y0183585D02*
X0297510Y0179515D01*
X0297510Y0182567D02*
X0301580Y0182567D01*
X0301580Y0183585D02*
X0301580Y0179515D01*
X0303587Y0178497D02*
X0307657Y0178497D01*
X0307657Y0175720D02*
X0303587Y0175720D01*
X0303587Y0172667D01*
X0301580Y0172667D02*
X0297510Y0172667D01*
X0299545Y0174702D02*
X0299545Y0170632D01*
X0300562Y0165820D02*
X0298527Y0165820D01*
X0297510Y0164802D01*
X0297510Y0160732D01*
X0298527Y0159715D01*
X0300562Y0159715D01*
X0301580Y0160732D01*
X0301580Y0162767D01*
X0299545Y0162767D01*
X0301580Y0164802D02*
X0300562Y0165820D01*
X0303587Y0165820D02*
X0307657Y0159715D01*
X0303587Y0159715D02*
X0303587Y0165820D01*
X0309664Y0171650D02*
X0309664Y0175720D01*
X0312817Y0167515D02*
X0313568Y0167515D01*
X0316570Y0164512D01*
X0317321Y0164512D01*
X0312817Y0164512D02*
X0312817Y0167515D01*
X0301580Y0183585D02*
X0299545Y0185620D01*
X0297510Y0183585D01*
X0279293Y0210804D02*
X0273188Y0210804D01*
X0236986Y0213894D02*
X0233983Y0213894D01*
X0235484Y0213894D02*
X0235484Y0218398D01*
X0233983Y0216897D01*
X0232382Y0216897D02*
X0232382Y0217647D01*
X0231631Y0218398D01*
X0230130Y0218398D01*
X0229379Y0217647D01*
X0227778Y0217647D02*
X0227778Y0216146D01*
X0227027Y0215395D01*
X0224775Y0215395D01*
X0224775Y0213894D02*
X0224775Y0218398D01*
X0227027Y0218398D01*
X0227778Y0217647D01*
X0226276Y0215395D02*
X0227778Y0213894D01*
X0229379Y0213894D02*
X0232382Y0216897D01*
X0232382Y0213894D02*
X0229379Y0213894D01*
X0230130Y0208949D02*
X0229379Y0208198D01*
X0230130Y0208949D02*
X0231631Y0208949D01*
X0232382Y0208198D01*
X0232382Y0207448D01*
X0229379Y0204445D01*
X0232382Y0204445D01*
X0233983Y0206697D02*
X0236986Y0206697D01*
X0236235Y0204445D02*
X0236235Y0208949D01*
X0233983Y0206697D01*
X0227778Y0206697D02*
X0227027Y0205947D01*
X0224775Y0205947D01*
X0226276Y0205947D02*
X0227778Y0204445D01*
X0227778Y0206697D02*
X0227778Y0208198D01*
X0227027Y0208949D01*
X0224775Y0208949D01*
X0224775Y0204445D01*
X0211766Y0192534D02*
X0211766Y0190499D01*
X0210748Y0189481D01*
X0207696Y0189481D01*
X0209731Y0189481D02*
X0211766Y0187446D01*
X0207696Y0187446D02*
X0207696Y0193551D01*
X0210748Y0193551D01*
X0211766Y0192534D01*
X0205689Y0186429D02*
X0201619Y0186429D01*
X0199611Y0187446D02*
X0199611Y0191516D01*
X0197576Y0193551D01*
X0195541Y0191516D01*
X0195541Y0187446D01*
X0195541Y0190499D02*
X0199611Y0190499D01*
X0198594Y0197346D02*
X0196559Y0197346D01*
X0195541Y0198364D01*
X0196559Y0200399D02*
X0198594Y0200399D01*
X0199611Y0199381D01*
X0199611Y0198364D01*
X0198594Y0197346D01*
X0196559Y0200399D02*
X0195541Y0201416D01*
X0195541Y0202434D01*
X0196559Y0203451D01*
X0198594Y0203451D01*
X0199611Y0202434D01*
X0198594Y0207246D02*
X0195541Y0207246D01*
X0195541Y0213351D01*
X0198594Y0213351D01*
X0199611Y0212334D01*
X0199611Y0211316D01*
X0198594Y0210299D01*
X0195541Y0210299D01*
X0198594Y0210299D02*
X0199611Y0209281D01*
X0199611Y0208264D01*
X0198594Y0207246D01*
X0198594Y0217146D02*
X0196559Y0217146D01*
X0195541Y0218164D01*
X0195541Y0222234D01*
X0196559Y0223251D01*
X0198594Y0223251D01*
X0199611Y0222234D01*
X0199611Y0220199D02*
X0197576Y0220199D01*
X0199611Y0220199D02*
X0199611Y0218164D01*
X0198594Y0217146D01*
X0199611Y0227046D02*
X0197576Y0229081D01*
X0198594Y0229081D02*
X0195541Y0229081D01*
X0195541Y0227046D02*
X0195541Y0233151D01*
X0198594Y0233151D01*
X0199611Y0232134D01*
X0199611Y0230099D01*
X0198594Y0229081D01*
X0224382Y0226272D02*
X0224382Y0221768D01*
X0224382Y0223269D02*
X0226633Y0223269D01*
X0227384Y0224020D01*
X0227384Y0225521D01*
X0226633Y0226272D01*
X0224382Y0226272D01*
X0225883Y0223269D02*
X0227384Y0221768D01*
X0228985Y0221768D02*
X0231988Y0224771D01*
X0231988Y0225521D01*
X0231237Y0226272D01*
X0229736Y0226272D01*
X0228985Y0225521D01*
X0228985Y0221768D02*
X0231988Y0221768D01*
X0233589Y0222519D02*
X0234340Y0221768D01*
X0235841Y0221768D01*
X0236592Y0222519D01*
X0236592Y0223269D01*
X0235841Y0224020D01*
X0235091Y0224020D01*
X0235841Y0224020D02*
X0236592Y0224771D01*
X0236592Y0225521D01*
X0235841Y0226272D01*
X0234340Y0226272D01*
X0233589Y0225521D01*
X0233983Y0230430D02*
X0236986Y0233432D01*
X0236986Y0234183D01*
X0236235Y0234933D01*
X0234734Y0234933D01*
X0233983Y0234183D01*
X0232382Y0234183D02*
X0231631Y0234933D01*
X0230130Y0234933D01*
X0229379Y0234183D01*
X0227778Y0234183D02*
X0227778Y0232681D01*
X0227027Y0231931D01*
X0224775Y0231931D01*
X0224775Y0230430D02*
X0224775Y0234933D01*
X0227027Y0234933D01*
X0227778Y0234183D01*
X0226276Y0231931D02*
X0227778Y0230430D01*
X0229379Y0230430D02*
X0232382Y0233432D01*
X0232382Y0234183D01*
X0232382Y0230430D02*
X0229379Y0230430D01*
X0233983Y0230430D02*
X0236986Y0230430D01*
X0177626Y0210397D02*
X0171520Y0210397D01*
X0171520Y0208362D02*
X0171520Y0212432D01*
X0171520Y0206355D02*
X0176608Y0206355D01*
X0177626Y0205337D01*
X0177626Y0203302D01*
X0176608Y0202285D01*
X0171520Y0202285D01*
X0172538Y0200278D02*
X0171520Y0199260D01*
X0171520Y0196207D01*
X0177626Y0196207D01*
X0175591Y0196207D02*
X0175591Y0199260D01*
X0174573Y0200278D01*
X0172538Y0200278D01*
X0171520Y0194200D02*
X0171520Y0190130D01*
X0171520Y0188123D02*
X0176608Y0188123D01*
X0177626Y0187106D01*
X0177626Y0185071D01*
X0176608Y0184053D01*
X0171520Y0184053D01*
X0172538Y0182046D02*
X0171520Y0181028D01*
X0171520Y0178993D01*
X0172538Y0177976D01*
X0176608Y0177976D01*
X0177626Y0178993D01*
X0177626Y0181028D01*
X0176608Y0182046D01*
X0172538Y0182046D01*
X0171520Y0192165D02*
X0177626Y0192165D01*
X0195541Y0181616D02*
X0197576Y0183651D01*
X0199611Y0181616D01*
X0199611Y0177546D01*
X0201619Y0176529D02*
X0205689Y0176529D01*
X0207696Y0177546D02*
X0211766Y0177546D01*
X0207696Y0177546D02*
X0207696Y0183651D01*
X0199611Y0180599D02*
X0195541Y0180599D01*
X0195541Y0181616D02*
X0195541Y0177546D01*
X0197576Y0172734D02*
X0197576Y0168664D01*
X0195541Y0170699D02*
X0199611Y0170699D01*
X0201619Y0170699D02*
X0201619Y0173751D01*
X0205689Y0173751D01*
X0207696Y0173751D02*
X0207696Y0169681D01*
X0209731Y0167646D01*
X0211766Y0169681D01*
X0211766Y0173751D01*
X0205689Y0170699D02*
X0205689Y0168664D01*
X0204671Y0167646D01*
X0202636Y0167646D01*
X0201619Y0168664D01*
X0201619Y0170699D02*
X0203654Y0171716D01*
X0204671Y0171716D01*
X0205689Y0170699D01*
X0205689Y0163851D02*
X0205689Y0157746D01*
X0201619Y0163851D01*
X0201619Y0157746D01*
X0199611Y0158764D02*
X0199611Y0160799D01*
X0197576Y0160799D01*
X0195541Y0162834D02*
X0195541Y0158764D01*
X0196559Y0157746D01*
X0198594Y0157746D01*
X0199611Y0158764D01*
X0199611Y0162834D02*
X0198594Y0163851D01*
X0196559Y0163851D01*
X0195541Y0162834D01*
X0207696Y0163851D02*
X0207696Y0157746D01*
X0210748Y0157746D01*
X0211766Y0158764D01*
X0211766Y0162834D01*
X0210748Y0163851D01*
X0207696Y0163851D01*
X0178156Y0160149D02*
X0178156Y0158881D01*
X0178156Y0159515D02*
X0176254Y0159515D01*
X0176888Y0158881D01*
X0176254Y0157939D02*
X0176254Y0157305D01*
X0176254Y0157622D02*
X0177839Y0157622D01*
X0178156Y0157305D01*
X0178156Y0156988D01*
X0177839Y0156671D01*
X0138565Y0185494D02*
X0138565Y0186995D01*
X0137814Y0187745D01*
X0138565Y0189347D02*
X0138565Y0192349D01*
X0138565Y0190848D02*
X0134061Y0190848D01*
X0135562Y0189347D01*
X0134812Y0187745D02*
X0134061Y0186995D01*
X0134061Y0185494D01*
X0134812Y0184743D01*
X0137814Y0184743D01*
X0138565Y0185494D01*
X0068136Y0173457D02*
X0068136Y0170455D01*
X0068136Y0171956D02*
X0063632Y0171956D01*
X0065133Y0170455D01*
X0064383Y0168853D02*
X0063632Y0168103D01*
X0063632Y0166601D01*
X0064383Y0165851D01*
X0067385Y0165851D01*
X0068136Y0166601D01*
X0068136Y0168103D01*
X0067385Y0168853D01*
X0068136Y0164283D02*
X0068136Y0162781D01*
X0068136Y0163532D02*
X0063632Y0163532D01*
X0063632Y0162781D02*
X0063632Y0164283D01*
X0042372Y0166531D02*
X0037868Y0166531D01*
X0040120Y0164279D01*
X0040120Y0167282D01*
X0038619Y0162678D02*
X0037868Y0161927D01*
X0037868Y0160426D01*
X0038619Y0159675D01*
X0041621Y0159675D01*
X0042372Y0160426D01*
X0042372Y0161927D01*
X0041621Y0162678D01*
X0019557Y0152699D02*
X0019557Y0148195D01*
X0018056Y0148195D02*
X0021058Y0148195D01*
X0018056Y0151197D02*
X0019557Y0152699D01*
X0016454Y0151948D02*
X0015704Y0152699D01*
X0014202Y0152699D01*
X0013452Y0151948D01*
X0013452Y0151197D01*
X0014202Y0150447D01*
X0015704Y0150447D01*
X0016454Y0149696D01*
X0016454Y0148946D01*
X0015704Y0148195D01*
X0014202Y0148195D01*
X0013452Y0148946D01*
X0023978Y0143821D02*
X0023978Y0142320D01*
X0024729Y0141569D01*
X0023978Y0143821D02*
X0024729Y0144571D01*
X0025480Y0144571D01*
X0028482Y0141569D01*
X0028482Y0144571D01*
X0028482Y0107571D02*
X0028482Y0104569D01*
X0028482Y0106070D02*
X0023978Y0106070D01*
X0025480Y0104569D01*
X0025480Y0098115D02*
X0024729Y0098115D01*
X0023978Y0097364D01*
X0023978Y0095863D01*
X0024729Y0095112D01*
X0025480Y0098115D02*
X0028482Y0095112D01*
X0028482Y0098115D01*
X0028482Y0061115D02*
X0028482Y0058112D01*
X0028482Y0059613D02*
X0023978Y0059613D01*
X0025480Y0058112D01*
X0019483Y0052735D02*
X0018733Y0053486D01*
X0017231Y0053486D01*
X0016481Y0052735D01*
X0014879Y0052735D02*
X0014129Y0053486D01*
X0012627Y0053486D01*
X0011877Y0052735D01*
X0011877Y0051985D01*
X0012627Y0051234D01*
X0014129Y0051234D01*
X0014879Y0050484D01*
X0014879Y0049733D01*
X0014129Y0048982D01*
X0012627Y0048982D01*
X0011877Y0049733D01*
X0016481Y0048982D02*
X0019483Y0051985D01*
X0019483Y0052735D01*
X0019483Y0048982D02*
X0016481Y0048982D01*
X0059867Y0037958D02*
X0059867Y0036057D01*
X0060818Y0036057D01*
X0061135Y0036374D01*
X0061135Y0037641D01*
X0060818Y0037958D01*
X0059867Y0037958D01*
X0062077Y0037324D02*
X0062711Y0037958D01*
X0062711Y0036057D01*
X0062077Y0036057D02*
X0063345Y0036057D01*
X0115809Y0036428D02*
X0115809Y0033426D01*
X0116560Y0032675D01*
X0118061Y0032675D01*
X0118812Y0033426D01*
X0120413Y0033426D02*
X0121164Y0032675D01*
X0122665Y0032675D01*
X0123416Y0033426D01*
X0123416Y0034176D01*
X0122665Y0034927D01*
X0120413Y0034927D01*
X0120413Y0033426D01*
X0120413Y0034927D02*
X0121914Y0036428D01*
X0123416Y0037179D01*
X0118812Y0036428D02*
X0118061Y0037179D01*
X0116560Y0037179D01*
X0115809Y0036428D01*
X0117067Y0046035D02*
X0117067Y0048287D01*
X0117817Y0049038D01*
X0119319Y0049038D01*
X0120069Y0048287D01*
X0120069Y0046035D01*
X0120069Y0047536D02*
X0121570Y0049038D01*
X0121570Y0050639D02*
X0118568Y0053642D01*
X0117817Y0053642D01*
X0117067Y0052891D01*
X0117067Y0051390D01*
X0117817Y0050639D01*
X0121570Y0050639D02*
X0121570Y0053642D01*
X0120820Y0055243D02*
X0121570Y0055994D01*
X0121570Y0057495D01*
X0120820Y0058245D01*
X0120069Y0058245D01*
X0119319Y0057495D01*
X0119319Y0055243D01*
X0120820Y0055243D01*
X0119319Y0055243D02*
X0117817Y0056744D01*
X0117067Y0058245D01*
X0126909Y0057495D02*
X0127660Y0058245D01*
X0128410Y0058245D01*
X0129161Y0057495D01*
X0129161Y0055994D01*
X0128410Y0055243D01*
X0127660Y0055243D01*
X0126909Y0055994D01*
X0126909Y0057495D01*
X0129161Y0057495D02*
X0129912Y0058245D01*
X0130662Y0058245D01*
X0131413Y0057495D01*
X0131413Y0055994D01*
X0130662Y0055243D01*
X0129912Y0055243D01*
X0129161Y0055994D01*
X0128410Y0053642D02*
X0127660Y0053642D01*
X0126909Y0052891D01*
X0126909Y0051390D01*
X0127660Y0050639D01*
X0127660Y0049038D02*
X0129161Y0049038D01*
X0129912Y0048287D01*
X0129912Y0046035D01*
X0131413Y0046035D02*
X0126909Y0046035D01*
X0126909Y0048287D01*
X0127660Y0049038D01*
X0129912Y0047536D02*
X0131413Y0049038D01*
X0131413Y0050639D02*
X0128410Y0053642D01*
X0131413Y0053642D02*
X0131413Y0050639D01*
X0136358Y0051390D02*
X0137109Y0050639D01*
X0136358Y0051390D02*
X0136358Y0052891D01*
X0137109Y0053642D01*
X0137859Y0053642D01*
X0140862Y0050639D01*
X0140862Y0053642D01*
X0140111Y0055243D02*
X0140862Y0055994D01*
X0140862Y0057495D01*
X0140111Y0058245D01*
X0137109Y0058245D01*
X0136358Y0057495D01*
X0136358Y0055994D01*
X0137109Y0055243D01*
X0137859Y0055243D01*
X0138610Y0055994D01*
X0138610Y0058245D01*
X0145807Y0057495D02*
X0146557Y0058245D01*
X0149560Y0055243D01*
X0150311Y0055994D01*
X0150311Y0057495D01*
X0149560Y0058245D01*
X0146557Y0058245D01*
X0145807Y0057495D02*
X0145807Y0055994D01*
X0146557Y0055243D01*
X0149560Y0055243D01*
X0149560Y0053642D02*
X0150311Y0052891D01*
X0150311Y0051390D01*
X0149560Y0050639D01*
X0150311Y0049038D02*
X0148809Y0047536D01*
X0148809Y0048287D02*
X0148809Y0046035D01*
X0150311Y0046035D02*
X0145807Y0046035D01*
X0145807Y0048287D01*
X0146557Y0049038D01*
X0148059Y0049038D01*
X0148809Y0048287D01*
X0146557Y0050639D02*
X0145807Y0051390D01*
X0145807Y0052891D01*
X0146557Y0053642D01*
X0147308Y0053642D01*
X0148059Y0052891D01*
X0148809Y0053642D01*
X0149560Y0053642D01*
X0148059Y0052891D02*
X0148059Y0052140D01*
X0140862Y0049038D02*
X0139361Y0047536D01*
X0139361Y0048287D02*
X0139361Y0046035D01*
X0140862Y0046035D02*
X0136358Y0046035D01*
X0136358Y0048287D01*
X0137109Y0049038D01*
X0138610Y0049038D01*
X0139361Y0048287D01*
X0121570Y0046035D02*
X0117067Y0046035D01*
X0174967Y0093162D02*
X0175717Y0092411D01*
X0177218Y0092411D01*
X0177969Y0093162D01*
X0179570Y0092411D02*
X0182573Y0092411D01*
X0181072Y0092411D02*
X0181072Y0096915D01*
X0179570Y0095414D01*
X0177969Y0096165D02*
X0177218Y0096915D01*
X0175717Y0096915D01*
X0174967Y0096165D01*
X0174967Y0093162D01*
X0184174Y0092411D02*
X0187177Y0095414D01*
X0187177Y0096165D01*
X0186426Y0096915D01*
X0184925Y0096915D01*
X0184174Y0096165D01*
X0184174Y0092411D02*
X0187177Y0092411D01*
X0208234Y0036463D02*
X0212738Y0036463D01*
X0212738Y0034962D02*
X0212738Y0037964D01*
X0209736Y0034962D02*
X0208234Y0036463D01*
X0208234Y0031859D02*
X0212738Y0031859D01*
X0212738Y0030358D02*
X0212738Y0033360D01*
X0209736Y0030358D02*
X0208234Y0031859D01*
X0203940Y0028476D02*
X0203189Y0029226D01*
X0201688Y0029226D01*
X0200937Y0028476D01*
X0199336Y0028476D02*
X0198585Y0029226D01*
X0197084Y0029226D01*
X0196333Y0028476D01*
X0196333Y0025473D01*
X0197084Y0024722D01*
X0198585Y0024722D01*
X0199336Y0025473D01*
X0200937Y0025473D02*
X0201688Y0024722D01*
X0203189Y0024722D01*
X0203940Y0025473D01*
X0203940Y0026224D01*
X0203189Y0026974D01*
X0202439Y0026974D01*
X0203189Y0026974D02*
X0203940Y0027725D01*
X0203940Y0028476D01*
X0208234Y0028006D02*
X0208234Y0026505D01*
X0208985Y0025754D01*
X0211988Y0025754D01*
X0212738Y0026505D01*
X0212738Y0028006D01*
X0211988Y0028756D01*
X0208985Y0028756D02*
X0208234Y0028006D01*
X0194765Y0029226D02*
X0193264Y0029226D01*
X0194015Y0029226D02*
X0194015Y0024722D01*
X0194765Y0024722D02*
X0193264Y0024722D01*
X0361924Y0213338D02*
X0362241Y0213655D01*
X0362241Y0213972D01*
X0361924Y0214289D01*
X0360339Y0214289D01*
X0360339Y0213972D02*
X0360339Y0214606D01*
X0360656Y0215548D02*
X0360339Y0215865D01*
X0360339Y0216499D01*
X0360656Y0216816D01*
X0360973Y0216816D01*
X0361290Y0216499D01*
X0361607Y0216816D01*
X0361924Y0216816D01*
X0362241Y0216499D01*
X0362241Y0215865D01*
X0361924Y0215548D01*
X0361290Y0216182D02*
X0361290Y0216499D01*
X0344821Y0219055D02*
X0344821Y0219806D01*
X0344070Y0220556D01*
X0340317Y0220556D01*
X0340317Y0219806D02*
X0340317Y0221307D01*
X0340317Y0222908D02*
X0340317Y0225160D01*
X0341068Y0225911D01*
X0342569Y0225911D01*
X0343320Y0225160D01*
X0343320Y0222908D01*
X0344821Y0222908D02*
X0340317Y0222908D01*
X0344821Y0219055D02*
X0344070Y0218304D01*
X0344821Y0227512D02*
X0344821Y0230515D01*
X0344821Y0229013D02*
X0340317Y0229013D01*
X0341818Y0227512D01*
X0059014Y0220825D02*
X0056011Y0220825D01*
X0056011Y0218573D01*
X0057513Y0219323D01*
X0058263Y0219323D01*
X0059014Y0218573D01*
X0059014Y0217072D01*
X0058263Y0216321D01*
X0056762Y0216321D01*
X0056011Y0217072D01*
X0054410Y0217072D02*
X0053659Y0216321D01*
X0052158Y0216321D01*
X0051407Y0217072D01*
X0051407Y0220074D01*
X0052158Y0220825D01*
X0053659Y0220825D01*
X0054410Y0220074D01*
D12*
X0064157Y0212571D02*
X0064157Y0209071D01*
X0064157Y0205571D01*
X0068157Y0205571D02*
X0068157Y0209071D01*
X0068157Y0212571D01*
X0053122Y0176425D02*
X0049622Y0176425D01*
X0046122Y0176425D01*
X0046122Y0172425D02*
X0049622Y0172425D01*
X0053122Y0172425D01*
X0122815Y0172701D02*
X0126315Y0172701D01*
X0129815Y0172701D01*
X0129815Y0176701D02*
X0126315Y0176701D01*
X0122815Y0176701D01*
X0167732Y0176322D02*
X0167732Y0180366D01*
X0167732Y0184304D02*
X0167732Y0188348D01*
X0167732Y0192285D02*
X0167732Y0196329D01*
X0167732Y0200266D02*
X0167732Y0204311D01*
X0167732Y0208248D02*
X0167732Y0212292D01*
X0167732Y0216229D02*
X0167732Y0220273D01*
X0167732Y0224210D02*
X0167732Y0228255D01*
X0167732Y0232192D02*
X0167732Y0236236D01*
X0172522Y0236236D01*
X0176459Y0236236D02*
X0181249Y0236236D01*
X0185186Y0236236D02*
X0189976Y0236236D01*
X0193913Y0236236D02*
X0198703Y0236236D01*
X0202640Y0236236D02*
X0207430Y0236236D01*
X0211367Y0236236D02*
X0216157Y0236236D01*
X0216157Y0232192D01*
X0216157Y0228255D02*
X0216157Y0224210D01*
X0216157Y0220273D02*
X0216157Y0216229D01*
X0216157Y0212292D02*
X0216157Y0208248D01*
X0216157Y0204311D02*
X0216157Y0200266D01*
X0216157Y0196329D02*
X0216157Y0192285D01*
X0216157Y0188348D02*
X0216157Y0184304D01*
X0216157Y0180366D02*
X0216157Y0176322D01*
X0216157Y0172385D02*
X0216157Y0168341D01*
X0216157Y0164404D02*
X0216157Y0160359D01*
X0216157Y0156422D02*
X0216157Y0152378D01*
X0211367Y0152378D01*
X0207430Y0152378D02*
X0202640Y0152378D01*
X0198703Y0152378D02*
X0193913Y0152378D01*
X0189976Y0152378D02*
X0185186Y0152378D01*
X0181249Y0152378D02*
X0176459Y0152378D01*
X0172522Y0152378D02*
X0167732Y0152378D01*
X0167732Y0156422D01*
X0167732Y0160359D02*
X0167732Y0164404D01*
X0167732Y0168341D02*
X0167732Y0172385D01*
X0269701Y0173559D02*
X0269701Y0178047D01*
X0269701Y0181984D02*
X0269701Y0186472D01*
X0269701Y0190409D02*
X0269701Y0194898D01*
X0269701Y0198835D02*
X0269701Y0203323D01*
X0269701Y0207260D02*
X0269701Y0211748D01*
X0269701Y0215685D02*
X0269701Y0220173D01*
X0269701Y0224110D02*
X0269701Y0228598D01*
X0269701Y0232535D02*
X0269701Y0237024D01*
X0274294Y0237024D01*
X0278231Y0237024D02*
X0282824Y0237024D01*
X0286761Y0237024D02*
X0291354Y0237024D01*
X0295291Y0237024D02*
X0299885Y0237024D01*
X0303822Y0237024D02*
X0308415Y0237024D01*
X0312352Y0237024D02*
X0316945Y0237024D01*
X0316945Y0232535D01*
X0316945Y0228598D02*
X0316945Y0224110D01*
X0316945Y0220173D02*
X0316945Y0215685D01*
X0316945Y0211748D02*
X0316945Y0207260D01*
X0316945Y0203323D02*
X0316945Y0198835D01*
X0316945Y0194898D02*
X0316945Y0190409D01*
X0316945Y0186472D02*
X0316945Y0181984D01*
X0316945Y0178047D02*
X0316945Y0173559D01*
X0316945Y0169622D02*
X0316945Y0165134D01*
X0316945Y0161197D02*
X0316945Y0156709D01*
X0312352Y0156709D01*
X0308415Y0156709D02*
X0303822Y0156709D01*
X0299885Y0156709D02*
X0295291Y0156709D01*
X0291354Y0156709D02*
X0286761Y0156709D01*
X0282824Y0156709D02*
X0278231Y0156709D01*
X0274294Y0156709D02*
X0269701Y0156709D01*
X0269701Y0161197D01*
X0269701Y0165134D02*
X0269701Y0169622D01*
X0195717Y0088161D02*
X0195717Y0084661D01*
X0195717Y0081161D01*
X0191717Y0081161D02*
X0191717Y0084661D01*
X0191717Y0088161D01*
X0216988Y0046504D02*
X0220488Y0046504D01*
X0223988Y0046504D01*
X0223988Y0042504D02*
X0220488Y0042504D01*
X0216988Y0042504D01*
X0337780Y0048878D02*
X0337780Y0052378D01*
X0337780Y0055878D01*
X0341780Y0055878D02*
X0341780Y0052378D01*
X0341780Y0048878D01*
D13*
X0341780Y0052378D02*
X0349780Y0052378D01*
X0358780Y0058378D02*
X0358840Y0058376D01*
X0358901Y0058371D01*
X0358960Y0058362D01*
X0359019Y0058349D01*
X0359078Y0058333D01*
X0359135Y0058313D01*
X0359190Y0058290D01*
X0359245Y0058263D01*
X0359297Y0058234D01*
X0359348Y0058201D01*
X0359397Y0058165D01*
X0359443Y0058127D01*
X0359487Y0058085D01*
X0359529Y0058041D01*
X0359567Y0057995D01*
X0359603Y0057946D01*
X0359636Y0057895D01*
X0359665Y0057843D01*
X0359692Y0057788D01*
X0359715Y0057733D01*
X0359735Y0057676D01*
X0359751Y0057617D01*
X0359764Y0057558D01*
X0359773Y0057499D01*
X0359778Y0057438D01*
X0359780Y0057378D01*
X0359780Y0047378D01*
X0359778Y0047318D01*
X0359773Y0047257D01*
X0359764Y0047198D01*
X0359751Y0047139D01*
X0359735Y0047080D01*
X0359715Y0047023D01*
X0359692Y0046968D01*
X0359665Y0046913D01*
X0359636Y0046861D01*
X0359603Y0046810D01*
X0359567Y0046761D01*
X0359529Y0046715D01*
X0359487Y0046671D01*
X0359443Y0046629D01*
X0359397Y0046591D01*
X0359348Y0046555D01*
X0359297Y0046522D01*
X0359245Y0046493D01*
X0359190Y0046466D01*
X0359135Y0046443D01*
X0359078Y0046423D01*
X0359019Y0046407D01*
X0358960Y0046394D01*
X0358901Y0046385D01*
X0358840Y0046380D01*
X0358780Y0046378D01*
X0320780Y0046378D01*
X0320720Y0046380D01*
X0320659Y0046385D01*
X0320600Y0046394D01*
X0320541Y0046407D01*
X0320482Y0046423D01*
X0320425Y0046443D01*
X0320370Y0046466D01*
X0320315Y0046493D01*
X0320263Y0046522D01*
X0320212Y0046555D01*
X0320163Y0046591D01*
X0320117Y0046629D01*
X0320073Y0046671D01*
X0320031Y0046715D01*
X0319993Y0046761D01*
X0319957Y0046810D01*
X0319924Y0046861D01*
X0319895Y0046913D01*
X0319868Y0046968D01*
X0319845Y0047023D01*
X0319825Y0047080D01*
X0319809Y0047139D01*
X0319796Y0047198D01*
X0319787Y0047257D01*
X0319782Y0047318D01*
X0319780Y0047378D01*
X0319780Y0057378D01*
X0319782Y0057438D01*
X0319787Y0057499D01*
X0319796Y0057558D01*
X0319809Y0057617D01*
X0319825Y0057676D01*
X0319845Y0057733D01*
X0319868Y0057788D01*
X0319895Y0057843D01*
X0319924Y0057895D01*
X0319957Y0057946D01*
X0319993Y0057995D01*
X0320031Y0058041D01*
X0320073Y0058085D01*
X0320117Y0058127D01*
X0320163Y0058165D01*
X0320212Y0058201D01*
X0320263Y0058234D01*
X0320315Y0058263D01*
X0320370Y0058290D01*
X0320425Y0058313D01*
X0320482Y0058333D01*
X0320541Y0058349D01*
X0320600Y0058362D01*
X0320659Y0058371D01*
X0320720Y0058376D01*
X0320780Y0058378D01*
X0358780Y0058378D01*
X0337780Y0052378D02*
X0329780Y0052378D01*
X0304228Y0046598D02*
X0294228Y0046598D01*
X0294228Y0030598D01*
X0304228Y0030598D01*
X0304228Y0046598D01*
X0299228Y0041098D02*
X0299228Y0038598D01*
X0296728Y0038598D01*
X0299228Y0038598D02*
X0301728Y0038598D01*
X0299228Y0038598D02*
X0296728Y0034598D01*
X0301728Y0034598D01*
X0299228Y0038598D01*
X0299228Y0032598D01*
X0226488Y0025504D02*
X0226488Y0063504D01*
X0226486Y0063564D01*
X0226481Y0063625D01*
X0226472Y0063684D01*
X0226459Y0063743D01*
X0226443Y0063802D01*
X0226423Y0063859D01*
X0226400Y0063914D01*
X0226373Y0063969D01*
X0226344Y0064021D01*
X0226311Y0064072D01*
X0226275Y0064121D01*
X0226237Y0064167D01*
X0226195Y0064211D01*
X0226151Y0064253D01*
X0226105Y0064291D01*
X0226056Y0064327D01*
X0226005Y0064360D01*
X0225953Y0064389D01*
X0225898Y0064416D01*
X0225843Y0064439D01*
X0225786Y0064459D01*
X0225727Y0064475D01*
X0225668Y0064488D01*
X0225609Y0064497D01*
X0225548Y0064502D01*
X0225488Y0064504D01*
X0215488Y0064504D01*
X0215428Y0064502D01*
X0215367Y0064497D01*
X0215308Y0064488D01*
X0215249Y0064475D01*
X0215190Y0064459D01*
X0215133Y0064439D01*
X0215078Y0064416D01*
X0215023Y0064389D01*
X0214971Y0064360D01*
X0214920Y0064327D01*
X0214871Y0064291D01*
X0214825Y0064253D01*
X0214781Y0064211D01*
X0214739Y0064167D01*
X0214701Y0064121D01*
X0214665Y0064072D01*
X0214632Y0064021D01*
X0214603Y0063969D01*
X0214576Y0063914D01*
X0214553Y0063859D01*
X0214533Y0063802D01*
X0214517Y0063743D01*
X0214504Y0063684D01*
X0214495Y0063625D01*
X0214490Y0063564D01*
X0214488Y0063504D01*
X0214488Y0025504D01*
X0214490Y0025444D01*
X0214495Y0025383D01*
X0214504Y0025324D01*
X0214517Y0025265D01*
X0214533Y0025206D01*
X0214553Y0025149D01*
X0214576Y0025094D01*
X0214603Y0025039D01*
X0214632Y0024987D01*
X0214665Y0024936D01*
X0214701Y0024887D01*
X0214739Y0024841D01*
X0214781Y0024797D01*
X0214825Y0024755D01*
X0214871Y0024717D01*
X0214920Y0024681D01*
X0214971Y0024648D01*
X0215023Y0024619D01*
X0215078Y0024592D01*
X0215133Y0024569D01*
X0215190Y0024549D01*
X0215249Y0024533D01*
X0215308Y0024520D01*
X0215367Y0024511D01*
X0215428Y0024506D01*
X0215488Y0024504D01*
X0225488Y0024504D01*
X0225548Y0024506D01*
X0225609Y0024511D01*
X0225668Y0024520D01*
X0225727Y0024533D01*
X0225786Y0024549D01*
X0225843Y0024569D01*
X0225898Y0024592D01*
X0225953Y0024619D01*
X0226005Y0024648D01*
X0226056Y0024681D01*
X0226105Y0024717D01*
X0226151Y0024755D01*
X0226195Y0024797D01*
X0226237Y0024841D01*
X0226275Y0024887D01*
X0226311Y0024936D01*
X0226344Y0024987D01*
X0226373Y0025039D01*
X0226400Y0025094D01*
X0226423Y0025149D01*
X0226443Y0025206D01*
X0226459Y0025265D01*
X0226472Y0025324D01*
X0226481Y0025383D01*
X0226486Y0025444D01*
X0226488Y0025504D01*
X0220488Y0034504D02*
X0220488Y0042504D01*
X0220488Y0046504D02*
X0220488Y0054504D01*
X0207591Y0053280D02*
X0182992Y0053280D01*
X0182992Y0039657D01*
X0207591Y0039657D01*
X0207591Y0053280D01*
X0212717Y0078661D02*
X0174717Y0078661D01*
X0174657Y0078663D01*
X0174596Y0078668D01*
X0174537Y0078677D01*
X0174478Y0078690D01*
X0174419Y0078706D01*
X0174362Y0078726D01*
X0174307Y0078749D01*
X0174252Y0078776D01*
X0174200Y0078805D01*
X0174149Y0078838D01*
X0174100Y0078874D01*
X0174054Y0078912D01*
X0174010Y0078954D01*
X0173968Y0078998D01*
X0173930Y0079044D01*
X0173894Y0079093D01*
X0173861Y0079144D01*
X0173832Y0079196D01*
X0173805Y0079251D01*
X0173782Y0079306D01*
X0173762Y0079363D01*
X0173746Y0079422D01*
X0173733Y0079481D01*
X0173724Y0079540D01*
X0173719Y0079601D01*
X0173717Y0079661D01*
X0173717Y0089661D01*
X0173719Y0089721D01*
X0173724Y0089782D01*
X0173733Y0089841D01*
X0173746Y0089900D01*
X0173762Y0089959D01*
X0173782Y0090016D01*
X0173805Y0090071D01*
X0173832Y0090126D01*
X0173861Y0090178D01*
X0173894Y0090229D01*
X0173930Y0090278D01*
X0173968Y0090324D01*
X0174010Y0090368D01*
X0174054Y0090410D01*
X0174100Y0090448D01*
X0174149Y0090484D01*
X0174200Y0090517D01*
X0174252Y0090546D01*
X0174307Y0090573D01*
X0174362Y0090596D01*
X0174419Y0090616D01*
X0174478Y0090632D01*
X0174537Y0090645D01*
X0174596Y0090654D01*
X0174657Y0090659D01*
X0174717Y0090661D01*
X0212717Y0090661D01*
X0212777Y0090659D01*
X0212838Y0090654D01*
X0212897Y0090645D01*
X0212956Y0090632D01*
X0213015Y0090616D01*
X0213072Y0090596D01*
X0213127Y0090573D01*
X0213182Y0090546D01*
X0213234Y0090517D01*
X0213285Y0090484D01*
X0213334Y0090448D01*
X0213380Y0090410D01*
X0213424Y0090368D01*
X0213466Y0090324D01*
X0213504Y0090278D01*
X0213540Y0090229D01*
X0213573Y0090178D01*
X0213602Y0090126D01*
X0213629Y0090071D01*
X0213652Y0090016D01*
X0213672Y0089959D01*
X0213688Y0089900D01*
X0213701Y0089841D01*
X0213710Y0089782D01*
X0213715Y0089721D01*
X0213717Y0089661D01*
X0213717Y0079661D01*
X0213715Y0079601D01*
X0213710Y0079540D01*
X0213701Y0079481D01*
X0213688Y0079422D01*
X0213672Y0079363D01*
X0213652Y0079306D01*
X0213629Y0079251D01*
X0213602Y0079196D01*
X0213573Y0079144D01*
X0213540Y0079093D01*
X0213504Y0079044D01*
X0213466Y0078998D01*
X0213424Y0078954D01*
X0213380Y0078912D01*
X0213334Y0078874D01*
X0213285Y0078838D01*
X0213234Y0078805D01*
X0213182Y0078776D01*
X0213127Y0078749D01*
X0213072Y0078726D01*
X0213015Y0078706D01*
X0212956Y0078690D01*
X0212897Y0078677D01*
X0212838Y0078668D01*
X0212777Y0078663D01*
X0212717Y0078661D01*
X0203717Y0084661D02*
X0195717Y0084661D01*
X0191717Y0084661D02*
X0183717Y0084661D01*
X0151654Y0085469D02*
X0151654Y0086969D01*
X0151652Y0087029D01*
X0151647Y0087090D01*
X0151638Y0087149D01*
X0151625Y0087208D01*
X0151609Y0087267D01*
X0151589Y0087324D01*
X0151566Y0087379D01*
X0151539Y0087434D01*
X0151510Y0087486D01*
X0151477Y0087537D01*
X0151441Y0087586D01*
X0151403Y0087632D01*
X0151361Y0087676D01*
X0151317Y0087718D01*
X0151271Y0087756D01*
X0151222Y0087792D01*
X0151171Y0087825D01*
X0151119Y0087854D01*
X0151064Y0087881D01*
X0151009Y0087904D01*
X0150952Y0087924D01*
X0150893Y0087940D01*
X0150834Y0087953D01*
X0150775Y0087962D01*
X0150714Y0087967D01*
X0150654Y0087969D01*
X0144654Y0087969D01*
X0144594Y0087967D01*
X0144533Y0087962D01*
X0144474Y0087953D01*
X0144415Y0087940D01*
X0144356Y0087924D01*
X0144299Y0087904D01*
X0144244Y0087881D01*
X0144189Y0087854D01*
X0144137Y0087825D01*
X0144086Y0087792D01*
X0144037Y0087756D01*
X0143991Y0087718D01*
X0143947Y0087676D01*
X0143905Y0087632D01*
X0143867Y0087586D01*
X0143831Y0087537D01*
X0143798Y0087486D01*
X0143769Y0087434D01*
X0143742Y0087379D01*
X0143719Y0087324D01*
X0143699Y0087267D01*
X0143683Y0087208D01*
X0143670Y0087149D01*
X0143661Y0087090D01*
X0143656Y0087029D01*
X0143654Y0086969D01*
X0143654Y0085469D01*
X0144154Y0084969D01*
X0144154Y0070969D01*
X0143654Y0070469D01*
X0143654Y0068969D01*
X0143656Y0068909D01*
X0143661Y0068848D01*
X0143670Y0068789D01*
X0143683Y0068730D01*
X0143699Y0068671D01*
X0143719Y0068614D01*
X0143742Y0068559D01*
X0143769Y0068504D01*
X0143798Y0068452D01*
X0143831Y0068401D01*
X0143867Y0068352D01*
X0143905Y0068306D01*
X0143947Y0068262D01*
X0143991Y0068220D01*
X0144037Y0068182D01*
X0144086Y0068146D01*
X0144137Y0068113D01*
X0144189Y0068084D01*
X0144244Y0068057D01*
X0144299Y0068034D01*
X0144356Y0068014D01*
X0144415Y0067998D01*
X0144474Y0067985D01*
X0144533Y0067976D01*
X0144594Y0067971D01*
X0144654Y0067969D01*
X0150654Y0067969D01*
X0150714Y0067971D01*
X0150775Y0067976D01*
X0150834Y0067985D01*
X0150893Y0067998D01*
X0150952Y0068014D01*
X0151009Y0068034D01*
X0151064Y0068057D01*
X0151119Y0068084D01*
X0151171Y0068113D01*
X0151222Y0068146D01*
X0151271Y0068182D01*
X0151317Y0068220D01*
X0151361Y0068262D01*
X0151403Y0068306D01*
X0151441Y0068352D01*
X0151477Y0068401D01*
X0151510Y0068452D01*
X0151539Y0068504D01*
X0151566Y0068559D01*
X0151589Y0068614D01*
X0151609Y0068671D01*
X0151625Y0068730D01*
X0151638Y0068789D01*
X0151647Y0068848D01*
X0151652Y0068909D01*
X0151654Y0068969D01*
X0151654Y0070469D01*
X0151154Y0070969D01*
X0151154Y0084969D01*
X0151654Y0085469D01*
X0142205Y0085469D02*
X0142205Y0086969D01*
X0142203Y0087029D01*
X0142198Y0087090D01*
X0142189Y0087149D01*
X0142176Y0087208D01*
X0142160Y0087267D01*
X0142140Y0087324D01*
X0142117Y0087379D01*
X0142090Y0087434D01*
X0142061Y0087486D01*
X0142028Y0087537D01*
X0141992Y0087586D01*
X0141954Y0087632D01*
X0141912Y0087676D01*
X0141868Y0087718D01*
X0141822Y0087756D01*
X0141773Y0087792D01*
X0141722Y0087825D01*
X0141670Y0087854D01*
X0141615Y0087881D01*
X0141560Y0087904D01*
X0141503Y0087924D01*
X0141444Y0087940D01*
X0141385Y0087953D01*
X0141326Y0087962D01*
X0141265Y0087967D01*
X0141205Y0087969D01*
X0135205Y0087969D01*
X0135145Y0087967D01*
X0135084Y0087962D01*
X0135025Y0087953D01*
X0134966Y0087940D01*
X0134907Y0087924D01*
X0134850Y0087904D01*
X0134795Y0087881D01*
X0134740Y0087854D01*
X0134688Y0087825D01*
X0134637Y0087792D01*
X0134588Y0087756D01*
X0134542Y0087718D01*
X0134498Y0087676D01*
X0134456Y0087632D01*
X0134418Y0087586D01*
X0134382Y0087537D01*
X0134349Y0087486D01*
X0134320Y0087434D01*
X0134293Y0087379D01*
X0134270Y0087324D01*
X0134250Y0087267D01*
X0134234Y0087208D01*
X0134221Y0087149D01*
X0134212Y0087090D01*
X0134207Y0087029D01*
X0134205Y0086969D01*
X0134205Y0085469D01*
X0134705Y0084969D01*
X0134705Y0070969D01*
X0134205Y0070469D01*
X0134205Y0068969D01*
X0134207Y0068909D01*
X0134212Y0068848D01*
X0134221Y0068789D01*
X0134234Y0068730D01*
X0134250Y0068671D01*
X0134270Y0068614D01*
X0134293Y0068559D01*
X0134320Y0068504D01*
X0134349Y0068452D01*
X0134382Y0068401D01*
X0134418Y0068352D01*
X0134456Y0068306D01*
X0134498Y0068262D01*
X0134542Y0068220D01*
X0134588Y0068182D01*
X0134637Y0068146D01*
X0134688Y0068113D01*
X0134740Y0068084D01*
X0134795Y0068057D01*
X0134850Y0068034D01*
X0134907Y0068014D01*
X0134966Y0067998D01*
X0135025Y0067985D01*
X0135084Y0067976D01*
X0135145Y0067971D01*
X0135205Y0067969D01*
X0141205Y0067969D01*
X0141265Y0067971D01*
X0141326Y0067976D01*
X0141385Y0067985D01*
X0141444Y0067998D01*
X0141503Y0068014D01*
X0141560Y0068034D01*
X0141615Y0068057D01*
X0141670Y0068084D01*
X0141722Y0068113D01*
X0141773Y0068146D01*
X0141822Y0068182D01*
X0141868Y0068220D01*
X0141912Y0068262D01*
X0141954Y0068306D01*
X0141992Y0068352D01*
X0142028Y0068401D01*
X0142061Y0068452D01*
X0142090Y0068504D01*
X0142117Y0068559D01*
X0142140Y0068614D01*
X0142160Y0068671D01*
X0142176Y0068730D01*
X0142189Y0068789D01*
X0142198Y0068848D01*
X0142203Y0068909D01*
X0142205Y0068969D01*
X0142205Y0070469D01*
X0141705Y0070969D01*
X0141705Y0084969D01*
X0142205Y0085469D01*
X0132756Y0085469D02*
X0132756Y0086969D01*
X0132754Y0087029D01*
X0132749Y0087090D01*
X0132740Y0087149D01*
X0132727Y0087208D01*
X0132711Y0087267D01*
X0132691Y0087324D01*
X0132668Y0087379D01*
X0132641Y0087434D01*
X0132612Y0087486D01*
X0132579Y0087537D01*
X0132543Y0087586D01*
X0132505Y0087632D01*
X0132463Y0087676D01*
X0132419Y0087718D01*
X0132373Y0087756D01*
X0132324Y0087792D01*
X0132273Y0087825D01*
X0132221Y0087854D01*
X0132166Y0087881D01*
X0132111Y0087904D01*
X0132054Y0087924D01*
X0131995Y0087940D01*
X0131936Y0087953D01*
X0131877Y0087962D01*
X0131816Y0087967D01*
X0131756Y0087969D01*
X0125756Y0087969D01*
X0125696Y0087967D01*
X0125635Y0087962D01*
X0125576Y0087953D01*
X0125517Y0087940D01*
X0125458Y0087924D01*
X0125401Y0087904D01*
X0125346Y0087881D01*
X0125291Y0087854D01*
X0125239Y0087825D01*
X0125188Y0087792D01*
X0125139Y0087756D01*
X0125093Y0087718D01*
X0125049Y0087676D01*
X0125007Y0087632D01*
X0124969Y0087586D01*
X0124933Y0087537D01*
X0124900Y0087486D01*
X0124871Y0087434D01*
X0124844Y0087379D01*
X0124821Y0087324D01*
X0124801Y0087267D01*
X0124785Y0087208D01*
X0124772Y0087149D01*
X0124763Y0087090D01*
X0124758Y0087029D01*
X0124756Y0086969D01*
X0124756Y0085469D01*
X0125256Y0084969D01*
X0125256Y0070969D01*
X0124756Y0070469D01*
X0124756Y0068969D01*
X0124758Y0068909D01*
X0124763Y0068848D01*
X0124772Y0068789D01*
X0124785Y0068730D01*
X0124801Y0068671D01*
X0124821Y0068614D01*
X0124844Y0068559D01*
X0124871Y0068504D01*
X0124900Y0068452D01*
X0124933Y0068401D01*
X0124969Y0068352D01*
X0125007Y0068306D01*
X0125049Y0068262D01*
X0125093Y0068220D01*
X0125139Y0068182D01*
X0125188Y0068146D01*
X0125239Y0068113D01*
X0125291Y0068084D01*
X0125346Y0068057D01*
X0125401Y0068034D01*
X0125458Y0068014D01*
X0125517Y0067998D01*
X0125576Y0067985D01*
X0125635Y0067976D01*
X0125696Y0067971D01*
X0125756Y0067969D01*
X0131756Y0067969D01*
X0131816Y0067971D01*
X0131877Y0067976D01*
X0131936Y0067985D01*
X0131995Y0067998D01*
X0132054Y0068014D01*
X0132111Y0068034D01*
X0132166Y0068057D01*
X0132221Y0068084D01*
X0132273Y0068113D01*
X0132324Y0068146D01*
X0132373Y0068182D01*
X0132419Y0068220D01*
X0132463Y0068262D01*
X0132505Y0068306D01*
X0132543Y0068352D01*
X0132579Y0068401D01*
X0132612Y0068452D01*
X0132641Y0068504D01*
X0132668Y0068559D01*
X0132691Y0068614D01*
X0132711Y0068671D01*
X0132727Y0068730D01*
X0132740Y0068789D01*
X0132749Y0068848D01*
X0132754Y0068909D01*
X0132756Y0068969D01*
X0132756Y0070469D01*
X0132256Y0070969D01*
X0132256Y0084969D01*
X0132756Y0085469D01*
X0123307Y0085469D02*
X0123307Y0086969D01*
X0123305Y0087029D01*
X0123300Y0087090D01*
X0123291Y0087149D01*
X0123278Y0087208D01*
X0123262Y0087267D01*
X0123242Y0087324D01*
X0123219Y0087379D01*
X0123192Y0087434D01*
X0123163Y0087486D01*
X0123130Y0087537D01*
X0123094Y0087586D01*
X0123056Y0087632D01*
X0123014Y0087676D01*
X0122970Y0087718D01*
X0122924Y0087756D01*
X0122875Y0087792D01*
X0122824Y0087825D01*
X0122772Y0087854D01*
X0122717Y0087881D01*
X0122662Y0087904D01*
X0122605Y0087924D01*
X0122546Y0087940D01*
X0122487Y0087953D01*
X0122428Y0087962D01*
X0122367Y0087967D01*
X0122307Y0087969D01*
X0116307Y0087969D01*
X0116247Y0087967D01*
X0116186Y0087962D01*
X0116127Y0087953D01*
X0116068Y0087940D01*
X0116009Y0087924D01*
X0115952Y0087904D01*
X0115897Y0087881D01*
X0115842Y0087854D01*
X0115790Y0087825D01*
X0115739Y0087792D01*
X0115690Y0087756D01*
X0115644Y0087718D01*
X0115600Y0087676D01*
X0115558Y0087632D01*
X0115520Y0087586D01*
X0115484Y0087537D01*
X0115451Y0087486D01*
X0115422Y0087434D01*
X0115395Y0087379D01*
X0115372Y0087324D01*
X0115352Y0087267D01*
X0115336Y0087208D01*
X0115323Y0087149D01*
X0115314Y0087090D01*
X0115309Y0087029D01*
X0115307Y0086969D01*
X0115307Y0085469D01*
X0115807Y0084969D01*
X0115807Y0070969D01*
X0115307Y0070469D01*
X0115307Y0068969D01*
X0115309Y0068909D01*
X0115314Y0068848D01*
X0115323Y0068789D01*
X0115336Y0068730D01*
X0115352Y0068671D01*
X0115372Y0068614D01*
X0115395Y0068559D01*
X0115422Y0068504D01*
X0115451Y0068452D01*
X0115484Y0068401D01*
X0115520Y0068352D01*
X0115558Y0068306D01*
X0115600Y0068262D01*
X0115644Y0068220D01*
X0115690Y0068182D01*
X0115739Y0068146D01*
X0115790Y0068113D01*
X0115842Y0068084D01*
X0115897Y0068057D01*
X0115952Y0068034D01*
X0116009Y0068014D01*
X0116068Y0067998D01*
X0116127Y0067985D01*
X0116186Y0067976D01*
X0116247Y0067971D01*
X0116307Y0067969D01*
X0122307Y0067969D01*
X0122367Y0067971D01*
X0122428Y0067976D01*
X0122487Y0067985D01*
X0122546Y0067998D01*
X0122605Y0068014D01*
X0122662Y0068034D01*
X0122717Y0068057D01*
X0122772Y0068084D01*
X0122824Y0068113D01*
X0122875Y0068146D01*
X0122924Y0068182D01*
X0122970Y0068220D01*
X0123014Y0068262D01*
X0123056Y0068306D01*
X0123094Y0068352D01*
X0123130Y0068401D01*
X0123163Y0068452D01*
X0123192Y0068504D01*
X0123219Y0068559D01*
X0123242Y0068614D01*
X0123262Y0068671D01*
X0123278Y0068730D01*
X0123291Y0068789D01*
X0123300Y0068848D01*
X0123305Y0068909D01*
X0123307Y0068969D01*
X0123307Y0070469D01*
X0122807Y0070969D01*
X0122807Y0084969D01*
X0123307Y0085469D01*
X0062378Y0045535D02*
X0062378Y0039535D01*
X0062376Y0039475D01*
X0062371Y0039414D01*
X0062362Y0039355D01*
X0062349Y0039296D01*
X0062333Y0039237D01*
X0062313Y0039180D01*
X0062290Y0039125D01*
X0062263Y0039070D01*
X0062234Y0039018D01*
X0062201Y0038967D01*
X0062165Y0038918D01*
X0062127Y0038872D01*
X0062085Y0038828D01*
X0062041Y0038786D01*
X0061995Y0038748D01*
X0061946Y0038712D01*
X0061895Y0038679D01*
X0061843Y0038650D01*
X0061788Y0038623D01*
X0061733Y0038600D01*
X0061676Y0038580D01*
X0061617Y0038564D01*
X0061558Y0038551D01*
X0061499Y0038542D01*
X0061438Y0038537D01*
X0061378Y0038535D01*
X0059878Y0038535D01*
X0059378Y0039035D01*
X0045378Y0039035D01*
X0044878Y0038535D01*
X0043378Y0038535D01*
X0043318Y0038537D01*
X0043257Y0038542D01*
X0043198Y0038551D01*
X0043139Y0038564D01*
X0043080Y0038580D01*
X0043023Y0038600D01*
X0042968Y0038623D01*
X0042913Y0038650D01*
X0042861Y0038679D01*
X0042810Y0038712D01*
X0042761Y0038748D01*
X0042715Y0038786D01*
X0042671Y0038828D01*
X0042629Y0038872D01*
X0042591Y0038918D01*
X0042555Y0038967D01*
X0042522Y0039018D01*
X0042493Y0039070D01*
X0042466Y0039125D01*
X0042443Y0039180D01*
X0042423Y0039237D01*
X0042407Y0039296D01*
X0042394Y0039355D01*
X0042385Y0039414D01*
X0042380Y0039475D01*
X0042378Y0039535D01*
X0042378Y0045535D01*
X0042380Y0045595D01*
X0042385Y0045656D01*
X0042394Y0045715D01*
X0042407Y0045774D01*
X0042423Y0045833D01*
X0042443Y0045890D01*
X0042466Y0045945D01*
X0042493Y0046000D01*
X0042522Y0046052D01*
X0042555Y0046103D01*
X0042591Y0046152D01*
X0042629Y0046198D01*
X0042671Y0046242D01*
X0042715Y0046284D01*
X0042761Y0046322D01*
X0042810Y0046358D01*
X0042861Y0046391D01*
X0042913Y0046420D01*
X0042968Y0046447D01*
X0043023Y0046470D01*
X0043080Y0046490D01*
X0043139Y0046506D01*
X0043198Y0046519D01*
X0043257Y0046528D01*
X0043318Y0046533D01*
X0043378Y0046535D01*
X0044878Y0046535D01*
X0045378Y0046035D01*
X0059378Y0046035D01*
X0059878Y0046535D01*
X0061378Y0046535D01*
X0061438Y0046533D01*
X0061499Y0046528D01*
X0061558Y0046519D01*
X0061617Y0046506D01*
X0061676Y0046490D01*
X0061733Y0046470D01*
X0061788Y0046447D01*
X0061843Y0046420D01*
X0061895Y0046391D01*
X0061946Y0046358D01*
X0061995Y0046322D01*
X0062041Y0046284D01*
X0062085Y0046242D01*
X0062127Y0046198D01*
X0062165Y0046152D01*
X0062201Y0046103D01*
X0062234Y0046052D01*
X0062263Y0046000D01*
X0062290Y0045945D01*
X0062313Y0045890D01*
X0062333Y0045833D01*
X0062349Y0045774D01*
X0062362Y0045715D01*
X0062371Y0045656D01*
X0062376Y0045595D01*
X0062378Y0045535D01*
X0091559Y0024425D02*
X0094559Y0024425D01*
X0093059Y0022925D02*
X0093059Y0025925D01*
X0090059Y0024425D02*
X0090063Y0024756D01*
X0090075Y0025087D01*
X0090096Y0025418D01*
X0090124Y0025748D01*
X0090161Y0026078D01*
X0090205Y0026406D01*
X0090258Y0026733D01*
X0090318Y0027059D01*
X0090387Y0027383D01*
X0090464Y0027705D01*
X0090548Y0028026D01*
X0090640Y0028344D01*
X0090740Y0028660D01*
X0090848Y0028973D01*
X0090964Y0029284D01*
X0091087Y0029591D01*
X0091217Y0029896D01*
X0091355Y0030197D01*
X0091500Y0030495D01*
X0091653Y0030789D01*
X0091813Y0031079D01*
X0091980Y0031365D01*
X0092153Y0031647D01*
X0092334Y0031925D01*
X0092522Y0032198D01*
X0092716Y0032467D01*
X0092916Y0032731D01*
X0093123Y0032989D01*
X0093337Y0033243D01*
X0093556Y0033491D01*
X0093782Y0033734D01*
X0094013Y0033971D01*
X0094250Y0034202D01*
X0094493Y0034428D01*
X0094741Y0034647D01*
X0094995Y0034861D01*
X0095253Y0035068D01*
X0095517Y0035268D01*
X0095786Y0035462D01*
X0096059Y0035650D01*
X0096337Y0035831D01*
X0096619Y0036004D01*
X0096905Y0036171D01*
X0097195Y0036331D01*
X0097489Y0036484D01*
X0097787Y0036629D01*
X0098088Y0036767D01*
X0098393Y0036897D01*
X0098700Y0037020D01*
X0099011Y0037136D01*
X0099324Y0037244D01*
X0099640Y0037344D01*
X0099958Y0037436D01*
X0100279Y0037520D01*
X0100601Y0037597D01*
X0100925Y0037666D01*
X0101251Y0037726D01*
X0101578Y0037779D01*
X0101906Y0037823D01*
X0102236Y0037860D01*
X0102566Y0037888D01*
X0102897Y0037909D01*
X0103228Y0037921D01*
X0103559Y0037925D01*
X0103890Y0037921D01*
X0104221Y0037909D01*
X0104552Y0037888D01*
X0104882Y0037860D01*
X0105212Y0037823D01*
X0105540Y0037779D01*
X0105867Y0037726D01*
X0106193Y0037666D01*
X0106517Y0037597D01*
X0106839Y0037520D01*
X0107160Y0037436D01*
X0107478Y0037344D01*
X0107794Y0037244D01*
X0108107Y0037136D01*
X0108418Y0037020D01*
X0108725Y0036897D01*
X0109030Y0036767D01*
X0109331Y0036629D01*
X0109629Y0036484D01*
X0109923Y0036331D01*
X0110213Y0036171D01*
X0110499Y0036004D01*
X0110781Y0035831D01*
X0111059Y0035650D01*
X0111332Y0035462D01*
X0111601Y0035268D01*
X0111865Y0035068D01*
X0112123Y0034861D01*
X0112377Y0034647D01*
X0112625Y0034428D01*
X0112868Y0034202D01*
X0113105Y0033971D01*
X0113336Y0033734D01*
X0113562Y0033491D01*
X0113781Y0033243D01*
X0113995Y0032989D01*
X0114202Y0032731D01*
X0114402Y0032467D01*
X0114596Y0032198D01*
X0114784Y0031925D01*
X0114965Y0031647D01*
X0115138Y0031365D01*
X0115305Y0031079D01*
X0115465Y0030789D01*
X0115618Y0030495D01*
X0115763Y0030197D01*
X0115901Y0029896D01*
X0116031Y0029591D01*
X0116154Y0029284D01*
X0116270Y0028973D01*
X0116378Y0028660D01*
X0116478Y0028344D01*
X0116570Y0028026D01*
X0116654Y0027705D01*
X0116731Y0027383D01*
X0116800Y0027059D01*
X0116860Y0026733D01*
X0116913Y0026406D01*
X0116957Y0026078D01*
X0116994Y0025748D01*
X0117022Y0025418D01*
X0117043Y0025087D01*
X0117055Y0024756D01*
X0117059Y0024425D01*
X0117055Y0024094D01*
X0117043Y0023763D01*
X0117022Y0023432D01*
X0116994Y0023102D01*
X0116957Y0022772D01*
X0116913Y0022444D01*
X0116860Y0022117D01*
X0116800Y0021791D01*
X0116731Y0021467D01*
X0116654Y0021145D01*
X0116570Y0020824D01*
X0116478Y0020506D01*
X0116378Y0020190D01*
X0116270Y0019877D01*
X0116154Y0019566D01*
X0116031Y0019259D01*
X0115901Y0018954D01*
X0115763Y0018653D01*
X0115618Y0018355D01*
X0115465Y0018061D01*
X0115305Y0017771D01*
X0115138Y0017485D01*
X0114965Y0017203D01*
X0114784Y0016925D01*
X0114596Y0016652D01*
X0114402Y0016383D01*
X0114202Y0016119D01*
X0113995Y0015861D01*
X0113781Y0015607D01*
X0113562Y0015359D01*
X0113336Y0015116D01*
X0113105Y0014879D01*
X0112868Y0014648D01*
X0112625Y0014422D01*
X0112377Y0014203D01*
X0112123Y0013989D01*
X0111865Y0013782D01*
X0111601Y0013582D01*
X0111332Y0013388D01*
X0111059Y0013200D01*
X0110781Y0013019D01*
X0110499Y0012846D01*
X0110213Y0012679D01*
X0109923Y0012519D01*
X0109629Y0012366D01*
X0109331Y0012221D01*
X0109030Y0012083D01*
X0108725Y0011953D01*
X0108418Y0011830D01*
X0108107Y0011714D01*
X0107794Y0011606D01*
X0107478Y0011506D01*
X0107160Y0011414D01*
X0106839Y0011330D01*
X0106517Y0011253D01*
X0106193Y0011184D01*
X0105867Y0011124D01*
X0105540Y0011071D01*
X0105212Y0011027D01*
X0104882Y0010990D01*
X0104552Y0010962D01*
X0104221Y0010941D01*
X0103890Y0010929D01*
X0103559Y0010925D01*
X0103228Y0010929D01*
X0102897Y0010941D01*
X0102566Y0010962D01*
X0102236Y0010990D01*
X0101906Y0011027D01*
X0101578Y0011071D01*
X0101251Y0011124D01*
X0100925Y0011184D01*
X0100601Y0011253D01*
X0100279Y0011330D01*
X0099958Y0011414D01*
X0099640Y0011506D01*
X0099324Y0011606D01*
X0099011Y0011714D01*
X0098700Y0011830D01*
X0098393Y0011953D01*
X0098088Y0012083D01*
X0097787Y0012221D01*
X0097489Y0012366D01*
X0097195Y0012519D01*
X0096905Y0012679D01*
X0096619Y0012846D01*
X0096337Y0013019D01*
X0096059Y0013200D01*
X0095786Y0013388D01*
X0095517Y0013582D01*
X0095253Y0013782D01*
X0094995Y0013989D01*
X0094741Y0014203D01*
X0094493Y0014422D01*
X0094250Y0014648D01*
X0094013Y0014879D01*
X0093782Y0015116D01*
X0093556Y0015359D01*
X0093337Y0015607D01*
X0093123Y0015861D01*
X0092916Y0016119D01*
X0092716Y0016383D01*
X0092522Y0016652D01*
X0092334Y0016925D01*
X0092153Y0017203D01*
X0091980Y0017485D01*
X0091813Y0017771D01*
X0091653Y0018061D01*
X0091500Y0018355D01*
X0091355Y0018653D01*
X0091217Y0018954D01*
X0091087Y0019259D01*
X0090964Y0019566D01*
X0090848Y0019877D01*
X0090740Y0020190D01*
X0090640Y0020506D01*
X0090548Y0020824D01*
X0090464Y0021145D01*
X0090387Y0021467D01*
X0090318Y0021791D01*
X0090258Y0022117D01*
X0090205Y0022444D01*
X0090161Y0022772D01*
X0090124Y0023102D01*
X0090096Y0023432D01*
X0090075Y0023763D01*
X0090063Y0024094D01*
X0090059Y0024425D01*
X0051827Y0022457D02*
X0051830Y0022702D01*
X0051839Y0022948D01*
X0051854Y0023193D01*
X0051875Y0023437D01*
X0051902Y0023681D01*
X0051935Y0023924D01*
X0051974Y0024167D01*
X0052019Y0024408D01*
X0052070Y0024648D01*
X0052127Y0024887D01*
X0052189Y0025124D01*
X0052258Y0025360D01*
X0052332Y0025594D01*
X0052412Y0025826D01*
X0052497Y0026056D01*
X0052588Y0026284D01*
X0052685Y0026509D01*
X0052787Y0026733D01*
X0052895Y0026953D01*
X0053008Y0027171D01*
X0053126Y0027386D01*
X0053250Y0027598D01*
X0053378Y0027807D01*
X0053512Y0028013D01*
X0053651Y0028215D01*
X0053795Y0028414D01*
X0053944Y0028609D01*
X0054097Y0028801D01*
X0054255Y0028989D01*
X0054417Y0029173D01*
X0054585Y0029352D01*
X0054756Y0029528D01*
X0054932Y0029699D01*
X0055111Y0029867D01*
X0055295Y0030029D01*
X0055483Y0030187D01*
X0055675Y0030340D01*
X0055870Y0030489D01*
X0056069Y0030633D01*
X0056271Y0030772D01*
X0056477Y0030906D01*
X0056686Y0031034D01*
X0056898Y0031158D01*
X0057113Y0031276D01*
X0057331Y0031389D01*
X0057551Y0031497D01*
X0057775Y0031599D01*
X0058000Y0031696D01*
X0058228Y0031787D01*
X0058458Y0031872D01*
X0058690Y0031952D01*
X0058924Y0032026D01*
X0059160Y0032095D01*
X0059397Y0032157D01*
X0059636Y0032214D01*
X0059876Y0032265D01*
X0060117Y0032310D01*
X0060360Y0032349D01*
X0060603Y0032382D01*
X0060847Y0032409D01*
X0061091Y0032430D01*
X0061336Y0032445D01*
X0061582Y0032454D01*
X0061827Y0032457D01*
X0062072Y0032454D01*
X0062318Y0032445D01*
X0062563Y0032430D01*
X0062807Y0032409D01*
X0063051Y0032382D01*
X0063294Y0032349D01*
X0063537Y0032310D01*
X0063778Y0032265D01*
X0064018Y0032214D01*
X0064257Y0032157D01*
X0064494Y0032095D01*
X0064730Y0032026D01*
X0064964Y0031952D01*
X0065196Y0031872D01*
X0065426Y0031787D01*
X0065654Y0031696D01*
X0065879Y0031599D01*
X0066103Y0031497D01*
X0066323Y0031389D01*
X0066541Y0031276D01*
X0066756Y0031158D01*
X0066968Y0031034D01*
X0067177Y0030906D01*
X0067383Y0030772D01*
X0067585Y0030633D01*
X0067784Y0030489D01*
X0067979Y0030340D01*
X0068171Y0030187D01*
X0068359Y0030029D01*
X0068543Y0029867D01*
X0068722Y0029699D01*
X0068898Y0029528D01*
X0069069Y0029352D01*
X0069237Y0029173D01*
X0069399Y0028989D01*
X0069557Y0028801D01*
X0069710Y0028609D01*
X0069859Y0028414D01*
X0070003Y0028215D01*
X0070142Y0028013D01*
X0070276Y0027807D01*
X0070404Y0027598D01*
X0070528Y0027386D01*
X0070646Y0027171D01*
X0070759Y0026953D01*
X0070867Y0026733D01*
X0070969Y0026509D01*
X0071066Y0026284D01*
X0071157Y0026056D01*
X0071242Y0025826D01*
X0071322Y0025594D01*
X0071396Y0025360D01*
X0071465Y0025124D01*
X0071527Y0024887D01*
X0071584Y0024648D01*
X0071635Y0024408D01*
X0071680Y0024167D01*
X0071719Y0023924D01*
X0071752Y0023681D01*
X0071779Y0023437D01*
X0071800Y0023193D01*
X0071815Y0022948D01*
X0071824Y0022702D01*
X0071827Y0022457D01*
X0071824Y0022212D01*
X0071815Y0021966D01*
X0071800Y0021721D01*
X0071779Y0021477D01*
X0071752Y0021233D01*
X0071719Y0020990D01*
X0071680Y0020747D01*
X0071635Y0020506D01*
X0071584Y0020266D01*
X0071527Y0020027D01*
X0071465Y0019790D01*
X0071396Y0019554D01*
X0071322Y0019320D01*
X0071242Y0019088D01*
X0071157Y0018858D01*
X0071066Y0018630D01*
X0070969Y0018405D01*
X0070867Y0018181D01*
X0070759Y0017961D01*
X0070646Y0017743D01*
X0070528Y0017528D01*
X0070404Y0017316D01*
X0070276Y0017107D01*
X0070142Y0016901D01*
X0070003Y0016699D01*
X0069859Y0016500D01*
X0069710Y0016305D01*
X0069557Y0016113D01*
X0069399Y0015925D01*
X0069237Y0015741D01*
X0069069Y0015562D01*
X0068898Y0015386D01*
X0068722Y0015215D01*
X0068543Y0015047D01*
X0068359Y0014885D01*
X0068171Y0014727D01*
X0067979Y0014574D01*
X0067784Y0014425D01*
X0067585Y0014281D01*
X0067383Y0014142D01*
X0067177Y0014008D01*
X0066968Y0013880D01*
X0066756Y0013756D01*
X0066541Y0013638D01*
X0066323Y0013525D01*
X0066103Y0013417D01*
X0065879Y0013315D01*
X0065654Y0013218D01*
X0065426Y0013127D01*
X0065196Y0013042D01*
X0064964Y0012962D01*
X0064730Y0012888D01*
X0064494Y0012819D01*
X0064257Y0012757D01*
X0064018Y0012700D01*
X0063778Y0012649D01*
X0063537Y0012604D01*
X0063294Y0012565D01*
X0063051Y0012532D01*
X0062807Y0012505D01*
X0062563Y0012484D01*
X0062318Y0012469D01*
X0062072Y0012460D01*
X0061827Y0012457D01*
X0061582Y0012460D01*
X0061336Y0012469D01*
X0061091Y0012484D01*
X0060847Y0012505D01*
X0060603Y0012532D01*
X0060360Y0012565D01*
X0060117Y0012604D01*
X0059876Y0012649D01*
X0059636Y0012700D01*
X0059397Y0012757D01*
X0059160Y0012819D01*
X0058924Y0012888D01*
X0058690Y0012962D01*
X0058458Y0013042D01*
X0058228Y0013127D01*
X0058000Y0013218D01*
X0057775Y0013315D01*
X0057551Y0013417D01*
X0057331Y0013525D01*
X0057113Y0013638D01*
X0056898Y0013756D01*
X0056686Y0013880D01*
X0056477Y0014008D01*
X0056271Y0014142D01*
X0056069Y0014281D01*
X0055870Y0014425D01*
X0055675Y0014574D01*
X0055483Y0014727D01*
X0055295Y0014885D01*
X0055111Y0015047D01*
X0054932Y0015215D01*
X0054756Y0015386D01*
X0054585Y0015562D01*
X0054417Y0015741D01*
X0054255Y0015925D01*
X0054097Y0016113D01*
X0053944Y0016305D01*
X0053795Y0016500D01*
X0053651Y0016699D01*
X0053512Y0016901D01*
X0053378Y0017107D01*
X0053250Y0017316D01*
X0053126Y0017528D01*
X0053008Y0017743D01*
X0052895Y0017961D01*
X0052787Y0018181D01*
X0052685Y0018405D01*
X0052588Y0018630D01*
X0052497Y0018858D01*
X0052412Y0019088D01*
X0052332Y0019320D01*
X0052258Y0019554D01*
X0052189Y0019790D01*
X0052127Y0020027D01*
X0052070Y0020266D01*
X0052019Y0020506D01*
X0051974Y0020747D01*
X0051935Y0020990D01*
X0051902Y0021233D01*
X0051875Y0021477D01*
X0051854Y0021721D01*
X0051839Y0021966D01*
X0051830Y0022212D01*
X0051827Y0022457D01*
X0029732Y0056362D02*
X0005732Y0056362D01*
X0005732Y0100362D01*
X0029732Y0100362D01*
X0029732Y0056362D01*
X0023732Y0063362D02*
X0023232Y0063362D01*
X0023732Y0063362D02*
X0023732Y0065362D01*
X0023232Y0065362D01*
X0023732Y0065362D02*
X0023732Y0067362D01*
X0021732Y0067362D01*
X0023732Y0067362D02*
X0023732Y0069362D01*
X0011732Y0069362D01*
X0011732Y0067362D01*
X0013732Y0067362D01*
X0011732Y0067362D02*
X0011732Y0065362D01*
X0012232Y0065362D01*
X0011732Y0065362D02*
X0011732Y0063362D01*
X0012232Y0063362D01*
X0011732Y0069362D02*
X0011732Y0071362D01*
X0011732Y0073362D01*
X0011732Y0075362D01*
X0011732Y0093362D01*
X0012232Y0093362D01*
X0023232Y0093362D02*
X0023732Y0093362D01*
X0023732Y0075362D01*
X0023732Y0073362D01*
X0023732Y0071362D01*
X0023732Y0069362D01*
X0023732Y0071362D02*
X0011732Y0071362D01*
X0011732Y0073362D02*
X0014732Y0073362D01*
X0012732Y0075362D02*
X0011732Y0075362D01*
X0020732Y0073362D02*
X0023732Y0073362D01*
X0023732Y0075362D02*
X0022732Y0075362D01*
X0029732Y0102819D02*
X0005732Y0102819D01*
X0005732Y0146819D01*
X0029732Y0146819D01*
X0029732Y0102819D01*
X0023732Y0109819D02*
X0023232Y0109819D01*
X0023732Y0109819D02*
X0023732Y0111819D01*
X0023232Y0111819D01*
X0023732Y0111819D02*
X0023732Y0113819D01*
X0021732Y0113819D01*
X0023732Y0113819D02*
X0023732Y0115819D01*
X0011732Y0115819D01*
X0011732Y0113819D01*
X0013732Y0113819D01*
X0011732Y0113819D02*
X0011732Y0111819D01*
X0012232Y0111819D01*
X0011732Y0111819D02*
X0011732Y0109819D01*
X0012232Y0109819D01*
X0011732Y0115819D02*
X0011732Y0117819D01*
X0011732Y0119819D01*
X0011732Y0121819D01*
X0011732Y0139819D01*
X0012232Y0139819D01*
X0023232Y0139819D02*
X0023732Y0139819D01*
X0023732Y0121819D01*
X0023732Y0119819D01*
X0023732Y0117819D01*
X0023732Y0115819D01*
X0023732Y0117819D02*
X0011732Y0117819D01*
X0011732Y0119819D02*
X0014732Y0119819D01*
X0012732Y0121819D02*
X0011732Y0121819D01*
X0020732Y0119819D02*
X0023732Y0119819D01*
X0023732Y0121819D02*
X0022732Y0121819D01*
X0044622Y0154425D02*
X0054622Y0154425D01*
X0054682Y0154427D01*
X0054743Y0154432D01*
X0054802Y0154441D01*
X0054861Y0154454D01*
X0054920Y0154470D01*
X0054977Y0154490D01*
X0055032Y0154513D01*
X0055087Y0154540D01*
X0055139Y0154569D01*
X0055190Y0154602D01*
X0055239Y0154638D01*
X0055285Y0154676D01*
X0055329Y0154718D01*
X0055371Y0154762D01*
X0055409Y0154808D01*
X0055445Y0154857D01*
X0055478Y0154908D01*
X0055507Y0154960D01*
X0055534Y0155015D01*
X0055557Y0155070D01*
X0055577Y0155127D01*
X0055593Y0155186D01*
X0055606Y0155245D01*
X0055615Y0155304D01*
X0055620Y0155365D01*
X0055622Y0155425D01*
X0055622Y0193425D01*
X0055620Y0193485D01*
X0055615Y0193546D01*
X0055606Y0193605D01*
X0055593Y0193664D01*
X0055577Y0193723D01*
X0055557Y0193780D01*
X0055534Y0193835D01*
X0055507Y0193890D01*
X0055478Y0193942D01*
X0055445Y0193993D01*
X0055409Y0194042D01*
X0055371Y0194088D01*
X0055329Y0194132D01*
X0055285Y0194174D01*
X0055239Y0194212D01*
X0055190Y0194248D01*
X0055139Y0194281D01*
X0055087Y0194310D01*
X0055032Y0194337D01*
X0054977Y0194360D01*
X0054920Y0194380D01*
X0054861Y0194396D01*
X0054802Y0194409D01*
X0054743Y0194418D01*
X0054682Y0194423D01*
X0054622Y0194425D01*
X0044622Y0194425D01*
X0044562Y0194423D01*
X0044501Y0194418D01*
X0044442Y0194409D01*
X0044383Y0194396D01*
X0044324Y0194380D01*
X0044267Y0194360D01*
X0044212Y0194337D01*
X0044157Y0194310D01*
X0044105Y0194281D01*
X0044054Y0194248D01*
X0044005Y0194212D01*
X0043959Y0194174D01*
X0043915Y0194132D01*
X0043873Y0194088D01*
X0043835Y0194042D01*
X0043799Y0193993D01*
X0043766Y0193942D01*
X0043737Y0193890D01*
X0043710Y0193835D01*
X0043687Y0193780D01*
X0043667Y0193723D01*
X0043651Y0193664D01*
X0043638Y0193605D01*
X0043629Y0193546D01*
X0043624Y0193485D01*
X0043622Y0193425D01*
X0043622Y0155425D01*
X0043624Y0155365D01*
X0043629Y0155304D01*
X0043638Y0155245D01*
X0043651Y0155186D01*
X0043667Y0155127D01*
X0043687Y0155070D01*
X0043710Y0155015D01*
X0043737Y0154960D01*
X0043766Y0154908D01*
X0043799Y0154857D01*
X0043835Y0154808D01*
X0043873Y0154762D01*
X0043915Y0154718D01*
X0043959Y0154676D01*
X0044005Y0154638D01*
X0044054Y0154602D01*
X0044105Y0154569D01*
X0044157Y0154540D01*
X0044212Y0154513D01*
X0044267Y0154490D01*
X0044324Y0154470D01*
X0044383Y0154454D01*
X0044442Y0154441D01*
X0044501Y0154432D01*
X0044562Y0154427D01*
X0044622Y0154425D01*
X0049622Y0164425D02*
X0049622Y0172425D01*
X0049622Y0176425D02*
X0049622Y0184425D01*
X0035906Y0183425D02*
X0035906Y0181925D01*
X0035406Y0181425D01*
X0035406Y0167425D01*
X0035906Y0166925D01*
X0035906Y0165425D01*
X0035904Y0165365D01*
X0035899Y0165304D01*
X0035890Y0165245D01*
X0035877Y0165186D01*
X0035861Y0165127D01*
X0035841Y0165070D01*
X0035818Y0165015D01*
X0035791Y0164960D01*
X0035762Y0164908D01*
X0035729Y0164857D01*
X0035693Y0164808D01*
X0035655Y0164762D01*
X0035613Y0164718D01*
X0035569Y0164676D01*
X0035523Y0164638D01*
X0035474Y0164602D01*
X0035423Y0164569D01*
X0035371Y0164540D01*
X0035316Y0164513D01*
X0035261Y0164490D01*
X0035204Y0164470D01*
X0035145Y0164454D01*
X0035086Y0164441D01*
X0035027Y0164432D01*
X0034966Y0164427D01*
X0034906Y0164425D01*
X0028906Y0164425D01*
X0028846Y0164427D01*
X0028785Y0164432D01*
X0028726Y0164441D01*
X0028667Y0164454D01*
X0028608Y0164470D01*
X0028551Y0164490D01*
X0028496Y0164513D01*
X0028441Y0164540D01*
X0028389Y0164569D01*
X0028338Y0164602D01*
X0028289Y0164638D01*
X0028243Y0164676D01*
X0028199Y0164718D01*
X0028157Y0164762D01*
X0028119Y0164808D01*
X0028083Y0164857D01*
X0028050Y0164908D01*
X0028021Y0164960D01*
X0027994Y0165015D01*
X0027971Y0165070D01*
X0027951Y0165127D01*
X0027935Y0165186D01*
X0027922Y0165245D01*
X0027913Y0165304D01*
X0027908Y0165365D01*
X0027906Y0165425D01*
X0027906Y0166925D01*
X0028406Y0167425D01*
X0028406Y0181425D01*
X0027906Y0181925D01*
X0027906Y0183425D01*
X0027908Y0183485D01*
X0027913Y0183546D01*
X0027922Y0183605D01*
X0027935Y0183664D01*
X0027951Y0183723D01*
X0027971Y0183780D01*
X0027994Y0183835D01*
X0028021Y0183890D01*
X0028050Y0183942D01*
X0028083Y0183993D01*
X0028119Y0184042D01*
X0028157Y0184088D01*
X0028199Y0184132D01*
X0028243Y0184174D01*
X0028289Y0184212D01*
X0028338Y0184248D01*
X0028389Y0184281D01*
X0028441Y0184310D01*
X0028496Y0184337D01*
X0028551Y0184360D01*
X0028608Y0184380D01*
X0028667Y0184396D01*
X0028726Y0184409D01*
X0028785Y0184418D01*
X0028846Y0184423D01*
X0028906Y0184425D01*
X0034906Y0184425D01*
X0034966Y0184423D01*
X0035027Y0184418D01*
X0035086Y0184409D01*
X0035145Y0184396D01*
X0035204Y0184380D01*
X0035261Y0184360D01*
X0035316Y0184337D01*
X0035371Y0184310D01*
X0035423Y0184281D01*
X0035474Y0184248D01*
X0035523Y0184212D01*
X0035569Y0184174D01*
X0035613Y0184132D01*
X0035655Y0184088D01*
X0035693Y0184042D01*
X0035729Y0183993D01*
X0035762Y0183942D01*
X0035791Y0183890D01*
X0035818Y0183835D01*
X0035841Y0183780D01*
X0035861Y0183723D01*
X0035877Y0183664D01*
X0035890Y0183605D01*
X0035899Y0183546D01*
X0035904Y0183485D01*
X0035906Y0183425D01*
X0047157Y0203071D02*
X0085157Y0203071D01*
X0085217Y0203073D01*
X0085278Y0203078D01*
X0085337Y0203087D01*
X0085396Y0203100D01*
X0085455Y0203116D01*
X0085512Y0203136D01*
X0085567Y0203159D01*
X0085622Y0203186D01*
X0085674Y0203215D01*
X0085725Y0203248D01*
X0085774Y0203284D01*
X0085820Y0203322D01*
X0085864Y0203364D01*
X0085906Y0203408D01*
X0085944Y0203454D01*
X0085980Y0203503D01*
X0086013Y0203554D01*
X0086042Y0203606D01*
X0086069Y0203661D01*
X0086092Y0203716D01*
X0086112Y0203773D01*
X0086128Y0203832D01*
X0086141Y0203891D01*
X0086150Y0203950D01*
X0086155Y0204011D01*
X0086157Y0204071D01*
X0086157Y0214071D01*
X0086155Y0214131D01*
X0086150Y0214192D01*
X0086141Y0214251D01*
X0086128Y0214310D01*
X0086112Y0214369D01*
X0086092Y0214426D01*
X0086069Y0214481D01*
X0086042Y0214536D01*
X0086013Y0214588D01*
X0085980Y0214639D01*
X0085944Y0214688D01*
X0085906Y0214734D01*
X0085864Y0214778D01*
X0085820Y0214820D01*
X0085774Y0214858D01*
X0085725Y0214894D01*
X0085674Y0214927D01*
X0085622Y0214956D01*
X0085567Y0214983D01*
X0085512Y0215006D01*
X0085455Y0215026D01*
X0085396Y0215042D01*
X0085337Y0215055D01*
X0085278Y0215064D01*
X0085217Y0215069D01*
X0085157Y0215071D01*
X0047157Y0215071D01*
X0047097Y0215069D01*
X0047036Y0215064D01*
X0046977Y0215055D01*
X0046918Y0215042D01*
X0046859Y0215026D01*
X0046802Y0215006D01*
X0046747Y0214983D01*
X0046692Y0214956D01*
X0046640Y0214927D01*
X0046589Y0214894D01*
X0046540Y0214858D01*
X0046494Y0214820D01*
X0046450Y0214778D01*
X0046408Y0214734D01*
X0046370Y0214688D01*
X0046334Y0214639D01*
X0046301Y0214588D01*
X0046272Y0214536D01*
X0046245Y0214481D01*
X0046222Y0214426D01*
X0046202Y0214369D01*
X0046186Y0214310D01*
X0046173Y0214251D01*
X0046164Y0214192D01*
X0046159Y0214131D01*
X0046157Y0214071D01*
X0046157Y0204071D01*
X0046159Y0204011D01*
X0046164Y0203950D01*
X0046173Y0203891D01*
X0046186Y0203832D01*
X0046202Y0203773D01*
X0046222Y0203716D01*
X0046245Y0203661D01*
X0046272Y0203606D01*
X0046301Y0203554D01*
X0046334Y0203503D01*
X0046370Y0203454D01*
X0046408Y0203408D01*
X0046450Y0203364D01*
X0046494Y0203322D01*
X0046540Y0203284D01*
X0046589Y0203248D01*
X0046640Y0203215D01*
X0046692Y0203186D01*
X0046747Y0203159D01*
X0046802Y0203136D01*
X0046859Y0203116D01*
X0046918Y0203100D01*
X0046977Y0203087D01*
X0047036Y0203078D01*
X0047097Y0203073D01*
X0047157Y0203071D01*
X0056157Y0209071D02*
X0064157Y0209071D01*
X0068157Y0209071D02*
X0076157Y0209071D01*
X0073976Y0223969D02*
X0072476Y0223969D01*
X0071976Y0224469D01*
X0057976Y0224469D01*
X0057476Y0223969D01*
X0055976Y0223969D01*
X0055916Y0223971D01*
X0055855Y0223976D01*
X0055796Y0223985D01*
X0055737Y0223998D01*
X0055678Y0224014D01*
X0055621Y0224034D01*
X0055566Y0224057D01*
X0055511Y0224084D01*
X0055459Y0224113D01*
X0055408Y0224146D01*
X0055359Y0224182D01*
X0055313Y0224220D01*
X0055269Y0224262D01*
X0055227Y0224306D01*
X0055189Y0224352D01*
X0055153Y0224401D01*
X0055120Y0224452D01*
X0055091Y0224504D01*
X0055064Y0224559D01*
X0055041Y0224614D01*
X0055021Y0224671D01*
X0055005Y0224730D01*
X0054992Y0224789D01*
X0054983Y0224848D01*
X0054978Y0224909D01*
X0054976Y0224969D01*
X0054976Y0230969D01*
X0054978Y0231029D01*
X0054983Y0231090D01*
X0054992Y0231149D01*
X0055005Y0231208D01*
X0055021Y0231267D01*
X0055041Y0231324D01*
X0055064Y0231379D01*
X0055091Y0231434D01*
X0055120Y0231486D01*
X0055153Y0231537D01*
X0055189Y0231586D01*
X0055227Y0231632D01*
X0055269Y0231676D01*
X0055313Y0231718D01*
X0055359Y0231756D01*
X0055408Y0231792D01*
X0055459Y0231825D01*
X0055511Y0231854D01*
X0055566Y0231881D01*
X0055621Y0231904D01*
X0055678Y0231924D01*
X0055737Y0231940D01*
X0055796Y0231953D01*
X0055855Y0231962D01*
X0055916Y0231967D01*
X0055976Y0231969D01*
X0057476Y0231969D01*
X0057976Y0231469D01*
X0071976Y0231469D01*
X0072476Y0231969D01*
X0073976Y0231969D01*
X0074036Y0231967D01*
X0074097Y0231962D01*
X0074156Y0231953D01*
X0074215Y0231940D01*
X0074274Y0231924D01*
X0074331Y0231904D01*
X0074386Y0231881D01*
X0074441Y0231854D01*
X0074493Y0231825D01*
X0074544Y0231792D01*
X0074593Y0231756D01*
X0074639Y0231718D01*
X0074683Y0231676D01*
X0074725Y0231632D01*
X0074763Y0231586D01*
X0074799Y0231537D01*
X0074832Y0231486D01*
X0074861Y0231434D01*
X0074888Y0231379D01*
X0074911Y0231324D01*
X0074931Y0231267D01*
X0074947Y0231208D01*
X0074960Y0231149D01*
X0074969Y0231090D01*
X0074974Y0231029D01*
X0074976Y0230969D01*
X0074976Y0224969D01*
X0074974Y0224909D01*
X0074969Y0224848D01*
X0074960Y0224789D01*
X0074947Y0224730D01*
X0074931Y0224671D01*
X0074911Y0224614D01*
X0074888Y0224559D01*
X0074861Y0224504D01*
X0074832Y0224452D01*
X0074799Y0224401D01*
X0074763Y0224352D01*
X0074725Y0224306D01*
X0074683Y0224262D01*
X0074639Y0224220D01*
X0074593Y0224182D01*
X0074544Y0224146D01*
X0074493Y0224113D01*
X0074441Y0224084D01*
X0074386Y0224057D01*
X0074331Y0224034D01*
X0074274Y0224014D01*
X0074215Y0223998D01*
X0074156Y0223985D01*
X0074097Y0223976D01*
X0074036Y0223971D01*
X0073976Y0223969D01*
X0120315Y0193701D02*
X0120315Y0155701D01*
X0120317Y0155641D01*
X0120322Y0155580D01*
X0120331Y0155521D01*
X0120344Y0155462D01*
X0120360Y0155403D01*
X0120380Y0155346D01*
X0120403Y0155291D01*
X0120430Y0155236D01*
X0120459Y0155184D01*
X0120492Y0155133D01*
X0120528Y0155084D01*
X0120566Y0155038D01*
X0120608Y0154994D01*
X0120652Y0154952D01*
X0120698Y0154914D01*
X0120747Y0154878D01*
X0120798Y0154845D01*
X0120850Y0154816D01*
X0120905Y0154789D01*
X0120960Y0154766D01*
X0121017Y0154746D01*
X0121076Y0154730D01*
X0121135Y0154717D01*
X0121194Y0154708D01*
X0121255Y0154703D01*
X0121315Y0154701D01*
X0131315Y0154701D01*
X0131375Y0154703D01*
X0131436Y0154708D01*
X0131495Y0154717D01*
X0131554Y0154730D01*
X0131613Y0154746D01*
X0131670Y0154766D01*
X0131725Y0154789D01*
X0131780Y0154816D01*
X0131832Y0154845D01*
X0131883Y0154878D01*
X0131932Y0154914D01*
X0131978Y0154952D01*
X0132022Y0154994D01*
X0132064Y0155038D01*
X0132102Y0155084D01*
X0132138Y0155133D01*
X0132171Y0155184D01*
X0132200Y0155236D01*
X0132227Y0155291D01*
X0132250Y0155346D01*
X0132270Y0155403D01*
X0132286Y0155462D01*
X0132299Y0155521D01*
X0132308Y0155580D01*
X0132313Y0155641D01*
X0132315Y0155701D01*
X0132315Y0193701D01*
X0132313Y0193761D01*
X0132308Y0193822D01*
X0132299Y0193881D01*
X0132286Y0193940D01*
X0132270Y0193999D01*
X0132250Y0194056D01*
X0132227Y0194111D01*
X0132200Y0194166D01*
X0132171Y0194218D01*
X0132138Y0194269D01*
X0132102Y0194318D01*
X0132064Y0194364D01*
X0132022Y0194408D01*
X0131978Y0194450D01*
X0131932Y0194488D01*
X0131883Y0194524D01*
X0131832Y0194557D01*
X0131780Y0194586D01*
X0131725Y0194613D01*
X0131670Y0194636D01*
X0131613Y0194656D01*
X0131554Y0194672D01*
X0131495Y0194685D01*
X0131436Y0194694D01*
X0131375Y0194699D01*
X0131315Y0194701D01*
X0121315Y0194701D01*
X0121255Y0194699D01*
X0121194Y0194694D01*
X0121135Y0194685D01*
X0121076Y0194672D01*
X0121017Y0194656D01*
X0120960Y0194636D01*
X0120905Y0194613D01*
X0120850Y0194586D01*
X0120798Y0194557D01*
X0120747Y0194524D01*
X0120698Y0194488D01*
X0120652Y0194450D01*
X0120608Y0194408D01*
X0120566Y0194364D01*
X0120528Y0194318D01*
X0120492Y0194269D01*
X0120459Y0194218D01*
X0120430Y0194166D01*
X0120403Y0194111D01*
X0120380Y0194056D01*
X0120360Y0193999D01*
X0120344Y0193940D01*
X0120331Y0193881D01*
X0120322Y0193822D01*
X0120317Y0193761D01*
X0120315Y0193701D01*
X0126315Y0184701D02*
X0126315Y0176701D01*
X0126315Y0172701D02*
X0126315Y0164701D01*
X0109386Y0162531D02*
X0109386Y0185531D01*
X0069386Y0185531D01*
X0069386Y0178031D01*
X0069512Y0178029D01*
X0069637Y0178023D01*
X0069762Y0178013D01*
X0069887Y0177999D01*
X0070012Y0177982D01*
X0070136Y0177960D01*
X0070259Y0177935D01*
X0070381Y0177905D01*
X0070502Y0177872D01*
X0070622Y0177835D01*
X0070741Y0177795D01*
X0070858Y0177750D01*
X0070975Y0177702D01*
X0071089Y0177650D01*
X0071202Y0177595D01*
X0071313Y0177536D01*
X0071422Y0177474D01*
X0071529Y0177408D01*
X0071634Y0177339D01*
X0071737Y0177267D01*
X0071838Y0177192D01*
X0071936Y0177113D01*
X0072031Y0177031D01*
X0072124Y0176947D01*
X0072214Y0176859D01*
X0072302Y0176769D01*
X0072386Y0176676D01*
X0072468Y0176581D01*
X0072547Y0176483D01*
X0072622Y0176382D01*
X0072694Y0176279D01*
X0072763Y0176174D01*
X0072829Y0176067D01*
X0072891Y0175958D01*
X0072950Y0175847D01*
X0073005Y0175734D01*
X0073057Y0175620D01*
X0073105Y0175503D01*
X0073150Y0175386D01*
X0073190Y0175267D01*
X0073227Y0175147D01*
X0073260Y0175026D01*
X0073290Y0174904D01*
X0073315Y0174781D01*
X0073337Y0174657D01*
X0073354Y0174532D01*
X0073368Y0174407D01*
X0073378Y0174282D01*
X0073384Y0174157D01*
X0073386Y0174031D01*
X0073384Y0173905D01*
X0073378Y0173780D01*
X0073368Y0173655D01*
X0073354Y0173530D01*
X0073337Y0173405D01*
X0073315Y0173281D01*
X0073290Y0173158D01*
X0073260Y0173036D01*
X0073227Y0172915D01*
X0073190Y0172795D01*
X0073150Y0172676D01*
X0073105Y0172559D01*
X0073057Y0172442D01*
X0073005Y0172328D01*
X0072950Y0172215D01*
X0072891Y0172104D01*
X0072829Y0171995D01*
X0072763Y0171888D01*
X0072694Y0171783D01*
X0072622Y0171680D01*
X0072547Y0171579D01*
X0072468Y0171481D01*
X0072386Y0171386D01*
X0072302Y0171293D01*
X0072214Y0171203D01*
X0072124Y0171115D01*
X0072031Y0171031D01*
X0071936Y0170949D01*
X0071838Y0170870D01*
X0071737Y0170795D01*
X0071634Y0170723D01*
X0071529Y0170654D01*
X0071422Y0170588D01*
X0071313Y0170526D01*
X0071202Y0170467D01*
X0071089Y0170412D01*
X0070975Y0170360D01*
X0070858Y0170312D01*
X0070741Y0170267D01*
X0070622Y0170227D01*
X0070502Y0170190D01*
X0070381Y0170157D01*
X0070259Y0170127D01*
X0070136Y0170102D01*
X0070012Y0170080D01*
X0069887Y0170063D01*
X0069762Y0170049D01*
X0069637Y0170039D01*
X0069512Y0170033D01*
X0069386Y0170031D01*
X0069386Y0162531D01*
X0109386Y0162531D01*
X0225543Y0108622D02*
X0225543Y0107122D01*
X0226043Y0106622D01*
X0226043Y0092622D01*
X0225543Y0092122D01*
X0225543Y0090622D01*
X0225545Y0090562D01*
X0225550Y0090501D01*
X0225559Y0090442D01*
X0225572Y0090383D01*
X0225588Y0090324D01*
X0225608Y0090267D01*
X0225631Y0090212D01*
X0225658Y0090157D01*
X0225687Y0090105D01*
X0225720Y0090054D01*
X0225756Y0090005D01*
X0225794Y0089959D01*
X0225836Y0089915D01*
X0225880Y0089873D01*
X0225926Y0089835D01*
X0225975Y0089799D01*
X0226026Y0089766D01*
X0226078Y0089737D01*
X0226133Y0089710D01*
X0226188Y0089687D01*
X0226245Y0089667D01*
X0226304Y0089651D01*
X0226363Y0089638D01*
X0226422Y0089629D01*
X0226483Y0089624D01*
X0226543Y0089622D01*
X0232543Y0089622D01*
X0232603Y0089624D01*
X0232664Y0089629D01*
X0232723Y0089638D01*
X0232782Y0089651D01*
X0232841Y0089667D01*
X0232898Y0089687D01*
X0232953Y0089710D01*
X0233008Y0089737D01*
X0233060Y0089766D01*
X0233111Y0089799D01*
X0233160Y0089835D01*
X0233206Y0089873D01*
X0233250Y0089915D01*
X0233292Y0089959D01*
X0233330Y0090005D01*
X0233366Y0090054D01*
X0233399Y0090105D01*
X0233428Y0090157D01*
X0233455Y0090212D01*
X0233478Y0090267D01*
X0233498Y0090324D01*
X0233514Y0090383D01*
X0233527Y0090442D01*
X0233536Y0090501D01*
X0233541Y0090562D01*
X0233543Y0090622D01*
X0233543Y0092122D01*
X0233043Y0092622D01*
X0233043Y0106622D01*
X0233543Y0107122D01*
X0233543Y0108622D01*
X0233541Y0108682D01*
X0233536Y0108743D01*
X0233527Y0108802D01*
X0233514Y0108861D01*
X0233498Y0108920D01*
X0233478Y0108977D01*
X0233455Y0109032D01*
X0233428Y0109087D01*
X0233399Y0109139D01*
X0233366Y0109190D01*
X0233330Y0109239D01*
X0233292Y0109285D01*
X0233250Y0109329D01*
X0233206Y0109371D01*
X0233160Y0109409D01*
X0233111Y0109445D01*
X0233060Y0109478D01*
X0233008Y0109507D01*
X0232953Y0109534D01*
X0232898Y0109557D01*
X0232841Y0109577D01*
X0232782Y0109593D01*
X0232723Y0109606D01*
X0232664Y0109615D01*
X0232603Y0109620D01*
X0232543Y0109622D01*
X0226543Y0109622D01*
X0226483Y0109620D01*
X0226422Y0109615D01*
X0226363Y0109606D01*
X0226304Y0109593D01*
X0226245Y0109577D01*
X0226188Y0109557D01*
X0226133Y0109534D01*
X0226078Y0109507D01*
X0226026Y0109478D01*
X0225975Y0109445D01*
X0225926Y0109409D01*
X0225880Y0109371D01*
X0225836Y0109329D01*
X0225794Y0109285D01*
X0225756Y0109239D01*
X0225720Y0109190D01*
X0225687Y0109139D01*
X0225658Y0109087D01*
X0225631Y0109032D01*
X0225608Y0108977D01*
X0225588Y0108920D01*
X0225572Y0108861D01*
X0225559Y0108802D01*
X0225550Y0108743D01*
X0225545Y0108682D01*
X0225543Y0108622D01*
X0234598Y0108622D02*
X0234598Y0107122D01*
X0235098Y0106622D01*
X0235098Y0092622D01*
X0234598Y0092122D01*
X0234598Y0090622D01*
X0234600Y0090562D01*
X0234605Y0090501D01*
X0234614Y0090442D01*
X0234627Y0090383D01*
X0234643Y0090324D01*
X0234663Y0090267D01*
X0234686Y0090212D01*
X0234713Y0090157D01*
X0234742Y0090105D01*
X0234775Y0090054D01*
X0234811Y0090005D01*
X0234849Y0089959D01*
X0234891Y0089915D01*
X0234935Y0089873D01*
X0234981Y0089835D01*
X0235030Y0089799D01*
X0235081Y0089766D01*
X0235133Y0089737D01*
X0235188Y0089710D01*
X0235243Y0089687D01*
X0235300Y0089667D01*
X0235359Y0089651D01*
X0235418Y0089638D01*
X0235477Y0089629D01*
X0235538Y0089624D01*
X0235598Y0089622D01*
X0241598Y0089622D01*
X0241658Y0089624D01*
X0241719Y0089629D01*
X0241778Y0089638D01*
X0241837Y0089651D01*
X0241896Y0089667D01*
X0241953Y0089687D01*
X0242008Y0089710D01*
X0242063Y0089737D01*
X0242115Y0089766D01*
X0242166Y0089799D01*
X0242215Y0089835D01*
X0242261Y0089873D01*
X0242305Y0089915D01*
X0242347Y0089959D01*
X0242385Y0090005D01*
X0242421Y0090054D01*
X0242454Y0090105D01*
X0242483Y0090157D01*
X0242510Y0090212D01*
X0242533Y0090267D01*
X0242553Y0090324D01*
X0242569Y0090383D01*
X0242582Y0090442D01*
X0242591Y0090501D01*
X0242596Y0090562D01*
X0242598Y0090622D01*
X0242598Y0092122D01*
X0242098Y0092622D01*
X0242098Y0106622D01*
X0242598Y0107122D01*
X0242598Y0108622D01*
X0242596Y0108682D01*
X0242591Y0108743D01*
X0242582Y0108802D01*
X0242569Y0108861D01*
X0242553Y0108920D01*
X0242533Y0108977D01*
X0242510Y0109032D01*
X0242483Y0109087D01*
X0242454Y0109139D01*
X0242421Y0109190D01*
X0242385Y0109239D01*
X0242347Y0109285D01*
X0242305Y0109329D01*
X0242261Y0109371D01*
X0242215Y0109409D01*
X0242166Y0109445D01*
X0242115Y0109478D01*
X0242063Y0109507D01*
X0242008Y0109534D01*
X0241953Y0109557D01*
X0241896Y0109577D01*
X0241837Y0109593D01*
X0241778Y0109606D01*
X0241719Y0109615D01*
X0241658Y0109620D01*
X0241598Y0109622D01*
X0235598Y0109622D01*
X0235538Y0109620D01*
X0235477Y0109615D01*
X0235418Y0109606D01*
X0235359Y0109593D01*
X0235300Y0109577D01*
X0235243Y0109557D01*
X0235188Y0109534D01*
X0235133Y0109507D01*
X0235081Y0109478D01*
X0235030Y0109445D01*
X0234981Y0109409D01*
X0234935Y0109371D01*
X0234891Y0109329D01*
X0234849Y0109285D01*
X0234811Y0109239D01*
X0234775Y0109190D01*
X0234742Y0109139D01*
X0234713Y0109087D01*
X0234686Y0109032D01*
X0234663Y0108977D01*
X0234643Y0108920D01*
X0234627Y0108861D01*
X0234614Y0108802D01*
X0234605Y0108743D01*
X0234600Y0108682D01*
X0234598Y0108622D01*
X0255988Y0108346D02*
X0255988Y0100346D01*
X0255990Y0100286D01*
X0255995Y0100225D01*
X0256004Y0100166D01*
X0256017Y0100107D01*
X0256033Y0100048D01*
X0256053Y0099991D01*
X0256076Y0099936D01*
X0256103Y0099881D01*
X0256132Y0099829D01*
X0256165Y0099778D01*
X0256201Y0099729D01*
X0256239Y0099683D01*
X0256281Y0099639D01*
X0256325Y0099597D01*
X0256371Y0099559D01*
X0256420Y0099523D01*
X0256471Y0099490D01*
X0256523Y0099461D01*
X0256578Y0099434D01*
X0256633Y0099411D01*
X0256690Y0099391D01*
X0256749Y0099375D01*
X0256808Y0099362D01*
X0256867Y0099353D01*
X0256928Y0099348D01*
X0256988Y0099346D01*
X0283988Y0099346D01*
X0284048Y0099348D01*
X0284109Y0099353D01*
X0284168Y0099362D01*
X0284227Y0099375D01*
X0284286Y0099391D01*
X0284343Y0099411D01*
X0284398Y0099434D01*
X0284453Y0099461D01*
X0284505Y0099490D01*
X0284556Y0099523D01*
X0284605Y0099559D01*
X0284651Y0099597D01*
X0284695Y0099639D01*
X0284737Y0099683D01*
X0284775Y0099729D01*
X0284811Y0099778D01*
X0284844Y0099829D01*
X0284873Y0099881D01*
X0284900Y0099936D01*
X0284923Y0099991D01*
X0284943Y0100048D01*
X0284959Y0100107D01*
X0284972Y0100166D01*
X0284981Y0100225D01*
X0284986Y0100286D01*
X0284988Y0100346D01*
X0284988Y0108346D01*
X0284986Y0108406D01*
X0284981Y0108467D01*
X0284972Y0108526D01*
X0284959Y0108585D01*
X0284943Y0108644D01*
X0284923Y0108701D01*
X0284900Y0108756D01*
X0284873Y0108811D01*
X0284844Y0108863D01*
X0284811Y0108914D01*
X0284775Y0108963D01*
X0284737Y0109009D01*
X0284695Y0109053D01*
X0284651Y0109095D01*
X0284605Y0109133D01*
X0284556Y0109169D01*
X0284505Y0109202D01*
X0284453Y0109231D01*
X0284398Y0109258D01*
X0284343Y0109281D01*
X0284286Y0109301D01*
X0284227Y0109317D01*
X0284168Y0109330D01*
X0284109Y0109339D01*
X0284048Y0109344D01*
X0283988Y0109346D01*
X0256988Y0109346D01*
X0256928Y0109344D01*
X0256867Y0109339D01*
X0256808Y0109330D01*
X0256749Y0109317D01*
X0256690Y0109301D01*
X0256633Y0109281D01*
X0256578Y0109258D01*
X0256523Y0109231D01*
X0256471Y0109202D01*
X0256420Y0109169D01*
X0256371Y0109133D01*
X0256325Y0109095D01*
X0256281Y0109053D01*
X0256239Y0109009D01*
X0256201Y0108963D01*
X0256165Y0108914D01*
X0256132Y0108863D01*
X0256103Y0108811D01*
X0256076Y0108756D01*
X0256053Y0108701D01*
X0256033Y0108644D01*
X0256017Y0108585D01*
X0256004Y0108526D01*
X0255995Y0108467D01*
X0255990Y0108406D01*
X0255988Y0108346D01*
X0256988Y0111157D02*
X0283988Y0111157D01*
X0284048Y0111159D01*
X0284109Y0111164D01*
X0284168Y0111173D01*
X0284227Y0111186D01*
X0284286Y0111202D01*
X0284343Y0111222D01*
X0284398Y0111245D01*
X0284453Y0111272D01*
X0284505Y0111301D01*
X0284556Y0111334D01*
X0284605Y0111370D01*
X0284651Y0111408D01*
X0284695Y0111450D01*
X0284737Y0111494D01*
X0284775Y0111540D01*
X0284811Y0111589D01*
X0284844Y0111640D01*
X0284873Y0111692D01*
X0284900Y0111747D01*
X0284923Y0111802D01*
X0284943Y0111859D01*
X0284959Y0111918D01*
X0284972Y0111977D01*
X0284981Y0112036D01*
X0284986Y0112097D01*
X0284988Y0112157D01*
X0284988Y0120157D01*
X0284986Y0120217D01*
X0284981Y0120278D01*
X0284972Y0120337D01*
X0284959Y0120396D01*
X0284943Y0120455D01*
X0284923Y0120512D01*
X0284900Y0120567D01*
X0284873Y0120622D01*
X0284844Y0120674D01*
X0284811Y0120725D01*
X0284775Y0120774D01*
X0284737Y0120820D01*
X0284695Y0120864D01*
X0284651Y0120906D01*
X0284605Y0120944D01*
X0284556Y0120980D01*
X0284505Y0121013D01*
X0284453Y0121042D01*
X0284398Y0121069D01*
X0284343Y0121092D01*
X0284286Y0121112D01*
X0284227Y0121128D01*
X0284168Y0121141D01*
X0284109Y0121150D01*
X0284048Y0121155D01*
X0283988Y0121157D01*
X0256988Y0121157D01*
X0256928Y0121155D01*
X0256867Y0121150D01*
X0256808Y0121141D01*
X0256749Y0121128D01*
X0256690Y0121112D01*
X0256633Y0121092D01*
X0256578Y0121069D01*
X0256523Y0121042D01*
X0256471Y0121013D01*
X0256420Y0120980D01*
X0256371Y0120944D01*
X0256325Y0120906D01*
X0256281Y0120864D01*
X0256239Y0120820D01*
X0256201Y0120774D01*
X0256165Y0120725D01*
X0256132Y0120674D01*
X0256103Y0120622D01*
X0256076Y0120567D01*
X0256053Y0120512D01*
X0256033Y0120455D01*
X0256017Y0120396D01*
X0256004Y0120337D01*
X0255995Y0120278D01*
X0255990Y0120217D01*
X0255988Y0120157D01*
X0255988Y0112157D01*
X0255990Y0112097D01*
X0255995Y0112036D01*
X0256004Y0111977D01*
X0256017Y0111918D01*
X0256033Y0111859D01*
X0256053Y0111802D01*
X0256076Y0111747D01*
X0256103Y0111692D01*
X0256132Y0111640D01*
X0256165Y0111589D01*
X0256201Y0111540D01*
X0256239Y0111494D01*
X0256281Y0111450D01*
X0256325Y0111408D01*
X0256371Y0111370D01*
X0256420Y0111334D01*
X0256471Y0111301D01*
X0256523Y0111272D01*
X0256578Y0111245D01*
X0256633Y0111222D01*
X0256690Y0111202D01*
X0256749Y0111186D01*
X0256808Y0111173D01*
X0256867Y0111164D01*
X0256928Y0111159D01*
X0256988Y0111157D01*
X0264488Y0116157D02*
X0269188Y0116157D01*
X0271688Y0116157D02*
X0276488Y0116157D01*
X0283988Y0122575D02*
X0256988Y0122575D01*
X0256928Y0122577D01*
X0256867Y0122582D01*
X0256808Y0122591D01*
X0256749Y0122604D01*
X0256690Y0122620D01*
X0256633Y0122640D01*
X0256578Y0122663D01*
X0256523Y0122690D01*
X0256471Y0122719D01*
X0256420Y0122752D01*
X0256371Y0122788D01*
X0256325Y0122826D01*
X0256281Y0122868D01*
X0256239Y0122912D01*
X0256201Y0122958D01*
X0256165Y0123007D01*
X0256132Y0123058D01*
X0256103Y0123110D01*
X0256076Y0123165D01*
X0256053Y0123220D01*
X0256033Y0123277D01*
X0256017Y0123336D01*
X0256004Y0123395D01*
X0255995Y0123454D01*
X0255990Y0123515D01*
X0255988Y0123575D01*
X0255988Y0131575D01*
X0255990Y0131635D01*
X0255995Y0131696D01*
X0256004Y0131755D01*
X0256017Y0131814D01*
X0256033Y0131873D01*
X0256053Y0131930D01*
X0256076Y0131985D01*
X0256103Y0132040D01*
X0256132Y0132092D01*
X0256165Y0132143D01*
X0256201Y0132192D01*
X0256239Y0132238D01*
X0256281Y0132282D01*
X0256325Y0132324D01*
X0256371Y0132362D01*
X0256420Y0132398D01*
X0256471Y0132431D01*
X0256523Y0132460D01*
X0256578Y0132487D01*
X0256633Y0132510D01*
X0256690Y0132530D01*
X0256749Y0132546D01*
X0256808Y0132559D01*
X0256867Y0132568D01*
X0256928Y0132573D01*
X0256988Y0132575D01*
X0283988Y0132575D01*
X0284048Y0132573D01*
X0284109Y0132568D01*
X0284168Y0132559D01*
X0284227Y0132546D01*
X0284286Y0132530D01*
X0284343Y0132510D01*
X0284398Y0132487D01*
X0284453Y0132460D01*
X0284505Y0132431D01*
X0284556Y0132398D01*
X0284605Y0132362D01*
X0284651Y0132324D01*
X0284695Y0132282D01*
X0284737Y0132238D01*
X0284775Y0132192D01*
X0284811Y0132143D01*
X0284844Y0132092D01*
X0284873Y0132040D01*
X0284900Y0131985D01*
X0284923Y0131930D01*
X0284943Y0131873D01*
X0284959Y0131814D01*
X0284972Y0131755D01*
X0284981Y0131696D01*
X0284986Y0131635D01*
X0284988Y0131575D01*
X0284988Y0123575D01*
X0284986Y0123515D01*
X0284981Y0123454D01*
X0284972Y0123395D01*
X0284959Y0123336D01*
X0284943Y0123277D01*
X0284923Y0123220D01*
X0284900Y0123165D01*
X0284873Y0123110D01*
X0284844Y0123058D01*
X0284811Y0123007D01*
X0284775Y0122958D01*
X0284737Y0122912D01*
X0284695Y0122868D01*
X0284651Y0122826D01*
X0284605Y0122788D01*
X0284556Y0122752D01*
X0284505Y0122719D01*
X0284453Y0122690D01*
X0284398Y0122663D01*
X0284343Y0122640D01*
X0284286Y0122620D01*
X0284227Y0122604D01*
X0284168Y0122591D01*
X0284109Y0122582D01*
X0284048Y0122577D01*
X0283988Y0122575D01*
X0276488Y0127575D02*
X0271688Y0127575D01*
X0269188Y0127575D02*
X0264488Y0127575D01*
X0256988Y0133992D02*
X0283988Y0133992D01*
X0284048Y0133994D01*
X0284109Y0133999D01*
X0284168Y0134008D01*
X0284227Y0134021D01*
X0284286Y0134037D01*
X0284343Y0134057D01*
X0284398Y0134080D01*
X0284453Y0134107D01*
X0284505Y0134136D01*
X0284556Y0134169D01*
X0284605Y0134205D01*
X0284651Y0134243D01*
X0284695Y0134285D01*
X0284737Y0134329D01*
X0284775Y0134375D01*
X0284811Y0134424D01*
X0284844Y0134475D01*
X0284873Y0134527D01*
X0284900Y0134582D01*
X0284923Y0134637D01*
X0284943Y0134694D01*
X0284959Y0134753D01*
X0284972Y0134812D01*
X0284981Y0134871D01*
X0284986Y0134932D01*
X0284988Y0134992D01*
X0284988Y0142992D01*
X0284986Y0143052D01*
X0284981Y0143113D01*
X0284972Y0143172D01*
X0284959Y0143231D01*
X0284943Y0143290D01*
X0284923Y0143347D01*
X0284900Y0143402D01*
X0284873Y0143457D01*
X0284844Y0143509D01*
X0284811Y0143560D01*
X0284775Y0143609D01*
X0284737Y0143655D01*
X0284695Y0143699D01*
X0284651Y0143741D01*
X0284605Y0143779D01*
X0284556Y0143815D01*
X0284505Y0143848D01*
X0284453Y0143877D01*
X0284398Y0143904D01*
X0284343Y0143927D01*
X0284286Y0143947D01*
X0284227Y0143963D01*
X0284168Y0143976D01*
X0284109Y0143985D01*
X0284048Y0143990D01*
X0283988Y0143992D01*
X0256988Y0143992D01*
X0256928Y0143990D01*
X0256867Y0143985D01*
X0256808Y0143976D01*
X0256749Y0143963D01*
X0256690Y0143947D01*
X0256633Y0143927D01*
X0256578Y0143904D01*
X0256523Y0143877D01*
X0256471Y0143848D01*
X0256420Y0143815D01*
X0256371Y0143779D01*
X0256325Y0143741D01*
X0256281Y0143699D01*
X0256239Y0143655D01*
X0256201Y0143609D01*
X0256165Y0143560D01*
X0256132Y0143509D01*
X0256103Y0143457D01*
X0256076Y0143402D01*
X0256053Y0143347D01*
X0256033Y0143290D01*
X0256017Y0143231D01*
X0256004Y0143172D01*
X0255995Y0143113D01*
X0255990Y0143052D01*
X0255988Y0142992D01*
X0255988Y0134992D01*
X0255990Y0134932D01*
X0255995Y0134871D01*
X0256004Y0134812D01*
X0256017Y0134753D01*
X0256033Y0134694D01*
X0256053Y0134637D01*
X0256076Y0134582D01*
X0256103Y0134527D01*
X0256132Y0134475D01*
X0256165Y0134424D01*
X0256201Y0134375D01*
X0256239Y0134329D01*
X0256281Y0134285D01*
X0256325Y0134243D01*
X0256371Y0134205D01*
X0256420Y0134169D01*
X0256471Y0134136D01*
X0256523Y0134107D01*
X0256578Y0134080D01*
X0256633Y0134057D01*
X0256690Y0134037D01*
X0256749Y0134021D01*
X0256808Y0134008D01*
X0256867Y0133999D01*
X0256928Y0133994D01*
X0256988Y0133992D01*
X0264488Y0138992D02*
X0269188Y0138992D01*
X0271688Y0138992D02*
X0276488Y0138992D01*
X0319071Y0153366D02*
X0320571Y0151866D01*
X0337571Y0151866D01*
X0339071Y0153366D01*
X0339071Y0160366D01*
X0337571Y0161866D01*
X0339071Y0163366D01*
X0339071Y0170366D01*
X0337571Y0171866D01*
X0339071Y0173366D01*
X0339071Y0180366D01*
X0337571Y0181866D01*
X0339071Y0183366D01*
X0339071Y0190366D01*
X0337571Y0191866D01*
X0339071Y0193366D01*
X0339071Y0200366D01*
X0337571Y0201866D01*
X0339071Y0203366D01*
X0339071Y0210366D01*
X0337571Y0211866D01*
X0339071Y0213366D01*
X0339071Y0220366D01*
X0337571Y0221866D01*
X0339071Y0223366D01*
X0339071Y0230366D01*
X0337571Y0231866D01*
X0320571Y0231866D01*
X0319071Y0230366D01*
X0319071Y0223366D01*
X0320571Y0221866D01*
X0319071Y0220366D01*
X0319071Y0213366D01*
X0320571Y0211866D01*
X0319071Y0210366D01*
X0319071Y0203366D01*
X0320571Y0201866D01*
X0319071Y0200366D01*
X0319071Y0193366D01*
X0320571Y0191866D01*
X0319071Y0190366D01*
X0319071Y0183366D01*
X0320571Y0181866D01*
X0319071Y0180366D01*
X0319071Y0173366D01*
X0320571Y0171866D01*
X0319071Y0170366D01*
X0319071Y0163366D01*
X0320571Y0161866D01*
X0319071Y0160366D01*
X0319071Y0153366D01*
X0276488Y0104346D02*
X0271688Y0104346D01*
X0269188Y0104346D02*
X0264488Y0104346D01*
D14*
X0196663Y0106518D02*
X0196663Y0125797D01*
X0179746Y0125797D01*
X0179746Y0106518D01*
X0196663Y0106518D01*
X0190567Y0106518D02*
X0190565Y0106614D01*
X0190559Y0106711D01*
X0190549Y0106806D01*
X0190536Y0106902D01*
X0190518Y0106997D01*
X0190497Y0107090D01*
X0190471Y0107183D01*
X0190442Y0107275D01*
X0190410Y0107366D01*
X0190373Y0107455D01*
X0190333Y0107543D01*
X0190290Y0107629D01*
X0190242Y0107713D01*
X0190192Y0107795D01*
X0190138Y0107875D01*
X0190081Y0107953D01*
X0190021Y0108028D01*
X0189958Y0108101D01*
X0189892Y0108171D01*
X0189823Y0108239D01*
X0189752Y0108303D01*
X0189678Y0108365D01*
X0189601Y0108423D01*
X0189522Y0108479D01*
X0189441Y0108531D01*
X0189358Y0108579D01*
X0189273Y0108625D01*
X0189186Y0108667D01*
X0189098Y0108705D01*
X0189008Y0108739D01*
X0188917Y0108770D01*
X0188824Y0108797D01*
X0188731Y0108821D01*
X0188636Y0108840D01*
X0188541Y0108856D01*
X0188446Y0108868D01*
X0188349Y0108876D01*
X0188253Y0108880D01*
X0188157Y0108880D01*
X0188061Y0108876D01*
X0187964Y0108868D01*
X0187869Y0108856D01*
X0187774Y0108840D01*
X0187679Y0108821D01*
X0187586Y0108797D01*
X0187493Y0108770D01*
X0187402Y0108739D01*
X0187312Y0108705D01*
X0187224Y0108667D01*
X0187137Y0108625D01*
X0187052Y0108579D01*
X0186969Y0108531D01*
X0186888Y0108479D01*
X0186809Y0108423D01*
X0186732Y0108365D01*
X0186658Y0108303D01*
X0186587Y0108239D01*
X0186518Y0108171D01*
X0186452Y0108101D01*
X0186389Y0108028D01*
X0186329Y0107953D01*
X0186272Y0107875D01*
X0186218Y0107795D01*
X0186168Y0107713D01*
X0186120Y0107629D01*
X0186077Y0107543D01*
X0186037Y0107455D01*
X0186000Y0107366D01*
X0185968Y0107275D01*
X0185939Y0107183D01*
X0185913Y0107090D01*
X0185892Y0106997D01*
X0185874Y0106902D01*
X0185861Y0106806D01*
X0185851Y0106711D01*
X0185845Y0106614D01*
X0185843Y0106518D01*
X0184406Y0155921D02*
X0189406Y0155921D01*
X0286571Y0156866D02*
X0291571Y0156866D01*
X0349091Y0148008D02*
X0354091Y0148008D01*
X0354091Y0218008D02*
X0349091Y0218008D01*
X0291571Y0236866D02*
X0286571Y0236866D01*
X0189406Y0235921D02*
X0184406Y0235921D01*
X0071827Y0029957D02*
X0071827Y0014957D01*
D15*
X0051512Y0047835D02*
X0051512Y0051338D01*
X0049760Y0049587D01*
X0052095Y0049587D01*
X0048504Y0047835D02*
X0046169Y0047835D01*
X0047337Y0047835D02*
X0047337Y0051338D01*
X0046169Y0050171D01*
X0044913Y0050755D02*
X0044913Y0049587D01*
X0044329Y0049003D01*
X0042578Y0049003D01*
X0042578Y0047835D02*
X0042578Y0051338D01*
X0044329Y0051338D01*
X0044913Y0050755D01*
X0043746Y0049003D02*
X0044913Y0047835D01*
X0141751Y0138385D02*
X0142518Y0137617D01*
X0144053Y0137617D01*
X0144820Y0138385D01*
X0146355Y0137617D02*
X0149424Y0137617D01*
X0147890Y0137617D02*
X0147890Y0142221D01*
X0146355Y0140687D01*
X0144820Y0141454D02*
X0144053Y0142221D01*
X0142518Y0142221D01*
X0141751Y0141454D01*
X0141751Y0138385D01*
X0135131Y0139566D02*
X0135131Y0140333D01*
X0134363Y0141100D01*
X0132061Y0141100D01*
X0132061Y0139566D01*
X0132829Y0138798D01*
X0134363Y0138798D01*
X0135131Y0139566D01*
X0133596Y0142635D02*
X0132061Y0141100D01*
X0133596Y0142635D02*
X0135131Y0143402D01*
X0128992Y0143402D02*
X0128992Y0138798D01*
X0127457Y0138798D02*
X0130527Y0138798D01*
X0127457Y0141868D02*
X0128992Y0143402D01*
X0125923Y0142635D02*
X0125155Y0143402D01*
X0123621Y0143402D01*
X0122854Y0142635D01*
X0122854Y0139566D01*
X0123621Y0138798D01*
X0125155Y0138798D01*
X0125923Y0139566D01*
X0116627Y0139566D02*
X0115859Y0138798D01*
X0114325Y0138798D01*
X0113557Y0139566D01*
X0113557Y0141100D02*
X0115092Y0141868D01*
X0115859Y0141868D01*
X0116627Y0141100D01*
X0116627Y0139566D01*
X0113557Y0141100D02*
X0113557Y0143402D01*
X0116627Y0143402D01*
X0110488Y0143402D02*
X0110488Y0138798D01*
X0108954Y0138798D02*
X0112023Y0138798D01*
X0108954Y0141868D02*
X0110488Y0143402D01*
X0107419Y0142635D02*
X0106652Y0143402D01*
X0105117Y0143402D01*
X0104350Y0142635D01*
X0104350Y0139566D01*
X0105117Y0138798D01*
X0106652Y0138798D01*
X0107419Y0139566D01*
X0097335Y0141888D02*
X0094266Y0141888D01*
X0096568Y0144190D01*
X0096568Y0139586D01*
X0092731Y0139586D02*
X0089662Y0139586D01*
X0091197Y0139586D02*
X0091197Y0144190D01*
X0089662Y0142655D01*
X0088128Y0143422D02*
X0087360Y0144190D01*
X0085826Y0144190D01*
X0085058Y0143422D01*
X0085058Y0140353D01*
X0085826Y0139586D01*
X0087360Y0139586D01*
X0088128Y0140353D01*
X0040706Y0177443D02*
X0037203Y0177443D01*
X0037203Y0179195D01*
X0037786Y0179778D01*
X0038954Y0179778D01*
X0039538Y0179195D01*
X0039538Y0177443D01*
X0039538Y0178611D02*
X0040706Y0179778D01*
X0040122Y0181034D02*
X0040706Y0181618D01*
X0040706Y0182786D01*
X0040122Y0183369D01*
X0039538Y0183369D01*
X0038954Y0182786D01*
X0038954Y0182202D01*
X0038954Y0182786D02*
X0038370Y0183369D01*
X0037786Y0183369D01*
X0037203Y0182786D01*
X0037203Y0181618D01*
X0037786Y0181034D01*
X0067994Y0219169D02*
X0067994Y0222671D01*
X0069746Y0222671D01*
X0070330Y0222088D01*
X0070330Y0220920D01*
X0069746Y0220336D01*
X0067994Y0220336D01*
X0069162Y0220336D02*
X0070330Y0219169D01*
X0071585Y0220920D02*
X0073921Y0220920D01*
X0073337Y0222671D02*
X0071585Y0220920D01*
X0073337Y0219169D02*
X0073337Y0222671D01*
X0151726Y0142221D02*
X0153261Y0142221D01*
X0154028Y0141454D01*
X0154028Y0140687D01*
X0153261Y0139919D01*
X0154028Y0139152D01*
X0154028Y0138385D01*
X0153261Y0137617D01*
X0151726Y0137617D01*
X0150959Y0138385D01*
X0152494Y0139919D02*
X0153261Y0139919D01*
X0150959Y0141454D02*
X0151726Y0142221D01*
X0187093Y0103461D02*
X0187093Y0099625D01*
X0187860Y0098857D01*
X0189395Y0098857D01*
X0190162Y0099625D01*
X0190162Y0103461D01*
X0191697Y0102694D02*
X0192464Y0103461D01*
X0193999Y0103461D01*
X0194766Y0102694D01*
X0193999Y0101159D02*
X0192464Y0101159D01*
X0191697Y0101927D01*
X0191697Y0102694D01*
X0193231Y0104229D02*
X0193231Y0098090D01*
X0192464Y0098857D02*
X0193999Y0098857D01*
X0194766Y0099625D01*
X0194766Y0100392D01*
X0193999Y0101159D01*
X0196301Y0101159D02*
X0198603Y0101159D01*
X0199370Y0100392D01*
X0199370Y0099625D01*
X0198603Y0098857D01*
X0197068Y0098857D01*
X0196301Y0099625D01*
X0196301Y0101159D01*
X0197835Y0102694D01*
X0199370Y0103461D01*
X0192464Y0098857D02*
X0191697Y0099625D01*
X0226966Y0080220D02*
X0226966Y0077885D01*
X0227550Y0076629D02*
X0226966Y0076045D01*
X0226966Y0074877D01*
X0227550Y0074293D01*
X0227550Y0073038D02*
X0228718Y0073038D01*
X0229302Y0072454D01*
X0229302Y0070702D01*
X0230469Y0070702D02*
X0226966Y0070702D01*
X0226966Y0072454D01*
X0227550Y0073038D01*
X0229302Y0071870D02*
X0230469Y0073038D01*
X0230469Y0074293D02*
X0228134Y0076629D01*
X0227550Y0076629D01*
X0229885Y0077885D02*
X0230469Y0077885D01*
X0229885Y0077885D02*
X0227550Y0080220D01*
X0226966Y0080220D01*
X0230469Y0076629D02*
X0230469Y0074293D01*
X0236021Y0074484D02*
X0236605Y0073900D01*
X0236021Y0074484D02*
X0236021Y0075651D01*
X0236605Y0076235D01*
X0237189Y0076235D01*
X0239524Y0073900D01*
X0239524Y0076235D01*
X0238941Y0077491D02*
X0239524Y0078075D01*
X0239524Y0079242D01*
X0238941Y0079826D01*
X0237773Y0079826D01*
X0237189Y0079242D01*
X0237189Y0078658D01*
X0237773Y0077491D01*
X0236021Y0077491D01*
X0236021Y0079826D01*
X0236605Y0072644D02*
X0237773Y0072644D01*
X0238357Y0072060D01*
X0238357Y0070309D01*
X0238357Y0071476D02*
X0239524Y0072644D01*
X0239524Y0070309D02*
X0236021Y0070309D01*
X0236021Y0072060D01*
X0236605Y0072644D01*
X0334535Y0006610D02*
X0335736Y0006610D01*
X0335136Y0006610D02*
X0335136Y0003607D01*
X0334535Y0003007D01*
X0333935Y0003007D01*
X0333334Y0003607D01*
X0337017Y0003007D02*
X0339419Y0005409D01*
X0339419Y0006009D01*
X0338819Y0006610D01*
X0337618Y0006610D01*
X0337017Y0006009D01*
X0337017Y0003007D02*
X0339419Y0003007D01*
D16*
X0238598Y0088872D03*
X0229543Y0088872D03*
X0229543Y0110372D03*
X0238598Y0110372D03*
X0147654Y0088719D03*
X0138205Y0088719D03*
X0128756Y0088719D03*
X0119307Y0088719D03*
X0119307Y0067219D03*
X0128756Y0067219D03*
X0138205Y0067219D03*
X0147654Y0067219D03*
X0031906Y0163675D03*
X0031906Y0185175D03*
D17*
X0054226Y0227969D03*
X0075726Y0227969D03*
X0063128Y0042535D03*
X0041628Y0042535D03*
D18*
X0072156Y0030266D02*
X0071436Y0029726D01*
X0071437Y0029727D02*
X0071256Y0029960D01*
X0071070Y0030188D01*
X0070878Y0030412D01*
X0070681Y0030631D01*
X0070479Y0030845D01*
X0070271Y0031054D01*
X0070058Y0031257D01*
X0069841Y0031456D01*
X0069618Y0031649D01*
X0069391Y0031837D01*
X0069160Y0032019D01*
X0068924Y0032196D01*
X0068683Y0032366D01*
X0068439Y0032531D01*
X0068191Y0032689D01*
X0067939Y0032842D01*
X0067683Y0032988D01*
X0067424Y0033128D01*
X0067161Y0033262D01*
X0066896Y0033389D01*
X0066627Y0033510D01*
X0066355Y0033624D01*
X0066081Y0033731D01*
X0065804Y0033832D01*
X0065525Y0033926D01*
X0065243Y0034013D01*
X0064960Y0034093D01*
X0064674Y0034166D01*
X0064387Y0034232D01*
X0064098Y0034291D01*
X0063808Y0034343D01*
X0063517Y0034388D01*
X0063225Y0034426D01*
X0062932Y0034456D01*
X0062638Y0034480D01*
X0062344Y0034496D01*
X0062050Y0034505D01*
X0061755Y0034507D01*
X0061460Y0034501D01*
X0061166Y0034489D01*
X0060872Y0034469D01*
X0060579Y0034442D01*
X0060286Y0034408D01*
X0059994Y0034367D01*
X0059704Y0034318D01*
X0059414Y0034263D01*
X0059127Y0034201D01*
X0058840Y0034131D01*
X0058556Y0034054D01*
X0058273Y0033971D01*
X0057993Y0033881D01*
X0057715Y0033784D01*
X0057439Y0033680D01*
X0057166Y0033569D01*
X0056896Y0033452D01*
X0056628Y0033328D01*
X0056364Y0033198D01*
X0056103Y0033061D01*
X0055846Y0032918D01*
X0055592Y0032768D01*
X0055341Y0032613D01*
X0055095Y0032451D01*
X0054853Y0032284D01*
X0054615Y0032110D01*
X0054381Y0031931D01*
X0054151Y0031746D01*
X0053927Y0031556D01*
X0053706Y0031360D01*
X0053491Y0031159D01*
X0053281Y0030952D01*
X0053076Y0030741D01*
X0052876Y0030524D01*
X0052681Y0030303D01*
X0052492Y0030077D01*
X0052309Y0029847D01*
X0052131Y0029612D01*
X0051959Y0029372D01*
X0051793Y0029129D01*
X0051633Y0028882D01*
X0051479Y0028631D01*
X0051331Y0028376D01*
X0051189Y0028117D01*
X0051054Y0027856D01*
X0050925Y0027591D01*
X0050803Y0027323D01*
X0050687Y0027052D01*
X0050578Y0026778D01*
X0050476Y0026502D01*
X0050381Y0026223D01*
X0050292Y0025942D01*
X0050210Y0025659D01*
X0050135Y0025374D01*
X0050068Y0025087D01*
X0050007Y0024799D01*
X0049953Y0024509D01*
X0049906Y0024218D01*
X0049867Y0023926D01*
X0049835Y0023634D01*
X0049809Y0023340D01*
X0049791Y0023046D01*
X0049781Y0022752D01*
X0049777Y0022457D01*
X0049781Y0022162D01*
X0049791Y0021868D01*
X0049809Y0021574D01*
X0049835Y0021280D01*
X0049867Y0020988D01*
X0049906Y0020696D01*
X0049953Y0020405D01*
X0050007Y0020115D01*
X0050068Y0019827D01*
X0050135Y0019540D01*
X0050210Y0019255D01*
X0050292Y0018972D01*
X0050381Y0018691D01*
X0050476Y0018412D01*
X0050578Y0018136D01*
X0050687Y0017862D01*
X0050803Y0017591D01*
X0050925Y0017323D01*
X0051054Y0017058D01*
X0051189Y0016797D01*
X0051331Y0016538D01*
X0051479Y0016283D01*
X0051633Y0016032D01*
X0051793Y0015785D01*
X0051959Y0015542D01*
X0052131Y0015302D01*
X0052309Y0015067D01*
X0052492Y0014837D01*
X0052681Y0014611D01*
X0052876Y0014390D01*
X0053076Y0014173D01*
X0053281Y0013962D01*
X0053491Y0013755D01*
X0053706Y0013554D01*
X0053927Y0013358D01*
X0054151Y0013168D01*
X0054381Y0012983D01*
X0054615Y0012804D01*
X0054853Y0012630D01*
X0055095Y0012463D01*
X0055341Y0012301D01*
X0055592Y0012146D01*
X0055846Y0011996D01*
X0056103Y0011853D01*
X0056364Y0011716D01*
X0056628Y0011586D01*
X0056896Y0011462D01*
X0057166Y0011345D01*
X0057439Y0011234D01*
X0057715Y0011130D01*
X0057993Y0011033D01*
X0058273Y0010943D01*
X0058556Y0010860D01*
X0058840Y0010783D01*
X0059127Y0010713D01*
X0059414Y0010651D01*
X0059704Y0010596D01*
X0059994Y0010547D01*
X0060286Y0010506D01*
X0060579Y0010472D01*
X0060872Y0010445D01*
X0061166Y0010425D01*
X0061460Y0010413D01*
X0061755Y0010407D01*
X0062050Y0010409D01*
X0062344Y0010418D01*
X0062638Y0010434D01*
X0062932Y0010458D01*
X0063225Y0010488D01*
X0063517Y0010526D01*
X0063808Y0010571D01*
X0064098Y0010623D01*
X0064387Y0010682D01*
X0064674Y0010748D01*
X0064960Y0010821D01*
X0065243Y0010901D01*
X0065525Y0010988D01*
X0065804Y0011082D01*
X0066081Y0011183D01*
X0066355Y0011290D01*
X0066627Y0011404D01*
X0066896Y0011525D01*
X0067161Y0011652D01*
X0067424Y0011786D01*
X0067683Y0011926D01*
X0067939Y0012072D01*
X0068191Y0012225D01*
X0068439Y0012383D01*
X0068683Y0012548D01*
X0068924Y0012718D01*
X0069160Y0012895D01*
X0069391Y0013077D01*
X0069618Y0013265D01*
X0069841Y0013458D01*
X0070058Y0013657D01*
X0070271Y0013860D01*
X0070479Y0014069D01*
X0070681Y0014283D01*
X0070878Y0014502D01*
X0071070Y0014726D01*
X0071256Y0014954D01*
X0071437Y0015187D01*
X0072156Y0014648D01*
X0072157Y0014647D01*
X0071963Y0014397D01*
X0071763Y0014151D01*
X0071557Y0013911D01*
X0071345Y0013676D01*
X0071127Y0013446D01*
X0070904Y0013221D01*
X0070676Y0013002D01*
X0070442Y0012788D01*
X0070203Y0012580D01*
X0069959Y0012378D01*
X0069710Y0012183D01*
X0069456Y0011993D01*
X0069198Y0011810D01*
X0068936Y0011633D01*
X0068669Y0011462D01*
X0068398Y0011298D01*
X0068123Y0011141D01*
X0067845Y0010990D01*
X0067562Y0010846D01*
X0067277Y0010710D01*
X0066988Y0010580D01*
X0066696Y0010457D01*
X0066401Y0010342D01*
X0066104Y0010234D01*
X0065803Y0010133D01*
X0065501Y0010039D01*
X0065196Y0009953D01*
X0064889Y0009874D01*
X0064581Y0009803D01*
X0064271Y0009740D01*
X0063959Y0009684D01*
X0063646Y0009635D01*
X0063332Y0009595D01*
X0063017Y0009562D01*
X0062701Y0009537D01*
X0062385Y0009519D01*
X0062069Y0009509D01*
X0061752Y0009507D01*
X0061435Y0009513D01*
X0061119Y0009526D01*
X0060803Y0009548D01*
X0060488Y0009576D01*
X0060173Y0009613D01*
X0059860Y0009657D01*
X0059547Y0009709D01*
X0059236Y0009769D01*
X0058927Y0009836D01*
X0058619Y0009911D01*
X0058313Y0009993D01*
X0058010Y0010082D01*
X0057708Y0010179D01*
X0057409Y0010284D01*
X0057113Y0010396D01*
X0056819Y0010514D01*
X0056529Y0010640D01*
X0056242Y0010773D01*
X0055957Y0010914D01*
X0055677Y0011061D01*
X0055400Y0011214D01*
X0055127Y0011375D01*
X0054858Y0011542D01*
X0054593Y0011716D01*
X0054333Y0011896D01*
X0054077Y0012082D01*
X0053826Y0012275D01*
X0053579Y0012473D01*
X0053337Y0012678D01*
X0053101Y0012888D01*
X0052869Y0013105D01*
X0052644Y0013327D01*
X0052423Y0013554D01*
X0052208Y0013786D01*
X0051999Y0014024D01*
X0051796Y0014267D01*
X0051598Y0014515D01*
X0051407Y0014767D01*
X0051222Y0015024D01*
X0051044Y0015286D01*
X0050872Y0015552D01*
X0050706Y0015821D01*
X0050547Y0016095D01*
X0050395Y0016373D01*
X0050250Y0016654D01*
X0050111Y0016939D01*
X0049980Y0017227D01*
X0049856Y0017519D01*
X0049738Y0017813D01*
X0049628Y0018110D01*
X0049526Y0018409D01*
X0049431Y0018711D01*
X0049343Y0019015D01*
X0049262Y0019322D01*
X0049189Y0019630D01*
X0049124Y0019940D01*
X0049066Y0020251D01*
X0049016Y0020564D01*
X0048974Y0020878D01*
X0048939Y0021192D01*
X0048912Y0021508D01*
X0048892Y0021824D01*
X0048881Y0022140D01*
X0048877Y0022457D01*
X0048881Y0022774D01*
X0048892Y0023090D01*
X0048912Y0023406D01*
X0048939Y0023722D01*
X0048974Y0024036D01*
X0049016Y0024350D01*
X0049066Y0024663D01*
X0049124Y0024974D01*
X0049189Y0025284D01*
X0049262Y0025592D01*
X0049343Y0025899D01*
X0049431Y0026203D01*
X0049526Y0026505D01*
X0049628Y0026804D01*
X0049738Y0027101D01*
X0049856Y0027395D01*
X0049980Y0027687D01*
X0050111Y0027975D01*
X0050250Y0028260D01*
X0050395Y0028541D01*
X0050547Y0028819D01*
X0050706Y0029093D01*
X0050872Y0029362D01*
X0051044Y0029628D01*
X0051222Y0029890D01*
X0051407Y0030147D01*
X0051598Y0030399D01*
X0051796Y0030647D01*
X0051999Y0030890D01*
X0052208Y0031128D01*
X0052423Y0031360D01*
X0052644Y0031587D01*
X0052869Y0031809D01*
X0053101Y0032026D01*
X0053337Y0032236D01*
X0053579Y0032441D01*
X0053826Y0032639D01*
X0054077Y0032832D01*
X0054333Y0033018D01*
X0054593Y0033198D01*
X0054858Y0033372D01*
X0055127Y0033539D01*
X0055400Y0033700D01*
X0055677Y0033853D01*
X0055957Y0034000D01*
X0056242Y0034141D01*
X0056529Y0034274D01*
X0056819Y0034400D01*
X0057113Y0034518D01*
X0057409Y0034630D01*
X0057708Y0034735D01*
X0058010Y0034832D01*
X0058313Y0034921D01*
X0058619Y0035003D01*
X0058927Y0035078D01*
X0059236Y0035145D01*
X0059547Y0035205D01*
X0059860Y0035257D01*
X0060173Y0035301D01*
X0060488Y0035338D01*
X0060803Y0035366D01*
X0061119Y0035388D01*
X0061435Y0035401D01*
X0061752Y0035407D01*
X0062069Y0035405D01*
X0062385Y0035395D01*
X0062701Y0035377D01*
X0063017Y0035352D01*
X0063332Y0035319D01*
X0063646Y0035279D01*
X0063959Y0035230D01*
X0064271Y0035174D01*
X0064581Y0035111D01*
X0064889Y0035040D01*
X0065196Y0034961D01*
X0065501Y0034875D01*
X0065803Y0034781D01*
X0066104Y0034680D01*
X0066401Y0034572D01*
X0066696Y0034457D01*
X0066988Y0034334D01*
X0067277Y0034204D01*
X0067562Y0034068D01*
X0067845Y0033924D01*
X0068123Y0033773D01*
X0068398Y0033616D01*
X0068669Y0033452D01*
X0068936Y0033281D01*
X0069198Y0033104D01*
X0069456Y0032921D01*
X0069710Y0032731D01*
X0069959Y0032536D01*
X0070203Y0032334D01*
X0070442Y0032126D01*
X0070676Y0031912D01*
X0070904Y0031693D01*
X0071127Y0031468D01*
X0071345Y0031238D01*
X0071557Y0031003D01*
X0071763Y0030763D01*
X0071963Y0030517D01*
X0072157Y0030267D01*
X0072082Y0030211D01*
X0071889Y0030459D01*
X0071690Y0030703D01*
X0071486Y0030941D01*
X0071276Y0031175D01*
X0071060Y0031403D01*
X0070838Y0031626D01*
X0070611Y0031844D01*
X0070379Y0032056D01*
X0070142Y0032262D01*
X0069900Y0032463D01*
X0069652Y0032657D01*
X0069401Y0032845D01*
X0069144Y0033027D01*
X0068884Y0033203D01*
X0068619Y0033372D01*
X0068350Y0033535D01*
X0068077Y0033691D01*
X0067801Y0033841D01*
X0067521Y0033983D01*
X0067237Y0034119D01*
X0066950Y0034248D01*
X0066660Y0034370D01*
X0066368Y0034484D01*
X0066072Y0034592D01*
X0065774Y0034692D01*
X0065474Y0034785D01*
X0065171Y0034870D01*
X0064867Y0034948D01*
X0064561Y0035019D01*
X0064253Y0035082D01*
X0063943Y0035138D01*
X0063633Y0035186D01*
X0063321Y0035226D01*
X0063008Y0035259D01*
X0062695Y0035284D01*
X0062381Y0035301D01*
X0062067Y0035311D01*
X0061752Y0035313D01*
X0061438Y0035307D01*
X0061124Y0035294D01*
X0060810Y0035273D01*
X0060497Y0035244D01*
X0060185Y0035208D01*
X0059874Y0035164D01*
X0059564Y0035112D01*
X0059255Y0035053D01*
X0058948Y0034986D01*
X0058642Y0034912D01*
X0058339Y0034831D01*
X0058037Y0034742D01*
X0057738Y0034645D01*
X0057441Y0034542D01*
X0057147Y0034431D01*
X0056856Y0034313D01*
X0056567Y0034188D01*
X0056282Y0034056D01*
X0056000Y0033917D01*
X0055722Y0033771D01*
X0055447Y0033618D01*
X0055176Y0033459D01*
X0054909Y0033293D01*
X0054646Y0033120D01*
X0054387Y0032942D01*
X0054133Y0032757D01*
X0053884Y0032565D01*
X0053639Y0032368D01*
X0053399Y0032165D01*
X0053164Y0031956D01*
X0052934Y0031741D01*
X0052710Y0031521D01*
X0052491Y0031296D01*
X0052278Y0031065D01*
X0052070Y0030829D01*
X0051868Y0030587D01*
X0051673Y0030342D01*
X0051483Y0030091D01*
X0051299Y0029836D01*
X0051122Y0029576D01*
X0050951Y0029312D01*
X0050787Y0029044D01*
X0050629Y0028772D01*
X0050478Y0028497D01*
X0050334Y0028217D01*
X0050196Y0027935D01*
X0050066Y0027649D01*
X0049942Y0027360D01*
X0049826Y0027067D01*
X0049717Y0026773D01*
X0049615Y0026475D01*
X0049521Y0026176D01*
X0049433Y0025873D01*
X0049353Y0025569D01*
X0049281Y0025264D01*
X0049216Y0024956D01*
X0049159Y0024647D01*
X0049109Y0024336D01*
X0049067Y0024025D01*
X0049032Y0023712D01*
X0049006Y0023399D01*
X0048986Y0023085D01*
X0048975Y0022771D01*
X0048971Y0022457D01*
X0048975Y0022143D01*
X0048986Y0021829D01*
X0049006Y0021515D01*
X0049032Y0021202D01*
X0049067Y0020889D01*
X0049109Y0020578D01*
X0049159Y0020267D01*
X0049216Y0019958D01*
X0049281Y0019650D01*
X0049353Y0019345D01*
X0049433Y0019041D01*
X0049521Y0018738D01*
X0049615Y0018439D01*
X0049717Y0018141D01*
X0049826Y0017847D01*
X0049942Y0017554D01*
X0050066Y0017265D01*
X0050196Y0016979D01*
X0050334Y0016697D01*
X0050478Y0016417D01*
X0050629Y0016142D01*
X0050787Y0015870D01*
X0050951Y0015602D01*
X0051122Y0015338D01*
X0051299Y0015078D01*
X0051483Y0014823D01*
X0051673Y0014572D01*
X0051868Y0014327D01*
X0052070Y0014085D01*
X0052278Y0013849D01*
X0052491Y0013618D01*
X0052710Y0013393D01*
X0052934Y0013173D01*
X0053164Y0012958D01*
X0053399Y0012749D01*
X0053639Y0012546D01*
X0053884Y0012349D01*
X0054133Y0012157D01*
X0054387Y0011972D01*
X0054646Y0011794D01*
X0054909Y0011621D01*
X0055176Y0011455D01*
X0055447Y0011296D01*
X0055722Y0011143D01*
X0056000Y0010997D01*
X0056282Y0010858D01*
X0056567Y0010726D01*
X0056856Y0010601D01*
X0057147Y0010483D01*
X0057441Y0010372D01*
X0057738Y0010269D01*
X0058037Y0010172D01*
X0058339Y0010083D01*
X0058642Y0010002D01*
X0058948Y0009928D01*
X0059255Y0009861D01*
X0059564Y0009802D01*
X0059874Y0009750D01*
X0060185Y0009706D01*
X0060497Y0009670D01*
X0060810Y0009641D01*
X0061124Y0009620D01*
X0061438Y0009607D01*
X0061752Y0009601D01*
X0062067Y0009603D01*
X0062381Y0009613D01*
X0062695Y0009630D01*
X0063008Y0009655D01*
X0063321Y0009688D01*
X0063633Y0009728D01*
X0063943Y0009776D01*
X0064253Y0009832D01*
X0064561Y0009895D01*
X0064867Y0009966D01*
X0065171Y0010044D01*
X0065474Y0010129D01*
X0065774Y0010222D01*
X0066072Y0010322D01*
X0066368Y0010430D01*
X0066660Y0010544D01*
X0066950Y0010666D01*
X0067237Y0010795D01*
X0067521Y0010931D01*
X0067801Y0011073D01*
X0068077Y0011223D01*
X0068350Y0011379D01*
X0068619Y0011542D01*
X0068884Y0011711D01*
X0069144Y0011887D01*
X0069401Y0012069D01*
X0069652Y0012257D01*
X0069900Y0012451D01*
X0070142Y0012652D01*
X0070379Y0012858D01*
X0070611Y0013070D01*
X0070838Y0013288D01*
X0071060Y0013511D01*
X0071276Y0013739D01*
X0071486Y0013973D01*
X0071690Y0014211D01*
X0071889Y0014455D01*
X0072082Y0014703D01*
X0072007Y0014760D01*
X0071815Y0014513D01*
X0071618Y0014271D01*
X0071415Y0014034D01*
X0071206Y0013803D01*
X0070992Y0013576D01*
X0070772Y0013354D01*
X0070547Y0013138D01*
X0070316Y0012928D01*
X0070081Y0012723D01*
X0069840Y0012524D01*
X0069595Y0012331D01*
X0069345Y0012145D01*
X0069091Y0011964D01*
X0068832Y0011789D01*
X0068569Y0011621D01*
X0068302Y0011460D01*
X0068031Y0011305D01*
X0067757Y0011156D01*
X0067479Y0011015D01*
X0067197Y0010880D01*
X0066913Y0010752D01*
X0066625Y0010631D01*
X0066334Y0010517D01*
X0066041Y0010411D01*
X0065745Y0010311D01*
X0065447Y0010219D01*
X0065147Y0010134D01*
X0064844Y0010057D01*
X0064540Y0009987D01*
X0064235Y0009924D01*
X0063928Y0009869D01*
X0063619Y0009821D01*
X0063310Y0009781D01*
X0062999Y0009749D01*
X0062688Y0009724D01*
X0062377Y0009707D01*
X0062065Y0009697D01*
X0061753Y0009695D01*
X0061441Y0009701D01*
X0061129Y0009714D01*
X0060818Y0009735D01*
X0060507Y0009763D01*
X0060197Y0009800D01*
X0059888Y0009843D01*
X0059580Y0009894D01*
X0059273Y0009953D01*
X0058969Y0010019D01*
X0058665Y0010093D01*
X0058364Y0010174D01*
X0058065Y0010262D01*
X0057768Y0010358D01*
X0057473Y0010461D01*
X0057181Y0010571D01*
X0056892Y0010688D01*
X0056605Y0010812D01*
X0056322Y0010943D01*
X0056042Y0011081D01*
X0055766Y0011226D01*
X0055493Y0011378D01*
X0055224Y0011536D01*
X0054959Y0011701D01*
X0054698Y0011872D01*
X0054442Y0012049D01*
X0054189Y0012233D01*
X0053942Y0012423D01*
X0053699Y0012618D01*
X0053460Y0012820D01*
X0053227Y0013028D01*
X0052999Y0013241D01*
X0052777Y0013459D01*
X0052559Y0013683D01*
X0052348Y0013912D01*
X0052142Y0014147D01*
X0051941Y0014386D01*
X0051747Y0014630D01*
X0051559Y0014879D01*
X0051376Y0015132D01*
X0051200Y0015390D01*
X0051031Y0015652D01*
X0050868Y0015918D01*
X0050711Y0016188D01*
X0050561Y0016462D01*
X0050418Y0016739D01*
X0050281Y0017019D01*
X0050152Y0017303D01*
X0050029Y0017590D01*
X0049914Y0017880D01*
X0049806Y0018173D01*
X0049704Y0018468D01*
X0049610Y0018766D01*
X0049524Y0019066D01*
X0049445Y0019367D01*
X0049373Y0019671D01*
X0049308Y0019976D01*
X0049251Y0020283D01*
X0049202Y0020591D01*
X0049160Y0020901D01*
X0049126Y0021211D01*
X0049099Y0021522D01*
X0049080Y0021833D01*
X0049069Y0022145D01*
X0049065Y0022457D01*
X0049069Y0022769D01*
X0049080Y0023081D01*
X0049099Y0023392D01*
X0049126Y0023703D01*
X0049160Y0024013D01*
X0049202Y0024323D01*
X0049251Y0024631D01*
X0049308Y0024938D01*
X0049373Y0025243D01*
X0049445Y0025547D01*
X0049524Y0025848D01*
X0049610Y0026148D01*
X0049704Y0026446D01*
X0049806Y0026741D01*
X0049914Y0027034D01*
X0050029Y0027324D01*
X0050152Y0027611D01*
X0050281Y0027895D01*
X0050418Y0028175D01*
X0050561Y0028452D01*
X0050711Y0028726D01*
X0050868Y0028996D01*
X0051031Y0029262D01*
X0051200Y0029524D01*
X0051376Y0029782D01*
X0051559Y0030035D01*
X0051747Y0030284D01*
X0051941Y0030528D01*
X0052142Y0030767D01*
X0052348Y0031002D01*
X0052559Y0031231D01*
X0052777Y0031455D01*
X0052999Y0031673D01*
X0053227Y0031886D01*
X0053460Y0032094D01*
X0053699Y0032296D01*
X0053942Y0032491D01*
X0054189Y0032681D01*
X0054442Y0032865D01*
X0054698Y0033042D01*
X0054959Y0033213D01*
X0055224Y0033378D01*
X0055493Y0033536D01*
X0055766Y0033688D01*
X0056042Y0033833D01*
X0056322Y0033971D01*
X0056605Y0034102D01*
X0056892Y0034226D01*
X0057181Y0034343D01*
X0057473Y0034453D01*
X0057768Y0034556D01*
X0058065Y0034652D01*
X0058364Y0034740D01*
X0058665Y0034821D01*
X0058969Y0034895D01*
X0059273Y0034961D01*
X0059580Y0035020D01*
X0059888Y0035071D01*
X0060197Y0035114D01*
X0060507Y0035151D01*
X0060818Y0035179D01*
X0061129Y0035200D01*
X0061441Y0035213D01*
X0061753Y0035219D01*
X0062065Y0035217D01*
X0062377Y0035207D01*
X0062688Y0035190D01*
X0062999Y0035165D01*
X0063310Y0035133D01*
X0063619Y0035093D01*
X0063928Y0035045D01*
X0064235Y0034990D01*
X0064540Y0034927D01*
X0064844Y0034857D01*
X0065147Y0034780D01*
X0065447Y0034695D01*
X0065745Y0034603D01*
X0066041Y0034503D01*
X0066334Y0034397D01*
X0066625Y0034283D01*
X0066913Y0034162D01*
X0067197Y0034034D01*
X0067479Y0033899D01*
X0067757Y0033758D01*
X0068031Y0033609D01*
X0068302Y0033454D01*
X0068569Y0033293D01*
X0068832Y0033125D01*
X0069091Y0032950D01*
X0069345Y0032769D01*
X0069595Y0032583D01*
X0069840Y0032390D01*
X0070081Y0032191D01*
X0070316Y0031986D01*
X0070547Y0031776D01*
X0070772Y0031560D01*
X0070992Y0031338D01*
X0071206Y0031111D01*
X0071415Y0030880D01*
X0071618Y0030643D01*
X0071815Y0030401D01*
X0072007Y0030154D01*
X0071931Y0030098D01*
X0071741Y0030343D01*
X0071546Y0030583D01*
X0071344Y0030818D01*
X0071137Y0031048D01*
X0070924Y0031273D01*
X0070706Y0031493D01*
X0070482Y0031707D01*
X0070253Y0031916D01*
X0070020Y0032119D01*
X0069781Y0032317D01*
X0069538Y0032508D01*
X0069289Y0032694D01*
X0069037Y0032873D01*
X0068780Y0033046D01*
X0068519Y0033213D01*
X0068254Y0033374D01*
X0067985Y0033527D01*
X0067713Y0033675D01*
X0067437Y0033815D01*
X0067157Y0033949D01*
X0066875Y0034076D01*
X0066589Y0034196D01*
X0066301Y0034309D01*
X0066010Y0034415D01*
X0065716Y0034513D01*
X0065420Y0034605D01*
X0065122Y0034689D01*
X0064822Y0034766D01*
X0064520Y0034835D01*
X0064217Y0034898D01*
X0063912Y0034952D01*
X0063606Y0035000D01*
X0063298Y0035039D01*
X0062990Y0035071D01*
X0062682Y0035096D01*
X0062372Y0035113D01*
X0062063Y0035123D01*
X0061753Y0035125D01*
X0061443Y0035119D01*
X0061134Y0035106D01*
X0060825Y0035085D01*
X0060516Y0035057D01*
X0060209Y0035021D01*
X0059902Y0034978D01*
X0059596Y0034927D01*
X0059292Y0034869D01*
X0058989Y0034803D01*
X0058688Y0034730D01*
X0058389Y0034650D01*
X0058092Y0034562D01*
X0057797Y0034467D01*
X0057505Y0034365D01*
X0057215Y0034256D01*
X0056928Y0034139D01*
X0056644Y0034016D01*
X0056363Y0033886D01*
X0056085Y0033749D01*
X0055811Y0033605D01*
X0055540Y0033455D01*
X0055273Y0033298D01*
X0055010Y0033134D01*
X0054751Y0032964D01*
X0054496Y0032788D01*
X0054245Y0032606D01*
X0054000Y0032417D01*
X0053758Y0032223D01*
X0053522Y0032023D01*
X0053291Y0031817D01*
X0053064Y0031605D01*
X0052843Y0031388D01*
X0052628Y0031166D01*
X0052417Y0030939D01*
X0052213Y0030706D01*
X0052014Y0030468D01*
X0051821Y0030226D01*
X0051634Y0029979D01*
X0051453Y0029728D01*
X0051279Y0029472D01*
X0051110Y0029212D01*
X0050948Y0028948D01*
X0050793Y0028680D01*
X0050644Y0028408D01*
X0050502Y0028133D01*
X0050366Y0027854D01*
X0050238Y0027573D01*
X0050116Y0027288D01*
X0050002Y0027000D01*
X0049894Y0026709D01*
X0049794Y0026416D01*
X0049700Y0026121D01*
X0049614Y0025823D01*
X0049536Y0025524D01*
X0049465Y0025222D01*
X0049401Y0024919D01*
X0049344Y0024615D01*
X0049295Y0024309D01*
X0049254Y0024002D01*
X0049220Y0023694D01*
X0049193Y0023385D01*
X0049174Y0023076D01*
X0049163Y0022767D01*
X0049159Y0022457D01*
X0049163Y0022147D01*
X0049174Y0021838D01*
X0049193Y0021529D01*
X0049220Y0021220D01*
X0049254Y0020912D01*
X0049295Y0020605D01*
X0049344Y0020299D01*
X0049401Y0019995D01*
X0049465Y0019692D01*
X0049536Y0019390D01*
X0049614Y0019091D01*
X0049700Y0018793D01*
X0049794Y0018498D01*
X0049894Y0018205D01*
X0050002Y0017914D01*
X0050116Y0017626D01*
X0050238Y0017341D01*
X0050366Y0017060D01*
X0050502Y0016781D01*
X0050644Y0016506D01*
X0050793Y0016234D01*
X0050948Y0015966D01*
X0051110Y0015702D01*
X0051279Y0015442D01*
X0051453Y0015186D01*
X0051634Y0014935D01*
X0051821Y0014688D01*
X0052014Y0014446D01*
X0052213Y0014208D01*
X0052417Y0013975D01*
X0052628Y0013748D01*
X0052843Y0013526D01*
X0053064Y0013309D01*
X0053291Y0013097D01*
X0053522Y0012891D01*
X0053758Y0012691D01*
X0054000Y0012497D01*
X0054245Y0012308D01*
X0054496Y0012126D01*
X0054751Y0011950D01*
X0055010Y0011780D01*
X0055273Y0011616D01*
X0055540Y0011459D01*
X0055811Y0011309D01*
X0056085Y0011165D01*
X0056363Y0011028D01*
X0056644Y0010898D01*
X0056928Y0010775D01*
X0057215Y0010658D01*
X0057505Y0010549D01*
X0057797Y0010447D01*
X0058092Y0010352D01*
X0058389Y0010264D01*
X0058688Y0010184D01*
X0058989Y0010111D01*
X0059292Y0010045D01*
X0059596Y0009987D01*
X0059902Y0009936D01*
X0060209Y0009893D01*
X0060516Y0009857D01*
X0060825Y0009829D01*
X0061134Y0009808D01*
X0061443Y0009795D01*
X0061753Y0009789D01*
X0062063Y0009791D01*
X0062372Y0009801D01*
X0062682Y0009818D01*
X0062990Y0009843D01*
X0063298Y0009875D01*
X0063606Y0009914D01*
X0063912Y0009962D01*
X0064217Y0010016D01*
X0064520Y0010079D01*
X0064822Y0010148D01*
X0065122Y0010225D01*
X0065420Y0010309D01*
X0065716Y0010401D01*
X0066010Y0010499D01*
X0066301Y0010605D01*
X0066589Y0010718D01*
X0066875Y0010838D01*
X0067157Y0010965D01*
X0067437Y0011099D01*
X0067713Y0011239D01*
X0067985Y0011387D01*
X0068254Y0011540D01*
X0068519Y0011701D01*
X0068780Y0011868D01*
X0069037Y0012041D01*
X0069289Y0012220D01*
X0069538Y0012406D01*
X0069781Y0012597D01*
X0070020Y0012795D01*
X0070253Y0012998D01*
X0070482Y0013207D01*
X0070706Y0013421D01*
X0070924Y0013641D01*
X0071137Y0013866D01*
X0071344Y0014096D01*
X0071546Y0014331D01*
X0071741Y0014571D01*
X0071931Y0014816D01*
X0071856Y0014873D01*
X0071668Y0014630D01*
X0071473Y0014391D01*
X0071273Y0014158D01*
X0071068Y0013930D01*
X0070856Y0013706D01*
X0070640Y0013488D01*
X0070418Y0013275D01*
X0070191Y0013068D01*
X0069959Y0012866D01*
X0069722Y0012670D01*
X0069480Y0012480D01*
X0069234Y0012296D01*
X0068983Y0012118D01*
X0068728Y0011946D01*
X0068469Y0011781D01*
X0068206Y0011621D01*
X0067939Y0011469D01*
X0067669Y0011322D01*
X0067395Y0011183D01*
X0067118Y0011050D01*
X0066837Y0010924D01*
X0066554Y0010805D01*
X0066267Y0010693D01*
X0065978Y0010588D01*
X0065687Y0010490D01*
X0065393Y0010399D01*
X0065097Y0010316D01*
X0064800Y0010239D01*
X0064500Y0010170D01*
X0064199Y0010109D01*
X0063896Y0010054D01*
X0063592Y0010008D01*
X0063287Y0009968D01*
X0062982Y0009936D01*
X0062675Y0009912D01*
X0062368Y0009895D01*
X0062061Y0009885D01*
X0061753Y0009883D01*
X0061446Y0009889D01*
X0061139Y0009902D01*
X0060832Y0009922D01*
X0060526Y0009951D01*
X0060220Y0009986D01*
X0059916Y0010029D01*
X0059613Y0010080D01*
X0059311Y0010137D01*
X0059010Y0010203D01*
X0058711Y0010275D01*
X0058415Y0010355D01*
X0058120Y0010442D01*
X0057827Y0010536D01*
X0057537Y0010638D01*
X0057249Y0010746D01*
X0056964Y0010861D01*
X0056682Y0010984D01*
X0056403Y0011113D01*
X0056127Y0011249D01*
X0055855Y0011392D01*
X0055586Y0011541D01*
X0055321Y0011697D01*
X0055060Y0011859D01*
X0054803Y0012028D01*
X0054550Y0012203D01*
X0054302Y0012384D01*
X0054058Y0012571D01*
X0053818Y0012764D01*
X0053584Y0012962D01*
X0053354Y0013167D01*
X0053129Y0013377D01*
X0052910Y0013592D01*
X0052696Y0013813D01*
X0052487Y0014038D01*
X0052284Y0014269D01*
X0052087Y0014505D01*
X0051895Y0014746D01*
X0051710Y0014991D01*
X0051530Y0015240D01*
X0051357Y0015494D01*
X0051190Y0015752D01*
X0051029Y0016014D01*
X0050875Y0016280D01*
X0050727Y0016550D01*
X0050586Y0016823D01*
X0050451Y0017100D01*
X0050324Y0017379D01*
X0050203Y0017662D01*
X0050089Y0017948D01*
X0049983Y0018236D01*
X0049883Y0018527D01*
X0049790Y0018820D01*
X0049705Y0019116D01*
X0049627Y0019413D01*
X0049556Y0019712D01*
X0049493Y0020013D01*
X0049437Y0020315D01*
X0049388Y0020619D01*
X0049347Y0020924D01*
X0049313Y0021229D01*
X0049287Y0021535D01*
X0049268Y0021842D01*
X0049257Y0022150D01*
X0049253Y0022457D01*
X0049257Y0022764D01*
X0049268Y0023072D01*
X0049287Y0023379D01*
X0049313Y0023685D01*
X0049347Y0023990D01*
X0049388Y0024295D01*
X0049437Y0024599D01*
X0049493Y0024901D01*
X0049556Y0025202D01*
X0049627Y0025501D01*
X0049705Y0025798D01*
X0049790Y0026094D01*
X0049883Y0026387D01*
X0049983Y0026678D01*
X0050089Y0026966D01*
X0050203Y0027252D01*
X0050324Y0027535D01*
X0050451Y0027814D01*
X0050586Y0028091D01*
X0050727Y0028364D01*
X0050875Y0028634D01*
X0051029Y0028900D01*
X0051190Y0029162D01*
X0051357Y0029420D01*
X0051530Y0029674D01*
X0051710Y0029923D01*
X0051895Y0030168D01*
X0052087Y0030409D01*
X0052284Y0030645D01*
X0052487Y0030876D01*
X0052696Y0031101D01*
X0052910Y0031322D01*
X0053129Y0031537D01*
X0053354Y0031747D01*
X0053584Y0031952D01*
X0053818Y0032150D01*
X0054058Y0032343D01*
X0054302Y0032530D01*
X0054550Y0032711D01*
X0054803Y0032886D01*
X0055060Y0033055D01*
X0055321Y0033217D01*
X0055586Y0033373D01*
X0055855Y0033522D01*
X0056127Y0033665D01*
X0056403Y0033801D01*
X0056682Y0033930D01*
X0056964Y0034053D01*
X0057249Y0034168D01*
X0057537Y0034276D01*
X0057827Y0034378D01*
X0058120Y0034472D01*
X0058415Y0034559D01*
X0058711Y0034639D01*
X0059010Y0034711D01*
X0059311Y0034777D01*
X0059613Y0034834D01*
X0059916Y0034885D01*
X0060220Y0034928D01*
X0060526Y0034963D01*
X0060832Y0034992D01*
X0061139Y0035012D01*
X0061446Y0035025D01*
X0061753Y0035031D01*
X0062061Y0035029D01*
X0062368Y0035019D01*
X0062675Y0035002D01*
X0062982Y0034978D01*
X0063287Y0034946D01*
X0063592Y0034906D01*
X0063896Y0034860D01*
X0064199Y0034805D01*
X0064500Y0034744D01*
X0064800Y0034675D01*
X0065097Y0034598D01*
X0065393Y0034515D01*
X0065687Y0034424D01*
X0065978Y0034326D01*
X0066267Y0034221D01*
X0066554Y0034109D01*
X0066837Y0033990D01*
X0067118Y0033864D01*
X0067395Y0033731D01*
X0067669Y0033592D01*
X0067939Y0033445D01*
X0068206Y0033293D01*
X0068469Y0033133D01*
X0068728Y0032968D01*
X0068983Y0032796D01*
X0069234Y0032618D01*
X0069480Y0032434D01*
X0069722Y0032244D01*
X0069959Y0032048D01*
X0070191Y0031846D01*
X0070418Y0031639D01*
X0070640Y0031426D01*
X0070856Y0031208D01*
X0071068Y0030984D01*
X0071273Y0030756D01*
X0071473Y0030523D01*
X0071668Y0030284D01*
X0071856Y0030041D01*
X0071781Y0029985D01*
X0071594Y0030226D01*
X0071401Y0030463D01*
X0071202Y0030694D01*
X0070998Y0030921D01*
X0070789Y0031143D01*
X0070574Y0031359D01*
X0070353Y0031570D01*
X0070128Y0031776D01*
X0069898Y0031976D01*
X0069662Y0032171D01*
X0069423Y0032359D01*
X0069178Y0032542D01*
X0068929Y0032719D01*
X0068676Y0032889D01*
X0068419Y0033054D01*
X0068158Y0033212D01*
X0067893Y0033363D01*
X0067625Y0033508D01*
X0067353Y0033647D01*
X0067078Y0033779D01*
X0066799Y0033904D01*
X0066518Y0034022D01*
X0066234Y0034133D01*
X0065947Y0034237D01*
X0065658Y0034335D01*
X0065366Y0034425D01*
X0065073Y0034508D01*
X0064777Y0034583D01*
X0064480Y0034652D01*
X0064181Y0034713D01*
X0063880Y0034767D01*
X0063579Y0034813D01*
X0063276Y0034853D01*
X0062973Y0034884D01*
X0062668Y0034909D01*
X0062364Y0034925D01*
X0062059Y0034935D01*
X0061754Y0034937D01*
X0061449Y0034931D01*
X0061144Y0034918D01*
X0060839Y0034898D01*
X0060535Y0034870D01*
X0060232Y0034835D01*
X0059930Y0034792D01*
X0059629Y0034742D01*
X0059329Y0034685D01*
X0059031Y0034620D01*
X0058735Y0034548D01*
X0058440Y0034469D01*
X0058147Y0034382D01*
X0057857Y0034289D01*
X0057569Y0034188D01*
X0057283Y0034080D01*
X0057000Y0033966D01*
X0056720Y0033844D01*
X0056443Y0033716D01*
X0056170Y0033581D01*
X0055900Y0033440D01*
X0055633Y0033291D01*
X0055370Y0033137D01*
X0055111Y0032976D01*
X0054855Y0032808D01*
X0054604Y0032635D01*
X0054358Y0032455D01*
X0054116Y0032269D01*
X0053878Y0032078D01*
X0053645Y0031881D01*
X0053417Y0031678D01*
X0053194Y0031469D01*
X0052976Y0031256D01*
X0052764Y0031037D01*
X0052557Y0030813D01*
X0052355Y0030583D01*
X0052159Y0030349D01*
X0051969Y0030111D01*
X0051785Y0029867D01*
X0051607Y0029620D01*
X0051435Y0029368D01*
X0051269Y0029111D01*
X0051110Y0028851D01*
X0050956Y0028587D01*
X0050810Y0028320D01*
X0050670Y0028049D01*
X0050536Y0027774D01*
X0050410Y0027497D01*
X0050290Y0027216D01*
X0050177Y0026932D01*
X0050071Y0026646D01*
X0049972Y0026358D01*
X0049880Y0026067D01*
X0049796Y0025773D01*
X0049718Y0025478D01*
X0049648Y0025181D01*
X0049585Y0024883D01*
X0049529Y0024583D01*
X0049481Y0024281D01*
X0049440Y0023979D01*
X0049407Y0023676D01*
X0049381Y0023372D01*
X0049362Y0023067D01*
X0049351Y0022762D01*
X0049347Y0022457D01*
X0049351Y0022152D01*
X0049362Y0021847D01*
X0049381Y0021542D01*
X0049407Y0021238D01*
X0049440Y0020935D01*
X0049481Y0020633D01*
X0049529Y0020331D01*
X0049585Y0020031D01*
X0049648Y0019733D01*
X0049718Y0019436D01*
X0049796Y0019141D01*
X0049880Y0018847D01*
X0049972Y0018556D01*
X0050071Y0018268D01*
X0050177Y0017982D01*
X0050290Y0017698D01*
X0050410Y0017417D01*
X0050536Y0017140D01*
X0050670Y0016865D01*
X0050810Y0016594D01*
X0050956Y0016327D01*
X0051110Y0016063D01*
X0051269Y0015803D01*
X0051435Y0015546D01*
X0051607Y0015294D01*
X0051785Y0015047D01*
X0051969Y0014803D01*
X0052159Y0014565D01*
X0052355Y0014331D01*
X0052557Y0014101D01*
X0052764Y0013877D01*
X0052976Y0013658D01*
X0053194Y0013445D01*
X0053417Y0013236D01*
X0053645Y0013033D01*
X0053878Y0012836D01*
X0054116Y0012645D01*
X0054358Y0012459D01*
X0054604Y0012279D01*
X0054855Y0012106D01*
X0055111Y0011938D01*
X0055370Y0011777D01*
X0055633Y0011623D01*
X0055900Y0011474D01*
X0056170Y0011333D01*
X0056443Y0011198D01*
X0056720Y0011070D01*
X0057000Y0010948D01*
X0057283Y0010834D01*
X0057569Y0010726D01*
X0057857Y0010625D01*
X0058147Y0010532D01*
X0058440Y0010445D01*
X0058735Y0010366D01*
X0059031Y0010294D01*
X0059329Y0010229D01*
X0059629Y0010172D01*
X0059930Y0010122D01*
X0060232Y0010079D01*
X0060535Y0010044D01*
X0060839Y0010016D01*
X0061144Y0009996D01*
X0061449Y0009983D01*
X0061754Y0009977D01*
X0062059Y0009979D01*
X0062364Y0009989D01*
X0062668Y0010005D01*
X0062973Y0010030D01*
X0063276Y0010061D01*
X0063579Y0010101D01*
X0063880Y0010147D01*
X0064181Y0010201D01*
X0064480Y0010262D01*
X0064777Y0010331D01*
X0065073Y0010406D01*
X0065366Y0010489D01*
X0065658Y0010579D01*
X0065947Y0010677D01*
X0066234Y0010781D01*
X0066518Y0010892D01*
X0066799Y0011010D01*
X0067078Y0011135D01*
X0067353Y0011267D01*
X0067625Y0011406D01*
X0067893Y0011551D01*
X0068158Y0011702D01*
X0068419Y0011860D01*
X0068676Y0012025D01*
X0068929Y0012195D01*
X0069178Y0012372D01*
X0069423Y0012555D01*
X0069662Y0012743D01*
X0069898Y0012938D01*
X0070128Y0013138D01*
X0070353Y0013344D01*
X0070574Y0013555D01*
X0070789Y0013771D01*
X0070998Y0013993D01*
X0071202Y0014220D01*
X0071401Y0014451D01*
X0071594Y0014688D01*
X0071781Y0014929D01*
X0071706Y0014985D01*
X0071520Y0014746D01*
X0071329Y0014511D01*
X0071132Y0014282D01*
X0070929Y0014057D01*
X0070721Y0013836D01*
X0070507Y0013622D01*
X0070289Y0013412D01*
X0070065Y0013208D01*
X0069837Y0013009D01*
X0069603Y0012816D01*
X0069365Y0012629D01*
X0069123Y0012448D01*
X0068876Y0012272D01*
X0068625Y0012103D01*
X0068369Y0011940D01*
X0068110Y0011783D01*
X0067847Y0011633D01*
X0067581Y0011489D01*
X0067311Y0011351D01*
X0067038Y0011220D01*
X0066762Y0011096D01*
X0066482Y0010979D01*
X0066200Y0010869D01*
X0065916Y0010765D01*
X0065629Y0010669D01*
X0065339Y0010579D01*
X0065048Y0010497D01*
X0064755Y0010422D01*
X0064459Y0010354D01*
X0064163Y0010293D01*
X0063865Y0010240D01*
X0063565Y0010194D01*
X0063265Y0010155D01*
X0062964Y0010123D01*
X0062662Y0010099D01*
X0062359Y0010082D01*
X0062057Y0010073D01*
X0061754Y0010071D01*
X0061451Y0010077D01*
X0061149Y0010090D01*
X0060846Y0010110D01*
X0060545Y0010138D01*
X0060244Y0010173D01*
X0059944Y0010215D01*
X0059645Y0010265D01*
X0059348Y0010322D01*
X0059052Y0010386D01*
X0058758Y0010457D01*
X0058465Y0010536D01*
X0058175Y0010622D01*
X0057886Y0010715D01*
X0057601Y0010814D01*
X0057317Y0010921D01*
X0057037Y0011035D01*
X0056759Y0011155D01*
X0056484Y0011283D01*
X0056212Y0011417D01*
X0055944Y0011557D01*
X0055679Y0011704D01*
X0055418Y0011858D01*
X0055161Y0012018D01*
X0054908Y0012184D01*
X0054659Y0012356D01*
X0054414Y0012534D01*
X0054173Y0012719D01*
X0053938Y0012909D01*
X0053707Y0013104D01*
X0053480Y0013306D01*
X0053259Y0013512D01*
X0053043Y0013725D01*
X0052832Y0013942D01*
X0052627Y0014164D01*
X0052427Y0014392D01*
X0052232Y0014624D01*
X0052044Y0014861D01*
X0051861Y0015103D01*
X0051684Y0015348D01*
X0051513Y0015599D01*
X0051349Y0015853D01*
X0051190Y0016111D01*
X0051038Y0016373D01*
X0050893Y0016638D01*
X0050754Y0016907D01*
X0050621Y0017180D01*
X0050496Y0017455D01*
X0050377Y0017734D01*
X0050265Y0018015D01*
X0050160Y0018299D01*
X0050061Y0018586D01*
X0049970Y0018875D01*
X0049886Y0019166D01*
X0049809Y0019459D01*
X0049740Y0019753D01*
X0049677Y0020050D01*
X0049622Y0020347D01*
X0049574Y0020646D01*
X0049533Y0020946D01*
X0049500Y0021248D01*
X0049474Y0021549D01*
X0049456Y0021852D01*
X0049445Y0022154D01*
X0049441Y0022457D01*
X0049445Y0022760D01*
X0049456Y0023062D01*
X0049474Y0023365D01*
X0049500Y0023666D01*
X0049533Y0023968D01*
X0049574Y0024268D01*
X0049622Y0024567D01*
X0049677Y0024864D01*
X0049740Y0025161D01*
X0049809Y0025455D01*
X0049886Y0025748D01*
X0049970Y0026039D01*
X0050061Y0026328D01*
X0050160Y0026615D01*
X0050265Y0026899D01*
X0050377Y0027180D01*
X0050496Y0027459D01*
X0050621Y0027734D01*
X0050754Y0028007D01*
X0050893Y0028276D01*
X0051038Y0028541D01*
X0051190Y0028803D01*
X0051349Y0029061D01*
X0051513Y0029315D01*
X0051684Y0029566D01*
X0051861Y0029811D01*
X0052044Y0030053D01*
X0052232Y0030290D01*
X0052427Y0030522D01*
X0052627Y0030750D01*
X0052832Y0030972D01*
X0053043Y0031189D01*
X0053259Y0031402D01*
X0053480Y0031608D01*
X0053707Y0031810D01*
X0053938Y0032005D01*
X0054173Y0032195D01*
X0054414Y0032380D01*
X0054659Y0032558D01*
X0054908Y0032730D01*
X0055161Y0032896D01*
X0055418Y0033056D01*
X0055679Y0033210D01*
X0055944Y0033357D01*
X0056212Y0033497D01*
X0056484Y0033631D01*
X0056759Y0033759D01*
X0057037Y0033879D01*
X0057317Y0033993D01*
X0057601Y0034100D01*
X0057886Y0034199D01*
X0058175Y0034292D01*
X0058465Y0034378D01*
X0058758Y0034457D01*
X0059052Y0034528D01*
X0059348Y0034592D01*
X0059645Y0034649D01*
X0059944Y0034699D01*
X0060244Y0034741D01*
X0060545Y0034776D01*
X0060846Y0034804D01*
X0061149Y0034824D01*
X0061451Y0034837D01*
X0061754Y0034843D01*
X0062057Y0034841D01*
X0062359Y0034832D01*
X0062662Y0034815D01*
X0062964Y0034791D01*
X0063265Y0034759D01*
X0063565Y0034720D01*
X0063865Y0034674D01*
X0064163Y0034621D01*
X0064459Y0034560D01*
X0064755Y0034492D01*
X0065048Y0034417D01*
X0065339Y0034335D01*
X0065629Y0034245D01*
X0065916Y0034149D01*
X0066200Y0034045D01*
X0066482Y0033935D01*
X0066762Y0033818D01*
X0067038Y0033694D01*
X0067311Y0033563D01*
X0067581Y0033425D01*
X0067847Y0033281D01*
X0068110Y0033131D01*
X0068369Y0032974D01*
X0068625Y0032811D01*
X0068876Y0032642D01*
X0069123Y0032466D01*
X0069365Y0032285D01*
X0069603Y0032098D01*
X0069837Y0031905D01*
X0070065Y0031706D01*
X0070289Y0031502D01*
X0070507Y0031292D01*
X0070721Y0031078D01*
X0070929Y0030857D01*
X0071132Y0030632D01*
X0071329Y0030403D01*
X0071520Y0030168D01*
X0071706Y0029929D01*
X0071631Y0029872D01*
X0071446Y0030110D01*
X0071256Y0030342D01*
X0071061Y0030571D01*
X0070860Y0030794D01*
X0070653Y0031012D01*
X0070441Y0031226D01*
X0070224Y0031434D01*
X0070002Y0031636D01*
X0069775Y0031833D01*
X0069544Y0032025D01*
X0069308Y0032211D01*
X0069067Y0032391D01*
X0068822Y0032565D01*
X0068573Y0032733D01*
X0068319Y0032895D01*
X0068062Y0033050D01*
X0067801Y0033199D01*
X0067537Y0033342D01*
X0067269Y0033479D01*
X0066998Y0033608D01*
X0066724Y0033731D01*
X0066447Y0033848D01*
X0066167Y0033957D01*
X0065884Y0034060D01*
X0065600Y0034156D01*
X0065312Y0034244D01*
X0065023Y0034326D01*
X0064732Y0034401D01*
X0064439Y0034468D01*
X0064145Y0034529D01*
X0063849Y0034582D01*
X0063552Y0034627D01*
X0063254Y0034666D01*
X0062955Y0034697D01*
X0062655Y0034721D01*
X0062355Y0034738D01*
X0062055Y0034747D01*
X0061754Y0034749D01*
X0061454Y0034743D01*
X0061153Y0034731D01*
X0060854Y0034710D01*
X0060554Y0034683D01*
X0060256Y0034648D01*
X0059958Y0034606D01*
X0059662Y0034557D01*
X0059367Y0034500D01*
X0059073Y0034436D01*
X0058781Y0034366D01*
X0058491Y0034288D01*
X0058202Y0034202D01*
X0057916Y0034110D01*
X0057632Y0034011D01*
X0057351Y0033905D01*
X0057073Y0033792D01*
X0056797Y0033673D01*
X0056524Y0033546D01*
X0056255Y0033413D01*
X0055989Y0033274D01*
X0055726Y0033128D01*
X0055467Y0032976D01*
X0055211Y0032817D01*
X0054960Y0032652D01*
X0054713Y0032481D01*
X0054470Y0032304D01*
X0054231Y0032121D01*
X0053997Y0031933D01*
X0053768Y0031739D01*
X0053544Y0031539D01*
X0053324Y0031334D01*
X0053110Y0031123D01*
X0052900Y0030907D01*
X0052696Y0030687D01*
X0052498Y0030461D01*
X0052305Y0030230D01*
X0052118Y0029995D01*
X0051936Y0029756D01*
X0051761Y0029512D01*
X0051591Y0029263D01*
X0051428Y0029011D01*
X0051271Y0028755D01*
X0051120Y0028495D01*
X0050976Y0028231D01*
X0050838Y0027964D01*
X0050706Y0027694D01*
X0050582Y0027421D01*
X0050464Y0027144D01*
X0050353Y0026865D01*
X0050248Y0026583D01*
X0050151Y0026299D01*
X0050060Y0026012D01*
X0049977Y0025723D01*
X0049901Y0025433D01*
X0049831Y0025140D01*
X0049769Y0024846D01*
X0049715Y0024551D01*
X0049667Y0024254D01*
X0049627Y0023956D01*
X0049594Y0023657D01*
X0049568Y0023358D01*
X0049550Y0023058D01*
X0049539Y0022758D01*
X0049535Y0022457D01*
X0049539Y0022156D01*
X0049550Y0021856D01*
X0049568Y0021556D01*
X0049594Y0021257D01*
X0049627Y0020958D01*
X0049667Y0020660D01*
X0049715Y0020363D01*
X0049769Y0020068D01*
X0049831Y0019774D01*
X0049901Y0019481D01*
X0049977Y0019191D01*
X0050060Y0018902D01*
X0050151Y0018615D01*
X0050248Y0018331D01*
X0050353Y0018049D01*
X0050464Y0017770D01*
X0050582Y0017493D01*
X0050706Y0017220D01*
X0050838Y0016950D01*
X0050976Y0016683D01*
X0051120Y0016419D01*
X0051271Y0016159D01*
X0051428Y0015903D01*
X0051591Y0015651D01*
X0051761Y0015402D01*
X0051936Y0015158D01*
X0052118Y0014919D01*
X0052305Y0014684D01*
X0052498Y0014453D01*
X0052696Y0014227D01*
X0052900Y0014007D01*
X0053110Y0013791D01*
X0053324Y0013580D01*
X0053544Y0013375D01*
X0053768Y0013175D01*
X0053997Y0012981D01*
X0054231Y0012793D01*
X0054470Y0012610D01*
X0054713Y0012433D01*
X0054960Y0012262D01*
X0055211Y0012097D01*
X0055467Y0011938D01*
X0055726Y0011786D01*
X0055989Y0011640D01*
X0056255Y0011501D01*
X0056524Y0011368D01*
X0056797Y0011241D01*
X0057073Y0011122D01*
X0057351Y0011009D01*
X0057632Y0010903D01*
X0057916Y0010804D01*
X0058202Y0010712D01*
X0058491Y0010626D01*
X0058781Y0010548D01*
X0059073Y0010478D01*
X0059367Y0010414D01*
X0059662Y0010357D01*
X0059958Y0010308D01*
X0060256Y0010266D01*
X0060554Y0010231D01*
X0060854Y0010204D01*
X0061153Y0010183D01*
X0061454Y0010171D01*
X0061754Y0010165D01*
X0062055Y0010167D01*
X0062355Y0010176D01*
X0062655Y0010193D01*
X0062955Y0010217D01*
X0063254Y0010248D01*
X0063552Y0010287D01*
X0063849Y0010332D01*
X0064145Y0010385D01*
X0064439Y0010446D01*
X0064732Y0010513D01*
X0065023Y0010588D01*
X0065312Y0010670D01*
X0065600Y0010758D01*
X0065884Y0010854D01*
X0066167Y0010957D01*
X0066447Y0011066D01*
X0066724Y0011183D01*
X0066998Y0011306D01*
X0067269Y0011435D01*
X0067537Y0011572D01*
X0067801Y0011715D01*
X0068062Y0011864D01*
X0068319Y0012019D01*
X0068573Y0012181D01*
X0068822Y0012349D01*
X0069067Y0012523D01*
X0069308Y0012703D01*
X0069544Y0012889D01*
X0069775Y0013081D01*
X0070002Y0013278D01*
X0070224Y0013480D01*
X0070441Y0013688D01*
X0070653Y0013902D01*
X0070860Y0014120D01*
X0071061Y0014343D01*
X0071256Y0014572D01*
X0071446Y0014804D01*
X0071631Y0015042D01*
X0071555Y0015098D01*
X0071373Y0014863D01*
X0071184Y0014632D01*
X0070990Y0014405D01*
X0070790Y0014183D01*
X0070585Y0013967D01*
X0070375Y0013755D01*
X0070160Y0013549D01*
X0069940Y0013348D01*
X0069714Y0013152D01*
X0069485Y0012962D01*
X0069250Y0012778D01*
X0069011Y0012599D01*
X0068768Y0012426D01*
X0068521Y0012260D01*
X0068269Y0012099D01*
X0068014Y0011945D01*
X0067755Y0011797D01*
X0067493Y0011655D01*
X0067227Y0011520D01*
X0066958Y0011391D01*
X0066686Y0011269D01*
X0066411Y0011153D01*
X0066133Y0011044D01*
X0065853Y0010943D01*
X0065570Y0010848D01*
X0065285Y0010760D01*
X0064998Y0010679D01*
X0064710Y0010604D01*
X0064419Y0010538D01*
X0064127Y0010478D01*
X0063833Y0010425D01*
X0063538Y0010380D01*
X0063243Y0010341D01*
X0062946Y0010310D01*
X0062649Y0010287D01*
X0062351Y0010270D01*
X0062053Y0010261D01*
X0061755Y0010259D01*
X0061456Y0010265D01*
X0061158Y0010277D01*
X0060861Y0010297D01*
X0060564Y0010325D01*
X0060268Y0010359D01*
X0059972Y0010401D01*
X0059678Y0010450D01*
X0059385Y0010506D01*
X0059094Y0010569D01*
X0058804Y0010640D01*
X0058516Y0010717D01*
X0058230Y0010801D01*
X0057946Y0010893D01*
X0057664Y0010991D01*
X0057385Y0011096D01*
X0057109Y0011208D01*
X0056835Y0011327D01*
X0056565Y0011452D01*
X0056297Y0011584D01*
X0056033Y0011723D01*
X0055772Y0011868D01*
X0055515Y0012019D01*
X0055262Y0012176D01*
X0055013Y0012340D01*
X0054767Y0012510D01*
X0054526Y0012685D01*
X0054289Y0012867D01*
X0054057Y0013054D01*
X0053830Y0013246D01*
X0053607Y0013445D01*
X0053389Y0013648D01*
X0053176Y0013857D01*
X0052968Y0014071D01*
X0052766Y0014291D01*
X0052569Y0014514D01*
X0052378Y0014743D01*
X0052192Y0014977D01*
X0052012Y0015214D01*
X0051838Y0015456D01*
X0051670Y0015703D01*
X0051508Y0015953D01*
X0051352Y0016207D01*
X0051202Y0016465D01*
X0051059Y0016727D01*
X0050922Y0016992D01*
X0050791Y0017260D01*
X0050668Y0017531D01*
X0050551Y0017806D01*
X0050440Y0018083D01*
X0050337Y0018363D01*
X0050240Y0018645D01*
X0050150Y0018929D01*
X0050068Y0019216D01*
X0049992Y0019504D01*
X0049923Y0019794D01*
X0049862Y0020086D01*
X0049807Y0020379D01*
X0049760Y0020674D01*
X0049720Y0020969D01*
X0049687Y0021266D01*
X0049662Y0021563D01*
X0049644Y0021861D01*
X0049633Y0022159D01*
X0049629Y0022457D01*
X0049633Y0022755D01*
X0049644Y0023053D01*
X0049662Y0023351D01*
X0049687Y0023648D01*
X0049720Y0023945D01*
X0049760Y0024240D01*
X0049807Y0024535D01*
X0049862Y0024828D01*
X0049923Y0025120D01*
X0049992Y0025410D01*
X0050068Y0025698D01*
X0050150Y0025985D01*
X0050240Y0026269D01*
X0050337Y0026551D01*
X0050440Y0026831D01*
X0050551Y0027108D01*
X0050668Y0027383D01*
X0050791Y0027654D01*
X0050922Y0027922D01*
X0051059Y0028187D01*
X0051202Y0028449D01*
X0051352Y0028707D01*
X0051508Y0028961D01*
X0051670Y0029211D01*
X0051838Y0029458D01*
X0052012Y0029700D01*
X0052192Y0029937D01*
X0052378Y0030171D01*
X0052569Y0030400D01*
X0052766Y0030623D01*
X0052968Y0030843D01*
X0053176Y0031057D01*
X0053389Y0031266D01*
X0053607Y0031469D01*
X0053830Y0031668D01*
X0054057Y0031860D01*
X0054289Y0032047D01*
X0054526Y0032229D01*
X0054767Y0032404D01*
X0055013Y0032574D01*
X0055262Y0032738D01*
X0055515Y0032895D01*
X0055772Y0033046D01*
X0056033Y0033191D01*
X0056297Y0033330D01*
X0056565Y0033462D01*
X0056835Y0033587D01*
X0057109Y0033706D01*
X0057385Y0033818D01*
X0057664Y0033923D01*
X0057946Y0034021D01*
X0058230Y0034113D01*
X0058516Y0034197D01*
X0058804Y0034274D01*
X0059094Y0034345D01*
X0059385Y0034408D01*
X0059678Y0034464D01*
X0059972Y0034513D01*
X0060268Y0034555D01*
X0060564Y0034589D01*
X0060861Y0034617D01*
X0061158Y0034637D01*
X0061456Y0034649D01*
X0061755Y0034655D01*
X0062053Y0034653D01*
X0062351Y0034644D01*
X0062649Y0034627D01*
X0062946Y0034604D01*
X0063243Y0034573D01*
X0063538Y0034534D01*
X0063833Y0034489D01*
X0064127Y0034436D01*
X0064419Y0034376D01*
X0064710Y0034310D01*
X0064998Y0034235D01*
X0065285Y0034154D01*
X0065570Y0034066D01*
X0065853Y0033971D01*
X0066133Y0033870D01*
X0066411Y0033761D01*
X0066686Y0033645D01*
X0066958Y0033523D01*
X0067227Y0033394D01*
X0067493Y0033259D01*
X0067755Y0033117D01*
X0068014Y0032969D01*
X0068269Y0032815D01*
X0068521Y0032654D01*
X0068768Y0032488D01*
X0069011Y0032315D01*
X0069250Y0032136D01*
X0069485Y0031952D01*
X0069714Y0031762D01*
X0069940Y0031566D01*
X0070160Y0031365D01*
X0070375Y0031159D01*
X0070585Y0030947D01*
X0070790Y0030731D01*
X0070990Y0030509D01*
X0071184Y0030282D01*
X0071373Y0030051D01*
X0071555Y0029816D01*
X0071480Y0029759D01*
X0071299Y0029993D01*
X0071112Y0030222D01*
X0070919Y0030447D01*
X0070721Y0030667D01*
X0070518Y0030882D01*
X0070309Y0031092D01*
X0070095Y0031297D01*
X0069877Y0031496D01*
X0069653Y0031690D01*
X0069425Y0031879D01*
X0069193Y0032062D01*
X0068956Y0032239D01*
X0068714Y0032410D01*
X0068469Y0032576D01*
X0068220Y0032735D01*
X0067966Y0032888D01*
X0067710Y0033035D01*
X0067449Y0033176D01*
X0067185Y0033310D01*
X0066918Y0033438D01*
X0066648Y0033559D01*
X0066376Y0033674D01*
X0066100Y0033782D01*
X0065822Y0033883D01*
X0065541Y0033977D01*
X0065259Y0034064D01*
X0064974Y0034145D01*
X0064687Y0034218D01*
X0064399Y0034285D01*
X0064109Y0034344D01*
X0063817Y0034396D01*
X0063525Y0034441D01*
X0063231Y0034479D01*
X0062937Y0034510D01*
X0062642Y0034534D01*
X0062347Y0034550D01*
X0062051Y0034559D01*
X0061755Y0034561D01*
X0061459Y0034555D01*
X0061163Y0034543D01*
X0060868Y0034523D01*
X0060573Y0034496D01*
X0060279Y0034462D01*
X0059986Y0034420D01*
X0059694Y0034372D01*
X0059404Y0034316D01*
X0059115Y0034253D01*
X0058827Y0034183D01*
X0058541Y0034106D01*
X0058257Y0034023D01*
X0057976Y0033932D01*
X0057696Y0033834D01*
X0057419Y0033730D01*
X0057145Y0033619D01*
X0056874Y0033501D01*
X0056605Y0033377D01*
X0056340Y0033246D01*
X0056078Y0033108D01*
X0055819Y0032965D01*
X0055564Y0032815D01*
X0055312Y0032658D01*
X0055065Y0032496D01*
X0054822Y0032328D01*
X0054582Y0032153D01*
X0054347Y0031973D01*
X0054117Y0031788D01*
X0053891Y0031596D01*
X0053670Y0031400D01*
X0053454Y0031198D01*
X0053243Y0030990D01*
X0053037Y0030778D01*
X0052836Y0030560D01*
X0052640Y0030338D01*
X0052450Y0030111D01*
X0052266Y0029880D01*
X0052088Y0029644D01*
X0051915Y0029404D01*
X0051748Y0029159D01*
X0051587Y0028911D01*
X0051432Y0028658D01*
X0051284Y0028402D01*
X0051142Y0028143D01*
X0051006Y0027880D01*
X0050876Y0027614D01*
X0050754Y0027345D01*
X0050637Y0027072D01*
X0050528Y0026797D01*
X0050425Y0026520D01*
X0050329Y0026240D01*
X0050240Y0025958D01*
X0050158Y0025673D01*
X0050083Y0025387D01*
X0050015Y0025099D01*
X0049954Y0024810D01*
X0049900Y0024519D01*
X0049853Y0024226D01*
X0049813Y0023933D01*
X0049781Y0023639D01*
X0049756Y0023344D01*
X0049737Y0023049D01*
X0049727Y0022753D01*
X0049723Y0022457D01*
X0049727Y0022161D01*
X0049737Y0021865D01*
X0049756Y0021570D01*
X0049781Y0021275D01*
X0049813Y0020981D01*
X0049853Y0020688D01*
X0049900Y0020395D01*
X0049954Y0020104D01*
X0050015Y0019815D01*
X0050083Y0019527D01*
X0050158Y0019241D01*
X0050240Y0018956D01*
X0050329Y0018674D01*
X0050425Y0018394D01*
X0050528Y0018117D01*
X0050637Y0017842D01*
X0050754Y0017569D01*
X0050876Y0017300D01*
X0051006Y0017034D01*
X0051142Y0016771D01*
X0051284Y0016512D01*
X0051432Y0016256D01*
X0051587Y0016003D01*
X0051748Y0015755D01*
X0051915Y0015510D01*
X0052088Y0015270D01*
X0052266Y0015034D01*
X0052450Y0014803D01*
X0052640Y0014576D01*
X0052836Y0014354D01*
X0053037Y0014136D01*
X0053243Y0013924D01*
X0053454Y0013716D01*
X0053670Y0013514D01*
X0053891Y0013318D01*
X0054117Y0013126D01*
X0054347Y0012941D01*
X0054582Y0012761D01*
X0054822Y0012586D01*
X0055065Y0012418D01*
X0055312Y0012256D01*
X0055564Y0012099D01*
X0055819Y0011949D01*
X0056078Y0011806D01*
X0056340Y0011668D01*
X0056605Y0011537D01*
X0056874Y0011413D01*
X0057145Y0011295D01*
X0057419Y0011184D01*
X0057696Y0011080D01*
X0057976Y0010982D01*
X0058257Y0010891D01*
X0058541Y0010808D01*
X0058827Y0010731D01*
X0059115Y0010661D01*
X0059404Y0010598D01*
X0059694Y0010542D01*
X0059986Y0010494D01*
X0060279Y0010452D01*
X0060573Y0010418D01*
X0060868Y0010391D01*
X0061163Y0010371D01*
X0061459Y0010359D01*
X0061755Y0010353D01*
X0062051Y0010355D01*
X0062347Y0010364D01*
X0062642Y0010380D01*
X0062937Y0010404D01*
X0063231Y0010435D01*
X0063525Y0010473D01*
X0063817Y0010518D01*
X0064109Y0010570D01*
X0064399Y0010629D01*
X0064687Y0010696D01*
X0064974Y0010769D01*
X0065259Y0010850D01*
X0065541Y0010937D01*
X0065822Y0011031D01*
X0066100Y0011132D01*
X0066376Y0011240D01*
X0066648Y0011355D01*
X0066918Y0011476D01*
X0067185Y0011604D01*
X0067449Y0011738D01*
X0067710Y0011879D01*
X0067966Y0012026D01*
X0068220Y0012179D01*
X0068469Y0012338D01*
X0068714Y0012504D01*
X0068956Y0012675D01*
X0069193Y0012852D01*
X0069425Y0013035D01*
X0069653Y0013224D01*
X0069877Y0013418D01*
X0070095Y0013617D01*
X0070309Y0013822D01*
X0070518Y0014032D01*
X0070721Y0014247D01*
X0070919Y0014467D01*
X0071112Y0014692D01*
X0071299Y0014921D01*
X0071480Y0015155D01*
D19*
X0299228Y0044098D03*
D20*
X0299228Y0050348D03*
X0299228Y0026848D03*
D21*
X0310606Y0031201D02*
X0310606Y0019701D01*
X0310606Y0008201D01*
X0330606Y0008201D01*
X0335606Y0008201D01*
X0335606Y0012201D01*
X0334606Y0014201D01*
X0316606Y0014201D01*
X0315606Y0012201D01*
X0315606Y0008201D01*
X0316606Y0008201D02*
X0316606Y0012201D01*
X0315606Y0012201D01*
X0316606Y0012201D02*
X0334606Y0012201D01*
X0334606Y0008201D01*
X0335606Y0008201D02*
X0340606Y0008201D01*
X0340606Y0019701D01*
X0340606Y0031201D01*
X0339606Y0031201D02*
X0338106Y0031201D01*
X0333106Y0031201D01*
X0328106Y0031201D01*
X0328106Y0028701D01*
X0323106Y0028701D01*
X0323106Y0031201D01*
X0318106Y0031201D01*
X0318106Y0028701D01*
X0313106Y0028701D01*
X0313106Y0031201D01*
X0310606Y0031201D01*
X0313106Y0031201D02*
X0318106Y0031201D01*
X0323106Y0031201D02*
X0328106Y0031201D01*
X0333106Y0031201D02*
X0333106Y0028701D01*
X0338106Y0028701D01*
X0338106Y0031201D01*
X0335606Y0012201D02*
X0334606Y0012201D01*
D22*
X0340958Y0018474D02*
X0341676Y0017757D01*
X0343110Y0017757D01*
X0343827Y0018474D01*
X0343827Y0019191D01*
X0343110Y0019909D01*
X0342393Y0019909D01*
X0343110Y0019909D02*
X0343827Y0020626D01*
X0343827Y0021343D01*
X0343110Y0022060D01*
X0341676Y0022060D01*
X0340958Y0021343D01*
X0306827Y0017957D02*
X0303958Y0017957D01*
X0305393Y0017957D02*
X0305393Y0022260D01*
X0303958Y0020826D01*
D23*
X0271688Y0101846D02*
X0271688Y0104346D01*
X0271688Y0106846D01*
X0269188Y0106846D02*
X0269188Y0104346D01*
X0269188Y0101846D01*
X0269188Y0113657D02*
X0269188Y0116157D01*
X0269188Y0118657D01*
X0271688Y0118657D02*
X0271688Y0116157D01*
X0271688Y0113657D01*
X0271688Y0125075D02*
X0271688Y0127575D01*
X0271688Y0130075D01*
X0269188Y0130075D02*
X0269188Y0127575D01*
X0269188Y0125075D01*
X0269188Y0136492D02*
X0269188Y0138992D01*
X0269188Y0141492D01*
X0271688Y0141492D02*
X0271688Y0138992D01*
X0271688Y0136492D01*
D24*
X0248154Y0206709D02*
X0247154Y0206709D01*
X0247154Y0215370D02*
X0248154Y0215370D01*
X0248154Y0223638D02*
X0247154Y0223638D01*
X0247154Y0231906D02*
X0248154Y0231906D01*
M02*
