G75*
%MOIN*%
%OFA0B0*%
%FSLAX25Y25*%
%IPPOS*%
%LPD*%
%AMOC8*
5,1,8,0,0,1.08239X$1,22.5*
%
%ADD10C,0.00000*%
%ADD11OC8,0.05600*%
%ADD12C,0.07400*%
%ADD13C,0.06600*%
%ADD14C,0.05200*%
%ADD15OC8,0.05200*%
%ADD16OC8,0.07500*%
%ADD17OC8,0.06300*%
%ADD18C,0.06300*%
%ADD19C,0.07400*%
%ADD20C,0.06600*%
%ADD21C,0.06000*%
%ADD22R,0.03543X0.01378*%
%ADD23R,0.05900X0.07900*%
%ADD24R,0.15000X0.07900*%
%ADD25R,0.10630X0.11614*%
%ADD26C,0.01600*%
%ADD27C,0.04000*%
%ADD28C,0.01969*%
%ADD29C,0.01500*%
D10*
X0001984Y0001866D02*
X0001984Y0240567D01*
X0363992Y0240567D01*
X0363992Y0001866D01*
X0001984Y0001866D01*
X0006709Y0011827D02*
X0006711Y0011985D01*
X0006717Y0012143D01*
X0006727Y0012301D01*
X0006741Y0012459D01*
X0006759Y0012616D01*
X0006780Y0012773D01*
X0006806Y0012929D01*
X0006836Y0013085D01*
X0006869Y0013240D01*
X0006907Y0013393D01*
X0006948Y0013546D01*
X0006993Y0013698D01*
X0007042Y0013849D01*
X0007095Y0013998D01*
X0007151Y0014146D01*
X0007211Y0014292D01*
X0007275Y0014437D01*
X0007343Y0014580D01*
X0007414Y0014722D01*
X0007488Y0014862D01*
X0007566Y0014999D01*
X0007648Y0015135D01*
X0007732Y0015269D01*
X0007821Y0015400D01*
X0007912Y0015529D01*
X0008007Y0015656D01*
X0008104Y0015781D01*
X0008205Y0015903D01*
X0008309Y0016022D01*
X0008416Y0016139D01*
X0008526Y0016253D01*
X0008639Y0016364D01*
X0008754Y0016473D01*
X0008872Y0016578D01*
X0008993Y0016680D01*
X0009116Y0016780D01*
X0009242Y0016876D01*
X0009370Y0016969D01*
X0009500Y0017059D01*
X0009633Y0017145D01*
X0009768Y0017229D01*
X0009904Y0017308D01*
X0010043Y0017385D01*
X0010184Y0017457D01*
X0010326Y0017527D01*
X0010470Y0017592D01*
X0010616Y0017654D01*
X0010763Y0017712D01*
X0010912Y0017767D01*
X0011062Y0017818D01*
X0011213Y0017865D01*
X0011365Y0017908D01*
X0011518Y0017947D01*
X0011673Y0017983D01*
X0011828Y0018014D01*
X0011984Y0018042D01*
X0012140Y0018066D01*
X0012297Y0018086D01*
X0012455Y0018102D01*
X0012612Y0018114D01*
X0012771Y0018122D01*
X0012929Y0018126D01*
X0013087Y0018126D01*
X0013245Y0018122D01*
X0013404Y0018114D01*
X0013561Y0018102D01*
X0013719Y0018086D01*
X0013876Y0018066D01*
X0014032Y0018042D01*
X0014188Y0018014D01*
X0014343Y0017983D01*
X0014498Y0017947D01*
X0014651Y0017908D01*
X0014803Y0017865D01*
X0014954Y0017818D01*
X0015104Y0017767D01*
X0015253Y0017712D01*
X0015400Y0017654D01*
X0015546Y0017592D01*
X0015690Y0017527D01*
X0015832Y0017457D01*
X0015973Y0017385D01*
X0016112Y0017308D01*
X0016248Y0017229D01*
X0016383Y0017145D01*
X0016516Y0017059D01*
X0016646Y0016969D01*
X0016774Y0016876D01*
X0016900Y0016780D01*
X0017023Y0016680D01*
X0017144Y0016578D01*
X0017262Y0016473D01*
X0017377Y0016364D01*
X0017490Y0016253D01*
X0017600Y0016139D01*
X0017707Y0016022D01*
X0017811Y0015903D01*
X0017912Y0015781D01*
X0018009Y0015656D01*
X0018104Y0015529D01*
X0018195Y0015400D01*
X0018284Y0015269D01*
X0018368Y0015135D01*
X0018450Y0014999D01*
X0018528Y0014862D01*
X0018602Y0014722D01*
X0018673Y0014580D01*
X0018741Y0014437D01*
X0018805Y0014292D01*
X0018865Y0014146D01*
X0018921Y0013998D01*
X0018974Y0013849D01*
X0019023Y0013698D01*
X0019068Y0013546D01*
X0019109Y0013393D01*
X0019147Y0013240D01*
X0019180Y0013085D01*
X0019210Y0012929D01*
X0019236Y0012773D01*
X0019257Y0012616D01*
X0019275Y0012459D01*
X0019289Y0012301D01*
X0019299Y0012143D01*
X0019305Y0011985D01*
X0019307Y0011827D01*
X0019305Y0011669D01*
X0019299Y0011511D01*
X0019289Y0011353D01*
X0019275Y0011195D01*
X0019257Y0011038D01*
X0019236Y0010881D01*
X0019210Y0010725D01*
X0019180Y0010569D01*
X0019147Y0010414D01*
X0019109Y0010261D01*
X0019068Y0010108D01*
X0019023Y0009956D01*
X0018974Y0009805D01*
X0018921Y0009656D01*
X0018865Y0009508D01*
X0018805Y0009362D01*
X0018741Y0009217D01*
X0018673Y0009074D01*
X0018602Y0008932D01*
X0018528Y0008792D01*
X0018450Y0008655D01*
X0018368Y0008519D01*
X0018284Y0008385D01*
X0018195Y0008254D01*
X0018104Y0008125D01*
X0018009Y0007998D01*
X0017912Y0007873D01*
X0017811Y0007751D01*
X0017707Y0007632D01*
X0017600Y0007515D01*
X0017490Y0007401D01*
X0017377Y0007290D01*
X0017262Y0007181D01*
X0017144Y0007076D01*
X0017023Y0006974D01*
X0016900Y0006874D01*
X0016774Y0006778D01*
X0016646Y0006685D01*
X0016516Y0006595D01*
X0016383Y0006509D01*
X0016248Y0006425D01*
X0016112Y0006346D01*
X0015973Y0006269D01*
X0015832Y0006197D01*
X0015690Y0006127D01*
X0015546Y0006062D01*
X0015400Y0006000D01*
X0015253Y0005942D01*
X0015104Y0005887D01*
X0014954Y0005836D01*
X0014803Y0005789D01*
X0014651Y0005746D01*
X0014498Y0005707D01*
X0014343Y0005671D01*
X0014188Y0005640D01*
X0014032Y0005612D01*
X0013876Y0005588D01*
X0013719Y0005568D01*
X0013561Y0005552D01*
X0013404Y0005540D01*
X0013245Y0005532D01*
X0013087Y0005528D01*
X0012929Y0005528D01*
X0012771Y0005532D01*
X0012612Y0005540D01*
X0012455Y0005552D01*
X0012297Y0005568D01*
X0012140Y0005588D01*
X0011984Y0005612D01*
X0011828Y0005640D01*
X0011673Y0005671D01*
X0011518Y0005707D01*
X0011365Y0005746D01*
X0011213Y0005789D01*
X0011062Y0005836D01*
X0010912Y0005887D01*
X0010763Y0005942D01*
X0010616Y0006000D01*
X0010470Y0006062D01*
X0010326Y0006127D01*
X0010184Y0006197D01*
X0010043Y0006269D01*
X0009904Y0006346D01*
X0009768Y0006425D01*
X0009633Y0006509D01*
X0009500Y0006595D01*
X0009370Y0006685D01*
X0009242Y0006778D01*
X0009116Y0006874D01*
X0008993Y0006974D01*
X0008872Y0007076D01*
X0008754Y0007181D01*
X0008639Y0007290D01*
X0008526Y0007401D01*
X0008416Y0007515D01*
X0008309Y0007632D01*
X0008205Y0007751D01*
X0008104Y0007873D01*
X0008007Y0007998D01*
X0007912Y0008125D01*
X0007821Y0008254D01*
X0007732Y0008385D01*
X0007648Y0008519D01*
X0007566Y0008655D01*
X0007488Y0008792D01*
X0007414Y0008932D01*
X0007343Y0009074D01*
X0007275Y0009217D01*
X0007211Y0009362D01*
X0007151Y0009508D01*
X0007095Y0009656D01*
X0007042Y0009805D01*
X0006993Y0009956D01*
X0006948Y0010108D01*
X0006907Y0010261D01*
X0006869Y0010414D01*
X0006836Y0010569D01*
X0006806Y0010725D01*
X0006780Y0010881D01*
X0006759Y0011038D01*
X0006741Y0011195D01*
X0006727Y0011353D01*
X0006717Y0011511D01*
X0006711Y0011669D01*
X0006709Y0011827D01*
X0006315Y0229543D02*
X0006317Y0229701D01*
X0006323Y0229859D01*
X0006333Y0230017D01*
X0006347Y0230175D01*
X0006365Y0230332D01*
X0006386Y0230489D01*
X0006412Y0230645D01*
X0006442Y0230801D01*
X0006475Y0230956D01*
X0006513Y0231109D01*
X0006554Y0231262D01*
X0006599Y0231414D01*
X0006648Y0231565D01*
X0006701Y0231714D01*
X0006757Y0231862D01*
X0006817Y0232008D01*
X0006881Y0232153D01*
X0006949Y0232296D01*
X0007020Y0232438D01*
X0007094Y0232578D01*
X0007172Y0232715D01*
X0007254Y0232851D01*
X0007338Y0232985D01*
X0007427Y0233116D01*
X0007518Y0233245D01*
X0007613Y0233372D01*
X0007710Y0233497D01*
X0007811Y0233619D01*
X0007915Y0233738D01*
X0008022Y0233855D01*
X0008132Y0233969D01*
X0008245Y0234080D01*
X0008360Y0234189D01*
X0008478Y0234294D01*
X0008599Y0234396D01*
X0008722Y0234496D01*
X0008848Y0234592D01*
X0008976Y0234685D01*
X0009106Y0234775D01*
X0009239Y0234861D01*
X0009374Y0234945D01*
X0009510Y0235024D01*
X0009649Y0235101D01*
X0009790Y0235173D01*
X0009932Y0235243D01*
X0010076Y0235308D01*
X0010222Y0235370D01*
X0010369Y0235428D01*
X0010518Y0235483D01*
X0010668Y0235534D01*
X0010819Y0235581D01*
X0010971Y0235624D01*
X0011124Y0235663D01*
X0011279Y0235699D01*
X0011434Y0235730D01*
X0011590Y0235758D01*
X0011746Y0235782D01*
X0011903Y0235802D01*
X0012061Y0235818D01*
X0012218Y0235830D01*
X0012377Y0235838D01*
X0012535Y0235842D01*
X0012693Y0235842D01*
X0012851Y0235838D01*
X0013010Y0235830D01*
X0013167Y0235818D01*
X0013325Y0235802D01*
X0013482Y0235782D01*
X0013638Y0235758D01*
X0013794Y0235730D01*
X0013949Y0235699D01*
X0014104Y0235663D01*
X0014257Y0235624D01*
X0014409Y0235581D01*
X0014560Y0235534D01*
X0014710Y0235483D01*
X0014859Y0235428D01*
X0015006Y0235370D01*
X0015152Y0235308D01*
X0015296Y0235243D01*
X0015438Y0235173D01*
X0015579Y0235101D01*
X0015718Y0235024D01*
X0015854Y0234945D01*
X0015989Y0234861D01*
X0016122Y0234775D01*
X0016252Y0234685D01*
X0016380Y0234592D01*
X0016506Y0234496D01*
X0016629Y0234396D01*
X0016750Y0234294D01*
X0016868Y0234189D01*
X0016983Y0234080D01*
X0017096Y0233969D01*
X0017206Y0233855D01*
X0017313Y0233738D01*
X0017417Y0233619D01*
X0017518Y0233497D01*
X0017615Y0233372D01*
X0017710Y0233245D01*
X0017801Y0233116D01*
X0017890Y0232985D01*
X0017974Y0232851D01*
X0018056Y0232715D01*
X0018134Y0232578D01*
X0018208Y0232438D01*
X0018279Y0232296D01*
X0018347Y0232153D01*
X0018411Y0232008D01*
X0018471Y0231862D01*
X0018527Y0231714D01*
X0018580Y0231565D01*
X0018629Y0231414D01*
X0018674Y0231262D01*
X0018715Y0231109D01*
X0018753Y0230956D01*
X0018786Y0230801D01*
X0018816Y0230645D01*
X0018842Y0230489D01*
X0018863Y0230332D01*
X0018881Y0230175D01*
X0018895Y0230017D01*
X0018905Y0229859D01*
X0018911Y0229701D01*
X0018913Y0229543D01*
X0018911Y0229385D01*
X0018905Y0229227D01*
X0018895Y0229069D01*
X0018881Y0228911D01*
X0018863Y0228754D01*
X0018842Y0228597D01*
X0018816Y0228441D01*
X0018786Y0228285D01*
X0018753Y0228130D01*
X0018715Y0227977D01*
X0018674Y0227824D01*
X0018629Y0227672D01*
X0018580Y0227521D01*
X0018527Y0227372D01*
X0018471Y0227224D01*
X0018411Y0227078D01*
X0018347Y0226933D01*
X0018279Y0226790D01*
X0018208Y0226648D01*
X0018134Y0226508D01*
X0018056Y0226371D01*
X0017974Y0226235D01*
X0017890Y0226101D01*
X0017801Y0225970D01*
X0017710Y0225841D01*
X0017615Y0225714D01*
X0017518Y0225589D01*
X0017417Y0225467D01*
X0017313Y0225348D01*
X0017206Y0225231D01*
X0017096Y0225117D01*
X0016983Y0225006D01*
X0016868Y0224897D01*
X0016750Y0224792D01*
X0016629Y0224690D01*
X0016506Y0224590D01*
X0016380Y0224494D01*
X0016252Y0224401D01*
X0016122Y0224311D01*
X0015989Y0224225D01*
X0015854Y0224141D01*
X0015718Y0224062D01*
X0015579Y0223985D01*
X0015438Y0223913D01*
X0015296Y0223843D01*
X0015152Y0223778D01*
X0015006Y0223716D01*
X0014859Y0223658D01*
X0014710Y0223603D01*
X0014560Y0223552D01*
X0014409Y0223505D01*
X0014257Y0223462D01*
X0014104Y0223423D01*
X0013949Y0223387D01*
X0013794Y0223356D01*
X0013638Y0223328D01*
X0013482Y0223304D01*
X0013325Y0223284D01*
X0013167Y0223268D01*
X0013010Y0223256D01*
X0012851Y0223248D01*
X0012693Y0223244D01*
X0012535Y0223244D01*
X0012377Y0223248D01*
X0012218Y0223256D01*
X0012061Y0223268D01*
X0011903Y0223284D01*
X0011746Y0223304D01*
X0011590Y0223328D01*
X0011434Y0223356D01*
X0011279Y0223387D01*
X0011124Y0223423D01*
X0010971Y0223462D01*
X0010819Y0223505D01*
X0010668Y0223552D01*
X0010518Y0223603D01*
X0010369Y0223658D01*
X0010222Y0223716D01*
X0010076Y0223778D01*
X0009932Y0223843D01*
X0009790Y0223913D01*
X0009649Y0223985D01*
X0009510Y0224062D01*
X0009374Y0224141D01*
X0009239Y0224225D01*
X0009106Y0224311D01*
X0008976Y0224401D01*
X0008848Y0224494D01*
X0008722Y0224590D01*
X0008599Y0224690D01*
X0008478Y0224792D01*
X0008360Y0224897D01*
X0008245Y0225006D01*
X0008132Y0225117D01*
X0008022Y0225231D01*
X0007915Y0225348D01*
X0007811Y0225467D01*
X0007710Y0225589D01*
X0007613Y0225714D01*
X0007518Y0225841D01*
X0007427Y0225970D01*
X0007338Y0226101D01*
X0007254Y0226235D01*
X0007172Y0226371D01*
X0007094Y0226508D01*
X0007020Y0226648D01*
X0006949Y0226790D01*
X0006881Y0226933D01*
X0006817Y0227078D01*
X0006757Y0227224D01*
X0006701Y0227372D01*
X0006648Y0227521D01*
X0006599Y0227672D01*
X0006554Y0227824D01*
X0006513Y0227977D01*
X0006475Y0228130D01*
X0006442Y0228285D01*
X0006412Y0228441D01*
X0006386Y0228597D01*
X0006365Y0228754D01*
X0006347Y0228911D01*
X0006333Y0229069D01*
X0006323Y0229227D01*
X0006317Y0229385D01*
X0006315Y0229543D01*
X0346866Y0229543D02*
X0346868Y0229701D01*
X0346874Y0229859D01*
X0346884Y0230017D01*
X0346898Y0230175D01*
X0346916Y0230332D01*
X0346937Y0230489D01*
X0346963Y0230645D01*
X0346993Y0230801D01*
X0347026Y0230956D01*
X0347064Y0231109D01*
X0347105Y0231262D01*
X0347150Y0231414D01*
X0347199Y0231565D01*
X0347252Y0231714D01*
X0347308Y0231862D01*
X0347368Y0232008D01*
X0347432Y0232153D01*
X0347500Y0232296D01*
X0347571Y0232438D01*
X0347645Y0232578D01*
X0347723Y0232715D01*
X0347805Y0232851D01*
X0347889Y0232985D01*
X0347978Y0233116D01*
X0348069Y0233245D01*
X0348164Y0233372D01*
X0348261Y0233497D01*
X0348362Y0233619D01*
X0348466Y0233738D01*
X0348573Y0233855D01*
X0348683Y0233969D01*
X0348796Y0234080D01*
X0348911Y0234189D01*
X0349029Y0234294D01*
X0349150Y0234396D01*
X0349273Y0234496D01*
X0349399Y0234592D01*
X0349527Y0234685D01*
X0349657Y0234775D01*
X0349790Y0234861D01*
X0349925Y0234945D01*
X0350061Y0235024D01*
X0350200Y0235101D01*
X0350341Y0235173D01*
X0350483Y0235243D01*
X0350627Y0235308D01*
X0350773Y0235370D01*
X0350920Y0235428D01*
X0351069Y0235483D01*
X0351219Y0235534D01*
X0351370Y0235581D01*
X0351522Y0235624D01*
X0351675Y0235663D01*
X0351830Y0235699D01*
X0351985Y0235730D01*
X0352141Y0235758D01*
X0352297Y0235782D01*
X0352454Y0235802D01*
X0352612Y0235818D01*
X0352769Y0235830D01*
X0352928Y0235838D01*
X0353086Y0235842D01*
X0353244Y0235842D01*
X0353402Y0235838D01*
X0353561Y0235830D01*
X0353718Y0235818D01*
X0353876Y0235802D01*
X0354033Y0235782D01*
X0354189Y0235758D01*
X0354345Y0235730D01*
X0354500Y0235699D01*
X0354655Y0235663D01*
X0354808Y0235624D01*
X0354960Y0235581D01*
X0355111Y0235534D01*
X0355261Y0235483D01*
X0355410Y0235428D01*
X0355557Y0235370D01*
X0355703Y0235308D01*
X0355847Y0235243D01*
X0355989Y0235173D01*
X0356130Y0235101D01*
X0356269Y0235024D01*
X0356405Y0234945D01*
X0356540Y0234861D01*
X0356673Y0234775D01*
X0356803Y0234685D01*
X0356931Y0234592D01*
X0357057Y0234496D01*
X0357180Y0234396D01*
X0357301Y0234294D01*
X0357419Y0234189D01*
X0357534Y0234080D01*
X0357647Y0233969D01*
X0357757Y0233855D01*
X0357864Y0233738D01*
X0357968Y0233619D01*
X0358069Y0233497D01*
X0358166Y0233372D01*
X0358261Y0233245D01*
X0358352Y0233116D01*
X0358441Y0232985D01*
X0358525Y0232851D01*
X0358607Y0232715D01*
X0358685Y0232578D01*
X0358759Y0232438D01*
X0358830Y0232296D01*
X0358898Y0232153D01*
X0358962Y0232008D01*
X0359022Y0231862D01*
X0359078Y0231714D01*
X0359131Y0231565D01*
X0359180Y0231414D01*
X0359225Y0231262D01*
X0359266Y0231109D01*
X0359304Y0230956D01*
X0359337Y0230801D01*
X0359367Y0230645D01*
X0359393Y0230489D01*
X0359414Y0230332D01*
X0359432Y0230175D01*
X0359446Y0230017D01*
X0359456Y0229859D01*
X0359462Y0229701D01*
X0359464Y0229543D01*
X0359462Y0229385D01*
X0359456Y0229227D01*
X0359446Y0229069D01*
X0359432Y0228911D01*
X0359414Y0228754D01*
X0359393Y0228597D01*
X0359367Y0228441D01*
X0359337Y0228285D01*
X0359304Y0228130D01*
X0359266Y0227977D01*
X0359225Y0227824D01*
X0359180Y0227672D01*
X0359131Y0227521D01*
X0359078Y0227372D01*
X0359022Y0227224D01*
X0358962Y0227078D01*
X0358898Y0226933D01*
X0358830Y0226790D01*
X0358759Y0226648D01*
X0358685Y0226508D01*
X0358607Y0226371D01*
X0358525Y0226235D01*
X0358441Y0226101D01*
X0358352Y0225970D01*
X0358261Y0225841D01*
X0358166Y0225714D01*
X0358069Y0225589D01*
X0357968Y0225467D01*
X0357864Y0225348D01*
X0357757Y0225231D01*
X0357647Y0225117D01*
X0357534Y0225006D01*
X0357419Y0224897D01*
X0357301Y0224792D01*
X0357180Y0224690D01*
X0357057Y0224590D01*
X0356931Y0224494D01*
X0356803Y0224401D01*
X0356673Y0224311D01*
X0356540Y0224225D01*
X0356405Y0224141D01*
X0356269Y0224062D01*
X0356130Y0223985D01*
X0355989Y0223913D01*
X0355847Y0223843D01*
X0355703Y0223778D01*
X0355557Y0223716D01*
X0355410Y0223658D01*
X0355261Y0223603D01*
X0355111Y0223552D01*
X0354960Y0223505D01*
X0354808Y0223462D01*
X0354655Y0223423D01*
X0354500Y0223387D01*
X0354345Y0223356D01*
X0354189Y0223328D01*
X0354033Y0223304D01*
X0353876Y0223284D01*
X0353718Y0223268D01*
X0353561Y0223256D01*
X0353402Y0223248D01*
X0353244Y0223244D01*
X0353086Y0223244D01*
X0352928Y0223248D01*
X0352769Y0223256D01*
X0352612Y0223268D01*
X0352454Y0223284D01*
X0352297Y0223304D01*
X0352141Y0223328D01*
X0351985Y0223356D01*
X0351830Y0223387D01*
X0351675Y0223423D01*
X0351522Y0223462D01*
X0351370Y0223505D01*
X0351219Y0223552D01*
X0351069Y0223603D01*
X0350920Y0223658D01*
X0350773Y0223716D01*
X0350627Y0223778D01*
X0350483Y0223843D01*
X0350341Y0223913D01*
X0350200Y0223985D01*
X0350061Y0224062D01*
X0349925Y0224141D01*
X0349790Y0224225D01*
X0349657Y0224311D01*
X0349527Y0224401D01*
X0349399Y0224494D01*
X0349273Y0224590D01*
X0349150Y0224690D01*
X0349029Y0224792D01*
X0348911Y0224897D01*
X0348796Y0225006D01*
X0348683Y0225117D01*
X0348573Y0225231D01*
X0348466Y0225348D01*
X0348362Y0225467D01*
X0348261Y0225589D01*
X0348164Y0225714D01*
X0348069Y0225841D01*
X0347978Y0225970D01*
X0347889Y0226101D01*
X0347805Y0226235D01*
X0347723Y0226371D01*
X0347645Y0226508D01*
X0347571Y0226648D01*
X0347500Y0226790D01*
X0347432Y0226933D01*
X0347368Y0227078D01*
X0347308Y0227224D01*
X0347252Y0227372D01*
X0347199Y0227521D01*
X0347150Y0227672D01*
X0347105Y0227824D01*
X0347064Y0227977D01*
X0347026Y0228130D01*
X0346993Y0228285D01*
X0346963Y0228441D01*
X0346937Y0228597D01*
X0346916Y0228754D01*
X0346898Y0228911D01*
X0346884Y0229069D01*
X0346874Y0229227D01*
X0346868Y0229385D01*
X0346866Y0229543D01*
X0346866Y0012614D02*
X0346868Y0012772D01*
X0346874Y0012930D01*
X0346884Y0013088D01*
X0346898Y0013246D01*
X0346916Y0013403D01*
X0346937Y0013560D01*
X0346963Y0013716D01*
X0346993Y0013872D01*
X0347026Y0014027D01*
X0347064Y0014180D01*
X0347105Y0014333D01*
X0347150Y0014485D01*
X0347199Y0014636D01*
X0347252Y0014785D01*
X0347308Y0014933D01*
X0347368Y0015079D01*
X0347432Y0015224D01*
X0347500Y0015367D01*
X0347571Y0015509D01*
X0347645Y0015649D01*
X0347723Y0015786D01*
X0347805Y0015922D01*
X0347889Y0016056D01*
X0347978Y0016187D01*
X0348069Y0016316D01*
X0348164Y0016443D01*
X0348261Y0016568D01*
X0348362Y0016690D01*
X0348466Y0016809D01*
X0348573Y0016926D01*
X0348683Y0017040D01*
X0348796Y0017151D01*
X0348911Y0017260D01*
X0349029Y0017365D01*
X0349150Y0017467D01*
X0349273Y0017567D01*
X0349399Y0017663D01*
X0349527Y0017756D01*
X0349657Y0017846D01*
X0349790Y0017932D01*
X0349925Y0018016D01*
X0350061Y0018095D01*
X0350200Y0018172D01*
X0350341Y0018244D01*
X0350483Y0018314D01*
X0350627Y0018379D01*
X0350773Y0018441D01*
X0350920Y0018499D01*
X0351069Y0018554D01*
X0351219Y0018605D01*
X0351370Y0018652D01*
X0351522Y0018695D01*
X0351675Y0018734D01*
X0351830Y0018770D01*
X0351985Y0018801D01*
X0352141Y0018829D01*
X0352297Y0018853D01*
X0352454Y0018873D01*
X0352612Y0018889D01*
X0352769Y0018901D01*
X0352928Y0018909D01*
X0353086Y0018913D01*
X0353244Y0018913D01*
X0353402Y0018909D01*
X0353561Y0018901D01*
X0353718Y0018889D01*
X0353876Y0018873D01*
X0354033Y0018853D01*
X0354189Y0018829D01*
X0354345Y0018801D01*
X0354500Y0018770D01*
X0354655Y0018734D01*
X0354808Y0018695D01*
X0354960Y0018652D01*
X0355111Y0018605D01*
X0355261Y0018554D01*
X0355410Y0018499D01*
X0355557Y0018441D01*
X0355703Y0018379D01*
X0355847Y0018314D01*
X0355989Y0018244D01*
X0356130Y0018172D01*
X0356269Y0018095D01*
X0356405Y0018016D01*
X0356540Y0017932D01*
X0356673Y0017846D01*
X0356803Y0017756D01*
X0356931Y0017663D01*
X0357057Y0017567D01*
X0357180Y0017467D01*
X0357301Y0017365D01*
X0357419Y0017260D01*
X0357534Y0017151D01*
X0357647Y0017040D01*
X0357757Y0016926D01*
X0357864Y0016809D01*
X0357968Y0016690D01*
X0358069Y0016568D01*
X0358166Y0016443D01*
X0358261Y0016316D01*
X0358352Y0016187D01*
X0358441Y0016056D01*
X0358525Y0015922D01*
X0358607Y0015786D01*
X0358685Y0015649D01*
X0358759Y0015509D01*
X0358830Y0015367D01*
X0358898Y0015224D01*
X0358962Y0015079D01*
X0359022Y0014933D01*
X0359078Y0014785D01*
X0359131Y0014636D01*
X0359180Y0014485D01*
X0359225Y0014333D01*
X0359266Y0014180D01*
X0359304Y0014027D01*
X0359337Y0013872D01*
X0359367Y0013716D01*
X0359393Y0013560D01*
X0359414Y0013403D01*
X0359432Y0013246D01*
X0359446Y0013088D01*
X0359456Y0012930D01*
X0359462Y0012772D01*
X0359464Y0012614D01*
X0359462Y0012456D01*
X0359456Y0012298D01*
X0359446Y0012140D01*
X0359432Y0011982D01*
X0359414Y0011825D01*
X0359393Y0011668D01*
X0359367Y0011512D01*
X0359337Y0011356D01*
X0359304Y0011201D01*
X0359266Y0011048D01*
X0359225Y0010895D01*
X0359180Y0010743D01*
X0359131Y0010592D01*
X0359078Y0010443D01*
X0359022Y0010295D01*
X0358962Y0010149D01*
X0358898Y0010004D01*
X0358830Y0009861D01*
X0358759Y0009719D01*
X0358685Y0009579D01*
X0358607Y0009442D01*
X0358525Y0009306D01*
X0358441Y0009172D01*
X0358352Y0009041D01*
X0358261Y0008912D01*
X0358166Y0008785D01*
X0358069Y0008660D01*
X0357968Y0008538D01*
X0357864Y0008419D01*
X0357757Y0008302D01*
X0357647Y0008188D01*
X0357534Y0008077D01*
X0357419Y0007968D01*
X0357301Y0007863D01*
X0357180Y0007761D01*
X0357057Y0007661D01*
X0356931Y0007565D01*
X0356803Y0007472D01*
X0356673Y0007382D01*
X0356540Y0007296D01*
X0356405Y0007212D01*
X0356269Y0007133D01*
X0356130Y0007056D01*
X0355989Y0006984D01*
X0355847Y0006914D01*
X0355703Y0006849D01*
X0355557Y0006787D01*
X0355410Y0006729D01*
X0355261Y0006674D01*
X0355111Y0006623D01*
X0354960Y0006576D01*
X0354808Y0006533D01*
X0354655Y0006494D01*
X0354500Y0006458D01*
X0354345Y0006427D01*
X0354189Y0006399D01*
X0354033Y0006375D01*
X0353876Y0006355D01*
X0353718Y0006339D01*
X0353561Y0006327D01*
X0353402Y0006319D01*
X0353244Y0006315D01*
X0353086Y0006315D01*
X0352928Y0006319D01*
X0352769Y0006327D01*
X0352612Y0006339D01*
X0352454Y0006355D01*
X0352297Y0006375D01*
X0352141Y0006399D01*
X0351985Y0006427D01*
X0351830Y0006458D01*
X0351675Y0006494D01*
X0351522Y0006533D01*
X0351370Y0006576D01*
X0351219Y0006623D01*
X0351069Y0006674D01*
X0350920Y0006729D01*
X0350773Y0006787D01*
X0350627Y0006849D01*
X0350483Y0006914D01*
X0350341Y0006984D01*
X0350200Y0007056D01*
X0350061Y0007133D01*
X0349925Y0007212D01*
X0349790Y0007296D01*
X0349657Y0007382D01*
X0349527Y0007472D01*
X0349399Y0007565D01*
X0349273Y0007661D01*
X0349150Y0007761D01*
X0349029Y0007863D01*
X0348911Y0007968D01*
X0348796Y0008077D01*
X0348683Y0008188D01*
X0348573Y0008302D01*
X0348466Y0008419D01*
X0348362Y0008538D01*
X0348261Y0008660D01*
X0348164Y0008785D01*
X0348069Y0008912D01*
X0347978Y0009041D01*
X0347889Y0009172D01*
X0347805Y0009306D01*
X0347723Y0009442D01*
X0347645Y0009579D01*
X0347571Y0009719D01*
X0347500Y0009861D01*
X0347432Y0010004D01*
X0347368Y0010149D01*
X0347308Y0010295D01*
X0347252Y0010443D01*
X0347199Y0010592D01*
X0347150Y0010743D01*
X0347105Y0010895D01*
X0347064Y0011048D01*
X0347026Y0011201D01*
X0346993Y0011356D01*
X0346963Y0011512D01*
X0346937Y0011668D01*
X0346916Y0011825D01*
X0346898Y0011982D01*
X0346884Y0012140D01*
X0346874Y0012298D01*
X0346868Y0012456D01*
X0346866Y0012614D01*
D11*
X0354780Y0052378D03*
X0324780Y0052378D03*
X0220488Y0059504D03*
X0208717Y0084661D03*
X0178717Y0084661D03*
X0220488Y0029504D03*
X0324071Y0156866D03*
X0334071Y0156866D03*
X0334071Y0166866D03*
X0324071Y0166866D03*
X0324071Y0176866D03*
X0334071Y0176866D03*
X0334071Y0186866D03*
X0324071Y0186866D03*
X0324071Y0196866D03*
X0334071Y0196866D03*
X0334071Y0206866D03*
X0324071Y0206866D03*
X0324071Y0216866D03*
X0334071Y0216866D03*
X0334071Y0226866D03*
X0324071Y0226866D03*
X0126315Y0189701D03*
X0126315Y0159701D03*
D12*
X0183206Y0160921D02*
X0190606Y0160921D01*
X0190606Y0170921D02*
X0183206Y0170921D01*
X0183206Y0180921D02*
X0190606Y0180921D01*
X0190606Y0190921D02*
X0183206Y0190921D01*
X0183206Y0200921D02*
X0190606Y0200921D01*
X0190606Y0210921D02*
X0183206Y0210921D01*
X0183206Y0220921D02*
X0190606Y0220921D01*
X0190606Y0230921D02*
X0183206Y0230921D01*
X0285371Y0231866D02*
X0292771Y0231866D01*
X0292771Y0221866D02*
X0285371Y0221866D01*
X0285371Y0211866D02*
X0292771Y0211866D01*
X0292771Y0201866D02*
X0285371Y0201866D01*
X0285371Y0191866D02*
X0292771Y0191866D01*
X0292771Y0181866D02*
X0285371Y0181866D01*
X0285371Y0171866D02*
X0292771Y0171866D01*
X0292771Y0161866D02*
X0285371Y0161866D01*
X0347891Y0163008D02*
X0355291Y0163008D01*
X0355291Y0173008D02*
X0347891Y0173008D01*
X0347891Y0183008D02*
X0355291Y0183008D01*
X0355291Y0193008D02*
X0347891Y0193008D01*
X0347891Y0203008D02*
X0355291Y0203008D01*
X0355291Y0213008D02*
X0347891Y0213008D01*
X0347891Y0153008D02*
X0355291Y0153008D01*
D13*
X0021032Y0139819D02*
X0014432Y0139819D01*
X0014432Y0124819D02*
X0021032Y0124819D01*
X0021032Y0109819D02*
X0014432Y0109819D01*
X0014432Y0093362D02*
X0021032Y0093362D01*
X0021032Y0078362D02*
X0014432Y0078362D01*
X0014432Y0063362D02*
X0021032Y0063362D01*
D14*
X0074386Y0156431D02*
X0074386Y0161631D01*
X0084386Y0161631D02*
X0084386Y0156431D01*
X0094386Y0156431D02*
X0094386Y0161631D01*
X0104386Y0161631D02*
X0104386Y0156431D01*
X0104386Y0186431D02*
X0104386Y0191631D01*
X0094386Y0191631D02*
X0094386Y0186431D01*
X0084386Y0186431D02*
X0084386Y0191631D01*
X0074386Y0191631D02*
X0074386Y0186431D01*
D15*
X0031906Y0189425D03*
X0031906Y0159425D03*
X0119307Y0092969D03*
X0128756Y0092969D03*
X0138205Y0092969D03*
X0147654Y0092969D03*
X0147654Y0062969D03*
X0138205Y0062969D03*
X0128756Y0062969D03*
X0119307Y0062969D03*
X0067378Y0042535D03*
X0037378Y0042535D03*
X0229543Y0084622D03*
X0238598Y0084622D03*
X0260488Y0104346D03*
X0260488Y0116157D03*
X0260488Y0127575D03*
X0260488Y0138992D03*
X0280488Y0138992D03*
X0280488Y0127575D03*
X0280488Y0116157D03*
X0280488Y0104346D03*
X0238598Y0114622D03*
X0229543Y0114622D03*
X0242654Y0206709D03*
X0252654Y0206709D03*
X0252654Y0215370D03*
X0242654Y0215370D03*
X0242654Y0223638D03*
X0252654Y0223638D03*
X0252654Y0231906D03*
X0242654Y0231906D03*
X0079976Y0227969D03*
X0049976Y0227969D03*
D16*
X0051157Y0209071D03*
X0049622Y0189425D03*
X0081157Y0209071D03*
X0049622Y0159425D03*
D17*
X0108559Y0024425D03*
D18*
X0098559Y0024425D03*
D19*
X0066827Y0022457D03*
X0056827Y0022457D03*
D20*
X0299228Y0018598D03*
X0299228Y0058598D03*
D21*
X0315606Y0022701D02*
X0315606Y0016701D01*
X0325606Y0016701D02*
X0325606Y0022701D01*
X0335606Y0022701D02*
X0335606Y0016701D01*
D22*
X0199524Y0108480D03*
X0199524Y0111039D03*
X0199524Y0113598D03*
X0199524Y0116157D03*
X0199524Y0118717D03*
X0199524Y0121276D03*
X0199524Y0123835D03*
X0176886Y0123835D03*
X0176886Y0121276D03*
X0176886Y0118717D03*
X0176886Y0116157D03*
X0176886Y0113598D03*
X0176886Y0111039D03*
X0176886Y0108480D03*
D23*
X0186191Y0058872D03*
X0195191Y0058872D03*
X0204191Y0058872D03*
D24*
X0195291Y0034072D03*
D25*
X0147260Y0104445D03*
X0128756Y0104445D03*
X0109858Y0104445D03*
X0090961Y0104445D03*
X0090961Y0131020D03*
X0109858Y0131020D03*
X0128756Y0131020D03*
X0147260Y0131020D03*
D26*
X0147555Y0131020D01*
X0169701Y0153165D01*
X0169701Y0194996D01*
X0185449Y0210744D01*
X0186433Y0210744D01*
X0186906Y0210921D01*
X0186433Y0220587D02*
X0186906Y0220921D01*
X0186433Y0220587D02*
X0184957Y0220587D01*
X0140173Y0175803D01*
X0140173Y0119701D01*
X0121472Y0119701D01*
X0110154Y0131020D01*
X0109858Y0131020D01*
X0128756Y0131020D02*
X0128854Y0131020D01*
X0137713Y0139878D01*
X0137713Y0183185D01*
X0185449Y0230921D01*
X0186906Y0230921D01*
X0242535Y0231906D02*
X0242535Y0224031D01*
X0242654Y0223638D01*
X0242535Y0223539D01*
X0242535Y0216157D01*
X0242654Y0215370D01*
X0242535Y0215173D01*
X0242535Y0206807D01*
X0242654Y0206709D01*
X0242043Y0206315D01*
X0192339Y0156610D01*
X0192339Y0156118D01*
X0191846Y0155626D01*
X0186925Y0160547D01*
X0186906Y0160921D01*
X0191846Y0155626D02*
X0203165Y0144307D01*
X0203165Y0118717D01*
X0199524Y0118717D01*
X0199720Y0118717D01*
X0199720Y0121177D01*
X0199524Y0121276D01*
X0186433Y0116748D02*
X0185941Y0117240D01*
X0185941Y0117732D01*
X0185449Y0118224D01*
X0184957Y0118224D01*
X0184957Y0123146D01*
X0184465Y0123638D01*
X0181512Y0123638D01*
X0181512Y0127083D01*
X0181020Y0127575D01*
X0172161Y0127575D01*
X0172161Y0118717D01*
X0176886Y0118717D01*
X0177083Y0121177D02*
X0176886Y0121276D01*
X0177083Y0121177D02*
X0181512Y0121177D01*
X0181512Y0116748D01*
X0186433Y0116748D02*
X0186433Y0059169D01*
X0186191Y0058872D01*
X0186433Y0058185D01*
X0186433Y0052772D01*
X0185449Y0052772D01*
X0184957Y0052280D01*
X0184957Y0029642D01*
X0200213Y0053264D02*
X0229248Y0053264D01*
X0229248Y0084268D01*
X0229543Y0084622D01*
X0230232Y0084760D01*
X0238598Y0084760D01*
X0238598Y0084622D01*
X0209071Y0084268D02*
X0208717Y0084661D01*
X0208579Y0084760D01*
X0209071Y0084268D02*
X0209071Y0059169D01*
X0204642Y0059169D01*
X0204191Y0058872D01*
X0209071Y0059169D02*
X0220390Y0059169D01*
X0220488Y0059504D01*
X0200213Y0053264D02*
X0199228Y0054248D01*
X0199228Y0054740D01*
X0195291Y0058677D01*
X0195191Y0058872D01*
X0147654Y0092969D02*
X0147555Y0093126D01*
X0147555Y0104445D01*
X0147260Y0104445D01*
X0138205Y0093126D02*
X0138205Y0092969D01*
X0138205Y0093126D02*
X0128854Y0102476D01*
X0128854Y0104445D01*
X0128756Y0104445D01*
X0123933Y0094602D02*
X0114091Y0104445D01*
X0109858Y0104445D01*
X0123933Y0094602D02*
X0123933Y0093126D01*
X0128362Y0093126D01*
X0128756Y0092969D01*
X0119307Y0092969D02*
X0119012Y0093126D01*
X0090961Y0093126D01*
X0090961Y0104445D01*
X0103756Y0158087D02*
X0028461Y0082791D01*
X0018126Y0093126D01*
X0017732Y0093362D01*
X0028461Y0082791D02*
X0062909Y0048343D01*
X0062909Y0026197D01*
X0066354Y0022752D01*
X0066827Y0022457D01*
X0056827Y0022457D02*
X0056512Y0022752D01*
X0056512Y0023736D01*
X0037811Y0042437D01*
X0037378Y0042535D01*
X0172161Y0127575D02*
X0172161Y0166945D01*
X0172654Y0167437D01*
X0186925Y0167437D01*
X0186925Y0170882D01*
X0186906Y0170921D01*
X0252654Y0215370D02*
X0252870Y0215173D01*
X0265173Y0202870D01*
X0265173Y0119701D01*
X0280429Y0104445D01*
X0280488Y0104346D01*
X0280488Y0116157D02*
X0280429Y0116256D01*
X0267634Y0129051D01*
X0267634Y0217142D01*
X0252870Y0231906D01*
X0252654Y0231906D01*
X0254346Y0231413D01*
X0288795Y0231413D01*
X0289071Y0231866D01*
X0289071Y0221866D02*
X0288795Y0221571D01*
X0287319Y0221571D01*
X0279937Y0214189D01*
X0279937Y0139878D01*
X0280429Y0139386D01*
X0280488Y0138992D01*
X0280488Y0127575D02*
X0280921Y0127575D01*
X0298146Y0144799D01*
X0298146Y0194012D01*
X0290764Y0201394D01*
X0289287Y0201394D01*
X0289071Y0201866D01*
X0318323Y0222555D02*
X0318323Y0171866D01*
X0324228Y0157102D02*
X0324071Y0156866D01*
X0324228Y0157102D02*
X0334071Y0157102D01*
X0334071Y0156866D01*
X0351591Y0153008D02*
X0351787Y0152673D01*
X0351787Y0055232D01*
X0354248Y0052772D01*
X0354780Y0052378D01*
X0354740Y0052280D01*
X0335055Y0032594D01*
X0335055Y0020783D01*
X0335606Y0019701D01*
X0334071Y0019799D01*
X0326689Y0019799D01*
X0325606Y0019701D01*
X0104386Y0159031D02*
X0103756Y0158579D01*
X0103756Y0158087D01*
X0104248Y0159071D02*
X0104386Y0159031D01*
X0104248Y0159071D02*
X0089976Y0173343D01*
X0089976Y0199425D01*
X0081118Y0208283D01*
X0081157Y0209071D01*
X0081118Y0209268D01*
X0081118Y0226984D01*
X0080134Y0227969D01*
X0079976Y0227969D01*
X0242535Y0231906D02*
X0242654Y0231906D01*
X0318323Y0222555D02*
X0323736Y0222555D01*
X0324228Y0223047D01*
X0324228Y0226492D01*
X0324071Y0226866D01*
D27*
X0273244Y0226787D03*
X0263402Y0210646D03*
X0274031Y0208283D03*
X0238205Y0186630D03*
X0238205Y0176394D03*
X0175213Y0186236D03*
X0165370Y0194504D03*
X0151197Y0170882D03*
X0190862Y0131512D03*
X0181512Y0116748D03*
X0194799Y0116256D03*
X0200213Y0104937D03*
X0224622Y0108874D03*
X0238598Y0108874D03*
X0247260Y0110252D03*
X0163795Y0105921D03*
X0082102Y0131020D03*
X0184957Y0029642D03*
X0318323Y0171866D03*
D28*
X0315739Y0174634D02*
X0315115Y0174010D01*
X0314539Y0172619D01*
X0314539Y0171113D01*
X0315115Y0169723D01*
X0316179Y0168658D01*
X0317570Y0168082D01*
X0319076Y0168082D01*
X0319487Y0168252D01*
X0319487Y0164967D01*
X0322172Y0162282D01*
X0325970Y0162282D01*
X0328655Y0164967D01*
X0328655Y0168765D01*
X0325970Y0171450D01*
X0322172Y0171450D01*
X0322107Y0171385D01*
X0322107Y0172347D01*
X0322172Y0172282D01*
X0325970Y0172282D01*
X0328655Y0174967D01*
X0328655Y0178765D01*
X0325970Y0181450D01*
X0322172Y0181450D01*
X0320907Y0180185D01*
X0320907Y0183547D01*
X0322172Y0182282D01*
X0325970Y0182282D01*
X0328655Y0184967D01*
X0328655Y0188765D01*
X0325970Y0191450D01*
X0322172Y0191450D01*
X0320907Y0190185D01*
X0320907Y0193547D01*
X0322172Y0192282D01*
X0325970Y0192282D01*
X0328655Y0194967D01*
X0328655Y0198765D01*
X0325970Y0201450D01*
X0322172Y0201450D01*
X0320907Y0200185D01*
X0320907Y0203547D01*
X0322172Y0202282D01*
X0325970Y0202282D01*
X0328655Y0204967D01*
X0328655Y0208765D01*
X0325970Y0211450D01*
X0322172Y0211450D01*
X0320907Y0210185D01*
X0320907Y0213547D01*
X0322172Y0212282D01*
X0325970Y0212282D01*
X0328655Y0214967D01*
X0328655Y0218765D01*
X0326128Y0221292D01*
X0326419Y0221583D01*
X0326813Y0222533D01*
X0326813Y0223125D01*
X0328655Y0224967D01*
X0328655Y0228765D01*
X0325970Y0231450D01*
X0322172Y0231450D01*
X0319487Y0228765D01*
X0319487Y0225139D01*
X0317809Y0225139D01*
X0316859Y0224746D01*
X0316132Y0224019D01*
X0315739Y0223069D01*
X0315739Y0174634D01*
X0315739Y0174688D02*
X0300730Y0174688D01*
X0300730Y0176655D02*
X0315739Y0176655D01*
X0315739Y0178622D02*
X0300730Y0178622D01*
X0300730Y0180589D02*
X0315739Y0180589D01*
X0315739Y0182556D02*
X0300730Y0182556D01*
X0300730Y0184523D02*
X0315739Y0184523D01*
X0315739Y0186490D02*
X0300730Y0186490D01*
X0300730Y0188457D02*
X0315739Y0188457D01*
X0315739Y0190424D02*
X0300730Y0190424D01*
X0300730Y0192391D02*
X0315739Y0192391D01*
X0315739Y0194358D02*
X0300730Y0194358D01*
X0300730Y0194526D02*
X0300336Y0195476D01*
X0297236Y0198576D01*
X0297420Y0198760D01*
X0298255Y0200775D01*
X0298255Y0202957D01*
X0297420Y0204973D01*
X0295877Y0206515D01*
X0295031Y0206866D01*
X0295877Y0207217D01*
X0297420Y0208760D01*
X0298255Y0210775D01*
X0298255Y0212957D01*
X0297420Y0214973D01*
X0295877Y0216515D01*
X0295031Y0216866D01*
X0295877Y0217217D01*
X0297420Y0218760D01*
X0298255Y0220775D01*
X0298255Y0222957D01*
X0297420Y0224973D01*
X0295877Y0226515D01*
X0295031Y0226866D01*
X0295877Y0227217D01*
X0297420Y0228760D01*
X0298255Y0230775D01*
X0298255Y0232957D01*
X0297420Y0234973D01*
X0296810Y0235583D01*
X0343623Y0235583D01*
X0342651Y0233899D01*
X0341882Y0231029D01*
X0341882Y0228058D01*
X0342651Y0225188D01*
X0344136Y0222615D01*
X0346237Y0220514D01*
X0348810Y0219029D01*
X0350813Y0218492D01*
X0346800Y0218492D01*
X0344784Y0217657D01*
X0343241Y0216114D01*
X0342406Y0214099D01*
X0342406Y0211917D01*
X0343241Y0209901D01*
X0344784Y0208359D01*
X0345631Y0208008D01*
X0344784Y0207657D01*
X0343241Y0206114D01*
X0342406Y0204099D01*
X0342406Y0201917D01*
X0343241Y0199901D01*
X0344784Y0198359D01*
X0345631Y0198008D01*
X0344784Y0197657D01*
X0343241Y0196114D01*
X0342406Y0194099D01*
X0342406Y0191917D01*
X0343241Y0189901D01*
X0344784Y0188359D01*
X0345631Y0188008D01*
X0344784Y0187657D01*
X0343241Y0186114D01*
X0342406Y0184099D01*
X0342406Y0181917D01*
X0343241Y0179901D01*
X0344784Y0178359D01*
X0345631Y0178008D01*
X0344784Y0177657D01*
X0343241Y0176114D01*
X0342406Y0174099D01*
X0342406Y0171917D01*
X0343241Y0169901D01*
X0344784Y0168359D01*
X0345631Y0168008D01*
X0344784Y0167657D01*
X0343241Y0166114D01*
X0342406Y0164099D01*
X0342406Y0161917D01*
X0343241Y0159901D01*
X0344784Y0158359D01*
X0345384Y0158110D01*
X0344911Y0157869D01*
X0344188Y0157344D01*
X0343555Y0156711D01*
X0343029Y0155987D01*
X0342623Y0155190D01*
X0342346Y0154339D01*
X0342206Y0153455D01*
X0342206Y0153024D01*
X0351575Y0153024D01*
X0351575Y0152992D01*
X0351606Y0152992D01*
X0351606Y0147324D01*
X0355738Y0147324D01*
X0356622Y0147464D01*
X0357473Y0147740D01*
X0358270Y0148146D01*
X0358994Y0148672D01*
X0359008Y0148686D01*
X0359008Y0054916D01*
X0356761Y0057162D01*
X0354780Y0057162D01*
X0354780Y0052378D01*
X0354779Y0052378D01*
X0354779Y0052378D01*
X0349995Y0052378D01*
X0349995Y0054360D01*
X0352798Y0057162D01*
X0354779Y0057162D01*
X0354779Y0052378D01*
X0349995Y0052378D01*
X0349995Y0050396D01*
X0352798Y0047594D01*
X0354779Y0047594D01*
X0354779Y0052378D01*
X0354780Y0052378D01*
X0354780Y0047594D01*
X0356761Y0047594D01*
X0359008Y0049840D01*
X0359008Y0022270D01*
X0357521Y0023129D01*
X0354651Y0023898D01*
X0351680Y0023898D01*
X0348810Y0023129D01*
X0346237Y0021643D01*
X0344136Y0019542D01*
X0342651Y0016969D01*
X0341882Y0014100D01*
X0341882Y0011129D01*
X0342651Y0008259D01*
X0343464Y0006850D01*
X0023164Y0006850D01*
X0023522Y0007472D01*
X0024291Y0010341D01*
X0024291Y0013312D01*
X0023522Y0016182D01*
X0022037Y0018755D01*
X0019936Y0020856D01*
X0017363Y0022341D01*
X0014493Y0023110D01*
X0011522Y0023110D01*
X0008653Y0022341D01*
X0006968Y0021369D01*
X0006968Y0219774D01*
X0008259Y0219029D01*
X0011129Y0218260D01*
X0014100Y0218260D01*
X0016969Y0219029D01*
X0019542Y0220514D01*
X0021643Y0222615D01*
X0023129Y0225188D01*
X0023898Y0228058D01*
X0023898Y0231029D01*
X0023129Y0233899D01*
X0022156Y0235583D01*
X0180128Y0235583D01*
X0180099Y0235571D01*
X0178556Y0234028D01*
X0177721Y0232012D01*
X0177721Y0229830D01*
X0178556Y0227815D01*
X0178622Y0227749D01*
X0135522Y0184649D01*
X0135128Y0183699D01*
X0135128Y0140948D01*
X0132791Y0138611D01*
X0122702Y0138611D01*
X0121657Y0137566D01*
X0121657Y0124474D01*
X0122702Y0123428D01*
X0134810Y0123428D01*
X0135855Y0124474D01*
X0135855Y0134366D01*
X0137589Y0136100D01*
X0137589Y0122285D01*
X0122543Y0122285D01*
X0116957Y0127870D01*
X0116957Y0137566D01*
X0115912Y0138611D01*
X0103804Y0138611D01*
X0102759Y0137566D01*
X0102759Y0124474D01*
X0103804Y0123428D01*
X0114090Y0123428D01*
X0119282Y0118237D01*
X0120009Y0117510D01*
X0120958Y0117117D01*
X0140687Y0117117D01*
X0141637Y0117510D01*
X0142364Y0118237D01*
X0142757Y0119187D01*
X0142757Y0123428D01*
X0153314Y0123428D01*
X0154359Y0124474D01*
X0154359Y0134169D01*
X0169577Y0149387D01*
X0169577Y0118790D01*
X0153941Y0118790D01*
X0153009Y0118404D01*
X0152296Y0117691D01*
X0151911Y0116760D01*
X0151911Y0112036D01*
X0141206Y0112036D01*
X0140161Y0110991D01*
X0140161Y0097899D01*
X0141206Y0096854D01*
X0144971Y0096854D01*
X0144971Y0096486D01*
X0143269Y0094785D01*
X0143269Y0091152D01*
X0145838Y0088584D01*
X0149470Y0088584D01*
X0151911Y0091025D01*
X0151911Y0070554D01*
X0148710Y0067353D01*
X0145838Y0067353D01*
X0143269Y0064785D01*
X0143269Y0061211D01*
X0142589Y0061211D01*
X0142589Y0064785D01*
X0140021Y0067353D01*
X0136389Y0067353D01*
X0133820Y0064785D01*
X0133820Y0061152D01*
X0135670Y0059302D01*
X0135670Y0058751D01*
X0131389Y0058751D01*
X0131389Y0059401D01*
X0133140Y0061152D01*
X0133140Y0064785D01*
X0130572Y0067353D01*
X0126940Y0067353D01*
X0124372Y0064785D01*
X0124372Y0061152D01*
X0126320Y0059204D01*
X0126320Y0056290D01*
X0122038Y0056290D01*
X0122038Y0059499D01*
X0123691Y0061152D01*
X0123691Y0064785D01*
X0121123Y0067353D01*
X0117491Y0067353D01*
X0114923Y0064785D01*
X0114923Y0061152D01*
X0116970Y0059106D01*
X0116970Y0053252D01*
X0117355Y0052320D01*
X0118068Y0051607D01*
X0119000Y0051222D01*
X0151996Y0051222D01*
X0152928Y0051607D01*
X0153641Y0052320D01*
X0163975Y0062655D01*
X0164361Y0063586D01*
X0164361Y0092568D01*
X0177800Y0106007D01*
X0179397Y0106007D01*
X0180442Y0107052D01*
X0180442Y0113095D01*
X0180759Y0112964D01*
X0182265Y0112964D01*
X0183655Y0113540D01*
X0183849Y0113733D01*
X0183849Y0064607D01*
X0182502Y0064607D01*
X0181457Y0063561D01*
X0181457Y0054183D01*
X0182502Y0053138D01*
X0182515Y0053138D01*
X0182372Y0052794D01*
X0182372Y0032409D01*
X0181749Y0031785D01*
X0181172Y0030394D01*
X0181172Y0028889D01*
X0181749Y0027498D01*
X0182813Y0026434D01*
X0184204Y0025857D01*
X0185709Y0025857D01*
X0187100Y0026434D01*
X0188165Y0027498D01*
X0188513Y0028338D01*
X0203530Y0028338D01*
X0204576Y0029383D01*
X0204576Y0038761D01*
X0203530Y0039807D01*
X0187541Y0039807D01*
X0187541Y0050433D01*
X0187897Y0050581D01*
X0188624Y0051308D01*
X0189017Y0052258D01*
X0189017Y0053138D01*
X0189880Y0053138D01*
X0190691Y0053949D01*
X0191502Y0053138D01*
X0196891Y0053138D01*
X0197038Y0052784D01*
X0198022Y0051800D01*
X0198749Y0051073D01*
X0199699Y0050680D01*
X0229762Y0050680D01*
X0230712Y0051073D01*
X0231439Y0051800D01*
X0231832Y0052750D01*
X0231832Y0080711D01*
X0233297Y0082176D01*
X0234845Y0082176D01*
X0236782Y0080238D01*
X0240414Y0080238D01*
X0242983Y0082806D01*
X0242983Y0086438D01*
X0240414Y0089006D01*
X0236782Y0089006D01*
X0235120Y0087344D01*
X0233022Y0087344D01*
X0231359Y0089006D01*
X0227727Y0089006D01*
X0225159Y0086438D01*
X0225159Y0082806D01*
X0226664Y0081301D01*
X0226664Y0055848D01*
X0223598Y0055848D01*
X0225272Y0057522D01*
X0225272Y0059504D01*
X0225272Y0061486D01*
X0222470Y0064288D01*
X0220488Y0064288D01*
X0218506Y0064288D01*
X0215704Y0061486D01*
X0215704Y0059504D01*
X0220488Y0059504D01*
X0220488Y0059504D01*
X0220488Y0064288D01*
X0220488Y0059504D01*
X0220488Y0059504D01*
X0215704Y0059504D01*
X0215704Y0057522D01*
X0217378Y0055848D01*
X0209126Y0055848D01*
X0209126Y0058382D01*
X0204682Y0058382D01*
X0204682Y0059363D01*
X0209126Y0059363D01*
X0209126Y0063084D01*
X0208990Y0063588D01*
X0208729Y0064041D01*
X0208360Y0064410D01*
X0207907Y0064671D01*
X0207403Y0064807D01*
X0204682Y0064807D01*
X0204682Y0059363D01*
X0203701Y0059363D01*
X0203701Y0064807D01*
X0200980Y0064807D01*
X0200475Y0064671D01*
X0200023Y0064410D01*
X0199654Y0064041D01*
X0199578Y0063909D01*
X0198880Y0064607D01*
X0191502Y0064607D01*
X0190691Y0063796D01*
X0189880Y0064607D01*
X0189017Y0064607D01*
X0189017Y0109103D01*
X0189427Y0108694D01*
X0190358Y0108308D01*
X0195968Y0108308D01*
X0195968Y0107052D01*
X0196693Y0106327D01*
X0196428Y0105690D01*
X0196428Y0104184D01*
X0197004Y0102793D01*
X0198069Y0101729D01*
X0199460Y0101153D01*
X0200965Y0101153D01*
X0202356Y0101729D01*
X0203421Y0102793D01*
X0203997Y0104184D01*
X0203997Y0105690D01*
X0203421Y0107081D01*
X0203080Y0107422D01*
X0203080Y0111261D01*
X0221657Y0111261D01*
X0221414Y0111018D01*
X0220838Y0109627D01*
X0220838Y0108121D01*
X0221414Y0106730D01*
X0222478Y0105666D01*
X0223869Y0105090D01*
X0225375Y0105090D01*
X0226766Y0105666D01*
X0227206Y0106106D01*
X0227206Y0103941D01*
X0227592Y0103009D01*
X0228305Y0102296D01*
X0229236Y0101911D01*
X0256724Y0101911D01*
X0258672Y0099962D01*
X0262304Y0099962D01*
X0264872Y0102530D01*
X0264872Y0106162D01*
X0262304Y0108731D01*
X0258672Y0108731D01*
X0256921Y0106979D01*
X0241910Y0106979D01*
X0242383Y0108121D01*
X0242383Y0109627D01*
X0241807Y0111018D01*
X0241500Y0111324D01*
X0242983Y0112806D01*
X0242983Y0116438D01*
X0240414Y0119006D01*
X0236782Y0119006D01*
X0234214Y0116438D01*
X0234214Y0112806D01*
X0235696Y0111324D01*
X0235390Y0111018D01*
X0234814Y0109627D01*
X0234814Y0108121D01*
X0235287Y0106979D01*
X0232274Y0106979D01*
X0232274Y0111153D01*
X0233928Y0112806D01*
X0233928Y0116438D01*
X0231359Y0119006D01*
X0227727Y0119006D01*
X0225159Y0116438D01*
X0225159Y0116316D01*
X0225126Y0116330D01*
X0203080Y0116330D01*
X0203080Y0117149D01*
X0203144Y0117262D01*
X0203280Y0117766D01*
X0203280Y0118716D01*
X0201982Y0118716D01*
X0201983Y0118717D01*
X0203280Y0118717D01*
X0203280Y0119667D01*
X0203191Y0119996D01*
X0203280Y0120325D01*
X0203280Y0121276D01*
X0203280Y0122226D01*
X0203144Y0122730D01*
X0203080Y0122843D01*
X0203080Y0125263D01*
X0202034Y0126308D01*
X0197013Y0126308D01*
X0195968Y0125263D01*
X0195968Y0122843D01*
X0195903Y0122730D01*
X0195768Y0122226D01*
X0195768Y0121276D01*
X0197065Y0121276D01*
X0197064Y0121276D01*
X0195768Y0121276D01*
X0195768Y0120325D01*
X0195856Y0119996D01*
X0195836Y0119922D01*
X0195552Y0120040D01*
X0194046Y0120040D01*
X0193396Y0119771D01*
X0193396Y0128694D01*
X0194070Y0129368D01*
X0194646Y0130759D01*
X0194646Y0132265D01*
X0194070Y0133655D01*
X0193006Y0134720D01*
X0191615Y0135296D01*
X0190109Y0135296D01*
X0188719Y0134720D01*
X0187654Y0133655D01*
X0187078Y0132265D01*
X0187078Y0130759D01*
X0187654Y0129368D01*
X0188328Y0128694D01*
X0188328Y0118722D01*
X0188132Y0119196D01*
X0187640Y0119688D01*
X0187541Y0119787D01*
X0187541Y0123660D01*
X0187148Y0124610D01*
X0186655Y0125102D01*
X0185928Y0125829D01*
X0184979Y0126222D01*
X0184096Y0126222D01*
X0184096Y0127597D01*
X0183703Y0128547D01*
X0183210Y0129039D01*
X0182484Y0129766D01*
X0181534Y0130159D01*
X0174746Y0130159D01*
X0174746Y0164853D01*
X0179098Y0164853D01*
X0178870Y0164624D01*
X0178344Y0163900D01*
X0177938Y0163103D01*
X0177661Y0162252D01*
X0177521Y0161369D01*
X0177521Y0161037D01*
X0186790Y0161037D01*
X0186790Y0160805D01*
X0187021Y0160805D01*
X0187021Y0155237D01*
X0191053Y0155237D01*
X0191937Y0155377D01*
X0192787Y0155653D01*
X0193585Y0156060D01*
X0194309Y0156586D01*
X0194941Y0157218D01*
X0195467Y0157942D01*
X0195873Y0158739D01*
X0196150Y0159590D01*
X0196290Y0160474D01*
X0196290Y0160805D01*
X0187021Y0160805D01*
X0187021Y0161037D01*
X0196290Y0161037D01*
X0196290Y0161369D01*
X0196150Y0162252D01*
X0195873Y0163103D01*
X0195467Y0163900D01*
X0194941Y0164624D01*
X0194309Y0165257D01*
X0193585Y0165783D01*
X0193112Y0166024D01*
X0193712Y0166272D01*
X0195255Y0167815D01*
X0196090Y0169830D01*
X0196090Y0172012D01*
X0195255Y0174028D01*
X0193712Y0175571D01*
X0192865Y0175921D01*
X0193712Y0176272D01*
X0195255Y0177815D01*
X0196090Y0179830D01*
X0196090Y0182012D01*
X0195255Y0184028D01*
X0193712Y0185571D01*
X0192865Y0185921D01*
X0193712Y0186272D01*
X0195255Y0187815D01*
X0196090Y0189830D01*
X0196090Y0192012D01*
X0195255Y0194028D01*
X0193712Y0195571D01*
X0192865Y0195921D01*
X0193712Y0196272D01*
X0195255Y0197815D01*
X0196090Y0199830D01*
X0196090Y0202012D01*
X0195255Y0204028D01*
X0193712Y0205571D01*
X0192865Y0205921D01*
X0193712Y0206272D01*
X0195255Y0207815D01*
X0196090Y0209830D01*
X0196090Y0212012D01*
X0195255Y0214028D01*
X0193712Y0215571D01*
X0192865Y0215921D01*
X0193712Y0216272D01*
X0195255Y0217815D01*
X0196090Y0219830D01*
X0196090Y0222012D01*
X0195255Y0224028D01*
X0193712Y0225571D01*
X0192865Y0225921D01*
X0193712Y0226272D01*
X0195255Y0227815D01*
X0196090Y0229830D01*
X0196090Y0232012D01*
X0195255Y0234028D01*
X0193712Y0235571D01*
X0193683Y0235583D01*
X0239848Y0235583D01*
X0238069Y0233804D01*
X0238069Y0231906D01*
X0242653Y0231906D01*
X0242653Y0231905D01*
X0238069Y0231905D01*
X0238069Y0230007D01*
X0240304Y0227772D01*
X0238069Y0225537D01*
X0238069Y0223638D01*
X0242653Y0223638D01*
X0242653Y0223638D01*
X0242653Y0228222D01*
X0242653Y0231905D01*
X0242654Y0231905D01*
X0242654Y0231906D01*
X0247238Y0231906D01*
X0247238Y0233804D01*
X0245459Y0235583D01*
X0250130Y0235583D01*
X0248269Y0233722D01*
X0248269Y0230089D01*
X0250587Y0227772D01*
X0248269Y0225454D01*
X0248269Y0221822D01*
X0250587Y0219504D01*
X0248269Y0217186D01*
X0248269Y0213554D01*
X0250784Y0211039D01*
X0248269Y0208525D01*
X0248269Y0204893D01*
X0250838Y0202324D01*
X0254470Y0202324D01*
X0257038Y0204893D01*
X0257038Y0207351D01*
X0262589Y0201800D01*
X0262589Y0143092D01*
X0262304Y0143376D01*
X0258672Y0143376D01*
X0256104Y0140808D01*
X0256104Y0137176D01*
X0258672Y0134608D01*
X0262304Y0134608D01*
X0262589Y0134893D01*
X0262589Y0131674D01*
X0262304Y0131959D01*
X0258672Y0131959D01*
X0256104Y0129391D01*
X0256104Y0125759D01*
X0258672Y0123191D01*
X0262304Y0123191D01*
X0262589Y0123475D01*
X0262589Y0120257D01*
X0262304Y0120542D01*
X0258672Y0120542D01*
X0256104Y0117973D01*
X0256104Y0114341D01*
X0258672Y0111773D01*
X0262304Y0111773D01*
X0264872Y0114341D01*
X0264872Y0116347D01*
X0276104Y0105115D01*
X0276104Y0102530D01*
X0278672Y0099962D01*
X0282304Y0099962D01*
X0284872Y0102530D01*
X0284872Y0106162D01*
X0282304Y0108731D01*
X0279798Y0108731D01*
X0267757Y0120771D01*
X0267757Y0125273D01*
X0276104Y0116926D01*
X0276104Y0114341D01*
X0278672Y0111773D01*
X0282304Y0111773D01*
X0284872Y0114341D01*
X0284872Y0117973D01*
X0282304Y0120542D01*
X0279798Y0120542D01*
X0270218Y0130122D01*
X0270218Y0217656D01*
X0269825Y0218606D01*
X0259601Y0228829D01*
X0280693Y0228829D01*
X0280722Y0228760D01*
X0282264Y0227217D01*
X0283111Y0226866D01*
X0282264Y0226515D01*
X0280722Y0224973D01*
X0279887Y0222957D01*
X0279887Y0220775D01*
X0280722Y0218760D01*
X0280787Y0218694D01*
X0277746Y0215653D01*
X0277353Y0214703D01*
X0277353Y0142057D01*
X0276104Y0140808D01*
X0276104Y0137176D01*
X0278672Y0134608D01*
X0282304Y0134608D01*
X0284872Y0137176D01*
X0284872Y0140808D01*
X0282521Y0143159D01*
X0282521Y0156939D01*
X0283189Y0156598D01*
X0284040Y0156322D01*
X0284923Y0156182D01*
X0288955Y0156182D01*
X0288955Y0161750D01*
X0289187Y0161750D01*
X0289187Y0156182D01*
X0293218Y0156182D01*
X0294102Y0156322D01*
X0294953Y0156598D01*
X0295561Y0156908D01*
X0295561Y0145870D01*
X0281651Y0131959D01*
X0278672Y0131959D01*
X0276104Y0129391D01*
X0276104Y0125759D01*
X0278672Y0123191D01*
X0282304Y0123191D01*
X0284872Y0125759D01*
X0284872Y0127871D01*
X0299610Y0142608D01*
X0300336Y0143335D01*
X0300730Y0144285D01*
X0300730Y0194526D01*
X0299487Y0196325D02*
X0315739Y0196325D01*
X0315739Y0198292D02*
X0297520Y0198292D01*
X0298041Y0200259D02*
X0315739Y0200259D01*
X0315739Y0202226D02*
X0298255Y0202226D01*
X0297743Y0204193D02*
X0315739Y0204193D01*
X0315739Y0206160D02*
X0296233Y0206160D01*
X0296788Y0208127D02*
X0315739Y0208127D01*
X0315739Y0210094D02*
X0297973Y0210094D01*
X0298255Y0212061D02*
X0315739Y0212061D01*
X0315739Y0214028D02*
X0297811Y0214028D01*
X0296398Y0215995D02*
X0315739Y0215995D01*
X0315739Y0217962D02*
X0296623Y0217962D01*
X0297905Y0219929D02*
X0315739Y0219929D01*
X0315739Y0221896D02*
X0298255Y0221896D01*
X0297880Y0223863D02*
X0316068Y0223863D01*
X0319487Y0225830D02*
X0296563Y0225830D01*
X0296458Y0227797D02*
X0319487Y0227797D01*
X0320486Y0229764D02*
X0297836Y0229764D01*
X0298255Y0231731D02*
X0342070Y0231731D01*
X0341882Y0229764D02*
X0337656Y0229764D01*
X0338655Y0228765D02*
X0335970Y0231450D01*
X0332172Y0231450D01*
X0329487Y0228765D01*
X0329487Y0224967D01*
X0332172Y0222282D01*
X0335970Y0222282D01*
X0338655Y0224967D01*
X0338655Y0228765D01*
X0338655Y0227797D02*
X0341952Y0227797D01*
X0342479Y0225830D02*
X0338655Y0225830D01*
X0337551Y0223863D02*
X0343416Y0223863D01*
X0344855Y0221896D02*
X0326549Y0221896D01*
X0327491Y0219929D02*
X0330651Y0219929D01*
X0329487Y0218765D02*
X0332172Y0221450D01*
X0335970Y0221450D01*
X0338655Y0218765D01*
X0338655Y0214967D01*
X0335970Y0212282D01*
X0332172Y0212282D01*
X0329487Y0214967D01*
X0329487Y0218765D01*
X0329487Y0217962D02*
X0328655Y0217962D01*
X0328655Y0215995D02*
X0329487Y0215995D01*
X0330426Y0214028D02*
X0327716Y0214028D01*
X0332172Y0211450D02*
X0329487Y0208765D01*
X0329487Y0204967D01*
X0332172Y0202282D01*
X0335970Y0202282D01*
X0338655Y0204967D01*
X0338655Y0208765D01*
X0335970Y0211450D01*
X0332172Y0211450D01*
X0330816Y0210094D02*
X0327326Y0210094D01*
X0328655Y0208127D02*
X0329487Y0208127D01*
X0329487Y0206160D02*
X0328655Y0206160D01*
X0327881Y0204193D02*
X0330261Y0204193D01*
X0332172Y0201450D02*
X0329487Y0198765D01*
X0329487Y0194967D01*
X0332172Y0192282D01*
X0335970Y0192282D01*
X0338655Y0194967D01*
X0338655Y0198765D01*
X0335970Y0201450D01*
X0332172Y0201450D01*
X0330981Y0200259D02*
X0327161Y0200259D01*
X0328655Y0198292D02*
X0329487Y0198292D01*
X0329487Y0196325D02*
X0328655Y0196325D01*
X0328046Y0194358D02*
X0330096Y0194358D01*
X0332063Y0192391D02*
X0326079Y0192391D01*
X0326996Y0190424D02*
X0331146Y0190424D01*
X0332172Y0191450D02*
X0329487Y0188765D01*
X0329487Y0184967D01*
X0332172Y0182282D01*
X0335970Y0182282D01*
X0338655Y0184967D01*
X0338655Y0188765D01*
X0335970Y0191450D01*
X0332172Y0191450D01*
X0336079Y0192391D02*
X0342406Y0192391D01*
X0342514Y0194358D02*
X0338046Y0194358D01*
X0338655Y0196325D02*
X0343452Y0196325D01*
X0344944Y0198292D02*
X0338655Y0198292D01*
X0337161Y0200259D02*
X0343093Y0200259D01*
X0342406Y0202226D02*
X0320907Y0202226D01*
X0320907Y0200259D02*
X0320981Y0200259D01*
X0320907Y0192391D02*
X0322063Y0192391D01*
X0321146Y0190424D02*
X0320907Y0190424D01*
X0328655Y0188457D02*
X0329487Y0188457D01*
X0329487Y0186490D02*
X0328655Y0186490D01*
X0328211Y0184523D02*
X0329931Y0184523D01*
X0331898Y0182556D02*
X0326244Y0182556D01*
X0326831Y0180589D02*
X0331311Y0180589D01*
X0332172Y0181450D02*
X0329487Y0178765D01*
X0329487Y0174967D01*
X0332172Y0172282D01*
X0335970Y0172282D01*
X0338655Y0174967D01*
X0338655Y0178765D01*
X0335970Y0181450D01*
X0332172Y0181450D01*
X0329487Y0178622D02*
X0328655Y0178622D01*
X0328655Y0176655D02*
X0329487Y0176655D01*
X0329766Y0174688D02*
X0328376Y0174688D01*
X0326409Y0172721D02*
X0331733Y0172721D01*
X0332172Y0171450D02*
X0329487Y0168765D01*
X0329487Y0164967D01*
X0332172Y0162282D01*
X0335970Y0162282D01*
X0338655Y0164967D01*
X0338655Y0168765D01*
X0335970Y0171450D01*
X0332172Y0171450D01*
X0331475Y0170754D02*
X0326666Y0170754D01*
X0328633Y0168787D02*
X0329508Y0168787D01*
X0329487Y0166820D02*
X0328655Y0166820D01*
X0328541Y0164853D02*
X0329601Y0164853D01*
X0331568Y0162886D02*
X0326574Y0162886D01*
X0326053Y0161650D02*
X0324071Y0161650D01*
X0324071Y0156866D01*
X0324071Y0156866D01*
X0328855Y0156866D01*
X0328855Y0154884D01*
X0326053Y0152082D01*
X0324071Y0152082D01*
X0324071Y0156866D01*
X0324071Y0156866D01*
X0328855Y0156866D01*
X0328855Y0158848D01*
X0326053Y0161650D01*
X0326784Y0160919D02*
X0331358Y0160919D01*
X0332089Y0161650D02*
X0329287Y0158848D01*
X0329287Y0156866D01*
X0329287Y0154884D01*
X0332089Y0152082D01*
X0334071Y0152082D01*
X0336053Y0152082D01*
X0338855Y0154884D01*
X0338855Y0156866D01*
X0334071Y0156866D01*
X0334071Y0156866D01*
X0334071Y0152082D01*
X0334071Y0156866D01*
X0334071Y0156866D01*
X0338855Y0156866D01*
X0338855Y0158848D01*
X0336053Y0161650D01*
X0334071Y0161650D01*
X0334071Y0156866D01*
X0329287Y0156866D01*
X0334071Y0156866D01*
X0334071Y0156866D01*
X0334071Y0156866D01*
X0334071Y0161650D01*
X0332089Y0161650D01*
X0334071Y0160919D02*
X0334071Y0160919D01*
X0334071Y0158952D02*
X0334071Y0158952D01*
X0334071Y0156985D02*
X0334071Y0156985D01*
X0334071Y0155018D02*
X0334071Y0155018D01*
X0334071Y0153051D02*
X0334071Y0153051D01*
X0337021Y0153051D02*
X0342206Y0153051D01*
X0342206Y0152992D02*
X0342206Y0152561D01*
X0342346Y0151677D01*
X0342623Y0150826D01*
X0343029Y0150029D01*
X0343555Y0149305D01*
X0344188Y0148672D01*
X0344911Y0148146D01*
X0345709Y0147740D01*
X0346559Y0147464D01*
X0347443Y0147324D01*
X0351575Y0147324D01*
X0351575Y0152992D01*
X0342206Y0152992D01*
X0342539Y0151084D02*
X0300730Y0151084D01*
X0300730Y0153051D02*
X0321120Y0153051D01*
X0322089Y0152082D02*
X0319287Y0154884D01*
X0319287Y0156866D01*
X0324071Y0156866D01*
X0324071Y0152082D01*
X0322089Y0152082D01*
X0324071Y0153051D02*
X0324071Y0153051D01*
X0324071Y0155018D02*
X0324071Y0155018D01*
X0324071Y0156866D02*
X0324071Y0156866D01*
X0324071Y0156866D01*
X0319287Y0156866D01*
X0319287Y0158848D01*
X0322089Y0161650D01*
X0324071Y0161650D01*
X0324071Y0156866D01*
X0324071Y0156985D02*
X0324071Y0156985D01*
X0324071Y0158952D02*
X0324071Y0158952D01*
X0324071Y0160919D02*
X0324071Y0160919D01*
X0321358Y0160919D02*
X0300730Y0160919D01*
X0300730Y0162886D02*
X0321568Y0162886D01*
X0319601Y0164853D02*
X0300730Y0164853D01*
X0300730Y0166820D02*
X0319487Y0166820D01*
X0316050Y0168787D02*
X0300730Y0168787D01*
X0300730Y0170754D02*
X0314688Y0170754D01*
X0314581Y0172721D02*
X0300730Y0172721D01*
X0289187Y0160919D02*
X0288955Y0160919D01*
X0288955Y0158952D02*
X0289187Y0158952D01*
X0289187Y0156985D02*
X0288955Y0156985D01*
X0282521Y0155018D02*
X0295561Y0155018D01*
X0295561Y0153051D02*
X0282521Y0153051D01*
X0282521Y0151084D02*
X0295561Y0151084D01*
X0295561Y0149117D02*
X0282521Y0149117D01*
X0282521Y0147150D02*
X0295561Y0147150D01*
X0294874Y0145183D02*
X0282521Y0145183D01*
X0282521Y0143216D02*
X0292907Y0143216D01*
X0290940Y0141249D02*
X0284432Y0141249D01*
X0284872Y0139282D02*
X0288973Y0139282D01*
X0287006Y0137315D02*
X0284872Y0137315D01*
X0285039Y0135348D02*
X0283044Y0135348D01*
X0283072Y0133381D02*
X0270218Y0133381D01*
X0270218Y0135348D02*
X0277932Y0135348D01*
X0276104Y0137315D02*
X0270218Y0137315D01*
X0270218Y0139282D02*
X0276104Y0139282D01*
X0276544Y0141249D02*
X0270218Y0141249D01*
X0270218Y0143216D02*
X0277353Y0143216D01*
X0277353Y0145183D02*
X0270218Y0145183D01*
X0270218Y0147150D02*
X0277353Y0147150D01*
X0277353Y0149117D02*
X0270218Y0149117D01*
X0270218Y0151084D02*
X0277353Y0151084D01*
X0277353Y0153051D02*
X0270218Y0153051D01*
X0270218Y0155018D02*
X0277353Y0155018D01*
X0277353Y0156985D02*
X0270218Y0156985D01*
X0270218Y0158952D02*
X0277353Y0158952D01*
X0277353Y0160919D02*
X0270218Y0160919D01*
X0270218Y0162886D02*
X0277353Y0162886D01*
X0277353Y0164853D02*
X0270218Y0164853D01*
X0270218Y0166820D02*
X0277353Y0166820D01*
X0277353Y0168787D02*
X0270218Y0168787D01*
X0270218Y0170754D02*
X0277353Y0170754D01*
X0277353Y0172721D02*
X0270218Y0172721D01*
X0270218Y0174688D02*
X0277353Y0174688D01*
X0277353Y0176655D02*
X0270218Y0176655D01*
X0270218Y0178622D02*
X0277353Y0178622D01*
X0277353Y0180589D02*
X0270218Y0180589D01*
X0270218Y0182556D02*
X0277353Y0182556D01*
X0277353Y0184523D02*
X0270218Y0184523D01*
X0270218Y0186490D02*
X0277353Y0186490D01*
X0277353Y0188457D02*
X0270218Y0188457D01*
X0270218Y0190424D02*
X0277353Y0190424D01*
X0277353Y0192391D02*
X0270218Y0192391D01*
X0270218Y0194358D02*
X0277353Y0194358D01*
X0277353Y0196325D02*
X0270218Y0196325D01*
X0270218Y0198292D02*
X0277353Y0198292D01*
X0277353Y0200259D02*
X0270218Y0200259D01*
X0270218Y0202226D02*
X0277353Y0202226D01*
X0277353Y0204193D02*
X0270218Y0204193D01*
X0270218Y0206160D02*
X0277353Y0206160D01*
X0277353Y0208127D02*
X0270218Y0208127D01*
X0270218Y0210094D02*
X0277353Y0210094D01*
X0277353Y0212061D02*
X0270218Y0212061D01*
X0270218Y0214028D02*
X0277353Y0214028D01*
X0278089Y0215995D02*
X0270218Y0215995D01*
X0270091Y0217962D02*
X0280056Y0217962D01*
X0280237Y0219929D02*
X0268501Y0219929D01*
X0266534Y0221896D02*
X0279887Y0221896D01*
X0280262Y0223863D02*
X0264567Y0223863D01*
X0262600Y0225830D02*
X0281579Y0225830D01*
X0281684Y0227797D02*
X0260633Y0227797D01*
X0257038Y0224083D02*
X0265050Y0216071D01*
X0265050Y0206648D01*
X0257038Y0214660D01*
X0257038Y0217186D01*
X0254720Y0219504D01*
X0257038Y0221822D01*
X0257038Y0224083D01*
X0257038Y0223863D02*
X0257258Y0223863D01*
X0257038Y0221896D02*
X0259225Y0221896D01*
X0261192Y0219929D02*
X0255145Y0219929D01*
X0256262Y0217962D02*
X0263159Y0217962D01*
X0265050Y0215995D02*
X0257038Y0215995D01*
X0257670Y0214028D02*
X0265050Y0214028D01*
X0265050Y0212061D02*
X0259637Y0212061D01*
X0261604Y0210094D02*
X0265050Y0210094D01*
X0265050Y0208127D02*
X0263571Y0208127D01*
X0260195Y0204193D02*
X0256338Y0204193D01*
X0257038Y0206160D02*
X0258228Y0206160D01*
X0262163Y0202226D02*
X0244654Y0202226D01*
X0244552Y0202124D02*
X0247238Y0204810D01*
X0247238Y0206709D01*
X0247238Y0208608D01*
X0244806Y0211039D01*
X0247238Y0213471D01*
X0247238Y0215370D01*
X0242654Y0215370D01*
X0242654Y0215370D01*
X0247238Y0215370D01*
X0247238Y0217269D01*
X0245003Y0219504D01*
X0247238Y0221739D01*
X0247238Y0223638D01*
X0247238Y0225537D01*
X0245003Y0227772D01*
X0247238Y0230007D01*
X0247238Y0231905D01*
X0242654Y0231905D01*
X0242654Y0223638D01*
X0247238Y0223638D01*
X0242654Y0223638D01*
X0242654Y0223638D01*
X0242653Y0223638D01*
X0238069Y0223638D01*
X0238069Y0221739D01*
X0240304Y0219504D01*
X0238069Y0217269D01*
X0238069Y0215370D01*
X0238069Y0213471D01*
X0240501Y0211039D01*
X0238069Y0208608D01*
X0238069Y0206709D01*
X0242653Y0206709D01*
X0242653Y0206709D01*
X0242653Y0211293D01*
X0242653Y0215370D01*
X0238069Y0215370D01*
X0242653Y0215370D01*
X0242653Y0215370D01*
X0242654Y0215370D01*
X0242654Y0206709D01*
X0247238Y0206709D01*
X0242654Y0206709D01*
X0242654Y0206709D01*
X0242653Y0206709D01*
X0238069Y0206709D01*
X0238069Y0204810D01*
X0240755Y0202124D01*
X0242653Y0202124D01*
X0242653Y0206709D01*
X0242654Y0206709D01*
X0242654Y0202124D01*
X0244552Y0202124D01*
X0242654Y0202226D02*
X0242653Y0202226D01*
X0242653Y0204193D02*
X0242654Y0204193D01*
X0242653Y0206160D02*
X0242654Y0206160D01*
X0242653Y0208127D02*
X0242654Y0208127D01*
X0242653Y0210094D02*
X0242654Y0210094D01*
X0242653Y0212061D02*
X0242654Y0212061D01*
X0242653Y0214028D02*
X0242654Y0214028D01*
X0242653Y0215370D02*
X0242653Y0223638D01*
X0242654Y0223638D01*
X0242654Y0219054D01*
X0242654Y0215370D01*
X0242653Y0215370D01*
X0242653Y0215995D02*
X0242654Y0215995D01*
X0242653Y0217962D02*
X0242654Y0217962D01*
X0242653Y0219929D02*
X0242654Y0219929D01*
X0242653Y0221896D02*
X0242654Y0221896D01*
X0242653Y0223863D02*
X0242654Y0223863D01*
X0242653Y0225830D02*
X0242654Y0225830D01*
X0242653Y0227797D02*
X0242654Y0227797D01*
X0242653Y0229764D02*
X0242654Y0229764D01*
X0242653Y0231731D02*
X0242654Y0231731D01*
X0247238Y0231731D02*
X0248269Y0231731D01*
X0248269Y0233698D02*
X0247238Y0233698D01*
X0246995Y0229764D02*
X0248594Y0229764D01*
X0250561Y0227797D02*
X0245028Y0227797D01*
X0246944Y0225830D02*
X0248646Y0225830D01*
X0248269Y0223863D02*
X0247238Y0223863D01*
X0247238Y0221896D02*
X0248269Y0221896D01*
X0250162Y0219929D02*
X0245428Y0219929D01*
X0246544Y0217962D02*
X0249045Y0217962D01*
X0248269Y0215995D02*
X0247238Y0215995D01*
X0247238Y0214028D02*
X0248269Y0214028D01*
X0249762Y0212061D02*
X0245828Y0212061D01*
X0245751Y0210094D02*
X0249839Y0210094D01*
X0248269Y0208127D02*
X0247238Y0208127D01*
X0247238Y0206160D02*
X0248269Y0206160D01*
X0248969Y0204193D02*
X0246621Y0204193D01*
X0240653Y0202226D02*
X0196001Y0202226D01*
X0196090Y0200259D02*
X0262589Y0200259D01*
X0262589Y0198292D02*
X0195453Y0198292D01*
X0193765Y0196325D02*
X0262589Y0196325D01*
X0262589Y0194358D02*
X0194925Y0194358D01*
X0195933Y0192391D02*
X0262589Y0192391D01*
X0262589Y0190424D02*
X0196090Y0190424D01*
X0195521Y0188457D02*
X0262589Y0188457D01*
X0262589Y0186490D02*
X0193930Y0186490D01*
X0194760Y0184523D02*
X0262589Y0184523D01*
X0262589Y0182556D02*
X0195865Y0182556D01*
X0196090Y0180589D02*
X0262589Y0180589D01*
X0262589Y0178622D02*
X0195589Y0178622D01*
X0194095Y0176655D02*
X0262589Y0176655D01*
X0262589Y0174688D02*
X0194595Y0174688D01*
X0195796Y0172721D02*
X0262589Y0172721D01*
X0262589Y0170754D02*
X0196090Y0170754D01*
X0195658Y0168787D02*
X0262589Y0168787D01*
X0262589Y0166820D02*
X0194260Y0166820D01*
X0194713Y0164853D02*
X0262589Y0164853D01*
X0262589Y0162886D02*
X0195944Y0162886D01*
X0195942Y0158952D02*
X0262589Y0158952D01*
X0262589Y0160919D02*
X0187021Y0160919D01*
X0186790Y0160919D02*
X0174746Y0160919D01*
X0174746Y0162886D02*
X0177867Y0162886D01*
X0177521Y0160805D02*
X0177521Y0160474D01*
X0177661Y0159590D01*
X0177938Y0158739D01*
X0178344Y0157942D01*
X0178870Y0157218D01*
X0179502Y0156586D01*
X0180226Y0156060D01*
X0181024Y0155653D01*
X0181874Y0155377D01*
X0182758Y0155237D01*
X0186790Y0155237D01*
X0186790Y0160805D01*
X0177521Y0160805D01*
X0177869Y0158952D02*
X0174746Y0158952D01*
X0174746Y0156985D02*
X0179103Y0156985D01*
X0174746Y0155018D02*
X0262589Y0155018D01*
X0262589Y0156985D02*
X0194708Y0156985D01*
X0187021Y0156985D02*
X0186790Y0156985D01*
X0186790Y0158952D02*
X0187021Y0158952D01*
X0174746Y0153051D02*
X0262589Y0153051D01*
X0262589Y0151084D02*
X0174746Y0151084D01*
X0174746Y0149117D02*
X0262589Y0149117D01*
X0262589Y0147150D02*
X0174746Y0147150D01*
X0174746Y0145183D02*
X0262589Y0145183D01*
X0262589Y0143216D02*
X0262465Y0143216D01*
X0258511Y0143216D02*
X0174746Y0143216D01*
X0174746Y0141249D02*
X0256544Y0141249D01*
X0256104Y0139282D02*
X0174746Y0139282D01*
X0174746Y0137315D02*
X0256104Y0137315D01*
X0257932Y0135348D02*
X0174746Y0135348D01*
X0174746Y0133381D02*
X0187540Y0133381D01*
X0187078Y0131414D02*
X0174746Y0131414D01*
X0169577Y0131414D02*
X0154359Y0131414D01*
X0154359Y0133381D02*
X0169577Y0133381D01*
X0169577Y0135348D02*
X0155538Y0135348D01*
X0157505Y0137315D02*
X0169577Y0137315D01*
X0169577Y0139282D02*
X0159472Y0139282D01*
X0161439Y0141249D02*
X0169577Y0141249D01*
X0169577Y0143216D02*
X0163406Y0143216D01*
X0165373Y0145183D02*
X0169577Y0145183D01*
X0169577Y0147150D02*
X0167340Y0147150D01*
X0169307Y0149117D02*
X0169577Y0149117D01*
X0165931Y0153051D02*
X0142757Y0153051D01*
X0142757Y0155018D02*
X0167117Y0155018D01*
X0167117Y0154236D02*
X0151492Y0138611D01*
X0142757Y0138611D01*
X0142757Y0174733D01*
X0177760Y0209736D01*
X0178556Y0207815D01*
X0178710Y0207660D01*
X0167510Y0196460D01*
X0167117Y0195510D01*
X0167117Y0154236D01*
X0167117Y0156985D02*
X0142757Y0156985D01*
X0142757Y0158952D02*
X0167117Y0158952D01*
X0167117Y0160919D02*
X0142757Y0160919D01*
X0142757Y0162886D02*
X0167117Y0162886D01*
X0167117Y0164853D02*
X0142757Y0164853D01*
X0142757Y0166820D02*
X0167117Y0166820D01*
X0167117Y0168787D02*
X0142757Y0168787D01*
X0142757Y0170754D02*
X0167117Y0170754D01*
X0167117Y0172721D02*
X0142757Y0172721D01*
X0142757Y0174688D02*
X0167117Y0174688D01*
X0167117Y0176655D02*
X0144680Y0176655D01*
X0146647Y0178622D02*
X0167117Y0178622D01*
X0167117Y0180589D02*
X0148614Y0180589D01*
X0150581Y0182556D02*
X0167117Y0182556D01*
X0167117Y0184523D02*
X0152548Y0184523D01*
X0154515Y0186490D02*
X0167117Y0186490D01*
X0167117Y0188457D02*
X0156482Y0188457D01*
X0158449Y0190424D02*
X0167117Y0190424D01*
X0167117Y0192391D02*
X0160416Y0192391D01*
X0162383Y0194358D02*
X0167117Y0194358D01*
X0167454Y0196325D02*
X0164350Y0196325D01*
X0166317Y0198292D02*
X0169342Y0198292D01*
X0168284Y0200259D02*
X0171309Y0200259D01*
X0170251Y0202226D02*
X0173276Y0202226D01*
X0172218Y0204193D02*
X0175243Y0204193D01*
X0174185Y0206160D02*
X0177210Y0206160D01*
X0176152Y0208127D02*
X0178427Y0208127D01*
X0177858Y0199499D02*
X0178556Y0197815D01*
X0180099Y0196272D01*
X0180946Y0195921D01*
X0180099Y0195571D01*
X0178556Y0194028D01*
X0177721Y0192012D01*
X0177721Y0189830D01*
X0178556Y0187815D01*
X0180099Y0186272D01*
X0180946Y0185921D01*
X0180099Y0185571D01*
X0178556Y0184028D01*
X0177721Y0182012D01*
X0177721Y0179830D01*
X0178556Y0177815D01*
X0180099Y0176272D01*
X0180946Y0175921D01*
X0180099Y0175571D01*
X0178556Y0174028D01*
X0177721Y0172012D01*
X0177721Y0170021D01*
X0172285Y0170021D01*
X0172285Y0193926D01*
X0177858Y0199499D01*
X0178358Y0198292D02*
X0176651Y0198292D01*
X0174684Y0196325D02*
X0180046Y0196325D01*
X0178886Y0194358D02*
X0172717Y0194358D01*
X0172285Y0192391D02*
X0177878Y0192391D01*
X0177721Y0190424D02*
X0172285Y0190424D01*
X0172285Y0188457D02*
X0178290Y0188457D01*
X0179881Y0186490D02*
X0172285Y0186490D01*
X0172285Y0184523D02*
X0179051Y0184523D01*
X0177947Y0182556D02*
X0172285Y0182556D01*
X0172285Y0180589D02*
X0177721Y0180589D01*
X0178222Y0178622D02*
X0172285Y0178622D01*
X0172285Y0176655D02*
X0179716Y0176655D01*
X0179216Y0174688D02*
X0172285Y0174688D01*
X0172285Y0172721D02*
X0178015Y0172721D01*
X0177721Y0170754D02*
X0172285Y0170754D01*
X0163964Y0151084D02*
X0142757Y0151084D01*
X0142757Y0149117D02*
X0161997Y0149117D01*
X0160030Y0147150D02*
X0142757Y0147150D01*
X0142757Y0145183D02*
X0158063Y0145183D01*
X0156096Y0143216D02*
X0142757Y0143216D01*
X0142757Y0141249D02*
X0154129Y0141249D01*
X0152162Y0139282D02*
X0142757Y0139282D01*
X0137589Y0135348D02*
X0136837Y0135348D01*
X0137589Y0133381D02*
X0135855Y0133381D01*
X0135855Y0131414D02*
X0137589Y0131414D01*
X0137589Y0129447D02*
X0135855Y0129447D01*
X0135855Y0127480D02*
X0137589Y0127480D01*
X0137589Y0125513D02*
X0135855Y0125513D01*
X0134927Y0123545D02*
X0137589Y0123545D01*
X0142757Y0121578D02*
X0169577Y0121578D01*
X0169577Y0119611D02*
X0142757Y0119611D01*
X0141772Y0117644D02*
X0152277Y0117644D01*
X0151911Y0115677D02*
X0006968Y0115677D01*
X0006968Y0113710D02*
X0011134Y0113710D01*
X0011552Y0114129D02*
X0010122Y0112699D01*
X0009348Y0110830D01*
X0009348Y0108808D01*
X0010122Y0106939D01*
X0011552Y0105509D01*
X0013421Y0104735D01*
X0022044Y0104735D01*
X0023912Y0105509D01*
X0025342Y0106939D01*
X0026117Y0108808D01*
X0026117Y0110830D01*
X0025342Y0112699D01*
X0023912Y0114129D01*
X0022044Y0114903D01*
X0013421Y0114903D01*
X0011552Y0114129D01*
X0009726Y0111743D02*
X0006968Y0111743D01*
X0006968Y0109776D02*
X0009348Y0109776D01*
X0009761Y0107809D02*
X0006968Y0107809D01*
X0006968Y0105842D02*
X0011219Y0105842D01*
X0006968Y0103875D02*
X0083861Y0103875D01*
X0083861Y0101908D02*
X0006968Y0101908D01*
X0006968Y0099941D02*
X0083861Y0099941D01*
X0083861Y0097974D02*
X0023620Y0097974D01*
X0023802Y0097882D02*
X0023061Y0098259D01*
X0022270Y0098516D01*
X0021448Y0098646D01*
X0017848Y0098646D01*
X0017848Y0093478D01*
X0017617Y0093478D01*
X0017617Y0098646D01*
X0014016Y0098646D01*
X0013195Y0098516D01*
X0012404Y0098259D01*
X0011663Y0097882D01*
X0010990Y0097393D01*
X0010402Y0096805D01*
X0009913Y0096132D01*
X0009535Y0095391D01*
X0009278Y0094600D01*
X0009148Y0093778D01*
X0009148Y0093478D01*
X0017616Y0093478D01*
X0017616Y0093246D01*
X0009148Y0093246D01*
X0009148Y0092946D01*
X0009278Y0092125D01*
X0009535Y0091334D01*
X0009913Y0090593D01*
X0010402Y0089920D01*
X0010990Y0089332D01*
X0011663Y0088843D01*
X0012404Y0088465D01*
X0013195Y0088208D01*
X0014016Y0088078D01*
X0017617Y0088078D01*
X0017617Y0093246D01*
X0017848Y0093246D01*
X0017848Y0088078D01*
X0021448Y0088078D01*
X0022270Y0088208D01*
X0023061Y0088465D01*
X0023802Y0088843D01*
X0024475Y0089332D01*
X0025063Y0089920D01*
X0025552Y0090593D01*
X0025929Y0091334D01*
X0026186Y0092125D01*
X0026317Y0092946D01*
X0026317Y0093246D01*
X0017848Y0093246D01*
X0017848Y0093478D01*
X0026317Y0093478D01*
X0026317Y0093778D01*
X0026186Y0094600D01*
X0025929Y0095391D01*
X0025552Y0096132D01*
X0025063Y0096805D01*
X0024475Y0097393D01*
X0023802Y0097882D01*
X0025615Y0096007D02*
X0088376Y0096007D01*
X0088376Y0096854D02*
X0088376Y0092612D01*
X0088770Y0091662D01*
X0089497Y0090935D01*
X0090447Y0090542D01*
X0115534Y0090542D01*
X0117491Y0088584D01*
X0121123Y0088584D01*
X0123180Y0090641D01*
X0123419Y0090542D01*
X0124982Y0090542D01*
X0126940Y0088584D01*
X0130572Y0088584D01*
X0133140Y0091152D01*
X0133140Y0094536D01*
X0133820Y0093856D01*
X0133820Y0091152D01*
X0136389Y0088584D01*
X0140021Y0088584D01*
X0142589Y0091152D01*
X0142589Y0094785D01*
X0140021Y0097353D01*
X0137633Y0097353D01*
X0135855Y0099130D01*
X0135855Y0110991D01*
X0134810Y0112036D01*
X0122702Y0112036D01*
X0121657Y0110991D01*
X0121657Y0100533D01*
X0116957Y0105233D01*
X0116957Y0110991D01*
X0115912Y0112036D01*
X0103804Y0112036D01*
X0102759Y0110991D01*
X0102759Y0097899D01*
X0103804Y0096854D01*
X0115912Y0096854D01*
X0116957Y0097899D01*
X0116957Y0097923D01*
X0117528Y0097353D01*
X0117491Y0097353D01*
X0115849Y0095710D01*
X0093545Y0095710D01*
X0093545Y0096854D01*
X0097015Y0096854D01*
X0098060Y0097899D01*
X0098060Y0110991D01*
X0097015Y0112036D01*
X0084907Y0112036D01*
X0083861Y0110991D01*
X0083861Y0097899D01*
X0084907Y0096854D01*
X0088376Y0096854D01*
X0088376Y0094040D02*
X0026275Y0094040D01*
X0026170Y0092073D02*
X0088600Y0092073D01*
X0093545Y0096007D02*
X0116146Y0096007D01*
X0115969Y0090106D02*
X0025198Y0090106D01*
X0021835Y0088139D02*
X0151911Y0088139D01*
X0151911Y0086172D02*
X0006968Y0086172D01*
X0006968Y0084205D02*
X0151911Y0084205D01*
X0151911Y0082238D02*
X0024347Y0082238D01*
X0023912Y0082672D02*
X0025342Y0081242D01*
X0026117Y0079374D01*
X0026117Y0077351D01*
X0025342Y0075482D01*
X0023912Y0074052D01*
X0022044Y0073278D01*
X0013421Y0073278D01*
X0011552Y0074052D01*
X0010122Y0075482D01*
X0009348Y0077351D01*
X0009348Y0079374D01*
X0010122Y0081242D01*
X0011552Y0082672D01*
X0013421Y0083446D01*
X0022044Y0083446D01*
X0023912Y0082672D01*
X0025745Y0080271D02*
X0151911Y0080271D01*
X0151911Y0078304D02*
X0026117Y0078304D01*
X0025697Y0076337D02*
X0151911Y0076337D01*
X0151911Y0074370D02*
X0024230Y0074370D01*
X0022044Y0068446D02*
X0013421Y0068446D01*
X0011552Y0067672D01*
X0010122Y0066242D01*
X0009348Y0064374D01*
X0009348Y0062351D01*
X0010122Y0060482D01*
X0011552Y0059052D01*
X0013421Y0058278D01*
X0022044Y0058278D01*
X0023912Y0059052D01*
X0025342Y0060482D01*
X0026117Y0062351D01*
X0026117Y0064374D01*
X0025342Y0066242D01*
X0023912Y0067672D01*
X0022044Y0068446D01*
X0025083Y0066502D02*
X0116640Y0066502D01*
X0114923Y0064535D02*
X0026050Y0064535D01*
X0026117Y0062568D02*
X0114923Y0062568D01*
X0115474Y0060601D02*
X0025392Y0060601D01*
X0022903Y0058634D02*
X0116970Y0058634D01*
X0116970Y0056667D02*
X0006968Y0056667D01*
X0006968Y0058634D02*
X0012561Y0058634D01*
X0010073Y0060601D02*
X0006968Y0060601D01*
X0006968Y0062568D02*
X0009348Y0062568D01*
X0009415Y0064535D02*
X0006968Y0064535D01*
X0006968Y0066502D02*
X0010382Y0066502D01*
X0006968Y0068469D02*
X0149826Y0068469D01*
X0151793Y0070436D02*
X0006968Y0070436D01*
X0006968Y0072403D02*
X0151911Y0072403D01*
X0144987Y0066502D02*
X0140871Y0066502D01*
X0142589Y0064535D02*
X0143269Y0064535D01*
X0143269Y0062568D02*
X0142589Y0062568D01*
X0135538Y0066502D02*
X0131423Y0066502D01*
X0133140Y0064535D02*
X0133820Y0064535D01*
X0133820Y0062568D02*
X0133140Y0062568D01*
X0132589Y0060601D02*
X0134372Y0060601D01*
X0126320Y0058634D02*
X0122038Y0058634D01*
X0122038Y0056667D02*
X0126320Y0056667D01*
X0124923Y0060601D02*
X0123140Y0060601D01*
X0123691Y0062568D02*
X0124372Y0062568D01*
X0124372Y0064535D02*
X0123691Y0064535D01*
X0121974Y0066502D02*
X0126089Y0066502D01*
X0116970Y0054700D02*
X0006968Y0054700D01*
X0006968Y0052733D02*
X0117185Y0052733D01*
X0110686Y0029559D02*
X0108559Y0029559D01*
X0108559Y0024425D01*
X0108559Y0024425D01*
X0108559Y0019291D01*
X0106432Y0019291D01*
X0103425Y0022299D01*
X0103425Y0023278D01*
X0102742Y0021630D01*
X0101354Y0020242D01*
X0099541Y0019491D01*
X0097578Y0019491D01*
X0095764Y0020242D01*
X0094376Y0021630D01*
X0093625Y0023444D01*
X0093625Y0025407D01*
X0094376Y0027220D01*
X0095764Y0028608D01*
X0097578Y0029359D01*
X0099541Y0029359D01*
X0101354Y0028608D01*
X0102742Y0027220D01*
X0103425Y0025572D01*
X0103425Y0026552D01*
X0106432Y0029559D01*
X0108559Y0029559D01*
X0108559Y0024425D01*
X0108559Y0019291D01*
X0110686Y0019291D01*
X0113693Y0022299D01*
X0113693Y0024425D01*
X0108559Y0024425D01*
X0108559Y0024425D01*
X0113693Y0024425D01*
X0113693Y0026552D01*
X0110686Y0029559D01*
X0111116Y0029129D02*
X0181172Y0029129D01*
X0181463Y0031096D02*
X0052807Y0031096D01*
X0050840Y0033063D02*
X0182372Y0033063D01*
X0182372Y0035030D02*
X0048873Y0035030D01*
X0046906Y0036997D02*
X0182372Y0036997D01*
X0182372Y0038964D02*
X0070007Y0038964D01*
X0069194Y0038151D02*
X0071762Y0040719D01*
X0071762Y0044351D01*
X0069194Y0046920D01*
X0065562Y0046920D01*
X0062994Y0044351D01*
X0062994Y0040719D01*
X0065562Y0038151D01*
X0069194Y0038151D01*
X0071762Y0040931D02*
X0182372Y0040931D01*
X0182372Y0042898D02*
X0071762Y0042898D01*
X0071249Y0044865D02*
X0182372Y0044865D01*
X0182372Y0046832D02*
X0069282Y0046832D01*
X0065474Y0046832D02*
X0039282Y0046832D01*
X0039194Y0046920D02*
X0035562Y0046920D01*
X0032994Y0044351D01*
X0032994Y0040719D01*
X0035562Y0038151D01*
X0038442Y0038151D01*
X0051841Y0024752D01*
X0051343Y0023548D01*
X0051343Y0021366D01*
X0052177Y0019350D01*
X0053720Y0017807D01*
X0055736Y0016972D01*
X0057918Y0016972D01*
X0059933Y0017807D01*
X0061476Y0019350D01*
X0061724Y0019950D01*
X0061965Y0019477D01*
X0062491Y0018754D01*
X0063124Y0018121D01*
X0063848Y0017595D01*
X0064645Y0017189D01*
X0065496Y0016912D01*
X0066379Y0016772D01*
X0066827Y0016772D01*
X0067274Y0016772D01*
X0068158Y0016912D01*
X0069009Y0017189D01*
X0069806Y0017595D01*
X0070530Y0018121D01*
X0071162Y0018754D01*
X0071688Y0019477D01*
X0072095Y0020275D01*
X0072371Y0021126D01*
X0072511Y0022009D01*
X0072511Y0022457D01*
X0072511Y0022904D01*
X0072371Y0023788D01*
X0072095Y0024639D01*
X0071688Y0025436D01*
X0071162Y0026160D01*
X0070530Y0026792D01*
X0069806Y0027318D01*
X0069009Y0027724D01*
X0068158Y0028001D01*
X0067274Y0028141D01*
X0066827Y0028141D01*
X0066827Y0022457D01*
X0066827Y0022457D01*
X0072511Y0022457D01*
X0066827Y0022457D01*
X0066827Y0022457D01*
X0066827Y0028141D01*
X0066379Y0028141D01*
X0065496Y0028001D01*
X0064645Y0027724D01*
X0063848Y0027318D01*
X0063124Y0026792D01*
X0062491Y0026160D01*
X0061965Y0025436D01*
X0061724Y0024964D01*
X0061476Y0025563D01*
X0059933Y0027106D01*
X0057918Y0027941D01*
X0055962Y0027941D01*
X0041762Y0042140D01*
X0041762Y0044351D01*
X0039194Y0046920D01*
X0041249Y0044865D02*
X0063507Y0044865D01*
X0062994Y0042898D02*
X0041762Y0042898D01*
X0042972Y0040931D02*
X0062994Y0040931D01*
X0064749Y0038964D02*
X0044939Y0038964D01*
X0041564Y0035030D02*
X0006968Y0035030D01*
X0006968Y0036997D02*
X0039597Y0036997D01*
X0034749Y0038964D02*
X0006968Y0038964D01*
X0006968Y0040931D02*
X0032994Y0040931D01*
X0032994Y0042898D02*
X0006968Y0042898D01*
X0006968Y0044865D02*
X0033507Y0044865D01*
X0035474Y0046832D02*
X0006968Y0046832D01*
X0006968Y0048799D02*
X0182372Y0048799D01*
X0182372Y0050766D02*
X0006968Y0050766D01*
X0006968Y0033063D02*
X0043531Y0033063D01*
X0045498Y0031096D02*
X0006968Y0031096D01*
X0006968Y0029129D02*
X0047465Y0029129D01*
X0049432Y0027162D02*
X0006968Y0027162D01*
X0006968Y0025195D02*
X0051399Y0025195D01*
X0051343Y0023228D02*
X0006968Y0023228D01*
X0019235Y0021261D02*
X0051386Y0021261D01*
X0052234Y0019294D02*
X0021498Y0019294D01*
X0022862Y0017327D02*
X0054881Y0017327D01*
X0058773Y0017327D02*
X0064374Y0017327D01*
X0066827Y0017327D02*
X0066827Y0017327D01*
X0066827Y0016772D02*
X0066827Y0022457D01*
X0066827Y0022457D01*
X0066827Y0016772D01*
X0069279Y0017327D02*
X0294252Y0017327D01*
X0294144Y0017587D02*
X0294918Y0015718D01*
X0296348Y0014288D01*
X0298217Y0013514D01*
X0300240Y0013514D01*
X0302108Y0014288D01*
X0303539Y0015718D01*
X0304313Y0017587D01*
X0304313Y0019610D01*
X0303539Y0021478D01*
X0302108Y0022909D01*
X0300240Y0023683D01*
X0298217Y0023683D01*
X0296348Y0022909D01*
X0294918Y0021478D01*
X0294144Y0019610D01*
X0294144Y0017587D01*
X0294144Y0019294D02*
X0110688Y0019294D01*
X0108559Y0019294D02*
X0108559Y0019294D01*
X0108559Y0021261D02*
X0108559Y0021261D01*
X0108559Y0023228D02*
X0108559Y0023228D01*
X0108559Y0024425D02*
X0108559Y0024425D01*
X0108559Y0025195D02*
X0108559Y0025195D01*
X0108559Y0027162D02*
X0108559Y0027162D01*
X0108559Y0029129D02*
X0108559Y0029129D01*
X0106002Y0029129D02*
X0100097Y0029129D01*
X0097021Y0029129D02*
X0054774Y0029129D01*
X0059799Y0027162D02*
X0063632Y0027162D01*
X0061842Y0025195D02*
X0061629Y0025195D01*
X0066827Y0025195D02*
X0066827Y0025195D01*
X0066827Y0027162D02*
X0066827Y0027162D01*
X0070021Y0027162D02*
X0094352Y0027162D01*
X0093625Y0025195D02*
X0071811Y0025195D01*
X0072460Y0023228D02*
X0093714Y0023228D01*
X0094745Y0021261D02*
X0072392Y0021261D01*
X0071555Y0019294D02*
X0106430Y0019294D01*
X0104463Y0021261D02*
X0102373Y0021261D01*
X0103404Y0023228D02*
X0103425Y0023228D01*
X0104035Y0027162D02*
X0102766Y0027162D01*
X0113083Y0027162D02*
X0182085Y0027162D01*
X0187828Y0027162D02*
X0216347Y0027162D01*
X0215904Y0027605D02*
X0215904Y0031403D01*
X0218589Y0034088D01*
X0222387Y0034088D01*
X0225072Y0031403D01*
X0225072Y0027605D01*
X0222387Y0024920D01*
X0218589Y0024920D01*
X0215904Y0027605D01*
X0215904Y0029129D02*
X0204321Y0029129D01*
X0204576Y0031096D02*
X0215904Y0031096D01*
X0217564Y0033063D02*
X0204576Y0033063D01*
X0204576Y0035030D02*
X0359008Y0035030D01*
X0359008Y0036997D02*
X0204576Y0036997D01*
X0204373Y0038964D02*
X0359008Y0038964D01*
X0359008Y0040931D02*
X0187541Y0040931D01*
X0187541Y0042898D02*
X0359008Y0042898D01*
X0359008Y0044865D02*
X0187541Y0044865D01*
X0187541Y0046832D02*
X0359008Y0046832D01*
X0359008Y0048799D02*
X0357966Y0048799D01*
X0354780Y0048799D02*
X0354779Y0048799D01*
X0354779Y0050766D02*
X0354780Y0050766D01*
X0354779Y0052733D02*
X0354780Y0052733D01*
X0354779Y0054700D02*
X0354780Y0054700D01*
X0354779Y0056667D02*
X0354780Y0056667D01*
X0357256Y0056667D02*
X0359008Y0056667D01*
X0359008Y0058634D02*
X0304313Y0058634D01*
X0304313Y0059610D02*
X0303539Y0061478D01*
X0302108Y0062909D01*
X0300240Y0063683D01*
X0298217Y0063683D01*
X0296348Y0062909D01*
X0294918Y0061478D01*
X0294144Y0059610D01*
X0294144Y0057587D01*
X0294918Y0055718D01*
X0296348Y0054288D01*
X0298217Y0053514D01*
X0300240Y0053514D01*
X0302108Y0054288D01*
X0303539Y0055718D01*
X0304313Y0057587D01*
X0304313Y0059610D01*
X0303902Y0060601D02*
X0359008Y0060601D01*
X0359008Y0062568D02*
X0302449Y0062568D01*
X0303931Y0056667D02*
X0322585Y0056667D01*
X0322881Y0056962D02*
X0320195Y0054277D01*
X0320195Y0050479D01*
X0322881Y0047794D01*
X0326678Y0047794D01*
X0329364Y0050479D01*
X0329364Y0054277D01*
X0326678Y0056962D01*
X0322881Y0056962D01*
X0320618Y0054700D02*
X0302520Y0054700D01*
X0295937Y0054700D02*
X0231832Y0054700D01*
X0231832Y0056667D02*
X0294525Y0056667D01*
X0294144Y0058634D02*
X0231832Y0058634D01*
X0231832Y0060601D02*
X0294555Y0060601D01*
X0296008Y0062568D02*
X0231832Y0062568D01*
X0231832Y0064535D02*
X0359008Y0064535D01*
X0359008Y0066502D02*
X0231832Y0066502D01*
X0231832Y0068469D02*
X0359008Y0068469D01*
X0359008Y0070436D02*
X0231832Y0070436D01*
X0231832Y0072403D02*
X0359008Y0072403D01*
X0359008Y0074370D02*
X0231832Y0074370D01*
X0231832Y0076337D02*
X0359008Y0076337D01*
X0359008Y0078304D02*
X0231832Y0078304D01*
X0231832Y0080271D02*
X0236749Y0080271D01*
X0240448Y0080271D02*
X0359008Y0080271D01*
X0359008Y0082238D02*
X0242415Y0082238D01*
X0242983Y0084205D02*
X0359008Y0084205D01*
X0359008Y0086172D02*
X0242983Y0086172D01*
X0241281Y0088139D02*
X0359008Y0088139D01*
X0359008Y0090106D02*
X0189017Y0090106D01*
X0189017Y0088139D02*
X0205428Y0088139D01*
X0206735Y0089446D02*
X0203932Y0086643D01*
X0203932Y0084661D01*
X0203932Y0082680D01*
X0206735Y0079877D01*
X0208716Y0079877D01*
X0208716Y0084661D01*
X0203932Y0084661D01*
X0208716Y0084661D01*
X0208716Y0084661D01*
X0208717Y0084661D01*
X0208717Y0084661D01*
X0213501Y0084661D01*
X0213501Y0082680D01*
X0210698Y0079877D01*
X0208717Y0079877D01*
X0208717Y0084661D01*
X0213501Y0084661D01*
X0213501Y0086643D01*
X0210698Y0089446D01*
X0208717Y0089446D01*
X0208717Y0084662D01*
X0208716Y0084662D01*
X0208716Y0089446D01*
X0206735Y0089446D01*
X0208716Y0088139D02*
X0208717Y0088139D01*
X0208716Y0086172D02*
X0208717Y0086172D01*
X0208716Y0084205D02*
X0208717Y0084205D01*
X0208716Y0082238D02*
X0208717Y0082238D01*
X0208716Y0080271D02*
X0208717Y0080271D01*
X0211092Y0080271D02*
X0226664Y0080271D01*
X0226664Y0078304D02*
X0189017Y0078304D01*
X0189017Y0076337D02*
X0226664Y0076337D01*
X0226664Y0074370D02*
X0189017Y0074370D01*
X0189017Y0072403D02*
X0226664Y0072403D01*
X0226664Y0070436D02*
X0189017Y0070436D01*
X0189017Y0068469D02*
X0226664Y0068469D01*
X0226664Y0066502D02*
X0189017Y0066502D01*
X0189952Y0064535D02*
X0191431Y0064535D01*
X0198952Y0064535D02*
X0200239Y0064535D01*
X0203701Y0064535D02*
X0204682Y0064535D01*
X0204682Y0062568D02*
X0203701Y0062568D01*
X0203701Y0060601D02*
X0204682Y0060601D01*
X0204682Y0058634D02*
X0215704Y0058634D01*
X0215704Y0060601D02*
X0209126Y0060601D01*
X0209126Y0062568D02*
X0216786Y0062568D01*
X0220488Y0062568D02*
X0220488Y0062568D01*
X0220488Y0060601D02*
X0220488Y0060601D01*
X0220488Y0059504D02*
X0225272Y0059504D01*
X0220488Y0059504D01*
X0220488Y0059504D01*
X0224190Y0062568D02*
X0226664Y0062568D01*
X0226664Y0060601D02*
X0225272Y0060601D01*
X0225272Y0058634D02*
X0226664Y0058634D01*
X0226664Y0056667D02*
X0224417Y0056667D01*
X0216559Y0056667D02*
X0209126Y0056667D01*
X0208144Y0064535D02*
X0226664Y0064535D01*
X0231825Y0052733D02*
X0320195Y0052733D01*
X0320195Y0050766D02*
X0229971Y0050766D01*
X0223412Y0033063D02*
X0359008Y0033063D01*
X0359008Y0031096D02*
X0225072Y0031096D01*
X0225072Y0029129D02*
X0359008Y0029129D01*
X0359008Y0027162D02*
X0337830Y0027162D01*
X0337520Y0027320D02*
X0336773Y0027562D01*
X0335999Y0027685D01*
X0335622Y0027685D01*
X0335622Y0019717D01*
X0335591Y0019717D01*
X0335591Y0027685D01*
X0335214Y0027685D01*
X0334439Y0027562D01*
X0333693Y0027320D01*
X0332994Y0026964D01*
X0332359Y0026503D01*
X0331805Y0025948D01*
X0331343Y0025313D01*
X0330987Y0024614D01*
X0330745Y0023868D01*
X0330622Y0023093D01*
X0330622Y0019717D01*
X0335590Y0019717D01*
X0335590Y0019685D01*
X0330622Y0019685D01*
X0330622Y0016309D01*
X0330745Y0015534D01*
X0330987Y0014787D01*
X0331343Y0014088D01*
X0331805Y0013454D01*
X0332359Y0012899D01*
X0332994Y0012438D01*
X0333693Y0012082D01*
X0334439Y0011839D01*
X0335214Y0011717D01*
X0335591Y0011717D01*
X0335591Y0019685D01*
X0335622Y0019685D01*
X0335622Y0011717D01*
X0335999Y0011717D01*
X0336773Y0011839D01*
X0337520Y0012082D01*
X0338219Y0012438D01*
X0338853Y0012899D01*
X0339408Y0013454D01*
X0339869Y0014088D01*
X0340225Y0014787D01*
X0340468Y0015534D01*
X0340591Y0016309D01*
X0340591Y0019685D01*
X0335622Y0019685D01*
X0335622Y0019717D01*
X0340591Y0019717D01*
X0340591Y0023093D01*
X0340468Y0023868D01*
X0340225Y0024614D01*
X0339869Y0025313D01*
X0339408Y0025948D01*
X0338853Y0026503D01*
X0338219Y0026964D01*
X0337520Y0027320D01*
X0335622Y0027162D02*
X0335591Y0027162D01*
X0335591Y0025195D02*
X0335622Y0025195D01*
X0335591Y0023228D02*
X0335622Y0023228D01*
X0335591Y0021261D02*
X0335622Y0021261D01*
X0335062Y0019898D02*
X0335606Y0019701D01*
X0335591Y0019294D02*
X0335622Y0019294D01*
X0335591Y0017327D02*
X0335622Y0017327D01*
X0335591Y0015360D02*
X0335622Y0015360D01*
X0335591Y0013393D02*
X0335622Y0013393D01*
X0339347Y0013393D02*
X0341882Y0013393D01*
X0341882Y0011426D02*
X0024291Y0011426D01*
X0024270Y0013393D02*
X0312148Y0013393D01*
X0311550Y0013991D02*
X0312896Y0012645D01*
X0314655Y0011917D01*
X0316558Y0011917D01*
X0318316Y0012645D01*
X0319662Y0013991D01*
X0320391Y0015749D01*
X0320391Y0023652D01*
X0319662Y0025411D01*
X0318316Y0026757D01*
X0316558Y0027485D01*
X0314655Y0027485D01*
X0312896Y0026757D01*
X0311550Y0025411D01*
X0310822Y0023652D01*
X0310822Y0015749D01*
X0311550Y0013991D01*
X0310983Y0015360D02*
X0303180Y0015360D01*
X0304205Y0017327D02*
X0310822Y0017327D01*
X0310822Y0019294D02*
X0304313Y0019294D01*
X0303629Y0021261D02*
X0310822Y0021261D01*
X0310822Y0023228D02*
X0301338Y0023228D01*
X0297119Y0023228D02*
X0113693Y0023228D01*
X0113693Y0025195D02*
X0218314Y0025195D01*
X0222662Y0025195D02*
X0311461Y0025195D01*
X0313874Y0027162D02*
X0224629Y0027162D01*
X0199490Y0050766D02*
X0188082Y0050766D01*
X0187541Y0048799D02*
X0321875Y0048799D01*
X0327684Y0048799D02*
X0351593Y0048799D01*
X0349995Y0050766D02*
X0329364Y0050766D01*
X0329364Y0052733D02*
X0349995Y0052733D01*
X0350336Y0054700D02*
X0328941Y0054700D01*
X0326974Y0056667D02*
X0352303Y0056667D01*
X0333383Y0027162D02*
X0327830Y0027162D01*
X0327520Y0027320D02*
X0326773Y0027562D01*
X0325999Y0027685D01*
X0325622Y0027685D01*
X0325622Y0019717D01*
X0325591Y0019717D01*
X0325591Y0027685D01*
X0325214Y0027685D01*
X0324439Y0027562D01*
X0323693Y0027320D01*
X0322994Y0026964D01*
X0322359Y0026503D01*
X0321805Y0025948D01*
X0321343Y0025313D01*
X0320987Y0024614D01*
X0320745Y0023868D01*
X0320622Y0023093D01*
X0320622Y0019717D01*
X0325590Y0019717D01*
X0325590Y0019685D01*
X0320622Y0019685D01*
X0320622Y0016309D01*
X0320745Y0015534D01*
X0320987Y0014787D01*
X0321343Y0014088D01*
X0321805Y0013454D01*
X0322359Y0012899D01*
X0322994Y0012438D01*
X0323693Y0012082D01*
X0324439Y0011839D01*
X0325214Y0011717D01*
X0325591Y0011717D01*
X0325591Y0019685D01*
X0325622Y0019685D01*
X0325622Y0011717D01*
X0325999Y0011717D01*
X0326773Y0011839D01*
X0327520Y0012082D01*
X0328219Y0012438D01*
X0328853Y0012899D01*
X0329408Y0013454D01*
X0329869Y0014088D01*
X0330225Y0014787D01*
X0330468Y0015534D01*
X0330591Y0016309D01*
X0330591Y0019685D01*
X0325622Y0019685D01*
X0325622Y0019717D01*
X0330591Y0019717D01*
X0330591Y0023093D01*
X0330468Y0023868D01*
X0330225Y0024614D01*
X0329869Y0025313D01*
X0329408Y0025948D01*
X0328853Y0026503D01*
X0328219Y0026964D01*
X0327520Y0027320D01*
X0325622Y0027162D02*
X0325591Y0027162D01*
X0325591Y0025195D02*
X0325622Y0025195D01*
X0325591Y0023228D02*
X0325622Y0023228D01*
X0325591Y0021261D02*
X0325622Y0021261D01*
X0326065Y0019898D02*
X0325606Y0019701D01*
X0325591Y0019294D02*
X0325622Y0019294D01*
X0325591Y0017327D02*
X0325622Y0017327D01*
X0325591Y0015360D02*
X0325622Y0015360D01*
X0325591Y0013393D02*
X0325622Y0013393D01*
X0329347Y0013393D02*
X0331866Y0013393D01*
X0330801Y0015360D02*
X0330411Y0015360D01*
X0330591Y0017327D02*
X0330622Y0017327D01*
X0330591Y0019294D02*
X0330622Y0019294D01*
X0330591Y0021261D02*
X0330622Y0021261D01*
X0330569Y0023228D02*
X0330643Y0023228D01*
X0331283Y0025195D02*
X0329930Y0025195D01*
X0323383Y0027162D02*
X0317338Y0027162D01*
X0319752Y0025195D02*
X0321283Y0025195D01*
X0320643Y0023228D02*
X0320391Y0023228D01*
X0320391Y0021261D02*
X0320622Y0021261D01*
X0320622Y0019294D02*
X0320391Y0019294D01*
X0320391Y0017327D02*
X0320622Y0017327D01*
X0320801Y0015360D02*
X0320229Y0015360D01*
X0319064Y0013393D02*
X0321866Y0013393D01*
X0340411Y0015360D02*
X0342220Y0015360D01*
X0342857Y0017327D02*
X0340591Y0017327D01*
X0340591Y0019294D02*
X0343993Y0019294D01*
X0345855Y0021261D02*
X0340591Y0021261D01*
X0340569Y0023228D02*
X0349180Y0023228D01*
X0357151Y0023228D02*
X0359008Y0023228D01*
X0359008Y0025195D02*
X0339930Y0025195D01*
X0342329Y0009459D02*
X0024055Y0009459D01*
X0023528Y0007492D02*
X0343094Y0007492D01*
X0295277Y0015360D02*
X0023743Y0015360D01*
X0061420Y0019294D02*
X0062099Y0019294D01*
X0066827Y0019294D02*
X0066827Y0019294D01*
X0066827Y0021261D02*
X0066827Y0021261D01*
X0066827Y0023228D02*
X0066827Y0023228D01*
X0112655Y0021261D02*
X0294828Y0021261D01*
X0225727Y0082238D02*
X0213059Y0082238D01*
X0213501Y0084205D02*
X0225159Y0084205D01*
X0225159Y0086172D02*
X0213501Y0086172D01*
X0212005Y0088139D02*
X0226860Y0088139D01*
X0232226Y0088139D02*
X0235915Y0088139D01*
X0227233Y0103875D02*
X0203869Y0103875D01*
X0203934Y0105842D02*
X0222302Y0105842D01*
X0220967Y0107809D02*
X0203080Y0107809D01*
X0203080Y0109776D02*
X0220900Y0109776D01*
X0226942Y0105842D02*
X0227206Y0105842D01*
X0232274Y0107809D02*
X0234943Y0107809D01*
X0234876Y0109776D02*
X0232274Y0109776D01*
X0232865Y0111743D02*
X0235277Y0111743D01*
X0234214Y0113710D02*
X0233928Y0113710D01*
X0233928Y0115677D02*
X0234214Y0115677D01*
X0235421Y0117644D02*
X0232721Y0117644D01*
X0226365Y0117644D02*
X0203247Y0117644D01*
X0203280Y0119611D02*
X0257742Y0119611D01*
X0256104Y0117644D02*
X0241776Y0117644D01*
X0242983Y0115677D02*
X0256104Y0115677D01*
X0256735Y0113710D02*
X0242983Y0113710D01*
X0241920Y0111743D02*
X0269476Y0111743D01*
X0271443Y0109776D02*
X0242321Y0109776D01*
X0242253Y0107809D02*
X0257751Y0107809D01*
X0263226Y0107809D02*
X0273410Y0107809D01*
X0275377Y0105842D02*
X0264872Y0105842D01*
X0264872Y0103875D02*
X0276104Y0103875D01*
X0276726Y0101908D02*
X0264250Y0101908D01*
X0256726Y0101908D02*
X0202536Y0101908D01*
X0197890Y0101908D02*
X0189017Y0101908D01*
X0189017Y0099941D02*
X0359008Y0099941D01*
X0359008Y0097974D02*
X0189017Y0097974D01*
X0189017Y0096007D02*
X0359008Y0096007D01*
X0359008Y0094040D02*
X0189017Y0094040D01*
X0189017Y0092073D02*
X0359008Y0092073D01*
X0359008Y0101908D02*
X0284250Y0101908D01*
X0284872Y0103875D02*
X0359008Y0103875D01*
X0359008Y0105842D02*
X0284872Y0105842D01*
X0283226Y0107809D02*
X0359008Y0107809D01*
X0359008Y0109776D02*
X0278752Y0109776D01*
X0276785Y0111743D02*
X0359008Y0111743D01*
X0359008Y0113710D02*
X0284241Y0113710D01*
X0284872Y0115677D02*
X0359008Y0115677D01*
X0359008Y0117644D02*
X0284872Y0117644D01*
X0283234Y0119611D02*
X0359008Y0119611D01*
X0359008Y0121578D02*
X0278761Y0121578D01*
X0278317Y0123545D02*
X0276794Y0123545D01*
X0276350Y0125513D02*
X0274827Y0125513D01*
X0276104Y0127480D02*
X0272860Y0127480D01*
X0270893Y0129447D02*
X0276160Y0129447D01*
X0278127Y0131414D02*
X0270218Y0131414D01*
X0262589Y0133381D02*
X0194184Y0133381D01*
X0194646Y0131414D02*
X0258127Y0131414D01*
X0256160Y0129447D02*
X0194103Y0129447D01*
X0193396Y0127480D02*
X0256104Y0127480D01*
X0256350Y0125513D02*
X0202830Y0125513D01*
X0203080Y0123545D02*
X0258317Y0123545D01*
X0262589Y0121578D02*
X0203280Y0121578D01*
X0203280Y0121276D02*
X0201982Y0121276D01*
X0201983Y0121276D01*
X0203280Y0121276D01*
X0199524Y0121275D02*
X0199524Y0118818D01*
X0199524Y0118818D01*
X0199524Y0121275D01*
X0199524Y0121275D01*
X0199524Y0119611D02*
X0199524Y0119611D01*
X0195768Y0121578D02*
X0193396Y0121578D01*
X0193396Y0123545D02*
X0195968Y0123545D01*
X0196218Y0125513D02*
X0193396Y0125513D01*
X0188328Y0125513D02*
X0186245Y0125513D01*
X0187541Y0123545D02*
X0188328Y0123545D01*
X0188328Y0121578D02*
X0187541Y0121578D01*
X0187716Y0119611D02*
X0188328Y0119611D01*
X0183849Y0113710D02*
X0183826Y0113710D01*
X0183849Y0111743D02*
X0180442Y0111743D01*
X0180442Y0109776D02*
X0183849Y0109776D01*
X0183849Y0107809D02*
X0180442Y0107809D01*
X0177635Y0105842D02*
X0183849Y0105842D01*
X0183849Y0103875D02*
X0175668Y0103875D01*
X0173701Y0101908D02*
X0183849Y0101908D01*
X0183849Y0099941D02*
X0171734Y0099941D01*
X0169767Y0097974D02*
X0183849Y0097974D01*
X0183849Y0096007D02*
X0167800Y0096007D01*
X0165833Y0094040D02*
X0183849Y0094040D01*
X0183849Y0092073D02*
X0164361Y0092073D01*
X0164361Y0090106D02*
X0183849Y0090106D01*
X0183849Y0088139D02*
X0181722Y0088139D01*
X0180615Y0089246D02*
X0176818Y0089246D01*
X0174132Y0086560D01*
X0174132Y0082763D01*
X0176818Y0080077D01*
X0180615Y0080077D01*
X0183301Y0082763D01*
X0183301Y0086560D01*
X0180615Y0089246D01*
X0183301Y0086172D02*
X0183849Y0086172D01*
X0183849Y0084205D02*
X0183301Y0084205D01*
X0182776Y0082238D02*
X0183849Y0082238D01*
X0183849Y0080271D02*
X0180809Y0080271D01*
X0183849Y0078304D02*
X0164361Y0078304D01*
X0164361Y0076337D02*
X0183849Y0076337D01*
X0183849Y0074370D02*
X0164361Y0074370D01*
X0164361Y0072403D02*
X0183849Y0072403D01*
X0183849Y0070436D02*
X0164361Y0070436D01*
X0164361Y0068469D02*
X0183849Y0068469D01*
X0183849Y0066502D02*
X0164361Y0066502D01*
X0164361Y0064535D02*
X0182431Y0064535D01*
X0181457Y0062568D02*
X0163888Y0062568D01*
X0161921Y0060601D02*
X0181457Y0060601D01*
X0181457Y0058634D02*
X0159954Y0058634D01*
X0157987Y0056667D02*
X0181457Y0056667D01*
X0181457Y0054700D02*
X0156020Y0054700D01*
X0154053Y0052733D02*
X0182372Y0052733D01*
X0189017Y0052733D02*
X0197089Y0052733D01*
X0189017Y0080271D02*
X0206341Y0080271D01*
X0204374Y0082238D02*
X0189017Y0082238D01*
X0189017Y0084205D02*
X0203932Y0084205D01*
X0203932Y0086172D02*
X0189017Y0086172D01*
X0176624Y0080271D02*
X0164361Y0080271D01*
X0164361Y0082238D02*
X0174657Y0082238D01*
X0174132Y0084205D02*
X0164361Y0084205D01*
X0164361Y0086172D02*
X0174132Y0086172D01*
X0175711Y0088139D02*
X0164361Y0088139D01*
X0151911Y0090106D02*
X0150992Y0090106D01*
X0144316Y0090106D02*
X0141543Y0090106D01*
X0142589Y0092073D02*
X0143269Y0092073D01*
X0143269Y0094040D02*
X0142589Y0094040D01*
X0141366Y0096007D02*
X0144492Y0096007D01*
X0140161Y0097974D02*
X0137011Y0097974D01*
X0135855Y0099941D02*
X0140161Y0099941D01*
X0140161Y0101908D02*
X0135855Y0101908D01*
X0135855Y0103875D02*
X0140161Y0103875D01*
X0140161Y0105842D02*
X0135855Y0105842D01*
X0135855Y0107809D02*
X0140161Y0107809D01*
X0140161Y0109776D02*
X0135855Y0109776D01*
X0135103Y0111743D02*
X0140913Y0111743D01*
X0151911Y0113710D02*
X0024331Y0113710D01*
X0025738Y0111743D02*
X0084614Y0111743D01*
X0083861Y0109776D02*
X0026117Y0109776D01*
X0025703Y0107809D02*
X0083861Y0107809D01*
X0083861Y0105842D02*
X0024246Y0105842D01*
X0017848Y0097974D02*
X0017617Y0097974D01*
X0017617Y0096007D02*
X0017848Y0096007D01*
X0017848Y0094040D02*
X0017617Y0094040D01*
X0017617Y0092073D02*
X0017848Y0092073D01*
X0017848Y0090106D02*
X0017617Y0090106D01*
X0017617Y0088139D02*
X0017848Y0088139D01*
X0013630Y0088139D02*
X0006968Y0088139D01*
X0006968Y0090106D02*
X0010266Y0090106D01*
X0009295Y0092073D02*
X0006968Y0092073D01*
X0006968Y0094040D02*
X0009190Y0094040D01*
X0009849Y0096007D02*
X0006968Y0096007D01*
X0006968Y0097974D02*
X0011844Y0097974D01*
X0011118Y0082238D02*
X0006968Y0082238D01*
X0006968Y0080271D02*
X0009720Y0080271D01*
X0009348Y0078304D02*
X0006968Y0078304D01*
X0006968Y0076337D02*
X0009768Y0076337D01*
X0011234Y0074370D02*
X0006968Y0074370D01*
X0006968Y0117644D02*
X0119874Y0117644D01*
X0117907Y0119611D02*
X0006968Y0119611D01*
X0006968Y0121578D02*
X0010482Y0121578D01*
X0010122Y0121939D02*
X0011552Y0120509D01*
X0013421Y0119735D01*
X0022044Y0119735D01*
X0023912Y0120509D01*
X0025342Y0121939D01*
X0026117Y0123808D01*
X0026117Y0125830D01*
X0025342Y0127699D01*
X0023912Y0129129D01*
X0022044Y0129903D01*
X0013421Y0129903D01*
X0011552Y0129129D01*
X0010122Y0127699D01*
X0009348Y0125830D01*
X0009348Y0123808D01*
X0010122Y0121939D01*
X0009457Y0123545D02*
X0006968Y0123545D01*
X0006968Y0125513D02*
X0009348Y0125513D01*
X0010031Y0127480D02*
X0006968Y0127480D01*
X0006968Y0129447D02*
X0012319Y0129447D01*
X0013421Y0134735D02*
X0022044Y0134735D01*
X0023912Y0135509D01*
X0025342Y0136939D01*
X0026117Y0138808D01*
X0026117Y0140830D01*
X0025342Y0142699D01*
X0023912Y0144129D01*
X0022044Y0144903D01*
X0020660Y0144903D01*
X0020660Y0174261D01*
X0031440Y0185041D01*
X0033722Y0185041D01*
X0036290Y0187609D01*
X0036290Y0191241D01*
X0033722Y0193809D01*
X0030089Y0193809D01*
X0027521Y0191241D01*
X0027521Y0188290D01*
X0016690Y0177459D01*
X0015978Y0176747D01*
X0015592Y0175815D01*
X0015592Y0144903D01*
X0013421Y0144903D01*
X0011552Y0144129D01*
X0010122Y0142699D01*
X0009348Y0140830D01*
X0009348Y0138808D01*
X0010122Y0136939D01*
X0011552Y0135509D01*
X0013421Y0134735D01*
X0011941Y0135348D02*
X0006968Y0135348D01*
X0006968Y0137315D02*
X0009966Y0137315D01*
X0009348Y0139282D02*
X0006968Y0139282D01*
X0006968Y0141249D02*
X0009521Y0141249D01*
X0010639Y0143216D02*
X0006968Y0143216D01*
X0006968Y0145183D02*
X0015592Y0145183D01*
X0015592Y0147150D02*
X0006968Y0147150D01*
X0006968Y0149117D02*
X0015592Y0149117D01*
X0015592Y0151084D02*
X0006968Y0151084D01*
X0006968Y0153051D02*
X0015592Y0153051D01*
X0015592Y0155018D02*
X0006968Y0155018D01*
X0006968Y0156985D02*
X0015592Y0156985D01*
X0015592Y0158952D02*
X0006968Y0158952D01*
X0006968Y0160919D02*
X0015592Y0160919D01*
X0015592Y0162886D02*
X0006968Y0162886D01*
X0006968Y0164853D02*
X0015592Y0164853D01*
X0015592Y0166820D02*
X0006968Y0166820D01*
X0006968Y0168787D02*
X0015592Y0168787D01*
X0015592Y0170754D02*
X0006968Y0170754D01*
X0006968Y0172721D02*
X0015592Y0172721D01*
X0015592Y0174688D02*
X0006968Y0174688D01*
X0006968Y0176655D02*
X0015940Y0176655D01*
X0016690Y0177459D02*
X0016690Y0177459D01*
X0017853Y0178622D02*
X0006968Y0178622D01*
X0006968Y0180589D02*
X0019820Y0180589D01*
X0021787Y0182556D02*
X0006968Y0182556D01*
X0006968Y0184523D02*
X0023754Y0184523D01*
X0025721Y0186490D02*
X0006968Y0186490D01*
X0006968Y0188457D02*
X0027521Y0188457D01*
X0027521Y0190424D02*
X0006968Y0190424D01*
X0006968Y0192391D02*
X0028671Y0192391D01*
X0035140Y0192391D02*
X0044761Y0192391D01*
X0044088Y0191718D02*
X0044088Y0187133D01*
X0047330Y0183891D01*
X0051914Y0183891D01*
X0055156Y0187133D01*
X0055156Y0191718D01*
X0051914Y0194959D01*
X0047330Y0194959D01*
X0044088Y0191718D01*
X0044088Y0190424D02*
X0036290Y0190424D01*
X0036290Y0188457D02*
X0044088Y0188457D01*
X0044731Y0186490D02*
X0035171Y0186490D01*
X0030922Y0184523D02*
X0046698Y0184523D01*
X0052546Y0184523D02*
X0070431Y0184523D01*
X0070669Y0183948D02*
X0070002Y0185559D01*
X0070002Y0192504D01*
X0070669Y0194115D01*
X0071902Y0195348D01*
X0073514Y0196016D01*
X0075258Y0196016D01*
X0076869Y0195348D01*
X0078103Y0194115D01*
X0078770Y0192504D01*
X0078770Y0185559D01*
X0078103Y0183948D01*
X0076869Y0182715D01*
X0075258Y0182047D01*
X0073514Y0182047D01*
X0071902Y0182715D01*
X0070669Y0183948D01*
X0072286Y0182556D02*
X0028955Y0182556D01*
X0026988Y0180589D02*
X0135128Y0180589D01*
X0135128Y0182556D02*
X0106486Y0182556D01*
X0106869Y0182715D02*
X0108103Y0183948D01*
X0108770Y0185559D01*
X0108770Y0192504D01*
X0108103Y0194115D01*
X0106869Y0195348D01*
X0105258Y0196016D01*
X0103514Y0196016D01*
X0101902Y0195348D01*
X0100669Y0194115D01*
X0100002Y0192504D01*
X0100002Y0185559D01*
X0100669Y0183948D01*
X0101902Y0182715D01*
X0103514Y0182047D01*
X0105258Y0182047D01*
X0106869Y0182715D01*
X0108341Y0184523D02*
X0135470Y0184523D01*
X0137363Y0186490D02*
X0129587Y0186490D01*
X0130899Y0187802D02*
X0128214Y0185117D01*
X0124416Y0185117D01*
X0121731Y0187802D01*
X0121731Y0191600D01*
X0124416Y0194285D01*
X0128214Y0194285D01*
X0130899Y0191600D01*
X0130899Y0187802D01*
X0130899Y0188457D02*
X0139330Y0188457D01*
X0141297Y0190424D02*
X0130899Y0190424D01*
X0130108Y0192391D02*
X0143264Y0192391D01*
X0145231Y0194358D02*
X0107860Y0194358D01*
X0108770Y0192391D02*
X0122522Y0192391D01*
X0121731Y0190424D02*
X0108770Y0190424D01*
X0108770Y0188457D02*
X0121731Y0188457D01*
X0123043Y0186490D02*
X0108770Y0186490D01*
X0102286Y0182556D02*
X0096486Y0182556D01*
X0096869Y0182715D02*
X0098103Y0183948D01*
X0098770Y0185559D01*
X0098770Y0192504D01*
X0098103Y0194115D01*
X0096869Y0195348D01*
X0095258Y0196016D01*
X0094971Y0196016D01*
X0094971Y0222075D01*
X0094585Y0223006D01*
X0083759Y0233833D01*
X0083046Y0234546D01*
X0082114Y0234932D01*
X0050102Y0234932D01*
X0049171Y0234546D01*
X0048458Y0233833D01*
X0048072Y0232902D01*
X0048072Y0232264D01*
X0045592Y0229785D01*
X0045592Y0226152D01*
X0048160Y0223584D01*
X0048564Y0223584D01*
X0048564Y0214304D01*
X0045623Y0211363D01*
X0045623Y0206779D01*
X0048865Y0203537D01*
X0053450Y0203537D01*
X0056692Y0206779D01*
X0056692Y0211363D01*
X0053633Y0214422D01*
X0053633Y0225425D01*
X0054361Y0226152D01*
X0054361Y0229785D01*
X0054282Y0229863D01*
X0075392Y0229863D01*
X0075392Y0227969D01*
X0079976Y0227969D01*
X0079976Y0227968D01*
X0079976Y0227968D01*
X0079976Y0223384D01*
X0078078Y0223384D01*
X0075392Y0226070D01*
X0075392Y0227968D01*
X0079976Y0227968D01*
X0079976Y0223384D01*
X0081875Y0223384D01*
X0084457Y0225966D01*
X0089903Y0220521D01*
X0089903Y0190063D01*
X0090002Y0189824D01*
X0090002Y0185559D01*
X0090669Y0183948D01*
X0091902Y0182715D01*
X0093514Y0182047D01*
X0095258Y0182047D01*
X0096869Y0182715D01*
X0098341Y0184523D02*
X0100431Y0184523D01*
X0100002Y0186490D02*
X0098770Y0186490D01*
X0098770Y0188457D02*
X0100002Y0188457D01*
X0100002Y0190424D02*
X0098770Y0190424D01*
X0098770Y0192391D02*
X0100002Y0192391D01*
X0100912Y0194358D02*
X0097860Y0194358D01*
X0094971Y0196325D02*
X0147198Y0196325D01*
X0149165Y0198292D02*
X0094971Y0198292D01*
X0094971Y0200259D02*
X0151132Y0200259D01*
X0153099Y0202226D02*
X0094971Y0202226D01*
X0094971Y0204193D02*
X0155066Y0204193D01*
X0157033Y0206160D02*
X0094971Y0206160D01*
X0094971Y0208127D02*
X0159000Y0208127D01*
X0160967Y0210094D02*
X0094971Y0210094D01*
X0094971Y0212061D02*
X0162934Y0212061D01*
X0164901Y0214028D02*
X0094971Y0214028D01*
X0094971Y0215995D02*
X0166868Y0215995D01*
X0168835Y0217962D02*
X0094971Y0217962D01*
X0094971Y0219929D02*
X0170802Y0219929D01*
X0172769Y0221896D02*
X0094971Y0221896D01*
X0093729Y0223863D02*
X0174736Y0223863D01*
X0176703Y0225830D02*
X0091762Y0225830D01*
X0089795Y0227797D02*
X0178574Y0227797D01*
X0177749Y0229764D02*
X0087828Y0229764D01*
X0085860Y0231731D02*
X0177721Y0231731D01*
X0178420Y0233698D02*
X0083893Y0233698D01*
X0075392Y0229764D02*
X0054361Y0229764D01*
X0054361Y0227797D02*
X0075392Y0227797D01*
X0075631Y0225830D02*
X0054038Y0225830D01*
X0053633Y0223863D02*
X0077598Y0223863D01*
X0079976Y0223863D02*
X0079976Y0223863D01*
X0079976Y0225830D02*
X0079976Y0225830D01*
X0079976Y0227797D02*
X0079976Y0227797D01*
X0079977Y0227968D02*
X0082455Y0227968D01*
X0082455Y0227969D01*
X0079977Y0227969D01*
X0079977Y0227968D01*
X0082354Y0223863D02*
X0086561Y0223863D01*
X0088528Y0221896D02*
X0053633Y0221896D01*
X0053633Y0219929D02*
X0089903Y0219929D01*
X0089903Y0217962D02*
X0053633Y0217962D01*
X0053633Y0215995D02*
X0089903Y0215995D01*
X0089903Y0214028D02*
X0084310Y0214028D01*
X0083533Y0214805D02*
X0086892Y0211446D01*
X0086892Y0209071D01*
X0081158Y0209071D01*
X0081158Y0209071D01*
X0086892Y0209071D01*
X0086892Y0206696D01*
X0083533Y0203337D01*
X0081158Y0203337D01*
X0081158Y0209071D01*
X0081157Y0209071D01*
X0081157Y0209071D01*
X0075423Y0209071D01*
X0075423Y0211446D01*
X0078782Y0214805D01*
X0081157Y0214805D01*
X0081157Y0209071D01*
X0075423Y0209071D01*
X0075423Y0206696D01*
X0078782Y0203337D01*
X0081157Y0203337D01*
X0081157Y0209071D01*
X0081158Y0209071D01*
X0081158Y0214805D01*
X0083533Y0214805D01*
X0081158Y0214028D02*
X0081157Y0214028D01*
X0081157Y0212061D02*
X0081158Y0212061D01*
X0081157Y0210094D02*
X0081158Y0210094D01*
X0081157Y0208127D02*
X0081158Y0208127D01*
X0081157Y0206160D02*
X0081158Y0206160D01*
X0081157Y0204193D02*
X0081158Y0204193D01*
X0084389Y0204193D02*
X0089903Y0204193D01*
X0089903Y0202226D02*
X0006968Y0202226D01*
X0006968Y0200259D02*
X0089903Y0200259D01*
X0089903Y0198292D02*
X0006968Y0198292D01*
X0006968Y0196325D02*
X0089903Y0196325D01*
X0089903Y0194358D02*
X0087860Y0194358D01*
X0088103Y0194115D02*
X0086869Y0195348D01*
X0085258Y0196016D01*
X0083514Y0196016D01*
X0081902Y0195348D01*
X0080669Y0194115D01*
X0080002Y0192504D01*
X0080002Y0185559D01*
X0080669Y0183948D01*
X0081902Y0182715D01*
X0083514Y0182047D01*
X0085258Y0182047D01*
X0086869Y0182715D01*
X0088103Y0183948D01*
X0088770Y0185559D01*
X0088770Y0192504D01*
X0088103Y0194115D01*
X0088770Y0192391D02*
X0089903Y0192391D01*
X0089903Y0190424D02*
X0088770Y0190424D01*
X0088770Y0188457D02*
X0090002Y0188457D01*
X0090002Y0186490D02*
X0088770Y0186490D01*
X0088341Y0184523D02*
X0090431Y0184523D01*
X0092286Y0182556D02*
X0086486Y0182556D01*
X0082286Y0182556D02*
X0076486Y0182556D01*
X0078341Y0184523D02*
X0080431Y0184523D01*
X0080002Y0186490D02*
X0078770Y0186490D01*
X0078770Y0188457D02*
X0080002Y0188457D01*
X0080002Y0190424D02*
X0078770Y0190424D01*
X0078770Y0192391D02*
X0080002Y0192391D01*
X0080912Y0194358D02*
X0077860Y0194358D01*
X0070912Y0194358D02*
X0052516Y0194358D01*
X0054483Y0192391D02*
X0070002Y0192391D01*
X0070002Y0190424D02*
X0055156Y0190424D01*
X0055156Y0188457D02*
X0070002Y0188457D01*
X0070002Y0186490D02*
X0054513Y0186490D01*
X0046728Y0194358D02*
X0006968Y0194358D01*
X0006968Y0204193D02*
X0048209Y0204193D01*
X0046242Y0206160D02*
X0006968Y0206160D01*
X0006968Y0208127D02*
X0045623Y0208127D01*
X0045623Y0210094D02*
X0006968Y0210094D01*
X0006968Y0212061D02*
X0046321Y0212061D01*
X0048288Y0214028D02*
X0006968Y0214028D01*
X0006968Y0215995D02*
X0048564Y0215995D01*
X0048564Y0217962D02*
X0006968Y0217962D01*
X0018529Y0219929D02*
X0048564Y0219929D01*
X0048564Y0221896D02*
X0020924Y0221896D01*
X0022364Y0223863D02*
X0047881Y0223863D01*
X0045914Y0225830D02*
X0023301Y0225830D01*
X0023828Y0227797D02*
X0045592Y0227797D01*
X0045592Y0229764D02*
X0023898Y0229764D01*
X0023709Y0231731D02*
X0047539Y0231731D01*
X0048402Y0233698D02*
X0023182Y0233698D01*
X0054027Y0214028D02*
X0078005Y0214028D01*
X0076038Y0212061D02*
X0055994Y0212061D01*
X0056692Y0210094D02*
X0075423Y0210094D01*
X0075423Y0208127D02*
X0056692Y0208127D01*
X0056073Y0206160D02*
X0075959Y0206160D01*
X0077926Y0204193D02*
X0054106Y0204193D01*
X0086356Y0206160D02*
X0089903Y0206160D01*
X0089903Y0208127D02*
X0086892Y0208127D01*
X0086892Y0210094D02*
X0089903Y0210094D01*
X0089903Y0212061D02*
X0086277Y0212061D01*
X0084594Y0225830D02*
X0084321Y0225830D01*
X0135128Y0178622D02*
X0025021Y0178622D01*
X0023054Y0176655D02*
X0135128Y0176655D01*
X0135128Y0174688D02*
X0021087Y0174688D01*
X0020660Y0172721D02*
X0135128Y0172721D01*
X0135128Y0170754D02*
X0020660Y0170754D01*
X0020660Y0168787D02*
X0135128Y0168787D01*
X0135128Y0166820D02*
X0020660Y0166820D01*
X0020660Y0164853D02*
X0047223Y0164853D01*
X0047330Y0164959D02*
X0044088Y0161718D01*
X0044088Y0157133D01*
X0047330Y0153891D01*
X0051914Y0153891D01*
X0055156Y0157133D01*
X0055156Y0161718D01*
X0051914Y0164959D01*
X0047330Y0164959D01*
X0045256Y0162886D02*
X0034645Y0162886D01*
X0033722Y0163809D02*
X0030089Y0163809D01*
X0027521Y0161241D01*
X0027521Y0157609D01*
X0030089Y0155041D01*
X0033722Y0155041D01*
X0036290Y0157609D01*
X0036290Y0161241D01*
X0033722Y0163809D01*
X0036290Y0160919D02*
X0044088Y0160919D01*
X0044088Y0158952D02*
X0036290Y0158952D01*
X0035665Y0156985D02*
X0044236Y0156985D01*
X0046203Y0155018D02*
X0020660Y0155018D01*
X0020660Y0156985D02*
X0028146Y0156985D01*
X0027521Y0158952D02*
X0020660Y0158952D01*
X0020660Y0160919D02*
X0027521Y0160919D01*
X0029166Y0162886D02*
X0020660Y0162886D01*
X0020660Y0153051D02*
X0071566Y0153051D01*
X0071902Y0152715D02*
X0070669Y0153948D01*
X0070002Y0155559D01*
X0070002Y0162504D01*
X0070669Y0164115D01*
X0071902Y0165348D01*
X0073514Y0166016D01*
X0075258Y0166016D01*
X0076869Y0165348D01*
X0078103Y0164115D01*
X0078770Y0162504D01*
X0078770Y0155559D01*
X0078103Y0153948D01*
X0076869Y0152715D01*
X0075258Y0152047D01*
X0073514Y0152047D01*
X0071902Y0152715D01*
X0070226Y0155018D02*
X0053041Y0155018D01*
X0055008Y0156985D02*
X0070002Y0156985D01*
X0070002Y0158952D02*
X0055156Y0158952D01*
X0055156Y0160919D02*
X0070002Y0160919D01*
X0070160Y0162886D02*
X0053988Y0162886D01*
X0052021Y0164853D02*
X0071407Y0164853D01*
X0077365Y0164853D02*
X0081407Y0164853D01*
X0081902Y0165348D02*
X0080669Y0164115D01*
X0080002Y0162504D01*
X0080002Y0155559D01*
X0080669Y0153948D01*
X0081902Y0152715D01*
X0083514Y0152047D01*
X0085258Y0152047D01*
X0086869Y0152715D01*
X0088103Y0153948D01*
X0088770Y0155559D01*
X0088770Y0162504D01*
X0088103Y0164115D01*
X0086869Y0165348D01*
X0085258Y0166016D01*
X0083514Y0166016D01*
X0081902Y0165348D01*
X0080160Y0162886D02*
X0078612Y0162886D01*
X0078770Y0160919D02*
X0080002Y0160919D01*
X0080002Y0158952D02*
X0078770Y0158952D01*
X0078770Y0156985D02*
X0080002Y0156985D01*
X0080226Y0155018D02*
X0078546Y0155018D01*
X0077205Y0153051D02*
X0081566Y0153051D01*
X0087205Y0153051D02*
X0091566Y0153051D01*
X0091902Y0152715D02*
X0093514Y0152047D01*
X0095258Y0152047D01*
X0096869Y0152715D01*
X0098103Y0153948D01*
X0098770Y0155559D01*
X0098770Y0162504D01*
X0098103Y0164115D01*
X0096869Y0165348D01*
X0095258Y0166016D01*
X0093514Y0166016D01*
X0091902Y0165348D01*
X0090669Y0164115D01*
X0090002Y0162504D01*
X0090002Y0155559D01*
X0090669Y0153948D01*
X0091902Y0152715D01*
X0090226Y0155018D02*
X0088546Y0155018D01*
X0088770Y0156985D02*
X0090002Y0156985D01*
X0090002Y0158952D02*
X0088770Y0158952D01*
X0088770Y0160919D02*
X0090002Y0160919D01*
X0090160Y0162886D02*
X0088612Y0162886D01*
X0087365Y0164853D02*
X0091407Y0164853D01*
X0097365Y0164853D02*
X0101124Y0164853D01*
X0100889Y0164618D02*
X0100465Y0164034D01*
X0100137Y0163391D01*
X0099914Y0162705D01*
X0099802Y0161992D01*
X0099802Y0159032D01*
X0104386Y0159032D01*
X0104386Y0159032D01*
X0104386Y0166216D01*
X0104747Y0166216D01*
X0105459Y0166103D01*
X0106146Y0165880D01*
X0106788Y0165552D01*
X0107372Y0165128D01*
X0107882Y0164618D01*
X0108307Y0164034D01*
X0108634Y0163391D01*
X0108857Y0162705D01*
X0108970Y0161992D01*
X0108970Y0159032D01*
X0104386Y0159032D01*
X0104386Y0166216D01*
X0104025Y0166216D01*
X0103312Y0166103D01*
X0102626Y0165880D01*
X0101983Y0165552D01*
X0101399Y0165128D01*
X0100889Y0164618D01*
X0099973Y0162886D02*
X0098612Y0162886D01*
X0098770Y0160919D02*
X0099802Y0160919D01*
X0099802Y0159031D02*
X0099802Y0156071D01*
X0099914Y0155358D01*
X0100137Y0154672D01*
X0100465Y0154029D01*
X0100889Y0153445D01*
X0101399Y0152935D01*
X0101983Y0152511D01*
X0102626Y0152183D01*
X0103312Y0151960D01*
X0104025Y0151847D01*
X0104386Y0151847D01*
X0104747Y0151847D01*
X0105459Y0151960D01*
X0106146Y0152183D01*
X0106788Y0152511D01*
X0107372Y0152935D01*
X0107882Y0153445D01*
X0108307Y0154029D01*
X0108634Y0154672D01*
X0108857Y0155358D01*
X0108970Y0156071D01*
X0108970Y0159031D01*
X0104386Y0159031D01*
X0104386Y0151847D01*
X0104386Y0159031D01*
X0104386Y0159031D01*
X0104386Y0159032D01*
X0104386Y0159031D01*
X0099802Y0159031D01*
X0099802Y0158952D02*
X0098770Y0158952D01*
X0098770Y0156985D02*
X0099802Y0156985D01*
X0100025Y0155018D02*
X0098546Y0155018D01*
X0097205Y0153051D02*
X0101283Y0153051D01*
X0104386Y0153051D02*
X0104386Y0153051D01*
X0104386Y0155018D02*
X0104386Y0155018D01*
X0104386Y0156985D02*
X0104386Y0156985D01*
X0104386Y0158952D02*
X0104386Y0158952D01*
X0104386Y0160919D02*
X0104386Y0160919D01*
X0104386Y0162886D02*
X0104386Y0162886D01*
X0104386Y0164853D02*
X0104386Y0164853D01*
X0107648Y0164853D02*
X0135128Y0164853D01*
X0135128Y0162886D02*
X0129896Y0162886D01*
X0131099Y0161682D02*
X0128297Y0164485D01*
X0126315Y0164485D01*
X0126315Y0159701D01*
X0126315Y0159701D01*
X0126315Y0164485D01*
X0124333Y0164485D01*
X0121531Y0161682D01*
X0121531Y0159701D01*
X0126315Y0159701D01*
X0131099Y0159701D01*
X0131099Y0161682D01*
X0131099Y0160919D02*
X0135128Y0160919D01*
X0135128Y0158952D02*
X0131099Y0158952D01*
X0131099Y0159701D02*
X0126315Y0159701D01*
X0126315Y0159701D01*
X0126315Y0159701D01*
X0121531Y0159701D01*
X0121531Y0157719D01*
X0124333Y0154917D01*
X0126315Y0154917D01*
X0128297Y0154917D01*
X0131099Y0157719D01*
X0131099Y0159701D01*
X0130365Y0156985D02*
X0135128Y0156985D01*
X0135128Y0155018D02*
X0128398Y0155018D01*
X0126315Y0155018D02*
X0126315Y0155018D01*
X0126315Y0154917D02*
X0126315Y0159701D01*
X0126315Y0159701D01*
X0126315Y0154917D01*
X0126315Y0156985D02*
X0126315Y0156985D01*
X0126315Y0158952D02*
X0126315Y0158952D01*
X0126315Y0160919D02*
X0126315Y0160919D01*
X0126315Y0162886D02*
X0126315Y0162886D01*
X0122734Y0162886D02*
X0108798Y0162886D01*
X0108970Y0160919D02*
X0121531Y0160919D01*
X0121531Y0158952D02*
X0108970Y0158952D01*
X0108970Y0156985D02*
X0122265Y0156985D01*
X0124232Y0155018D02*
X0108747Y0155018D01*
X0107488Y0153051D02*
X0135128Y0153051D01*
X0135128Y0151084D02*
X0020660Y0151084D01*
X0020660Y0149117D02*
X0135128Y0149117D01*
X0135128Y0147150D02*
X0020660Y0147150D01*
X0020660Y0145183D02*
X0135128Y0145183D01*
X0135128Y0143216D02*
X0024826Y0143216D01*
X0025943Y0141249D02*
X0135128Y0141249D01*
X0133462Y0139282D02*
X0026117Y0139282D01*
X0025498Y0137315D02*
X0083861Y0137315D01*
X0083861Y0137566D02*
X0083861Y0134387D01*
X0082855Y0134804D01*
X0081350Y0134804D01*
X0079959Y0134228D01*
X0078894Y0133163D01*
X0078318Y0131772D01*
X0078318Y0130267D01*
X0078894Y0128876D01*
X0079959Y0127812D01*
X0081350Y0127235D01*
X0082855Y0127235D01*
X0083861Y0127652D01*
X0083861Y0124474D01*
X0084907Y0123428D01*
X0097015Y0123428D01*
X0098060Y0124474D01*
X0098060Y0137566D01*
X0097015Y0138611D01*
X0084907Y0138611D01*
X0083861Y0137566D01*
X0083861Y0135348D02*
X0023523Y0135348D01*
X0023146Y0129447D02*
X0078658Y0129447D01*
X0078318Y0131414D02*
X0006968Y0131414D01*
X0006968Y0133381D02*
X0079112Y0133381D01*
X0080760Y0127480D02*
X0025433Y0127480D01*
X0026117Y0125513D02*
X0083861Y0125513D01*
X0083861Y0127480D02*
X0083444Y0127480D01*
X0084789Y0123545D02*
X0026008Y0123545D01*
X0024982Y0121578D02*
X0115940Y0121578D01*
X0119315Y0125513D02*
X0121657Y0125513D01*
X0121657Y0127480D02*
X0117348Y0127480D01*
X0116957Y0129447D02*
X0121657Y0129447D01*
X0121657Y0131414D02*
X0116957Y0131414D01*
X0116957Y0133381D02*
X0121657Y0133381D01*
X0121657Y0135348D02*
X0116957Y0135348D01*
X0116957Y0137315D02*
X0121657Y0137315D01*
X0102759Y0137315D02*
X0098060Y0137315D01*
X0098060Y0135348D02*
X0102759Y0135348D01*
X0102759Y0133381D02*
X0098060Y0133381D01*
X0098060Y0131414D02*
X0102759Y0131414D01*
X0102759Y0129447D02*
X0098060Y0129447D01*
X0098060Y0127480D02*
X0102759Y0127480D01*
X0102759Y0125513D02*
X0098060Y0125513D01*
X0097132Y0123545D02*
X0103687Y0123545D01*
X0103511Y0111743D02*
X0097307Y0111743D01*
X0098060Y0109776D02*
X0102759Y0109776D01*
X0102759Y0107809D02*
X0098060Y0107809D01*
X0098060Y0105842D02*
X0102759Y0105842D01*
X0102759Y0103875D02*
X0098060Y0103875D01*
X0098060Y0101908D02*
X0102759Y0101908D01*
X0102759Y0099941D02*
X0098060Y0099941D01*
X0098060Y0097974D02*
X0102759Y0097974D01*
X0116957Y0105842D02*
X0121657Y0105842D01*
X0121657Y0103875D02*
X0118315Y0103875D01*
X0120282Y0101908D02*
X0121657Y0101908D01*
X0121657Y0107809D02*
X0116957Y0107809D01*
X0116957Y0109776D02*
X0121657Y0109776D01*
X0122409Y0111743D02*
X0116205Y0111743D01*
X0121282Y0123545D02*
X0122585Y0123545D01*
X0153431Y0123545D02*
X0169577Y0123545D01*
X0169577Y0125513D02*
X0154359Y0125513D01*
X0154359Y0127480D02*
X0169577Y0127480D01*
X0169577Y0129447D02*
X0154359Y0129447D01*
X0182803Y0129447D02*
X0187622Y0129447D01*
X0188328Y0127480D02*
X0184096Y0127480D01*
X0183210Y0129039D02*
X0183210Y0129039D01*
X0189017Y0107809D02*
X0195968Y0107809D01*
X0196492Y0105842D02*
X0189017Y0105842D01*
X0189017Y0103875D02*
X0196556Y0103875D01*
X0172933Y0108308D02*
X0161900Y0108308D01*
X0161900Y0097276D01*
X0172933Y0108308D01*
X0172434Y0107809D02*
X0161900Y0107809D01*
X0161900Y0105842D02*
X0170467Y0105842D01*
X0168500Y0103875D02*
X0161900Y0103875D01*
X0161900Y0101908D02*
X0166533Y0101908D01*
X0164566Y0099941D02*
X0161900Y0099941D01*
X0161900Y0097974D02*
X0162599Y0097974D01*
X0134867Y0090106D02*
X0132094Y0090106D01*
X0133140Y0092073D02*
X0133820Y0092073D01*
X0133636Y0094040D02*
X0133140Y0094040D01*
X0125418Y0090106D02*
X0122645Y0090106D01*
X0264241Y0113710D02*
X0267509Y0113710D01*
X0265542Y0115677D02*
X0264872Y0115677D01*
X0270884Y0117644D02*
X0275386Y0117644D01*
X0276104Y0115677D02*
X0272851Y0115677D01*
X0274818Y0113710D02*
X0276735Y0113710D01*
X0273419Y0119611D02*
X0268917Y0119611D01*
X0267757Y0121578D02*
X0271452Y0121578D01*
X0269485Y0123545D02*
X0267757Y0123545D01*
X0282659Y0123545D02*
X0359008Y0123545D01*
X0359008Y0125513D02*
X0284626Y0125513D01*
X0284872Y0127480D02*
X0359008Y0127480D01*
X0359008Y0129447D02*
X0286448Y0129447D01*
X0288415Y0131414D02*
X0359008Y0131414D01*
X0359008Y0133381D02*
X0290382Y0133381D01*
X0292349Y0135348D02*
X0359008Y0135348D01*
X0359008Y0137315D02*
X0294316Y0137315D01*
X0296283Y0139282D02*
X0359008Y0139282D01*
X0359008Y0141249D02*
X0298250Y0141249D01*
X0300217Y0143216D02*
X0359008Y0143216D01*
X0359008Y0145183D02*
X0300730Y0145183D01*
X0300730Y0147150D02*
X0359008Y0147150D01*
X0351606Y0149117D02*
X0351575Y0149117D01*
X0351575Y0151084D02*
X0351606Y0151084D01*
X0343743Y0149117D02*
X0300730Y0149117D01*
X0300730Y0155018D02*
X0319287Y0155018D01*
X0319287Y0156985D02*
X0300730Y0156985D01*
X0300730Y0158952D02*
X0319391Y0158952D01*
X0328751Y0158952D02*
X0329391Y0158952D01*
X0329287Y0156985D02*
X0328855Y0156985D01*
X0328855Y0155018D02*
X0329287Y0155018D01*
X0331120Y0153051D02*
X0327021Y0153051D01*
X0338855Y0155018D02*
X0342567Y0155018D01*
X0343829Y0156985D02*
X0338855Y0156985D01*
X0338751Y0158952D02*
X0344191Y0158952D01*
X0342820Y0160919D02*
X0336784Y0160919D01*
X0336574Y0162886D02*
X0342406Y0162886D01*
X0342719Y0164853D02*
X0338541Y0164853D01*
X0338655Y0166820D02*
X0343947Y0166820D01*
X0344356Y0168787D02*
X0338633Y0168787D01*
X0336666Y0170754D02*
X0342888Y0170754D01*
X0342406Y0172721D02*
X0336409Y0172721D01*
X0338376Y0174688D02*
X0342650Y0174688D01*
X0343782Y0176655D02*
X0338655Y0176655D01*
X0338655Y0178622D02*
X0344521Y0178622D01*
X0342956Y0180589D02*
X0336831Y0180589D01*
X0336244Y0182556D02*
X0342406Y0182556D01*
X0342582Y0184523D02*
X0338211Y0184523D01*
X0338655Y0186490D02*
X0343617Y0186490D01*
X0344686Y0188457D02*
X0338655Y0188457D01*
X0336996Y0190424D02*
X0343025Y0190424D01*
X0342445Y0204193D02*
X0337881Y0204193D01*
X0338655Y0206160D02*
X0343287Y0206160D01*
X0345343Y0208127D02*
X0338655Y0208127D01*
X0337326Y0210094D02*
X0343161Y0210094D01*
X0342406Y0212061D02*
X0320907Y0212061D01*
X0327551Y0223863D02*
X0330591Y0223863D01*
X0329487Y0225830D02*
X0328655Y0225830D01*
X0328655Y0227797D02*
X0329487Y0227797D01*
X0330486Y0229764D02*
X0327656Y0229764D01*
X0337491Y0219929D02*
X0347250Y0219929D01*
X0345520Y0217962D02*
X0338655Y0217962D01*
X0338655Y0215995D02*
X0343192Y0215995D01*
X0342406Y0214028D02*
X0337716Y0214028D01*
X0342597Y0233698D02*
X0297948Y0233698D01*
X0240279Y0227797D02*
X0195237Y0227797D01*
X0196062Y0229764D02*
X0238312Y0229764D01*
X0238069Y0231731D02*
X0196090Y0231731D01*
X0195391Y0233698D02*
X0238069Y0233698D01*
X0238363Y0225830D02*
X0193085Y0225830D01*
X0195323Y0223863D02*
X0238069Y0223863D01*
X0238069Y0221896D02*
X0196090Y0221896D01*
X0196090Y0219929D02*
X0239879Y0219929D01*
X0238763Y0217962D02*
X0195316Y0217962D01*
X0193044Y0215995D02*
X0238069Y0215995D01*
X0238069Y0214028D02*
X0195254Y0214028D01*
X0196069Y0212061D02*
X0239479Y0212061D01*
X0239556Y0210094D02*
X0196090Y0210094D01*
X0195384Y0208127D02*
X0238069Y0208127D01*
X0238069Y0206160D02*
X0193442Y0206160D01*
X0195090Y0204193D02*
X0238686Y0204193D01*
X0320907Y0182556D02*
X0321898Y0182556D01*
X0321311Y0180589D02*
X0320907Y0180589D01*
D29*
X0238598Y0114622D02*
X0238598Y0108874D01*
X0229740Y0104445D02*
X0229740Y0114287D01*
X0229543Y0114622D01*
X0224622Y0113795D02*
X0224622Y0108874D01*
X0229740Y0104445D02*
X0260252Y0104445D01*
X0260488Y0104346D01*
X0224622Y0113795D02*
X0199720Y0113795D01*
X0199524Y0113598D01*
X0199524Y0111039D02*
X0199228Y0110843D01*
X0190862Y0110843D01*
X0190862Y0131512D01*
X0194799Y0116256D02*
X0199228Y0116256D01*
X0199524Y0116157D01*
X0199524Y0108480D02*
X0199720Y0108382D01*
X0200213Y0107890D01*
X0200213Y0104937D01*
X0176886Y0108480D02*
X0176591Y0108382D01*
X0161827Y0093618D01*
X0161827Y0064091D01*
X0151492Y0053756D01*
X0119504Y0053756D01*
X0119504Y0062614D01*
X0119307Y0062969D01*
X0128756Y0062969D02*
X0128854Y0062614D01*
X0128854Y0056217D01*
X0150508Y0056217D01*
X0159366Y0065075D01*
X0159366Y0110843D01*
X0176591Y0110843D01*
X0176886Y0111039D01*
X0176886Y0113598D02*
X0176591Y0113795D01*
X0156906Y0113795D01*
X0156906Y0066059D01*
X0149524Y0058677D01*
X0138205Y0058677D01*
X0138205Y0062969D01*
X0147654Y0062969D02*
X0148047Y0063106D01*
X0154445Y0069504D01*
X0154445Y0116256D01*
X0176591Y0116256D01*
X0176886Y0116157D01*
X0090961Y0131020D02*
X0082102Y0131020D01*
X0018126Y0139878D02*
X0018126Y0175311D01*
X0031906Y0189091D01*
X0031906Y0189425D01*
X0051157Y0209071D02*
X0051098Y0209268D01*
X0051098Y0226984D01*
X0050114Y0227969D01*
X0049976Y0227969D01*
X0050606Y0228461D01*
X0050606Y0232398D01*
X0081610Y0232398D01*
X0092437Y0221571D01*
X0092437Y0190567D01*
X0093913Y0189091D01*
X0094386Y0189031D01*
X0018126Y0139878D02*
X0017732Y0139819D01*
M02*
